<?xml version="1.0" encoding="utf-8"?>
<!-- Generator: Adobe Illustrator 16.0.4, SVG Export Plug-In . SVG Version: 6.00 Build 0)  -->
<!DOCTYPE svg PUBLIC "-//W3C//DTD SVG 1.1//EN" "http://www.w3.org/Graphics/SVG/1.1/DTD/svg11.dtd">
<svg version="1.1" id="Layer_1" xmlns="http://www.w3.org/2000/svg" xmlns:xlink="http://www.w3.org/1999/xlink" x="0px" y="0px"
	 width="64px" height="16px" viewBox="0 0 64 16" enable-background="new 0 0 64 16" xml:space="preserve">
<path fill="#626262" d="M9,8h46v1H9V8z"/>
<path fill="#626262" d="M8,9h1v1H8V9z"/>
<path fill="#B8B8B8" d="M9,9h1v3H9v1H8v-3h1V9z"/>
<path fill="#C9C9C9" d="M10,9h1v1h1v1h40v-1h1V9h1v3H10V9z"/>
<path fill="#DBDBDB" d="M11,9h42v1h-1v1H12v-1h-1V9z"/>
<path fill="#B8B8B8" d="M54,9h1v1h1v3h-1v-1h-1V9z"/>
<path fill="#626262" d="M55,9h1v1h-1V9z"/>
<path fill="#626262" d="M7,10h1v5h3v1H7V10z"/>
<path fill="#626262" d="M56,10h1v6h-4v-1h3V10z"/>
<path fill="#868686" d="M9,12h46v1H9V12z"/>
<path fill="#868686" d="M8,13h1v1H8V13z"/>
<path fill="#B8B8B8" d="M9,13h46v1h1v1h-3v1h-2v-1h-1v-1H34v1h-1v1h-2v-1h-1v-1H14v1h-1v1h-2v-1H8v-1h1V13z"/>
<path fill="#868686" d="M55,13h1v1h-1V13z"/>
<path fill="#C9C9C9" d="M14,14h16v1h1v1H13v-1h1V14z"/>
<path fill="#C9C9C9" d="M34,14h16v1h1v1H33v-1h1V14z"/>
</svg>
