<?xml version="1.0" encoding="utf-8"?>
<!-- generated at drububu.com  -->
<!DOCTYPE svg PUBLIC "-//W3C//DTD SVG 1.1//EN" "http://www.w3.org/Graphics/SVG/1.1/DTD/svg11.dtd">
<svg version="1.1" preserveAspectRatio="xMinYMin meet" xmlns="http://www.w3.org/2000/svg" xmlns:xlink="http://www.w3.org/1999/xlink" x="0px" y="0px" width="176px" height="176px" viewBox="0 0 176 176">
<path d="M0 0h3v1h-2v1h-1v-2z" fill="rgb(37,37,37)"/>
<path d="M3 0h170v1h2v2h1v170h-1v2h-2v1h-170v-1h-2v-2h-1v-170h1v-2h2v-1z" fill="rgb(255,255,255)"/>
<path d="M173 0h3v3h-1v-2h-2v-1z" fill="rgb(37,37,37)"/>
<path d="M0 2h1v1h-1v-1z" fill="rgb(0,0,0)"/>
<path d="M3 2h170v1h1v170h-1v1h-170v-1h-1v-170h1v-1z" fill="rgb(0,0,0)"/>
<path d="M8 66h161v1h2v2h1v11h-1v2h-2v1h-161v-1h-2v-2h-1v-11h1v-2h2v-1z" fill="rgb(80,80,80)"/>
<path d="M73 69h7v1h-7v-1z" fill="rgb(120,64,64)"/>
<path d="M94 69h7v1h-7v-1z" fill="rgb(89,58,47)"/>
<path d="M115 69h7v1h-7v-1z" fill="rgb(33,24,20)"/>
<path d="M72 70h1v1h-1v-1z" fill="rgb(120,64,64)"/>
<path d="M73 70h7v1h1v7h-1v1h-7v-1h-1v-7h1v-1z" fill="rgb(216,152,112)"/>
<path d="M80 70h1v1h-1v-1z" fill="rgb(120,64,64)"/>
<path d="M93 70h1v1h-1v-1z" fill="rgb(89,58,47)"/>
<path d="M94 70h7v1h1v7h-1v1h-7v-1h-1v-7h1v-1z" fill="rgb(177,125,92)"/>
<path d="M101 70h1v1h-1v-1z" fill="rgb(89,58,47)"/>
<path d="M114 70h1v1h-1v-1z" fill="rgb(33,24,20)"/>
<path d="M115 70h7v1h1v7h-1v1h-7v-1h-1v-7h1v-1z" fill="rgb(83,60,50)"/>
<path d="M122 70h1v1h-1v-1z" fill="rgb(33,24,20)"/>
<path d="M12 71h3v1h-3v-1z" fill="rgb(255,255,255)"/>
<path d="M16 71h1v3h1v1h-1v3h-1v-7z" fill="rgb(255,255,255)"/>
<path d="M19 71h1v2h-1v-2z" fill="rgb(255,255,255)"/>
<path d="M21 71h3v1h-1v5h1v1h-3v-1h1v-5h-1v-1z" fill="rgb(255,255,255)"/>
<path d="M25 71h1v2h1v1h-1v4h-1v-7z" fill="rgb(255,255,255)"/>
<path d="M28 71h1v7h-1v-3h-1v-1h1v-3z" fill="rgb(255,255,255)"/>
<path d="M33 71h3v1h-1v6h-1v-6h-1v-1z" fill="rgb(255,255,255)"/>
<path d="M38 71h2v1h-2v-1z" fill="rgb(255,255,255)"/>
<path d="M42 71h1v2h1v1h-1v4h-1v-7z" fill="rgb(255,255,255)"/>
<path d="M45 71h1v7h-1v-3h-1v-1h1v-3z" fill="rgb(255,255,255)"/>
<path d="M47 71h4v1h-3v2h2v1h-2v2h3v1h-4v-7z" fill="rgb(255,255,255)"/>
<path d="M71 71h1v7h-1v-7z" fill="rgb(120,64,64)"/>
<path d="M74 71h5v1h1v5h-1v1h-5v-1h-1v-5h1v-1z" fill="rgb(248,208,184)"/>
<path d="M81 71h1v7h-1v-7z" fill="rgb(120,64,64)"/>
<path d="M92 71h1v7h-1v-7z" fill="rgb(89,58,47)"/>
<path d="M95 71h5v1h1v5h-1v1h-5v-1h-1v-5h1v-1z" fill="rgb(216,152,112)"/>
<path d="M102 71h1v7h-1v-7z" fill="rgb(89,58,47)"/>
<path d="M113 71h1v7h-1v-7z" fill="rgb(33,24,20)"/>
<path d="M116 71h5v1h1v5h-1v1h-5v-1h-1v-5h1v-1z" fill="rgb(129,92,77)"/>
<path d="M123 71h1v7h-1v-7z" fill="rgb(33,24,20)"/>
<path d="M11 72h1v2h-1v-2z" fill="rgb(255,255,255)"/>
<path d="M37 72h1v5h-1v-5z" fill="rgb(255,255,255)"/>
<path d="M38 72h2v5h-2v-5z" fill="rgb(80,80,80)"/>
<path d="M40 72h1v5h-1v-5z" fill="rgb(255,255,255)"/>
<path d="M74 72h2v2h-2v-2z" fill="rgb(232,232,248)"/>
<path d="M95 72h2v2h-2v-2z" fill="rgb(245,175,147)"/>
<path d="M116 72h2v2h-2v-2z" fill="rgb(157,112,94)"/>
<path d="M18 73h1v1h-1v-1z" fill="rgb(255,255,255)"/>
<path d="M12 74h2v1h-2v-1z" fill="rgb(255,255,255)"/>
<path d="M14 75h1v2h-1v-2z" fill="rgb(255,255,255)"/>
<path d="M18 75h1v1h-1v-1z" fill="rgb(255,255,255)"/>
<path d="M19 76h1v2h-1v-2z" fill="rgb(255,255,255)"/>
<path d="M11 77h3v1h-3v-1z" fill="rgb(255,255,255)"/>
<path d="M38 77h2v1h-2v-1z" fill="rgb(255,255,255)"/>
<path d="M72 78h1v1h-1v-1z" fill="rgb(120,64,64)"/>
<path d="M80 78h1v1h-1v-1z" fill="rgb(120,64,64)"/>
<path d="M93 78h1v1h-1v-1z" fill="rgb(89,58,47)"/>
<path d="M101 78h1v1h-1v-1z" fill="rgb(89,58,47)"/>
<path d="M114 78h1v1h-1v-1z" fill="rgb(33,24,20)"/>
<path d="M122 78h1v1h-1v-1z" fill="rgb(33,24,20)"/>
<path d="M73 79h7v1h-7v-1z" fill="rgb(120,64,64)"/>
<path d="M94 79h7v1h-7v-1z" fill="rgb(89,58,47)"/>
<path d="M115 79h7v1h-7v-1z" fill="rgb(33,24,20)"/>
<path d="M8 85h161v1h2v2h1v15h-1v2h-2v1h-161v-1h-2v-2h-1v-15h1v-2h2v-1z" fill="rgb(80,80,80)"/>
<path d="M70 88h1v2h-1v-2z" fill="rgb(1,1,1)"/>
<path d="M71 88h11v4h-2v-1h-2v2h2v1h-1v1h-2v-1h-1v1h-2v-1h-1v-1h2v-2h-2v1h-2v-4z" fill="rgb(248,208,184)"/>
<path d="M82 88h1v2h-1v-2z" fill="rgb(1,1,1)"/>
<path d="M91 88h1v2h-1v-2z" fill="rgb(1,1,1)"/>
<path d="M92 88h11v4h-2v-1h-2v2h2v1h-1v1h-2v-1h-1v1h-2v-1h-1v-1h2v-2h-2v1h-2v-4z" fill="rgb(248,208,184)"/>
<path d="M103 88h1v2h-1v-2z" fill="rgb(1,1,1)"/>
<path d="M112 88h1v2h-1v-2z" fill="rgb(1,1,1)"/>
<path d="M113 88h11v4h-2v-1h-2v2h2v1h-1v1h-2v-1h-1v1h-2v-1h-1v-1h2v-2h-2v1h-2v-4z" fill="rgb(248,208,184)"/>
<path d="M124 88h1v2h-1v-2z" fill="rgb(1,1,1)"/>
<path d="M69 89h1v1h-1v-1z" fill="rgb(120,64,64)"/>
<path d="M73 89h2v1h-2v-1z" fill="rgb(216,152,112)"/>
<path d="M78 89h2v1h-2v-1z" fill="rgb(216,152,112)"/>
<path d="M83 89h1v1h-1v-1z" fill="rgb(120,64,64)"/>
<path d="M90 89h1v1h-1v-1z" fill="rgb(120,64,64)"/>
<path d="M94 89h2v1h-2v-1z" fill="rgb(216,152,112)"/>
<path d="M99 89h2v1h-2v-1z" fill="rgb(216,152,112)"/>
<path d="M104 89h1v1h-1v-1z" fill="rgb(120,64,64)"/>
<path d="M111 89h1v1h-1v-1z" fill="rgb(120,64,64)"/>
<path d="M115 89h2v1h-2v-1z" fill="rgb(216,152,112)"/>
<path d="M120 89h2v1h-2v-1z" fill="rgb(216,152,112)"/>
<path d="M125 89h1v1h-1v-1z" fill="rgb(120,64,64)"/>
<path d="M69 90h1v2h-1v-2z" fill="rgb(1,1,1)"/>
<path d="M70 90h1v2h-1v-2z" fill="rgb(216,152,112)"/>
<path d="M82 90h1v2h-1v-2z" fill="rgb(216,152,112)"/>
<path d="M83 90h1v2h-1v-2z" fill="rgb(1,1,1)"/>
<path d="M90 90h1v2h-1v-2z" fill="rgb(1,1,1)"/>
<path d="M91 90h1v2h-1v-2z" fill="rgb(216,152,112)"/>
<path d="M103 90h1v2h-1v-2z" fill="rgb(216,152,112)"/>
<path d="M104 90h1v2h-1v-2z" fill="rgb(1,1,1)"/>
<path d="M111 90h1v2h-1v-2z" fill="rgb(1,1,1)"/>
<path d="M112 90h1v2h-1v-2z" fill="rgb(216,152,112)"/>
<path d="M124 90h1v2h-1v-2z" fill="rgb(216,152,112)"/>
<path d="M125 90h1v2h-1v-2z" fill="rgb(1,1,1)"/>
<path d="M73 91h1v1h-1v-1z" fill="rgb(168,160,200)"/>
<path d="M74 91h1v1h-1v-1z" fill="rgb(64,64,72)"/>
<path d="M78 91h1v1h-1v-1z" fill="rgb(64,64,72)"/>
<path d="M79 91h1v1h-1v-1z" fill="rgb(168,160,200)"/>
<path d="M94 91h1v1h-1v-1z" fill="rgb(168,160,200)"/>
<path d="M95 91h1v1h-1v-1z" fill="rgb(64,64,72)"/>
<path d="M99 91h1v1h-1v-1z" fill="rgb(64,64,72)"/>
<path d="M100 91h1v1h-1v-1z" fill="rgb(168,160,200)"/>
<path d="M115 91h1v1h-1v-1z" fill="rgb(168,160,200)"/>
<path d="M116 91h1v1h-1v-1z" fill="rgb(64,64,72)"/>
<path d="M120 91h1v1h-1v-1z" fill="rgb(64,64,72)"/>
<path d="M121 91h1v1h-1v-1z" fill="rgb(168,160,200)"/>
<path d="M12 92h3v1h-3v-1z" fill="rgb(255,255,255)"/>
<path d="M16 92h1v6h3v1h-4v-7z" fill="rgb(255,255,255)"/>
<path d="M22 92h2v1h-2v-1z" fill="rgb(255,255,255)"/>
<path d="M26 92h3v1h-1v6h-1v-6h-1v-1z" fill="rgb(255,255,255)"/>
<path d="M30 92h1v3h2v-3h1v7h-1v-3h-2v3h-1v-7z" fill="rgb(255,255,255)"/>
<path d="M35 92h4v1h-3v2h2v1h-2v2h3v1h-4v-7z" fill="rgb(255,255,255)"/>
<path d="M41 92h3v1h-3v-1z" fill="rgb(255,255,255)"/>
<path d="M70 92h1v1h-1v-1z" fill="rgb(120,64,64)"/>
<path d="M71 92h2v2h-1v-1h-1v-1z" fill="rgb(216,152,112)"/>
<path d="M73 92h1v1h-1v-1z" fill="rgb(232,232,248)"/>
<path d="M74 92h1v1h-1v-1z" fill="rgb(1,1,1)"/>
<path d="M78 92h1v1h-1v-1z" fill="rgb(1,1,1)"/>
<path d="M79 92h1v1h-1v-1z" fill="rgb(232,232,248)"/>
<path d="M80 92h2v1h-1v1h-1v-2z" fill="rgb(216,152,112)"/>
<path d="M82 92h1v1h-1v-1z" fill="rgb(120,64,64)"/>
<path d="M91 92h1v1h-1v-1z" fill="rgb(120,64,64)"/>
<path d="M92 92h2v2h-1v-1h-1v-1z" fill="rgb(216,152,112)"/>
<path d="M94 92h1v1h-1v-1z" fill="rgb(232,232,248)"/>
<path d="M95 92h1v1h-1v-1z" fill="rgb(1,1,1)"/>
<path d="M99 92h1v1h-1v-1z" fill="rgb(1,1,1)"/>
<path d="M100 92h1v1h-1v-1z" fill="rgb(232,232,248)"/>
<path d="M101 92h2v1h-1v1h-1v-2z" fill="rgb(216,152,112)"/>
<path d="M103 92h1v1h-1v-1z" fill="rgb(120,64,64)"/>
<path d="M112 92h1v1h-1v-1z" fill="rgb(120,64,64)"/>
<path d="M113 92h2v2h-1v-1h-1v-1z" fill="rgb(216,152,112)"/>
<path d="M115 92h1v1h-1v-1z" fill="rgb(232,232,248)"/>
<path d="M116 92h1v1h-1v-1z" fill="rgb(1,1,1)"/>
<path d="M120 92h1v1h-1v-1z" fill="rgb(1,1,1)"/>
<path d="M121 92h1v1h-1v-1z" fill="rgb(232,232,248)"/>
<path d="M122 92h2v1h-1v1h-1v-2z" fill="rgb(216,152,112)"/>
<path d="M124 92h1v1h-1v-1z" fill="rgb(120,64,64)"/>
<path d="M11 93h1v5h-1v-5z" fill="rgb(255,255,255)"/>
<path d="M21 93h1v5h-1v-5z" fill="rgb(255,255,255)"/>
<path d="M22 93h2v5h-2v-5z" fill="rgb(80,80,80)"/>
<path d="M24 93h1v5h-1v-5z" fill="rgb(255,255,255)"/>
<path d="M40 93h1v2h-1v-2z" fill="rgb(255,255,255)"/>
<path d="M71 93h1v1h1v1h-2v-2z" fill="rgb(3,3,3)"/>
<path d="M81 93h1v2h-2v-1h1v-1z" fill="rgb(3,3,3)"/>
<path d="M92 93h1v1h1v1h-2v-2z" fill="rgb(3,3,3)"/>
<path d="M102 93h1v2h-2v-1h1v-1z" fill="rgb(3,3,3)"/>
<path d="M113 93h1v1h-1v-1z" fill="rgb(3,3,3)"/>
<path d="M123 93h1v1h-1v-1z" fill="rgb(3,3,3)"/>
<path d="M73 94h1v1h-1v-1z" fill="rgb(216,152,112)"/>
<path d="M76 94h1v1h1v1h-3v-1h1v-1z" fill="rgb(216,152,112)"/>
<path d="M79 94h1v1h-1v-1z" fill="rgb(216,152,112)"/>
<path d="M94 94h1v1h-1v-1z" fill="rgb(216,152,112)"/>
<path d="M97 94h1v1h1v1h-3v-1h1v-1z" fill="rgb(216,152,112)"/>
<path d="M100 94h1v1h-1v-1z" fill="rgb(216,152,112)"/>
<path d="M113 94h2v1h-2v-1z" fill="rgb(1,1,1)"/>
<path d="M115 94h1v1h-1v-1z" fill="rgb(216,152,112)"/>
<path d="M118 94h1v1h1v1h-3v-1h1v-1z" fill="rgb(216,152,112)"/>
<path d="M121 94h1v1h-1v-1z" fill="rgb(216,152,112)"/>
<path d="M122 94h2v1h-2v-1z" fill="rgb(1,1,1)"/>
<path d="M41 95h2v1h-2v-1z" fill="rgb(255,255,255)"/>
<path d="M70 95h1v1h-1v-1z" fill="rgb(1,1,1)"/>
<path d="M71 95h1v1h-1v-1z" fill="rgb(216,152,112)"/>
<path d="M72 95h1v2h-1v1h-2v-2h2v-1z" fill="rgb(248,208,184)"/>
<path d="M73 95h1v1h-1v-1z" fill="rgb(1,1,1)"/>
<path d="M74 95h1v1h-1v-1z" fill="rgb(120,64,64)"/>
<path d="M78 95h1v1h-1v-1z" fill="rgb(120,64,64)"/>
<path d="M79 95h1v1h-1v-1z" fill="rgb(1,1,1)"/>
<path d="M80 95h1v1h2v2h-2v-1h-1v-2z" fill="rgb(248,208,184)"/>
<path d="M81 95h1v1h-1v-1z" fill="rgb(216,152,112)"/>
<path d="M82 95h1v1h-1v-1z" fill="rgb(1,1,1)"/>
<path d="M91 95h1v1h-1v-1z" fill="rgb(1,1,1)"/>
<path d="M92 95h1v2h-1v-2z" fill="rgb(56,88,120)"/>
<path d="M93 95h1v2h-1v-2z" fill="rgb(224,192,64)"/>
<path d="M94 95h1v1h-1v-1z" fill="rgb(1,1,1)"/>
<path d="M95 95h1v1h-1v-1z" fill="rgb(120,64,64)"/>
<path d="M99 95h1v1h-1v-1z" fill="rgb(120,64,64)"/>
<path d="M100 95h1v1h-1v-1z" fill="rgb(1,1,1)"/>
<path d="M101 95h1v2h-1v-2z" fill="rgb(224,192,64)"/>
<path d="M102 95h1v2h-1v-2z" fill="rgb(56,88,120)"/>
<path d="M103 95h1v1h-1v-1z" fill="rgb(1,1,1)"/>
<path d="M112 95h1v1h-1v-1z" fill="rgb(3,3,3)"/>
<path d="M113 95h1v1h-1v-1z" fill="rgb(216,152,112)"/>
<path d="M114 95h1v2h-1v1h-2v-2h2v-1z" fill="rgb(248,208,184)"/>
<path d="M115 95h1v1h-1v-1z" fill="rgb(3,3,3)"/>
<path d="M116 95h1v1h-1v-1z" fill="rgb(120,64,64)"/>
<path d="M120 95h1v1h-1v-1z" fill="rgb(120,64,64)"/>
<path d="M121 95h1v1h-1v-1z" fill="rgb(3,3,3)"/>
<path d="M122 95h1v1h2v2h-2v-1h-1v-2z" fill="rgb(248,208,184)"/>
<path d="M123 95h1v1h-1v-1z" fill="rgb(216,152,112)"/>
<path d="M124 95h1v1h-1v-1z" fill="rgb(3,3,3)"/>
<path d="M43 96h1v2h-1v-2z" fill="rgb(255,255,255)"/>
<path d="M69 96h1v1h-1v-1z" fill="rgb(1,1,1)"/>
<path d="M73 96h1v1h1v1h3v-1h1v-1h1v2h-1v1h-5v-1h-1v-2z" fill="rgb(96,96,128)"/>
<path d="M74 96h5v1h-5v-1z" fill="rgb(176,176,200)"/>
<path d="M83 96h1v1h-1v-1z" fill="rgb(1,1,1)"/>
<path d="M90 96h1v1h-1v-1z" fill="rgb(1,1,1)"/>
<path d="M91 96h1v1h-1v-1z" fill="rgb(248,208,184)"/>
<path d="M94 96h1v1h1v1h1v1h1v-1h1v-1h1v-1h1v4h-1v1h-5v-1h-1v-4z" fill="rgb(56,88,120)"/>
<path d="M95 96h1v1h-1v-1z" fill="rgb(55,67,79)"/>
<path d="M96 96h3v1h-3v-1z" fill="rgb(232,232,242)"/>
<path d="M99 96h1v1h-1v-1z" fill="rgb(55,67,79)"/>
<path d="M103 96h1v1h-1v-1z" fill="rgb(248,208,184)"/>
<path d="M104 96h1v1h-1v-1z" fill="rgb(1,1,1)"/>
<path d="M111 96h1v1h-1v-1z" fill="rgb(3,3,3)"/>
<path d="M115 96h1v2h-1v-2z" fill="rgb(79,113,99)"/>
<path d="M116 96h1v1h-1v-1z" fill="rgb(184,166,168)"/>
<path d="M117 96h3v1h-3v-1z" fill="rgb(120,64,64)"/>
<path d="M120 96h1v1h-1v-1z" fill="rgb(184,166,168)"/>
<path d="M121 96h1v2h-1v-2z" fill="rgb(79,113,99)"/>
<path d="M125 96h1v1h-1v-1z" fill="rgb(3,3,3)"/>
<path d="M68 97h1v2h-1v-2z" fill="rgb(120,64,64)"/>
<path d="M69 97h1v1h1v1h-2v-2z" fill="rgb(216,152,112)"/>
<path d="M72 97h1v2h-1v-2z" fill="rgb(1,1,1)"/>
<path d="M75 97h3v1h-3v-1z" fill="rgb(232,232,248)"/>
<path d="M80 97h1v2h-1v-2z" fill="rgb(1,1,1)"/>
<path d="M83 97h1v2h-2v-1h1v-1z" fill="rgb(216,152,112)"/>
<path d="M84 97h1v2h-1v-2z" fill="rgb(120,64,64)"/>
<path d="M89 97h1v2h-1v-2z" fill="rgb(120,64,64)"/>
<path d="M90 97h1v1h1v1h-2v-2z" fill="rgb(248,208,184)"/>
<path d="M91 97h1v1h-1v-1z" fill="rgb(216,152,112)"/>
<path d="M92 97h1v1h-1v-1z" fill="rgb(55,67,79)"/>
<path d="M93 97h1v2h-1v4h-1v-3h-1v-1h1v-1h1v-1z" fill="rgb(1,1,1)"/>
<path d="M96 97h1v1h-1v-1z" fill="rgb(55,67,79)"/>
<path d="M97 97h1v1h-1v-1z" fill="rgb(224,192,64)"/>
<path d="M98 97h1v1h-1v-1z" fill="rgb(55,67,79)"/>
<path d="M101 97h1v1h1v1h1v1h-1v3h-1v-4h-1v-2z" fill="rgb(1,1,1)"/>
<path d="M102 97h1v1h-1v-1z" fill="rgb(55,67,79)"/>
<path d="M103 97h1v1h-1v-1z" fill="rgb(216,152,112)"/>
<path d="M104 97h1v2h-2v-1h1v-1z" fill="rgb(248,208,184)"/>
<path d="M105 97h1v2h-1v-2z" fill="rgb(120,64,64)"/>
<path d="M110 97h1v2h-1v-2z" fill="rgb(120,64,64)"/>
<path d="M111 97h1v1h1v1h-2v-2z" fill="rgb(216,152,112)"/>
<path d="M114 97h1v2h-1v-2z" fill="rgb(3,3,3)"/>
<path d="M116 97h1v2h-2v-1h1v-1z" fill="rgb(96,136,120)"/>
<path d="M117 97h3v1h-3v-1z" fill="rgb(184,166,168)"/>
<path d="M120 97h1v1h1v1h-2v-2z" fill="rgb(96,136,120)"/>
<path d="M122 97h1v2h-1v-2z" fill="rgb(3,3,3)"/>
<path d="M125 97h1v2h-2v-1h1v-1z" fill="rgb(216,152,112)"/>
<path d="M126 97h1v2h-1v-2z" fill="rgb(120,64,64)"/>
<path d="M12 98h3v1h-3v-1z" fill="rgb(255,255,255)"/>
<path d="M22 98h2v1h-2v-1z" fill="rgb(255,255,255)"/>
<path d="M40 98h3v1h-3v-1z" fill="rgb(255,255,255)"/>
<path d="M71 98h1v1h-1v-1z" fill="rgb(120,64,64)"/>
<path d="M73 98h1v3h-1v-1h-1v-1h1v-1z" fill="rgb(176,176,200)"/>
<path d="M79 98h1v1h1v1h-1v1h-1v-3z" fill="rgb(176,176,200)"/>
<path d="M81 98h1v1h-1v-1z" fill="rgb(120,64,64)"/>
<path d="M97 98h1v1h-1v-1z" fill="rgb(55,67,79)"/>
<path d="M113 98h1v1h-1v-1z" fill="rgb(120,64,64)"/>
<path d="M117 98h3v1h1v1h-5v-1h1v-1z" fill="rgb(96,184,176)"/>
<path d="M123 98h1v1h-1v-1z" fill="rgb(120,64,64)"/>
<path d="M69 99h2v1h-2v-1z" fill="rgb(120,64,64)"/>
<path d="M71 99h1v3h-1v-3z" fill="rgb(1,1,1)"/>
<path d="M74 99h5v2h-1v1h-3v-1h-1v-2z" fill="rgb(232,232,248)"/>
<path d="M81 99h1v3h-1v-3z" fill="rgb(1,1,1)"/>
<path d="M82 99h2v1h-2v-1z" fill="rgb(120,64,64)"/>
<path d="M90 99h1v1h-1v-1z" fill="rgb(120,64,64)"/>
<path d="M93 99h1v1h-1v-1z" fill="rgb(55,67,79)"/>
<path d="M101 99h1v1h-1v-1z" fill="rgb(55,67,79)"/>
<path d="M104 99h1v1h-1v-1z" fill="rgb(120,64,64)"/>
<path d="M111 99h2v1h-2v-1z" fill="rgb(120,64,64)"/>
<path d="M113 99h1v3h-1v-3z" fill="rgb(3,3,3)"/>
<path d="M114 99h1v2h-1v-2z" fill="rgb(192,79,87)"/>
<path d="M115 99h1v1h-1v-1z" fill="rgb(120,64,80)"/>
<path d="M121 99h1v1h-1v-1z" fill="rgb(120,64,80)"/>
<path d="M122 99h1v2h-1v-2z" fill="rgb(192,79,87)"/>
<path d="M123 99h1v3h-1v-3z" fill="rgb(3,3,3)"/>
<path d="M124 99h2v1h-2v-1z" fill="rgb(120,64,64)"/>
<path d="M72 100h1v1h-1v-1z" fill="rgb(152,96,144)"/>
<path d="M80 100h1v1h-1v-1z" fill="rgb(152,96,144)"/>
<path d="M93 100h1v1h-1v-1z" fill="rgb(176,176,176)"/>
<path d="M94 100h1v1h-1v-1z" fill="rgb(55,67,79)"/>
<path d="M100 100h1v1h-1v-1z" fill="rgb(55,67,79)"/>
<path d="M101 100h1v1h-1v-1z" fill="rgb(176,176,176)"/>
<path d="M115 100h2v1h3v-1h2v1h-1v1h-5v-1h-1v-1z" fill="rgb(241,121,89)"/>
<path d="M117 100h3v1h-3v-1z" fill="rgb(120,64,80)"/>
<path d="M72 101h1v1h-1v-1z" fill="rgb(216,152,112)"/>
<path d="M73 101h1v1h-1v-1z" fill="rgb(152,96,144)"/>
<path d="M74 101h1v1h-1v-1z" fill="rgb(176,176,200)"/>
<path d="M78 101h1v1h-1v-1z" fill="rgb(176,176,200)"/>
<path d="M79 101h1v1h-1v-1z" fill="rgb(152,96,144)"/>
<path d="M80 101h1v1h-1v-1z" fill="rgb(216,152,112)"/>
<path d="M93 101h1v1h-1v-1z" fill="rgb(36,36,36)"/>
<path d="M94 101h2v1h-2v-1z" fill="rgb(176,176,176)"/>
<path d="M96 101h3v1h-3v-1z" fill="rgb(105,105,105)"/>
<path d="M99 101h2v1h-2v-1z" fill="rgb(176,176,176)"/>
<path d="M101 101h1v1h-1v-1z" fill="rgb(36,36,36)"/>
<path d="M114 101h1v1h-1v-1z" fill="rgb(120,64,80)"/>
<path d="M115 101h1v1h-1v-1z" fill="rgb(192,79,87)"/>
<path d="M121 101h1v1h-1v-1z" fill="rgb(192,79,87)"/>
<path d="M122 101h1v1h-1v-1z" fill="rgb(120,64,80)"/>
<path d="M72 102h1v1h-1v-1z" fill="rgb(1,1,1)"/>
<path d="M73 102h2v1h-2v-1z" fill="rgb(88,80,128)"/>
<path d="M75 102h3v1h-3v-1z" fill="rgb(1,1,1)"/>
<path d="M78 102h2v1h-2v-1z" fill="rgb(88,80,128)"/>
<path d="M80 102h1v1h-1v-1z" fill="rgb(1,1,1)"/>
<path d="M93 102h2v1h-2v-1z" fill="rgb(63,63,63)"/>
<path d="M95 102h1v1h-1v-1z" fill="rgb(1,1,1)"/>
<path d="M99 102h1v1h-1v-1z" fill="rgb(1,1,1)"/>
<path d="M100 102h2v1h-2v-1z" fill="rgb(63,63,63)"/>
<path d="M114 102h1v1h-1v-1z" fill="rgb(3,3,3)"/>
<path d="M115 102h2v1h-2v-1z" fill="rgb(185,144,88)"/>
<path d="M117 102h3v1h-3v-1z" fill="rgb(3,3,3)"/>
<path d="M120 102h2v1h-2v-1z" fill="rgb(185,144,88)"/>
<path d="M122 102h1v1h-1v-1z" fill="rgb(3,3,3)"/>
<path d="M73 103h2v1h-2v-1z" fill="rgb(1,1,1)"/>
<path d="M78 103h2v1h-2v-1z" fill="rgb(1,1,1)"/>
<path d="M93 103h2v1h-2v-1z" fill="rgb(1,1,1)"/>
<path d="M100 103h2v1h-2v-1z" fill="rgb(1,1,1)"/>
<path d="M115 103h2v1h-2v-1z" fill="rgb(3,3,3)"/>
<path d="M120 103h2v1h-2v-1z" fill="rgb(3,3,3)"/>
<path d="M8 108h161v1h2v2h1v15h-1v2h-2v1h-161v-1h-2v-2h-1v-15h1v-2h2v-1z" fill="rgb(80,80,80)"/>
<path d="M95 110h5v1h-5v-1z" fill="rgb(56,48,48)"/>
<path d="M116 110h5v1h-5v-1z" fill="rgb(56,48,48)"/>
<path d="M137 110h5v1h-5v-1z" fill="rgb(56,48,48)"/>
<path d="M74 111h5v1h-5v-1z" fill="rgb(120,64,64)"/>
<path d="M93 111h2v1h-2v-1z" fill="rgb(56,48,48)"/>
<path d="M95 111h1v1h-1v-1z" fill="rgb(144,112,80)"/>
<path d="M96 111h3v1h3v1h1v1h1v2h1v2h-1v-1h-1v1h1v2h-1v-1h-2v-2h-1v1h-1v1h-2v1h-3v-1h-2
	v-1h1v-1h-1v1h-2v-2h1v-2h1v-1h1v2h1v1h2v-1h-1v-3h1v-1z" fill="rgb(96,80,56)"/>
<path d="M99 111h1v1h-1v-1z" fill="rgb(144,112,80)"/>
<path d="M100 111h2v1h-2v-1z" fill="rgb(56,48,48)"/>
<path d="M114 111h2v1h-2v-1z" fill="rgb(56,48,48)"/>
<path d="M116 111h1v1h-1v-1z" fill="rgb(144,112,80)"/>
<path d="M117 111h3v1h3v1h1v2h1v2h1v1h1v1h-1v1h-1v-1h-1v1h1v1h1v1h-2v-1h-1v-1h-1v-3h-1
	v-2h-1v2h1v2h-1v1h-1v1h-2v-1h-2v1h-2v1h-2v-1h1v-1h-1v-1h-1v-1h1v-1h1v-2h1v-2h1v2
	h1v1h2v-1h-1v-3h1v-1z" fill="rgb(96,80,56)"/>
<path d="M120 111h1v1h-1v-1z" fill="rgb(144,112,80)"/>
<path d="M121 111h2v1h-2v-1z" fill="rgb(56,48,48)"/>
<path d="M135 111h2v1h-2v-1z" fill="rgb(56,48,48)"/>
<path d="M137 111h1v1h-1v-1z" fill="rgb(144,112,80)"/>
<path d="M138 111h3v1h3v1h1v2h1v2h-1v1h1v2h-1v-1h-2v-1h-1v-1h-1v1h-1v1h-2v1h-2v-1h-2v1
	h-1v-2h1v-1h-1v-2h1v-2h1v2h1v1h2v-1h-1v-3h1v-1z" fill="rgb(96,80,56)"/>
<path d="M141 111h1v1h-1v-1z" fill="rgb(144,112,80)"/>
<path d="M142 111h2v1h-2v-1z" fill="rgb(56,48,48)"/>
<path d="M72 112h2v1h-2v-1z" fill="rgb(120,64,64)"/>
<path d="M74 112h5v1h-5v-1z" fill="rgb(216,152,112)"/>
<path d="M79 112h2v1h-2v-1z" fill="rgb(120,64,64)"/>
<path d="M92 112h1v1h-1v-1z" fill="rgb(56,48,48)"/>
<path d="M93 112h1v1h-1v-1z" fill="rgb(96,80,56)"/>
<path d="M94 112h1v3h1v1h-2v-1h-1v-2h1v-1z" fill="rgb(144,112,80)"/>
<path d="M97 112h1v1h1v1h-1v1h-1v-1h-1v-1h1v-1z" fill="rgb(56,48,48)"/>
<path d="M102 112h1v1h-1v-1z" fill="rgb(56,48,48)"/>
<path d="M113 112h1v1h-1v-1z" fill="rgb(56,48,48)"/>
<path d="M114 112h1v1h-1v-1z" fill="rgb(96,80,56)"/>
<path d="M115 112h1v3h1v1h-2v-1h-1v-2h1v-1z" fill="rgb(144,112,80)"/>
<path d="M118 112h1v1h1v1h-1v1h-1v-1h-1v-1h1v-1z" fill="rgb(56,48,48)"/>
<path d="M123 112h1v1h-1v-1z" fill="rgb(56,48,48)"/>
<path d="M134 112h1v1h-1v-1z" fill="rgb(56,48,48)"/>
<path d="M135 112h1v1h-1v-1z" fill="rgb(96,80,56)"/>
<path d="M136 112h1v3h1v1h-2v-1h-1v-2h1v-1z" fill="rgb(144,112,80)"/>
<path d="M139 112h1v1h1v1h-1v1h-1v-1h-1v-1h1v-1z" fill="rgb(56,48,48)"/>
<path d="M144 112h1v1h-1v-1z" fill="rgb(56,48,48)"/>
<path d="M71 113h1v2h-1v-2z" fill="rgb(120,64,64)"/>
<path d="M72 113h1v1h-1v-1z" fill="rgb(216,152,112)"/>
<path d="M73 113h7v1h1v1h1v7h-2v-1h-2v2h2v1h-1v1h-2v-1h-1v1h-2v-1h-1v-1h2v-2h-2v1h-2v-7
	h1v-1h1v-1z" fill="rgb(248,208,184)"/>
<path d="M80 113h1v1h-1v-1z" fill="rgb(216,152,112)"/>
<path d="M81 113h1v2h-1v-2z" fill="rgb(120,64,64)"/>
<path d="M91 113h1v1h-1v-1z" fill="rgb(56,48,48)"/>
<path d="M100 113h1v2h-1v-2z" fill="rgb(144,112,80)"/>
<path d="M103 113h1v1h-1v-1z" fill="rgb(1,1,1)"/>
<path d="M112 113h1v2h-1v-2z" fill="rgb(1,1,1)"/>
<path d="M121 113h1v2h-1v-2z" fill="rgb(144,112,80)"/>
<path d="M124 113h1v2h-1v-2z" fill="rgb(1,1,1)"/>
<path d="M133 113h1v1h-1v-1z" fill="rgb(1,1,1)"/>
<path d="M142 113h1v2h-1v-2z" fill="rgb(144,112,80)"/>
<path d="M145 113h1v1h-1v-1z" fill="rgb(1,1,1)"/>
<path d="M73 114h2v2h-2v-2z" fill="rgb(232,232,248)"/>
<path d="M90 114h1v2h-1v-2z" fill="rgb(1,1,1)"/>
<path d="M104 114h1v2h-1v-2z" fill="rgb(1,1,1)"/>
<path d="M133 114h1v1h-1v-1z" fill="rgb(56,48,48)"/>
<path d="M145 114h1v1h-1v-1z" fill="rgb(56,48,48)"/>
<path d="M11 115h1v3h2v-3h1v7h-1v-3h-2v3h-1v-7z" fill="rgb(255,255,255)"/>
<path d="M17 115h2v1h-2v-1z" fill="rgb(255,255,255)"/>
<path d="M21 115h3v1h-1v5h1v1h-3v-1h1v-5h-1v-1z" fill="rgb(255,255,255)"/>
<path d="M25 115h3v1h-2v2h2v1h-2v3h-1v-7z" fill="rgb(255,255,255)"/>
<path d="M33 115h1v6h3v1h-4v-7z" fill="rgb(255,255,255)"/>
<path d="M38 115h4v1h-3v2h2v1h-2v2h3v1h-4v-7z" fill="rgb(255,255,255)"/>
<path d="M43 115h1v2h1v1h-1v4h-1v-7z" fill="rgb(255,255,255)"/>
<path d="M46 115h1v7h-1v-3h-1v-1h1v-3z" fill="rgb(255,255,255)"/>
<path d="M49 115h2v1h-2v-1z" fill="rgb(255,255,255)"/>
<path d="M53 115h3v1h-1v6h-1v-6h-1v-1z" fill="rgb(255,255,255)"/>
<path d="M57 115h1v3h2v-3h1v7h-1v-3h-2v3h-1v-7z" fill="rgb(255,255,255)"/>
<path d="M70 115h1v2h-1v-2z" fill="rgb(120,64,64)"/>
<path d="M82 115h1v2h-1v-2z" fill="rgb(120,64,64)"/>
<path d="M99 115h1v1h-1v-1z" fill="rgb(144,112,80)"/>
<path d="M111 115h1v2h-1v-2z" fill="rgb(1,1,1)"/>
<path d="M120 115h1v1h-1v-1z" fill="rgb(144,112,80)"/>
<path d="M125 115h1v2h-1v-2z" fill="rgb(1,1,1)"/>
<path d="M132 115h1v2h-1v-2z" fill="rgb(1,1,1)"/>
<path d="M141 115h1v1h-1v-1z" fill="rgb(144,112,80)"/>
<path d="M146 115h1v2h-1v-2z" fill="rgb(1,1,1)"/>
<path d="M16 116h1v2h2v-2h1v6h-1v-3h-2v3h-1v-6z" fill="rgb(255,255,255)"/>
<path d="M17 116h2v2h-2v-2z" fill="rgb(80,80,80)"/>
<path d="M26 116h2v2h-2v-2z" fill="rgb(80,80,80)"/>
<path d="M28 116h1v2h-1v-2z" fill="rgb(255,255,255)"/>
<path d="M48 116h1v5h-1v-5z" fill="rgb(255,255,255)"/>
<path d="M51 116h1v1h-1v-1z" fill="rgb(255,255,255)"/>
<path d="M89 116h1v2h-1v-2z" fill="rgb(1,1,1)"/>
<path d="M96 116h2v1h-2v-1z" fill="rgb(144,112,80)"/>
<path d="M101 116h1v1h-1v-1z" fill="rgb(56,48,48)"/>
<path d="M105 116h1v2h-1v-2z" fill="rgb(1,1,1)"/>
<path d="M117 116h2v1h-2v-1z" fill="rgb(144,112,80)"/>
<path d="M120 116h1v1h-1v-1z" fill="rgb(56,48,48)"/>
<path d="M138 116h2v1h-2v-1z" fill="rgb(144,112,80)"/>
<path d="M70 117h1v3h-1v-3z" fill="rgb(1,1,1)"/>
<path d="M82 117h1v3h-1v-3z" fill="rgb(1,1,1)"/>
<path d="M92 117h1v1h-1v-1z" fill="rgb(56,48,48)"/>
<path d="M100 117h1v2h-2v-1h1v-1z" fill="rgb(56,48,48)"/>
<path d="M103 117h1v1h-1v-1z" fill="rgb(56,48,48)"/>
<path d="M110 117h1v1h-1v-1z" fill="rgb(1,1,1)"/>
<path d="M121 117h1v3h-2v-1h1v-2z" fill="rgb(56,48,48)"/>
<path d="M126 117h1v1h-1v-1z" fill="rgb(1,1,1)"/>
<path d="M131 117h1v1h-1v-1z" fill="rgb(1,1,1)"/>
<path d="M132 117h1v1h-1v-1z" fill="rgb(96,80,56)"/>
<path d="M133 117h1v1h-1v-1z" fill="rgb(56,48,48)"/>
<path d="M141 117h1v1h-1v-1z" fill="rgb(56,48,48)"/>
<path d="M145 117h1v1h-1v-1z" fill="rgb(56,48,48)"/>
<path d="M146 117h1v1h-1v-1z" fill="rgb(96,80,56)"/>
<path d="M147 117h1v1h-1v-1z" fill="rgb(1,1,1)"/>
<path d="M89 118h3v1h2v1h3v1h-4v1h-2v-3h-2v-1z" fill="rgb(56,48,48)"/>
<path d="M94 118h1v1h-1v-1z" fill="rgb(56,48,48)"/>
<path d="M104 118h2v1h-2v-1z" fill="rgb(56,48,48)"/>
<path d="M109 118h1v2h-1v-2z" fill="rgb(1,1,1)"/>
<path d="M118 118h1v1h-1v-1z" fill="rgb(56,48,48)"/>
<path d="M127 118h1v2h-1v-2z" fill="rgb(1,1,1)"/>
<path d="M131 118h2v1h-2v-1z" fill="rgb(56,48,48)"/>
<path d="M136 118h1v1h-1v-1z" fill="rgb(56,48,48)"/>
<path d="M140 118h1v1h-1v-1z" fill="rgb(56,48,48)"/>
<path d="M141 118h1v1h-1v-1z" fill="rgb(216,152,112)"/>
<path d="M142 118h1v1h-1v-1z" fill="rgb(56,48,48)"/>
<path d="M146 118h2v1h-2v-1z" fill="rgb(56,48,48)"/>
<path d="M28 119h1v3h-1v-3z" fill="rgb(255,255,255)"/>
<path d="M50 119h2v3h-3v-1h2v-1h-1v-1z" fill="rgb(255,255,255)"/>
<path d="M69 119h1v1h-1v-1z" fill="rgb(120,64,64)"/>
<path d="M73 119h2v1h-2v-1z" fill="rgb(216,152,112)"/>
<path d="M78 119h2v1h-2v-1z" fill="rgb(216,152,112)"/>
<path d="M83 119h1v1h-1v-1z" fill="rgb(120,64,64)"/>
<path d="M89 119h1v1h-1v-1z" fill="rgb(1,1,1)"/>
<path d="M90 119h1v1h-1v-1z" fill="rgb(216,152,112)"/>
<path d="M97 119h2v1h-2v-1z" fill="rgb(56,48,48)"/>
<path d="M99 119h2v1h-2v-1z" fill="rgb(216,152,112)"/>
<path d="M101 119h2v1h1v2h-2v-2h-1v-1z" fill="rgb(56,48,48)"/>
<path d="M104 119h1v1h-1v-1z" fill="rgb(216,152,112)"/>
<path d="M105 119h1v1h-1v-1z" fill="rgb(1,1,1)"/>
<path d="M110 119h1v1h-1v-1z" fill="rgb(56,48,48)"/>
<path d="M112 119h1v1h-1v-1z" fill="rgb(56,48,48)"/>
<path d="M117 119h1v1h-1v-1z" fill="rgb(48,48,48)"/>
<path d="M124 119h1v1h-1v-1z" fill="rgb(56,48,48)"/>
<path d="M126 119h1v1h-1v-1z" fill="rgb(56,48,48)"/>
<path d="M131 119h1v2h-1v-2z" fill="rgb(1,1,1)"/>
<path d="M132 119h1v1h-1v-1z" fill="rgb(215,151,112)"/>
<path d="M134 119h2v1h1v1h-1v1h-1v3h-2v1h-1v-2h1v-3h-1v-1h2v-1z" fill="rgb(56,48,48)"/>
<path d="M138 119h2v1h-2v-1z" fill="rgb(56,48,48)"/>
<path d="M140 119h3v1h-1v1h-1v2h2v1h-1v1h-2v-1h-1v1h-2v-1h-1v-1h2v-2h-1v-1h3v-1z" fill="rgb(248,208,184)"/>
<path d="M143 119h2v1h2v1h-1v3h1v2h-1v-1h-2v-3h-1v-1h1v-1h-1v-1z" fill="rgb(56,48,48)"/>
<path d="M146 119h1v1h-1v-1z" fill="rgb(215,151,112)"/>
<path d="M147 119h1v2h-1v-2z" fill="rgb(1,1,1)"/>
<path d="M69 120h1v2h-1v-2z" fill="rgb(1,1,1)"/>
<path d="M70 120h1v2h-1v-2z" fill="rgb(216,152,112)"/>
<path d="M82 120h1v2h-1v-2z" fill="rgb(216,152,112)"/>
<path d="M83 120h1v2h-1v-2z" fill="rgb(1,1,1)"/>
<path d="M90 120h1v2h-1v-2z" fill="rgb(1,1,1)"/>
<path d="M97 120h3v1h-1v2h2v1h-1v1h-2v-1h-1v1h-2v-1h-1v-1h2v-2h1v-1z" fill="rgb(248,208,184)"/>
<path d="M100 120h1v1h-1v-1z" fill="rgb(96,80,56)"/>
<path d="M101 120h1v2h1v1h-1v1h-1v-4z" fill="rgb(216,152,112)"/>
<path d="M104 120h1v2h-1v-2z" fill="rgb(1,1,1)"/>
<path d="M110 120h2v1h-1v1h-1v-2z" fill="rgb(1,1,1)"/>
<path d="M115 120h2v1h-2v-1z" fill="rgb(48,48,48)"/>
<path d="M119 120h1v1h-1v-1z" fill="rgb(56,48,48)"/>
<path d="M120 120h1v1h-1v-1z" fill="rgb(248,208,184)"/>
<path d="M121 120h1v1h-1v-1z" fill="rgb(48,48,48)"/>
<path d="M122 120h1v1h1v1h-2v-2z" fill="rgb(56,48,48)"/>
<path d="M125 120h2v2h-1v-1h-1v-1z" fill="rgb(1,1,1)"/>
<path d="M142 120h1v1h-1v-1z" fill="rgb(96,80,56)"/>
<path d="M143 120h1v1h-1v-1z" fill="rgb(216,152,112)"/>
<path d="M73 121h1v1h-1v-1z" fill="rgb(168,160,200)"/>
<path d="M74 121h1v1h-1v-1z" fill="rgb(64,64,72)"/>
<path d="M78 121h1v1h-1v-1z" fill="rgb(64,64,72)"/>
<path d="M79 121h1v1h-1v-1z" fill="rgb(168,160,200)"/>
<path d="M93 121h1v3h-1v-1h-1v-1h1v-1z" fill="rgb(216,152,112)"/>
<path d="M94 121h1v1h-1v-1z" fill="rgb(168,160,200)"/>
<path d="M95 121h1v1h-1v-1z" fill="rgb(96,80,56)"/>
<path d="M99 121h1v1h-1v-1z" fill="rgb(96,80,56)"/>
<path d="M100 121h1v1h-1v-1z" fill="rgb(168,160,200)"/>
<path d="M113 121h2v1h-2v-1z" fill="rgb(48,48,48)"/>
<path d="M115 121h1v1h-1v-1z" fill="rgb(168,160,200)"/>
<path d="M116 121h1v1h-1v-1z" fill="rgb(96,80,56)"/>
<path d="M117 121h2v1h-2v-1z" fill="rgb(56,48,48)"/>
<path d="M119 121h1v2h2v1h-1v1h-2v-1h-1v1h-2v-1h-1v-1h2v-1h2v-1z" fill="rgb(248,208,184)"/>
<path d="M120 121h1v1h-1v-1z" fill="rgb(96,80,56)"/>
<path d="M121 121h1v1h-1v-1z" fill="rgb(168,160,200)"/>
<path d="M132 121h1v3h-1v-3z" fill="rgb(1,1,1)"/>
<path d="M136 121h1v1h-1v-1z" fill="rgb(168,160,200)"/>
<path d="M137 121h1v1h-1v-1z" fill="rgb(96,80,56)"/>
<path d="M141 121h1v1h-1v-1z" fill="rgb(96,80,56)"/>
<path d="M142 121h1v1h-1v-1z" fill="rgb(168,160,200)"/>
<path d="M146 121h1v3h-1v-3z" fill="rgb(1,1,1)"/>
<path d="M70 122h1v1h-1v-1z" fill="rgb(120,64,64)"/>
<path d="M71 122h2v2h-1v-1h-1v-1z" fill="rgb(216,152,112)"/>
<path d="M73 122h1v1h-1v-1z" fill="rgb(232,232,248)"/>
<path d="M74 122h1v1h-1v-1z" fill="rgb(1,1,1)"/>
<path d="M78 122h1v1h-1v-1z" fill="rgb(1,1,1)"/>
<path d="M79 122h1v1h-1v-1z" fill="rgb(232,232,248)"/>
<path d="M80 122h2v1h-1v1h-1v-2z" fill="rgb(216,152,112)"/>
<path d="M82 122h1v1h-1v-1z" fill="rgb(120,64,64)"/>
<path d="M91 122h1v1h-1v-1z" fill="rgb(1,1,1)"/>
<path d="M94 122h1v1h-1v-1z" fill="rgb(232,232,248)"/>
<path d="M95 122h1v1h-1v-1z" fill="rgb(1,1,1)"/>
<path d="M99 122h1v1h-1v-1z" fill="rgb(1,1,1)"/>
<path d="M100 122h1v1h-1v-1z" fill="rgb(232,232,248)"/>
<path d="M103 122h1v1h-1v-1z" fill="rgb(1,1,1)"/>
<path d="M111 122h1v1h-1v-1z" fill="rgb(1,1,1)"/>
<path d="M112 122h1v2h-1v-2z" fill="rgb(48,48,48)"/>
<path d="M113 122h2v2h-1v-1h-1v-1z" fill="rgb(216,152,112)"/>
<path d="M115 122h1v1h-1v-1z" fill="rgb(232,232,248)"/>
<path d="M116 122h1v1h-1v-1z" fill="rgb(1,1,1)"/>
<path d="M120 122h1v1h-1v-1z" fill="rgb(1,1,1)"/>
<path d="M121 122h1v1h-1v-1z" fill="rgb(232,232,248)"/>
<path d="M122 122h2v1h-1v1h-1v-2z" fill="rgb(216,152,112)"/>
<path d="M124 122h1v2h-1v-2z" fill="rgb(48,48,48)"/>
<path d="M125 122h1v1h-1v-1z" fill="rgb(1,1,1)"/>
<path d="M135 122h1v2h-1v-2z" fill="rgb(216,152,112)"/>
<path d="M136 122h1v1h-1v-1z" fill="rgb(232,232,248)"/>
<path d="M137 122h1v1h-1v-1z" fill="rgb(1,1,1)"/>
<path d="M141 122h1v1h-1v-1z" fill="rgb(1,1,1)"/>
<path d="M142 122h1v1h-1v-1z" fill="rgb(232,232,248)"/>
<path d="M143 122h1v2h-1v-2z" fill="rgb(216,152,112)"/>
<path d="M71 123h1v1h-1v-1z" fill="rgb(120,64,64)"/>
<path d="M81 123h1v1h-1v-1z" fill="rgb(120,64,64)"/>
<path d="M92 123h1v1h-1v-1z" fill="rgb(120,64,64)"/>
<path d="M102 123h1v1h-1v-1z" fill="rgb(120,64,64)"/>
<path d="M113 123h1v1h-1v-1z" fill="rgb(56,48,48)"/>
<path d="M123 123h1v1h-1v-1z" fill="rgb(56,48,48)"/>
<path d="M71 124h1v1h-1v-1z" fill="rgb(3,3,3)"/>
<path d="M72 124h1v1h-1v-1z" fill="rgb(120,64,64)"/>
<path d="M73 124h1v1h-1v-1z" fill="rgb(216,152,112)"/>
<path d="M76 124h1v1h1v1h-3v-1h1v-1z" fill="rgb(216,152,112)"/>
<path d="M79 124h1v1h-1v-1z" fill="rgb(216,152,112)"/>
<path d="M80 124h1v1h-1v-1z" fill="rgb(120,64,64)"/>
<path d="M81 124h1v1h-1v-1z" fill="rgb(3,3,3)"/>
<path d="M93 124h1v1h-1v-1z" fill="rgb(120,64,64)"/>
<path d="M94 124h1v1h-1v-1z" fill="rgb(216,152,112)"/>
<path d="M97 124h1v1h1v1h-3v-1h1v-1z" fill="rgb(216,152,112)"/>
<path d="M100 124h1v1h-1v-1z" fill="rgb(216,152,112)"/>
<path d="M101 124h1v1h-1v-1z" fill="rgb(120,64,64)"/>
<path d="M113 124h1v1h-1v-1z" fill="rgb(1,1,1)"/>
<path d="M114 124h1v1h-1v-1z" fill="rgb(120,64,64)"/>
<path d="M115 124h1v1h-1v-1z" fill="rgb(216,152,112)"/>
<path d="M118 124h1v1h1v1h-3v-1h1v-1z" fill="rgb(216,152,112)"/>
<path d="M121 124h1v1h-1v-1z" fill="rgb(216,152,112)"/>
<path d="M122 124h1v1h-1v-1z" fill="rgb(120,64,64)"/>
<path d="M123 124h1v1h-1v-1z" fill="rgb(1,1,1)"/>
<path d="M131 124h1v2h-1v-2z" fill="rgb(1,1,1)"/>
<path d="M135 124h1v1h-1v-1z" fill="rgb(120,64,64)"/>
<path d="M136 124h1v1h-1v-1z" fill="rgb(216,152,112)"/>
<path d="M139 124h1v1h1v1h-3v-1h1v-1z" fill="rgb(216,152,112)"/>
<path d="M142 124h1v1h-1v-1z" fill="rgb(216,152,112)"/>
<path d="M143 124h1v1h-1v-1z" fill="rgb(120,64,64)"/>
<path d="M147 124h1v2h-1v-2z" fill="rgb(1,1,1)"/>
<path d="M74 125h1v1h-1v-1z" fill="rgb(120,64,64)"/>
<path d="M78 125h1v1h-1v-1z" fill="rgb(120,64,64)"/>
<path d="M95 125h1v1h-1v-1z" fill="rgb(120,64,64)"/>
<path d="M99 125h1v1h-1v-1z" fill="rgb(120,64,64)"/>
<path d="M116 125h1v1h-1v-1z" fill="rgb(120,64,64)"/>
<path d="M120 125h1v1h-1v-1z" fill="rgb(120,64,64)"/>
<path d="M133 125h1v1h-1v-1z" fill="rgb(1,1,1)"/>
<path d="M137 125h1v1h-1v-1z" fill="rgb(120,64,64)"/>
<path d="M141 125h1v1h-1v-1z" fill="rgb(120,64,64)"/>
<path d="M8 131h161v1h2v2h1v11h-1v2h-2v1h-161v-1h-2v-2h-1v-11h1v-2h2v-1z" fill="rgb(80,80,80)"/>
<path d="M73 134h7v1h-7v-1z" fill="rgb(160,127,87)"/>
<path d="M94 134h7v1h-7v-1z" fill="rgb(96,72,64)"/>
<path d="M115 134h7v1h-7v-1z" fill="rgb(56,48,48)"/>
<path d="M136 134h7v1h-7v-1z" fill="rgb(55,56,64)"/>
<path d="M157 134h7v1h-7v-1z" fill="rgb(153,41,20)"/>
<path d="M72 135h1v1h-1v-1z" fill="rgb(160,127,87)"/>
<path d="M73 135h7v1h1v7h-1v1h-7v-1h-1v-7h1v-1z" fill="rgb(225,192,112)"/>
<path d="M80 135h1v1h-1v-1z" fill="rgb(160,127,87)"/>
<path d="M93 135h1v1h-1v-1z" fill="rgb(96,72,64)"/>
<path d="M94 135h7v1h1v7h-1v1h-7v-1h-1v-7h1v-1z" fill="rgb(160,120,80)"/>
<path d="M101 135h1v1h-1v-1z" fill="rgb(96,72,64)"/>
<path d="M114 135h1v1h-1v-1z" fill="rgb(56,48,48)"/>
<path d="M115 135h7v1h1v7h-1v1h-7v-1h-1v-7h1v-1z" fill="rgb(96,80,56)"/>
<path d="M122 135h1v1h-1v-1z" fill="rgb(56,48,48)"/>
<path d="M135 135h1v1h-1v-1z" fill="rgb(55,56,64)"/>
<path d="M136 135h7v1h1v7h-1v1h-7v-1h-1v-7h1v-1z" fill="rgb(81,80,96)"/>
<path d="M143 135h1v1h-1v-1z" fill="rgb(55,56,64)"/>
<path d="M156 135h1v1h-1v-1z" fill="rgb(153,41,20)"/>
<path d="M157 135h7v1h1v7h-1v1h-7v-1h-1v-7h1v-1z" fill="rgb(210,83,47)"/>
<path d="M164 135h1v1h-1v-1z" fill="rgb(153,41,20)"/>
<path d="M11 136h1v3h2v-3h1v7h-1v-3h-2v3h-1v-7z" fill="rgb(255,255,255)"/>
<path d="M17 136h2v1h-2v-1z" fill="rgb(255,255,255)"/>
<path d="M21 136h3v1h-1v5h1v1h-3v-1h1v-5h-1v-1z" fill="rgb(255,255,255)"/>
<path d="M25 136h3v1h-2v2h2v1h-2v3h-1v-7z" fill="rgb(255,255,255)"/>
<path d="M34 136h3v1h-3v-1z" fill="rgb(255,255,255)"/>
<path d="M39 136h2v1h-2v-1z" fill="rgb(255,255,255)"/>
<path d="M43 136h1v6h3v1h-4v-7z" fill="rgb(255,255,255)"/>
<path d="M49 136h2v1h-2v-1z" fill="rgb(255,255,255)"/>
<path d="M53 136h3v1h-2v2h2v1h-2v3h-1v-7z" fill="rgb(255,255,255)"/>
<path d="M71 136h1v7h-1v-7z" fill="rgb(160,127,87)"/>
<path d="M74 136h4v1h-4v-1z" fill="rgb(248,232,176)"/>
<path d="M81 136h1v7h-1v-7z" fill="rgb(160,127,87)"/>
<path d="M92 136h1v7h-1v-7z" fill="rgb(96,72,64)"/>
<path d="M95 136h4v1h-4v-1z" fill="rgb(207,160,112)"/>
<path d="M102 136h1v7h-1v-7z" fill="rgb(96,72,64)"/>
<path d="M113 136h1v7h-1v-7z" fill="rgb(56,48,48)"/>
<path d="M116 136h4v1h-4v-1z" fill="rgb(144,112,80)"/>
<path d="M123 136h1v7h-1v-7z" fill="rgb(56,48,48)"/>
<path d="M134 136h1v7h-1v-7z" fill="rgb(55,56,64)"/>
<path d="M137 136h4v1h-4v-1z" fill="rgb(112,118,136)"/>
<path d="M144 136h1v7h-1v-7z" fill="rgb(55,56,64)"/>
<path d="M155 136h1v7h-1v-7z" fill="rgb(153,41,20)"/>
<path d="M158 136h4v1h-4v-1z" fill="rgb(233,117,67)"/>
<path d="M165 136h1v7h-1v-7z" fill="rgb(153,41,20)"/>
<path d="M16 137h1v2h2v-2h1v6h-1v-3h-2v3h-1v-6z" fill="rgb(255,255,255)"/>
<path d="M17 137h2v2h-2v-2z" fill="rgb(80,80,80)"/>
<path d="M26 137h2v2h-2v-2z" fill="rgb(80,80,80)"/>
<path d="M28 137h1v2h-1v-2z" fill="rgb(255,255,255)"/>
<path d="M33 137h1v5h-1v-5z" fill="rgb(255,255,255)"/>
<path d="M38 137h1v5h-1v-5z" fill="rgb(255,255,255)"/>
<path d="M39 137h2v5h-2v-5z" fill="rgb(80,80,80)"/>
<path d="M41 137h1v5h-1v-5z" fill="rgb(255,255,255)"/>
<path d="M48 137h1v5h-1v-5z" fill="rgb(255,255,255)"/>
<path d="M49 137h2v5h-2v-5z" fill="rgb(80,80,80)"/>
<path d="M51 137h1v5h-1v-5z" fill="rgb(255,255,255)"/>
<path d="M54 137h2v2h-2v-2z" fill="rgb(80,80,80)"/>
<path d="M56 137h1v2h-1v-2z" fill="rgb(255,255,255)"/>
<path d="M73 137h1v4h-1v-4z" fill="rgb(248,232,176)"/>
<path d="M94 137h1v4h-1v-4z" fill="rgb(207,160,112)"/>
<path d="M115 137h1v4h-1v-4z" fill="rgb(144,112,80)"/>
<path d="M136 137h1v4h-1v-4z" fill="rgb(112,118,136)"/>
<path d="M157 137h1v4h-1v-4z" fill="rgb(233,117,67)"/>
<path d="M28 140h1v3h-1v-3z" fill="rgb(255,255,255)"/>
<path d="M56 140h1v3h-1v-3z" fill="rgb(255,255,255)"/>
<path d="M34 142h3v1h-3v-1z" fill="rgb(255,255,255)"/>
<path d="M39 142h2v1h-2v-1z" fill="rgb(255,255,255)"/>
<path d="M49 142h2v1h-2v-1z" fill="rgb(255,255,255)"/>
<path d="M72 143h1v1h-1v-1z" fill="rgb(160,127,87)"/>
<path d="M80 143h1v1h-1v-1z" fill="rgb(160,127,87)"/>
<path d="M93 143h1v1h-1v-1z" fill="rgb(96,72,64)"/>
<path d="M101 143h1v1h-1v-1z" fill="rgb(96,72,64)"/>
<path d="M114 143h1v1h-1v-1z" fill="rgb(56,48,48)"/>
<path d="M122 143h1v1h-1v-1z" fill="rgb(56,48,48)"/>
<path d="M135 143h1v1h-1v-1z" fill="rgb(55,56,64)"/>
<path d="M143 143h1v1h-1v-1z" fill="rgb(55,56,64)"/>
<path d="M156 143h1v1h-1v-1z" fill="rgb(153,41,20)"/>
<path d="M164 143h1v1h-1v-1z" fill="rgb(153,41,20)"/>
<path d="M73 144h7v1h-7v-1z" fill="rgb(160,127,87)"/>
<path d="M94 144h7v1h-7v-1z" fill="rgb(96,72,64)"/>
<path d="M115 144h7v1h-7v-1z" fill="rgb(56,48,48)"/>
<path d="M136 144h7v1h-7v-1z" fill="rgb(55,56,64)"/>
<path d="M157 144h7v1h-7v-1z" fill="rgb(153,41,20)"/>
<path d="M13 155h7v2h2v2h-1v2h-1v1h-1v1h1v1h1v1h1v2h-2v-2h-1v-1h-1v-1h-3v4h-2v-12z" fill="rgb(255,255,255)"/>
<path d="M28 155h2v2h1v2h1v2h1v3h1v3h-2v-3h-6v3h-2v-3h1v-3h1v-2h1v-2h1v-2z" fill="rgb(255,255,255)"/>
<path d="M36 155h2v2h1v1h1v2h1v2h1v-7h2v12h-2v-2h-1v-1h-1v-2h-1v-2h-1v7h-2v-12z" fill="rgb(255,255,255)"/>
<path d="M46 155h6v2h1v1h1v5h-1v2h-1v2h-6v-12z" fill="rgb(255,255,255)"/>
<path d="M58 155h4v2h1v2h1v4h-1v2h-1v2h-4v-2h-1v-2h-1v-5h1v-1h1v-2z" fill="rgb(255,255,255)"/>
<path d="M66 155h3v2h2v3h2v-3h2v-2h3v12h-2v-8h-2v3h-1v3h-2v-3h-1v-3h-2v8h-2v-12z" fill="rgb(255,255,255)"/>
<path d="M129 155h6v2h1v1h1v5h-1v2h-1v2h-6v-12z" fill="rgb(255,255,255)"/>
<path d="M141 155h4v2h1v2h1v4h-1v2h-1v2h-4v-2h-1v-2h-1v-5h1v-1h1v-2z" fill="rgb(255,255,255)"/>
<path d="M149 155h2v2h1v1h1v2h1v2h1v-7h2v12h-2v-2h-1v-1h-1v-2h-1v-2h-1v7h-2v-12z" fill="rgb(255,255,255)"/>
<path d="M159 155h6v2h-4v3h4v2h-4v3h4v2h-6v-12z" fill="rgb(255,255,255)"/>
<path d="M15 157h4v4h-4v-4z" fill="rgb(0,0,0)"/>
<path d="M48 157h3v2h1v4h-1v2h-3v-8z" fill="rgb(0,0,0)"/>
<path d="M59 157h2v2h1v4h-1v2h-2v-2h-1v-4h1v-2z" fill="rgb(0,0,0)"/>
<path d="M131 157h3v2h1v4h-1v2h-3v-8z" fill="rgb(0,0,0)"/>
<path d="M142 157h2v2h1v4h-1v2h-2v-2h-1v-4h1v-2z" fill="rgb(0,0,0)"/>
<path d="M28 159h2v2h1v1h-4v-1h1v-2z" fill="rgb(0,0,0)"/>
<path d="M0 173h1v2h2v1h-3v-3z" fill="rgb(37,37,37)"/>
<path d="M175 173h1v3h-3v-1h2v-2z" fill="rgb(37,37,37)"/>
</svg>
