<?xml version="1.0" encoding="utf-8"?>
<!-- Generator: Adobe Illustrator 16.0.4, SVG Export Plug-In . SVG Version: 6.00 Build 0)  -->
<!DOCTYPE svg PUBLIC "-//W3C//DTD SVG 1.1//EN" "http://www.w3.org/Graphics/SVG/1.1/DTD/svg11.dtd">
<svg version="1.1" id="Layer_1" xmlns="http://www.w3.org/2000/svg" xmlns:xlink="http://www.w3.org/1999/xlink" x="0px" y="0px"
	 width="16px" height="16px" viewBox="0 0 16 16" enable-background="new 0 0 16 16" xml:space="preserve">
<path fill="#2A2C38" d="M0,8h16v8h-1V9H0V8z"/>
<path fill="#737685" d="M0,9h13v1h1v6h-2v-5H0V9z"/>
<path fill="#818494" d="M13,9h2v7h-1v-6h-1V9z"/>
<path fill="#91BCBF" d="M0,11h8v1H7v1H6v1H0V11z"/>
<path fill="#A9CACD" d="M8,11h1v1H8V11z"/>
<path fill="#91BCBF" d="M9,11h2v1h-1v1H9v1H7v-1h1v-1h1V11z"/>
<path fill="#A9CACD" d="M11,11h1v5h-2v-1h1v-1H9v-1h1v-1h1V11z"/>
<path fill="#A9CACD" d="M7,12h1v1H7V12z"/>
<path fill="#A9CACD" d="M6,13h1v1h1v1H7v1H5v-1h1V13z"/>
<path fill="#A9CACD" d="M0,14h5v1H4v1H0V14z"/>
<path fill="#C7DCDE" d="M5,14h1v1H5V14z"/>
<path fill="#C7DCDE" d="M8,14h3v1h-1v1H7v-1h1V14z"/>
<path fill="#C7DCDE" d="M4,15h1v1H4V15z"/>
</svg>
