<?xml version="1.0" encoding="utf-8"?>
<!-- Generator: Adobe Illustrator 16.0.4, SVG Export Plug-In . SVG Version: 6.00 Build 0)  -->
<!DOCTYPE svg PUBLIC "-//W3C//DTD SVG 1.1//EN" "http://www.w3.org/Graphics/SVG/1.1/DTD/svg11.dtd">
<svg version="1.1" id="Layer_1" xmlns="http://www.w3.org/2000/svg" xmlns:xlink="http://www.w3.org/1999/xlink" x="0px" y="0px"
	 width="16px" height="16px" viewBox="0 0 16 16" enable-background="new 0 0 16 16" xml:space="preserve">
<path fill="#2A2C38" d="M1,10h14v1H1V10z"/>
<path fill="#2A2C38" d="M0,11h1v5H0V11z"/>
<path fill="#595C68" d="M1,11h2v1H2v2H1V11z"/>
<path fill="#737685" d="M3,11h10v1h1v4h-3v-1h-1v-1H8v-1H2v-1h1V11z"/>
<path fill="#818494" d="M13,11h2v5h-1v-4h-1V11z"/>
<path fill="#2A2C38" d="M15,11h1v5h-1V11z"/>
<path fill="#202020" d="M2,13h1v1H2V13z"/>
<path fill="#1F1F1F" d="M3,13h1v1H3V13z"/>
<path fill="#202020" d="M4,13h3v1H4V13z"/>
<path fill="#1F1F1F" d="M7,13h1v1H7V13z"/>
<path fill="#43454E" d="M1,14h1v2H1V14z"/>
<path fill="#1F1F1F" d="M2,14h1v1H2V14z"/>
<path fill="#CDCDCD" d="M3,14h1v2H3V14z"/>
<path fill="#AEAEAE" d="M4,14h3v2H4V14z"/>
<path fill="#EEEEEE" d="M7,14h1v2H7V14z"/>
<path fill="#202020" d="M8,14h1v1H8V14z"/>
<path fill="#1F1F1F" d="M9,14h1v1H9V14z"/>
<path fill="#202020" d="M2,15h1v1H2V15z"/>
<path fill="#404040" d="M8,15h2v1H8V15z"/>
<path fill="#202020" d="M10,15h1v1h-1V15z"/>
</svg>
