<?xml version="1.0" encoding="utf-8"?>
<!-- Generator: Adobe Illustrator 16.0.4, SVG Export Plug-In . SVG Version: 6.00 Build 0)  -->
<!DOCTYPE svg PUBLIC "-//W3C//DTD SVG 1.1//EN" "http://www.w3.org/Graphics/SVG/1.1/DTD/svg11.dtd">
<svg version="1.1" id="Layer_1" xmlns="http://www.w3.org/2000/svg" xmlns:xlink="http://www.w3.org/1999/xlink" x="0px" y="0px"
	 width="32px" height="16px" viewBox="0 0 32 16" enable-background="new 0 0 32 16" xml:space="preserve">
<path fill="#2A2C38" d="M16,0h1v16h-1V0z"/>
<path fill="#595C68" d="M17,0h1v14h-1V0z"/>
<path fill="#737685" d="M18,0h12v16h-3v-1h-1v-1h-2v-1h-6V0z"/>
<path fill="#818494" d="M30,0h1v16h-1V0z"/>
<path fill="#2A2C38" d="M31,0h1v16h-1V0z"/>
<path fill="#202020" d="M18,13h1v1h-1V13z"/>
<path fill="#1F1F1F" d="M19,13h1v1h-1V13z"/>
<path fill="#202020" d="M20,13h3v1h-3V13z"/>
<path fill="#1F1F1F" d="M23,13h1v1h-1V13z"/>
<path fill="#43454E" d="M17,14h1v2h-1V14z"/>
<path fill="#1F1F1F" d="M18,14h1v1h-1V14z"/>
<path fill="#CDCDCD" d="M19,14h1v2h-1V14z"/>
<path fill="#AEAEAE" d="M20,14h3v2h-3V14z"/>
<path fill="#EEEEEE" d="M23,14h1v2h-1V14z"/>
<path fill="#202020" d="M24,14h1v1h-1V14z"/>
<path fill="#1F1F1F" d="M25,14h1v1h-1V14z"/>
<path fill="#202020" d="M18,15h1v1h-1V15z"/>
<path fill="#404040" d="M24,15h2v1h-2V15z"/>
<path fill="#202020" d="M26,15h1v1h-1V15z"/>
<rect x="15" opacity="0.25" width="1" height="16"/>
</svg>
