<?xml version="1.0" encoding="utf-8"?>
<!-- Generator: Adobe Illustrator 16.0.4, SVG Export Plug-In . SVG Version: 6.00 Build 0)  -->
<!DOCTYPE svg PUBLIC "-//W3C//DTD SVG 1.1//EN" "http://www.w3.org/Graphics/SVG/1.1/DTD/svg11.dtd">
<svg version="1.1" id="Layer_1" xmlns="http://www.w3.org/2000/svg" xmlns:xlink="http://www.w3.org/1999/xlink" x="0px" y="0px"
	 width="64px" height="48px" viewBox="0 0 64 48" enable-background="new 0 0 64 48" xml:space="preserve">
<path fill="#484028" d="M35,7h4v1h-4V7z"/>
<path fill="#484028" d="M34,8h1v2h-2V9h1V8z"/>
<path fill="#A89848" d="M35,8h3v1h5v1h3v2h-1v2h-3v1h-2v-1h-1v1h-1v-1h-2v1h-1v-3h-1v-1h-1v-1h3V9h-1V8z"/>
<path fill="#654F36" d="M38,8h1v1h-1V8z"/>
<path fill="#484028" d="M39,8h4v1h-4V8z"/>
<path fill="#654F36" d="M35,9h1v1h-1V9z"/>
<path fill="#484028" d="M43,9h3v1h-3V9z"/>
<path fill="#004D44" d="M6,10h26v1H6V10z"/>
<path fill="#484028" d="M32,10h1v3h-1V10z"/>
<path fill="#484028" d="M46,10h1v1h-1V10z"/>
<path fill="#004D44" d="M47,10h11v1H47V10z"/>
<path fill="#004D44" d="M5,11h1v1H5V11z"/>
<path fill="#00AF9D" d="M6,11h1v3H6v1H5v-3h1V11z"/>
<path fill="#00C5B4" d="M7,11h1v1h1v1h24v1H7V11z"/>
<path fill="#2DD4C7" d="M8,11h24v2H9v-1H8V11z"/>
<path fill="#654F36" d="M33,11h1v1h-1V11z"/>
<path fill="#786048" d="M46,11h1v4h-2v-3h1V11z"/>
<path fill="#484028" d="M47,11h1v4h-1V11z"/>
<path fill="#2DD4C7" d="M48,11h8v1h-1v1h-7V11z"/>
<path fill="#00C5B4" d="M56,11h1v3h-9v-1h7v-1h1V11z"/>
<path fill="#00AF9D" d="M57,11h1v1h1v3h-1v-1h-1V11z"/>
<path fill="#004D44" d="M58,11h1v1h-1V11z"/>
<path fill="#004D44" d="M4,12h1v5h3v1H4V12z"/>
<path fill="#786048" d="M33,12h1v1h-1V12z"/>
<path fill="#654F36" d="M34,12h1v1h-1V12z"/>
<path fill="#004D44" d="M59,12h1v6h-4v-1h3V12z"/>
<path fill="#484028" d="M33,13h1v2h-1V13z"/>
<path fill="#786048" d="M34,13h1v2h-1V13z"/>
<path fill="#007A6B" d="M6,14h27v1H6V14z"/>
<path fill="#654F36" d="M36,14h2v1h-2V14z"/>
<path fill="#F8D0B8" d="M39,14h1v1h5v4h-1v-1h-2v2h1v2h-2v-1h-1v1h-2v-2h1v-2h-2v1h-1v-4h3V14z"/>
<path fill="#654F36" d="M42,14h3v1h-3V14z"/>
<path fill="#007A6B" d="M48,14h10v1H48V14z"/>
<path fill="#007A6B" d="M5,15h1v1H5V15z"/>
<path fill="#00AF9D" d="M6,15h27v1h-1v2h1v1h1v1h1v1h-2v1h-2v-1H10v-1H9v-2H8v-1H5v-1h1V15z"/>
<path fill="#604040" d="M33,15h1v1h-1V15z"/>
<path fill="#484028" d="M34,15h1v2h-1V15z"/>
<path fill="#654F36" d="M35,15h1v1h-1V15z"/>
<path fill="#654F36" d="M45,15h1v1h-1V15z"/>
<path fill="#484028" d="M46,15h1v2h-1V15z"/>
<path fill="#604040" d="M47,15h1v1h-1V15z"/>
<path fill="#00AF9D" d="M48,15h10v1h1v1h-3v1h-1v2h-1v1h-8v-1h7v-1h1v-2h-1v-1h-5V15z"/>
<path fill="#007A6B" d="M58,15h1v1h-1V15z"/>
<path fill="#00C5B4" d="M11,16h19v1h1v2h-1v1H11v-1h-1v-2h1V16z"/>
<path fill="#030303" d="M32,16h1v2h-1V16z"/>
<path fill="#D8A078" d="M33,16h1v2h-1V16z"/>
<path fill="#D8A078" d="M35,16h1v3h1v1h1v2h-2v-2h-1V16z"/>
<path fill="#654F36" d="M37,16h2v1h-2V16z"/>
<path fill="#654F36" d="M42,16h2v1h-2V16z"/>
<path fill="#D8A078" d="M45,16h1v4h-1v2h-2v-2h1v-1h1V16z"/>
<path fill="#D8A078" d="M47,16h1v2h-1V16z"/>
<path fill="#030303" d="M48,16h1v2h-1V16z"/>
<path fill="#00C5B4" d="M49,16h4v1h1v2h-1v1h-6v-1h1v-1h1V16z"/>
<path fill="#604040" d="M34,17h1v3h-1V17z"/>
<path fill="#604040" d="M46,17h1v3h-1V17z"/>
<path fill="#004D44" d="M3,18h1v16h56V18h1v17H3V18z"/>
<path fill="#2DD4C7" d="M4,18h2v1h1v6H6v1H4V18z"/>
<path fill="#00C5B4" d="M6,18h1v1H6V18z"/>
<path fill="#00AF9D" d="M7,18h1v1H7V18z"/>
<path fill="#004D44" d="M8,18h1v4h1v1H9v3H8V18z"/>
<path fill="#030303" d="M33,18h1v1h-1V18z"/>
<path fill="#A8A0C8" d="M37,18h1v1h-1V18z"/>
<path fill="#404048" d="M38,18h1v1h-1V18z"/>
<path fill="#404048" d="M42,18h1v1h-1V18z"/>
<path fill="#A8A0C8" d="M43,18h1v1h-1V18z"/>
<path fill="#030303" d="M47,18h1v1h-1V18z"/>
<path fill="#004D44" d="M55,18h1v8h-1v-3h-1v-1h1V18z"/>
<path fill="#2DD4C7" d="M56,18h2v1h1v6h-1v1h-2V18z"/>
<path fill="#00C5B4" d="M58,18h2v8h-1v1h-1v1h-1v1h-1v-3h2v-1h1v-6h-1V18z"/>
<path fill="#00C5B4" d="M7,19h1v7H7v1H6v1H4v-2h2v-1h1V19z"/>
<path fill="#E8E8F8" d="M37,19h1v1h-1V19z"/>
<path fill="#030303" d="M38,19h1v1h-1V19z"/>
<path fill="#030303" d="M42,19h1v1h-1V19z"/>
<path fill="#E8E8F8" d="M43,19h1v1h-1V19z"/>
<path fill="#009384" d="M9,20h1v2H9V20z"/>
<path fill="#604040" d="M35,20h1v2h-1V20z"/>
<path fill="#604040" d="M45,20h1v2h-1V20z"/>
<path fill="#009384" d="M54,20h1v2h-1V20z"/>
<path fill="#004D44" d="M10,21h4v1h-4V21z"/>
<path fill="#007A6B" d="M14,21h14v1H14V21z"/>
<path fill="#004D44" d="M28,21h3v1h-3V21z"/>
<path fill="#004D44" d="M33,21h2v1h-2V21z"/>
<path fill="#D8A078" d="M40,21h1v1h2v1h-5v-1h2V21z"/>
<path fill="#007A6B" d="M46,21h4v1h-4V21z"/>
<path fill="#004D44" d="M50,21h4v1h-4V21z"/>
<path fill="#00AF9D" d="M10,22h21v1h2v-1h3v1h-2v1h-1v1h-1v2h1v1h1v2h-1v-1h-2v1H9v-6h1V22z"/>
<path fill="#004D44" d="M31,22h2v1h-2V22z"/>
<path fill="#604040" d="M36,22h1v1h-1V22z"/>
<path fill="#A07850" d="M37,22h1v1h-1V22z"/>
<path fill="#A07850" d="M43,22h1v1h-1V22z"/>
<path fill="#604040" d="M44,22h1v1h-1V22z"/>
<path fill="#00AF9D" d="M45,22h9v2h1v6h-8v-1h5v-1h1v-4h-1v-1h-7V22z"/>
<path fill="#009384" d="M9,23h1v1H9V23z"/>
<path fill="#00C5B4" d="M12,23h18v1h1v4h-1v1H12v-1h-1v-4h1V23z"/>
<path fill="#030303" d="M34,23h1v1h-1V23z"/>
<path fill="#264F94" d="M35,23h2v1h7v-1h2v2h-2v2h-1v1h-1v-2h-3v2h-1v-1h-1v-2h-2V23z"/>
<path fill="#604040" d="M37,23h1v1h-1V23z"/>
<path fill="#1F3368" d="M38,23h1v1h-1V23z"/>
<path fill="#604040" d="M39,23h3v1h-3V23z"/>
<path fill="#1F3368" d="M42,23h1v1h-1V23z"/>
<path fill="#604040" d="M43,23h1v1h-1V23z"/>
<path fill="#030303" d="M46,23h1v1h-1V23z"/>
<path fill="#00C5B4" d="M47,23h5v1h1v4h-1v1h-6v-1h2v-1h1v-2h-1v-1h-1V23z"/>
<path fill="#009384" d="M54,23h1v1h-1V23z"/>
<path fill="#00AF9D" d="M21,24h1v1h2v1h-2v1h-1v-1h-3v-1h3V24z"/>
<path fill="#030303" d="M33,24h1v1h-1V24z"/>
<path fill="#5878C0" d="M34,24h1v1h-1V24z"/>
<path fill="#5878C0" d="M46,24h1v1h-1V24z"/>
<path fill="#030303" d="M47,24h1v1h-1V24z"/>
<path fill="#604040" d="M32,25h1v2h-1V25z"/>
<path fill="#D89870" d="M33,25h1v1h1v1h-2V25z"/>
<path fill="#1F3368" d="M34,25h1v1h-1V25z"/>
<path fill="#5878C0" d="M35,25h1v1h-1V25z"/>
<path fill="#030303" d="M36,25h1v2h-1V25z"/>
<path fill="#030303" d="M44,25h1v2h-1V25z"/>
<path fill="#5878C0" d="M45,25h1v1h-1V25z"/>
<path fill="#1F3368" d="M46,25h1v1h-1V25z"/>
<path fill="#D89870" d="M47,25h1v2h-2v-1h1V25z"/>
<path fill="#604040" d="M48,25h1v2h-1V25z"/>
<path fill="#00AF9D" d="M7,26h1v3H7v-1H6v-1h1V26z"/>
<path fill="#007A6B" d="M8,26h1v4h22v1H9v3H8v-4H7v-1h1V26z"/>
<path fill="#1F3368" d="M35,26h1v1h-1V26z"/>
<path fill="#4868B0" d="M39,26h3v2h-3V26z"/>
<path fill="#1F3368" d="M45,26h1v1h-1V26z"/>
<path fill="#007A6B" d="M55,26h1v3h1v1h-1v4h-1v-3h-7v-1h7V26z"/>
<path fill="#00AF9D" d="M59,26h1v2h-2v-1h1V26z"/>
<path fill="#604040" d="M33,27h2v1h-2V27z"/>
<path fill="#030303" d="M35,27h1v2h1v1h-1v1h-1V27z"/>
<path fill="#1F3368" d="M36,27h2v1h-2V27z"/>
<path fill="#1F3368" d="M43,27h2v1h-2V27z"/>
<path fill="#030303" d="M45,27h1v4h-1v-1h-1v-1h1V27z"/>
<path fill="#604040" d="M46,27h2v1h-2V27z"/>
<path fill="#007A6B" d="M4,28h3v1H5v1H4V28z"/>
<path fill="#00C5B4" d="M34,28h1v1h-1V28z"/>
<path fill="#B0B0C8" d="M36,28h2v1h5v-1h2v1h-1v1h-7v-1h-1V28z"/>
<path fill="#1F3368" d="M38,28h5v1h-5V28z"/>
<path fill="#007A6B" d="M57,28h3v2h-1v-1h-2V28z"/>
<path fill="#00AF9D" d="M5,29h2v1h1v4H4v-4h1V29z"/>
<path fill="#007A6B" d="M31,29h2v1h-2V29z"/>
<path fill="#008376" d="M34,29h1v1h-1V29z"/>
<path fill="#008376" d="M46,29h1v1h-1V29z"/>
<path fill="#00AF9D" d="M57,29h2v1h1v4h-4v-4h1V29z"/>
<path fill="#009384" d="M31,30h2v2h1v2h-4v-3h1V30z"/>
<path fill="#005B50" d="M33,30h2v1h-2V30z"/>
<path fill="#585080" d="M36,30h2v1h-2V30z"/>
<path fill="#030303" d="M38,30h1v1h-1V30z"/>
<path fill="#005B50" d="M39,30h3v1h-3V30z"/>
<path fill="#030303" d="M42,30h1v1h-1V30z"/>
<path fill="#585080" d="M43,30h2v1h-2V30z"/>
<path fill="#005B50" d="M46,30h2v1h-2V30z"/>
<path fill="#009384" d="M9,31h2v3H9V31z"/>
<path fill="#00AF9D" d="M11,31h19v3H11V31z"/>
<path fill="#006E63" d="M33,31h1v1h-1V31z"/>
<path fill="#008376" d="M34,31h2v1h2v-1h5v1h2v-1h3v1h-1v1h-2v1h-9v-1h-2V31z"/>
<path fill="#030303" d="M36,31h2v1h-2V31z"/>
<path fill="#030303" d="M43,31h2v1h-2V31z"/>
<path fill="#00AF9D" d="M48,31h5v3h-8v-1h2v-1h1V31z"/>
<path fill="#009384" d="M53,31h2v3h-2V31z"/>
<path fill="#00AF9D" d="M34,33h2v1h-2V33z"/>
<path fill="#373031" d="M3,35h1v1h3v-1h1v2H3V35z"/>
<path fill="#686060" d="M4,35h3v1H4V35z"/>
<path fill="#373031" d="M56,35h1v1h3v-1h1v2h-5V35z"/>
<path fill="#686060" d="M57,35h3v1h-3V35z"/>
</svg>
