<?xml version="1.0" encoding="utf-8"?>
<!-- Generator: Adobe Illustrator 16.0.4, SVG Export Plug-In . SVG Version: 6.00 Build 0)  -->
<!DOCTYPE svg PUBLIC "-//W3C//DTD SVG 1.1//EN" "http://www.w3.org/Graphics/SVG/1.1/DTD/svg11.dtd">
<svg version="1.1" id="Layer_1" xmlns="http://www.w3.org/2000/svg" xmlns:xlink="http://www.w3.org/1999/xlink" x="0px" y="0px"
	 width="64px" height="48px" viewBox="0 0 64 48" enable-background="new 0 0 64 48" xml:space="preserve">
<path fill="#484028" d="M35,5h4v1h-4V5z"/>
<path fill="#484028" d="M34,6h1v2h-2V7h1V6z"/>
<path fill="#A89848" d="M35,6h3v1h5v1h3v2h-1v2h-3v1h-2v-1h-1v1h-1v-1h-2v1h-1v-3h-1V9h-1V8h3V7h-1V6z"/>
<path fill="#654F36" d="M38,6h1v1h-1V6z"/>
<path fill="#484028" d="M39,6h4v1h-4V6z"/>
<path fill="#654F36" d="M35,7h1v1h-1V7z"/>
<path fill="#484028" d="M43,7h3v1h-3V7z"/>
<path fill="#004D44" d="M6,8h26v1H6V8z"/>
<path fill="#484028" d="M32,8h1v3h-1V8z"/>
<path fill="#484028" d="M46,8h1v1h-1V8z"/>
<path fill="#004D44" d="M47,8h11v1H47V8z"/>
<path fill="#004D44" d="M5,9h1v1H5V9z"/>
<path fill="#00AF9D" d="M6,9h1v3H6v1H5v-3h1V9z"/>
<path fill="#00C5B4" d="M7,9h1v1h1v1h24v1H7V9z"/>
<path fill="#2DD4C7" d="M8,9h24v2H9v-1H8V9z"/>
<path fill="#654F36" d="M33,9h1v1h-1V9z"/>
<path fill="#786048" d="M46,9h1v4h-2v-3h1V9z"/>
<path fill="#484028" d="M47,9h1v4h-1V9z"/>
<path fill="#2DD4C7" d="M48,9h8v1h-1v1h-7V9z"/>
<path fill="#00C5B4" d="M56,9h1v3h-9v-1h7v-1h1V9z"/>
<path fill="#00AF9D" d="M57,9h1v1h1v3h-1v-1h-1V9z"/>
<path fill="#004D44" d="M58,9h1v1h-1V9z"/>
<path fill="#004D44" d="M4,10h1v5h3v1H4V10z"/>
<path fill="#786048" d="M33,10h1v1h-1V10z"/>
<path fill="#654F36" d="M34,10h1v1h-1V10z"/>
<path fill="#004D44" d="M59,10h1v6h-4v-1h3V10z"/>
<path fill="#484028" d="M33,11h1v2h-1V11z"/>
<path fill="#786048" d="M34,11h1v2h-1V11z"/>
<path fill="#007A6B" d="M6,12h27v1H6V12z"/>
<path fill="#654F36" d="M36,12h2v1h-2V12z"/>
<path fill="#F8D0B8" d="M39,12h1v1h5v4h-1v-1h-2v2h1v2h-2v-1h-1v1h-2v-2h1v-2h-2v1h-1v-4h3V12z"/>
<path fill="#654F36" d="M42,12h3v1h-3V12z"/>
<path fill="#007A6B" d="M48,12h10v1H48V12z"/>
<path fill="#007A6B" d="M5,13h1v1H5V13z"/>
<path fill="#00AF9D" d="M6,13h27v1h-1v2h1v1h1v1h1v1h-2v1h-2v-1H10v-1H9v-2H8v-1H5v-1h1V13z"/>
<path fill="#604040" d="M33,13h1v1h-1V13z"/>
<path fill="#484028" d="M34,13h1v2h-1V13z"/>
<path fill="#654F36" d="M35,13h1v1h-1V13z"/>
<path fill="#654F36" d="M45,13h1v1h-1V13z"/>
<path fill="#484028" d="M46,13h1v2h-1V13z"/>
<path fill="#604040" d="M47,13h1v1h-1V13z"/>
<path fill="#00AF9D" d="M48,13h10v1h1v1h-3v1h-1v2h-1v1h-8v-1h7v-1h1v-2h-1v-1h-5V13z"/>
<path fill="#007A6B" d="M58,13h1v1h-1V13z"/>
<path fill="#00C5B4" d="M11,14h19v1h1v2h-1v1H11v-1h-1v-2h1V14z"/>
<path fill="#030303" d="M32,14h1v2h-1V14z"/>
<path fill="#D8A078" d="M33,14h1v2h-1V14z"/>
<path fill="#D8A078" d="M35,14h1v3h1v1h1v2h-2v-2h-1V14z"/>
<path fill="#654F36" d="M37,14h2v1h-2V14z"/>
<path fill="#654F36" d="M42,14h2v1h-2V14z"/>
<path fill="#D8A078" d="M45,14h1v4h-1v2h-2v-2h1v-1h1V14z"/>
<path fill="#D8A078" d="M47,14h1v2h-1V14z"/>
<path fill="#030303" d="M48,14h1v2h-1V14z"/>
<path fill="#00C5B4" d="M49,14h4v1h1v2h-1v1h-6v-1h1v-1h1V14z"/>
<path fill="#604040" d="M34,15h1v3h-1V15z"/>
<path fill="#604040" d="M46,15h1v3h-1V15z"/>
<path fill="#004D44" d="M3,16h1v16h56V16h1v17H3V16z"/>
<path fill="#2DD4C7" d="M4,16h2v1h1v6H6v1H4V16z"/>
<path fill="#00C5B4" d="M6,16h1v1H6V16z"/>
<path fill="#00AF9D" d="M7,16h1v1H7V16z"/>
<path fill="#004D44" d="M8,16h1v4h1v1H9v3H8V16z"/>
<path fill="#030303" d="M33,16h1v1h-1V16z"/>
<path fill="#A8A0C8" d="M37,16h1v1h-1V16z"/>
<path fill="#404048" d="M38,16h1v1h-1V16z"/>
<path fill="#404048" d="M42,16h1v1h-1V16z"/>
<path fill="#A8A0C8" d="M43,16h1v1h-1V16z"/>
<path fill="#030303" d="M47,16h1v1h-1V16z"/>
<path fill="#004D44" d="M55,16h1v8h-1v-3h-1v-1h1V16z"/>
<path fill="#2DD4C7" d="M56,16h2v1h1v6h-1v1h-2V16z"/>
<path fill="#00C5B4" d="M58,16h2v8h-1v1h-1v1h-1v1h-1v-3h2v-1h1v-6h-1V16z"/>
<path fill="#00C5B4" d="M7,17h1v7H7v1H6v1H4v-2h2v-1h1V17z"/>
<path fill="#E8E8F8" d="M37,17h1v1h-1V17z"/>
<path fill="#030303" d="M38,17h1v1h-1V17z"/>
<path fill="#030303" d="M42,17h1v1h-1V17z"/>
<path fill="#E8E8F8" d="M43,17h1v1h-1V17z"/>
<path fill="#009384" d="M9,18h1v2H9V18z"/>
<path fill="#604040" d="M35,18h1v2h-1V18z"/>
<path fill="#604040" d="M45,18h1v2h-1V18z"/>
<path fill="#009384" d="M54,18h1v2h-1V18z"/>
<path fill="#004D44" d="M10,19h4v1h-4V19z"/>
<path fill="#007A6B" d="M14,19h14v1H14V19z"/>
<path fill="#004D44" d="M28,19h3v1h-3V19z"/>
<path fill="#004D44" d="M33,19h2v1h-2V19z"/>
<path fill="#D8A078" d="M40,19h1v1h2v1h-5v-1h2V19z"/>
<path fill="#007A6B" d="M46,19h4v1h-4V19z"/>
<path fill="#004D44" d="M50,19h4v1h-4V19z"/>
<path fill="#00AF9D" d="M10,20h21v1h2v-1h3v1h-2v1h-1v1h-1v2h1v1h1v2h-1v-1h-2v1H9v-6h1V20z"/>
<path fill="#004D44" d="M31,20h2v1h-2V20z"/>
<path fill="#604040" d="M36,20h1v1h-1V20z"/>
<path fill="#A07850" d="M37,20h1v1h-1V20z"/>
<path fill="#A07850" d="M43,20h1v1h-1V20z"/>
<path fill="#604040" d="M44,20h1v1h-1V20z"/>
<path fill="#00AF9D" d="M45,20h9v2h1v6h-8v-1h5v-1h1v-4h-1v-1h-7V20z"/>
<path fill="#009384" d="M9,21h1v1H9V21z"/>
<path fill="#00C5B4" d="M12,21h18v1h1v4h-1v1H12v-1h-1v-4h1V21z"/>
<path fill="#030303" d="M34,21h1v1h-1V21z"/>
<path fill="#264F94" d="M35,21h2v1h7v-1h2v2h-2v2h-1v1h-1v-2h-3v2h-1v-1h-1v-2h-2V21z"/>
<path fill="#604040" d="M37,21h1v1h-1V21z"/>
<path fill="#1F3368" d="M38,21h1v1h-1V21z"/>
<path fill="#604040" d="M39,21h3v1h-3V21z"/>
<path fill="#1F3368" d="M42,21h1v1h-1V21z"/>
<path fill="#604040" d="M43,21h1v1h-1V21z"/>
<path fill="#030303" d="M46,21h1v1h-1V21z"/>
<path fill="#00C5B4" d="M47,21h5v1h1v4h-1v1h-6v-1h2v-1h1v-2h-1v-1h-1V21z"/>
<path fill="#009384" d="M54,21h1v1h-1V21z"/>
<path fill="#00AF9D" d="M21,22h1v1h2v1h-2v1h-1v-1h-3v-1h3V22z"/>
<path fill="#030303" d="M33,22h1v1h-1V22z"/>
<path fill="#5878C0" d="M34,22h1v1h-1V22z"/>
<path fill="#5878C0" d="M46,22h1v1h-1V22z"/>
<path fill="#030303" d="M47,22h1v1h-1V22z"/>
<path fill="#604040" d="M32,23h1v2h-1V23z"/>
<path fill="#D89870" d="M33,23h1v1h1v1h-2V23z"/>
<path fill="#1F3368" d="M34,23h1v1h-1V23z"/>
<path fill="#5878C0" d="M35,23h1v1h-1V23z"/>
<path fill="#030303" d="M36,23h1v2h-1V23z"/>
<path fill="#030303" d="M44,23h1v2h-1V23z"/>
<path fill="#5878C0" d="M45,23h1v1h-1V23z"/>
<path fill="#1F3368" d="M46,23h1v1h-1V23z"/>
<path fill="#D89870" d="M47,23h1v2h-2v-1h1V23z"/>
<path fill="#604040" d="M48,23h1v2h-1V23z"/>
<path fill="#00AF9D" d="M7,24h1v3H7v-1H6v-1h1V24z"/>
<path fill="#007A6B" d="M8,24h1v4h22v1H9v3H8v-4H7v-1h1V24z"/>
<path fill="#1F3368" d="M35,24h1v1h-1V24z"/>
<path fill="#4868B0" d="M39,24h3v2h-3V24z"/>
<path fill="#1F3368" d="M45,24h1v1h-1V24z"/>
<path fill="#007A6B" d="M55,24h1v3h1v1h-1v4h-1v-3h-7v-1h7V24z"/>
<path fill="#00AF9D" d="M59,24h1v2h-2v-1h1V24z"/>
<path fill="#604040" d="M33,25h2v1h-2V25z"/>
<path fill="#030303" d="M35,25h1v2h1v1h-1v1h-1V25z"/>
<path fill="#1F3368" d="M36,25h2v1h-2V25z"/>
<path fill="#1F3368" d="M43,25h2v1h-2V25z"/>
<path fill="#030303" d="M45,25h1v4h-1v-1h-1v-1h1V25z"/>
<path fill="#604040" d="M46,25h2v1h-2V25z"/>
<path fill="#007A6B" d="M4,26h3v1H5v1H4V26z"/>
<path fill="#00C5B4" d="M34,26h1v1h-1V26z"/>
<path fill="#B0B0C8" d="M36,26h2v1h5v-1h2v1h-1v1h-7v-1h-1V26z"/>
<path fill="#1F3368" d="M38,26h5v1h-5V26z"/>
<path fill="#007A6B" d="M57,26h3v2h-1v-1h-2V26z"/>
<path fill="#00AF9D" d="M5,27h2v1h1v4H4v-4h1V27z"/>
<path fill="#007A6B" d="M31,27h2v1h-2V27z"/>
<path fill="#008376" d="M34,27h1v1h-1V27z"/>
<path fill="#008376" d="M46,27h1v1h-1V27z"/>
<path fill="#00AF9D" d="M57,27h2v1h1v4h-4v-4h1V27z"/>
<path fill="#009384" d="M31,28h2v2h1v2h-4v-3h1V28z"/>
<path fill="#005B50" d="M33,28h2v1h-2V28z"/>
<path fill="#585080" d="M36,28h2v1h-2V28z"/>
<path fill="#030303" d="M38,28h1v1h-1V28z"/>
<path fill="#005B50" d="M39,28h3v1h-3V28z"/>
<path fill="#030303" d="M42,28h1v1h-1V28z"/>
<path fill="#585080" d="M43,28h2v1h-2V28z"/>
<path fill="#005B50" d="M46,28h2v1h-2V28z"/>
<path fill="#009384" d="M9,29h2v3H9V29z"/>
<path fill="#00AF9D" d="M11,29h19v3H11V29z"/>
<path fill="#006E63" d="M33,29h1v1h-1V29z"/>
<path fill="#008376" d="M34,29h2v1h2v-1h5v1h2v-1h3v1h-1v1h-2v1h-9v-1h-2V29z"/>
<path fill="#030303" d="M36,29h2v1h-2V29z"/>
<path fill="#030303" d="M43,29h2v1h-2V29z"/>
<path fill="#00AF9D" d="M48,29h5v3h-8v-1h2v-1h1V29z"/>
<path fill="#009384" d="M53,29h2v3h-2V29z"/>
<path fill="#00AF9D" d="M34,31h2v1h-2V31z"/>
<path fill="#373031" d="M3,33h1v1h3v-1h1v2H3V33z"/>
<path fill="#686060" d="M4,33h3v1H4V33z"/>
<path fill="#373031" d="M56,33h1v1h3v-1h1v2h-5V33z"/>
<path fill="#686060" d="M57,33h3v1h-3V33z"/>
</svg>
