<?xml version="1.0" encoding="utf-8"?>
<!-- Generator: Adobe Illustrator 16.0.4, SVG Export Plug-In . SVG Version: 6.00 Build 0)  -->
<!DOCTYPE svg PUBLIC "-//W3C//DTD SVG 1.1//EN" "http://www.w3.org/Graphics/SVG/1.1/DTD/svg11.dtd">
<svg version="1.1" id="Layer_1" xmlns="http://www.w3.org/2000/svg" xmlns:xlink="http://www.w3.org/1999/xlink" x="0px" y="0px"
	 width="32px" height="32px" viewBox="0 0 32 32" enable-background="new 0 0 32 32" xml:space="preserve">
<path fill="#303030" d="M2,8h30v1H2V8z"/>
<path fill="#303030" d="M1,9h1v10H1V9z"/>
<path fill="#AEAEAE" d="M2,9h2v1H3v6H2V9z"/>
<path fill="#CDCDCD" d="M4,9h28v8H3v-7h1V9z"/>
<path fill="#EEEEEE" d="M2,16h1v1H2V16z"/>
<path fill="#CDCDCD" d="M2,17h1v1H2V17z"/>
<path fill="#EEEEEE" d="M3,17h29v1H3V17z"/>
<path fill="#AEAEAE" d="M2,18h30v1H2V18z"/>
<path fill="#303030" d="M2,19h30v1H2V19z"/>
<path fill="#373031" d="M2,20h1v6h29v1H2V20z"/>
<path fill="#686060" d="M3,20h29v6H3V20z"/>
</svg>
