<?xml version="1.0" encoding="utf-8"?>
<!-- Generator: Adobe Illustrator 16.0.4, SVG Export Plug-In . SVG Version: 6.00 Build 0)  -->
<!DOCTYPE svg PUBLIC "-//W3C//DTD SVG 1.1//EN" "http://www.w3.org/Graphics/SVG/1.1/DTD/svg11.dtd">
<svg version="1.1" id="Layer_1" xmlns="http://www.w3.org/2000/svg" xmlns:xlink="http://www.w3.org/1999/xlink" x="0px" y="0px"
	 width="16px" height="32px" viewBox="0 0 16 32" enable-background="new 0 0 16 32" xml:space="preserve">
<path fill="#303030" d="M0,8h14v1H0V8z"/>
<path fill="#CDCDCD" d="M0,9h12v1h1v7H0V9z"/>
<path fill="#EEEEEE" d="M12,9h2v8h-1v-7h-1V9z"/>
<path fill="#303030" d="M14,9h1v10h-1V9z"/>
<path fill="#EEEEEE" d="M0,17h13v1H0V17z"/>
<path fill="#CDCDCD" d="M13,17h1v1h-1V17z"/>
<path fill="#AEAEAE" d="M0,18h14v1H0V18z"/>
<path fill="#303030" d="M0,19h14v1H0V19z"/>
<path fill="#6F5F4D" d="M0,20h13v1H0V20z"/>
<path fill="#494949" d="M13,20h1v6h-1V20z"/>
<path fill="#93704E" d="M0,21h13v5H0V21z"/>
<path fill="#494949" d="M0,26h13v1H0V26z"/>
</svg>
