<?xml version="1.0" encoding="utf-8"?>
<!-- Generator: Adobe Illustrator 16.0.4, SVG Export Plug-In . SVG Version: 6.00 Build 0)  -->
<!DOCTYPE svg PUBLIC "-//W3C//DTD SVG 1.1//EN" "http://www.w3.org/Graphics/SVG/1.1/DTD/svg11.dtd">
<svg version="1.1" id="Layer_1" xmlns="http://www.w3.org/2000/svg" xmlns:xlink="http://www.w3.org/1999/xlink" x="0px" y="0px"
	 width="144px" height="48px" viewBox="0 0 144 48" enable-background="new 0 0 144 48" xml:space="preserve">
<path d="M0,0h144v16H0V0z"/>
<path fill="#828282" d="M0,16h144v1H0V16z"/>
<path fill="#EEEEEE" d="M0,17h144v3H0V17z"/>
<path fill="#FFFFFF" d="M0,20h144v1H0V20z"/>
<path fill="#A0A0A0" d="M0,21h144v1H0V21z"/>
<g opacity="0.6">
	<path fill="#C6C6C6" d="M0,22h13v1h-1v1h-1v1h-1v1H9v1H8v1H7v1H6v1H5v1H4v1H3v1H2v1H1v1H0V22z"/>
	<path fill="#D9D9D9" d="M13,22h1v1h-1V22z"/>
	<path fill="#C6C6C6" d="M14,22h11v1h-1v1h-1v1h-1v1h-1v1h-1v1h-1v1h-1v1h-1v1h-1v1h-1v1h-1v1h-1v1h-1v1h-1v1h-1v1H9v1H8v1H7v1H6v1
		H5v1H4v1H3v1H2v1H1v1H0V36h1v-1h1v-1h1v-1h1v-1h1v-1h1v-1h1v-1h1v-1h1v-1h1v-1h1v-1h1v-1h1v-1h1V22z"/>
	<path fill="#D9D9D9" d="M25,22h1v1h-1V22z"/>
	<path fill="#C6C6C6" d="M26,22h3v1h-1v1h-1v1h-1v1h-1v1h-1v1h-1v1h-1v1h-1v1h-1v1h-1v1h-1v1h-1v1h-1v1h-1v1h-1v1h-1v1h-1v1h-1v1h-1
		v1H9v1H8v1H7v1H6v1H5v1H4v1H1v-1h1v-1h1v-1h1v-1h1v-1h1v-1h1v-1h1v-1h1v-1h1v-1h1v-1h1v-1h1v-1h1v-1h1v-1h1v-1h1v-1h1v-1h1v-1h1v-1
		h1v-1h1v-1h1v-1h1v-1h1v-1h1V22z"/>
	<path fill="#D9D9D9" d="M29,22h3v1h-1v1h-1v1h-1v1h-1v1h-1v1h-1v1h-1v1h-1v1h-1v1h-1v1h-1v1h-1v1h-1v1h-1v1h-1v1h-1v1h-1v1h-1v1h-1
		v1h-1v1h-1v1h-1v1H9v1H8v1H7v1H4v-1h1v-1h1v-1h1v-1h1v-1h1v-1h1v-1h1v-1h1v-1h1v-1h1v-1h1v-1h1v-1h1v-1h1v-1h1v-1h1v-1h1v-1h1v-1h1
		v-1h1v-1h1v-1h1v-1h1v-1h1v-1h1V22z"/>
	<path fill="#C6C6C6" d="M32,22h13v1h-1v1h-1v1h-1v1h-1v1h-1v1h-1v1h-1v1h-1v1h-1v1h-1v1h-1v1h-1v1h-1v1h-1v1h-1v1h-1v1h-1v1h-1v1
		h-1v1h-1v1h-1v1h-1v1h-1v1h-1v1h-1v1H7v-1h1v-1h1v-1h1v-1h1v-1h1v-1h1v-1h1v-1h1v-1h1v-1h1v-1h1v-1h1v-1h1v-1h1v-1h1v-1h1v-1h1v-1
		h1v-1h1v-1h1v-1h1v-1h1v-1h1v-1h1v-1h1V22z"/>
	<path fill="#D9D9D9" d="M45,22h1v1h-1V22z"/>
	<path fill="#C6C6C6" d="M46,22h11v1h-1v1h-1v1h-1v1h-1v1h-1v1h-1v1h-1v1h-1v1h-1v1h-1v1h-1v1h-1v1h-1v1h-1v1h-1v1h-1v1h-1v1h-1v1
		h-1v1h-1v1h-1v1h-1v1h-1v1h-1v1h-1v1H21v-1h1v-1h1v-1h1v-1h1v-1h1v-1h1v-1h1v-1h1v-1h1v-1h1v-1h1v-1h1v-1h1v-1h1v-1h1v-1h1v-1h1v-1
		h1v-1h1v-1h1v-1h1v-1h1v-1h1v-1h1v-1h1V22z"/>
	<path fill="#D9D9D9" d="M57,22h1v1h-1V22z"/>
	<path fill="#C6C6C6" d="M58,22h3v1h-1v1h-1v1h-1v1h-1v1h-1v1h-1v1h-1v1h-1v1h-1v1h-1v1h-1v1h-1v1h-1v1h-1v1h-1v1h-1v1h-1v1h-1v1h-1
		v1h-1v1h-1v1h-1v1h-1v1h-1v1h-1v1h-3v-1h1v-1h1v-1h1v-1h1v-1h1v-1h1v-1h1v-1h1v-1h1v-1h1v-1h1v-1h1v-1h1v-1h1v-1h1v-1h1v-1h1v-1h1
		v-1h1v-1h1v-1h1v-1h1v-1h1v-1h1v-1h1V22z"/>
	<path fill="#D9D9D9" d="M61,22h3v1h-1v1h-1v1h-1v1h-1v1h-1v1h-1v1h-1v1h-1v1h-1v1h-1v1h-1v1h-1v1h-1v1h-1v1h-1v1h-1v1h-1v1h-1v1h-1
		v1h-1v1h-1v1h-1v1h-1v1h-1v1h-1v1h-3v-1h1v-1h1v-1h1v-1h1v-1h1v-1h1v-1h1v-1h1v-1h1v-1h1v-1h1v-1h1v-1h1v-1h1v-1h1v-1h1v-1h1v-1h1
		v-1h1v-1h1v-1h1v-1h1v-1h1v-1h1v-1h1V22z"/>
	<path fill="#C6C6C6" d="M64,22h13v1h-1v1h-1v1h-1v1h-1v1h-1v1h-1v1h-1v1h-1v1h-1v1h-1v1h-1v1h-1v1h-1v1h-1v1h-1v1h-1v1h-1v1h-1v1
		h-1v1h-1v1h-1v1h-1v1h-1v1h-1v1h-1v1H39v-1h1v-1h1v-1h1v-1h1v-1h1v-1h1v-1h1v-1h1v-1h1v-1h1v-1h1v-1h1v-1h1v-1h1v-1h1v-1h1v-1h1v-1
		h1v-1h1v-1h1v-1h1v-1h1v-1h1v-1h1v-1h1V22z"/>
	<path fill="#D9D9D9" d="M77,22h1v1h-1V22z"/>
	<path fill="#C6C6C6" d="M78,22h11v1h-1v1h-1v1h-1v1h-1v1h-1v1h-1v1h-1v1h-1v1h-1v1h-1v1h-1v1h-1v1h-1v1h-1v1h-1v1h-1v1h-1v1h-1v1
		h-1v1h-1v1h-1v1h-1v1h-1v1h-1v1h-1v1H53v-1h1v-1h1v-1h1v-1h1v-1h1v-1h1v-1h1v-1h1v-1h1v-1h1v-1h1v-1h1v-1h1v-1h1v-1h1v-1h1v-1h1v-1
		h1v-1h1v-1h1v-1h1v-1h1v-1h1v-1h1v-1h1V22z"/>
	<path fill="#D9D9D9" d="M89,22h1v1h-1V22z"/>
	<path fill="#C6C6C6" d="M90,22h3v1h-1v1h-1v1h-1v1h-1v1h-1v1h-1v1h-1v1h-1v1h-1v1h-1v1h-1v1h-1v1h-1v1h-1v1h-1v1h-1v1h-1v1h-1v1h-1
		v1h-1v1h-1v1h-1v1h-1v1h-1v1h-1v1h-3v-1h1v-1h1v-1h1v-1h1v-1h1v-1h1v-1h1v-1h1v-1h1v-1h1v-1h1v-1h1v-1h1v-1h1v-1h1v-1h1v-1h1v-1h1
		v-1h1v-1h1v-1h1v-1h1v-1h1v-1h1v-1h1V22z"/>
	<path fill="#D9D9D9" d="M93,22h3v1h-1v1h-1v1h-1v1h-1v1h-1v1h-1v1h-1v1h-1v1h-1v1h-1v1h-1v1h-1v1h-1v1h-1v1h-1v1h-1v1h-1v1h-1v1h-1
		v1h-1v1h-1v1h-1v1h-1v1h-1v1h-1v1h-3v-1h1v-1h1v-1h1v-1h1v-1h1v-1h1v-1h1v-1h1v-1h1v-1h1v-1h1v-1h1v-1h1v-1h1v-1h1v-1h1v-1h1v-1h1
		v-1h1v-1h1v-1h1v-1h1v-1h1v-1h1v-1h1V22z"/>
	<path fill="#C6C6C6" d="M96,22h13v1h-1v1h-1v1h-1v1h-1v1h-1v1h-1v1h-1v1h-1v1h-1v1h-1v1h-1v1h-1v1h-1v1h-1v1h-1v1h-1v1h-1v1h-1v1
		h-1v1h-1v1h-1v1h-1v1h-1v1h-1v1h-1v1H71v-1h1v-1h1v-1h1v-1h1v-1h1v-1h1v-1h1v-1h1v-1h1v-1h1v-1h1v-1h1v-1h1v-1h1v-1h1v-1h1v-1h1v-1
		h1v-1h1v-1h1v-1h1v-1h1v-1h1v-1h1v-1h1V22z"/>
	<path fill="#D9D9D9" d="M109,22h1v1h-1V22z"/>
	<path fill="#C6C6C6" d="M110,22h11v1h-1v1h-1v1h-1v1h-1v1h-1v1h-1v1h-1v1h-1v1h-1v1h-1v1h-1v1h-1v1h-1v1h-1v1h-1v1h-1v1h-1v1h-1v1
		h-1v1h-1v1h-1v1h-1v1h-1v1h-1v1h-1v1H85v-1h1v-1h1v-1h1v-1h1v-1h1v-1h1v-1h1v-1h1v-1h1v-1h1v-1h1v-1h1v-1h1v-1h1v-1h1v-1h1v-1h1v-1
		h1v-1h1v-1h1v-1h1v-1h1v-1h1v-1h1v-1h1V22z"/>
	<path fill="#D9D9D9" d="M121,22h1v1h-1V22z"/>
	<path fill="#C6C6C6" d="M122,22h3v1h-1v1h-1v1h-1v1h-1v1h-1v1h-1v1h-1v1h-1v1h-1v1h-1v1h-1v1h-1v1h-1v1h-1v1h-1v1h-1v1h-1v1h-1v1
		h-1v1h-1v1h-1v1h-1v1h-1v1h-1v1h-1v1h-3v-1h1v-1h1v-1h1v-1h1v-1h1v-1h1v-1h1v-1h1v-1h1v-1h1v-1h1v-1h1v-1h1v-1h1v-1h1v-1h1v-1h1v-1
		h1v-1h1v-1h1v-1h1v-1h1v-1h1v-1h1v-1h1V22z"/>
	<path fill="#D9D9D9" d="M125,22h3v1h-1v1h-1v1h-1v1h-1v1h-1v1h-1v1h-1v1h-1v1h-1v1h-1v1h-1v1h-1v1h-1v1h-1v1h-1v1h-1v1h-1v1h-1v1
		h-1v1h-1v1h-1v1h-1v1h-1v1h-1v1h-1v1h-3v-1h1v-1h1v-1h1v-1h1v-1h1v-1h1v-1h1v-1h1v-1h1v-1h1v-1h1v-1h1v-1h1v-1h1v-1h1v-1h1v-1h1v-1
		h1v-1h1v-1h1v-1h1v-1h1v-1h1v-1h1v-1h1V22z"/>
	<path fill="#C6C6C6" d="M128,22h13v1h-1v1h-1v1h-1v1h-1v1h-1v1h-1v1h-1v1h-1v1h-1v1h-1v1h-1v1h-1v1h-1v1h-1v1h-1v1h-1v1h-1v1h-1v1
		h-1v1h-1v1h-1v1h-1v1h-1v1h-1v1h-1v1h-13v-1h1v-1h1v-1h1v-1h1v-1h1v-1h1v-1h1v-1h1v-1h1v-1h1v-1h1v-1h1v-1h1v-1h1v-1h1v-1h1v-1h1
		v-1h1v-1h1v-1h1v-1h1v-1h1v-1h1v-1h1v-1h1V22z"/>
	<path fill="#D9D9D9" d="M141,22h1v1h-1V22z"/>
	<path fill="#C6C6C6" d="M142,22h2v10h-1v1h-1v1h-1v1h-1v1h-1v1h-1v1h-1v1h-1v1h-1v1h-1v1h-1v1h-1v1h-1v1h-1v1h-1v1h-1v1h-11v-1h1
		v-1h1v-1h1v-1h1v-1h1v-1h1v-1h1v-1h1v-1h1v-1h1v-1h1v-1h1v-1h1v-1h1v-1h1v-1h1v-1h1v-1h1v-1h1v-1h1v-1h1v-1h1v-1h1v-1h1v-1h1V22z"
		/>
	<path fill="#D9D9D9" d="M12,23h1v1h-1V23z"/>
	<path fill="#D9D9D9" d="M24,23h1v1h-1V23z"/>
	<path fill="#D9D9D9" d="M44,23h1v1h-1V23z"/>
	<path fill="#D9D9D9" d="M56,23h1v1h-1V23z"/>
	<path fill="#D9D9D9" d="M76,23h1v1h-1V23z"/>
	<path fill="#D9D9D9" d="M88,23h1v1h-1V23z"/>
	<path fill="#D9D9D9" d="M108,23h1v1h-1V23z"/>
	<path fill="#D9D9D9" d="M120,23h1v1h-1V23z"/>
	<path fill="#D9D9D9" d="M140,23h1v1h-1V23z"/>
	<path fill="#D9D9D9" d="M11,24h1v1h-1V24z"/>
	<path fill="#D9D9D9" d="M23,24h1v1h-1V24z"/>
	<path fill="#D9D9D9" d="M43,24h1v1h-1V24z"/>
	<path fill="#D9D9D9" d="M55,24h1v1h-1V24z"/>
	<path fill="#D9D9D9" d="M75,24h1v1h-1V24z"/>
	<path fill="#D9D9D9" d="M87,24h1v1h-1V24z"/>
	<path fill="#D9D9D9" d="M107,24h1v1h-1V24z"/>
	<path fill="#D9D9D9" d="M119,24h1v1h-1V24z"/>
	<path fill="#D9D9D9" d="M139,24h1v1h-1V24z"/>
	<path fill="#D9D9D9" d="M10,25h1v1h-1V25z"/>
	<path fill="#D9D9D9" d="M22,25h1v1h-1V25z"/>
	<path fill="#D9D9D9" d="M42,25h1v1h-1V25z"/>
	<path fill="#D9D9D9" d="M54,25h1v1h-1V25z"/>
	<path fill="#D9D9D9" d="M74,25h1v1h-1V25z"/>
	<path fill="#D9D9D9" d="M86,25h1v1h-1V25z"/>
	<path fill="#D9D9D9" d="M106,25h1v1h-1V25z"/>
	<path fill="#D9D9D9" d="M118,25h1v1h-1V25z"/>
	<path fill="#D9D9D9" d="M138,25h1v1h-1V25z"/>
	<path fill="#D9D9D9" d="M9,26h1v1H9V26z"/>
	<path fill="#D9D9D9" d="M21,26h1v1h-1V26z"/>
	<path fill="#D9D9D9" d="M41,26h1v1h-1V26z"/>
	<path fill="#D9D9D9" d="M53,26h1v1h-1V26z"/>
	<path fill="#D9D9D9" d="M73,26h1v1h-1V26z"/>
	<path fill="#D9D9D9" d="M85,26h1v1h-1V26z"/>
	<path fill="#D9D9D9" d="M105,26h1v1h-1V26z"/>
	<path fill="#D9D9D9" d="M117,26h1v1h-1V26z"/>
	<path fill="#D9D9D9" d="M137,26h1v1h-1V26z"/>
	<path fill="#D9D9D9" d="M8,27h1v1H8V27z"/>
	<path fill="#D9D9D9" d="M20,27h1v1h-1V27z"/>
	<path fill="#D9D9D9" d="M40,27h1v1h-1V27z"/>
	<path fill="#D9D9D9" d="M52,27h1v1h-1V27z"/>
	<path fill="#D9D9D9" d="M72,27h1v1h-1V27z"/>
	<path fill="#D9D9D9" d="M84,27h1v1h-1V27z"/>
	<path fill="#D9D9D9" d="M104,27h1v1h-1V27z"/>
	<path fill="#D9D9D9" d="M116,27h1v1h-1V27z"/>
	<path fill="#D9D9D9" d="M136,27h1v1h-1V27z"/>
	<path fill="#D9D9D9" d="M7,28h1v1H7V28z"/>
	<path fill="#D9D9D9" d="M19,28h1v1h-1V28z"/>
	<path fill="#D9D9D9" d="M39,28h1v1h-1V28z"/>
	<path fill="#D9D9D9" d="M51,28h1v1h-1V28z"/>
	<path fill="#D9D9D9" d="M71,28h1v1h-1V28z"/>
	<path fill="#D9D9D9" d="M83,28h1v1h-1V28z"/>
	<path fill="#D9D9D9" d="M103,28h1v1h-1V28z"/>
	<path fill="#D9D9D9" d="M115,28h1v1h-1V28z"/>
	<path fill="#D9D9D9" d="M135,28h1v1h-1V28z"/>
	<path fill="#D9D9D9" d="M6,29h1v1H6V29z"/>
	<path fill="#D9D9D9" d="M18,29h1v1h-1V29z"/>
	<path fill="#D9D9D9" d="M38,29h1v1h-1V29z"/>
	<path fill="#D9D9D9" d="M50,29h1v1h-1V29z"/>
	<path fill="#D9D9D9" d="M70,29h1v1h-1V29z"/>
	<path fill="#D9D9D9" d="M82,29h1v1h-1V29z"/>
	<path fill="#D9D9D9" d="M102,29h1v1h-1V29z"/>
	<path fill="#D9D9D9" d="M114,29h1v1h-1V29z"/>
	<path fill="#D9D9D9" d="M134,29h1v1h-1V29z"/>
	<path fill="#D9D9D9" d="M5,30h1v1H5V30z"/>
	<path fill="#D9D9D9" d="M17,30h1v1h-1V30z"/>
	<path fill="#D9D9D9" d="M37,30h1v1h-1V30z"/>
	<path fill="#D9D9D9" d="M49,30h1v1h-1V30z"/>
	<path fill="#D9D9D9" d="M69,30h1v1h-1V30z"/>
	<path fill="#D9D9D9" d="M81,30h1v1h-1V30z"/>
	<path fill="#D9D9D9" d="M101,30h1v1h-1V30z"/>
	<path fill="#D9D9D9" d="M113,30h1v1h-1V30z"/>
	<path fill="#D9D9D9" d="M133,30h1v1h-1V30z"/>
	<path fill="#D9D9D9" d="M4,31h1v1H4V31z"/>
	<path fill="#D9D9D9" d="M16,31h1v1h-1V31z"/>
	<path fill="#D9D9D9" d="M36,31h1v1h-1V31z"/>
	<path fill="#D9D9D9" d="M48,31h1v1h-1V31z"/>
	<path fill="#D9D9D9" d="M68,31h1v1h-1V31z"/>
	<path fill="#D9D9D9" d="M80,31h1v1h-1V31z"/>
	<path fill="#D9D9D9" d="M100,31h1v1h-1V31z"/>
	<path fill="#D9D9D9" d="M112,31h1v1h-1V31z"/>
	<path fill="#D9D9D9" d="M132,31h1v1h-1V31z"/>
	<path fill="#D9D9D9" d="M3,32h1v1H3V32z"/>
	<path fill="#D9D9D9" d="M15,32h1v1h-1V32z"/>
	<path fill="#D9D9D9" d="M35,32h1v1h-1V32z"/>
	<path fill="#D9D9D9" d="M47,32h1v1h-1V32z"/>
	<path fill="#D9D9D9" d="M67,32h1v1h-1V32z"/>
	<path fill="#D9D9D9" d="M79,32h1v1h-1V32z"/>
	<path fill="#D9D9D9" d="M99,32h1v1h-1V32z"/>
	<path fill="#D9D9D9" d="M111,32h1v1h-1V32z"/>
	<path fill="#D9D9D9" d="M131,32h1v1h-1V32z"/>
	<path fill="#D9D9D9" d="M143,32h1v1h-1V32z"/>
	<path fill="#D9D9D9" d="M2,33h1v1H2V33z"/>
	<path fill="#D9D9D9" d="M14,33h1v1h-1V33z"/>
	<path fill="#D9D9D9" d="M34,33h1v1h-1V33z"/>
	<path fill="#D9D9D9" d="M46,33h1v1h-1V33z"/>
	<path fill="#D9D9D9" d="M66,33h1v1h-1V33z"/>
	<path fill="#D9D9D9" d="M78,33h1v1h-1V33z"/>
	<path fill="#D9D9D9" d="M98,33h1v1h-1V33z"/>
	<path fill="#D9D9D9" d="M110,33h1v1h-1V33z"/>
	<path fill="#D9D9D9" d="M130,33h1v1h-1V33z"/>
	<path fill="#D9D9D9" d="M142,33h1v1h-1V33z"/>
	<path fill="#C6C6C6" d="M143,33h1v3h-1v1h-1v1h-1v1h-1v1h-1v1h-1v1h-1v1h-1v1h-1v1h-1v1h-1v1h-1v1h-3v-1h1v-1h1v-1h1v-1h1v-1h1v-1
		h1v-1h1v-1h1v-1h1v-1h1v-1h1v-1h1v-1h1v-1h1V33z"/>
	<path fill="#D9D9D9" d="M1,34h1v1H1V34z"/>
	<path fill="#D9D9D9" d="M13,34h1v1h-1V34z"/>
	<path fill="#D9D9D9" d="M33,34h1v1h-1V34z"/>
	<path fill="#D9D9D9" d="M45,34h1v1h-1V34z"/>
	<path fill="#D9D9D9" d="M65,34h1v1h-1V34z"/>
	<path fill="#D9D9D9" d="M77,34h1v1h-1V34z"/>
	<path fill="#D9D9D9" d="M97,34h1v1h-1V34z"/>
	<path fill="#D9D9D9" d="M109,34h1v1h-1V34z"/>
	<path fill="#D9D9D9" d="M129,34h1v1h-1V34z"/>
	<path fill="#D9D9D9" d="M141,34h1v1h-1V34z"/>
	<path fill="#D9D9D9" d="M0,35h1v1H0V35z"/>
	<path fill="#D9D9D9" d="M12,35h1v1h-1V35z"/>
	<path fill="#D9D9D9" d="M32,35h1v1h-1V35z"/>
	<path fill="#D9D9D9" d="M44,35h1v1h-1V35z"/>
	<path fill="#D9D9D9" d="M64,35h1v1h-1V35z"/>
	<path fill="#D9D9D9" d="M76,35h1v1h-1V35z"/>
	<path fill="#D9D9D9" d="M96,35h1v1h-1V35z"/>
	<path fill="#D9D9D9" d="M108,35h1v1h-1V35z"/>
	<path fill="#D9D9D9" d="M128,35h1v1h-1V35z"/>
	<path fill="#D9D9D9" d="M140,35h1v1h-1V35z"/>
	<path fill="#D9D9D9" d="M11,36h1v1h-1V36z"/>
	<path fill="#D9D9D9" d="M31,36h1v1h-1V36z"/>
	<path fill="#D9D9D9" d="M43,36h1v1h-1V36z"/>
	<path fill="#D9D9D9" d="M63,36h1v1h-1V36z"/>
	<path fill="#D9D9D9" d="M75,36h1v1h-1V36z"/>
	<path fill="#D9D9D9" d="M95,36h1v1h-1V36z"/>
	<path fill="#D9D9D9" d="M107,36h1v1h-1V36z"/>
	<path fill="#D9D9D9" d="M127,36h1v1h-1V36z"/>
	<path fill="#D9D9D9" d="M139,36h1v1h-1V36z"/>
	<path fill="#D9D9D9" d="M143,36h1v3h-1v1h-1v1h-1v1h-1v1h-1v1h-1v1h-1v1h-1v1h-1v1h-3v-1h1v-1h1v-1h1v-1h1v-1h1v-1h1v-1h1v-1h1v-1
		h1v-1h1v-1h1V36z"/>
	<path fill="#D9D9D9" d="M10,37h1v1h-1V37z"/>
	<path fill="#D9D9D9" d="M30,37h1v1h-1V37z"/>
	<path fill="#D9D9D9" d="M42,37h1v1h-1V37z"/>
	<path fill="#D9D9D9" d="M62,37h1v1h-1V37z"/>
	<path fill="#D9D9D9" d="M74,37h1v1h-1V37z"/>
	<path fill="#D9D9D9" d="M94,37h1v1h-1V37z"/>
	<path fill="#D9D9D9" d="M106,37h1v1h-1V37z"/>
	<path fill="#D9D9D9" d="M126,37h1v1h-1V37z"/>
	<path fill="#D9D9D9" d="M138,37h1v1h-1V37z"/>
	<path fill="#D9D9D9" d="M9,38h1v1H9V38z"/>
	<path fill="#D9D9D9" d="M29,38h1v1h-1V38z"/>
	<path fill="#D9D9D9" d="M41,38h1v1h-1V38z"/>
	<path fill="#D9D9D9" d="M61,38h1v1h-1V38z"/>
	<path fill="#D9D9D9" d="M73,38h1v1h-1V38z"/>
	<path fill="#D9D9D9" d="M93,38h1v1h-1V38z"/>
	<path fill="#D9D9D9" d="M105,38h1v1h-1V38z"/>
	<path fill="#D9D9D9" d="M125,38h1v1h-1V38z"/>
	<path fill="#D9D9D9" d="M137,38h1v1h-1V38z"/>
	<path fill="#D9D9D9" d="M8,39h1v1H8V39z"/>
	<path fill="#D9D9D9" d="M28,39h1v1h-1V39z"/>
	<path fill="#D9D9D9" d="M40,39h1v1h-1V39z"/>
	<path fill="#D9D9D9" d="M60,39h1v1h-1V39z"/>
	<path fill="#D9D9D9" d="M72,39h1v1h-1V39z"/>
	<path fill="#D9D9D9" d="M92,39h1v1h-1V39z"/>
	<path fill="#D9D9D9" d="M104,39h1v1h-1V39z"/>
	<path fill="#D9D9D9" d="M124,39h1v1h-1V39z"/>
	<path fill="#D9D9D9" d="M136,39h1v1h-1V39z"/>
	<path fill="#C6C6C6" d="M143,39h1v9h-9v-1h1v-1h1v-1h1v-1h1v-1h1v-1h1v-1h1v-1h1V39z"/>
	<path fill="#D9D9D9" d="M7,40h1v1H7V40z"/>
	<path fill="#D9D9D9" d="M27,40h1v1h-1V40z"/>
	<path fill="#D9D9D9" d="M39,40h1v1h-1V40z"/>
	<path fill="#D9D9D9" d="M59,40h1v1h-1V40z"/>
	<path fill="#D9D9D9" d="M71,40h1v1h-1V40z"/>
	<path fill="#D9D9D9" d="M91,40h1v1h-1V40z"/>
	<path fill="#D9D9D9" d="M103,40h1v1h-1V40z"/>
	<path fill="#D9D9D9" d="M123,40h1v1h-1V40z"/>
	<path fill="#D9D9D9" d="M135,40h1v1h-1V40z"/>
	<path fill="#D9D9D9" d="M6,41h1v1H6V41z"/>
	<path fill="#D9D9D9" d="M26,41h1v1h-1V41z"/>
	<path fill="#D9D9D9" d="M38,41h1v1h-1V41z"/>
	<path fill="#D9D9D9" d="M58,41h1v1h-1V41z"/>
	<path fill="#D9D9D9" d="M70,41h1v1h-1V41z"/>
	<path fill="#D9D9D9" d="M90,41h1v1h-1V41z"/>
	<path fill="#D9D9D9" d="M102,41h1v1h-1V41z"/>
	<path fill="#D9D9D9" d="M122,41h1v1h-1V41z"/>
	<path fill="#D9D9D9" d="M134,41h1v1h-1V41z"/>
	<path fill="#D9D9D9" d="M5,42h1v1H5V42z"/>
	<path fill="#D9D9D9" d="M25,42h1v1h-1V42z"/>
	<path fill="#D9D9D9" d="M37,42h1v1h-1V42z"/>
	<path fill="#D9D9D9" d="M57,42h1v1h-1V42z"/>
	<path fill="#D9D9D9" d="M69,42h1v1h-1V42z"/>
	<path fill="#D9D9D9" d="M89,42h1v1h-1V42z"/>
	<path fill="#D9D9D9" d="M101,42h1v1h-1V42z"/>
	<path fill="#D9D9D9" d="M121,42h1v1h-1V42z"/>
	<path fill="#D9D9D9" d="M133,42h1v1h-1V42z"/>
	<path fill="#D9D9D9" d="M4,43h1v1H4V43z"/>
	<path fill="#D9D9D9" d="M24,43h1v1h-1V43z"/>
	<path fill="#D9D9D9" d="M36,43h1v1h-1V43z"/>
	<path fill="#D9D9D9" d="M56,43h1v1h-1V43z"/>
	<path fill="#D9D9D9" d="M68,43h1v1h-1V43z"/>
	<path fill="#D9D9D9" d="M88,43h1v1h-1V43z"/>
	<path fill="#D9D9D9" d="M100,43h1v1h-1V43z"/>
	<path fill="#D9D9D9" d="M120,43h1v1h-1V43z"/>
	<path fill="#D9D9D9" d="M132,43h1v1h-1V43z"/>
	<path fill="#D9D9D9" d="M3,44h1v1H3V44z"/>
	<path fill="#D9D9D9" d="M23,44h1v1h-1V44z"/>
	<path fill="#D9D9D9" d="M35,44h1v1h-1V44z"/>
	<path fill="#D9D9D9" d="M55,44h1v1h-1V44z"/>
	<path fill="#D9D9D9" d="M67,44h1v1h-1V44z"/>
	<path fill="#D9D9D9" d="M87,44h1v1h-1V44z"/>
	<path fill="#D9D9D9" d="M99,44h1v1h-1V44z"/>
	<path fill="#D9D9D9" d="M119,44h1v1h-1V44z"/>
	<path fill="#D9D9D9" d="M131,44h1v1h-1V44z"/>
	<path fill="#D9D9D9" d="M2,45h1v1H2V45z"/>
	<path fill="#D9D9D9" d="M22,45h1v1h-1V45z"/>
	<path fill="#D9D9D9" d="M34,45h1v1h-1V45z"/>
	<path fill="#D9D9D9" d="M54,45h1v1h-1V45z"/>
	<path fill="#D9D9D9" d="M66,45h1v1h-1V45z"/>
	<path fill="#D9D9D9" d="M86,45h1v1h-1V45z"/>
	<path fill="#D9D9D9" d="M98,45h1v1h-1V45z"/>
	<path fill="#D9D9D9" d="M118,45h1v1h-1V45z"/>
	<path fill="#D9D9D9" d="M130,45h1v1h-1V45z"/>
	<path fill="#D9D9D9" d="M1,46h1v1H1V46z"/>
	<path fill="#D9D9D9" d="M21,46h1v1h-1V46z"/>
	<path fill="#D9D9D9" d="M33,46h1v1h-1V46z"/>
	<path fill="#D9D9D9" d="M53,46h1v1h-1V46z"/>
	<path fill="#D9D9D9" d="M65,46h1v1h-1V46z"/>
	<path fill="#D9D9D9" d="M85,46h1v1h-1V46z"/>
	<path fill="#D9D9D9" d="M97,46h1v1h-1V46z"/>
	<path fill="#D9D9D9" d="M117,46h1v1h-1V46z"/>
	<path fill="#D9D9D9" d="M129,46h1v1h-1V46z"/>
	<path fill="#D9D9D9" d="M0,47h1v1H0V47z"/>
	<path fill="#D9D9D9" d="M20,47h1v1h-1V47z"/>
	<path fill="#D9D9D9" d="M32,47h1v1h-1V47z"/>
	<path fill="#D9D9D9" d="M52,47h1v1h-1V47z"/>
	<path fill="#D9D9D9" d="M64,47h1v1h-1V47z"/>
	<path fill="#D9D9D9" d="M84,47h1v1h-1V47z"/>
	<path fill="#D9D9D9" d="M96,47h1v1h-1V47z"/>
	<path fill="#D9D9D9" d="M116,47h1v1h-1V47z"/>
	<path fill="#D9D9D9" d="M128,47h1v1h-1V47z"/>
</g>
</svg>
