<?xml version="1.0" encoding="utf-8"?>
<!-- Generator: Adobe Illustrator 16.0.4, SVG Export Plug-In . SVG Version: 6.00 Build 0)  -->
<!DOCTYPE svg PUBLIC "-//W3C//DTD SVG 1.1//EN" "http://www.w3.org/Graphics/SVG/1.1/DTD/svg11.dtd">
<svg version="1.1" id="Layer_1" xmlns="http://www.w3.org/2000/svg" xmlns:xlink="http://www.w3.org/1999/xlink" x="0px" y="0px"
	 width="144px" height="64px" viewBox="0 0 144 64" enable-background="new 0 0 144 64" xml:space="preserve">
<path d="M0,0h144v32H0V0z"/>
<path fill="#828282" d="M0,32h144v1H0V32z"/>
<path fill="#EEEEEE" d="M0,33h144v3H0V33z"/>
<path fill="#FFFFFF" d="M0,36h144v1H0V36z"/>
<path fill="#A0A0A0" d="M0,37h144v1H0V37z"/>
<g opacity="0.6">
	<path fill="#C6C6C6" d="M0,38h13v1h-1v1h-1v1h-1v1H9v1H8v1H7v1H6v1H5v1H4v1H3v1H2v1H1v1H0V38z"/>
	<path fill="#D9D9D9" d="M13,38h1v1h-1V38z"/>
	<path fill="#C6C6C6" d="M14,38h11v1h-1v1h-1v1h-1v1h-1v1h-1v1h-1v1h-1v1h-1v1h-1v1h-1v1h-1v1h-1v1h-1v1h-1v1h-1v1H9v1H8v1H7v1H6v1
		H5v1H4v1H3v1H2v1H1v1H0V52h1v-1h1v-1h1v-1h1v-1h1v-1h1v-1h1v-1h1v-1h1v-1h1v-1h1v-1h1v-1h1v-1h1V38z"/>
	<path fill="#D9D9D9" d="M25,38h1v1h-1V38z"/>
	<path fill="#C6C6C6" d="M26,38h3v1h-1v1h-1v1h-1v1h-1v1h-1v1h-1v1h-1v1h-1v1h-1v1h-1v1h-1v1h-1v1h-1v1h-1v1h-1v1h-1v1h-1v1h-1v1h-1
		v1H9v1H8v1H7v1H6v1H5v1H4v1H1v-1h1v-1h1v-1h1v-1h1v-1h1v-1h1v-1h1v-1h1v-1h1v-1h1v-1h1v-1h1v-1h1v-1h1v-1h1v-1h1v-1h1v-1h1v-1h1v-1
		h1v-1h1v-1h1v-1h1v-1h1v-1h1V38z"/>
	<path fill="#D9D9D9" d="M29,38h3v1h-1v1h-1v1h-1v1h-1v1h-1v1h-1v1h-1v1h-1v1h-1v1h-1v1h-1v1h-1v1h-1v1h-1v1h-1v1h-1v1h-1v1h-1v1h-1
		v1h-1v1h-1v1h-1v1H9v1H8v1H7v1H4v-1h1v-1h1v-1h1v-1h1v-1h1v-1h1v-1h1v-1h1v-1h1v-1h1v-1h1v-1h1v-1h1v-1h1v-1h1v-1h1v-1h1v-1h1v-1h1
		v-1h1v-1h1v-1h1v-1h1v-1h1v-1h1V38z"/>
	<path fill="#C6C6C6" d="M32,38h13v1h-1v1h-1v1h-1v1h-1v1h-1v1h-1v1h-1v1h-1v1h-1v1h-1v1h-1v1h-1v1h-1v1h-1v1h-1v1h-1v1h-1v1h-1v1
		h-1v1h-1v1h-1v1h-1v1h-1v1h-1v1h-1v1H7v-1h1v-1h1v-1h1v-1h1v-1h1v-1h1v-1h1v-1h1v-1h1v-1h1v-1h1v-1h1v-1h1v-1h1v-1h1v-1h1v-1h1v-1
		h1v-1h1v-1h1v-1h1v-1h1v-1h1v-1h1v-1h1V38z"/>
	<path fill="#D9D9D9" d="M45,38h1v1h-1V38z"/>
	<path fill="#C6C6C6" d="M46,38h11v1h-1v1h-1v1h-1v1h-1v1h-1v1h-1v1h-1v1h-1v1h-1v1h-1v1h-1v1h-1v1h-1v1h-1v1h-1v1h-1v1h-1v1h-1v1
		h-1v1h-1v1h-1v1h-1v1h-1v1h-1v1h-1v1H21v-1h1v-1h1v-1h1v-1h1v-1h1v-1h1v-1h1v-1h1v-1h1v-1h1v-1h1v-1h1v-1h1v-1h1v-1h1v-1h1v-1h1v-1
		h1v-1h1v-1h1v-1h1v-1h1v-1h1v-1h1v-1h1V38z"/>
	<path fill="#D9D9D9" d="M57,38h1v1h-1V38z"/>
	<path fill="#C6C6C6" d="M58,38h3v1h-1v1h-1v1h-1v1h-1v1h-1v1h-1v1h-1v1h-1v1h-1v1h-1v1h-1v1h-1v1h-1v1h-1v1h-1v1h-1v1h-1v1h-1v1h-1
		v1h-1v1h-1v1h-1v1h-1v1h-1v1h-1v1h-3v-1h1v-1h1v-1h1v-1h1v-1h1v-1h1v-1h1v-1h1v-1h1v-1h1v-1h1v-1h1v-1h1v-1h1v-1h1v-1h1v-1h1v-1h1
		v-1h1v-1h1v-1h1v-1h1v-1h1v-1h1v-1h1V38z"/>
	<path fill="#D9D9D9" d="M61,38h3v1h-1v1h-1v1h-1v1h-1v1h-1v1h-1v1h-1v1h-1v1h-1v1h-1v1h-1v1h-1v1h-1v1h-1v1h-1v1h-1v1h-1v1h-1v1h-1
		v1h-1v1h-1v1h-1v1h-1v1h-1v1h-1v1h-3v-1h1v-1h1v-1h1v-1h1v-1h1v-1h1v-1h1v-1h1v-1h1v-1h1v-1h1v-1h1v-1h1v-1h1v-1h1v-1h1v-1h1v-1h1
		v-1h1v-1h1v-1h1v-1h1v-1h1v-1h1v-1h1V38z"/>
	<path fill="#C6C6C6" d="M64,38h13v1h-1v1h-1v1h-1v1h-1v1h-1v1h-1v1h-1v1h-1v1h-1v1h-1v1h-1v1h-1v1h-1v1h-1v1h-1v1h-1v1h-1v1h-1v1
		h-1v1h-1v1h-1v1h-1v1h-1v1h-1v1h-1v1H39v-1h1v-1h1v-1h1v-1h1v-1h1v-1h1v-1h1v-1h1v-1h1v-1h1v-1h1v-1h1v-1h1v-1h1v-1h1v-1h1v-1h1v-1
		h1v-1h1v-1h1v-1h1v-1h1v-1h1v-1h1v-1h1V38z"/>
	<path fill="#D9D9D9" d="M77,38h1v1h-1V38z"/>
	<path fill="#C6C6C6" d="M78,38h11v1h-1v1h-1v1h-1v1h-1v1h-1v1h-1v1h-1v1h-1v1h-1v1h-1v1h-1v1h-1v1h-1v1h-1v1h-1v1h-1v1h-1v1h-1v1
		h-1v1h-1v1h-1v1h-1v1h-1v1h-1v1h-1v1H53v-1h1v-1h1v-1h1v-1h1v-1h1v-1h1v-1h1v-1h1v-1h1v-1h1v-1h1v-1h1v-1h1v-1h1v-1h1v-1h1v-1h1v-1
		h1v-1h1v-1h1v-1h1v-1h1v-1h1v-1h1v-1h1V38z"/>
	<path fill="#D9D9D9" d="M89,38h1v1h-1V38z"/>
	<path fill="#C6C6C6" d="M90,38h3v1h-1v1h-1v1h-1v1h-1v1h-1v1h-1v1h-1v1h-1v1h-1v1h-1v1h-1v1h-1v1h-1v1h-1v1h-1v1h-1v1h-1v1h-1v1h-1
		v1h-1v1h-1v1h-1v1h-1v1h-1v1h-1v1h-3v-1h1v-1h1v-1h1v-1h1v-1h1v-1h1v-1h1v-1h1v-1h1v-1h1v-1h1v-1h1v-1h1v-1h1v-1h1v-1h1v-1h1v-1h1
		v-1h1v-1h1v-1h1v-1h1v-1h1v-1h1v-1h1V38z"/>
	<path fill="#D9D9D9" d="M93,38h3v1h-1v1h-1v1h-1v1h-1v1h-1v1h-1v1h-1v1h-1v1h-1v1h-1v1h-1v1h-1v1h-1v1h-1v1h-1v1h-1v1h-1v1h-1v1h-1
		v1h-1v1h-1v1h-1v1h-1v1h-1v1h-1v1h-3v-1h1v-1h1v-1h1v-1h1v-1h1v-1h1v-1h1v-1h1v-1h1v-1h1v-1h1v-1h1v-1h1v-1h1v-1h1v-1h1v-1h1v-1h1
		v-1h1v-1h1v-1h1v-1h1v-1h1v-1h1v-1h1V38z"/>
	<path fill="#C6C6C6" d="M96,38h13v1h-1v1h-1v1h-1v1h-1v1h-1v1h-1v1h-1v1h-1v1h-1v1h-1v1h-1v1h-1v1h-1v1h-1v1h-1v1h-1v1h-1v1h-1v1
		h-1v1h-1v1h-1v1h-1v1h-1v1h-1v1h-1v1H71v-1h1v-1h1v-1h1v-1h1v-1h1v-1h1v-1h1v-1h1v-1h1v-1h1v-1h1v-1h1v-1h1v-1h1v-1h1v-1h1v-1h1v-1
		h1v-1h1v-1h1v-1h1v-1h1v-1h1v-1h1v-1h1V38z"/>
	<path fill="#D9D9D9" d="M109,38h1v1h-1V38z"/>
	<path fill="#C6C6C6" d="M110,38h11v1h-1v1h-1v1h-1v1h-1v1h-1v1h-1v1h-1v1h-1v1h-1v1h-1v1h-1v1h-1v1h-1v1h-1v1h-1v1h-1v1h-1v1h-1v1
		h-1v1h-1v1h-1v1h-1v1h-1v1h-1v1h-1v1H85v-1h1v-1h1v-1h1v-1h1v-1h1v-1h1v-1h1v-1h1v-1h1v-1h1v-1h1v-1h1v-1h1v-1h1v-1h1v-1h1v-1h1v-1
		h1v-1h1v-1h1v-1h1v-1h1v-1h1v-1h1v-1h1V38z"/>
	<path fill="#D9D9D9" d="M121,38h1v1h-1V38z"/>
	<path fill="#C6C6C6" d="M122,38h3v1h-1v1h-1v1h-1v1h-1v1h-1v1h-1v1h-1v1h-1v1h-1v1h-1v1h-1v1h-1v1h-1v1h-1v1h-1v1h-1v1h-1v1h-1v1
		h-1v1h-1v1h-1v1h-1v1h-1v1h-1v1h-1v1h-3v-1h1v-1h1v-1h1v-1h1v-1h1v-1h1v-1h1v-1h1v-1h1v-1h1v-1h1v-1h1v-1h1v-1h1v-1h1v-1h1v-1h1v-1
		h1v-1h1v-1h1v-1h1v-1h1v-1h1v-1h1v-1h1V38z"/>
	<path fill="#D9D9D9" d="M125,38h3v1h-1v1h-1v1h-1v1h-1v1h-1v1h-1v1h-1v1h-1v1h-1v1h-1v1h-1v1h-1v1h-1v1h-1v1h-1v1h-1v1h-1v1h-1v1
		h-1v1h-1v1h-1v1h-1v1h-1v1h-1v1h-1v1h-3v-1h1v-1h1v-1h1v-1h1v-1h1v-1h1v-1h1v-1h1v-1h1v-1h1v-1h1v-1h1v-1h1v-1h1v-1h1v-1h1v-1h1v-1
		h1v-1h1v-1h1v-1h1v-1h1v-1h1v-1h1v-1h1V38z"/>
	<path fill="#C6C6C6" d="M128,38h13v1h-1v1h-1v1h-1v1h-1v1h-1v1h-1v1h-1v1h-1v1h-1v1h-1v1h-1v1h-1v1h-1v1h-1v1h-1v1h-1v1h-1v1h-1v1
		h-1v1h-1v1h-1v1h-1v1h-1v1h-1v1h-1v1h-13v-1h1v-1h1v-1h1v-1h1v-1h1v-1h1v-1h1v-1h1v-1h1v-1h1v-1h1v-1h1v-1h1v-1h1v-1h1v-1h1v-1h1
		v-1h1v-1h1v-1h1v-1h1v-1h1v-1h1v-1h1v-1h1V38z"/>
	<path fill="#D9D9D9" d="M141,38h1v1h-1V38z"/>
	<path fill="#C6C6C6" d="M142,38h2v10h-1v1h-1v1h-1v1h-1v1h-1v1h-1v1h-1v1h-1v1h-1v1h-1v1h-1v1h-1v1h-1v1h-1v1h-1v1h-1v1h-11v-1h1
		v-1h1v-1h1v-1h1v-1h1v-1h1v-1h1v-1h1v-1h1v-1h1v-1h1v-1h1v-1h1v-1h1v-1h1v-1h1v-1h1v-1h1v-1h1v-1h1v-1h1v-1h1v-1h1v-1h1v-1h1V38z"
		/>
	<path fill="#D9D9D9" d="M12,39h1v1h-1V39z"/>
	<path fill="#D9D9D9" d="M24,39h1v1h-1V39z"/>
	<path fill="#D9D9D9" d="M44,39h1v1h-1V39z"/>
	<path fill="#D9D9D9" d="M56,39h1v1h-1V39z"/>
	<path fill="#D9D9D9" d="M76,39h1v1h-1V39z"/>
	<path fill="#D9D9D9" d="M88,39h1v1h-1V39z"/>
	<path fill="#D9D9D9" d="M108,39h1v1h-1V39z"/>
	<path fill="#D9D9D9" d="M120,39h1v1h-1V39z"/>
	<path fill="#D9D9D9" d="M140,39h1v1h-1V39z"/>
	<path fill="#D9D9D9" d="M11,40h1v1h-1V40z"/>
	<path fill="#D9D9D9" d="M23,40h1v1h-1V40z"/>
	<path fill="#D9D9D9" d="M43,40h1v1h-1V40z"/>
	<path fill="#D9D9D9" d="M55,40h1v1h-1V40z"/>
	<path fill="#D9D9D9" d="M75,40h1v1h-1V40z"/>
	<path fill="#D9D9D9" d="M87,40h1v1h-1V40z"/>
	<path fill="#D9D9D9" d="M107,40h1v1h-1V40z"/>
	<path fill="#D9D9D9" d="M119,40h1v1h-1V40z"/>
	<path fill="#D9D9D9" d="M139,40h1v1h-1V40z"/>
	<path fill="#D9D9D9" d="M10,41h1v1h-1V41z"/>
	<path fill="#D9D9D9" d="M22,41h1v1h-1V41z"/>
	<path fill="#D9D9D9" d="M42,41h1v1h-1V41z"/>
	<path fill="#D9D9D9" d="M54,41h1v1h-1V41z"/>
	<path fill="#D9D9D9" d="M74,41h1v1h-1V41z"/>
	<path fill="#D9D9D9" d="M86,41h1v1h-1V41z"/>
	<path fill="#D9D9D9" d="M106,41h1v1h-1V41z"/>
	<path fill="#D9D9D9" d="M118,41h1v1h-1V41z"/>
	<path fill="#D9D9D9" d="M138,41h1v1h-1V41z"/>
	<path fill="#D9D9D9" d="M9,42h1v1H9V42z"/>
	<path fill="#D9D9D9" d="M21,42h1v1h-1V42z"/>
	<path fill="#D9D9D9" d="M41,42h1v1h-1V42z"/>
	<path fill="#D9D9D9" d="M53,42h1v1h-1V42z"/>
	<path fill="#D9D9D9" d="M73,42h1v1h-1V42z"/>
	<path fill="#D9D9D9" d="M85,42h1v1h-1V42z"/>
	<path fill="#D9D9D9" d="M105,42h1v1h-1V42z"/>
	<path fill="#D9D9D9" d="M117,42h1v1h-1V42z"/>
	<path fill="#D9D9D9" d="M137,42h1v1h-1V42z"/>
	<path fill="#D9D9D9" d="M8,43h1v1H8V43z"/>
	<path fill="#D9D9D9" d="M20,43h1v1h-1V43z"/>
	<path fill="#D9D9D9" d="M40,43h1v1h-1V43z"/>
	<path fill="#D9D9D9" d="M52,43h1v1h-1V43z"/>
	<path fill="#D9D9D9" d="M72,43h1v1h-1V43z"/>
	<path fill="#D9D9D9" d="M84,43h1v1h-1V43z"/>
	<path fill="#D9D9D9" d="M104,43h1v1h-1V43z"/>
	<path fill="#D9D9D9" d="M116,43h1v1h-1V43z"/>
	<path fill="#D9D9D9" d="M136,43h1v1h-1V43z"/>
	<path fill="#D9D9D9" d="M7,44h1v1H7V44z"/>
	<path fill="#D9D9D9" d="M19,44h1v1h-1V44z"/>
	<path fill="#D9D9D9" d="M39,44h1v1h-1V44z"/>
	<path fill="#D9D9D9" d="M51,44h1v1h-1V44z"/>
	<path fill="#D9D9D9" d="M71,44h1v1h-1V44z"/>
	<path fill="#D9D9D9" d="M83,44h1v1h-1V44z"/>
	<path fill="#D9D9D9" d="M103,44h1v1h-1V44z"/>
	<path fill="#D9D9D9" d="M115,44h1v1h-1V44z"/>
	<path fill="#D9D9D9" d="M135,44h1v1h-1V44z"/>
	<path fill="#D9D9D9" d="M6,45h1v1H6V45z"/>
	<path fill="#D9D9D9" d="M18,45h1v1h-1V45z"/>
	<path fill="#D9D9D9" d="M38,45h1v1h-1V45z"/>
	<path fill="#D9D9D9" d="M50,45h1v1h-1V45z"/>
	<path fill="#D9D9D9" d="M70,45h1v1h-1V45z"/>
	<path fill="#D9D9D9" d="M82,45h1v1h-1V45z"/>
	<path fill="#D9D9D9" d="M102,45h1v1h-1V45z"/>
	<path fill="#D9D9D9" d="M114,45h1v1h-1V45z"/>
	<path fill="#D9D9D9" d="M134,45h1v1h-1V45z"/>
	<path fill="#D9D9D9" d="M5,46h1v1H5V46z"/>
	<path fill="#D9D9D9" d="M17,46h1v1h-1V46z"/>
	<path fill="#D9D9D9" d="M37,46h1v1h-1V46z"/>
	<path fill="#D9D9D9" d="M49,46h1v1h-1V46z"/>
	<path fill="#D9D9D9" d="M69,46h1v1h-1V46z"/>
	<path fill="#D9D9D9" d="M81,46h1v1h-1V46z"/>
	<path fill="#D9D9D9" d="M101,46h1v1h-1V46z"/>
	<path fill="#D9D9D9" d="M113,46h1v1h-1V46z"/>
	<path fill="#D9D9D9" d="M133,46h1v1h-1V46z"/>
	<path fill="#D9D9D9" d="M4,47h1v1H4V47z"/>
	<path fill="#D9D9D9" d="M16,47h1v1h-1V47z"/>
	<path fill="#D9D9D9" d="M36,47h1v1h-1V47z"/>
	<path fill="#D9D9D9" d="M48,47h1v1h-1V47z"/>
	<path fill="#D9D9D9" d="M68,47h1v1h-1V47z"/>
	<path fill="#D9D9D9" d="M80,47h1v1h-1V47z"/>
	<path fill="#D9D9D9" d="M100,47h1v1h-1V47z"/>
	<path fill="#D9D9D9" d="M112,47h1v1h-1V47z"/>
	<path fill="#D9D9D9" d="M132,47h1v1h-1V47z"/>
	<path fill="#D9D9D9" d="M3,48h1v1H3V48z"/>
	<path fill="#D9D9D9" d="M15,48h1v1h-1V48z"/>
	<path fill="#D9D9D9" d="M35,48h1v1h-1V48z"/>
	<path fill="#D9D9D9" d="M47,48h1v1h-1V48z"/>
	<path fill="#D9D9D9" d="M67,48h1v1h-1V48z"/>
	<path fill="#D9D9D9" d="M79,48h1v1h-1V48z"/>
	<path fill="#D9D9D9" d="M99,48h1v1h-1V48z"/>
	<path fill="#D9D9D9" d="M111,48h1v1h-1V48z"/>
	<path fill="#D9D9D9" d="M131,48h1v1h-1V48z"/>
	<path fill="#D9D9D9" d="M143,48h1v1h-1V48z"/>
	<path fill="#D9D9D9" d="M2,49h1v1H2V49z"/>
	<path fill="#D9D9D9" d="M14,49h1v1h-1V49z"/>
	<path fill="#D9D9D9" d="M34,49h1v1h-1V49z"/>
	<path fill="#D9D9D9" d="M46,49h1v1h-1V49z"/>
	<path fill="#D9D9D9" d="M66,49h1v1h-1V49z"/>
	<path fill="#D9D9D9" d="M78,49h1v1h-1V49z"/>
	<path fill="#D9D9D9" d="M98,49h1v1h-1V49z"/>
	<path fill="#D9D9D9" d="M110,49h1v1h-1V49z"/>
	<path fill="#D9D9D9" d="M130,49h1v1h-1V49z"/>
	<path fill="#D9D9D9" d="M142,49h1v1h-1V49z"/>
	<path fill="#C6C6C6" d="M143,49h1v3h-1v1h-1v1h-1v1h-1v1h-1v1h-1v1h-1v1h-1v1h-1v1h-1v1h-1v1h-1v1h-3v-1h1v-1h1v-1h1v-1h1v-1h1v-1
		h1v-1h1v-1h1v-1h1v-1h1v-1h1v-1h1v-1h1v-1h1V49z"/>
	<path fill="#D9D9D9" d="M1,50h1v1H1V50z"/>
	<path fill="#D9D9D9" d="M13,50h1v1h-1V50z"/>
	<path fill="#D9D9D9" d="M33,50h1v1h-1V50z"/>
	<path fill="#D9D9D9" d="M45,50h1v1h-1V50z"/>
	<path fill="#D9D9D9" d="M65,50h1v1h-1V50z"/>
	<path fill="#D9D9D9" d="M77,50h1v1h-1V50z"/>
	<path fill="#D9D9D9" d="M97,50h1v1h-1V50z"/>
	<path fill="#D9D9D9" d="M109,50h1v1h-1V50z"/>
	<path fill="#D9D9D9" d="M129,50h1v1h-1V50z"/>
	<path fill="#D9D9D9" d="M141,50h1v1h-1V50z"/>
	<path fill="#D9D9D9" d="M0,51h1v1H0V51z"/>
	<path fill="#D9D9D9" d="M12,51h1v1h-1V51z"/>
	<path fill="#D9D9D9" d="M32,51h1v1h-1V51z"/>
	<path fill="#D9D9D9" d="M44,51h1v1h-1V51z"/>
	<path fill="#D9D9D9" d="M64,51h1v1h-1V51z"/>
	<path fill="#D9D9D9" d="M76,51h1v1h-1V51z"/>
	<path fill="#D9D9D9" d="M96,51h1v1h-1V51z"/>
	<path fill="#D9D9D9" d="M108,51h1v1h-1V51z"/>
	<path fill="#D9D9D9" d="M128,51h1v1h-1V51z"/>
	<path fill="#D9D9D9" d="M140,51h1v1h-1V51z"/>
	<path fill="#D9D9D9" d="M11,52h1v1h-1V52z"/>
	<path fill="#D9D9D9" d="M31,52h1v1h-1V52z"/>
	<path fill="#D9D9D9" d="M43,52h1v1h-1V52z"/>
	<path fill="#D9D9D9" d="M63,52h1v1h-1V52z"/>
	<path fill="#D9D9D9" d="M75,52h1v1h-1V52z"/>
	<path fill="#D9D9D9" d="M95,52h1v1h-1V52z"/>
	<path fill="#D9D9D9" d="M107,52h1v1h-1V52z"/>
	<path fill="#D9D9D9" d="M127,52h1v1h-1V52z"/>
	<path fill="#D9D9D9" d="M139,52h1v1h-1V52z"/>
	<path fill="#D9D9D9" d="M143,52h1v3h-1v1h-1v1h-1v1h-1v1h-1v1h-1v1h-1v1h-1v1h-1v1h-3v-1h1v-1h1v-1h1v-1h1v-1h1v-1h1v-1h1v-1h1v-1
		h1v-1h1v-1h1V52z"/>
	<path fill="#D9D9D9" d="M10,53h1v1h-1V53z"/>
	<path fill="#D9D9D9" d="M30,53h1v1h-1V53z"/>
	<path fill="#D9D9D9" d="M42,53h1v1h-1V53z"/>
	<path fill="#D9D9D9" d="M62,53h1v1h-1V53z"/>
	<path fill="#D9D9D9" d="M74,53h1v1h-1V53z"/>
	<path fill="#D9D9D9" d="M94,53h1v1h-1V53z"/>
	<path fill="#D9D9D9" d="M106,53h1v1h-1V53z"/>
	<path fill="#D9D9D9" d="M126,53h1v1h-1V53z"/>
	<path fill="#D9D9D9" d="M138,53h1v1h-1V53z"/>
	<path fill="#D9D9D9" d="M9,54h1v1H9V54z"/>
	<path fill="#D9D9D9" d="M29,54h1v1h-1V54z"/>
	<path fill="#D9D9D9" d="M41,54h1v1h-1V54z"/>
	<path fill="#D9D9D9" d="M61,54h1v1h-1V54z"/>
	<path fill="#D9D9D9" d="M73,54h1v1h-1V54z"/>
	<path fill="#D9D9D9" d="M93,54h1v1h-1V54z"/>
	<path fill="#D9D9D9" d="M105,54h1v1h-1V54z"/>
	<path fill="#D9D9D9" d="M125,54h1v1h-1V54z"/>
	<path fill="#D9D9D9" d="M137,54h1v1h-1V54z"/>
	<path fill="#D9D9D9" d="M8,55h1v1H8V55z"/>
	<path fill="#D9D9D9" d="M28,55h1v1h-1V55z"/>
	<path fill="#D9D9D9" d="M40,55h1v1h-1V55z"/>
	<path fill="#D9D9D9" d="M60,55h1v1h-1V55z"/>
	<path fill="#D9D9D9" d="M72,55h1v1h-1V55z"/>
	<path fill="#D9D9D9" d="M92,55h1v1h-1V55z"/>
	<path fill="#D9D9D9" d="M104,55h1v1h-1V55z"/>
	<path fill="#D9D9D9" d="M124,55h1v1h-1V55z"/>
	<path fill="#D9D9D9" d="M136,55h1v1h-1V55z"/>
	<path fill="#C6C6C6" d="M143,55h1v9h-9v-1h1v-1h1v-1h1v-1h1v-1h1v-1h1v-1h1v-1h1V55z"/>
	<path fill="#D9D9D9" d="M7,56h1v1H7V56z"/>
	<path fill="#D9D9D9" d="M27,56h1v1h-1V56z"/>
	<path fill="#D9D9D9" d="M39,56h1v1h-1V56z"/>
	<path fill="#D9D9D9" d="M59,56h1v1h-1V56z"/>
	<path fill="#D9D9D9" d="M71,56h1v1h-1V56z"/>
	<path fill="#D9D9D9" d="M91,56h1v1h-1V56z"/>
	<path fill="#D9D9D9" d="M103,56h1v1h-1V56z"/>
	<path fill="#D9D9D9" d="M123,56h1v1h-1V56z"/>
	<path fill="#D9D9D9" d="M135,56h1v1h-1V56z"/>
	<path fill="#D9D9D9" d="M6,57h1v1H6V57z"/>
	<path fill="#D9D9D9" d="M26,57h1v1h-1V57z"/>
	<path fill="#D9D9D9" d="M38,57h1v1h-1V57z"/>
	<path fill="#D9D9D9" d="M58,57h1v1h-1V57z"/>
	<path fill="#D9D9D9" d="M70,57h1v1h-1V57z"/>
	<path fill="#D9D9D9" d="M90,57h1v1h-1V57z"/>
	<path fill="#D9D9D9" d="M102,57h1v1h-1V57z"/>
	<path fill="#D9D9D9" d="M122,57h1v1h-1V57z"/>
	<path fill="#D9D9D9" d="M134,57h1v1h-1V57z"/>
	<path fill="#D9D9D9" d="M5,58h1v1H5V58z"/>
	<path fill="#D9D9D9" d="M25,58h1v1h-1V58z"/>
	<path fill="#D9D9D9" d="M37,58h1v1h-1V58z"/>
	<path fill="#D9D9D9" d="M57,58h1v1h-1V58z"/>
	<path fill="#D9D9D9" d="M69,58h1v1h-1V58z"/>
	<path fill="#D9D9D9" d="M89,58h1v1h-1V58z"/>
	<path fill="#D9D9D9" d="M101,58h1v1h-1V58z"/>
	<path fill="#D9D9D9" d="M121,58h1v1h-1V58z"/>
	<path fill="#D9D9D9" d="M133,58h1v1h-1V58z"/>
	<path fill="#D9D9D9" d="M4,59h1v1H4V59z"/>
	<path fill="#D9D9D9" d="M24,59h1v1h-1V59z"/>
	<path fill="#D9D9D9" d="M36,59h1v1h-1V59z"/>
	<path fill="#D9D9D9" d="M56,59h1v1h-1V59z"/>
	<path fill="#D9D9D9" d="M68,59h1v1h-1V59z"/>
	<path fill="#D9D9D9" d="M88,59h1v1h-1V59z"/>
	<path fill="#D9D9D9" d="M100,59h1v1h-1V59z"/>
	<path fill="#D9D9D9" d="M120,59h1v1h-1V59z"/>
	<path fill="#D9D9D9" d="M132,59h1v1h-1V59z"/>
	<path fill="#D9D9D9" d="M3,60h1v1H3V60z"/>
	<path fill="#D9D9D9" d="M23,60h1v1h-1V60z"/>
	<path fill="#D9D9D9" d="M35,60h1v1h-1V60z"/>
	<path fill="#D9D9D9" d="M55,60h1v1h-1V60z"/>
	<path fill="#D9D9D9" d="M67,60h1v1h-1V60z"/>
	<path fill="#D9D9D9" d="M87,60h1v1h-1V60z"/>
	<path fill="#D9D9D9" d="M99,60h1v1h-1V60z"/>
	<path fill="#D9D9D9" d="M119,60h1v1h-1V60z"/>
	<path fill="#D9D9D9" d="M131,60h1v1h-1V60z"/>
	<path fill="#D9D9D9" d="M2,61h1v1H2V61z"/>
	<path fill="#D9D9D9" d="M22,61h1v1h-1V61z"/>
	<path fill="#D9D9D9" d="M34,61h1v1h-1V61z"/>
	<path fill="#D9D9D9" d="M54,61h1v1h-1V61z"/>
	<path fill="#D9D9D9" d="M66,61h1v1h-1V61z"/>
	<path fill="#D9D9D9" d="M86,61h1v1h-1V61z"/>
	<path fill="#D9D9D9" d="M98,61h1v1h-1V61z"/>
	<path fill="#D9D9D9" d="M118,61h1v1h-1V61z"/>
	<path fill="#D9D9D9" d="M130,61h1v1h-1V61z"/>
	<path fill="#D9D9D9" d="M1,62h1v1H1V62z"/>
	<path fill="#D9D9D9" d="M21,62h1v1h-1V62z"/>
	<path fill="#D9D9D9" d="M33,62h1v1h-1V62z"/>
	<path fill="#D9D9D9" d="M53,62h1v1h-1V62z"/>
	<path fill="#D9D9D9" d="M65,62h1v1h-1V62z"/>
	<path fill="#D9D9D9" d="M85,62h1v1h-1V62z"/>
	<path fill="#D9D9D9" d="M97,62h1v1h-1V62z"/>
	<path fill="#D9D9D9" d="M117,62h1v1h-1V62z"/>
	<path fill="#D9D9D9" d="M129,62h1v1h-1V62z"/>
	<path fill="#D9D9D9" d="M0,63h1v1H0V63z"/>
	<path fill="#D9D9D9" d="M20,63h1v1h-1V63z"/>
	<path fill="#D9D9D9" d="M32,63h1v1h-1V63z"/>
	<path fill="#D9D9D9" d="M52,63h1v1h-1V63z"/>
	<path fill="#D9D9D9" d="M64,63h1v1h-1V63z"/>
	<path fill="#D9D9D9" d="M84,63h1v1h-1V63z"/>
	<path fill="#D9D9D9" d="M96,63h1v1h-1V63z"/>
	<path fill="#D9D9D9" d="M116,63h1v1h-1V63z"/>
	<path fill="#D9D9D9" d="M128,63h1v1h-1V63z"/>
</g>
</svg>
