<?xml version="1.0" encoding="utf-8"?>
<!-- Generator: Adobe Illustrator 16.0.4, SVG Export Plug-In . SVG Version: 6.00 Build 0)  -->
<!DOCTYPE svg PUBLIC "-//W3C//DTD SVG 1.1//EN" "http://www.w3.org/Graphics/SVG/1.1/DTD/svg11.dtd">
<svg version="1.1" id="Layer_1" xmlns="http://www.w3.org/2000/svg" xmlns:xlink="http://www.w3.org/1999/xlink" x="0px" y="0px"
	 width="32px" height="32px" viewBox="0 0 32 32" enable-background="new 0 0 32 32" xml:space="preserve">
<path fill="#1A1A1A" d="M5,7h22v16h-4v2h-1v-2H10v2H9v-2H5V7z"/>
<path fill="#8D8D8D" d="M6,8h20v1H6V8z"/>
<path fill="#303030" d="M6,9h20v13H6V9z"/>
<path fill="#373031" d="M0,18h5v1H1v10h30V19h-4v-1h5v12h-2v1h-1v-1h-2v1h-1v-1H6v1H5v-1H3v1H2v-1H0V18z"/>
<path fill="#847D7D" d="M1,19h4v4h1v1h1v1h2v1H1V19z"/>
<path fill="#847D7D" d="M27,19h4v7h-8v-1h2v-1h1v-1h1V19z"/>
<path fill="#686060" d="M6,23h2v1h1v1H7v-1H6V23z"/>
<path fill="#554E4E" d="M8,23h1v1H8V23z"/>
<path fill="#303030" d="M10,23h12v1H10V23z"/>
<path fill="#554E4E" d="M23,23h1v1h-1V23z"/>
<path fill="#686060" d="M24,23h2v1h-1v1h-2v-1h1V23z"/>
<path fill="#8D8D8D" d="M10,24h12v1H10V24z"/>
<path fill="#554E4E" d="M9,25h1v1H9V25z"/>
<path fill="#1A1A1A" d="M10,25h12v1H10V25z"/>
<path fill="#554E4E" d="M22,25h1v1h-1V25z"/>
<path fill="#A8A0A0" d="M1,26h30v1H1V26z"/>
<path fill="#686060" d="M1,27h30v2H1V27z"/>
<path fill="#686060" d="M3,30h2v1H3V30z"/>
<path fill="#686060" d="M27,30h2v1h-2V30z"/>
<path fill="#554E4E" d="M2,31h1v1H2V31z"/>
<path fill="#373031" d="M3,31h2v1H3V31z"/>
<path fill="#554E4E" d="M5,31h1v1H5V31z"/>
<path fill="#554E4E" d="M26,31h1v1h-1V31z"/>
<path fill="#373031" d="M27,31h2v1h-2V31z"/>
<path fill="#554E4E" d="M29,31h1v1h-1V31z"/>
</svg>
