<?xml version="1.0" encoding="utf-8"?>
<!-- Generator: Adobe Illustrator 16.0.4, SVG Export Plug-In . SVG Version: 6.00 Build 0)  -->
<!DOCTYPE svg PUBLIC "-//W3C//DTD SVG 1.1//EN" "http://www.w3.org/Graphics/SVG/1.1/DTD/svg11.dtd">
<svg version="1.1" id="Layer_1" xmlns="http://www.w3.org/2000/svg" xmlns:xlink="http://www.w3.org/1999/xlink" x="0px" y="0px"
	 width="80px" height="32px" viewBox="0 0 80 32" enable-background="new 0 0 80 32" xml:space="preserve">
<path opacity="0.6" fill="#40ACD4" d="M0,11h3v9H0V11z"/>
<path opacity="0.6" fill="#60C6F0" d="M3,11h2v3h1v1h4v1h1v3h1v1H3V11z"/>
<path opacity="0.6" fill="#75D9FF" d="M5,11h1v2h1v1h4v1h1v3h1v1h3v1h-4v-1h-1v-3h-1v-1H6v-1H5V11z"/>
<path opacity="0.6" fill="#60C6F0" d="M6,11h1v1h1v1h4v1h1v3h1v1h3v1h1v1h-2v-1h-3v-1h-1v-3h-1v-1H7v-1H6V11z"/>
<path opacity="0.6" fill="#51BAE2" d="M7,11h2v1h4v1h1v3h1v1h3v1h1v2h-1v-1h-1v-1h-3v-1h-1v-3h-1v-1H8v-1H7V11z"/>
<path opacity="0.6" fill="#60C6F0" d="M9,11h12v3h1v1h4v1h1v3h1v1h-9v-2h-1v-1h-3v-1h-1v-3h-1v-1H9V11z"/>
<path opacity="0.6" fill="#75D9FF" d="M21,11h1v2h1v1h4v1h1v3h1v1h3v1h-4v-1h-1v-3h-1v-1h-4v-1h-1V11z"/>
<path opacity="0.6" fill="#60C6F0" d="M22,11h1v1h1v1h4v1h1v3h1v1h3v1h1v1h-2v-1h-3v-1h-1v-3h-1v-1h-4v-1h-1V11z"/>
<path opacity="0.6" fill="#51BAE2" d="M23,11h2v1h4v1h1v3h1v1h3v1h1v2h-1v-1h-1v-1h-3v-1h-1v-3h-1v-1h-4v-1h-1V11z"/>
<path opacity="0.6" fill="#60C6F0" d="M25,11h12v3h1v1h4v1h1v3h1v1h-9v-2h-1v-1h-3v-1h-1v-3h-1v-1h-4V11z"/>
<path opacity="0.6" fill="#75D9FF" d="M37,11h1v2h1v1h4v1h1v3h1v1h3v1h-4v-1h-1v-3h-1v-1h-4v-1h-1V11z"/>
<path opacity="0.6" fill="#60C6F0" d="M38,11h1v1h1v1h4v1h1v3h1v1h3v1h1v1h-2v-1h-3v-1h-1v-3h-1v-1h-4v-1h-1V11z"/>
<path opacity="0.6" fill="#51BAE2" d="M39,11h2v1h4v1h1v3h1v1h3v1h1v2h-1v-1h-1v-1h-3v-1h-1v-3h-1v-1h-4v-1h-1V11z"/>
<path opacity="0.6" fill="#60C6F0" d="M41,11h12v3h1v1h4v1h1v3h1v1h-9v-2h-1v-1h-3v-1h-1v-3h-1v-1h-4V11z"/>
<path opacity="0.6" fill="#75D9FF" d="M53,11h1v2h1v1h4v1h1v3h1v1h3v1h-4v-1h-1v-3h-1v-1h-4v-1h-1V11z"/>
<path opacity="0.6" fill="#60C6F0" d="M54,11h1v1h1v1h4v1h1v3h1v1h3v1h1v1h-2v-1h-3v-1h-1v-3h-1v-1h-4v-1h-1V11z"/>
<path opacity="0.6" fill="#51BAE2" d="M55,11h2v1h4v1h1v3h1v1h3v1h1v2h-1v-1h-1v-1h-3v-1h-1v-3h-1v-1h-4v-1h-1V11z"/>
<path opacity="0.6" fill="#60C6F0" d="M57,11h12v3h1v1h4v1h1v3h1v1h-9v-2h-1v-1h-3v-1h-1v-3h-1v-1h-4V11z"/>
<path opacity="0.6" fill="#75D9FF" d="M69,11h1v2h1v1h4v1h1v3h1v1h3v1h-4v-1h-1v-3h-1v-1h-4v-1h-1V11z"/>
<path opacity="0.6" fill="#60C6F0" d="M70,11h1v1h1v1h4v1h1v3h1v1h2v1h-3v-1h-1v-3h-1v-1h-4v-1h-1V11z"/>
<path opacity="0.6" fill="#51BAE2" d="M71,11h2v1h4v1h1v3h1v1h1v1h-2v-1h-1v-3h-1v-1h-4v-1h-1V11z"/>
<path opacity="0.6" fill="#60C6F0" d="M73,11h7v6h-1v-1h-1v-3h-1v-1h-4V11z"/>
</svg>
