<?xml version="1.0" encoding="utf-8"?>
<!-- generated at drububu.com  -->
<!DOCTYPE svg PUBLIC "-//W3C//DTD SVG 1.1//EN" "http://www.w3.org/Graphics/SVG/1.1/DTD/svg11.dtd">
<svg version="1.1" preserveAspectRatio="xMinYMin meet" xmlns="http://www.w3.org/2000/svg" xmlns:xlink="http://www.w3.org/1999/xlink" x="0px" y="0px" width="176px" height="176px" viewBox="0 0 176 176">
<path d="M0 0h3v1h-2v2h-1v-3z" fill="rgb(37,37,37)"/>
<path d="M3 0h170v1h2v2h1v170h-1v2h-2v1h-170v-1h-2v-2h-1v-170h1v-2h2v-1z" fill="rgb(255,255,255)"/>
<path d="M173 0h3v3h-1v-2h-2v-1z" fill="rgb(37,37,37)"/>
<path d="M10 9h6v1h1v3h-1v1h-4v5h-2v-10z" fill="rgb(0,0,0)"/>
<path d="M18 9h2v2h-2v-2z" fill="rgb(0,0,0)"/>
<path d="M29 9h2v2h1v2h1v2h2v-2h1v-2h1v-2h2v10h-2v-4h-1v2h-1v2h-2v-2h-1v-2h-1v4h-2v-10z" fill="rgb(0,0,0)"/>
<path d="M48 9h2v2h-2v-2z" fill="rgb(0,0,0)"/>
<path d="M51 9h2v10h-2v-10z" fill="rgb(0,0,0)"/>
<path d="M12 11h3v1h-3v-1z" fill="rgb(255,255,255)"/>
<path d="M18 12h2v7h-2v-7z" fill="rgb(0,0,0)"/>
<path d="M21 12h2v1h1v1h1v-1h1v-1h2v2h-1v1h-1v1h1v1h1v2h-2v-1h-1v-1h-1v1h-1v1h-2v-2h1v-1
	h1v-1h-1v-1h-1v-2z" fill="rgb(0,0,0)"/>
<path d="M41 12h3v1h1v-1h2v7h-2v-1h-1v1h-3v-1h-1v-5h1v-1z" fill="rgb(0,0,0)"/>
<path d="M48 12h2v7h-2v-7z" fill="rgb(0,0,0)"/>
<path d="M42 14h2v1h1v1h-1v1h-2v-3z" fill="rgb(255,255,255)"/>
<path d="M8 26h160v1h2v1h1v2h1v129h-1v2h-1v1h-2v1h-160v-1h-2v-1h-1v-2h-1v-129h1v-2h1v-1
	h2v-1z" fill="rgb(189,219,219)"/>
<path d="M9 28h158v1h2v2h1v127h-1v2h-2v1h-158v-1h-2v-2h-1v-127h1v-2h2v-1z" fill="rgb(255,255,255)"/>
<path d="M0 173h1v2h2v1h-3v-3z" fill="rgb(37,37,37)"/>
<path d="M175 173h1v3h-3v-1h2v-2z" fill="rgb(37,37,37)"/>
</svg>
