<?xml version="1.0" encoding="utf-8"?>
<!-- Generator: Adobe Illustrator 16.0.4, SVG Export Plug-In . SVG Version: 6.00 Build 0)  -->
<!DOCTYPE svg PUBLIC "-//W3C//DTD SVG 1.1//EN" "http://www.w3.org/Graphics/SVG/1.1/DTD/svg11.dtd">
<svg version="1.1" id="Layer_1" xmlns="http://www.w3.org/2000/svg" xmlns:xlink="http://www.w3.org/1999/xlink" x="0px" y="0px"
	 width="13px" height="44px" viewBox="0 0 13 44" enable-background="new 0 0 13 44" xml:space="preserve">
<path fill="#030520" d="M1,7h11v1H1V7z"/>
<path fill="#030520" d="M0,8h1v7H0V8z"/>
<path fill="#638080" d="M1,8h1v1H1V8z"/>
<path fill="#E2FFFF" d="M2,8h9v1h-1v1H9v1H8v1H5v-1H4v-1H3V9H2V8z"/>
<path fill="#638080" d="M11,8h1v1h-1V8z"/>
<path fill="#030520" d="M12,8h1v7h-1V8z"/>
<path fill="#E2FFFF" d="M1,9h1v1h1v1h1v1H3v1H2v1H1V9z"/>
<path fill="#638080" d="M2,9h1v1H2V9z"/>
<path fill="#638080" d="M10,9h1v1h-1V9z"/>
<path fill="#BEDBDB" d="M11,9h1v5h-1v-3h-1v-1h1V9z"/>
<path fill="#638080" d="M3,10h1v1H3V10z"/>
<path fill="#638080" d="M9,10h1v1H9V10z"/>
<path fill="#638080" d="M4,11h1v1H4V11z"/>
<path fill="#638080" d="M8,11h1v1H8V11z"/>
<path fill="#BEDBDB" d="M9,11h1v1H9V11z"/>
<path fill="#E2FFFF" d="M10,11h1v2h-1V11z"/>
<path fill="#638080" d="M3,12h1v1H3V12z"/>
<path fill="#E2FFFF" d="M4,12h1v1h1v1H3v-1h1V12z"/>
<path fill="#638080" d="M5,12h3v1H5V12z"/>
<path fill="#BEDBDB" d="M8,12h1v1H8V12z"/>
<path fill="#638080" d="M9,12h1v1H9V12z"/>
<path fill="#638080" d="M2,13h1v1H2V13z"/>
<path fill="#BEDBDB" d="M6,13h2v1h3v1H2v-1h4V13z"/>
<path fill="#E2FFFF" d="M8,13h2v1H8V13z"/>
<path fill="#638080" d="M10,13h1v1h-1V13z"/>
<path fill="#638080" d="M1,14h1v1H1V14z"/>
<path fill="#638080" d="M11,14h1v1h-1V14z"/>
<path fill="#030520" d="M1,15h11v1H1V15z"/>
<path fill="#040404" d="M5,26h3v1H5V26z"/>
<path fill="#040404" d="M4,27h1v1h3v-1h1v1h3v3h1v8h-1v-7h-1v-3H2v3H1v7H0v-8h1v-3h3V27z"/>
<path fill="#FFFFFF" d="M5,27h1v1H5V27z"/>
<path fill="#DBDBDB" d="M6,27h2v1H6V27z"/>
<path fill="#FFFFFF" d="M2,29h9v3H6v1H5v-1H3v1H2V29z"/>
<path fill="#A0A0A0" d="M3,30h5v1H3V30z"/>
<path fill="#A0A0A0" d="M9,30h1v1H9V30z"/>
<path fill="#808080" d="M1,32h1v1H1V32z"/>
<path fill="#A0A0A0" d="M3,32h2v1H3V32z"/>
<path fill="#A0A0A0" d="M6,32h4v1H6V32z"/>
<path fill="#DBDBDB" d="M10,32h1v1h-1V32z"/>
<path fill="#808080" d="M11,32h1v1h-1V32z"/>
<path fill="#FFFFFF" d="M1,33h1v1h1v1h1v1H3v1H2v1H1V33z"/>
<path fill="#808080" d="M2,33h1v1H2V33z"/>
<path fill="#DBDBDB" d="M3,33h7v1H9v1H8v-1H5v1H4v-1H3V33z"/>
<path fill="#808080" d="M10,33h1v1h-1V33z"/>
<path fill="#DBDBDB" d="M11,33h1v5h-1v-3h-1v-1h1V33z"/>
<path fill="#808080" d="M3,34h1v1H3V34z"/>
<path fill="#808080" d="M5,34h3v1H5V34z"/>
<path fill="#808080" d="M9,34h1v1H9V34z"/>
<path fill="#808080" d="M4,35h1v1H4V35z"/>
<path fill="#FFFFFF" d="M5,35h3v1h1v1h1v1H3v-1h1v-1h1V35z"/>
<path fill="#808080" d="M8,35h1v1H8V35z"/>
<path fill="#DBDBDB" d="M9,35h1v1H9V35z"/>
<path fill="#FFFFFF" d="M10,35h1v2h-1V35z"/>
<path fill="#808080" d="M3,36h1v1H3V36z"/>
<path fill="#808080" d="M9,36h1v1H9V36z"/>
<path fill="#808080" d="M2,37h1v1H2V37z"/>
<path fill="#808080" d="M10,37h1v1h-1V37z"/>
<path fill="#808080" d="M1,38h1v1H1V38z"/>
<path fill="#DBDBDB" d="M2,38h9v1H2V38z"/>
<path fill="#808080" d="M11,38h1v1h-1V38z"/>
<path fill="#040404" d="M1,39h11v1H1V39z"/>
</svg>
