<?xml version="1.0" encoding="utf-8"?>
<!-- Generator: Adobe Illustrator 16.0.4, SVG Export Plug-In . SVG Version: 6.00 Build 0)  -->
<!DOCTYPE svg PUBLIC "-//W3C//DTD SVG 1.1//EN" "http://www.w3.org/Graphics/SVG/1.1/DTD/svg11.dtd">
<svg version="1.1" id="Layer_1" xmlns="http://www.w3.org/2000/svg" xmlns:xlink="http://www.w3.org/1999/xlink" x="0px" y="0px"
	 width="8px" height="81px" viewBox="0 0 8 81" enable-background="new 0 0 8 81" xml:space="preserve">
<path fill="#FFFFFF" d="M6,2V1H2v1H1v5h1v1h4V7h1V2H6z M5,7H3V2h2V7z"/>
<path fill="#FFFFFF" d="M3,9h2v7H3v-5H2v-1h1V9z"/>
<path fill="#FFFFFF" d="M2,17h4v1h1v2H6v1H4v1H3v1h4v1H1v-2h1v-1h1v-1h2v-2H3v1H1v-1h1V17z"/>
<path fill="#FFFFFF" d="M2,25h4v1h1v2H6v1h1v2H6v1H2v-1H1v-1h2v1h2v-2H3v-1h2v-2H3v1H1v-1h1V25z"/>
<path fill="#FFFFFF" d="M2,35h1v1H2V35z"/>
<polygon fill="#FFFFFF" points="6,37 6,33 4,33 4,34 3,34 3,35 4,35 4,37 2,37 2,36 1,36 1,38 4,38 4,40 6,40 6,38 7,38 7,37 "/>
<path fill="#FFFFFF" d="M2,41h5v1H4v2h2v1h1v2H6v1H2v-1h3v-2H2V41z"/>
<path fill="#FFFFFF" d="M6,53v-1H3v-1h1v-1h2v-1H3v1H2v1H1v4h1v1h4v-1h1v-2H6z M5,55H3v-2h2V55z"/>
<path fill="#FFFFFF" d="M1,57h6v2H6v2H5v3H3v-3h1v-2h1v-1H1V57z"/>
<path fill="#FFFFFF" d="M7,68v-2H6v-1H2v1H1v2h1v1H1v2h1v1h4v-1h1v-2H6v-1H7z M5,71H3v-2h2V71z M5,68H3v-2h2V68z"/>
<path fill="#FFFFFF" d="M6,74v-1H2v1H1v2h1v1h3v1H4v1H2v1h3v-1h1v-1h1v-4H6z M5,76H3v-2h2V76z"/>
</svg>
