<?xml version="1.0" encoding="utf-8"?>
<!-- Generator: Adobe Illustrator 16.0.4, SVG Export Plug-In . SVG Version: 6.00 Build 0)  -->
<!DOCTYPE svg PUBLIC "-//W3C//DTD SVG 1.1//EN" "http://www.w3.org/Graphics/SVG/1.1/DTD/svg11.dtd">
<svg version="1.1" id="Layer_1" xmlns="http://www.w3.org/2000/svg" xmlns:xlink="http://www.w3.org/1999/xlink" x="0px" y="0px"
	 width="8px" height="89px" viewBox="0 0 8 89" enable-background="new 0 0 8 89" xml:space="preserve">
<path fill="#FFFFFF" d="M6,10V9H2v1H1v5h1v1h4v-1h1v-5H6z M5,15H3v-5h2V15z"/>
<path fill="#FFFFFF" d="M3,17h2v7H3v-5H2v-1h1V17z"/>
<path fill="#FFFFFF" d="M2,25h4v1h1v2H6v1H4v1H3v1h4v1H1v-2h1v-1h1v-1h2v-2H3v1H1v-1h1V25z"/>
<path fill="#FFFFFF" d="M2,33h4v1h1v2H6v1h1v2H6v1H2v-1H1v-1h2v1h2v-2H3v-1h2v-2H3v1H1v-1h1V33z"/>
<path fill="#FFFFFF" d="M2,43h1v1H2V43z"/>
<polygon fill="#FFFFFF" points="6,45 6,41 4,41 4,42 3,42 3,43 4,43 4,45 2,45 2,44 1,44 1,46 4,46 4,48 6,48 6,46 7,46 7,45 "/>
<path fill="#FFFFFF" d="M2,49h5v1H4v2h2v1h1v2H6v1H2v-1h3v-2H2V49z"/>
<path fill="#FFFFFF" d="M6,61v-1H3v-1h1v-1h2v-1H3v1H2v1H1v4h1v1h4v-1h1v-2H6z M5,63H3v-2h2V63z"/>
<path fill="#FFFFFF" d="M1,65h6v2H6v2H5v3H3v-3h1v-2h1v-1H1V65z"/>
<path fill="#FFFFFF" d="M7,76v-2H6v-1H2v1H1v2h1v1H1v2h1v1h4v-1h1v-2H6v-1H7z M5,79H3v-2h2V79z M5,76H3v-2h2V76z"/>
<path fill="#FFFFFF" d="M6,82v-1H2v1H1v2h1v1h3v1H4v1H2v1h3v-1h1v-1h1v-4H6z M5,84H3v-2h2V84z"/>
</svg>
