<?xml version="1.0" encoding="utf-8"?>
<!-- Generator: Adobe Illustrator 16.0.4, SVG Export Plug-In . SVG Version: 6.00 Build 0)  -->
<!DOCTYPE svg PUBLIC "-//W3C//DTD SVG 1.1//EN" "http://www.w3.org/Graphics/SVG/1.1/DTD/svg11.dtd">
<svg version="1.1" id="Layer_1" xmlns="http://www.w3.org/2000/svg" xmlns:xlink="http://www.w3.org/1999/xlink" x="0px" y="0px"
	 width="15px" height="33px" viewBox="0 0 15 33" enable-background="new 0 0 15 33" xml:space="preserve">
<path fill="#5BAE7A" d="M2,1h4v1h1v1H5V2H3v2h3v1h1v2H6v1H2V7H1V6h2v1h2V5H2V4H1V2h1V1z"/>
<path fill="#5BAE7A" d="M13,2V1H8v7h2V5h3V4h1V2H13z M12,4h-2V2h2V4z"/>
<path fill="#E3DE76" d="M2,9h4v1h1v1H5v-1H3v2h3v1h1v2H6v1H2v-1H1v-1h2v1h2v-2H2v-1H1v-2h1V9z"/>
<path fill="#E3DE76" d="M8,9h2v6h2V9h2v6h-1v1H9v-1H8V9z"/>
<path fill="#BF7460" d="M8,17h2v6h2v-6h2v6h-1v1H9v-1H8V17z"/>
<path fill="#BF7460" d="M6,18v-1H2v1H1v6h2v-3h2v3h2v-6H6z M5,20H3v-2h2V20z"/>
<path fill="#70C5E1" d="M1,25h2v6h1v-6h2v6h1v-6h2v6H8v1H2v-1H1V25z"/>
<path fill="#70C5E1" d="M10,25h2v7h-2V25z"/>
</svg>
