<?xml version="1.0" encoding="utf-8"?>
<!-- Generator: Adobe Illustrator 16.0.4, SVG Export Plug-In . SVG Version: 6.00 Build 0)  -->
<!DOCTYPE svg PUBLIC "-//W3C//DTD SVG 1.1//EN" "http://www.w3.org/Graphics/SVG/1.1/DTD/svg11.dtd">
<svg version="1.1" id="Layer_1" xmlns="http://www.w3.org/2000/svg" xmlns:xlink="http://www.w3.org/1999/xlink" x="0px" y="0px"
	 width="16px" height="17px" viewBox="0 0 16 17" enable-background="new 0 0 16 17" xml:space="preserve">
<path fill="#FFFFFF" d="M8,1h2v1h1v1h1V2h1V1h2v7h-2V4h-1v1h-1V4h-1v4H8V1z"/>
<path fill="#FFFFFF" d="M6,2V1H2v1H1v6h2V5h2v3h2V2H6z M5,4H3V2h2V4z"/>
<path fill="#FFFFFF" d="M8,9h2v1h1v1h1v-1h1V9h2v7h-2v-4h-1v1h-1v-1h-1v4H8V9z"/>
<path fill="#FFFFFF" d="M6,10V9H1v7h2v-3h3v-1h1v-2H6z M5,12H3v-2h2V12z"/>
</svg>
