<?xml version="1.0" encoding="utf-8"?>
<!-- generated at drububu.com  -->
<!DOCTYPE svg PUBLIC "-//W3C//DTD SVG 1.1//EN" "http://www.w3.org/Graphics/SVG/1.1/DTD/svg11.dtd">
<svg version="1.1" preserveAspectRatio="xMinYMin meet" xmlns="http://www.w3.org/2000/svg" xmlns:xlink="http://www.w3.org/1999/xlink" x="0px" y="0px" width="96px" height="16px" viewBox="0 0 96 16">
<path d="M0 0h80v1h-80v-1z" fill="rgb(148,148,146)"/>
<path d="M80 0h1v1h-1v-1z" fill="rgb(146,151,146)"/>
<path d="M81 0h5v1h4v-1h5v4h-95v-3h81v-1z" fill="rgb(255,255,255)"/>
<path d="M86 0h4v1h-4v-1z" fill="rgb(105,105,105)"/>
<path d="M95 0h1v1h-1v-1z" fill="rgb(146,151,146)"/>
<path d="M95 1h1v8h-96v-1h95v-7z" fill="rgb(148,148,146)"/>
<path d="M0 4h95v1h-95v-1z" fill="rgb(181,181,181)"/>
<path d="M0 5h95v3h-95v-3z" fill="rgb(238,238,238)"/>
<path d="M0 9h95v1h-95v-1z" fill="rgb(227,227,227)"/>
<path d="M95 9h1v1h-1v-1z" fill="rgb(170,170,170)"/>
<path d="M0 10h95v1h-95v-1z" fill="rgb(238,238,238)"/>
<path d="M95 10h1v1h-1v-1z" fill="rgb(178,178,178)"/>
<path d="M0 11h95v5h-26v-1h-1v-1h-24v1h-1v1h-43v-5z" fill="rgb(244,244,244)"/>
<path d="M95 11h1v5h-1v-5z" fill="rgb(183,183,183)"/>
<path d="M44 14h24v1h-24v-1z" fill="rgb(148,148,146)"/>
<path d="M43 15h1v1h-1v-1z" fill="rgb(148,148,146)"/>
<path d="M44 15h24v1h-24v-1z" fill="rgb(255,255,255)"/>
<path d="M68 15h1v1h-1v-1z" fill="rgb(148,148,146)"/>
</svg>
