<?xml version="1.0" encoding="utf-8"?>
<!-- Generator: Adobe Illustrator 16.0.4, SVG Export Plug-In . SVG Version: 6.00 Build 0)  -->
<!DOCTYPE svg PUBLIC "-//W3C//DTD SVG 1.1//EN" "http://www.w3.org/Graphics/SVG/1.1/DTD/svg11.dtd">
<svg version="1.1" id="Layer_1" xmlns="http://www.w3.org/2000/svg" xmlns:xlink="http://www.w3.org/1999/xlink" x="0px" y="0px"
	 width="112px" height="16px" viewBox="0 0 112 16" enable-background="new 0 0 112 16" xml:space="preserve">
<path fill="#949492" d="M0,0h97v1H0V0z"/>
<path fill="#FFFFFF" d="M97,0h5v4H54v12h-5V4H0V1h97V0z"/>
<path fill="#949492" d="M102,0h1v8h-1V0z"/>
<path fill="#B5B5B5" d="M0,4h48v1H0V4z"/>
<path fill="#949492" d="M48,4h1v12h-1V9H0V8h48V4z"/>
<path fill="#949492" d="M54,4h1v4h47v1H55v7h-1V4z"/>
<path fill="#B5B5B5" d="M55,4h47v1H55V4z"/>
<path fill="#EEEEEE" d="M0,5h48v3H0V5z"/>
<path fill="#EEEEEE" d="M55,5h47v3H55V5z"/>
<path fill="#696969" d="M102,8h1v8h-1V8z"/>
<path fill="#E3E3E3" d="M0,9h48v1H0V9z"/>
<path fill="#E3E3E3" d="M55,9h47v1H55V9z"/>
<path fill="#EEEEEE" d="M0,10h48v1H0V10z"/>
<path fill="#EEEEEE" d="M55,10h47v1H55V10z"/>
<path fill="#F4F4F4" d="M0,11h48v5H37v-1h-1v-1H12v1h-1v1H0V11z"/>
<path fill="#F4F4F4" d="M55,11h47v5H55V11z"/>
<path fill="#949492" d="M12,14h24v1H12V14z"/>
<path fill="#949492" d="M11,15h1v1h-1V15z"/>
<path fill="#FFFFFF" d="M12,15h24v1H12V15z"/>
<path fill="#949492" d="M36,15h1v1h-1V15z"/>
</svg>
