<?xml version="1.0" encoding="utf-8"?>
<!-- Generator: Adobe Illustrator 16.0.4, SVG Export Plug-In . SVG Version: 6.00 Build 0)  -->
<!DOCTYPE svg PUBLIC "-//W3C//DTD SVG 1.1//EN" "http://www.w3.org/Graphics/SVG/1.1/DTD/svg11.dtd">
<svg version="1.1" id="Layer_1" xmlns="http://www.w3.org/2000/svg" xmlns:xlink="http://www.w3.org/1999/xlink" x="0px" y="0px"
	 width="16px" height="16px" viewBox="0 0 16 16" enable-background="new 0 0 16 16" xml:space="preserve">
<path fill="#5C752F" d="M3,3h2v1H4v3H3V3z"/>
<path fill="#92B84B" d="M4,4h1v2h1v2H5v2H4V8H3V7h1V4z"/>
<path fill="#5C752F" d="M5,4h1v1H5V4z"/>
<path fill="#5C752F" d="M10,4h1v1h-1V4z"/>
<path fill="#475924" d="M11,4h1v4h-1V4z"/>
<path fill="#475924" d="M5,5h1v1H5V5z"/>
<path fill="#5C752F" d="M9,5h1v2H9V5z"/>
<path fill="#92B84B" d="M10,5h1v3h1v1h-1v1h-1V9H9V7h1V5z"/>
<path fill="#5C752F" d="M6,6h1v1H6V6z"/>
<path fill="#5C752F" d="M2,7h1v2H2V7z"/>
<path fill="#475924" d="M6,7h1v2H6V7z"/>
<path fill="#5C752F" d="M8,7h1v2H8V7z"/>
<path fill="#799A3D" d="M3,8h1v2H3V8z"/>
<path fill="#799A3D" d="M5,8h1v1h1v6H6v-2H5v-2H4v-1h1V8z"/>
<path fill="#475924" d="M12,8h1v2h-1V8z"/>
<path fill="#5C752F" d="M0,9h2v1H0V9z"/>
<path fill="#475924" d="M2,9h1v1H2V9z"/>
<path fill="#475924" d="M7,9h2v1H8v2H7V9z"/>
<path fill="#799A3D" d="M9,9h1v1h1V9h1v2h-1v1h-1v2H9v-1H8v-3h1V9z"/>
<path fill="#475924" d="M0,10h1v2H0V10z"/>
<path fill="#92B84B" d="M1,10h2v1h1v3H3v-1H2v-1H1V10z"/>
<path fill="#5C752F" d="M3,10h1v1H3V10z"/>
<path fill="#5C752F" d="M12,10h3v1h-3V10z"/>
<path fill="#5C752F" d="M4,11h1v1H4V11z"/>
<path fill="#5C752F" d="M11,11h1v1h-1V11z"/>
<path fill="#92B84B" d="M12,11h2v3h-2v-1h-1v-1h1V11z"/>
<path fill="#475924" d="M14,11h1v3h-1V11z"/>
<path fill="#475924" d="M1,12h1v3H1V12z"/>
<path fill="#475924" d="M4,12h1v1H4V12z"/>
<path fill="#5C752F" d="M7,12h1v2H7V12z"/>
<path fill="#5C752F" d="M10,12h1v1h-1V12z"/>
<path fill="#799A3D" d="M2,13h1v1h1v-1h1v3H3v-1H2V13z"/>
<path fill="#475924" d="M5,13h1v2H5V13z"/>
<path fill="#475924" d="M8,13h1v1H8V13z"/>
<path fill="#475924" d="M10,13h1v1h-1V13z"/>
<path fill="#799A3D" d="M11,13h1v1h-1V13z"/>
<path fill="#475924" d="M7,14h1v2H7V14z"/>
<path fill="#92B84B" d="M8,14h1v2H8V14z"/>
<path fill="#475924" d="M9,14h1v2H9V14z"/>
<path fill="#799A3D" d="M10,14h1v1h1v-1h1v2h-3V14z"/>
<path fill="#92B84B" d="M11,14h1v1h-1V14z"/>
<path fill="#475924" d="M13,14h1v2h-1V14z"/>
<path fill="#EEEEEE" d="M14,14h1v2h-1V14z"/>
<path fill="#828282" d="M15,14h1v2h-1V14z"/>
<path fill="#828282" d="M0,15h1v1H0V15z"/>
<path fill="#EEEEEE" d="M1,15h1v1H1V15z"/>
<path fill="#475924" d="M2,15h1v1H2V15z"/>
<path fill="#5C752F" d="M5,15h2v1H5V15z"/>
</svg>
