<?xml version="1.0" encoding="utf-8"?>
<!-- generated at drububu.com  -->
<!DOCTYPE svg PUBLIC "-//W3C//DTD SVG 1.1//EN" "http://www.w3.org/Graphics/SVG/1.1/DTD/svg11.dtd">
<svg version="1.1" preserveAspectRatio="xMinYMin meet" xmlns="http://www.w3.org/2000/svg" xmlns:xlink="http://www.w3.org/1999/xlink" x="0px" y="0px" width="176px" height="176px" viewBox="0 0 176 176">
<path d="M0 0h176v26h-176v-26z" fill="rgb(239,238,220)"/>
<path d="M20 7h2v6h3v-6h1v12h-1v-5h-3v5h-2v-12z" fill="rgb(96,96,88)"/>
<path d="M44 7h2v2h-2v-2z" fill="rgb(96,96,88)"/>
<path d="M65 7h2v10h-1v-1h-1v-9z" fill="rgb(96,96,88)"/>
<path d="M71 7h1v9h-1v-9z" fill="rgb(96,96,88)"/>
<path d="M80 7h3v11h1v1h-4v-1h1v-9h-1v-2z" fill="rgb(96,96,88)"/>
<path d="M85 7h3v11h1v1h-4v-1h1v-9h-1v-2z" fill="rgb(96,96,88)"/>
<path d="M108 7h2v3h1v1h-1v8h-2v-12z" fill="rgb(96,96,88)"/>
<path d="M115 7h1v12h-1v-8h-1v-1h1v-3z" fill="rgb(96,96,88)"/>
<path d="M138 7h2v4h3v1h1v7h-1v-6h-3v6h-2v-12z" fill="rgb(96,96,88)"/>
<path d="M145 7h3v11h1v1h-4v-1h1v-9h-1v-2z" fill="rgb(96,96,88)"/>
<path d="M49 8h2v4h2v1h-2v4h2v-1h1v2h-1v1h-3v-1h-1v-5h-1v-1h1v-4z" fill="rgb(96,96,88)"/>
<path d="M55 8h2v4h2v1h-2v4h2v-1h1v2h-1v1h-3v-1h-1v-5h-1v-1h1v-4z" fill="rgb(96,96,88)"/>
<path d="M132 8h2v4h2v1h-2v4h2v-1h1v2h-1v1h-3v-1h-1v-5h-1v-1h1v-4z" fill="rgb(96,96,88)"/>
<path d="M7 10h2v1h-2v-1z" fill="rgb(96,96,88)"/>
<path d="M10 10h2v1h-2v-1z" fill="rgb(96,96,88)"/>
<path d="M14 10h1v1h-1v-1z" fill="rgb(96,96,88)"/>
<path d="M161 10h1v1h-1v-1z" fill="rgb(96,96,88)"/>
<path d="M164 10h2v1h-2v-1z" fill="rgb(96,96,88)"/>
<path d="M167 10h2v1h-2v-1z" fill="rgb(96,96,88)"/>
<path d="M5 11h2v1h-2v-1z" fill="rgb(96,96,88)"/>
<path d="M7 11h2v1h-2v-1z" fill="rgb(196,196,180)"/>
<path d="M9 11h1v1h-1v-1z" fill="rgb(96,96,88)"/>
<path d="M10 11h1v1h-1v-1z" fill="rgb(173,173,159)"/>
<path d="M11 11h1v1h-1v-1z" fill="rgb(196,196,180)"/>
<path d="M12 11h2v1h-1v1h-1v-2z" fill="rgb(96,96,88)"/>
<path d="M14 11h1v5h-1v-1h-1v-3h1v-1z" fill="rgb(147,147,135)"/>
<path d="M15 11h1v1h3v1h-4v-2z" fill="rgb(96,96,88)"/>
<path d="M28 11h4v1h1v4h-4v2h3v1h-4v-1h-1v-6h1v-1z" fill="rgb(96,96,88)"/>
<path d="M34 11h2v6h2v-5h1v5h2v-6h1v7h-1v1h-2v-1h-1v1h-3v-1h-1v-7z" fill="rgb(96,96,88)"/>
<path d="M43 11h4v2h-1v5h1v1h-4v-1h1v-5h-1v-2z" fill="rgb(96,96,88)"/>
<path d="M74 11h4v1h1v7h-5v-1h3v-2h-3v-1h3v-2h-3v1h-1v-2h1v-1z" fill="rgb(96,96,88)"/>
<path d="M91 11h4v1h1v4h-4v2h3v1h-4v-1h-1v-6h1v-1z" fill="rgb(96,96,88)"/>
<path d="M97 11h1v7h-1v-7z" fill="rgb(96,96,88)"/>
<path d="M101 11h2v10h-1v1h-4v-1h3v-2h-3v-1h3v-7z" fill="rgb(96,96,88)"/>
<path d="M111 11h1v1h-1v-1z" fill="rgb(96,96,88)"/>
<path d="M113 11h1v1h-1v-1z" fill="rgb(96,96,88)"/>
<path d="M118 11h4v1h1v6h-1v-5h-3v5h3v1h-4v-1h-1v-6h1v-1z" fill="rgb(96,96,88)"/>
<path d="M124 11h5v1h1v7h-1v-6h-3v6h-2v-8z" fill="rgb(96,96,88)"/>
<path d="M150 11h1v7h-1v-7z" fill="rgb(96,96,88)"/>
<path d="M154 11h2v10h-1v1h-4v-1h3v-2h-3v-1h3v-7z" fill="rgb(96,96,88)"/>
<path d="M160 11h1v2h-4v-1h3v-1z" fill="rgb(96,96,88)"/>
<path d="M161 11h1v1h1v3h-1v1h-1v-5z" fill="rgb(147,147,135)"/>
<path d="M162 11h2v2h-1v-1h-1v-1z" fill="rgb(96,96,88)"/>
<path d="M164 11h1v1h-1v-1z" fill="rgb(196,196,180)"/>
<path d="M165 11h1v1h-1v-1z" fill="rgb(173,173,159)"/>
<path d="M166 11h1v1h-1v-1z" fill="rgb(96,96,88)"/>
<path d="M167 11h2v1h-2v-1z" fill="rgb(196,196,180)"/>
<path d="M169 11h2v1h-2v-1z" fill="rgb(96,96,88)"/>
<path d="M3 12h2v1h-2v-1z" fill="rgb(96,96,88)"/>
<path d="M5 12h1v1h-1v-1z" fill="rgb(147,147,135)"/>
<path d="M6 12h1v1h-1v-1z" fill="rgb(173,173,159)"/>
<path d="M7 12h1v1h-1v-1z" fill="rgb(96,96,88)"/>
<path d="M8 12h1v1h-1v-1z" fill="rgb(147,147,135)"/>
<path d="M9 12h1v1h-1v-1z" fill="rgb(196,196,180)"/>
<path d="M10 12h1v1h-1v-1z" fill="rgb(96,96,88)"/>
<path d="M11 12h1v1h1v1h-1v1h-1v-1h-1v1h-1v-1h-1v-1h3v-1z" fill="rgb(173,173,159)"/>
<path d="M112 12h1v3h-1v-3z" fill="rgb(96,96,88)"/>
<path d="M164 12h1v1h3v1h-1v1h-1v-1h-1v1h-1v-1h-1v-1h1v-1z" fill="rgb(173,173,159)"/>
<path d="M165 12h1v1h-1v-1z" fill="rgb(96,96,88)"/>
<path d="M166 12h1v1h-1v-1z" fill="rgb(196,196,180)"/>
<path d="M167 12h1v1h-1v-1z" fill="rgb(147,147,135)"/>
<path d="M168 12h1v1h-1v-1z" fill="rgb(96,96,88)"/>
<path d="M169 12h1v1h-1v-1z" fill="rgb(173,173,159)"/>
<path d="M170 12h1v1h-1v-1z" fill="rgb(147,147,135)"/>
<path d="M171 12h2v1h-2v-1z" fill="rgb(96,96,88)"/>
<path d="M2 13h1v1h-1v-1z" fill="rgb(96,96,88)"/>
<path d="M3 13h1v1h-1v-1z" fill="rgb(173,173,159)"/>
<path d="M4 13h4v1h-4v-1z" fill="rgb(196,196,180)"/>
<path d="M15 13h4v1h-4v-1z" fill="rgb(173,173,159)"/>
<path d="M29 13h3v2h-3v-2z" fill="rgb(239,238,220)"/>
<path d="M92 13h3v2h-3v-2z" fill="rgb(239,238,220)"/>
<path d="M119 13h3v5h-3v-5z" fill="rgb(239,238,220)"/>
<path d="M157 13h4v1h-4v-1z" fill="rgb(173,173,159)"/>
<path d="M168 13h4v1h-4v-1z" fill="rgb(196,196,180)"/>
<path d="M172 13h1v1h-1v-1z" fill="rgb(173,173,159)"/>
<path d="M173 13h1v1h-1v-1z" fill="rgb(96,96,88)"/>
<path d="M3 14h2v1h-2v-1z" fill="rgb(96,96,88)"/>
<path d="M5 14h1v1h-1v-1z" fill="rgb(147,147,135)"/>
<path d="M6 14h1v1h-1v-1z" fill="rgb(173,173,159)"/>
<path d="M7 14h1v1h-1v-1z" fill="rgb(96,96,88)"/>
<path d="M8 14h1v1h-1v-1z" fill="rgb(147,147,135)"/>
<path d="M10 14h1v1h-1v-1z" fill="rgb(96,96,88)"/>
<path d="M12 14h1v1h1v1h-2v-2z" fill="rgb(96,96,88)"/>
<path d="M15 14h4v1h-3v1h-1v-2z" fill="rgb(96,96,88)"/>
<path d="M157 14h4v2h-1v-1h-3v-1z" fill="rgb(96,96,88)"/>
<path d="M163 14h1v2h-2v-1h1v-1z" fill="rgb(96,96,88)"/>
<path d="M165 14h1v1h-1v-1z" fill="rgb(96,96,88)"/>
<path d="M167 14h1v1h-1v-1z" fill="rgb(147,147,135)"/>
<path d="M168 14h1v1h-1v-1z" fill="rgb(96,96,88)"/>
<path d="M169 14h1v1h-1v-1z" fill="rgb(173,173,159)"/>
<path d="M170 14h1v1h-1v-1z" fill="rgb(147,147,135)"/>
<path d="M171 14h2v1h-2v-1z" fill="rgb(96,96,88)"/>
<path d="M5 15h2v1h-2v-1z" fill="rgb(96,96,88)"/>
<path d="M7 15h1v1h-1v-1z" fill="rgb(173,173,159)"/>
<path d="M8 15h1v1h-1v-1z" fill="rgb(196,196,180)"/>
<path d="M9 15h1v1h-1v-1z" fill="rgb(96,96,88)"/>
<path d="M10 15h1v1h-1v-1z" fill="rgb(173,173,159)"/>
<path d="M11 15h1v1h-1v-1z" fill="rgb(196,196,180)"/>
<path d="M164 15h1v1h-1v-1z" fill="rgb(196,196,180)"/>
<path d="M165 15h1v1h-1v-1z" fill="rgb(173,173,159)"/>
<path d="M166 15h1v1h-1v-1z" fill="rgb(96,96,88)"/>
<path d="M167 15h1v1h-1v-1z" fill="rgb(196,196,180)"/>
<path d="M168 15h1v1h-1v-1z" fill="rgb(173,173,159)"/>
<path d="M169 15h2v1h-2v-1z" fill="rgb(96,96,88)"/>
<path d="M7 16h2v1h-2v-1z" fill="rgb(96,96,88)"/>
<path d="M10 16h2v1h-2v-1z" fill="rgb(96,96,88)"/>
<path d="M14 16h1v1h-1v-1z" fill="rgb(96,96,88)"/>
<path d="M70 16h1v1h-1v-1z" fill="rgb(96,96,88)"/>
<path d="M73 16h1v2h-1v-2z" fill="rgb(96,96,88)"/>
<path d="M74 16h3v2h-3v-2z" fill="rgb(239,238,220)"/>
<path d="M161 16h1v1h-1v-1z" fill="rgb(96,96,88)"/>
<path d="M164 16h2v1h-2v-1z" fill="rgb(96,96,88)"/>
<path d="M167 16h2v1h-2v-1z" fill="rgb(96,96,88)"/>
<path d="M32 17h1v1h-1v-1z" fill="rgb(96,96,88)"/>
<path d="M67 17h1v1h-1v-1z" fill="rgb(96,96,88)"/>
<path d="M69 17h1v1h-1v-1z" fill="rgb(96,96,88)"/>
<path d="M95 17h1v1h-1v-1z" fill="rgb(96,96,88)"/>
<path d="M68 18h1v1h-1v-1z" fill="rgb(96,96,88)"/>
<path d="M97 20h1v1h-1v-1z" fill="rgb(96,96,88)"/>
<path d="M150 20h1v1h-1v-1z" fill="rgb(96,96,88)"/>
<path d="M0 26h176v1h-176v-1z" fill="rgb(147,147,135)"/>
<path d="M0 27h176v9h-176v-9z" fill="rgb(239,238,220)"/>
<path d="M43 29h1v4h-1v-4z" fill="rgb(147,147,135)"/>
<path d="M47 29h1v4h-1v-4z" fill="rgb(147,147,135)"/>
<path d="M49 29h3v1h-1v3h1v1h-3v-1h1v-3h-1v-1z" fill="rgb(147,147,135)"/>
<path d="M53 29h1v2h1v1h-1v2h-1v-5z" fill="rgb(147,147,135)"/>
<path d="M56 29h1v5h-1v-1h-1v-1h1v-3z" fill="rgb(147,147,135)"/>
<path d="M58 29h3v1h-1v4h-1v-4h-1v-1z" fill="rgb(147,147,135)"/>
<path d="M62 29h4v1h-3v1h2v1h-2v1h3v1h-4v-5z" fill="rgb(147,147,135)"/>
<path d="M67 29h3v1h-2v1h2v1h-2v2h-1v-5z" fill="rgb(147,147,135)"/>
<path d="M77 29h3v1h-3v-1z" fill="rgb(147,147,135)"/>
<path d="M83 29h2v1h-2v-1z" fill="rgb(147,147,135)"/>
<path d="M87 29h3v1h-1v4h-1v-4h-1v-1z" fill="rgb(147,147,135)"/>
<path d="M91 29h1v2h2v-2h1v5h-1v-2h-2v2h-1v-5z" fill="rgb(147,147,135)"/>
<path d="M104 29h1v2h-1v-2z" fill="rgb(147,147,135)"/>
<path d="M107 29h1v4h-1v-1h-2v-1h2v-2z" fill="rgb(147,147,135)"/>
<path d="M109 29h4v1h-3v1h2v1h-2v1h3v1h-4v-5z" fill="rgb(147,147,135)"/>
<path d="M115 29h2v1h-2v-1z" fill="rgb(147,147,135)"/>
<path d="M119 29h3v1h-2v1h2v1h-2v2h-1v-5z" fill="rgb(147,147,135)"/>
<path d="M130 29h2v1h-2v-1z" fill="rgb(147,147,135)"/>
<path d="M68 30h2v1h-2v-1z" fill="rgb(239,238,220)"/>
<path d="M70 30h1v1h-1v-1z" fill="rgb(147,147,135)"/>
<path d="M80 30h1v1h-1v-1z" fill="rgb(147,147,135)"/>
<path d="M82 30h1v3h-1v-3z" fill="rgb(147,147,135)"/>
<path d="M83 30h2v3h-2v-3z" fill="rgb(239,238,220)"/>
<path d="M85 30h1v3h-1v-3z" fill="rgb(147,147,135)"/>
<path d="M114 30h1v1h2v-1h1v4h-1v-2h-2v2h-1v-4z" fill="rgb(147,147,135)"/>
<path d="M115 30h2v1h-2v-1z" fill="rgb(239,238,220)"/>
<path d="M120 30h2v1h-2v-1z" fill="rgb(239,238,220)"/>
<path d="M122 30h1v1h-1v-1z" fill="rgb(147,147,135)"/>
<path d="M129 30h1v3h-1v-3z" fill="rgb(147,147,135)"/>
<path d="M130 30h2v3h-2v-3z" fill="rgb(239,238,220)"/>
<path d="M132 30h1v3h-1v-3z" fill="rgb(147,147,135)"/>
<path d="M45 31h1v2h-1v-2z" fill="rgb(147,147,135)"/>
<path d="M77 31h3v1h-3v-1z" fill="rgb(147,147,135)"/>
<path d="M70 32h1v2h-1v-2z" fill="rgb(147,147,135)"/>
<path d="M80 32h1v1h-1v-1z" fill="rgb(147,147,135)"/>
<path d="M122 32h1v2h-1v-2z" fill="rgb(147,147,135)"/>
<path d="M44 33h1v1h-1v-1z" fill="rgb(147,147,135)"/>
<path d="M46 33h1v1h-1v-1z" fill="rgb(147,147,135)"/>
<path d="M77 33h3v1h-3v-1z" fill="rgb(147,147,135)"/>
<path d="M83 33h2v1h-2v-1z" fill="rgb(147,147,135)"/>
<path d="M96 33h2v2h-1v-1h-1v-1z" fill="rgb(147,147,135)"/>
<path d="M104 33h3v1h-3v-1z" fill="rgb(147,147,135)"/>
<path d="M130 33h2v1h-2v-1z" fill="rgb(147,147,135)"/>
<path d="M0 36h176v2h-176v-2z" fill="rgb(147,147,135)"/>
<path d="M0 38h176v138h-176v-138z" fill="rgb(239,238,220)"/>
<path d="M5 44h1v3h2v-3h1v7h-1v-3h-2v3h-1v-7z" fill="rgb(96,96,88)"/>
<path d="M11 44h2v1h-2v-1z" fill="rgb(96,96,88)"/>
<path d="M15 44h3v1h-2v2h2v1h-2v3h-1v-7z" fill="rgb(96,96,88)"/>
<path d="M20 44h1v5h-1v-5z" fill="rgb(96,96,88)"/>
<path d="M24 44h1v5h-1v-5z" fill="rgb(96,96,88)"/>
<path d="M26 44h4v1h-3v2h2v1h-2v2h3v1h-4v-7z" fill="rgb(96,96,88)"/>
<path d="M32 44h3v1h-3v-1z" fill="rgb(96,96,88)"/>
<path d="M36 44h3v1h-1v6h-1v-6h-1v-1z" fill="rgb(96,96,88)"/>
<path d="M43 44h3v1h-2v2h2v1h-2v3h-1v-7z" fill="rgb(96,96,88)"/>
<path d="M48 44h1v6h3v1h-4v-7z" fill="rgb(96,96,88)"/>
<path d="M54 44h2v1h-2v-1z" fill="rgb(96,96,88)"/>
<path d="M58 44h1v2h1v1h-1v4h-1v-7z" fill="rgb(96,96,88)"/>
<path d="M61 44h1v7h-1v-3h-1v-1h1v-3z" fill="rgb(96,96,88)"/>
<path d="M64 44h3v1h-3v-1z" fill="rgb(96,96,88)"/>
<path d="M82 44h2v1h-2v-1z" fill="rgb(1,1,1)"/>
<path d="M86 44h3v1h-2v2h2v1h-2v3h-1v-7z" fill="rgb(1,1,1)"/>
<path d="M92 44h2v1h-2v-1z" fill="rgb(1,1,1)"/>
<path d="M96 44h3v1h-2v2h2v1h-2v3h-1v-7z" fill="rgb(1,1,1)"/>
<path d="M101 44h3v1h-1v6h-1v-6h-1v-1z" fill="rgb(1,1,1)"/>
<path d="M105 44h1v1h1v1h-1v5h-1v-7z" fill="rgb(1,1,1)"/>
<path d="M109 44h1v7h-1v-5h-1v-1h1v-1z" fill="rgb(1,1,1)"/>
<path d="M111 44h4v1h-3v2h2v1h-2v2h3v1h-4v-7z" fill="rgb(1,1,1)"/>
<path d="M116 44h1v2h1v1h-1v4h-1v-7z" fill="rgb(1,1,1)"/>
<path d="M119 44h1v7h-1v-3h-1v-1h1v-3z" fill="rgb(1,1,1)"/>
<path d="M121 44h3v1h-1v6h-1v-6h-1v-1z" fill="rgb(1,1,1)"/>
<path d="M126 44h3v1h-3v-1z" fill="rgb(1,1,1)"/>
<path d="M134 44h2v1h-2v-1z" fill="rgb(1,1,1)"/>
<path d="M138 44h3v1h-2v2h2v1h-2v2h2v1h-3v-7z" fill="rgb(1,1,1)"/>
<path d="M143 44h3v1h-2v2h2v1h-2v3h-1v-7z" fill="rgb(1,1,1)"/>
<path d="M149 44h2v1h-2v-1z" fill="rgb(1,1,1)"/>
<path d="M154 44h2v1h-2v-1z" fill="rgb(1,1,1)"/>
<path d="M158 44h3v1h-2v5h2v1h-3v-7z" fill="rgb(1,1,1)"/>
<path d="M10 45h1v2h2v-2h1v6h-1v-3h-2v3h-1v-6z" fill="rgb(96,96,88)"/>
<path d="M11 45h2v2h-2v-2z" fill="rgb(239,238,220)"/>
<path d="M16 45h2v2h-2v-2z" fill="rgb(239,238,220)"/>
<path d="M18 45h1v2h-1v-2z" fill="rgb(96,96,88)"/>
<path d="M31 45h1v2h-1v-2z" fill="rgb(96,96,88)"/>
<path d="M44 45h2v2h-2v-2z" fill="rgb(239,238,220)"/>
<path d="M46 45h1v2h-1v-2z" fill="rgb(96,96,88)"/>
<path d="M53 45h1v2h2v-2h1v6h-1v-3h-2v3h-1v-6z" fill="rgb(96,96,88)"/>
<path d="M54 45h2v2h-2v-2z" fill="rgb(239,238,220)"/>
<path d="M63 45h1v2h-1v-2z" fill="rgb(96,96,88)"/>
<path d="M81 45h1v2h2v-2h1v6h-1v-3h-2v3h-1v-6z" fill="rgb(1,1,1)"/>
<path d="M82 45h2v2h-2v-2z" fill="rgb(239,238,220)"/>
<path d="M87 45h2v2h-2v-2z" fill="rgb(239,238,220)"/>
<path d="M89 45h1v2h-1v-2z" fill="rgb(1,1,1)"/>
<path d="M91 45h1v2h2v-2h1v6h-1v-3h-2v3h-1v-6z" fill="rgb(1,1,1)"/>
<path d="M92 45h2v2h-2v-2z" fill="rgb(239,238,220)"/>
<path d="M97 45h2v2h-2v-2z" fill="rgb(239,238,220)"/>
<path d="M99 45h1v2h-1v-2z" fill="rgb(1,1,1)"/>
<path d="M125 45h1v2h-1v-2z" fill="rgb(1,1,1)"/>
<path d="M133 45h1v2h2v-2h1v6h-1v-3h-2v3h-1v-6z" fill="rgb(1,1,1)"/>
<path d="M134 45h2v2h-2v-2z" fill="rgb(239,238,220)"/>
<path d="M139 45h2v2h-2v-2z" fill="rgb(239,238,220)"/>
<path d="M141 45h1v2h-1v-2z" fill="rgb(1,1,1)"/>
<path d="M144 45h2v2h-2v-2z" fill="rgb(239,238,220)"/>
<path d="M146 45h1v2h-1v-2z" fill="rgb(1,1,1)"/>
<path d="M148 45h1v5h-1v-5z" fill="rgb(1,1,1)"/>
<path d="M149 45h2v5h-2v-5z" fill="rgb(239,238,220)"/>
<path d="M151 45h1v5h-1v-5z" fill="rgb(1,1,1)"/>
<path d="M153 45h1v2h2v-2h1v6h-1v-3h-2v3h-1v-6z" fill="rgb(1,1,1)"/>
<path d="M154 45h2v2h-2v-2z" fill="rgb(239,238,220)"/>
<path d="M159 45h2v5h-2v-5z" fill="rgb(239,238,220)"/>
<path d="M161 45h1v5h-1v-5z" fill="rgb(1,1,1)"/>
<path d="M107 46h1v1h-1v-1z" fill="rgb(1,1,1)"/>
<path d="M32 47h2v1h-2v-1z" fill="rgb(96,96,88)"/>
<path d="M64 47h2v1h-2v-1z" fill="rgb(96,96,88)"/>
<path d="M126 47h2v1h-2v-1z" fill="rgb(1,1,1)"/>
<path d="M18 48h1v3h-1v-3z" fill="rgb(96,96,88)"/>
<path d="M34 48h1v2h-1v-2z" fill="rgb(96,96,88)"/>
<path d="M66 48h1v2h-1v-2z" fill="rgb(96,96,88)"/>
<path d="M99 48h1v3h-1v-3z" fill="rgb(1,1,1)"/>
<path d="M128 48h1v2h-1v-2z" fill="rgb(1,1,1)"/>
<path d="M139 48h2v2h-2v-2z" fill="rgb(239,238,220)"/>
<path d="M141 48h1v2h-1v-2z" fill="rgb(1,1,1)"/>
<path d="M146 48h1v3h-1v-3z" fill="rgb(1,1,1)"/>
<path d="M21 49h1v1h-1v-1z" fill="rgb(96,96,88)"/>
<path d="M23 49h1v1h-1v-1z" fill="rgb(96,96,88)"/>
<path d="M22 50h1v1h-1v-1z" fill="rgb(96,96,88)"/>
<path d="M31 50h3v1h-3v-1z" fill="rgb(96,96,88)"/>
<path d="M63 50h3v1h-3v-1z" fill="rgb(96,96,88)"/>
<path d="M125 50h3v1h-3v-1z" fill="rgb(1,1,1)"/>
<path d="M149 50h2v1h-2v-1z" fill="rgb(1,1,1)"/>
<path d="M6 53h2v1h-2v-1z" fill="rgb(147,147,135)"/>
<path d="M9 53h2v1h-1v1h1v1h-1v2h-1v-5z" fill="rgb(147,147,135)"/>
<path d="M13 53h2v1h-1v1h1v1h-1v2h-1v-5z" fill="rgb(147,147,135)"/>
<path d="M17 53h1v5h-1v-5z" fill="rgb(147,147,135)"/>
<path d="M19 53h1v1h1v1h-1v3h-1v-5z" fill="rgb(147,147,135)"/>
<path d="M22 53h1v5h-1v-2h-1v-1h1v-2z" fill="rgb(147,147,135)"/>
<path d="M25 53h2v1h-2v-1z" fill="rgb(147,147,135)"/>
<path d="M30 53h3v1h-1v3h1v1h-3v-1h1v-3h-1v-1z" fill="rgb(147,147,135)"/>
<path d="M35 53h2v1h-2v-1z" fill="rgb(147,147,135)"/>
<path d="M40 53h1v4h-1v-4z" fill="rgb(147,147,135)"/>
<path d="M42 53h1v4h-1v-4z" fill="rgb(147,147,135)"/>
<path d="M44 53h2v1h-1v1h1v1h-1v2h-1v-5z" fill="rgb(147,147,135)"/>
<path d="M49 53h1v1h-1v-1z" fill="rgb(147,147,135)"/>
<path d="M52 53h1v1h1v1h-1v3h-1v-5z" fill="rgb(147,147,135)"/>
<path d="M55 53h1v5h-1v-2h-1v-1h1v-2z" fill="rgb(147,147,135)"/>
<path d="M59 53h1v4h-1v-4z" fill="rgb(147,147,135)"/>
<path d="M61 53h1v4h-1v-4z" fill="rgb(147,147,135)"/>
<path d="M64 53h2v1h-2v-1z" fill="rgb(147,147,135)"/>
<path d="M91 53h2v1h-1v3h1v1h-2v-5z" fill="rgb(147,147,135)"/>
<path d="M95 53h3v1h-2v1h1v1h-1v1h2v1h-3v-5z" fill="rgb(147,147,135)"/>
<path d="M100 53h1v1h-1v-1z" fill="rgb(147,147,135)"/>
<path d="M103 53h1v4h2v1h-3v-5z" fill="rgb(147,147,135)"/>
<path d="M108 53h2v1h-2v-1z" fill="rgb(147,147,135)"/>
<path d="M113 53h3v1h-2v1h1v1h-1v2h-1v-5z" fill="rgb(147,147,135)"/>
<path d="M117 53h2v1h-1v1h1v1h-1v2h-1v-5z" fill="rgb(147,147,135)"/>
<path d="M122 53h1v1h-1v-1z" fill="rgb(147,147,135)"/>
<path d="M125 53h1v1h1v1h-1v3h-1v-5z" fill="rgb(147,147,135)"/>
<path d="M129 53h1v5h-1v-3h-1v-1h1v-1z" fill="rgb(147,147,135)"/>
<path d="M134 53h1v1h-1v-1z" fill="rgb(147,147,135)"/>
<path d="M137 53h3v1h-2v1h1v1h-1v2h-1v-5z" fill="rgb(147,147,135)"/>
<path d="M142 53h1v1h-1v-1z" fill="rgb(147,147,135)"/>
<path d="M145 53h2v1h-1v1h1v1h-1v2h-1v-5z" fill="rgb(147,147,135)"/>
<path d="M5 54h1v1h-1v-1z" fill="rgb(147,147,135)"/>
<path d="M10 54h1v1h-1v-1z" fill="rgb(239,238,220)"/>
<path d="M11 54h1v1h-1v-1z" fill="rgb(147,147,135)"/>
<path d="M14 54h1v1h-1v-1z" fill="rgb(239,238,220)"/>
<path d="M15 54h1v1h-1v-1z" fill="rgb(147,147,135)"/>
<path d="M24 54h1v3h-1v-3z" fill="rgb(147,147,135)"/>
<path d="M34 54h1v1h-1v-1z" fill="rgb(147,147,135)"/>
<path d="M45 54h1v1h-1v-1z" fill="rgb(239,238,220)"/>
<path d="M46 54h1v1h-1v-1z" fill="rgb(147,147,135)"/>
<path d="M48 54h1v3h-1v-3z" fill="rgb(147,147,135)"/>
<path d="M49 54h1v3h-1v-3z" fill="rgb(239,238,220)"/>
<path d="M50 54h1v3h-1v-3z" fill="rgb(147,147,135)"/>
<path d="M63 54h1v1h-1v-1z" fill="rgb(147,147,135)"/>
<path d="M92 54h1v3h-1v-3z" fill="rgb(239,238,220)"/>
<path d="M93 54h1v3h-1v-3z" fill="rgb(147,147,135)"/>
<path d="M99 54h1v1h1v-1h1v4h-1v-2h-1v2h-1v-4z" fill="rgb(147,147,135)"/>
<path d="M100 54h1v1h-1v-1z" fill="rgb(239,238,220)"/>
<path d="M107 54h1v1h-1v-1z" fill="rgb(147,147,135)"/>
<path d="M118 54h1v1h-1v-1z" fill="rgb(239,238,220)"/>
<path d="M119 54h1v1h-1v-1z" fill="rgb(147,147,135)"/>
<path d="M121 54h1v3h-1v-3z" fill="rgb(147,147,135)"/>
<path d="M122 54h1v3h-1v-3z" fill="rgb(239,238,220)"/>
<path d="M123 54h1v3h-1v-3z" fill="rgb(147,147,135)"/>
<path d="M133 54h1v1h1v-1h1v4h-1v-2h-1v2h-1v-4z" fill="rgb(147,147,135)"/>
<path d="M134 54h1v1h-1v-1z" fill="rgb(239,238,220)"/>
<path d="M141 54h1v1h1v-1h1v4h-1v-2h-1v2h-1v-4z" fill="rgb(147,147,135)"/>
<path d="M142 54h1v1h-1v-1z" fill="rgb(239,238,220)"/>
<path d="M146 54h1v1h-1v-1z" fill="rgb(239,238,220)"/>
<path d="M147 54h1v1h-1v-1z" fill="rgb(147,147,135)"/>
<path d="M6 55h1v1h-1v-1z" fill="rgb(147,147,135)"/>
<path d="M26 55h1v3h-2v-1h1v-2z" fill="rgb(147,147,135)"/>
<path d="M35 55h1v1h-1v-1z" fill="rgb(147,147,135)"/>
<path d="M64 55h1v1h-1v-1z" fill="rgb(147,147,135)"/>
<path d="M108 55h1v1h-1v-1z" fill="rgb(147,147,135)"/>
<path d="M127 55h1v1h-1v-1z" fill="rgb(147,147,135)"/>
<path d="M7 56h1v1h-1v-1z" fill="rgb(147,147,135)"/>
<path d="M15 56h1v2h-1v-2z" fill="rgb(147,147,135)"/>
<path d="M36 56h1v1h-1v-1z" fill="rgb(147,147,135)"/>
<path d="M65 56h1v1h-1v-1z" fill="rgb(147,147,135)"/>
<path d="M109 56h1v1h-1v-1z" fill="rgb(147,147,135)"/>
<path d="M119 56h1v2h-1v-2z" fill="rgb(147,147,135)"/>
<path d="M147 56h1v2h-1v-2z" fill="rgb(147,147,135)"/>
<path d="M5 57h2v1h-2v-1z" fill="rgb(147,147,135)"/>
<path d="M34 57h2v1h-2v-1z" fill="rgb(147,147,135)"/>
<path d="M41 57h1v1h-1v-1z" fill="rgb(147,147,135)"/>
<path d="M49 57h1v1h-1v-1z" fill="rgb(147,147,135)"/>
<path d="M60 57h1v1h-1v-1z" fill="rgb(147,147,135)"/>
<path d="M63 57h2v1h-2v-1z" fill="rgb(147,147,135)"/>
<path d="M107 57h2v1h-2v-1z" fill="rgb(147,147,135)"/>
<path d="M122 57h1v1h-1v-1z" fill="rgb(147,147,135)"/>
<path d="M5 61h23v3h-23v-3z" fill="rgb(196,196,180)"/>
<path d="M29 61h16v3h-16v-3z" fill="rgb(196,196,180)"/>
<path d="M46 61h21v3h-21v-3z" fill="rgb(196,196,180)"/>
<path d="M75 64h44v1h-44v-1z" fill="rgb(96,96,88)"/>
<path d="M125 64h44v1h-44v-1z" fill="rgb(96,96,88)"/>
<path d="M5 65h21v3h-21v-3z" fill="rgb(196,196,180)"/>
<path d="M27 65h40v3h-40v-3z" fill="rgb(196,196,180)"/>
<path d="M74 65h1v23h-1v-23z" fill="rgb(96,96,88)"/>
<path d="M75 65h9v1h-1v1h-1v1h-1v1h-1v1h-1v1h-1v1h-1v1h-1v1h-1v-9z" fill="rgb(147,147,135)"/>
<path d="M84 65h1v1h-1v-1z" fill="rgb(173,173,159)"/>
<path d="M85 65h12v1h-1v2h-2v1h-5v-1h-1v-1h-1v-1h-2v-1z" fill="rgb(147,147,135)"/>
<path d="M97 65h1v2h-1v12h1v1h-1v8h-13v-22h1v3h9v-1h2v-2h1v-1z" fill="rgb(196,196,180)"/>
<path d="M98 65h21v22h-2v-1h-2v-1h-1v-1h-1v-1h-2v-1h-1v-1h-1v-1h-1v-1h-1v-1h-1v-1h-1v-1
	h-1v-2h-1v-1h-1v-2h-1v-1h-1v-2h-1v-1h-1v-2z" fill="rgb(147,147,135)"/>
<path d="M119 65h1v23h-1v-23z" fill="rgb(96,96,88)"/>
<path d="M124 65h1v23h-1v-23z" fill="rgb(96,96,88)"/>
<path d="M125 65h22v3h-1v1h-3v1h-2v1h1v1h-3v1h-3v3h-1v1h1v2h-1v1h1v1h5v5h1v2h-17v-23z" fill="rgb(147,147,135)"/>
<path d="M147 65h1v3h1v1h-3v-1h1v-3z" fill="rgb(196,196,180)"/>
<path d="M148 65h21v23h-16v-2h1v-5h5v-1h1v-1h-1v-2h1v-1h-1v-3h-3v-1h-3v-1h1v-1h-2v-1h-3
	v-1h-1v-3z" fill="rgb(147,147,135)"/>
<path d="M169 65h1v23h-1v-23z" fill="rgb(96,96,88)"/>
<path d="M83 66h1v1h-1v-1z" fill="rgb(173,173,159)"/>
<path d="M85 66h1v3h-1v-3z" fill="rgb(217,217,199)"/>
<path d="M86 66h1v1h-1v-1z" fill="rgb(173,173,159)"/>
<path d="M82 67h1v1h-1v-1z" fill="rgb(173,173,159)"/>
<path d="M83 67h1v10h-1v1h-1v1h-1v1h-1v-10h1v-1h1v-1h1v-1z" fill="rgb(147,147,135)"/>
<path d="M86 67h1v1h1v1h-2v-2z" fill="rgb(147,147,135)"/>
<path d="M87 67h1v1h-1v-1z" fill="rgb(173,173,159)"/>
<path d="M97 67h1v12h-1v-12z" fill="rgb(217,217,199)"/>
<path d="M98 67h1v1h-1v-1z" fill="rgb(196,196,180)"/>
<path d="M81 68h1v1h-1v-1z" fill="rgb(173,173,159)"/>
<path d="M88 68h1v1h-1v-1z" fill="rgb(173,173,159)"/>
<path d="M98 68h1v2h1v11h-1v-1h-1v-12z" fill="rgb(147,147,135)"/>
<path d="M99 68h1v1h-1v-1z" fill="rgb(196,196,180)"/>
<path d="M5 69h31v3h-31v-3z" fill="rgb(196,196,180)"/>
<path d="M37 69h30v3h-30v-3z" fill="rgb(196,196,180)"/>
<path d="M80 69h1v1h-1v-1z" fill="rgb(173,173,159)"/>
<path d="M99 69h1v1h-1v-1z" fill="rgb(217,217,199)"/>
<path d="M143 69h9v1h-9v-1z" fill="rgb(173,173,159)"/>
<path d="M79 70h1v1h-1v-1z" fill="rgb(173,173,159)"/>
<path d="M100 70h1v1h1v1h-1v11h1v1h-1v4h-1v-18z" fill="rgb(217,217,199)"/>
<path d="M141 70h13v1h-1v1h3v1h3v1h-23v-1h3v-1h3v-1h-1v-1z" fill="rgb(217,217,199)"/>
<path d="M78 71h1v1h-1v-1z" fill="rgb(173,173,159)"/>
<path d="M79 71h1v10h-1v-10z" fill="rgb(196,196,180)"/>
<path d="M86 71h1v1h-1v-1z" fill="rgb(217,217,199)"/>
<path d="M87 71h2v2h-1v1h-1v1h-1v-3h1v-1z" fill="rgb(147,147,135)"/>
<path d="M89 71h1v2h-1v-2z" fill="rgb(217,217,199)"/>
<path d="M90 71h1v1h-1v-1z" fill="rgb(173,173,159)"/>
<path d="M92 71h1v3h-1v-3z" fill="rgb(147,147,135)"/>
<path d="M94 71h1v1h1v5h-1v-1h-1v-5z" fill="rgb(147,147,135)"/>
<path d="M77 72h1v1h-1v-1z" fill="rgb(173,173,159)"/>
<path d="M78 72h1v9h-2v1h-1v-8h1v-1h1v-1z" fill="rgb(147,147,135)"/>
<path d="M90 72h1v1h-1v-1z" fill="rgb(196,196,180)"/>
<path d="M91 72h1v2h-1v-2z" fill="rgb(173,173,159)"/>
<path d="M101 72h1v1h-1v-1z" fill="rgb(196,196,180)"/>
<path d="M5 73h17v3h-17v-3z" fill="rgb(196,196,180)"/>
<path d="M23 73h26v3h-26v-3z" fill="rgb(196,196,180)"/>
<path d="M50 73h17v3h-17v-3z" fill="rgb(196,196,180)"/>
<path d="M76 73h1v1h-1v-1z" fill="rgb(173,173,159)"/>
<path d="M90 73h1v1h1v1h1v3h-3v-5z" fill="rgb(147,147,135)"/>
<path d="M101 73h1v1h1v10h-1v-1h-1v-10z" fill="rgb(147,147,135)"/>
<path d="M102 73h1v1h-1v-1z" fill="rgb(196,196,180)"/>
<path d="M75 74h1v1h-1v-1z" fill="rgb(173,173,159)"/>
<path d="M87 74h1v1h-1v-1z" fill="rgb(196,196,180)"/>
<path d="M88 74h1v4h-2v-1h-1v-1h1v-1h1v-1z" fill="rgb(147,147,135)"/>
<path d="M92 74h1v1h-1v-1z" fill="rgb(173,173,159)"/>
<path d="M103 74h1v1h-1v-1z" fill="rgb(217,217,199)"/>
<path d="M136 74h23v1h-23v-1z" fill="rgb(173,173,159)"/>
<path d="M75 75h1v7h-1v-7z" fill="rgb(196,196,180)"/>
<path d="M103 75h1v1h-1v-1z" fill="rgb(196,196,180)"/>
<path d="M136 75h23v1h-23v-1z" fill="rgb(217,217,199)"/>
<path d="M94 76h1v1h-1v-1z" fill="rgb(173,173,159)"/>
<path d="M103 76h2v1h-1v11h-1v-12z" fill="rgb(217,217,199)"/>
<path d="M135 76h25v1h-1v2h-23v-2h-1v-1z" fill="rgb(173,173,159)"/>
<path d="M5 77h22v3h-22v-3z" fill="rgb(196,196,180)"/>
<path d="M28 77h39v3h-39v-3z" fill="rgb(196,196,180)"/>
<path d="M83 77h1v1h-1v-1z" fill="rgb(173,173,159)"/>
<path d="M86 77h1v1h-1v-1z" fill="rgb(217,217,199)"/>
<path d="M94 77h1v1h-1v-1z" fill="rgb(147,147,135)"/>
<path d="M95 77h1v1h-1v-1z" fill="rgb(173,173,159)"/>
<path d="M104 77h1v1h1v7h-2v-8z" fill="rgb(147,147,135)"/>
<path d="M105 77h1v1h-1v-1z" fill="rgb(217,217,199)"/>
<path d="M82 78h1v1h-1v-1z" fill="rgb(173,173,159)"/>
<path d="M83 78h1v10h-1v-10z" fill="rgb(217,217,199)"/>
<path d="M106 78h1v8h1v1h-1v1h-1v-2h-1v-1h1v-7z" fill="rgb(217,217,199)"/>
<path d="M81 79h1v1h-1v-1z" fill="rgb(173,173,159)"/>
<path d="M82 79h1v9h-3v-7h1v-1h1v-1z" fill="rgb(147,147,135)"/>
<path d="M107 79h1v1h-1v-1z" fill="rgb(196,196,180)"/>
<path d="M135 79h2v1h-2v-1z" fill="rgb(217,217,199)"/>
<path d="M137 79h1v1h-1v-1z" fill="rgb(196,196,180)"/>
<path d="M138 79h1v1h-1v-1z" fill="rgb(217,217,199)"/>
<path d="M139 79h1v1h-1v-1z" fill="rgb(196,196,180)"/>
<path d="M140 79h1v1h-1v-1z" fill="rgb(217,217,199)"/>
<path d="M141 79h1v1h-1v-1z" fill="rgb(196,196,180)"/>
<path d="M142 79h1v1h-1v-1z" fill="rgb(217,217,199)"/>
<path d="M143 79h1v1h-1v-1z" fill="rgb(196,196,180)"/>
<path d="M144 79h1v1h-1v-1z" fill="rgb(217,217,199)"/>
<path d="M145 79h1v1h-1v-1z" fill="rgb(196,196,180)"/>
<path d="M146 79h1v1h-1v-1z" fill="rgb(217,217,199)"/>
<path d="M147 79h1v1h-1v-1z" fill="rgb(196,196,180)"/>
<path d="M148 79h1v1h-1v-1z" fill="rgb(217,217,199)"/>
<path d="M149 79h1v1h-1v-1z" fill="rgb(196,196,180)"/>
<path d="M150 79h1v1h-1v-1z" fill="rgb(217,217,199)"/>
<path d="M151 79h1v1h-1v-1z" fill="rgb(196,196,180)"/>
<path d="M152 79h1v1h-1v-1z" fill="rgb(217,217,199)"/>
<path d="M153 79h1v1h-1v-1z" fill="rgb(196,196,180)"/>
<path d="M154 79h1v1h-1v-1z" fill="rgb(217,217,199)"/>
<path d="M155 79h1v1h-1v-1z" fill="rgb(196,196,180)"/>
<path d="M156 79h1v1h-1v-1z" fill="rgb(217,217,199)"/>
<path d="M157 79h1v1h-1v-1z" fill="rgb(196,196,180)"/>
<path d="M158 79h1v1h-1v-1z" fill="rgb(217,217,199)"/>
<path d="M159 79h1v1h-1v-1z" fill="rgb(196,196,180)"/>
<path d="M80 80h1v1h-1v-1z" fill="rgb(173,173,159)"/>
<path d="M86 80h1v7h-1v-7z" fill="rgb(217,217,199)"/>
<path d="M87 80h2v7h-2v-7z" fill="rgb(147,147,135)"/>
<path d="M90 80h3v7h-3v-7z" fill="rgb(147,147,135)"/>
<path d="M94 80h2v7h-2v-7z" fill="rgb(147,147,135)"/>
<path d="M97 80h1v8h-1v-8z" fill="rgb(217,217,199)"/>
<path d="M98 80h1v1h-1v-1z" fill="rgb(196,196,180)"/>
<path d="M107 80h1v1h1v6h-1v-1h-1v-6z" fill="rgb(147,147,135)"/>
<path d="M108 80h1v1h-1v-1z" fill="rgb(217,217,199)"/>
<path d="M136 80h1v1h-1v-1z" fill="rgb(196,196,180)"/>
<path d="M137 80h1v1h-1v-1z" fill="rgb(217,217,199)"/>
<path d="M138 80h1v1h-1v-1z" fill="rgb(196,196,180)"/>
<path d="M139 80h1v1h-1v-1z" fill="rgb(217,217,199)"/>
<path d="M140 80h1v1h-1v-1z" fill="rgb(196,196,180)"/>
<path d="M141 80h1v1h1v5h1v2h-2v-2h-1v-6z" fill="rgb(217,217,199)"/>
<path d="M142 80h1v1h-1v-1z" fill="rgb(196,196,180)"/>
<path d="M143 80h1v1h-1v-1z" fill="rgb(217,217,199)"/>
<path d="M144 80h1v1h1v7h-1v-4h-1v-4z" fill="rgb(196,196,180)"/>
<path d="M145 80h1v1h-1v-1z" fill="rgb(217,217,199)"/>
<path d="M146 80h1v1h-1v-1z" fill="rgb(196,196,180)"/>
<path d="M147 80h1v1h-1v-1z" fill="rgb(217,217,199)"/>
<path d="M148 80h1v1h-1v-1z" fill="rgb(196,196,180)"/>
<path d="M149 80h1v1h-1v-1z" fill="rgb(217,217,199)"/>
<path d="M150 80h1v4h-1v4h-1v-7h1v-1z" fill="rgb(196,196,180)"/>
<path d="M151 80h1v1h-1v-1z" fill="rgb(217,217,199)"/>
<path d="M152 80h1v1h-1v-1z" fill="rgb(196,196,180)"/>
<path d="M153 80h1v6h-1v2h-2v-2h1v-5h1v-1z" fill="rgb(217,217,199)"/>
<path d="M154 80h1v1h-1v-1z" fill="rgb(196,196,180)"/>
<path d="M155 80h1v1h-1v-1z" fill="rgb(217,217,199)"/>
<path d="M156 80h1v1h-1v-1z" fill="rgb(196,196,180)"/>
<path d="M157 80h1v1h-1v-1z" fill="rgb(217,217,199)"/>
<path d="M158 80h1v1h-1v-1z" fill="rgb(196,196,180)"/>
<path d="M5 81h28v3h-28v-3z" fill="rgb(196,196,180)"/>
<path d="M34 81h20v3h-20v-3z" fill="rgb(196,196,180)"/>
<path d="M55 81h12v3h-12v-3z" fill="rgb(196,196,180)"/>
<path d="M77 81h3v1h-3v-1z" fill="rgb(173,173,159)"/>
<path d="M98 81h1v1h1v6h-2v-7z" fill="rgb(147,147,135)"/>
<path d="M99 81h1v1h-1v-1z" fill="rgb(196,196,180)"/>
<path d="M109 81h1v1h-1v-1z" fill="rgb(196,196,180)"/>
<path d="M143 81h1v3h1v4h-1v-2h-1v-5z" fill="rgb(147,147,135)"/>
<path d="M146 81h3v7h-3v-7z" fill="rgb(173,173,159)"/>
<path d="M151 81h1v5h-1v2h-1v-4h1v-3z" fill="rgb(147,147,135)"/>
<path d="M75 82h2v1h-2v-1z" fill="rgb(173,173,159)"/>
<path d="M77 82h2v6h-3v-5h1v-1z" fill="rgb(147,147,135)"/>
<path d="M79 82h1v6h-1v-6z" fill="rgb(196,196,180)"/>
<path d="M109 82h1v6h-1v-6z" fill="rgb(217,217,199)"/>
<path d="M110 82h1v1h-1v-1z" fill="rgb(196,196,180)"/>
<path d="M75 83h1v5h-1v-5z" fill="rgb(196,196,180)"/>
<path d="M110 83h1v1h1v4h-2v-5z" fill="rgb(147,147,135)"/>
<path d="M111 83h2v1h1v1h-1v3h-1v-4h-1v-1z" fill="rgb(217,217,199)"/>
<path d="M101 84h1v1h1v3h-2v-4z" fill="rgb(147,147,135)"/>
<path d="M102 84h1v1h-1v-1z" fill="rgb(196,196,180)"/>
<path d="M5 85h11v3h-11v-3z" fill="rgb(196,196,180)"/>
<path d="M17 85h10v3h-10v-3z" fill="rgb(196,196,180)"/>
<path d="M28 85h32v3h-32v-3z" fill="rgb(196,196,180)"/>
<path d="M61 85h6v3h-6v-3z" fill="rgb(196,196,180)"/>
<path d="M104 85h1v1h-1v-1z" fill="rgb(196,196,180)"/>
<path d="M113 85h1v1h1v2h-2v-3z" fill="rgb(147,147,135)"/>
<path d="M114 85h1v1h-1v-1z" fill="rgb(196,196,180)"/>
<path d="M104 86h2v2h-2v-2z" fill="rgb(147,147,135)"/>
<path d="M115 86h2v1h-1v1h-1v-2z" fill="rgb(217,217,199)"/>
<path d="M107 87h1v1h-1v-1z" fill="rgb(147,147,135)"/>
<path d="M108 87h1v1h-1v-1z" fill="rgb(196,196,180)"/>
<path d="M116 87h1v1h-1v-1z" fill="rgb(147,147,135)"/>
<path d="M117 87h1v1h-1v-1z" fill="rgb(196,196,180)"/>
<path d="M118 87h1v1h-1v-1z" fill="rgb(217,217,199)"/>
<path d="M75 88h44v1h-44v-1z" fill="rgb(96,96,88)"/>
<path d="M125 88h44v1h-44v-1z" fill="rgb(96,96,88)"/>
<path d="M5 89h21v3h-21v-3z" fill="rgb(196,196,180)"/>
<path d="M27 89h16v3h-16v-3z" fill="rgb(196,196,180)"/>
<path d="M44 89h23v3h-23v-3z" fill="rgb(196,196,180)"/>
<path d="M5 93h40v3h-40v-3z" fill="rgb(196,196,180)"/>
<path d="M46 93h21v3h-21v-3z" fill="rgb(196,196,180)"/>
<path d="M75 93h44v1h-44v-1z" fill="rgb(96,96,88)"/>
<path d="M125 93h44v1h-44v-1z" fill="rgb(96,96,88)"/>
<path d="M74 94h1v23h-1v-23z" fill="rgb(96,96,88)"/>
<path d="M75 94h14v1h-1v1h-1v7h1v11h1v3h-14v-23z" fill="rgb(147,147,135)"/>
<path d="M89 94h1v3h-2v1h-1v-2h1v-1h1v-1z" fill="rgb(217,217,199)"/>
<path d="M90 94h29v23h-19v-1h-1v-1h-1v-1h-1v-1h-1v-4h2v-1h-2v-2h1v-1h-2v1h-1v-2h-1v2h-1
	v-1h-1v2h-1v-13z" fill="rgb(147,147,135)"/>
<path d="M119 94h1v23h-1v-23z" fill="rgb(96,96,88)"/>
<path d="M124 94h1v23h-1v-23z" fill="rgb(96,96,88)"/>
<path d="M125 94h44v23h-44v-23z" fill="rgb(147,147,135)"/>
<path d="M169 94h1v23h-1v-23z" fill="rgb(96,96,88)"/>
<path d="M146 95h1v2h1v-2h1v2h2v1h2v1h1v3h-3v-2h-1v-1h-1v5h3v1h1v1h1v5h-1v1h-1v1h-3v2h-1
	v-2h-1v2h-1v-2h-3v-1h-1v-1h-1v-3h3v2h1v1h1v-5h-3v-1h-1v-1h-1v-5h1v-1h2v-1h2v-2
	z" fill="rgb(196,196,180)"/>
<path d="M5 97h30v3h-30v-3z" fill="rgb(196,196,180)"/>
<path d="M36 97h31v3h-31v-3z" fill="rgb(196,196,180)"/>
<path d="M88 97h2v1h-2v-1z" fill="rgb(196,196,180)"/>
<path d="M87 98h3v9h1v-2h1v1h1v1h-1v1h-2v2h-1v-7h-1v-4h-1v-1z" fill="rgb(173,173,159)"/>
<path d="M87 99h1v2h-1v-2z" fill="rgb(217,217,199)"/>
<path d="M145 99h1v5h-1v-1h-1v-3h1v-1z" fill="rgb(147,147,135)"/>
<path d="M147 99h1v5h-1v-5z" fill="rgb(147,147,135)"/>
<path d="M5 101h17v3h-17v-3z" fill="rgb(196,196,180)"/>
<path d="M23 101h26v3h-26v-3z" fill="rgb(196,196,180)"/>
<path d="M50 101h17v3h-17v-3z" fill="rgb(196,196,180)"/>
<path d="M87 101h1v2h-1v-2z" fill="rgb(196,196,180)"/>
<path d="M88 103h1v4h-1v-4z" fill="rgb(217,217,199)"/>
<path d="M93 104h1v2h-1v-2z" fill="rgb(173,173,159)"/>
<path d="M5 105h39v3h-39v-3z" fill="rgb(196,196,180)"/>
<path d="M45 105h22v3h-22v-3z" fill="rgb(196,196,180)"/>
<path d="M95 105h2v1h-1v1h-2v-1h1v-1z" fill="rgb(173,173,159)"/>
<path d="M93 106h1v1h2v1h-2v1h1v1h-2v-1h-1v1h-1v-2h1v-1h1v-1z" fill="rgb(196,196,180)"/>
<path d="M147 106h1v5h-1v-5z" fill="rgb(147,147,135)"/>
<path d="M149 106h1v1h1v3h-1v1h-1v-5z" fill="rgb(147,147,135)"/>
<path d="M88 107h1v7h-1v-7z" fill="rgb(196,196,180)"/>
<path d="M90 108h1v1h-1v-1z" fill="rgb(147,147,135)"/>
<path d="M94 108h4v1h-2v4h1v1h-2v-1h-1v-1h-1v-2h2v-1h-1v-1z" fill="rgb(173,173,159)"/>
<path d="M5 109h12v3h-12v-3z" fill="rgb(196,196,180)"/>
<path d="M18 109h20v3h-20v-3z" fill="rgb(196,196,180)"/>
<path d="M39 109h28v3h-28v-3z" fill="rgb(196,196,180)"/>
<path d="M90 109h1v1h-1v-1z" fill="rgb(217,217,199)"/>
<path d="M92 109h1v1h-1v-1z" fill="rgb(173,173,159)"/>
<path d="M89 110h1v2h-1v-2z" fill="rgb(217,217,199)"/>
<path d="M90 110h1v1h-1v-1z" fill="rgb(196,196,180)"/>
<path d="M91 110h1v2h-1v3h-1v1h-1v-4h1v-1h1v-1z" fill="rgb(173,173,159)"/>
<path d="M92 110h1v2h1v1h1v1h-2v-1h-1v2h1v1h1v-1h1v-1h2v3h-8v-1h1v-1h1v-3h1v-2z" fill="rgb(196,196,180)"/>
<path d="M94 111h1v1h-1v-1z" fill="rgb(196,196,180)"/>
<path d="M5 113h6v3h-6v-3z" fill="rgb(196,196,180)"/>
<path d="M12 113h32v3h-32v-3z" fill="rgb(196,196,180)"/>
<path d="M45 113h10v3h-10v-3z" fill="rgb(196,196,180)"/>
<path d="M56 113h11v3h-11v-3z" fill="rgb(196,196,180)"/>
<path d="M92 113h1v1h2v1h-3v-2z" fill="rgb(217,217,199)"/>
<path d="M97 114h1v1h1v1h-1v1h-1v-3z" fill="rgb(173,173,159)"/>
<path d="M93 115h1v1h-1v-1z" fill="rgb(173,173,159)"/>
<path d="M98 116h2v1h-2v-1z" fill="rgb(196,196,180)"/>
<path d="M5 117h31v3h-31v-3z" fill="rgb(196,196,180)"/>
<path d="M37 117h30v3h-30v-3z" fill="rgb(196,196,180)"/>
<path d="M75 117h44v1h-44v-1z" fill="rgb(96,96,88)"/>
<path d="M125 117h44v1h-44v-1z" fill="rgb(96,96,88)"/>
<path d="M5 121h17v3h-17v-3z" fill="rgb(196,196,180)"/>
<path d="M23 121h26v3h-26v-3z" fill="rgb(196,196,180)"/>
<path d="M50 121h17v3h-17v-3z" fill="rgb(196,196,180)"/>
<path d="M5 125h22v3h-22v-3z" fill="rgb(196,196,180)"/>
<path d="M28 125h39v3h-39v-3z" fill="rgb(196,196,180)"/>
<path d="M73 125h3v1h-1v6h-1v-6h-1v-1z" fill="rgb(96,96,88)"/>
<path d="M77 125h1v3h2v-3h1v7h-1v-3h-2v3h-1v-7z" fill="rgb(96,96,88)"/>
<path d="M82 125h3v1h-1v5h1v1h-3v-1h1v-5h-1v-1z" fill="rgb(96,96,88)"/>
<path d="M86 125h3v1h-2v2h2v1h-2v3h-1v-7z" fill="rgb(96,96,88)"/>
<path d="M91 125h3v1h-2v5h2v1h-3v-7z" fill="rgb(96,96,88)"/>
<path d="M99 125h3v1h-2v2h2v1h-2v2h2v1h-3v-7z" fill="rgb(96,96,88)"/>
<path d="M105 125h2v1h-2v-1z" fill="rgb(96,96,88)"/>
<path d="M109 125h3v1h-2v2h2v1h-2v2h2v1h-3v-7z" fill="rgb(96,96,88)"/>
<path d="M114 125h1v3h-1v-3z" fill="rgb(96,96,88)"/>
<path d="M117 125h1v6h-1v-2h-2v-1h2v-3z" fill="rgb(96,96,88)"/>
<path d="M122 125h3v1h-1v6h-1v-6h-1v-1z" fill="rgb(96,96,88)"/>
<path d="M126 125h1v3h2v-3h1v7h-1v-3h-2v3h-1v-7z" fill="rgb(96,96,88)"/>
<path d="M131 125h3v1h-1v5h1v1h-3v-1h1v-5h-1v-1z" fill="rgb(96,96,88)"/>
<path d="M136 125h3v1h-3v-1z" fill="rgb(96,96,88)"/>
<path d="M143 125h1v1h1v1h-1v5h-1v-7z" fill="rgb(96,96,88)"/>
<path d="M147 125h1v7h-1v-5h-1v-1h1v-1z" fill="rgb(96,96,88)"/>
<path d="M150 125h2v1h-2v-1z" fill="rgb(96,96,88)"/>
<path d="M154 125h1v2h1v1h-1v4h-1v-7z" fill="rgb(96,96,88)"/>
<path d="M157 125h1v7h-1v-3h-1v-1h1v-3z" fill="rgb(96,96,88)"/>
<path d="M159 125h3v1h-1v6h-1v-6h-1v-1z" fill="rgb(96,96,88)"/>
<path d="M163 125h1v3h2v-3h1v7h-1v-3h-2v3h-1v-7z" fill="rgb(96,96,88)"/>
<path d="M168 125h2v5h-2v-5z" fill="rgb(96,96,88)"/>
<path d="M87 126h2v2h-2v-2z" fill="rgb(239,238,220)"/>
<path d="M89 126h1v2h-1v-2z" fill="rgb(96,96,88)"/>
<path d="M92 126h2v5h-2v-5z" fill="rgb(239,238,220)"/>
<path d="M94 126h1v5h-1v-5z" fill="rgb(96,96,88)"/>
<path d="M100 126h2v2h-2v-2z" fill="rgb(239,238,220)"/>
<path d="M102 126h1v2h-1v-2z" fill="rgb(96,96,88)"/>
<path d="M104 126h1v2h2v-2h1v6h-1v-3h-2v3h-1v-6z" fill="rgb(96,96,88)"/>
<path d="M105 126h2v2h-2v-2z" fill="rgb(239,238,220)"/>
<path d="M110 126h2v2h-2v-2z" fill="rgb(239,238,220)"/>
<path d="M112 126h1v2h-1v-2z" fill="rgb(96,96,88)"/>
<path d="M135 126h1v2h-1v-2z" fill="rgb(96,96,88)"/>
<path d="M149 126h1v5h-1v-5z" fill="rgb(96,96,88)"/>
<path d="M150 126h2v5h-2v-5z" fill="rgb(239,238,220)"/>
<path d="M152 126h1v5h-1v-5z" fill="rgb(96,96,88)"/>
<path d="M145 127h1v1h-1v-1z" fill="rgb(96,96,88)"/>
<path d="M136 128h2v1h-2v-1z" fill="rgb(96,96,88)"/>
<path d="M5 129h28v3h-28v-3z" fill="rgb(196,196,180)"/>
<path d="M34 129h20v3h-20v-3z" fill="rgb(196,196,180)"/>
<path d="M55 129h12v3h-12v-3z" fill="rgb(196,196,180)"/>
<path d="M89 129h1v3h-1v-3z" fill="rgb(96,96,88)"/>
<path d="M100 129h2v2h-2v-2z" fill="rgb(239,238,220)"/>
<path d="M102 129h1v2h-1v-2z" fill="rgb(96,96,88)"/>
<path d="M110 129h2v2h-2v-2z" fill="rgb(239,238,220)"/>
<path d="M112 129h1v2h-1v-2z" fill="rgb(96,96,88)"/>
<path d="M138 129h1v2h-1v-2z" fill="rgb(96,96,88)"/>
<path d="M114 131h3v1h-3v-1z" fill="rgb(96,96,88)"/>
<path d="M135 131h3v1h-3v-1z" fill="rgb(96,96,88)"/>
<path d="M150 131h2v1h-2v-1z" fill="rgb(96,96,88)"/>
<path d="M168 131h2v1h-2v-1z" fill="rgb(96,96,88)"/>
<path d="M5 133h11v3h-11v-3z" fill="rgb(196,196,180)"/>
<path d="M17 133h10v3h-10v-3z" fill="rgb(196,196,180)"/>
<path d="M28 133h32v3h-32v-3z" fill="rgb(196,196,180)"/>
<path d="M61 133h6v3h-6v-3z" fill="rgb(196,196,180)"/>
<path d="M74 134h1v4h2v1h-3v-5z" fill="rgb(147,147,135)"/>
<path d="M79 134h1v1h-1v-1z" fill="rgb(147,147,135)"/>
<path d="M82 134h3v1h-1v4h-1v-4h-1v-1z" fill="rgb(147,147,135)"/>
<path d="M87 134h2v1h-2v-1z" fill="rgb(147,147,135)"/>
<path d="M91 134h1v1h-1v-1z" fill="rgb(147,147,135)"/>
<path d="M96 134h1v1h1v1h-1v3h-1v-5z" fill="rgb(147,147,135)"/>
<path d="M99 134h1v5h-1v-2h-1v-1h1v-2z" fill="rgb(147,147,135)"/>
<path d="M101 134h3v1h-2v1h1v1h-1v1h2v1h-3v-5z" fill="rgb(147,147,135)"/>
<path d="M105 134h1v4h-1v-4z" fill="rgb(147,147,135)"/>
<path d="M109 134h1v4h-1v-4z" fill="rgb(147,147,135)"/>
<path d="M114 134h2v1h-2v-1z" fill="rgb(147,147,135)"/>
<path d="M117 134h2v1h-1v1h1v1h-1v2h-1v-5z" fill="rgb(147,147,135)"/>
<path d="M121 134h1v5h-1v-5z" fill="rgb(147,147,135)"/>
<path d="M123 134h3v1h-1v4h-1v-4h-1v-1z" fill="rgb(147,147,135)"/>
<path d="M127 134h3v1h-1v4h-1v-4h-1v-1z" fill="rgb(147,147,135)"/>
<path d="M131 134h3v1h-2v1h1v1h-1v1h2v1h-3v-5z" fill="rgb(147,147,135)"/>
<path d="M135 134h2v1h-1v1h1v1h-1v2h-1v-5z" fill="rgb(147,147,135)"/>
<path d="M140 134h2v1h-2v-1z" fill="rgb(147,147,135)"/>
<path d="M78 135h1v3h-1v-3z" fill="rgb(147,147,135)"/>
<path d="M79 135h1v3h-1v-3z" fill="rgb(239,238,220)"/>
<path d="M80 135h1v3h-1v-3z" fill="rgb(147,147,135)"/>
<path d="M86 135h1v1h-1v-1z" fill="rgb(147,147,135)"/>
<path d="M90 135h1v1h1v-1h1v4h-1v-2h-1v2h-1v-4z" fill="rgb(147,147,135)"/>
<path d="M91 135h1v1h-1v-1z" fill="rgb(239,238,220)"/>
<path d="M113 135h1v3h-1v-3z" fill="rgb(147,147,135)"/>
<path d="M118 135h1v1h-1v-1z" fill="rgb(239,238,220)"/>
<path d="M119 135h1v1h-1v-1z" fill="rgb(147,147,135)"/>
<path d="M136 135h1v1h-1v-1z" fill="rgb(239,238,220)"/>
<path d="M137 135h1v1h-1v-1z" fill="rgb(147,147,135)"/>
<path d="M139 135h1v1h-1v-1z" fill="rgb(147,147,135)"/>
<path d="M87 136h1v1h-1v-1z" fill="rgb(147,147,135)"/>
<path d="M140 136h1v1h-1v-1z" fill="rgb(147,147,135)"/>
<path d="M5 137h21v3h-21v-3z" fill="rgb(196,196,180)"/>
<path d="M27 137h16v3h-16v-3z" fill="rgb(196,196,180)"/>
<path d="M44 137h23v3h-23v-3z" fill="rgb(196,196,180)"/>
<path d="M88 137h1v1h-1v-1z" fill="rgb(147,147,135)"/>
<path d="M107 137h1v1h-1v-1z" fill="rgb(147,147,135)"/>
<path d="M119 137h1v2h-1v-2z" fill="rgb(147,147,135)"/>
<path d="M137 137h1v2h-1v-2z" fill="rgb(147,147,135)"/>
<path d="M141 137h1v1h-1v-1z" fill="rgb(147,147,135)"/>
<path d="M79 138h1v1h-1v-1z" fill="rgb(147,147,135)"/>
<path d="M86 138h2v1h-2v-1z" fill="rgb(147,147,135)"/>
<path d="M106 138h1v1h-1v-1z" fill="rgb(147,147,135)"/>
<path d="M108 138h1v1h-1v-1z" fill="rgb(147,147,135)"/>
<path d="M114 138h2v1h-2v-1z" fill="rgb(147,147,135)"/>
<path d="M139 138h2v1h-2v-1z" fill="rgb(147,147,135)"/>
<path d="M5 141h40v3h-40v-3z" fill="rgb(196,196,180)"/>
<path d="M46 141h21v3h-21v-3z" fill="rgb(196,196,180)"/>
<path d="M74 141h32v3h-32v-3z" fill="rgb(196,196,180)"/>
<path d="M107 141h11v3h-11v-3z" fill="rgb(196,196,180)"/>
<path d="M119 141h29v3h-29v-3z" fill="rgb(196,196,180)"/>
<path d="M149 141h22v3h-22v-3z" fill="rgb(196,196,180)"/>
<path d="M5 145h30v3h-30v-3z" fill="rgb(196,196,180)"/>
<path d="M36 145h31v3h-31v-3z" fill="rgb(196,196,180)"/>
<path d="M74 145h7v3h-7v-3z" fill="rgb(196,196,180)"/>
<path d="M82 145h42v3h-42v-3z" fill="rgb(196,196,180)"/>
<path d="M125 145h46v3h-46v-3z" fill="rgb(196,196,180)"/>
<path d="M5 149h17v3h-17v-3z" fill="rgb(196,196,180)"/>
<path d="M23 149h26v3h-26v-3z" fill="rgb(196,196,180)"/>
<path d="M50 149h17v3h-17v-3z" fill="rgb(196,196,180)"/>
<path d="M74 149h27v3h-27v-3z" fill="rgb(196,196,180)"/>
<path d="M102 149h58v3h-58v-3z" fill="rgb(196,196,180)"/>
<path d="M161 149h10v3h-10v-3z" fill="rgb(196,196,180)"/>
<path d="M5 153h39v3h-39v-3z" fill="rgb(196,196,180)"/>
<path d="M45 153h22v3h-22v-3z" fill="rgb(196,196,180)"/>
<path d="M74 153h18v3h-18v-3z" fill="rgb(196,196,180)"/>
<path d="M93 153h39v3h-39v-3z" fill="rgb(196,196,180)"/>
<path d="M133 153h11v3h-11v-3z" fill="rgb(196,196,180)"/>
<path d="M145 153h26v3h-26v-3z" fill="rgb(196,196,180)"/>
<path d="M5 157h12v3h-12v-3z" fill="rgb(196,196,180)"/>
<path d="M18 157h20v3h-20v-3z" fill="rgb(196,196,180)"/>
<path d="M39 157h28v3h-28v-3z" fill="rgb(196,196,180)"/>
<path d="M74 157h22v3h-22v-3z" fill="rgb(196,196,180)"/>
<path d="M97 157h29v3h-29v-3z" fill="rgb(196,196,180)"/>
<path d="M127 157h11v3h-11v-3z" fill="rgb(196,196,180)"/>
<path d="M139 157h32v3h-32v-3z" fill="rgb(196,196,180)"/>
<path d="M5 161h6v3h-6v-3z" fill="rgb(196,196,180)"/>
<path d="M12 161h32v3h-32v-3z" fill="rgb(196,196,180)"/>
<path d="M45 161h10v3h-10v-3z" fill="rgb(196,196,180)"/>
<path d="M56 161h11v3h-11v-3z" fill="rgb(196,196,180)"/>
<path d="M74 161h46v3h-46v-3z" fill="rgb(196,196,180)"/>
<path d="M121 161h42v3h-42v-3z" fill="rgb(196,196,180)"/>
<path d="M164 161h7v3h-7v-3z" fill="rgb(196,196,180)"/>
<path d="M5 165h13v3h-13v-3z" fill="rgb(196,196,180)"/>
<path d="M19 165h17v3h-17v-3z" fill="rgb(196,196,180)"/>
<path d="M37 165h30v3h-30v-3z" fill="rgb(196,196,180)"/>
<path d="M74 165h10v3h-10v-3z" fill="rgb(196,196,180)"/>
<path d="M85 165h58v3h-58v-3z" fill="rgb(196,196,180)"/>
<path d="M144 165h27v3h-27v-3z" fill="rgb(196,196,180)"/>
</svg>
