<?xml version="1.0" encoding="utf-8"?>
<!-- Generator: Adobe Illustrator 16.0.4, SVG Export Plug-In . SVG Version: 6.00 Build 0)  -->
<!DOCTYPE svg PUBLIC "-//W3C//DTD SVG 1.1//EN" "http://www.w3.org/Graphics/SVG/1.1/DTD/svg11.dtd">
<svg version="1.1" id="Layer_1" xmlns="http://www.w3.org/2000/svg" xmlns:xlink="http://www.w3.org/1999/xlink" x="0px" y="0px"
	 width="16px" height="16px" viewBox="0 0 16 16" enable-background="new 0 0 16 16" xml:space="preserve">
<path fill="#535353" d="M4,5h9v1H4V5z"/>
<path fill="#535353" d="M2,6h2v1H2V6z"/>
<path fill="#818179" d="M4,6h2v1H4V6z"/>
<path fill="#939C9C" d="M6,6h5v1h2v1H4V7h2V6z"/>
<path fill="#818179" d="M11,6h2v1h-2V6z"/>
<path fill="#535353" d="M13,6h2v1h-2V6z"/>
<path fill="#535353" d="M1,7h1v9H1V7z"/>
<path fill="#A7AEAE" d="M2,7h2v2H3V8H2V7z"/>
<path fill="#A7AEAE" d="M13,7h2v1h-1v1h-1V7z"/>
<path fill="#535353" d="M15,7h1v9h-1V7z"/>
<path fill="#939C9C" d="M2,8h1v1H2V8z"/>
<path fill="#535353" d="M4,8h9v1H4V8z"/>
<path fill="#939C9C" d="M14,8h1v1h-1V8z"/>
<path fill="#818179" d="M2,9h1v3H2V9z"/>
<path fill="#535353" d="M3,9h1v2H3V9z"/>
<path fill="#535353" d="M13,9h1v2h-1V9z"/>
<path fill="#818179" d="M14,9h1v3h-1V9z"/>
<path fill="#495452" d="M4,10h9v1H4V10z"/>
<path fill="#495452" d="M3,11h1v5H3V11z"/>
<path fill="#92A39F" d="M4,11h2v1H5v1H4V11z"/>
<path fill="#AEB7AA" d="M6,11h1v1H6V11z"/>
<path fill="#C6CCC3" d="M7,11h3v1h2v1h1v2h-1v1H9v-1h1v-1H7v1h1v1H5v-1H4v-2h1v-1h2V11z"/>
<path fill="#AEB7AA" d="M10,11h1v1h-1V11z"/>
<path fill="#92A39F" d="M11,11h2v2h-1v-1h-1V11z"/>
<path fill="#495452" d="M13,11h1v5h-1V11z"/>
<path fill="#303030" d="M2,12h1v1H2V12z"/>
<path fill="#303030" d="M14,12h1v1h-1V12z"/>
<path fill="#818179" d="M2,13h1v1H2V13z"/>
<path fill="#818179" d="M14,13h1v3h-1V13z"/>
<path fill="#939C9C" d="M2,14h1v2H2V14z"/>
<path fill="#AEB7AA" d="M7,14h3v1H9v1H8v-1H7V14z"/>
<path fill="#AEB7AA" d="M4,15h1v1H4V15z"/>
<path fill="#AEB7AA" d="M12,15h1v1h-1V15z"/>
</svg>
