<?xml version="1.0" encoding="utf-8"?>
<!-- Generator: Adobe Illustrator 16.0.4, SVG Export Plug-In . SVG Version: 6.00 Build 0)  -->
<!DOCTYPE svg PUBLIC "-//W3C//DTD SVG 1.1//EN" "http://www.w3.org/Graphics/SVG/1.1/DTD/svg11.dtd">
<svg version="1.1" id="Layer_1" xmlns="http://www.w3.org/2000/svg" xmlns:xlink="http://www.w3.org/1999/xlink" x="0px" y="0px"
	 width="32px" height="16px" viewBox="0 0 32 16" enable-background="new 0 0 32 16" xml:space="preserve">
<path fill="#606F6C" d="M5,4h7v1H5V4z"/>
<path fill="#6889A5" d="M21,4h7v1h-7V4z"/>
<path fill="#495452" d="M2,5h1v1H2V5z"/>
<path fill="#606F6C" d="M3,5h2v1H3V5z"/>
<path fill="#C6CCC3" d="M5,5h7v1h1v5h-1v2H5v-2H4V9H3V6h2V5z"/>
<path fill="#606F6C" d="M12,5h1v1h-1V5z"/>
<path fill="#495452" d="M13,5h2v1h-2V5z"/>
<path fill="#4E6688" d="M18,5h1v1h-1V5z"/>
<path fill="#6889A5" d="M19,5h2v1h-2V5z"/>
<path fill="#B6C5D4" d="M21,5h7v1h1v5h-1v2h-7v-2h-1V9h-1V6h2V5z"/>
<path fill="#6889A5" d="M28,5h1v1h-1V5z"/>
<path fill="#4E6688" d="M29,5h2v1h-2V5z"/>
<path fill="#495452" d="M1,6h1v1H1V6z"/>
<path fill="#AEB7AA" d="M2,6h1v3h1v2h1v2h7v-2h1V6h2v8h-1v2H2v-2H1V7h1V6z"/>
<path fill="#495452" d="M15,6h1v10h-1V6z"/>
<path fill="#4E6688" d="M17,6h1v1h-1V6z"/>
<path fill="#9BADC0" d="M18,6h1v3h1v2h1v2h7v-2h1V6h2v8h-1v2H18v-2h-1V7h1V6z"/>
<path fill="#4E6688" d="M31,6h1v10h-1V6z"/>
<path fill="#495452" d="M0,7h1v9H0V7z"/>
<path fill="#4E6688" d="M16,7h1v9h-1V7z"/>
<path fill="#92A39F" d="M1,14h1v2H1V14z"/>
<path fill="#92A39F" d="M14,14h1v2h-1V14z"/>
<path fill="#869CB4" d="M17,14h1v2h-1V14z"/>
<path fill="#869CB4" d="M30,14h1v2h-1V14z"/>
</svg>
