<?xml version="1.0" encoding="utf-8"?>
<!-- Generator: Adobe Illustrator 16.0.4, SVG Export Plug-In . SVG Version: 6.00 Build 0)  -->
<!DOCTYPE svg PUBLIC "-//W3C//DTD SVG 1.1//EN" "http://www.w3.org/Graphics/SVG/1.1/DTD/svg11.dtd">
<svg version="1.1" id="Layer_1" xmlns="http://www.w3.org/2000/svg" xmlns:xlink="http://www.w3.org/1999/xlink" x="0px" y="0px"
	 width="16px" height="48px" viewBox="0 0 16 48" enable-background="new 0 0 16 48" xml:space="preserve">
<path fill="#535353" d="M4,5h9v1H4V5z"/>
<path fill="#535353" d="M2,6h2v1H2V6z"/>
<path fill="#818179" d="M4,6h2v1H4V6z"/>
<path fill="#939C9C" d="M6,6h5v1h2v1H4V7h2V6z"/>
<path fill="#818179" d="M11,6h2v1h-2V6z"/>
<path fill="#535353" d="M13,6h2v1h-2V6z"/>
<path fill="#535353" d="M1,7h1v15H1V7z"/>
<path fill="#A7AEAE" d="M2,7h2v2H3V8H2V7z"/>
<path fill="#A7AEAE" d="M13,7h2v1h-1v1h-1V7z"/>
<path fill="#535353" d="M15,7h1v15h-1V7z"/>
<path fill="#939C9C" d="M2,8h1v1H2V8z"/>
<path fill="#535353" d="M4,8h9v1H4V8z"/>
<path fill="#939C9C" d="M14,8h1v1h-1V8z"/>
<path fill="#818179" d="M2,9h1v3H2V9z"/>
<path fill="#535353" d="M3,9h1v2H3V9z"/>
<path fill="#535353" d="M13,9h1v2h-1V9z"/>
<path fill="#818179" d="M14,9h1v3h-1V9z"/>
<path fill="#495452" d="M4,10h9v1H4V10z"/>
<path fill="#495452" d="M3,11h1v7H3V11z"/>
<path fill="#92A39F" d="M4,11h2v1H5v1H4V11z"/>
<path fill="#AEB7AA" d="M6,11h1v1H6V11z"/>
<path fill="#C6CCC3" d="M7,11h3v1h2v1h1v2h-1v1h-1v1H6v-1H5v-1H4v-2h1v-1h2V11z"/>
<path fill="#AEB7AA" d="M10,11h1v1h-1V11z"/>
<path fill="#92A39F" d="M11,11h2v2h-1v-1h-1V11z"/>
<path fill="#495452" d="M13,11h1v7h-1V11z"/>
<path fill="#303030" d="M2,12h1v1H2V12z"/>
<path fill="#303030" d="M14,12h1v1h-1V12z"/>
<path fill="#818179" d="M2,13h1v1H2V13z"/>
<path fill="#818179" d="M14,13h1v5h-1V13z"/>
<path fill="#939C9C" d="M2,14h1v4h1v1h10v-1h1v3h-3v-1H5v1H2V14z"/>
<path fill="#AEB7AA" d="M7,14h3v1H9v1H8v-1H7V14z"/>
<path fill="#AEB7AA" d="M4,15h1v1H4V15z"/>
<path fill="#AEB7AA" d="M12,15h1v1h-1V15z"/>
<path fill="#92A39F" d="M4,16h1v1h1v1H4V16z"/>
<path fill="#AEB7AA" d="M5,16h1v1H5V16z"/>
<path fill="#AEB7AA" d="M11,16h1v1h-1V16z"/>
<path fill="#92A39F" d="M12,16h1v2h-2v-1h1V16z"/>
<path fill="#AEB7AA" d="M6,17h5v1H6V17z"/>
<path fill="#495452" d="M4,18h9v1H4V18z"/>
<path fill="#818179" d="M13,18h1v1h-1V18z"/>
<path fill="#606F6C" d="M5,20h7v1H5V20z"/>
<path fill="#495452" d="M2,21h1v1H2V21z"/>
<path fill="#606F6C" d="M3,21h2v1H3V21z"/>
<path fill="#C6CCC3" d="M5,21h7v1h1v5h-1v2H5v-2H4v-2H3v-3h2V21z"/>
<path fill="#606F6C" d="M12,21h1v1h-1V21z"/>
<path fill="#495452" d="M13,21h2v1h-2V21z"/>
<path fill="#495452" d="M1,22h1v1H1V22z"/>
<path fill="#AEB7AA" d="M2,22h1v3h1v2h1v2h7v-2h1v-5h2v8h-1v2h-1v2H3v-2H2v-2H1v-7h1V22z"/>
<path fill="#495452" d="M15,22h1v13h-1V22z"/>
<path fill="#495452" d="M0,23h1v12H0V23z"/>
<path fill="#92A39F" d="M1,30h1v2h1v2h10v-2h1v-2h1v5h-1v1H2v-1H1V30z"/>
<path fill="#495452" d="M1,35h1v1H1V35z"/>
<path fill="#495452" d="M14,35h1v1h-1V35z"/>
<path fill="#495452" d="M2,36h12v1H2V36z"/>
<path fill="#303030" d="M2,37h3v1H2V37z"/>
<path fill="#303030" d="M11,37h3v1h-3V37z"/>
</svg>
