<?xml version="1.0" encoding="utf-8"?>
<!-- Generator: Adobe Illustrator 16.0.4, SVG Export Plug-In . SVG Version: 6.00 Build 0)  -->
<!DOCTYPE svg PUBLIC "-//W3C//DTD SVG 1.1//EN" "http://www.w3.org/Graphics/SVG/1.1/DTD/svg11.dtd">
<svg version="1.1" id="Layer_1" xmlns="http://www.w3.org/2000/svg" xmlns:xlink="http://www.w3.org/1999/xlink" x="0px" y="0px"
	 width="80px" height="48px" viewBox="0 0 80 48" enable-background="new 0 0 80 48" xml:space="preserve">
<path fill="#D3CABB" d="M26,9h2v3h-1v-2h-1V9z"/>
<path fill="#D8CFBF" d="M28,9h1v1h-1V9z"/>
<path fill="#DCD3C4" d="M29,9h3v1h1V9h2v2h-1v7h1v2h-1v1h-1v-1h-1v-1h-1v-3h-1v-1h-1v-3h-1v-2h1V9z"/>
<path fill="#D8CFBF" d="M32,9h1v1h-1V9z"/>
<path fill="#D3CABB" d="M35,9h1v2h-1V9z"/>
<path fill="#D3CABB" d="M43,9h2v4h-2V9z"/>
<path fill="#D3CABB" d="M47,9h8v1h-1v5h-1v-5h-5v1h-1V9z"/>
<path fill="#DCD3C4" d="M48,10h2v1h1v2h-1v-1h-1v-1h-1V10z"/>
<path fill="#D8CFBF" d="M50,10h1v1h-1V10z"/>
<path fill="#DCD3C4" d="M51,10h2v5h-2v-2h1v-2h-1V10z"/>
<path fill="#D3CABB" d="M58,10h1v5h-1V10z"/>
<path fill="#DCD3C4" d="M59,10h1v1h1v-1h9v1h2v1h-2v1h1v2h1v1h1v-1h1v1h1v1h-2v1h1v1h1v1h1v-1h-1v-2h1v1h1v2h1v-1h1v1h1v4h-1v1h1v4
	h-1v1h1v5H66v-1h-1v1h-1v3H48v-1h1v-1h1v-1h2v-1h1v-1h2v-1h1v-2h7v-1h1V19h1v-1h-1v-2h-1v-1h-4V10z"/>
<path fill="#D8CFBF" d="M60,10h1v1h-1V10z"/>
<path fill="#D3CABB" d="M70,10h1v1h-1V10z"/>
<path fill="#ADADB6" d="M71,10h1v1h-1V10z"/>
<path fill="#D3CABB" d="M72,10h1v1h-1V10z"/>
<path fill="#ADADB6" d="M73,10h1v1h-1V10z"/>
<path fill="#D3CABB" d="M74,10h1v1h-1V10z"/>
<path fill="#DCD3C4" d="M75,10h1v1h-1V10z"/>
<path fill="#ADADB6" d="M76,10h1v1h-1V10z"/>
<path fill="#D3CABB" d="M77,10h1v1h-1V10z"/>
<path fill="#DCD3C4" d="M78,10h1v1h-1V10z"/>
<path fill="#ADADB6" d="M79,10h1v1h-1V10z"/>
<path fill="#E3DACB" d="M30,11h2v1h-2V11z"/>
<path fill="#D3CABB" d="M34,11h1v7h-1V11z"/>
<path fill="#D3CABB" d="M48,11h1v1h-1V11z"/>
<path fill="#D8CFBF" d="M51,11h1v2h-1V11z"/>
<path fill="#ADADB6" d="M72,11h1v3h-1v-1h-1v-1h1V11z"/>
<path fill="#D3CABB" d="M73,11h1v3h-1V11z"/>
<path fill="#ADADB6" d="M74,11h2v2h-1v-1h-1V11z"/>
<path fill="#DCD3C4" d="M76,11h2v1h-2V11z"/>
<path fill="#ADADB6" d="M78,11h1v1h-1V11z"/>
<path fill="#D3CABB" d="M79,11h1v1h-1V11z"/>
<path fill="#D3CABB" d="M28,12h1v3h-1V12z"/>
<path fill="#E3DACB" d="M32,12h1v1h-1V12z"/>
<path fill="#D3CABB" d="M49,12h1v1h-1V12z"/>
<path fill="#D3CABB" d="M70,12h1v1h-1V12z"/>
<path fill="#DCD3C4" d="M74,12h1v1h1v1h-2V12z"/>
<path fill="#D3CABB" d="M76,12h1v1h-1V12z"/>
<path fill="#ADADB6" d="M77,12h1v1h-1V12z"/>
<path fill="#DCD3C4" d="M78,12h2v1h-1v1h-1V12z"/>
<path fill="#D3CABB" d="M50,13h1v2h-1V13z"/>
<path fill="#D8CFBF" d="M65,13h1v1h-1V13z"/>
<path fill="#D8CFBF" d="M71,13h1v2h-1V13z"/>
<path fill="#ADADB6" d="M76,13h1v1h-1V13z"/>
<path fill="#D3CABB" d="M77,13h1v1h-1V13z"/>
<path fill="#ADADB6" d="M79,13h1v1h-1V13z"/>
<path fill="#D3CABB" d="M43,14h3v1h-1v1h1v-1h1v2h-3v-2h-1V14z"/>
<path fill="#E3DACB" d="M69,14h1v1h-1V14z"/>
<path fill="#DCD3C4" d="M72,14h1v1h-1V14z"/>
<path fill="#ADADB6" d="M73,14h1v1h-1V14z"/>
<path fill="#D3CABB" d="M74,14h1v1h-1V14z"/>
<path fill="#ADADB6" d="M75,14h1v1h-1V14z"/>
<path fill="#DCD3C4" d="M76,14h1v1h1v1h-2V14z"/>
<path fill="#ADADB6" d="M77,14h2v2h-1v-1h-1V14z"/>
<path fill="#DCD3C4" d="M79,14h1v1h-1V14z"/>
<path fill="#D3CABB" d="M29,15h1v1h-1V15z"/>
<path fill="#D8CFBF" d="M32,15h1v1h-1V15z"/>
<path fill="#DCD3C4" d="M45,15h1v1h-1V15z"/>
<path fill="#E3DACB" d="M68,15h1v1h-1V15z"/>
<path fill="#ADADB6" d="M72,15h1v1h-1V15z"/>
<path fill="#ADADB6" d="M74,15h1v1h-1V15z"/>
<path fill="#D3CABB" d="M75,15h1v1h-1V15z"/>
<path fill="#D3CABB" d="M79,15h1v1h-1V15z"/>
<path fill="#D3CABB" d="M25,16h1v1h3v2h1v-3h1v3h1v1h-5v-1h-1v-1h-1V16z"/>
<path fill="#A59E93" d="M63,16h1v13h-1V16z"/>
<path fill="#E3DACB" d="M67,16h1v1h-1V16z"/>
<path fill="#ADADB6" d="M75,16h1v1h-1V16z"/>
<path fill="#D3CABB" d="M76,16h3v1h-3V16z"/>
<path fill="#ADADB6" d="M79,16h1v1h-1V16z"/>
<path fill="#E3DACB" d="M32,17h1v1h-1V17z"/>
<path fill="#D8CFBF" d="M73,17h1v1h-1V17z"/>
<path fill="#ADADB6" d="M74,17h1v1h-1V17z"/>
<path fill="#ADADB6" d="M76,17h3v1h-1v1h-1v-1h-1V17z"/>
<path fill="#DCD3C4" d="M79,17h1v1h-1V17z"/>
<path fill="#D3CABB" d="M7,18h2v1H7V18z"/>
<path fill="#DCD3C4" d="M27,18h1v1h-1V18z"/>
<path fill="#D3CABB" d="M35,18h1v2h-1V18z"/>
<path fill="#D8CFBF" d="M64,18h1v1h-1V18z"/>
<path fill="#D3CABB" d="M74,18h1v1h-1V18z"/>
<path fill="#D8CFBF" d="M78,18h1v1h-1V18z"/>
<path fill="#ADADB6" d="M79,18h1v1h-1V18z"/>
<path fill="#D8CFBF" d="M69,19h1v1h-1V19z"/>
<path fill="#E3DACB" d="M75,19h1v1h-1V19z"/>
<path fill="#D3CABB" d="M77,19h1v1h-1V19z"/>
<path fill="#D3CABB" d="M79,19h1v1h-1V19z"/>
<path fill="#D3CABB" d="M32,20h1v1h-1V20z"/>
<path fill="#D8CFBF" d="M34,20h1v1h-1V20z"/>
<path fill="#DCD3C4" d="M35,20h1v1h1v1h-1v1h1v2h1v12h1v1h-7v-3h1v-1h-1v-5h1v-2h1v-6h1V20z"/>
<path fill="#D3CABB" d="M36,20h1v1h-1V20z"/>
<path fill="#E3DACB" d="M66,20h1v1h1v1h-2V20z"/>
<path fill="#D3CABB" d="M33,21h1v6h-1V21z"/>
<path fill="#D3CABB" d="M37,21h1v4h-1V21z"/>
<path fill="#D8CFBF" d="M36,22h1v1h-1V22z"/>
<path fill="#D8CFBF" d="M66,24h1v1h-1V24z"/>
<path fill="#D8CFBF" d="M76,24h1v2h-1V24z"/>
<path fill="#E3DACB" d="M79,24h1v1h-1V24z"/>
<path fill="#D3CABB" d="M38,25h1v12h-1V25z"/>
<path fill="#E3DACB" d="M71,25h1v1h-1V25z"/>
<path fill="#D3CABB" d="M28,26h1v2h-1v2h-1v-1h-1v-1h1v-1h1V26z"/>
<path fill="#E3DACB" d="M35,26h1v2h-1V26z"/>
<path fill="#D8CFBF" d="M69,26h1v1h-1V26z"/>
<path fill="#D8CFBF" d="M73,26h1v1h-1V26z"/>
<path fill="#D3CABB" d="M32,27h1v2h-1V27z"/>
<path fill="#D8CFBF" d="M36,27h1v1h-1V27z"/>
<path fill="#D8CFBF" d="M75,28h1v1h-1V28z"/>
<path fill="#DCD3C4" d="M26,29h1v1h-1V29z"/>
<path fill="#D3CABB" d="M31,29h1v3h-1V29z"/>
<path fill="#E3DACB" d="M34,29h1v1h-1V29z"/>
<path fill="#9E978C" d="M50,29h2v1h-2V29z"/>
<path fill="#9E978C" d="M56,29h1v1h-1V29z"/>
<path fill="#A59E93" d="M57,29h4v1h-4V29z"/>
<path fill="#AAA398" d="M61,29h1v1h-1V29z"/>
<path fill="#A59E93" d="M62,29h1v1h-1V29z"/>
<path fill="#D8CFBF" d="M65,29h2v1h-2V29z"/>
<path fill="#E3DACB" d="M72,29h1v1h-1V29z"/>
<path fill="#E3DACB" d="M79,29h1v1h-1V29z"/>
<path fill="#D3CABB" d="M26,30h1v1h-1V30z"/>
<path fill="#D8CFBF" d="M36,30h1v1h-1V30z"/>
<path fill="#D3CABB" d="M46,30h2v1h-2V30z"/>
<path fill="#D3CABB" d="M50,30h1v1h-1V30z"/>
<path fill="#D3CABB" d="M55,30h1v2h-1V30z"/>
<path fill="#E3DACB" d="M72,31h2v1h-2V31z"/>
<path fill="#D3CABB" d="M46,32h2v1h-1v1h-1V32z"/>
<path fill="#D3CABB" d="M50,32h1v2h1v1h-2V32z"/>
<path fill="#D3CABB" d="M53,32h2v1h-2V32z"/>
<path fill="#E3DACB" d="M57,32h1v1h-1V32z"/>
<path fill="#E3DACB" d="M63,32h2v1h-2V32z"/>
<path fill="#E3DACB" d="M70,32h1v1h-1V32z"/>
<path fill="#D3CABB" d="M30,33h1v3h-1V33z"/>
<path fill="#E3DACB" d="M35,33h1v1h-1V33z"/>
<path fill="#D3CABB" d="M52,33h1v1h-1V33z"/>
<path fill="#D8CFBF" d="M60,33h1v1h-1V33z"/>
<path fill="#E3DACB" d="M75,33h1v1h-1V33z"/>
<path fill="#D8CFBF" d="M32,34h1v1h-1V34z"/>
<path fill="#E3DACB" d="M65,34h1v1h-1V34z"/>
<path fill="#E3DACB" d="M33,35h1v1h-1V35z"/>
<path fill="#D3CABB" d="M48,35h2v1h-1v1h-1V35z"/>
<path fill="#DCD3C4" d="M30,36h1v2h-1V36z"/>
<path fill="#D8CFBF" d="M36,36h1v1h-1V36z"/>
<path fill="#D8CFBF" d="M54,36h1v1h-1V36z"/>
<path fill="#D3CABB" d="M39,37h1v1h-1V37z"/>
<path fill="#D3CABB" d="M47,37h1v1h-1V37z"/>
<path fill="#B9B1A4" d="M30,38h1v1h-1V38z"/>
<path fill="#B9B1A4" d="M32,38h8v1h-8V38z"/>
<path fill="#B9B1A4" d="M45,38h19v1H45V38z"/>
</svg>
