<?xml version="1.0" encoding="utf-8"?>
<!-- Generator: Adobe Illustrator 16.0.4, SVG Export Plug-In . SVG Version: 6.00 Build 0)  -->
<!DOCTYPE svg PUBLIC "-//W3C//DTD SVG 1.1//EN" "http://www.w3.org/Graphics/SVG/1.1/DTD/svg11.dtd">
<svg version="1.1" id="Layer_1" xmlns="http://www.w3.org/2000/svg" xmlns:xlink="http://www.w3.org/1999/xlink" x="0px" y="0px"
	 width="80px" height="32px" viewBox="0 0 80 32" enable-background="new 0 0 80 32" xml:space="preserve">
<path fill="#9E978C" d="M26,9h2v1h-2V9z"/>
<path fill="#A29B8F" d="M28,9h1v1h-1V9z"/>
<path fill="#A59E93" d="M29,9h3v1h-3V9z"/>
<path fill="#A29B8F" d="M32,9h1v1h-1V9z"/>
<path fill="#A59E93" d="M33,9h2v1h-2V9z"/>
<path fill="#9E978C" d="M35,9h1v1h-1V9z"/>
<path fill="#9E978C" d="M43,9h2v1h-2V9z"/>
<path fill="#9E978C" d="M47,9h8v1h-8V9z"/>
<path fill="#B4AC9F" d="M27,10h1v1h-1V10z"/>
<path fill="#BBB4A7" d="M28,10h7v1h-7V10z"/>
<path fill="#B4AC9F" d="M35,10h1v1h-1V10z"/>
<path fill="#B4AC9F" d="M43,10h2v1h-2V10z"/>
<path fill="#B4AC9F" d="M47,10h1v1h-1V10z"/>
<path fill="#BBB4A7" d="M48,10h2v1h-2V10z"/>
<path fill="#B8B0A3" d="M50,10h1v1h-1V10z"/>
<path fill="#BBB4A7" d="M51,10h2v1h-2V10z"/>
<path fill="#B4AC9F" d="M53,10h1v1h-1V10z"/>
<path fill="#BBB4A7" d="M59,10h1v1h-1V10z"/>
<path fill="#B8B0A3" d="M60,10h1v1h-1V10z"/>
<path fill="#BBB4A7" d="M61,10h9v1h-9V10z"/>
<path fill="#B4AC9F" d="M70,10h1v1h-1V10z"/>
<path fill="#93939B" d="M71,10h1v1h-1V10z"/>
<path fill="#B4AC9F" d="M72,10h1v1h-1V10z"/>
<path fill="#93939B" d="M73,10h1v1h-1V10z"/>
<path fill="#B4AC9F" d="M74,10h1v1h-1V10z"/>
<path fill="#BBB4A7" d="M75,10h1v1h-1V10z"/>
<path fill="#93939B" d="M76,10h1v1h-1V10z"/>
<path fill="#B4AC9F" d="M77,10h1v1h-1V10z"/>
<path fill="#BBB4A7" d="M78,10h1v1h-1V10z"/>
<path fill="#93939B" d="M79,10h1v1h-1V10z"/>
<path fill="#D3CABB" d="M27,11h1v1h-1V11z"/>
<path fill="#DCD3C4" d="M28,11h2v1h2v1h1v-1h-1v-1h2v6h1v2h-1v1h-1v-1h-1v-1h-1v-3h-1v-1h-1v-2h-1V11z"/>
<path fill="#E3DACB" d="M30,11h2v1h-2V11z"/>
<path fill="#D3CABB" d="M34,11h1v6h-1V11z"/>
<path fill="#D3CABB" d="M43,11h2v2h1v1h-1v1h1v-1h1v2h-3v-2h-1V11z"/>
<path fill="#D3CABB" d="M48,11h1v1h-1V11z"/>
<path fill="#DCD3C4" d="M63,11h9v1h-2v1h-1v1h-1v1h-1v1h1v-1h1v-1h1v-1h1v2h1v1h1v-1h1v1h1v1h-2v1h1v1h1v1h1v1h1v-1h1v-1h1v1h1v4h-4
	v-1h-1v1h-8v-1h-2v1h-1v1h-1V11z"/>
<path fill="#ADADB6" d="M72,11h1v3h-1v-1h-1v-1h1V11z"/>
<path fill="#D3CABB" d="M73,11h1v3h-1V11z"/>
<path fill="#ADADB6" d="M74,11h2v2h-1v-1h-1V11z"/>
<path fill="#DCD3C4" d="M76,11h2v1h-2V11z"/>
<path fill="#ADADB6" d="M78,11h1v1h-1V11z"/>
<path fill="#D3CABB" d="M79,11h1v1h-1V11z"/>
<path fill="#D3CABB" d="M28,12h1v2h-1V12z"/>
<path fill="#E3DACB" d="M32,12h1v1h-1V12z"/>
<path fill="#D8CFBF" d="M65,12h1v1h-1V12z"/>
<path fill="#D3CABB" d="M70,12h1v1h-1V12z"/>
<path fill="#DCD3C4" d="M74,12h1v1h1v1h-2V12z"/>
<path fill="#D3CABB" d="M76,12h1v1h-1V12z"/>
<path fill="#ADADB6" d="M77,12h1v1h-1V12z"/>
<path fill="#DCD3C4" d="M78,12h2v1h-1v1h-1V12z"/>
<path fill="#E3DACB" d="M69,13h1v1h-1V13z"/>
<path fill="#D8CFBF" d="M71,13h1v2h-1V13z"/>
<path fill="#ADADB6" d="M76,13h1v1h-1V13z"/>
<path fill="#D3CABB" d="M77,13h1v1h-1V13z"/>
<path fill="#ADADB6" d="M79,13h1v1h-1V13z"/>
<path fill="#D3CABB" d="M29,14h1v1h-1V14z"/>
<path fill="#D8CFBF" d="M32,14h1v1h-1V14z"/>
<path fill="#DCD3C4" d="M45,14h1v1h-1V14z"/>
<path fill="#E3DACB" d="M68,14h1v1h-1V14z"/>
<path fill="#DCD3C4" d="M72,14h1v1h-1V14z"/>
<path fill="#ADADB6" d="M73,14h1v1h-1V14z"/>
<path fill="#D3CABB" d="M74,14h1v1h-1V14z"/>
<path fill="#ADADB6" d="M75,14h1v1h-1V14z"/>
<path fill="#DCD3C4" d="M76,14h1v1h1v1h-2V14z"/>
<path fill="#ADADB6" d="M77,14h2v2h-1v-1h-1V14z"/>
<path fill="#DCD3C4" d="M79,14h1v1h-1V14z"/>
<path fill="#D3CABB" d="M25,15h1v1h3v2h1v-3h1v3h1v1h-5v-1h-1v-1h-1V15z"/>
<path fill="#E3DACB" d="M67,15h1v1h-1V15z"/>
<path fill="#ADADB6" d="M72,15h1v1h-1V15z"/>
<path fill="#ADADB6" d="M74,15h1v1h-1V15z"/>
<path fill="#D3CABB" d="M75,15h1v1h-1V15z"/>
<path fill="#D3CABB" d="M79,15h1v1h-1V15z"/>
<path fill="#E3DACB" d="M32,16h1v1h-1V16z"/>
<path fill="#ADADB6" d="M75,16h1v1h-1V16z"/>
<path fill="#D3CABB" d="M76,16h3v1h-3V16z"/>
<path fill="#ADADB6" d="M79,16h1v1h-1V16z"/>
<path fill="#DCD3C4" d="M27,17h1v1h-1V17z"/>
<path fill="#D3CABB" d="M35,17h1v2h-1V17z"/>
<path fill="#D8CFBF" d="M64,17h1v1h-1V17z"/>
<path fill="#D8CFBF" d="M73,17h1v1h-1V17z"/>
<path fill="#ADADB6" d="M74,17h1v1h-1V17z"/>
<path fill="#DCD3C4" d="M75,17h1v1h1v2h-1v-1h-1V17z"/>
<path fill="#ADADB6" d="M76,17h3v1h-1v1h-1v-1h-1V17z"/>
<path fill="#DCD3C4" d="M79,17h1v1h-1V17z"/>
<path fill="#D8CFBF" d="M69,18h1v1h-1V18z"/>
<path fill="#D3CABB" d="M74,18h1v1h-1V18z"/>
<path fill="#D8CFBF" d="M78,18h1v1h-1V18z"/>
<path fill="#ADADB6" d="M79,18h1v1h-1V18z"/>
<path fill="#D3CABB" d="M32,19h1v1h-1V19z"/>
<path fill="#D8CFBF" d="M34,19h1v1h-1V19z"/>
<path fill="#DCD3C4" d="M35,19h1v2h1v1h1v8h-4v-1h-1v-1h-1v-2h1v-2h1v-4h1V19z"/>
<path fill="#D3CABB" d="M36,19h1v1h-1V19z"/>
<path fill="#E3DACB" d="M66,19h2v1h-2V19z"/>
<path fill="#E3DACB" d="M75,19h1v1h-1V19z"/>
<path fill="#D3CABB" d="M77,19h1v1h-1V19z"/>
<path fill="#D3CABB" d="M79,19h1v1h-1V19z"/>
<path fill="#D3CABB" d="M33,20h1v4h-1V20z"/>
<path fill="#D8CFBF" d="M36,20h1v1h-1V20z"/>
<path fill="#D3CABB" d="M37,20h1v2h-1V20z"/>
<path fill="#D8CFBF" d="M69,20h1v1h-1V20z"/>
<path fill="#E3DACB" d="M71,20h1v1h-1V20z"/>
<path fill="#D8CFBF" d="M76,20h1v1h-1V20z"/>
<path fill="#D8CFBF" d="M73,21h1v1h-1V21z"/>
<path fill="#D3CABB" d="M38,22h1v8h-1V22z"/>
<path fill="#E3DACB" d="M35,23h1v2h-1V23z"/>
<path fill="#D8CFBF" d="M65,23h2v1h-2V23z"/>
<path fill="#D8CFBF" d="M75,23h1v1h-1V23z"/>
<path fill="#D3CABB" d="M32,24h1v2h-1V24z"/>
<path fill="#D8CFBF" d="M36,24h1v1h-1V24z"/>
<path fill="#D3CABB" d="M46,25h2v2h-1v1h-1V25z"/>
<path fill="#D3CABB" d="M50,25h1v3h1v1h-2V25z"/>
<path fill="#D3CABB" d="M55,25h1v1h-1V25z"/>
<path fill="#DCD3C4" d="M56,25h7v1h1v4h-9v-1h-1v1h-5v-1h3v-1h1v-1h2v-1h1V25z"/>
<path fill="#E3DACB" d="M63,25h1v1h-1V25z"/>
<path fill="#E3DACB" d="M34,26h1v1h-1V26z"/>
<path fill="#D3CABB" d="M53,26h2v1h-2V26z"/>
<path fill="#E3DACB" d="M57,26h1v1h-1V26z"/>
<path fill="#D8CFBF" d="M60,26h1v1h-1V26z"/>
<path fill="#D3CABB" d="M52,27h1v1h-1V27z"/>
<path fill="#D8CFBF" d="M32,28h1v1h-1V28z"/>
<path fill="#DCD3C4" d="M32,29h1v1h-1V29z"/>
<path fill="#E3DACB" d="M33,29h1v1h-1V29z"/>
<path fill="#D3CABB" d="M48,29h1v1h-1V29z"/>
<path fill="#D8CFBF" d="M54,29h1v1h-1V29z"/>
<path fill="#B9B1A4" d="M32,30h8v1h-8V30z"/>
<path fill="#B9B1A4" d="M45,30h19v1H45V30z"/>
</svg>
