<?xml version="1.0" encoding="utf-8"?>
<!-- Generator: Adobe Illustrator 16.0.4, SVG Export Plug-In . SVG Version: 6.00 Build 0)  -->
<!DOCTYPE svg PUBLIC "-//W3C//DTD SVG 1.1//EN" "http://www.w3.org/Graphics/SVG/1.1/DTD/svg11.dtd">
<svg version="1.1" id="Layer_1" xmlns="http://www.w3.org/2000/svg" xmlns:xlink="http://www.w3.org/1999/xlink" x="0px" y="0px"
	 width="80px" height="32px" viewBox="0 0 80 32" enable-background="new 0 0 80 32" xml:space="preserve">
<path fill="#828282" d="M0,0h80v1H0V0z"/>
<path fill="#EEEEEE" d="M0,1h80v2H0V1z"/>
<path fill="#FFFFFF" d="M0,3h80v1H0V3z"/>
<path fill="#828282" d="M0,4h80v1H0V4z"/>
<path fill="#55739D" d="M0,5h26v1H0V5z"/>
<path fill="#D3CABB" d="M26,5h2v3h-1V6h-1V5z"/>
<path fill="#D8CFBF" d="M28,5h1v1h-1V5z"/>
<path fill="#DCD3C4" d="M29,5h3v1h1V5h2v2h-1v6h1v2h-1v1h-1v-1h-1v-1h-1v-3h-1v-1h-1V8h-1V6h1V5z"/>
<path fill="#D8CFBF" d="M32,5h1v1h-1V5z"/>
<path fill="#D3CABB" d="M35,5h1v2h-1V5z"/>
<path fill="#55739D" d="M36,5h7v1h-7V5z"/>
<path fill="#D3CABB" d="M43,5h2v4h1v1h-1v1h1v-1h1v2h-3v-2h-1V5z"/>
<path fill="#55739D" d="M45,5h2v1h-2V5z"/>
<path fill="#D3CABB" d="M47,5h8v1h-1v5h-1V6h-5v1h-1V5z"/>
<path fill="#55739D" d="M55,5h25v1H55V5z"/>
<path fill="#4B484A" d="M0,6h27v1H0V6z"/>
<path fill="#4B484A" d="M36,6h7v1h-7V6z"/>
<path fill="#4B484A" d="M45,6h2v1h-2V6z"/>
<path fill="#DCD3C4" d="M48,6h2v1h1v2h-1V8h-1V7h-1V6z"/>
<path fill="#D8CFBF" d="M50,6h1v1h-1V6z"/>
<path fill="#DCD3C4" d="M51,6h2v5h-1v-1h-1V9h1V7h-1V6z"/>
<path fill="#4B484A" d="M54,6h26v1H54V6z"/>
<path fill="#9BADC0" d="M0,7h1v3H0V7z"/>
<path fill="#869CB4" d="M1,7h2v2H1V7z"/>
<path fill="#9BADC0" d="M3,7h2v2H3V7z"/>
<path fill="#869CB4" d="M5,7h2v2H5V7z"/>
<path fill="#9BADC0" d="M7,7h2v2H7V7z"/>
<path fill="#869CB4" d="M9,7h2v2H9V7z"/>
<path fill="#9BADC0" d="M11,7h2v2h-2V7z"/>
<path fill="#869CB4" d="M13,7h2v2h-2V7z"/>
<path fill="#9BADC0" d="M15,7h2v2h1v1h1v11h-2V10h-1V9h-1V7z"/>
<path fill="#869CB4" d="M17,7h2v3h-1V9h-1V7z"/>
<path fill="#9BADC0" d="M19,7h2v2h1v1h1v8h-1v3h-1V10h-1V9h-1V7z"/>
<path fill="#869CB4" d="M21,7h2v3h-1V9h-1V7z"/>
<path fill="#9BADC0" d="M23,7h2v2h1v1h1v2h-1v-1h-1v-1h-1V9h-1V7z"/>
<path fill="#869CB4" d="M25,7h2v3h-1V9h-1V7z"/>
<path fill="#E3DACB" d="M30,7h2v1h-2V7z"/>
<path fill="#D3CABB" d="M34,7h1v6h-1V7z"/>
<path fill="#9BADC0" d="M35,7h2v2h1v1h1v9h-1v-3h-1v-6h-1V9h-1V7z"/>
<path fill="#869CB4" d="M37,7h2v3h-1V9h-1V7z"/>
<path fill="#9BADC0" d="M39,7h2v2h1v1h1v13h-1v1h-2v-1h1V10h-1V9h-1V7z"/>
<path fill="#869CB4" d="M41,7h2v3h-1V9h-1V7z"/>
<path fill="#869CB4" d="M45,7h2v3h-1V9h-1V7z"/>
<path fill="#9BADC0" d="M47,7h1v1h1v1h1v1h1v1h-2v-1h-1V9h-1V7z"/>
<path fill="#D3CABB" d="M48,7h1v1h-1V7z"/>
<path fill="#D8CFBF" d="M51,7h1v2h-1V7z"/>
<path fill="#869CB4" d="M54,7h1v3h-1V7z"/>
<path fill="#9BADC0" d="M55,7h2v2h1v2h-1v-1h-1V9h-1V7z"/>
<path fill="#869CB4" d="M57,7h1v2h-1V7z"/>
<path fill="#D3CABB" d="M58,7h1v4h-1V7z"/>
<path fill="#DCD3C4" d="M59,7h1v1h1V7h9v1h2v1h-2v1h-1v1h-1v1h-1v1h1v-1h1v-1h1v-1h1v2h1v1h1v-1h1v1h1v1h-2v1h1v1h1v1h1v-1h-1v-2h1
	v1h1v2h1v-1h1v1h1v2h-1v1h1v4h-4v-1h-1v1h-8v-1h-2v1h-1v-9h1v-1h-1v-2h-1v-1h-4V7z"/>
<path fill="#D8CFBF" d="M60,7h1v1h-1V7z"/>
<path fill="#D3CABB" d="M70,7h1v1h-1V7z"/>
<path fill="#ADADB6" d="M71,7h1v1h-1V7z"/>
<path fill="#D3CABB" d="M72,7h1v1h-1V7z"/>
<path fill="#ADADB6" d="M73,7h1v1h-1V7z"/>
<path fill="#D3CABB" d="M74,7h1v1h-1V7z"/>
<path fill="#DCD3C4" d="M75,7h1v1h-1V7z"/>
<path fill="#ADADB6" d="M76,7h1v1h-1V7z"/>
<path fill="#D3CABB" d="M77,7h1v1h-1V7z"/>
<path fill="#DCD3C4" d="M78,7h1v1h-1V7z"/>
<path fill="#ADADB6" d="M79,7h1v1h-1V7z"/>
<path fill="#9BADC0" d="M27,8h1v1h-1V8z"/>
<path fill="#D3CABB" d="M28,8h1v2h-1V8z"/>
<path fill="#E3DACB" d="M32,8h1v1h-1V8z"/>
<path fill="#D3CABB" d="M49,8h1v1h-1V8z"/>
<path fill="#ADADB6" d="M72,8h1v3h-1v-1h-1V9h1V8z"/>
<path fill="#D3CABB" d="M73,8h1v3h-1V8z"/>
<path fill="#ADADB6" d="M74,8h2v2h-1V9h-1V8z"/>
<path fill="#DCD3C4" d="M76,8h2v1h-2V8z"/>
<path fill="#ADADB6" d="M78,8h1v1h-1V8z"/>
<path fill="#D3CABB" d="M79,8h1v1h-1V8z"/>
<path fill="#B6C5D4" d="M15,9h1v1h-1V9z"/>
<path fill="#B6C5D4" d="M19,9h1v1h1v11h-2V9z"/>
<path fill="#B6C5D4" d="M23,9h1v1h1v8h-2V9z"/>
<path fill="#B6C5D4" d="M27,9h1v1h1v2h-2V9z"/>
<path fill="#B6C5D4" d="M35,9h1v1h1v5h-1v-2h-1V9z"/>
<path fill="#B6C5D4" d="M39,9h1v1h1v13h-1v1h-1V9z"/>
<path fill="#B6C5D4" d="M47,9h1v1h1v13h-1v1h-1V9z"/>
<path fill="#D3CABB" d="M50,9h1v1h-1V9z"/>
<path fill="#B6C5D4" d="M55,9h1v1h1v1h-2V9z"/>
<path fill="#D8CFBF" d="M65,9h1v1h-1V9z"/>
<path fill="#D3CABB" d="M70,9h1v1h-1V9z"/>
<path fill="#DCD3C4" d="M74,9h1v1h1v1h-2V9z"/>
<path fill="#D3CABB" d="M76,9h1v1h-1V9z"/>
<path fill="#ADADB6" d="M77,9h1v1h-1V9z"/>
<path fill="#DCD3C4" d="M78,9h2v1h-1v1h-1V9z"/>
<path fill="#B6C5D4" d="M16,10h1v12h-1V10z"/>
<path fill="#D3CABB" d="M29,10h1v1h-1V10z"/>
<path fill="#D8CFBF" d="M32,10h1v1h-1V10z"/>
<path fill="#B6C5D4" d="M43,10h1v2h1v11h-1v1h-1V10z"/>
<path fill="#DCD3C4" d="M45,10h1v1h-1V10z"/>
<path fill="#D3CABB" d="M51,10h1v1h-1V10z"/>
<path fill="#9BADC0" d="M54,10h1v1h-1V10z"/>
<path fill="#E3DACB" d="M69,10h1v1h-1V10z"/>
<path fill="#D8CFBF" d="M71,10h1v2h-1V10z"/>
<path fill="#ADADB6" d="M76,10h1v1h-1V10z"/>
<path fill="#D3CABB" d="M77,10h1v1h-1V10z"/>
<path fill="#ADADB6" d="M79,10h1v1h-1V10z"/>
<path fill="#D3CABB" d="M25,11h1v1h3v2h1v-3h1v3h1v1h-5v-1h-1v-1h-1V11z"/>
<path fill="#9BADC0" d="M29,11h1v3h-1V11z"/>
<path fill="#E3DACB" d="M68,11h1v1h-1V11z"/>
<path fill="#DCD3C4" d="M72,11h1v1h-1V11z"/>
<path fill="#ADADB6" d="M73,11h1v1h-1V11z"/>
<path fill="#D3CABB" d="M74,11h1v1h-1V11z"/>
<path fill="#ADADB6" d="M75,11h1v1h-1V11z"/>
<path fill="#DCD3C4" d="M76,11h1v1h1v1h-2V11z"/>
<path fill="#ADADB6" d="M77,11h2v2h-1v-1h-1V11z"/>
<path fill="#DCD3C4" d="M79,11h1v1h-1V11z"/>
<path fill="#E3DACB" d="M32,12h1v1h-1V12z"/>
<path fill="#9BADC0" d="M45,12h2v11h-1v1h-2v-1h1V12z"/>
<path fill="#A59E93" d="M63,12h1v13h-1V12z"/>
<path fill="#E3DACB" d="M67,12h1v1h-1V12z"/>
<path fill="#ADADB6" d="M72,12h1v1h-1V12z"/>
<path fill="#ADADB6" d="M74,12h1v1h-1V12z"/>
<path fill="#D3CABB" d="M75,12h1v1h-1V12z"/>
<path fill="#D3CABB" d="M79,12h1v1h-1V12z"/>
<path fill="#9BADC0" d="M25,13h1v1h1v7h-1v-3h-1V13z"/>
<path fill="#DCD3C4" d="M27,13h1v1h-1V13z"/>
<path fill="#D3CABB" d="M35,13h1v2h-1V13z"/>
<path fill="#ADADB6" d="M75,13h1v1h-1V13z"/>
<path fill="#D3CABB" d="M76,13h3v1h-3V13z"/>
<path fill="#ADADB6" d="M79,13h1v1h-1V13z"/>
<path fill="#D8CFBF" d="M64,14h1v1h-1V14z"/>
<path fill="#D8CFBF" d="M73,14h1v1h-1V14z"/>
<path fill="#ADADB6" d="M74,14h1v1h-1V14z"/>
<path fill="#ADADB6" d="M76,14h3v1h-1v1h-1v-1h-1V14z"/>
<path fill="#DCD3C4" d="M79,14h1v1h-1V14z"/>
<path fill="#B6C5D4" d="M27,15h2v5h-1v1h-1V15z"/>
<path fill="#9BADC0" d="M29,15h2v6h-2V15z"/>
<path fill="#B6C5D4" d="M31,15h1v1h1v5h-1v1h-1V15z"/>
<path fill="#D3CABB" d="M32,15h1v1h-1V15z"/>
<path fill="#D8CFBF" d="M34,15h1v1h-1V15z"/>
<path fill="#DCD3C4" d="M35,15h1v1h1v1h-1v1h1v1h1v11h-1v-1h-1v1h-4v-2h1v-1h-1v-4h1v-2h1v-5h1V15z"/>
<path fill="#D3CABB" d="M36,15h1v1h-1V15z"/>
<path fill="#D8CFBF" d="M69,15h1v1h-1V15z"/>
<path fill="#D3CABB" d="M74,15h1v1h-1V15z"/>
<path fill="#D8CFBF" d="M78,15h1v1h-1V15z"/>
<path fill="#ADADB6" d="M79,15h1v1h-1V15z"/>
<path fill="#D3CABB" d="M33,16h1v5h-1V16z"/>
<path fill="#D3CABB" d="M37,16h1v3h-1V16z"/>
<path fill="#E3DACB" d="M66,16h2v1h-2V16z"/>
<path fill="#E3DACB" d="M75,16h1v1h-1V16z"/>
<path fill="#D3CABB" d="M77,16h1v1h-1V16z"/>
<path fill="#D3CABB" d="M79,16h1v1h-1V16z"/>
<path fill="#D8CFBF" d="M36,17h1v1h-1V17z"/>
<path fill="#D8CFBF" d="M66,18h1v1h-1V18z"/>
<path fill="#D3CABB" d="M38,19h1v11h-1V19z"/>
<path fill="#D8CFBF" d="M76,19h1v2h-1V19z"/>
<path fill="#E3DACB" d="M79,19h1v1h-1V19z"/>
<path fill="#D3CABB" d="M28,20h1v1h-1V20z"/>
<path fill="#E3DACB" d="M35,20h1v2h-1V20z"/>
<path fill="#D8CFBF" d="M69,20h1v1h-1V20z"/>
<path fill="#E3DACB" d="M71,20h1v1h-1V20z"/>
<path fill="#D3CABB" d="M32,21h1v2h-1V21z"/>
<path fill="#D8CFBF" d="M36,21h1v1h-1V21z"/>
<path fill="#D8CFBF" d="M73,21h1v1h-1V21z"/>
<path fill="#E3DACB" d="M34,23h1v1h-1V23z"/>
<path fill="#869CB4" d="M42,23h1v1h-1V23z"/>
<path fill="#869CB4" d="M46,23h1v1h-1V23z"/>
<path fill="#9BADC0" d="M48,23h1v1h-1V23z"/>
<path fill="#D8CFBF" d="M65,23h2v1h-2V23z"/>
<path fill="#D8CFBF" d="M75,23h1v1h-1V23z"/>
<path fill="#D8CFBF" d="M36,24h1v1h-1V24z"/>
<path fill="#9BADC0" d="M39,24h1v1h1v4h-2V24z"/>
<path fill="#B6C5D4" d="M40,24h1v1h-1V24z"/>
<path fill="#869CB4" d="M41,24h1v1h1v4h-2V24z"/>
<path fill="#9BADC0" d="M42,24h2v1h1v4h-2v-4h-1V24z"/>
<path fill="#B6C5D4" d="M44,24h1v1h-1V24z"/>
<path fill="#869CB4" d="M45,24h1v3h1v2h-2V24z"/>
<path fill="#D3CABB" d="M46,24h2v2h-1v1h-1V24z"/>
<path fill="#B6C5D4" d="M48,24h1v1h-1V24z"/>
<path fill="#9BADC0" d="M48,25h1v3h-1v1h-1v-3h1V25z"/>
<path fill="#869CB4" d="M49,25h1v3h-1V25z"/>
<path fill="#9E978C" d="M50,25h1v1h-1V25z"/>
<path fill="#748290" d="M51,25h2v1h-2V25z"/>
<path fill="#9E978C" d="M53,25h2v1h-2V25z"/>
<path fill="#A59E93" d="M55,25h2v1h-2V25z"/>
<path fill="#AAA398" d="M57,25h1v1h-1V25z"/>
<path fill="#A59E93" d="M58,25h5v1h-5V25z"/>
<path fill="#E3DACB" d="M63,25h1v1h-1V25z"/>
<path fill="#E3DACB" d="M35,26h1v1h-1V26z"/>
<path fill="#D3CABB" d="M50,26h1v1h1v1h-2V26z"/>
<path fill="#9BADC0" d="M51,26h1v1h-1V26z"/>
<path fill="#D3CABB" d="M52,26h1v1h-1V26z"/>
<path fill="#DCD3C4" d="M53,26h7v1h1v-1h3v4h-9v-1h-1v1h-5v-1h1v-1h2v-1h1V26z"/>
<path fill="#D8CFBF" d="M60,26h1v1h-1V26z"/>
<path fill="#D8CFBF" d="M32,27h1v1h-1V27z"/>
<path fill="#E3DACB" d="M33,28h1v1h-1V28z"/>
<path fill="#D3CABB" d="M48,28h2v1h-1v1h-1V28z"/>
<path fill="#D8CFBF" d="M36,29h1v1h-1V29z"/>
<path fill="#4E6688" d="M39,29h9v1h-9V29z"/>
<path fill="#D8CFBF" d="M54,29h1v1h-1V29z"/>
<path fill="#B9B1A4" d="M32,30h8v1h-8V30z"/>
<path fill="#6889A5" d="M40,30h5v1h-5V30z"/>
<path fill="#B9B1A4" d="M45,30h19v1H45V30z"/>
<path fill="#828282" d="M32,31h32v1H32V31z"/>
</svg>
