<?xml version="1.0" encoding="utf-8"?>
<!-- Generator: Adobe Illustrator 16.0.4, SVG Export Plug-In . SVG Version: 6.00 Build 0)  -->
<!DOCTYPE svg PUBLIC "-//W3C//DTD SVG 1.1//EN" "http://www.w3.org/Graphics/SVG/1.1/DTD/svg11.dtd">
<svg version="1.1" id="Layer_1" xmlns="http://www.w3.org/2000/svg" xmlns:xlink="http://www.w3.org/1999/xlink" x="0px" y="0px"
	 width="16px" height="32px" viewBox="0 0 16 32" enable-background="new 0 0 16 32" xml:space="preserve">
<path fill="#694623" d="M1,15h14v14H1V15z"/>
<path fill="#CB9967" d="M2,16h12v1H2V16z"/>
<path fill="#A36C36" d="M2,17h12v11H2V17z"/>
<path fill="#A9CACD" d="M3,18h2v1h1v2h1v1H6v1H5v-2H4v1H3V18z"/>
<path fill="#7F979A" d="M5,18h2v1H5V18z"/>
<path fill="#91BCBF" d="M7,18h1v1h1v1H7V18z"/>
<path fill="#6D8D8F" d="M8,18h1v1H8V18z"/>
<path fill="#91BCBF" d="M9,18h1v1H9V18z"/>
<path fill="#A9CACD" d="M10,18h1v1h-1V18z"/>
<path fill="#91BCBF" d="M11,18h2v2h-3v-1h1V18z"/>
<path fill="#6D8D8F" d="M6,19h1v1H6V19z"/>
<path fill="#7F979A" d="M9,19h1v2h1v1H9V19z"/>
<path fill="#7F979A" d="M6,20h1v1H6V20z"/>
<path fill="#A9CACD" d="M7,20h1v1H7V20z"/>
<path fill="#C7DCDE" d="M8,20h1v1H8V20z"/>
<path fill="#A9CACD" d="M10,20h1v1h-1V20z"/>
<path fill="#7F979A" d="M11,20h2v1h-2V20z"/>
<path fill="#91BCBF" d="M4,21h1v3H4v1H3v-3h1V21z"/>
<path fill="#95A5A6" d="M7,21h1v1H7V21z"/>
<path fill="#A9CACD" d="M8,21h1v1H8V21z"/>
<path fill="#A9CACD" d="M11,21h1v1h-1V21z"/>
<path fill="#C7DCDE" d="M12,21h1v3h-1v1h-1v-1h-1v-1h1v-1h1V21z"/>
<path fill="#C7DCDE" d="M6,22h1v1H6V22z"/>
<path fill="#A9CACD" d="M7,22h1v1H7V22z"/>
<path fill="#7F979A" d="M8,22h1v1H8V22z"/>
<path fill="#A9CACD" d="M9,22h2v1H9V22z"/>
<path fill="#C7DCDE" d="M5,23h1v1H5V23z"/>
<path fill="#A9CACD" d="M6,23h1v2H6v1H5v-1H4v-1h2V23z"/>
<path fill="#7F979A" d="M7,23h1v2H7V23z"/>
<path fill="#A9CACD" d="M8,23h1v2H8V23z"/>
<path fill="#7F979A" d="M9,23h1v1H9V23z"/>
<path fill="#C7DCDE" d="M9,24h1v1h1v1H8v-1h1V24z"/>
<path fill="#95A5A6" d="M10,24h1v1h-1V24z"/>
<path fill="#A9CACD" d="M12,24h1v2h-1V24z"/>
<path fill="#A9CACD" d="M3,25h1v1H3V25z"/>
<path fill="#91BCBF" d="M4,25h1v1H4V25z"/>
<path fill="#7F979A" d="M6,25h1v1H6V25z"/>
<path fill="#A9CACD" d="M7,25h1v1H7V25z"/>
<path fill="#7F979A" d="M11,25h1v1h-1V25z"/>
<path fill="#CB9967" d="M3,26h10v1H3V26z"/>
</svg>
