<?xml version="1.0" encoding="utf-8"?>
<!-- Generator: Adobe Illustrator 16.0.4, SVG Export Plug-In . SVG Version: 6.00 Build 0)  -->
<!DOCTYPE svg PUBLIC "-//W3C//DTD SVG 1.1//EN" "http://www.w3.org/Graphics/SVG/1.1/DTD/svg11.dtd">
<svg version="1.1" id="Layer_1" xmlns="http://www.w3.org/2000/svg" xmlns:xlink="http://www.w3.org/1999/xlink" x="0px" y="0px"
	 width="16px" height="32px" viewBox="0 0 16 32" enable-background="new 0 0 16 32" xml:space="preserve">
<path fill="#694623" d="M1,11h14v14H1V11z"/>
<path fill="#CB9967" d="M2,12h12v1H2V12z"/>
<path fill="#A36C36" d="M2,13h12v11H2V13z"/>
<path fill="#A9CACD" d="M3,14h2v1h1v2h1v1H6v1H5v-2H4v1H3V14z"/>
<path fill="#7F979A" d="M5,14h2v1H5V14z"/>
<path fill="#91BCBF" d="M7,14h1v1h1v1H7V14z"/>
<path fill="#6D8D8F" d="M8,14h1v1H8V14z"/>
<path fill="#91BCBF" d="M9,14h1v1H9V14z"/>
<path fill="#A9CACD" d="M10,14h1v1h-1V14z"/>
<path fill="#91BCBF" d="M11,14h2v2h-3v-1h1V14z"/>
<path fill="#6D8D8F" d="M6,15h1v1H6V15z"/>
<path fill="#7F979A" d="M9,15h1v2h1v1H9V15z"/>
<path fill="#7F979A" d="M6,16h1v1H6V16z"/>
<path fill="#A9CACD" d="M7,16h1v1H7V16z"/>
<path fill="#C7DCDE" d="M8,16h1v1H8V16z"/>
<path fill="#A9CACD" d="M10,16h1v1h-1V16z"/>
<path fill="#7F979A" d="M11,16h2v1h-2V16z"/>
<path fill="#91BCBF" d="M4,17h1v3H4v1H3v-3h1V17z"/>
<path fill="#95A5A6" d="M7,17h1v1H7V17z"/>
<path fill="#A9CACD" d="M8,17h1v1H8V17z"/>
<path fill="#A9CACD" d="M11,17h1v1h-1V17z"/>
<path fill="#C7DCDE" d="M12,17h1v3h-1v1h-1v-1h-1v-1h1v-1h1V17z"/>
<path fill="#C7DCDE" d="M6,18h1v1H6V18z"/>
<path fill="#A9CACD" d="M7,18h1v1H7V18z"/>
<path fill="#7F979A" d="M8,18h1v1H8V18z"/>
<path fill="#A9CACD" d="M9,18h2v1H9V18z"/>
<path fill="#C7DCDE" d="M5,19h1v1H5V19z"/>
<path fill="#A9CACD" d="M6,19h1v2H6v1H5v-1H4v-1h2V19z"/>
<path fill="#7F979A" d="M7,19h1v2H7V19z"/>
<path fill="#A9CACD" d="M8,19h1v2H8V19z"/>
<path fill="#7F979A" d="M9,19h1v1H9V19z"/>
<path fill="#C7DCDE" d="M9,20h1v1h1v1H8v-1h1V20z"/>
<path fill="#95A5A6" d="M10,20h1v1h-1V20z"/>
<path fill="#A9CACD" d="M12,20h1v2h-1V20z"/>
<path fill="#A9CACD" d="M3,21h1v1H3V21z"/>
<path fill="#91BCBF" d="M4,21h1v1H4V21z"/>
<path fill="#7F979A" d="M6,21h1v1H6V21z"/>
<path fill="#A9CACD" d="M7,21h1v1H7V21z"/>
<path fill="#7F979A" d="M11,21h1v1h-1V21z"/>
<path fill="#CB9967" d="M3,22h10v1H3V22z"/>
</svg>
