<?xml version="1.0" encoding="utf-8"?>
<!-- Generator: Adobe Illustrator 16.0.4, SVG Export Plug-In . SVG Version: 6.00 Build 0)  -->
<!DOCTYPE svg PUBLIC "-//W3C//DTD SVG 1.1//EN" "http://www.w3.org/Graphics/SVG/1.1/DTD/svg11.dtd">
<svg version="1.1" id="Layer_1" xmlns="http://www.w3.org/2000/svg" xmlns:xlink="http://www.w3.org/1999/xlink" x="0px" y="0px"
	 width="32px" height="16px" viewBox="0 0 32 16" enable-background="new 0 0 32 16" xml:space="preserve">
<path fill="#985858" d="M5,4h23v1H5V4z"/>
<path fill="#493130" d="M1,5h1v1H1V5z"/>
<path fill="#985858" d="M2,5h3v1H2V5z"/>
<path fill="#E06868" d="M5,5h23v1h2v3h-2V8H5v1H2V6h3V5z"/>
<path fill="#985858" d="M28,5h2v1h-2V5z"/>
<path fill="#493130" d="M30,5h2v1h-2V5z"/>
<path fill="#493130" d="M0,6h1v1H0V6z"/>
<path fill="#985858" d="M1,6h1v3H1v1H0V7h1V6z"/>
<path fill="#985858" d="M30,6h2v3h-2V6z"/>
<path fill="#EEEEEE" d="M5,8h23v1h2v2h-1v2H4v-2H3V9h2V8z"/>
<path fill="#CDCDCD" d="M1,9h2v2h1v2h25v-2h1V9h2v7H1v-2H0v-4h1V9z"/>
<path fill="#AEAEAE" d="M0,14h1v2H0V14z"/>
</svg>
