<?xml version="1.0" encoding="utf-8"?>
<!-- Generator: Adobe Illustrator 16.0.4, SVG Export Plug-In . SVG Version: 6.00 Build 0)  -->
<!DOCTYPE svg PUBLIC "-//W3C//DTD SVG 1.1//EN" "http://www.w3.org/Graphics/SVG/1.1/DTD/svg11.dtd">
<svg version="1.1" id="Layer_1" xmlns="http://www.w3.org/2000/svg" xmlns:xlink="http://www.w3.org/1999/xlink" x="0px" y="0px"
	 width="32px" height="16px" viewBox="0 0 32 16" enable-background="new 0 0 32 16" xml:space="preserve">
<path fill="#5A5141" d="M0,9h8v1H1v3H0V9z"/>
<path fill="#493130" d="M8,9h16v1H8V9z"/>
<path fill="#5A5141" d="M24,9h8v4h-1v-3h-7V9z"/>
<path fill="#CCB995" d="M1,10h5v1H2v2H1V10z"/>
<path fill="#493130" d="M6,10h2v1H6V10z"/>
<path fill="#E06868" d="M8,10h3v1H9v1H7v1H5v1H3v1H1v-1h1v-1h2v-1h2v-1h2V10z"/>
<path fill="#985858" d="M11,10h2v1h-2V10z"/>
<path fill="#E06868" d="M13,10h6v1h2v1h2v1h2v1h2v1h2v1H3v-1h2v-1h2v-1h2v-1h2v-1h2V10z"/>
<path fill="#985858" d="M19,10h2v1h-2V10z"/>
<path fill="#E06868" d="M21,10h3v1h2v1h2v1h2v1h1v1h-2v-1h-2v-1h-2v-1h-2v-1h-2V10z"/>
<path fill="#493130" d="M24,10h2v1h-2V10z"/>
<path fill="#CCB995" d="M26,10h5v3h-1v-2h-4V10z"/>
<path fill="#B6A585" d="M2,11h2v1H2V11z"/>
<path fill="#493130" d="M4,11h2v1H4V11z"/>
<path fill="#985858" d="M9,11h2v1H9V11z"/>
<path fill="#985858" d="M21,11h2v1h-2V11z"/>
<path fill="#493130" d="M26,11h2v1h-2V11z"/>
<path fill="#B6A585" d="M28,11h2v1h-2V11z"/>
<path fill="#493130" d="M2,12h2v1H2V12z"/>
<path fill="#985858" d="M7,12h2v1H7V12z"/>
<path fill="#985858" d="M23,12h2v1h-2V12z"/>
<path fill="#493130" d="M28,12h2v1h-2V12z"/>
<path fill="#493130" d="M0,13h2v1H1v2H0V13z"/>
<path fill="#985858" d="M5,13h2v1H5V13z"/>
<path fill="#985858" d="M25,13h2v1h-2V13z"/>
<path fill="#493130" d="M30,13h2v3h-1v-2h-1V13z"/>
<path fill="#985858" d="M3,14h2v1H3V14z"/>
<path fill="#985858" d="M27,14h2v1h-2V14z"/>
<path fill="#985858" d="M1,15h2v1H1V15z"/>
<path fill="#985858" d="M29,15h2v1h-2V15z"/>
</svg>
