<?xml version="1.0" encoding="utf-8"?>
<!-- generated at drububu.com  -->
<!DOCTYPE svg PUBLIC "-//W3C//DTD SVG 1.1//EN" "http://www.w3.org/Graphics/SVG/1.1/DTD/svg11.dtd">
<svg version="1.1" preserveAspectRatio="xMinYMin meet" xmlns="http://www.w3.org/2000/svg" xmlns:xlink="http://www.w3.org/1999/xlink" x="0px" y="0px" width="16px" height="16px" viewBox="0 0 16 16">
<path d="M0 0h16v16h-1v-15h-15v-1z" fill="rgb(158,163,158)"/>
<path d="M0 1h15v15h-5v-12h-10v-3z" fill="rgb(227,232,227)"/>
<path d="M0 4h10v4h-1v-3h-9v-1z" fill="rgb(184,189,184)"/>
<path d="M0 5h9v3h-9v-3z" fill="rgb(204,209,204)"/>
<path d="M0 8h10v8h-1v-7h-9v-1z" fill="rgb(158,163,158)"/>
<path d="M0 9h9v1h-9v-1z" fill="rgb(194,199,194)"/>
<path d="M0 10h9v1h-9v-1z" fill="rgb(204,209,204)"/>
<path d="M0 11h9v5h-9v-5z" fill="rgb(215,220,215)"/>
</svg>
