<?xml version="1.0" encoding="utf-8"?>
<!-- Generator: Adobe Illustrator 16.0.4, SVG Export Plug-In . SVG Version: 6.00 Build 0)  -->
<!DOCTYPE svg PUBLIC "-//W3C//DTD SVG 1.1//EN" "http://www.w3.org/Graphics/SVG/1.1/DTD/svg11.dtd">
<svg version="1.1" id="Layer_1" xmlns="http://www.w3.org/2000/svg" xmlns:xlink="http://www.w3.org/1999/xlink" x="0px" y="0px"
	 width="112px" height="16px" viewBox="0 0 112 16" enable-background="new 0 0 112 16" xml:space="preserve">
<path fill="#9EA39E" d="M0,0h97v1H0V0z"/>
<path fill="#E3E8E3" d="M97,0h5v4H54v12h-5V4H0V1h97V0z"/>
<path fill="#9EA39E" d="M102,0h1v8h-1V0z"/>
<path fill="#D7DCD7" d="M103,0h9v1h-9V0z"/>
<path fill="#CCD1CC" d="M103,1h9v9h-9V1z"/>
<path fill="#B8BDB8" d="M0,4h48v1H0V4z"/>
<path fill="#9EA39E" d="M48,4h1v12h-1V9H37V8h11V4z"/>
<path fill="#9EA39E" d="M54,4h1v4h47v1H55v7h-1V4z"/>
<path fill="#B8BDB8" d="M55,4h47v1H55V4z"/>
<path fill="#CCD1CC" d="M0,5h48v3H37v1h-1v3h-3v-2H15v2h-3V9h-1V8H0V5z"/>
<path fill="#CCD1CC" d="M55,5h47v3H55V5z"/>
<path fill="#9EA39E" d="M0,8h11v1H0V8z"/>
<path fill="#696E69" d="M102,8h1v8h-1V8z"/>
<path fill="#C2C7C2" d="M0,9h11v1H0V9z"/>
<path fill="#9EA39E" d="M11,9h1v7h-1V9z"/>
<path fill="#9EA39E" d="M36,9h1v7h-1V9z"/>
<path fill="#C2C7C2" d="M37,9h11v1H37V9z"/>
<path fill="#C2C7C2" d="M55,9h47v1H55V9z"/>
<path fill="#CCD1CC" d="M0,10h11v1H0V10z"/>
<path fill="#808480" d="M15,10h18v1H15V10z"/>
<path fill="#CCD1CC" d="M37,10h11v1H37V10z"/>
<path fill="#CCD1CC" d="M55,10h47v1H55V10z"/>
<path fill="#C2C7C2" d="M103,10h9v5h-9V10z"/>
<path fill="#D7DCD7" d="M0,11h11v5H0V11z"/>
<path fill="#9EA39E" d="M15,11h1v5h-1V11z"/>
<path fill="#9EA39E" d="M32,11h1v5h-1V11z"/>
<path fill="#D7DCD7" d="M37,11h11v5H37V11z"/>
<path fill="#D7DCD7" d="M55,11h47v5H55V11z"/>
<path fill="#D7DCD7" d="M12,12h3v4h-3V12z"/>
<path fill="#D7DCD7" d="M33,12h3v4h-3V12z"/>
<path fill="#A5A9A5" d="M103,15h9v1h-9V15z"/>
</svg>
