<?xml version="1.0" encoding="utf-8"?>
<!-- Generator: Adobe Illustrator 16.0.4, SVG Export Plug-In . SVG Version: 6.00 Build 0)  -->
<!DOCTYPE svg PUBLIC "-//W3C//DTD SVG 1.1//EN" "http://www.w3.org/Graphics/SVG/1.1/DTD/svg11.dtd">
<svg version="1.1" id="Layer_1" xmlns="http://www.w3.org/2000/svg" xmlns:xlink="http://www.w3.org/1999/xlink" x="0px" y="0px"
	 width="80px" height="16px" viewBox="0 0 80 16" enable-background="new 0 0 80 16" xml:space="preserve">
<path fill="#725441" d="M1,8h29v1H1V8z"/>
<path fill="#725441" d="M51,8h29v1H51V8z"/>
<path fill="#725441" d="M0,9h1v7H0V9z"/>
<path fill="#CEB7A8" d="M1,9h2v1H2v6H1V9z"/>
<path fill="#D9C7BB" d="M3,9h26v7H2v-6h1V9z"/>
<path fill="#E4D9D1" d="M29,9h1v7h-1V9z"/>
<path fill="#725441" d="M30,9h1v7h-1V9z"/>
<path fill="#725441" d="M50,9h1v7h-1V9z"/>
<path fill="#CEB7A8" d="M51,9h2v1h-1v6h-1V9z"/>
<path fill="#D9C7BB" d="M53,9h26v7H52v-6h1V9z"/>
<path fill="#E4D9D1" d="M79,9h1v7h-1V9z"/>
</svg>
