<?xml version="1.0" encoding="utf-8"?>
<!-- Generator: Adobe Illustrator 16.0.4, SVG Export Plug-In . SVG Version: 6.00 Build 0)  -->
<!DOCTYPE svg PUBLIC "-//W3C//DTD SVG 1.1//EN" "http://www.w3.org/Graphics/SVG/1.1/DTD/svg11.dtd">
<svg version="1.1" id="Layer_1" xmlns="http://www.w3.org/2000/svg" xmlns:xlink="http://www.w3.org/1999/xlink" x="0px" y="0px"
	 width="176px" height="352px" viewBox="0 0 176 352" enable-background="new 0 0 176 352" xml:space="preserve">
<path fill="#252525" d="M0,0h3v1H1v2H0V0z"/>
<path fill="#FFFFFF" d="M3,0h170v1h2v2h1v170h-1v2h-2v1H3v-1H1v-2H0V3h1V1h2V0z"/>
<path fill="#252525" d="M173,0h3v3h-1V1h-2V0z"/>
<path fill="#010101" d="M3,2h170v1h1v170h-1v1H3v-1H2V3h1V2z"/>
<path fill="#FFFFFF" d="M39,19h1v2h-1V19z"/>
<path fill="#FFFFFF" d="M49,19h1v2h-1V19z"/>
<path fill="#FFFFFF" d="M51,19h1v4h1v1h-1v3h-1V19z"/>
<path fill="#FFFFFF" d="M64,19h1v3h1v1h-1v4h-1v-4h-1v-1h1V19z"/>
<path fill="#FFFFFF" d="M67,19h1v2h-1V19z"/>
<path fill="#FFFFFF" d="M133,19h3v1h-3V19z"/>
<path fill="#FFFFFF" d="M132,20h1v1h-1V20z"/>
<path fill="#FFFFFF" d="M136,20h1v3h-1V20z"/>
<path fill="#FFFFFF" d="M40,21h1v2h-1V21z"/>
<path fill="#FFFFFF" d="M48,21h1v2h-1V21z"/>
<path fill="#FFFFFF" d="M44,22h1v2h-1V22z"/>
<path fill="#FFFFFF" d="M53,22h2v1h-2V22z"/>
<path fill="#FFFFFF" d="M58,22h3v1h-3V22z"/>
<path fill="#FFFFFF" d="M69,22h3v1h-3V22z"/>
<path fill="#FFFFFF" d="M77,22h1v2h-1V22z"/>
<path fill="#FFFFFF" d="M81,22h1v2h-1V22z"/>
<path fill="#FFFFFF" d="M84,22h3v1h-3V22z"/>
<path fill="#FFFFFF" d="M89,22h1v4h-1V22z"/>
<path fill="#FFFFFF" d="M93,22h1v5h-4v-1h3V22z"/>
<path fill="#FFFFFF" d="M95,22h4v1h-3v4h-1V22z"/>
<path fill="#FFFFFF" d="M104,22h4v1h-3v4h-1V22z"/>
<path fill="#FFFFFF" d="M111,22h3v1h-3V22z"/>
<path fill="#FFFFFF" d="M116,22h4v1h-3v4h-1V22z"/>
<path fill="#FFFFFF" d="M121,22h3v1h-3V22z"/>
<path fill="#FFFFFF" d="M127,22h3v1h-3V22z"/>
<path fill="#FFFFFF" d="M41,23h1v2h-1V23z"/>
<path fill="#FFFFFF" d="M47,23h1v2h-1V23z"/>
<path fill="#FFFFFF" d="M55,23h1v4h-1V23z"/>
<path fill="#FFFFFF" d="M57,23h1v3h-1V23z"/>
<path fill="#010101" d="M58,23h3v3h-3V23z"/>
<path fill="#FFFFFF" d="M61,23h1v4h-4v-1h3V23z"/>
<path fill="#FFFFFF" d="M68,23h1v1h-1V23z"/>
<path fill="#FFFFFF" d="M83,23h1v3h-1V23z"/>
<path fill="#010101" d="M84,23h3v3h-3V23z"/>
<path fill="#FFFFFF" d="M87,23h1v3h-1V23z"/>
<path fill="#FFFFFF" d="M108,23h1v4h-1V23z"/>
<path fill="#FFFFFF" d="M110,23h1v3h-1V23z"/>
<path fill="#010101" d="M111,23h3v3h-3V23z"/>
<path fill="#FFFFFF" d="M114,23h1v4h-4v-1h3V23z"/>
<path fill="#FFFFFF" d="M120,23h1v4h-1V23z"/>
<path fill="#FFFFFF" d="M124,23h1v4h-1V23z"/>
<path fill="#FFFFFF" d="M126,23h1v1h3v-1h1v2h-4v1h-1V23z"/>
<path fill="#010101" d="M127,23h3v1h-3V23z"/>
<path fill="#FFFFFF" d="M135,23h1v1h-1V23z"/>
<path fill="#FFFFFF" d="M43,24h1v1h-1V24z"/>
<path fill="#FFFFFF" d="M45,24h1v1h-1V24z"/>
<path fill="#FFFFFF" d="M69,24h2v1h-2V24z"/>
<path fill="#FFFFFF" d="M78,24h1v2h-1V24z"/>
<path fill="#FFFFFF" d="M80,24h1v2h-1V24z"/>
<path fill="#FFFFFF" d="M134,24h1v1h-1V24z"/>
<path fill="#FFFFFF" d="M42,25h1v2h-1V25z"/>
<path fill="#FFFFFF" d="M46,25h1v2h-1V25z"/>
<path fill="#FFFFFF" d="M71,25h1v1h-1V25z"/>
<path fill="#FFFFFF" d="M68,26h3v1h-3V26z"/>
<path fill="#FFFFFF" d="M79,26h1v2h-1V26z"/>
<path fill="#FFFFFF" d="M84,26h3v1h-3V26z"/>
<path fill="#FFFFFF" d="M127,26h4v1h-4V26z"/>
<path fill="#FFFFFF" d="M134,26h1v1h-1V26z"/>
<path fill="#FFFFFF" d="M78,28h1v1h-1V28z"/>
<path fill="#FFFFFF" d="M29,84h3v1h1v6h-2v-3h-1v3h-2v-6h1V84z"/>
<path fill="#FFFFFF" d="M43,84h4v1h1v2h-1v1h1v2h-1v1h-4V84z"/>
<path fill="#FFFFFF" d="M59,84h3v1h-2v5h2v1h-3v-1h-1v-5h1V84z"/>
<path fill="#FFFFFF" d="M73,84h4v1h1v5h-1v1h-4V84z"/>
<path fill="#FFFFFF" d="M88,84h4v1h-2v2h1v1h-1v2h2v1h-4V84z"/>
<path fill="#FFFFFF" d="M103,84h4v1h-2v2h1v1h-1v3h-2V84z"/>
<path fill="#FFFFFF" d="M119,84h4v1h-3v5h1v-3h2v4h-4v-1h-1v-5h1V84z"/>
<path fill="#FFFFFF" d="M133,84h2v3h1v-3h2v7h-2v-3h-1v3h-2V84z"/>
<path fill="#FFFFFF" d="M149,84h2v7h-2V84z"/>
<path fill="#010101" d="M30,85h1v2h-1V85z"/>
<path fill="#010101" d="M45,85h1v2h-1V85z"/>
<path fill="#010101" d="M75,85h1v5h-1V85z"/>
<path fill="#010101" d="M45,88h1v2h-1V88z"/>
<path fill="#FFFFFF" d="M30,100h2v6h-1v1h-2v-1h1V100z"/>
<path fill="#FFFFFF" d="M43,100h2v2h1v-2h2v2h-1v1h-1v1h1v1h1v2h-2v-2h-1v2h-2V100z"/>
<path fill="#FFFFFF" d="M59,100h2v6h1v1h-3V100z"/>
<path fill="#FFFFFF" d="M72,100h2v1h1v1h1v-1h1v-1h2v7h-2v-4h-1v1h-1v-1h-1v4h-2V100z"/>
<path fill="#FFFFFF" d="M88,100h4v1h1v6h-2v-6h-1v6h-2V100z"/>
<path fill="#FFFFFF" d="M104,100h3v1h1v5h-1v1h-3v-1h-1v-5h1V100z"/>
<path fill="#FFFFFF" d="M118,100h4v1h1v2h-1v1h-2v3h-2V100z"/>
<path fill="#FFFFFF" d="M134,100h3v1h1v5h-1v1h1v1h-2v-1h-2v-1h-1v-5h1V100z"/>
<path fill="#FFFFFF" d="M148,100h4v1h1v2h-1v1h1v3h-2v-3h-1v3h-2V100z"/>
<path fill="#010101" d="M105,101h1v5h-1V101z"/>
<path fill="#010101" d="M120,101h1v2h-1V101z"/>
<path fill="#010101" d="M135,101h1v5h-1V101z"/>
<path fill="#010101" d="M150,101h1v2h-1V101z"/>
<path fill="#FFFFFF" d="M30,116h3v1h-2v2h1v1h1v2h-1v1h-3v-1h2v-2h-1v-1h-1v-2h1V116z"/>
<path fill="#FFFFFF" d="M43,116h4v1h-1v6h-2v-6h-1V116z"/>
<path fill="#FFFFFF" d="M58,116h2v6h1v-6h2v6h-1v1h-3v-1h-1V116z"/>
<path fill="#FFFFFF" d="M73,116h2v5h1v-5h2v5h-1v1h-1v1h-1v-1h-1v-1h-1V116z"/>
<path fill="#FFFFFF" d="M86,116h2v6h1v-6h2v6h1v-6h2v6h-1v1h-6v-1h-1V116z"/>
<path fill="#FFFFFF" d="M103,116h2v2h1v-2h2v2h-1v3h1v2h-2v-2h-1v2h-2v-2h1v-3h-1V116z"/>
<path fill="#FFFFFF" d="M118,116h2v4h1v-4h2v6h-1v1h-3v-1h2v-1h-2v-1h-1V116z"/>
<path fill="#FFFFFF" d="M133,116h4v3h-1v1h-1v2h2v1h-4v-3h1v-1h1v-2h-2V116z"/>
<path fill="#FFFFFF" d="M92,148h3v1h1v6h-2v-3h-1v3h-2v-6h1V148z"/>
<path fill="#010101" d="M93,149h1v2h-1V149z"/>
<path fill="#CFCFCF" d="M87,151h2v1h-2V151z"/>
<path fill="#CFCFCF" d="M98,151h3v1h-1v1h-1v1h-1V151z"/>
<path fill="#CFCFCF" d="M86,152h1v1h-1V152z"/>
<path fill="#CFCFCF" d="M85,153h1v2h-1V153z"/>
<path fill="#CFCFCF" d="M100,153h1v1h-1V153z"/>
<path fill="#CFCFCF" d="M101,154h1v2h-1V154z"/>
<path fill="#FFFFFF" d="M11,155h6v2h1v1h1v5h-1v2h-1v2h-6V155z"/>
<path fill="#FFFFFF" d="M21,155h6v2h-4v3h4v2h-4v3h4v2h-6V155z"/>
<path fill="#FFFFFF" d="M29,155h2v10h4v2h-6V155z"/>
<path fill="#FFFFFF" d="M37,155h6v2h-4v3h4v2h-4v3h4v2h-6V155z"/>
<path fill="#FFFFFF" d="M45,155h6v2h-2v10h-2v-10h-2V155z"/>
<path fill="#FFFFFF" d="M53,155h6v2h-4v3h4v2h-4v3h4v2h-6V155z"/>
<path fill="#CFCFCF" d="M84,155h1v5h-1V155z"/>
<path fill="#FFFFFF" d="M129,155h6v2h1v1h1v5h-1v2h-1v2h-6V155z"/>
<path fill="#FFFFFF" d="M141,155h4v2h1v2h1v4h-1v2h-1v2h-4v-2h-1v-2h-1v-5h1v-1h1V155z"/>
<path fill="#FFFFFF" d="M149,155h2v2h1v1h1v2h1v2h1v-7h2v12h-2v-2h-1v-1h-1v-2h-1v-2h-1v7h-2V155z"/>
<path fill="#FFFFFF" d="M159,155h6v2h-4v3h4v2h-4v3h4v2h-6V155z"/>
<path fill="#CFCFCF" d="M102,156h1v5h-1V156z"/>
<path fill="#010101" d="M13,157h3v2h1v4h-1v2h-3V157z"/>
<path fill="#010101" d="M131,157h3v2h1v4h-1v2h-3V157z"/>
<path fill="#010101" d="M142,157h2v2h1v4h-1v2h-2v-2h-1v-4h1V157z"/>
<path fill="#CFCFCF" d="M85,160h1v2h-1V160z"/>
<path fill="#CFCFCF" d="M101,161h1v2h-1V161z"/>
<path fill="#CFCFCF" d="M86,162h1v1h-1V162z"/>
<path fill="#CFCFCF" d="M88,162h1v3h-3v-1h1v-1h1V162z"/>
<path fill="#FFFFFF" d="M92,162h3v1h1v4h-4v-1h-1v-1h1v-1h2v-1h-2V162z"/>
<path fill="#CFCFCF" d="M100,163h1v1h-1V163z"/>
<path fill="#CFCFCF" d="M98,164h2v1h-2V164z"/>
<path fill="#010101" d="M93,165h1v1h-1V165z"/>
<path fill="#252525" d="M0,173h1v2h2v1H0V173z"/>
<path fill="#252525" d="M175,173h1v3h-3v-1h2V173z"/>
<g>
	<path fill="#252525" d="M0,176h3v1H1v2H0V176z"/>
	<path fill="#FFFFFF" d="M3,176h170v1h2v2h1v170h-1v2h-2v1H3v-1H1v-2H0V179h1v-2h2V176z"/>
	<path fill="#252525" d="M173,176h3v3h-1v-2h-2V176z"/>
	<path fill="#010101" d="M3,178h170v1h1v170h-1v1H3v-1H2V179h1V178z"/>
	<path fill="#FFFFFF" d="M39,195h1v2h-1V195z"/>
	<path fill="#FFFFFF" d="M49,195h1v2h-1V195z"/>
	<path fill="#FFFFFF" d="M51,195h1v4h1v1h-1v3h-1V195z"/>
	<path fill="#FFFFFF" d="M64,195h1v3h1v1h-1v4h-1v-4h-1v-1h1V195z"/>
	<path fill="#FFFFFF" d="M67,195h1v2h-1V195z"/>
	<path fill="#FFFFFF" d="M133,195h3v1h-3V195z"/>
	<path fill="#FFFFFF" d="M132,196h1v1h-1V196z"/>
	<path fill="#FFFFFF" d="M136,196h1v3h-1V196z"/>
	<path fill="#FFFFFF" d="M40,197h1v2h-1V197z"/>
	<path fill="#FFFFFF" d="M48,197h1v2h-1V197z"/>
	<path fill="#FFFFFF" d="M44,198h1v2h-1V198z"/>
	<path fill="#FFFFFF" d="M53,198h2v1h-2V198z"/>
	<path fill="#FFFFFF" d="M58,198h3v1h-3V198z"/>
	<path fill="#FFFFFF" d="M69,198h3v1h-3V198z"/>
	<path fill="#FFFFFF" d="M77,198h1v2h-1V198z"/>
	<path fill="#FFFFFF" d="M81,198h1v2h-1V198z"/>
	<path fill="#FFFFFF" d="M84,198h3v1h-3V198z"/>
	<path fill="#FFFFFF" d="M89,198h1v4h-1V198z"/>
	<path fill="#FFFFFF" d="M93,198h1v5h-4v-1h3V198z"/>
	<path fill="#FFFFFF" d="M95,198h4v1h-3v4h-1V198z"/>
	<path fill="#FFFFFF" d="M104,198h4v1h-3v4h-1V198z"/>
	<path fill="#FFFFFF" d="M111,198h3v1h-3V198z"/>
	<path fill="#FFFFFF" d="M116,198h4v1h-3v4h-1V198z"/>
	<path fill="#FFFFFF" d="M121,198h3v1h-3V198z"/>
	<path fill="#FFFFFF" d="M127,198h3v1h-3V198z"/>
	<path fill="#FFFFFF" d="M41,199h1v2h-1V199z"/>
	<path fill="#FFFFFF" d="M47,199h1v2h-1V199z"/>
	<path fill="#FFFFFF" d="M55,199h1v4h-1V199z"/>
	<path fill="#FFFFFF" d="M57,199h1v3h-1V199z"/>
	<path fill="#010101" d="M58,199h3v3h-3V199z"/>
	<path fill="#FFFFFF" d="M61,199h1v4h-4v-1h3V199z"/>
	<path fill="#FFFFFF" d="M68,199h1v1h-1V199z"/>
	<path fill="#FFFFFF" d="M83,199h1v3h-1V199z"/>
	<path fill="#010101" d="M84,199h3v3h-3V199z"/>
	<path fill="#FFFFFF" d="M87,199h1v3h-1V199z"/>
	<path fill="#FFFFFF" d="M108,199h1v4h-1V199z"/>
	<path fill="#FFFFFF" d="M110,199h1v3h-1V199z"/>
	<path fill="#010101" d="M111,199h3v3h-3V199z"/>
	<path fill="#FFFFFF" d="M114,199h1v4h-4v-1h3V199z"/>
	<path fill="#FFFFFF" d="M120,199h1v4h-1V199z"/>
	<path fill="#FFFFFF" d="M124,199h1v4h-1V199z"/>
	<path fill="#FFFFFF" d="M126,199h1v1h3v-1h1v2h-4v1h-1V199z"/>
	<path fill="#010101" d="M127,199h3v1h-3V199z"/>
	<path fill="#FFFFFF" d="M135,199h1v1h-1V199z"/>
	<path fill="#FFFFFF" d="M43,200h1v1h-1V200z"/>
	<path fill="#FFFFFF" d="M45,200h1v1h-1V200z"/>
	<path fill="#FFFFFF" d="M69,200h2v1h-2V200z"/>
	<path fill="#FFFFFF" d="M78,200h1v2h-1V200z"/>
	<path fill="#FFFFFF" d="M80,200h1v2h-1V200z"/>
	<path fill="#FFFFFF" d="M134,200h1v1h-1V200z"/>
	<path fill="#FFFFFF" d="M42,201h1v2h-1V201z"/>
	<path fill="#FFFFFF" d="M46,201h1v2h-1V201z"/>
	<path fill="#FFFFFF" d="M71,201h1v1h-1V201z"/>
	<path fill="#FFFFFF" d="M68,202h3v1h-3V202z"/>
	<path fill="#FFFFFF" d="M79,202h1v2h-1V202z"/>
	<path fill="#FFFFFF" d="M84,202h3v1h-3V202z"/>
	<path fill="#FFFFFF" d="M127,202h4v1h-4V202z"/>
	<path fill="#FFFFFF" d="M134,202h1v1h-1V202z"/>
	<path fill="#FFFFFF" d="M78,204h1v1h-1V204z"/>
	<path fill="#FFFFFF" d="M43,260h2v2h2v1h1v3h-1v1h-4V260z"/>
	<path fill="#FFFFFF" d="M76,260h2v7h-4v-1h-1v-3h1v-1h2V260z"/>
	<path fill="#FFFFFF" d="M105,260h2v1h-1v1h1v1h-1v4h-2v-4h-1v-1h1v-1h1V260z"/>
	<path fill="#FFFFFF" d="M133,260h2v2h2v1h1v4h-2v-4h-1v4h-2V260z"/>
	<path fill="#FFFFFF" d="M149,260h2v1h-2V260z"/>
	<path fill="#FFFFFF" d="M29,262h3v1h1v4h-4v-1h-1v-1h1v-1h2v-1h-2V262z"/>
	<path fill="#FFFFFF" d="M59,262h3v1h-2v3h2v1h-3v-1h-1v-3h1V262z"/>
	<path fill="#FFFFFF" d="M89,262h3v1h1v2h-3v1h2v1h-3v-1h-1v-3h1V262z"/>
	<path fill="#FFFFFF" d="M119,262h4v6h-1v1h-3v-1h2v-1h-2v-1h-1v-3h1V262z"/>
	<path fill="#FFFFFF" d="M149,262h2v5h-2V262z"/>
	<path fill="#010101" d="M45,263h1v3h-1V263z"/>
	<path fill="#010101" d="M75,263h1v3h-1V263z"/>
	<path fill="#010101" d="M90,263h1v1h-1V263z"/>
	<path fill="#010101" d="M120,263h1v3h-1V263z"/>
	<path fill="#010101" d="M30,265h1v1h-1V265z"/>
	<path fill="#FFFFFF" d="M30,276h2v1h-2V276z"/>
	<path fill="#FFFFFF" d="M43,276h2v3h1v-1h2v1h-1v1h-1v1h1v1h1v1h-2v-1h-1v1h-2V276z"/>
	<path fill="#FFFFFF" d="M59,276h2v7h-2V276z"/>
	<path fill="#FFFFFF" d="M30,278h2v6h-1v1h-2v-1h1V278z"/>
	<path fill="#FFFFFF" d="M71,278h7v1h1v4h-2v-4h-1v4h-2v-4h-1v4h-2V278z"/>
	<path fill="#FFFFFF" d="M88,278h4v1h1v4h-2v-4h-1v4h-2V278z"/>
	<path fill="#FFFFFF" d="M104,278h3v1h1v3h-1v1h-3v-1h-1v-3h1V278z"/>
	<path fill="#FFFFFF" d="M118,278h4v1h1v3h-1v1h-2v2h-2V278z"/>
	<path fill="#FFFFFF" d="M134,278h4v7h-2v-2h-2v-1h-1v-3h1V278z"/>
	<path fill="#FFFFFF" d="M149,278h3v1h-1v4h-2V278z"/>
	<path fill="#010101" d="M105,279h1v3h-1V279z"/>
	<path fill="#010101" d="M120,279h1v3h-1V279z"/>
	<path fill="#010101" d="M135,279h1v3h-1V279z"/>
	<path fill="#FFFFFF" d="M44,293h2v1h1v1h-1v3h1v1h-3v-4h-1v-1h1V293z"/>
	<path fill="#FFFFFF" d="M29,294h3v1h-2v1h1v1h1v1h-1v1h-3v-1h2v-1h-1v-1h-1v-1h1V294z"/>
	<path fill="#FFFFFF" d="M58,294h2v4h1v-4h2v5h-4v-1h-1V294z"/>
	<path fill="#FFFFFF" d="M73,294h2v3h1v-3h2v3h-1v1h-1v1h-1v-1h-1v-1h-1V294z"/>
	<path fill="#FFFFFF" d="M86,294h2v4h1v-4h2v4h1v-4h2v4h-1v1h-6v-1h-1V294z"/>
	<path fill="#FFFFFF" d="M103,294h2v2h1v-2h2v2h-1v1h1v2h-2v-2h-1v2h-2v-2h1v-1h-1V294z"/>
	<path fill="#FFFFFF" d="M118,294h2v4h1v-4h2v6h-1v1h-3v-1h2v-1h-2v-1h-1V294z"/>
	<path fill="#FFFFFF" d="M133,294h4v2h-1v1h-1v1h2v1h-4v-2h1v-1h1v-1h-2V294z"/>
	<path fill="#FFFFFF" d="M92,324h3v1h1v6h-2v-3h-1v3h-2v-6h1V324z"/>
	<path fill="#010101" d="M93,325h1v2h-1V325z"/>
	<path fill="#CFCFCF" d="M87,327h2v1h-2V327z"/>
	<path fill="#CFCFCF" d="M98,327h3v1h-1v1h-1v1h-1V327z"/>
	<path fill="#CFCFCF" d="M86,328h1v1h-1V328z"/>
	<path fill="#CFCFCF" d="M85,329h1v2h-1V329z"/>
	<path fill="#CFCFCF" d="M100,329h1v1h-1V329z"/>
	<path fill="#CFCFCF" d="M101,330h1v2h-1V330z"/>
	<path fill="#FFFFFF" d="M11,331h6v2h1v1h1v5h-1v2h-1v2h-6V331z"/>
	<path fill="#FFFFFF" d="M21,331h6v2h-4v3h4v2h-4v3h4v2h-6V331z"/>
	<path fill="#FFFFFF" d="M29,331h2v10h4v2h-6V331z"/>
	<path fill="#FFFFFF" d="M37,331h6v2h-4v3h4v2h-4v3h4v2h-6V331z"/>
	<path fill="#FFFFFF" d="M45,331h6v2h-2v10h-2v-10h-2V331z"/>
	<path fill="#FFFFFF" d="M53,331h6v2h-4v3h4v2h-4v3h4v2h-6V331z"/>
	<path fill="#CFCFCF" d="M84,331h1v5h-1V331z"/>
	<path fill="#FFFFFF" d="M129,331h6v2h1v1h1v5h-1v2h-1v2h-6V331z"/>
	<path fill="#FFFFFF" d="M141,331h4v2h1v2h1v4h-1v2h-1v2h-4v-2h-1v-2h-1v-5h1v-1h1V331z"/>
	<path fill="#FFFFFF" d="M149,331h2v2h1v1h1v2h1v2h1v-7h2v12h-2v-2h-1v-1h-1v-2h-1v-2h-1v7h-2V331z"/>
	<path fill="#FFFFFF" d="M159,331h6v2h-4v3h4v2h-4v3h4v2h-6V331z"/>
	<path fill="#CFCFCF" d="M102,332h1v5h-1V332z"/>
	<path fill="#010101" d="M13,333h3v2h1v4h-1v2h-3V333z"/>
	<path fill="#010101" d="M131,333h3v2h1v4h-1v2h-3V333z"/>
	<path fill="#010101" d="M142,333h2v2h1v4h-1v2h-2v-2h-1v-4h1V333z"/>
	<path fill="#CFCFCF" d="M85,336h1v2h-1V336z"/>
	<path fill="#CFCFCF" d="M101,337h1v2h-1V337z"/>
	<path fill="#CFCFCF" d="M86,338h1v1h-1V338z"/>
	<path fill="#CFCFCF" d="M88,338h1v3h-3v-1h1v-1h1V338z"/>
	<path fill="#FFFFFF" d="M92,338h3v1h1v4h-4v-1h-1v-1h1v-1h2v-1h-2V338z"/>
	<path fill="#CFCFCF" d="M100,339h1v1h-1V339z"/>
	<path fill="#CFCFCF" d="M98,340h2v1h-2V340z"/>
	<path fill="#010101" d="M93,341h1v1h-1V341z"/>
	<path fill="#252525" d="M0,349h1v2h2v1H0V349z"/>
	<path fill="#252525" d="M175,349h1v3h-3v-1h2V349z"/>
</g>
</svg>
