<?xml version="1.0" encoding="utf-8"?>
<!-- Generator: Adobe Illustrator 16.0.4, SVG Export Plug-In . SVG Version: 6.00 Build 0)  -->
<!DOCTYPE svg PUBLIC "-//W3C//DTD SVG 1.1//EN" "http://www.w3.org/Graphics/SVG/1.1/DTD/svg11.dtd">
<svg version="1.1" id="Layer_1" xmlns="http://www.w3.org/2000/svg" xmlns:xlink="http://www.w3.org/1999/xlink" x="0px" y="0px"
	 width="16px" height="16px" viewBox="0 0 16 16" enable-background="new 0 0 16 16" xml:space="preserve">
<path fill="#63635B" d="M10,1h3v1h-3V1z"/>
<path fill="#63635B" d="M8,2h2v1H8V2z"/>
<path fill="#9BACAD" d="M10,2h1v1h-1V2z"/>
<path fill="#C4C4B4" d="M11,2h2v4h-1V5h-1V4h1V3h-1V2z"/>
<path fill="#44443E" d="M13,2h1v1h-1V2z"/>
<path fill="#63635B" d="M5,3h3v1H5V3z"/>
<path fill="#9BACAD" d="M8,3h1v1H8V3z"/>
<path fill="#C4C4B4" d="M9,3h2v1H9V3z"/>
<path fill="#9BACAD" d="M11,3h1v1h-1V3z"/>
<path fill="#ADAD9F" d="M13,3h1v3h-1V3z"/>
<path fill="#44443E" d="M14,3h1v3h-1V3z"/>
<path fill="#44443E" d="M3,4h2v1H3V4z"/>
<path fill="#C4C4B4" d="M5,4h1v1H5V4z"/>
<path fill="#9BACAD" d="M6,4h1v1H6V4z"/>
<path fill="#C4C4B4" d="M7,4h2v1H7V4z"/>
<path fill="#9BACAD" d="M9,4h2v1H9V4z"/>
<path fill="#44443E" d="M2,5h1v3H2V5z"/>
<path fill="#ADAD9F" d="M3,5h3v1h1v3H6V7H5V6H3V5z"/>
<path fill="#C4C4B4" d="M6,5h1v1H6V5z"/>
<path fill="#9BACAD" d="M7,5h2v1H7V5z"/>
<path fill="#C4C4B4" d="M9,5h2v1h-1v1H8v1H7V6h2V5z"/>
<path fill="#9BACAD" d="M11,5h1v1h-1V5z"/>
<path fill="#939387" d="M3,6h1v1h1v2H4V8H3V6z"/>
<path fill="#77776D" d="M4,6h1v1H4V6z"/>
<path fill="#9BACAD" d="M10,6h1v1h-1V6z"/>
<path fill="#ADAD9F" d="M11,6h1v1h-1V6z"/>
<path fill="#44443E" d="M12,6h2v1h-2V6z"/>
<path fill="#77776D" d="M5,7h1v2H5V7z"/>
<path fill="#9BACAD" d="M8,7h1v1H8V7z"/>
<path fill="#ADAD9F" d="M9,7h1v1H9V7z"/>
<path fill="#44443E" d="M10,7h2v1h-2V7z"/>
<path fill="#44443E" d="M3,8h1v1H3V8z"/>
<path fill="#939387" d="M7,8h1v1H7V8z"/>
<path fill="#44443E" d="M8,8h2v1H8V8z"/>
<path fill="#44443E" d="M4,9h4v1H4V9z"/>
<path opacity="0.25" fill="#010101" d="M2,8h1v1H2V8z"/>
<path opacity="0.25" fill="#010101" d="M3,9h1v1H3V9z"/>
<path opacity="0.25" fill="#010101" d="M14,6h1v1h-1V6z"/>
<path opacity="0.25" fill="#010101" d="M12,7h2v1h-2V7z"/>
<path opacity="0.25" fill="#010101" d="M10,8h2v1h-2V8z"/>
<path opacity="0.25" fill="#010101" d="M8,9h2v1H8V9z"/>
<path opacity="0.25" fill="#010101" d="M4,10h4v1H4V10z"/>
</svg>
