<?xml version="1.0" encoding="utf-8"?>
<!-- Generator: Adobe Illustrator 16.0.4, SVG Export Plug-In . SVG Version: 6.00 Build 0)  -->
<!DOCTYPE svg PUBLIC "-//W3C//DTD SVG 1.1//EN" "http://www.w3.org/Graphics/SVG/1.1/DTD/svg11.dtd">
<svg version="1.1" id="Layer_1" xmlns="http://www.w3.org/2000/svg" xmlns:xlink="http://www.w3.org/1999/xlink" x="0px" y="0px"
	 width="64px" height="16px" viewBox="0 0 64 16" enable-background="new 0 0 64 16" xml:space="preserve">
<path fill="#7A4922" d="M16,9h32v1H16V9z"/>
<path fill="#7A4922" d="M15,10h1v4h-1V10z"/>
<path fill="#9B5A35" d="M16,10h3v2h-3V10z"/>
<path fill="#B59C2D" d="M19,10h26v2H19V10z"/>
<path fill="#9B5A35" d="M45,10h3v2h-3V10z"/>
<path fill="#7A4922" d="M48,10h1v4h-1V10z"/>
<path fill="#B59C2D" d="M16,12h3v4h-3V12z"/>
<path fill="#C7BF50" d="M19,12h26v4H19V12z"/>
<path fill="#B59C2D" d="M45,12h3v4h-3V12z"/>
<path fill="#60330F" d="M15,14h1v2h-1V14z"/>
<path fill="#60330F" d="M48,14h1v2h-1V14z"/>
</svg>
