<?xml version="1.0" encoding="utf-8"?>
<!-- Generator: Adobe Illustrator 16.0.4, SVG Export Plug-In . SVG Version: 6.00 Build 0)  -->
<!DOCTYPE svg PUBLIC "-//W3C//DTD SVG 1.1//EN" "http://www.w3.org/Graphics/SVG/1.1/DTD/svg11.dtd">
<svg version="1.1" id="Layer_1" xmlns="http://www.w3.org/2000/svg" xmlns:xlink="http://www.w3.org/1999/xlink" x="0px" y="0px"
	 width="48px" height="32px" viewBox="0 0 48 32" enable-background="new 0 0 48 32" xml:space="preserve">
<path fill="#828282" d="M12,0h24v1H12V0z"/>
<path fill="#EEEEEE" d="M12,1h24v3H12V1z"/>
<path fill="#FFFFFF" d="M12,4h24v1H12V4z"/>
<path fill="#6593B8" d="M12,5h24v1H12V5z"/>
<path fill="#474747" d="M12,6h24v26h-4V11h1v20h2V7H13v24h2V11h1v21h-4V6z"/>
<path fill="#D8D8D8" d="M13,7h22v1H13V7z"/>
<path fill="#818181" d="M13,8h22v1H13V8z"/>
<path fill="#A0A0A0" d="M13,9h22v17h-2V10H15v16h-2V9z"/>
<path fill="#252525" d="M15,10h18v1H15V10z"/>
<path fill="#818181" d="M13,26h2v1h-2V26z"/>
<path fill="#818181" d="M33,26h2v1h-2V26z"/>
<path fill="#A0A0A0" d="M13,27h2v1h-2V27z"/>
<path fill="#A0A0A0" d="M33,27h2v1h-2V27z"/>
<path fill="#818181" d="M13,28h2v3h-2V28z"/>
<path fill="#818181" d="M33,28h2v3h-2V28z"/>
</svg>
