<?xml version="1.0" encoding="utf-8"?>
<!-- Generator: Adobe Illustrator 16.0.4, SVG Export Plug-In . SVG Version: 6.00 Build 0)  -->
<!DOCTYPE svg PUBLIC "-//W3C//DTD SVG 1.1//EN" "http://www.w3.org/Graphics/SVG/1.1/DTD/svg11.dtd">
<svg version="1.1" id="Layer_1" xmlns="http://www.w3.org/2000/svg" xmlns:xlink="http://www.w3.org/1999/xlink" x="0px" y="0px"
	 width="176px" height="64px" viewBox="0 0 176 64" enable-background="new 0 0 176 64" xml:space="preserve">
<path fill="#010101" d="M11,0h154v32H11V0z"/>
<path fill="#828282" d="M11,32h154v32h-1V33H12v31h-1V32z"/>
<path fill="#EEEEEE" d="M12,33h152v31h-2V35H14v29h-2V33z"/>
<path fill="#FFFFFF" d="M14,35h148v29h-1V36H15v28h-1V35z"/>
<path fill="#828282" d="M15,36h146v28h-1V37H16v27h-1V36z"/>
<path opacity="0.6" fill="#D8D8D8" d="M16,37h1v1h-1V37z"/>
<path opacity="0.6" fill="#C6C6C6" d="M17,37h13v1h-1v1h-1v1h-1v1h-1v1h-1v1h-1v1h-1v1h-1v1h-1v1h-1v1h-1v1h-1v1h-1v1h-1V38h1V37z"
	/>
<path opacity="0.6" fill="#D8D8D8" d="M30,37h1v1h-1V37z"/>
<path opacity="0.6" fill="#C6C6C6" d="M31,37h11v1h-1v1h-1v1h-1v1h-1v1h-1v1h-1v1h-1v1h-1v1h-1v1h-1v1h-1v1h-1v1h-1v1h-1v1h-1v1h-1
	v1h-1v1h-1v1h-1v1h-1v1h-1v1h-1v1h-1v1h-1v1h-1v1h-1V52h1v-1h1v-1h1v-1h1v-1h1v-1h1v-1h1v-1h1v-1h1v-1h1v-1h1v-1h1v-1h1v-1h1v-1h1
	V37z"/>
<path opacity="0.6" fill="#D8D8D8" d="M42,37h1v1h-1V37z"/>
<path opacity="0.6" fill="#C6C6C6" d="M43,37h3v1h-1v1h-1v1h-1v1h-1v1h-1v1h-1v1h-1v1h-1v1h-1v1h-1v1h-1v1h-1v1h-1v1h-1v1h-1v1h-1v1
	h-1v1h-1v1h-1v1h-1v1h-1v1h-1v1h-1v1h-1v1h-1v1h-1v1h-3v-1h1v-1h1v-1h1v-1h1v-1h1v-1h1v-1h1v-1h1v-1h1v-1h1v-1h1v-1h1v-1h1v-1h1v-1
	h1v-1h1v-1h1v-1h1v-1h1v-1h1v-1h1v-1h1v-1h1v-1h1v-1h1v-1h1V37z"/>
<path opacity="0.6" fill="#D8D8D8" d="M46,37h3v1h-1v1h-1v1h-1v1h-1v1h-1v1h-1v1h-1v1h-1v1h-1v1h-1v1h-1v1h-1v1h-1v1h-1v1h-1v1h-1v1
	h-1v1h-1v1h-1v1h-1v1h-1v1h-1v1h-1v1h-1v1h-1v1h-1v1h-3v-1h1v-1h1v-1h1v-1h1v-1h1v-1h1v-1h1v-1h1v-1h1v-1h1v-1h1v-1h1v-1h1v-1h1v-1
	h1v-1h1v-1h1v-1h1v-1h1v-1h1v-1h1v-1h1v-1h1v-1h1v-1h1v-1h1V37z"/>
<path opacity="0.6" fill="#C6C6C6" d="M49,37h13v1h-1v1h-1v1h-1v1h-1v1h-1v1h-1v1h-1v1h-1v1h-1v1h-1v1h-1v1h-1v1h-1v1h-1v1h-1v1h-1
	v1h-1v1h-1v1h-1v1h-1v1h-1v1h-1v1h-1v1h-1v1h-1v1h-1v1H23v-1h1v-1h1v-1h1v-1h1v-1h1v-1h1v-1h1v-1h1v-1h1v-1h1v-1h1v-1h1v-1h1v-1h1
	v-1h1v-1h1v-1h1v-1h1v-1h1v-1h1v-1h1v-1h1v-1h1v-1h1v-1h1v-1h1V37z"/>
<path opacity="0.6" fill="#D8D8D8" d="M62,37h1v1h-1V37z"/>
<path opacity="0.6" fill="#C6C6C6" d="M63,37h11v1h-1v1h-1v1h-1v1h-1v1h-1v1h-1v1h-1v1h-1v1h-1v1h-1v1h-1v1h-1v1h-1v1h-1v1h-1v1h-1
	v1h-1v1h-1v1h-1v1h-1v1h-1v1h-1v1h-1v1h-1v1h-1v1h-1v1H37v-1h1v-1h1v-1h1v-1h1v-1h1v-1h1v-1h1v-1h1v-1h1v-1h1v-1h1v-1h1v-1h1v-1h1
	v-1h1v-1h1v-1h1v-1h1v-1h1v-1h1v-1h1v-1h1v-1h1v-1h1v-1h1v-1h1V37z"/>
<path opacity="0.6" fill="#D8D8D8" d="M74,37h1v1h-1V37z"/>
<path opacity="0.6" fill="#C6C6C6" d="M75,37h3v1h-1v1h-1v1h-1v1h-1v1h-1v1h-1v1h-1v1h-1v1h-1v1h-1v1h-1v1h-1v1h-1v1h-1v1h-1v1h-1v1
	h-1v1h-1v1h-1v1h-1v1h-1v1h-1v1h-1v1h-1v1h-1v1h-1v1h-3v-1h1v-1h1v-1h1v-1h1v-1h1v-1h1v-1h1v-1h1v-1h1v-1h1v-1h1v-1h1v-1h1v-1h1v-1
	h1v-1h1v-1h1v-1h1v-1h1v-1h1v-1h1v-1h1v-1h1v-1h1v-1h1v-1h1V37z"/>
<path opacity="0.6" fill="#D8D8D8" d="M78,37h3v1h-1v1h-1v1h-1v1h-1v1h-1v1h-1v1h-1v1h-1v1h-1v1h-1v1h-1v1h-1v1h-1v1h-1v1h-1v1h-1v1
	h-1v1h-1v1h-1v1h-1v1h-1v1h-1v1h-1v1h-1v1h-1v1h-1v1h-3v-1h1v-1h1v-1h1v-1h1v-1h1v-1h1v-1h1v-1h1v-1h1v-1h1v-1h1v-1h1v-1h1v-1h1v-1
	h1v-1h1v-1h1v-1h1v-1h1v-1h1v-1h1v-1h1v-1h1v-1h1v-1h1v-1h1V37z"/>
<path opacity="0.6" fill="#C6C6C6" d="M81,37h13v1h-1v1h-1v1h-1v1h-1v1h-1v1h-1v1h-1v1h-1v1h-1v1h-1v1h-1v1h-1v1h-1v1h-1v1h-1v1h-1
	v1h-1v1h-1v1h-1v1h-1v1h-1v1h-1v1h-1v1h-1v1h-1v1h-1v1H55v-1h1v-1h1v-1h1v-1h1v-1h1v-1h1v-1h1v-1h1v-1h1v-1h1v-1h1v-1h1v-1h1v-1h1
	v-1h1v-1h1v-1h1v-1h1v-1h1v-1h1v-1h1v-1h1v-1h1v-1h1v-1h1v-1h1V37z"/>
<path opacity="0.6" fill="#D8D8D8" d="M94,37h1v1h-1V37z"/>
<path opacity="0.6" fill="#C6C6C6" d="M95,37h11v1h-1v1h-1v1h-1v1h-1v1h-1v1h-1v1h-1v1h-1v1h-1v1h-1v1h-1v1h-1v1h-1v1h-1v1h-1v1h-1
	v1h-1v1h-1v1h-1v1h-1v1h-1v1h-1v1h-1v1h-1v1h-1v1h-1v1H69v-1h1v-1h1v-1h1v-1h1v-1h1v-1h1v-1h1v-1h1v-1h1v-1h1v-1h1v-1h1v-1h1v-1h1
	v-1h1v-1h1v-1h1v-1h1v-1h1v-1h1v-1h1v-1h1v-1h1v-1h1v-1h1v-1h1V37z"/>
<path opacity="0.6" fill="#D8D8D8" d="M106,37h1v1h-1V37z"/>
<path opacity="0.6" fill="#C6C6C6" d="M107,37h3v1h-1v1h-1v1h-1v1h-1v1h-1v1h-1v1h-1v1h-1v1h-1v1h-1v1h-1v1h-1v1h-1v1h-1v1h-1v1h-1
	v1h-1v1h-1v1h-1v1h-1v1h-1v1h-1v1h-1v1h-1v1h-1v1h-1v1h-3v-1h1v-1h1v-1h1v-1h1v-1h1v-1h1v-1h1v-1h1v-1h1v-1h1v-1h1v-1h1v-1h1v-1h1
	v-1h1v-1h1v-1h1v-1h1v-1h1v-1h1v-1h1v-1h1v-1h1v-1h1v-1h1v-1h1V37z"/>
<path opacity="0.6" fill="#D8D8D8" d="M110,37h3v1h-1v1h-1v1h-1v1h-1v1h-1v1h-1v1h-1v1h-1v1h-1v1h-1v1h-1v1h-1v1h-1v1h-1v1h-1v1h-1
	v1h-1v1h-1v1h-1v1h-1v1h-1v1h-1v1h-1v1h-1v1h-1v1h-1v1h-3v-1h1v-1h1v-1h1v-1h1v-1h1v-1h1v-1h1v-1h1v-1h1v-1h1v-1h1v-1h1v-1h1v-1h1
	v-1h1v-1h1v-1h1v-1h1v-1h1v-1h1v-1h1v-1h1v-1h1v-1h1v-1h1v-1h1V37z"/>
<path opacity="0.6" fill="#C6C6C6" d="M113,37h13v1h-1v1h-1v1h-1v1h-1v1h-1v1h-1v1h-1v1h-1v1h-1v1h-1v1h-1v1h-1v1h-1v1h-1v1h-1v1h-1
	v1h-1v1h-1v1h-1v1h-1v1h-1v1h-1v1h-1v1h-1v1h-1v1h-1v1H87v-1h1v-1h1v-1h1v-1h1v-1h1v-1h1v-1h1v-1h1v-1h1v-1h1v-1h1v-1h1v-1h1v-1h1
	v-1h1v-1h1v-1h1v-1h1v-1h1v-1h1v-1h1v-1h1v-1h1v-1h1v-1h1v-1h1V37z"/>
<path opacity="0.6" fill="#D8D8D8" d="M126,37h1v1h-1V37z"/>
<path opacity="0.6" fill="#C6C6C6" d="M127,37h11v1h-1v1h-1v1h-1v1h-1v1h-1v1h-1v1h-1v1h-1v1h-1v1h-1v1h-1v1h-1v1h-1v1h-1v1h-1v1h-1
	v1h-1v1h-1v1h-1v1h-1v1h-1v1h-1v1h-1v1h-1v1h-1v1h-1v1h-11v-1h1v-1h1v-1h1v-1h1v-1h1v-1h1v-1h1v-1h1v-1h1v-1h1v-1h1v-1h1v-1h1v-1h1
	v-1h1v-1h1v-1h1v-1h1v-1h1v-1h1v-1h1v-1h1v-1h1v-1h1v-1h1v-1h1V37z"/>
<path opacity="0.6" fill="#D8D8D8" d="M138,37h1v1h-1V37z"/>
<path opacity="0.6" fill="#C6C6C6" d="M139,37h3v1h-1v1h-1v1h-1v1h-1v1h-1v1h-1v1h-1v1h-1v1h-1v1h-1v1h-1v1h-1v1h-1v1h-1v1h-1v1h-1
	v1h-1v1h-1v1h-1v1h-1v1h-1v1h-1v1h-1v1h-1v1h-1v1h-1v1h-3v-1h1v-1h1v-1h1v-1h1v-1h1v-1h1v-1h1v-1h1v-1h1v-1h1v-1h1v-1h1v-1h1v-1h1
	v-1h1v-1h1v-1h1v-1h1v-1h1v-1h1v-1h1v-1h1v-1h1v-1h1v-1h1v-1h1V37z"/>
<path opacity="0.6" fill="#D8D8D8" d="M142,37h3v1h-1v1h-1v1h-1v1h-1v1h-1v1h-1v1h-1v1h-1v1h-1v1h-1v1h-1v1h-1v1h-1v1h-1v1h-1v1h-1
	v1h-1v1h-1v1h-1v1h-1v1h-1v1h-1v1h-1v1h-1v1h-1v1h-1v1h-3v-1h1v-1h1v-1h1v-1h1v-1h1v-1h1v-1h1v-1h1v-1h1v-1h1v-1h1v-1h1v-1h1v-1h1
	v-1h1v-1h1v-1h1v-1h1v-1h1v-1h1v-1h1v-1h1v-1h1v-1h1v-1h1v-1h1V37z"/>
<path opacity="0.6" fill="#C6C6C6" d="M145,37h13v1h-1v1h-1v1h-1v1h-1v1h-1v1h-1v1h-1v1h-1v1h-1v1h-1v1h-1v1h-1v1h-1v1h-1v1h-1v1h-1
	v1h-1v1h-1v1h-1v1h-1v1h-1v1h-1v1h-1v1h-1v1h-1v1h-1v1h-13v-1h1v-1h1v-1h1v-1h1v-1h1v-1h1v-1h1v-1h1v-1h1v-1h1v-1h1v-1h1v-1h1v-1h1
	v-1h1v-1h1v-1h1v-1h1v-1h1v-1h1v-1h1v-1h1v-1h1v-1h1v-1h1v-1h1V37z"/>
<path opacity="0.6" fill="#D8D8D8" d="M158,37h1v1h-1V37z"/>
<path opacity="0.6" fill="#C6C6C6" d="M159,37h1v11h-1v1h-1v1h-1v1h-1v1h-1v1h-1v1h-1v1h-1v1h-1v1h-1v1h-1v1h-1v1h-1v1h-1v1h-1v1h-1
	v1h-11v-1h1v-1h1v-1h1v-1h1v-1h1v-1h1v-1h1v-1h1v-1h1v-1h1v-1h1v-1h1v-1h1v-1h1v-1h1v-1h1v-1h1v-1h1v-1h1v-1h1v-1h1v-1h1v-1h1v-1h1
	v-1h1v-1h1V37z"/>
<path opacity="0.6" fill="#D8D8D8" d="M29,38h1v1h-1V38z"/>
<path opacity="0.6" fill="#D8D8D8" d="M41,38h1v1h-1V38z"/>
<path opacity="0.6" fill="#D8D8D8" d="M61,38h1v1h-1V38z"/>
<path opacity="0.6" fill="#D8D8D8" d="M73,38h1v1h-1V38z"/>
<path opacity="0.6" fill="#D8D8D8" d="M93,38h1v1h-1V38z"/>
<path opacity="0.6" fill="#D8D8D8" d="M105,38h1v1h-1V38z"/>
<path opacity="0.6" fill="#D8D8D8" d="M125,38h1v1h-1V38z"/>
<path opacity="0.6" fill="#D8D8D8" d="M137,38h1v1h-1V38z"/>
<path opacity="0.6" fill="#D8D8D8" d="M157,38h1v1h-1V38z"/>
<path opacity="0.6" fill="#D8D8D8" d="M28,39h1v1h-1V39z"/>
<path opacity="0.6" fill="#D8D8D8" d="M40,39h1v1h-1V39z"/>
<path opacity="0.6" fill="#D8D8D8" d="M60,39h1v1h-1V39z"/>
<path opacity="0.6" fill="#D8D8D8" d="M72,39h1v1h-1V39z"/>
<path opacity="0.6" fill="#D8D8D8" d="M92,39h1v1h-1V39z"/>
<path opacity="0.6" fill="#D8D8D8" d="M104,39h1v1h-1V39z"/>
<path opacity="0.6" fill="#D8D8D8" d="M124,39h1v1h-1V39z"/>
<path opacity="0.6" fill="#D8D8D8" d="M136,39h1v1h-1V39z"/>
<path opacity="0.6" fill="#D8D8D8" d="M156,39h1v1h-1V39z"/>
<path opacity="0.6" fill="#D8D8D8" d="M27,40h1v1h-1V40z"/>
<path opacity="0.6" fill="#D8D8D8" d="M39,40h1v1h-1V40z"/>
<path opacity="0.6" fill="#D8D8D8" d="M59,40h1v1h-1V40z"/>
<path opacity="0.6" fill="#D8D8D8" d="M71,40h1v1h-1V40z"/>
<path opacity="0.6" fill="#D8D8D8" d="M91,40h1v1h-1V40z"/>
<path opacity="0.6" fill="#D8D8D8" d="M103,40h1v1h-1V40z"/>
<path opacity="0.6" fill="#D8D8D8" d="M123,40h1v1h-1V40z"/>
<path opacity="0.6" fill="#D8D8D8" d="M135,40h1v1h-1V40z"/>
<path opacity="0.6" fill="#D8D8D8" d="M155,40h1v1h-1V40z"/>
<path opacity="0.6" fill="#D8D8D8" d="M26,41h1v1h-1V41z"/>
<path opacity="0.6" fill="#D8D8D8" d="M38,41h1v1h-1V41z"/>
<path opacity="0.6" fill="#D8D8D8" d="M58,41h1v1h-1V41z"/>
<path opacity="0.6" fill="#D8D8D8" d="M70,41h1v1h-1V41z"/>
<path opacity="0.6" fill="#D8D8D8" d="M90,41h1v1h-1V41z"/>
<path opacity="0.6" fill="#D8D8D8" d="M102,41h1v1h-1V41z"/>
<path opacity="0.6" fill="#D8D8D8" d="M122,41h1v1h-1V41z"/>
<path opacity="0.6" fill="#D8D8D8" d="M134,41h1v1h-1V41z"/>
<path opacity="0.6" fill="#D8D8D8" d="M154,41h1v1h-1V41z"/>
<path opacity="0.6" fill="#D8D8D8" d="M25,42h1v1h-1V42z"/>
<path opacity="0.6" fill="#D8D8D8" d="M37,42h1v1h-1V42z"/>
<path opacity="0.6" fill="#D8D8D8" d="M57,42h1v1h-1V42z"/>
<path opacity="0.6" fill="#D8D8D8" d="M69,42h1v1h-1V42z"/>
<path opacity="0.6" fill="#D8D8D8" d="M89,42h1v1h-1V42z"/>
<path opacity="0.6" fill="#D8D8D8" d="M101,42h1v1h-1V42z"/>
<path opacity="0.6" fill="#D8D8D8" d="M121,42h1v1h-1V42z"/>
<path opacity="0.6" fill="#D8D8D8" d="M133,42h1v1h-1V42z"/>
<path opacity="0.6" fill="#D8D8D8" d="M153,42h1v1h-1V42z"/>
<path opacity="0.6" fill="#D8D8D8" d="M24,43h1v1h-1V43z"/>
<path opacity="0.6" fill="#D8D8D8" d="M36,43h1v1h-1V43z"/>
<path opacity="0.6" fill="#D8D8D8" d="M56,43h1v1h-1V43z"/>
<path opacity="0.6" fill="#D8D8D8" d="M68,43h1v1h-1V43z"/>
<path opacity="0.6" fill="#D8D8D8" d="M88,43h1v1h-1V43z"/>
<path opacity="0.6" fill="#D8D8D8" d="M100,43h1v1h-1V43z"/>
<path opacity="0.6" fill="#D8D8D8" d="M120,43h1v1h-1V43z"/>
<path opacity="0.6" fill="#D8D8D8" d="M132,43h1v1h-1V43z"/>
<path opacity="0.6" fill="#D8D8D8" d="M152,43h1v1h-1V43z"/>
<path opacity="0.6" fill="#D8D8D8" d="M23,44h1v1h-1V44z"/>
<path opacity="0.6" fill="#D8D8D8" d="M35,44h1v1h-1V44z"/>
<path opacity="0.6" fill="#D8D8D8" d="M55,44h1v1h-1V44z"/>
<path opacity="0.6" fill="#D8D8D8" d="M67,44h1v1h-1V44z"/>
<path opacity="0.6" fill="#D8D8D8" d="M87,44h1v1h-1V44z"/>
<path opacity="0.6" fill="#D8D8D8" d="M99,44h1v1h-1V44z"/>
<path opacity="0.6" fill="#D8D8D8" d="M119,44h1v1h-1V44z"/>
<path opacity="0.6" fill="#D8D8D8" d="M131,44h1v1h-1V44z"/>
<path opacity="0.6" fill="#D8D8D8" d="M151,44h1v1h-1V44z"/>
<path opacity="0.6" fill="#D8D8D8" d="M22,45h1v1h-1V45z"/>
<path opacity="0.6" fill="#D8D8D8" d="M34,45h1v1h-1V45z"/>
<path opacity="0.6" fill="#D8D8D8" d="M54,45h1v1h-1V45z"/>
<path opacity="0.6" fill="#D8D8D8" d="M66,45h1v1h-1V45z"/>
<path opacity="0.6" fill="#D8D8D8" d="M86,45h1v1h-1V45z"/>
<path opacity="0.6" fill="#D8D8D8" d="M98,45h1v1h-1V45z"/>
<path opacity="0.6" fill="#D8D8D8" d="M118,45h1v1h-1V45z"/>
<path opacity="0.6" fill="#D8D8D8" d="M130,45h1v1h-1V45z"/>
<path opacity="0.6" fill="#D8D8D8" d="M150,45h1v1h-1V45z"/>
<path opacity="0.6" fill="#D8D8D8" d="M21,46h1v1h-1V46z"/>
<path opacity="0.6" fill="#D8D8D8" d="M33,46h1v1h-1V46z"/>
<path opacity="0.6" fill="#D8D8D8" d="M53,46h1v1h-1V46z"/>
<path opacity="0.6" fill="#D8D8D8" d="M65,46h1v1h-1V46z"/>
<path opacity="0.6" fill="#D8D8D8" d="M85,46h1v1h-1V46z"/>
<path opacity="0.6" fill="#D8D8D8" d="M97,46h1v1h-1V46z"/>
<path opacity="0.6" fill="#D8D8D8" d="M117,46h1v1h-1V46z"/>
<path opacity="0.6" fill="#D8D8D8" d="M129,46h1v1h-1V46z"/>
<path opacity="0.6" fill="#D8D8D8" d="M149,46h1v1h-1V46z"/>
<path opacity="0.6" fill="#D8D8D8" d="M20,47h1v1h-1V47z"/>
<path opacity="0.6" fill="#D8D8D8" d="M32,47h1v1h-1V47z"/>
<path opacity="0.6" fill="#D8D8D8" d="M52,47h1v1h-1V47z"/>
<path opacity="0.6" fill="#D8D8D8" d="M64,47h1v1h-1V47z"/>
<path opacity="0.6" fill="#D8D8D8" d="M84,47h1v1h-1V47z"/>
<path opacity="0.6" fill="#D8D8D8" d="M96,47h1v1h-1V47z"/>
<path opacity="0.6" fill="#D8D8D8" d="M116,47h1v1h-1V47z"/>
<path opacity="0.6" fill="#D8D8D8" d="M128,47h1v1h-1V47z"/>
<path opacity="0.6" fill="#D8D8D8" d="M148,47h1v1h-1V47z"/>
<path opacity="0.6" fill="#D8D8D8" d="M19,48h1v1h-1V48z"/>
<path opacity="0.6" fill="#D8D8D8" d="M31,48h1v1h-1V48z"/>
<path opacity="0.6" fill="#D8D8D8" d="M51,48h1v1h-1V48z"/>
<path opacity="0.6" fill="#D8D8D8" d="M63,48h1v1h-1V48z"/>
<path opacity="0.6" fill="#D8D8D8" d="M83,48h1v1h-1V48z"/>
<path opacity="0.6" fill="#D8D8D8" d="M95,48h1v1h-1V48z"/>
<path opacity="0.6" fill="#D8D8D8" d="M115,48h1v1h-1V48z"/>
<path opacity="0.6" fill="#D8D8D8" d="M127,48h1v1h-1V48z"/>
<path opacity="0.6" fill="#D8D8D8" d="M147,48h1v1h-1V48z"/>
<path opacity="0.6" fill="#D8D8D8" d="M159,48h1v1h-1V48z"/>
<path opacity="0.6" fill="#D8D8D8" d="M18,49h1v1h-1V49z"/>
<path opacity="0.6" fill="#D8D8D8" d="M30,49h1v1h-1V49z"/>
<path opacity="0.6" fill="#D8D8D8" d="M50,49h1v1h-1V49z"/>
<path opacity="0.6" fill="#D8D8D8" d="M62,49h1v1h-1V49z"/>
<path opacity="0.6" fill="#D8D8D8" d="M82,49h1v1h-1V49z"/>
<path opacity="0.6" fill="#D8D8D8" d="M94,49h1v1h-1V49z"/>
<path opacity="0.6" fill="#D8D8D8" d="M114,49h1v1h-1V49z"/>
<path opacity="0.6" fill="#D8D8D8" d="M126,49h1v1h-1V49z"/>
<path opacity="0.6" fill="#D8D8D8" d="M146,49h1v1h-1V49z"/>
<path opacity="0.6" fill="#D8D8D8" d="M158,49h1v1h-1V49z"/>
<path opacity="0.6" fill="#C6C6C6" d="M159,49h1v3h-1v1h-1v1h-1v1h-1v1h-1v1h-1v1h-1v1h-1v1h-1v1h-1v1h-1v1h-1v1h-3v-1h1v-1h1v-1h1
	v-1h1v-1h1v-1h1v-1h1v-1h1v-1h1v-1h1v-1h1v-1h1v-1h1v-1h1V49z"/>
<path opacity="0.6" fill="#D8D8D8" d="M17,50h1v1h-1V50z"/>
<path opacity="0.6" fill="#D8D8D8" d="M29,50h1v1h-1V50z"/>
<path opacity="0.6" fill="#D8D8D8" d="M49,50h1v1h-1V50z"/>
<path opacity="0.6" fill="#D8D8D8" d="M61,50h1v1h-1V50z"/>
<path opacity="0.6" fill="#D8D8D8" d="M81,50h1v1h-1V50z"/>
<path opacity="0.6" fill="#D8D8D8" d="M93,50h1v1h-1V50z"/>
<path opacity="0.6" fill="#D8D8D8" d="M113,50h1v1h-1V50z"/>
<path opacity="0.6" fill="#D8D8D8" d="M125,50h1v1h-1V50z"/>
<path opacity="0.6" fill="#D8D8D8" d="M145,50h1v1h-1V50z"/>
<path opacity="0.6" fill="#D8D8D8" d="M157,50h1v1h-1V50z"/>
<path opacity="0.6" fill="#D8D8D8" d="M16,51h1v1h-1V51z"/>
<path opacity="0.6" fill="#D8D8D8" d="M28,51h1v1h-1V51z"/>
<path opacity="0.6" fill="#D8D8D8" d="M48,51h1v1h-1V51z"/>
<path opacity="0.6" fill="#D8D8D8" d="M60,51h1v1h-1V51z"/>
<path opacity="0.6" fill="#D8D8D8" d="M80,51h1v1h-1V51z"/>
<path opacity="0.6" fill="#D8D8D8" d="M92,51h1v1h-1V51z"/>
<path opacity="0.6" fill="#D8D8D8" d="M112,51h1v1h-1V51z"/>
<path opacity="0.6" fill="#D8D8D8" d="M124,51h1v1h-1V51z"/>
<path opacity="0.6" fill="#D8D8D8" d="M144,51h1v1h-1V51z"/>
<path opacity="0.6" fill="#D8D8D8" d="M156,51h1v1h-1V51z"/>
<path opacity="0.6" fill="#D8D8D8" d="M27,52h1v1h-1V52z"/>
<path opacity="0.6" fill="#D8D8D8" d="M47,52h1v1h-1V52z"/>
<path opacity="0.6" fill="#D8D8D8" d="M59,52h1v1h-1V52z"/>
<path opacity="0.6" fill="#D8D8D8" d="M79,52h1v1h-1V52z"/>
<path opacity="0.6" fill="#D8D8D8" d="M91,52h1v1h-1V52z"/>
<path opacity="0.6" fill="#D8D8D8" d="M111,52h1v1h-1V52z"/>
<path opacity="0.6" fill="#D8D8D8" d="M123,52h1v1h-1V52z"/>
<path opacity="0.6" fill="#D8D8D8" d="M143,52h1v1h-1V52z"/>
<path opacity="0.6" fill="#D8D8D8" d="M155,52h1v1h-1V52z"/>
<path opacity="0.6" fill="#D8D8D8" d="M159,52h1v3h-1v1h-1v1h-1v1h-1v1h-1v1h-1v1h-1v1h-1v1h-1v1h-3v-1h1v-1h1v-1h1v-1h1v-1h1v-1h1
	v-1h1v-1h1v-1h1v-1h1v-1h1V52z"/>
<path opacity="0.6" fill="#D8D8D8" d="M26,53h1v1h-1V53z"/>
<path opacity="0.6" fill="#D8D8D8" d="M46,53h1v1h-1V53z"/>
<path opacity="0.6" fill="#D8D8D8" d="M58,53h1v1h-1V53z"/>
<path opacity="0.6" fill="#D8D8D8" d="M78,53h1v1h-1V53z"/>
<path opacity="0.6" fill="#D8D8D8" d="M90,53h1v1h-1V53z"/>
<path opacity="0.6" fill="#D8D8D8" d="M110,53h1v1h-1V53z"/>
<path opacity="0.6" fill="#D8D8D8" d="M122,53h1v1h-1V53z"/>
<path opacity="0.6" fill="#D8D8D8" d="M142,53h1v1h-1V53z"/>
<path opacity="0.6" fill="#D8D8D8" d="M154,53h1v1h-1V53z"/>
<path opacity="0.6" fill="#D8D8D8" d="M25,54h1v1h-1V54z"/>
<path opacity="0.6" fill="#D8D8D8" d="M45,54h1v1h-1V54z"/>
<path opacity="0.6" fill="#D8D8D8" d="M57,54h1v1h-1V54z"/>
<path opacity="0.6" fill="#D8D8D8" d="M77,54h1v1h-1V54z"/>
<path opacity="0.6" fill="#D8D8D8" d="M89,54h1v1h-1V54z"/>
<path opacity="0.6" fill="#D8D8D8" d="M109,54h1v1h-1V54z"/>
<path opacity="0.6" fill="#D8D8D8" d="M121,54h1v1h-1V54z"/>
<path opacity="0.6" fill="#D8D8D8" d="M141,54h1v1h-1V54z"/>
<path opacity="0.6" fill="#D8D8D8" d="M153,54h1v1h-1V54z"/>
<path opacity="0.6" fill="#D8D8D8" d="M24,55h1v1h-1V55z"/>
<path opacity="0.6" fill="#D8D8D8" d="M44,55h1v1h-1V55z"/>
<path opacity="0.6" fill="#D8D8D8" d="M56,55h1v1h-1V55z"/>
<path opacity="0.6" fill="#D8D8D8" d="M76,55h1v1h-1V55z"/>
<path opacity="0.6" fill="#D8D8D8" d="M88,55h1v1h-1V55z"/>
<path opacity="0.6" fill="#D8D8D8" d="M108,55h1v1h-1V55z"/>
<path opacity="0.6" fill="#D8D8D8" d="M120,55h1v1h-1V55z"/>
<path opacity="0.6" fill="#D8D8D8" d="M140,55h1v1h-1V55z"/>
<path opacity="0.6" fill="#D8D8D8" d="M152,55h1v1h-1V55z"/>
<path opacity="0.6" fill="#C6C6C6" d="M159,55h1v9h-9v-1h1v-1h1v-1h1v-1h1v-1h1v-1h1v-1h1v-1h1V55z"/>
<path opacity="0.6" fill="#D8D8D8" d="M23,56h1v1h-1V56z"/>
<path opacity="0.6" fill="#D8D8D8" d="M43,56h1v1h-1V56z"/>
<path opacity="0.6" fill="#D8D8D8" d="M55,56h1v1h-1V56z"/>
<path opacity="0.6" fill="#D8D8D8" d="M75,56h1v1h-1V56z"/>
<path opacity="0.6" fill="#D8D8D8" d="M87,56h1v1h-1V56z"/>
<path opacity="0.6" fill="#D8D8D8" d="M107,56h1v1h-1V56z"/>
<path opacity="0.6" fill="#D8D8D8" d="M119,56h1v1h-1V56z"/>
<path opacity="0.6" fill="#D8D8D8" d="M139,56h1v1h-1V56z"/>
<path opacity="0.6" fill="#D8D8D8" d="M151,56h1v1h-1V56z"/>
<path opacity="0.6" fill="#D8D8D8" d="M22,57h1v1h-1V57z"/>
<path opacity="0.6" fill="#D8D8D8" d="M42,57h1v1h-1V57z"/>
<path opacity="0.6" fill="#D8D8D8" d="M54,57h1v1h-1V57z"/>
<path opacity="0.6" fill="#D8D8D8" d="M74,57h1v1h-1V57z"/>
<path opacity="0.6" fill="#D8D8D8" d="M86,57h1v1h-1V57z"/>
<path opacity="0.6" fill="#D8D8D8" d="M106,57h1v1h-1V57z"/>
<path opacity="0.6" fill="#D8D8D8" d="M118,57h1v1h-1V57z"/>
<path opacity="0.6" fill="#D8D8D8" d="M138,57h1v1h-1V57z"/>
<path opacity="0.6" fill="#D8D8D8" d="M150,57h1v1h-1V57z"/>
<path opacity="0.6" fill="#D8D8D8" d="M21,58h1v1h-1V58z"/>
<path opacity="0.6" fill="#D8D8D8" d="M41,58h1v1h-1V58z"/>
<path opacity="0.6" fill="#D8D8D8" d="M53,58h1v1h-1V58z"/>
<path opacity="0.6" fill="#D8D8D8" d="M73,58h1v1h-1V58z"/>
<path opacity="0.6" fill="#D8D8D8" d="M85,58h1v1h-1V58z"/>
<path opacity="0.6" fill="#D8D8D8" d="M105,58h1v1h-1V58z"/>
<path opacity="0.6" fill="#D8D8D8" d="M117,58h1v1h-1V58z"/>
<path opacity="0.6" fill="#D8D8D8" d="M137,58h1v1h-1V58z"/>
<path opacity="0.6" fill="#D8D8D8" d="M149,58h1v1h-1V58z"/>
<path opacity="0.6" fill="#D8D8D8" d="M20,59h1v1h-1V59z"/>
<path opacity="0.6" fill="#D8D8D8" d="M40,59h1v1h-1V59z"/>
<path opacity="0.6" fill="#D8D8D8" d="M52,59h1v1h-1V59z"/>
<path opacity="0.6" fill="#D8D8D8" d="M72,59h1v1h-1V59z"/>
<path opacity="0.6" fill="#D8D8D8" d="M84,59h1v1h-1V59z"/>
<path opacity="0.6" fill="#D8D8D8" d="M104,59h1v1h-1V59z"/>
<path opacity="0.6" fill="#D8D8D8" d="M116,59h1v1h-1V59z"/>
<path opacity="0.6" fill="#D8D8D8" d="M136,59h1v1h-1V59z"/>
<path opacity="0.6" fill="#D8D8D8" d="M148,59h1v1h-1V59z"/>
<path opacity="0.6" fill="#D8D8D8" d="M19,60h1v1h-1V60z"/>
<path opacity="0.6" fill="#D8D8D8" d="M39,60h1v1h-1V60z"/>
<path opacity="0.6" fill="#D8D8D8" d="M51,60h1v1h-1V60z"/>
<path opacity="0.6" fill="#D8D8D8" d="M71,60h1v1h-1V60z"/>
<path opacity="0.6" fill="#D8D8D8" d="M83,60h1v1h-1V60z"/>
<path opacity="0.6" fill="#D8D8D8" d="M103,60h1v1h-1V60z"/>
<path opacity="0.6" fill="#D8D8D8" d="M115,60h1v1h-1V60z"/>
<path opacity="0.6" fill="#D8D8D8" d="M135,60h1v1h-1V60z"/>
<path opacity="0.6" fill="#D8D8D8" d="M147,60h1v1h-1V60z"/>
<path opacity="0.6" fill="#D8D8D8" d="M18,61h1v1h-1V61z"/>
<path opacity="0.6" fill="#D8D8D8" d="M38,61h1v1h-1V61z"/>
<path opacity="0.6" fill="#D8D8D8" d="M50,61h1v1h-1V61z"/>
<path opacity="0.6" fill="#D8D8D8" d="M70,61h1v1h-1V61z"/>
<path opacity="0.6" fill="#D8D8D8" d="M82,61h1v1h-1V61z"/>
<path opacity="0.6" fill="#D8D8D8" d="M102,61h1v1h-1V61z"/>
<path opacity="0.6" fill="#D8D8D8" d="M114,61h1v1h-1V61z"/>
<path opacity="0.6" fill="#D8D8D8" d="M134,61h1v1h-1V61z"/>
<path opacity="0.6" fill="#D8D8D8" d="M146,61h1v1h-1V61z"/>
<path opacity="0.6" fill="#D8D8D8" d="M17,62h1v1h-1V62z"/>
<path opacity="0.6" fill="#D8D8D8" d="M37,62h1v1h-1V62z"/>
<path opacity="0.6" fill="#D8D8D8" d="M49,62h1v1h-1V62z"/>
<path opacity="0.6" fill="#D8D8D8" d="M69,62h1v1h-1V62z"/>
<path opacity="0.6" fill="#D8D8D8" d="M81,62h1v1h-1V62z"/>
<path opacity="0.6" fill="#D8D8D8" d="M101,62h1v1h-1V62z"/>
<path opacity="0.6" fill="#D8D8D8" d="M113,62h1v1h-1V62z"/>
<path opacity="0.6" fill="#D8D8D8" d="M133,62h1v1h-1V62z"/>
<path opacity="0.6" fill="#D8D8D8" d="M145,62h1v1h-1V62z"/>
<path opacity="0.6" fill="#D8D8D8" d="M16,63h1v1h-1V63z"/>
<path opacity="0.6" fill="#D8D8D8" d="M36,63h1v1h-1V63z"/>
<path opacity="0.6" fill="#D8D8D8" d="M48,63h1v1h-1V63z"/>
<path opacity="0.6" fill="#D8D8D8" d="M68,63h1v1h-1V63z"/>
<path opacity="0.6" fill="#D8D8D8" d="M80,63h1v1h-1V63z"/>
<path opacity="0.6" fill="#D8D8D8" d="M100,63h1v1h-1V63z"/>
<path opacity="0.6" fill="#D8D8D8" d="M112,63h1v1h-1V63z"/>
<path opacity="0.6" fill="#D8D8D8" d="M132,63h1v1h-1V63z"/>
<path opacity="0.6" fill="#D8D8D8" d="M144,63h1v1h-1V63z"/>
</svg>
