<?xml version="1.0" encoding="utf-8"?>
<!-- generated at drububu.com  -->
<!DOCTYPE svg PUBLIC "-//W3C//DTD SVG 1.1//EN" "http://www.w3.org/Graphics/SVG/1.1/DTD/svg11.dtd">
<svg version="1.1" preserveAspectRatio="xMinYMin meet" xmlns="http://www.w3.org/2000/svg" xmlns:xlink="http://www.w3.org/1999/xlink" x="0px" y="0px" width="64px" height="64px" viewBox="0 0 64 64">
<path d="M0 0h64v1h-64v-1z" fill="rgb(130,130,130)"/>
<path d="M0 1h64v2h-64v-2z" fill="rgb(238,238,238)"/>
<path d="M0 3h64v1h-64v-1z" fill="rgb(255,255,255)"/>
<path d="M0 4h64v1h-64v-1z" fill="rgb(130,130,130)"/>
<path d="M0 5h1v1h-1v-1z" fill="rgb(139,92,46)"/>
<path d="M1 5h2v1h-2v-1z" fill="rgb(113,75,37)"/>
<path d="M3 5h2v1h-2v-1z" fill="rgb(139,92,46)"/>
<path d="M5 5h2v1h-2v-1z" fill="rgb(113,75,37)"/>
<path d="M7 5h2v1h-2v-1z" fill="rgb(139,92,46)"/>
<path d="M9 5h2v1h-2v-1z" fill="rgb(113,75,37)"/>
<path d="M11 5h2v1h-2v-1z" fill="rgb(139,92,46)"/>
<path d="M13 5h2v1h-2v-1z" fill="rgb(113,75,37)"/>
<path d="M15 5h2v1h-2v-1z" fill="rgb(139,92,46)"/>
<path d="M17 5h2v1h-2v-1z" fill="rgb(113,75,37)"/>
<path d="M19 5h2v1h-2v-1z" fill="rgb(139,92,46)"/>
<path d="M21 5h2v1h-2v-1z" fill="rgb(113,75,37)"/>
<path d="M23 5h2v1h-2v-1z" fill="rgb(139,92,46)"/>
<path d="M25 5h2v1h-2v-1z" fill="rgb(113,75,37)"/>
<path d="M27 5h2v1h-2v-1z" fill="rgb(139,92,46)"/>
<path d="M29 5h2v1h-2v-1z" fill="rgb(113,75,37)"/>
<path d="M31 5h2v1h-2v-1z" fill="rgb(139,92,46)"/>
<path d="M33 5h2v1h-2v-1z" fill="rgb(113,75,37)"/>
<path d="M35 5h2v1h-2v-1z" fill="rgb(139,92,46)"/>
<path d="M37 5h2v1h-2v-1z" fill="rgb(113,75,37)"/>
<path d="M39 5h2v1h-2v-1z" fill="rgb(139,92,46)"/>
<path d="M41 5h2v1h-2v-1z" fill="rgb(113,75,37)"/>
<path d="M43 5h2v1h-2v-1z" fill="rgb(139,92,46)"/>
<path d="M45 5h2v1h-2v-1z" fill="rgb(113,75,37)"/>
<path d="M47 5h2v1h-2v-1z" fill="rgb(139,92,46)"/>
<path d="M49 5h2v1h-2v-1z" fill="rgb(113,75,37)"/>
<path d="M51 5h2v1h-2v-1z" fill="rgb(139,92,46)"/>
<path d="M53 5h2v1h-2v-1z" fill="rgb(113,75,37)"/>
<path d="M55 5h2v1h-2v-1z" fill="rgb(139,92,46)"/>
<path d="M57 5h2v1h-2v-1z" fill="rgb(113,75,37)"/>
<path d="M59 5h2v1h-2v-1z" fill="rgb(139,92,46)"/>
<path d="M61 5h2v1h-2v-1z" fill="rgb(113,75,37)"/>
<path d="M63 5h1v1h-1v-1z" fill="rgb(139,92,46)"/>
<path d="M0 6h1v14h-1v-14z" fill="rgb(163,108,54)"/>
<path d="M1 6h2v14h-2v-14z" fill="rgb(133,88,44)"/>
<path d="M3 6h2v1h-1v1h-1v-2z" fill="rgb(163,108,54)"/>
<path d="M5 6h2v1h-2v-1z" fill="rgb(133,88,44)"/>
<path d="M7 6h2v2h-1v-1h-1v-1z" fill="rgb(163,108,54)"/>
<path d="M9 6h2v14h-2v-14z" fill="rgb(133,88,44)"/>
<path d="M11 6h2v14h-2v-14z" fill="rgb(163,108,54)"/>
<path d="M13 6h2v14h-2v-14z" fill="rgb(133,88,44)"/>
<path d="M15 6h2v14h-2v-14z" fill="rgb(163,108,54)"/>
<path d="M17 6h2v14h-2v-14z" fill="rgb(133,88,44)"/>
<path d="M19 6h2v14h-2v-14z" fill="rgb(163,108,54)"/>
<path d="M21 6h2v14h-2v-14z" fill="rgb(133,88,44)"/>
<path d="M23 6h2v14h-2v-14z" fill="rgb(163,108,54)"/>
<path d="M25 6h2v14h-2v-14z" fill="rgb(133,88,44)"/>
<path d="M27 6h2v14h-2v-14z" fill="rgb(163,108,54)"/>
<path d="M29 6h2v14h-2v-14z" fill="rgb(133,88,44)"/>
<path d="M31 6h2v14h-2v-14z" fill="rgb(163,108,54)"/>
<path d="M33 6h2v14h-2v-14z" fill="rgb(133,88,44)"/>
<path d="M35 6h2v14h-2v-14z" fill="rgb(163,108,54)"/>
<path d="M37 6h2v14h-2v-14z" fill="rgb(133,88,44)"/>
<path d="M39 6h2v14h-2v-14z" fill="rgb(163,108,54)"/>
<path d="M41 6h2v14h-2v-14z" fill="rgb(133,88,44)"/>
<path d="M43 6h2v14h-2v-14z" fill="rgb(163,108,54)"/>
<path d="M45 6h2v14h-2v-14z" fill="rgb(133,88,44)"/>
<path d="M47 6h2v14h-2v-14z" fill="rgb(163,108,54)"/>
<path d="M49 6h2v14h-2v-14z" fill="rgb(133,88,44)"/>
<path d="M51 6h2v14h-2v-14z" fill="rgb(163,108,54)"/>
<path d="M53 6h2v14h-2v-14z" fill="rgb(133,88,44)"/>
<path d="M55 6h2v14h-2v-14z" fill="rgb(163,108,54)"/>
<path d="M57 6h2v14h-2v-14z" fill="rgb(133,88,44)"/>
<path d="M59 6h2v14h-2v-14z" fill="rgb(163,108,54)"/>
<path d="M61 6h2v14h-2v-14z" fill="rgb(133,88,44)"/>
<path d="M63 6h1v14h-1v-14z" fill="rgb(163,108,54)"/>
<path d="M4 7h4v1h-4v-1z" fill="rgb(130,130,130)"/>
<path d="M3 8h1v10h-1v-10z" fill="rgb(130,130,130)"/>
<path d="M4 8h4v10h-4v-10z" fill="rgb(216,216,216)"/>
<path d="M8 8h1v10h-1v-10z" fill="rgb(130,130,130)"/>
<path d="M5 9h1v1h-1v-1z" fill="rgb(248,248,248)"/>
<path d="M6 9h1v2h-2v-1h1v-1z" fill="rgb(186,186,186)"/>
<path d="M5 12h1v1h-1v-1z" fill="rgb(248,248,248)"/>
<path d="M6 12h1v2h-2v-1h1v-1z" fill="rgb(186,186,186)"/>
<path d="M5 15h1v1h-1v-1z" fill="rgb(248,248,248)"/>
<path d="M6 15h1v2h-2v-1h1v-1z" fill="rgb(186,186,186)"/>
<path d="M3 18h1v1h1v1h-2v-2z" fill="rgb(163,108,54)"/>
<path d="M4 18h4v1h-4v-1z" fill="rgb(130,130,130)"/>
<path d="M8 18h1v2h-2v-1h1v-1z" fill="rgb(163,108,54)"/>
<path d="M5 19h2v1h-2v-1z" fill="rgb(133,88,44)"/>
<path d="M0 20h1v1h-1v-1z" fill="rgb(139,92,46)"/>
<path d="M1 20h2v1h-2v-1z" fill="rgb(113,75,37)"/>
<path d="M3 20h2v1h-2v-1z" fill="rgb(139,92,46)"/>
<path d="M5 20h2v1h-2v-1z" fill="rgb(113,75,37)"/>
<path d="M7 20h2v1h-2v-1z" fill="rgb(139,92,46)"/>
<path d="M9 20h2v1h-2v-1z" fill="rgb(113,75,37)"/>
<path d="M11 20h2v1h-2v-1z" fill="rgb(139,92,46)"/>
<path d="M13 20h2v1h-2v-1z" fill="rgb(113,75,37)"/>
<path d="M15 20h2v1h-2v-1z" fill="rgb(139,92,46)"/>
<path d="M17 20h2v1h-2v-1z" fill="rgb(113,75,37)"/>
<path d="M19 20h2v1h-2v-1z" fill="rgb(139,92,46)"/>
<path d="M21 20h2v1h-2v-1z" fill="rgb(113,75,37)"/>
<path d="M23 20h2v1h-2v-1z" fill="rgb(139,92,46)"/>
<path d="M25 20h2v1h-2v-1z" fill="rgb(113,75,37)"/>
<path d="M27 20h2v1h-2v-1z" fill="rgb(139,92,46)"/>
<path d="M29 20h2v1h-2v-1z" fill="rgb(113,75,37)"/>
<path d="M31 20h2v1h-2v-1z" fill="rgb(139,92,46)"/>
<path d="M33 20h2v1h-2v-1z" fill="rgb(113,75,37)"/>
<path d="M35 20h2v1h-2v-1z" fill="rgb(139,92,46)"/>
<path d="M37 20h2v1h-2v-1z" fill="rgb(113,75,37)"/>
<path d="M39 20h2v1h-2v-1z" fill="rgb(139,92,46)"/>
<path d="M41 20h2v1h-2v-1z" fill="rgb(113,75,37)"/>
<path d="M43 20h2v1h-2v-1z" fill="rgb(139,92,46)"/>
<path d="M45 20h2v1h-2v-1z" fill="rgb(113,75,37)"/>
<path d="M47 20h2v1h-2v-1z" fill="rgb(139,92,46)"/>
<path d="M49 20h2v1h-2v-1z" fill="rgb(113,75,37)"/>
<path d="M51 20h2v1h-2v-1z" fill="rgb(139,92,46)"/>
<path d="M53 20h2v1h-2v-1z" fill="rgb(113,75,37)"/>
<path d="M55 20h2v1h-2v-1z" fill="rgb(139,92,46)"/>
<path d="M57 20h2v1h-2v-1z" fill="rgb(113,75,37)"/>
<path d="M59 20h2v1h-2v-1z" fill="rgb(139,92,46)"/>
<path d="M61 20h2v1h-2v-1z" fill="rgb(113,75,37)"/>
<path d="M63 20h1v1h-1v-1z" fill="rgb(139,92,46)"/>
<path d="M0 21h2v1h-1v1h-1v-2z" fill="rgb(198,198,198)"/>
<path d="M2 21h1v1h-1v-1z" fill="rgb(216,216,216)"/>
<path d="M3 21h3v1h-1v1h-1v1h-1v1h-1v1h-1v1h-1v-3h1v-1h1v-1h1v-1z" fill="rgb(198,198,198)"/>
<path d="M6 21h3v1h-1v1h-1v1h-1v1h-1v1h-1v1h-3v-1h1v-1h1v-1h1v-1h1v-1h1v-1z" fill="rgb(216,216,216)"/>
<path d="M9 21h9v1h-1v1h-1v1h-1v1h-1v1h-1v1h-9v-1h1v-1h1v-1h1v-1h1v-1h1v-1z" fill="rgb(198,198,198)"/>
<path d="M18 21h1v1h-1v-1z" fill="rgb(216,216,216)"/>
<path d="M19 21h3v1h-1v1h-1v1h-1v1h-1v1h-1v1h-3v-1h1v-1h1v-1h1v-1h1v-1h1v-1z" fill="rgb(198,198,198)"/>
<path d="M22 21h3v1h-1v1h-1v1h-1v1h-1v1h-1v1h-3v-1h1v-1h1v-1h1v-1h1v-1h1v-1z" fill="rgb(216,216,216)"/>
<path d="M25 21h9v1h-1v1h-1v1h-1v1h-1v1h-1v1h-9v-1h1v-1h1v-1h1v-1h1v-1h1v-1z" fill="rgb(198,198,198)"/>
<path d="M34 21h1v1h-1v-1z" fill="rgb(216,216,216)"/>
<path d="M35 21h3v1h-1v1h-1v1h-1v1h-1v1h-1v1h-3v-1h1v-1h1v-1h1v-1h1v-1h1v-1z" fill="rgb(198,198,198)"/>
<path d="M38 21h3v1h-1v1h-1v1h-1v1h-1v1h-1v1h-3v-1h1v-1h1v-1h1v-1h1v-1h1v-1z" fill="rgb(216,216,216)"/>
<path d="M41 21h9v1h-1v1h-1v1h-1v1h-1v1h-1v1h-9v-1h1v-1h1v-1h1v-1h1v-1h1v-1z" fill="rgb(198,198,198)"/>
<path d="M50 21h1v1h-1v-1z" fill="rgb(216,216,216)"/>
<path d="M51 21h3v1h-1v1h-1v1h-1v1h-1v1h-1v1h-3v-1h1v-1h1v-1h1v-1h1v-1h1v-1z" fill="rgb(198,198,198)"/>
<path d="M54 21h3v1h-1v1h-1v1h-1v1h-1v1h-1v1h-3v-1h1v-1h1v-1h1v-1h1v-1h1v-1z" fill="rgb(216,216,216)"/>
<path d="M57 21h7v3h-1v1h-1v1h-1v1h-9v-1h1v-1h1v-1h1v-1h1v-1h1v-1z" fill="rgb(198,198,198)"/>
<path d="M1 22h1v1h-1v-1z" fill="rgb(216,216,216)"/>
<path d="M17 22h1v1h-1v-1z" fill="rgb(216,216,216)"/>
<path d="M33 22h1v1h-1v-1z" fill="rgb(216,216,216)"/>
<path d="M49 22h1v1h-1v-1z" fill="rgb(216,216,216)"/>
<path d="M0 23h1v1h-1v-1z" fill="rgb(216,216,216)"/>
<path d="M16 23h1v1h-1v-1z" fill="rgb(216,216,216)"/>
<path d="M32 23h1v1h-1v-1z" fill="rgb(216,216,216)"/>
<path d="M48 23h1v1h-1v-1z" fill="rgb(216,216,216)"/>
<path d="M15 24h1v1h-1v-1z" fill="rgb(216,216,216)"/>
<path d="M31 24h1v1h-1v-1z" fill="rgb(216,216,216)"/>
<path d="M47 24h1v1h-1v-1z" fill="rgb(216,216,216)"/>
<path d="M63 24h1v1h-1v-1z" fill="rgb(216,216,216)"/>
<path d="M14 25h1v1h-1v-1z" fill="rgb(216,216,216)"/>
<path d="M30 25h1v1h-1v-1z" fill="rgb(216,216,216)"/>
<path d="M46 25h1v1h-1v-1z" fill="rgb(216,216,216)"/>
<path d="M62 25h1v1h-1v-1z" fill="rgb(216,216,216)"/>
<path d="M63 25h1v2h-2v-1h1v-1z" fill="rgb(198,198,198)"/>
<path d="M13 26h1v1h-1v-1z" fill="rgb(216,216,216)"/>
<path d="M29 26h1v1h-1v-1z" fill="rgb(216,216,216)"/>
<path d="M45 26h1v1h-1v-1z" fill="rgb(216,216,216)"/>
<path d="M61 26h1v1h-1v-1z" fill="rgb(216,216,216)"/>
<path d="M0 27h1v1h-1v-1z" fill="rgb(113,75,37)"/>
<path d="M1 27h2v1h-2v-1z" fill="rgb(89,60,30)"/>
<path d="M3 27h1v1h-1v-1z" fill="rgb(139,92,46)"/>
<path d="M4 27h1v1h-1v-1z" fill="rgb(113,75,37)"/>
<path d="M5 27h2v1h-2v-1z" fill="rgb(89,60,30)"/>
<path d="M7 27h1v1h-1v-1z" fill="rgb(139,92,46)"/>
<path d="M8 27h1v1h-1v-1z" fill="rgb(113,75,37)"/>
<path d="M9 27h2v1h-2v-1z" fill="rgb(89,60,30)"/>
<path d="M11 27h1v1h-1v-1z" fill="rgb(139,92,46)"/>
<path d="M12 27h1v1h-1v-1z" fill="rgb(113,75,37)"/>
<path d="M13 27h2v1h-2v-1z" fill="rgb(89,60,30)"/>
<path d="M15 27h1v1h-1v-1z" fill="rgb(139,92,46)"/>
<path d="M16 27h1v1h-1v-1z" fill="rgb(113,75,37)"/>
<path d="M17 27h2v1h-2v-1z" fill="rgb(89,60,30)"/>
<path d="M19 27h1v1h-1v-1z" fill="rgb(139,92,46)"/>
<path d="M20 27h1v1h-1v-1z" fill="rgb(113,75,37)"/>
<path d="M21 27h2v1h-2v-1z" fill="rgb(89,60,30)"/>
<path d="M23 27h1v1h-1v-1z" fill="rgb(139,92,46)"/>
<path d="M24 27h1v1h-1v-1z" fill="rgb(113,75,37)"/>
<path d="M25 27h2v1h-2v-1z" fill="rgb(89,60,30)"/>
<path d="M27 27h1v1h-1v-1z" fill="rgb(139,92,46)"/>
<path d="M28 27h1v1h-1v-1z" fill="rgb(113,75,37)"/>
<path d="M29 27h2v1h-2v-1z" fill="rgb(89,60,30)"/>
<path d="M31 27h1v1h-1v-1z" fill="rgb(139,92,46)"/>
<path d="M32 27h1v1h-1v-1z" fill="rgb(113,75,37)"/>
<path d="M33 27h2v1h-2v-1z" fill="rgb(89,60,30)"/>
<path d="M35 27h1v1h-1v-1z" fill="rgb(139,92,46)"/>
<path d="M36 27h1v1h-1v-1z" fill="rgb(113,75,37)"/>
<path d="M37 27h2v1h-2v-1z" fill="rgb(89,60,30)"/>
<path d="M39 27h1v1h-1v-1z" fill="rgb(139,92,46)"/>
<path d="M40 27h1v1h-1v-1z" fill="rgb(113,75,37)"/>
<path d="M41 27h2v1h-2v-1z" fill="rgb(89,60,30)"/>
<path d="M43 27h1v1h-1v-1z" fill="rgb(139,92,46)"/>
<path d="M44 27h1v1h-1v-1z" fill="rgb(113,75,37)"/>
<path d="M45 27h2v1h-2v-1z" fill="rgb(89,60,30)"/>
<path d="M47 27h1v1h-1v-1z" fill="rgb(139,92,46)"/>
<path d="M48 27h1v1h-1v-1z" fill="rgb(113,75,37)"/>
<path d="M49 27h2v1h-2v-1z" fill="rgb(89,60,30)"/>
<path d="M51 27h1v1h-1v-1z" fill="rgb(139,92,46)"/>
<path d="M52 27h1v1h-1v-1z" fill="rgb(113,75,37)"/>
<path d="M53 27h2v1h-2v-1z" fill="rgb(89,60,30)"/>
<path d="M55 27h1v1h-1v-1z" fill="rgb(139,92,46)"/>
<path d="M56 27h1v1h-1v-1z" fill="rgb(113,75,37)"/>
<path d="M57 27h2v1h-2v-1z" fill="rgb(89,60,30)"/>
<path d="M59 27h1v1h-1v-1z" fill="rgb(139,92,46)"/>
<path d="M60 27h1v1h-1v-1z" fill="rgb(113,75,37)"/>
<path d="M61 27h2v1h-2v-1z" fill="rgb(89,60,30)"/>
<path d="M63 27h1v1h-1v-1z" fill="rgb(139,92,46)"/>
<path d="M0 28h1v4h-1v-4z" fill="rgb(133,88,44)"/>
<path d="M1 28h2v4h-2v-4z" fill="rgb(105,70,35)"/>
<path d="M3 28h2v4h-2v-4z" fill="rgb(133,88,44)"/>
<path d="M5 28h2v4h-2v-4z" fill="rgb(105,70,35)"/>
<path d="M7 28h2v4h-2v-4z" fill="rgb(133,88,44)"/>
<path d="M9 28h2v4h-2v-4z" fill="rgb(105,70,35)"/>
<path d="M11 28h2v4h-2v-4z" fill="rgb(133,88,44)"/>
<path d="M13 28h2v4h-2v-4z" fill="rgb(105,70,35)"/>
<path d="M15 28h2v4h-2v-4z" fill="rgb(133,88,44)"/>
<path d="M17 28h2v4h-2v-4z" fill="rgb(105,70,35)"/>
<path d="M19 28h2v4h-2v-4z" fill="rgb(133,88,44)"/>
<path d="M21 28h2v4h-2v-4z" fill="rgb(105,70,35)"/>
<path d="M23 28h2v4h-2v-4z" fill="rgb(133,88,44)"/>
<path d="M25 28h2v4h-2v-4z" fill="rgb(105,70,35)"/>
<path d="M27 28h2v4h-2v-4z" fill="rgb(133,88,44)"/>
<path d="M29 28h2v4h-2v-4z" fill="rgb(105,70,35)"/>
<path d="M31 28h2v4h-2v-4z" fill="rgb(133,88,44)"/>
<path d="M33 28h2v4h-2v-4z" fill="rgb(105,70,35)"/>
<path d="M35 28h2v4h-2v-4z" fill="rgb(133,88,44)"/>
<path d="M37 28h2v4h-2v-4z" fill="rgb(105,70,35)"/>
<path d="M39 28h2v4h-2v-4z" fill="rgb(133,88,44)"/>
<path d="M41 28h2v4h-2v-4z" fill="rgb(105,70,35)"/>
<path d="M43 28h2v4h-2v-4z" fill="rgb(133,88,44)"/>
<path d="M45 28h2v4h-2v-4z" fill="rgb(105,70,35)"/>
<path d="M47 28h2v4h-2v-4z" fill="rgb(133,88,44)"/>
<path d="M49 28h2v4h-2v-4z" fill="rgb(105,70,35)"/>
<path d="M51 28h2v4h-2v-4z" fill="rgb(133,88,44)"/>
<path d="M53 28h2v4h-2v-4z" fill="rgb(105,70,35)"/>
<path d="M55 28h2v4h-2v-4z" fill="rgb(133,88,44)"/>
<path d="M57 28h2v4h-2v-4z" fill="rgb(105,70,35)"/>
<path d="M59 28h2v4h-2v-4z" fill="rgb(133,88,44)"/>
<path d="M61 28h2v4h-2v-4z" fill="rgb(105,70,35)"/>
<path d="M63 28h1v4h-1v-4z" fill="rgb(133,88,44)"/>
<path d="M0 32h64v8h-1v-6h-1v-1h-60v1h-1v28h1v1h6v1h-8v-32z" fill="rgb(100,66,33)"/>
<path d="M2 33h60v1h-60v-1z" fill="rgb(68,101,92)"/>
<path d="M1 34h1v28h-1v-28z" fill="rgb(68,101,92)"/>
<path d="M2 34h60v6h-2v-4h-56v24h4v2h-6v-28z" fill="rgb(99,146,133)"/>
<path d="M62 34h1v6h-1v-6z" fill="rgb(68,101,92)"/>
<path d="M4 36h56v4h-2v-2h-52v20h2v2h-4v-24z" fill="rgb(128,159,151)"/>
<path d="M6 38h52v2h-50v18h-2v-20z" fill="rgb(99,146,133)"/>
<path d="M8 40h50v18h-13v-1h-2v-1h-2v-1h-18v1h-2v1h-2v1h-11v-18z" fill="rgb(132,195,178)"/>
<path d="M58 40h2v20h-13v-1h-1v-1h12v-18z" fill="rgb(171,212,201)"/>
<path d="M60 40h2v22h-14v-1h-1v-1h13v-20z" fill="rgb(132,195,178)"/>
<path d="M62 40h1v22h-1v-22z" fill="rgb(91,135,123)"/>
<path d="M63 40h1v24h-16v-1h14v-1h1v-22z" fill="rgb(133,88,44)"/>
<path d="M23 55h18v1h2v1h2v1h-26v-1h2v-1h2v-1z" fill="rgb(106,156,142)"/>
<path d="M8 58h10v1h-1v1h-9v-2z" fill="rgb(171,212,201)"/>
<path d="M18 58h28v1h1v1h-30v-1h1v-1z" fill="rgb(103,127,121)"/>
<path d="M8 60h9v1h-1v1h-8v-2z" fill="rgb(132,195,178)"/>
<path d="M17 60h30v1h1v1h-32v-1h1v-1z" fill="rgb(66,97,89)"/>
<path d="M2 62h6v1h-6v-1z" fill="rgb(68,101,92)"/>
<path d="M8 62h8v1h-8v-1z" fill="rgb(91,135,123)"/>
<path d="M16 62h32v1h-32v-1z" fill="rgb(18,27,25)"/>
<path d="M48 62h14v1h-14v-1z" fill="rgb(91,135,123)"/>
<path d="M8 63h8v1h-8v-1z" fill="rgb(133,88,44)"/>
<path d="M16 63h32v1h-32v-1z" fill="rgb(27,18,9)"/>
</svg>
