<?xml version="1.0" encoding="utf-8"?>
<!-- generated at drububu.com  -->
<!DOCTYPE svg PUBLIC "-//W3C//DTD SVG 1.1//EN" "http://www.w3.org/Graphics/SVG/1.1/DTD/svg11.dtd">
<svg version="1.1" preserveAspectRatio="xMinYMin meet" xmlns="http://www.w3.org/2000/svg" xmlns:xlink="http://www.w3.org/1999/xlink" x="0px" y="0px" width="64px" height="64px" viewBox="0 0 64 64">
<path d="M0 0h64v1h-64z" fill="rgb(130,130,130)"/>
<path d="M0 1h64v5h-64z" fill="rgb(238,238,238)"/>
<path d="M0 6h64v1h-64z" fill="rgb(100,76,65)"/>
<path d="M0 7h1v13h-1z" fill="rgb(153,116,99)"/>
<path d="M1 7h1v13h-1z" fill="rgb(134,102,87)"/>
<path d="M2 7h2v4h-1v7h1v2h-2z" fill="rgb(116,88,75)"/>
<path d="M4 7h2v3h-2z" fill="rgb(153,116,99)"/>
<path d="M6 7h1v3h-1z" fill="rgb(134,102,87)"/>
<path d="M7 7h2v3h-2z" fill="rgb(116,88,75)"/>
<path d="M9 7h1v3h-1z" fill="rgb(134,102,87)"/>
<path d="M10 7h2v4h-1v-1h-1z" fill="rgb(153,116,99)"/>
<path d="M12 7h2v13h-2z" fill="rgb(116,88,75)"/>
<path d="M14 7h1v13h-1z" fill="rgb(134,102,87)"/>
<path d="M15 7h1v13h-1z" fill="rgb(65,45,36)"/>
<path d="M16 7h1v13h-1z" fill="rgb(153,116,99)"/>
<path d="M17 7h1v13h-1z" fill="rgb(134,102,87)"/>
<path d="M18 7h2v13h-2z" fill="rgb(116,88,75)"/>
<path d="M20 7h2v13h-2z" fill="rgb(153,116,99)"/>
<path d="M22 7h1v13h-1z" fill="rgb(134,102,87)"/>
<path d="M23 7h2v13h-2z" fill="rgb(116,88,75)"/>
<path d="M25 7h1v13h-1z" fill="rgb(134,102,87)"/>
<path d="M26 7h2v13h-2z" fill="rgb(153,116,99)"/>
<path d="M28 7h2v13h-2z" fill="rgb(116,88,75)"/>
<path d="M30 7h1v13h-1z" fill="rgb(134,102,87)"/>
<path d="M31 7h1v13h-1z" fill="rgb(65,45,36)"/>
<path d="M32 7h1v13h-1z" fill="rgb(153,116,99)"/>
<path d="M33 7h1v13h-1z" fill="rgb(134,102,87)"/>
<path d="M34 7h2v13h-2z" fill="rgb(116,88,75)"/>
<path d="M36 7h2v13h-2z" fill="rgb(153,116,99)"/>
<path d="M38 7h1v13h-1z" fill="rgb(134,102,87)"/>
<path d="M39 7h2v13h-2z" fill="rgb(116,88,75)"/>
<path d="M41 7h1v13h-1z" fill="rgb(134,102,87)"/>
<path d="M42 7h2v13h-2z" fill="rgb(153,116,99)"/>
<path d="M44 7h2v13h-2z" fill="rgb(116,88,75)"/>
<path d="M46 7h1v13h-1z" fill="rgb(134,102,87)"/>
<path d="M47 7h1v13h-1z" fill="rgb(65,45,36)"/>
<path d="M48 7h1v13h-1z" fill="rgb(153,116,99)"/>
<path d="M49 7h1v13h-1z" fill="rgb(134,102,87)"/>
<path d="M50 7h2v13h-2z" fill="rgb(116,88,75)"/>
<path d="M52 7h2v13h-2z" fill="rgb(153,116,99)"/>
<path d="M54 7h1v13h-1z" fill="rgb(134,102,87)"/>
<path d="M55 7h2v13h-2z" fill="rgb(116,88,75)"/>
<path d="M57 7h1v13h-1z" fill="rgb(134,102,87)"/>
<path d="M58 7h2v13h-2z" fill="rgb(153,116,99)"/>
<path d="M60 7h2v13h-2z" fill="rgb(116,88,75)"/>
<path d="M62 7h1v13h-1z" fill="rgb(134,102,87)"/>
<path d="M63 7h1v13h-1z" fill="rgb(65,45,36)"/>
<path d="M4 10h7v1h-7z" fill="rgb(74,50,39)"/>
<path d="M3 11h1v7h-1z" fill="rgb(74,50,39)"/>
<path d="M4 11h7v1h-6v6h-1z" fill="rgb(134,101,86)"/>
<path d="M11 11h1v7h-1z" fill="rgb(74,50,39)"/>
<path d="M5 12h2v1h-2z" fill="rgb(248,248,248)"/>
<path d="M7 12h1v2h2v-2h1v6h-6v-1h2v-2h-2v-1h2z" fill="rgb(113,82,67)"/>
<path d="M8 12h2v1h-2z" fill="rgb(248,248,248)"/>
<path d="M5 13h2v1h-2z" fill="rgb(200,184,192)"/>
<path d="M8 13h2v1h-2z" fill="rgb(200,184,192)"/>
<path d="M5 15h2v1h-2z" fill="rgb(248,248,248)"/>
<path d="M8 15h2v1h-2z" fill="rgb(178,73,70)"/>
<path d="M5 16h2v1h-2z" fill="rgb(200,184,192)"/>
<path d="M8 16h2v1h-2z" fill="rgb(143,42,43)"/>
<path d="M4 18h7v1h-7z" fill="rgb(74,50,39)"/>
<path d="M11 18h1v2h-2v-1h1z" fill="rgb(153,116,99)"/>
<path d="M4 19h2v1h-2z" fill="rgb(153,116,99)"/>
<path d="M6 19h1v1h-1z" fill="rgb(134,102,87)"/>
<path d="M7 19h2v1h-2z" fill="rgb(116,88,75)"/>
<path d="M9 19h1v1h-1z" fill="rgb(134,102,87)"/>
<path d="M0 20h4v1h-1v1h-1v1h-1v1h-1z" fill="rgb(225,150,48)"/>
<path d="M4 20h1v1h-1z" fill="rgb(255,197,79)"/>
<path d="M5 20h3v1h-1v1h-1v1h-1v1h-1v1h-1v1h-1v1h-2v-2h1v-1h1v-1h1v-1h1v-1h1z" fill="rgb(225,150,48)"/>
<path d="M8 20h3v1h-2v1h-1v2h-1v1h-1v1h-1v1h-3v-1h1v-1h1v-1h1v-1h1v-1h1v-1h1z" fill="rgb(255,197,79)"/>
<path d="M11 20h5v1h-5z" fill="rgb(225,150,48)"/>
<path d="M16 20h1v1h-1z" fill="rgb(255,197,79)"/>
<path d="M17 20h4v1h-4z" fill="rgb(225,150,48)"/>
<path d="M21 20h1v1h-1z" fill="rgb(255,197,79)"/>
<path d="M22 20h3v1h-3z" fill="rgb(225,150,48)"/>
<path d="M25 20h3v1h-3z" fill="rgb(255,197,79)"/>
<path d="M28 20h6v1h-6z" fill="rgb(225,150,48)"/>
<path d="M34 20h1v1h-1z" fill="rgb(255,197,79)"/>
<path d="M35 20h3v1h-3z" fill="rgb(225,150,48)"/>
<path d="M38 20h3v1h-3z" fill="rgb(255,197,79)"/>
<path d="M41 20h6v1h-6z" fill="rgb(225,150,48)"/>
<path d="M47 20h1v1h-1z" fill="rgb(255,197,79)"/>
<path d="M48 20h3v1h-3z" fill="rgb(225,150,48)"/>
<path d="M51 20h3v1h-3z" fill="rgb(255,197,79)"/>
<path d="M54 20h7v1h-1v1h-1v1h-1v1h-1v-2h-2v-1h-1z" fill="rgb(225,150,48)"/>
<path d="M61 20h1v1h-1z" fill="rgb(255,197,79)"/>
<path d="M62 20h2v2h-1v1h-1v1h-1v1h-1v1h-1v1h-3v-1h1v-1h1v-1h1v-1h1v-1h1v-1h1z" fill="rgb(225,150,48)"/>
<path d="M3 21h1v1h-1z" fill="rgb(255,197,79)"/>
<path d="M9 21h46v1h-46z" fill="rgb(132,100,31)"/>
<path d="M60 21h1v1h-1z" fill="rgb(255,197,79)"/>
<path d="M2 22h1v1h-1z" fill="rgb(255,197,79)"/>
<path d="M8 22h1v1h-1z" fill="rgb(132,100,31)"/>
<path d="M9 22h1v1h-1z" fill="rgb(253,212,117)"/>
<path d="M10 22h4v1h-4z" fill="rgb(255,197,79)"/>
<path d="M14 22h1v1h-1z" fill="rgb(255,225,130)"/>
<path d="M15 22h4v1h-4z" fill="rgb(255,197,79)"/>
<path d="M19 22h1v1h-1z" fill="rgb(255,225,130)"/>
<path d="M20 22h3v1h-3z" fill="rgb(255,197,79)"/>
<path d="M23 22h3v1h-3z" fill="rgb(255,225,130)"/>
<path d="M26 22h6v1h-6z" fill="rgb(255,197,79)"/>
<path d="M32 22h1v1h-1z" fill="rgb(255,225,130)"/>
<path d="M33 22h3v1h-3z" fill="rgb(255,197,79)"/>
<path d="M36 22h3v1h-3z" fill="rgb(255,225,130)"/>
<path d="M39 22h6v1h-6z" fill="rgb(255,197,79)"/>
<path d="M45 22h1v1h-1z" fill="rgb(255,225,130)"/>
<path d="M46 22h3v1h-3z" fill="rgb(255,197,79)"/>
<path d="M49 22h3v1h-3z" fill="rgb(255,225,130)"/>
<path d="M52 22h3v1h-3z" fill="rgb(255,197,79)"/>
<path d="M55 22h1v1h-1z" fill="rgb(132,100,31)"/>
<path d="M56 22h1v2h-1v1h-2v1h-1v-1h-1v-1h3v-1h1z" fill="rgb(166,131,62)"/>
<path d="M59 22h1v1h-1z" fill="rgb(255,197,79)"/>
<path d="M63 22h1v3h-1v1h-1v1h-3v-1h1v-1h1v-1h1v-1h1z" fill="rgb(255,197,79)"/>
<path d="M1 23h1v1h-1z" fill="rgb(255,197,79)"/>
<path d="M8 23h1v1h-1z" fill="rgb(168,131,62)"/>
<path d="M9 23h46v1h-4v1h-1v-1h-11v1h-1v-1h-13v1h-1v-1h-11v1h-1v-1h-3z" fill="rgb(132,100,31)"/>
<path d="M58 23h1v1h-1z" fill="rgb(255,197,79)"/>
<path d="M0 24h1v1h-1z" fill="rgb(255,197,79)"/>
<path d="M7 24h2v1h2v1h-1v1h-5v-1h1v-1h1z" fill="rgb(225,150,48)"/>
<path d="M9 24h3v1h-3z" fill="rgb(168,131,62)"/>
<path d="M13 24h1v1h-1z" fill="rgb(112,82,11)"/>
<path d="M14 24h9v1h-7v1h-1v-1h-1z" fill="rgb(168,131,62)"/>
<path d="M23 24h1v1h-1z" fill="rgb(166,131,62)"/>
<path d="M25 24h1v1h-1z" fill="rgb(112,82,11)"/>
<path d="M26 24h6v1h-4v1h-1v-1h-1z" fill="rgb(166,131,62)"/>
<path d="M32 24h6v1h-6z" fill="rgb(168,131,62)"/>
<path d="M39 24h1v1h-1z" fill="rgb(112,82,11)"/>
<path d="M40 24h2v2h-1v-1h-1z" fill="rgb(166,131,62)"/>
<path d="M42 24h1v1h-1z" fill="rgb(168,131,62)"/>
<path d="M43 24h7v1h-7z" fill="rgb(166,131,62)"/>
<path d="M51 24h1v1h-1z" fill="rgb(112,82,11)"/>
<path d="M56 24h1v1h-1z" fill="rgb(225,150,48)"/>
<path d="M57 24h1v1h-1z" fill="rgb(255,197,79)"/>
<path d="M11 25h1v1h-1z" fill="rgb(255,197,79)"/>
<path d="M12 25h1v1h2v1h-4v-1h1z" fill="rgb(225,150,48)"/>
<path d="M13 25h1v1h-1z" fill="rgb(132,100,31)"/>
<path d="M14 25h1v1h-1z" fill="rgb(112,82,11)"/>
<path d="M16 25h1v1h-1z" fill="rgb(255,197,79)"/>
<path d="M17 25h3v1h-1v1h-3v-1h1z" fill="rgb(225,150,48)"/>
<path d="M20 25h3v1h-1v1h-3v-1h1z" fill="rgb(255,197,79)"/>
<path d="M23 25h2v1h3v1h-6v-1h1z" fill="rgb(225,150,48)"/>
<path d="M25 25h1v1h-1z" fill="rgb(132,100,31)"/>
<path d="M26 25h1v1h-1z" fill="rgb(112,82,11)"/>
<path d="M28 25h1v1h-1z" fill="rgb(225,150,48)"/>
<path d="M29 25h1v1h-1z" fill="rgb(255,197,79)"/>
<path d="M30 25h3v1h-1v1h-3v-1h1z" fill="rgb(225,150,48)"/>
<path d="M33 25h3v1h-1v1h-3v-1h1z" fill="rgb(255,197,79)"/>
<path d="M36 25h3v1h2v1h-6v-1h1z" fill="rgb(225,150,48)"/>
<path d="M39 25h1v1h-1z" fill="rgb(132,100,31)"/>
<path d="M40 25h1v1h-1z" fill="rgb(112,82,11)"/>
<path d="M42 25h1v1h-1z" fill="rgb(255,197,79)"/>
<path d="M43 25h3v1h-1v1h-3v-1h1z" fill="rgb(225,150,48)"/>
<path d="M46 25h3v1h-1v1h-3v-1h1z" fill="rgb(255,197,79)"/>
<path d="M49 25h2v1h3v-1h2v1h-1v1h-7v-1h1z" fill="rgb(225,150,48)"/>
<path d="M51 25h1v1h-1z" fill="rgb(132,100,31)"/>
<path d="M52 25h1v1h-1z" fill="rgb(112,82,11)"/>
<path d="M56 25h1v1h-1z" fill="rgb(255,197,79)"/>
<path d="M63 25h1v2h-2v-1h1z" fill="rgb(225,150,48)"/>
<path d="M10 26h1v1h-1z" fill="rgb(255,197,79)"/>
<path d="M15 26h1v1h-1z" fill="rgb(255,197,79)"/>
<path d="M28 26h1v1h-1z" fill="rgb(255,197,79)"/>
<path d="M41 26h1v1h-1z" fill="rgb(255,197,79)"/>
<path d="M55 26h1v1h-1z" fill="rgb(255,197,79)"/>
<path d="M0 27h64v1h-64z" fill="rgb(65,45,36)"/>
<path d="M0 28h64v1h-64z" fill="rgb(81,52,45)"/>
<path d="M0 29h64v1h-64z" fill="rgb(65,45,36)"/>
<path d="M0 30h64v1h-64z" fill="rgb(81,52,45)"/>
<path d="M0 31h64v1h-64z" fill="rgb(65,45,36)"/>
<path d="M0 32h64v8h-1v-6h-1v-1h-60v1h-1v28h1v1h6v1h-8z" fill="rgb(100,76,65)"/>
<path d="M2 33h60v1h-60z" fill="rgb(107,31,32)"/>
<path d="M1 34h1v28h-1z" fill="rgb(107,31,32)"/>
<path d="M2 34h60v6h-2v-4h-56v24h4v2h-6z" fill="rgb(133,55,52)"/>
<path d="M62 34h1v6h-1z" fill="rgb(107,31,32)"/>
<path d="M4 36h56v4h-2v-2h-52v20h2v2h-4z" fill="rgb(181,161,157)"/>
<path d="M6 38h52v2h-50v18h-2z" fill="rgb(133,55,52)"/>
<path d="M8 40h50v18h-13v-1h-2v-1h-2v-1h-18v1h-2v1h-2v1h-11z" fill="rgb(178,73,70)"/>
<path d="M58 40h2v20h-13v-1h-1v-1h12z" fill="rgb(242,215,210)"/>
<path d="M60 40h2v22h-14v-1h-1v-1h13z" fill="rgb(178,73,70)"/>
<path d="M62 40h1v22h-1z" fill="rgb(143,42,43)"/>
<path d="M63 40h1v24h-16v-1h14v-1h1z" fill="rgb(134,102,87)"/>
<path d="M23 55h18v1h2v1h2v1h-26v-1h2v-1h2z" fill="rgb(142,58,56)"/>
<path d="M8 58h10v1h-1v1h-9z" fill="rgb(242,215,210)"/>
<path d="M18 58h28v1h1v1h-30v-1h1z" fill="rgb(145,129,126)"/>
<path d="M8 60h9v1h-1v1h-8z" fill="rgb(178,73,70)"/>
<path d="M17 60h30v1h1v1h-32v-1h1z" fill="rgb(89,36,35)"/>
<path d="M2 62h6v1h-6z" fill="rgb(107,31,32)"/>
<path d="M8 62h8v1h-8z" fill="rgb(143,42,43)"/>
<path d="M16 62h32v1h-32z" fill="rgb(29,8,9)"/>
<path d="M48 62h14v1h-14z" fill="rgb(143,42,43)"/>
<path d="M8 63h8v1h-8z" fill="rgb(134,102,87)"/>
<path d="M16 63h32v1h-32z" fill="rgb(27,20,17)"/>
</svg>
