<?xml version="1.0" encoding="utf-8"?>
<!-- generated at drububu.com  -->
<!DOCTYPE svg PUBLIC "-//W3C//DTD SVG 1.1//EN" "http://www.w3.org/Graphics/SVG/1.1/DTD/svg11.dtd">
<svg version="1.1" preserveAspectRatio="xMinYMin meet" xmlns="http://www.w3.org/2000/svg" xmlns:xlink="http://www.w3.org/1999/xlink" x="0px" y="0px" width="64px" height="64px" viewBox="0 0 64 64">
<path d="M0 0h1v18h-1z" fill="rgb(153,116,99)"/>
<path d="M1 0h1v18h-1z" fill="rgb(134,102,87)"/>
<path d="M2 0h2v5h-1v10h1v3h-2z" fill="rgb(116,88,75)"/>
<path d="M4 0h2v4h-2z" fill="rgb(153,116,99)"/>
<path d="M6 0h1v4h-1z" fill="rgb(134,102,87)"/>
<path d="M7 0h2v4h-2z" fill="rgb(116,88,75)"/>
<path d="M9 0h1v4h-1z" fill="rgb(134,102,87)"/>
<path d="M10 0h2v5h-1v-1h-1z" fill="rgb(153,116,99)"/>
<path d="M12 0h2v18h-2z" fill="rgb(116,88,75)"/>
<path d="M14 0h1v18h-1z" fill="rgb(134,102,87)"/>
<path d="M15 0h1v18h-1z" fill="rgb(65,45,36)"/>
<path d="M16 0h1v18h-1z" fill="rgb(153,116,99)"/>
<path d="M17 0h1v18h-1z" fill="rgb(134,102,87)"/>
<path d="M18 0h2v18h-2z" fill="rgb(116,88,75)"/>
<path d="M20 0h2v18h-2z" fill="rgb(153,116,99)"/>
<path d="M22 0h1v18h-1z" fill="rgb(134,102,87)"/>
<path d="M23 0h2v18h-2z" fill="rgb(116,88,75)"/>
<path d="M25 0h1v18h-1z" fill="rgb(134,102,87)"/>
<path d="M26 0h2v18h-2z" fill="rgb(153,116,99)"/>
<path d="M28 0h2v18h-2z" fill="rgb(116,88,75)"/>
<path d="M30 0h1v18h-1z" fill="rgb(134,102,87)"/>
<path d="M31 0h1v18h-1z" fill="rgb(65,45,36)"/>
<path d="M32 0h1v18h-1z" fill="rgb(153,116,99)"/>
<path d="M33 0h1v18h-1z" fill="rgb(134,102,87)"/>
<path d="M34 0h2v18h-2z" fill="rgb(116,88,75)"/>
<path d="M36 0h2v18h-2z" fill="rgb(153,116,99)"/>
<path d="M38 0h1v18h-1z" fill="rgb(134,102,87)"/>
<path d="M39 0h2v18h-2z" fill="rgb(116,88,75)"/>
<path d="M41 0h1v18h-1z" fill="rgb(134,102,87)"/>
<path d="M42 0h2v18h-2z" fill="rgb(153,116,99)"/>
<path d="M44 0h2v18h-2z" fill="rgb(116,88,75)"/>
<path d="M46 0h1v18h-1z" fill="rgb(134,102,87)"/>
<path d="M47 0h1v18h-1z" fill="rgb(65,45,36)"/>
<path d="M48 0h1v18h-1z" fill="rgb(153,116,99)"/>
<path d="M49 0h1v18h-1z" fill="rgb(134,102,87)"/>
<path d="M50 0h2v18h-2z" fill="rgb(116,88,75)"/>
<path d="M52 0h2v18h-2z" fill="rgb(153,116,99)"/>
<path d="M54 0h1v18h-1z" fill="rgb(134,102,87)"/>
<path d="M55 0h2v18h-2z" fill="rgb(116,88,75)"/>
<path d="M57 0h1v18h-1z" fill="rgb(134,102,87)"/>
<path d="M58 0h2v18h-2z" fill="rgb(153,116,99)"/>
<path d="M60 0h2v18h-2z" fill="rgb(116,88,75)"/>
<path d="M62 0h1v18h-1z" fill="rgb(134,102,87)"/>
<path d="M63 0h1v18h-1z" fill="rgb(65,45,36)"/>
<path d="M4 4h7v1h-7z" fill="rgb(74,50,39)"/>
<path d="M3 5h1v10h-1z" fill="rgb(74,50,39)"/>
<path d="M4 5h7v1h-6v9h-1z" fill="rgb(134,101,86)"/>
<path d="M11 5h1v10h-1z" fill="rgb(74,50,39)"/>
<path d="M5 6h2v1h-2z" fill="rgb(248,248,248)"/>
<path d="M7 6h1v2h2v-2h1v9h-6v-1h2v-2h-2v-1h2v-2h-2v-1h2z" fill="rgb(113,82,67)"/>
<path d="M8 6h2v1h-2z" fill="rgb(248,248,248)"/>
<path d="M5 7h2v1h-2z" fill="rgb(200,184,192)"/>
<path d="M8 7h2v1h-2z" fill="rgb(200,184,192)"/>
<path d="M5 9h2v1h-2z" fill="rgb(248,248,248)"/>
<path d="M8 9h2v1h-2z" fill="rgb(248,248,248)"/>
<path d="M5 10h2v1h-2z" fill="rgb(200,184,192)"/>
<path d="M8 10h2v1h-2z" fill="rgb(200,184,192)"/>
<path d="M5 12h2v1h-2z" fill="rgb(248,248,248)"/>
<path d="M8 12h2v1h-2z" fill="rgb(178,73,70)"/>
<path d="M5 13h2v1h-2z" fill="rgb(200,184,192)"/>
<path d="M8 13h2v1h-2z" fill="rgb(143,42,43)"/>
<path d="M4 15h7v1h-7z" fill="rgb(74,50,39)"/>
<path d="M11 15h1v3h-2v-2h1z" fill="rgb(153,116,99)"/>
<path d="M4 16h2v2h-2z" fill="rgb(153,116,99)"/>
<path d="M6 16h1v2h-1z" fill="rgb(134,102,87)"/>
<path d="M7 16h2v2h-2z" fill="rgb(116,88,75)"/>
<path d="M9 16h1v2h-1z" fill="rgb(134,102,87)"/>
<path d="M0 18h4v1h-1v1h-1v1h-1v1h-1z" fill="rgb(225,150,48)"/>
<path d="M4 18h1v1h-1z" fill="rgb(255,197,79)"/>
<path d="M5 18h3v1h-1v1h-1v1h-1v1h-1v1h-1v1h-1v1h-2v-2h1v-1h1v-1h1v-1h1v-1h1z" fill="rgb(225,150,48)"/>
<path d="M8 18h3v1h-2v1h-1v2h-1v1h-1v1h-1v1h-3v-1h1v-1h1v-1h1v-1h1v-1h1v-1h1z" fill="rgb(255,197,79)"/>
<path d="M11 18h5v1h-5z" fill="rgb(225,150,48)"/>
<path d="M16 18h1v1h-1z" fill="rgb(255,197,79)"/>
<path d="M17 18h4v1h-4z" fill="rgb(225,150,48)"/>
<path d="M21 18h1v1h-1z" fill="rgb(255,197,79)"/>
<path d="M22 18h3v1h-3z" fill="rgb(225,150,48)"/>
<path d="M25 18h3v1h-3z" fill="rgb(255,197,79)"/>
<path d="M28 18h6v1h-6z" fill="rgb(225,150,48)"/>
<path d="M34 18h1v1h-1z" fill="rgb(255,197,79)"/>
<path d="M35 18h3v1h-3z" fill="rgb(225,150,48)"/>
<path d="M38 18h3v1h-3z" fill="rgb(255,197,79)"/>
<path d="M41 18h6v1h-6z" fill="rgb(225,150,48)"/>
<path d="M47 18h1v1h-1z" fill="rgb(255,197,79)"/>
<path d="M48 18h3v1h-3z" fill="rgb(225,150,48)"/>
<path d="M51 18h3v1h-3z" fill="rgb(255,197,79)"/>
<path d="M54 18h7v1h-1v1h-1v1h-1v1h-1v-2h-2v-1h-1z" fill="rgb(225,150,48)"/>
<path d="M61 18h1v1h-1z" fill="rgb(255,197,79)"/>
<path d="M62 18h2v2h-1v1h-1v1h-1v1h-1v1h-1v1h-3v-1h1v-1h1v-1h1v-1h1v-1h1v-1h1z" fill="rgb(225,150,48)"/>
<path d="M3 19h1v1h-1z" fill="rgb(255,197,79)"/>
<path d="M9 19h46v1h-46z" fill="rgb(132,100,31)"/>
<path d="M60 19h1v1h-1z" fill="rgb(255,197,79)"/>
<path d="M2 20h1v1h-1z" fill="rgb(255,197,79)"/>
<path d="M8 20h1v1h-1z" fill="rgb(132,100,31)"/>
<path d="M9 20h1v1h-1z" fill="rgb(253,212,117)"/>
<path d="M10 20h4v1h-4z" fill="rgb(255,197,79)"/>
<path d="M14 20h1v1h-1z" fill="rgb(255,225,130)"/>
<path d="M15 20h4v1h-4z" fill="rgb(255,197,79)"/>
<path d="M19 20h1v1h-1z" fill="rgb(255,225,130)"/>
<path d="M20 20h3v1h-3z" fill="rgb(255,197,79)"/>
<path d="M23 20h3v1h-3z" fill="rgb(255,225,130)"/>
<path d="M26 20h6v1h-6z" fill="rgb(255,197,79)"/>
<path d="M32 20h1v1h-1z" fill="rgb(255,225,130)"/>
<path d="M33 20h3v1h-3z" fill="rgb(255,197,79)"/>
<path d="M36 20h3v1h-3z" fill="rgb(255,225,130)"/>
<path d="M39 20h6v1h-6z" fill="rgb(255,197,79)"/>
<path d="M45 20h1v1h-1z" fill="rgb(255,225,130)"/>
<path d="M46 20h3v1h-3z" fill="rgb(255,197,79)"/>
<path d="M49 20h3v1h-3z" fill="rgb(255,225,130)"/>
<path d="M52 20h3v1h-3z" fill="rgb(255,197,79)"/>
<path d="M55 20h1v1h-1z" fill="rgb(132,100,31)"/>
<path d="M56 20h1v2h-1v1h-2v1h-1v-1h-1v-1h3v-1h1z" fill="rgb(166,131,62)"/>
<path d="M59 20h1v1h-1z" fill="rgb(255,197,79)"/>
<path d="M63 20h1v3h-1v1h-1v1h-3v-1h1v-1h1v-1h1v-1h1z" fill="rgb(255,197,79)"/>
<path d="M1 21h1v1h-1z" fill="rgb(255,197,79)"/>
<path d="M8 21h1v1h-1z" fill="rgb(168,131,62)"/>
<path d="M9 21h46v1h-4v1h-1v-1h-11v1h-1v-1h-13v1h-1v-1h-11v1h-1v-1h-3z" fill="rgb(132,100,31)"/>
<path d="M58 21h1v1h-1z" fill="rgb(255,197,79)"/>
<path d="M0 22h1v1h-1z" fill="rgb(255,197,79)"/>
<path d="M7 22h2v1h2v1h-1v1h-5v-1h1v-1h1z" fill="rgb(225,150,48)"/>
<path d="M9 22h3v1h-3z" fill="rgb(168,131,62)"/>
<path d="M13 22h1v1h-1z" fill="rgb(112,82,11)"/>
<path d="M14 22h9v1h-7v1h-1v-1h-1z" fill="rgb(168,131,62)"/>
<path d="M23 22h1v1h-1z" fill="rgb(166,131,62)"/>
<path d="M25 22h1v1h-1z" fill="rgb(112,82,11)"/>
<path d="M26 22h6v1h-4v1h-1v-1h-1z" fill="rgb(166,131,62)"/>
<path d="M32 22h6v1h-6z" fill="rgb(168,131,62)"/>
<path d="M39 22h1v1h-1z" fill="rgb(112,82,11)"/>
<path d="M40 22h2v2h-1v-1h-1z" fill="rgb(166,131,62)"/>
<path d="M42 22h1v1h-1z" fill="rgb(168,131,62)"/>
<path d="M43 22h7v1h-7z" fill="rgb(166,131,62)"/>
<path d="M51 22h1v1h-1z" fill="rgb(112,82,11)"/>
<path d="M56 22h1v1h-1z" fill="rgb(225,150,48)"/>
<path d="M57 22h1v1h-1z" fill="rgb(255,197,79)"/>
<path d="M11 23h1v1h-1z" fill="rgb(255,197,79)"/>
<path d="M12 23h1v1h2v1h-4v-1h1z" fill="rgb(225,150,48)"/>
<path d="M13 23h1v1h-1z" fill="rgb(132,100,31)"/>
<path d="M14 23h1v1h-1z" fill="rgb(112,82,11)"/>
<path d="M16 23h1v1h-1z" fill="rgb(255,197,79)"/>
<path d="M17 23h3v1h-1v1h-3v-1h1z" fill="rgb(225,150,48)"/>
<path d="M20 23h3v1h-1v1h-3v-1h1z" fill="rgb(255,197,79)"/>
<path d="M23 23h2v1h3v1h-6v-1h1z" fill="rgb(225,150,48)"/>
<path d="M25 23h1v1h-1z" fill="rgb(132,100,31)"/>
<path d="M26 23h1v1h-1z" fill="rgb(112,82,11)"/>
<path d="M28 23h1v1h-1z" fill="rgb(225,150,48)"/>
<path d="M29 23h1v1h-1z" fill="rgb(255,197,79)"/>
<path d="M30 23h3v1h-1v1h-3v-1h1z" fill="rgb(225,150,48)"/>
<path d="M33 23h3v1h-1v1h-3v-1h1z" fill="rgb(255,197,79)"/>
<path d="M36 23h3v1h2v1h-6v-1h1z" fill="rgb(225,150,48)"/>
<path d="M39 23h1v1h-1z" fill="rgb(132,100,31)"/>
<path d="M40 23h1v1h-1z" fill="rgb(112,82,11)"/>
<path d="M42 23h1v1h-1z" fill="rgb(255,197,79)"/>
<path d="M43 23h3v1h-1v1h-3v-1h1z" fill="rgb(225,150,48)"/>
<path d="M46 23h3v1h-1v1h-3v-1h1z" fill="rgb(255,197,79)"/>
<path d="M49 23h2v1h3v-1h2v1h-1v1h-7v-1h1z" fill="rgb(225,150,48)"/>
<path d="M51 23h1v1h-1z" fill="rgb(132,100,31)"/>
<path d="M52 23h1v1h-1z" fill="rgb(112,82,11)"/>
<path d="M56 23h1v1h-1z" fill="rgb(255,197,79)"/>
<path d="M63 23h1v2h-2v-1h1z" fill="rgb(225,150,48)"/>
<path d="M10 24h1v1h-1z" fill="rgb(255,197,79)"/>
<path d="M15 24h1v1h-1z" fill="rgb(255,197,79)"/>
<path d="M28 24h1v1h-1z" fill="rgb(255,197,79)"/>
<path d="M41 24h1v1h-1z" fill="rgb(255,197,79)"/>
<path d="M55 24h1v1h-1z" fill="rgb(255,197,79)"/>
<path d="M0 25h64v1h-64z" fill="rgb(65,45,36)"/>
<path d="M0 26h64v1h-64z" fill="rgb(81,52,45)"/>
<path d="M0 27h64v1h-64z" fill="rgb(65,45,36)"/>
<path d="M0 28h64v1h-64z" fill="rgb(81,52,45)"/>
<path d="M0 29h64v1h-64z" fill="rgb(65,45,36)"/>
<path d="M0 30h64v1h-64z" fill="rgb(81,52,45)"/>
<path d="M0 31h64v1h-64z" fill="rgb(65,45,36)"/>
<path d="M0 32h64v8h-1v-6h-1v-1h-60v1h-1v28h1v1h6v1h-8z" fill="rgb(100,76,65)"/>
<path d="M2 33h60v1h-60z" fill="rgb(107,31,32)"/>
<path d="M1 34h1v28h-1z" fill="rgb(107,31,32)"/>
<path d="M2 34h60v6h-2v-4h-56v24h4v2h-6z" fill="rgb(133,55,52)"/>
<path d="M62 34h1v6h-1z" fill="rgb(107,31,32)"/>
<path d="M4 36h56v4h-2v-2h-52v20h2v2h-4z" fill="rgb(181,161,157)"/>
<path d="M6 38h52v2h-50v18h-2z" fill="rgb(133,55,52)"/>
<path d="M8 40h50v18h-13v-1h-2v-1h-2v-1h-18v1h-2v1h-2v1h-11z" fill="rgb(178,73,70)"/>
<path d="M58 40h2v20h-13v-1h-1v-1h12z" fill="rgb(242,215,210)"/>
<path d="M60 40h2v22h-14v-1h-1v-1h13z" fill="rgb(178,73,70)"/>
<path d="M62 40h1v22h-1z" fill="rgb(143,42,43)"/>
<path d="M63 40h1v24h-16v-1h14v-1h1z" fill="rgb(134,102,87)"/>
<path d="M23 55h18v1h2v1h2v1h-26v-1h2v-1h2z" fill="rgb(142,58,56)"/>
<path d="M8 58h10v1h-1v1h-9z" fill="rgb(242,215,210)"/>
<path d="M18 58h28v1h1v1h-30v-1h1z" fill="rgb(145,129,126)"/>
<path d="M8 60h9v1h-1v1h-8z" fill="rgb(178,73,70)"/>
<path d="M17 60h30v1h1v1h-32v-1h1z" fill="rgb(89,36,35)"/>
<path d="M2 62h6v1h-6z" fill="rgb(107,31,32)"/>
<path d="M8 62h8v1h-8z" fill="rgb(143,42,43)"/>
<path d="M16 62h32v1h-32z" fill="rgb(29,8,9)"/>
<path d="M48 62h14v1h-14z" fill="rgb(143,42,43)"/>
<path d="M8 63h8v1h-8z" fill="rgb(134,102,87)"/>
<path d="M16 63h32v1h-32z" fill="rgb(27,20,17)"/>
</svg>
