<?xml version="1.0" encoding="utf-8"?>
<!-- generated at drububu.com  -->
<!DOCTYPE svg PUBLIC "-//W3C//DTD SVG 1.1//EN" "http://www.w3.org/Graphics/SVG/1.1/DTD/svg11.dtd">
<svg version="1.1" preserveAspectRatio="xMinYMin meet" xmlns="http://www.w3.org/2000/svg" xmlns:xlink="http://www.w3.org/1999/xlink" x="0px" y="0px" width="352px" height="208px" viewBox="0 0 352 208">
<path d="M0 0h41v16h-32v96h39v16h144v64h48v-32h16v48h-256v-208z" fill="rgb(0,0,0)"/>
<path d="M41 0h110v48h34v-48h126v80h-1v-79h-124v48h-36v-48h-108v16h-32v95h-1v-96h32v-16z" fill="rgb(105,105,105)"/>
<path d="M151 0h34v48h-34v-48z" fill="rgb(0,0,0)"/>
<path d="M311 0h41v208h-9v-112h-96v-16h64v-80z" fill="rgb(0,0,0)"/>
<path d="M42 1h108v48h36v-48h124v79h-5v-76h-114v48h-46v-48h-98v16h-32v92h-5v-95h32v-16z" fill="rgb(255,255,255)"/>
<path d="M47 4h98v4h-1v-3h-96v3h-1v-4z" fill="rgb(181,181,181)"/>
<path d="M191 4h114v4h-1v-3h-112v3h-1v-4z" fill="rgb(181,181,181)"/>
<path d="M48 5h96v3h-96v-3z" fill="rgb(238,238,238)"/>
<path d="M192 5h112v3h-112v-3z" fill="rgb(238,238,238)"/>
<path d="M47 8h98v40h-1v-39h-96v16h-32v87h-1v-88h32v-16z" fill="rgb(148,148,146)"/>
<path d="M191 8h114v72h-1v-71h-112v39h-1v-40z" fill="rgb(148,148,146)"/>
<path d="M48 9h96v1h-96v-1z" fill="rgb(227,227,227)"/>
<path d="M192 9h112v1h-112v-1z" fill="rgb(227,227,227)"/>
<path d="M48 10h96v1h-96v-1z" fill="rgb(238,238,238)"/>
<path d="M192 10h112v1h-112v-1z" fill="rgb(238,238,238)"/>
<path d="M48 11h96v9h-96v-9z" fill="rgb(244,244,244)"/>
<path d="M192 11h112v9h-112v-9z" fill="rgb(244,244,244)"/>
<path d="M15 20h32v1h-31v3h-1v-4z" fill="rgb(181,181,181)"/>
<path d="M48 20h96v12h-96v-12z" fill="rgb(238,238,238)"/>
<path d="M192 20h112v12h-112v-12z" fill="rgb(238,238,238)"/>
<path d="M16 21h31v3h-31v-3z" fill="rgb(238,238,238)"/>
<path d="M16 25h31v1h-31v-1z" fill="rgb(227,227,227)"/>
<path d="M47 25h1v1h-1v-1z" fill="rgb(170,170,170)"/>
<path d="M16 26h31v1h-31v-1z" fill="rgb(238,238,238)"/>
<path d="M47 26h1v1h-1v-1z" fill="rgb(178,178,178)"/>
<path d="M16 27h31v9h-31v-9z" fill="rgb(244,244,244)"/>
<path d="M47 27h1v9h-1v-9z" fill="rgb(183,183,183)"/>
<path d="M48 32h96v7h-96v-7z" fill="rgb(227,227,227)"/>
<path d="M192 32h112v7h-112v-7z" fill="rgb(227,227,227)"/>
<path d="M16 36h31v12h-31v-12z" fill="rgb(238,238,238)"/>
<path d="M47 36h1v12h-1v-12z" fill="rgb(178,178,178)"/>
<path d="M48 39h96v1h-96v-1z" fill="rgb(161,165,161)"/>
<path d="M192 39h112v1h-112v-1z" fill="rgb(161,165,161)"/>
<path d="M48 40h7v2h-7v-2z" fill="rgb(164,137,94)"/>
<path d="M55 40h1v3h-8v-1h7v-2z" fill="rgb(176,151,112)"/>
<path d="M56 40h1v3h14v1h-7v3h6v1h-16v3h2v1h-8v-1h5v-3h-5v-1h15v-3h-15v-1h8v-3z" fill="rgb(141,116,74)"/>
<path d="M57 40h14v2h-13v1h-1v-3z" fill="rgb(164,137,94)"/>
<path d="M71 40h1v2h-1v-2z" fill="rgb(176,151,112)"/>
<path d="M72 40h1v1h-1v-1z" fill="rgb(141,116,74)"/>
<path d="M73 40h46v1h-46v-1z" fill="rgb(98,98,98)"/>
<path d="M119 40h1v1h-1v-1z" fill="rgb(176,151,112)"/>
<path d="M120 40h1v2h-1v-2z" fill="rgb(141,116,74)"/>
<path d="M121 40h14v2h-13v1h-1v-3z" fill="rgb(164,137,94)"/>
<path d="M135 40h1v3h-14v-1h13v-2z" fill="rgb(176,151,112)"/>
<path d="M136 40h1v3h7v5h-22v-1h5v-3h-6v-1h15v-3z" fill="rgb(141,116,74)"/>
<path d="M137 40h7v2h-6v1h-1v-3z" fill="rgb(164,137,94)"/>
<path d="M192 40h3v1h-2v2h-1v-3z" fill="rgb(102,111,118)"/>
<path d="M195 40h3v1h-3v-1z" fill="rgb(129,136,142)"/>
<path d="M198 40h5v1h-2v2h-1v-2h-2v-1z" fill="rgb(102,111,118)"/>
<path d="M203 40h3v1h-3v-1z" fill="rgb(129,136,142)"/>
<path d="M206 40h5v1h-2v2h-1v-2h-2v-1z" fill="rgb(102,111,118)"/>
<path d="M211 40h3v1h-3v-1z" fill="rgb(129,136,142)"/>
<path d="M214 40h5v1h-2v2h-1v-2h-2v-1z" fill="rgb(102,111,118)"/>
<path d="M219 40h3v1h-3v-1z" fill="rgb(129,136,142)"/>
<path d="M222 40h5v1h-2v2h-1v-2h-2v-1z" fill="rgb(102,111,118)"/>
<path d="M227 40h3v1h-3v-1z" fill="rgb(129,136,142)"/>
<path d="M230 40h5v1h-2v2h-1v-2h-2v-1z" fill="rgb(102,111,118)"/>
<path d="M235 40h3v1h-3v-1z" fill="rgb(129,136,142)"/>
<path d="M238 40h5v1h-2v2h-1v-2h-2v-1z" fill="rgb(102,111,118)"/>
<path d="M243 40h3v1h-3v-1z" fill="rgb(129,136,142)"/>
<path d="M246 40h5v1h-2v2h-1v-2h-2v-1z" fill="rgb(102,111,118)"/>
<path d="M251 40h3v1h-3v-1z" fill="rgb(129,136,142)"/>
<path d="M254 40h5v1h-2v2h-1v-2h-2v-1z" fill="rgb(102,111,118)"/>
<path d="M259 40h3v1h-3v-1z" fill="rgb(129,136,142)"/>
<path d="M262 40h5v1h-2v2h-1v-2h-2v-1z" fill="rgb(102,111,118)"/>
<path d="M267 40h3v1h-3v-1z" fill="rgb(129,136,142)"/>
<path d="M270 40h5v1h-2v2h-1v-2h-2v-1z" fill="rgb(102,111,118)"/>
<path d="M275 40h3v1h-3v-1z" fill="rgb(129,136,142)"/>
<path d="M278 40h5v1h-2v2h-1v-2h-2v-1z" fill="rgb(102,111,118)"/>
<path d="M283 40h3v1h-3v-1z" fill="rgb(129,136,142)"/>
<path d="M286 40h5v1h-2v2h-1v-2h-2v-1z" fill="rgb(102,111,118)"/>
<path d="M291 40h3v1h-3v-1z" fill="rgb(129,136,142)"/>
<path d="M294 40h5v1h-2v2h-1v-2h-2v-1z" fill="rgb(102,111,118)"/>
<path d="M299 40h3v1h-3v-1z" fill="rgb(129,136,142)"/>
<path d="M302 40h2v1h-2v-1z" fill="rgb(102,111,118)"/>
<path d="M72 41h1v1h-1v-1z" fill="rgb(98,98,98)"/>
<path d="M73 41h1v3h-1v1h-1v-3h1v-1z" fill="rgb(184,184,184)"/>
<path d="M74 41h1v1h1v1h40v-1h1v-1h1v3h-44v-3z" fill="rgb(201,201,201)"/>
<path d="M75 41h42v1h-1v1h-40v-1h-1v-1z" fill="rgb(219,219,219)"/>
<path d="M118 41h1v1h1v3h-1v-1h-1v-3z" fill="rgb(184,184,184)"/>
<path d="M119 41h1v1h-1v-1z" fill="rgb(98,98,98)"/>
<path d="M193 41h7v6h-7v-6z" fill="rgb(175,179,181)"/>
<path d="M201 41h7v6h-7v-6z" fill="rgb(175,179,181)"/>
<path d="M209 41h7v6h-7v-6z" fill="rgb(175,179,181)"/>
<path d="M217 41h7v6h-7v-6z" fill="rgb(175,179,181)"/>
<path d="M225 41h7v6h-7v-6z" fill="rgb(175,179,181)"/>
<path d="M233 41h7v6h-7v-6z" fill="rgb(175,179,181)"/>
<path d="M241 41h7v6h-7v-6z" fill="rgb(175,179,181)"/>
<path d="M249 41h7v6h-7v-6z" fill="rgb(175,179,181)"/>
<path d="M257 41h7v6h-7v-6z" fill="rgb(175,179,181)"/>
<path d="M265 41h7v6h-7v-6z" fill="rgb(175,179,181)"/>
<path d="M273 41h7v6h-7v-6z" fill="rgb(175,179,181)"/>
<path d="M281 41h7v6h-7v-6z" fill="rgb(175,179,181)"/>
<path d="M289 41h7v6h-7v-6z" fill="rgb(175,179,181)"/>
<path d="M297 41h7v6h-7v-6z" fill="rgb(175,179,181)"/>
<path d="M58 42h13v1h-13v-1z" fill="rgb(176,151,112)"/>
<path d="M71 42h1v5h3v1h-4v-6z" fill="rgb(98,98,98)"/>
<path d="M120 42h1v6h-4v-1h3v-5z" fill="rgb(98,98,98)"/>
<path d="M138 42h6v1h-6v-1z" fill="rgb(176,151,112)"/>
<path d="M192 43h1v3h-1v-3z" fill="rgb(129,136,142)"/>
<path d="M200 43h1v3h-1v-3z" fill="rgb(129,136,142)"/>
<path d="M208 43h1v3h-1v-3z" fill="rgb(129,136,142)"/>
<path d="M216 43h1v3h-1v-3z" fill="rgb(129,136,142)"/>
<path d="M224 43h1v3h-1v-3z" fill="rgb(129,136,142)"/>
<path d="M232 43h1v3h-1v-3z" fill="rgb(129,136,142)"/>
<path d="M240 43h1v3h-1v-3z" fill="rgb(129,136,142)"/>
<path d="M248 43h1v3h-1v-3z" fill="rgb(129,136,142)"/>
<path d="M256 43h1v3h-1v-3z" fill="rgb(129,136,142)"/>
<path d="M264 43h1v3h-1v-3z" fill="rgb(129,136,142)"/>
<path d="M272 43h1v3h-1v-3z" fill="rgb(129,136,142)"/>
<path d="M280 43h1v3h-1v-3z" fill="rgb(129,136,142)"/>
<path d="M288 43h1v3h-1v-3z" fill="rgb(129,136,142)"/>
<path d="M296 43h1v3h-1v-3z" fill="rgb(129,136,142)"/>
<path d="M48 44h14v2h-14v-2z" fill="rgb(164,137,94)"/>
<path d="M62 44h1v3h-15v-1h14v-2z" fill="rgb(176,151,112)"/>
<path d="M64 44h7v2h-7v-2z" fill="rgb(164,137,94)"/>
<path d="M73 44h46v1h-46v-1z" fill="rgb(134,134,134)"/>
<path d="M121 44h5v2h-5v-2z" fill="rgb(164,137,94)"/>
<path d="M126 44h1v3h-6v-1h5v-2z" fill="rgb(176,151,112)"/>
<path d="M128 44h14v2h-14v-2z" fill="rgb(164,137,94)"/>
<path d="M142 44h1v3h-15v-1h14v-2z" fill="rgb(176,151,112)"/>
<path d="M72 45h1v1h-1v-1z" fill="rgb(134,134,134)"/>
<path d="M73 45h46v1h1v1h-3v1h-1v2h-1v1h-18v1h-2v-1h-18v-1h-1v-2h-1v-1h-3v-1h1v-1z" fill="rgb(184,184,184)"/>
<path d="M119 45h1v1h-1v-1z" fill="rgb(134,134,134)"/>
<path d="M64 46h7v1h-7v-1z" fill="rgb(176,151,112)"/>
<path d="M78 46h16v1h1v2h-1v1h-16v-1h-1v-2h1v-1z" fill="rgb(201,201,201)"/>
<path d="M98 46h16v1h1v2h-1v1h-16v-1h-1v-2h1v-1z" fill="rgb(201,201,201)"/>
<path d="M192 46h1v2h2v1h-2v2h-1v-5z" fill="rgb(102,111,118)"/>
<path d="M200 46h1v2h-1v-2z" fill="rgb(102,111,118)"/>
<path d="M208 46h1v2h-1v-2z" fill="rgb(102,111,118)"/>
<path d="M216 46h1v2h-1v-2z" fill="rgb(102,111,118)"/>
<path d="M224 46h1v2h-1v-2z" fill="rgb(102,111,118)"/>
<path d="M232 46h1v2h-1v-2z" fill="rgb(102,111,118)"/>
<path d="M240 46h1v2h-1v-2z" fill="rgb(102,111,118)"/>
<path d="M248 46h1v2h-1v-2z" fill="rgb(102,111,118)"/>
<path d="M256 46h1v2h-1v-2z" fill="rgb(102,111,118)"/>
<path d="M264 46h1v2h-1v-2z" fill="rgb(102,111,118)"/>
<path d="M272 46h1v2h-1v-2z" fill="rgb(102,111,118)"/>
<path d="M280 46h1v2h-1v-2z" fill="rgb(102,111,118)"/>
<path d="M288 46h1v2h-1v-2z" fill="rgb(102,111,118)"/>
<path d="M296 46h1v2h-1v-2z" fill="rgb(102,111,118)"/>
<path d="M70 47h1v1h-1v-1z" fill="rgb(106,87,55)"/>
<path d="M121 47h1v1h-1v-1z" fill="rgb(106,87,55)"/>
<path d="M193 47h7v1h-7v-1z" fill="rgb(197,198,200)"/>
<path d="M201 47h7v1h-7v-1z" fill="rgb(197,198,200)"/>
<path d="M209 47h7v1h-7v-1z" fill="rgb(197,198,200)"/>
<path d="M217 47h7v1h-7v-1z" fill="rgb(197,198,200)"/>
<path d="M225 47h7v1h-7v-1z" fill="rgb(197,198,200)"/>
<path d="M233 47h7v1h-7v-1z" fill="rgb(197,198,200)"/>
<path d="M241 47h7v1h-7v-1z" fill="rgb(197,198,200)"/>
<path d="M249 47h7v1h-7v-1z" fill="rgb(197,198,200)"/>
<path d="M257 47h7v1h-7v-1z" fill="rgb(197,198,200)"/>
<path d="M265 47h7v1h-7v-1z" fill="rgb(197,198,200)"/>
<path d="M273 47h7v1h-7v-1z" fill="rgb(197,198,200)"/>
<path d="M281 47h7v1h-7v-1z" fill="rgb(197,198,200)"/>
<path d="M289 47h7v1h-7v-1z" fill="rgb(197,198,200)"/>
<path d="M297 47h7v1h-7v-1z" fill="rgb(197,198,200)"/>
<path d="M16 48h31v7h-31v-7z" fill="rgb(227,227,227)"/>
<path d="M47 48h1v7h-1v-7z" fill="rgb(170,170,170)"/>
<path d="M48 48h4v2h-4v-2z" fill="rgb(164,137,94)"/>
<path d="M52 48h1v3h-5v-1h4v-2z" fill="rgb(176,151,112)"/>
<path d="M54 48h2v2h-2v-2z" fill="rgb(164,137,94)"/>
<path d="M56 48h12v2h-12v-2z" fill="rgb(193,161,110)"/>
<path d="M68 48h1v3h-13v-1h12v-2z" fill="rgb(207,178,132)"/>
<path d="M69 48h1v4h-1v-4z" fill="rgb(124,102,65)"/>
<path d="M70 48h1v16h50v-16h1v17h-52v-17z" fill="rgb(98,98,98)"/>
<path d="M71 48h2v1h1v6h-1v1h-2v-8z" fill="rgb(219,219,219)"/>
<path d="M73 48h1v1h-1v-1z" fill="rgb(201,201,201)"/>
<path d="M74 48h1v1h-1v-1z" fill="rgb(184,184,184)"/>
<path d="M75 48h1v4h1v1h-1v3h-1v-8z" fill="rgb(98,98,98)"/>
<path d="M116 48h1v8h-1v-3h-1v-1h1v-4z" fill="rgb(98,98,98)"/>
<path d="M117 48h2v1h1v6h-1v1h-2v-8z" fill="rgb(219,219,219)"/>
<path d="M119 48h2v8h-1v1h-1v1h-1v1h-1v-3h2v-1h1v-6h-1v-1z" fill="rgb(201,201,201)"/>
<path d="M122 48h1v1h1v1h-2v-2z" fill="rgb(145,121,82)"/>
<path d="M123 48h9v2h-8v-1h-1v-1z" fill="rgb(193,161,110)"/>
<path d="M132 48h1v3h-9v-1h8v-2z" fill="rgb(207,178,132)"/>
<path d="M133 48h1v3h10v1h-4v3h4v1h-7v3h7v5h-10v3h10v1h-4v3h4v1h-7v3h7v5h-10v3h10v1h-4v3
	h4v1h-7v3h7v5h-10v3h15v-3h1v3h15v-3h1v3h15v-3h1v3h15v-3h1v3h15v-3h-13v-1h7v-3
	h-7v-4h1v3h15v-3h1v3h15v-3h1v3h7v5h-10v3h10v1h-4v3h4v1h-7v3h7v5h-10v3h10v1h-4v3
	h4v1h-7v3h7v5h-10v3h10v1h-4v3h4v1h-7v3h7v5h-10v3h15v-3h1v3h15v-3h1v3h15v-3h1v3
	h15v-3h1v3h15v-3h1v3h15v-3h1v3h10v1h-4v3h4v1h-7v3h7v5h-10v3h10v1h-4v3h4v1h-7v3
	h7v5h-10v3h10v1h-4v3h4v1h-7v3h7v5h-10v3h10v1h-4v3h4v1h-7v3h7v5h-72v-1h7v-3h-7
	v-5h3v-3h-3v-1h13v-3h-13v-1h7v-3h-7v-5h3v-3h-3v-1h13v-3h-21v-1h15v-3h-15v-1h8
	v-3h-8v-1h11v-3h-11v-1h5v-3h-31v3h10v1h-4v3h4v1h-7v3h7v5h-10v3h10v1h-4v3h4v1h-7
	v3h7v5h-13v-1h12v-3h-13v-1h6v-3h-10v-1h13v-3h-15v2h-1v-2h-15v3h6v1h-9v3h5v1h-6
	v-5h3v-3h-3v-1h13v-3h-13v-1h7v-3h-7v-5h3v-3h-3v-1h13v-3h-13v-1h7v-3h-7v-5h3v-3
	h-3v-1h13v-3h-21v-1h15v-3h-15v-1h8v-3h-8v-1h11v-3h-11v-1h5v-3h-149v-1h15v-3h-15
	v-1h8v-3h-8v-1h11v-3h-11v-1h5v-3h-29v-1h7v-3h-7v-5h3v-3h-3v-1h13v-3h-13v-1h7
	v-3h-7v-5h3v-3h-3v-1h13v-3h-13v-1h7v-3h-7v-5h3v-3h-3v-1h13v-3h1v3h15v-3h1v3h15v1
	h-9v3h15v-2h1v2h15v-2h1v2h15v-2h1v2h15v-3h1v-1h9v-3h-9v-1h3v-3h-3v-1h12v-3h-12
	v-1h15v-3h-15v-1h9v-3z" fill="rgb(166,136,87)"/>
<path d="M134 48h10v2h-10v-2z" fill="rgb(193,161,110)"/>
<path d="M144 48h1v1h-1v-1z" fill="rgb(146,151,146)"/>
<path d="M191 48h1v1h-1v-1z" fill="rgb(146,151,146)"/>
<path d="M195 48h3v1h-3v-1z" fill="rgb(129,136,142)"/>
<path d="M198 48h2v1h-2v-1z" fill="rgb(102,111,118)"/>
<path d="M200 48h3v1h-2v2h-1v-3z" fill="rgb(120,130,139)"/>
<path d="M203 48h3v1h-3v-1z" fill="rgb(152,160,167)"/>
<path d="M206 48h5v1h-2v2h-1v-2h-2v-1z" fill="rgb(120,130,139)"/>
<path d="M211 48h3v1h-3v-1z" fill="rgb(152,160,167)"/>
<path d="M214 48h5v1h-2v2h-1v-2h-2v-1z" fill="rgb(120,130,139)"/>
<path d="M219 48h3v1h-3v-1z" fill="rgb(152,160,167)"/>
<path d="M222 48h5v1h-2v2h-1v-2h-2v-1z" fill="rgb(120,130,139)"/>
<path d="M227 48h3v1h-3v-1z" fill="rgb(152,160,167)"/>
<path d="M230 48h5v1h-2v2h-1v-2h-2v-1z" fill="rgb(120,130,139)"/>
<path d="M235 48h3v1h-3v-1z" fill="rgb(152,160,167)"/>
<path d="M238 48h5v1h-2v2h-1v-2h-2v-1z" fill="rgb(120,130,139)"/>
<path d="M243 48h3v1h-3v-1z" fill="rgb(152,160,167)"/>
<path d="M246 48h5v1h-2v2h-1v-2h-2v-1z" fill="rgb(120,130,139)"/>
<path d="M251 48h3v1h-3v-1z" fill="rgb(152,160,167)"/>
<path d="M254 48h5v1h-2v2h-1v-2h-2v-1z" fill="rgb(120,130,139)"/>
<path d="M259 48h3v1h-3v-1z" fill="rgb(152,160,167)"/>
<path d="M262 48h5v1h-2v2h-1v-2h-2v-1z" fill="rgb(120,130,139)"/>
<path d="M267 48h3v1h-3v-1z" fill="rgb(152,160,167)"/>
<path d="M270 48h5v1h-2v2h-1v-2h-2v-1z" fill="rgb(120,130,139)"/>
<path d="M275 48h3v1h-3v-1z" fill="rgb(152,160,167)"/>
<path d="M278 48h5v1h-2v2h-1v-2h-2v-1z" fill="rgb(120,130,139)"/>
<path d="M283 48h3v1h-3v-1z" fill="rgb(152,160,167)"/>
<path d="M286 48h5v1h-2v2h-1v-2h-2v-1z" fill="rgb(120,130,139)"/>
<path d="M291 48h3v1h-3v-1z" fill="rgb(152,160,167)"/>
<path d="M294 48h5v1h-2v2h-1v-2h-2v-1z" fill="rgb(120,130,139)"/>
<path d="M299 48h3v1h-3v-1z" fill="rgb(152,160,167)"/>
<path d="M302 48h2v1h-2v-1z" fill="rgb(120,130,139)"/>
<path d="M74 49h1v7h-1v1h-1v1h-2v-2h2v-1h1v-6z" fill="rgb(201,201,201)"/>
<path d="M144 49h1v7h46v-7h1v8h-48v-8z" fill="rgb(148,148,146)"/>
<path d="M193 49h7v6h-7v-6z" fill="rgb(175,179,181)"/>
<path d="M201 49h7v6h-7v-6z" fill="rgb(206,210,213)"/>
<path d="M209 49h7v6h-7v-6z" fill="rgb(206,210,213)"/>
<path d="M217 49h7v6h-7v-6z" fill="rgb(206,210,213)"/>
<path d="M225 49h7v6h-7v-6z" fill="rgb(206,210,213)"/>
<path d="M233 49h7v6h-7v-6z" fill="rgb(206,210,213)"/>
<path d="M241 49h7v6h-7v-6z" fill="rgb(206,210,213)"/>
<path d="M249 49h7v6h-7v-6z" fill="rgb(206,210,213)"/>
<path d="M257 49h7v6h-7v-6z" fill="rgb(206,210,213)"/>
<path d="M265 49h7v6h-7v-6z" fill="rgb(206,210,213)"/>
<path d="M273 49h7v6h-7v-6z" fill="rgb(206,210,213)"/>
<path d="M281 49h7v6h-7v-6z" fill="rgb(206,210,213)"/>
<path d="M289 49h7v6h-7v-6z" fill="rgb(206,210,213)"/>
<path d="M297 49h7v6h-7v-6z" fill="rgb(206,210,213)"/>
<path d="M54 50h2v1h-2v-1z" fill="rgb(176,151,112)"/>
<path d="M76 50h1v2h-1v-2z" fill="rgb(170,170,170)"/>
<path d="M115 50h1v2h-1v-2z" fill="rgb(170,170,170)"/>
<path d="M122 50h2v1h-2v-1z" fill="rgb(155,133,99)"/>
<path d="M134 50h10v1h-10v-1z" fill="rgb(207,178,132)"/>
<path d="M56 51h13v1h-9v3h9v1h-12v3h12v1h-5v3h5v1h-13v-1h7v-3h-7v-5h3v-3h-3v-1z" fill="rgb(166,136,87)"/>
<path d="M77 51h4v1h-4v-1z" fill="rgb(98,98,98)"/>
<path d="M81 51h11v1h-11v-1z" fill="rgb(134,134,134)"/>
<path d="M92 51h3v1h-3v-1z" fill="rgb(98,98,98)"/>
<path d="M97 51h3v1h-3v-1z" fill="rgb(98,98,98)"/>
<path d="M100 51h11v1h-11v-1z" fill="rgb(134,134,134)"/>
<path d="M111 51h4v1h-4v-1z" fill="rgb(98,98,98)"/>
<path d="M122 51h2v5h-2v-1h1v-3h-1v-1z" fill="rgb(124,102,65)"/>
<path d="M192 51h1v3h-1v-3z" fill="rgb(129,136,142)"/>
<path d="M200 51h1v3h-1v-3z" fill="rgb(152,160,167)"/>
<path d="M208 51h1v3h-1v-3z" fill="rgb(152,160,167)"/>
<path d="M216 51h1v3h-1v-3z" fill="rgb(152,160,167)"/>
<path d="M224 51h1v3h-1v-3z" fill="rgb(152,160,167)"/>
<path d="M232 51h1v3h-1v-3z" fill="rgb(152,160,167)"/>
<path d="M240 51h1v3h-1v-3z" fill="rgb(152,160,167)"/>
<path d="M248 51h1v3h-1v-3z" fill="rgb(152,160,167)"/>
<path d="M256 51h1v3h-1v-3z" fill="rgb(152,160,167)"/>
<path d="M264 51h1v3h-1v-3z" fill="rgb(152,160,167)"/>
<path d="M272 51h1v3h-1v-3z" fill="rgb(152,160,167)"/>
<path d="M280 51h1v3h-1v-3z" fill="rgb(152,160,167)"/>
<path d="M288 51h1v3h-1v-3z" fill="rgb(152,160,167)"/>
<path d="M296 51h1v3h-1v-3z" fill="rgb(152,160,167)"/>
<path d="M48 52h8v2h-8v-2z" fill="rgb(164,137,94)"/>
<path d="M56 52h2v2h-2v-2z" fill="rgb(193,161,110)"/>
<path d="M58 52h1v3h-3v-1h2v-2z" fill="rgb(207,178,132)"/>
<path d="M60 52h9v2h-9v-2z" fill="rgb(193,161,110)"/>
<path d="M69 52h1v2h-1v-2z" fill="rgb(145,121,82)"/>
<path d="M77 52h18v1h2v-1h18v2h1v6h-19v-1h-2v1h-19v-6h1v-2z" fill="rgb(184,184,184)"/>
<path d="M95 52h2v1h-2v-1z" fill="rgb(98,98,98)"/>
<path d="M122 52h1v3h-1v-3z" fill="rgb(155,133,99)"/>
<path d="M124 52h14v2h-14v-2z" fill="rgb(193,161,110)"/>
<path d="M138 52h1v3h-15v-1h14v-2z" fill="rgb(207,178,132)"/>
<path d="M140 52h4v2h-4v-2z" fill="rgb(193,161,110)"/>
<path d="M145 52h46v1h-46v-1z" fill="rgb(181,181,181)"/>
<path d="M76 53h1v1h-1v-1z" fill="rgb(170,170,170)"/>
<path d="M79 53h15v1h1v4h-1v1h-15v-1h-1v-4h1v-1z" fill="rgb(201,201,201)"/>
<path d="M98 53h15v1h1v4h-1v1h-15v-1h-1v-4h1v-1z" fill="rgb(201,201,201)"/>
<path d="M115 53h1v1h-1v-1z" fill="rgb(170,170,170)"/>
<path d="M145 53h46v3h-46v-3z" fill="rgb(238,238,238)"/>
<path d="M48 54h8v1h-8v-1z" fill="rgb(176,151,112)"/>
<path d="M60 54h9v1h-9v-1z" fill="rgb(207,178,132)"/>
<path d="M69 54h1v1h-1v-1z" fill="rgb(155,133,99)"/>
<path d="M86 54h1v1h2v1h-2v1h-1v-1h-3v-1h3v-1z" fill="rgb(184,184,184)"/>
<path d="M105 54h1v1h3v1h-3v1h-1v-1h-2v-1h2v-1z" fill="rgb(184,184,184)"/>
<path d="M140 54h4v1h-4v-1z" fill="rgb(207,178,132)"/>
<path d="M192 54h1v2h2v1h-2v2h-1v-5z" fill="rgb(102,111,118)"/>
<path d="M200 54h1v2h2v1h-2v2h-1v-5z" fill="rgb(120,130,139)"/>
<path d="M208 54h1v2h2v1h-2v2h-1v-2h-2v-1h2v-2z" fill="rgb(120,130,139)"/>
<path d="M216 54h1v2h2v1h-2v2h-1v-2h-2v-1h2v-2z" fill="rgb(120,130,139)"/>
<path d="M224 54h1v2h2v1h-2v2h-1v-2h-2v-1h2v-2z" fill="rgb(120,130,139)"/>
<path d="M232 54h1v2h2v1h-2v2h-1v-2h-2v-1h2v-2z" fill="rgb(120,130,139)"/>
<path d="M240 54h1v2h2v1h-2v2h-1v-2h-2v-1h2v-2z" fill="rgb(120,130,139)"/>
<path d="M248 54h1v2h2v1h-2v2h-1v-2h-2v-1h2v-2z" fill="rgb(120,130,139)"/>
<path d="M256 54h1v2h2v1h-2v2h-1v-2h-2v-1h2v-2z" fill="rgb(120,130,139)"/>
<path d="M264 54h1v2h2v1h-2v2h-1v-2h-2v-1h2v-2z" fill="rgb(120,130,139)"/>
<path d="M272 54h1v2h2v1h-2v2h-1v-2h-2v-1h2v-2z" fill="rgb(120,130,139)"/>
<path d="M280 54h1v2h2v1h-2v2h-1v-2h-2v-1h2v-2z" fill="rgb(120,130,139)"/>
<path d="M288 54h1v2h2v1h-2v2h-1v-2h-2v-1h2v-2z" fill="rgb(120,130,139)"/>
<path d="M296 54h1v2h2v1h-2v2h-1v-2h-2v-1h2v-2z" fill="rgb(120,130,139)"/>
<path d="M16 55h32v1h-32v-1z" fill="rgb(161,165,161)"/>
<path d="M48 55h8v1h-8v-1z" fill="rgb(141,116,74)"/>
<path d="M69 55h1v1h-1v-1z" fill="rgb(124,102,65)"/>
<path d="M193 55h7v1h-7v-1z" fill="rgb(197,198,200)"/>
<path d="M201 55h7v1h-7v-1z" fill="rgb(231,233,235)"/>
<path d="M209 55h7v1h-7v-1z" fill="rgb(231,233,235)"/>
<path d="M217 55h7v1h-7v-1z" fill="rgb(231,233,235)"/>
<path d="M225 55h7v1h-7v-1z" fill="rgb(231,233,235)"/>
<path d="M233 55h7v1h-7v-1z" fill="rgb(231,233,235)"/>
<path d="M241 55h7v1h-7v-1z" fill="rgb(231,233,235)"/>
<path d="M249 55h7v1h-7v-1z" fill="rgb(231,233,235)"/>
<path d="M257 55h7v1h-7v-1z" fill="rgb(231,233,235)"/>
<path d="M265 55h7v1h-7v-1z" fill="rgb(231,233,235)"/>
<path d="M273 55h7v1h-7v-1z" fill="rgb(231,233,235)"/>
<path d="M281 55h7v1h-7v-1z" fill="rgb(231,233,235)"/>
<path d="M289 55h7v1h-7v-1z" fill="rgb(231,233,235)"/>
<path d="M297 55h7v1h-7v-1z" fill="rgb(231,233,235)"/>
<path d="M16 56h7v2h-7v-2z" fill="rgb(164,137,94)"/>
<path d="M23 56h1v3h-8v-1h7v-2z" fill="rgb(176,151,112)"/>
<path d="M24 56h1v3h15v-3h1v3h15v1h-8v3h8v1h-34v3h2v1h-8v-1h5v-3h-5v-1h15v-3h-15v-1h8v-3
	z" fill="rgb(141,116,74)"/>
<path d="M25 56h14v2h-13v1h-1v-3z" fill="rgb(164,137,94)"/>
<path d="M39 56h1v3h-14v-1h13v-2z" fill="rgb(176,151,112)"/>
<path d="M41 56h14v2h-13v1h-1v-3z" fill="rgb(164,137,94)"/>
<path d="M55 56h1v3h-14v-1h13v-2z" fill="rgb(176,151,112)"/>
<path d="M57 56h12v2h-11v1h-1v-3z" fill="rgb(193,161,110)"/>
<path d="M69 56h1v2h-1v-2z" fill="rgb(145,121,82)"/>
<path d="M74 56h1v3h-1v-1h-1v-1h1v-1z" fill="rgb(184,184,184)"/>
<path d="M75 56h1v4h19v1h-19v3h-1v-4h-1v-1h1v-3z" fill="rgb(134,134,134)"/>
<path d="M116 56h1v3h1v1h-1v4h-1v-3h-19v-1h19v-4z" fill="rgb(134,134,134)"/>
<path d="M120 56h1v2h-2v-1h1v-1z" fill="rgb(184,184,184)"/>
<path d="M122 56h2v2h-2v-2z" fill="rgb(145,121,82)"/>
<path d="M124 56h11v2h-11v-2z" fill="rgb(193,161,110)"/>
<path d="M135 56h1v3h-12v-1h11v-2z" fill="rgb(207,178,132)"/>
<path d="M137 56h7v2h-6v1h-1v-3z" fill="rgb(193,161,110)"/>
<path d="M195 56h3v1h-3v-1z" fill="rgb(129,136,142)"/>
<path d="M198 56h2v1h-2v-1z" fill="rgb(102,111,118)"/>
<path d="M203 56h3v1h-3v-1z" fill="rgb(152,160,167)"/>
<path d="M211 56h3v1h-3v-1z" fill="rgb(152,160,167)"/>
<path d="M219 56h3v1h-3v-1z" fill="rgb(152,160,167)"/>
<path d="M227 56h3v1h-3v-1z" fill="rgb(152,160,167)"/>
<path d="M235 56h3v1h-3v-1z" fill="rgb(152,160,167)"/>
<path d="M243 56h3v1h-3v-1z" fill="rgb(152,160,167)"/>
<path d="M251 56h3v1h-3v-1z" fill="rgb(152,160,167)"/>
<path d="M259 56h3v1h-3v-1z" fill="rgb(152,160,167)"/>
<path d="M267 56h3v1h-3v-1z" fill="rgb(152,160,167)"/>
<path d="M275 56h3v1h-3v-1z" fill="rgb(152,160,167)"/>
<path d="M283 56h3v1h-3v-1z" fill="rgb(152,160,167)"/>
<path d="M291 56h3v1h-3v-1z" fill="rgb(152,160,167)"/>
<path d="M299 56h3v1h-3v-1z" fill="rgb(152,160,167)"/>
<path d="M302 56h2v1h-2v-1z" fill="rgb(120,130,139)"/>
<path d="M144 57h1v1h-1v-1z" fill="rgb(170,170,170)"/>
<path d="M145 57h46v1h-46v-1z" fill="rgb(227,227,227)"/>
<path d="M191 57h1v1h-1v-1z" fill="rgb(170,170,170)"/>
<path d="M193 57h7v6h-7v-6z" fill="rgb(175,179,181)"/>
<path d="M201 57h7v6h-7v-6z" fill="rgb(206,210,213)"/>
<path d="M209 57h7v6h-7v-6z" fill="rgb(206,210,213)"/>
<path d="M217 57h7v6h-7v-6z" fill="rgb(206,210,213)"/>
<path d="M225 57h7v6h-7v-6z" fill="rgb(206,210,213)"/>
<path d="M233 57h7v6h-7v-6z" fill="rgb(206,210,213)"/>
<path d="M241 57h7v6h-7v-6z" fill="rgb(206,210,213)"/>
<path d="M249 57h7v6h-7v-6z" fill="rgb(206,210,213)"/>
<path d="M257 57h7v6h-7v-6z" fill="rgb(206,210,213)"/>
<path d="M265 57h7v6h-7v-6z" fill="rgb(206,210,213)"/>
<path d="M273 57h7v6h-7v-6z" fill="rgb(206,210,213)"/>
<path d="M281 57h7v6h-7v-6z" fill="rgb(206,210,213)"/>
<path d="M289 57h7v6h-7v-6z" fill="rgb(206,210,213)"/>
<path d="M297 57h7v6h-7v-6z" fill="rgb(206,210,213)"/>
<path d="M58 58h11v1h-11v-1z" fill="rgb(207,178,132)"/>
<path d="M69 58h1v1h-1v-1z" fill="rgb(155,133,99)"/>
<path d="M71 58h3v1h-2v1h-1v-2z" fill="rgb(134,134,134)"/>
<path d="M118 58h3v2h-1v-1h-2v-1z" fill="rgb(134,134,134)"/>
<path d="M122 58h2v1h-2v-1z" fill="rgb(155,133,99)"/>
<path d="M138 58h6v1h-6v-1z" fill="rgb(207,178,132)"/>
<path d="M144 58h1v1h-1v-1z" fill="rgb(178,178,178)"/>
<path d="M145 58h46v1h-46v-1z" fill="rgb(238,238,238)"/>
<path d="M191 58h1v1h-1v-1z" fill="rgb(178,178,178)"/>
<path d="M69 59h1v1h-1v-1z" fill="rgb(124,102,65)"/>
<path d="M72 59h2v1h1v4h-4v-4h1v-1z" fill="rgb(184,184,184)"/>
<path d="M95 59h2v1h-2v-1z" fill="rgb(134,134,134)"/>
<path d="M118 59h2v1h1v4h-4v-4h1v-1z" fill="rgb(184,184,184)"/>
<path d="M122 59h2v1h-2v-1z" fill="rgb(124,102,65)"/>
<path d="M144 59h1v9h-1v-9z" fill="rgb(183,183,183)"/>
<path d="M145 59h46v9h-46v-9z" fill="rgb(244,244,244)"/>
<path d="M191 59h1v9h-1v-9z" fill="rgb(183,183,183)"/>
<path d="M192 59h1v3h-1v-3z" fill="rgb(129,136,142)"/>
<path d="M200 59h1v3h-1v-3z" fill="rgb(152,160,167)"/>
<path d="M208 59h1v3h-1v-3z" fill="rgb(152,160,167)"/>
<path d="M216 59h1v3h-1v-3z" fill="rgb(152,160,167)"/>
<path d="M224 59h1v3h-1v-3z" fill="rgb(152,160,167)"/>
<path d="M232 59h1v3h-1v-3z" fill="rgb(152,160,167)"/>
<path d="M240 59h1v3h-1v-3z" fill="rgb(152,160,167)"/>
<path d="M248 59h1v3h-1v-3z" fill="rgb(152,160,167)"/>
<path d="M256 59h1v3h-1v-3z" fill="rgb(152,160,167)"/>
<path d="M264 59h1v3h-1v-3z" fill="rgb(152,160,167)"/>
<path d="M272 59h1v3h-1v-3z" fill="rgb(152,160,167)"/>
<path d="M280 59h1v3h-1v-3z" fill="rgb(152,160,167)"/>
<path d="M288 59h1v3h-1v-3z" fill="rgb(152,160,167)"/>
<path d="M296 59h1v3h-1v-3z" fill="rgb(152,160,167)"/>
<path d="M16 60h14v2h-14v-2z" fill="rgb(164,137,94)"/>
<path d="M30 60h1v3h-15v-1h14v-2z" fill="rgb(176,151,112)"/>
<path d="M32 60h14v2h-14v-2z" fill="rgb(164,137,94)"/>
<path d="M46 60h1v3h-15v-1h14v-2z" fill="rgb(176,151,112)"/>
<path d="M48 60h8v2h-8v-2z" fill="rgb(164,137,94)"/>
<path d="M56 60h6v2h-6v-2z" fill="rgb(193,161,110)"/>
<path d="M62 60h1v3h-7v-1h6v-2z" fill="rgb(207,178,132)"/>
<path d="M64 60h5v2h-5v-2z" fill="rgb(193,161,110)"/>
<path d="M69 60h1v2h-1v-2z" fill="rgb(145,121,82)"/>
<path d="M95 60h2v1h1v3h-4v-3h1v-1z" fill="rgb(170,170,170)"/>
<path d="M122 60h2v2h-2v-2z" fill="rgb(145,121,82)"/>
<path d="M124 60h2v2h-2v-2z" fill="rgb(193,161,110)"/>
<path d="M126 60h1v3h-3v-1h2v-2z" fill="rgb(207,178,132)"/>
<path d="M128 60h14v2h-14v-2z" fill="rgb(193,161,110)"/>
<path d="M142 60h1v3h-15v-1h14v-2z" fill="rgb(207,178,132)"/>
<path d="M76 61h2v3h-2v-3z" fill="rgb(170,170,170)"/>
<path d="M78 61h16v3h-16v-3z" fill="rgb(184,184,184)"/>
<path d="M98 61h16v3h-16v-3z" fill="rgb(184,184,184)"/>
<path d="M114 61h2v3h-2v-3z" fill="rgb(170,170,170)"/>
<path d="M48 62h8v1h-8v-1z" fill="rgb(176,151,112)"/>
<path d="M64 62h5v1h-5v-1z" fill="rgb(207,178,132)"/>
<path d="M69 62h1v1h-1v-1z" fill="rgb(155,133,99)"/>
<path d="M122 62h2v1h-2v-1z" fill="rgb(155,133,99)"/>
<path d="M192 62h1v2h2v1h-2v2h-1v-5z" fill="rgb(102,111,118)"/>
<path d="M200 62h1v2h2v1h-2v2h-1v-5z" fill="rgb(120,130,139)"/>
<path d="M208 62h1v2h2v1h-2v2h-1v-2h-2v-1h2v-2z" fill="rgb(120,130,139)"/>
<path d="M216 62h1v2h2v1h-2v2h-1v-2h-2v-1h2v-2z" fill="rgb(120,130,139)"/>
<path d="M224 62h1v2h2v1h-2v2h-1v-2h-2v-1h2v-2z" fill="rgb(120,130,139)"/>
<path d="M232 62h1v2h2v1h-2v2h-1v-2h-2v-1h2v-2z" fill="rgb(120,130,139)"/>
<path d="M240 62h1v2h2v1h-2v2h-1v-2h-2v-1h2v-2z" fill="rgb(120,130,139)"/>
<path d="M248 62h1v2h2v1h-2v2h-1v-2h-2v-1h2v-2z" fill="rgb(120,130,139)"/>
<path d="M256 62h1v2h2v1h-2v2h-1v-2h-2v-1h2v-2z" fill="rgb(120,130,139)"/>
<path d="M264 62h1v2h2v1h-2v2h-1v-2h-2v-1h2v-2z" fill="rgb(120,130,139)"/>
<path d="M272 62h1v2h2v1h-2v2h-1v-2h-2v-1h2v-2z" fill="rgb(120,130,139)"/>
<path d="M280 62h1v2h2v1h-2v2h-1v-2h-2v-1h2v-2z" fill="rgb(120,130,139)"/>
<path d="M288 62h1v2h2v1h-2v2h-1v-2h-2v-1h2v-2z" fill="rgb(120,130,139)"/>
<path d="M296 62h1v2h2v1h-2v2h-1v-2h-2v-1h2v-2z" fill="rgb(120,130,139)"/>
<path d="M69 63h1v4h15v-2h1v2h15v-2h1v2h22v1h-16v1h-1v-1h-15v1h-1v-1h-15v1h-1v-1h-6v-5z" fill="rgb(124,102,65)"/>
<path d="M122 63h2v1h-2v-1z" fill="rgb(124,102,65)"/>
<path d="M193 63h7v1h-7v-1z" fill="rgb(197,198,200)"/>
<path d="M201 63h7v1h-7v-1z" fill="rgb(231,233,235)"/>
<path d="M209 63h7v1h-7v-1z" fill="rgb(231,233,235)"/>
<path d="M217 63h7v1h-7v-1z" fill="rgb(231,233,235)"/>
<path d="M225 63h7v1h-7v-1z" fill="rgb(231,233,235)"/>
<path d="M233 63h7v1h-7v-1z" fill="rgb(231,233,235)"/>
<path d="M241 63h7v1h-7v-1z" fill="rgb(231,233,235)"/>
<path d="M249 63h7v1h-7v-1z" fill="rgb(231,233,235)"/>
<path d="M257 63h7v1h-7v-1z" fill="rgb(231,233,235)"/>
<path d="M265 63h7v1h-7v-1z" fill="rgb(231,233,235)"/>
<path d="M273 63h7v1h-7v-1z" fill="rgb(231,233,235)"/>
<path d="M281 63h7v1h-7v-1z" fill="rgb(231,233,235)"/>
<path d="M289 63h7v1h-7v-1z" fill="rgb(231,233,235)"/>
<path d="M297 63h7v1h-7v-1z" fill="rgb(231,233,235)"/>
<path d="M16 64h4v2h-4v-2z" fill="rgb(164,137,94)"/>
<path d="M20 64h1v3h-5v-1h4v-2z" fill="rgb(176,151,112)"/>
<path d="M22 64h2v2h-2v-2z" fill="rgb(164,137,94)"/>
<path d="M24 64h12v2h-12v-2z" fill="rgb(193,161,110)"/>
<path d="M36 64h1v3h-13v-1h12v-2z" fill="rgb(207,178,132)"/>
<path d="M38 64h14v2h-14v-2z" fill="rgb(193,161,110)"/>
<path d="M52 64h1v3h-15v-1h14v-2z" fill="rgb(207,178,132)"/>
<path d="M54 64h14v2h-14v-2z" fill="rgb(193,161,110)"/>
<path d="M68 64h1v3h-15v-1h14v-2z" fill="rgb(207,178,132)"/>
<path d="M122 64h2v2h-2v-2z" fill="rgb(145,121,82)"/>
<path d="M124 64h8v2h-8v-2z" fill="rgb(193,161,110)"/>
<path d="M132 64h1v3h-9v-1h8v-2z" fill="rgb(207,178,132)"/>
<path d="M134 64h10v2h-10v-2z" fill="rgb(193,161,110)"/>
<path d="M195 64h3v1h-3v-1z" fill="rgb(129,136,142)"/>
<path d="M198 64h2v1h-2v-1z" fill="rgb(102,111,118)"/>
<path d="M203 64h3v1h-3v-1z" fill="rgb(152,160,167)"/>
<path d="M211 64h3v1h-3v-1z" fill="rgb(152,160,167)"/>
<path d="M219 64h3v1h-3v-1z" fill="rgb(152,160,167)"/>
<path d="M227 64h3v1h-3v-1z" fill="rgb(152,160,167)"/>
<path d="M235 64h3v1h-3v-1z" fill="rgb(152,160,167)"/>
<path d="M243 64h3v1h-3v-1z" fill="rgb(152,160,167)"/>
<path d="M251 64h3v1h-3v-1z" fill="rgb(152,160,167)"/>
<path d="M259 64h3v1h-3v-1z" fill="rgb(152,160,167)"/>
<path d="M267 64h3v1h-3v-1z" fill="rgb(152,160,167)"/>
<path d="M275 64h3v1h-3v-1z" fill="rgb(152,160,167)"/>
<path d="M283 64h3v1h-3v-1z" fill="rgb(152,160,167)"/>
<path d="M291 64h3v1h-3v-1z" fill="rgb(152,160,167)"/>
<path d="M299 64h3v1h-3v-1z" fill="rgb(152,160,167)"/>
<path d="M302 64h2v1h-2v-1z" fill="rgb(120,130,139)"/>
<path d="M70 65h1v1h3v-1h1v2h-5v-2z" fill="rgb(55,48,49)"/>
<path d="M71 65h3v1h-3v-1z" fill="rgb(104,96,96)"/>
<path d="M75 65h9v1h-9v-1z" fill="rgb(145,121,82)"/>
<path d="M84 65h1v2h-10v-1h9v-1z" fill="rgb(155,133,99)"/>
<path d="M86 65h14v1h-14v-1z" fill="rgb(145,121,82)"/>
<path d="M100 65h1v2h-15v-1h14v-1z" fill="rgb(155,133,99)"/>
<path d="M102 65h14v1h-14v-1z" fill="rgb(145,121,82)"/>
<path d="M116 65h1v2h-15v-1h14v-1z" fill="rgb(155,133,99)"/>
<path d="M117 65h1v1h3v-1h1v2h-5v-2z" fill="rgb(55,48,49)"/>
<path d="M118 65h3v1h-3v-1z" fill="rgb(104,96,96)"/>
<path d="M193 65h7v6h-7v-6z" fill="rgb(175,179,181)"/>
<path d="M201 65h7v6h-7v-6z" fill="rgb(206,210,213)"/>
<path d="M209 65h7v6h-7v-6z" fill="rgb(206,210,213)"/>
<path d="M217 65h7v6h-7v-6z" fill="rgb(206,210,213)"/>
<path d="M225 65h7v6h-7v-6z" fill="rgb(206,210,213)"/>
<path d="M233 65h7v6h-7v-6z" fill="rgb(206,210,213)"/>
<path d="M241 65h7v6h-7v-6z" fill="rgb(206,210,213)"/>
<path d="M249 65h7v6h-7v-6z" fill="rgb(206,210,213)"/>
<path d="M257 65h7v6h-7v-6z" fill="rgb(206,210,213)"/>
<path d="M265 65h7v6h-7v-6z" fill="rgb(206,210,213)"/>
<path d="M273 65h7v6h-7v-6z" fill="rgb(206,210,213)"/>
<path d="M281 65h7v6h-7v-6z" fill="rgb(206,210,213)"/>
<path d="M289 65h7v6h-7v-6z" fill="rgb(206,210,213)"/>
<path d="M297 65h7v6h-7v-6z" fill="rgb(206,210,213)"/>
<path d="M22 66h2v1h-2v-1z" fill="rgb(176,151,112)"/>
<path d="M122 66h2v1h-2v-1z" fill="rgb(155,133,99)"/>
<path d="M134 66h10v1h-10v-1z" fill="rgb(207,178,132)"/>
<path d="M192 67h1v3h-1v-3z" fill="rgb(129,136,142)"/>
<path d="M200 67h1v3h-1v-3z" fill="rgb(152,160,167)"/>
<path d="M208 67h1v3h-1v-3z" fill="rgb(152,160,167)"/>
<path d="M216 67h1v3h-1v-3z" fill="rgb(152,160,167)"/>
<path d="M224 67h1v3h-1v-3z" fill="rgb(152,160,167)"/>
<path d="M232 67h1v3h-1v-3z" fill="rgb(152,160,167)"/>
<path d="M240 67h1v3h-1v-3z" fill="rgb(152,160,167)"/>
<path d="M248 67h1v3h-1v-3z" fill="rgb(152,160,167)"/>
<path d="M256 67h1v3h-1v-3z" fill="rgb(152,160,167)"/>
<path d="M264 67h1v3h-1v-3z" fill="rgb(152,160,167)"/>
<path d="M272 67h1v3h-1v-3z" fill="rgb(152,160,167)"/>
<path d="M280 67h1v3h-1v-3z" fill="rgb(152,160,167)"/>
<path d="M288 67h1v3h-1v-3z" fill="rgb(152,160,167)"/>
<path d="M296 67h1v3h-1v-3z" fill="rgb(152,160,167)"/>
<path d="M16 68h8v2h-8v-2z" fill="rgb(164,137,94)"/>
<path d="M24 68h2v2h-2v-2z" fill="rgb(193,161,110)"/>
<path d="M26 68h1v3h-3v-1h2v-2z" fill="rgb(207,178,132)"/>
<path d="M28 68h14v2h-14v-2z" fill="rgb(193,161,110)"/>
<path d="M42 68h1v3h-15v-1h14v-2z" fill="rgb(207,178,132)"/>
<path d="M44 68h14v2h-14v-2z" fill="rgb(193,161,110)"/>
<path d="M58 68h1v3h-15v-1h14v-2z" fill="rgb(207,178,132)"/>
<path d="M60 68h10v1h4v1h-14v-2z" fill="rgb(193,161,110)"/>
<path d="M70 68h4v1h-4v-1z" fill="rgb(145,121,82)"/>
<path d="M74 68h1v1h-1v-1z" fill="rgb(155,133,99)"/>
<path d="M76 68h14v1h-14v-1z" fill="rgb(145,121,82)"/>
<path d="M90 68h1v1h-1v-1z" fill="rgb(155,133,99)"/>
<path d="M92 68h14v1h-14v-1z" fill="rgb(145,121,82)"/>
<path d="M106 68h1v1h-1v-1z" fill="rgb(155,133,99)"/>
<path d="M108 68h14v1h-14v-1z" fill="rgb(145,121,82)"/>
<path d="M122 68h1v1h-1v-1z" fill="rgb(155,133,99)"/>
<path d="M124 68h14v2h-14v-2z" fill="rgb(193,161,110)"/>
<path d="M138 68h1v3h-15v-1h14v-2z" fill="rgb(207,178,132)"/>
<path d="M140 68h4v2h-4v-2z" fill="rgb(193,161,110)"/>
<path d="M144 68h1v12h-1v-12z" fill="rgb(178,178,178)"/>
<path d="M145 68h46v12h-46v-12z" fill="rgb(238,238,238)"/>
<path d="M191 68h1v12h-1v-12z" fill="rgb(178,178,178)"/>
<path d="M74 69h1v2h-15v-1h14v-1z" fill="rgb(207,178,132)"/>
<path d="M76 69h14v1h-14v-1z" fill="rgb(193,161,110)"/>
<path d="M90 69h1v2h-15v-1h14v-1z" fill="rgb(207,178,132)"/>
<path d="M92 69h14v1h-14v-1z" fill="rgb(193,161,110)"/>
<path d="M106 69h1v2h-15v-1h14v-1z" fill="rgb(207,178,132)"/>
<path d="M108 69h14v1h-14v-1z" fill="rgb(193,161,110)"/>
<path d="M122 69h1v2h-15v-1h14v-1z" fill="rgb(207,178,132)"/>
<path d="M16 70h8v1h-8v-1z" fill="rgb(176,151,112)"/>
<path d="M140 70h4v1h-4v-1z" fill="rgb(207,178,132)"/>
<path d="M192 70h1v2h2v1h-2v2h-1v-5z" fill="rgb(102,111,118)"/>
<path d="M200 70h1v2h2v1h-2v2h-1v-5z" fill="rgb(120,130,139)"/>
<path d="M208 70h1v2h2v1h-2v2h-1v-2h-2v-1h2v-2z" fill="rgb(120,130,139)"/>
<path d="M216 70h1v2h2v1h-2v2h-1v-2h-2v-1h2v-2z" fill="rgb(120,130,139)"/>
<path d="M224 70h1v2h2v1h-2v2h-1v-2h-2v-1h2v-2z" fill="rgb(120,130,139)"/>
<path d="M232 70h1v2h2v1h-2v2h-1v-2h-2v-1h2v-2z" fill="rgb(120,130,139)"/>
<path d="M240 70h1v2h2v1h-2v2h-1v-2h-2v-1h2v-2z" fill="rgb(120,130,139)"/>
<path d="M248 70h1v2h2v1h-2v2h-1v-2h-2v-1h2v-2z" fill="rgb(120,130,139)"/>
<path d="M256 70h1v2h2v1h-2v2h-1v-2h-2v-1h2v-2z" fill="rgb(120,130,139)"/>
<path d="M264 70h1v2h2v1h-2v2h-1v-2h-2v-1h2v-2z" fill="rgb(120,130,139)"/>
<path d="M272 70h1v2h2v1h-2v2h-1v-2h-2v-1h2v-2z" fill="rgb(120,130,139)"/>
<path d="M280 70h1v2h2v1h-2v2h-1v-2h-2v-1h2v-2z" fill="rgb(120,130,139)"/>
<path d="M288 70h1v2h2v1h-2v2h-1v-2h-2v-1h2v-2z" fill="rgb(120,130,139)"/>
<path d="M296 70h1v2h2v1h-2v2h-1v-2h-2v-1h2v-2z" fill="rgb(120,130,139)"/>
<path d="M16 71h8v1h-8v-1z" fill="rgb(141,116,74)"/>
<path d="M193 71h7v1h-7v-1z" fill="rgb(197,198,200)"/>
<path d="M201 71h7v1h-7v-1z" fill="rgb(231,233,235)"/>
<path d="M209 71h7v1h-7v-1z" fill="rgb(231,233,235)"/>
<path d="M217 71h7v1h-7v-1z" fill="rgb(231,233,235)"/>
<path d="M225 71h7v1h-7v-1z" fill="rgb(231,233,235)"/>
<path d="M233 71h7v1h-7v-1z" fill="rgb(231,233,235)"/>
<path d="M241 71h7v1h-7v-1z" fill="rgb(231,233,235)"/>
<path d="M249 71h7v1h-7v-1z" fill="rgb(231,233,235)"/>
<path d="M257 71h7v1h-7v-1z" fill="rgb(231,233,235)"/>
<path d="M265 71h7v1h-7v-1z" fill="rgb(231,233,235)"/>
<path d="M273 71h7v1h-7v-1z" fill="rgb(231,233,235)"/>
<path d="M281 71h7v1h-7v-1z" fill="rgb(231,233,235)"/>
<path d="M289 71h7v1h-7v-1z" fill="rgb(231,233,235)"/>
<path d="M297 71h7v1h-7v-1z" fill="rgb(231,233,235)"/>
<path d="M16 72h7v2h-7v-2z" fill="rgb(164,137,94)"/>
<path d="M23 72h1v3h-8v-1h7v-2z" fill="rgb(176,151,112)"/>
<path d="M25 72h14v2h-13v1h-1v-3z" fill="rgb(193,161,110)"/>
<path d="M39 72h1v3h-14v-1h13v-2z" fill="rgb(207,178,132)"/>
<path d="M41 72h14v2h-13v1h-1v-3z" fill="rgb(193,161,110)"/>
<path d="M55 72h1v3h-14v-1h13v-2z" fill="rgb(207,178,132)"/>
<path d="M57 72h14v2h-13v1h-1v-3z" fill="rgb(193,161,110)"/>
<path d="M71 72h1v3h-14v-1h13v-2z" fill="rgb(207,178,132)"/>
<path d="M73 72h14v2h-13v1h-1v-3z" fill="rgb(193,161,110)"/>
<path d="M87 72h1v3h-14v-1h13v-2z" fill="rgb(207,178,132)"/>
<path d="M89 72h14v2h-13v1h-1v-3z" fill="rgb(193,161,110)"/>
<path d="M103 72h1v3h-14v-1h13v-2z" fill="rgb(207,178,132)"/>
<path d="M105 72h14v2h-13v1h-1v-3z" fill="rgb(193,161,110)"/>
<path d="M119 72h1v3h-14v-1h13v-2z" fill="rgb(207,178,132)"/>
<path d="M121 72h14v2h-13v1h-1v-3z" fill="rgb(193,161,110)"/>
<path d="M135 72h1v3h-14v-1h13v-2z" fill="rgb(207,178,132)"/>
<path d="M137 72h7v2h-6v1h-1v-3z" fill="rgb(193,161,110)"/>
<path d="M195 72h3v1h-3v-1z" fill="rgb(129,136,142)"/>
<path d="M198 72h2v1h-2v-1z" fill="rgb(102,111,118)"/>
<path d="M203 72h3v1h-3v-1z" fill="rgb(152,160,167)"/>
<path d="M211 72h3v1h-3v-1z" fill="rgb(152,160,167)"/>
<path d="M219 72h3v1h-3v-1z" fill="rgb(152,160,167)"/>
<path d="M227 72h3v1h-3v-1z" fill="rgb(152,160,167)"/>
<path d="M235 72h3v1h-3v-1z" fill="rgb(152,160,167)"/>
<path d="M243 72h3v1h-3v-1z" fill="rgb(152,160,167)"/>
<path d="M251 72h3v1h-3v-1z" fill="rgb(152,160,167)"/>
<path d="M259 72h3v1h-3v-1z" fill="rgb(152,160,167)"/>
<path d="M267 72h3v1h-3v-1z" fill="rgb(152,160,167)"/>
<path d="M275 72h3v1h-3v-1z" fill="rgb(152,160,167)"/>
<path d="M283 72h3v1h-3v-1z" fill="rgb(152,160,167)"/>
<path d="M291 72h3v1h-3v-1z" fill="rgb(152,160,167)"/>
<path d="M299 72h3v1h-3v-1z" fill="rgb(152,160,167)"/>
<path d="M302 72h2v1h-2v-1z" fill="rgb(120,130,139)"/>
<path d="M193 73h7v6h-7v-6z" fill="rgb(175,179,181)"/>
<path d="M201 73h7v6h-7v-6z" fill="rgb(206,210,213)"/>
<path d="M209 73h7v6h-7v-6z" fill="rgb(206,210,213)"/>
<path d="M217 73h7v6h-7v-6z" fill="rgb(206,210,213)"/>
<path d="M225 73h7v6h-7v-6z" fill="rgb(206,210,213)"/>
<path d="M233 73h7v6h-7v-6z" fill="rgb(206,210,213)"/>
<path d="M241 73h7v6h-7v-6z" fill="rgb(206,210,213)"/>
<path d="M249 73h7v6h-7v-6z" fill="rgb(206,210,213)"/>
<path d="M257 73h7v6h-7v-6z" fill="rgb(206,210,213)"/>
<path d="M265 73h7v6h-7v-6z" fill="rgb(206,210,213)"/>
<path d="M273 73h7v6h-7v-6z" fill="rgb(206,210,213)"/>
<path d="M281 73h7v6h-7v-6z" fill="rgb(206,210,213)"/>
<path d="M289 73h7v6h-7v-6z" fill="rgb(206,210,213)"/>
<path d="M297 73h7v6h-7v-6z" fill="rgb(206,210,213)"/>
<path d="M138 74h6v1h-6v-1z" fill="rgb(207,178,132)"/>
<path d="M16 75h8v1h-8v-1z" fill="rgb(141,116,74)"/>
<path d="M192 75h1v3h-1v-3z" fill="rgb(129,136,142)"/>
<path d="M200 75h1v3h-1v-3z" fill="rgb(152,160,167)"/>
<path d="M208 75h1v3h-1v-3z" fill="rgb(152,160,167)"/>
<path d="M216 75h1v3h-1v-3z" fill="rgb(152,160,167)"/>
<path d="M224 75h1v3h-1v-3z" fill="rgb(152,160,167)"/>
<path d="M232 75h1v3h-1v-3z" fill="rgb(152,160,167)"/>
<path d="M240 75h1v3h-1v-3z" fill="rgb(152,160,167)"/>
<path d="M248 75h1v3h-1v-3z" fill="rgb(152,160,167)"/>
<path d="M256 75h1v3h-1v-3z" fill="rgb(152,160,167)"/>
<path d="M264 75h1v3h-1v-3z" fill="rgb(152,160,167)"/>
<path d="M272 75h1v3h-1v-3z" fill="rgb(152,160,167)"/>
<path d="M280 75h1v3h-1v-3z" fill="rgb(152,160,167)"/>
<path d="M288 75h1v3h-1v-3z" fill="rgb(152,160,167)"/>
<path d="M296 75h1v3h-1v-3z" fill="rgb(152,160,167)"/>
<path d="M16 76h8v2h-8v-2z" fill="rgb(164,137,94)"/>
<path d="M24 76h6v2h-6v-2z" fill="rgb(193,161,110)"/>
<path d="M30 76h1v3h-7v-1h6v-2z" fill="rgb(207,178,132)"/>
<path d="M32 76h14v2h-14v-2z" fill="rgb(193,161,110)"/>
<path d="M46 76h1v3h-15v-1h14v-2z" fill="rgb(207,178,132)"/>
<path d="M48 76h14v2h-14v-2z" fill="rgb(193,161,110)"/>
<path d="M62 76h1v3h-15v-1h14v-2z" fill="rgb(207,178,132)"/>
<path d="M64 76h14v2h-14v-2z" fill="rgb(193,161,110)"/>
<path d="M78 76h1v3h-15v-1h14v-2z" fill="rgb(207,178,132)"/>
<path d="M80 76h14v2h-14v-2z" fill="rgb(193,161,110)"/>
<path d="M94 76h1v3h-15v-1h14v-2z" fill="rgb(207,178,132)"/>
<path d="M96 76h14v2h-14v-2z" fill="rgb(193,161,110)"/>
<path d="M110 76h1v3h-15v-1h14v-2z" fill="rgb(207,178,132)"/>
<path d="M112 76h14v2h-14v-2z" fill="rgb(193,161,110)"/>
<path d="M126 76h1v3h-15v-1h14v-2z" fill="rgb(207,178,132)"/>
<path d="M128 76h14v2h-14v-2z" fill="rgb(193,161,110)"/>
<path d="M142 76h1v3h-15v-1h14v-2z" fill="rgb(207,178,132)"/>
<path d="M16 78h8v1h-8v-1z" fill="rgb(176,151,112)"/>
<path d="M192 78h1v2h2v1h-2v2h-1v-5z" fill="rgb(102,111,118)"/>
<path d="M200 78h1v2h2v1h-2v2h-1v-5z" fill="rgb(120,130,139)"/>
<path d="M208 78h1v2h2v1h-2v2h-1v-2h-2v-1h2v-2z" fill="rgb(120,130,139)"/>
<path d="M216 78h1v2h2v1h-2v2h-1v-2h-2v-1h2v-2z" fill="rgb(120,130,139)"/>
<path d="M224 78h1v2h2v1h-2v2h-1v-2h-2v-1h2v-2z" fill="rgb(120,130,139)"/>
<path d="M232 78h1v2h2v1h-2v2h-1v-2h-2v-1h2v-2z" fill="rgb(120,130,139)"/>
<path d="M240 78h1v2h-1v-2z" fill="rgb(120,130,139)"/>
<path d="M248 78h1v2h-1v-2z" fill="rgb(120,130,139)"/>
<path d="M256 78h1v2h-1v-2z" fill="rgb(120,130,139)"/>
<path d="M264 78h1v2h-1v-2z" fill="rgb(120,130,139)"/>
<path d="M272 78h1v2h-1v-2z" fill="rgb(120,130,139)"/>
<path d="M280 78h1v2h-1v-2z" fill="rgb(120,130,139)"/>
<path d="M288 78h1v2h-1v-2z" fill="rgb(120,130,139)"/>
<path d="M296 78h1v2h-1v-2z" fill="rgb(120,130,139)"/>
<path d="M16 79h8v1h-2v3h2v1h-8v-1h5v-3h-5v-1z" fill="rgb(141,116,74)"/>
<path d="M193 79h7v1h-7v-1z" fill="rgb(197,198,200)"/>
<path d="M201 79h7v1h-7v-1z" fill="rgb(231,233,235)"/>
<path d="M209 79h7v1h-7v-1z" fill="rgb(231,233,235)"/>
<path d="M217 79h7v1h-7v-1z" fill="rgb(231,233,235)"/>
<path d="M225 79h7v1h-7v-1z" fill="rgb(231,233,235)"/>
<path d="M233 79h7v1h-7v-1z" fill="rgb(231,233,235)"/>
<path d="M241 79h7v1h-7v-1z" fill="rgb(231,233,235)"/>
<path d="M249 79h7v1h-7v-1z" fill="rgb(231,233,235)"/>
<path d="M257 79h7v1h-7v-1z" fill="rgb(231,233,235)"/>
<path d="M265 79h7v1h-7v-1z" fill="rgb(231,233,235)"/>
<path d="M273 79h7v1h-7v-1z" fill="rgb(231,233,235)"/>
<path d="M281 79h7v1h-7v-1z" fill="rgb(231,233,235)"/>
<path d="M289 79h7v1h-7v-1z" fill="rgb(231,233,235)"/>
<path d="M297 79h7v1h-7v-1z" fill="rgb(231,233,235)"/>
<path d="M16 80h4v2h-4v-2z" fill="rgb(164,137,94)"/>
<path d="M20 80h1v3h-5v-1h4v-2z" fill="rgb(176,151,112)"/>
<path d="M22 80h2v2h-2v-2z" fill="rgb(164,137,94)"/>
<path d="M24 80h12v2h-12v-2z" fill="rgb(193,161,110)"/>
<path d="M36 80h1v3h-13v-1h12v-2z" fill="rgb(207,178,132)"/>
<path d="M38 80h14v2h-14v-2z" fill="rgb(193,161,110)"/>
<path d="M52 80h1v3h-15v-1h14v-2z" fill="rgb(207,178,132)"/>
<path d="M54 80h14v2h-14v-2z" fill="rgb(193,161,110)"/>
<path d="M68 80h1v3h-15v-1h14v-2z" fill="rgb(207,178,132)"/>
<path d="M70 80h14v2h-14v-2z" fill="rgb(193,161,110)"/>
<path d="M84 80h1v3h-15v-1h14v-2z" fill="rgb(207,178,132)"/>
<path d="M86 80h14v2h-14v-2z" fill="rgb(193,161,110)"/>
<path d="M100 80h1v3h-15v-1h14v-2z" fill="rgb(207,178,132)"/>
<path d="M102 80h14v2h-14v-2z" fill="rgb(193,161,110)"/>
<path d="M116 80h1v3h-15v-1h14v-2z" fill="rgb(207,178,132)"/>
<path d="M118 80h14v2h-14v-2z" fill="rgb(193,161,110)"/>
<path d="M132 80h1v3h-15v-1h14v-2z" fill="rgb(207,178,132)"/>
<path d="M134 80h10v2h-10v-2z" fill="rgb(193,161,110)"/>
<path d="M144 80h1v7h-1v-7z" fill="rgb(170,170,170)"/>
<path d="M145 80h46v7h-46v-7z" fill="rgb(227,227,227)"/>
<path d="M191 80h1v7h-1v-7z" fill="rgb(170,170,170)"/>
<path d="M195 80h3v1h-3v-1z" fill="rgb(129,136,142)"/>
<path d="M198 80h2v1h-2v-1z" fill="rgb(102,111,118)"/>
<path d="M203 80h3v1h-3v-1z" fill="rgb(152,160,167)"/>
<path d="M211 80h3v1h-3v-1z" fill="rgb(152,160,167)"/>
<path d="M219 80h3v1h-3v-1z" fill="rgb(152,160,167)"/>
<path d="M227 80h3v1h-3v-1z" fill="rgb(152,160,167)"/>
<path d="M235 80h3v1h-3v-1z" fill="rgb(152,160,167)"/>
<path d="M238 80h2v1h-2v-1z" fill="rgb(120,130,139)"/>
<path d="M240 80h1v16h-1v-16z" fill="rgb(148,148,146)"/>
<path d="M241 80h5v17h96v111h-5v-108h-96v-20z" fill="rgb(255,255,255)"/>
<path d="M246 80h1v16h96v112h-1v-111h-96v-17z" fill="rgb(105,105,105)"/>
<path d="M193 81h7v6h-7v-6z" fill="rgb(175,179,181)"/>
<path d="M201 81h7v6h-7v-6z" fill="rgb(206,210,213)"/>
<path d="M209 81h7v6h-7v-6z" fill="rgb(206,210,213)"/>
<path d="M217 81h7v6h-7v-6z" fill="rgb(206,210,213)"/>
<path d="M225 81h7v6h-7v-6z" fill="rgb(206,210,213)"/>
<path d="M233 81h7v6h-7v-6z" fill="rgb(206,210,213)"/>
<path d="M22 82h2v1h-2v-1z" fill="rgb(176,151,112)"/>
<path d="M134 82h10v1h-10v-1z" fill="rgb(207,178,132)"/>
<path d="M192 83h1v3h-1v-3z" fill="rgb(129,136,142)"/>
<path d="M200 83h1v3h-1v-3z" fill="rgb(152,160,167)"/>
<path d="M208 83h1v3h-1v-3z" fill="rgb(152,160,167)"/>
<path d="M216 83h1v3h-1v-3z" fill="rgb(152,160,167)"/>
<path d="M224 83h1v3h-1v-3z" fill="rgb(152,160,167)"/>
<path d="M232 83h1v3h-1v-3z" fill="rgb(152,160,167)"/>
<path d="M16 84h8v2h-8v-2z" fill="rgb(164,137,94)"/>
<path d="M24 84h2v2h-2v-2z" fill="rgb(193,161,110)"/>
<path d="M26 84h1v3h-3v-1h2v-2z" fill="rgb(207,178,132)"/>
<path d="M28 84h14v2h-14v-2z" fill="rgb(193,161,110)"/>
<path d="M42 84h1v3h-15v-1h14v-2z" fill="rgb(207,178,132)"/>
<path d="M44 84h14v2h-14v-2z" fill="rgb(193,161,110)"/>
<path d="M58 84h1v3h-15v-1h14v-2z" fill="rgb(207,178,132)"/>
<path d="M60 84h14v2h-14v-2z" fill="rgb(193,161,110)"/>
<path d="M74 84h1v3h-15v-1h14v-2z" fill="rgb(207,178,132)"/>
<path d="M76 84h14v2h-14v-2z" fill="rgb(193,161,110)"/>
<path d="M90 84h1v3h-15v-1h14v-2z" fill="rgb(207,178,132)"/>
<path d="M92 84h14v2h-14v-2z" fill="rgb(193,161,110)"/>
<path d="M106 84h1v3h-15v-1h14v-2z" fill="rgb(207,178,132)"/>
<path d="M108 84h14v2h-14v-2z" fill="rgb(193,161,110)"/>
<path d="M122 84h1v3h-15v-1h14v-2z" fill="rgb(207,178,132)"/>
<path d="M124 84h14v2h-14v-2z" fill="rgb(193,161,110)"/>
<path d="M138 84h1v3h-15v-1h14v-2z" fill="rgb(207,178,132)"/>
<path d="M140 84h4v2h-4v-2z" fill="rgb(193,161,110)"/>
<path d="M16 86h8v1h-8v-1z" fill="rgb(176,151,112)"/>
<path d="M140 86h4v1h-4v-1z" fill="rgb(207,178,132)"/>
<path d="M192 86h1v2h-1v-2z" fill="rgb(102,111,118)"/>
<path d="M200 86h1v2h-1v-2z" fill="rgb(120,130,139)"/>
<path d="M208 86h1v2h-1v-2z" fill="rgb(120,130,139)"/>
<path d="M216 86h1v2h-1v-2z" fill="rgb(120,130,139)"/>
<path d="M224 86h1v2h-1v-2z" fill="rgb(120,130,139)"/>
<path d="M232 86h1v2h-1v-2z" fill="rgb(120,130,139)"/>
<path d="M16 87h8v1h-8v-1z" fill="rgb(141,116,74)"/>
<path d="M144 87h48v1h-48v-1z" fill="rgb(161,165,161)"/>
<path d="M193 87h7v1h-7v-1z" fill="rgb(197,198,200)"/>
<path d="M201 87h7v1h-7v-1z" fill="rgb(231,233,235)"/>
<path d="M209 87h7v1h-7v-1z" fill="rgb(231,233,235)"/>
<path d="M217 87h7v1h-7v-1z" fill="rgb(231,233,235)"/>
<path d="M225 87h7v1h-7v-1z" fill="rgb(231,233,235)"/>
<path d="M233 87h7v1h-7v-1z" fill="rgb(231,233,235)"/>
<path d="M16 88h7v2h-7v-2z" fill="rgb(164,137,94)"/>
<path d="M23 88h1v3h-8v-1h7v-2z" fill="rgb(176,151,112)"/>
<path d="M25 88h14v2h-13v1h-1v-3z" fill="rgb(193,161,110)"/>
<path d="M39 88h1v3h-14v-1h13v-2z" fill="rgb(207,178,132)"/>
<path d="M41 88h14v2h-13v1h-1v-3z" fill="rgb(193,161,110)"/>
<path d="M55 88h1v3h-14v-1h13v-2z" fill="rgb(207,178,132)"/>
<path d="M57 88h14v2h-13v1h-1v-3z" fill="rgb(193,161,110)"/>
<path d="M71 88h1v3h-14v-1h13v-2z" fill="rgb(207,178,132)"/>
<path d="M73 88h14v2h-13v1h-1v-3z" fill="rgb(193,161,110)"/>
<path d="M87 88h1v3h-14v-1h13v-2z" fill="rgb(207,178,132)"/>
<path d="M89 88h14v2h-13v1h-1v-3z" fill="rgb(193,161,110)"/>
<path d="M103 88h1v3h-14v-1h13v-2z" fill="rgb(207,178,132)"/>
<path d="M105 88h14v2h-13v1h-1v-3z" fill="rgb(193,161,110)"/>
<path d="M119 88h1v3h-14v-1h13v-2z" fill="rgb(207,178,132)"/>
<path d="M121 88h14v2h-13v1h-1v-3z" fill="rgb(193,161,110)"/>
<path d="M135 88h1v3h-14v-1h13v-2z" fill="rgb(207,178,132)"/>
<path d="M137 88h7v2h-6v1h-1v-3z" fill="rgb(193,161,110)"/>
<path d="M144 88h7v2h-7v-2z" fill="rgb(164,137,94)"/>
<path d="M151 88h1v3h-8v-1h7v-2z" fill="rgb(176,151,112)"/>
<path d="M152 88h1v3h15v-3h1v3h15v-3h1v3h15v1h-8v3h8v1h-56v-1h15v-3h-15v-1h8v-3z" fill="rgb(141,116,74)"/>
<path d="M153 88h14v2h-13v1h-1v-3z" fill="rgb(164,137,94)"/>
<path d="M167 88h1v3h-14v-1h13v-2z" fill="rgb(176,151,112)"/>
<path d="M169 88h14v2h-13v1h-1v-3z" fill="rgb(164,137,94)"/>
<path d="M183 88h1v3h-14v-1h13v-2z" fill="rgb(176,151,112)"/>
<path d="M185 88h14v2h-13v1h-1v-3z" fill="rgb(164,137,94)"/>
<path d="M199 88h1v3h-14v-1h13v-2z" fill="rgb(176,151,112)"/>
<path d="M201 88h14v2h-13v1h-1v-3z" fill="rgb(193,161,110)"/>
<path d="M215 88h1v3h-14v-1h13v-2z" fill="rgb(207,178,132)"/>
<path d="M217 88h14v2h-13v1h-1v-3z" fill="rgb(193,161,110)"/>
<path d="M231 88h1v3h-14v-1h13v-2z" fill="rgb(207,178,132)"/>
<path d="M233 88h7v2h-6v1h-1v-3z" fill="rgb(193,161,110)"/>
<path d="M138 90h6v1h-6v-1z" fill="rgb(207,178,132)"/>
<path d="M234 90h6v1h-6v-1z" fill="rgb(207,178,132)"/>
<path d="M16 91h8v1h-8v-1z" fill="rgb(141,116,74)"/>
<path d="M16 92h8v2h-8v-2z" fill="rgb(164,137,94)"/>
<path d="M24 92h6v2h-6v-2z" fill="rgb(193,161,110)"/>
<path d="M30 92h1v3h-7v-1h6v-2z" fill="rgb(207,178,132)"/>
<path d="M32 92h14v2h-14v-2z" fill="rgb(193,161,110)"/>
<path d="M46 92h1v3h-15v-1h14v-2z" fill="rgb(207,178,132)"/>
<path d="M48 92h14v2h-14v-2z" fill="rgb(193,161,110)"/>
<path d="M62 92h1v3h-15v-1h14v-2z" fill="rgb(207,178,132)"/>
<path d="M64 92h14v2h-14v-2z" fill="rgb(193,161,110)"/>
<path d="M78 92h1v3h-15v-1h14v-2z" fill="rgb(207,178,132)"/>
<path d="M80 92h14v2h-14v-2z" fill="rgb(193,161,110)"/>
<path d="M94 92h1v3h-15v-1h14v-2z" fill="rgb(207,178,132)"/>
<path d="M96 92h14v2h-14v-2z" fill="rgb(193,161,110)"/>
<path d="M110 92h1v3h-15v-1h14v-2z" fill="rgb(207,178,132)"/>
<path d="M112 92h14v2h-14v-2z" fill="rgb(193,161,110)"/>
<path d="M126 92h1v3h-15v-1h14v-2z" fill="rgb(207,178,132)"/>
<path d="M128 92h14v2h-14v-2z" fill="rgb(193,161,110)"/>
<path d="M142 92h1v3h-15v-1h14v-2z" fill="rgb(207,178,132)"/>
<path d="M144 92h14v2h-14v-2z" fill="rgb(164,137,94)"/>
<path d="M158 92h1v3h-15v-1h14v-2z" fill="rgb(176,151,112)"/>
<path d="M160 92h14v2h-14v-2z" fill="rgb(164,137,94)"/>
<path d="M174 92h1v3h-15v-1h14v-2z" fill="rgb(176,151,112)"/>
<path d="M176 92h14v2h-14v-2z" fill="rgb(164,137,94)"/>
<path d="M190 92h1v3h-15v-1h14v-2z" fill="rgb(176,151,112)"/>
<path d="M192 92h8v2h-8v-2z" fill="rgb(164,137,94)"/>
<path d="M200 92h6v2h-6v-2z" fill="rgb(193,161,110)"/>
<path d="M206 92h1v3h-7v-1h6v-2z" fill="rgb(207,178,132)"/>
<path d="M208 92h14v2h-14v-2z" fill="rgb(193,161,110)"/>
<path d="M222 92h1v3h-15v-1h14v-2z" fill="rgb(207,178,132)"/>
<path d="M224 92h14v2h-14v-2z" fill="rgb(193,161,110)"/>
<path d="M238 92h1v3h-15v-1h14v-2z" fill="rgb(207,178,132)"/>
<path d="M16 94h8v1h-8v-1z" fill="rgb(176,151,112)"/>
<path d="M192 94h8v1h-8v-1z" fill="rgb(176,151,112)"/>
<path d="M16 95h8v1h-2v3h2v1h-8v-1h5v-3h-5v-1z" fill="rgb(141,116,74)"/>
<path d="M16 96h4v2h-4v-2z" fill="rgb(164,137,94)"/>
<path d="M20 96h1v3h-5v-1h4v-2z" fill="rgb(176,151,112)"/>
<path d="M22 96h2v2h-2v-2z" fill="rgb(164,137,94)"/>
<path d="M24 96h12v2h-12v-2z" fill="rgb(193,161,110)"/>
<path d="M36 96h1v3h-13v-1h12v-2z" fill="rgb(207,178,132)"/>
<path d="M38 96h14v2h-14v-2z" fill="rgb(193,161,110)"/>
<path d="M52 96h1v3h-15v-1h14v-2z" fill="rgb(207,178,132)"/>
<path d="M54 96h14v2h-14v-2z" fill="rgb(193,161,110)"/>
<path d="M68 96h1v3h-15v-1h14v-2z" fill="rgb(207,178,132)"/>
<path d="M70 96h14v2h-14v-2z" fill="rgb(193,161,110)"/>
<path d="M84 96h1v3h-15v-1h14v-2z" fill="rgb(207,178,132)"/>
<path d="M86 96h14v2h-14v-2z" fill="rgb(193,161,110)"/>
<path d="M100 96h1v3h-15v-1h14v-2z" fill="rgb(207,178,132)"/>
<path d="M102 96h14v2h-14v-2z" fill="rgb(193,161,110)"/>
<path d="M116 96h1v3h-15v-1h14v-2z" fill="rgb(207,178,132)"/>
<path d="M118 96h14v2h-14v-2z" fill="rgb(193,161,110)"/>
<path d="M132 96h1v3h-15v-1h14v-2z" fill="rgb(207,178,132)"/>
<path d="M134 96h14v2h-14v-2z" fill="rgb(193,161,110)"/>
<path d="M148 96h1v3h-15v-1h14v-2z" fill="rgb(207,178,132)"/>
<path d="M150 96h14v2h-14v-2z" fill="rgb(193,161,110)"/>
<path d="M164 96h1v3h-15v-1h14v-2z" fill="rgb(207,178,132)"/>
<path d="M166 96h14v2h-14v-2z" fill="rgb(193,161,110)"/>
<path d="M180 96h1v3h-15v-1h14v-2z" fill="rgb(207,178,132)"/>
<path d="M182 96h14v2h-14v-2z" fill="rgb(193,161,110)"/>
<path d="M196 96h1v3h-15v-1h14v-2z" fill="rgb(207,178,132)"/>
<path d="M198 96h14v2h-14v-2z" fill="rgb(193,161,110)"/>
<path d="M212 96h1v3h-15v-1h14v-2z" fill="rgb(207,178,132)"/>
<path d="M214 96h14v2h-14v-2z" fill="rgb(193,161,110)"/>
<path d="M228 96h1v3h-15v-1h14v-2z" fill="rgb(207,178,132)"/>
<path d="M230 96h10v2h-10v-2z" fill="rgb(193,161,110)"/>
<path d="M240 96h1v1h-1v-1z" fill="rgb(146,151,146)"/>
<path d="M240 97h1v7h96v104h-1v-103h-96v-8z" fill="rgb(148,148,146)"/>
<path d="M22 98h2v1h-2v-1z" fill="rgb(176,151,112)"/>
<path d="M230 98h10v1h-10v-1z" fill="rgb(207,178,132)"/>
<path d="M16 100h8v2h-8v-2z" fill="rgb(164,137,94)"/>
<path d="M24 100h2v2h-2v-2z" fill="rgb(193,161,110)"/>
<path d="M26 100h1v3h-3v-1h2v-2z" fill="rgb(207,178,132)"/>
<path d="M28 100h14v2h-14v-2z" fill="rgb(193,161,110)"/>
<path d="M42 100h1v3h-15v-1h14v-2z" fill="rgb(207,178,132)"/>
<path d="M44 100h14v2h-14v-2z" fill="rgb(193,161,110)"/>
<path d="M58 100h1v3h-15v-1h14v-2z" fill="rgb(207,178,132)"/>
<path d="M60 100h14v2h-14v-2z" fill="rgb(193,161,110)"/>
<path d="M74 100h1v3h-15v-1h14v-2z" fill="rgb(207,178,132)"/>
<path d="M76 100h14v2h-14v-2z" fill="rgb(193,161,110)"/>
<path d="M90 100h1v3h-15v-1h14v-2z" fill="rgb(207,178,132)"/>
<path d="M92 100h14v2h-14v-2z" fill="rgb(193,161,110)"/>
<path d="M106 100h1v3h-15v-1h14v-2z" fill="rgb(207,178,132)"/>
<path d="M108 100h14v2h-14v-2z" fill="rgb(193,161,110)"/>
<path d="M122 100h1v3h-15v-1h14v-2z" fill="rgb(207,178,132)"/>
<path d="M124 100h14v2h-14v-2z" fill="rgb(193,161,110)"/>
<path d="M138 100h1v3h-15v-1h14v-2z" fill="rgb(207,178,132)"/>
<path d="M140 100h14v2h-14v-2z" fill="rgb(193,161,110)"/>
<path d="M154 100h1v3h-15v-1h14v-2z" fill="rgb(207,178,132)"/>
<path d="M156 100h14v2h-14v-2z" fill="rgb(193,161,110)"/>
<path d="M170 100h1v3h-15v-1h14v-2z" fill="rgb(207,178,132)"/>
<path d="M172 100h14v2h-14v-2z" fill="rgb(193,161,110)"/>
<path d="M186 100h1v3h-15v-1h14v-2z" fill="rgb(207,178,132)"/>
<path d="M188 100h14v2h-14v-2z" fill="rgb(193,161,110)"/>
<path d="M202 100h1v3h-15v-1h14v-2z" fill="rgb(207,178,132)"/>
<path d="M204 100h14v2h-14v-2z" fill="rgb(193,161,110)"/>
<path d="M218 100h1v3h-15v-1h14v-2z" fill="rgb(207,178,132)"/>
<path d="M220 100h14v2h-14v-2z" fill="rgb(193,161,110)"/>
<path d="M234 100h1v3h-15v-1h14v-2z" fill="rgb(207,178,132)"/>
<path d="M236 100h4v2h-4v-2z" fill="rgb(193,161,110)"/>
<path d="M241 100h96v4h-1v-3h-95v-1z" fill="rgb(181,181,181)"/>
<path d="M241 101h95v3h-95v-3z" fill="rgb(238,238,238)"/>
<path d="M16 102h8v1h-8v-1z" fill="rgb(176,151,112)"/>
<path d="M236 102h4v1h-4v-1z" fill="rgb(207,178,132)"/>
<path d="M16 103h8v1h-8v-1z" fill="rgb(141,116,74)"/>
<path d="M16 104h7v2h-7v-2z" fill="rgb(164,137,94)"/>
<path d="M23 104h1v3h-8v-1h7v-2z" fill="rgb(176,151,112)"/>
<path d="M25 104h14v2h-13v1h-1v-3z" fill="rgb(193,161,110)"/>
<path d="M39 104h1v3h-14v-1h13v-2z" fill="rgb(207,178,132)"/>
<path d="M41 104h14v2h-13v1h-1v-3z" fill="rgb(193,161,110)"/>
<path d="M55 104h1v3h-14v-1h13v-2z" fill="rgb(207,178,132)"/>
<path d="M57 104h14v2h-13v1h-1v-3z" fill="rgb(193,161,110)"/>
<path d="M71 104h1v3h-14v-1h13v-2z" fill="rgb(207,178,132)"/>
<path d="M73 104h14v2h-13v1h-1v-3z" fill="rgb(193,161,110)"/>
<path d="M87 104h1v3h-14v-1h13v-2z" fill="rgb(207,178,132)"/>
<path d="M89 104h14v2h-13v1h-1v-3z" fill="rgb(193,161,110)"/>
<path d="M103 104h1v3h-14v-1h13v-2z" fill="rgb(207,178,132)"/>
<path d="M105 104h14v2h-13v1h-1v-3z" fill="rgb(193,161,110)"/>
<path d="M119 104h1v3h-14v-1h13v-2z" fill="rgb(207,178,132)"/>
<path d="M121 104h14v2h-13v1h-1v-3z" fill="rgb(193,161,110)"/>
<path d="M135 104h1v3h-14v-1h13v-2z" fill="rgb(207,178,132)"/>
<path d="M137 104h14v2h-13v1h-1v-3z" fill="rgb(193,161,110)"/>
<path d="M151 104h1v3h-14v-1h13v-2z" fill="rgb(207,178,132)"/>
<path d="M153 104h14v2h-13v1h-1v-3z" fill="rgb(193,161,110)"/>
<path d="M167 104h1v3h-14v-1h13v-2z" fill="rgb(207,178,132)"/>
<path d="M169 104h14v2h-13v1h-1v-3z" fill="rgb(193,161,110)"/>
<path d="M183 104h1v3h-14v-1h13v-2z" fill="rgb(207,178,132)"/>
<path d="M185 104h14v2h-13v1h-1v-3z" fill="rgb(193,161,110)"/>
<path d="M199 104h1v3h-14v-1h13v-2z" fill="rgb(207,178,132)"/>
<path d="M201 104h14v2h-13v1h-1v-3z" fill="rgb(193,161,110)"/>
<path d="M215 104h1v3h-14v-1h13v-2z" fill="rgb(207,178,132)"/>
<path d="M217 104h14v2h-13v1h-1v-3z" fill="rgb(193,161,110)"/>
<path d="M231 104h1v3h-14v-1h13v-2z" fill="rgb(207,178,132)"/>
<path d="M233 104h7v2h-6v1h-1v-3z" fill="rgb(193,161,110)"/>
<path d="M240 105h1v1h-1v-1z" fill="rgb(170,170,170)"/>
<path d="M241 105h95v1h-95v-1z" fill="rgb(227,227,227)"/>
<path d="M234 106h6v1h-6v-1z" fill="rgb(207,178,132)"/>
<path d="M240 106h1v1h-1v-1z" fill="rgb(178,178,178)"/>
<path d="M241 106h95v1h-95v-1z" fill="rgb(238,238,238)"/>
<path d="M16 107h8v1h-8v-1z" fill="rgb(141,116,74)"/>
<path d="M240 107h1v9h-1v-9z" fill="rgb(183,183,183)"/>
<path d="M241 107h95v9h-95v-9z" fill="rgb(244,244,244)"/>
<path d="M16 108h8v2h-8v-2z" fill="rgb(164,137,94)"/>
<path d="M24 108h6v2h-6v-2z" fill="rgb(193,161,110)"/>
<path d="M30 108h1v3h-7v-1h6v-2z" fill="rgb(207,178,132)"/>
<path d="M32 108h14v2h-14v-2z" fill="rgb(193,161,110)"/>
<path d="M46 108h1v3h-15v-1h14v-2z" fill="rgb(207,178,132)"/>
<path d="M48 108h14v2h-14v-2z" fill="rgb(193,161,110)"/>
<path d="M62 108h1v3h-15v-1h14v-2z" fill="rgb(207,178,132)"/>
<path d="M64 108h14v2h-14v-2z" fill="rgb(193,161,110)"/>
<path d="M78 108h1v3h-15v-1h14v-2z" fill="rgb(207,178,132)"/>
<path d="M80 108h14v2h-14v-2z" fill="rgb(193,161,110)"/>
<path d="M94 108h1v3h-15v-1h14v-2z" fill="rgb(207,178,132)"/>
<path d="M96 108h14v2h-14v-2z" fill="rgb(193,161,110)"/>
<path d="M110 108h1v3h-15v-1h14v-2z" fill="rgb(207,178,132)"/>
<path d="M112 108h14v2h-14v-2z" fill="rgb(193,161,110)"/>
<path d="M126 108h1v3h-15v-1h14v-2z" fill="rgb(207,178,132)"/>
<path d="M128 108h14v2h-14v-2z" fill="rgb(193,161,110)"/>
<path d="M142 108h1v3h-15v-1h14v-2z" fill="rgb(207,178,132)"/>
<path d="M144 108h14v2h-14v-2z" fill="rgb(193,161,110)"/>
<path d="M158 108h1v3h-15v-1h14v-2z" fill="rgb(207,178,132)"/>
<path d="M160 108h14v2h-14v-2z" fill="rgb(193,161,110)"/>
<path d="M174 108h1v3h-15v-1h14v-2z" fill="rgb(207,178,132)"/>
<path d="M176 108h14v2h-14v-2z" fill="rgb(193,161,110)"/>
<path d="M190 108h1v3h-15v-1h14v-2z" fill="rgb(207,178,132)"/>
<path d="M192 108h14v2h-14v-2z" fill="rgb(193,161,110)"/>
<path d="M206 108h1v3h-15v-1h14v-2z" fill="rgb(207,178,132)"/>
<path d="M208 108h14v2h-14v-2z" fill="rgb(193,161,110)"/>
<path d="M222 108h1v3h-15v-1h14v-2z" fill="rgb(207,178,132)"/>
<path d="M224 108h14v2h-14v-2z" fill="rgb(193,161,110)"/>
<path d="M238 108h1v3h-15v-1h14v-2z" fill="rgb(207,178,132)"/>
<path d="M16 110h8v1h-8v-1z" fill="rgb(176,151,112)"/>
<path d="M16 111h8v1h-8v-1z" fill="rgb(141,116,74)"/>
<path d="M48 112h4v2h-4v-2z" fill="rgb(193,161,110)"/>
<path d="M52 112h1v3h-5v-1h4v-2z" fill="rgb(207,178,132)"/>
<path d="M54 112h14v2h-14v-2z" fill="rgb(193,161,110)"/>
<path d="M68 112h1v3h-15v-1h14v-2z" fill="rgb(207,178,132)"/>
<path d="M70 112h14v2h-14v-2z" fill="rgb(193,161,110)"/>
<path d="M84 112h1v3h-15v-1h14v-2z" fill="rgb(207,178,132)"/>
<path d="M86 112h14v2h-14v-2z" fill="rgb(193,161,110)"/>
<path d="M100 112h1v3h-15v-1h14v-2z" fill="rgb(207,178,132)"/>
<path d="M102 112h14v2h-14v-2z" fill="rgb(193,161,110)"/>
<path d="M116 112h1v3h-15v-1h14v-2z" fill="rgb(207,178,132)"/>
<path d="M118 112h14v2h-14v-2z" fill="rgb(193,161,110)"/>
<path d="M132 112h1v3h-15v-1h14v-2z" fill="rgb(207,178,132)"/>
<path d="M134 112h14v2h-14v-2z" fill="rgb(193,161,110)"/>
<path d="M148 112h1v3h-15v-1h14v-2z" fill="rgb(207,178,132)"/>
<path d="M150 112h14v2h-14v-2z" fill="rgb(193,161,110)"/>
<path d="M164 112h1v3h-15v-1h14v-2z" fill="rgb(207,178,132)"/>
<path d="M166 112h14v2h-14v-2z" fill="rgb(193,161,110)"/>
<path d="M180 112h1v3h-15v-1h14v-2z" fill="rgb(207,178,132)"/>
<path d="M182 112h14v2h-14v-2z" fill="rgb(193,161,110)"/>
<path d="M196 112h1v3h-15v-1h14v-2z" fill="rgb(207,178,132)"/>
<path d="M198 112h14v2h-14v-2z" fill="rgb(193,161,110)"/>
<path d="M212 112h1v3h-15v-1h14v-2z" fill="rgb(207,178,132)"/>
<path d="M214 112h14v2h-14v-2z" fill="rgb(193,161,110)"/>
<path d="M228 112h1v3h-15v-1h14v-2z" fill="rgb(207,178,132)"/>
<path d="M230 112h10v2h-10v-2z" fill="rgb(193,161,110)"/>
<path d="M230 114h10v1h-10v-1z" fill="rgb(207,178,132)"/>
<path d="M48 116h10v2h-10v-2z" fill="rgb(193,161,110)"/>
<path d="M58 116h1v3h-11v-1h10v-2z" fill="rgb(207,178,132)"/>
<path d="M60 116h14v2h-14v-2z" fill="rgb(193,161,110)"/>
<path d="M74 116h1v3h-15v-1h14v-2z" fill="rgb(207,178,132)"/>
<path d="M76 116h14v2h-14v-2z" fill="rgb(193,161,110)"/>
<path d="M90 116h1v3h-15v-1h14v-2z" fill="rgb(207,178,132)"/>
<path d="M92 116h14v2h-14v-2z" fill="rgb(193,161,110)"/>
<path d="M106 116h1v3h-15v-1h14v-2z" fill="rgb(207,178,132)"/>
<path d="M108 116h14v2h-14v-2z" fill="rgb(193,161,110)"/>
<path d="M122 116h1v3h-15v-1h14v-2z" fill="rgb(207,178,132)"/>
<path d="M124 116h14v2h-14v-2z" fill="rgb(193,161,110)"/>
<path d="M138 116h1v3h-15v-1h14v-2z" fill="rgb(207,178,132)"/>
<path d="M140 116h14v2h-14v-2z" fill="rgb(193,161,110)"/>
<path d="M154 116h1v3h-15v-1h14v-2z" fill="rgb(207,178,132)"/>
<path d="M156 116h14v2h-14v-2z" fill="rgb(193,161,110)"/>
<path d="M170 116h1v3h-15v-1h14v-2z" fill="rgb(207,178,132)"/>
<path d="M172 116h14v2h-14v-2z" fill="rgb(193,161,110)"/>
<path d="M186 116h1v3h-15v-1h14v-2z" fill="rgb(207,178,132)"/>
<path d="M188 116h14v2h-14v-2z" fill="rgb(193,161,110)"/>
<path d="M202 116h1v3h-15v-1h14v-2z" fill="rgb(207,178,132)"/>
<path d="M204 116h14v2h-14v-2z" fill="rgb(193,161,110)"/>
<path d="M218 116h1v3h-15v-1h14v-2z" fill="rgb(207,178,132)"/>
<path d="M220 116h14v2h-14v-2z" fill="rgb(193,161,110)"/>
<path d="M234 116h1v3h-15v-1h14v-2z" fill="rgb(207,178,132)"/>
<path d="M236 116h4v2h-4v-2z" fill="rgb(193,161,110)"/>
<path d="M240 116h1v12h-1v-12z" fill="rgb(178,178,178)"/>
<path d="M241 116h95v12h-95v-12z" fill="rgb(238,238,238)"/>
<path d="M236 118h4v1h-4v-1z" fill="rgb(207,178,132)"/>
<path d="M48 120h7v2h-7v-2z" fill="rgb(193,161,110)"/>
<path d="M55 120h1v3h-8v-1h7v-2z" fill="rgb(207,178,132)"/>
<path d="M57 120h14v2h-13v1h-1v-3z" fill="rgb(193,161,110)"/>
<path d="M71 120h1v3h-14v-1h13v-2z" fill="rgb(207,178,132)"/>
<path d="M73 120h14v2h-13v1h-1v-3z" fill="rgb(193,161,110)"/>
<path d="M87 120h1v3h-14v-1h13v-2z" fill="rgb(207,178,132)"/>
<path d="M89 120h14v2h-13v1h-1v-3z" fill="rgb(193,161,110)"/>
<path d="M103 120h1v3h-14v-1h13v-2z" fill="rgb(207,178,132)"/>
<path d="M105 120h14v2h-13v1h-1v-3z" fill="rgb(193,161,110)"/>
<path d="M119 120h1v3h-14v-1h13v-2z" fill="rgb(207,178,132)"/>
<path d="M121 120h14v2h-13v1h-1v-3z" fill="rgb(193,161,110)"/>
<path d="M135 120h1v3h-14v-1h13v-2z" fill="rgb(207,178,132)"/>
<path d="M137 120h14v2h-13v1h-1v-3z" fill="rgb(193,161,110)"/>
<path d="M151 120h1v3h-14v-1h13v-2z" fill="rgb(207,178,132)"/>
<path d="M153 120h14v2h-13v1h-1v-3z" fill="rgb(193,161,110)"/>
<path d="M167 120h1v3h-14v-1h13v-2z" fill="rgb(207,178,132)"/>
<path d="M169 120h14v2h-13v1h-1v-3z" fill="rgb(193,161,110)"/>
<path d="M183 120h1v3h-14v-1h13v-2z" fill="rgb(207,178,132)"/>
<path d="M185 120h14v2h-13v1h-1v-3z" fill="rgb(193,161,110)"/>
<path d="M199 120h1v3h-14v-1h13v-2z" fill="rgb(207,178,132)"/>
<path d="M201 120h14v2h-13v1h-1v-3z" fill="rgb(193,161,110)"/>
<path d="M215 120h1v3h-14v-1h13v-2z" fill="rgb(207,178,132)"/>
<path d="M217 120h14v2h-13v1h-1v-3z" fill="rgb(193,161,110)"/>
<path d="M231 120h1v3h-14v-1h13v-2z" fill="rgb(207,178,132)"/>
<path d="M233 120h7v2h-6v1h-1v-3z" fill="rgb(193,161,110)"/>
<path d="M234 122h6v1h-6v-1z" fill="rgb(207,178,132)"/>
<path d="M48 124h14v2h-14v-2z" fill="rgb(193,161,110)"/>
<path d="M62 124h1v3h-15v-1h14v-2z" fill="rgb(207,178,132)"/>
<path d="M64 124h14v2h-14v-2z" fill="rgb(193,161,110)"/>
<path d="M78 124h1v3h-15v-1h14v-2z" fill="rgb(207,178,132)"/>
<path d="M80 124h14v2h-14v-2z" fill="rgb(193,161,110)"/>
<path d="M94 124h1v3h-15v-1h14v-2z" fill="rgb(207,178,132)"/>
<path d="M96 124h14v2h-14v-2z" fill="rgb(193,161,110)"/>
<path d="M110 124h1v3h-15v-1h14v-2z" fill="rgb(207,178,132)"/>
<path d="M112 124h14v2h-14v-2z" fill="rgb(193,161,110)"/>
<path d="M126 124h1v3h-15v-1h14v-2z" fill="rgb(207,178,132)"/>
<path d="M128 124h14v2h-14v-2z" fill="rgb(193,161,110)"/>
<path d="M142 124h1v3h-15v-1h14v-2z" fill="rgb(207,178,132)"/>
<path d="M144 124h14v2h-14v-2z" fill="rgb(193,161,110)"/>
<path d="M158 124h1v3h-15v-1h14v-2z" fill="rgb(207,178,132)"/>
<path d="M160 124h14v2h-14v-2z" fill="rgb(193,161,110)"/>
<path d="M174 124h1v3h-15v-1h14v-2z" fill="rgb(207,178,132)"/>
<path d="M176 124h14v2h-14v-2z" fill="rgb(193,161,110)"/>
<path d="M190 124h1v3h-15v-1h14v-2z" fill="rgb(207,178,132)"/>
<path d="M192 124h14v2h-14v-2z" fill="rgb(193,161,110)"/>
<path d="M206 124h1v3h-15v-1h14v-2z" fill="rgb(207,178,132)"/>
<path d="M208 124h14v2h-14v-2z" fill="rgb(193,161,110)"/>
<path d="M222 124h1v3h-15v-1h14v-2z" fill="rgb(207,178,132)"/>
<path d="M224 124h14v2h-14v-2z" fill="rgb(193,161,110)"/>
<path d="M238 124h1v3h-15v-1h14v-2z" fill="rgb(207,178,132)"/>
<path d="M192 128h4v2h-4v-2z" fill="rgb(193,161,110)"/>
<path d="M196 128h1v3h-5v-1h4v-2z" fill="rgb(207,178,132)"/>
<path d="M198 128h14v2h-14v-2z" fill="rgb(193,161,110)"/>
<path d="M212 128h1v3h-15v-1h14v-2z" fill="rgb(207,178,132)"/>
<path d="M214 128h14v2h-14v-2z" fill="rgb(193,161,110)"/>
<path d="M228 128h1v3h-15v-1h14v-2z" fill="rgb(207,178,132)"/>
<path d="M230 128h10v2h-10v-2z" fill="rgb(193,161,110)"/>
<path d="M240 128h1v7h-1v-7z" fill="rgb(170,170,170)"/>
<path d="M241 128h95v7h-95v-7z" fill="rgb(227,227,227)"/>
<path d="M230 130h10v1h-10v-1z" fill="rgb(207,178,132)"/>
<path d="M192 132h10v2h-10v-2z" fill="rgb(193,161,110)"/>
<path d="M202 132h1v3h-11v-1h10v-2z" fill="rgb(207,178,132)"/>
<path d="M204 132h14v2h-14v-2z" fill="rgb(193,161,110)"/>
<path d="M218 132h1v3h-15v-1h14v-2z" fill="rgb(207,178,132)"/>
<path d="M220 132h14v2h-14v-2z" fill="rgb(193,161,110)"/>
<path d="M234 132h1v3h-15v-1h14v-2z" fill="rgb(207,178,132)"/>
<path d="M236 132h4v2h-4v-2z" fill="rgb(193,161,110)"/>
<path d="M236 134h4v1h-4v-1z" fill="rgb(207,178,132)"/>
<path d="M240 135h96v1h-96v-1z" fill="rgb(161,165,161)"/>
<path d="M192 136h7v2h-7v-2z" fill="rgb(193,161,110)"/>
<path d="M199 136h1v3h-8v-1h7v-2z" fill="rgb(207,178,132)"/>
<path d="M201 136h14v2h-13v1h-1v-3z" fill="rgb(193,161,110)"/>
<path d="M215 136h1v3h-14v-1h13v-2z" fill="rgb(207,178,132)"/>
<path d="M217 136h14v2h-13v1h-1v-3z" fill="rgb(193,161,110)"/>
<path d="M231 136h1v3h-14v-1h13v-2z" fill="rgb(207,178,132)"/>
<path d="M233 136h7v2h-6v1h-1v-3z" fill="rgb(193,161,110)"/>
<path d="M240 136h7v2h-7v-2z" fill="rgb(164,137,94)"/>
<path d="M247 136h1v3h-8v-1h7v-2z" fill="rgb(176,151,112)"/>
<path d="M248 136h1v3h15v-3h1v3h15v-3h1v3h15v-3h1v3h15v-3h1v3h15v-3h1v3h7v5h-96v-1h15v-3
	h-15v-1h8v-3z" fill="rgb(141,116,74)"/>
<path d="M249 136h14v2h-13v1h-1v-3z" fill="rgb(164,137,94)"/>
<path d="M263 136h1v3h-14v-1h13v-2z" fill="rgb(176,151,112)"/>
<path d="M265 136h14v2h-13v1h-1v-3z" fill="rgb(164,137,94)"/>
<path d="M279 136h1v3h-14v-1h13v-2z" fill="rgb(176,151,112)"/>
<path d="M281 136h14v2h-13v1h-1v-3z" fill="rgb(164,137,94)"/>
<path d="M295 136h1v3h-14v-1h13v-2z" fill="rgb(176,151,112)"/>
<path d="M297 136h14v2h-13v1h-1v-3z" fill="rgb(164,137,94)"/>
<path d="M311 136h1v3h-14v-1h13v-2z" fill="rgb(176,151,112)"/>
<path d="M313 136h14v2h-13v1h-1v-3z" fill="rgb(164,137,94)"/>
<path d="M327 136h1v3h-14v-1h13v-2z" fill="rgb(176,151,112)"/>
<path d="M329 136h7v2h-6v1h-1v-3z" fill="rgb(164,137,94)"/>
<path d="M234 138h6v1h-6v-1z" fill="rgb(207,178,132)"/>
<path d="M330 138h6v1h-6v-1z" fill="rgb(176,151,112)"/>
<path d="M192 140h14v2h-14v-2z" fill="rgb(193,161,110)"/>
<path d="M206 140h1v3h-15v-1h14v-2z" fill="rgb(207,178,132)"/>
<path d="M208 140h14v2h-14v-2z" fill="rgb(193,161,110)"/>
<path d="M222 140h1v3h-15v-1h14v-2z" fill="rgb(207,178,132)"/>
<path d="M224 140h14v2h-14v-2z" fill="rgb(193,161,110)"/>
<path d="M238 140h1v3h-15v-1h14v-2z" fill="rgb(207,178,132)"/>
<path d="M240 140h14v2h-14v-2z" fill="rgb(164,137,94)"/>
<path d="M254 140h1v3h-15v-1h14v-2z" fill="rgb(176,151,112)"/>
<path d="M256 140h14v2h-14v-2z" fill="rgb(164,137,94)"/>
<path d="M270 140h1v3h-15v-1h14v-2z" fill="rgb(176,151,112)"/>
<path d="M272 140h14v2h-14v-2z" fill="rgb(164,137,94)"/>
<path d="M286 140h1v3h-15v-1h14v-2z" fill="rgb(176,151,112)"/>
<path d="M288 140h14v2h-14v-2z" fill="rgb(164,137,94)"/>
<path d="M302 140h1v3h-15v-1h14v-2z" fill="rgb(176,151,112)"/>
<path d="M304 140h14v2h-14v-2z" fill="rgb(164,137,94)"/>
<path d="M318 140h1v3h-15v-1h14v-2z" fill="rgb(176,151,112)"/>
<path d="M320 140h14v2h-14v-2z" fill="rgb(164,137,94)"/>
<path d="M334 140h1v3h-15v-1h14v-2z" fill="rgb(176,151,112)"/>
<path d="M192 144h4v2h-4v-2z" fill="rgb(164,137,94)"/>
<path d="M196 144h1v3h-5v-1h4v-2z" fill="rgb(176,151,112)"/>
<path d="M197 144h1v3h2v1h-8v-1h5v-3z" fill="rgb(141,116,74)"/>
<path d="M198 144h2v2h-2v-2z" fill="rgb(164,137,94)"/>
<path d="M200 144h12v2h-12v-2z" fill="rgb(193,161,110)"/>
<path d="M212 144h1v3h-13v-1h12v-2z" fill="rgb(207,178,132)"/>
<path d="M214 144h14v2h-14v-2z" fill="rgb(193,161,110)"/>
<path d="M228 144h1v3h-15v-1h14v-2z" fill="rgb(207,178,132)"/>
<path d="M230 144h14v2h-14v-2z" fill="rgb(193,161,110)"/>
<path d="M244 144h1v3h-15v-1h14v-2z" fill="rgb(207,178,132)"/>
<path d="M246 144h14v2h-14v-2z" fill="rgb(193,161,110)"/>
<path d="M260 144h1v3h-15v-1h14v-2z" fill="rgb(207,178,132)"/>
<path d="M262 144h14v2h-14v-2z" fill="rgb(193,161,110)"/>
<path d="M276 144h1v3h-15v-1h14v-2z" fill="rgb(207,178,132)"/>
<path d="M278 144h14v2h-14v-2z" fill="rgb(193,161,110)"/>
<path d="M292 144h1v3h-15v-1h14v-2z" fill="rgb(207,178,132)"/>
<path d="M294 144h14v2h-14v-2z" fill="rgb(193,161,110)"/>
<path d="M308 144h1v3h-15v-1h14v-2z" fill="rgb(207,178,132)"/>
<path d="M310 144h14v2h-14v-2z" fill="rgb(193,161,110)"/>
<path d="M324 144h1v3h-15v-1h14v-2z" fill="rgb(207,178,132)"/>
<path d="M326 144h10v2h-10v-2z" fill="rgb(193,161,110)"/>
<path d="M198 146h2v1h-2v-1z" fill="rgb(176,151,112)"/>
<path d="M326 146h10v1h-10v-1z" fill="rgb(207,178,132)"/>
<path d="M192 148h8v2h-8v-2z" fill="rgb(164,137,94)"/>
<path d="M200 148h2v2h-2v-2z" fill="rgb(193,161,110)"/>
<path d="M202 148h1v3h-3v-1h2v-2z" fill="rgb(207,178,132)"/>
<path d="M204 148h14v2h-14v-2z" fill="rgb(193,161,110)"/>
<path d="M218 148h1v3h-15v-1h14v-2z" fill="rgb(207,178,132)"/>
<path d="M220 148h14v2h-14v-2z" fill="rgb(193,161,110)"/>
<path d="M234 148h1v3h-15v-1h14v-2z" fill="rgb(207,178,132)"/>
<path d="M236 148h14v2h-14v-2z" fill="rgb(193,161,110)"/>
<path d="M250 148h1v3h-15v-1h14v-2z" fill="rgb(207,178,132)"/>
<path d="M252 148h14v2h-14v-2z" fill="rgb(193,161,110)"/>
<path d="M266 148h1v3h-15v-1h14v-2z" fill="rgb(207,178,132)"/>
<path d="M268 148h14v2h-14v-2z" fill="rgb(193,161,110)"/>
<path d="M282 148h1v3h-15v-1h14v-2z" fill="rgb(207,178,132)"/>
<path d="M284 148h14v2h-14v-2z" fill="rgb(193,161,110)"/>
<path d="M298 148h1v3h-15v-1h14v-2z" fill="rgb(207,178,132)"/>
<path d="M300 148h14v2h-14v-2z" fill="rgb(193,161,110)"/>
<path d="M314 148h1v3h-15v-1h14v-2z" fill="rgb(207,178,132)"/>
<path d="M316 148h14v2h-14v-2z" fill="rgb(193,161,110)"/>
<path d="M330 148h1v3h-15v-1h14v-2z" fill="rgb(207,178,132)"/>
<path d="M332 148h4v2h-4v-2z" fill="rgb(193,161,110)"/>
<path d="M192 150h8v1h-8v-1z" fill="rgb(176,151,112)"/>
<path d="M332 150h4v1h-4v-1z" fill="rgb(207,178,132)"/>
<path d="M192 151h8v1h-8v-1z" fill="rgb(141,116,74)"/>
<path d="M192 152h7v2h-7v-2z" fill="rgb(164,137,94)"/>
<path d="M199 152h1v3h-8v-1h7v-2z" fill="rgb(176,151,112)"/>
<path d="M201 152h14v2h-13v1h-1v-3z" fill="rgb(193,161,110)"/>
<path d="M215 152h1v3h-14v-1h13v-2z" fill="rgb(207,178,132)"/>
<path d="M217 152h14v2h-13v1h-1v-3z" fill="rgb(193,161,110)"/>
<path d="M231 152h1v3h-14v-1h13v-2z" fill="rgb(207,178,132)"/>
<path d="M233 152h14v2h-13v1h-1v-3z" fill="rgb(193,161,110)"/>
<path d="M247 152h1v3h-14v-1h13v-2z" fill="rgb(207,178,132)"/>
<path d="M249 152h14v2h-13v1h-1v-3z" fill="rgb(193,161,110)"/>
<path d="M263 152h1v3h-14v-1h13v-2z" fill="rgb(207,178,132)"/>
<path d="M265 152h14v2h-13v1h-1v-3z" fill="rgb(193,161,110)"/>
<path d="M279 152h1v3h-14v-1h13v-2z" fill="rgb(207,178,132)"/>
<path d="M281 152h14v2h-13v1h-1v-3z" fill="rgb(193,161,110)"/>
<path d="M295 152h1v3h-14v-1h13v-2z" fill="rgb(207,178,132)"/>
<path d="M297 152h14v2h-13v1h-1v-3z" fill="rgb(193,161,110)"/>
<path d="M311 152h1v3h-14v-1h13v-2z" fill="rgb(207,178,132)"/>
<path d="M313 152h14v2h-13v1h-1v-3z" fill="rgb(193,161,110)"/>
<path d="M327 152h1v3h-14v-1h13v-2z" fill="rgb(207,178,132)"/>
<path d="M329 152h7v2h-6v1h-1v-3z" fill="rgb(193,161,110)"/>
<path d="M330 154h6v1h-6v-1z" fill="rgb(207,178,132)"/>
<path d="M192 155h8v1h-8v-1z" fill="rgb(141,116,74)"/>
<path d="M192 156h8v2h-8v-2z" fill="rgb(164,137,94)"/>
<path d="M200 156h6v2h-6v-2z" fill="rgb(193,161,110)"/>
<path d="M206 156h1v3h-7v-1h6v-2z" fill="rgb(207,178,132)"/>
<path d="M208 156h14v2h-14v-2z" fill="rgb(193,161,110)"/>
<path d="M222 156h1v3h-15v-1h14v-2z" fill="rgb(207,178,132)"/>
<path d="M224 156h14v2h-14v-2z" fill="rgb(193,161,110)"/>
<path d="M238 156h1v3h-15v-1h14v-2z" fill="rgb(207,178,132)"/>
<path d="M240 156h14v2h-14v-2z" fill="rgb(193,161,110)"/>
<path d="M254 156h1v3h-15v-1h14v-2z" fill="rgb(207,178,132)"/>
<path d="M256 156h14v2h-14v-2z" fill="rgb(193,161,110)"/>
<path d="M270 156h1v3h-15v-1h14v-2z" fill="rgb(207,178,132)"/>
<path d="M272 156h14v2h-14v-2z" fill="rgb(193,161,110)"/>
<path d="M286 156h1v3h-15v-1h14v-2z" fill="rgb(207,178,132)"/>
<path d="M288 156h14v2h-14v-2z" fill="rgb(193,161,110)"/>
<path d="M302 156h1v3h-15v-1h14v-2z" fill="rgb(207,178,132)"/>
<path d="M304 156h14v2h-14v-2z" fill="rgb(193,161,110)"/>
<path d="M318 156h1v3h-15v-1h14v-2z" fill="rgb(207,178,132)"/>
<path d="M320 156h14v2h-14v-2z" fill="rgb(193,161,110)"/>
<path d="M334 156h1v3h-15v-1h14v-2z" fill="rgb(207,178,132)"/>
<path d="M192 158h8v1h-8v-1z" fill="rgb(176,151,112)"/>
<path d="M192 159h8v1h-2v3h2v1h-8v-1h5v-3h-5v-1z" fill="rgb(141,116,74)"/>
<path d="M192 160h4v2h-4v-2z" fill="rgb(164,137,94)"/>
<path d="M196 160h1v3h-5v-1h4v-2z" fill="rgb(176,151,112)"/>
<path d="M198 160h2v2h-2v-2z" fill="rgb(164,137,94)"/>
<path d="M200 160h12v2h-12v-2z" fill="rgb(193,161,110)"/>
<path d="M212 160h1v3h-13v-1h12v-2z" fill="rgb(207,178,132)"/>
<path d="M214 160h14v2h-14v-2z" fill="rgb(193,161,110)"/>
<path d="M228 160h1v3h-15v-1h14v-2z" fill="rgb(207,178,132)"/>
<path d="M230 160h10v2h-10v-2z" fill="rgb(193,161,110)"/>
<path d="M256 160h4v2h-4v-2z" fill="rgb(193,161,110)"/>
<path d="M260 160h1v3h-5v-1h4v-2z" fill="rgb(207,178,132)"/>
<path d="M262 160h14v2h-14v-2z" fill="rgb(193,161,110)"/>
<path d="M276 160h1v3h-15v-1h14v-2z" fill="rgb(207,178,132)"/>
<path d="M278 160h14v2h-14v-2z" fill="rgb(193,161,110)"/>
<path d="M292 160h1v3h-15v-1h14v-2z" fill="rgb(207,178,132)"/>
<path d="M294 160h14v2h-14v-2z" fill="rgb(193,161,110)"/>
<path d="M308 160h1v3h-15v-1h14v-2z" fill="rgb(207,178,132)"/>
<path d="M310 160h14v2h-14v-2z" fill="rgb(193,161,110)"/>
<path d="M324 160h1v3h-15v-1h14v-2z" fill="rgb(207,178,132)"/>
<path d="M326 160h10v2h-10v-2z" fill="rgb(193,161,110)"/>
<path d="M198 162h2v1h-2v-1z" fill="rgb(176,151,112)"/>
<path d="M230 162h10v1h-10v-1z" fill="rgb(207,178,132)"/>
<path d="M326 162h10v1h-10v-1z" fill="rgb(207,178,132)"/>
<path d="M192 164h8v2h-8v-2z" fill="rgb(164,137,94)"/>
<path d="M200 164h2v2h-2v-2z" fill="rgb(193,161,110)"/>
<path d="M202 164h1v3h-3v-1h2v-2z" fill="rgb(207,178,132)"/>
<path d="M204 164h14v2h-14v-2z" fill="rgb(193,161,110)"/>
<path d="M218 164h1v3h-15v-1h14v-2z" fill="rgb(207,178,132)"/>
<path d="M220 164h14v2h-14v-2z" fill="rgb(193,161,110)"/>
<path d="M234 164h1v3h-15v-1h14v-2z" fill="rgb(207,178,132)"/>
<path d="M236 164h4v2h-4v-2z" fill="rgb(193,161,110)"/>
<path d="M256 164h10v2h-10v-2z" fill="rgb(193,161,110)"/>
<path d="M266 164h1v3h-11v-1h10v-2z" fill="rgb(207,178,132)"/>
<path d="M268 164h14v2h-14v-2z" fill="rgb(193,161,110)"/>
<path d="M282 164h1v3h-15v-1h14v-2z" fill="rgb(207,178,132)"/>
<path d="M284 164h14v2h-14v-2z" fill="rgb(193,161,110)"/>
<path d="M298 164h1v3h-15v-1h14v-2z" fill="rgb(207,178,132)"/>
<path d="M300 164h14v2h-14v-2z" fill="rgb(193,161,110)"/>
<path d="M314 164h1v3h-15v-1h14v-2z" fill="rgb(207,178,132)"/>
<path d="M316 164h14v2h-14v-2z" fill="rgb(193,161,110)"/>
<path d="M330 164h1v3h-15v-1h14v-2z" fill="rgb(207,178,132)"/>
<path d="M332 164h4v2h-4v-2z" fill="rgb(193,161,110)"/>
<path d="M192 166h8v1h-8v-1z" fill="rgb(176,151,112)"/>
<path d="M236 166h4v1h-4v-1z" fill="rgb(207,178,132)"/>
<path d="M332 166h4v1h-4v-1z" fill="rgb(207,178,132)"/>
<path d="M192 167h8v1h-8v-1z" fill="rgb(141,116,74)"/>
<path d="M192 168h7v2h-7v-2z" fill="rgb(164,137,94)"/>
<path d="M199 168h1v3h-8v-1h7v-2z" fill="rgb(176,151,112)"/>
<path d="M201 168h14v2h-13v1h-1v-3z" fill="rgb(193,161,110)"/>
<path d="M215 168h1v3h-14v-1h13v-2z" fill="rgb(207,178,132)"/>
<path d="M217 168h14v2h-13v1h-1v-3z" fill="rgb(193,161,110)"/>
<path d="M231 168h1v3h-14v-1h13v-2z" fill="rgb(207,178,132)"/>
<path d="M233 168h7v2h-6v1h-1v-3z" fill="rgb(193,161,110)"/>
<path d="M256 168h7v2h-7v-2z" fill="rgb(193,161,110)"/>
<path d="M263 168h1v3h-8v-1h7v-2z" fill="rgb(207,178,132)"/>
<path d="M265 168h14v2h-13v1h-1v-3z" fill="rgb(193,161,110)"/>
<path d="M279 168h1v3h-14v-1h13v-2z" fill="rgb(207,178,132)"/>
<path d="M281 168h14v2h-13v1h-1v-3z" fill="rgb(193,161,110)"/>
<path d="M295 168h1v3h-14v-1h13v-2z" fill="rgb(207,178,132)"/>
<path d="M297 168h14v2h-13v1h-1v-3z" fill="rgb(193,161,110)"/>
<path d="M311 168h1v3h-14v-1h13v-2z" fill="rgb(207,178,132)"/>
<path d="M313 168h14v2h-13v1h-1v-3z" fill="rgb(193,161,110)"/>
<path d="M327 168h1v3h-14v-1h13v-2z" fill="rgb(207,178,132)"/>
<path d="M329 168h7v2h-6v1h-1v-3z" fill="rgb(193,161,110)"/>
<path d="M234 170h6v1h-6v-1z" fill="rgb(207,178,132)"/>
<path d="M330 170h6v1h-6v-1z" fill="rgb(207,178,132)"/>
<path d="M192 171h8v1h-8v-1z" fill="rgb(141,116,74)"/>
<path d="M192 172h8v2h-8v-2z" fill="rgb(164,137,94)"/>
<path d="M200 172h6v2h-6v-2z" fill="rgb(193,161,110)"/>
<path d="M206 172h1v3h-7v-1h6v-2z" fill="rgb(207,178,132)"/>
<path d="M208 172h14v2h-14v-2z" fill="rgb(193,161,110)"/>
<path d="M222 172h1v3h-15v-1h14v-2z" fill="rgb(207,178,132)"/>
<path d="M224 172h14v2h-14v-2z" fill="rgb(193,161,110)"/>
<path d="M238 172h1v3h-15v-1h14v-2z" fill="rgb(207,178,132)"/>
<path d="M256 172h14v2h-14v-2z" fill="rgb(193,161,110)"/>
<path d="M270 172h1v3h-15v-1h14v-2z" fill="rgb(207,178,132)"/>
<path d="M272 172h14v2h-14v-2z" fill="rgb(193,161,110)"/>
<path d="M286 172h1v3h-15v-1h14v-2z" fill="rgb(207,178,132)"/>
<path d="M288 172h14v2h-14v-2z" fill="rgb(193,161,110)"/>
<path d="M302 172h1v3h-15v-1h14v-2z" fill="rgb(207,178,132)"/>
<path d="M304 172h14v2h-14v-2z" fill="rgb(193,161,110)"/>
<path d="M318 172h1v3h-15v-1h14v-2z" fill="rgb(207,178,132)"/>
<path d="M320 172h14v2h-14v-2z" fill="rgb(193,161,110)"/>
<path d="M334 172h1v3h-15v-1h14v-2z" fill="rgb(207,178,132)"/>
<path d="M192 174h8v1h-8v-1z" fill="rgb(176,151,112)"/>
<path d="M192 175h8v1h-2v3h2v1h-8v-1h5v-3h-5v-1z" fill="rgb(141,116,74)"/>
<path d="M192 176h4v2h-4v-2z" fill="rgb(164,137,94)"/>
<path d="M196 176h1v3h-5v-1h4v-2z" fill="rgb(176,151,112)"/>
<path d="M198 176h2v2h-2v-2z" fill="rgb(164,137,94)"/>
<path d="M200 176h12v2h-12v-2z" fill="rgb(193,161,110)"/>
<path d="M212 176h1v3h-13v-1h12v-2z" fill="rgb(207,178,132)"/>
<path d="M214 176h14v2h-14v-2z" fill="rgb(193,161,110)"/>
<path d="M228 176h1v3h-15v-1h14v-2z" fill="rgb(207,178,132)"/>
<path d="M230 176h10v2h-10v-2z" fill="rgb(193,161,110)"/>
<path d="M256 176h4v2h-4v-2z" fill="rgb(164,137,94)"/>
<path d="M260 176h1v3h-5v-1h4v-2z" fill="rgb(176,151,112)"/>
<path d="M261 176h1v3h2v1h-8v-1h5v-3z" fill="rgb(141,116,74)"/>
<path d="M262 176h2v2h-2v-2z" fill="rgb(164,137,94)"/>
<path d="M264 176h12v2h-12v-2z" fill="rgb(193,161,110)"/>
<path d="M276 176h1v3h-13v-1h12v-2z" fill="rgb(207,178,132)"/>
<path d="M278 176h14v2h-14v-2z" fill="rgb(193,161,110)"/>
<path d="M292 176h1v3h-15v-1h14v-2z" fill="rgb(207,178,132)"/>
<path d="M294 176h14v2h-14v-2z" fill="rgb(193,161,110)"/>
<path d="M308 176h1v3h-15v-1h14v-2z" fill="rgb(207,178,132)"/>
<path d="M310 176h14v2h-14v-2z" fill="rgb(193,161,110)"/>
<path d="M324 176h1v3h-15v-1h14v-2z" fill="rgb(207,178,132)"/>
<path d="M326 176h10v2h-10v-2z" fill="rgb(193,161,110)"/>
<path d="M198 178h2v1h-2v-1z" fill="rgb(176,151,112)"/>
<path d="M230 178h10v1h-10v-1z" fill="rgb(207,178,132)"/>
<path d="M262 178h2v1h-2v-1z" fill="rgb(176,151,112)"/>
<path d="M326 178h10v1h-10v-1z" fill="rgb(207,178,132)"/>
<path d="M192 180h8v2h-8v-2z" fill="rgb(164,137,94)"/>
<path d="M200 180h2v2h-2v-2z" fill="rgb(193,161,110)"/>
<path d="M202 180h1v3h-3v-1h2v-2z" fill="rgb(207,178,132)"/>
<path d="M204 180h14v2h-14v-2z" fill="rgb(193,161,110)"/>
<path d="M218 180h1v2h-1v-2z" fill="rgb(207,178,132)"/>
<path d="M220 180h14v2h-14v-2z" fill="rgb(193,161,110)"/>
<path d="M234 180h1v3h-15v-1h14v-2z" fill="rgb(207,178,132)"/>
<path d="M236 180h4v2h-4v-2z" fill="rgb(193,161,110)"/>
<path d="M256 180h8v2h-8v-2z" fill="rgb(164,137,94)"/>
<path d="M264 180h2v2h-2v-2z" fill="rgb(193,161,110)"/>
<path d="M266 180h1v3h-3v-1h2v-2z" fill="rgb(207,178,132)"/>
<path d="M268 180h14v2h-14v-2z" fill="rgb(193,161,110)"/>
<path d="M282 180h1v3h-15v-1h14v-2z" fill="rgb(207,178,132)"/>
<path d="M284 180h14v2h-14v-2z" fill="rgb(193,161,110)"/>
<path d="M298 180h1v3h-15v-1h14v-2z" fill="rgb(207,178,132)"/>
<path d="M300 180h14v2h-14v-2z" fill="rgb(193,161,110)"/>
<path d="M314 180h1v3h-15v-1h14v-2z" fill="rgb(207,178,132)"/>
<path d="M316 180h14v2h-14v-2z" fill="rgb(193,161,110)"/>
<path d="M330 180h1v3h-15v-1h14v-2z" fill="rgb(207,178,132)"/>
<path d="M332 180h4v2h-4v-2z" fill="rgb(193,161,110)"/>
<path d="M192 182h8v1h-8v-1z" fill="rgb(176,151,112)"/>
<path d="M204 182h8v1h-8v-1z" fill="rgb(207,178,132)"/>
<path d="M212 182h7v1h-7v-1z" fill="rgb(166,142,106)"/>
<path d="M219 182h1v1h2v1h-5v2h-1v-2h-6v-1h9v-1z" fill="rgb(133,109,70)"/>
<path d="M236 182h4v1h-4v-1z" fill="rgb(207,178,132)"/>
<path d="M256 182h8v1h-8v-1z" fill="rgb(176,151,112)"/>
<path d="M332 182h4v1h-4v-1z" fill="rgb(207,178,132)"/>
<path d="M192 183h8v1h-8v-1z" fill="rgb(141,116,74)"/>
<path d="M256 183h8v1h-8v-1z" fill="rgb(141,116,74)"/>
<path d="M192 184h7v2h-7v-2z" fill="rgb(164,137,94)"/>
<path d="M199 184h1v3h-8v-1h7v-2z" fill="rgb(176,151,112)"/>
<path d="M201 184h7v1h-1v1h-5v1h-1v-3z" fill="rgb(193,161,110)"/>
<path d="M208 184h7v2h-8v-1h1v-1z" fill="rgb(154,129,88)"/>
<path d="M215 184h1v2h-1v-2z" fill="rgb(166,142,106)"/>
<path d="M217 184h7v1h1v1h-8v-2z" fill="rgb(154,129,88)"/>
<path d="M224 184h7v2h-6v-1h-1v-1z" fill="rgb(193,161,110)"/>
<path d="M231 184h1v3h-7v-1h6v-2z" fill="rgb(207,178,132)"/>
<path d="M233 184h7v2h-6v1h-1v-3z" fill="rgb(193,161,110)"/>
<path d="M256 184h7v2h-7v-2z" fill="rgb(164,137,94)"/>
<path d="M263 184h1v3h-8v-1h7v-2z" fill="rgb(176,151,112)"/>
<path d="M265 184h14v2h-13v1h-1v-3z" fill="rgb(193,161,110)"/>
<path d="M279 184h1v3h-14v-1h13v-2z" fill="rgb(207,178,132)"/>
<path d="M281 184h14v2h-13v1h-1v-3z" fill="rgb(193,161,110)"/>
<path d="M295 184h1v3h-14v-1h13v-2z" fill="rgb(207,178,132)"/>
<path d="M297 184h14v2h-13v1h-1v-3z" fill="rgb(193,161,110)"/>
<path d="M311 184h1v3h-14v-1h13v-2z" fill="rgb(207,178,132)"/>
<path d="M313 184h14v2h-13v1h-1v-3z" fill="rgb(193,161,110)"/>
<path d="M327 184h1v3h-14v-1h13v-2z" fill="rgb(207,178,132)"/>
<path d="M329 184h7v2h-6v1h-1v-3z" fill="rgb(193,161,110)"/>
<path d="M202 186h5v1h-5v-1z" fill="rgb(207,178,132)"/>
<path d="M207 186h9v1h-9v-1z" fill="rgb(124,107,79)"/>
<path d="M216 186h1v1h9v1h-20v-1h10v-1z" fill="rgb(100,82,52)"/>
<path d="M217 186h1v1h-1v-1z" fill="rgb(116,97,66)"/>
<path d="M218 186h7v1h-7v-1z" fill="rgb(124,107,79)"/>
<path d="M234 186h6v1h-6v-1z" fill="rgb(207,178,132)"/>
<path d="M330 186h6v1h-6v-1z" fill="rgb(207,178,132)"/>
<path d="M192 187h8v1h-8v-1z" fill="rgb(141,116,74)"/>
<path d="M256 187h8v1h-8v-1z" fill="rgb(141,116,74)"/>
<path d="M192 188h8v2h-8v-2z" fill="rgb(164,137,94)"/>
<path d="M200 188h6v1h-1v1h-5v-2z" fill="rgb(193,161,110)"/>
<path d="M206 188h1v2h-1v-2z" fill="rgb(83,71,53)"/>
<path d="M207 188h1v2h-1v-2z" fill="rgb(66,54,35)"/>
<path d="M208 188h14v2h-14v-2z" fill="rgb(77,64,44)"/>
<path d="M222 188h1v2h-1v-2z" fill="rgb(83,71,53)"/>
<path d="M223 188h1v2h-1v-2z" fill="rgb(66,54,35)"/>
<path d="M224 188h2v1h1v1h-3v-2z" fill="rgb(77,64,44)"/>
<path d="M226 188h12v2h-11v-1h-1v-1z" fill="rgb(193,161,110)"/>
<path d="M238 188h1v3h-12v-1h11v-2z" fill="rgb(207,178,132)"/>
<path d="M256 188h8v2h-8v-2z" fill="rgb(164,137,94)"/>
<path d="M264 188h6v2h-6v-2z" fill="rgb(193,161,110)"/>
<path d="M270 188h1v3h-7v-1h6v-2z" fill="rgb(207,178,132)"/>
<path d="M272 188h14v2h-14v-2z" fill="rgb(193,161,110)"/>
<path d="M286 188h1v3h-15v-1h14v-2z" fill="rgb(207,178,132)"/>
<path d="M288 188h14v2h-14v-2z" fill="rgb(193,161,110)"/>
<path d="M302 188h1v3h-15v-1h14v-2z" fill="rgb(207,178,132)"/>
<path d="M304 188h14v2h-14v-2z" fill="rgb(193,161,110)"/>
<path d="M318 188h1v3h-15v-1h14v-2z" fill="rgb(207,178,132)"/>
<path d="M320 188h14v2h-14v-2z" fill="rgb(193,161,110)"/>
<path d="M334 188h1v3h-15v-1h14v-2z" fill="rgb(207,178,132)"/>
<path d="M205 189h1v1h-1v-1z" fill="rgb(77,64,44)"/>
<path d="M192 190h8v1h-8v-1z" fill="rgb(176,151,112)"/>
<path d="M200 190h5v1h-5v-1z" fill="rgb(207,178,132)"/>
<path d="M205 190h2v1h-2v-1z" fill="rgb(41,36,26)"/>
<path d="M207 190h1v1h15v-1h1v1h3v1h-22v-1h2v-1z" fill="rgb(33,27,17)"/>
<path d="M208 190h15v1h-15v-1z" fill="rgb(41,36,26)"/>
<path d="M224 190h3v1h-3v-1z" fill="rgb(41,36,26)"/>
<path d="M256 190h8v1h-8v-1z" fill="rgb(176,151,112)"/>
<path d="M192 191h8v1h-8v-1z" fill="rgb(141,116,74)"/>
<path d="M200 191h5v1h-5v-1z" fill="rgb(166,136,87)"/>
<path d="M256 191h8v1h-2v3h2v1h-8v-1h5v-3h-5v-1z" fill="rgb(141,116,74)"/>
<path d="M256 192h4v2h-4v-2z" fill="rgb(164,137,94)"/>
<path d="M260 192h1v3h-5v-1h4v-2z" fill="rgb(176,151,112)"/>
<path d="M262 192h2v2h-2v-2z" fill="rgb(164,137,94)"/>
<path d="M264 192h12v2h-12v-2z" fill="rgb(193,161,110)"/>
<path d="M276 192h1v3h-13v-1h12v-2z" fill="rgb(207,178,132)"/>
<path d="M278 192h14v2h-14v-2z" fill="rgb(193,161,110)"/>
<path d="M292 192h1v3h-15v-1h14v-2z" fill="rgb(207,178,132)"/>
<path d="M294 192h14v2h-14v-2z" fill="rgb(193,161,110)"/>
<path d="M308 192h1v3h-15v-1h14v-2z" fill="rgb(207,178,132)"/>
<path d="M310 192h14v2h-14v-2z" fill="rgb(193,161,110)"/>
<path d="M324 192h1v3h-15v-1h14v-2z" fill="rgb(207,178,132)"/>
<path d="M326 192h10v2h-10v-2z" fill="rgb(193,161,110)"/>
<path d="M262 194h2v1h-2v-1z" fill="rgb(176,151,112)"/>
<path d="M326 194h10v1h-10v-1z" fill="rgb(207,178,132)"/>
<path d="M256 196h8v2h-8v-2z" fill="rgb(164,137,94)"/>
<path d="M264 196h2v2h-2v-2z" fill="rgb(193,161,110)"/>
<path d="M266 196h1v3h-3v-1h2v-2z" fill="rgb(207,178,132)"/>
<path d="M268 196h14v2h-14v-2z" fill="rgb(193,161,110)"/>
<path d="M282 196h1v3h-15v-1h14v-2z" fill="rgb(207,178,132)"/>
<path d="M284 196h14v2h-14v-2z" fill="rgb(193,161,110)"/>
<path d="M298 196h1v3h-15v-1h14v-2z" fill="rgb(207,178,132)"/>
<path d="M300 196h14v2h-14v-2z" fill="rgb(193,161,110)"/>
<path d="M314 196h1v3h-15v-1h14v-2z" fill="rgb(207,178,132)"/>
<path d="M316 196h14v2h-14v-2z" fill="rgb(193,161,110)"/>
<path d="M330 196h1v3h-15v-1h14v-2z" fill="rgb(207,178,132)"/>
<path d="M332 196h4v2h-4v-2z" fill="rgb(193,161,110)"/>
<path d="M256 198h8v1h-8v-1z" fill="rgb(176,151,112)"/>
<path d="M332 198h4v1h-4v-1z" fill="rgb(207,178,132)"/>
<path d="M256 199h8v1h-8v-1z" fill="rgb(141,116,74)"/>
<path d="M256 200h7v2h-7v-2z" fill="rgb(164,137,94)"/>
<path d="M263 200h1v3h-8v-1h7v-2z" fill="rgb(176,151,112)"/>
<path d="M265 200h14v2h-13v1h-1v-3z" fill="rgb(193,161,110)"/>
<path d="M279 200h1v3h-14v-1h13v-2z" fill="rgb(207,178,132)"/>
<path d="M281 200h14v2h-13v1h-1v-3z" fill="rgb(193,161,110)"/>
<path d="M295 200h1v3h-14v-1h13v-2z" fill="rgb(207,178,132)"/>
<path d="M297 200h14v2h-13v1h-1v-3z" fill="rgb(193,161,110)"/>
<path d="M311 200h1v3h-14v-1h13v-2z" fill="rgb(207,178,132)"/>
<path d="M313 200h14v2h-13v1h-1v-3z" fill="rgb(193,161,110)"/>
<path d="M327 200h1v3h-14v-1h13v-2z" fill="rgb(207,178,132)"/>
<path d="M329 200h7v2h-6v1h-1v-3z" fill="rgb(193,161,110)"/>
<path d="M330 202h6v1h-6v-1z" fill="rgb(207,178,132)"/>
<path d="M256 203h8v1h-8v-1z" fill="rgb(141,116,74)"/>
<path d="M256 204h8v2h-8v-2z" fill="rgb(164,137,94)"/>
<path d="M264 204h6v2h-6v-2z" fill="rgb(193,161,110)"/>
<path d="M270 204h1v3h-7v-1h6v-2z" fill="rgb(207,178,132)"/>
<path d="M272 204h14v2h-14v-2z" fill="rgb(193,161,110)"/>
<path d="M286 204h1v3h-15v-1h14v-2z" fill="rgb(207,178,132)"/>
<path d="M288 204h14v2h-14v-2z" fill="rgb(193,161,110)"/>
<path d="M302 204h1v3h-15v-1h14v-2z" fill="rgb(207,178,132)"/>
<path d="M304 204h14v2h-14v-2z" fill="rgb(193,161,110)"/>
<path d="M318 204h1v3h-15v-1h14v-2z" fill="rgb(207,178,132)"/>
<path d="M320 204h14v2h-14v-2z" fill="rgb(193,161,110)"/>
<path d="M334 204h1v3h-15v-1h14v-2z" fill="rgb(207,178,132)"/>
<path d="M256 206h8v1h-8v-1z" fill="rgb(176,151,112)"/>
<path d="M256 207h8v1h-8v-1z" fill="rgb(141,116,74)"/>
</svg>
