<?xml version="1.0" encoding="utf-8"?>
<!-- generated at drububu.com  -->
<!DOCTYPE svg PUBLIC "-//W3C//DTD SVG 1.1//EN" "http://www.w3.org/Graphics/SVG/1.1/DTD/svg11.dtd">
<svg version="1.1" preserveAspectRatio="xMinYMin meet" xmlns="http://www.w3.org/2000/svg" xmlns:xlink="http://www.w3.org/1999/xlink" x="0px" y="0px" width="112px" height="112px" viewBox="0 0 112 112">
<path d="M0 0h112v1h-112v-1z" fill="rgb(130,130,130)"/>
<path d="M0 1h112v2h-112v-2z" fill="rgb(238,238,238)"/>
<path d="M0 3h112v1h-112v-1z" fill="rgb(255,255,255)"/>
<path d="M0 4h112v1h-112v-1z" fill="rgb(130,130,130)"/>
<path d="M0 5h2v1h-2v-1z" fill="rgb(117,29,29)"/>
<path d="M2 5h6v1h-6v-1z" fill="rgb(168,145,42)"/>
<path d="M8 5h2v1h-2v-1z" fill="rgb(117,29,29)"/>
<path d="M10 5h6v1h-6v-1z" fill="rgb(168,145,42)"/>
<path d="M16 5h2v1h-2v-1z" fill="rgb(117,29,29)"/>
<path d="M18 5h6v1h-6v-1z" fill="rgb(168,145,42)"/>
<path d="M24 5h2v1h-2v-1z" fill="rgb(117,29,29)"/>
<path d="M26 5h6v1h-6v-1z" fill="rgb(168,145,42)"/>
<path d="M32 5h2v1h-2v-1z" fill="rgb(117,29,29)"/>
<path d="M34 5h6v1h-6v-1z" fill="rgb(168,145,42)"/>
<path d="M40 5h2v1h-2v-1z" fill="rgb(117,29,29)"/>
<path d="M42 5h6v1h-6v-1z" fill="rgb(168,145,42)"/>
<path d="M48 5h2v1h-2v-1z" fill="rgb(117,29,29)"/>
<path d="M50 5h6v1h-6v-1z" fill="rgb(168,145,42)"/>
<path d="M56 5h2v1h-2v-1z" fill="rgb(117,29,29)"/>
<path d="M58 5h6v1h-6v-1z" fill="rgb(168,145,42)"/>
<path d="M64 5h2v1h-2v-1z" fill="rgb(117,29,29)"/>
<path d="M66 5h6v1h-6v-1z" fill="rgb(168,145,42)"/>
<path d="M72 5h2v1h-2v-1z" fill="rgb(117,29,29)"/>
<path d="M74 5h6v1h-6v-1z" fill="rgb(168,145,42)"/>
<path d="M80 5h2v1h-2v-1z" fill="rgb(117,29,29)"/>
<path d="M82 5h6v1h-6v-1z" fill="rgb(168,145,42)"/>
<path d="M88 5h2v1h-2v-1z" fill="rgb(117,29,29)"/>
<path d="M90 5h6v1h-6v-1z" fill="rgb(168,145,42)"/>
<path d="M96 5h2v1h-2v-1z" fill="rgb(117,29,29)"/>
<path d="M98 5h6v1h-6v-1z" fill="rgb(168,145,42)"/>
<path d="M104 5h2v1h-2v-1z" fill="rgb(117,29,29)"/>
<path d="M106 5h6v1h-6v-1z" fill="rgb(168,145,42)"/>
<path d="M0 6h2v6h-1v-1h-1v-5z" fill="rgb(133,86,33)"/>
<path d="M2 6h6v6h-1v-1h-1v1h-1v-1h-1v1h-1v-1h-1v-5z" fill="rgb(181,156,45)"/>
<path d="M8 6h2v6h-1v-1h-1v-5z" fill="rgb(133,86,33)"/>
<path d="M10 6h6v6h-1v-1h-1v1h-1v-1h-1v1h-1v-1h-1v-5z" fill="rgb(181,156,45)"/>
<path d="M16 6h2v3h-2v-3z" fill="rgb(133,86,33)"/>
<path d="M18 6h6v3h-6v-3z" fill="rgb(181,156,45)"/>
<path d="M24 6h2v3h-2v-3z" fill="rgb(133,86,33)"/>
<path d="M26 6h6v3h-6v-3z" fill="rgb(181,156,45)"/>
<path d="M32 6h2v3h-2v-3z" fill="rgb(133,86,33)"/>
<path d="M34 6h6v3h-6v-3z" fill="rgb(181,156,45)"/>
<path d="M40 6h2v3h-2v-3z" fill="rgb(133,86,33)"/>
<path d="M42 6h6v3h-6v-3z" fill="rgb(181,156,45)"/>
<path d="M48 6h2v3h-2v-3z" fill="rgb(133,86,33)"/>
<path d="M50 6h6v3h-6v-3z" fill="rgb(181,156,45)"/>
<path d="M56 6h2v3h-2v-3z" fill="rgb(133,86,33)"/>
<path d="M58 6h6v3h-6v-3z" fill="rgb(181,156,45)"/>
<path d="M64 6h2v6h-1v-1h-1v-5z" fill="rgb(133,86,33)"/>
<path d="M66 6h6v6h-1v-1h-1v1h-1v-1h-1v1h-1v-1h-1v-5z" fill="rgb(181,156,45)"/>
<path d="M72 6h2v6h-1v-1h-1v-5z" fill="rgb(133,86,33)"/>
<path d="M74 6h3v1h-1v5h-1v-1h-1v-5z" fill="rgb(181,156,45)"/>
<path d="M77 6h22v1h-22v-1z" fill="rgb(96,51,15)"/>
<path d="M99 6h5v6h-1v-1h-1v1h-1v-1h-1v-4h-1v-1z" fill="rgb(181,156,45)"/>
<path d="M104 6h2v6h-1v-1h-1v-5z" fill="rgb(133,86,33)"/>
<path d="M106 6h6v6h-1v-1h-1v1h-1v-1h-1v1h-1v-1h-1v-5z" fill="rgb(181,156,45)"/>
<path d="M76 7h1v24h3v-20h1v21h-5v-25z" fill="rgb(96,51,15)"/>
<path d="M77 7h22v1h-22v-1z" fill="rgb(199,149,91)"/>
<path d="M99 7h1v25h-5v-21h1v20h3v-24z" fill="rgb(96,51,15)"/>
<path d="M77 8h22v1h-22v-1z" fill="rgb(142,92,51)"/>
<path d="M16 9h11v1h-10v5h-1v-6z" fill="rgb(139,54,54)"/>
<path d="M27 9h1v3h-1v-3z" fill="rgb(117,29,29)"/>
<path d="M28 9h24v1h-24v-1z" fill="rgb(96,51,15)"/>
<path d="M52 9h1v3h-1v-3z" fill="rgb(117,29,29)"/>
<path d="M53 9h11v6h-1v-5h-10v-1z" fill="rgb(139,54,54)"/>
<path d="M77 9h22v22h-3v-21h-16v21h-3v-22z" fill="rgb(169,112,47)"/>
<path d="M17 10h2v1h-1v2h-1v-3z" fill="rgb(196,63,63)"/>
<path d="M19 10h2v2h1v-1h2v1h1v2h-1v1h-1v1h-1v1h-2v-2h-1v1h-1v1h-1v-4h1v-2h1v-1z" fill="rgb(224,94,94)"/>
<path d="M21 10h6v2h-1v2h-1v-2h-1v-1h-2v1h-1v-2z" fill="rgb(196,63,63)"/>
<path d="M28 10h2v1h-1v1h-1v-2z" fill="rgb(145,188,191)"/>
<path d="M30 10h4v1h-1v1h2v1h-1v1h-1v1h-1v1h-1v1h-1v1h-1v1h-1v1h-1v1h-3v-1h1v-1h1v-1h1
	v-1h1v-1h1v-1h1v-1h1v-1h1v-1h-3v-1h1v-1z" fill="rgb(169,202,205)"/>
<path d="M34 10h3v1h-1v1h-3v-1h1v-1z" fill="rgb(145,188,191)"/>
<path d="M37 10h1v1h-1v-1z" fill="rgb(169,202,205)"/>
<path d="M38 10h4v1h-1v1h-4v-1h1v-1z" fill="rgb(145,188,191)"/>
<path d="M42 10h4v1h-1v1h1v1h-1v1h-1v1h-1v1h-1v1h-1v1h-1v1h-1v1h-1v1h-2v-1h1v-1h1v-1h1
	v-1h1v-1h1v-1h1v-1h1v-1h1v-1h-3v-1h1v-1z" fill="rgb(169,202,205)"/>
<path d="M46 10h2v1h-1v1h-2v-1h1v-1z" fill="rgb(145,188,191)"/>
<path d="M48 10h4v1h-1v1h2v1h-1v1h-1v1h-1v1h-1v1h-1v1h-1v1h-1v1h-1v1h-3v-1h1v-1h1v-1h1
	v-1h1v-1h1v-1h1v-1h1v-1h1v-1h-3v-1h1v-1z" fill="rgb(169,202,205)"/>
<path d="M53 10h6v2h-1v-1h-2v1h-1v2h-1v-2h-1v-2z" fill="rgb(196,63,63)"/>
<path d="M59 10h2v1h1v2h1v4h-1v-1h-1v-1h-1v-2h-1v2h1v2h-2v-1h-1v-1h-1v-1h-1v-2h1v-1h2v1
	h1v-2z" fill="rgb(224,94,94)"/>
<path d="M61 10h2v3h-1v-2h-1v-1z" fill="rgb(196,63,63)"/>
<path d="M80 10h16v1h-16v-1z" fill="rgb(37,37,37)"/>
<path d="M0 11h1v1h-1v-1z" fill="rgb(153,101,38)"/>
<path d="M2 11h1v1h-1v-1z" fill="rgb(199,191,80)"/>
<path d="M4 11h1v1h-1v-1z" fill="rgb(199,191,80)"/>
<path d="M6 11h1v1h-1v-1z" fill="rgb(199,191,80)"/>
<path d="M8 11h1v1h-1v-1z" fill="rgb(153,101,38)"/>
<path d="M10 11h1v1h-1v-1z" fill="rgb(199,191,80)"/>
<path d="M12 11h1v1h-1v-1z" fill="rgb(199,191,80)"/>
<path d="M14 11h1v1h-1v-1z" fill="rgb(199,191,80)"/>
<path d="M36 11h1v1h3v1h-1v1h-1v1h-1v1h-1v1h-1v1h-1v1h-1v1h-1v1h-4v-1h1v-1h1v-1h1v-1h1
	v-1h1v-1h1v-1h1v-1h1v-2z" fill="rgb(169,202,205)"/>
<path d="M51 11h1v1h-1v-1z" fill="rgb(145,188,191)"/>
<path d="M64 11h1v1h-1v-1z" fill="rgb(153,101,38)"/>
<path d="M66 11h1v1h-1v-1z" fill="rgb(199,191,80)"/>
<path d="M68 11h1v1h-1v-1z" fill="rgb(199,191,80)"/>
<path d="M70 11h1v1h-1v-1z" fill="rgb(199,191,80)"/>
<path d="M72 11h1v1h-1v-1z" fill="rgb(153,101,38)"/>
<path d="M74 11h1v1h-1v-1z" fill="rgb(199,191,80)"/>
<path d="M81 11h14v12h-1v-1h-12v1h-1v-12z" fill="rgb(1,1,1)"/>
<path d="M100 11h1v1h-1v-1z" fill="rgb(199,191,80)"/>
<path d="M102 11h1v1h-1v-1z" fill="rgb(199,191,80)"/>
<path d="M104 11h1v1h-1v-1z" fill="rgb(153,101,38)"/>
<path d="M106 11h1v1h-1v-1z" fill="rgb(199,191,80)"/>
<path d="M108 11h1v1h-1v-1z" fill="rgb(199,191,80)"/>
<path d="M110 11h1v1h-1v-1z" fill="rgb(199,191,80)"/>
<path d="M0 12h1v1h-1v-1z" fill="rgb(133,86,33)"/>
<path d="M1 12h1v15h-1v-1h-1v-13h1v-1z" fill="rgb(153,101,38)"/>
<path d="M2 12h1v1h-1v-1z" fill="rgb(181,156,45)"/>
<path d="M3 12h1v1h1v-1h1v1h1v-1h1v15h-1v-1h-1v1h-1v-1h-1v1h-1v-1h-1v-13h1v-1z" fill="rgb(199,191,80)"/>
<path d="M4 12h1v1h-1v-1z" fill="rgb(181,156,45)"/>
<path d="M6 12h1v1h-1v-1z" fill="rgb(181,156,45)"/>
<path d="M8 12h1v1h-1v-1z" fill="rgb(133,86,33)"/>
<path d="M9 12h1v15h-1v-1h-1v-13h1v-1z" fill="rgb(153,101,38)"/>
<path d="M10 12h1v1h-1v-1z" fill="rgb(181,156,45)"/>
<path d="M11 12h1v1h1v-1h1v1h1v-1h1v15h-1v-1h-1v1h-1v-1h-1v1h-1v-1h-1v-13h1v-1z" fill="rgb(199,191,80)"/>
<path d="M12 12h1v1h-1v-1z" fill="rgb(181,156,45)"/>
<path d="M14 12h1v1h-1v-1z" fill="rgb(181,156,45)"/>
<path d="M26 12h1v1h-1v-1z" fill="rgb(117,29,29)"/>
<path d="M27 12h1v1h-1v-1z" fill="rgb(169,202,205)"/>
<path d="M28 12h4v1h-1v1h-1v1h-1v1h-1v1h-1v1h-1v1h-1v1h-1v1h-2v-1h-1v-1h2v-1h1v-1h1v-1h1
	v-2h1v-1h1v-1z" fill="rgb(199,220,222)"/>
<path d="M35 12h1v1h-1v-1z" fill="rgb(199,220,222)"/>
<path d="M40 12h4v1h-1v1h-1v1h-1v1h-1v1h-1v1h-1v1h-1v1h-1v1h-4v-1h1v-1h1v-1h1v-1h1v-1h1
	v-1h1v-1h1v-1h1v-1z" fill="rgb(199,220,222)"/>
<path d="M46 12h4v1h-1v1h-1v1h-1v1h-1v1h-1v1h-1v1h-1v1h-1v1h-4v-1h1v-1h1v-1h1v-1h1v-1h1
	v-1h1v-1h1v-1h1v-1z" fill="rgb(199,220,222)"/>
<path d="M53 12h1v1h-1v-1z" fill="rgb(117,29,29)"/>
<path d="M64 12h1v1h-1v-1z" fill="rgb(133,86,33)"/>
<path d="M65 12h1v15h-1v-1h-1v-13h1v-1z" fill="rgb(153,101,38)"/>
<path d="M66 12h1v1h-1v-1z" fill="rgb(181,156,45)"/>
<path d="M67 12h1v1h1v-1h1v1h1v-1h1v15h-1v-1h-1v1h-1v-1h-1v1h-1v-1h-1v-13h1v-1z" fill="rgb(199,191,80)"/>
<path d="M68 12h1v1h-1v-1z" fill="rgb(181,156,45)"/>
<path d="M70 12h1v1h-1v-1z" fill="rgb(181,156,45)"/>
<path d="M72 12h1v1h-1v-1z" fill="rgb(133,86,33)"/>
<path d="M73 12h1v15h-1v-1h-1v-13h1v-1z" fill="rgb(153,101,38)"/>
<path d="M74 12h1v1h-1v-1z" fill="rgb(181,156,45)"/>
<path d="M75 12h1v15h-1v-1h-1v-13h1v-1z" fill="rgb(199,191,80)"/>
<path d="M100 12h1v1h-1v-1z" fill="rgb(181,156,45)"/>
<path d="M101 12h1v1h1v-1h1v15h-1v-1h-1v1h-1v-1h-1v-13h1v-1z" fill="rgb(199,191,80)"/>
<path d="M102 12h1v1h-1v-1z" fill="rgb(181,156,45)"/>
<path d="M104 12h1v1h-1v-1z" fill="rgb(133,86,33)"/>
<path d="M105 12h1v15h-1v-1h-1v-13h1v-1z" fill="rgb(153,101,38)"/>
<path d="M106 12h1v1h-1v-1z" fill="rgb(181,156,45)"/>
<path d="M107 12h1v1h1v-1h1v1h1v-1h1v15h-1v-1h-1v1h-1v-1h-1v1h-1v-1h-1v-13h1v-1z" fill="rgb(199,191,80)"/>
<path d="M108 12h1v1h-1v-1z" fill="rgb(181,156,45)"/>
<path d="M110 12h1v1h-1v-1z" fill="rgb(181,156,45)"/>
<path d="M20 13h1v2h-1v-2z" fill="rgb(196,63,63)"/>
<path d="M26 13h1v1h-1v-1z" fill="rgb(139,54,54)"/>
<path d="M34 13h1v1h-1v-1z" fill="rgb(199,220,222)"/>
<path d="M52 13h1v1h-1v-1z" fill="rgb(199,220,222)"/>
<path d="M53 13h1v1h-1v-1z" fill="rgb(139,54,54)"/>
<path d="M59 13h1v2h-1v-2z" fill="rgb(196,63,63)"/>
<path d="M24 14h1v2h-1v1h-1v1h-2v1h-2v1h2v1h1v2h1v2h-1v-1h-1v-2h-1v4h-1v-4h-1v3h-1v-8h1
	v-1h1v-1h1v2h2v-1h1v-1h1v-1z" fill="rgb(196,63,63)"/>
<path d="M25 14h1v2h-1v-2z" fill="rgb(139,54,54)"/>
<path d="M33 14h1v1h-1v-1z" fill="rgb(199,220,222)"/>
<path d="M51 14h1v1h-1v-1z" fill="rgb(199,220,222)"/>
<path d="M52 14h2v3h-1v1h-1v1h-1v1h-1v1h-4v-1h1v-1h1v-1h1v-1h1v-1h1v-1h1v-1z" fill="rgb(169,202,205)"/>
<path d="M54 14h1v2h-1v-2z" fill="rgb(139,54,54)"/>
<path d="M55 14h1v1h1v1h1v1h2v1h1v-1h-1v-2h1v1h1v1h1v8h-1v-3h-1v4h-1v-4h-1v2h-1v1h-1v-2
	h1v-2h1v-1h2v-1h-2v-1h-2v-1h-1v-1h-1v-2z" fill="rgb(196,63,63)"/>
<path d="M16 15h1v12h-1v-12z" fill="rgb(117,29,29)"/>
<path d="M32 15h1v1h-1v-1z" fill="rgb(199,220,222)"/>
<path d="M50 15h1v1h-1v-1z" fill="rgb(199,220,222)"/>
<path d="M63 15h1v12h-1v-12z" fill="rgb(117,29,29)"/>
<path d="M24 16h1v1h-1v-1z" fill="rgb(139,54,54)"/>
<path d="M31 16h1v1h-1v-1z" fill="rgb(199,220,222)"/>
<path d="M49 16h1v1h-1v-1z" fill="rgb(199,220,222)"/>
<path d="M54 16h1v1h1v2h-1v1h-1v1h-4v-1h1v-1h1v-1h1v-1h1v-1z" fill="rgb(199,220,222)"/>
<path d="M55 16h1v1h-1v-1z" fill="rgb(139,54,54)"/>
<path d="M19 17h1v1h-1v-1z" fill="rgb(224,94,94)"/>
<path d="M23 17h1v1h-1v-1z" fill="rgb(117,29,29)"/>
<path d="M30 17h1v1h-1v-1z" fill="rgb(199,220,222)"/>
<path d="M48 17h1v1h-1v-1z" fill="rgb(199,220,222)"/>
<path d="M56 17h1v1h-1v-1z" fill="rgb(117,29,29)"/>
<path d="M60 17h1v1h-1v-1z" fill="rgb(224,94,94)"/>
<path d="M21 18h2v1h-2v-1z" fill="rgb(117,29,29)"/>
<path d="M29 18h1v1h-1v-1z" fill="rgb(199,220,222)"/>
<path d="M47 18h1v1h-1v-1z" fill="rgb(199,220,222)"/>
<path d="M56 18h1v1h1v1h-1v1h-3v-1h1v-1h1v-1z" fill="rgb(169,202,205)"/>
<path d="M57 18h2v1h-2v-1z" fill="rgb(117,29,29)"/>
<path d="M19 19h1v1h-1v-1z" fill="rgb(139,54,54)"/>
<path d="M20 19h1v1h-1v-1z" fill="rgb(117,29,29)"/>
<path d="M28 19h1v1h-1v-1z" fill="rgb(199,220,222)"/>
<path d="M46 19h1v1h-1v-1z" fill="rgb(199,220,222)"/>
<path d="M58 19h1v1h-1v-1z" fill="rgb(199,220,222)"/>
<path d="M59 19h1v1h-1v-1z" fill="rgb(117,29,29)"/>
<path d="M60 19h1v1h-1v-1z" fill="rgb(139,54,54)"/>
<path d="M21 20h1v1h-1v-1z" fill="rgb(139,54,54)"/>
<path d="M27 20h1v1h-1v-1z" fill="rgb(199,220,222)"/>
<path d="M45 20h1v1h-1v-1z" fill="rgb(199,220,222)"/>
<path d="M57 20h1v1h-1v-1z" fill="rgb(199,220,222)"/>
<path d="M58 20h1v1h-1v-1z" fill="rgb(139,54,54)"/>
<path d="M22 21h1v1h-1v-1z" fill="rgb(139,54,54)"/>
<path d="M23 21h34v1h-34v-1z" fill="rgb(142,92,51)"/>
<path d="M57 21h1v1h-1v-1z" fill="rgb(139,54,54)"/>
<path d="M18 22h1v4h1v1h-3v-2h1v-3z" fill="rgb(224,94,94)"/>
<path d="M20 22h1v2h1v2h-2v-4z" fill="rgb(224,94,94)"/>
<path d="M22 22h1v1h-1v-1z" fill="rgb(117,29,29)"/>
<path d="M23 22h34v1h-1v1h-32v-1h-1v-1z" fill="rgb(199,149,91)"/>
<path d="M57 22h1v1h-1v-1z" fill="rgb(117,29,29)"/>
<path d="M59 22h1v4h-2v-2h1v-2z" fill="rgb(224,94,94)"/>
<path d="M61 22h1v3h1v2h-3v-1h1v-4z" fill="rgb(224,94,94)"/>
<path d="M82 22h12v1h-12v-1z" fill="rgb(37,27,14)"/>
<path d="M23 23h1v2h-1v-2z" fill="rgb(117,29,29)"/>
<path d="M56 23h1v2h-1v-2z" fill="rgb(117,29,29)"/>
<path d="M81 23h14v1h-14v-1z" fill="rgb(29,19,11)"/>
<path d="M24 24h32v1h-32v-1z" fill="rgb(169,112,47)"/>
<path d="M81 24h2v1h-2v-1z" fill="rgb(35,23,10)"/>
<path d="M83 24h1v2h-3v-1h2v-1z" fill="rgb(68,45,19)"/>
<path d="M84 24h1v2h-1v-2z" fill="rgb(73,52,28)"/>
<path d="M85 24h1v2h-1v-2z" fill="rgb(57,37,21)"/>
<path d="M86 24h7v1h2v1h-9v-2z" fill="rgb(68,45,19)"/>
<path d="M93 24h2v1h-2v-1z" fill="rgb(35,23,10)"/>
<path d="M22 25h1v1h-1v-1z" fill="rgb(117,29,29)"/>
<path d="M23 25h1v2h-1v-2z" fill="rgb(199,191,80)"/>
<path d="M24 25h2v2h-1v-1h-1v-1z" fill="rgb(153,101,38)"/>
<path d="M26 25h6v2h-1v-1h-1v1h-1v-1h-1v1h-1v-1h-1v-1z" fill="rgb(199,191,80)"/>
<path d="M32 25h2v2h-1v-1h-1v-1z" fill="rgb(153,101,38)"/>
<path d="M34 25h6v2h-1v-1h-1v1h-1v-1h-1v1h-1v-1h-1v-1z" fill="rgb(199,191,80)"/>
<path d="M40 25h2v2h-1v-1h-1v-1z" fill="rgb(153,101,38)"/>
<path d="M42 25h6v2h-1v-1h-1v1h-1v-1h-1v1h-1v-1h-1v-1z" fill="rgb(199,191,80)"/>
<path d="M48 25h2v2h-1v-1h-1v-1z" fill="rgb(153,101,38)"/>
<path d="M50 25h6v2h-1v-1h-1v1h-1v-1h-1v1h-1v-1h-1v-1z" fill="rgb(199,191,80)"/>
<path d="M56 25h1v1h-1v-1z" fill="rgb(153,101,38)"/>
<path d="M57 25h1v1h-1v-1z" fill="rgb(117,29,29)"/>
<path d="M0 26h1v1h-1v-1z" fill="rgb(133,86,33)"/>
<path d="M2 26h1v1h-1v-1z" fill="rgb(181,156,45)"/>
<path d="M4 26h1v1h-1v-1z" fill="rgb(181,156,45)"/>
<path d="M6 26h1v1h-1v-1z" fill="rgb(181,156,45)"/>
<path d="M8 26h1v1h-1v-1z" fill="rgb(133,86,33)"/>
<path d="M10 26h1v1h-1v-1z" fill="rgb(181,156,45)"/>
<path d="M12 26h1v1h-1v-1z" fill="rgb(181,156,45)"/>
<path d="M14 26h1v1h-1v-1z" fill="rgb(181,156,45)"/>
<path d="M20 26h2v1h-2v-1z" fill="rgb(117,29,29)"/>
<path d="M22 26h1v1h-1v-1z" fill="rgb(181,156,45)"/>
<path d="M24 26h1v1h-1v-1z" fill="rgb(133,86,33)"/>
<path d="M26 26h1v1h-1v-1z" fill="rgb(181,156,45)"/>
<path d="M28 26h1v1h-1v-1z" fill="rgb(181,156,45)"/>
<path d="M30 26h1v1h-1v-1z" fill="rgb(181,156,45)"/>
<path d="M32 26h1v1h-1v-1z" fill="rgb(133,86,33)"/>
<path d="M34 26h1v1h-1v-1z" fill="rgb(181,156,45)"/>
<path d="M36 26h1v1h-1v-1z" fill="rgb(181,156,45)"/>
<path d="M38 26h1v1h-1v-1z" fill="rgb(181,156,45)"/>
<path d="M40 26h1v1h-1v-1z" fill="rgb(133,86,33)"/>
<path d="M42 26h1v1h-1v-1z" fill="rgb(181,156,45)"/>
<path d="M44 26h1v1h-1v-1z" fill="rgb(181,156,45)"/>
<path d="M46 26h1v1h-1v-1z" fill="rgb(181,156,45)"/>
<path d="M48 26h1v1h-1v-1z" fill="rgb(133,86,33)"/>
<path d="M50 26h1v1h-1v-1z" fill="rgb(181,156,45)"/>
<path d="M52 26h1v1h-1v-1z" fill="rgb(181,156,45)"/>
<path d="M54 26h1v1h-1v-1z" fill="rgb(181,156,45)"/>
<path d="M56 26h1v1h-1v-1z" fill="rgb(133,86,33)"/>
<path d="M57 26h1v1h-1v-1z" fill="rgb(153,101,38)"/>
<path d="M58 26h2v1h-2v-1z" fill="rgb(117,29,29)"/>
<path d="M64 26h1v1h-1v-1z" fill="rgb(133,86,33)"/>
<path d="M66 26h1v1h-1v-1z" fill="rgb(181,156,45)"/>
<path d="M68 26h1v1h-1v-1z" fill="rgb(181,156,45)"/>
<path d="M70 26h1v1h-1v-1z" fill="rgb(181,156,45)"/>
<path d="M72 26h1v1h-1v-1z" fill="rgb(133,86,33)"/>
<path d="M74 26h1v1h-1v-1z" fill="rgb(181,156,45)"/>
<path d="M81 26h1v1h-1v-1z" fill="rgb(73,52,28)"/>
<path d="M82 26h3v1h-3v-1z" fill="rgb(110,78,41)"/>
<path d="M85 26h1v1h9v1h-14v-1h4v-1z" fill="rgb(86,56,31)"/>
<path d="M86 26h8v1h-8v-1z" fill="rgb(110,78,41)"/>
<path d="M94 26h1v1h-1v-1z" fill="rgb(73,52,28)"/>
<path d="M100 26h1v1h-1v-1z" fill="rgb(181,156,45)"/>
<path d="M102 26h1v1h-1v-1z" fill="rgb(181,156,45)"/>
<path d="M104 26h1v1h-1v-1z" fill="rgb(133,86,33)"/>
<path d="M106 26h1v1h-1v-1z" fill="rgb(181,156,45)"/>
<path d="M108 26h1v1h-1v-1z" fill="rgb(181,156,45)"/>
<path d="M110 26h1v1h-1v-1z" fill="rgb(181,156,45)"/>
<path d="M0 27h1v1h-1v-1z" fill="rgb(153,101,38)"/>
<path d="M1 27h1v2h-1v1h-1v-2h1v-1z" fill="rgb(133,86,33)"/>
<path d="M2 27h1v1h-1v-1z" fill="rgb(199,191,80)"/>
<path d="M3 27h1v1h1v-1h1v1h1v-1h1v4h-6v-3h1v-1z" fill="rgb(181,156,45)"/>
<path d="M4 27h1v1h-1v-1z" fill="rgb(199,191,80)"/>
<path d="M6 27h1v1h-1v-1z" fill="rgb(199,191,80)"/>
<path d="M8 27h1v1h-1v-1z" fill="rgb(153,101,38)"/>
<path d="M9 27h1v2h-1v1h-1v-2h1v-1z" fill="rgb(133,86,33)"/>
<path d="M10 27h1v1h-1v-1z" fill="rgb(199,191,80)"/>
<path d="M11 27h1v1h1v-1h1v1h1v-1h1v4h-6v-3h1v-1z" fill="rgb(181,156,45)"/>
<path d="M12 27h1v1h-1v-1z" fill="rgb(199,191,80)"/>
<path d="M14 27h1v1h-1v-1z" fill="rgb(199,191,80)"/>
<path d="M16 27h1v1h-1v-1z" fill="rgb(153,101,38)"/>
<path d="M17 27h3v1h-3v-1z" fill="rgb(117,29,29)"/>
<path d="M20 27h1v1h-1v-1z" fill="rgb(199,191,80)"/>
<path d="M21 27h1v1h1v-1h1v4h-6v-3h3v-1z" fill="rgb(181,156,45)"/>
<path d="M22 27h1v1h-1v-1z" fill="rgb(199,191,80)"/>
<path d="M24 27h1v1h-1v-1z" fill="rgb(153,101,38)"/>
<path d="M25 27h1v2h-1v1h-1v-2h1v-1z" fill="rgb(133,86,33)"/>
<path d="M26 27h1v1h-1v-1z" fill="rgb(199,191,80)"/>
<path d="M27 27h1v1h1v-1h1v1h1v-1h1v4h-6v-3h1v-1z" fill="rgb(181,156,45)"/>
<path d="M28 27h1v1h-1v-1z" fill="rgb(199,191,80)"/>
<path d="M30 27h1v1h-1v-1z" fill="rgb(199,191,80)"/>
<path d="M32 27h1v1h-1v-1z" fill="rgb(153,101,38)"/>
<path d="M33 27h1v2h-1v1h-1v-2h1v-1z" fill="rgb(133,86,33)"/>
<path d="M34 27h1v1h-1v-1z" fill="rgb(199,191,80)"/>
<path d="M35 27h1v1h1v-1h1v1h1v-1h1v4h-6v-3h1v-1z" fill="rgb(181,156,45)"/>
<path d="M36 27h1v1h-1v-1z" fill="rgb(199,191,80)"/>
<path d="M38 27h1v1h-1v-1z" fill="rgb(199,191,80)"/>
<path d="M40 27h1v1h-1v-1z" fill="rgb(153,101,38)"/>
<path d="M41 27h1v2h-1v1h-1v-2h1v-1z" fill="rgb(133,86,33)"/>
<path d="M42 27h1v1h-1v-1z" fill="rgb(199,191,80)"/>
<path d="M43 27h1v1h1v-1h1v1h1v-1h1v4h-6v-3h1v-1z" fill="rgb(181,156,45)"/>
<path d="M44 27h1v1h-1v-1z" fill="rgb(199,191,80)"/>
<path d="M46 27h1v1h-1v-1z" fill="rgb(199,191,80)"/>
<path d="M48 27h1v1h-1v-1z" fill="rgb(153,101,38)"/>
<path d="M49 27h1v2h-1v1h-1v-2h1v-1z" fill="rgb(133,86,33)"/>
<path d="M50 27h1v1h-1v-1z" fill="rgb(199,191,80)"/>
<path d="M51 27h1v1h1v-1h1v1h1v-1h1v4h-6v-3h1v-1z" fill="rgb(181,156,45)"/>
<path d="M52 27h1v1h-1v-1z" fill="rgb(199,191,80)"/>
<path d="M54 27h1v1h-1v-1z" fill="rgb(199,191,80)"/>
<path d="M56 27h1v1h-1v-1z" fill="rgb(153,101,38)"/>
<path d="M57 27h1v2h-1v1h-1v-2h1v-1z" fill="rgb(133,86,33)"/>
<path d="M58 27h1v1h-1v-1z" fill="rgb(199,191,80)"/>
<path d="M59 27h1v1h3v-1h1v4h-6v-3h1v-1z" fill="rgb(181,156,45)"/>
<path d="M60 27h3v1h-3v-1z" fill="rgb(117,29,29)"/>
<path d="M64 27h1v1h-1v-1z" fill="rgb(153,101,38)"/>
<path d="M65 27h1v2h-1v1h-1v-2h1v-1z" fill="rgb(133,86,33)"/>
<path d="M66 27h1v1h-1v-1z" fill="rgb(199,191,80)"/>
<path d="M67 27h1v1h1v-1h1v1h1v-1h1v4h-6v-3h1v-1z" fill="rgb(181,156,45)"/>
<path d="M68 27h1v1h-1v-1z" fill="rgb(199,191,80)"/>
<path d="M70 27h1v1h-1v-1z" fill="rgb(199,191,80)"/>
<path d="M72 27h1v1h-1v-1z" fill="rgb(153,101,38)"/>
<path d="M73 27h1v2h-1v1h-1v-2h1v-1z" fill="rgb(133,86,33)"/>
<path d="M74 27h1v1h-1v-1z" fill="rgb(199,191,80)"/>
<path d="M75 27h1v4h-2v-3h1v-1z" fill="rgb(181,156,45)"/>
<path d="M100 27h1v1h-1v-1z" fill="rgb(199,191,80)"/>
<path d="M101 27h1v1h1v-1h1v4h-4v-3h1v-1z" fill="rgb(181,156,45)"/>
<path d="M102 27h1v1h-1v-1z" fill="rgb(199,191,80)"/>
<path d="M104 27h1v1h-1v-1z" fill="rgb(153,101,38)"/>
<path d="M105 27h1v2h-1v1h-1v-2h1v-1z" fill="rgb(133,86,33)"/>
<path d="M106 27h1v1h-1v-1z" fill="rgb(199,191,80)"/>
<path d="M107 27h1v1h1v-1h1v1h1v-1h1v4h-6v-3h1v-1z" fill="rgb(181,156,45)"/>
<path d="M108 27h1v1h-1v-1z" fill="rgb(199,191,80)"/>
<path d="M110 27h1v1h-1v-1z" fill="rgb(199,191,80)"/>
<path d="M16 28h2v1h-1v1h-1v-2z" fill="rgb(133,86,33)"/>
<path d="M81 28h3v1h-2v1h-1v-2z" fill="rgb(102,68,29)"/>
<path d="M84 28h6v2h-8v-1h2v-1z" fill="rgb(127,84,35)"/>
<path d="M90 28h1v3h-10v-1h9v-2z" fill="rgb(136,97,51)"/>
<path d="M91 28h1v3h3v1h-6v3h15v-3h1v3h7v5h-106v3h2v1h-8v-1h5v-3h-5v-1h15v-3h-15v-1h8v-3
	h1v3h15v-3h1v3h15v-3h1v3h15v-3h1v3h15v-3h1v3h15v-3h-7v-1h10v-3z" fill="rgb(106,69,38)"/>
<path d="M92 28h3v2h-1v-1h-2v-1z" fill="rgb(102,68,29)"/>
<path d="M1 29h1v2h-2v-1h1v-1z" fill="rgb(117,29,29)"/>
<path d="M9 29h1v2h-2v-1h1v-1z" fill="rgb(117,29,29)"/>
<path d="M17 29h1v2h-2v-1h1v-1z" fill="rgb(117,29,29)"/>
<path d="M25 29h1v2h-2v-1h1v-1z" fill="rgb(117,29,29)"/>
<path d="M33 29h1v2h-2v-1h1v-1z" fill="rgb(117,29,29)"/>
<path d="M41 29h1v2h-2v-1h1v-1z" fill="rgb(117,29,29)"/>
<path d="M49 29h1v2h-2v-1h1v-1z" fill="rgb(117,29,29)"/>
<path d="M57 29h1v2h-2v-1h1v-1z" fill="rgb(117,29,29)"/>
<path d="M65 29h1v2h-2v-1h1v-1z" fill="rgb(117,29,29)"/>
<path d="M73 29h1v2h-2v-1h1v-1z" fill="rgb(117,29,29)"/>
<path d="M92 29h2v1h-2v-1z" fill="rgb(127,84,35)"/>
<path d="M105 29h1v2h-2v-1h1v-1z" fill="rgb(117,29,29)"/>
<path d="M92 30h3v1h-3v-1z" fill="rgb(136,97,51)"/>
<path d="M0 31h2v1h-2v-1z" fill="rgb(100,25,25)"/>
<path d="M2 31h6v1h-6v-1z" fill="rgb(154,133,38)"/>
<path d="M8 31h2v1h-2v-1z" fill="rgb(100,25,25)"/>
<path d="M10 31h6v1h-6v-1z" fill="rgb(154,133,38)"/>
<path d="M16 31h2v1h-2v-1z" fill="rgb(100,25,25)"/>
<path d="M18 31h6v1h-6v-1z" fill="rgb(154,133,38)"/>
<path d="M24 31h2v1h-2v-1z" fill="rgb(100,25,25)"/>
<path d="M26 31h6v1h-6v-1z" fill="rgb(154,133,38)"/>
<path d="M32 31h2v1h-2v-1z" fill="rgb(100,25,25)"/>
<path d="M34 31h6v1h-6v-1z" fill="rgb(154,133,38)"/>
<path d="M40 31h2v1h-2v-1z" fill="rgb(100,25,25)"/>
<path d="M42 31h6v1h-6v-1z" fill="rgb(154,133,38)"/>
<path d="M48 31h2v1h-2v-1z" fill="rgb(100,25,25)"/>
<path d="M50 31h6v1h-6v-1z" fill="rgb(154,133,38)"/>
<path d="M56 31h2v1h-2v-1z" fill="rgb(100,25,25)"/>
<path d="M58 31h6v1h-6v-1z" fill="rgb(154,133,38)"/>
<path d="M64 31h2v1h-2v-1z" fill="rgb(100,25,25)"/>
<path d="M66 31h6v1h-6v-1z" fill="rgb(154,133,38)"/>
<path d="M72 31h2v1h-2v-1z" fill="rgb(100,25,25)"/>
<path d="M74 31h2v1h-2v-1z" fill="rgb(154,133,38)"/>
<path d="M100 31h4v1h-4v-1z" fill="rgb(154,133,38)"/>
<path d="M104 31h2v1h-2v-1z" fill="rgb(100,25,25)"/>
<path d="M106 31h6v1h-6v-1z" fill="rgb(154,133,38)"/>
<path d="M0 32h7v2h-7v-2z" fill="rgb(127,84,35)"/>
<path d="M7 32h1v3h-8v-1h7v-2z" fill="rgb(136,97,51)"/>
<path d="M9 32h14v2h-14v-2z" fill="rgb(127,84,35)"/>
<path d="M23 32h1v3h-15v-1h14v-2z" fill="rgb(136,97,51)"/>
<path d="M25 32h14v2h-14v-2z" fill="rgb(127,84,35)"/>
<path d="M39 32h1v3h-15v-1h14v-2z" fill="rgb(136,97,51)"/>
<path d="M41 32h14v2h-14v-2z" fill="rgb(127,84,35)"/>
<path d="M55 32h1v3h-15v-1h14v-2z" fill="rgb(136,97,51)"/>
<path d="M57 32h14v2h-14v-2z" fill="rgb(127,84,35)"/>
<path d="M71 32h1v3h-15v-1h14v-2z" fill="rgb(136,97,51)"/>
<path d="M73 32h14v2h-14v-2z" fill="rgb(127,84,35)"/>
<path d="M87 32h1v3h-15v-1h14v-2z" fill="rgb(136,97,51)"/>
<path d="M89 32h14v2h-14v-2z" fill="rgb(127,84,35)"/>
<path d="M103 32h1v3h-15v-1h14v-2z" fill="rgb(136,97,51)"/>
<path d="M105 32h7v2h-7v-2z" fill="rgb(127,84,35)"/>
<path d="M105 34h7v1h-7v-1z" fill="rgb(136,97,51)"/>
<path d="M0 36h14v2h-14v-2z" fill="rgb(127,84,35)"/>
<path d="M14 36h1v3h-15v-1h14v-2z" fill="rgb(136,97,51)"/>
<path d="M16 36h14v2h-14v-2z" fill="rgb(127,84,35)"/>
<path d="M30 36h1v3h-15v-1h14v-2z" fill="rgb(136,97,51)"/>
<path d="M32 36h14v2h-14v-2z" fill="rgb(127,84,35)"/>
<path d="M46 36h1v3h-15v-1h14v-2z" fill="rgb(136,97,51)"/>
<path d="M48 36h14v2h-14v-2z" fill="rgb(127,84,35)"/>
<path d="M62 36h1v3h-15v-1h14v-2z" fill="rgb(136,97,51)"/>
<path d="M64 36h14v2h-14v-2z" fill="rgb(127,84,35)"/>
<path d="M78 36h1v3h-15v-1h14v-2z" fill="rgb(136,97,51)"/>
<path d="M80 36h14v2h-14v-2z" fill="rgb(127,84,35)"/>
<path d="M94 36h1v3h-15v-1h14v-2z" fill="rgb(136,97,51)"/>
<path d="M96 36h14v2h-14v-2z" fill="rgb(127,84,35)"/>
<path d="M110 36h1v3h-15v-1h14v-2z" fill="rgb(136,97,51)"/>
<path d="M0 40h4v2h-4v-2z" fill="rgb(127,84,35)"/>
<path d="M4 40h1v3h-5v-1h4v-2z" fill="rgb(136,97,51)"/>
<path d="M6 40h2v2h-2v-2z" fill="rgb(127,84,35)"/>
<path d="M8 40h12v2h-12v-2z" fill="rgb(169,112,47)"/>
<path d="M20 40h1v3h-13v-1h12v-2z" fill="rgb(182,129,68)"/>
<path d="M21 40h1v3h15v-3h1v3h15v-3h1v3h15v-3h1v3h15v-3h1v3h15v-3h1v3h10v1h-4v3h4v1h-7v3
	h7v5h-10v3h10v1h-4v3h4v1h-7v3h7v5h-10v3h10v1h-4v3h4v1h-7v3h7v5h-10v3h10v1h-4v3
	h4v1h-7v3h7v5h-10v3h10v1h-4v3h4v1h-104v-1h3v-3h-3v-1h13v-3h-13v-1h7v-3h-7v-5h3
	v-3h-3v-1h13v-3h-13v-1h7v-3h-7v-5h3v-3h-3v-1h13v-3h-13v-1h7v-3h-7v-5h3v-3h-3
	v-1h13v-3h-13v-1h7v-3h-7v-5h3v-3h-3v-1h13v-3z" fill="rgb(142,92,51)"/>
<path d="M22 40h14v2h-14v-2z" fill="rgb(169,112,47)"/>
<path d="M36 40h1v3h-15v-1h14v-2z" fill="rgb(182,129,68)"/>
<path d="M38 40h14v2h-14v-2z" fill="rgb(169,112,47)"/>
<path d="M52 40h1v3h-15v-1h14v-2z" fill="rgb(182,129,68)"/>
<path d="M54 40h14v2h-14v-2z" fill="rgb(169,112,47)"/>
<path d="M68 40h1v3h-15v-1h14v-2z" fill="rgb(182,129,68)"/>
<path d="M70 40h14v2h-14v-2z" fill="rgb(169,112,47)"/>
<path d="M84 40h1v3h-15v-1h14v-2z" fill="rgb(182,129,68)"/>
<path d="M86 40h14v2h-14v-2z" fill="rgb(169,112,47)"/>
<path d="M100 40h1v3h-15v-1h14v-2z" fill="rgb(182,129,68)"/>
<path d="M102 40h10v2h-10v-2z" fill="rgb(169,112,47)"/>
<path d="M6 42h2v1h-2v-1z" fill="rgb(136,97,51)"/>
<path d="M102 42h10v1h-10v-1z" fill="rgb(182,129,68)"/>
<path d="M0 44h8v2h-8v-2z" fill="rgb(127,84,35)"/>
<path d="M8 44h2v2h-2v-2z" fill="rgb(169,112,47)"/>
<path d="M10 44h1v3h-3v-1h2v-2z" fill="rgb(182,129,68)"/>
<path d="M12 44h14v2h-14v-2z" fill="rgb(169,112,47)"/>
<path d="M26 44h1v3h-15v-1h14v-2z" fill="rgb(182,129,68)"/>
<path d="M28 44h14v2h-14v-2z" fill="rgb(169,112,47)"/>
<path d="M42 44h1v3h-15v-1h14v-2z" fill="rgb(182,129,68)"/>
<path d="M44 44h14v2h-14v-2z" fill="rgb(169,112,47)"/>
<path d="M58 44h1v3h-15v-1h14v-2z" fill="rgb(182,129,68)"/>
<path d="M60 44h14v2h-14v-2z" fill="rgb(169,112,47)"/>
<path d="M74 44h1v3h-15v-1h14v-2z" fill="rgb(182,129,68)"/>
<path d="M76 44h14v2h-14v-2z" fill="rgb(169,112,47)"/>
<path d="M90 44h1v3h-15v-1h14v-2z" fill="rgb(182,129,68)"/>
<path d="M92 44h14v2h-14v-2z" fill="rgb(169,112,47)"/>
<path d="M106 44h1v3h-15v-1h14v-2z" fill="rgb(182,129,68)"/>
<path d="M108 44h4v2h-4v-2z" fill="rgb(169,112,47)"/>
<path d="M0 46h8v1h-8v-1z" fill="rgb(136,97,51)"/>
<path d="M108 46h4v1h-4v-1z" fill="rgb(182,129,68)"/>
<path d="M0 47h8v1h-8v-1z" fill="rgb(106,69,38)"/>
<path d="M0 48h7v2h-7v-2z" fill="rgb(127,84,35)"/>
<path d="M7 48h1v3h-8v-1h7v-2z" fill="rgb(136,97,51)"/>
<path d="M9 48h14v2h-14v-2z" fill="rgb(169,112,47)"/>
<path d="M23 48h1v3h-15v-1h14v-2z" fill="rgb(182,129,68)"/>
<path d="M25 48h14v2h-14v-2z" fill="rgb(169,112,47)"/>
<path d="M39 48h1v3h-15v-1h14v-2z" fill="rgb(182,129,68)"/>
<path d="M41 48h14v2h-14v-2z" fill="rgb(169,112,47)"/>
<path d="M55 48h1v3h-15v-1h14v-2z" fill="rgb(182,129,68)"/>
<path d="M57 48h14v2h-14v-2z" fill="rgb(169,112,47)"/>
<path d="M71 48h1v3h-15v-1h14v-2z" fill="rgb(182,129,68)"/>
<path d="M73 48h14v2h-14v-2z" fill="rgb(169,112,47)"/>
<path d="M87 48h1v3h-15v-1h14v-2z" fill="rgb(182,129,68)"/>
<path d="M89 48h14v2h-14v-2z" fill="rgb(169,112,47)"/>
<path d="M103 48h1v3h-15v-1h14v-2z" fill="rgb(182,129,68)"/>
<path d="M105 48h7v2h-7v-2z" fill="rgb(169,112,47)"/>
<path d="M105 50h7v1h-7v-1z" fill="rgb(182,129,68)"/>
<path d="M0 51h8v1h-8v-1z" fill="rgb(106,69,38)"/>
<path d="M0 52h8v2h-8v-2z" fill="rgb(127,84,35)"/>
<path d="M8 52h6v2h-6v-2z" fill="rgb(169,112,47)"/>
<path d="M14 52h1v3h-7v-1h6v-2z" fill="rgb(182,129,68)"/>
<path d="M16 52h14v2h-14v-2z" fill="rgb(169,112,47)"/>
<path d="M30 52h1v3h-15v-1h14v-2z" fill="rgb(182,129,68)"/>
<path d="M32 52h14v2h-14v-2z" fill="rgb(169,112,47)"/>
<path d="M46 52h1v3h-15v-1h14v-2z" fill="rgb(182,129,68)"/>
<path d="M48 52h14v2h-14v-2z" fill="rgb(169,112,47)"/>
<path d="M62 52h1v3h-15v-1h14v-2z" fill="rgb(182,129,68)"/>
<path d="M64 52h14v2h-14v-2z" fill="rgb(169,112,47)"/>
<path d="M78 52h1v3h-15v-1h14v-2z" fill="rgb(182,129,68)"/>
<path d="M80 52h14v2h-14v-2z" fill="rgb(169,112,47)"/>
<path d="M94 52h1v3h-15v-1h14v-2z" fill="rgb(182,129,68)"/>
<path d="M96 52h14v2h-14v-2z" fill="rgb(169,112,47)"/>
<path d="M110 52h1v3h-15v-1h14v-2z" fill="rgb(182,129,68)"/>
<path d="M0 54h8v1h-8v-1z" fill="rgb(136,97,51)"/>
<path d="M0 55h8v1h-2v3h2v1h-8v-1h5v-3h-5v-1z" fill="rgb(106,69,38)"/>
<path d="M0 56h4v2h-4v-2z" fill="rgb(127,84,35)"/>
<path d="M4 56h1v3h-5v-1h4v-2z" fill="rgb(136,97,51)"/>
<path d="M6 56h2v2h-2v-2z" fill="rgb(127,84,35)"/>
<path d="M8 56h12v2h-12v-2z" fill="rgb(169,112,47)"/>
<path d="M20 56h1v3h-13v-1h12v-2z" fill="rgb(182,129,68)"/>
<path d="M22 56h14v1h-4v1h-10v-2z" fill="rgb(169,112,47)"/>
<path d="M36 56h1v1h-1v-1z" fill="rgb(182,129,68)"/>
<path d="M38 56h14v1h-14v-1z" fill="rgb(169,112,47)"/>
<path d="M52 56h1v1h-1v-1z" fill="rgb(182,129,68)"/>
<path d="M54 56h14v2h-4v-1h-10v-1z" fill="rgb(169,112,47)"/>
<path d="M68 56h1v3h-4v-1h3v-2z" fill="rgb(182,129,68)"/>
<path d="M70 56h14v2h-14v-2z" fill="rgb(169,112,47)"/>
<path d="M84 56h1v3h-15v-1h14v-2z" fill="rgb(182,129,68)"/>
<path d="M86 56h14v2h-14v-2z" fill="rgb(169,112,47)"/>
<path d="M100 56h1v3h-15v-1h14v-2z" fill="rgb(182,129,68)"/>
<path d="M102 56h10v2h-10v-2z" fill="rgb(169,112,47)"/>
<path d="M32 57h32v1h-32v-1z" fill="rgb(122,73,34)"/>
<path d="M6 58h2v1h-2v-1z" fill="rgb(136,97,51)"/>
<path d="M22 58h9v1h-9v-1z" fill="rgb(182,129,68)"/>
<path d="M31 58h1v4h-1v-4z" fill="rgb(122,73,34)"/>
<path d="M32 58h3v2h-3v-2z" fill="rgb(155,90,53)"/>
<path d="M35 58h26v2h-26v-2z" fill="rgb(181,156,45)"/>
<path d="M61 58h3v2h-3v-2z" fill="rgb(155,90,53)"/>
<path d="M64 58h1v4h-1v-4z" fill="rgb(122,73,34)"/>
<path d="M102 58h10v1h-10v-1z" fill="rgb(182,129,68)"/>
<path d="M30 59h1v1h-1v-1z" fill="rgb(106,69,38)"/>
<path d="M65 59h1v1h-1v-1z" fill="rgb(106,69,38)"/>
<path d="M0 60h8v2h-8v-2z" fill="rgb(127,84,35)"/>
<path d="M8 60h2v2h-2v-2z" fill="rgb(169,112,47)"/>
<path d="M10 60h1v3h-3v-1h2v-2z" fill="rgb(182,129,68)"/>
<path d="M12 60h14v2h-14v-2z" fill="rgb(169,112,47)"/>
<path d="M26 60h1v3h-15v-1h14v-2z" fill="rgb(182,129,68)"/>
<path d="M28 60h2v2h-2v-2z" fill="rgb(169,112,47)"/>
<path d="M30 60h1v2h-1v-2z" fill="rgb(127,84,35)"/>
<path d="M32 60h3v20h-3v-20z" fill="rgb(181,156,45)"/>
<path d="M35 60h26v20h-26v-20z" fill="rgb(199,191,80)"/>
<path d="M61 60h3v20h-3v-20z" fill="rgb(181,156,45)"/>
<path d="M65 60h2v2h-2v-2z" fill="rgb(127,84,35)"/>
<path d="M67 60h7v2h-7v-2z" fill="rgb(169,112,47)"/>
<path d="M74 60h1v3h-8v-1h7v-2z" fill="rgb(182,129,68)"/>
<path d="M76 60h14v2h-14v-2z" fill="rgb(169,112,47)"/>
<path d="M90 60h1v3h-15v-1h14v-2z" fill="rgb(182,129,68)"/>
<path d="M92 60h14v2h-14v-2z" fill="rgb(169,112,47)"/>
<path d="M106 60h1v3h-15v-1h14v-2z" fill="rgb(182,129,68)"/>
<path d="M108 60h4v2h-4v-2z" fill="rgb(169,112,47)"/>
<path d="M0 62h8v1h-8v-1z" fill="rgb(136,97,51)"/>
<path d="M28 62h2v1h-2v-1z" fill="rgb(182,129,68)"/>
<path d="M30 62h1v1h-1v-1z" fill="rgb(136,97,51)"/>
<path d="M31 62h1v24h-1v-24z" fill="rgb(96,51,15)"/>
<path d="M64 62h1v24h-1v-24z" fill="rgb(96,51,15)"/>
<path d="M65 62h2v1h-2v-1z" fill="rgb(136,97,51)"/>
<path d="M108 62h4v1h-4v-1z" fill="rgb(182,129,68)"/>
<path d="M0 63h8v1h-8v-1z" fill="rgb(106,69,38)"/>
<path d="M30 63h1v1h-1v-1z" fill="rgb(106,69,38)"/>
<path d="M65 63h2v1h-2v-1z" fill="rgb(106,69,38)"/>
<path d="M0 64h7v2h-7v-2z" fill="rgb(127,84,35)"/>
<path d="M7 64h1v3h-8v-1h7v-2z" fill="rgb(136,97,51)"/>
<path d="M9 64h14v2h-14v-2z" fill="rgb(169,112,47)"/>
<path d="M23 64h1v3h-15v-1h14v-2z" fill="rgb(182,129,68)"/>
<path d="M25 64h5v2h-5v-2z" fill="rgb(169,112,47)"/>
<path d="M30 64h1v2h-1v-2z" fill="rgb(127,84,35)"/>
<path d="M65 64h2v2h-2v-2z" fill="rgb(127,84,35)"/>
<path d="M67 64h4v2h-4v-2z" fill="rgb(169,112,47)"/>
<path d="M71 64h1v3h-5v-1h4v-2z" fill="rgb(182,129,68)"/>
<path d="M73 64h14v2h-14v-2z" fill="rgb(169,112,47)"/>
<path d="M87 64h1v3h-15v-1h14v-2z" fill="rgb(182,129,68)"/>
<path d="M89 64h14v2h-14v-2z" fill="rgb(169,112,47)"/>
<path d="M103 64h1v3h-15v-1h14v-2z" fill="rgb(182,129,68)"/>
<path d="M105 64h7v2h-7v-2z" fill="rgb(169,112,47)"/>
<path d="M25 66h5v1h-5v-1z" fill="rgb(182,129,68)"/>
<path d="M30 66h1v1h-1v-1z" fill="rgb(136,97,51)"/>
<path d="M65 66h2v1h-2v-1z" fill="rgb(136,97,51)"/>
<path d="M105 66h7v1h-7v-1z" fill="rgb(182,129,68)"/>
<path d="M0 67h8v1h-8v-1z" fill="rgb(106,69,38)"/>
<path d="M30 67h1v1h-1v-1z" fill="rgb(106,69,38)"/>
<path d="M65 67h2v1h-2v-1z" fill="rgb(106,69,38)"/>
<path d="M0 68h8v2h-8v-2z" fill="rgb(127,84,35)"/>
<path d="M8 68h6v2h-6v-2z" fill="rgb(169,112,47)"/>
<path d="M14 68h1v3h-7v-1h6v-2z" fill="rgb(182,129,68)"/>
<path d="M16 68h14v2h-14v-2z" fill="rgb(169,112,47)"/>
<path d="M30 68h1v3h-1v-3z" fill="rgb(136,97,51)"/>
<path d="M65 68h2v2h-2v-2z" fill="rgb(127,84,35)"/>
<path d="M67 68h11v2h-11v-2z" fill="rgb(169,112,47)"/>
<path d="M78 68h1v3h-12v-1h11v-2z" fill="rgb(182,129,68)"/>
<path d="M80 68h14v2h-14v-2z" fill="rgb(169,112,47)"/>
<path d="M94 68h1v3h-15v-1h14v-2z" fill="rgb(182,129,68)"/>
<path d="M96 68h14v2h-14v-2z" fill="rgb(169,112,47)"/>
<path d="M110 68h1v3h-15v-1h14v-2z" fill="rgb(182,129,68)"/>
<path d="M0 70h8v1h-8v-1z" fill="rgb(136,97,51)"/>
<path d="M16 70h14v1h-14v-1z" fill="rgb(182,129,68)"/>
<path d="M65 70h2v1h-2v-1z" fill="rgb(136,97,51)"/>
<path d="M0 71h8v1h-2v3h2v1h-8v-1h5v-3h-5v-1z" fill="rgb(106,69,38)"/>
<path d="M30 71h1v1h-1v-1z" fill="rgb(106,69,38)"/>
<path d="M65 71h2v1h-2v-1z" fill="rgb(106,69,38)"/>
<path d="M0 72h4v2h-4v-2z" fill="rgb(127,84,35)"/>
<path d="M4 72h1v3h-5v-1h4v-2z" fill="rgb(136,97,51)"/>
<path d="M6 72h2v2h-2v-2z" fill="rgb(127,84,35)"/>
<path d="M8 72h12v2h-12v-2z" fill="rgb(169,112,47)"/>
<path d="M20 72h1v3h-13v-1h12v-2z" fill="rgb(182,129,68)"/>
<path d="M22 72h8v2h-8v-2z" fill="rgb(169,112,47)"/>
<path d="M30 72h1v2h-1v-2z" fill="rgb(127,84,35)"/>
<path d="M65 72h2v2h-2v-2z" fill="rgb(127,84,35)"/>
<path d="M67 72h1v2h-1v-2z" fill="rgb(169,112,47)"/>
<path d="M68 72h1v3h-2v-1h1v-2z" fill="rgb(182,129,68)"/>
<path d="M70 72h14v2h-14v-2z" fill="rgb(169,112,47)"/>
<path d="M84 72h1v3h-15v-1h14v-2z" fill="rgb(182,129,68)"/>
<path d="M86 72h14v2h-14v-2z" fill="rgb(169,112,47)"/>
<path d="M100 72h1v3h-15v-1h14v-2z" fill="rgb(182,129,68)"/>
<path d="M102 72h10v2h-10v-2z" fill="rgb(169,112,47)"/>
<path d="M6 74h2v1h-2v-1z" fill="rgb(136,97,51)"/>
<path d="M22 74h8v1h-8v-1z" fill="rgb(182,129,68)"/>
<path d="M30 74h1v1h-1v-1z" fill="rgb(136,97,51)"/>
<path d="M65 74h2v1h-2v-1z" fill="rgb(136,97,51)"/>
<path d="M102 74h10v1h-10v-1z" fill="rgb(182,129,68)"/>
<path d="M30 75h1v1h-1v-1z" fill="rgb(106,69,38)"/>
<path d="M65 75h2v1h-2v-1z" fill="rgb(106,69,38)"/>
<path d="M0 76h8v2h-8v-2z" fill="rgb(127,84,35)"/>
<path d="M8 76h2v2h-2v-2z" fill="rgb(169,112,47)"/>
<path d="M10 76h1v3h-3v-1h2v-2z" fill="rgb(182,129,68)"/>
<path d="M12 76h14v2h-14v-2z" fill="rgb(169,112,47)"/>
<path d="M26 76h1v3h-15v-1h14v-2z" fill="rgb(182,129,68)"/>
<path d="M28 76h2v2h-2v-2z" fill="rgb(169,112,47)"/>
<path d="M30 76h1v2h-1v-2z" fill="rgb(127,84,35)"/>
<path d="M65 76h2v2h-2v-2z" fill="rgb(127,84,35)"/>
<path d="M67 76h7v2h-7v-2z" fill="rgb(169,112,47)"/>
<path d="M74 76h1v3h-8v-1h7v-2z" fill="rgb(182,129,68)"/>
<path d="M76 76h14v2h-14v-2z" fill="rgb(169,112,47)"/>
<path d="M90 76h1v3h-15v-1h14v-2z" fill="rgb(182,129,68)"/>
<path d="M92 76h14v2h-14v-2z" fill="rgb(169,112,47)"/>
<path d="M106 76h1v3h-15v-1h14v-2z" fill="rgb(182,129,68)"/>
<path d="M108 76h4v2h-4v-2z" fill="rgb(169,112,47)"/>
<path d="M0 78h8v1h-8v-1z" fill="rgb(136,97,51)"/>
<path d="M28 78h2v1h-2v-1z" fill="rgb(182,129,68)"/>
<path d="M30 78h1v1h-1v-1z" fill="rgb(136,97,51)"/>
<path d="M65 78h2v1h-2v-1z" fill="rgb(136,97,51)"/>
<path d="M108 78h4v1h-4v-1z" fill="rgb(182,129,68)"/>
<path d="M0 79h8v1h-8v-1z" fill="rgb(106,69,38)"/>
<path d="M30 79h1v1h-1v-1z" fill="rgb(106,69,38)"/>
<path d="M65 79h2v1h-2v-1z" fill="rgb(106,69,38)"/>
<path d="M0 80h7v2h-7v-2z" fill="rgb(127,84,35)"/>
<path d="M7 80h1v3h-8v-1h7v-2z" fill="rgb(136,97,51)"/>
<path d="M9 80h14v2h-14v-2z" fill="rgb(169,112,47)"/>
<path d="M23 80h1v3h-15v-1h14v-2z" fill="rgb(182,129,68)"/>
<path d="M25 80h5v2h-5v-2z" fill="rgb(169,112,47)"/>
<path d="M30 80h1v2h-1v-2z" fill="rgb(127,84,35)"/>
<path d="M32 80h3v3h-3v-3z" fill="rgb(155,90,53)"/>
<path d="M35 80h26v3h-26v-3z" fill="rgb(181,156,45)"/>
<path d="M61 80h3v3h-3v-3z" fill="rgb(155,90,53)"/>
<path d="M65 80h2v2h-2v-2z" fill="rgb(127,84,35)"/>
<path d="M67 80h4v2h-4v-2z" fill="rgb(169,112,47)"/>
<path d="M71 80h1v3h-5v-1h4v-2z" fill="rgb(182,129,68)"/>
<path d="M73 80h14v2h-14v-2z" fill="rgb(169,112,47)"/>
<path d="M87 80h1v3h-15v-1h14v-2z" fill="rgb(182,129,68)"/>
<path d="M89 80h14v2h-14v-2z" fill="rgb(169,112,47)"/>
<path d="M103 80h1v3h-15v-1h14v-2z" fill="rgb(182,129,68)"/>
<path d="M105 80h7v2h-7v-2z" fill="rgb(169,112,47)"/>
<path d="M25 82h5v1h-5v-1z" fill="rgb(182,129,68)"/>
<path d="M30 82h1v1h-1v-1z" fill="rgb(136,97,51)"/>
<path d="M65 82h2v1h-2v-1z" fill="rgb(136,97,51)"/>
<path d="M105 82h7v1h-7v-1z" fill="rgb(182,129,68)"/>
<path d="M0 83h8v1h-8v-1z" fill="rgb(106,69,38)"/>
<path d="M30 83h1v1h-1v-1z" fill="rgb(106,69,38)"/>
<path d="M32 83h32v2h-32v-2z" fill="rgb(147,127,37)"/>
<path d="M65 83h2v1h-2v-1z" fill="rgb(106,69,38)"/>
<path d="M0 84h8v2h-8v-2z" fill="rgb(127,84,35)"/>
<path d="M8 84h6v2h-6v-2z" fill="rgb(169,112,47)"/>
<path d="M14 84h1v3h-7v-1h6v-2z" fill="rgb(182,129,68)"/>
<path d="M16 84h14v2h-14v-2z" fill="rgb(169,112,47)"/>
<path d="M30 84h1v2h-1v-2z" fill="rgb(136,97,51)"/>
<path d="M65 84h2v2h-2v-2z" fill="rgb(127,84,35)"/>
<path d="M67 84h11v2h-11v-2z" fill="rgb(169,112,47)"/>
<path d="M78 84h1v3h-12v-1h11v-2z" fill="rgb(182,129,68)"/>
<path d="M80 84h14v2h-14v-2z" fill="rgb(169,112,47)"/>
<path d="M94 84h1v3h-15v-1h14v-2z" fill="rgb(182,129,68)"/>
<path d="M96 84h14v2h-14v-2z" fill="rgb(169,112,47)"/>
<path d="M110 84h1v3h-15v-1h14v-2z" fill="rgb(182,129,68)"/>
<path d="M32 85h32v1h-4v2h-1v-2h-22v2h-1v-2h-4v-1z" fill="rgb(122,73,34)"/>
<path d="M0 86h8v1h-8v-1z" fill="rgb(136,97,51)"/>
<path d="M16 86h15v1h-15v-1z" fill="rgb(182,129,68)"/>
<path d="M31 86h1v2h-1v-2z" fill="rgb(106,69,38)"/>
<path d="M32 86h1v4h-1v-4z" fill="rgb(96,51,15)"/>
<path d="M33 86h3v2h-3v-2z" fill="rgb(142,92,51)"/>
<path d="M37 86h22v1h-22v-1z" fill="rgb(142,92,51)"/>
<path d="M60 86h3v2h-3v-2z" fill="rgb(142,92,51)"/>
<path d="M63 86h1v4h-1v-4z" fill="rgb(96,51,15)"/>
<path d="M64 86h3v1h-3v-1z" fill="rgb(136,97,51)"/>
<path d="M0 87h8v1h-2v3h2v1h-8v-1h5v-3h-5v-1z" fill="rgb(106,69,38)"/>
<path d="M37 87h22v1h-22v-1z" fill="rgb(96,51,15)"/>
<path d="M64 87h3v1h-3v-1z" fill="rgb(106,69,38)"/>
<path d="M0 88h4v2h-4v-2z" fill="rgb(127,84,35)"/>
<path d="M4 88h1v3h-5v-1h4v-2z" fill="rgb(136,97,51)"/>
<path d="M6 88h2v2h-2v-2z" fill="rgb(127,84,35)"/>
<path d="M8 88h12v2h-12v-2z" fill="rgb(169,112,47)"/>
<path d="M20 88h1v3h-13v-1h12v-2z" fill="rgb(182,129,68)"/>
<path d="M22 88h9v2h-9v-2z" fill="rgb(169,112,47)"/>
<path d="M31 88h1v2h-1v-2z" fill="rgb(127,84,35)"/>
<path d="M33 88h3v2h-3v-2z" fill="rgb(158,98,49)"/>
<path d="M36 88h1v2h-1v-2z" fill="rgb(96,51,15)"/>
<path d="M37 88h1v3h-1v-3z" fill="rgb(106,69,38)"/>
<path d="M38 88h14v2h-14v-2z" fill="rgb(127,84,35)"/>
<path d="M52 88h1v3h-15v-1h14v-2z" fill="rgb(136,97,51)"/>
<path d="M53 88h1v3h-1v-3z" fill="rgb(106,69,38)"/>
<path d="M54 88h5v2h-5v-2z" fill="rgb(127,84,35)"/>
<path d="M59 88h1v2h-1v-2z" fill="rgb(96,51,15)"/>
<path d="M60 88h3v2h-3v-2z" fill="rgb(158,98,49)"/>
<path d="M64 88h3v2h-3v-2z" fill="rgb(127,84,35)"/>
<path d="M67 88h1v2h-1v-2z" fill="rgb(169,112,47)"/>
<path d="M68 88h1v3h-3v-1h2v-2z" fill="rgb(182,129,68)"/>
<path d="M70 88h14v2h-14v-2z" fill="rgb(169,112,47)"/>
<path d="M84 88h1v3h-15v-1h14v-2z" fill="rgb(182,129,68)"/>
<path d="M86 88h14v2h-14v-2z" fill="rgb(169,112,47)"/>
<path d="M100 88h1v3h-15v-1h14v-2z" fill="rgb(182,129,68)"/>
<path d="M102 88h10v2h-10v-2z" fill="rgb(169,112,47)"/>
<path d="M6 90h2v1h-2v-1z" fill="rgb(136,97,51)"/>
<path d="M22 90h9v1h-9v-1z" fill="rgb(182,129,68)"/>
<path d="M31 90h2v1h-2v-1z" fill="rgb(136,97,51)"/>
<path d="M33 90h3v1h-3v-1z" fill="rgb(96,51,15)"/>
<path d="M36 90h1v1h-1v-1z" fill="rgb(136,97,51)"/>
<path d="M54 90h6v1h-6v-1z" fill="rgb(136,97,51)"/>
<path d="M60 90h3v1h-3v-1z" fill="rgb(96,51,15)"/>
<path d="M63 90h3v1h-3v-1z" fill="rgb(136,97,51)"/>
<path d="M102 90h10v1h-10v-1z" fill="rgb(182,129,68)"/>
<path d="M32 91h5v1h-5v-1z" fill="rgb(106,69,38)"/>
<path d="M59 91h6v1h-6v-1z" fill="rgb(106,69,38)"/>
<path d="M0 92h8v2h-8v-2z" fill="rgb(127,84,35)"/>
<path d="M8 92h2v2h-2v-2z" fill="rgb(169,112,47)"/>
<path d="M10 92h1v3h-3v-1h2v-2z" fill="rgb(182,129,68)"/>
<path d="M12 92h14v2h-14v-2z" fill="rgb(169,112,47)"/>
<path d="M26 92h1v3h-15v-1h14v-2z" fill="rgb(182,129,68)"/>
<path d="M28 92h5v1h3v-1h6v2h-14v-2z" fill="rgb(169,112,47)"/>
<path d="M33 92h3v1h-3v-1z" fill="rgb(127,84,35)"/>
<path d="M42 92h1v3h-15v-1h14v-2z" fill="rgb(182,129,68)"/>
<path d="M44 92h14v2h-14v-2z" fill="rgb(169,112,47)"/>
<path d="M58 92h1v3h-15v-1h14v-2z" fill="rgb(182,129,68)"/>
<path d="M60 92h4v1h-4v-1z" fill="rgb(127,84,35)"/>
<path d="M64 92h10v2h-14v-1h4v-1z" fill="rgb(169,112,47)"/>
<path d="M74 92h1v3h-15v-1h14v-2z" fill="rgb(182,129,68)"/>
<path d="M76 92h14v2h-14v-2z" fill="rgb(169,112,47)"/>
<path d="M90 92h1v3h-15v-1h14v-2z" fill="rgb(182,129,68)"/>
<path d="M92 92h14v2h-14v-2z" fill="rgb(169,112,47)"/>
<path d="M106 92h1v3h-15v-1h14v-2z" fill="rgb(182,129,68)"/>
<path d="M108 92h4v2h-4v-2z" fill="rgb(169,112,47)"/>
<path d="M0 94h8v1h-8v-1z" fill="rgb(136,97,51)"/>
<path d="M108 94h4v1h-4v-1z" fill="rgb(182,129,68)"/>
<path d="M0 95h8v1h-8v-1z" fill="rgb(106,69,38)"/>
<path d="M0 96h7v2h-7v-2z" fill="rgb(127,84,35)"/>
<path d="M7 96h1v3h-8v-1h7v-2z" fill="rgb(136,97,51)"/>
<path d="M9 96h14v2h-14v-2z" fill="rgb(169,112,47)"/>
<path d="M23 96h1v3h-15v-1h14v-2z" fill="rgb(182,129,68)"/>
<path d="M25 96h14v2h-14v-2z" fill="rgb(169,112,47)"/>
<path d="M39 96h1v3h-15v-1h14v-2z" fill="rgb(182,129,68)"/>
<path d="M41 96h14v2h-14v-2z" fill="rgb(169,112,47)"/>
<path d="M55 96h1v3h-15v-1h14v-2z" fill="rgb(182,129,68)"/>
<path d="M57 96h14v2h-14v-2z" fill="rgb(169,112,47)"/>
<path d="M71 96h1v3h-15v-1h14v-2z" fill="rgb(182,129,68)"/>
<path d="M73 96h14v2h-14v-2z" fill="rgb(169,112,47)"/>
<path d="M87 96h1v3h-15v-1h14v-2z" fill="rgb(182,129,68)"/>
<path d="M89 96h14v2h-14v-2z" fill="rgb(169,112,47)"/>
<path d="M103 96h1v3h-15v-1h14v-2z" fill="rgb(182,129,68)"/>
<path d="M105 96h7v2h-7v-2z" fill="rgb(169,112,47)"/>
<path d="M105 98h7v1h-7v-1z" fill="rgb(182,129,68)"/>
<path d="M0 99h8v1h-8v-1z" fill="rgb(106,69,38)"/>
<path d="M0 100h8v2h-8v-2z" fill="rgb(127,84,35)"/>
<path d="M8 100h6v2h-6v-2z" fill="rgb(169,112,47)"/>
<path d="M14 100h1v3h-7v-1h6v-2z" fill="rgb(182,129,68)"/>
<path d="M16 100h14v2h-14v-2z" fill="rgb(169,112,47)"/>
<path d="M30 100h1v3h-15v-1h14v-2z" fill="rgb(182,129,68)"/>
<path d="M32 100h14v2h-14v-2z" fill="rgb(169,112,47)"/>
<path d="M46 100h1v3h-15v-1h14v-2z" fill="rgb(182,129,68)"/>
<path d="M48 100h14v2h-14v-2z" fill="rgb(169,112,47)"/>
<path d="M62 100h1v3h-15v-1h14v-2z" fill="rgb(182,129,68)"/>
<path d="M64 100h14v2h-14v-2z" fill="rgb(169,112,47)"/>
<path d="M78 100h1v3h-15v-1h14v-2z" fill="rgb(182,129,68)"/>
<path d="M80 100h14v2h-14v-2z" fill="rgb(169,112,47)"/>
<path d="M94 100h1v3h-15v-1h14v-2z" fill="rgb(182,129,68)"/>
<path d="M96 100h14v2h-14v-2z" fill="rgb(169,112,47)"/>
<path d="M110 100h1v3h-15v-1h14v-2z" fill="rgb(182,129,68)"/>
<path d="M0 102h8v1h-8v-1z" fill="rgb(136,97,51)"/>
<path d="M0 103h8v1h-2v3h2v1h-8v-1h5v-3h-5v-1z" fill="rgb(106,69,38)"/>
<path d="M0 104h4v2h-4v-2z" fill="rgb(127,84,35)"/>
<path d="M4 104h1v3h-5v-1h4v-2z" fill="rgb(136,97,51)"/>
<path d="M6 104h2v2h-2v-2z" fill="rgb(127,84,35)"/>
<path d="M8 104h12v2h-12v-2z" fill="rgb(169,112,47)"/>
<path d="M20 104h1v3h-13v-1h12v-2z" fill="rgb(182,129,68)"/>
<path d="M22 104h14v2h-14v-2z" fill="rgb(169,112,47)"/>
<path d="M36 104h1v3h-15v-1h14v-2z" fill="rgb(182,129,68)"/>
<path d="M38 104h14v2h-14v-2z" fill="rgb(169,112,47)"/>
<path d="M52 104h1v3h-15v-1h14v-2z" fill="rgb(182,129,68)"/>
<path d="M54 104h14v2h-14v-2z" fill="rgb(169,112,47)"/>
<path d="M68 104h1v3h-15v-1h14v-2z" fill="rgb(182,129,68)"/>
<path d="M70 104h14v2h-14v-2z" fill="rgb(169,112,47)"/>
<path d="M84 104h1v3h-15v-1h14v-2z" fill="rgb(182,129,68)"/>
<path d="M86 104h14v2h-14v-2z" fill="rgb(169,112,47)"/>
<path d="M100 104h1v3h-15v-1h14v-2z" fill="rgb(182,129,68)"/>
<path d="M102 104h10v2h-10v-2z" fill="rgb(169,112,47)"/>
<path d="M6 106h2v1h-2v-1z" fill="rgb(136,97,51)"/>
<path d="M102 106h10v1h-10v-1z" fill="rgb(182,129,68)"/>
<path d="M0 108h8v2h-8v-2z" fill="rgb(127,84,35)"/>
<path d="M8 108h2v2h-2v-2z" fill="rgb(169,112,47)"/>
<path d="M10 108h1v3h-3v-1h2v-2z" fill="rgb(182,129,68)"/>
<path d="M12 108h14v2h-14v-2z" fill="rgb(169,112,47)"/>
<path d="M26 108h1v3h-15v-1h14v-2z" fill="rgb(182,129,68)"/>
<path d="M28 108h14v2h-14v-2z" fill="rgb(169,112,47)"/>
<path d="M42 108h1v3h-15v-1h14v-2z" fill="rgb(182,129,68)"/>
<path d="M44 108h14v2h-14v-2z" fill="rgb(169,112,47)"/>
<path d="M58 108h1v3h-15v-1h14v-2z" fill="rgb(182,129,68)"/>
<path d="M60 108h14v2h-14v-2z" fill="rgb(169,112,47)"/>
<path d="M74 108h1v3h-15v-1h14v-2z" fill="rgb(182,129,68)"/>
<path d="M76 108h14v2h-14v-2z" fill="rgb(169,112,47)"/>
<path d="M90 108h1v3h-15v-1h14v-2z" fill="rgb(182,129,68)"/>
<path d="M92 108h14v2h-14v-2z" fill="rgb(169,112,47)"/>
<path d="M106 108h1v3h-15v-1h14v-2z" fill="rgb(182,129,68)"/>
<path d="M108 108h4v2h-4v-2z" fill="rgb(169,112,47)"/>
<path d="M0 110h8v1h-8v-1z" fill="rgb(136,97,51)"/>
<path d="M108 110h4v1h-4v-1z" fill="rgb(182,129,68)"/>
<path d="M0 111h8v1h-8v-1z" fill="rgb(106,69,38)"/>
</svg>
