<?xml version="1.0" encoding="utf-8"?>
<!-- generated at drububu.com  -->
<!DOCTYPE svg PUBLIC "-//W3C//DTD SVG 1.1//EN" "http://www.w3.org/Graphics/SVG/1.1/DTD/svg11.dtd">
<svg version="1.1" preserveAspectRatio="xMinYMin meet" xmlns="http://www.w3.org/2000/svg" xmlns:xlink="http://www.w3.org/1999/xlink" x="0px" y="0px" width="144px" height="112px" viewBox="0 0 144 112">
<path d="M0 0h9v112h-9v-112z" fill="rgb(0,0,0)"/>
<path d="M9 0h126v112h-1v-111h-124v111h-1v-112z" fill="rgb(105,105,105)"/>
<path d="M135 0h9v112h-9v-112z" fill="rgb(0,0,0)"/>
<path d="M10 1h124v111h-5v-108h-114v108h-5v-111z" fill="rgb(255,255,255)"/>
<path d="M15 4h114v4h-1v-3h-112v3h-1v-4z" fill="rgb(181,181,181)"/>
<path d="M16 5h112v3h-112v-3z" fill="rgb(238,238,238)"/>
<path d="M15 8h114v104h-1v-103h-112v103h-1v-104z" fill="rgb(130,130,130)"/>
<path d="M16 9h2v1h-2v-1z" fill="rgb(117,29,29)"/>
<path d="M18 9h6v1h-6v-1z" fill="rgb(168,145,42)"/>
<path d="M24 9h2v1h-2v-1z" fill="rgb(117,29,29)"/>
<path d="M26 9h6v1h-6v-1z" fill="rgb(168,145,42)"/>
<path d="M32 9h2v1h-2v-1z" fill="rgb(117,29,29)"/>
<path d="M34 9h6v1h-6v-1z" fill="rgb(168,145,42)"/>
<path d="M40 9h2v1h-2v-1z" fill="rgb(117,29,29)"/>
<path d="M42 9h6v1h-6v-1z" fill="rgb(168,145,42)"/>
<path d="M48 9h2v1h-2v-1z" fill="rgb(117,29,29)"/>
<path d="M50 9h6v1h-6v-1z" fill="rgb(168,145,42)"/>
<path d="M56 9h2v1h-2v-1z" fill="rgb(117,29,29)"/>
<path d="M58 9h6v1h-6v-1z" fill="rgb(168,145,42)"/>
<path d="M64 9h2v1h-2v-1z" fill="rgb(117,29,29)"/>
<path d="M66 9h6v1h-6v-1z" fill="rgb(168,145,42)"/>
<path d="M72 9h2v1h-2v-1z" fill="rgb(117,29,29)"/>
<path d="M74 9h6v1h-6v-1z" fill="rgb(168,145,42)"/>
<path d="M80 9h2v1h-2v-1z" fill="rgb(117,29,29)"/>
<path d="M82 9h6v1h-6v-1z" fill="rgb(168,145,42)"/>
<path d="M88 9h2v1h-2v-1z" fill="rgb(117,29,29)"/>
<path d="M90 9h6v1h-6v-1z" fill="rgb(168,145,42)"/>
<path d="M96 9h2v1h-2v-1z" fill="rgb(117,29,29)"/>
<path d="M98 9h6v1h-6v-1z" fill="rgb(168,145,42)"/>
<path d="M104 9h2v1h-2v-1z" fill="rgb(117,29,29)"/>
<path d="M106 9h6v1h-6v-1z" fill="rgb(168,145,42)"/>
<path d="M112 9h2v1h-2v-1z" fill="rgb(117,29,29)"/>
<path d="M114 9h6v1h-6v-1z" fill="rgb(168,145,42)"/>
<path d="M120 9h2v1h-2v-1z" fill="rgb(117,29,29)"/>
<path d="M122 9h6v1h-6v-1z" fill="rgb(168,145,42)"/>
<path d="M16 10h2v6h-1v-1h-1v-5z" fill="rgb(133,86,33)"/>
<path d="M18 10h6v6h-1v-1h-1v1h-1v-1h-1v1h-1v-1h-1v-5z" fill="rgb(181,156,45)"/>
<path d="M24 10h2v6h-1v-1h-1v-5z" fill="rgb(133,86,33)"/>
<path d="M26 10h6v6h-1v-1h-1v1h-1v-1h-1v1h-1v-1h-1v-5z" fill="rgb(181,156,45)"/>
<path d="M32 10h2v6h-1v-1h-1v-5z" fill="rgb(133,86,33)"/>
<path d="M34 10h6v6h-1v-1h-1v1h-1v-1h-1v1h-1v-1h-1v-5z" fill="rgb(181,156,45)"/>
<path d="M40 10h2v6h-1v-1h-1v-5z" fill="rgb(133,86,33)"/>
<path d="M42 10h6v6h-1v-1h-1v1h-1v-1h-1v1h-1v-1h-1v-5z" fill="rgb(181,156,45)"/>
<path d="M48 10h2v6h-1v-1h-1v-5z" fill="rgb(133,86,33)"/>
<path d="M50 10h6v6h-1v-1h-1v1h-1v-1h-1v1h-1v-1h-1v-5z" fill="rgb(181,156,45)"/>
<path d="M56 10h2v6h-1v-1h-1v-5z" fill="rgb(133,86,33)"/>
<path d="M58 10h6v6h-1v-1h-1v1h-1v-1h-1v1h-1v-1h-1v-5z" fill="rgb(181,156,45)"/>
<path d="M64 10h2v6h-1v-1h-1v-5z" fill="rgb(133,86,33)"/>
<path d="M66 10h6v6h-1v-1h-1v1h-1v-1h-1v1h-1v-1h-1v-5z" fill="rgb(181,156,45)"/>
<path d="M72 10h2v6h-1v-1h-1v-5z" fill="rgb(133,86,33)"/>
<path d="M74 10h6v6h-1v-1h-1v1h-1v-1h-1v1h-1v-1h-1v-5z" fill="rgb(181,156,45)"/>
<path d="M80 10h2v6h-1v-1h-1v-5z" fill="rgb(133,86,33)"/>
<path d="M82 10h6v6h-1v-1h-1v1h-1v-1h-1v1h-1v-1h-1v-5z" fill="rgb(181,156,45)"/>
<path d="M88 10h2v6h-1v-1h-1v-5z" fill="rgb(133,86,33)"/>
<path d="M90 10h6v4h-3v1h-1v1h-1v-1h-1v-5z" fill="rgb(181,156,45)"/>
<path d="M96 10h2v4h-2v-4z" fill="rgb(133,86,33)"/>
<path d="M98 10h6v4h-6v-4z" fill="rgb(181,156,45)"/>
<path d="M104 10h2v4h-2v-4z" fill="rgb(133,86,33)"/>
<path d="M106 10h6v4h-6v-4z" fill="rgb(181,156,45)"/>
<path d="M112 10h2v4h-2v-4z" fill="rgb(133,86,33)"/>
<path d="M114 10h6v6h-1v-1h-1v1h-1v-1h-2v-1h-1v-4z" fill="rgb(181,156,45)"/>
<path d="M120 10h2v6h-1v-1h-1v-5z" fill="rgb(133,86,33)"/>
<path d="M122 10h6v6h-1v-1h-1v1h-1v-1h-1v1h-1v-1h-1v-5z" fill="rgb(181,156,45)"/>
<path d="M93 14h22v1h-22v-1z" fill="rgb(96,51,15)"/>
<path d="M16 15h1v1h-1v-1z" fill="rgb(153,101,38)"/>
<path d="M18 15h1v1h-1v-1z" fill="rgb(199,191,80)"/>
<path d="M20 15h1v1h-1v-1z" fill="rgb(199,191,80)"/>
<path d="M22 15h1v1h-1v-1z" fill="rgb(199,191,80)"/>
<path d="M24 15h1v1h-1v-1z" fill="rgb(153,101,38)"/>
<path d="M26 15h1v1h-1v-1z" fill="rgb(199,191,80)"/>
<path d="M28 15h1v1h-1v-1z" fill="rgb(199,191,80)"/>
<path d="M30 15h1v1h-1v-1z" fill="rgb(199,191,80)"/>
<path d="M32 15h1v1h-1v-1z" fill="rgb(153,101,38)"/>
<path d="M34 15h1v1h-1v-1z" fill="rgb(199,191,80)"/>
<path d="M36 15h1v1h-1v-1z" fill="rgb(199,191,80)"/>
<path d="M38 15h1v1h-1v-1z" fill="rgb(199,191,80)"/>
<path d="M40 15h1v1h-1v-1z" fill="rgb(153,101,38)"/>
<path d="M42 15h1v1h-1v-1z" fill="rgb(199,191,80)"/>
<path d="M44 15h1v1h-1v-1z" fill="rgb(199,191,80)"/>
<path d="M46 15h1v1h-1v-1z" fill="rgb(199,191,80)"/>
<path d="M48 15h1v1h-1v-1z" fill="rgb(153,101,38)"/>
<path d="M50 15h1v1h-1v-1z" fill="rgb(199,191,80)"/>
<path d="M52 15h1v1h-1v-1z" fill="rgb(199,191,80)"/>
<path d="M54 15h1v1h-1v-1z" fill="rgb(199,191,80)"/>
<path d="M56 15h1v1h-1v-1z" fill="rgb(153,101,38)"/>
<path d="M58 15h1v1h-1v-1z" fill="rgb(199,191,80)"/>
<path d="M60 15h1v1h-1v-1z" fill="rgb(199,191,80)"/>
<path d="M62 15h1v1h-1v-1z" fill="rgb(199,191,80)"/>
<path d="M64 15h1v1h-1v-1z" fill="rgb(153,101,38)"/>
<path d="M66 15h1v1h-1v-1z" fill="rgb(199,191,80)"/>
<path d="M68 15h1v1h-1v-1z" fill="rgb(199,191,80)"/>
<path d="M70 15h1v1h-1v-1z" fill="rgb(199,191,80)"/>
<path d="M72 15h1v1h-1v-1z" fill="rgb(153,101,38)"/>
<path d="M74 15h1v1h-1v-1z" fill="rgb(199,191,80)"/>
<path d="M76 15h1v1h-1v-1z" fill="rgb(199,191,80)"/>
<path d="M78 15h1v1h-1v-1z" fill="rgb(199,191,80)"/>
<path d="M80 15h1v1h-1v-1z" fill="rgb(153,101,38)"/>
<path d="M82 15h1v1h-1v-1z" fill="rgb(199,191,80)"/>
<path d="M84 15h1v1h-1v-1z" fill="rgb(199,191,80)"/>
<path d="M86 15h1v1h-1v-1z" fill="rgb(199,191,80)"/>
<path d="M88 15h1v1h-1v-1z" fill="rgb(153,101,38)"/>
<path d="M90 15h1v1h-1v-1z" fill="rgb(199,191,80)"/>
<path d="M92 15h1v24h3v-20h1v21h-5v-25z" fill="rgb(96,51,15)"/>
<path d="M93 15h22v1h-22v-1z" fill="rgb(199,149,91)"/>
<path d="M115 15h1v25h-5v-21h1v20h3v-24z" fill="rgb(96,51,15)"/>
<path d="M116 15h1v1h-1v-1z" fill="rgb(199,191,80)"/>
<path d="M118 15h1v1h-1v-1z" fill="rgb(199,191,80)"/>
<path d="M120 15h1v1h-1v-1z" fill="rgb(153,101,38)"/>
<path d="M122 15h1v1h-1v-1z" fill="rgb(199,191,80)"/>
<path d="M124 15h1v1h-1v-1z" fill="rgb(199,191,80)"/>
<path d="M126 15h1v1h-1v-1z" fill="rgb(199,191,80)"/>
<path d="M16 16h1v1h-1v-1z" fill="rgb(133,86,33)"/>
<path d="M17 16h1v19h-1v-1h-1v-17h1v-1z" fill="rgb(153,101,38)"/>
<path d="M18 16h1v1h-1v-1z" fill="rgb(181,156,45)"/>
<path d="M19 16h1v1h1v-1h1v1h1v-1h1v19h-1v-1h-1v1h-1v-1h-1v1h-1v-1h-1v-17h1v-1z" fill="rgb(199,191,80)"/>
<path d="M20 16h1v1h-1v-1z" fill="rgb(181,156,45)"/>
<path d="M22 16h1v1h-1v-1z" fill="rgb(181,156,45)"/>
<path d="M24 16h1v1h-1v-1z" fill="rgb(133,86,33)"/>
<path d="M25 16h1v19h-1v-1h-1v-17h1v-1z" fill="rgb(153,101,38)"/>
<path d="M26 16h1v1h-1v-1z" fill="rgb(181,156,45)"/>
<path d="M27 16h1v1h1v-1h1v1h1v-1h1v19h-1v-1h-1v1h-1v-1h-1v1h-1v-1h-1v-17h1v-1z" fill="rgb(199,191,80)"/>
<path d="M28 16h1v1h-1v-1z" fill="rgb(181,156,45)"/>
<path d="M30 16h1v1h-1v-1z" fill="rgb(181,156,45)"/>
<path d="M32 16h11v1h-10v5h-1v-6z" fill="rgb(139,54,54)"/>
<path d="M43 16h1v3h-1v-3z" fill="rgb(117,29,29)"/>
<path d="M44 16h24v1h-24v-1z" fill="rgb(96,51,15)"/>
<path d="M68 16h1v3h-1v-3z" fill="rgb(117,29,29)"/>
<path d="M69 16h11v6h-1v-5h-10v-1z" fill="rgb(139,54,54)"/>
<path d="M80 16h1v1h-1v-1z" fill="rgb(133,86,33)"/>
<path d="M81 16h1v19h-1v-1h-1v-17h1v-1z" fill="rgb(153,101,38)"/>
<path d="M82 16h1v1h-1v-1z" fill="rgb(181,156,45)"/>
<path d="M83 16h1v1h1v-1h1v1h1v-1h1v19h-1v-1h-1v1h-1v-1h-1v1h-1v-1h-1v-17h1v-1z" fill="rgb(199,191,80)"/>
<path d="M84 16h1v1h-1v-1z" fill="rgb(181,156,45)"/>
<path d="M86 16h1v1h-1v-1z" fill="rgb(181,156,45)"/>
<path d="M88 16h1v1h-1v-1z" fill="rgb(133,86,33)"/>
<path d="M89 16h1v19h-1v-1h-1v-17h1v-1z" fill="rgb(153,101,38)"/>
<path d="M90 16h1v1h-1v-1z" fill="rgb(181,156,45)"/>
<path d="M91 16h1v19h-1v-1h-1v-17h1v-1z" fill="rgb(199,191,80)"/>
<path d="M93 16h22v1h-22v-1z" fill="rgb(142,92,51)"/>
<path d="M116 16h1v1h-1v-1z" fill="rgb(181,156,45)"/>
<path d="M117 16h1v1h1v-1h1v19h-1v-1h-1v1h-1v-1h-1v-17h1v-1z" fill="rgb(199,191,80)"/>
<path d="M118 16h1v1h-1v-1z" fill="rgb(181,156,45)"/>
<path d="M120 16h1v1h-1v-1z" fill="rgb(133,86,33)"/>
<path d="M121 16h1v19h-1v-1h-1v-17h1v-1z" fill="rgb(153,101,38)"/>
<path d="M122 16h1v1h-1v-1z" fill="rgb(181,156,45)"/>
<path d="M123 16h1v1h1v-1h1v1h1v-1h1v19h-1v-1h-1v1h-1v-1h-1v1h-1v-1h-1v-17h1v-1z" fill="rgb(199,191,80)"/>
<path d="M124 16h1v1h-1v-1z" fill="rgb(181,156,45)"/>
<path d="M126 16h1v1h-1v-1z" fill="rgb(181,156,45)"/>
<path d="M33 17h2v1h-1v2h-1v-3z" fill="rgb(196,63,63)"/>
<path d="M35 17h2v2h1v-1h2v1h1v2h-1v1h-1v1h-1v1h-2v-2h-1v1h-1v1h-1v-4h1v-2h1v-1z" fill="rgb(224,94,94)"/>
<path d="M37 17h6v2h-1v2h-1v-2h-1v-1h-2v1h-1v-2z" fill="rgb(196,63,63)"/>
<path d="M44 17h2v1h-1v1h-1v-2z" fill="rgb(145,188,191)"/>
<path d="M46 17h4v1h-1v1h2v1h-1v1h-1v1h-1v1h-1v1h-1v1h-1v1h-1v1h-1v1h-3v-1h1v-1
	h1v-1h1v-1h1v-1h1v-1h1v-1h1v-1h1v-1h-3v-1h1v-1z" fill="rgb(169,202,205)"/>
<path d="M50 17h3v1h-1v1h-3v-1h1v-1z" fill="rgb(145,188,191)"/>
<path d="M53 17h1v1h-1v-1z" fill="rgb(169,202,205)"/>
<path d="M54 17h4v1h-1v1h-4v-1h1v-1z" fill="rgb(145,188,191)"/>
<path d="M58 17h4v1h-1v1h1v1h-1v1h-1v1h-1v1h-1v1h-1v1h-1v1h-1v1h-1v1h-2v-1h1v-1
	h1v-1h1v-1h1v-1h1v-1h1v-1h1v-1h1v-1h-3v-1h1v-1z" fill="rgb(169,202,205)"/>
<path d="M62 17h2v1h-1v1h-2v-1h1v-1z" fill="rgb(145,188,191)"/>
<path d="M64 17h4v1h-1v1h2v1h-1v1h-1v1h-1v1h-1v1h-1v1h-1v1h-1v1h-1v1h-3v-1h1v-1
	h1v-1h1v-1h1v-1h1v-1h1v-1h1v-1h1v-1h-3v-1h1v-1z" fill="rgb(169,202,205)"/>
<path d="M69 17h6v2h-1v-1h-2v1h-1v2h-1v-2h-1v-2z" fill="rgb(196,63,63)"/>
<path d="M75 17h2v1h1v2h1v4h-1v-1h-1v-1h-1v-2h-1v2h1v2h-2v-1h-1v-1h-1v-1h-1v-2
	h1v-1h2v1h1v-2z" fill="rgb(224,94,94)"/>
<path d="M77 17h2v3h-1v-2h-1v-1z" fill="rgb(196,63,63)"/>
<path d="M93 17h22v22h-3v-21h-16v21h-3v-22z" fill="rgb(169,112,47)"/>
<path d="M52 18h1v1h3v1h-1v1h-1v1h-1v1h-1v1h-1v1h-1v1h-1v1h-1v1h-4v-1h1v-1h1v-1
	h1v-1h1v-1h1v-1h1v-1h1v-1h1v-2z" fill="rgb(169,202,205)"/>
<path d="M67 18h1v1h-1v-1z" fill="rgb(145,188,191)"/>
<path d="M96 18h16v1h-16v-1z" fill="rgb(37,37,37)"/>
<path d="M42 19h1v1h-1v-1z" fill="rgb(117,29,29)"/>
<path d="M43 19h1v1h-1v-1z" fill="rgb(169,202,205)"/>
<path d="M44 19h4v1h-1v1h-1v1h-1v1h-1v1h-1v1h-1v1h-1v1h-1v1h-2v-1h-1v-1h2v-1h1
	v-1h1v-1h1v-2h1v-1h1v-1z" fill="rgb(199,220,222)"/>
<path d="M51 19h1v1h-1v-1z" fill="rgb(199,220,222)"/>
<path d="M56 19h4v1h-1v1h-1v1h-1v1h-1v1h-1v1h-1v1h-1v1h-1v1h-4v-1h1v-1h1v-1h1
	v-1h1v-1h1v-1h1v-1h1v-1h1v-1z" fill="rgb(199,220,222)"/>
<path d="M62 19h4v1h-1v1h-1v1h-1v1h-1v1h-1v1h-1v1h-1v1h-1v1h-4v-1h1v-1h1v-1h1
	v-1h1v-1h1v-1h1v-1h1v-1h1v-1z" fill="rgb(199,220,222)"/>
<path d="M69 19h1v1h-1v-1z" fill="rgb(117,29,29)"/>
<path d="M97 19h14v12h-1v-1h-12v1h-1v-12z" fill="rgb(1,1,1)"/>
<path d="M36 20h1v2h-1v-2z" fill="rgb(196,63,63)"/>
<path d="M42 20h1v1h-1v-1z" fill="rgb(139,54,54)"/>
<path d="M50 20h1v1h-1v-1z" fill="rgb(199,220,222)"/>
<path d="M68 20h1v1h-1v-1z" fill="rgb(199,220,222)"/>
<path d="M69 20h1v1h-1v-1z" fill="rgb(139,54,54)"/>
<path d="M75 20h1v2h-1v-2z" fill="rgb(196,63,63)"/>
<path d="M40 21h1v2h-1v1h-1v1h-2v1h-2v1h2v1h1v2h1v2h-1v-1h-1v-2h-1v4h-1v-4h-1v3
	h-1v-8h1v-1h1v-1h1v2h2v-1h1v-1h1v-1z" fill="rgb(196,63,63)"/>
<path d="M41 21h1v2h-1v-2z" fill="rgb(139,54,54)"/>
<path d="M49 21h1v1h-1v-1z" fill="rgb(199,220,222)"/>
<path d="M67 21h1v1h-1v-1z" fill="rgb(199,220,222)"/>
<path d="M68 21h2v3h-1v1h-1v1h-1v1h-1v1h-4v-1h1v-1h1v-1h1v-1h1v-1h1v-1h1v-1z" fill="rgb(169,202,205)"/>
<path d="M70 21h1v2h-1v-2z" fill="rgb(139,54,54)"/>
<path d="M71 21h1v1h1v1h1v1h2v1h1v-1h-1v-2h1v1h1v1h1v8h-1v-3h-1v4h-1v-4h-1v2h-1
	v1h-1v-2h1v-2h1v-1h2v-1h-2v-1h-2v-1h-1v-1h-1v-2z" fill="rgb(196,63,63)"/>
<path d="M32 22h1v12h-1v-12z" fill="rgb(117,29,29)"/>
<path d="M48 22h1v1h-1v-1z" fill="rgb(199,220,222)"/>
<path d="M66 22h1v1h-1v-1z" fill="rgb(199,220,222)"/>
<path d="M79 22h1v12h-1v-12z" fill="rgb(117,29,29)"/>
<path d="M40 23h1v1h-1v-1z" fill="rgb(139,54,54)"/>
<path d="M47 23h1v1h-1v-1z" fill="rgb(199,220,222)"/>
<path d="M65 23h1v1h-1v-1z" fill="rgb(199,220,222)"/>
<path d="M70 23h1v1h1v2h-1v1h-1v1h-4v-1h1v-1h1v-1h1v-1h1v-1z" fill="rgb(199,220,222)"/>
<path d="M71 23h1v1h-1v-1z" fill="rgb(139,54,54)"/>
<path d="M35 24h1v1h-1v-1z" fill="rgb(224,94,94)"/>
<path d="M39 24h1v1h-1v-1z" fill="rgb(117,29,29)"/>
<path d="M46 24h1v1h-1v-1z" fill="rgb(199,220,222)"/>
<path d="M64 24h1v1h-1v-1z" fill="rgb(199,220,222)"/>
<path d="M72 24h1v1h-1v-1z" fill="rgb(117,29,29)"/>
<path d="M76 24h1v1h-1v-1z" fill="rgb(224,94,94)"/>
<path d="M37 25h2v1h-2v-1z" fill="rgb(117,29,29)"/>
<path d="M45 25h1v1h-1v-1z" fill="rgb(199,220,222)"/>
<path d="M63 25h1v1h-1v-1z" fill="rgb(199,220,222)"/>
<path d="M72 25h1v1h1v1h-1v1h-3v-1h1v-1h1v-1z" fill="rgb(169,202,205)"/>
<path d="M73 25h2v1h-2v-1z" fill="rgb(117,29,29)"/>
<path d="M35 26h1v1h-1v-1z" fill="rgb(139,54,54)"/>
<path d="M36 26h1v1h-1v-1z" fill="rgb(117,29,29)"/>
<path d="M44 26h1v1h-1v-1z" fill="rgb(199,220,222)"/>
<path d="M62 26h1v1h-1v-1z" fill="rgb(199,220,222)"/>
<path d="M74 26h1v1h-1v-1z" fill="rgb(199,220,222)"/>
<path d="M75 26h1v1h-1v-1z" fill="rgb(117,29,29)"/>
<path d="M76 26h1v1h-1v-1z" fill="rgb(139,54,54)"/>
<path d="M37 27h1v1h-1v-1z" fill="rgb(139,54,54)"/>
<path d="M43 27h1v1h-1v-1z" fill="rgb(199,220,222)"/>
<path d="M61 27h1v1h-1v-1z" fill="rgb(199,220,222)"/>
<path d="M73 27h1v1h-1v-1z" fill="rgb(199,220,222)"/>
<path d="M74 27h1v1h-1v-1z" fill="rgb(139,54,54)"/>
<path d="M38 28h1v1h-1v-1z" fill="rgb(139,54,54)"/>
<path d="M39 28h34v1h-34v-1z" fill="rgb(142,92,51)"/>
<path d="M73 28h1v1h-1v-1z" fill="rgb(139,54,54)"/>
<path d="M34 29h1v4h1v1h-3v-2h1v-3z" fill="rgb(224,94,94)"/>
<path d="M36 29h1v2h1v2h-2v-4z" fill="rgb(224,94,94)"/>
<path d="M38 29h1v1h-1v-1z" fill="rgb(117,29,29)"/>
<path d="M39 29h34v1h-1v1h-32v-1h-1v-1z" fill="rgb(199,149,91)"/>
<path d="M73 29h1v1h-1v-1z" fill="rgb(117,29,29)"/>
<path d="M75 29h1v4h-2v-2h1v-2z" fill="rgb(224,94,94)"/>
<path d="M77 29h1v3h1v2h-3v-1h1v-4z" fill="rgb(224,94,94)"/>
<path d="M39 30h1v2h-1v-2z" fill="rgb(117,29,29)"/>
<path d="M72 30h1v2h-1v-2z" fill="rgb(117,29,29)"/>
<path d="M98 30h12v1h-12v-1z" fill="rgb(37,27,14)"/>
<path d="M40 31h32v1h-32v-1z" fill="rgb(169,112,47)"/>
<path d="M97 31h14v1h-14v-1z" fill="rgb(29,19,11)"/>
<path d="M38 32h1v1h-1v-1z" fill="rgb(117,29,29)"/>
<path d="M39 32h1v3h-1v-1h-1v-1h1v-1z" fill="rgb(199,191,80)"/>
<path d="M40 32h2v3h-1v-1h-1v-2z" fill="rgb(153,101,38)"/>
<path d="M42 32h6v3h-1v-1h-1v1h-1v-1h-1v1h-1v-1h-1v-2z" fill="rgb(199,191,80)"/>
<path d="M48 32h2v3h-1v-1h-1v-2z" fill="rgb(153,101,38)"/>
<path d="M50 32h6v3h-1v-1h-1v1h-1v-1h-1v1h-1v-1h-1v-2z" fill="rgb(199,191,80)"/>
<path d="M56 32h2v3h-1v-1h-1v-2z" fill="rgb(153,101,38)"/>
<path d="M58 32h6v3h-1v-1h-1v1h-1v-1h-1v1h-1v-1h-1v-2z" fill="rgb(199,191,80)"/>
<path d="M64 32h2v3h-1v-1h-1v-2z" fill="rgb(153,101,38)"/>
<path d="M66 32h6v3h-1v-1h-1v1h-1v-1h-1v1h-1v-1h-1v-2z" fill="rgb(199,191,80)"/>
<path d="M72 32h1v1h1v2h-1v-1h-1v-2z" fill="rgb(153,101,38)"/>
<path d="M73 32h1v1h-1v-1z" fill="rgb(117,29,29)"/>
<path d="M97 32h2v1h-2v-1z" fill="rgb(35,23,10)"/>
<path d="M99 32h1v2h-3v-1h2v-1z" fill="rgb(68,45,19)"/>
<path d="M100 32h1v2h-1v-2z" fill="rgb(73,52,28)"/>
<path d="M101 32h1v2h-1v-2z" fill="rgb(57,37,21)"/>
<path d="M102 32h7v1h2v1h-9v-2z" fill="rgb(68,45,19)"/>
<path d="M109 32h2v1h-2v-1z" fill="rgb(35,23,10)"/>
<path d="M36 33h2v1h-2v-1z" fill="rgb(117,29,29)"/>
<path d="M74 33h2v1h-2v-1z" fill="rgb(117,29,29)"/>
<path d="M16 34h1v1h-1v-1z" fill="rgb(133,86,33)"/>
<path d="M18 34h1v1h-1v-1z" fill="rgb(181,156,45)"/>
<path d="M20 34h1v1h-1v-1z" fill="rgb(181,156,45)"/>
<path d="M22 34h1v1h-1v-1z" fill="rgb(181,156,45)"/>
<path d="M24 34h1v1h-1v-1z" fill="rgb(133,86,33)"/>
<path d="M26 34h1v1h-1v-1z" fill="rgb(181,156,45)"/>
<path d="M28 34h1v1h-1v-1z" fill="rgb(181,156,45)"/>
<path d="M30 34h1v1h-1v-1z" fill="rgb(181,156,45)"/>
<path d="M32 34h1v1h-1v-1z" fill="rgb(133,86,33)"/>
<path d="M33 34h3v1h-3v-1z" fill="rgb(117,29,29)"/>
<path d="M36 34h1v1h-1v-1z" fill="rgb(181,156,45)"/>
<path d="M37 34h1v1h-1v-1z" fill="rgb(199,191,80)"/>
<path d="M38 34h1v1h-1v-1z" fill="rgb(181,156,45)"/>
<path d="M40 34h1v1h-1v-1z" fill="rgb(133,86,33)"/>
<path d="M42 34h1v1h-1v-1z" fill="rgb(181,156,45)"/>
<path d="M44 34h1v1h-1v-1z" fill="rgb(181,156,45)"/>
<path d="M46 34h1v1h-1v-1z" fill="rgb(181,156,45)"/>
<path d="M48 34h1v1h-1v-1z" fill="rgb(133,86,33)"/>
<path d="M50 34h1v1h-1v-1z" fill="rgb(181,156,45)"/>
<path d="M52 34h1v1h-1v-1z" fill="rgb(181,156,45)"/>
<path d="M54 34h1v1h-1v-1z" fill="rgb(181,156,45)"/>
<path d="M56 34h1v1h-1v-1z" fill="rgb(133,86,33)"/>
<path d="M58 34h1v1h-1v-1z" fill="rgb(181,156,45)"/>
<path d="M60 34h1v1h-1v-1z" fill="rgb(181,156,45)"/>
<path d="M62 34h1v1h-1v-1z" fill="rgb(181,156,45)"/>
<path d="M64 34h1v1h-1v-1z" fill="rgb(133,86,33)"/>
<path d="M66 34h1v1h-1v-1z" fill="rgb(181,156,45)"/>
<path d="M68 34h1v1h-1v-1z" fill="rgb(181,156,45)"/>
<path d="M70 34h1v1h-1v-1z" fill="rgb(181,156,45)"/>
<path d="M72 34h1v1h-1v-1z" fill="rgb(133,86,33)"/>
<path d="M74 34h1v1h-1v-1z" fill="rgb(181,156,45)"/>
<path d="M75 34h1v1h-1v-1z" fill="rgb(199,191,80)"/>
<path d="M76 34h3v1h-3v-1z" fill="rgb(117,29,29)"/>
<path d="M79 34h1v1h-1v-1z" fill="rgb(199,191,80)"/>
<path d="M80 34h1v1h-1v-1z" fill="rgb(133,86,33)"/>
<path d="M82 34h1v1h-1v-1z" fill="rgb(181,156,45)"/>
<path d="M84 34h1v1h-1v-1z" fill="rgb(181,156,45)"/>
<path d="M86 34h1v1h-1v-1z" fill="rgb(181,156,45)"/>
<path d="M88 34h1v1h-1v-1z" fill="rgb(133,86,33)"/>
<path d="M90 34h1v1h-1v-1z" fill="rgb(181,156,45)"/>
<path d="M97 34h1v1h-1v-1z" fill="rgb(73,52,28)"/>
<path d="M98 34h3v1h-3v-1z" fill="rgb(110,78,41)"/>
<path d="M101 34h1v1h9v1h-14v-1h4v-1z" fill="rgb(86,56,31)"/>
<path d="M102 34h8v1h-8v-1z" fill="rgb(110,78,41)"/>
<path d="M110 34h1v1h-1v-1z" fill="rgb(73,52,28)"/>
<path d="M116 34h1v1h-1v-1z" fill="rgb(181,156,45)"/>
<path d="M118 34h1v1h-1v-1z" fill="rgb(181,156,45)"/>
<path d="M120 34h1v1h-1v-1z" fill="rgb(133,86,33)"/>
<path d="M122 34h1v1h-1v-1z" fill="rgb(181,156,45)"/>
<path d="M124 34h1v1h-1v-1z" fill="rgb(181,156,45)"/>
<path d="M126 34h1v1h-1v-1z" fill="rgb(181,156,45)"/>
<path d="M16 35h1v1h-1v-1z" fill="rgb(153,101,38)"/>
<path d="M17 35h1v2h-1v1h-1v-2h1v-1z" fill="rgb(133,86,33)"/>
<path d="M18 35h1v1h-1v-1z" fill="rgb(199,191,80)"/>
<path d="M19 35h1v1h1v-1h1v1h1v-1h1v4h-6v-3h1v-1z" fill="rgb(181,156,45)"/>
<path d="M20 35h1v1h-1v-1z" fill="rgb(199,191,80)"/>
<path d="M22 35h1v1h-1v-1z" fill="rgb(199,191,80)"/>
<path d="M24 35h1v1h-1v-1z" fill="rgb(153,101,38)"/>
<path d="M25 35h1v2h-1v1h-1v-2h1v-1z" fill="rgb(133,86,33)"/>
<path d="M26 35h1v1h-1v-1z" fill="rgb(199,191,80)"/>
<path d="M27 35h1v1h1v-1h1v1h1v-1h1v4h-6v-3h1v-1z" fill="rgb(181,156,45)"/>
<path d="M28 35h1v1h-1v-1z" fill="rgb(199,191,80)"/>
<path d="M30 35h1v1h-1v-1z" fill="rgb(199,191,80)"/>
<path d="M32 35h1v1h-1v-1z" fill="rgb(153,101,38)"/>
<path d="M33 35h1v2h-1v1h-1v-2h1v-1z" fill="rgb(133,86,33)"/>
<path d="M34 35h1v1h-1v-1z" fill="rgb(199,191,80)"/>
<path d="M35 35h1v1h1v-1h1v1h1v-1h1v4h-6v-3h1v-1z" fill="rgb(181,156,45)"/>
<path d="M36 35h1v1h-1v-1z" fill="rgb(199,191,80)"/>
<path d="M38 35h1v1h-1v-1z" fill="rgb(199,191,80)"/>
<path d="M40 35h1v1h-1v-1z" fill="rgb(153,101,38)"/>
<path d="M41 35h1v2h-1v1h-1v-2h1v-1z" fill="rgb(133,86,33)"/>
<path d="M42 35h1v1h-1v-1z" fill="rgb(199,191,80)"/>
<path d="M43 35h1v1h1v-1h1v1h1v-1h1v4h-6v-3h1v-1z" fill="rgb(181,156,45)"/>
<path d="M44 35h1v1h-1v-1z" fill="rgb(199,191,80)"/>
<path d="M46 35h1v1h-1v-1z" fill="rgb(199,191,80)"/>
<path d="M48 35h1v1h-1v-1z" fill="rgb(153,101,38)"/>
<path d="M49 35h1v2h-1v1h-1v-2h1v-1z" fill="rgb(133,86,33)"/>
<path d="M50 35h1v1h-1v-1z" fill="rgb(199,191,80)"/>
<path d="M51 35h1v1h1v-1h1v1h1v-1h1v4h-6v-3h1v-1z" fill="rgb(181,156,45)"/>
<path d="M52 35h1v1h-1v-1z" fill="rgb(199,191,80)"/>
<path d="M54 35h1v1h-1v-1z" fill="rgb(199,191,80)"/>
<path d="M56 35h1v1h-1v-1z" fill="rgb(153,101,38)"/>
<path d="M57 35h1v2h-1v1h-1v-2h1v-1z" fill="rgb(133,86,33)"/>
<path d="M58 35h1v1h-1v-1z" fill="rgb(199,191,80)"/>
<path d="M59 35h1v1h1v-1h1v1h1v-1h1v4h-6v-3h1v-1z" fill="rgb(181,156,45)"/>
<path d="M60 35h1v1h-1v-1z" fill="rgb(199,191,80)"/>
<path d="M62 35h1v1h-1v-1z" fill="rgb(199,191,80)"/>
<path d="M64 35h1v1h-1v-1z" fill="rgb(153,101,38)"/>
<path d="M65 35h1v2h-1v1h-1v-2h1v-1z" fill="rgb(133,86,33)"/>
<path d="M66 35h1v1h-1v-1z" fill="rgb(199,191,80)"/>
<path d="M67 35h1v1h1v-1h1v1h1v-1h1v4h-6v-3h1v-1z" fill="rgb(181,156,45)"/>
<path d="M68 35h1v1h-1v-1z" fill="rgb(199,191,80)"/>
<path d="M70 35h1v1h-1v-1z" fill="rgb(199,191,80)"/>
<path d="M72 35h1v1h-1v-1z" fill="rgb(153,101,38)"/>
<path d="M73 35h1v2h-1v1h-1v-2h1v-1z" fill="rgb(133,86,33)"/>
<path d="M74 35h1v1h-1v-1z" fill="rgb(199,191,80)"/>
<path d="M75 35h1v1h1v-1h1v1h1v-1h1v4h-6v-3h1v-1z" fill="rgb(181,156,45)"/>
<path d="M76 35h1v1h-1v-1z" fill="rgb(199,191,80)"/>
<path d="M78 35h1v1h-1v-1z" fill="rgb(199,191,80)"/>
<path d="M80 35h1v1h-1v-1z" fill="rgb(153,101,38)"/>
<path d="M81 35h1v2h-1v1h-1v-2h1v-1z" fill="rgb(133,86,33)"/>
<path d="M82 35h1v1h-1v-1z" fill="rgb(199,191,80)"/>
<path d="M83 35h1v1h1v-1h1v1h1v-1h1v4h-6v-3h1v-1z" fill="rgb(181,156,45)"/>
<path d="M84 35h1v1h-1v-1z" fill="rgb(199,191,80)"/>
<path d="M86 35h1v1h-1v-1z" fill="rgb(199,191,80)"/>
<path d="M88 35h1v1h-1v-1z" fill="rgb(153,101,38)"/>
<path d="M89 35h1v2h-1v1h-1v-2h1v-1z" fill="rgb(133,86,33)"/>
<path d="M90 35h1v1h-1v-1z" fill="rgb(199,191,80)"/>
<path d="M91 35h1v4h-2v-3h1v-1z" fill="rgb(181,156,45)"/>
<path d="M116 35h1v1h-1v-1z" fill="rgb(199,191,80)"/>
<path d="M117 35h1v1h1v-1h1v4h-4v-3h1v-1z" fill="rgb(181,156,45)"/>
<path d="M118 35h1v1h-1v-1z" fill="rgb(199,191,80)"/>
<path d="M120 35h1v1h-1v-1z" fill="rgb(153,101,38)"/>
<path d="M121 35h1v2h-1v1h-1v-2h1v-1z" fill="rgb(133,86,33)"/>
<path d="M122 35h1v1h-1v-1z" fill="rgb(199,191,80)"/>
<path d="M123 35h1v1h1v-1h1v1h1v-1h1v4h-6v-3h1v-1z" fill="rgb(181,156,45)"/>
<path d="M124 35h1v1h-1v-1z" fill="rgb(199,191,80)"/>
<path d="M126 35h1v1h-1v-1z" fill="rgb(199,191,80)"/>
<path d="M97 36h3v1h-2v1h-1v-2z" fill="rgb(102,68,29)"/>
<path d="M100 36h6v2h-8v-1h2v-1z" fill="rgb(127,84,35)"/>
<path d="M106 36h1v3h-10v-1h9v-2z" fill="rgb(136,97,51)"/>
<path d="M107 36h1v3h3v1h-6v3h15v-3h1v3h7v5h-106v3h2v1h-8v-1h5v-3h-5v-1h15v-3
	h-15v-1h8v-3h1v3h15v-3h1v3h15v-3h1v3h15v-3h1v3h15v-3h1v3h15v-3h-7v-1h10v-3z" fill="rgb(106,69,38)"/>
<path d="M108 36h3v2h-1v-1h-2v-1z" fill="rgb(102,68,29)"/>
<path d="M17 37h1v2h-2v-1h1v-1z" fill="rgb(117,29,29)"/>
<path d="M25 37h1v2h-2v-1h1v-1z" fill="rgb(117,29,29)"/>
<path d="M33 37h1v2h-2v-1h1v-1z" fill="rgb(117,29,29)"/>
<path d="M41 37h1v2h-2v-1h1v-1z" fill="rgb(117,29,29)"/>
<path d="M49 37h1v2h-2v-1h1v-1z" fill="rgb(117,29,29)"/>
<path d="M57 37h1v2h-2v-1h1v-1z" fill="rgb(117,29,29)"/>
<path d="M65 37h1v2h-2v-1h1v-1z" fill="rgb(117,29,29)"/>
<path d="M73 37h1v2h-2v-1h1v-1z" fill="rgb(117,29,29)"/>
<path d="M81 37h1v2h-2v-1h1v-1z" fill="rgb(117,29,29)"/>
<path d="M89 37h1v2h-2v-1h1v-1z" fill="rgb(117,29,29)"/>
<path d="M108 37h2v1h-2v-1z" fill="rgb(127,84,35)"/>
<path d="M121 37h1v2h-2v-1h1v-1z" fill="rgb(117,29,29)"/>
<path d="M108 38h3v1h-3v-1z" fill="rgb(136,97,51)"/>
<path d="M16 39h2v1h-2v-1z" fill="rgb(100,25,25)"/>
<path d="M18 39h6v1h-6v-1z" fill="rgb(154,133,38)"/>
<path d="M24 39h2v1h-2v-1z" fill="rgb(100,25,25)"/>
<path d="M26 39h6v1h-6v-1z" fill="rgb(154,133,38)"/>
<path d="M32 39h2v1h-2v-1z" fill="rgb(100,25,25)"/>
<path d="M34 39h6v1h-6v-1z" fill="rgb(154,133,38)"/>
<path d="M40 39h2v1h-2v-1z" fill="rgb(100,25,25)"/>
<path d="M42 39h6v1h-6v-1z" fill="rgb(154,133,38)"/>
<path d="M48 39h2v1h-2v-1z" fill="rgb(100,25,25)"/>
<path d="M50 39h6v1h-6v-1z" fill="rgb(154,133,38)"/>
<path d="M56 39h2v1h-2v-1z" fill="rgb(100,25,25)"/>
<path d="M58 39h6v1h-6v-1z" fill="rgb(154,133,38)"/>
<path d="M64 39h2v1h-2v-1z" fill="rgb(100,25,25)"/>
<path d="M66 39h6v1h-6v-1z" fill="rgb(154,133,38)"/>
<path d="M72 39h2v1h-2v-1z" fill="rgb(100,25,25)"/>
<path d="M74 39h6v1h-6v-1z" fill="rgb(154,133,38)"/>
<path d="M80 39h2v1h-2v-1z" fill="rgb(100,25,25)"/>
<path d="M82 39h6v1h-6v-1z" fill="rgb(154,133,38)"/>
<path d="M88 39h2v1h-2v-1z" fill="rgb(100,25,25)"/>
<path d="M90 39h2v1h-2v-1z" fill="rgb(154,133,38)"/>
<path d="M116 39h4v1h-4v-1z" fill="rgb(154,133,38)"/>
<path d="M120 39h2v1h-2v-1z" fill="rgb(100,25,25)"/>
<path d="M122 39h6v1h-6v-1z" fill="rgb(154,133,38)"/>
<path d="M16 40h7v2h-7v-2z" fill="rgb(127,84,35)"/>
<path d="M23 40h1v3h-8v-1h7v-2z" fill="rgb(136,97,51)"/>
<path d="M25 40h14v2h-14v-2z" fill="rgb(127,84,35)"/>
<path d="M39 40h1v3h-15v-1h14v-2z" fill="rgb(136,97,51)"/>
<path d="M41 40h14v2h-14v-2z" fill="rgb(127,84,35)"/>
<path d="M55 40h1v3h-15v-1h14v-2z" fill="rgb(136,97,51)"/>
<path d="M57 40h14v2h-14v-2z" fill="rgb(127,84,35)"/>
<path d="M71 40h1v3h-15v-1h14v-2z" fill="rgb(136,97,51)"/>
<path d="M73 40h14v2h-14v-2z" fill="rgb(127,84,35)"/>
<path d="M87 40h1v3h-15v-1h14v-2z" fill="rgb(136,97,51)"/>
<path d="M89 40h14v2h-14v-2z" fill="rgb(127,84,35)"/>
<path d="M103 40h1v3h-15v-1h14v-2z" fill="rgb(136,97,51)"/>
<path d="M105 40h14v2h-14v-2z" fill="rgb(127,84,35)"/>
<path d="M119 40h1v3h-15v-1h14v-2z" fill="rgb(136,97,51)"/>
<path d="M121 40h7v2h-7v-2z" fill="rgb(127,84,35)"/>
<path d="M121 42h7v1h-7v-1z" fill="rgb(136,97,51)"/>
<path d="M16 44h14v2h-14v-2z" fill="rgb(127,84,35)"/>
<path d="M30 44h1v3h-15v-1h14v-2z" fill="rgb(136,97,51)"/>
<path d="M32 44h14v2h-14v-2z" fill="rgb(127,84,35)"/>
<path d="M46 44h1v3h-15v-1h14v-2z" fill="rgb(136,97,51)"/>
<path d="M48 44h14v2h-14v-2z" fill="rgb(127,84,35)"/>
<path d="M62 44h1v3h-15v-1h14v-2z" fill="rgb(136,97,51)"/>
<path d="M64 44h14v2h-14v-2z" fill="rgb(127,84,35)"/>
<path d="M78 44h1v3h-15v-1h14v-2z" fill="rgb(136,97,51)"/>
<path d="M80 44h14v2h-14v-2z" fill="rgb(127,84,35)"/>
<path d="M94 44h1v3h-15v-1h14v-2z" fill="rgb(136,97,51)"/>
<path d="M96 44h14v2h-14v-2z" fill="rgb(127,84,35)"/>
<path d="M110 44h1v3h-15v-1h14v-2z" fill="rgb(136,97,51)"/>
<path d="M112 44h14v2h-14v-2z" fill="rgb(127,84,35)"/>
<path d="M126 44h1v3h-15v-1h14v-2z" fill="rgb(136,97,51)"/>
<path d="M16 48h4v2h-4v-2z" fill="rgb(127,84,35)"/>
<path d="M20 48h1v3h-5v-1h4v-2z" fill="rgb(136,97,51)"/>
<path d="M22 48h2v2h-2v-2z" fill="rgb(127,84,35)"/>
<path d="M24 48h12v2h-12v-2z" fill="rgb(169,112,47)"/>
<path d="M36 48h1v3h-13v-1h12v-2z" fill="rgb(182,129,68)"/>
<path d="M37 48h1v3h15v-3h1v3h15v-3h1v3h15v-3h1v3h15v-3h1v3h15v-3h1v3h10v1h-4v3
	h4v1h-7v3h7v5h-10v3h10v1h-4v3h4v1h-7v3h7v5h-10v3h10v1h-4v3h4v1h-7v3h7v5h-10v3
	h10v1h-4v3h4v1h-7v3h7v5h-104v-1h7v-3h-7v-5h3v-3h-3v-1h13v-3h-13v-1h7v-3h-7v-5h3
	v-3h-3v-1h13v-3h-13v-1h7v-3h-7v-5h3v-3h-3v-1h13v-3h-13v-1h7v-3h-7v-5h3v-3h-3
	v-1h13v-3z" fill="rgb(142,92,51)"/>
<path d="M38 48h14v2h-14v-2z" fill="rgb(169,112,47)"/>
<path d="M52 48h1v3h-15v-1h14v-2z" fill="rgb(182,129,68)"/>
<path d="M54 48h14v2h-14v-2z" fill="rgb(169,112,47)"/>
<path d="M68 48h1v3h-15v-1h14v-2z" fill="rgb(182,129,68)"/>
<path d="M70 48h14v2h-14v-2z" fill="rgb(169,112,47)"/>
<path d="M84 48h1v3h-15v-1h14v-2z" fill="rgb(182,129,68)"/>
<path d="M86 48h14v2h-14v-2z" fill="rgb(169,112,47)"/>
<path d="M100 48h1v3h-15v-1h14v-2z" fill="rgb(182,129,68)"/>
<path d="M102 48h14v2h-14v-2z" fill="rgb(169,112,47)"/>
<path d="M116 48h1v3h-15v-1h14v-2z" fill="rgb(182,129,68)"/>
<path d="M118 48h10v2h-10v-2z" fill="rgb(169,112,47)"/>
<path d="M22 50h2v1h-2v-1z" fill="rgb(136,97,51)"/>
<path d="M118 50h10v1h-10v-1z" fill="rgb(182,129,68)"/>
<path d="M16 52h8v2h-8v-2z" fill="rgb(127,84,35)"/>
<path d="M24 52h2v2h-2v-2z" fill="rgb(169,112,47)"/>
<path d="M26 52h1v3h-3v-1h2v-2z" fill="rgb(182,129,68)"/>
<path d="M28 52h14v2h-14v-2z" fill="rgb(169,112,47)"/>
<path d="M42 52h1v3h-15v-1h14v-2z" fill="rgb(182,129,68)"/>
<path d="M44 52h14v2h-14v-2z" fill="rgb(169,112,47)"/>
<path d="M58 52h1v3h-15v-1h14v-2z" fill="rgb(182,129,68)"/>
<path d="M60 52h14v2h-14v-2z" fill="rgb(169,112,47)"/>
<path d="M74 52h1v3h-15v-1h14v-2z" fill="rgb(182,129,68)"/>
<path d="M76 52h14v2h-14v-2z" fill="rgb(169,112,47)"/>
<path d="M90 52h1v3h-15v-1h14v-2z" fill="rgb(182,129,68)"/>
<path d="M92 52h14v2h-14v-2z" fill="rgb(169,112,47)"/>
<path d="M106 52h1v3h-15v-1h14v-2z" fill="rgb(182,129,68)"/>
<path d="M108 52h14v2h-14v-2z" fill="rgb(169,112,47)"/>
<path d="M122 52h1v3h-15v-1h14v-2z" fill="rgb(182,129,68)"/>
<path d="M124 52h4v2h-4v-2z" fill="rgb(169,112,47)"/>
<path d="M16 54h8v1h-8v-1z" fill="rgb(136,97,51)"/>
<path d="M124 54h4v1h-4v-1z" fill="rgb(182,129,68)"/>
<path d="M16 55h8v1h-8v-1z" fill="rgb(106,69,38)"/>
<path d="M16 56h7v2h-7v-2z" fill="rgb(127,84,35)"/>
<path d="M23 56h1v3h-8v-1h7v-2z" fill="rgb(136,97,51)"/>
<path d="M25 56h14v2h-14v-2z" fill="rgb(169,112,47)"/>
<path d="M39 56h1v3h-15v-1h14v-2z" fill="rgb(182,129,68)"/>
<path d="M41 56h14v1h-7v1h-7v-2z" fill="rgb(169,112,47)"/>
<path d="M55 56h1v1h-1v-1z" fill="rgb(182,129,68)"/>
<path d="M57 56h14v1h-14v-1z" fill="rgb(169,112,47)"/>
<path d="M71 56h1v1h-1v-1z" fill="rgb(182,129,68)"/>
<path d="M73 56h14v2h-7v-1h-7v-1z" fill="rgb(169,112,47)"/>
<path d="M87 56h1v3h-7v-1h6v-2z" fill="rgb(182,129,68)"/>
<path d="M89 56h14v2h-14v-2z" fill="rgb(169,112,47)"/>
<path d="M103 56h1v3h-15v-1h14v-2z" fill="rgb(182,129,68)"/>
<path d="M105 56h14v2h-14v-2z" fill="rgb(169,112,47)"/>
<path d="M119 56h1v3h-15v-1h14v-2z" fill="rgb(182,129,68)"/>
<path d="M121 56h7v2h-7v-2z" fill="rgb(169,112,47)"/>
<path d="M48 57h32v1h-32v-1z" fill="rgb(122,73,34)"/>
<path d="M41 58h6v1h-6v-1z" fill="rgb(182,129,68)"/>
<path d="M47 58h1v4h-1v-4z" fill="rgb(122,73,34)"/>
<path d="M48 58h3v2h-3v-2z" fill="rgb(155,90,53)"/>
<path d="M51 58h26v2h-26v-2z" fill="rgb(181,156,45)"/>
<path d="M77 58h3v2h-3v-2z" fill="rgb(155,90,53)"/>
<path d="M80 58h1v4h-1v-4z" fill="rgb(122,73,34)"/>
<path d="M121 58h7v1h-7v-1z" fill="rgb(182,129,68)"/>
<path d="M16 59h8v1h-8v-1z" fill="rgb(106,69,38)"/>
<path d="M46 59h1v1h-1v-1z" fill="rgb(106,69,38)"/>
<path d="M81 59h1v1h-1v-1z" fill="rgb(106,69,38)"/>
<path d="M16 60h8v2h-8v-2z" fill="rgb(127,84,35)"/>
<path d="M24 60h6v2h-6v-2z" fill="rgb(169,112,47)"/>
<path d="M30 60h1v3h-7v-1h6v-2z" fill="rgb(182,129,68)"/>
<path d="M32 60h14v2h-14v-2z" fill="rgb(169,112,47)"/>
<path d="M46 60h1v3h-1v-3z" fill="rgb(136,97,51)"/>
<path d="M48 60h3v20h-3v-20z" fill="rgb(181,156,45)"/>
<path d="M51 60h26v20h-26v-20z" fill="rgb(199,191,80)"/>
<path d="M77 60h3v20h-3v-20z" fill="rgb(181,156,45)"/>
<path d="M81 60h2v2h-2v-2z" fill="rgb(127,84,35)"/>
<path d="M83 60h11v2h-11v-2z" fill="rgb(169,112,47)"/>
<path d="M94 60h1v3h-12v-1h11v-2z" fill="rgb(182,129,68)"/>
<path d="M96 60h14v2h-14v-2z" fill="rgb(169,112,47)"/>
<path d="M110 60h1v3h-15v-1h14v-2z" fill="rgb(182,129,68)"/>
<path d="M112 60h14v2h-14v-2z" fill="rgb(169,112,47)"/>
<path d="M126 60h1v3h-15v-1h14v-2z" fill="rgb(182,129,68)"/>
<path d="M16 62h8v1h-8v-1z" fill="rgb(136,97,51)"/>
<path d="M32 62h14v1h-14v-1z" fill="rgb(182,129,68)"/>
<path d="M47 62h1v24h-1v-24z" fill="rgb(96,51,15)"/>
<path d="M80 62h1v24h-1v-24z" fill="rgb(96,51,15)"/>
<path d="M81 62h2v1h-2v-1z" fill="rgb(136,97,51)"/>
<path d="M16 63h8v1h-2v3h2v1h-8v-1h5v-3h-5v-1z" fill="rgb(106,69,38)"/>
<path d="M46 63h1v1h-1v-1z" fill="rgb(106,69,38)"/>
<path d="M81 63h2v1h-2v-1z" fill="rgb(106,69,38)"/>
<path d="M16 64h4v2h-4v-2z" fill="rgb(127,84,35)"/>
<path d="M20 64h1v3h-5v-1h4v-2z" fill="rgb(136,97,51)"/>
<path d="M22 64h2v2h-2v-2z" fill="rgb(127,84,35)"/>
<path d="M24 64h12v2h-12v-2z" fill="rgb(169,112,47)"/>
<path d="M36 64h1v3h-13v-1h12v-2z" fill="rgb(182,129,68)"/>
<path d="M38 64h8v2h-8v-2z" fill="rgb(169,112,47)"/>
<path d="M46 64h1v2h-1v-2z" fill="rgb(127,84,35)"/>
<path d="M81 64h2v2h-2v-2z" fill="rgb(127,84,35)"/>
<path d="M83 64h1v2h-1v-2z" fill="rgb(169,112,47)"/>
<path d="M84 64h1v3h-2v-1h1v-2z" fill="rgb(182,129,68)"/>
<path d="M86 64h14v2h-14v-2z" fill="rgb(169,112,47)"/>
<path d="M100 64h1v3h-15v-1h14v-2z" fill="rgb(182,129,68)"/>
<path d="M102 64h14v2h-14v-2z" fill="rgb(169,112,47)"/>
<path d="M116 64h1v3h-15v-1h14v-2z" fill="rgb(182,129,68)"/>
<path d="M118 64h10v2h-10v-2z" fill="rgb(169,112,47)"/>
<path d="M22 66h2v1h-2v-1z" fill="rgb(136,97,51)"/>
<path d="M38 66h8v1h-8v-1z" fill="rgb(182,129,68)"/>
<path d="M46 66h1v1h-1v-1z" fill="rgb(136,97,51)"/>
<path d="M81 66h2v1h-2v-1z" fill="rgb(136,97,51)"/>
<path d="M118 66h10v1h-10v-1z" fill="rgb(182,129,68)"/>
<path d="M46 67h1v1h-1v-1z" fill="rgb(106,69,38)"/>
<path d="M81 67h2v1h-2v-1z" fill="rgb(106,69,38)"/>
<path d="M16 68h8v2h-8v-2z" fill="rgb(127,84,35)"/>
<path d="M24 68h2v2h-2v-2z" fill="rgb(169,112,47)"/>
<path d="M26 68h1v3h-3v-1h2v-2z" fill="rgb(182,129,68)"/>
<path d="M28 68h14v2h-14v-2z" fill="rgb(169,112,47)"/>
<path d="M42 68h1v3h-15v-1h14v-2z" fill="rgb(182,129,68)"/>
<path d="M44 68h2v2h-2v-2z" fill="rgb(169,112,47)"/>
<path d="M46 68h1v2h-1v-2z" fill="rgb(127,84,35)"/>
<path d="M81 68h2v2h-2v-2z" fill="rgb(127,84,35)"/>
<path d="M83 68h7v2h-7v-2z" fill="rgb(169,112,47)"/>
<path d="M90 68h1v3h-8v-1h7v-2z" fill="rgb(182,129,68)"/>
<path d="M92 68h14v2h-14v-2z" fill="rgb(169,112,47)"/>
<path d="M106 68h1v3h-15v-1h14v-2z" fill="rgb(182,129,68)"/>
<path d="M108 68h14v2h-14v-2z" fill="rgb(169,112,47)"/>
<path d="M122 68h1v3h-15v-1h14v-2z" fill="rgb(182,129,68)"/>
<path d="M124 68h4v2h-4v-2z" fill="rgb(169,112,47)"/>
<path d="M16 70h8v1h-8v-1z" fill="rgb(136,97,51)"/>
<path d="M44 70h2v1h-2v-1z" fill="rgb(182,129,68)"/>
<path d="M46 70h1v1h-1v-1z" fill="rgb(136,97,51)"/>
<path d="M81 70h2v1h-2v-1z" fill="rgb(136,97,51)"/>
<path d="M124 70h4v1h-4v-1z" fill="rgb(182,129,68)"/>
<path d="M16 71h8v1h-8v-1z" fill="rgb(106,69,38)"/>
<path d="M46 71h1v1h-1v-1z" fill="rgb(106,69,38)"/>
<path d="M81 71h2v1h-2v-1z" fill="rgb(106,69,38)"/>
<path d="M16 72h7v2h-7v-2z" fill="rgb(127,84,35)"/>
<path d="M23 72h1v3h-8v-1h7v-2z" fill="rgb(136,97,51)"/>
<path d="M25 72h14v2h-14v-2z" fill="rgb(169,112,47)"/>
<path d="M39 72h1v3h-15v-1h14v-2z" fill="rgb(182,129,68)"/>
<path d="M41 72h5v2h-5v-2z" fill="rgb(169,112,47)"/>
<path d="M46 72h1v2h-1v-2z" fill="rgb(127,84,35)"/>
<path d="M81 72h2v2h-2v-2z" fill="rgb(127,84,35)"/>
<path d="M83 72h4v2h-4v-2z" fill="rgb(169,112,47)"/>
<path d="M87 72h1v3h-5v-1h4v-2z" fill="rgb(182,129,68)"/>
<path d="M89 72h14v2h-14v-2z" fill="rgb(169,112,47)"/>
<path d="M103 72h1v3h-15v-1h14v-2z" fill="rgb(182,129,68)"/>
<path d="M105 72h14v2h-14v-2z" fill="rgb(169,112,47)"/>
<path d="M119 72h1v3h-15v-1h14v-2z" fill="rgb(182,129,68)"/>
<path d="M121 72h7v2h-7v-2z" fill="rgb(169,112,47)"/>
<path d="M41 74h5v1h-5v-1z" fill="rgb(182,129,68)"/>
<path d="M46 74h1v1h-1v-1z" fill="rgb(136,97,51)"/>
<path d="M81 74h2v1h-2v-1z" fill="rgb(136,97,51)"/>
<path d="M121 74h7v1h-7v-1z" fill="rgb(182,129,68)"/>
<path d="M16 75h8v1h-8v-1z" fill="rgb(106,69,38)"/>
<path d="M46 75h1v1h-1v-1z" fill="rgb(106,69,38)"/>
<path d="M81 75h2v1h-2v-1z" fill="rgb(106,69,38)"/>
<path d="M16 76h8v2h-8v-2z" fill="rgb(127,84,35)"/>
<path d="M24 76h6v2h-6v-2z" fill="rgb(169,112,47)"/>
<path d="M30 76h1v3h-7v-1h6v-2z" fill="rgb(182,129,68)"/>
<path d="M32 76h14v2h-14v-2z" fill="rgb(169,112,47)"/>
<path d="M46 76h1v3h-1v-3z" fill="rgb(136,97,51)"/>
<path d="M81 76h2v2h-2v-2z" fill="rgb(127,84,35)"/>
<path d="M83 76h11v2h-11v-2z" fill="rgb(169,112,47)"/>
<path d="M94 76h1v3h-12v-1h11v-2z" fill="rgb(182,129,68)"/>
<path d="M96 76h14v2h-14v-2z" fill="rgb(169,112,47)"/>
<path d="M110 76h1v3h-15v-1h14v-2z" fill="rgb(182,129,68)"/>
<path d="M112 76h14v2h-14v-2z" fill="rgb(169,112,47)"/>
<path d="M126 76h1v3h-15v-1h14v-2z" fill="rgb(182,129,68)"/>
<path d="M16 78h8v1h-8v-1z" fill="rgb(136,97,51)"/>
<path d="M32 78h14v1h-14v-1z" fill="rgb(182,129,68)"/>
<path d="M81 78h2v1h-2v-1z" fill="rgb(136,97,51)"/>
<path d="M16 79h8v1h-2v3h2v1h-8v-1h5v-3h-5v-1z" fill="rgb(106,69,38)"/>
<path d="M46 79h1v1h-1v-1z" fill="rgb(106,69,38)"/>
<path d="M81 79h2v1h-2v-1z" fill="rgb(106,69,38)"/>
<path d="M16 80h4v2h-4v-2z" fill="rgb(127,84,35)"/>
<path d="M20 80h1v3h-5v-1h4v-2z" fill="rgb(136,97,51)"/>
<path d="M22 80h2v2h-2v-2z" fill="rgb(127,84,35)"/>
<path d="M24 80h12v2h-12v-2z" fill="rgb(169,112,47)"/>
<path d="M36 80h1v3h-13v-1h12v-2z" fill="rgb(182,129,68)"/>
<path d="M38 80h8v2h-8v-2z" fill="rgb(169,112,47)"/>
<path d="M46 80h1v2h-1v-2z" fill="rgb(127,84,35)"/>
<path d="M48 80h3v3h-3v-3z" fill="rgb(155,90,53)"/>
<path d="M51 80h26v3h-26v-3z" fill="rgb(181,156,45)"/>
<path d="M77 80h3v3h-3v-3z" fill="rgb(155,90,53)"/>
<path d="M81 80h2v2h-2v-2z" fill="rgb(127,84,35)"/>
<path d="M83 80h1v2h-1v-2z" fill="rgb(169,112,47)"/>
<path d="M84 80h1v3h-2v-1h1v-2z" fill="rgb(182,129,68)"/>
<path d="M86 80h14v2h-14v-2z" fill="rgb(169,112,47)"/>
<path d="M100 80h1v3h-15v-1h14v-2z" fill="rgb(182,129,68)"/>
<path d="M102 80h14v2h-14v-2z" fill="rgb(169,112,47)"/>
<path d="M116 80h1v3h-15v-1h14v-2z" fill="rgb(182,129,68)"/>
<path d="M118 80h10v2h-10v-2z" fill="rgb(169,112,47)"/>
<path d="M22 82h2v1h-2v-1z" fill="rgb(136,97,51)"/>
<path d="M38 82h8v1h-8v-1z" fill="rgb(182,129,68)"/>
<path d="M46 82h1v1h-1v-1z" fill="rgb(136,97,51)"/>
<path d="M81 82h2v1h-2v-1z" fill="rgb(136,97,51)"/>
<path d="M118 82h10v1h-10v-1z" fill="rgb(182,129,68)"/>
<path d="M46 83h1v1h-1v-1z" fill="rgb(106,69,38)"/>
<path d="M48 83h32v2h-32v-2z" fill="rgb(147,127,37)"/>
<path d="M81 83h2v1h-2v-1z" fill="rgb(106,69,38)"/>
<path d="M16 84h8v2h-8v-2z" fill="rgb(127,84,35)"/>
<path d="M24 84h2v2h-2v-2z" fill="rgb(169,112,47)"/>
<path d="M26 84h1v3h-3v-1h2v-2z" fill="rgb(182,129,68)"/>
<path d="M28 84h14v2h-14v-2z" fill="rgb(169,112,47)"/>
<path d="M42 84h1v3h-15v-1h14v-2z" fill="rgb(182,129,68)"/>
<path d="M44 84h2v2h-2v-2z" fill="rgb(169,112,47)"/>
<path d="M46 84h1v2h-1v-2z" fill="rgb(127,84,35)"/>
<path d="M81 84h2v2h-2v-2z" fill="rgb(127,84,35)"/>
<path d="M83 84h7v2h-7v-2z" fill="rgb(169,112,47)"/>
<path d="M90 84h1v3h-8v-1h7v-2z" fill="rgb(182,129,68)"/>
<path d="M92 84h14v2h-14v-2z" fill="rgb(169,112,47)"/>
<path d="M106 84h1v3h-15v-1h14v-2z" fill="rgb(182,129,68)"/>
<path d="M108 84h14v2h-14v-2z" fill="rgb(169,112,47)"/>
<path d="M122 84h1v3h-15v-1h14v-2z" fill="rgb(182,129,68)"/>
<path d="M124 84h4v2h-4v-2z" fill="rgb(169,112,47)"/>
<path d="M48 85h32v1h-4v2h-1v-2h-22v2h-1v-2h-4v-1z" fill="rgb(122,73,34)"/>
<path d="M16 86h8v1h-8v-1z" fill="rgb(136,97,51)"/>
<path d="M44 86h3v1h-3v-1z" fill="rgb(182,129,68)"/>
<path d="M47 86h1v1h-1v-1z" fill="rgb(136,97,51)"/>
<path d="M48 86h1v4h-1v-4z" fill="rgb(96,51,15)"/>
<path d="M49 86h3v2h-3v-2z" fill="rgb(142,92,51)"/>
<path d="M53 86h22v1h-22v-1z" fill="rgb(142,92,51)"/>
<path d="M76 86h3v2h-3v-2z" fill="rgb(142,92,51)"/>
<path d="M79 86h1v4h-1v-4z" fill="rgb(96,51,15)"/>
<path d="M80 86h3v1h-3v-1z" fill="rgb(136,97,51)"/>
<path d="M124 86h4v1h-4v-1z" fill="rgb(182,129,68)"/>
<path d="M16 87h8v1h-8v-1z" fill="rgb(106,69,38)"/>
<path d="M47 87h1v1h-1v-1z" fill="rgb(106,69,38)"/>
<path d="M53 87h22v1h-22v-1z" fill="rgb(96,51,15)"/>
<path d="M80 87h3v1h-3v-1z" fill="rgb(106,69,38)"/>
<path d="M16 88h7v2h-7v-2z" fill="rgb(127,84,35)"/>
<path d="M23 88h1v3h-8v-1h7v-2z" fill="rgb(136,97,51)"/>
<path d="M25 88h14v2h-14v-2z" fill="rgb(169,112,47)"/>
<path d="M39 88h1v3h-15v-1h14v-2z" fill="rgb(182,129,68)"/>
<path d="M41 88h6v2h-6v-2z" fill="rgb(169,112,47)"/>
<path d="M47 88h1v2h-1v-2z" fill="rgb(127,84,35)"/>
<path d="M49 88h3v2h-3v-2z" fill="rgb(158,98,49)"/>
<path d="M52 88h1v2h-1v-2z" fill="rgb(96,51,15)"/>
<path d="M53 88h2v2h-2v-2z" fill="rgb(127,84,35)"/>
<path d="M55 88h1v3h-4v-1h3v-2z" fill="rgb(136,97,51)"/>
<path d="M56 88h1v3h-1v-3z" fill="rgb(106,69,38)"/>
<path d="M57 88h14v2h-14v-2z" fill="rgb(127,84,35)"/>
<path d="M71 88h1v3h-15v-1h14v-2z" fill="rgb(136,97,51)"/>
<path d="M72 88h1v3h-1v-3z" fill="rgb(106,69,38)"/>
<path d="M73 88h2v2h-2v-2z" fill="rgb(127,84,35)"/>
<path d="M75 88h1v2h-1v-2z" fill="rgb(96,51,15)"/>
<path d="M76 88h3v2h-3v-2z" fill="rgb(158,98,49)"/>
<path d="M80 88h3v2h-3v-2z" fill="rgb(127,84,35)"/>
<path d="M83 88h4v2h-4v-2z" fill="rgb(169,112,47)"/>
<path d="M87 88h1v3h-6v-1h5v-2z" fill="rgb(182,129,68)"/>
<path d="M89 88h14v2h-14v-2z" fill="rgb(169,112,47)"/>
<path d="M103 88h1v3h-15v-1h14v-2z" fill="rgb(182,129,68)"/>
<path d="M105 88h14v2h-14v-2z" fill="rgb(169,112,47)"/>
<path d="M119 88h1v3h-15v-1h14v-2z" fill="rgb(182,129,68)"/>
<path d="M121 88h7v2h-7v-2z" fill="rgb(169,112,47)"/>
<path d="M41 90h6v1h-6v-1z" fill="rgb(182,129,68)"/>
<path d="M47 90h2v1h-2v-1z" fill="rgb(136,97,51)"/>
<path d="M49 90h3v1h-3v-1z" fill="rgb(96,51,15)"/>
<path d="M73 90h3v1h-3v-1z" fill="rgb(136,97,51)"/>
<path d="M76 90h3v1h-3v-1z" fill="rgb(96,51,15)"/>
<path d="M79 90h3v1h-3v-1z" fill="rgb(136,97,51)"/>
<path d="M121 90h7v1h-7v-1z" fill="rgb(182,129,68)"/>
<path d="M16 91h8v1h-8v-1z" fill="rgb(106,69,38)"/>
<path d="M48 91h5v1h-5v-1z" fill="rgb(106,69,38)"/>
<path d="M75 91h6v1h-1v1h-1v-1h-4v-1z" fill="rgb(106,69,38)"/>
<path d="M16 92h8v2h-8v-2z" fill="rgb(127,84,35)"/>
<path d="M24 92h6v2h-6v-2z" fill="rgb(169,112,47)"/>
<path d="M30 92h1v3h-7v-1h6v-2z" fill="rgb(182,129,68)"/>
<path d="M32 92h14v2h-14v-2z" fill="rgb(169,112,47)"/>
<path d="M46 92h1v3h-15v-1h14v-2z" fill="rgb(182,129,68)"/>
<path d="M48 92h1v1h3v-1h10v2h-14v-2z" fill="rgb(169,112,47)"/>
<path d="M49 92h3v1h-3v-1z" fill="rgb(127,84,35)"/>
<path d="M62 92h1v3h-15v-1h14v-2z" fill="rgb(182,129,68)"/>
<path d="M64 92h12v1h2v1h-14v-2z" fill="rgb(169,112,47)"/>
<path d="M76 92h2v1h-2v-1z" fill="rgb(127,84,35)"/>
<path d="M78 92h1v1h-1v-1z" fill="rgb(136,97,51)"/>
<path d="M80 92h14v2h-14v-2z" fill="rgb(169,112,47)"/>
<path d="M94 92h1v3h-15v-1h14v-2z" fill="rgb(182,129,68)"/>
<path d="M96 92h14v2h-14v-2z" fill="rgb(169,112,47)"/>
<path d="M110 92h1v3h-15v-1h14v-2z" fill="rgb(182,129,68)"/>
<path d="M112 92h14v2h-14v-2z" fill="rgb(169,112,47)"/>
<path d="M126 92h1v3h-15v-1h14v-2z" fill="rgb(182,129,68)"/>
<path d="M78 93h1v2h-15v-1h14v-1z" fill="rgb(182,129,68)"/>
<path d="M16 94h8v1h-8v-1z" fill="rgb(136,97,51)"/>
<path d="M16 95h8v1h-2v3h2v1h-8v-1h5v-3h-5v-1z" fill="rgb(106,69,38)"/>
<path d="M16 96h4v2h-4v-2z" fill="rgb(127,84,35)"/>
<path d="M20 96h1v3h-5v-1h4v-2z" fill="rgb(136,97,51)"/>
<path d="M22 96h2v2h-2v-2z" fill="rgb(127,84,35)"/>
<path d="M24 96h12v2h-12v-2z" fill="rgb(169,112,47)"/>
<path d="M36 96h1v3h-13v-1h12v-2z" fill="rgb(182,129,68)"/>
<path d="M38 96h14v2h-14v-2z" fill="rgb(169,112,47)"/>
<path d="M52 96h1v3h-15v-1h14v-2z" fill="rgb(182,129,68)"/>
<path d="M54 96h14v2h-14v-2z" fill="rgb(169,112,47)"/>
<path d="M68 96h1v3h-15v-1h14v-2z" fill="rgb(182,129,68)"/>
<path d="M70 96h14v2h-14v-2z" fill="rgb(169,112,47)"/>
<path d="M84 96h1v3h-15v-1h14v-2z" fill="rgb(182,129,68)"/>
<path d="M86 96h14v2h-14v-2z" fill="rgb(169,112,47)"/>
<path d="M100 96h1v3h-15v-1h14v-2z" fill="rgb(182,129,68)"/>
<path d="M102 96h14v2h-14v-2z" fill="rgb(169,112,47)"/>
<path d="M116 96h1v3h-15v-1h14v-2z" fill="rgb(182,129,68)"/>
<path d="M118 96h10v2h-10v-2z" fill="rgb(169,112,47)"/>
<path d="M22 98h2v1h-2v-1z" fill="rgb(136,97,51)"/>
<path d="M118 98h10v1h-10v-1z" fill="rgb(182,129,68)"/>
<path d="M16 100h8v2h-8v-2z" fill="rgb(127,84,35)"/>
<path d="M24 100h2v2h-2v-2z" fill="rgb(169,112,47)"/>
<path d="M26 100h1v3h-3v-1h2v-2z" fill="rgb(182,129,68)"/>
<path d="M28 100h14v2h-14v-2z" fill="rgb(169,112,47)"/>
<path d="M42 100h1v3h-15v-1h14v-2z" fill="rgb(182,129,68)"/>
<path d="M44 100h14v2h-14v-2z" fill="rgb(169,112,47)"/>
<path d="M58 100h1v3h-15v-1h14v-2z" fill="rgb(182,129,68)"/>
<path d="M60 100h14v2h-14v-2z" fill="rgb(169,112,47)"/>
<path d="M74 100h1v3h-15v-1h14v-2z" fill="rgb(182,129,68)"/>
<path d="M76 100h14v2h-14v-2z" fill="rgb(169,112,47)"/>
<path d="M90 100h1v3h-15v-1h14v-2z" fill="rgb(182,129,68)"/>
<path d="M92 100h14v2h-14v-2z" fill="rgb(169,112,47)"/>
<path d="M106 100h1v3h-15v-1h14v-2z" fill="rgb(182,129,68)"/>
<path d="M108 100h14v2h-14v-2z" fill="rgb(169,112,47)"/>
<path d="M122 100h1v3h-15v-1h14v-2z" fill="rgb(182,129,68)"/>
<path d="M124 100h4v2h-4v-2z" fill="rgb(169,112,47)"/>
<path d="M16 102h8v1h-8v-1z" fill="rgb(136,97,51)"/>
<path d="M124 102h4v1h-4v-1z" fill="rgb(182,129,68)"/>
<path d="M16 103h8v1h-8v-1z" fill="rgb(106,69,38)"/>
<path d="M16 104h7v2h-7v-2z" fill="rgb(127,84,35)"/>
<path d="M23 104h1v3h-8v-1h7v-2z" fill="rgb(136,97,51)"/>
<path d="M25 104h14v2h-14v-2z" fill="rgb(169,112,47)"/>
<path d="M39 104h1v3h-15v-1h14v-2z" fill="rgb(182,129,68)"/>
<path d="M41 104h14v2h-14v-2z" fill="rgb(169,112,47)"/>
<path d="M55 104h1v3h-15v-1h14v-2z" fill="rgb(182,129,68)"/>
<path d="M57 104h14v2h-14v-2z" fill="rgb(169,112,47)"/>
<path d="M71 104h1v3h-15v-1h14v-2z" fill="rgb(182,129,68)"/>
<path d="M73 104h14v2h-14v-2z" fill="rgb(169,112,47)"/>
<path d="M87 104h1v3h-15v-1h14v-2z" fill="rgb(182,129,68)"/>
<path d="M89 104h14v2h-14v-2z" fill="rgb(169,112,47)"/>
<path d="M103 104h1v3h-15v-1h14v-2z" fill="rgb(182,129,68)"/>
<path d="M105 104h14v2h-14v-2z" fill="rgb(169,112,47)"/>
<path d="M119 104h1v3h-15v-1h14v-2z" fill="rgb(182,129,68)"/>
<path d="M121 104h7v2h-7v-2z" fill="rgb(169,112,47)"/>
<path d="M121 106h7v1h-7v-1z" fill="rgb(182,129,68)"/>
<path d="M16 107h8v1h-8v-1z" fill="rgb(106,69,38)"/>
<path d="M16 108h8v2h-8v-2z" fill="rgb(127,84,35)"/>
<path d="M24 108h6v2h-6v-2z" fill="rgb(169,112,47)"/>
<path d="M30 108h1v3h-7v-1h6v-2z" fill="rgb(182,129,68)"/>
<path d="M32 108h14v2h-14v-2z" fill="rgb(169,112,47)"/>
<path d="M46 108h1v3h-15v-1h14v-2z" fill="rgb(182,129,68)"/>
<path d="M48 108h14v2h-14v-2z" fill="rgb(169,112,47)"/>
<path d="M62 108h1v3h-15v-1h14v-2z" fill="rgb(182,129,68)"/>
<path d="M64 108h14v2h-14v-2z" fill="rgb(169,112,47)"/>
<path d="M78 108h1v3h-15v-1h14v-2z" fill="rgb(182,129,68)"/>
<path d="M80 108h14v2h-14v-2z" fill="rgb(169,112,47)"/>
<path d="M94 108h1v3h-15v-1h14v-2z" fill="rgb(182,129,68)"/>
<path d="M96 108h14v2h-14v-2z" fill="rgb(169,112,47)"/>
<path d="M110 108h1v3h-15v-1h14v-2z" fill="rgb(182,129,68)"/>
<path d="M112 108h14v2h-14v-2z" fill="rgb(169,112,47)"/>
<path d="M126 108h1v3h-15v-1h14v-2z" fill="rgb(182,129,68)"/>
<path d="M16 110h8v1h-8v-1z" fill="rgb(136,97,51)"/>
<path d="M16 111h8v1h-8v-1z" fill="rgb(106,69,38)"/>
</svg>