<?xml version="1.0" encoding="utf-8"?>
<!-- generated at drububu.com  -->
<!DOCTYPE svg PUBLIC "-//W3C//DTD SVG 1.1//EN" "http://www.w3.org/Graphics/SVG/1.1/DTD/svg11.dtd">
<svg version="1.1" preserveAspectRatio="xMinYMin meet" xmlns="http://www.w3.org/2000/svg" xmlns:xlink="http://www.w3.org/1999/xlink" x="0px" y="0px" width="192px" height="112px" viewBox="0 0 192 112">
<path d="M0 0h9v112h-9v-112z" fill="rgb(0,0,0)"/>
<path d="M9 0h174v112h-1v-111h-172v111h-1v-112z" fill="rgb(105,105,105)"/>
<path d="M183 0h9v112h-9v-112z" fill="rgb(0,0,0)"/>
<path d="M10 1h172v111h-5v-108h-162v108h-5v-111z" fill="rgb(255,255,255)"/>
<path d="M15 4h162v4h-1v-3h-160v3h-1v-4z" fill="rgb(181,181,181)"/>
<path d="M16 5h160v3h-160v-3z" fill="rgb(238,238,238)"/>
<path d="M15 8h162v104h-1v-103h-160v103h-1v-104z" fill="rgb(130,130,130)"/>
<path d="M16 9h160v1h-160v-1z" fill="rgb(197,197,197)"/>
<path d="M16 10h160v13h-5v-1h-2v-1h-2v1h-2v1h-80v-9h-42v9h-16v-1h-2v-1h-2v1h-2v1h-5v-13z" fill="rgb(232,232,232)"/>
<path d="M43 14h42v26h-5v-21h1v20h3v-24h-40v24h3v-20h1v21h-5v-26z" fill="rgb(71,71,71)"/>
<path d="M44 15h40v1h-40v-1z" fill="rgb(216,216,216)"/>
<path d="M44 16h40v1h-40v-1z" fill="rgb(129,129,129)"/>
<path d="M44 17h12v1h-9v8h-3v-9z" fill="rgb(160,160,160)"/>
<path d="M56 17h1v1h-1v-1z" fill="rgb(153,242,143)"/>
<path d="M57 17h4v1h-4v-1z" fill="rgb(160,160,160)"/>
<path d="M61 17h1v1h-1v-1z" fill="rgb(216,216,216)"/>
<path d="M62 17h4v1h-4v-1z" fill="rgb(160,160,160)"/>
<path d="M66 17h1v1h-1v-1z" fill="rgb(216,216,216)"/>
<path d="M67 17h4v1h-4v-1z" fill="rgb(160,160,160)"/>
<path d="M71 17h1v1h-1v-1z" fill="rgb(216,216,216)"/>
<path d="M72 17h12v17h-3v-16h-9v-1z" fill="rgb(160,160,160)"/>
<path d="M47 18h34v1h-34v-1z" fill="rgb(37,37,37)"/>
<path d="M48 19h15v1h-15v-1z" fill="rgb(129,129,129)"/>
<path d="M63 19h2v21h-2v-21z" fill="rgb(71,71,71)"/>
<path d="M65 19h15v1h-15v-1z" fill="rgb(129,129,129)"/>
<path d="M48 20h15v1h-13v1h-1v16h14v1h-15v-19z" fill="rgb(160,160,160)"/>
<path d="M65 20h15v19h-15v-1h13v-1h1v-16h-14v-1z" fill="rgb(160,160,160)"/>
<path d="M23 21h2v1h-2v-1z" fill="rgb(92,117,47)"/>
<path d="M50 21h7v1h-1v1h-1v1h-1v1h-1v1h-1v1h-1v1h-1v1h-1v-7h1v-1z" fill="rgb(198,198,198)"/>
<path d="M57 21h1v1h-1v-1z" fill="rgb(216,216,216)"/>
<path d="M58 21h2v1h-1v1h-1v1h-1v1h-1v1h-1v1h-1v1h-1v1h-1v1h-1v1h-1v1h-1v-2h1v-1h1v-1h1
	v-1h1v-1h1v-1h1v-1h1v-1h1v-1h1v-1z" fill="rgb(198,198,198)"/>
<path d="M60 21h3v1h-1v1h-1v1h-1v1h-1v1h-1v1h-1v1h-1v1h-1v1h-1v1h-1v1h-1v1h-1v1h-1v1h-1
	v-3h1v-1h1v-1h1v-1h1v-1h1v-1h1v-1h1v-1h1v-1h1v-1h1v-1h1v-1z" fill="rgb(216,216,216)"/>
<path d="M65 21h9v1h-1v1h-1v1h-1v1h-1v1h-1v1h-1v1h-1v1h-1v1h-1v-9z" fill="rgb(198,198,198)"/>
<path d="M74 21h1v1h-1v-1z" fill="rgb(216,216,216)"/>
<path d="M75 21h2v1h-1v1h-1v1h-1v1h-1v1h-1v1h-1v1h-1v1h-1v1h-1v1h-1v1h-1v1h-1v-2h1v-1h1
	v-1h1v-1h1v-1h1v-1h1v-1h1v-1h1v-1h1v-1h1v-1z" fill="rgb(198,198,198)"/>
<path d="M77 21h2v2h-1v1h-1v1h-1v1h-1v1h-1v1h-1v1h-1v1h-1v1h-1v1h-1v1h-1v1h-1v1h-1v1h-1
	v-3h1v-1h1v-1h1v-1h1v-1h1v-1h1v-1h1v-1h1v-1h1v-1h1v-1h1v-1h1v-1z" fill="rgb(216,216,216)"/>
<path d="M167 21h2v1h-2v-1z" fill="rgb(92,117,47)"/>
<path d="M21 22h2v1h-2v-1z" fill="rgb(92,117,47)"/>
<path d="M23 22h2v2h-2v-2z" fill="rgb(186,224,112)"/>
<path d="M25 22h2v1h-2v-1z" fill="rgb(92,117,47)"/>
<path d="M56 22h1v1h-1v-1z" fill="rgb(216,216,216)"/>
<path d="M62 22h1v10h-1v1h-1v1h-1v1h-1v1h-1v1h-1v1h-8v-3h1v-1h1v-1h1v-1h1v-1h1v-1h1v-1h1
	v-1h1v-1h1v-1h1v-1h1v-1h1v-1h1v-1z" fill="rgb(198,198,198)"/>
<path d="M73 22h1v1h-1v-1z" fill="rgb(216,216,216)"/>
<path d="M165 22h2v1h-2v-1z" fill="rgb(92,117,47)"/>
<path d="M167 22h2v2h-2v-2z" fill="rgb(186,224,112)"/>
<path d="M169 22h2v1h-2v-1z" fill="rgb(92,117,47)"/>
<path d="M16 23h4v1h-4v-1z" fill="rgb(78,102,136)"/>
<path d="M20 23h1v1h-1v-1z" fill="rgb(92,117,47)"/>
<path d="M21 23h1v2h-1v1h-1v-2h1v-1z" fill="rgb(186,224,112)"/>
<path d="M22 23h1v1h-1v-1z" fill="rgb(146,184,75)"/>
<path d="M25 23h1v1h-1v-1z" fill="rgb(146,184,75)"/>
<path d="M26 23h1v1h1v2h-1v-1h-1v-2z" fill="rgb(186,224,112)"/>
<path d="M27 23h1v1h-1v-1z" fill="rgb(92,117,47)"/>
<path d="M28 23h15v1h-15v-1z" fill="rgb(78,102,136)"/>
<path d="M55 23h1v1h-1v-1z" fill="rgb(216,216,216)"/>
<path d="M72 23h1v1h-1v-1z" fill="rgb(216,216,216)"/>
<path d="M78 23h1v10h-1v1h-1v1h-1v1h-1v1h-1v1h-9v-2h1v-1h1v-1h1v-1h1v-1h1v-1h1v-1h1v-1h1
	v-1h1v-1h1v-1h1v-1h1v-1h1v-1z" fill="rgb(198,198,198)"/>
<path d="M85 23h79v1h-79v-1z" fill="rgb(78,102,136)"/>
<path d="M164 23h1v1h-1v-1z" fill="rgb(92,117,47)"/>
<path d="M165 23h1v2h-1v1h-1v-2h1v-1z" fill="rgb(186,224,112)"/>
<path d="M166 23h1v1h-1v-1z" fill="rgb(146,184,75)"/>
<path d="M169 23h1v1h-1v-1z" fill="rgb(146,184,75)"/>
<path d="M170 23h1v1h1v2h-1v-1h-1v-2z" fill="rgb(186,224,112)"/>
<path d="M171 23h1v1h-1v-1z" fill="rgb(92,117,47)"/>
<path d="M172 23h4v1h-4v-1z" fill="rgb(78,102,136)"/>
<path d="M16 24h3v1h-3v-1z" fill="rgb(182,197,212)"/>
<path d="M19 24h1v1h-1v-1z" fill="rgb(92,117,47)"/>
<path d="M22 24h4v2h-1v-1h-2v1h-1v-2z" fill="rgb(170,209,97)"/>
<path d="M28 24h1v1h-1v-1z" fill="rgb(92,117,47)"/>
<path d="M29 24h14v1h-14v-1z" fill="rgb(182,197,212)"/>
<path d="M54 24h1v1h-1v-1z" fill="rgb(216,216,216)"/>
<path d="M71 24h1v1h-1v-1z" fill="rgb(216,216,216)"/>
<path d="M85 24h78v1h-78v-1z" fill="rgb(182,197,212)"/>
<path d="M163 24h1v1h-1v-1z" fill="rgb(92,117,47)"/>
<path d="M166 24h4v2h-1v-1h-2v1h-1v-2z" fill="rgb(170,209,97)"/>
<path d="M172 24h1v1h-1v-1z" fill="rgb(92,117,47)"/>
<path d="M173 24h3v1h-3v-1z" fill="rgb(182,197,212)"/>
<path d="M16 25h2v3h-2v-3z" fill="rgb(155,173,192)"/>
<path d="M18 25h1v3h-1v-3z" fill="rgb(92,117,47)"/>
<path d="M19 25h1v1h1v1h-1v1h-1v-3z" fill="rgb(170,209,97)"/>
<path d="M21 25h1v2h-1v-2z" fill="rgb(146,184,75)"/>
<path d="M23 25h2v1h1v2h-1v1h-2v-1h-1v-2h1v-1z" fill="rgb(186,224,112)"/>
<path d="M26 25h1v2h-1v-2z" fill="rgb(146,184,75)"/>
<path d="M28 25h1v3h-1v-1h-1v-1h1v-1z" fill="rgb(170,209,97)"/>
<path d="M29 25h1v3h-1v-3z" fill="rgb(92,117,47)"/>
<path d="M30 25h13v3h-13v-3z" fill="rgb(155,173,192)"/>
<path d="M53 25h1v1h-1v-1z" fill="rgb(216,216,216)"/>
<path d="M70 25h1v1h-1v-1z" fill="rgb(216,216,216)"/>
<path d="M85 25h77v3h-77v-3z" fill="rgb(155,173,192)"/>
<path d="M162 25h1v3h-1v-3z" fill="rgb(92,117,47)"/>
<path d="M163 25h1v1h1v1h-1v1h-1v-3z" fill="rgb(170,209,97)"/>
<path d="M165 25h1v2h-1v-2z" fill="rgb(146,184,75)"/>
<path d="M167 25h2v1h1v2h-1v1h-2v-1h-1v-2h1v-1z" fill="rgb(186,224,112)"/>
<path d="M170 25h1v2h-1v-2z" fill="rgb(146,184,75)"/>
<path d="M172 25h1v3h-1v-1h-1v-1h1v-1z" fill="rgb(170,209,97)"/>
<path d="M173 25h1v3h-1v-3z" fill="rgb(92,117,47)"/>
<path d="M174 25h2v3h-2v-3z" fill="rgb(155,173,192)"/>
<path d="M44 26h3v5h-3v-5z" fill="rgb(129,129,129)"/>
<path d="M52 26h1v1h-1v-1z" fill="rgb(216,216,216)"/>
<path d="M69 26h1v1h-1v-1z" fill="rgb(216,216,216)"/>
<path d="M20 27h1v2h1v1h4v-1h1v-2h1v1h1v1h-1v2h-2v1h-4v-1h-2v-2h-1v-1h1v-1z" fill="rgb(146,184,75)"/>
<path d="M21 27h1v1h1v1h2v-1h1v-1h1v2h-1v1h-4v-1h-1v-2z" fill="rgb(170,209,97)"/>
<path d="M45 27h1v1h-1v-1z" fill="rgb(216,216,216)"/>
<path d="M51 27h1v1h-1v-1z" fill="rgb(216,216,216)"/>
<path d="M68 27h1v1h-1v-1z" fill="rgb(216,216,216)"/>
<path d="M164 27h1v2h1v1h4v-1h1v-2h1v1h1v1h-1v2h-2v1h-4v-1h-2v-2h-1v-1h1v-1z" fill="rgb(146,184,75)"/>
<path d="M165 27h1v1h1v1h2v-1h1v-1h1v2h-1v1h-4v-1h-1v-2z" fill="rgb(170,209,97)"/>
<path d="M16 28h1v1h-1v-1z" fill="rgb(78,102,136)"/>
<path d="M17 28h1v4h-1v-4z" fill="rgb(92,117,47)"/>
<path d="M18 28h1v1h1v2h-1v-1h-1v-2z" fill="rgb(121,154,61)"/>
<path d="M29 28h1v2h-1v1h-1v-2h1v-1z" fill="rgb(121,154,61)"/>
<path d="M30 28h1v4h-1v-4z" fill="rgb(92,117,47)"/>
<path d="M31 28h12v1h-12v-1z" fill="rgb(78,102,136)"/>
<path d="M50 28h1v1h-1v-1z" fill="rgb(216,216,216)"/>
<path d="M67 28h1v1h-1v-1z" fill="rgb(216,216,216)"/>
<path d="M85 28h76v1h-76v-1z" fill="rgb(78,102,136)"/>
<path d="M161 28h1v4h-1v-4z" fill="rgb(92,117,47)"/>
<path d="M162 28h1v1h1v2h-1v-1h-1v-2z" fill="rgb(121,154,61)"/>
<path d="M173 28h1v2h-1v1h-1v-2h1v-1z" fill="rgb(121,154,61)"/>
<path d="M174 28h1v4h-1v-4z" fill="rgb(92,117,47)"/>
<path d="M175 28h1v1h-1v-1z" fill="rgb(78,102,136)"/>
<path d="M16 29h1v3h-1v-3z" fill="rgb(127,161,189)"/>
<path d="M31 29h1v4h-1v-4z" fill="rgb(155,173,192)"/>
<path d="M32 29h2v3h-2v-3z" fill="rgb(127,161,189)"/>
<path d="M34 29h2v4h-1v1h-1v-5z" fill="rgb(155,173,192)"/>
<path d="M36 29h2v3h-2v-3z" fill="rgb(127,161,189)"/>
<path d="M38 29h2v4h-1v1h-1v-5z" fill="rgb(155,173,192)"/>
<path d="M40 29h2v3h-2v-3z" fill="rgb(127,161,189)"/>
<path d="M42 29h1v5h-1v-5z" fill="rgb(155,173,192)"/>
<path d="M45 29h1v1h-1v-1z" fill="rgb(216,216,216)"/>
<path d="M49 29h1v1h-1v-1z" fill="rgb(216,216,216)"/>
<path d="M66 29h1v1h-1v-1z" fill="rgb(216,216,216)"/>
<path d="M85 29h1v3h-1v-3z" fill="rgb(127,161,189)"/>
<path d="M86 29h2v4h-1v1h-1v-5z" fill="rgb(155,173,192)"/>
<path d="M88 29h2v3h-2v-3z" fill="rgb(127,161,189)"/>
<path d="M90 29h2v4h-1v1h-1v-5z" fill="rgb(155,173,192)"/>
<path d="M92 29h2v3h-2v-3z" fill="rgb(127,161,189)"/>
<path d="M94 29h2v4h-1v1h-1v-5z" fill="rgb(155,173,192)"/>
<path d="M96 29h1v1h-1v-1z" fill="rgb(127,161,189)"/>
<path d="M97 29h14v1h-14v-1z" fill="rgb(48,48,48)"/>
<path d="M111 29h1v1h-1v-1z" fill="rgb(155,173,192)"/>
<path d="M112 29h2v3h-2v-3z" fill="rgb(127,161,189)"/>
<path d="M114 29h2v4h-1v1h-1v-5z" fill="rgb(155,173,192)"/>
<path d="M116 29h2v3h-2v-3z" fill="rgb(127,161,189)"/>
<path d="M118 29h2v4h-1v1h-1v-5z" fill="rgb(155,173,192)"/>
<path d="M120 29h2v3h-2v-3z" fill="rgb(127,161,189)"/>
<path d="M122 29h2v4h-1v1h-1v-5z" fill="rgb(155,173,192)"/>
<path d="M124 29h2v3h-2v-3z" fill="rgb(127,161,189)"/>
<path d="M126 29h2v4h-1v1h-1v-5z" fill="rgb(155,173,192)"/>
<path d="M128 29h2v3h-2v-3z" fill="rgb(127,161,189)"/>
<path d="M130 29h2v4h-1v1h-1v-5z" fill="rgb(155,173,192)"/>
<path d="M132 29h2v3h-2v-3z" fill="rgb(127,161,189)"/>
<path d="M134 29h2v4h-1v1h-1v-5z" fill="rgb(155,173,192)"/>
<path d="M136 29h2v3h-2v-3z" fill="rgb(127,161,189)"/>
<path d="M138 29h2v4h-1v1h-1v-5z" fill="rgb(155,173,192)"/>
<path d="M140 29h2v3h-2v-3z" fill="rgb(127,161,189)"/>
<path d="M142 29h2v4h-1v1h-1v-5z" fill="rgb(155,173,192)"/>
<path d="M144 29h2v3h-2v-3z" fill="rgb(127,161,189)"/>
<path d="M146 29h2v4h-1v1h-1v-5z" fill="rgb(155,173,192)"/>
<path d="M148 29h2v3h-2v-3z" fill="rgb(127,161,189)"/>
<path d="M150 29h2v4h-1v1h-1v-5z" fill="rgb(155,173,192)"/>
<path d="M152 29h2v3h-2v-3z" fill="rgb(127,161,189)"/>
<path d="M154 29h2v4h-1v1h-1v-5z" fill="rgb(155,173,192)"/>
<path d="M156 29h2v3h-2v-3z" fill="rgb(127,161,189)"/>
<path d="M158 29h2v4h-1v1h-1v-5z" fill="rgb(155,173,192)"/>
<path d="M160 29h1v3h-1v-3z" fill="rgb(127,161,189)"/>
<path d="M175 29h1v4h-1v-4z" fill="rgb(155,173,192)"/>
<path d="M18 30h1v1h1v2h-1v1h-1v-4z" fill="rgb(146,184,75)"/>
<path d="M29 30h1v4h-1v-1h-1v-2h1v-1z" fill="rgb(146,184,75)"/>
<path d="M65 30h1v1h-1v-1z" fill="rgb(216,216,216)"/>
<path d="M96 30h1v22h-1v-22z" fill="rgb(48,48,48)"/>
<path d="M97 30h2v1h-1v19h-1v-20z" fill="rgb(188,188,188)"/>
<path d="M99 30h10v1h1v9h1v1h30v10h-43v-20h1v-1z" fill="rgb(205,205,205)"/>
<path d="M109 30h2v10h-1v-9h-1v-1z" fill="rgb(238,238,238)"/>
<path d="M111 30h1v10h-1v-10z" fill="rgb(48,48,48)"/>
<path d="M162 30h1v1h1v2h-1v1h-1v-4z" fill="rgb(146,184,75)"/>
<path d="M173 30h1v4h-1v-1h-1v-2h1v-1z" fill="rgb(146,184,75)"/>
<path d="M20 31h2v1h4v-1h2v2h1v3h-2v-1h-1v2h-1v1h-2v-1h-1v-2h-1v1h-2v-3h1v-2z" fill="rgb(121,154,61)"/>
<path d="M44 31h3v3h-3v-3z" fill="rgb(160,160,160)"/>
<path d="M164 31h2v1h4v-1h2v2h1v3h-2v-1h-1v2h-1v1h-2v-1h-1v-2h-1v1h-2v-3h1v-2z" fill="rgb(121,154,61)"/>
<path d="M16 32h1v2h1v5h-2v-7z" fill="rgb(104,137,165)"/>
<path d="M17 32h1v2h-1v-2z" fill="rgb(71,89,36)"/>
<path d="M30 32h1v2h-1v-2z" fill="rgb(71,89,36)"/>
<path d="M32 32h2v7h-2v-7z" fill="rgb(104,137,165)"/>
<path d="M36 32h2v7h-2v-7z" fill="rgb(104,137,165)"/>
<path d="M40 32h2v7h-2v-7z" fill="rgb(104,137,165)"/>
<path d="M62 32h1v1h-1v-1z" fill="rgb(216,216,216)"/>
<path d="M85 32h1v7h-1v-7z" fill="rgb(104,137,165)"/>
<path d="M88 32h2v7h-2v-7z" fill="rgb(104,137,165)"/>
<path d="M92 32h2v7h-2v-7z" fill="rgb(104,137,165)"/>
<path d="M112 32h2v7h-2v-7z" fill="rgb(104,137,165)"/>
<path d="M116 32h2v7h-2v-7z" fill="rgb(104,137,165)"/>
<path d="M120 32h2v7h-2v-7z" fill="rgb(104,137,165)"/>
<path d="M124 32h2v7h-2v-7z" fill="rgb(104,137,165)"/>
<path d="M128 32h2v7h-2v-7z" fill="rgb(104,137,165)"/>
<path d="M132 32h2v7h-2v-7z" fill="rgb(104,137,165)"/>
<path d="M136 32h2v7h-2v-7z" fill="rgb(104,137,165)"/>
<path d="M140 32h2v7h-2v-7z" fill="rgb(104,137,165)"/>
<path d="M144 32h2v7h-2v-7z" fill="rgb(104,137,165)"/>
<path d="M148 32h2v7h-2v-7z" fill="rgb(104,137,165)"/>
<path d="M152 32h2v7h-2v-7z" fill="rgb(104,137,165)"/>
<path d="M156 32h2v7h-2v-7z" fill="rgb(104,137,165)"/>
<path d="M160 32h1v2h1v5h-2v-7z" fill="rgb(104,137,165)"/>
<path d="M161 32h1v2h-1v-2z" fill="rgb(71,89,36)"/>
<path d="M174 32h1v2h-1v-2z" fill="rgb(71,89,36)"/>
<path d="M31 33h1v6h-2v-5h1v-1z" fill="rgb(134,156,180)"/>
<path d="M35 33h1v6h-2v-5h1v-1z" fill="rgb(134,156,180)"/>
<path d="M39 33h1v6h-2v-5h1v-1z" fill="rgb(134,156,180)"/>
<path d="M61 33h1v1h-1v-1z" fill="rgb(216,216,216)"/>
<path d="M62 33h1v2h-1v1h-1v1h-1v1h-2v-1h1v-1h1v-1h1v-1h1v-1z" fill="rgb(198,198,198)"/>
<path d="M78 33h1v1h-1v-1z" fill="rgb(216,216,216)"/>
<path d="M87 33h1v6h-2v-5h1v-1z" fill="rgb(134,156,180)"/>
<path d="M91 33h1v6h-2v-5h1v-1z" fill="rgb(134,156,180)"/>
<path d="M95 33h1v6h-2v-5h1v-1z" fill="rgb(134,156,180)"/>
<path d="M115 33h1v6h-2v-5h1v-1z" fill="rgb(134,156,180)"/>
<path d="M119 33h1v6h-2v-5h1v-1z" fill="rgb(134,156,180)"/>
<path d="M123 33h1v6h-2v-5h1v-1z" fill="rgb(134,156,180)"/>
<path d="M127 33h1v6h-2v-5h1v-1z" fill="rgb(134,156,180)"/>
<path d="M131 33h1v6h-2v-5h1v-1z" fill="rgb(134,156,180)"/>
<path d="M135 33h1v6h-2v-5h1v-1z" fill="rgb(134,156,180)"/>
<path d="M139 33h1v6h-2v-5h1v-1z" fill="rgb(134,156,180)"/>
<path d="M143 33h1v6h-2v-5h1v-1z" fill="rgb(134,156,180)"/>
<path d="M147 33h1v6h-2v-5h1v-1z" fill="rgb(134,156,180)"/>
<path d="M151 33h1v6h-2v-5h1v-1z" fill="rgb(134,156,180)"/>
<path d="M155 33h1v6h-2v-5h1v-1z" fill="rgb(134,156,180)"/>
<path d="M159 33h1v6h-2v-5h1v-1z" fill="rgb(134,156,180)"/>
<path d="M175 33h1v6h-2v-5h1v-1z" fill="rgb(134,156,180)"/>
<path d="M18 34h1v2h-1v-2z" fill="rgb(71,89,36)"/>
<path d="M29 34h1v2h-1v-2z" fill="rgb(71,89,36)"/>
<path d="M42 34h1v5h-1v-5z" fill="rgb(134,156,180)"/>
<path d="M44 34h3v1h-3v-1z" fill="rgb(129,129,129)"/>
<path d="M60 34h1v1h-1v-1z" fill="rgb(216,216,216)"/>
<path d="M77 34h1v1h-1v-1z" fill="rgb(216,216,216)"/>
<path d="M78 34h1v3h-1v1h-3v-1h1v-1h1v-1h1v-1z" fill="rgb(198,198,198)"/>
<path d="M81 34h3v1h-3v-1z" fill="rgb(129,129,129)"/>
<path d="M162 34h1v2h-1v-2z" fill="rgb(71,89,36)"/>
<path d="M173 34h1v2h-1v-2z" fill="rgb(71,89,36)"/>
<path d="M21 35h1v2h-2v-1h1v-1z" fill="rgb(99,131,38)"/>
<path d="M26 35h1v1h1v1h-2v-2z" fill="rgb(99,131,38)"/>
<path d="M44 35h3v1h-3v-1z" fill="rgb(160,160,160)"/>
<path d="M59 35h1v1h-1v-1z" fill="rgb(216,216,216)"/>
<path d="M62 35h1v3h-3v-1h1v-1h1v-1z" fill="rgb(216,216,216)"/>
<path d="M76 35h1v1h-1v-1z" fill="rgb(216,216,216)"/>
<path d="M81 35h3v1h-3v-1z" fill="rgb(160,160,160)"/>
<path d="M165 35h1v2h-2v-1h1v-1z" fill="rgb(99,131,38)"/>
<path d="M170 35h1v1h1v1h-2v-2z" fill="rgb(99,131,38)"/>
<path d="M18 36h1v1h1v2h-2v-3z" fill="rgb(134,156,180)"/>
<path d="M19 36h1v1h-1v-1z" fill="rgb(71,89,36)"/>
<path d="M28 36h1v1h-1v-1z" fill="rgb(71,89,36)"/>
<path d="M29 36h1v3h-2v-2h1v-1z" fill="rgb(104,137,165)"/>
<path d="M44 36h3v3h-3v-3z" fill="rgb(129,129,129)"/>
<path d="M58 36h1v1h-1v-1z" fill="rgb(216,216,216)"/>
<path d="M75 36h1v1h-1v-1z" fill="rgb(216,216,216)"/>
<path d="M81 36h3v3h-3v-3z" fill="rgb(129,129,129)"/>
<path d="M162 36h1v1h1v2h-2v-3z" fill="rgb(134,156,180)"/>
<path d="M163 36h1v1h-1v-1z" fill="rgb(71,89,36)"/>
<path d="M172 36h1v1h-1v-1z" fill="rgb(71,89,36)"/>
<path d="M173 36h1v3h-2v-2h1v-1z" fill="rgb(104,137,165)"/>
<path d="M20 37h2v1h-2v-1z" fill="rgb(71,89,36)"/>
<path d="M22 37h1v1h-1v-1z" fill="rgb(99,131,38)"/>
<path d="M25 37h1v1h-1v-1z" fill="rgb(99,131,38)"/>
<path d="M26 37h2v1h-2v-1z" fill="rgb(71,89,36)"/>
<path d="M57 37h1v1h-1v-1z" fill="rgb(216,216,216)"/>
<path d="M74 37h1v1h-1v-1z" fill="rgb(216,216,216)"/>
<path d="M164 37h2v1h-2v-1z" fill="rgb(71,89,36)"/>
<path d="M166 37h1v1h-1v-1z" fill="rgb(99,131,38)"/>
<path d="M169 37h1v1h-1v-1z" fill="rgb(99,131,38)"/>
<path d="M170 37h2v1h-2v-1z" fill="rgb(71,89,36)"/>
<path d="M20 38h2v1h-2v-1z" fill="rgb(104,137,165)"/>
<path d="M22 38h1v5h-1v-5z" fill="rgb(105,70,35)"/>
<path d="M23 38h2v2h-2v-2z" fill="rgb(163,108,54)"/>
<path d="M25 38h1v5h-1v-5z" fill="rgb(105,70,35)"/>
<path d="M26 38h2v1h-2v-1z" fill="rgb(134,156,180)"/>
<path d="M164 38h2v1h-2v-1z" fill="rgb(104,137,165)"/>
<path d="M166 38h1v5h-1v-5z" fill="rgb(105,70,35)"/>
<path d="M167 38h2v2h-2v-2z" fill="rgb(163,108,54)"/>
<path d="M169 38h1v5h-1v-5z" fill="rgb(105,70,35)"/>
<path d="M170 38h2v1h-2v-1z" fill="rgb(134,156,180)"/>
<path d="M16 39h4v1h-4v-1z" fill="rgb(78,102,136)"/>
<path d="M20 39h2v1h-2v-1z" fill="rgb(48,48,48)"/>
<path d="M26 39h2v1h-2v-1z" fill="rgb(48,48,48)"/>
<path d="M28 39h15v1h-15v-1z" fill="rgb(78,102,136)"/>
<path d="M48 39h15v1h-15v-1z" fill="rgb(129,129,129)"/>
<path d="M65 39h15v1h-15v-1z" fill="rgb(129,129,129)"/>
<path d="M85 39h11v1h-11v-1z" fill="rgb(78,102,136)"/>
<path d="M112 39h52v1h-52v-1z" fill="rgb(78,102,136)"/>
<path d="M164 39h2v1h-2v-1z" fill="rgb(48,48,48)"/>
<path d="M170 39h2v1h-2v-1z" fill="rgb(48,48,48)"/>
<path d="M172 39h4v1h-4v-1z" fill="rgb(78,102,136)"/>
<path d="M16 40h3v1h-1v4h-1v1h-1v-6z" fill="rgb(112,166,151)"/>
<path d="M19 40h1v1h-1v-1z" fill="rgb(48,48,48)"/>
<path d="M20 40h2v1h-2v-1z" fill="rgb(174,174,174)"/>
<path d="M23 40h2v4h-2v-4z" fill="rgb(190,126,63)"/>
<path d="M26 40h2v1h-2v-1z" fill="rgb(174,174,174)"/>
<path d="M28 40h1v1h-1v-1z" fill="rgb(48,48,48)"/>
<path d="M29 40h9v1h-1v1h-1v1h-1v1h-1v1h-1v1h-2v-3h-1v-2h-1v-1z" fill="rgb(112,166,151)"/>
<path d="M38 40h4v1h1v1h1v1h1v1h1v1h1v1h2v-1h1v-1h1v-1h1v-1h1v-1h1v-1h4v1h1v1h1v1h1v1h1
	v1h1v1h2v-1h1v-1h1v-1h1v-1h1v-1h1v-1h4v1h1v1h1v1h1v1h1v1h1v1h2v-1h1v-1h1v-1h1
	v-1h1v-1h1v-1h4v1h1v1h1v1h1v1h1v1h1v3h-1v-1h-1v-1h-1v-1h-1v-1h-1v-1h-1v-1h-2v1
	h-1v1h-1v1h-1v1h-1v1h-1v1h-4v-1h-1v-1h-1v-1h-1v-1h-1v-1h-1v-1h-2v1h-1v1h-1v1h-1
	v1h-1v1h-1v1h-4v-1h-1v-1h-1v-1h-1v-1h-1v-1h-1v-1h-2v1h-1v1h-1v1h-1v1h-1v1h-1v1
	h-4v-1h-1v-1h-1v-1h-1v-1h-1v-1h-1v-1h-2v1h-1v1h-1v1h-1v1h-1v1h-1v1h-3v-2h2v-1h1
	v-1h1v-1h1v-1h1v-1h1v-1z" fill="rgb(146,180,171)"/>
<path d="M42 40h12v1h-1v1h-1v1h-1v1h-1v1h-1v1h-2v-1h-1v-1h-1v-1h-1v-1h-1v-1h-1v-1z" fill="rgb(112,166,151)"/>
<path d="M58 40h12v1h-1v1h-1v1h-1v1h-1v1h-1v1h-2v-1h-1v-1h-1v-1h-1v-1h-1v-1h-1v-1z" fill="rgb(112,166,151)"/>
<path d="M74 40h12v1h-1v1h-1v1h-1v1h-1v1h-1v1h-2v-1h-1v-1h-1v-1h-1v-1h-1v-1h-1v-1z" fill="rgb(112,166,151)"/>
<path d="M90 40h5v5h-1v-1h-1v-1h-1v-1h-1v-1h-1v-1z" fill="rgb(112,166,151)"/>
<path d="M95 40h1v6h-1v-6z" fill="rgb(84,124,113)"/>
<path d="M111 40h1v1h-1v-1z" fill="rgb(188,188,188)"/>
<path d="M112 40h30v1h-30v-1z" fill="rgb(48,48,48)"/>
<path d="M142 40h8v1h-1v1h-1v1h-1v1h-1v1h-1v1h-2v-5h-1v-1z" fill="rgb(112,166,151)"/>
<path d="M150 40h4v1h1v1h1v1h1v1h1v1h1v1h2v-1h1v3h-4v-1h-1v-1h-1v-1h-1v-1h-1v-1h-1v-1h-2
	v1h-1v1h-1v1h-1v1h-1v1h-1v1h-3v-2h2v-1h1v-1h1v-1h1v-1h1v-1h1v-1z" fill="rgb(146,180,171)"/>
<path d="M154 40h9v1h-1v4h-1v1h-2v-1h-1v-1h-1v-1h-1v-1h-1v-1h-1v-1z" fill="rgb(112,166,151)"/>
<path d="M163 40h1v1h-1v-1z" fill="rgb(48,48,48)"/>
<path d="M164 40h2v1h-2v-1z" fill="rgb(174,174,174)"/>
<path d="M167 40h2v4h-2v-4z" fill="rgb(190,126,63)"/>
<path d="M170 40h2v1h-2v-1z" fill="rgb(174,174,174)"/>
<path d="M172 40h1v1h-1v-1z" fill="rgb(48,48,48)"/>
<path d="M173 40h3v6h-1v-3h-1v-2h-1v-1z" fill="rgb(112,166,151)"/>
<path d="M18 41h1v3h-1v-3z" fill="rgb(130,130,130)"/>
<path d="M19 41h1v1h-1v-1z" fill="rgb(174,174,174)"/>
<path d="M20 41h1v3h1v1h4v-1h1v-3h1v4h-1v1h-6v-1h-1v-4z" fill="rgb(238,238,238)"/>
<path d="M21 41h1v2h1v1h2v-1h1v-2h1v3h-1v1h-4v-1h-1v-3z" fill="rgb(93,87,87)"/>
<path d="M28 41h1v2h-1v-2z" fill="rgb(174,174,174)"/>
<path d="M29 41h1v3h-1v-3z" fill="rgb(130,130,130)"/>
<path d="M141 41h1v10h-1v-10z" fill="rgb(238,238,238)"/>
<path d="M142 41h1v11h-1v-11z" fill="rgb(48,48,48)"/>
<path d="M162 41h1v3h-1v-3z" fill="rgb(130,130,130)"/>
<path d="M163 41h1v1h-1v-1z" fill="rgb(174,174,174)"/>
<path d="M164 41h1v3h1v1h4v-1h1v-3h1v4h-1v1h-6v-1h-1v-4z" fill="rgb(238,238,238)"/>
<path d="M165 41h1v2h1v1h2v-1h1v-2h1v3h-1v1h-4v-1h-1v-3z" fill="rgb(93,87,87)"/>
<path d="M172 41h1v2h-1v-2z" fill="rgb(174,174,174)"/>
<path d="M173 41h1v3h-1v-3z" fill="rgb(130,130,130)"/>
<path d="M19 42h1v3h-1v-3z" fill="rgb(205,205,205)"/>
<path d="M39 42h2v1h1v1h1v1h1v1h1v1h1v1h-2v-1h-1v-1h-1v-1h-1v-1h-2v1h-1v1h-1v1h-1v1h-2
	v-1h1v-1h1v-1h1v-1h1v-1h1v-1z" fill="rgb(106,139,167)"/>
<path d="M55 42h2v1h1v1h1v1h1v1h1v1h1v1h-2v-1h-1v-1h-1v-1h-1v-1h-2v1h-1v1h-1v1h-1v1h-2
	v-1h1v-1h1v-1h1v-1h1v-1h1v-1z" fill="rgb(106,139,167)"/>
<path d="M71 42h2v1h1v1h1v1h1v1h1v1h1v1h-2v-1h-1v-1h-1v-1h-1v-1h-2v1h-1v1h-1v1h-1v1h-2
	v-1h1v-1h1v-1h1v-1h1v-1h1v-1z" fill="rgb(106,139,167)"/>
<path d="M87 42h2v1h1v1h1v1h1v1h1v1h1v1h-2v-1h-1v-1h-1v-1h-1v-1h-2v1h-1v1h-1v1h-1v1h-2
	v-1h1v-1h1v-1h1v-1h1v-1h1v-1z" fill="rgb(106,139,167)"/>
<path d="M151 42h2v1h1v1h1v1h1v1h1v1h1v1h-2v-1h-1v-1h-1v-1h-1v-1h-2v1h-1v1h-1v1h-1v1h-2
	v-1h1v-1h1v-1h1v-1h1v-1h1v-1z" fill="rgb(106,139,167)"/>
<path d="M163 42h1v3h-1v-3z" fill="rgb(205,205,205)"/>
<path d="M28 43h1v2h-1v-2z" fill="rgb(205,205,205)"/>
<path d="M30 43h1v2h-1v-2z" fill="rgb(84,124,113)"/>
<path d="M172 43h1v2h-1v-2z" fill="rgb(205,205,205)"/>
<path d="M174 43h1v2h-1v-2z" fill="rgb(84,124,113)"/>
<path d="M18 44h1v2h-1v-2z" fill="rgb(48,48,48)"/>
<path d="M29 44h1v2h-1v-2z" fill="rgb(48,48,48)"/>
<path d="M39 44h2v1h1v1h1v1h1v1h-8v-1h1v-1h1v-1h1v-1z" fill="rgb(117,155,186)"/>
<path d="M55 44h2v1h1v1h1v1h1v1h-8v-1h1v-1h1v-1h1v-1z" fill="rgb(117,155,186)"/>
<path d="M71 44h2v1h1v1h1v1h1v1h-8v-1h1v-1h1v-1h1v-1z" fill="rgb(117,155,186)"/>
<path d="M87 44h2v1h1v1h1v1h1v1h-8v-1h1v-1h1v-1h1v-1z" fill="rgb(117,155,186)"/>
<path d="M151 44h2v1h1v1h1v1h1v1h-8v-1h1v-1h1v-1h1v-1z" fill="rgb(117,155,186)"/>
<path d="M162 44h1v2h-1v-2z" fill="rgb(48,48,48)"/>
<path d="M173 44h1v2h-1v-2z" fill="rgb(48,48,48)"/>
<path d="M17 45h1v4h1v1h1v1h1v1h1v1h1v1h1v4h-1v1h-1v1h-1v1h-1v1h-1v1h-1v2h1v1h1v1h1v1h1
	v1h1v1h1v4h-1v1h-1v1h-1v1h-1v1h-1v1h-1v2h1v1h1v1h1v1h1v1h1v1h1v4h-1v1h-1v1h-1v1
	h-1v1h-1v1h-1v2h1v1h1v1h1v1h1v1h1v1h1v4h-1v1h-1v1h-1v1h-1v1h-1v1h-1v1h-2v-2h1
	v-1h1v-1h1v-1h1v-1h1v-1h1v-2h-1v-1h-1v-1h-1v-1h-1v-1h-1v-1h-1v-4h1v-1h1v-1h1v-1
	h1v-1h1v-1h1v-2h-1v-1h-1v-1h-1v-1h-1v-1h-1v-1h-1v-4h1v-1h1v-1h1v-1h1v-1h1v-1h1
	v-2h-1v-1h-1v-1h-1v-1h-1v-1h-1v-1h-1v-4h1v-1h1v-1h1v-1h1v-1h1v-1h1v-2h-1v-1h-1
	v-1h-1v-1h-1v-1h-1v-1h-1v-4h1v-1z" fill="rgb(146,180,171)"/>
<path d="M19 45h1v1h-1v-1z" fill="rgb(174,174,174)"/>
<path d="M20 45h1v1h-1v-1z" fill="rgb(205,205,205)"/>
<path d="M27 45h1v1h-1v-1z" fill="rgb(205,205,205)"/>
<path d="M28 45h1v1h-1v-1z" fill="rgb(174,174,174)"/>
<path d="M30 45h1v3h-1v-1h-1v-1h1v-1z" fill="rgb(109,135,128)"/>
<path d="M163 45h1v1h-1v-1z" fill="rgb(174,174,174)"/>
<path d="M164 45h1v1h-1v-1z" fill="rgb(205,205,205)"/>
<path d="M171 45h1v1h-1v-1z" fill="rgb(205,205,205)"/>
<path d="M172 45h1v1h-1v-1z" fill="rgb(174,174,174)"/>
<path d="M174 45h1v3h-1v-1h-1v-1h1v-1z" fill="rgb(109,135,128)"/>
<path d="M18 46h1v1h-1v-1z" fill="rgb(109,135,128)"/>
<path d="M19 46h1v2h-1v-2z" fill="rgb(48,48,48)"/>
<path d="M20 46h1v1h-1v-1z" fill="rgb(130,130,130)"/>
<path d="M21 46h6v1h-6v-1z" fill="rgb(205,205,205)"/>
<path d="M27 46h1v1h-1v-1z" fill="rgb(130,130,130)"/>
<path d="M28 46h1v2h-1v-2z" fill="rgb(48,48,48)"/>
<path d="M95 46h1v2h-1v-2z" fill="rgb(109,135,128)"/>
<path d="M162 46h1v1h-1v-1z" fill="rgb(109,135,128)"/>
<path d="M163 46h1v2h-1v-2z" fill="rgb(48,48,48)"/>
<path d="M164 46h1v1h-1v-1z" fill="rgb(130,130,130)"/>
<path d="M165 46h6v1h-6v-1z" fill="rgb(205,205,205)"/>
<path d="M171 46h1v1h-1v-1z" fill="rgb(130,130,130)"/>
<path d="M172 46h1v2h-1v-2z" fill="rgb(48,48,48)"/>
<path d="M175 46h1v2h-1v-2z" fill="rgb(146,180,171)"/>
<path d="M18 47h1v1h-1v-1z" fill="rgb(79,104,125)"/>
<path d="M20 47h1v1h-1v-1z" fill="rgb(174,174,174)"/>
<path d="M21 47h6v1h-6v-1z" fill="rgb(130,130,130)"/>
<path d="M27 47h1v1h-1v-1z" fill="rgb(174,174,174)"/>
<path d="M29 47h1v1h-1v-1z" fill="rgb(79,104,125)"/>
<path d="M162 47h1v1h-1v-1z" fill="rgb(79,104,125)"/>
<path d="M164 47h1v1h-1v-1z" fill="rgb(174,174,174)"/>
<path d="M165 47h6v1h-6v-1z" fill="rgb(130,130,130)"/>
<path d="M171 47h1v1h-1v-1z" fill="rgb(174,174,174)"/>
<path d="M173 47h1v1h-1v-1z" fill="rgb(79,104,125)"/>
<path d="M18 48h1v1h-1v-1z" fill="rgb(106,139,167)"/>
<path d="M19 48h1v1h1v1h3v1h-4v-1h-1v-2z" fill="rgb(88,116,139)"/>
<path d="M20 48h1v1h-1v-1z" fill="rgb(48,48,48)"/>
<path d="M21 48h1v1h-1v-1z" fill="rgb(174,174,174)"/>
<path d="M22 48h4v1h-4v-1z" fill="rgb(205,205,205)"/>
<path d="M26 48h1v1h-1v-1z" fill="rgb(174,174,174)"/>
<path d="M27 48h1v1h-1v-1z" fill="rgb(48,48,48)"/>
<path d="M28 48h1v2h-1v1h-4v-1h3v-1h1v-1z" fill="rgb(103,136,164)"/>
<path d="M29 48h1v1h-1v-1z" fill="rgb(93,122,147)"/>
<path d="M30 48h4v1h1v1h1v1h1v1h1v1h1v1h2v-1h1v-1h1v-1h1v-1h1v-1h1v-1h4v1h1v1h1v1h1v1h1
	v1h1v1h2v-1h1v-1h1v-1h1v-1h1v-1h1v-1h4v1h1v1h1v1h1v1h1v1h1v1h2v-1h1v-1h1v-1h1
	v-1h1v-1h1v-1h4v1h1v1h1v1h1v1h1v1h1v1h2v-1h1v-1h1v-1h1v-1h1v-1h1v-1h1v3h-1v1h-1
	v1h-1v1h-1v1h-1v2h1v1h1v1h1v1h1v1h1v1h2v-1h1v-1h3v1h-1v1h-1v1h-1v2h1v1h1v1h1v1
	h1v1h1v1h2v-1h1v-1h1v-1h1v-1h1v-1h1v-2h-1v-1h-1v-1h-1v-1h3v1h1v1h2v-1h1v-1h3v1
	h-1v1h-1v1h-1v2h1v1h1v1h1v1h1v1h1v1h2v-1h1v-1h1v-1h1v-1h1v-1h1v-2h-1v-1h-1v-1
	h-1v-1h3v1h1v1h2v-1h1v-1h3v1h-1v1h-1v1h-1v2h1v1h1v1h1v1h1v1h1v1h2v-1h1v-1h1v-1h1
	v-1h1v-1h1v-2h-1v-1h-1v-1h-1v-1h3v1h1v1h2v-1h1v-1h1v-1h1v-1h1v-1h1v-2h-1v-1h-1
	v-1h-1v-1h-1v-1h-1v-1h-1v-2h2v1h1v1h1v1h1v1h1v1h1v1h2v-1h1v-1h1v-1h1v-1h1v-1h1
	v-1h4v1h1v1h1v1h1v1h1v1h1v1h2v-1h1v-1h1v-1h2v-1h1v-2h2v2h-1v1h-1v1h-1v1h-1v1
	h-1v1h-1v2h1v1h1v1h1v1h1v1h1v1h1v4h-1v1h-1v1h-1v1h-1v1h-1v1h-1v2h1v1h1v1h1v1h1v1
	h1v1h1v4h-1v1h-1v1h-1v1h-1v1h-1v1h-1v2h1v1h1v1h1v1h1v1h1v1h1v4h-1v1h-1v1h-1v1
	h-1v1h-1v1h-1v2h1v1h1v1h1v1h1v1h1v1h1v2h-2v-1h-1v-1h-1v-1h-1v-1h-1v-1h-1v-1h-2
	v1h-1v1h-1v1h-1v1h-1v1h-1v1h-4v-1h-1v-1h-1v-1h-1v-1h-1v-1h-1v-1h-2v1h-1v1h-1v1
	h-1v1h-1v1h-1v1h-4v-1h-1v-1h-1v-1h-1v-1h-1v-1h-1v-1h-2v1h-1v1h-1v1h-1v1h-1v1h-1
	v1h-4v-1h-1v-1h-1v-1h-1v-1h-1v-1h-1v-1h-2v1h-1v1h-1v1h-1v1h-1v1h-1v1h-4v-1h-1
	v-1h-1v-1h-1v-1h-1v-1h-1v-1h-2v1h-1v1h-1v1h-1v1h-1v1h-1v1h-4v-1h-1v-1h-1v-1h-1
	v-1h-1v-1h-1v-1h-2v1h-1v1h-1v1h-1v1h-1v1h-1v1h-4v-1h-1v-1h-1v-1h-1v-1h-1v-1h-1
	v-1h-2v1h-1v1h-1v1h-1v1h-1v-1h-1v-1h1v-1h1v-1h1v-1h1v-2h-1v-1h-1v-1h-1v-1h-1v-1
	h-1v-1h-2v1h-1v1h-1v1h-1v1h-3v-1h1v-1h1v-1h1v-1h1v-1h1v-2h-1v-1h-1v-1h-1v-1h-1
	v-1h-1v-1h-2v1h-1v1h-1v1h-1v1h-1v1h-1v2h1v1h1v1h1v1h1v1h1v1h-3v-1h-1v-1h-1v-1
	h-1v-1h-2v1h-1v1h-1v1h-1v1h-1v1h-1v2h1v1h1v1h1v1h1v1h-1v1h-1v-1h-1v-1h-1v-1h-1
	v-1h-2v1h-1v1h-1v1h-1v1h-1v1h-1v1h-4v-1h-1v-1h-1v-1h-1v-1h-1v-1h-1v-1h-1v-4h1
	v-1h1v-1h1v-1h1v-1h1v-1h1v-2h-1v-1h-1v-1h-1v-1h-1v-1h-1v-1h-1v-4h1v-1h1v-1h1v-1
	h1v-1h1v-1h1v-2h-1v-1h-1v-1h-1v-1h-1v-1h-1v-1h-1v-4h1v-1h1v-1h1v-1h1v-1h1v-1h1
	v-2h-1v-1h-1v-1h-1v-1h-1v-1h-1v-1h-1v-4h1v-1h1v-1h1v-1h2v-1h1v-2z" fill="rgb(171,212,201)"/>
<path d="M34 48h1v1h-1v-1z" fill="rgb(124,163,196)"/>
<path d="M35 48h10v2h-1v1h-1v1h-1v1h-1v1h-2v-1h-1v-1h-1v-1h-1v-1h-1v-2z" fill="rgb(138,182,219)"/>
<path d="M45 48h1v1h-1v-1z" fill="rgb(124,163,196)"/>
<path d="M50 48h1v1h-1v-1z" fill="rgb(124,163,196)"/>
<path d="M51 48h10v2h-1v1h-1v1h-1v1h-1v1h-2v-1h-1v-1h-1v-1h-1v-1h-1v-2z" fill="rgb(138,182,219)"/>
<path d="M61 48h1v1h-1v-1z" fill="rgb(124,163,196)"/>
<path d="M66 48h1v1h-1v-1z" fill="rgb(124,163,196)"/>
<path d="M67 48h10v2h-1v1h-1v1h-1v1h-1v1h-2v-1h-1v-1h-1v-1h-1v-1h-1v-2z" fill="rgb(138,182,219)"/>
<path d="M77 48h1v1h-1v-1z" fill="rgb(124,163,196)"/>
<path d="M82 48h1v1h-1v-1z" fill="rgb(124,163,196)"/>
<path d="M83 48h10v2h-1v1h-1v1h-1v1h-1v1h-2v-1h-1v-1h-1v-1h-1v-1h-1v-2z" fill="rgb(138,182,219)"/>
<path d="M93 48h1v1h-1v-1z" fill="rgb(124,163,196)"/>
<path d="M95 48h1v2h-1v-2z" fill="rgb(128,159,151)"/>
<path d="M143 48h1v2h-1v-2z" fill="rgb(128,159,151)"/>
<path d="M146 48h1v1h-1v-1z" fill="rgb(124,163,196)"/>
<path d="M147 48h10v2h-1v1h-1v1h-1v1h-1v1h-2v-1h-1v-1h-1v-1h-1v-1h-1v-2z" fill="rgb(138,182,219)"/>
<path d="M157 48h1v1h-1v-1z" fill="rgb(124,163,196)"/>
<path d="M162 48h1v1h-1v-1z" fill="rgb(124,163,196)"/>
<path d="M163 48h1v1h1v1h6v-1h1v-1h1v2h-1v1h-8v-1h-1v-2z" fill="rgb(103,136,164)"/>
<path d="M164 48h1v1h-1v-1z" fill="rgb(48,48,48)"/>
<path d="M165 48h1v1h-1v-1z" fill="rgb(174,174,174)"/>
<path d="M166 48h4v1h-4v-1z" fill="rgb(205,205,205)"/>
<path d="M170 48h1v1h-1v-1z" fill="rgb(174,174,174)"/>
<path d="M171 48h1v1h-1v-1z" fill="rgb(48,48,48)"/>
<path d="M173 48h1v1h-1v-1z" fill="rgb(93,122,147)"/>
<path d="M21 49h6v1h-6v-1z" fill="rgb(48,48,48)"/>
<path d="M29 49h1v1h-1v-1z" fill="rgb(128,159,151)"/>
<path d="M165 49h6v1h-6v-1z" fill="rgb(48,48,48)"/>
<path d="M173 49h1v1h-1v-1z" fill="rgb(128,159,151)"/>
<path d="M16 50h1v1h1v1h1v1h1v1h1v1h1v2h-1v1h-1v1h-1v1h-1v1h-1v1h-1v-12z" fill="rgb(112,166,151)"/>
<path d="M28 50h1v1h-1v-1z" fill="rgb(128,159,151)"/>
<path d="M31 50h2v1h1v1h1v1h1v1h1v1h1v2h-1v1h-1v1h-1v1h-1v1h-1v1h-2v-1h-1v-1h-1v-1h-1v-1
	h-1v-1h-1v-2h1v-1h1v-1h1v-1h1v-1h1v-1z" fill="rgb(132,195,178)"/>
<path d="M47 50h2v1h1v1h1v1h1v1h1v1h1v2h-1v1h-1v1h-1v1h-1v1h-1v1h-2v-1h-1v-1h-1v-1h-1v-1
	h-1v-1h-1v-2h1v-1h1v-1h1v-1h1v-1h1v-1z" fill="rgb(132,195,178)"/>
<path d="M63 50h2v1h1v1h1v1h1v1h1v1h1v2h-1v1h-1v1h-1v1h-1v1h-1v1h-2v-1h-1v-1h-1v-1h-1v-1
	h-1v-1h-1v-2h1v-1h1v-1h1v-1h1v-1h1v-1z" fill="rgb(132,195,178)"/>
<path d="M79 50h2v1h1v1h1v1h1v1h1v1h1v2h-1v1h-1v1h-1v1h-1v1h-1v1h-2v-1h-1v-1h-1v-1h-1v-1
	h-1v-1h-1v-2h1v-1h1v-1h1v-1h1v-1h1v-1z" fill="rgb(132,195,178)"/>
<path d="M95 50h1v5h1v2h1v1h2v1h-1v1h-2v-1h-1v-2h-1v-7z" fill="rgb(99,146,133)"/>
<path d="M97 50h1v1h-1v-1z" fill="rgb(238,238,238)"/>
<path d="M143 50h1v7h-1v2h-1v1h-1v-1h-1v-1h1v-1h1v-2h1v-5z" fill="rgb(99,146,133)"/>
<path d="M144 50h1v1h1v1h1v1h1v1h1v1h1v2h-1v1h-1v1h-1v1h-1v1h-1v1h-2v-1h-1v-2h1v-2h1v-7z" fill="rgb(132,195,178)"/>
<path d="M159 50h2v1h1v1h1v1h1v1h1v1h1v2h-1v1h-1v1h-1v1h-1v1h-1v1h-2v-1h-1v-1h-1v-1h-1
	v-1h-1v-1h-1v-2h1v-1h1v-1h1v-1h1v-1h1v-1z" fill="rgb(132,195,178)"/>
<path d="M172 50h1v1h-1v-1z" fill="rgb(128,159,151)"/>
<path d="M175 50h1v12h-1v-1h-1v-1h-1v-1h-1v-1h-1v-1h-1v-2h1v-1h1v-1h1v-1h1v-1h1v-1z" fill="rgb(132,195,178)"/>
<path d="M21 51h3v3h-1v-1h-1v-1h-1v-1z" fill="rgb(117,155,186)"/>
<path d="M24 51h3v1h-1v1h-1v1h-1v-3z" fill="rgb(138,182,219)"/>
<path d="M94 51h1v6h1v2h1v1h1v1h-1v1h-2v-1h-1v-1h-1v-1h-1v-1h-1v-1h-1v-2h1v-1h1v-1h1v-1
	h1v-1z" fill="rgb(132,195,178)"/>
<path d="M97 51h1v1h-1v-1z" fill="rgb(188,188,188)"/>
<path d="M98 51h43v1h-43v-1z" fill="rgb(238,238,238)"/>
<path d="M141 51h1v1h-1v-1z" fill="rgb(205,205,205)"/>
<path d="M165 51h6v1h-1v1h-1v1h-2v-1h-1v-1h-1v-1z" fill="rgb(138,182,219)"/>
<path d="M96 52h1v3h-1v-3z" fill="rgb(105,70,35)"/>
<path d="M97 52h45v2h-45v-2z" fill="rgb(174,174,174)"/>
<path d="M142 52h1v3h-1v-3z" fill="rgb(105,70,35)"/>
<path d="M97 54h45v1h-45v-1z" fill="rgb(163,108,54)"/>
<path d="M97 55h1v2h-1v-2z" fill="rgb(59,59,59)"/>
<path d="M98 55h43v1h-1v1h-41v-1h-1v-1z" fill="rgb(190,126,63)"/>
<path d="M141 55h1v2h-1v-2z" fill="rgb(59,59,59)"/>
<path d="M98 56h1v1h-1v-1z" fill="rgb(163,108,54)"/>
<path d="M140 56h1v1h-1v-1z" fill="rgb(163,108,54)"/>
<path d="M98 57h43v1h-43v-1z" fill="rgb(59,59,59)"/>
<path d="M23 58h1v2h-1v1h-1v1h-1v1h-1v1h-1v1h-1v-2h1v-1h1v-1h1v-1h1v-1h1v-1z" fill="rgb(106,139,167)"/>
<path d="M24 58h1v1h1v1h1v1h1v1h1v1h1v2h-1v-1h-1v-1h-1v-1h-1v-1h-1v-1h-1v-2z" fill="rgb(124,163,196)"/>
<path d="M39 58h2v1h1v1h1v1h1v1h1v1h1v2h-1v-1h-1v-1h-1v-1h-1v-1h-1v-1h-2v1h-1v1h-1v1h-1
	v1h-1v1h-1v-2h1v-1h1v-1h1v-1h1v-1h1v-1z" fill="rgb(124,163,196)"/>
<path d="M55 58h2v1h1v1h1v1h1v1h1v1h1v2h-1v-1h-1v-1h-1v-1h-1v-1h-1v-1h-2v1h-1v1h-1v1h-1
	v1h-1v1h-1v-2h1v-1h1v-1h1v-1h1v-1h1v-1z" fill="rgb(124,163,196)"/>
<path d="M71 58h2v1h1v1h1v1h1v1h1v1h1v2h-1v-1h-1v-1h-1v-1h-1v-1h-1v-1h-2v1h-1v1h-1v1h-1
	v1h-1v1h-1v-2h1v-1h1v-1h1v-1h1v-1h1v-1z" fill="rgb(124,163,196)"/>
<path d="M87 58h2v1h1v1h1v1h1v1h1v1h1v2h-1v-1h-1v-1h-1v-1h-1v-1h-1v-1h-2v1h-1v1h-1v1h-1
	v1h-1v1h-1v-2h1v-1h1v-1h1v-1h1v-1h1v-1z" fill="rgb(124,163,196)"/>
<path d="M100 58h3v1h-1v1h-3v-1h1v-1z" fill="rgb(128,159,151)"/>
<path d="M103 58h2v1h1v1h-4v-1h1v-1z" fill="rgb(93,122,147)"/>
<path d="M105 58h3v1h1v1h-3v-1h-1v-1z" fill="rgb(128,159,151)"/>
<path d="M108 58h8v1h-1v1h-6v-1h-1v-1z" fill="rgb(99,146,133)"/>
<path d="M116 58h3v1h-1v1h-3v-1h1v-1z" fill="rgb(128,159,151)"/>
<path d="M119 58h2v1h1v1h-4v-1h1v-1z" fill="rgb(93,122,147)"/>
<path d="M121 58h3v1h1v1h-3v-1h-1v-1z" fill="rgb(128,159,151)"/>
<path d="M124 58h8v1h-1v1h-6v-1h-1v-1z" fill="rgb(99,146,133)"/>
<path d="M132 58h3v1h-1v1h-3v-1h1v-1z" fill="rgb(128,159,151)"/>
<path d="M135 58h2v1h1v1h-4v-1h1v-1z" fill="rgb(93,122,147)"/>
<path d="M137 58h3v1h1v1h-3v-1h-1v-1z" fill="rgb(128,159,151)"/>
<path d="M151 58h2v1h1v1h1v1h1v1h1v1h1v2h-1v-1h-1v-1h-1v-1h-1v-1h-1v-1h-2v1h-1v1h-1v1h-1
	v1h-1v1h-1v-2h1v-1h1v-1h1v-1h1v-1h1v-1z" fill="rgb(124,163,196)"/>
<path d="M167 58h2v1h1v1h1v1h1v1h1v1h1v2h-1v-1h-1v-1h-1v-1h-1v-1h-1v-1h-2v1h-1v1h-1v1h-1
	v1h-1v1h-1v-2h1v-1h1v-1h1v-1h1v-1h1v-1z" fill="rgb(124,163,196)"/>
<path d="M23 60h1v10h-1v-1h-1v-1h-1v-1h-1v-1h-1v-2h1v-1h1v-1h1v-1h1v-1z" fill="rgb(117,155,186)"/>
<path d="M24 60h1v1h1v1h1v1h1v1h1v2h-1v1h-1v1h-1v1h-1v1h-1v-10z" fill="rgb(138,182,219)"/>
<path d="M39 60h2v1h1v1h1v1h1v1h1v2h-1v1h-1v1h-1v1h-1v1h-2v-1h-1v-1h-1v-1h-1v-1h-1v-2h1
	v-1h1v-1h1v-1h1v-1z" fill="rgb(138,182,219)"/>
<path d="M55 60h2v1h1v1h1v1h1v1h1v2h-1v1h-1v1h-1v1h-1v1h-2v-1h-1v-1h-1v-1h-1v-1h-1v-2h1
	v-1h1v-1h1v-1h1v-1z" fill="rgb(138,182,219)"/>
<path d="M71 60h2v1h1v1h1v1h1v1h1v2h-1v1h-1v1h-1v1h-1v1h-2v-1h-1v-1h-1v-1h-1v-1h-1v-2h1
	v-1h1v-1h1v-1h1v-1z" fill="rgb(138,182,219)"/>
<path d="M87 60h2v1h1v1h1v1h1v1h1v2h-1v1h-1v1h-1v1h-1v1h-2v-1h-1v-1h-1v-1h-1v-1h-1v-2h1
	v-1h1v-1h1v-1h1v-1z" fill="rgb(138,182,219)"/>
<path d="M101 60h2v1h-1v1h-1v1h-1v1h-1v1h-1v-2h1v-1h1v-1h1v-1z" fill="rgb(124,163,196)"/>
<path d="M103 60h2v1h1v1h1v1h1v1h1v2h-1v1h-1v1h-1v1h-1v1h-2v-1h-1v-1h-1v-1h-1v-1h-1v-2h1
	v-1h1v-1h1v-1h1v-1z" fill="rgb(138,182,219)"/>
<path d="M105 60h2v1h1v1h1v1h1v2h-1v-1h-1v-1h-1v-1h-1v-1h-1v-1z" fill="rgb(124,163,196)"/>
<path d="M110 60h4v1h-1v1h-2v-1h-1v-1z" fill="rgb(132,195,178)"/>
<path d="M117 60h2v1h-1v1h-1v1h-1v1h-1v1h-1v-2h1v-1h1v-1h1v-1z" fill="rgb(124,163,196)"/>
<path d="M119 60h2v1h1v1h1v1h1v1h1v2h-1v1h-1v1h-1v1h-1v1h-2v-1h-1v-1h-1v-1h-1v-1h-1v-2h1
	v-1h1v-1h1v-1h1v-1z" fill="rgb(138,182,219)"/>
<path d="M121 60h2v1h1v1h1v1h1v2h-1v-1h-1v-1h-1v-1h-1v-1h-1v-1z" fill="rgb(124,163,196)"/>
<path d="M126 60h4v1h-1v1h-2v-1h-1v-1z" fill="rgb(132,195,178)"/>
<path d="M133 60h2v1h-1v1h-1v1h-1v1h-1v1h-1v-2h1v-1h1v-1h1v-1z" fill="rgb(124,163,196)"/>
<path d="M135 60h2v1h1v1h1v1h1v1h1v2h-1v1h-1v1h-1v1h-1v1h-2v-1h-1v-1h-1v-1h-1v-1h-1v-2h1
	v-1h1v-1h1v-1h1v-1z" fill="rgb(138,182,219)"/>
<path d="M137 60h2v1h1v1h1v1h1v2h-1v-1h-1v-1h-1v-1h-1v-1h-1v-1z" fill="rgb(124,163,196)"/>
<path d="M151 60h2v1h1v1h1v1h1v1h1v2h-1v1h-1v1h-1v1h-1v1h-2v-1h-1v-1h-1v-1h-1v-1h-1v-2h1
	v-1h1v-1h1v-1h1v-1z" fill="rgb(138,182,219)"/>
<path d="M167 60h2v1h1v1h1v1h1v1h1v2h-1v1h-1v1h-1v1h-1v1h-2v-1h-1v-1h-1v-1h-1v-1h-1v-2h1
	v-1h1v-1h1v-1h1v-1z" fill="rgb(138,182,219)"/>
<path d="M16 66h1v1h1v1h1v1h1v1h1v1h1v2h-1v1h-1v1h-1v1h-1v1h-1v1h-1v-12z" fill="rgb(112,166,151)"/>
<path d="M31 66h2v1h1v1h1v1h1v1h1v1h1v2h-1v1h-1v1h-1v1h-1v1h-1v1h-2v-1h-1v-1h-1v-1h-1v-1
	h-1v-1h-1v-2h1v-1h1v-1h1v-1h1v-1h1v-1z" fill="rgb(132,195,178)"/>
<path d="M47 66h2v1h1v1h1v1h1v1h1v1h1v2h-1v1h-1v1h-1v1h-1v1h-1v1h-2v-1h-1v-1h-1v-1h-1v-1
	h-1v-1h-1v-2h1v-1h1v-1h1v-1h1v-1h1v-1z" fill="rgb(132,195,178)"/>
<path d="M63 66h2v1h1v1h1v1h1v1h1v1h1v2h-1v1h-1v1h-1v1h-1v1h-1v1h-2v-1h-1v-1h-1v-1h-1v-1
	h-1v-1h-1v-2h1v-1h1v-1h1v-1h1v-1h1v-1z" fill="rgb(132,195,178)"/>
<path d="M79 66h2v1h1v1h1v1h1v1h1v1h1v2h-1v1h-1v1h-1v1h-1v1h-1v1h-2v-1h-1v-1h-1v-1h-1v-1
	h-1v-1h-1v-2h1v-1h1v-1h1v-1h1v-1h1v-1z" fill="rgb(132,195,178)"/>
<path d="M95 66h2v1h1v1h1v1h1v1h1v1h1v2h-1v1h-1v1h-1v1h-1v1h-1v1h-2v-1h-1v-1h-1v-1h-1v-1
	h-1v-1h-1v-2h1v-1h1v-1h1v-1h1v-1h1v-1z" fill="rgb(132,195,178)"/>
<path d="M111 66h2v1h1v1h1v1h1v1h1v1h1v2h-1v1h-1v1h-1v1h-1v1h-1v1h-2v-1h-1v-1h-1v-1h-1
	v-1h-1v-1h-1v-2h1v-1h1v-1h1v-1h1v-1h1v-1z" fill="rgb(132,195,178)"/>
<path d="M127 66h2v1h1v1h1v1h1v1h1v1h1v2h-1v1h-1v1h-1v1h-1v1h-1v1h-2v-1h-1v-1h-1v-1h-1
	v-1h-1v-1h-1v-2h1v-1h1v-1h1v-1h1v-1h1v-1z" fill="rgb(132,195,178)"/>
<path d="M143 66h2v1h1v1h1v1h1v1h1v1h1v2h-1v1h-1v1h-1v1h-1v1h-1v1h-2v-1h-1v-1h-1v-1h-1
	v-1h-1v-1h-1v-2h1v-1h1v-1h1v-1h1v-1h1v-1z" fill="rgb(132,195,178)"/>
<path d="M159 66h2v1h1v1h1v1h1v1h1v1h1v2h-1v1h-1v1h-1v1h-1v1h-1v1h-2v-1h-1v-1h-1v-1h-1
	v-1h-1v-1h-1v-2h1v-1h1v-1h1v-1h1v-1h1v-1z" fill="rgb(132,195,178)"/>
<path d="M175 66h1v12h-1v-1h-1v-1h-1v-1h-1v-1h-1v-1h-1v-2h1v-1h1v-1h1v-1h1v-1h1v-1z" fill="rgb(132,195,178)"/>
<path d="M23 74h1v2h-1v1h-1v1h-1v1h-1v1h-1v1h-1v-2h1v-1h1v-1h1v-1h1v-1h1v-1z" fill="rgb(106,139,167)"/>
<path d="M24 74h1v1h1v1h1v1h1v1h1v1h1v2h-1v-1h-1v-1h-1v-1h-1v-1h-1v-1h-1v-2z" fill="rgb(124,163,196)"/>
<path d="M39 74h2v1h1v1h1v1h1v1h1v1h1v2h-1v-1h-1v-1h-1v-1h-1v-1h-1v-1h-2v1h-1v1h-1v1h-1
	v1h-1v1h-1v-2h1v-1h1v-1h1v-1h1v-1h1v-1z" fill="rgb(124,163,196)"/>
<path d="M55 74h2v1h1v1h1v1h1v1h1v1h1v2h-1v-1h-1v-1h-1v-1h-1v-1h-1v-1h-2v1h-1v1h-1v1h-1
	v1h-1v1h-1v-2h1v-1h1v-1h1v-1h1v-1h1v-1z" fill="rgb(124,163,196)"/>
<path d="M71 74h2v1h1v1h1v1h1v1h1v1h1v2h-1v-1h-1v-1h-1v-1h-1v-1h-1v-1h-2v1h-1v1h-1v1h-1
	v1h-1v1h-1v-2h1v-1h1v-1h1v-1h1v-1h1v-1z" fill="rgb(124,163,196)"/>
<path d="M87 74h2v1h1v1h1v1h1v1h1v1h1v2h-1v-1h-1v-1h-1v-1h-1v-1h-1v-1h-2v1h-1v1h-1v1h-1
	v1h-1v1h-1v-2h1v-1h1v-1h1v-1h1v-1h1v-1z" fill="rgb(124,163,196)"/>
<path d="M103 74h2v1h1v1h1v1h1v1h1v1h1v2h-1v-1h-1v-1h-1v-1h-1v-1h-1v-1h-2v1h-1v1h-1v1h-1
	v1h-1v1h-1v-2h1v-1h1v-1h1v-1h1v-1h1v-1z" fill="rgb(124,163,196)"/>
<path d="M119 74h2v1h1v1h1v1h1v1h1v1h1v2h-1v-1h-1v-1h-1v-1h-1v-1h-1v-1h-2v1h-1v1h-1v1h-1
	v1h-1v1h-1v-2h1v-1h1v-1h1v-1h1v-1h1v-1z" fill="rgb(124,163,196)"/>
<path d="M135 74h2v1h1v1h1v1h1v1h1v1h1v2h-1v-1h-1v-1h-1v-1h-1v-1h-1v-1h-2v1h-1v1h-1v1h-1
	v1h-1v1h-1v-2h1v-1h1v-1h1v-1h1v-1h1v-1z" fill="rgb(124,163,196)"/>
<path d="M151 74h2v1h1v1h1v1h1v1h1v1h1v2h-1v-1h-1v-1h-1v-1h-1v-1h-1v-1h-2v1h-1v1h-1v1h-1
	v1h-1v1h-1v-2h1v-1h1v-1h1v-1h1v-1h1v-1z" fill="rgb(124,163,196)"/>
<path d="M167 74h2v1h1v1h1v1h1v1h1v1h1v2h-1v-1h-1v-1h-1v-1h-1v-1h-1v-1h-2v1h-1v1h-1v1h-1
	v1h-1v1h-1v-2h1v-1h1v-1h1v-1h1v-1h1v-1z" fill="rgb(124,163,196)"/>
<path d="M23 76h1v10h-1v-1h-1v-1h-1v-1h-1v-1h-1v-2h1v-1h1v-1h1v-1h1v-1z" fill="rgb(117,155,186)"/>
<path d="M24 76h1v1h1v1h1v1h1v1h1v2h-1v1h-1v1h-1v1h-1v1h-1v-10z" fill="rgb(138,182,219)"/>
<path d="M39 76h2v1h1v1h1v1h1v1h1v2h-1v1h-1v1h-1v1h-1v1h-2v-1h-1v-1h-1v-1h-1v-1h-1v-2h1
	v-1h1v-1h1v-1h1v-1z" fill="rgb(138,182,219)"/>
<path d="M55 76h2v1h1v1h1v1h1v1h1v2h-1v1h-1v1h-1v1h-1v1h-2v-1h-1v-1h-1v-1h-1v-1h-1v-2h1
	v-1h1v-1h1v-1h1v-1z" fill="rgb(138,182,219)"/>
<path d="M71 76h2v1h1v1h1v1h1v1h1v2h-1v1h-1v1h-1v1h-1v1h-2v-1h-1v-1h-1v-1h-1v-1h-1v-2h1
	v-1h1v-1h1v-1h1v-1z" fill="rgb(138,182,219)"/>
<path d="M87 76h2v1h1v1h1v1h1v1h1v2h-1v1h-1v1h-1v1h-1v1h-2v-1h-1v-1h-1v-1h-1v-1h-1v-2h1
	v-1h1v-1h1v-1h1v-1z" fill="rgb(138,182,219)"/>
<path d="M103 76h2v1h1v1h1v1h1v1h1v2h-1v1h-1v1h-1v1h-1v1h-2v-1h-1v-1h-1v-1h-1v-1h-1v-2h1
	v-1h1v-1h1v-1h1v-1z" fill="rgb(138,182,219)"/>
<path d="M119 76h2v1h1v1h1v1h1v1h1v2h-1v1h-1v1h-1v1h-1v1h-2v-1h-1v-1h-1v-1h-1v-1h-1v-2h1
	v-1h1v-1h1v-1h1v-1z" fill="rgb(138,182,219)"/>
<path d="M135 76h2v1h1v1h1v1h1v1h1v2h-1v1h-1v1h-1v1h-1v1h-2v-1h-1v-1h-1v-1h-1v-1h-1v-2h1
	v-1h1v-1h1v-1h1v-1z" fill="rgb(138,182,219)"/>
<path d="M151 76h2v1h1v1h1v1h1v1h1v2h-1v1h-1v1h-1v1h-1v1h-2v-1h-1v-1h-1v-1h-1v-1h-1v-2h1
	v-1h1v-1h1v-1h1v-1z" fill="rgb(138,182,219)"/>
<path d="M167 76h2v1h1v1h1v1h1v1h1v2h-1v1h-1v1h-1v1h-1v1h-2v-1h-1v-1h-1v-1h-1v-1h-1v-2h1
	v-1h1v-1h1v-1h1v-1z" fill="rgb(138,182,219)"/>
<path d="M16 82h1v1h1v1h1v1h1v1h1v1h1v2h-1v1h-1v1h-1v1h-1v1h-1v1h-1v-12z" fill="rgb(112,166,151)"/>
<path d="M31 82h2v1h1v1h1v1h1v1h1v1h1v2h-1v1h-1v1h-1v1h-1v1h-1v1h-2v-1h-1v-1h-1v-1h-1v-1
	h-1v-1h-1v-2h1v-1h1v-1h1v-1h1v-1h1v-1z" fill="rgb(132,195,178)"/>
<path d="M47 82h2v1h1v1h1v1h1v1h1v1h1v2h-1v1h-1v1h-1v1h-1v1h-1v1h-2v-1h-1v-1h-1v-1h-1v-1
	h-1v-1h-1v-2h1v-1h1v-1h1v-1h1v-1h1v-1z" fill="rgb(132,195,178)"/>
<path d="M63 82h2v1h1v1h1v1h1v1h1v1h1v2h-1v1h-1v1h-1v1h-1v1h-1v1h-2v-1h-1v-1h-1v-1h-1v-1
	h-1v-1h-1v-2h1v-1h1v-1h1v-1h1v-1h1v-1z" fill="rgb(132,195,178)"/>
<path d="M79 82h2v1h1v1h1v1h1v1h1v1h1v2h-1v1h-1v1h-1v1h-1v1h-1v1h-2v-1h-1v-1h-1v-1h-1v-1
	h-1v-1h-1v-2h1v-1h1v-1h1v-1h1v-1h1v-1z" fill="rgb(132,195,178)"/>
<path d="M95 82h2v1h1v1h1v1h1v1h1v1h1v2h-1v1h-1v1h-1v1h-1v1h-1v1h-2v-1h-1v-1h-1v-1h-1v-1
	h-1v-1h-1v-2h1v-1h1v-1h1v-1h1v-1h1v-1z" fill="rgb(132,195,178)"/>
<path d="M111 82h2v1h1v1h1v1h1v1h1v1h1v2h-1v1h-1v1h-1v1h-1v1h-1v1h-2v-1h-1v-1h-1v-1h-1
	v-1h-1v-1h-1v-2h1v-1h1v-1h1v-1h1v-1h1v-1z" fill="rgb(132,195,178)"/>
<path d="M127 82h2v1h1v1h1v1h1v1h1v1h1v2h-1v1h-1v1h-1v1h-1v1h-1v1h-2v-1h-1v-1h-1v-1h-1
	v-1h-1v-1h-1v-2h1v-1h1v-1h1v-1h1v-1h1v-1z" fill="rgb(132,195,178)"/>
<path d="M143 82h2v1h1v1h1v1h1v1h1v1h1v2h-1v1h-1v1h-1v1h-1v1h-1v1h-2v-1h-1v-1h-1v-1h-1
	v-1h-1v-1h-1v-2h1v-1h1v-1h1v-1h1v-1h1v-1z" fill="rgb(132,195,178)"/>
<path d="M159 82h2v1h1v1h1v1h1v1h1v1h1v2h-1v1h-1v1h-1v1h-1v1h-1v1h-2v-1h-1v-1h-1v-1h-1
	v-1h-1v-1h-1v-2h1v-1h1v-1h1v-1h1v-1h1v-1z" fill="rgb(132,195,178)"/>
<path d="M175 82h1v12h-1v-1h-1v-1h-1v-1h-1v-1h-1v-1h-1v-2h1v-1h1v-1h1v-1h1v-1h1v-1z" fill="rgb(132,195,178)"/>
<path d="M23 90h1v2h-1v1h-1v1h-1v1h-1v1h-1v1h-1v-2h1v-1h1v-1h1v-1h1v-1h1v-1z" fill="rgb(106,139,167)"/>
<path d="M24 90h1v1h1v1h1v1h1v1h1v1h1v2h-1v-1h-1v-1h-1v-1h-1v-1h-1v-1h-1v-2z" fill="rgb(124,163,196)"/>
<path d="M39 90h2v1h1v1h1v1h1v1h1v1h1v2h-1v-1h-1v-1h-1v-1h-1v-1h-1v-1h-2v1h-1v1h-1v1h-1
	v1h-1v1h-1v-2h1v-1h1v-1h1v-1h1v-1h1v-1z" fill="rgb(124,163,196)"/>
<path d="M55 90h2v1h1v1h1v1h1v1h1v1h1v2h-1v-1h-1v-1h-1v-1h-1v-1h-1v-1h-2v1h-1v1h-1v1h-1
	v1h-1v1h-1v-2h1v-1h1v-1h1v-1h1v-1h1v-1z" fill="rgb(124,163,196)"/>
<path d="M71 90h2v1h1v1h1v1h1v1h1v1h1v2h-1v-1h-1v-1h-1v-1h-1v-1h-1v-1h-2v1h-1v1h-1v1h-1
	v1h-1v1h-1v-2h1v-1h1v-1h1v-1h1v-1h1v-1z" fill="rgb(124,163,196)"/>
<path d="M87 90h2v1h1v1h1v1h1v1h1v1h1v2h-1v-1h-1v-1h-1v-1h-1v-1h-1v-1h-2v1h-1v1h-1v1h-1
	v1h-1v1h-1v-2h1v-1h1v-1h1v-1h1v-1h1v-1z" fill="rgb(124,163,196)"/>
<path d="M103 90h2v1h1v1h1v1h1v1h1v1h1v2h-1v-1h-1v-1h-1v-1h-1v-1h-1v-1h-2v1h-1v1h-1v1h-1
	v1h-1v1h-1v-2h1v-1h1v-1h1v-1h1v-1h1v-1z" fill="rgb(124,163,196)"/>
<path d="M119 90h2v1h1v1h1v1h1v1h1v1h1v2h-1v-1h-1v-1h-1v-1h-1v-1h-1v-1h-2v1h-1v1h-1v1h-1
	v1h-1v1h-1v-2h1v-1h1v-1h1v-1h1v-1h1v-1z" fill="rgb(124,163,196)"/>
<path d="M135 90h2v1h1v1h1v1h1v1h1v1h1v2h-1v-1h-1v-1h-1v-1h-1v-1h-1v-1h-2v1h-1v1h-1v1h-1
	v1h-1v1h-1v-2h1v-1h1v-1h1v-1h1v-1h1v-1z" fill="rgb(124,163,196)"/>
<path d="M151 90h2v1h1v1h1v1h1v1h1v1h1v2h-1v-1h-1v-1h-1v-1h-1v-1h-1v-1h-2v1h-1v1h-1v1h-1
	v1h-1v1h-1v-2h1v-1h1v-1h1v-1h1v-1h1v-1z" fill="rgb(124,163,196)"/>
<path d="M167 90h2v1h1v1h1v1h1v1h1v1h1v2h-1v-1h-1v-1h-1v-1h-1v-1h-1v-1h-2v1h-1v1h-1v1h-1
	v1h-1v1h-1v-2h1v-1h1v-1h1v-1h1v-1h1v-1z" fill="rgb(124,163,196)"/>
<path d="M23 92h1v10h-1v-1h-1v-1h-1v-1h-1v-1h-1v-2h1v-1h1v-1h1v-1h1v-1z" fill="rgb(117,155,186)"/>
<path d="M24 92h1v1h1v1h1v1h1v1h1v2h-1v1h-1v1h-1v1h-1v1h-1v-10z" fill="rgb(138,182,219)"/>
<path d="M39 92h2v1h1v1h1v1h1v1h1v2h-1v1h-1v1h-1v1h-1v1h-2v-1h-1v-1h-1v-1h-1v-1h-1v-2h1
	v-1h1v-1h1v-1h1v-1z" fill="rgb(138,182,219)"/>
<path d="M55 92h2v1h1v1h1v1h1v1h1v2h-1v1h-1v1h-1v1h-1v1h-2v-1h-1v-1h-1v-1h-1v-1h-1v-2h1
	v-1h1v-1h1v-1h1v-1z" fill="rgb(138,182,219)"/>
<path d="M71 92h2v1h1v1h1v1h1v1h1v2h-1v1h-1v1h-1v1h-1v1h-2v-1h-1v-1h-1v-1h-1v-1h-1v-2h1
	v-1h1v-1h1v-1h1v-1z" fill="rgb(138,182,219)"/>
<path d="M87 92h2v1h1v1h1v1h1v1h1v2h-1v1h-1v1h-1v1h-1v1h-2v-1h-1v-1h-1v-1h-1v-1h-1v-2h1
	v-1h1v-1h1v-1h1v-1z" fill="rgb(138,182,219)"/>
<path d="M103 92h2v1h1v1h1v1h1v1h1v2h-1v1h-1v1h-1v1h-1v1h-2v-1h-1v-1h-1v-1h-1v-1h-1v-2h1
	v-1h1v-1h1v-1h1v-1z" fill="rgb(138,182,219)"/>
<path d="M119 92h2v1h1v1h1v1h1v1h1v2h-1v1h-1v1h-1v1h-1v1h-2v-1h-1v-1h-1v-1h-1v-1h-1v-2h1
	v-1h1v-1h1v-1h1v-1z" fill="rgb(138,182,219)"/>
<path d="M135 92h2v1h1v1h1v1h1v1h1v2h-1v1h-1v1h-1v1h-1v1h-2v-1h-1v-1h-1v-1h-1v-1h-1v-2h1
	v-1h1v-1h1v-1h1v-1z" fill="rgb(138,182,219)"/>
<path d="M151 92h2v1h1v1h1v1h1v1h1v2h-1v1h-1v1h-1v1h-1v1h-2v-1h-1v-1h-1v-1h-1v-1h-1v-2h1
	v-1h1v-1h1v-1h1v-1z" fill="rgb(138,182,219)"/>
<path d="M167 92h2v1h1v1h1v1h1v1h1v2h-1v1h-1v1h-1v1h-1v1h-2v-1h-1v-1h-1v-1h-1v-1h-1v-2h1
	v-1h1v-1h1v-1h1v-1z" fill="rgb(138,182,219)"/>
<path d="M16 98h1v1h1v1h1v1h1v1h1v1h1v2h-1v1h-1v1h-1v1h-1v1h-1v1h-1v-12z" fill="rgb(112,166,151)"/>
<path d="M31 98h2v1h1v1h1v1h1v1h1v1h1v2h-1v1h-1v1h-1v1h-1v1h-1v1h-2v-1h-1v-1h-1v-1h-1v-1
	h-1v-1h-1v-2h1v-1h1v-1h1v-1h1v-1h1v-1z" fill="rgb(132,195,178)"/>
<path d="M47 98h2v1h1v1h1v1h1v2h-2v1h-2v1h-1v2h-1v1h-1v-1h-1v-1h-1v-1h-1v-2h1v-1h1v-1h1
	v-1h1v-1h1v-1z" fill="rgb(132,195,178)"/>
<path d="M63 98h2v1h1v1h1v1h1v1h1v1h1v2h-1v1h-1v1h-1v1h-1v-1h-1v-2h-1v-1h-2v-1h-2v-2h1
	v-1h1v-1h1v-1z" fill="rgb(132,195,178)"/>
<path d="M79 98h2v1h1v1h1v1h1v1h1v1h1v2h-1v1h-1v1h-1v1h-1v1h-1v1h-2v-1h-1v-1h-1v-1h-1v-1
	h-1v-1h-1v-2h1v-1h1v-1h1v-1h1v-1h1v-1z" fill="rgb(132,195,178)"/>
<path d="M95 98h2v1h1v1h1v1h1v1h1v1h1v2h-1v1h-1v1h-1v1h-1v1h-1v1h-2v-1h-1v-1h-1v-1h-1v-1
	h-1v-1h-1v-2h1v-1h1v-1h1v-1h1v-1h1v-1z" fill="rgb(132,195,178)"/>
<path d="M111 98h2v1h1v1h1v1h1v1h1v1h1v2h-1v1h-1v1h-1v1h-1v1h-1v1h-2v-1h-1v-1h-1v-1h-1
	v-1h-1v-1h-1v-2h1v-1h1v-1h1v-1h1v-1h1v-1z" fill="rgb(132,195,178)"/>
<path d="M127 98h2v1h1v1h1v1h1v1h1v1h1v2h-1v1h-1v1h-1v1h-1v1h-1v1h-2v-1h-1v-1h-1v-1h-1
	v-1h-1v-1h-1v-2h1v-1h1v-1h1v-1h1v-1h1v-1z" fill="rgb(132,195,178)"/>
<path d="M143 98h2v1h1v1h1v1h1v1h1v1h1v2h-1v1h-1v1h-1v1h-1v1h-1v1h-2v-1h-1v-1h-1v-1h-1
	v-1h-1v-1h-1v-2h1v-1h1v-1h1v-1h1v-1h1v-1z" fill="rgb(132,195,178)"/>
<path d="M159 98h2v1h1v1h1v1h1v1h1v1h1v2h-1v1h-1v1h-1v1h-1v1h-1v1h-2v-1h-1v-1h-1v-1h-1
	v-1h-1v-1h-1v-2h1v-1h1v-1h1v-1h1v-1h1v-1z" fill="rgb(132,195,178)"/>
<path d="M175 98h1v12h-1v-1h-1v-1h-1v-1h-1v-1h-1v-1h-1v-2h1v-1h1v-1h1v-1h1v-1h1v-1z" fill="rgb(132,195,178)"/>
<path d="M52 102h1v1h1v2h-1v1h-6v-1h1v-1h2v-1h2v-1z" fill="rgb(106,156,142)"/>
<path d="M53 102h6v1h-1v2h1v1h-6v-1h1v-2h-1v-1z" fill="rgb(137,170,161)"/>
<path d="M59 102h1v1h2v1h2v1h1v1h-6v-1h-1v-2h1v-1z" fill="rgb(106,156,142)"/>
<path d="M23 106h1v2h-1v1h-1v1h-1v1h-1v1h-2v-1h1v-1h1v-1h1v-1h1v-1h1v-1z" fill="rgb(106,139,167)"/>
<path d="M24 106h1v1h1v1h1v1h1v1h1v1h1v1h-2v-1h-1v-1h-1v-1h-1v-1h-1v-2z" fill="rgb(124,163,196)"/>
<path d="M39 106h2v1h1v1h1v1h1v1h1v2h-1v-1h-1v-1h-1v-1h-1v-1h-2v1h-1v1h-1v1h-1v1h-2v-1h1
	v-1h1v-1h1v-1h1v-1h1v-1z" fill="rgb(124,163,196)"/>
<path d="M47 106h5v1h-1v1h-5v-1h1v-1z" fill="rgb(79,117,107)"/>
<path d="M52 106h3v1h-1v1h-3v-1h1v-1z" fill="rgb(103,127,121)"/>
<path d="M55 106h2v1h1v1h-4v-1h1v-1z" fill="rgb(74,98,118)"/>
<path d="M57 106h3v1h1v1h-3v-1h-1v-1z" fill="rgb(103,127,121)"/>
<path d="M60 106h5v1h1v1h-5v-1h-1v-1z" fill="rgb(79,117,107)"/>
<path d="M71 106h2v1h1v1h1v1h1v1h1v1h1v1h-2v-1h-1v-1h-1v-1h-1v-1h-2v1h-1v1h-1v1h-1v1h-1
	v-2h1v-1h1v-1h1v-1h1v-1z" fill="rgb(124,163,196)"/>
<path d="M87 106h2v1h1v1h1v1h1v1h1v1h1v1h-2v-1h-1v-1h-1v-1h-1v-1h-2v1h-1v1h-1v1h-1v1h-2
	v-1h1v-1h1v-1h1v-1h1v-1h1v-1z" fill="rgb(124,163,196)"/>
<path d="M103 106h2v1h1v1h1v1h1v1h1v1h1v1h-2v-1h-1v-1h-1v-1h-1v-1h-2v1h-1v1h-1v1h-1v1h-2
	v-1h1v-1h1v-1h1v-1h1v-1h1v-1z" fill="rgb(124,163,196)"/>
<path d="M119 106h2v1h1v1h1v1h1v1h1v1h1v1h-2v-1h-1v-1h-1v-1h-1v-1h-2v1h-1v1h-1v1h-1v1h-2
	v-1h1v-1h1v-1h1v-1h1v-1h1v-1z" fill="rgb(124,163,196)"/>
<path d="M135 106h2v1h1v1h1v1h1v1h1v1h1v1h-2v-1h-1v-1h-1v-1h-1v-1h-2v1h-1v1h-1v1h-1v1h-2
	v-1h1v-1h1v-1h1v-1h1v-1h1v-1z" fill="rgb(124,163,196)"/>
<path d="M151 106h2v1h1v1h1v1h1v1h1v1h1v1h-2v-1h-1v-1h-1v-1h-1v-1h-2v1h-1v1h-1v1h-1v1h-2
	v-1h1v-1h1v-1h1v-1h1v-1h1v-1z" fill="rgb(124,163,196)"/>
<path d="M167 106h2v1h1v1h1v1h1v1h1v1h1v1h-2v-1h-1v-1h-1v-1h-1v-1h-2v1h-1v1h-1v1h-1v1h-2
	v-1h1v-1h1v-1h1v-1h1v-1h1v-1z" fill="rgb(124,163,196)"/>
<path d="M23 108h1v4h-4v-1h1v-1h1v-1h1v-1z" fill="rgb(117,155,186)"/>
<path d="M24 108h1v1h1v1h1v1h1v1h-4v-4z" fill="rgb(138,182,219)"/>
<path d="M39 108h2v1h1v1h1v1h1v1h-8v-1h1v-1h1v-1h1v-1z" fill="rgb(138,182,219)"/>
<path d="M46 108h4v1h-1v1h-2v-1h-1v-1z" fill="rgb(53,78,71)"/>
<path d="M50 108h3v1h-1v1h-3v-1h1v-1z" fill="rgb(68,85,80)"/>
<path d="M53 108h2v1h-1v1h-2v-1h1v-1z" fill="rgb(50,65,78)"/>
<path d="M55 108h2v1h1v1h-4v-1h1v-1z" fill="rgb(55,73,88)"/>
<path d="M57 108h2v1h1v1h-2v-1h-1v-1z" fill="rgb(50,65,78)"/>
<path d="M59 108h3v1h1v1h-3v-1h-1v-1z" fill="rgb(68,85,80)"/>
<path d="M62 108h4v1h-1v1h-2v-1h-1v-1z" fill="rgb(53,78,71)"/>
<path d="M71 108h2v1h1v1h1v1h1v1h-8v-1h1v-1h1v-1h1v-1z" fill="rgb(138,182,219)"/>
<path d="M87 108h2v1h1v1h1v1h1v1h-8v-1h1v-1h1v-1h1v-1z" fill="rgb(138,182,219)"/>
<path d="M103 108h2v1h1v1h1v1h1v1h-8v-1h1v-1h1v-1h1v-1z" fill="rgb(138,182,219)"/>
<path d="M119 108h2v1h1v1h1v1h1v1h-8v-1h1v-1h1v-1h1v-1z" fill="rgb(138,182,219)"/>
<path d="M135 108h2v1h1v1h1v1h1v1h-8v-1h1v-1h1v-1h1v-1z" fill="rgb(138,182,219)"/>
<path d="M151 108h2v1h1v1h1v1h1v1h-8v-1h1v-1h1v-1h1v-1z" fill="rgb(138,182,219)"/>
<path d="M167 108h2v1h1v1h1v1h1v1h-8v-1h1v-1h1v-1h1v-1z" fill="rgb(138,182,219)"/>
<path d="M45 109h2v1h-2v-1z" fill="rgb(68,85,80)"/>
<path d="M65 109h2v1h-2v-1z" fill="rgb(68,85,80)"/>
<path d="M45 110h6v1h-1v1h-4v-1h-1v-1z" fill="rgb(34,42,40)"/>
<path d="M51 110h2v1h-1v1h-2v-1h1v-1z" fill="rgb(25,33,39)"/>
<path d="M53 110h6v1h1v1h-8v-1h1v-1z" fill="rgb(28,36,44)"/>
<path d="M59 110h2v1h1v1h-2v-1h-1v-1z" fill="rgb(25,33,39)"/>
<path d="M61 110h6v1h-1v1h-4v-1h-1v-1z" fill="rgb(34,42,40)"/>
<path d="M45 111h1v1h-1v-1z" fill="rgb(25,33,39)"/>
<path d="M66 111h1v1h-1v-1z" fill="rgb(25,33,39)"/>
</svg>
