<?xml version="1.0" encoding="utf-8"?>
<!-- generated at drububu.com  -->
<!DOCTYPE svg PUBLIC "-//W3C//DTD SVG 1.1//EN" "http://www.w3.org/Graphics/SVG/1.1/DTD/svg11.dtd">
<svg version="1.1" preserveAspectRatio="xMinYMin meet" xmlns="http://www.w3.org/2000/svg" xmlns:xlink="http://www.w3.org/1999/xlink" x="0px" y="0px" width="416px" height="96px" viewBox="0 0 416 96">
<path d="M0 0h9v96h-9v-96z" fill="rgb(0,0,0)"/>
<path d="M9 0h398v96h-1v-95h-396v95h-1v-96z" fill="rgb(105,105,105)"/>
<path d="M407 0h9v96h-9v-96z" fill="rgb(0,0,0)"/>
<path d="M10 1h396v95h-5v-92h-386v92h-5v-95z" fill="rgb(255,255,255)"/>
<path d="M15 4h386v4h-1v-3h-384v3h-1v-4z" fill="rgb(181,181,181)"/>
<path d="M16 5h384v3h-384v-3z" fill="rgb(238,238,238)"/>
<path d="M15 8h386v88h-1v-87h-384v87h-1v-88z" fill="rgb(130,130,130)"/>
<path d="M16 9h384v1h-384v-1z" fill="rgb(132,147,163)"/>
<path d="M16 10h384v21h-14v-10h-1v-1h-3v-1h-1v-1h-1v-1h-2v1h-1v1h-1v1h-3v11h-1v-16h-1v-1
	h-22v1h-1v16h-58v-10h-1v-1h-3v-1h-1v-1h-1v-1h-2v1h-1v1h-1v1h-3v11h-1v-16h-1v-1
	h-22v1h-1v16h-58v-10h-1v-1h-3v-1h-1v-1h-1v-1h-2v1h-1v1h-1v1h-3v11h-1v-16h-1v-1
	h-22v1h-1v16h-71v-17h-42v17h-27v-21z" fill="rgb(155,173,192)"/>
<path d="M43 14h42v26h-5v-21h1v20h3v-24h-40v24h3v-20h1v21h-5v-26z" fill="rgb(71,71,71)"/>
<path d="M157 14h22v1h-22v-1z" fill="rgb(72,83,102)"/>
<path d="M253 14h22v1h-22v-1z" fill="rgb(72,83,102)"/>
<path d="M349 14h22v1h-22v-1z" fill="rgb(72,83,102)"/>
<path d="M44 15h40v1h-40v-1z" fill="rgb(216,216,216)"/>
<path d="M156 15h1v22h-1v-22z" fill="rgb(72,83,102)"/>
<path d="M157 15h22v1h-22v-1z" fill="rgb(208,224,240)"/>
<path d="M179 15h1v22h-1v-22z" fill="rgb(72,83,102)"/>
<path d="M252 15h1v22h-1v-22z" fill="rgb(72,83,102)"/>
<path d="M253 15h22v1h-22v-1z" fill="rgb(208,224,240)"/>
<path d="M275 15h1v22h-1v-22z" fill="rgb(72,83,102)"/>
<path d="M348 15h1v22h-1v-22z" fill="rgb(72,83,102)"/>
<path d="M349 15h22v1h-22v-1z" fill="rgb(208,224,240)"/>
<path d="M371 15h1v22h-1v-22z" fill="rgb(72,83,102)"/>
<path d="M44 16h40v1h-40v-1z" fill="rgb(129,129,129)"/>
<path d="M157 16h22v1h-22v-1z" fill="rgb(104,137,165)"/>
<path d="M253 16h22v1h-22v-1z" fill="rgb(104,137,165)"/>
<path d="M349 16h22v1h-22v-1z" fill="rgb(104,137,165)"/>
<path d="M44 17h12v1h-9v8h-3v-9z" fill="rgb(160,160,160)"/>
<path d="M56 17h1v1h-1v-1z" fill="rgb(216,216,216)"/>
<path d="M57 17h4v1h-4v-1z" fill="rgb(160,160,160)"/>
<path d="M61 17h1v1h-1v-1z" fill="rgb(216,216,216)"/>
<path d="M62 17h4v1h-4v-1z" fill="rgb(160,160,160)"/>
<path d="M66 17h1v1h-1v-1z" fill="rgb(153,242,143)"/>
<path d="M67 17h4v1h-4v-1z" fill="rgb(160,160,160)"/>
<path d="M71 17h1v1h-1v-1z" fill="rgb(216,216,216)"/>
<path d="M72 17h12v17h-3v-16h-9v-1z" fill="rgb(160,160,160)"/>
<path d="M157 17h22v15h-3v-14h-16v14h-3v-15z" fill="rgb(155,173,192)"/>
<path d="M186 17h2v1h-2v-1z" fill="rgb(60,68,66)"/>
<path d="M253 17h22v15h-3v-14h-16v14h-3v-15z" fill="rgb(155,173,192)"/>
<path d="M282 17h2v1h-2v-1z" fill="rgb(60,68,66)"/>
<path d="M349 17h22v15h-3v-14h-16v14h-3v-15z" fill="rgb(155,173,192)"/>
<path d="M378 17h2v1h-2v-1z" fill="rgb(60,68,66)"/>
<path d="M47 18h34v1h-34v-1z" fill="rgb(37,37,37)"/>
<path d="M160 18h16v1h-16v-1z" fill="rgb(78,68,68)"/>
<path d="M185 18h1v1h-1v-1z" fill="rgb(60,68,66)"/>
<path d="M186 18h2v1h1v1h-4v-1h1v-1z" fill="rgb(155,173,192)"/>
<path d="M188 18h1v1h-1v-1z" fill="rgb(60,68,66)"/>
<path d="M256 18h16v1h-16v-1z" fill="rgb(78,68,68)"/>
<path d="M281 18h1v1h-1v-1z" fill="rgb(60,68,66)"/>
<path d="M282 18h2v1h1v1h-4v-1h1v-1z" fill="rgb(155,173,192)"/>
<path d="M284 18h1v1h-1v-1z" fill="rgb(60,68,66)"/>
<path d="M352 18h16v1h-16v-1z" fill="rgb(78,68,68)"/>
<path d="M377 18h1v1h-1v-1z" fill="rgb(60,68,66)"/>
<path d="M378 18h2v1h1v1h-4v-1h1v-1z" fill="rgb(155,173,192)"/>
<path d="M380 18h1v1h-1v-1z" fill="rgb(60,68,66)"/>
<path d="M48 19h15v1h-15v-1z" fill="rgb(129,129,129)"/>
<path d="M63 19h2v21h-2v-21z" fill="rgb(71,71,71)"/>
<path d="M65 19h15v1h-15v-1z" fill="rgb(129,129,129)"/>
<path d="M160 19h1v18h-1v-18z" fill="rgb(72,83,102)"/>
<path d="M161 19h13v1h-13v-1z" fill="rgb(105,70,35)"/>
<path d="M174 19h1v1h-1v-1z" fill="rgb(181,158,0)"/>
<path d="M175 19h1v18h-1v-18z" fill="rgb(72,83,102)"/>
<path d="M184 19h1v1h-1v-1z" fill="rgb(60,68,66)"/>
<path d="M189 19h1v1h-1v-1z" fill="rgb(60,68,66)"/>
<path d="M256 19h1v18h-1v-18z" fill="rgb(72,83,102)"/>
<path d="M257 19h14v1h-14v-1z" fill="rgb(105,70,35)"/>
<path d="M271 19h1v18h-1v-18z" fill="rgb(72,83,102)"/>
<path d="M280 19h1v1h-1v-1z" fill="rgb(60,68,66)"/>
<path d="M285 19h1v1h-1v-1z" fill="rgb(60,68,66)"/>
<path d="M352 19h1v18h-1v-18z" fill="rgb(72,83,102)"/>
<path d="M353 19h14v1h-14v-1z" fill="rgb(105,70,35)"/>
<path d="M367 19h1v18h-1v-18z" fill="rgb(72,83,102)"/>
<path d="M376 19h1v1h-1v-1z" fill="rgb(60,68,66)"/>
<path d="M381 19h1v1h-1v-1z" fill="rgb(60,68,66)"/>
<path d="M48 20h15v1h-13v1h-1v16h14v1h-15v-19z" fill="rgb(160,160,160)"/>
<path d="M65 20h15v19h-15v-1h13v-1h1v-16h-14v-1z" fill="rgb(160,160,160)"/>
<path d="M161 20h12v1h-10v1h-1v3h-1v-5z" fill="rgb(133,88,44)"/>
<path d="M173 20h2v1h-2v-1z" fill="rgb(54,54,54)"/>
<path d="M181 20h12v11h-12v-11z" fill="rgb(105,70,35)"/>
<path d="M257 20h14v2h-1v-1h-11v1h-1v16h1v1h-2v-19z" fill="rgb(133,88,44)"/>
<path d="M277 20h12v11h-12v-11z" fill="rgb(105,70,35)"/>
<path d="M353 20h14v2h-1v-1h-11v1h-1v16h1v1h-2v-19z" fill="rgb(133,88,44)"/>
<path d="M373 20h12v11h-12v-11z" fill="rgb(105,70,35)"/>
<path d="M50 21h7v1h-1v1h-1v1h-1v1h-1v1h-1v1h-1v1h-1v1h-1v-7h1v-1z" fill="rgb(198,198,198)"/>
<path d="M57 21h1v1h-1v-1z" fill="rgb(216,216,216)"/>
<path d="M58 21h2v1h-1v1h-1v1h-1v1h-1v1h-1v1h-1v1h-1v1h-1v1h-1v1h-1v1h-1v-2h1v-1h1v-1h1
	v-1h1v-1h1v-1h1v-1h1v-1h1v-1h1v-1z" fill="rgb(198,198,198)"/>
<path d="M60 21h3v1h-1v1h-1v1h-1v1h-1v1h-1v1h-1v1h-1v1h-1v1h-1v1h-1v1h-1v1h-1v1h-1v1h-1
	v-3h1v-1h1v-1h1v-1h1v-1h1v-1h1v-1h1v-1h1v-1h1v-1h1v-1h1v-1z" fill="rgb(216,216,216)"/>
<path d="M65 21h9v1h-1v1h-1v1h-1v1h-1v1h-1v1h-1v1h-1v1h-1v1h-1v-9z" fill="rgb(198,198,198)"/>
<path d="M74 21h1v1h-1v-1z" fill="rgb(216,216,216)"/>
<path d="M75 21h2v1h-1v1h-1v1h-1v1h-1v1h-1v1h-1v1h-1v1h-1v1h-1v1h-1v1h-1v1h-1v-2h1v-1h1
	v-1h1v-1h1v-1h1v-1h1v-1h1v-1h1v-1h1v-1h1v-1z" fill="rgb(198,198,198)"/>
<path d="M77 21h2v2h-1v1h-1v1h-1v1h-1v1h-1v1h-1v1h-1v1h-1v1h-1v1h-1v1h-1v1h-1v1h-1v1h-1
	v-3h1v-1h1v-1h1v-1h1v-1h1v-1h1v-1h1v-1h1v-1h1v-1h1v-1h1v-1h1v-1z" fill="rgb(216,216,216)"/>
<path d="M163 21h9v1h-1v1h-1v1h-1v1h-1v1h-1v1h-1v1h-2v-1h-1v-1h-1v-4h1v-1z" fill="rgb(163,108,54)"/>
<path d="M172 21h2v2h-1v-1h-1v-1z" fill="rgb(213,186,0)"/>
<path d="M174 21h1v1h-1v-1z" fill="rgb(64,64,64)"/>
<path d="M182 21h10v1h-10v-1z" fill="rgb(203,153,103)"/>
<path d="M193 21h1v10h-1v-10z" fill="rgb(116,130,144)"/>
<path d="M259 21h11v1h1v8h-1v-1h-3v1h-1v3h1v1h3v-1h1v4h-1v1h-1v1h-10v-1h-1v-16h1v-1z" fill="rgb(163,108,54)"/>
<path d="M278 21h10v1h-10v-1z" fill="rgb(203,153,103)"/>
<path d="M289 21h1v10h-1v-10z" fill="rgb(116,130,144)"/>
<path d="M355 21h11v1h1v8h-1v-1h-3v1h-1v3h1v1h3v-1h1v4h-1v1h-1v1h-10v-1h-1v-16h1v-1z" fill="rgb(163,108,54)"/>
<path d="M374 21h10v1h-10v-1z" fill="rgb(203,153,103)"/>
<path d="M385 21h1v10h-1v-10z" fill="rgb(116,130,144)"/>
<path d="M56 22h1v1h-1v-1z" fill="rgb(216,216,216)"/>
<path d="M62 22h1v10h-1v1h-1v1h-1v1h-1v1h-1v1h-1v1h-8v-3h1v-1h1v-1h1v-1h1v-1h1v-1h1v-1h1
	v-1h1v-1h1v-1h1v-1h1v-1h1v-1h1v-1z" fill="rgb(198,198,198)"/>
<path d="M73 22h1v1h-1v-1z" fill="rgb(216,216,216)"/>
<path d="M171 22h2v2h-1v-1h-1v-1z" fill="rgb(64,64,64)"/>
<path d="M174 22h1v8h-1v-1h-3v1h-1v3h-1v-1h-1v-1h-1v-2h1v-1h1v-1h1v-1h1v-1h1v-1h1v-1h1
	v-1z" fill="rgb(163,108,54)"/>
<path d="M182 22h10v8h-10v-8z" fill="rgb(190,126,63)"/>
<path d="M278 22h10v8h-10v-8z" fill="rgb(190,126,63)"/>
<path d="M374 22h10v8h-10v-8z" fill="rgb(190,126,63)"/>
<path d="M55 23h1v1h-1v-1z" fill="rgb(216,216,216)"/>
<path d="M72 23h1v1h-1v-1z" fill="rgb(216,216,216)"/>
<path d="M78 23h1v10h-1v1h-1v1h-1v1h-1v1h-1v1h-9v-2h1v-1h1v-1h1v-1h1v-1h1v-1h1v-1h1v-1h1
	v-1h1v-1h1v-1h1v-1h1v-1h1v-1z" fill="rgb(198,198,198)"/>
<path d="M170 23h2v2h-1v-1h-1v-1z" fill="rgb(213,186,0)"/>
<path d="M183 23h8v5h-8v-5z" fill="rgb(222,228,227)"/>
<path d="M279 23h8v5h-8v-5z" fill="rgb(222,228,227)"/>
<path d="M375 23h8v5h-8v-5z" fill="rgb(222,228,227)"/>
<path d="M54 24h1v1h-1v-1z" fill="rgb(216,216,216)"/>
<path d="M71 24h1v1h-1v-1z" fill="rgb(216,216,216)"/>
<path d="M169 24h2v2h-1v-1h-1v-1z" fill="rgb(64,64,64)"/>
<path d="M184 24h2v1h-2v-1z" fill="rgb(152,160,167)"/>
<path d="M187 24h3v1h-3v-1z" fill="rgb(152,160,167)"/>
<path d="M280 24h3v1h-3v-1z" fill="rgb(152,160,167)"/>
<path d="M284 24h2v1h-2v-1z" fill="rgb(152,160,167)"/>
<path d="M376 24h2v1h-2v-1z" fill="rgb(152,160,167)"/>
<path d="M379 24h3v1h-3v-1z" fill="rgb(152,160,167)"/>
<path d="M53 25h1v1h-1v-1z" fill="rgb(216,216,216)"/>
<path d="M70 25h1v1h-1v-1z" fill="rgb(216,216,216)"/>
<path d="M161 25h1v1h-1v-1z" fill="rgb(181,158,0)"/>
<path d="M168 25h2v2h-1v-1h-1v-1z" fill="rgb(213,186,0)"/>
<path d="M44 26h3v5h-3v-5z" fill="rgb(129,129,129)"/>
<path d="M52 26h1v1h-1v-1z" fill="rgb(216,216,216)"/>
<path d="M69 26h1v1h-1v-1z" fill="rgb(216,216,216)"/>
<path d="M161 26h1v2h-1v-2z" fill="rgb(54,54,54)"/>
<path d="M162 26h1v1h-1v-1z" fill="rgb(64,64,64)"/>
<path d="M167 26h2v2h-1v-1h-1v-1z" fill="rgb(64,64,64)"/>
<path d="M184 26h4v1h-4v-1z" fill="rgb(152,160,167)"/>
<path d="M189 26h1v1h-1v-1z" fill="rgb(152,160,167)"/>
<path d="M280 26h4v1h-4v-1z" fill="rgb(152,160,167)"/>
<path d="M376 26h4v1h-4v-1z" fill="rgb(152,160,167)"/>
<path d="M381 26h1v1h-1v-1z" fill="rgb(152,160,167)"/>
<path d="M45 27h1v1h-1v-1z" fill="rgb(216,216,216)"/>
<path d="M51 27h1v1h-1v-1z" fill="rgb(216,216,216)"/>
<path d="M68 27h1v1h-1v-1z" fill="rgb(216,216,216)"/>
<path d="M162 27h2v1h-1v1h-1v-2z" fill="rgb(213,186,0)"/>
<path d="M166 27h2v2h-1v-1h-1v-1z" fill="rgb(213,186,0)"/>
<path d="M50 28h1v1h-1v-1z" fill="rgb(216,216,216)"/>
<path d="M67 28h1v1h-1v-1z" fill="rgb(216,216,216)"/>
<path d="M161 28h1v4h-1v-4z" fill="rgb(133,88,44)"/>
<path d="M163 28h4v3h-1v-2h-2v1h1v1h1v1h-2v-1h-1v-3z" fill="rgb(64,64,64)"/>
<path d="M183 28h8v1h-8v-1z" fill="rgb(203,153,103)"/>
<path d="M279 28h8v1h-8v-1z" fill="rgb(203,153,103)"/>
<path d="M375 28h8v1h-8v-1z" fill="rgb(203,153,103)"/>
<path d="M45 29h1v1h-1v-1z" fill="rgb(216,216,216)"/>
<path d="M49 29h1v1h-1v-1z" fill="rgb(216,216,216)"/>
<path d="M66 29h1v1h-1v-1z" fill="rgb(216,216,216)"/>
<path d="M162 29h1v2h-1v-2z" fill="rgb(163,108,54)"/>
<path d="M164 29h2v2h-1v-1h-1v-1z" fill="rgb(213,186,0)"/>
<path d="M171 29h2v1h-2v-1z" fill="rgb(59,53,38)"/>
<path d="M173 29h1v1h-1v-1z" fill="rgb(133,88,44)"/>
<path d="M267 29h2v1h-2v-1z" fill="rgb(59,53,38)"/>
<path d="M269 29h1v1h-1v-1z" fill="rgb(133,88,44)"/>
<path d="M363 29h2v1h-2v-1z" fill="rgb(59,53,38)"/>
<path d="M365 29h1v1h-1v-1z" fill="rgb(133,88,44)"/>
<path d="M65 30h1v1h-1v-1z" fill="rgb(216,216,216)"/>
<path d="M170 30h1v2h-1v-2z" fill="rgb(59,53,38)"/>
<path d="M171 30h1v1h-1v-1z" fill="rgb(234,217,136)"/>
<path d="M172 30h1v2h-2v-1h1v-1z" fill="rgb(170,145,65)"/>
<path d="M173 30h1v2h-1v-2z" fill="rgb(59,53,38)"/>
<path d="M174 30h1v3h-1v1h-3v-1h2v-1h1v-2z" fill="rgb(133,88,44)"/>
<path d="M266 30h1v2h-1v-2z" fill="rgb(59,53,38)"/>
<path d="M267 30h1v1h-1v-1z" fill="rgb(234,217,136)"/>
<path d="M268 30h1v2h-2v-1h1v-1z" fill="rgb(170,145,65)"/>
<path d="M269 30h1v2h-1v-2z" fill="rgb(59,53,38)"/>
<path d="M270 30h1v3h-1v1h-3v-1h2v-1h1v-2z" fill="rgb(133,88,44)"/>
<path d="M362 30h1v2h-1v-2z" fill="rgb(59,53,38)"/>
<path d="M363 30h1v1h-1v-1z" fill="rgb(234,217,136)"/>
<path d="M364 30h1v2h-2v-1h1v-1z" fill="rgb(170,145,65)"/>
<path d="M365 30h1v2h-1v-2z" fill="rgb(59,53,38)"/>
<path d="M366 30h1v3h-1v1h-3v-1h2v-1h1v-2z" fill="rgb(133,88,44)"/>
<path d="M16 31h27v1h-27v-1z" fill="rgb(104,137,165)"/>
<path d="M44 31h3v3h-3v-3z" fill="rgb(160,160,160)"/>
<path d="M85 31h71v1h-71v-1z" fill="rgb(104,137,165)"/>
<path d="M162 31h2v2h-1v-1h-1v-1z" fill="rgb(213,186,0)"/>
<path d="M166 31h2v1h-1v1h-1v-2z" fill="rgb(213,186,0)"/>
<path d="M180 31h2v1h-2v-1z" fill="rgb(104,137,165)"/>
<path d="M182 31h11v1h-11v-1z" fill="rgb(78,103,124)"/>
<path d="M193 31h59v1h-59v-1z" fill="rgb(104,137,165)"/>
<path d="M276 31h2v1h-2v-1z" fill="rgb(104,137,165)"/>
<path d="M278 31h11v1h-11v-1z" fill="rgb(78,103,124)"/>
<path d="M289 31h59v1h-59v-1z" fill="rgb(104,137,165)"/>
<path d="M372 31h2v1h-2v-1z" fill="rgb(104,137,165)"/>
<path d="M374 31h11v1h-11v-1z" fill="rgb(78,103,124)"/>
<path d="M385 31h15v1h-15v-1z" fill="rgb(104,137,165)"/>
<path d="M16 32h27v1h-27v-1z" fill="rgb(155,173,192)"/>
<path d="M62 32h1v1h-1v-1z" fill="rgb(216,216,216)"/>
<path d="M85 32h71v1h-71v-1z" fill="rgb(155,173,192)"/>
<path d="M157 32h3v1h-3v-1z" fill="rgb(104,137,165)"/>
<path d="M161 32h1v1h-1v-1z" fill="rgb(54,54,54)"/>
<path d="M162 32h1v2h-1v-2z" fill="rgb(64,64,64)"/>
<path d="M164 32h2v1h1v1h1v1h1v1h1v1h1v1h1v1h-9v-1h-1v-4h1v-1h1v-1z" fill="rgb(163,108,54)"/>
<path d="M167 32h2v1h-1v1h-1v-2z" fill="rgb(64,64,64)"/>
<path d="M170 32h1v1h-1v-1z" fill="rgb(133,88,44)"/>
<path d="M171 32h2v1h-2v-1z" fill="rgb(59,53,38)"/>
<path d="M176 32h3v1h-3v-1z" fill="rgb(104,137,165)"/>
<path d="M180 32h72v1h-72v-1z" fill="rgb(155,173,192)"/>
<path d="M253 32h3v1h-3v-1z" fill="rgb(104,137,165)"/>
<path d="M266 32h1v1h-1v-1z" fill="rgb(133,88,44)"/>
<path d="M267 32h2v1h-2v-1z" fill="rgb(59,53,38)"/>
<path d="M272 32h3v1h-3v-1z" fill="rgb(104,137,165)"/>
<path d="M276 32h72v1h-72v-1z" fill="rgb(155,173,192)"/>
<path d="M349 32h3v1h-3v-1z" fill="rgb(104,137,165)"/>
<path d="M362 32h1v1h-1v-1z" fill="rgb(133,88,44)"/>
<path d="M363 32h2v1h-2v-1z" fill="rgb(59,53,38)"/>
<path d="M368 32h3v1h-3v-1z" fill="rgb(104,137,165)"/>
<path d="M372 32h28v1h-28v-1z" fill="rgb(155,173,192)"/>
<path d="M16 33h27v4h-27v-4z" fill="rgb(104,137,165)"/>
<path d="M61 33h1v1h-1v-1z" fill="rgb(216,216,216)"/>
<path d="M62 33h1v2h-1v1h-1v1h-1v1h-2v-1h1v-1h1v-1h1v-1h1v-1z" fill="rgb(198,198,198)"/>
<path d="M78 33h1v1h-1v-1z" fill="rgb(216,216,216)"/>
<path d="M85 33h71v4h-71v-4z" fill="rgb(104,137,165)"/>
<path d="M157 33h3v1h-3v-1z" fill="rgb(155,173,192)"/>
<path d="M161 33h1v2h-1v-2z" fill="rgb(181,158,0)"/>
<path d="M168 33h2v1h-1v1h-1v-2z" fill="rgb(213,186,0)"/>
<path d="M170 33h1v1h-1v-1z" fill="rgb(163,108,54)"/>
<path d="M174 33h1v4h-2v-1h-1v-1h-1v-1h3v-1z" fill="rgb(163,108,54)"/>
<path d="M176 33h3v1h-3v-1z" fill="rgb(155,173,192)"/>
<path d="M180 33h72v4h-72v-4z" fill="rgb(104,137,165)"/>
<path d="M253 33h3v1h-3v-1z" fill="rgb(155,173,192)"/>
<path d="M272 33h3v1h-3v-1z" fill="rgb(155,173,192)"/>
<path d="M276 33h72v4h-72v-4z" fill="rgb(104,137,165)"/>
<path d="M349 33h3v1h-3v-1z" fill="rgb(155,173,192)"/>
<path d="M368 33h3v1h-3v-1z" fill="rgb(155,173,192)"/>
<path d="M372 33h28v4h-28v-4z" fill="rgb(104,137,165)"/>
<path d="M44 34h3v1h-3v-1z" fill="rgb(129,129,129)"/>
<path d="M60 34h1v1h-1v-1z" fill="rgb(216,216,216)"/>
<path d="M77 34h1v1h-1v-1z" fill="rgb(216,216,216)"/>
<path d="M78 34h1v3h-1v1h-3v-1h1v-1h1v-1h1v-1z" fill="rgb(198,198,198)"/>
<path d="M81 34h3v1h-3v-1z" fill="rgb(129,129,129)"/>
<path d="M157 34h3v4h-3v-4z" fill="rgb(104,137,165)"/>
<path d="M169 34h2v1h-1v1h-1v-2z" fill="rgb(64,64,64)"/>
<path d="M176 34h3v4h-3v-4z" fill="rgb(104,137,165)"/>
<path d="M253 34h3v4h-3v-4z" fill="rgb(104,137,165)"/>
<path d="M272 34h3v4h-3v-4z" fill="rgb(104,137,165)"/>
<path d="M349 34h3v4h-3v-4z" fill="rgb(104,137,165)"/>
<path d="M368 34h3v4h-3v-4z" fill="rgb(104,137,165)"/>
<path d="M44 35h3v1h-3v-1z" fill="rgb(160,160,160)"/>
<path d="M59 35h1v1h-1v-1z" fill="rgb(216,216,216)"/>
<path d="M62 35h1v3h-3v-1h1v-1h1v-1z" fill="rgb(216,216,216)"/>
<path d="M76 35h1v1h-1v-1z" fill="rgb(216,216,216)"/>
<path d="M81 35h3v1h-3v-1z" fill="rgb(160,160,160)"/>
<path d="M161 35h1v3h1v1h-2v-4z" fill="rgb(133,88,44)"/>
<path d="M170 35h2v1h-1v1h-1v-2z" fill="rgb(213,186,0)"/>
<path d="M44 36h3v3h-3v-3z" fill="rgb(129,129,129)"/>
<path d="M58 36h1v1h-1v-1z" fill="rgb(216,216,216)"/>
<path d="M75 36h1v1h-1v-1z" fill="rgb(216,216,216)"/>
<path d="M81 36h3v3h-3v-3z" fill="rgb(129,129,129)"/>
<path d="M171 36h2v1h-1v1h-1v-2z" fill="rgb(64,64,64)"/>
<path d="M16 37h27v3h-27v-3z" fill="rgb(78,102,136)"/>
<path d="M57 37h1v1h-1v-1z" fill="rgb(216,216,216)"/>
<path d="M74 37h1v1h-1v-1z" fill="rgb(216,216,216)"/>
<path d="M85 37h71v3h-71v-3z" fill="rgb(78,102,136)"/>
<path d="M156 37h1v2h3v-2h1v3h-5v-3z" fill="rgb(58,66,81)"/>
<path d="M172 37h2v1h-1v1h-1v-2z" fill="rgb(213,186,0)"/>
<path d="M174 37h1v1h-1v-1z" fill="rgb(133,88,44)"/>
<path d="M175 37h1v2h3v-2h1v3h-5v-3z" fill="rgb(58,66,81)"/>
<path d="M180 37h72v3h-72v-3z" fill="rgb(78,102,136)"/>
<path d="M252 37h1v2h3v-2h1v3h-5v-3z" fill="rgb(58,66,81)"/>
<path d="M270 37h1v2h-2v-1h1v-1z" fill="rgb(133,88,44)"/>
<path d="M271 37h1v2h3v-2h1v3h-5v-3z" fill="rgb(58,66,81)"/>
<path d="M276 37h72v3h-72v-3z" fill="rgb(78,102,136)"/>
<path d="M348 37h1v2h3v-2h1v3h-5v-3z" fill="rgb(58,66,81)"/>
<path d="M366 37h1v2h-2v-1h1v-1z" fill="rgb(133,88,44)"/>
<path d="M367 37h1v2h3v-2h1v3h-5v-3z" fill="rgb(58,66,81)"/>
<path d="M372 37h28v3h-28v-3z" fill="rgb(78,102,136)"/>
<path d="M157 38h3v1h-3v-1z" fill="rgb(78,102,136)"/>
<path d="M173 38h2v1h-2v-1z" fill="rgb(54,54,54)"/>
<path d="M176 38h3v1h-3v-1z" fill="rgb(78,102,136)"/>
<path d="M253 38h3v1h-3v-1z" fill="rgb(78,102,136)"/>
<path d="M272 38h3v1h-3v-1z" fill="rgb(78,102,136)"/>
<path d="M349 38h3v1h-3v-1z" fill="rgb(78,102,136)"/>
<path d="M368 38h3v1h-3v-1z" fill="rgb(78,102,136)"/>
<path d="M48 39h15v1h-15v-1z" fill="rgb(129,129,129)"/>
<path d="M65 39h15v1h-15v-1z" fill="rgb(129,129,129)"/>
<path d="M161 39h14v1h-14v-1z" fill="rgb(105,70,35)"/>
<path d="M257 39h14v1h-14v-1z" fill="rgb(105,70,35)"/>
<path d="M353 39h14v1h-14v-1z" fill="rgb(105,70,35)"/>
<path d="M16 40h6v1h-1v1h-1v1h-1v1h-1v1h-1v1h-1v-6z" fill="rgb(112,166,151)"/>
<path d="M22 40h4v1h1v1h1v1h1v1h1v1h1v1h2v-1h1v-1h1v-1h1v-1h1v-1h1v-1h4v1h1v1h1v1h1v1h1
	v1h1v1h2v-1h1v-1h1v-1h1v-1h1v-1h1v-1h4v1h1v1h1v1h1v1h1v1h1v1h2v-1h1v-1h1v-1h1
	v-1h1v-1h1v-1h4v1h1v1h1v1h1v1h1v1h1v1h2v-1h1v-1h1v-1h1v-1h1v-1h1v-1h4v1h1v1h1v1
	h1v1h1v1h1v1h2v-1h1v-1h1v-1h1v-1h1v-1h1v-1h4v1h1v1h1v1h1v1h1v1h1v1h2v-1h1v-1h1
	v-1h1v-1h1v-1h1v-1h4v1h1v1h1v1h1v1h1v1h1v1h2v-1h1v-1h1v-1h1v-1h1v-1h1v-1h4v1h1
	v1h1v1h1v1h1v1h1v1h2v-1h1v-1h1v-1h1v-1h1v-1h1v-1h4v1h1v1h1v1h1v1h1v1h1v1h2v-1h1
	v-1h1v-1h1v-1h1v-1h1v-1h4v1h1v1h1v1h1v1h1v1h1v1h2v-1h1v-1h1v-1h1v-1h1v-1h1v-1
	h4v1h1v1h1v1h1v1h1v1h1v1h2v-1h1v-1h1v-1h1v-1h1v-1h1v-1h4v1h1v1h1v1h1v1h1v1h1v1
	h2v-1h1v-1h1v-1h1v-1h1v-1h1v-1h4v1h1v1h1v1h1v1h1v1h1v1h2v-1h1v-1h1v-1h1v-1h1v-1
	h1v-1h4v1h1v1h1v1h1v1h1v1h1v1h2v-1h1v-1h1v-1h1v-1h1v-1h1v-1h4v1h1v1h1v1h1v1h1
	v1h1v1h2v-1h1v-1h1v-1h1v-1h1v-1h1v-1h4v1h1v1h1v1h1v1h1v1h1v1h2v-1h1v-1h1v-1h1
	v-1h1v-1h1v-1h4v1h1v1h1v1h1v1h1v1h1v1h2v-1h1v-1h1v-1h1v-1h1v-1h1v-1h4v1h1v1h1v1
	h1v1h1v1h1v1h2v-1h1v-1h1v-1h1v-1h1v-1h1v-1h4v1h1v1h1v1h1v1h1v1h1v1h2v-1h1v-1h1
	v-1h1v-1h1v-1h1v-1h4v1h1v1h1v1h1v1h1v1h1v1h2v-1h1v-1h1v-1h1v-1h1v-1h1v-1h4v1h1
	v1h1v1h1v1h1v1h1v1h2v-1h1v-1h1v-1h1v-1h1v-1h1v-1h4v1h1v1h1v1h1v1h1v1h1v1h2v-1h1
	v-1h1v-1h1v-1h1v-1h1v-1h4v1h1v1h1v1h1v1h1v1h1v1h2v-1h1v-1h1v-1h1v-1h1v-1h1v-1
	h4v1h1v1h1v1h1v1h1v1h1v1h1v2h-2v-1h-1v-1h-1v-1h-1v-1h-1v-1h-1v-1h-2v1h-1v1h-1v1
	h-1v1h-1v1h-1v1h-4v-1h-1v-1h-1v-1h-1v-1h-1v-1h-1v-1h-2v1h-1v1h-1v1h-1v1h-1v1
	h-1v1h-4v-1h-1v-1h-1v-1h-1v-1h-1v-1h-1v-1h-2v1h-1v1h-1v1h-1v1h-1v1h-1v1h-4v-1h-1
	v-1h-1v-1h-1v-1h-1v-1h-1v-1h-2v1h-1v1h-1v1h-1v1h-1v1h-1v1h-4v-1h-1v-1h-1v-1h-1
	v-1h-1v-1h-1v-1h-2v1h-1v1h-1v1h-1v1h-1v1h-1v1h-4v-1h-1v-1h-1v-1h-1v-1h-1v-1h-1
	v-1h-2v1h-1v1h-1v1h-1v1h-1v1h-1v1h-4v-1h-1v-1h-1v-1h-1v-1h-1v-1h-1v-1h-2v1h-1
	v1h-1v1h-1v1h-1v1h-1v1h-4v-1h-1v-1h-1v-1h-1v-1h-1v-1h-1v-1h-2v1h-1v1h-1v1h-1v1
	h-1v1h-1v1h-4v-1h-1v-1h-1v-1h-1v-1h-1v-1h-1v-1h-2v1h-1v1h-1v1h-1v1h-1v1h-1v1h-4
	v-1h-1v-1h-1v-1h-1v-1h-1v-1h-1v-1h-2v1h-1v1h-1v1h-1v1h-1v1h-1v1h-4v-1h-1v-1h-1
	v-1h-1v-1h-1v-1h-1v-1h-2v1h-1v1h-1v1h-1v1h-1v1h-1v1h-4v-1h-1v-1h-1v-1h-1v-1h-1
	v-1h-1v-1h-2v1h-1v1h-1v1h-1v1h-1v1h-1v1h-4v-1h-1v-1h-1v-1h-1v-1h-1v-1h-1v-1h-2
	v1h-1v1h-1v1h-1v1h-1v1h-1v1h-4v-1h-1v-1h-1v-1h-1v-1h-1v-1h-1v-1h-2v1h-1v1h-1v1
	h-1v1h-1v1h-1v1h-4v-1h-1v-1h-1v-1h-1v-1h-1v-1h-1v-1h-2v1h-1v1h-1v1h-1v1h-1v1
	h-1v1h-4v-1h-1v-1h-1v-1h-1v-1h-1v-1h-1v-1h-2v1h-1v1h-1v1h-1v1h-1v1h-1v1h-4v-1h-1
	v-1h-1v-1h-1v-1h-1v-1h-1v-1h-2v1h-1v1h-1v1h-1v1h-1v1h-1v1h-4v-1h-1v-1h-1v-1h-1
	v-1h-1v-1h-1v-1h-2v1h-1v1h-1v1h-1v1h-1v1h-1v1h-4v-1h-1v-1h-1v-1h-1v-1h-1v-1h-1
	v-1h-2v1h-1v1h-1v1h-1v1h-1v1h-1v1h-4v-1h-1v-1h-1v-1h-1v-1h-1v-1h-1v-1h-2v1h-1
	v1h-1v1h-1v1h-1v1h-1v1h-4v-1h-1v-1h-1v-1h-1v-1h-1v-1h-1v-1h-2v1h-1v1h-1v1h-1v1
	h-1v1h-1v1h-4v-1h-1v-1h-1v-1h-1v-1h-1v-1h-1v-1h-2v1h-1v1h-1v1h-1v1h-1v1h-1v1h-4
	v-1h-1v-1h-1v-1h-1v-1h-1v-1h-1v-1h-2v1h-1v1h-1v1h-1v1h-1v1h-1v1h-4v-1h-1v-1h-1
	v-1h-1v-1h-1v-1h-1v-1h-2v1h-1v1h-1v1h-1v1h-1v1h-1v2h1v1h1v1h1v1h1v1h1v1h1v4h-1
	v1h-1v1h-1v1h-1v1h-1v1h-1v2h1v1h1v1h1v1h1v1h1v1h1v4h-1v1h-1v1h-1v1h-1v1h-1v1
	h-1v2h1v1h1v1h1v1h1v1h1v1h1v4h-1v1h-1v1h-1v1h-1v1h-1v1h-1v1h-2v-2h1v-1h1v-1h1v-1
	h1v-1h1v-1h1v-2h-1v-1h-1v-1h-1v-1h-1v-1h-1v-1h-1v-4h1v-1h1v-1h1v-1h1v-1h1v-1h1
	v-2h-1v-1h-1v-1h-1v-1h-1v-1h-1v-1h-1v-4h1v-1h1v-1h1v-1h1v-1h1v-1h1v-2h-1v-1h-1
	v-1h-1v-1h-1v-1h-1v-1h-1v-4h1v-1h1v-1h1v-1h1v-1h1v-1h1v-1z" fill="rgb(146,180,171)"/>
<path d="M26 40h12v1h-1v1h-1v1h-1v1h-1v1h-1v1h-2v-1h-1v-1h-1v-1h-1v-1h-1v-1h-1v-1z" fill="rgb(112,166,151)"/>
<path d="M42 40h12v1h-1v1h-1v1h-1v1h-1v1h-1v1h-2v-1h-1v-1h-1v-1h-1v-1h-1v-1h-1v-1z" fill="rgb(112,166,151)"/>
<path d="M58 40h12v1h-1v1h-1v1h-1v1h-1v1h-1v1h-2v-1h-1v-1h-1v-1h-1v-1h-1v-1h-1v-1z" fill="rgb(112,166,151)"/>
<path d="M74 40h12v1h-1v1h-1v1h-1v1h-1v1h-1v1h-2v-1h-1v-1h-1v-1h-1v-1h-1v-1h-1v-1z" fill="rgb(112,166,151)"/>
<path d="M90 40h12v1h-1v1h-1v1h-1v1h-1v1h-1v1h-2v-1h-1v-1h-1v-1h-1v-1h-1v-1h-1v-1z" fill="rgb(112,166,151)"/>
<path d="M106 40h12v1h-1v1h-1v1h-1v1h-1v1h-1v1h-2v-1h-1v-1h-1v-1h-1v-1h-1v-1h-1v-1z" fill="rgb(112,166,151)"/>
<path d="M122 40h12v1h-1v1h-1v1h-1v1h-1v1h-1v1h-2v-1h-1v-1h-1v-1h-1v-1h-1v-1h-1v-1z" fill="rgb(112,166,151)"/>
<path d="M138 40h12v1h-1v1h-1v1h-1v1h-1v1h-1v1h-2v-1h-1v-1h-1v-1h-1v-1h-1v-1h-1v-1z" fill="rgb(112,166,151)"/>
<path d="M154 40h12v1h-1v1h-1v1h-1v1h-1v1h-1v1h-2v-1h-1v-1h-1v-1h-1v-1h-1v-1h-1v-1z" fill="rgb(112,166,151)"/>
<path d="M170 40h12v1h-1v1h-1v1h-1v1h-1v1h-1v1h-2v-1h-1v-1h-1v-1h-1v-1h-1v-1h-1v-1z" fill="rgb(112,166,151)"/>
<path d="M186 40h12v1h-1v1h-1v1h-1v1h-1v1h-1v1h-2v-1h-1v-1h-1v-1h-1v-1h-1v-1h-1v-1z" fill="rgb(112,166,151)"/>
<path d="M202 40h12v1h-1v1h-1v1h-1v1h-1v1h-1v1h-2v-1h-1v-1h-1v-1h-1v-1h-1v-1h-1v-1z" fill="rgb(112,166,151)"/>
<path d="M218 40h12v1h-1v1h-1v1h-1v1h-1v1h-1v1h-2v-1h-1v-1h-1v-1h-1v-1h-1v-1h-1v-1z" fill="rgb(112,166,151)"/>
<path d="M234 40h12v1h-1v1h-1v1h-1v1h-1v1h-1v1h-2v-1h-1v-1h-1v-1h-1v-1h-1v-1h-1v-1z" fill="rgb(112,166,151)"/>
<path d="M250 40h12v1h-1v1h-1v1h-1v1h-1v1h-1v1h-2v-1h-1v-1h-1v-1h-1v-1h-1v-1h-1v-1z" fill="rgb(112,166,151)"/>
<path d="M266 40h12v1h-1v1h-1v1h-1v1h-1v1h-1v1h-2v-1h-1v-1h-1v-1h-1v-1h-1v-1h-1v-1z" fill="rgb(112,166,151)"/>
<path d="M282 40h12v1h-1v1h-1v1h-1v1h-1v1h-1v1h-2v-1h-1v-1h-1v-1h-1v-1h-1v-1h-1v-1z" fill="rgb(112,166,151)"/>
<path d="M298 40h12v1h-1v1h-1v1h-1v1h-1v1h-1v1h-2v-1h-1v-1h-1v-1h-1v-1h-1v-1h-1v-1z" fill="rgb(112,166,151)"/>
<path d="M314 40h12v1h-1v1h-1v1h-1v1h-1v1h-1v1h-2v-1h-1v-1h-1v-1h-1v-1h-1v-1h-1v-1z" fill="rgb(112,166,151)"/>
<path d="M330 40h12v1h-1v1h-1v1h-1v1h-1v1h-1v1h-2v-1h-1v-1h-1v-1h-1v-1h-1v-1h-1v-1z" fill="rgb(112,166,151)"/>
<path d="M346 40h12v1h-1v1h-1v1h-1v1h-1v1h-1v1h-2v-1h-1v-1h-1v-1h-1v-1h-1v-1h-1v-1z" fill="rgb(112,166,151)"/>
<path d="M362 40h12v1h-1v1h-1v1h-1v1h-1v1h-1v1h-2v-1h-1v-1h-1v-1h-1v-1h-1v-1h-1v-1z" fill="rgb(112,166,151)"/>
<path d="M378 40h12v1h-1v1h-1v1h-1v1h-1v1h-1v1h-2v-1h-1v-1h-1v-1h-1v-1h-1v-1h-1v-1z" fill="rgb(112,166,151)"/>
<path d="M394 40h6v6h-1v-1h-1v-1h-1v-1h-1v-1h-1v-1h-1v-1z" fill="rgb(112,166,151)"/>
<path d="M23 42h2v1h1v1h1v1h1v1h1v1h1v1h-2v-1h-1v-1h-1v-1h-1v-1h-2v1h-1v1h-1v1h-1v1h-1v1
	h-1v-2h1v-1h1v-1h1v-1h1v-1h1v-1z" fill="rgb(106,139,167)"/>
<path d="M39 42h2v1h1v1h1v1h1v1h1v1h1v1h-2v-1h-1v-1h-1v-1h-1v-1h-2v1h-1v1h-1v1h-1v1h-2
	v-1h1v-1h1v-1h1v-1h1v-1h1v-1z" fill="rgb(106,139,167)"/>
<path d="M55 42h2v1h1v1h1v1h1v1h1v1h1v1h-2v-1h-1v-1h-1v-1h-1v-1h-2v1h-1v1h-1v1h-1v1h-2
	v-1h1v-1h1v-1h1v-1h1v-1h1v-1z" fill="rgb(106,139,167)"/>
<path d="M71 42h2v1h1v1h1v1h1v1h1v1h1v1h-2v-1h-1v-1h-1v-1h-1v-1h-2v1h-1v1h-1v1h-1v1h-2
	v-1h1v-1h1v-1h1v-1h1v-1h1v-1z" fill="rgb(106,139,167)"/>
<path d="M87 42h2v1h1v1h1v1h1v1h1v1h1v1h-2v-1h-1v-1h-1v-1h-1v-1h-2v1h-1v1h-1v1h-1v1h-2
	v-1h1v-1h1v-1h1v-1h1v-1h1v-1z" fill="rgb(106,139,167)"/>
<path d="M103 42h2v1h1v1h1v1h1v1h1v1h1v1h-2v-1h-1v-1h-1v-1h-1v-1h-2v1h-1v1h-1v1h-1v1h-2
	v-1h1v-1h1v-1h1v-1h1v-1h1v-1z" fill="rgb(106,139,167)"/>
<path d="M119 42h2v1h1v1h1v1h1v1h1v1h1v1h-2v-1h-1v-1h-1v-1h-1v-1h-2v1h-1v1h-1v1h-1v1h-2
	v-1h1v-1h1v-1h1v-1h1v-1h1v-1z" fill="rgb(106,139,167)"/>
<path d="M135 42h2v1h1v1h1v1h1v1h1v1h1v1h-2v-1h-1v-1h-1v-1h-1v-1h-2v1h-1v1h-1v1h-1v1h-2
	v-1h1v-1h1v-1h1v-1h1v-1h1v-1z" fill="rgb(106,139,167)"/>
<path d="M151 42h2v1h1v1h1v1h1v1h1v1h1v1h-2v-1h-1v-1h-1v-1h-1v-1h-2v1h-1v1h-1v1h-1v1h-2
	v-1h1v-1h1v-1h1v-1h1v-1h1v-1z" fill="rgb(106,139,167)"/>
<path d="M167 42h2v1h1v1h1v1h1v1h1v1h1v1h-2v-1h-1v-1h-1v-1h-1v-1h-2v1h-1v1h-1v1h-1v1h-2
	v-1h1v-1h1v-1h1v-1h1v-1h1v-1z" fill="rgb(106,139,167)"/>
<path d="M183 42h2v1h1v1h1v1h1v1h1v1h1v1h-2v-1h-1v-1h-1v-1h-1v-1h-2v1h-1v1h-1v1h-1v1h-2
	v-1h1v-1h1v-1h1v-1h1v-1h1v-1z" fill="rgb(106,139,167)"/>
<path d="M199 42h2v1h1v1h1v1h1v1h1v1h1v1h-2v-1h-1v-1h-1v-1h-1v-1h-2v1h-1v1h-1v1h-1v1h-2
	v-1h1v-1h1v-1h1v-1h1v-1h1v-1z" fill="rgb(106,139,167)"/>
<path d="M215 42h2v1h1v1h1v1h1v1h1v1h1v1h-2v-1h-1v-1h-1v-1h-1v-1h-2v1h-1v1h-1v1h-1v1h-2
	v-1h1v-1h1v-1h1v-1h1v-1h1v-1z" fill="rgb(106,139,167)"/>
<path d="M231 42h2v1h1v1h1v1h1v1h1v1h1v1h-2v-1h-1v-1h-1v-1h-1v-1h-2v1h-1v1h-1v1h-1v1h-2
	v-1h1v-1h1v-1h1v-1h1v-1h1v-1z" fill="rgb(106,139,167)"/>
<path d="M247 42h2v1h1v1h1v1h1v1h1v1h1v1h-2v-1h-1v-1h-1v-1h-1v-1h-2v1h-1v1h-1v1h-1v1h-2
	v-1h1v-1h1v-1h1v-1h1v-1h1v-1z" fill="rgb(106,139,167)"/>
<path d="M263 42h2v1h1v1h1v1h1v1h1v1h1v1h-2v-1h-1v-1h-1v-1h-1v-1h-2v1h-1v1h-1v1h-1v1h-2
	v-1h1v-1h1v-1h1v-1h1v-1h1v-1z" fill="rgb(106,139,167)"/>
<path d="M279 42h2v1h1v1h1v1h1v1h1v1h1v1h-2v-1h-1v-1h-1v-1h-1v-1h-2v1h-1v1h-1v1h-1v1h-2
	v-1h1v-1h1v-1h1v-1h1v-1h1v-1z" fill="rgb(106,139,167)"/>
<path d="M295 42h2v1h1v1h1v1h1v1h1v1h1v1h-2v-1h-1v-1h-1v-1h-1v-1h-2v1h-1v1h-1v1h-1v1h-2
	v-1h1v-1h1v-1h1v-1h1v-1h1v-1z" fill="rgb(106,139,167)"/>
<path d="M311 42h2v1h1v1h1v1h1v1h1v1h1v1h-2v-1h-1v-1h-1v-1h-1v-1h-2v1h-1v1h-1v1h-1v1h-2
	v-1h1v-1h1v-1h1v-1h1v-1h1v-1z" fill="rgb(106,139,167)"/>
<path d="M327 42h2v1h1v1h1v1h1v1h1v1h1v1h-2v-1h-1v-1h-1v-1h-1v-1h-2v1h-1v1h-1v1h-1v1h-2
	v-1h1v-1h1v-1h1v-1h1v-1h1v-1z" fill="rgb(106,139,167)"/>
<path d="M343 42h2v1h1v1h1v1h1v1h1v1h1v1h-2v-1h-1v-1h-1v-1h-1v-1h-2v1h-1v1h-1v1h-1v1h-2
	v-1h1v-1h1v-1h1v-1h1v-1h1v-1z" fill="rgb(106,139,167)"/>
<path d="M359 42h2v1h1v1h1v1h1v1h1v1h1v1h-2v-1h-1v-1h-1v-1h-1v-1h-2v1h-1v1h-1v1h-1v1h-2
	v-1h1v-1h1v-1h1v-1h1v-1h1v-1z" fill="rgb(106,139,167)"/>
<path d="M375 42h2v1h1v1h1v1h1v1h1v1h1v1h-2v-1h-1v-1h-1v-1h-1v-1h-2v1h-1v1h-1v1h-1v1h-2
	v-1h1v-1h1v-1h1v-1h1v-1h1v-1z" fill="rgb(106,139,167)"/>
<path d="M391 42h2v1h1v1h1v1h1v1h1v1h1v1h-2v-1h-1v-1h-1v-1h-1v-1h-2v1h-1v1h-1v1h-1v1h-2
	v-1h1v-1h1v-1h1v-1h1v-1h1v-1z" fill="rgb(106,139,167)"/>
<path d="M23 44h2v1h1v1h1v1h1v1h-4v6h-1v-1h-1v-1h-1v-1h-1v-1h-1v-2h1v-1h1v-1h1v-1h1v-1z" fill="rgb(117,155,186)"/>
<path d="M39 44h2v1h1v1h1v1h1v1h-8v-1h1v-1h1v-1h1v-1z" fill="rgb(117,155,186)"/>
<path d="M55 44h2v1h1v1h1v1h1v1h-8v-1h1v-1h1v-1h1v-1z" fill="rgb(117,155,186)"/>
<path d="M71 44h2v1h1v1h1v1h1v1h-8v-1h1v-1h1v-1h1v-1z" fill="rgb(117,155,186)"/>
<path d="M87 44h2v1h1v1h1v1h1v1h-8v-1h1v-1h1v-1h1v-1z" fill="rgb(117,155,186)"/>
<path d="M103 44h2v1h1v1h1v1h1v1h-8v-1h1v-1h1v-1h1v-1z" fill="rgb(117,155,186)"/>
<path d="M119 44h2v1h1v1h1v1h1v1h-8v-1h1v-1h1v-1h1v-1z" fill="rgb(117,155,186)"/>
<path d="M135 44h2v1h1v1h1v1h1v1h-8v-1h1v-1h1v-1h1v-1z" fill="rgb(117,155,186)"/>
<path d="M151 44h2v1h1v1h1v1h1v1h-8v-1h1v-1h1v-1h1v-1z" fill="rgb(117,155,186)"/>
<path d="M167 44h2v1h1v1h1v1h1v1h-8v-1h1v-1h1v-1h1v-1z" fill="rgb(117,155,186)"/>
<path d="M183 44h2v1h1v1h1v1h1v1h-8v-1h1v-1h1v-1h1v-1z" fill="rgb(117,155,186)"/>
<path d="M199 44h2v1h1v1h1v1h1v1h-8v-1h1v-1h1v-1h1v-1z" fill="rgb(117,155,186)"/>
<path d="M215 44h2v1h1v1h1v1h1v1h-8v-1h1v-1h1v-1h1v-1z" fill="rgb(117,155,186)"/>
<path d="M231 44h2v1h1v1h1v1h1v1h-8v-1h1v-1h1v-1h1v-1z" fill="rgb(117,155,186)"/>
<path d="M247 44h2v1h1v1h1v1h1v1h-8v-1h1v-1h1v-1h1v-1z" fill="rgb(117,155,186)"/>
<path d="M263 44h2v1h1v1h1v1h1v1h-8v-1h1v-1h1v-1h1v-1z" fill="rgb(117,155,186)"/>
<path d="M279 44h2v1h1v1h1v1h1v1h-8v-1h1v-1h1v-1h1v-1z" fill="rgb(117,155,186)"/>
<path d="M295 44h2v1h1v1h1v1h1v1h-8v-1h1v-1h1v-1h1v-1z" fill="rgb(117,155,186)"/>
<path d="M311 44h2v1h1v1h1v1h1v1h-8v-1h1v-1h1v-1h1v-1z" fill="rgb(117,155,186)"/>
<path d="M327 44h2v1h1v1h1v1h1v1h-8v-1h1v-1h1v-1h1v-1z" fill="rgb(117,155,186)"/>
<path d="M343 44h2v1h1v1h1v1h1v1h-8v-1h1v-1h1v-1h1v-1z" fill="rgb(117,155,186)"/>
<path d="M359 44h2v1h1v1h1v1h1v1h-8v-1h1v-1h1v-1h1v-1z" fill="rgb(117,155,186)"/>
<path d="M375 44h2v1h1v1h1v1h1v1h-8v-1h1v-1h1v-1h1v-1z" fill="rgb(117,155,186)"/>
<path d="M391 44h2v1h1v1h1v1h1v1h-8v-1h1v-1h1v-1h1v-1z" fill="rgb(117,155,186)"/>
<path d="M24 48h5v2h-1v1h-1v1h-1v1h-1v1h-1v-6z" fill="rgb(138,182,219)"/>
<path d="M29 48h1v1h-1v-1z" fill="rgb(124,163,196)"/>
<path d="M30 48h4v1h1v1h1v1h1v1h1v1h1v1h2v-1h1v-1h1v-1h1v-1h1v-1h1v-1h4v1h1v1h1v1h1v1h1
	v1h1v1h2v-1h1v-1h1v-1h1v-1h1v-1h1v-1h4v1h1v1h1v1h1v1h1v1h1v1h2v-1h1v-1h1v-1h1
	v-1h1v-1h1v-1h4v1h1v1h1v1h1v1h1v1h1v1h2v-1h1v-1h1v-1h1v-1h1v-1h1v-1h4v1h1v1h1v1
	h1v1h1v1h1v1h2v-1h1v-1h1v-1h1v-1h1v-1h1v-1h4v1h1v1h1v1h1v1h1v1h1v1h2v-1h1v-1h1
	v-1h1v-1h1v-1h1v-1h4v1h1v1h1v1h1v1h1v1h1v1h2v-1h1v-1h1v-1h1v-1h1v-1h1v-1h4v1h1
	v1h1v1h1v1h1v1h1v1h2v-1h1v-1h1v-1h1v-1h1v-1h1v-1h4v1h1v1h1v1h1v1h1v1h1v1h2v-1h1
	v-1h1v-1h1v-1h1v-1h1v-1h4v1h1v1h1v1h1v1h1v1h1v1h2v-1h1v-1h1v-1h1v-1h1v-1h1v-1
	h4v1h1v1h1v1h1v1h1v1h1v1h2v-1h1v-1h1v-1h1v-1h1v-1h1v-1h4v1h1v1h1v1h1v1h1v1h1v1
	h2v-1h1v-1h1v-1h1v-1h1v-1h1v-1h4v1h1v1h1v1h1v1h1v1h1v1h2v-1h1v-1h1v-1h1v-1h1v-1
	h1v-1h4v1h1v1h1v1h1v1h1v1h1v1h2v-1h1v-1h1v-1h1v-1h1v-1h1v-1h4v1h1v1h1v1h1v1h1
	v1h1v1h2v-1h1v-1h1v-1h1v-1h1v-1h1v-1h4v1h1v1h1v1h1v1h1v1h1v1h2v-1h1v-1h1v-1h1
	v-1h1v-1h1v-1h4v1h1v1h1v1h1v1h1v1h1v1h2v-1h1v-1h1v-1h1v-1h1v-1h1v-1h4v1h1v1h1v1
	h1v1h1v1h1v1h2v-1h1v-1h1v-1h1v-1h1v-1h1v-1h4v1h1v1h1v1h1v1h1v1h1v1h2v-1h1v-1h1
	v-1h1v-1h1v-1h1v-1h4v1h1v1h1v1h1v1h1v1h1v1h2v-1h1v-1h1v-1h1v-1h1v-1h1v-1h4v1h1
	v1h1v1h1v1h1v1h1v1h2v-1h1v-1h1v-1h1v-1h1v-1h1v-1h4v1h1v1h1v1h1v1h1v1h1v1h2v-1h1
	v-1h1v-1h1v-1h1v-1h1v-1h4v1h1v1h1v1h1v1h1v1h1v1h2v-1h1v-1h1v-1h1v-1h1v-1h1v-1
	h2v2h-1v1h-1v1h-1v1h-1v1h-1v1h-1v2h1v1h1v1h1v1h1v1h1v1h1v4h-1v1h-1v1h-1v1h-1v1
	h-1v1h-1v2h1v1h1v1h1v1h1v1h1v1h1v4h-1v1h-1v1h-1v1h-1v1h-1v1h-1v2h1v1h1v1h1v1h1
	v1h1v1h1v2h-2v-1h-1v-1h-1v-1h-1v-1h-1v-1h-1v-1h-2v1h-1v1h-1v1h-1v1h-1v1h-1v1h-4
	v-1h-1v-1h-1v-1h-1v-1h-1v-1h-1v-1h-2v1h-1v1h-1v1h-1v1h-1v1h-1v1h-4v-1h-1v-1h-1
	v-1h-1v-1h-1v-1h-1v-1h-2v1h-1v1h-1v1h-1v1h-1v1h-1v1h-4v-1h-1v-1h-1v-1h-1v-1h-1
	v-1h-1v-1h-2v1h-1v1h-1v1h-1v1h-1v1h-1v1h-4v-1h-1v-1h-1v-1h-1v-1h-1v-1h-1v-1h-2
	v1h-1v1h-1v1h-1v1h-1v1h-1v1h-4v-1h-1v-1h-1v-1h-1v-1h-1v-1h-1v-1h-2v1h-1v1h-1v1
	h-1v1h-1v1h-1v1h-4v-1h-1v-1h-1v-1h-1v-1h-1v-1h-1v-1h-2v1h-1v1h-1v1h-1v1h-1v1
	h-1v1h-4v-1h-1v-1h-1v-1h-1v-1h-1v-1h-1v-1h-2v1h-1v1h-1v1h-1v1h-1v1h-1v1h-4v-1h-1
	v-1h-1v-1h-1v-1h-1v-1h-1v-1h-2v1h-1v1h-1v1h-1v1h-1v1h-1v1h-4v-1h-1v-1h-1v-1h-1
	v-1h-1v-1h-1v-1h-2v1h-1v1h-1v1h-1v1h-1v1h-1v1h-4v-1h-1v-1h-1v-1h-1v-1h-1v-1h-1
	v-1h-2v1h-1v1h-1v1h-1v1h-1v1h-1v1h-4v-1h-1v-1h-1v-1h-1v-1h-1v-1h-1v-1h-2v1h-1
	v1h-1v1h-1v1h-1v1h-1v1h-4v-1h-1v-1h-1v-1h-1v-1h-1v-1h-1v-1h-2v1h-1v1h-1v1h-1v1
	h-1v1h-1v1h-4v-1h-1v-1h-1v-1h-1v-1h-1v-1h-1v-1h-2v1h-1v1h-1v1h-1v1h-1v1h-1v1h-4
	v-1h-1v-1h-1v-1h-1v-1h-1v-1h-1v-1h-2v1h-1v1h-1v1h-1v1h-1v1h-1v1h-4v-1h-1v-1h-1
	v-1h-1v-1h-1v-1h-1v-1h-2v1h-1v1h-1v1h-1v1h-1v1h-1v1h-4v-1h-1v-1h-1v-1h-1v-1h-1
	v-1h-1v-1h-2v1h-1v1h-1v1h-1v1h-1v1h-1v1h-4v-1h-1v-1h-1v-1h-1v-1h-1v-1h-1v-1h-2
	v1h-1v1h-1v1h-1v1h-1v1h-1v1h-4v-1h-1v-1h-1v-1h-1v-1h-1v-1h-1v-1h-2v1h-1v1h-1v1
	h-1v1h-1v1h-1v1h-4v-1h-1v-1h-1v-1h-1v-1h-1v-1h-1v-1h-2v1h-1v1h-1v1h-1v1h-1v1
	h-1v1h-4v-1h-1v-1h-1v-1h-1v-1h-1v-1h-1v-1h-2v1h-1v1h-1v1h-1v1h-1v1h-1v1h-4v-1h-1
	v-1h-1v-1h-1v-1h-1v-1h-1v-1h-2v1h-1v1h-1v1h-1v1h-1v1h-1v1h-4v-1h-1v-1h-1v-1h-1
	v-1h-1v-1h-1v-1h-2v1h-1v1h-1v1h-1v1h-1v1h-1v1h-4v-1h-1v-1h-1v-1h-1v-1h-1v-1h-1
	v-1h-1v-4h1v-1h1v-1h1v-1h1v-1h1v-1h1v-2h-1v-1h-1v-1h-1v-1h-1v-1h-1v-1h-1v-4h1
	v-1h1v-1h1v-1h1v-1h1v-1h1v-2h-1v-1h-1v-1h-1v-1h-1v-1h-1v-1h-1v-4h1v-1h1v-1h1v-1
	h1v-1h1v-1h1v-1z" fill="rgb(171,212,201)"/>
<path d="M34 48h1v1h-1v-1z" fill="rgb(124,163,196)"/>
<path d="M35 48h10v2h-1v1h-1v1h-1v1h-1v1h-2v-1h-1v-1h-1v-1h-1v-1h-1v-2z" fill="rgb(138,182,219)"/>
<path d="M45 48h1v1h-1v-1z" fill="rgb(124,163,196)"/>
<path d="M50 48h1v1h-1v-1z" fill="rgb(124,163,196)"/>
<path d="M51 48h10v2h-1v1h-1v1h-1v1h-1v1h-2v-1h-1v-1h-1v-1h-1v-1h-1v-2z" fill="rgb(138,182,219)"/>
<path d="M61 48h1v1h-1v-1z" fill="rgb(124,163,196)"/>
<path d="M66 48h1v1h-1v-1z" fill="rgb(124,163,196)"/>
<path d="M67 48h10v2h-1v1h-1v1h-1v1h-1v1h-2v-1h-1v-1h-1v-1h-1v-1h-1v-2z" fill="rgb(138,182,219)"/>
<path d="M77 48h1v1h-1v-1z" fill="rgb(124,163,196)"/>
<path d="M82 48h1v1h-1v-1z" fill="rgb(124,163,196)"/>
<path d="M83 48h10v2h-1v1h-1v1h-1v1h-1v1h-2v-1h-1v-1h-1v-1h-1v-1h-1v-2z" fill="rgb(138,182,219)"/>
<path d="M93 48h1v1h-1v-1z" fill="rgb(124,163,196)"/>
<path d="M98 48h1v1h-1v-1z" fill="rgb(124,163,196)"/>
<path d="M99 48h10v2h-1v1h-1v1h-1v1h-1v1h-2v-1h-1v-1h-1v-1h-1v-1h-1v-2z" fill="rgb(138,182,219)"/>
<path d="M109 48h1v1h-1v-1z" fill="rgb(124,163,196)"/>
<path d="M114 48h1v1h-1v-1z" fill="rgb(124,163,196)"/>
<path d="M115 48h10v2h-1v1h-1v1h-1v1h-1v1h-2v-1h-1v-1h-1v-1h-1v-1h-1v-2z" fill="rgb(138,182,219)"/>
<path d="M125 48h1v1h-1v-1z" fill="rgb(124,163,196)"/>
<path d="M130 48h1v1h-1v-1z" fill="rgb(124,163,196)"/>
<path d="M131 48h10v2h-1v1h-1v1h-1v1h-1v1h-2v-1h-1v-1h-1v-1h-1v-1h-1v-2z" fill="rgb(138,182,219)"/>
<path d="M141 48h1v1h-1v-1z" fill="rgb(124,163,196)"/>
<path d="M146 48h1v1h-1v-1z" fill="rgb(124,163,196)"/>
<path d="M147 48h10v2h-1v1h-1v1h-1v1h-1v1h-2v-1h-1v-1h-1v-1h-1v-1h-1v-2z" fill="rgb(138,182,219)"/>
<path d="M157 48h1v1h-1v-1z" fill="rgb(124,163,196)"/>
<path d="M162 48h1v1h-1v-1z" fill="rgb(124,163,196)"/>
<path d="M163 48h10v2h-1v1h-1v1h-1v1h-1v1h-2v-1h-1v-1h-1v-1h-1v-1h-1v-2z" fill="rgb(138,182,219)"/>
<path d="M173 48h1v1h-1v-1z" fill="rgb(124,163,196)"/>
<path d="M178 48h1v1h-1v-1z" fill="rgb(124,163,196)"/>
<path d="M179 48h10v2h-1v1h-1v1h-1v1h-1v1h-2v-1h-1v-1h-1v-1h-1v-1h-1v-2z" fill="rgb(138,182,219)"/>
<path d="M189 48h1v1h-1v-1z" fill="rgb(124,163,196)"/>
<path d="M194 48h1v1h-1v-1z" fill="rgb(124,163,196)"/>
<path d="M195 48h10v2h-1v1h-1v1h-1v1h-1v1h-2v-1h-1v-1h-1v-1h-1v-1h-1v-2z" fill="rgb(138,182,219)"/>
<path d="M205 48h1v1h-1v-1z" fill="rgb(124,163,196)"/>
<path d="M210 48h1v1h-1v-1z" fill="rgb(124,163,196)"/>
<path d="M211 48h10v2h-1v1h-1v1h-1v1h-1v1h-2v-1h-1v-1h-1v-1h-1v-1h-1v-2z" fill="rgb(138,182,219)"/>
<path d="M221 48h1v1h-1v-1z" fill="rgb(124,163,196)"/>
<path d="M226 48h1v1h-1v-1z" fill="rgb(124,163,196)"/>
<path d="M227 48h10v2h-1v1h-1v1h-1v1h-1v1h-2v-1h-1v-1h-1v-1h-1v-1h-1v-2z" fill="rgb(138,182,219)"/>
<path d="M237 48h1v1h-1v-1z" fill="rgb(124,163,196)"/>
<path d="M242 48h1v1h-1v-1z" fill="rgb(124,163,196)"/>
<path d="M243 48h10v2h-1v1h-1v1h-1v1h-1v1h-2v-1h-1v-1h-1v-1h-1v-1h-1v-2z" fill="rgb(138,182,219)"/>
<path d="M253 48h1v1h-1v-1z" fill="rgb(124,163,196)"/>
<path d="M258 48h1v1h-1v-1z" fill="rgb(124,163,196)"/>
<path d="M259 48h10v2h-1v1h-1v1h-1v1h-1v1h-2v-1h-1v-1h-1v-1h-1v-1h-1v-2z" fill="rgb(138,182,219)"/>
<path d="M269 48h1v1h-1v-1z" fill="rgb(124,163,196)"/>
<path d="M274 48h1v1h-1v-1z" fill="rgb(124,163,196)"/>
<path d="M275 48h10v2h-1v1h-1v1h-1v1h-1v1h-2v-1h-1v-1h-1v-1h-1v-1h-1v-2z" fill="rgb(138,182,219)"/>
<path d="M285 48h1v1h-1v-1z" fill="rgb(124,163,196)"/>
<path d="M290 48h1v1h-1v-1z" fill="rgb(124,163,196)"/>
<path d="M291 48h10v2h-1v1h-1v1h-1v1h-1v1h-2v-1h-1v-1h-1v-1h-1v-1h-1v-2z" fill="rgb(138,182,219)"/>
<path d="M301 48h1v1h-1v-1z" fill="rgb(124,163,196)"/>
<path d="M306 48h1v1h-1v-1z" fill="rgb(124,163,196)"/>
<path d="M307 48h10v2h-1v1h-1v1h-1v1h-1v1h-2v-1h-1v-1h-1v-1h-1v-1h-1v-2z" fill="rgb(138,182,219)"/>
<path d="M317 48h1v1h-1v-1z" fill="rgb(124,163,196)"/>
<path d="M322 48h1v1h-1v-1z" fill="rgb(124,163,196)"/>
<path d="M323 48h10v2h-1v1h-1v1h-1v1h-1v1h-2v-1h-1v-1h-1v-1h-1v-1h-1v-2z" fill="rgb(138,182,219)"/>
<path d="M333 48h1v1h-1v-1z" fill="rgb(124,163,196)"/>
<path d="M338 48h1v1h-1v-1z" fill="rgb(124,163,196)"/>
<path d="M339 48h10v2h-1v1h-1v1h-1v1h-1v1h-2v-1h-1v-1h-1v-1h-1v-1h-1v-2z" fill="rgb(138,182,219)"/>
<path d="M349 48h1v1h-1v-1z" fill="rgb(124,163,196)"/>
<path d="M354 48h1v1h-1v-1z" fill="rgb(124,163,196)"/>
<path d="M355 48h10v2h-1v1h-1v1h-1v1h-1v1h-2v-1h-1v-1h-1v-1h-1v-1h-1v-2z" fill="rgb(138,182,219)"/>
<path d="M365 48h1v1h-1v-1z" fill="rgb(124,163,196)"/>
<path d="M370 48h1v1h-1v-1z" fill="rgb(124,163,196)"/>
<path d="M371 48h10v2h-1v1h-1v1h-1v1h-1v1h-2v-1h-1v-1h-1v-1h-1v-1h-1v-2z" fill="rgb(138,182,219)"/>
<path d="M381 48h1v1h-1v-1z" fill="rgb(124,163,196)"/>
<path d="M386 48h1v1h-1v-1z" fill="rgb(124,163,196)"/>
<path d="M387 48h10v2h-1v1h-1v1h-1v1h-1v1h-2v-1h-1v-1h-1v-1h-1v-1h-1v-2z" fill="rgb(138,182,219)"/>
<path d="M397 48h1v1h-1v-1z" fill="rgb(124,163,196)"/>
<path d="M16 50h1v1h1v1h1v1h1v1h1v1h1v2h-1v1h-1v1h-1v1h-1v1h-1v1h-1v-12z" fill="rgb(112,166,151)"/>
<path d="M31 50h2v1h1v1h1v1h1v1h1v1h1v2h-1v1h-1v1h-1v1h-1v1h-1v1h-2v-1h-1v-1h-1v-1h-1v-1
	h-1v-1h-1v-2h1v-1h1v-1h1v-1h1v-1h1v-1z" fill="rgb(132,195,178)"/>
<path d="M47 50h2v1h1v1h1v1h1v1h1v1h1v2h-1v1h-1v1h-1v1h-1v1h-1v1h-2v-1h-1v-1h-1v-1h-1v-1
	h-1v-1h-1v-2h1v-1h1v-1h1v-1h1v-1h1v-1z" fill="rgb(132,195,178)"/>
<path d="M63 50h2v1h1v1h1v1h1v1h1v1h1v2h-1v1h-1v1h-1v1h-1v1h-1v1h-2v-1h-1v-1h-1v-1h-1v-1
	h-1v-1h-1v-2h1v-1h1v-1h1v-1h1v-1h1v-1z" fill="rgb(132,195,178)"/>
<path d="M79 50h2v1h1v1h1v1h1v1h1v1h1v2h-1v1h-1v1h-1v1h-1v1h-1v1h-2v-1h-1v-1h-1v-1h-1v-1
	h-1v-1h-1v-2h1v-1h1v-1h1v-1h1v-1h1v-1z" fill="rgb(132,195,178)"/>
<path d="M95 50h2v1h1v1h1v1h1v1h1v1h1v2h-1v1h-1v1h-1v1h-1v1h-1v1h-2v-1h-1v-1h-1v-1h-1v-1
	h-1v-1h-1v-2h1v-1h1v-1h1v-1h1v-1h1v-1z" fill="rgb(132,195,178)"/>
<path d="M111 50h2v1h1v1h1v1h1v1h1v1h1v2h-1v1h-1v1h-1v1h-1v1h-1v1h-2v-1h-1v-1h-1v-1h-1
	v-1h-1v-1h-1v-2h1v-1h1v-1h1v-1h1v-1h1v-1z" fill="rgb(132,195,178)"/>
<path d="M127 50h2v1h1v1h1v1h1v1h1v1h1v2h-1v1h-1v1h-1v1h-1v1h-1v1h-2v-1h-1v-1h-1v-1h-1
	v-1h-1v-1h-1v-2h1v-1h1v-1h1v-1h1v-1h1v-1z" fill="rgb(132,195,178)"/>
<path d="M143 50h2v1h1v1h1v1h1v1h1v1h1v2h-1v1h-1v1h-1v1h-1v1h-1v1h-2v-1h-1v-1h-1v-1h-1
	v-1h-1v-1h-1v-2h1v-1h1v-1h1v-1h1v-1h1v-1z" fill="rgb(132,195,178)"/>
<path d="M159 50h2v1h1v1h1v1h1v1h1v1h1v2h-1v1h-1v1h-1v1h-1v1h-1v1h-2v-1h-1v-1h-1v-1h-1
	v-1h-1v-1h-1v-2h1v-1h1v-1h1v-1h1v-1h1v-1z" fill="rgb(132,195,178)"/>
<path d="M175 50h2v1h1v1h1v1h1v1h1v1h1v2h-1v1h-1v1h-1v1h-1v1h-1v1h-2v-1h-1v-1h-1v-1h-1
	v-1h-1v-1h-1v-2h1v-1h1v-1h1v-1h1v-1h1v-1z" fill="rgb(132,195,178)"/>
<path d="M191 50h2v1h1v1h1v1h1v1h1v1h1v2h-1v1h-1v1h-1v1h-1v1h-1v1h-2v-1h-1v-1h-1v-1h-1
	v-1h-1v-1h-1v-2h1v-1h1v-1h1v-1h1v-1h1v-1z" fill="rgb(132,195,178)"/>
<path d="M207 50h2v1h1v1h1v1h1v1h1v1h1v2h-1v1h-1v1h-1v1h-1v1h-1v1h-2v-1h-1v-1h-1v-1h-1
	v-1h-1v-1h-1v-2h1v-1h1v-1h1v-1h1v-1h1v-1z" fill="rgb(132,195,178)"/>
<path d="M223 50h2v1h1v1h1v1h1v1h1v1h1v2h-1v1h-1v1h-1v1h-1v1h-1v1h-2v-1h-1v-1h-1v-1h-1
	v-1h-1v-1h-1v-2h1v-1h1v-1h1v-1h1v-1h1v-1z" fill="rgb(132,195,178)"/>
<path d="M239 50h2v1h1v1h1v1h1v1h1v1h1v2h-1v1h-1v1h-1v1h-1v1h-1v1h-2v-1h-1v-1h-1v-1h-1
	v-1h-1v-1h-1v-2h1v-1h1v-1h1v-1h1v-1h1v-1z" fill="rgb(132,195,178)"/>
<path d="M255 50h2v1h1v1h1v1h1v1h1v1h1v2h-1v1h-1v1h-1v1h-1v1h-1v1h-2v-1h-1v-1h-1v-1h-1
	v-1h-1v-1h-1v-2h1v-1h1v-1h1v-1h1v-1h1v-1z" fill="rgb(132,195,178)"/>
<path d="M271 50h2v1h1v1h1v1h1v1h1v1h1v2h-1v1h-1v1h-1v1h-1v1h-1v1h-2v-1h-1v-1h-1v-1h-1
	v-1h-1v-1h-1v-2h1v-1h1v-1h1v-1h1v-1h1v-1z" fill="rgb(132,195,178)"/>
<path d="M287 50h2v1h1v1h1v1h1v1h1v1h1v2h-1v1h-1v1h-1v1h-1v1h-1v1h-2v-1h-1v-1h-1v-1h-1
	v-1h-1v-1h-1v-2h1v-1h1v-1h1v-1h1v-1h1v-1z" fill="rgb(132,195,178)"/>
<path d="M303 50h2v1h1v1h1v1h1v1h1v1h1v2h-1v1h-1v1h-1v1h-1v1h-1v1h-2v-1h-1v-1h-1v-1h-1
	v-1h-1v-1h-1v-2h1v-1h1v-1h1v-1h1v-1h1v-1z" fill="rgb(132,195,178)"/>
<path d="M319 50h2v1h1v1h1v1h1v1h1v1h1v2h-1v1h-1v1h-1v1h-1v1h-1v1h-2v-1h-1v-1h-1v-1h-1
	v-1h-1v-1h-1v-2h1v-1h1v-1h1v-1h1v-1h1v-1z" fill="rgb(132,195,178)"/>
<path d="M335 50h2v1h1v1h1v1h1v1h1v1h1v2h-1v1h-1v1h-1v1h-1v1h-1v1h-2v-1h-1v-1h-1v-1h-1
	v-1h-1v-1h-1v-2h1v-1h1v-1h1v-1h1v-1h1v-1z" fill="rgb(132,195,178)"/>
<path d="M351 50h2v1h1v1h1v1h1v1h1v1h1v2h-1v1h-1v1h-1v1h-1v1h-1v1h-2v-1h-1v-1h-1v-1h-1
	v-1h-1v-1h-1v-2h1v-1h1v-1h1v-1h1v-1h1v-1z" fill="rgb(132,195,178)"/>
<path d="M367 50h2v1h1v1h1v1h1v1h1v1h1v2h-1v1h-1v1h-1v1h-1v1h-1v1h-2v-1h-1v-1h-1v-1h-1
	v-1h-1v-1h-1v-2h1v-1h1v-1h1v-1h1v-1h1v-1z" fill="rgb(132,195,178)"/>
<path d="M383 50h2v1h1v1h1v1h1v1h1v1h1v2h-1v1h-1v1h-1v1h-1v1h-1v1h-2v-1h-1v-1h-1v-1h-1
	v-1h-1v-1h-1v-2h1v-1h1v-1h1v-1h1v-1h1v-1z" fill="rgb(132,195,178)"/>
<path d="M399 50h1v12h-1v-1h-1v-1h-1v-1h-1v-1h-1v-1h-1v-2h1v-1h1v-1h1v-1h1v-1h1v-1z" fill="rgb(132,195,178)"/>
<path d="M23 58h1v2h-1v1h-1v1h-1v1h-1v1h-1v1h-1v-2h1v-1h1v-1h1v-1h1v-1h1v-1z" fill="rgb(106,139,167)"/>
<path d="M24 58h1v1h1v1h1v1h1v1h1v1h1v2h-1v-1h-1v-1h-1v-1h-1v-1h-1v-1h-1v-2z" fill="rgb(124,163,196)"/>
<path d="M39 58h2v1h1v1h1v1h1v1h1v1h1v2h-1v-1h-1v-1h-1v-1h-1v-1h-1v-1h-2v1h-1v1h-1v1h-1
	v1h-1v1h-1v-2h1v-1h1v-1h1v-1h1v-1h1v-1z" fill="rgb(124,163,196)"/>
<path d="M55 58h2v1h1v1h1v1h1v1h1v1h1v2h-1v-1h-1v-1h-1v-1h-1v-1h-1v-1h-2v1h-1v1h-1v1h-1
	v1h-1v1h-1v-2h1v-1h1v-1h1v-1h1v-1h1v-1z" fill="rgb(124,163,196)"/>
<path d="M71 58h2v1h1v1h1v1h1v1h1v1h1v2h-1v-1h-1v-1h-1v-1h-1v-1h-1v-1h-2v1h-1v1h-1v1h-1
	v1h-1v1h-1v-2h1v-1h1v-1h1v-1h1v-1h1v-1z" fill="rgb(124,163,196)"/>
<path d="M87 58h2v1h1v1h1v1h1v1h1v1h1v2h-1v-1h-1v-1h-1v-1h-1v-1h-1v-1h-2v1h-1v1h-1v1h-1
	v1h-1v1h-1v-2h1v-1h1v-1h1v-1h1v-1h1v-1z" fill="rgb(124,163,196)"/>
<path d="M103 58h2v1h1v1h1v1h1v1h1v1h1v2h-1v-1h-1v-1h-1v-1h-1v-1h-1v-1h-2v1h-1v1h-1v1h-1
	v1h-1v1h-1v-2h1v-1h1v-1h1v-1h1v-1h1v-1z" fill="rgb(124,163,196)"/>
<path d="M119 58h2v1h1v1h1v1h1v1h1v1h1v2h-1v-1h-1v-1h-1v-1h-1v-1h-1v-1h-2v1h-1v1h-1v1h-1
	v1h-1v1h-1v-2h1v-1h1v-1h1v-1h1v-1h1v-1z" fill="rgb(124,163,196)"/>
<path d="M135 58h2v1h1v1h1v1h1v1h1v1h1v2h-1v-1h-1v-1h-1v-1h-1v-1h-1v-1h-2v1h-1v1h-1v1h-1
	v1h-1v1h-1v-2h1v-1h1v-1h1v-1h1v-1h1v-1z" fill="rgb(124,163,196)"/>
<path d="M151 58h2v1h1v1h1v1h1v1h1v1h1v2h-1v-1h-1v-1h-1v-1h-1v-1h-1v-1h-2v1h-1v1h-1v1h-1
	v1h-1v1h-1v-2h1v-1h1v-1h1v-1h1v-1h1v-1z" fill="rgb(124,163,196)"/>
<path d="M167 58h2v1h1v1h1v1h1v1h1v1h1v2h-1v-1h-1v-1h-1v-1h-1v-1h-1v-1h-2v1h-1v1h-1v1h-1
	v1h-1v1h-1v-2h1v-1h1v-1h1v-1h1v-1h1v-1z" fill="rgb(124,163,196)"/>
<path d="M183 58h2v1h1v1h1v1h1v1h1v1h1v2h-1v-1h-1v-1h-1v-1h-1v-1h-1v-1h-2v1h-1v1h-1v1h-1
	v1h-1v1h-1v-2h1v-1h1v-1h1v-1h1v-1h1v-1z" fill="rgb(124,163,196)"/>
<path d="M199 58h2v1h1v1h1v1h1v1h1v1h1v2h-1v-1h-1v-1h-1v-1h-1v-1h-1v-1h-2v1h-1v1h-1v1h-1
	v1h-1v1h-1v-2h1v-1h1v-1h1v-1h1v-1h1v-1z" fill="rgb(124,163,196)"/>
<path d="M215 58h2v1h1v1h1v1h1v1h1v1h1v2h-1v-1h-1v-1h-1v-1h-1v-1h-1v-1h-2v1h-1v1h-1v1h-1
	v1h-1v1h-1v-2h1v-1h1v-1h1v-1h1v-1h1v-1z" fill="rgb(124,163,196)"/>
<path d="M231 58h2v1h1v1h1v1h1v1h1v1h1v2h-1v-1h-1v-1h-1v-1h-1v-1h-1v-1h-2v1h-1v1h-1v1h-1
	v1h-1v1h-1v-2h1v-1h1v-1h1v-1h1v-1h1v-1z" fill="rgb(124,163,196)"/>
<path d="M247 58h2v1h1v1h1v1h1v1h1v1h1v2h-1v-1h-1v-1h-1v-1h-1v-1h-1v-1h-2v1h-1v1h-1v1h-1
	v1h-1v1h-1v-2h1v-1h1v-1h1v-1h1v-1h1v-1z" fill="rgb(124,163,196)"/>
<path d="M263 58h2v1h1v1h1v1h1v1h1v1h1v2h-1v-1h-1v-1h-1v-1h-1v-1h-1v-1h-2v1h-1v1h-1v1h-1
	v1h-1v1h-1v-2h1v-1h1v-1h1v-1h1v-1h1v-1z" fill="rgb(124,163,196)"/>
<path d="M279 58h2v1h1v1h1v1h1v1h1v1h1v2h-1v-1h-1v-1h-1v-1h-1v-1h-1v-1h-2v1h-1v1h-1v1h-1
	v1h-1v1h-1v-2h1v-1h1v-1h1v-1h1v-1h1v-1z" fill="rgb(124,163,196)"/>
<path d="M295 58h2v1h1v1h1v1h1v1h1v1h1v2h-1v-1h-1v-1h-1v-1h-1v-1h-1v-1h-2v1h-1v1h-1v1h-1
	v1h-1v1h-1v-2h1v-1h1v-1h1v-1h1v-1h1v-1z" fill="rgb(124,163,196)"/>
<path d="M311 58h2v1h1v1h1v1h1v1h1v1h1v2h-1v-1h-1v-1h-1v-1h-1v-1h-1v-1h-2v1h-1v1h-1v1h-1
	v1h-1v1h-1v-2h1v-1h1v-1h1v-1h1v-1h1v-1z" fill="rgb(124,163,196)"/>
<path d="M327 58h2v1h1v1h1v1h1v1h1v1h1v2h-1v-1h-1v-1h-1v-1h-1v-1h-1v-1h-2v1h-1v1h-1v1h-1
	v1h-1v1h-1v-2h1v-1h1v-1h1v-1h1v-1h1v-1z" fill="rgb(124,163,196)"/>
<path d="M343 58h2v1h1v1h1v1h1v1h1v1h1v2h-1v-1h-1v-1h-1v-1h-1v-1h-1v-1h-2v1h-1v1h-1v1h-1
	v1h-1v1h-1v-2h1v-1h1v-1h1v-1h1v-1h1v-1z" fill="rgb(124,163,196)"/>
<path d="M359 58h2v1h1v1h1v1h1v1h1v1h1v2h-1v-1h-1v-1h-1v-1h-1v-1h-1v-1h-2v1h-1v1h-1v1h-1
	v1h-1v1h-1v-2h1v-1h1v-1h1v-1h1v-1h1v-1z" fill="rgb(124,163,196)"/>
<path d="M375 58h2v1h1v1h1v1h1v1h1v1h1v2h-1v-1h-1v-1h-1v-1h-1v-1h-1v-1h-2v1h-1v1h-1v1h-1
	v1h-1v1h-1v-2h1v-1h1v-1h1v-1h1v-1h1v-1z" fill="rgb(124,163,196)"/>
<path d="M391 58h2v1h1v1h1v1h1v1h1v1h1v2h-1v-1h-1v-1h-1v-1h-1v-1h-1v-1h-2v1h-1v1h-1v1h-1
	v1h-1v1h-1v-2h1v-1h1v-1h1v-1h1v-1h1v-1z" fill="rgb(124,163,196)"/>
<path d="M23 60h1v10h-1v-1h-1v-1h-1v-1h-1v-1h-1v-2h1v-1h1v-1h1v-1h1v-1z" fill="rgb(117,155,186)"/>
<path d="M24 60h1v1h1v1h1v1h1v1h1v2h-1v1h-1v1h-1v1h-1v1h-1v-10z" fill="rgb(138,182,219)"/>
<path d="M39 60h2v1h1v1h1v1h1v1h1v2h-1v1h-1v1h-1v1h-1v1h-2v-1h-1v-1h-1v-1h-1v-1h-1v-2h1
	v-1h1v-1h1v-1h1v-1z" fill="rgb(138,182,219)"/>
<path d="M55 60h2v1h1v1h1v1h1v1h1v2h-1v1h-1v1h-1v1h-1v1h-2v-1h-1v-1h-1v-1h-1v-1h-1v-2h1
	v-1h1v-1h1v-1h1v-1z" fill="rgb(138,182,219)"/>
<path d="M71 60h2v1h1v1h1v1h1v1h1v2h-1v1h-1v1h-1v1h-1v1h-2v-1h-1v-1h-1v-1h-1v-1h-1v-2h1
	v-1h1v-1h1v-1h1v-1z" fill="rgb(138,182,219)"/>
<path d="M87 60h2v1h1v1h1v1h1v1h1v2h-1v1h-1v1h-1v1h-1v1h-2v-1h-1v-1h-1v-1h-1v-1h-1v-2h1
	v-1h1v-1h1v-1h1v-1z" fill="rgb(138,182,219)"/>
<path d="M103 60h2v1h1v1h1v1h1v1h1v2h-1v1h-1v1h-1v1h-1v1h-2v-1h-1v-1h-1v-1h-1v-1h-1v-2h1
	v-1h1v-1h1v-1h1v-1z" fill="rgb(138,182,219)"/>
<path d="M119 60h2v1h1v1h1v1h1v1h1v2h-1v1h-1v1h-1v1h-1v1h-2v-1h-1v-1h-1v-1h-1v-1h-1v-2h1
	v-1h1v-1h1v-1h1v-1z" fill="rgb(138,182,219)"/>
<path d="M135 60h2v1h1v1h1v1h1v1h1v2h-1v1h-1v1h-1v1h-1v1h-2v-1h-1v-1h-1v-1h-1v-1h-1v-2h1
	v-1h1v-1h1v-1h1v-1z" fill="rgb(138,182,219)"/>
<path d="M151 60h2v1h1v1h1v1h1v1h1v2h-1v1h-1v1h-1v1h-1v1h-2v-1h-1v-1h-1v-1h-1v-1h-1v-2h1
	v-1h1v-1h1v-1h1v-1z" fill="rgb(138,182,219)"/>
<path d="M167 60h2v1h1v1h1v1h1v1h1v2h-1v1h-1v1h-1v1h-1v1h-2v-1h-1v-1h-1v-1h-1v-1h-1v-2h1
	v-1h1v-1h1v-1h1v-1z" fill="rgb(138,182,219)"/>
<path d="M183 60h2v1h1v1h1v1h1v1h1v2h-1v1h-1v1h-1v1h-1v1h-2v-1h-1v-1h-1v-1h-1v-1h-1v-2h1
	v-1h1v-1h1v-1h1v-1z" fill="rgb(138,182,219)"/>
<path d="M199 60h2v1h1v1h1v1h1v1h1v2h-1v1h-1v1h-1v1h-1v1h-2v-1h-1v-1h-1v-1h-1v-1h-1v-2h1
	v-1h1v-1h1v-1h1v-1z" fill="rgb(138,182,219)"/>
<path d="M215 60h2v1h1v1h1v1h1v1h1v2h-1v1h-1v1h-1v1h-1v1h-2v-1h-1v-1h-1v-1h-1v-1h-1v-2h1
	v-1h1v-1h1v-1h1v-1z" fill="rgb(138,182,219)"/>
<path d="M231 60h2v1h1v1h1v1h1v1h1v2h-1v1h-1v1h-1v1h-1v1h-2v-1h-1v-1h-1v-1h-1v-1h-1v-2h1
	v-1h1v-1h1v-1h1v-1z" fill="rgb(138,182,219)"/>
<path d="M247 60h2v1h1v1h1v1h1v1h1v2h-1v1h-1v1h-1v1h-1v1h-2v-1h-1v-1h-1v-1h-1v-1h-1v-2h1
	v-1h1v-1h1v-1h1v-1z" fill="rgb(138,182,219)"/>
<path d="M263 60h2v1h1v1h1v1h1v1h1v2h-1v1h-1v1h-1v1h-1v1h-2v-1h-1v-1h-1v-1h-1v-1h-1v-2h1
	v-1h1v-1h1v-1h1v-1z" fill="rgb(138,182,219)"/>
<path d="M279 60h2v1h1v1h1v1h1v1h1v2h-1v1h-1v1h-1v1h-1v1h-2v-1h-1v-1h-1v-1h-1v-1h-1v-2h1
	v-1h1v-1h1v-1h1v-1z" fill="rgb(138,182,219)"/>
<path d="M295 60h2v1h1v1h1v1h1v1h1v2h-1v1h-1v1h-1v1h-1v1h-2v-1h-1v-1h-1v-1h-1v-1h-1v-2h1
	v-1h1v-1h1v-1h1v-1z" fill="rgb(138,182,219)"/>
<path d="M311 60h2v1h1v1h1v1h1v1h1v2h-1v1h-1v1h-1v1h-1v1h-2v-1h-1v-1h-1v-1h-1v-1h-1v-2h1
	v-1h1v-1h1v-1h1v-1z" fill="rgb(138,182,219)"/>
<path d="M327 60h2v1h1v1h1v1h1v1h1v2h-1v1h-1v1h-1v1h-1v1h-2v-1h-1v-1h-1v-1h-1v-1h-1v-2h1
	v-1h1v-1h1v-1h1v-1z" fill="rgb(138,182,219)"/>
<path d="M343 60h2v1h1v1h1v1h1v1h1v2h-1v1h-1v1h-1v1h-1v1h-2v-1h-1v-1h-1v-1h-1v-1h-1v-2h1
	v-1h1v-1h1v-1h1v-1z" fill="rgb(138,182,219)"/>
<path d="M359 60h2v1h1v1h1v1h1v1h1v2h-1v1h-1v1h-1v1h-1v1h-2v-1h-1v-1h-1v-1h-1v-1h-1v-2h1
	v-1h1v-1h1v-1h1v-1z" fill="rgb(138,182,219)"/>
<path d="M375 60h2v1h1v1h1v1h1v1h1v2h-1v1h-1v1h-1v1h-1v1h-2v-1h-1v-1h-1v-1h-1v-1h-1v-2h1
	v-1h1v-1h1v-1h1v-1z" fill="rgb(138,182,219)"/>
<path d="M391 60h2v1h1v1h1v1h1v1h1v2h-1v1h-1v1h-1v1h-1v1h-2v-1h-1v-1h-1v-1h-1v-1h-1v-2h1
	v-1h1v-1h1v-1h1v-1z" fill="rgb(138,182,219)"/>
<path d="M16 66h1v1h1v1h1v1h1v1h1v1h1v2h-1v1h-1v1h-1v1h-1v1h-1v1h-1v-12z" fill="rgb(112,166,151)"/>
<path d="M31 66h2v1h1v1h1v1h1v1h1v1h1v2h-1v1h-1v1h-1v1h-1v1h-1v1h-2v-1h-1v-1h-1v-1h-1v-1
	h-1v-1h-1v-2h1v-1h1v-1h1v-1h1v-1h1v-1z" fill="rgb(132,195,178)"/>
<path d="M47 66h2v1h1v1h1v1h1v1h1v1h1v2h-1v1h-1v1h-1v1h-1v1h-1v1h-2v-1h-1v-1h-1v-1h-1v-1
	h-1v-1h-1v-2h1v-1h1v-1h1v-1h1v-1h1v-1z" fill="rgb(132,195,178)"/>
<path d="M63 66h2v1h1v1h1v1h1v1h1v1h1v2h-1v1h-1v1h-1v1h-1v1h-1v1h-2v-1h-1v-1h-1v-1h-1v-1
	h-1v-1h-1v-2h1v-1h1v-1h1v-1h1v-1h1v-1z" fill="rgb(132,195,178)"/>
<path d="M79 66h2v1h1v1h1v1h1v1h1v1h1v2h-1v1h-1v1h-1v1h-1v1h-1v1h-2v-1h-1v-1h-1v-1h-1v-1
	h-1v-1h-1v-2h1v-1h1v-1h1v-1h1v-1h1v-1z" fill="rgb(132,195,178)"/>
<path d="M95 66h2v1h1v1h1v1h1v1h1v1h1v2h-1v1h-1v1h-1v1h-1v1h-1v1h-2v-1h-1v-1h-1v-1h-1v-1
	h-1v-1h-1v-2h1v-1h1v-1h1v-1h1v-1h1v-1z" fill="rgb(132,195,178)"/>
<path d="M111 66h2v1h1v1h1v1h1v1h1v1h1v2h-1v1h-1v1h-1v1h-1v1h-1v1h-2v-1h-1v-1h-1v-1h-1
	v-1h-1v-1h-1v-2h1v-1h1v-1h1v-1h1v-1h1v-1z" fill="rgb(132,195,178)"/>
<path d="M127 66h2v1h1v1h1v1h1v1h1v1h1v2h-1v1h-1v1h-1v1h-1v1h-1v1h-2v-1h-1v-1h-1v-1h-1
	v-1h-1v-1h-1v-2h1v-1h1v-1h1v-1h1v-1h1v-1z" fill="rgb(132,195,178)"/>
<path d="M143 66h2v1h1v1h1v1h1v1h1v1h1v2h-1v1h-1v1h-1v1h-1v1h-1v1h-2v-1h-1v-1h-1v-1h-1
	v-1h-1v-1h-1v-2h1v-1h1v-1h1v-1h1v-1h1v-1z" fill="rgb(132,195,178)"/>
<path d="M159 66h2v1h1v1h1v1h1v1h1v1h1v2h-1v1h-1v1h-1v1h-1v1h-1v1h-2v-1h-1v-1h-1v-1h-1
	v-1h-1v-1h-1v-2h1v-1h1v-1h1v-1h1v-1h1v-1z" fill="rgb(132,195,178)"/>
<path d="M175 66h2v1h1v1h1v1h1v1h1v1h1v2h-1v1h-1v1h-1v1h-1v1h-1v1h-2v-1h-1v-1h-1v-1h-1
	v-1h-1v-1h-1v-2h1v-1h1v-1h1v-1h1v-1h1v-1z" fill="rgb(132,195,178)"/>
<path d="M191 66h2v1h1v1h1v1h1v1h1v1h1v2h-1v1h-1v1h-1v1h-1v1h-1v1h-2v-1h-1v-1h-1v-1h-1
	v-1h-1v-1h-1v-2h1v-1h1v-1h1v-1h1v-1h1v-1z" fill="rgb(132,195,178)"/>
<path d="M207 66h2v1h1v1h1v1h1v1h1v1h1v2h-1v1h-1v1h-1v1h-1v1h-1v1h-2v-1h-1v-1h-1v-1h-1
	v-1h-1v-1h-1v-2h1v-1h1v-1h1v-1h1v-1h1v-1z" fill="rgb(132,195,178)"/>
<path d="M223 66h2v1h1v1h1v1h1v1h1v1h1v2h-1v1h-1v1h-1v1h-1v1h-1v1h-2v-1h-1v-1h-1v-1h-1
	v-1h-1v-1h-1v-2h1v-1h1v-1h1v-1h1v-1h1v-1z" fill="rgb(132,195,178)"/>
<path d="M239 66h2v1h1v1h1v1h1v1h1v1h1v2h-1v1h-1v1h-1v1h-1v1h-1v1h-2v-1h-1v-1h-1v-1h-1
	v-1h-1v-1h-1v-2h1v-1h1v-1h1v-1h1v-1h1v-1z" fill="rgb(132,195,178)"/>
<path d="M255 66h2v1h1v1h1v1h1v1h1v1h1v2h-1v1h-1v1h-1v1h-1v1h-1v1h-2v-1h-1v-1h-1v-1h-1
	v-1h-1v-1h-1v-2h1v-1h1v-1h1v-1h1v-1h1v-1z" fill="rgb(132,195,178)"/>
<path d="M271 66h2v1h1v1h1v1h1v1h1v1h1v2h-1v1h-1v1h-1v1h-1v1h-1v1h-2v-1h-1v-1h-1v-1h-1
	v-1h-1v-1h-1v-2h1v-1h1v-1h1v-1h1v-1h1v-1z" fill="rgb(132,195,178)"/>
<path d="M287 66h2v1h1v1h1v1h1v1h1v1h1v2h-1v1h-1v1h-1v1h-1v1h-1v1h-2v-1h-1v-1h-1v-1h-1
	v-1h-1v-1h-1v-2h1v-1h1v-1h1v-1h1v-1h1v-1z" fill="rgb(132,195,178)"/>
<path d="M303 66h2v1h1v1h1v1h1v1h1v1h1v2h-1v1h-1v1h-1v1h-1v1h-1v1h-2v-1h-1v-1h-1v-1h-1
	v-1h-1v-1h-1v-2h1v-1h1v-1h1v-1h1v-1h1v-1z" fill="rgb(132,195,178)"/>
<path d="M319 66h2v1h1v1h1v1h1v1h1v1h1v2h-1v1h-1v1h-1v1h-1v1h-1v1h-2v-1h-1v-1h-1v-1h-1
	v-1h-1v-1h-1v-2h1v-1h1v-1h1v-1h1v-1h1v-1z" fill="rgb(132,195,178)"/>
<path d="M335 66h2v1h1v1h1v1h1v1h1v1h1v2h-1v1h-1v1h-1v1h-1v1h-1v1h-2v-1h-1v-1h-1v-1h-1
	v-1h-1v-1h-1v-2h1v-1h1v-1h1v-1h1v-1h1v-1z" fill="rgb(132,195,178)"/>
<path d="M351 66h2v1h1v1h1v1h1v1h1v1h1v2h-1v1h-1v1h-1v1h-1v1h-1v1h-2v-1h-1v-1h-1v-1h-1
	v-1h-1v-1h-1v-2h1v-1h1v-1h1v-1h1v-1h1v-1z" fill="rgb(132,195,178)"/>
<path d="M367 66h2v1h1v1h1v1h1v1h1v1h1v2h-1v1h-1v1h-1v1h-1v1h-1v1h-2v-1h-1v-1h-1v-1h-1
	v-1h-1v-1h-1v-2h1v-1h1v-1h1v-1h1v-1h1v-1z" fill="rgb(132,195,178)"/>
<path d="M383 66h2v1h1v1h1v1h1v1h1v1h1v2h-1v1h-1v1h-1v1h-1v1h-1v1h-2v-1h-1v-1h-1v-1h-1
	v-1h-1v-1h-1v-2h1v-1h1v-1h1v-1h1v-1h1v-1z" fill="rgb(132,195,178)"/>
<path d="M399 66h1v12h-1v-1h-1v-1h-1v-1h-1v-1h-1v-1h-1v-2h1v-1h1v-1h1v-1h1v-1h1v-1z" fill="rgb(132,195,178)"/>
<path d="M23 74h1v2h-1v1h-1v1h-1v1h-1v1h-1v1h-1v-2h1v-1h1v-1h1v-1h1v-1h1v-1z" fill="rgb(106,139,167)"/>
<path d="M24 74h1v1h1v1h1v1h1v1h1v1h1v2h-1v-1h-1v-1h-1v-1h-1v-1h-1v-1h-1v-2z" fill="rgb(124,163,196)"/>
<path d="M39 74h2v1h1v1h1v1h1v1h1v1h1v2h-1v-1h-1v-1h-1v-1h-1v-1h-1v-1h-2v1h-1v1h-1v1h-1
	v1h-1v1h-1v-2h1v-1h1v-1h1v-1h1v-1h1v-1z" fill="rgb(124,163,196)"/>
<path d="M55 74h2v1h1v1h1v1h1v1h1v1h1v2h-1v-1h-1v-1h-1v-1h-1v-1h-1v-1h-2v1h-1v1h-1v1h-1
	v1h-1v1h-1v-2h1v-1h1v-1h1v-1h1v-1h1v-1z" fill="rgb(124,163,196)"/>
<path d="M71 74h2v1h1v1h1v1h1v1h1v1h1v2h-1v-1h-1v-1h-1v-1h-1v-1h-1v-1h-2v1h-1v1h-1v1h-1
	v1h-1v1h-1v-2h1v-1h1v-1h1v-1h1v-1h1v-1z" fill="rgb(124,163,196)"/>
<path d="M87 74h2v1h1v1h1v1h1v1h1v1h1v2h-1v-1h-1v-1h-1v-1h-1v-1h-1v-1h-2v1h-1v1h-1v1h-1
	v1h-1v1h-1v-2h1v-1h1v-1h1v-1h1v-1h1v-1z" fill="rgb(124,163,196)"/>
<path d="M103 74h2v1h1v1h1v1h1v1h1v1h1v2h-1v-1h-1v-1h-1v-1h-1v-1h-1v-1h-2v1h-1v1h-1v1h-1
	v1h-1v1h-1v-2h1v-1h1v-1h1v-1h1v-1h1v-1z" fill="rgb(124,163,196)"/>
<path d="M119 74h2v1h1v1h1v1h1v1h1v1h1v2h-1v-1h-1v-1h-1v-1h-1v-1h-1v-1h-2v1h-1v1h-1v1h-1
	v1h-1v1h-1v-2h1v-1h1v-1h1v-1h1v-1h1v-1z" fill="rgb(124,163,196)"/>
<path d="M135 74h2v1h1v1h1v1h1v1h1v1h1v2h-1v-1h-1v-1h-1v-1h-1v-1h-1v-1h-2v1h-1v1h-1v1h-1
	v1h-1v1h-1v-2h1v-1h1v-1h1v-1h1v-1h1v-1z" fill="rgb(124,163,196)"/>
<path d="M151 74h2v1h1v1h1v1h1v1h1v1h1v2h-1v-1h-1v-1h-1v-1h-1v-1h-1v-1h-2v1h-1v1h-1v1h-1
	v1h-1v1h-1v-2h1v-1h1v-1h1v-1h1v-1h1v-1z" fill="rgb(124,163,196)"/>
<path d="M167 74h2v1h1v1h1v1h1v1h1v1h1v2h-1v-1h-1v-1h-1v-1h-1v-1h-1v-1h-2v1h-1v1h-1v1h-1
	v1h-1v1h-1v-2h1v-1h1v-1h1v-1h1v-1h1v-1z" fill="rgb(124,163,196)"/>
<path d="M183 74h2v1h1v1h1v1h1v1h1v1h1v2h-1v-1h-1v-1h-1v-1h-1v-1h-1v-1h-2v1h-1v1h-1v1h-1
	v1h-1v1h-1v-2h1v-1h1v-1h1v-1h1v-1h1v-1z" fill="rgb(124,163,196)"/>
<path d="M199 74h2v1h1v1h1v1h1v1h1v1h1v2h-1v-1h-1v-1h-1v-1h-1v-1h-1v-1h-2v1h-1v1h-1v1h-1
	v1h-1v1h-1v-2h1v-1h1v-1h1v-1h1v-1h1v-1z" fill="rgb(124,163,196)"/>
<path d="M215 74h2v1h1v1h1v1h1v1h1v1h1v2h-1v-1h-1v-1h-1v-1h-1v-1h-1v-1h-2v1h-1v1h-1v1h-1
	v1h-1v1h-1v-2h1v-1h1v-1h1v-1h1v-1h1v-1z" fill="rgb(124,163,196)"/>
<path d="M231 74h2v1h1v1h1v1h1v1h1v1h1v2h-1v-1h-1v-1h-1v-1h-1v-1h-1v-1h-2v1h-1v1h-1v1h-1
	v1h-1v1h-1v-2h1v-1h1v-1h1v-1h1v-1h1v-1z" fill="rgb(124,163,196)"/>
<path d="M247 74h2v1h1v1h1v1h1v1h1v1h1v2h-1v-1h-1v-1h-1v-1h-1v-1h-1v-1h-2v1h-1v1h-1v1h-1
	v1h-1v1h-1v-2h1v-1h1v-1h1v-1h1v-1h1v-1z" fill="rgb(124,163,196)"/>
<path d="M263 74h2v1h1v1h1v1h1v1h1v1h1v2h-1v-1h-1v-1h-1v-1h-1v-1h-1v-1h-2v1h-1v1h-1v1h-1
	v1h-1v1h-1v-2h1v-1h1v-1h1v-1h1v-1h1v-1z" fill="rgb(124,163,196)"/>
<path d="M279 74h2v1h1v1h1v1h1v1h1v1h1v2h-1v-1h-1v-1h-1v-1h-1v-1h-1v-1h-2v1h-1v1h-1v1h-1
	v1h-1v1h-1v-2h1v-1h1v-1h1v-1h1v-1h1v-1z" fill="rgb(124,163,196)"/>
<path d="M295 74h2v1h1v1h1v1h1v1h1v1h1v2h-1v-1h-1v-1h-1v-1h-1v-1h-1v-1h-2v1h-1v1h-1v1h-1
	v1h-1v1h-1v-2h1v-1h1v-1h1v-1h1v-1h1v-1z" fill="rgb(124,163,196)"/>
<path d="M311 74h2v1h1v1h1v1h1v1h1v1h1v2h-1v-1h-1v-1h-1v-1h-1v-1h-1v-1h-2v1h-1v1h-1v1h-1
	v1h-1v1h-1v-2h1v-1h1v-1h1v-1h1v-1h1v-1z" fill="rgb(124,163,196)"/>
<path d="M327 74h2v1h1v1h1v1h1v1h1v1h1v2h-1v-1h-1v-1h-1v-1h-1v-1h-1v-1h-2v1h-1v1h-1v1h-1
	v1h-1v1h-1v-2h1v-1h1v-1h1v-1h1v-1h1v-1z" fill="rgb(124,163,196)"/>
<path d="M343 74h2v1h1v1h1v1h1v1h1v1h1v2h-1v-1h-1v-1h-1v-1h-1v-1h-1v-1h-2v1h-1v1h-1v1h-1
	v1h-1v1h-1v-2h1v-1h1v-1h1v-1h1v-1h1v-1z" fill="rgb(124,163,196)"/>
<path d="M359 74h2v1h1v1h1v1h1v1h1v1h1v2h-1v-1h-1v-1h-1v-1h-1v-1h-1v-1h-2v1h-1v1h-1v1h-1
	v1h-1v1h-1v-2h1v-1h1v-1h1v-1h1v-1h1v-1z" fill="rgb(124,163,196)"/>
<path d="M375 74h2v1h1v1h1v1h1v1h1v1h1v2h-1v-1h-1v-1h-1v-1h-1v-1h-1v-1h-2v1h-1v1h-1v1h-1
	v1h-1v1h-1v-2h1v-1h1v-1h1v-1h1v-1h1v-1z" fill="rgb(124,163,196)"/>
<path d="M391 74h2v1h1v1h1v1h1v1h1v1h1v2h-1v-1h-1v-1h-1v-1h-1v-1h-1v-1h-2v1h-1v1h-1v1h-1
	v1h-1v1h-1v-2h1v-1h1v-1h1v-1h1v-1h1v-1z" fill="rgb(124,163,196)"/>
<path d="M23 76h1v10h-1v-1h-1v-1h-1v-1h-1v-1h-1v-2h1v-1h1v-1h1v-1h1v-1z" fill="rgb(117,155,186)"/>
<path d="M24 76h1v1h1v1h1v1h1v1h1v2h-1v1h-1v1h-1v1h-1v1h-1v-10z" fill="rgb(138,182,219)"/>
<path d="M39 76h2v1h1v1h1v1h1v1h1v2h-1v1h-1v1h-1v1h-1v1h-2v-1h-1v-1h-1v-1h-1v-1h-1v-2h1
	v-1h1v-1h1v-1h1v-1z" fill="rgb(138,182,219)"/>
<path d="M55 76h2v1h1v1h1v1h1v1h1v2h-1v1h-1v1h-1v1h-1v1h-2v-1h-1v-1h-1v-1h-1v-1h-1v-2h1
	v-1h1v-1h1v-1h1v-1z" fill="rgb(138,182,219)"/>
<path d="M71 76h2v1h1v1h1v1h1v1h1v2h-1v1h-1v1h-1v1h-1v1h-2v-1h-1v-1h-1v-1h-1v-1h-1v-2h1
	v-1h1v-1h1v-1h1v-1z" fill="rgb(138,182,219)"/>
<path d="M87 76h2v1h1v1h1v1h1v1h1v2h-1v1h-1v1h-1v1h-1v1h-2v-1h-1v-1h-1v-1h-1v-1h-1v-2h1
	v-1h1v-1h1v-1h1v-1z" fill="rgb(138,182,219)"/>
<path d="M103 76h2v1h1v1h1v1h1v1h1v2h-1v1h-1v1h-1v1h-1v1h-2v-1h-1v-1h-1v-1h-1v-1h-1v-2h1
	v-1h1v-1h1v-1h1v-1z" fill="rgb(138,182,219)"/>
<path d="M119 76h2v1h1v1h1v1h1v1h1v2h-1v1h-1v1h-1v1h-1v1h-2v-1h-1v-1h-1v-1h-1v-1h-1v-2h1
	v-1h1v-1h1v-1h1v-1z" fill="rgb(138,182,219)"/>
<path d="M135 76h2v1h1v1h1v1h1v1h1v2h-1v1h-1v1h-1v1h-1v1h-2v-1h-1v-1h-1v-1h-1v-1h-1v-2h1
	v-1h1v-1h1v-1h1v-1z" fill="rgb(138,182,219)"/>
<path d="M151 76h2v1h1v1h1v1h1v1h1v2h-1v1h-1v1h-1v1h-1v1h-2v-1h-1v-1h-1v-1h-1v-1h-1v-2h1
	v-1h1v-1h1v-1h1v-1z" fill="rgb(138,182,219)"/>
<path d="M167 76h2v1h1v1h1v1h1v1h1v2h-1v1h-1v1h-1v1h-1v1h-2v-1h-1v-1h-1v-1h-1v-1h-1v-2h1
	v-1h1v-1h1v-1h1v-1z" fill="rgb(138,182,219)"/>
<path d="M183 76h2v1h1v1h1v1h1v1h1v2h-1v1h-1v1h-1v1h-1v1h-2v-1h-1v-1h-1v-1h-1v-1h-1v-2h1
	v-1h1v-1h1v-1h1v-1z" fill="rgb(138,182,219)"/>
<path d="M199 76h2v1h1v1h1v1h1v1h1v2h-1v1h-1v1h-1v1h-1v1h-2v-1h-1v-1h-1v-1h-1v-1h-1v-2h1
	v-1h1v-1h1v-1h1v-1z" fill="rgb(138,182,219)"/>
<path d="M215 76h2v1h1v1h1v1h1v1h1v2h-1v1h-1v1h-1v1h-1v1h-2v-1h-1v-1h-1v-1h-1v-1h-1v-2h1
	v-1h1v-1h1v-1h1v-1z" fill="rgb(138,182,219)"/>
<path d="M231 76h2v1h1v1h1v1h1v1h1v2h-1v1h-1v1h-1v1h-1v1h-2v-1h-1v-1h-1v-1h-1v-1h-1v-2h1
	v-1h1v-1h1v-1h1v-1z" fill="rgb(138,182,219)"/>
<path d="M247 76h2v1h1v1h1v1h1v1h1v2h-1v1h-1v1h-1v1h-1v1h-2v-1h-1v-1h-1v-1h-1v-1h-1v-2h1
	v-1h1v-1h1v-1h1v-1z" fill="rgb(138,182,219)"/>
<path d="M263 76h2v1h1v1h1v1h1v1h1v2h-1v1h-1v1h-1v1h-1v1h-2v-1h-1v-1h-1v-1h-1v-1h-1v-2h1
	v-1h1v-1h1v-1h1v-1z" fill="rgb(138,182,219)"/>
<path d="M279 76h2v1h1v1h1v1h1v1h1v2h-1v1h-1v1h-1v1h-1v1h-2v-1h-1v-1h-1v-1h-1v-1h-1v-2h1
	v-1h1v-1h1v-1h1v-1z" fill="rgb(138,182,219)"/>
<path d="M295 76h2v1h1v1h1v1h1v1h1v2h-1v1h-1v1h-1v1h-1v1h-2v-1h-1v-1h-1v-1h-1v-1h-1v-2h1
	v-1h1v-1h1v-1h1v-1z" fill="rgb(138,182,219)"/>
<path d="M311 76h2v1h1v1h1v1h1v1h1v2h-1v1h-1v1h-1v1h-1v1h-2v-1h-1v-1h-1v-1h-1v-1h-1v-2h1
	v-1h1v-1h1v-1h1v-1z" fill="rgb(138,182,219)"/>
<path d="M327 76h2v1h1v1h1v1h1v1h1v2h-1v1h-1v1h-1v1h-1v1h-2v-1h-1v-1h-1v-1h-1v-1h-1v-2h1
	v-1h1v-1h1v-1h1v-1z" fill="rgb(138,182,219)"/>
<path d="M343 76h2v1h1v1h1v1h1v1h1v2h-1v1h-1v1h-1v1h-1v1h-2v-1h-1v-1h-1v-1h-1v-1h-1v-2h1
	v-1h1v-1h1v-1h1v-1z" fill="rgb(138,182,219)"/>
<path d="M359 76h2v1h1v1h1v1h1v1h1v2h-1v1h-1v1h-1v1h-1v1h-2v-1h-1v-1h-1v-1h-1v-1h-1v-2h1
	v-1h1v-1h1v-1h1v-1z" fill="rgb(138,182,219)"/>
<path d="M375 76h2v1h1v1h1v1h1v1h1v2h-1v1h-1v1h-1v1h-1v1h-2v-1h-1v-1h-1v-1h-1v-1h-1v-2h1
	v-1h1v-1h1v-1h1v-1z" fill="rgb(138,182,219)"/>
<path d="M391 76h2v1h1v1h1v1h1v1h1v2h-1v1h-1v1h-1v1h-1v1h-2v-1h-1v-1h-1v-1h-1v-1h-1v-2h1
	v-1h1v-1h1v-1h1v-1z" fill="rgb(138,182,219)"/>
<path d="M16 82h1v1h1v1h1v1h1v1h1v1h1v2h-1v1h-1v1h-1v1h-1v1h-1v1h-1v-12z" fill="rgb(112,166,151)"/>
<path d="M31 82h2v1h1v1h1v1h1v1h1v1h1v2h-1v1h-1v1h-1v1h-1v1h-1v1h-2v-1h-1v-1h-1v-1h-1v-1
	h-1v-1h-1v-2h1v-1h1v-1h1v-1h1v-1h1v-1z" fill="rgb(132,195,178)"/>
<path d="M47 82h2v1h1v1h1v1h1v1h1v1h1v2h-1v1h-1v1h-1v1h-1v1h-1v1h-2v-1h-1v-1h-1v-1h-1v-1
	h-1v-1h-1v-2h1v-1h1v-1h1v-1h1v-1h1v-1z" fill="rgb(132,195,178)"/>
<path d="M63 82h2v1h1v1h1v1h1v1h1v1h1v2h-1v1h-1v1h-1v1h-1v1h-1v1h-2v-1h-1v-1h-1v-1h-1v-1
	h-1v-1h-1v-2h1v-1h1v-1h1v-1h1v-1h1v-1z" fill="rgb(132,195,178)"/>
<path d="M79 82h2v1h1v1h1v1h1v1h1v1h1v2h-1v1h-1v1h-1v1h-1v1h-1v1h-2v-1h-1v-1h-1v-1h-1v-1
	h-1v-1h-1v-2h1v-1h1v-1h1v-1h1v-1h1v-1z" fill="rgb(132,195,178)"/>
<path d="M95 82h2v1h1v1h1v1h1v1h1v1h1v2h-1v1h-1v1h-1v1h-1v1h-1v1h-2v-1h-1v-1h-1v-1h-1v-1
	h-1v-1h-1v-2h1v-1h1v-1h1v-1h1v-1h1v-1z" fill="rgb(132,195,178)"/>
<path d="M111 82h2v1h1v1h1v1h1v1h1v1h1v2h-1v1h-1v1h-1v1h-1v1h-1v1h-2v-1h-1v-1h-1v-1h-1
	v-1h-1v-1h-1v-2h1v-1h1v-1h1v-1h1v-1h1v-1z" fill="rgb(132,195,178)"/>
<path d="M127 82h2v1h1v1h1v1h1v1h1v1h1v2h-1v1h-1v1h-1v1h-1v1h-1v1h-2v-1h-1v-1h-1v-1h-1
	v-1h-1v-1h-1v-2h1v-1h1v-1h1v-1h1v-1h1v-1z" fill="rgb(132,195,178)"/>
<path d="M143 82h2v1h1v1h1v1h1v1h1v1h1v2h-1v1h-1v1h-1v1h-1v1h-1v1h-2v-1h-1v-1h-1v-1h-1
	v-1h-1v-1h-1v-2h1v-1h1v-1h1v-1h1v-1h1v-1z" fill="rgb(132,195,178)"/>
<path d="M159 82h2v1h1v1h1v1h1v1h1v1h1v2h-1v1h-1v1h-1v1h-1v1h-1v1h-2v-1h-1v-1h-1v-1h-1
	v-1h-1v-1h-1v-2h1v-1h1v-1h1v-1h1v-1h1v-1z" fill="rgb(132,195,178)"/>
<path d="M175 82h2v1h1v1h1v1h1v1h1v1h1v2h-1v1h-1v1h-1v1h-1v1h-1v1h-2v-1h-1v-1h-1v-1h-1
	v-1h-1v-1h-1v-2h1v-1h1v-1h1v-1h1v-1h1v-1z" fill="rgb(132,195,178)"/>
<path d="M191 82h2v1h1v1h1v1h1v1h1v1h1v2h-1v1h-1v1h-1v1h-1v1h-1v1h-2v-1h-1v-1h-1v-1h-1
	v-1h-1v-1h-1v-2h1v-1h1v-1h1v-1h1v-1h1v-1z" fill="rgb(132,195,178)"/>
<path d="M207 82h2v1h1v1h1v1h1v1h1v1h1v2h-1v1h-1v1h-1v1h-1v1h-1v1h-2v-1h-1v-1h-1v-1h-1
	v-1h-1v-1h-1v-2h1v-1h1v-1h1v-1h1v-1h1v-1z" fill="rgb(132,195,178)"/>
<path d="M223 82h2v1h1v1h1v1h1v1h1v1h1v2h-1v1h-1v1h-1v1h-1v1h-1v1h-2v-1h-1v-1h-1v-1h-1
	v-1h-1v-1h-1v-2h1v-1h1v-1h1v-1h1v-1h1v-1z" fill="rgb(132,195,178)"/>
<path d="M239 82h2v1h1v1h1v1h1v1h1v1h1v2h-1v1h-1v1h-1v1h-1v1h-1v1h-2v-1h-1v-1h-1v-1h-1
	v-1h-1v-1h-1v-2h1v-1h1v-1h1v-1h1v-1h1v-1z" fill="rgb(132,195,178)"/>
<path d="M255 82h2v1h1v1h1v1h1v1h1v1h1v2h-1v1h-1v1h-1v1h-1v1h-1v1h-2v-1h-1v-1h-1v-1h-1
	v-1h-1v-1h-1v-2h1v-1h1v-1h1v-1h1v-1h1v-1z" fill="rgb(132,195,178)"/>
<path d="M271 82h2v1h1v1h1v1h1v1h1v1h1v2h-1v1h-1v1h-1v1h-1v1h-1v1h-2v-1h-1v-1h-1v-1h-1
	v-1h-1v-1h-1v-2h1v-1h1v-1h1v-1h1v-1h1v-1z" fill="rgb(132,195,178)"/>
<path d="M287 82h2v1h1v1h1v1h1v1h1v1h1v2h-1v1h-1v1h-1v1h-1v1h-1v1h-2v-1h-1v-1h-1v-1h-1
	v-1h-1v-1h-1v-2h1v-1h1v-1h1v-1h1v-1h1v-1z" fill="rgb(132,195,178)"/>
<path d="M303 82h2v1h1v1h1v1h1v1h1v1h1v2h-1v1h-1v1h-1v1h-1v1h-1v1h-2v-1h-1v-1h-1v-1h-1
	v-1h-1v-1h-1v-2h1v-1h1v-1h1v-1h1v-1h1v-1z" fill="rgb(132,195,178)"/>
<path d="M319 82h2v1h1v1h1v1h1v1h1v1h1v2h-1v1h-1v1h-1v1h-1v1h-1v1h-2v-1h-1v-1h-1v-1h-1
	v-1h-1v-1h-1v-2h1v-1h1v-1h1v-1h1v-1h1v-1z" fill="rgb(132,195,178)"/>
<path d="M335 82h2v1h1v1h1v1h1v1h1v1h1v2h-1v1h-1v1h-1v1h-1v1h-1v1h-2v-1h-1v-1h-1v-1h-1
	v-1h-1v-1h-1v-2h1v-1h1v-1h1v-1h1v-1h1v-1z" fill="rgb(132,195,178)"/>
<path d="M351 82h2v1h1v1h1v1h1v1h1v1h1v2h-1v1h-1v1h-1v1h-1v1h-1v1h-2v-1h-1v-1h-1v-1h-1
	v-1h-1v-1h-1v-2h1v-1h1v-1h1v-1h1v-1h1v-1z" fill="rgb(132,195,178)"/>
<path d="M367 82h2v1h1v1h1v1h1v1h1v1h1v2h-1v1h-1v1h-1v1h-1v1h-1v1h-2v-1h-1v-1h-1v-1h-1
	v-1h-1v-1h-1v-2h1v-1h1v-1h1v-1h1v-1h1v-1z" fill="rgb(132,195,178)"/>
<path d="M383 82h2v1h1v1h1v1h1v1h1v1h1v2h-1v1h-1v1h-1v1h-1v1h-1v1h-2v-1h-1v-1h-1v-1h-1
	v-1h-1v-1h-1v-2h1v-1h1v-1h1v-1h1v-1h1v-1z" fill="rgb(132,195,178)"/>
<path d="M399 82h1v12h-1v-1h-1v-1h-1v-1h-1v-1h-1v-1h-1v-2h1v-1h1v-1h1v-1h1v-1h1v-1z" fill="rgb(132,195,178)"/>
<path d="M23 90h1v2h-1v1h-1v1h-1v1h-1v1h-2v-1h1v-1h1v-1h1v-1h1v-1h1v-1z" fill="rgb(106,139,167)"/>
<path d="M24 90h1v1h1v1h1v1h1v1h1v1h1v1h-2v-1h-1v-1h-1v-1h-1v-1h-1v-2z" fill="rgb(124,163,196)"/>
<path d="M39 90h2v1h1v1h1v1h1v1h1v1h1v1h-2v-1h-1v-1h-1v-1h-1v-1h-2v1h-1v1h-1v1h-1v1h-2
	v-1h1v-1h1v-1h1v-1h1v-1h1v-1z" fill="rgb(124,163,196)"/>
<path d="M55 90h2v1h1v1h1v1h1v1h1v1h1v1h-2v-1h-1v-1h-1v-1h-1v-1h-2v1h-1v1h-1v1h-1v1h-2
	v-1h1v-1h1v-1h1v-1h1v-1h1v-1z" fill="rgb(124,163,196)"/>
<path d="M71 90h2v1h1v1h1v1h1v1h1v1h1v1h-2v-1h-1v-1h-1v-1h-1v-1h-2v1h-1v1h-1v1h-1v1h-2
	v-1h1v-1h1v-1h1v-1h1v-1h1v-1z" fill="rgb(124,163,196)"/>
<path d="M87 90h2v1h1v1h1v1h1v1h1v1h1v1h-2v-1h-1v-1h-1v-1h-1v-1h-2v1h-1v1h-1v1h-1v1h-2
	v-1h1v-1h1v-1h1v-1h1v-1h1v-1z" fill="rgb(124,163,196)"/>
<path d="M103 90h2v1h1v1h1v1h1v1h1v1h1v1h-2v-1h-1v-1h-1v-1h-1v-1h-2v1h-1v1h-1v1h-1v1h-2
	v-1h1v-1h1v-1h1v-1h1v-1h1v-1z" fill="rgb(124,163,196)"/>
<path d="M119 90h2v1h1v1h1v1h1v1h1v1h1v1h-2v-1h-1v-1h-1v-1h-1v-1h-2v1h-1v1h-1v1h-1v1h-2
	v-1h1v-1h1v-1h1v-1h1v-1h1v-1z" fill="rgb(124,163,196)"/>
<path d="M135 90h2v1h1v1h1v1h1v1h1v1h1v1h-2v-1h-1v-1h-1v-1h-1v-1h-2v1h-1v1h-1v1h-1v1h-2
	v-1h1v-1h1v-1h1v-1h1v-1h1v-1z" fill="rgb(124,163,196)"/>
<path d="M151 90h2v1h1v1h1v1h1v1h1v1h1v1h-2v-1h-1v-1h-1v-1h-1v-1h-2v1h-1v1h-1v1h-1v1h-2
	v-1h1v-1h1v-1h1v-1h1v-1h1v-1z" fill="rgb(124,163,196)"/>
<path d="M167 90h2v1h1v1h1v1h1v1h1v1h1v1h-2v-1h-1v-1h-1v-1h-1v-1h-2v1h-1v1h-1v1h-1v1h-2
	v-1h1v-1h1v-1h1v-1h1v-1h1v-1z" fill="rgb(124,163,196)"/>
<path d="M183 90h2v1h1v1h1v1h1v1h1v1h1v1h-2v-1h-1v-1h-1v-1h-1v-1h-2v1h-1v1h-1v1h-1v1h-2
	v-1h1v-1h1v-1h1v-1h1v-1h1v-1z" fill="rgb(124,163,196)"/>
<path d="M199 90h2v1h1v1h1v1h1v1h1v1h1v1h-2v-1h-1v-1h-1v-1h-1v-1h-2v1h-1v1h-1v1h-1v1h-2
	v-1h1v-1h1v-1h1v-1h1v-1h1v-1z" fill="rgb(124,163,196)"/>
<path d="M215 90h2v1h1v1h1v1h1v1h1v1h1v1h-2v-1h-1v-1h-1v-1h-1v-1h-2v1h-1v1h-1v1h-1v1h-2
	v-1h1v-1h1v-1h1v-1h1v-1h1v-1z" fill="rgb(124,163,196)"/>
<path d="M231 90h2v1h1v1h1v1h1v1h1v1h1v1h-2v-1h-1v-1h-1v-1h-1v-1h-2v1h-1v1h-1v1h-1v1h-2
	v-1h1v-1h1v-1h1v-1h1v-1h1v-1z" fill="rgb(124,163,196)"/>
<path d="M247 90h2v1h1v1h1v1h1v1h1v1h1v1h-2v-1h-1v-1h-1v-1h-1v-1h-2v1h-1v1h-1v1h-1v1h-2
	v-1h1v-1h1v-1h1v-1h1v-1h1v-1z" fill="rgb(124,163,196)"/>
<path d="M263 90h2v1h1v1h1v1h1v1h1v1h1v1h-2v-1h-1v-1h-1v-1h-1v-1h-2v1h-1v1h-1v1h-1v1h-2
	v-1h1v-1h1v-1h1v-1h1v-1h1v-1z" fill="rgb(124,163,196)"/>
<path d="M279 90h2v1h1v1h1v1h1v1h1v1h1v1h-2v-1h-1v-1h-1v-1h-1v-1h-2v1h-1v1h-1v1h-1v1h-2
	v-1h1v-1h1v-1h1v-1h1v-1h1v-1z" fill="rgb(124,163,196)"/>
<path d="M295 90h2v1h1v1h1v1h1v1h1v1h1v1h-2v-1h-1v-1h-1v-1h-1v-1h-2v1h-1v1h-1v1h-1v1h-2
	v-1h1v-1h1v-1h1v-1h1v-1h1v-1z" fill="rgb(124,163,196)"/>
<path d="M311 90h2v1h1v1h1v1h1v1h1v1h1v1h-2v-1h-1v-1h-1v-1h-1v-1h-2v1h-1v1h-1v1h-1v1h-2
	v-1h1v-1h1v-1h1v-1h1v-1h1v-1z" fill="rgb(124,163,196)"/>
<path d="M327 90h2v1h1v1h1v1h1v1h1v1h1v1h-2v-1h-1v-1h-1v-1h-1v-1h-2v1h-1v1h-1v1h-1v1h-2
	v-1h1v-1h1v-1h1v-1h1v-1h1v-1z" fill="rgb(124,163,196)"/>
<path d="M343 90h2v1h1v1h1v1h1v1h1v1h1v1h-2v-1h-1v-1h-1v-1h-1v-1h-2v1h-1v1h-1v1h-1v1h-2
	v-1h1v-1h1v-1h1v-1h1v-1h1v-1z" fill="rgb(124,163,196)"/>
<path d="M359 90h2v1h1v1h1v1h1v1h1v1h1v1h-2v-1h-1v-1h-1v-1h-1v-1h-2v1h-1v1h-1v1h-1v1h-2
	v-1h1v-1h1v-1h1v-1h1v-1h1v-1z" fill="rgb(124,163,196)"/>
<path d="M375 90h2v1h1v1h1v1h1v1h1v1h1v1h-2v-1h-1v-1h-1v-1h-1v-1h-2v1h-1v1h-1v1h-1v1h-2
	v-1h1v-1h1v-1h1v-1h1v-1h1v-1z" fill="rgb(124,163,196)"/>
<path d="M391 90h2v1h1v1h1v1h1v1h1v1h1v1h-2v-1h-1v-1h-1v-1h-1v-1h-2v1h-1v1h-1v1h-1v1h-2
	v-1h1v-1h1v-1h1v-1h1v-1h1v-1z" fill="rgb(124,163,196)"/>
<path d="M23 92h1v4h-4v-1h1v-1h1v-1h1v-1z" fill="rgb(117,155,186)"/>
<path d="M24 92h1v1h1v1h1v1h1v1h-4v-4z" fill="rgb(138,182,219)"/>
<path d="M39 92h2v1h1v1h1v1h1v1h-8v-1h1v-1h1v-1h1v-1z" fill="rgb(138,182,219)"/>
<path d="M55 92h2v1h1v1h1v1h1v1h-8v-1h1v-1h1v-1h1v-1z" fill="rgb(138,182,219)"/>
<path d="M71 92h2v1h1v1h1v1h1v1h-8v-1h1v-1h1v-1h1v-1z" fill="rgb(138,182,219)"/>
<path d="M87 92h2v1h1v1h1v1h1v1h-8v-1h1v-1h1v-1h1v-1z" fill="rgb(138,182,219)"/>
<path d="M103 92h2v1h1v1h1v1h1v1h-8v-1h1v-1h1v-1h1v-1z" fill="rgb(138,182,219)"/>
<path d="M119 92h2v1h1v1h1v1h1v1h-8v-1h1v-1h1v-1h1v-1z" fill="rgb(138,182,219)"/>
<path d="M135 92h2v1h1v1h1v1h1v1h-8v-1h1v-1h1v-1h1v-1z" fill="rgb(138,182,219)"/>
<path d="M151 92h2v1h1v1h1v1h1v1h-8v-1h1v-1h1v-1h1v-1z" fill="rgb(138,182,219)"/>
<path d="M167 92h2v1h1v1h1v1h1v1h-8v-1h1v-1h1v-1h1v-1z" fill="rgb(138,182,219)"/>
<path d="M183 92h2v1h1v1h1v1h1v1h-8v-1h1v-1h1v-1h1v-1z" fill="rgb(138,182,219)"/>
<path d="M199 92h2v1h1v1h1v1h1v1h-8v-1h1v-1h1v-1h1v-1z" fill="rgb(138,182,219)"/>
<path d="M215 92h2v1h1v1h1v1h1v1h-8v-1h1v-1h1v-1h1v-1z" fill="rgb(138,182,219)"/>
<path d="M231 92h2v1h1v1h1v1h1v1h-8v-1h1v-1h1v-1h1v-1z" fill="rgb(138,182,219)"/>
<path d="M247 92h2v1h1v1h1v1h1v1h-8v-1h1v-1h1v-1h1v-1z" fill="rgb(138,182,219)"/>
<path d="M263 92h2v1h1v1h1v1h1v1h-8v-1h1v-1h1v-1h1v-1z" fill="rgb(138,182,219)"/>
<path d="M279 92h2v1h1v1h1v1h1v1h-8v-1h1v-1h1v-1h1v-1z" fill="rgb(138,182,219)"/>
<path d="M295 92h2v1h1v1h1v1h1v1h-8v-1h1v-1h1v-1h1v-1z" fill="rgb(138,182,219)"/>
<path d="M311 92h2v1h1v1h1v1h1v1h-8v-1h1v-1h1v-1h1v-1z" fill="rgb(138,182,219)"/>
<path d="M327 92h2v1h1v1h1v1h1v1h-8v-1h1v-1h1v-1h1v-1z" fill="rgb(138,182,219)"/>
<path d="M343 92h2v1h1v1h1v1h1v1h-8v-1h1v-1h1v-1h1v-1z" fill="rgb(138,182,219)"/>
<path d="M359 92h2v1h1v1h1v1h1v1h-8v-1h1v-1h1v-1h1v-1z" fill="rgb(138,182,219)"/>
<path d="M375 92h2v1h1v1h1v1h1v1h-8v-1h1v-1h1v-1h1v-1z" fill="rgb(138,182,219)"/>
<path d="M391 92h2v1h1v1h1v1h1v1h-8v-1h1v-1h1v-1h1v-1z" fill="rgb(138,182,219)"/>
</svg>
