<?xml version="1.0" encoding="utf-8"?>
<!-- generated at drububu.com  -->
<!DOCTYPE svg PUBLIC "-//W3C//DTD SVG 1.1//EN" "http://www.w3.org/Graphics/SVG/1.1/DTD/svg11.dtd">
<svg version="1.1" preserveAspectRatio="xMinYMin meet" xmlns="http://www.w3.org/2000/svg" xmlns:xlink="http://www.w3.org/1999/xlink" x="0px" y="0px" width="96px" height="80px" viewBox="0 0 96 80">
<path d="M0 0h96v80h-9v-72h-78v72h-9v-80z" fill="rgb(0,0,0)"/>
<path d="M9 8h78v72h-1v-71h-76v71h-1v-72z" fill="rgb(105,105,105)"/>
<path d="M10 9h76v71h-5v-68h-66v68h-5v-71z" fill="rgb(255,255,255)"/>
<path d="M15 12h66v4h-1v-3h-64v3h-1v-4z" fill="rgb(181,181,181)"/>
<path d="M16 13h64v3h-64v-3z" fill="rgb(238,238,238)"/>
<path d="M15 16h66v64h-1v-63h-64v63h-1v-64z" fill="rgb(130,130,130)"/>
<path d="M16 17h1v1h-1v-1z" fill="rgb(139,92,46)"/>
<path d="M17 17h2v1h-2v-1z" fill="rgb(113,75,37)"/>
<path d="M19 17h2v1h-2v-1z" fill="rgb(139,92,46)"/>
<path d="M21 17h2v1h-2v-1z" fill="rgb(113,75,37)"/>
<path d="M23 17h2v1h-2v-1z" fill="rgb(139,92,46)"/>
<path d="M25 17h2v1h-2v-1z" fill="rgb(113,75,37)"/>
<path d="M27 17h2v1h-2v-1z" fill="rgb(139,92,46)"/>
<path d="M29 17h2v1h-2v-1z" fill="rgb(113,75,37)"/>
<path d="M31 17h2v1h-2v-1z" fill="rgb(139,92,46)"/>
<path d="M33 17h2v1h-2v-1z" fill="rgb(113,75,37)"/>
<path d="M35 17h2v1h-2v-1z" fill="rgb(139,92,46)"/>
<path d="M37 17h2v1h-2v-1z" fill="rgb(113,75,37)"/>
<path d="M39 17h2v1h-2v-1z" fill="rgb(139,92,46)"/>
<path d="M41 17h2v1h-2v-1z" fill="rgb(113,75,37)"/>
<path d="M43 17h2v1h-2v-1z" fill="rgb(139,92,46)"/>
<path d="M45 17h2v1h-2v-1z" fill="rgb(113,75,37)"/>
<path d="M47 17h2v1h-2v-1z" fill="rgb(139,92,46)"/>
<path d="M49 17h2v1h-2v-1z" fill="rgb(113,75,37)"/>
<path d="M51 17h2v1h-2v-1z" fill="rgb(139,92,46)"/>
<path d="M53 17h2v1h-2v-1z" fill="rgb(113,75,37)"/>
<path d="M55 17h2v1h-2v-1z" fill="rgb(139,92,46)"/>
<path d="M57 17h2v1h-2v-1z" fill="rgb(113,75,37)"/>
<path d="M59 17h2v1h-2v-1z" fill="rgb(139,92,46)"/>
<path d="M61 17h2v1h-2v-1z" fill="rgb(113,75,37)"/>
<path d="M63 17h2v1h-2v-1z" fill="rgb(139,92,46)"/>
<path d="M65 17h2v1h-2v-1z" fill="rgb(113,75,37)"/>
<path d="M67 17h2v1h-2v-1z" fill="rgb(139,92,46)"/>
<path d="M69 17h2v1h-2v-1z" fill="rgb(113,75,37)"/>
<path d="M71 17h2v1h-2v-1z" fill="rgb(139,92,46)"/>
<path d="M73 17h2v1h-2v-1z" fill="rgb(113,75,37)"/>
<path d="M75 17h2v1h-2v-1z" fill="rgb(139,92,46)"/>
<path d="M77 17h2v1h-2v-1z" fill="rgb(113,75,37)"/>
<path d="M79 17h1v1h-1v-1z" fill="rgb(139,92,46)"/>
<path d="M16 18h1v18h-1v-18z" fill="rgb(163,108,54)"/>
<path d="M17 18h2v18h-2v-18z" fill="rgb(133,88,44)"/>
<path d="M19 18h2v18h-2v-18z" fill="rgb(163,108,54)"/>
<path d="M21 18h2v5h-1v1h-1v-6z" fill="rgb(133,88,44)"/>
<path d="M23 18h2v5h-2v-5z" fill="rgb(163,108,54)"/>
<path d="M25 18h2v6h-1v-1h-1v-5z" fill="rgb(133,88,44)"/>
<path d="M27 18h2v18h-2v-18z" fill="rgb(163,108,54)"/>
<path d="M29 18h2v18h-2v-18z" fill="rgb(133,88,44)"/>
<path d="M31 18h2v18h-2v-18z" fill="rgb(163,108,54)"/>
<path d="M33 18h2v18h-2v-18z" fill="rgb(133,88,44)"/>
<path d="M35 18h2v18h-2v-18z" fill="rgb(163,108,54)"/>
<path d="M37 18h2v18h-2v-18z" fill="rgb(133,88,44)"/>
<path d="M39 18h2v18h-2v-18z" fill="rgb(163,108,54)"/>
<path d="M41 18h2v18h-2v-18z" fill="rgb(133,88,44)"/>
<path d="M43 18h2v18h-2v-18z" fill="rgb(163,108,54)"/>
<path d="M45 18h2v18h-2v-18z" fill="rgb(133,88,44)"/>
<path d="M47 18h2v18h-2v-18z" fill="rgb(163,108,54)"/>
<path d="M49 18h2v18h-2v-18z" fill="rgb(133,88,44)"/>
<path d="M51 18h2v18h-2v-18z" fill="rgb(163,108,54)"/>
<path d="M53 18h2v18h-2v-18z" fill="rgb(133,88,44)"/>
<path d="M55 18h2v18h-2v-18z" fill="rgb(163,108,54)"/>
<path d="M57 18h2v18h-2v-18z" fill="rgb(133,88,44)"/>
<path d="M59 18h2v18h-2v-18z" fill="rgb(163,108,54)"/>
<path d="M61 18h2v18h-2v-18z" fill="rgb(133,88,44)"/>
<path d="M63 18h2v18h-2v-18z" fill="rgb(163,108,54)"/>
<path d="M65 18h2v18h-2v-18z" fill="rgb(133,88,44)"/>
<path d="M67 18h2v18h-2v-18z" fill="rgb(163,108,54)"/>
<path d="M69 18h2v18h-2v-18z" fill="rgb(133,88,44)"/>
<path d="M71 18h2v18h-2v-18z" fill="rgb(163,108,54)"/>
<path d="M73 18h2v18h-2v-18z" fill="rgb(133,88,44)"/>
<path d="M75 18h2v18h-2v-18z" fill="rgb(163,108,54)"/>
<path d="M77 18h2v18h-2v-18z" fill="rgb(133,88,44)"/>
<path d="M79 18h1v18h-1v-18z" fill="rgb(163,108,54)"/>
<path d="M22 23h4v1h-4v-1z" fill="rgb(77,77,77)"/>
<path d="M21 24h1v10h-1v-10z" fill="rgb(77,77,77)"/>
<path d="M22 24h4v10h-4v-10z" fill="rgb(153,153,153)"/>
<path d="M26 24h1v10h-1v-10z" fill="rgb(77,77,77)"/>
<path d="M23 25h1v1h-1v-1z" fill="rgb(248,248,248)"/>
<path d="M24 25h1v2h-2v-1h1v-1z" fill="rgb(216,216,216)"/>
<path d="M23 28h1v1h-1v-1z" fill="rgb(248,248,248)"/>
<path d="M24 28h1v2h-2v-1h1v-1z" fill="rgb(216,216,216)"/>
<path d="M23 31h1v1h-1v-1z" fill="rgb(248,248,248)"/>
<path d="M24 31h1v2h-2v-1h1v-1z" fill="rgb(216,216,216)"/>
<path d="M21 34h1v1h1v1h-2v-2z" fill="rgb(133,88,44)"/>
<path d="M22 34h4v1h-4v-1z" fill="rgb(77,77,77)"/>
<path d="M26 34h1v2h-2v-1h1v-1z" fill="rgb(133,88,44)"/>
<path d="M23 35h2v1h-2v-1z" fill="rgb(163,108,54)"/>
<path d="M16 36h1v1h-1v-1z" fill="rgb(139,92,46)"/>
<path d="M17 36h2v1h-2v-1z" fill="rgb(113,75,37)"/>
<path d="M19 36h2v1h-2v-1z" fill="rgb(139,92,46)"/>
<path d="M21 36h2v1h-2v-1z" fill="rgb(113,75,37)"/>
<path d="M23 36h2v1h-2v-1z" fill="rgb(139,92,46)"/>
<path d="M25 36h2v1h-2v-1z" fill="rgb(113,75,37)"/>
<path d="M27 36h2v1h-2v-1z" fill="rgb(139,92,46)"/>
<path d="M29 36h2v1h-2v-1z" fill="rgb(113,75,37)"/>
<path d="M31 36h2v1h-2v-1z" fill="rgb(139,92,46)"/>
<path d="M33 36h2v1h-2v-1z" fill="rgb(113,75,37)"/>
<path d="M35 36h2v1h-2v-1z" fill="rgb(139,92,46)"/>
<path d="M37 36h2v1h-2v-1z" fill="rgb(113,75,37)"/>
<path d="M39 36h2v1h-2v-1z" fill="rgb(139,92,46)"/>
<path d="M41 36h2v1h-2v-1z" fill="rgb(113,75,37)"/>
<path d="M43 36h2v1h-2v-1z" fill="rgb(139,92,46)"/>
<path d="M45 36h2v1h-2v-1z" fill="rgb(113,75,37)"/>
<path d="M47 36h2v1h-2v-1z" fill="rgb(139,92,46)"/>
<path d="M49 36h2v1h-2v-1z" fill="rgb(113,75,37)"/>
<path d="M51 36h2v1h-2v-1z" fill="rgb(139,92,46)"/>
<path d="M53 36h2v1h-2v-1z" fill="rgb(113,75,37)"/>
<path d="M55 36h2v1h-2v-1z" fill="rgb(139,92,46)"/>
<path d="M57 36h2v1h-2v-1z" fill="rgb(113,75,37)"/>
<path d="M59 36h2v1h-2v-1z" fill="rgb(139,92,46)"/>
<path d="M61 36h2v1h-2v-1z" fill="rgb(113,75,37)"/>
<path d="M63 36h2v1h-2v-1z" fill="rgb(139,92,46)"/>
<path d="M65 36h2v1h-2v-1z" fill="rgb(113,75,37)"/>
<path d="M67 36h2v1h-2v-1z" fill="rgb(139,92,46)"/>
<path d="M69 36h2v1h-2v-1z" fill="rgb(113,75,37)"/>
<path d="M71 36h2v1h-2v-1z" fill="rgb(139,92,46)"/>
<path d="M73 36h2v1h-2v-1z" fill="rgb(113,75,37)"/>
<path d="M75 36h2v1h-2v-1z" fill="rgb(139,92,46)"/>
<path d="M77 36h2v1h-2v-1z" fill="rgb(113,75,37)"/>
<path d="M79 36h1v1h-1v-1z" fill="rgb(139,92,46)"/>
<path d="M16 37h2v1h-1v1h-1v-2z" fill="rgb(198,198,198)"/>
<path d="M18 37h1v1h-1v-1z" fill="rgb(216,216,216)"/>
<path d="M19 37h3v1h-1v1h-1v1h-1v1h-1v1h-1v1h-1v-3h1v-1h1v-1h1v-1z" fill="rgb(198,198,198)"/>
<path d="M22 37h3v1h-1v1h-1v1h-1v1h-1v1h-1v1h-3v-1h1v-1h1v-1h1v-1h1v-1h1v-1z" fill="rgb(216,216,216)"/>
<path d="M25 37h9v1h-1v1h-1v1h-1v1h-1v1h-1v1h-9v-1h1v-1h1v-1h1v-1h1v-1h1v-1z" fill="rgb(198,198,198)"/>
<path d="M34 37h1v1h-1v-1z" fill="rgb(216,216,216)"/>
<path d="M35 37h3v1h-1v1h-1v1h-1v1h-1v1h-1v1h-3v-1h1v-1h1v-1h1v-1h1v-1h1v-1z" fill="rgb(198,198,198)"/>
<path d="M38 37h3v1h-1v1h-1v1h-1v1h-1v1h-1v1h-3v-1h1v-1h1v-1h1v-1h1v-1h1v-1z" fill="rgb(216,216,216)"/>
<path d="M41 37h9v1h-1v1h-1v1h-1v1h-1v1h-1v1h-9v-1h1v-1h1v-1h1v-1h1v-1h1v-1z" fill="rgb(198,198,198)"/>
<path d="M50 37h1v1h-1v-1z" fill="rgb(216,216,216)"/>
<path d="M51 37h3v1h-1v1h-1v1h-1v1h-1v1h-1v1h-3v-1h1v-1h1v-1h1v-1h1v-1h1v-1z" fill="rgb(198,198,198)"/>
<path d="M54 37h3v1h-1v1h-1v1h-1v1h-1v1h-1v1h-3v-1h1v-1h1v-1h1v-1h1v-1h1v-1z" fill="rgb(216,216,216)"/>
<path d="M57 37h9v1h-1v1h-1v1h-1v1h-1v1h-1v1h-9v-1h1v-1h1v-1h1v-1h1v-1h1v-1z" fill="rgb(198,198,198)"/>
<path d="M66 37h1v1h-1v-1z" fill="rgb(216,216,216)"/>
<path d="M67 37h3v1h-1v1h-1v1h-1v1h-1v1h-1v1h-3v-1h1v-1h1v-1h1v-1h1v-1h1v-1z" fill="rgb(198,198,198)"/>
<path d="M70 37h3v1h-1v1h-1v1h-1v1h-1v1h-1v1h-3v-1h1v-1h1v-1h1v-1h1v-1h1v-1z" fill="rgb(216,216,216)"/>
<path d="M73 37h7v3h-1v1h-1v1h-1v1h-9v-1h1v-1h1v-1h1v-1h1v-1h1v-1z" fill="rgb(198,198,198)"/>
<path d="M17 38h1v1h-1v-1z" fill="rgb(216,216,216)"/>
<path d="M33 38h1v1h-1v-1z" fill="rgb(216,216,216)"/>
<path d="M49 38h1v1h-1v-1z" fill="rgb(216,216,216)"/>
<path d="M65 38h1v1h-1v-1z" fill="rgb(216,216,216)"/>
<path d="M16 39h1v1h-1v-1z" fill="rgb(216,216,216)"/>
<path d="M32 39h1v1h-1v-1z" fill="rgb(216,216,216)"/>
<path d="M48 39h1v1h-1v-1z" fill="rgb(216,216,216)"/>
<path d="M64 39h1v1h-1v-1z" fill="rgb(216,216,216)"/>
<path d="M31 40h1v1h-1v-1z" fill="rgb(216,216,216)"/>
<path d="M47 40h1v1h-1v-1z" fill="rgb(216,216,216)"/>
<path d="M63 40h1v1h-1v-1z" fill="rgb(216,216,216)"/>
<path d="M79 40h1v1h-1v-1z" fill="rgb(216,216,216)"/>
<path d="M30 41h1v1h-1v-1z" fill="rgb(216,216,216)"/>
<path d="M46 41h1v1h-1v-1z" fill="rgb(216,216,216)"/>
<path d="M62 41h1v1h-1v-1z" fill="rgb(216,216,216)"/>
<path d="M78 41h1v1h-1v-1z" fill="rgb(216,216,216)"/>
<path d="M79 41h1v2h-2v-1h1v-1z" fill="rgb(198,198,198)"/>
<path d="M29 42h1v1h-1v-1z" fill="rgb(216,216,216)"/>
<path d="M45 42h1v1h-1v-1z" fill="rgb(216,216,216)"/>
<path d="M61 42h1v1h-1v-1z" fill="rgb(216,216,216)"/>
<path d="M77 42h1v1h-1v-1z" fill="rgb(216,216,216)"/>
<path d="M16 43h1v1h-1v-1z" fill="rgb(113,75,37)"/>
<path d="M17 43h2v1h-2v-1z" fill="rgb(89,60,30)"/>
<path d="M19 43h2v1h-2v-1z" fill="rgb(113,75,37)"/>
<path d="M21 43h2v1h-2v-1z" fill="rgb(89,60,30)"/>
<path d="M23 43h2v1h-2v-1z" fill="rgb(113,75,37)"/>
<path d="M25 43h2v1h-2v-1z" fill="rgb(89,60,30)"/>
<path d="M27 43h2v1h-2v-1z" fill="rgb(113,75,37)"/>
<path d="M29 43h2v1h-2v-1z" fill="rgb(89,60,30)"/>
<path d="M31 43h2v1h-2v-1z" fill="rgb(113,75,37)"/>
<path d="M33 43h2v1h-2v-1z" fill="rgb(89,60,30)"/>
<path d="M35 43h2v1h-2v-1z" fill="rgb(113,75,37)"/>
<path d="M37 43h2v1h-2v-1z" fill="rgb(89,60,30)"/>
<path d="M39 43h2v1h-2v-1z" fill="rgb(113,75,37)"/>
<path d="M41 43h2v1h-2v-1z" fill="rgb(89,60,30)"/>
<path d="M43 43h2v1h-2v-1z" fill="rgb(113,75,37)"/>
<path d="M45 43h2v1h-2v-1z" fill="rgb(89,60,30)"/>
<path d="M47 43h2v1h-2v-1z" fill="rgb(113,75,37)"/>
<path d="M49 43h2v1h-2v-1z" fill="rgb(89,60,30)"/>
<path d="M51 43h2v1h-2v-1z" fill="rgb(113,75,37)"/>
<path d="M53 43h2v1h-2v-1z" fill="rgb(89,60,30)"/>
<path d="M55 43h2v1h-2v-1z" fill="rgb(113,75,37)"/>
<path d="M57 43h2v1h-2v-1z" fill="rgb(89,60,30)"/>
<path d="M59 43h2v1h-2v-1z" fill="rgb(113,75,37)"/>
<path d="M61 43h2v1h-2v-1z" fill="rgb(89,60,30)"/>
<path d="M63 43h2v1h-2v-1z" fill="rgb(113,75,37)"/>
<path d="M65 43h2v1h-2v-1z" fill="rgb(89,60,30)"/>
<path d="M67 43h2v1h-2v-1z" fill="rgb(113,75,37)"/>
<path d="M69 43h2v1h-2v-1z" fill="rgb(89,60,30)"/>
<path d="M71 43h2v1h-2v-1z" fill="rgb(113,75,37)"/>
<path d="M73 43h2v1h-2v-1z" fill="rgb(89,60,30)"/>
<path d="M75 43h2v1h-2v-1z" fill="rgb(113,75,37)"/>
<path d="M77 43h2v1h-2v-1z" fill="rgb(89,60,30)"/>
<path d="M79 43h1v1h-1v-1z" fill="rgb(113,75,37)"/>
<path d="M16 44h1v4h-1v-4z" fill="rgb(133,88,44)"/>
<path d="M17 44h2v4h-2v-4z" fill="rgb(105,70,35)"/>
<path d="M19 44h2v4h-2v-4z" fill="rgb(133,88,44)"/>
<path d="M21 44h2v4h-2v-4z" fill="rgb(105,70,35)"/>
<path d="M23 44h2v4h-2v-4z" fill="rgb(133,88,44)"/>
<path d="M25 44h2v4h-2v-4z" fill="rgb(105,70,35)"/>
<path d="M27 44h2v4h-2v-4z" fill="rgb(133,88,44)"/>
<path d="M29 44h2v4h-2v-4z" fill="rgb(105,70,35)"/>
<path d="M31 44h2v4h-2v-4z" fill="rgb(133,88,44)"/>
<path d="M33 44h2v4h-2v-4z" fill="rgb(105,70,35)"/>
<path d="M35 44h2v4h-2v-4z" fill="rgb(133,88,44)"/>
<path d="M37 44h2v4h-2v-4z" fill="rgb(105,70,35)"/>
<path d="M39 44h2v4h-2v-4z" fill="rgb(133,88,44)"/>
<path d="M41 44h2v4h-2v-4z" fill="rgb(105,70,35)"/>
<path d="M43 44h2v4h-2v-4z" fill="rgb(133,88,44)"/>
<path d="M45 44h2v4h-2v-4z" fill="rgb(105,70,35)"/>
<path d="M47 44h2v4h-2v-4z" fill="rgb(133,88,44)"/>
<path d="M49 44h2v4h-2v-4z" fill="rgb(105,70,35)"/>
<path d="M51 44h2v4h-2v-4z" fill="rgb(133,88,44)"/>
<path d="M53 44h2v4h-2v-4z" fill="rgb(105,70,35)"/>
<path d="M55 44h2v4h-2v-4z" fill="rgb(133,88,44)"/>
<path d="M57 44h2v4h-2v-4z" fill="rgb(105,70,35)"/>
<path d="M59 44h2v4h-2v-4z" fill="rgb(133,88,44)"/>
<path d="M61 44h2v4h-2v-4z" fill="rgb(105,70,35)"/>
<path d="M63 44h2v4h-2v-4z" fill="rgb(133,88,44)"/>
<path d="M65 44h2v4h-2v-4z" fill="rgb(105,70,35)"/>
<path d="M67 44h2v4h-2v-4z" fill="rgb(133,88,44)"/>
<path d="M69 44h2v4h-2v-4z" fill="rgb(105,70,35)"/>
<path d="M71 44h2v4h-2v-4z" fill="rgb(133,88,44)"/>
<path d="M73 44h2v4h-2v-4z" fill="rgb(105,70,35)"/>
<path d="M75 44h2v4h-2v-4z" fill="rgb(133,88,44)"/>
<path d="M77 44h2v4h-2v-4z" fill="rgb(105,70,35)"/>
<path d="M79 44h1v4h-1v-4z" fill="rgb(133,88,44)"/>
<path d="M16 48h64v8h-1v-6h-1v-1h-60v1h-1v28h1v1h6v1h-8v-32z" fill="rgb(146,133,119)"/>
<path d="M18 49h60v1h-60v-1z" fill="rgb(70,106,95)"/>
<path d="M17 50h1v28h-1v-28z" fill="rgb(70,106,95)"/>
<path d="M18 50h60v6h-2v-4h-56v24h4v2h-6v-28z" fill="rgb(112,166,151)"/>
<path d="M78 50h1v6h-1v-6z" fill="rgb(70,106,95)"/>
<path d="M20 52h56v4h-2v-2h-52v20h2v2h-4v-24z" fill="rgb(146,180,171)"/>
<path d="M22 54h52v2h-50v18h-2v-20z" fill="rgb(112,166,151)"/>
<path d="M24 56h50v18h-13v-1h-2v-1h-2v-1h-18v1h-2v1h-2v1h-11v-18z" fill="rgb(132,195,178)"/>
<path d="M74 56h2v20h-13v-1h-1v-1h12v-18z" fill="rgb(171,212,201)"/>
<path d="M76 56h2v22h-14v-1h-1v-1h13v-20z" fill="rgb(132,195,178)"/>
<path d="M78 56h1v22h-1v-22z" fill="rgb(82,125,112)"/>
<path d="M79 56h1v24h-16v-1h14v-1h1v-22z" fill="rgb(172,156,140)"/>
<path d="M39 71h18v1h2v1h2v1h-26v-1h2v-1h2v-1z" fill="rgb(106,156,142)"/>
<path d="M24 74h10v1h-1v1h-9v-2z" fill="rgb(171,212,201)"/>
<path d="M34 74h28v1h1v1h-30v-1h1v-1z" fill="rgb(103,127,121)"/>
<path d="M24 76h9v1h-1v1h-8v-2z" fill="rgb(132,195,178)"/>
<path d="M33 76h30v1h1v1h-32v-1h1v-1z" fill="rgb(66,97,89)"/>
<path d="M18 78h6v1h-6v-1z" fill="rgb(70,106,95)"/>
<path d="M24 78h8v1h-8v-1z" fill="rgb(82,125,112)"/>
<path d="M32 78h32v1h-32v-1z" fill="rgb(16,25,22)"/>
<path d="M64 78h14v1h-14v-1z" fill="rgb(82,125,112)"/>
<path d="M24 79h8v1h-8v-1z" fill="rgb(172,156,140)"/>
<path d="M32 79h32v1h-32v-1z" fill="rgb(27,18,9)"/>
</svg>
