<?xml version="1.0" encoding="utf-8"?>
<!-- generated at drububu.com  -->
<!DOCTYPE svg PUBLIC "-//W3C//DTD SVG 1.1//EN" "http://www.w3.org/Graphics/SVG/1.1/DTD/svg11.dtd">
<svg version="1.1" preserveAspectRatio="xMinYMin meet" xmlns="http://www.w3.org/2000/svg" xmlns:xlink="http://www.w3.org/1999/xlink" x="0px" y="0px" width="416px" height="112px" viewBox="0 0 416 112">
<path d="M0 0h416v112h-9v-104h-398v104h-9v-112z" fill="rgb(0,0,0)"/>
<path d="M9 8h398v104h-1v-103h-396v103h-1v-104z" fill="rgb(105,105,105)"/>
<path d="M10 9h396v103h-5v-100h-386v100h-5v-103z" fill="rgb(255,255,255)"/>
<path d="M15 12h386v4h-1v-3h-384v3h-1v-4z" fill="rgb(181,181,181)"/>
<path d="M16 13h384v3h-384v-3z" fill="rgb(238,238,238)"/>
<path d="M15 16h386v96h-1v-95h-384v95h-1v-96z" fill="rgb(130,130,130)"/>
<path d="M16 17h384v1h-384v-1z" fill="rgb(132,147,163)"/>
<path d="M16 18h384v21h-14v-10h-1v-1h-3v-1h-1v-1h-1v-1h-2v1h-1v1h-1v1h-3v11h-1v-16h-1v-1
	h-22v1h-1v16h-58v-10h-1v-1h-3v-1h-1v-1h-1v-1h-2v1h-1v1h-1v1h-3v11h-1v-16h-1v-1
	h-22v1h-1v16h-58v-10h-1v-1h-3v-1h-1v-1h-1v-1h-2v1h-1v1h-1v1h-3v11h-1v-16h-1v-1
	h-22v1h-1v16h-71v-17h-42v17h-27v-21z" fill="rgb(155,173,192)"/>
<path d="M43 22h42v26h-5v-21h1v20h3v-24h-40v24h3v-20h1v21h-5v-26z" fill="rgb(71,71,71)"/>
<path d="M157 22h22v1h-22v-1z" fill="rgb(72,83,102)"/>
<path d="M253 22h22v1h-22v-1z" fill="rgb(72,83,102)"/>
<path d="M349 22h22v1h-22v-1z" fill="rgb(72,83,102)"/>
<path d="M44 23h40v1h-40v-1z" fill="rgb(216,216,216)"/>
<path d="M156 23h1v22h-1v-22z" fill="rgb(72,83,102)"/>
<path d="M157 23h22v1h-22v-1z" fill="rgb(208,224,240)"/>
<path d="M179 23h1v22h-1v-22z" fill="rgb(72,83,102)"/>
<path d="M252 23h1v22h-1v-22z" fill="rgb(72,83,102)"/>
<path d="M253 23h22v1h-22v-1z" fill="rgb(208,224,240)"/>
<path d="M275 23h1v22h-1v-22z" fill="rgb(72,83,102)"/>
<path d="M348 23h1v22h-1v-22z" fill="rgb(72,83,102)"/>
<path d="M349 23h22v1h-22v-1z" fill="rgb(208,224,240)"/>
<path d="M371 23h1v22h-1v-22z" fill="rgb(72,83,102)"/>
<path d="M44 24h40v1h-40v-1z" fill="rgb(129,129,129)"/>
<path d="M157 24h22v1h-22v-1z" fill="rgb(104,137,165)"/>
<path d="M253 24h22v1h-22v-1z" fill="rgb(104,137,165)"/>
<path d="M349 24h22v1h-22v-1z" fill="rgb(104,137,165)"/>
<path d="M44 25h12v1h-9v8h-3v-9z" fill="rgb(160,160,160)"/>
<path d="M56 25h1v1h-1v-1z" fill="rgb(216,216,216)"/>
<path d="M57 25h4v1h-4v-1z" fill="rgb(160,160,160)"/>
<path d="M61 25h1v1h-1v-1z" fill="rgb(216,216,216)"/>
<path d="M62 25h4v1h-4v-1z" fill="rgb(160,160,160)"/>
<path d="M66 25h1v1h-1v-1z" fill="rgb(153,242,143)"/>
<path d="M67 25h4v1h-4v-1z" fill="rgb(160,160,160)"/>
<path d="M71 25h1v1h-1v-1z" fill="rgb(216,216,216)"/>
<path d="M72 25h12v17h-3v-16h-9v-1z" fill="rgb(160,160,160)"/>
<path d="M157 25h22v15h-3v-14h-16v14h-3v-15z" fill="rgb(155,173,192)"/>
<path d="M186 25h2v1h-2v-1z" fill="rgb(60,68,66)"/>
<path d="M253 25h22v15h-3v-14h-16v14h-3v-15z" fill="rgb(155,173,192)"/>
<path d="M282 25h2v1h-2v-1z" fill="rgb(60,68,66)"/>
<path d="M349 25h22v15h-3v-14h-16v14h-3v-15z" fill="rgb(155,173,192)"/>
<path d="M378 25h2v1h-2v-1z" fill="rgb(60,68,66)"/>
<path d="M47 26h34v1h-34v-1z" fill="rgb(37,37,37)"/>
<path d="M160 26h16v1h-16v-1z" fill="rgb(78,68,68)"/>
<path d="M185 26h1v1h-1v-1z" fill="rgb(60,68,66)"/>
<path d="M186 26h2v1h1v1h-4v-1h1v-1z" fill="rgb(155,173,192)"/>
<path d="M188 26h1v1h-1v-1z" fill="rgb(60,68,66)"/>
<path d="M256 26h16v1h-16v-1z" fill="rgb(78,68,68)"/>
<path d="M281 26h1v1h-1v-1z" fill="rgb(60,68,66)"/>
<path d="M282 26h2v1h1v1h-4v-1h1v-1z" fill="rgb(155,173,192)"/>
<path d="M284 26h1v1h-1v-1z" fill="rgb(60,68,66)"/>
<path d="M352 26h16v1h-16v-1z" fill="rgb(78,68,68)"/>
<path d="M377 26h1v1h-1v-1z" fill="rgb(60,68,66)"/>
<path d="M378 26h2v1h1v1h-4v-1h1v-1z" fill="rgb(155,173,192)"/>
<path d="M380 26h1v1h-1v-1z" fill="rgb(60,68,66)"/>
<path d="M48 27h15v1h-15v-1z" fill="rgb(129,129,129)"/>
<path d="M63 27h2v21h-2v-21z" fill="rgb(71,71,71)"/>
<path d="M65 27h15v1h-15v-1z" fill="rgb(129,129,129)"/>
<path d="M160 27h1v18h-1v-18z" fill="rgb(72,83,102)"/>
<path d="M161 27h13v1h-13v-1z" fill="rgb(105,70,35)"/>
<path d="M174 27h1v1h-1v-1z" fill="rgb(181,158,0)"/>
<path d="M175 27h1v18h-1v-18z" fill="rgb(72,83,102)"/>
<path d="M184 27h1v1h-1v-1z" fill="rgb(60,68,66)"/>
<path d="M189 27h1v1h-1v-1z" fill="rgb(60,68,66)"/>
<path d="M256 27h1v18h-1v-18z" fill="rgb(72,83,102)"/>
<path d="M257 27h14v1h-14v-1z" fill="rgb(105,70,35)"/>
<path d="M271 27h1v18h-1v-18z" fill="rgb(72,83,102)"/>
<path d="M280 27h1v1h-1v-1z" fill="rgb(60,68,66)"/>
<path d="M285 27h1v1h-1v-1z" fill="rgb(60,68,66)"/>
<path d="M352 27h1v18h-1v-18z" fill="rgb(72,83,102)"/>
<path d="M353 27h14v1h-14v-1z" fill="rgb(105,70,35)"/>
<path d="M367 27h1v18h-1v-18z" fill="rgb(72,83,102)"/>
<path d="M376 27h1v1h-1v-1z" fill="rgb(60,68,66)"/>
<path d="M381 27h1v1h-1v-1z" fill="rgb(60,68,66)"/>
<path d="M48 28h15v1h-13v1h-1v16h14v1h-15v-19z" fill="rgb(160,160,160)"/>
<path d="M65 28h15v19h-15v-1h13v-1h1v-16h-14v-1z" fill="rgb(160,160,160)"/>
<path d="M161 28h12v1h-10v1h-1v3h-1v-5z" fill="rgb(133,88,44)"/>
<path d="M173 28h2v1h-2v-1z" fill="rgb(54,54,54)"/>
<path d="M181 28h12v11h-12v-11z" fill="rgb(105,70,35)"/>
<path d="M257 28h14v2h-1v-1h-11v1h-1v16h1v1h-2v-19z" fill="rgb(133,88,44)"/>
<path d="M277 28h12v11h-12v-11z" fill="rgb(105,70,35)"/>
<path d="M353 28h14v2h-1v-1h-11v1h-1v16h1v1h-2v-19z" fill="rgb(133,88,44)"/>
<path d="M373 28h12v11h-12v-11z" fill="rgb(105,70,35)"/>
<path d="M50 29h7v1h-1v1h-1v1h-1v1h-1v1h-1v1h-1v1h-1v1h-1v-7h1v-1z" fill="rgb(198,198,198)"/>
<path d="M57 29h1v1h-1v-1z" fill="rgb(216,216,216)"/>
<path d="M58 29h2v1h-1v1h-1v1h-1v1h-1v1h-1v1h-1v1h-1v1h-1v1h-1v1h-1v1h-1v-2h1v-1h1v-1h1
	v-1h1v-1h1v-1h1v-1h1v-1h1v-1h1v-1z" fill="rgb(198,198,198)"/>
<path d="M60 29h3v1h-1v1h-1v1h-1v1h-1v1h-1v1h-1v1h-1v1h-1v1h-1v1h-1v1h-1v1h-1v1h-1v1h-1
	v-3h1v-1h1v-1h1v-1h1v-1h1v-1h1v-1h1v-1h1v-1h1v-1h1v-1h1v-1z" fill="rgb(216,216,216)"/>
<path d="M65 29h9v1h-1v1h-1v1h-1v1h-1v1h-1v1h-1v1h-1v1h-1v1h-1v-9z" fill="rgb(198,198,198)"/>
<path d="M74 29h1v1h-1v-1z" fill="rgb(216,216,216)"/>
<path d="M75 29h2v1h-1v1h-1v1h-1v1h-1v1h-1v1h-1v1h-1v1h-1v1h-1v1h-1v1h-1v1h-1v-2h1v-1h1
	v-1h1v-1h1v-1h1v-1h1v-1h1v-1h1v-1h1v-1h1v-1z" fill="rgb(198,198,198)"/>
<path d="M77 29h2v2h-1v1h-1v1h-1v1h-1v1h-1v1h-1v1h-1v1h-1v1h-1v1h-1v1h-1v1h-1v1h-1v1h-1
	v-3h1v-1h1v-1h1v-1h1v-1h1v-1h1v-1h1v-1h1v-1h1v-1h1v-1h1v-1h1v-1z" fill="rgb(216,216,216)"/>
<path d="M163 29h9v1h-1v1h-1v1h-1v1h-1v1h-1v1h-1v1h-2v-1h-1v-1h-1v-4h1v-1z" fill="rgb(163,108,54)"/>
<path d="M172 29h2v2h-1v-1h-1v-1z" fill="rgb(213,186,0)"/>
<path d="M174 29h1v1h-1v-1z" fill="rgb(64,64,64)"/>
<path d="M182 29h10v1h-10v-1z" fill="rgb(203,153,103)"/>
<path d="M193 29h1v10h-1v-10z" fill="rgb(116,130,144)"/>
<path d="M259 29h11v1h1v8h-1v-1h-3v1h-1v3h1v1h3v-1h1v4h-1v1h-1v1h-10v-1h-1v-16h1v-1z" fill="rgb(163,108,54)"/>
<path d="M278 29h10v1h-10v-1z" fill="rgb(203,153,103)"/>
<path d="M289 29h1v10h-1v-10z" fill="rgb(116,130,144)"/>
<path d="M355 29h11v1h1v8h-1v-1h-3v1h-1v3h1v1h3v-1h1v4h-1v1h-1v1h-10v-1h-1v-16h1v-1z" fill="rgb(163,108,54)"/>
<path d="M374 29h10v1h-10v-1z" fill="rgb(203,153,103)"/>
<path d="M385 29h1v10h-1v-10z" fill="rgb(116,130,144)"/>
<path d="M56 30h1v1h-1v-1z" fill="rgb(216,216,216)"/>
<path d="M62 30h1v10h-1v1h-1v1h-1v1h-1v1h-1v1h-1v1h-8v-3h1v-1h1v-1h1v-1h1v-1h1v-1h1v-1h1
	v-1h1v-1h1v-1h1v-1h1v-1h1v-1h1v-1z" fill="rgb(198,198,198)"/>
<path d="M73 30h1v1h-1v-1z" fill="rgb(216,216,216)"/>
<path d="M171 30h2v2h-1v-1h-1v-1z" fill="rgb(64,64,64)"/>
<path d="M174 30h1v8h-1v-1h-3v1h-1v3h-1v-1h-1v-1h-1v-2h1v-1h1v-1h1v-1h1v-1h1v-1h1v-1h1
	v-1z" fill="rgb(163,108,54)"/>
<path d="M182 30h10v8h-10v-8z" fill="rgb(190,126,63)"/>
<path d="M278 30h10v8h-10v-8z" fill="rgb(190,126,63)"/>
<path d="M374 30h10v8h-10v-8z" fill="rgb(190,126,63)"/>
<path d="M55 31h1v1h-1v-1z" fill="rgb(216,216,216)"/>
<path d="M72 31h1v1h-1v-1z" fill="rgb(216,216,216)"/>
<path d="M78 31h1v10h-1v1h-1v1h-1v1h-1v1h-1v1h-9v-2h1v-1h1v-1h1v-1h1v-1h1v-1h1v-1h1v-1h1
	v-1h1v-1h1v-1h1v-1h1v-1h1v-1z" fill="rgb(198,198,198)"/>
<path d="M170 31h2v2h-1v-1h-1v-1z" fill="rgb(213,186,0)"/>
<path d="M183 31h8v5h-8v-5z" fill="rgb(222,228,227)"/>
<path d="M279 31h8v5h-8v-5z" fill="rgb(222,228,227)"/>
<path d="M375 31h8v5h-8v-5z" fill="rgb(222,228,227)"/>
<path d="M54 32h1v1h-1v-1z" fill="rgb(216,216,216)"/>
<path d="M71 32h1v1h-1v-1z" fill="rgb(216,216,216)"/>
<path d="M169 32h2v2h-1v-1h-1v-1z" fill="rgb(64,64,64)"/>
<path d="M184 32h2v1h-2v-1z" fill="rgb(152,160,167)"/>
<path d="M187 32h3v1h-3v-1z" fill="rgb(152,160,167)"/>
<path d="M280 32h3v1h-3v-1z" fill="rgb(152,160,167)"/>
<path d="M284 32h2v1h-2v-1z" fill="rgb(152,160,167)"/>
<path d="M376 32h2v1h-2v-1z" fill="rgb(152,160,167)"/>
<path d="M379 32h3v1h-3v-1z" fill="rgb(152,160,167)"/>
<path d="M53 33h1v1h-1v-1z" fill="rgb(216,216,216)"/>
<path d="M70 33h1v1h-1v-1z" fill="rgb(216,216,216)"/>
<path d="M161 33h1v1h-1v-1z" fill="rgb(181,158,0)"/>
<path d="M168 33h2v2h-1v-1h-1v-1z" fill="rgb(213,186,0)"/>
<path d="M44 34h3v5h-3v-5z" fill="rgb(129,129,129)"/>
<path d="M52 34h1v1h-1v-1z" fill="rgb(216,216,216)"/>
<path d="M69 34h1v1h-1v-1z" fill="rgb(216,216,216)"/>
<path d="M161 34h1v2h-1v-2z" fill="rgb(54,54,54)"/>
<path d="M162 34h1v1h-1v-1z" fill="rgb(64,64,64)"/>
<path d="M167 34h2v2h-1v-1h-1v-1z" fill="rgb(64,64,64)"/>
<path d="M184 34h4v1h-4v-1z" fill="rgb(152,160,167)"/>
<path d="M189 34h1v1h-1v-1z" fill="rgb(152,160,167)"/>
<path d="M280 34h4v1h-4v-1z" fill="rgb(152,160,167)"/>
<path d="M376 34h4v1h-4v-1z" fill="rgb(152,160,167)"/>
<path d="M381 34h1v1h-1v-1z" fill="rgb(152,160,167)"/>
<path d="M45 35h1v1h-1v-1z" fill="rgb(216,216,216)"/>
<path d="M51 35h1v1h-1v-1z" fill="rgb(216,216,216)"/>
<path d="M68 35h1v1h-1v-1z" fill="rgb(216,216,216)"/>
<path d="M162 35h2v1h-1v1h-1v-2z" fill="rgb(213,186,0)"/>
<path d="M166 35h2v2h-1v-1h-1v-1z" fill="rgb(213,186,0)"/>
<path d="M50 36h1v1h-1v-1z" fill="rgb(216,216,216)"/>
<path d="M67 36h1v1h-1v-1z" fill="rgb(216,216,216)"/>
<path d="M161 36h1v4h-1v-4z" fill="rgb(133,88,44)"/>
<path d="M163 36h4v3h-1v-2h-2v1h1v1h1v1h-2v-1h-1v-3z" fill="rgb(64,64,64)"/>
<path d="M183 36h8v1h-8v-1z" fill="rgb(203,153,103)"/>
<path d="M279 36h8v1h-8v-1z" fill="rgb(203,153,103)"/>
<path d="M375 36h8v1h-8v-1z" fill="rgb(203,153,103)"/>
<path d="M45 37h1v1h-1v-1z" fill="rgb(216,216,216)"/>
<path d="M49 37h1v1h-1v-1z" fill="rgb(216,216,216)"/>
<path d="M66 37h1v1h-1v-1z" fill="rgb(216,216,216)"/>
<path d="M162 37h1v2h-1v-2z" fill="rgb(163,108,54)"/>
<path d="M164 37h2v2h-1v-1h-1v-1z" fill="rgb(213,186,0)"/>
<path d="M171 37h2v1h-2v-1z" fill="rgb(59,53,38)"/>
<path d="M173 37h1v1h-1v-1z" fill="rgb(133,88,44)"/>
<path d="M267 37h2v1h-2v-1z" fill="rgb(59,53,38)"/>
<path d="M269 37h1v1h-1v-1z" fill="rgb(133,88,44)"/>
<path d="M363 37h2v1h-2v-1z" fill="rgb(59,53,38)"/>
<path d="M365 37h1v1h-1v-1z" fill="rgb(133,88,44)"/>
<path d="M65 38h1v1h-1v-1z" fill="rgb(216,216,216)"/>
<path d="M170 38h1v2h-1v-2z" fill="rgb(59,53,38)"/>
<path d="M171 38h1v1h-1v-1z" fill="rgb(234,217,136)"/>
<path d="M172 38h1v2h-2v-1h1v-1z" fill="rgb(170,145,65)"/>
<path d="M173 38h1v2h-1v-2z" fill="rgb(59,53,38)"/>
<path d="M174 38h1v3h-1v1h-3v-1h2v-1h1v-2z" fill="rgb(133,88,44)"/>
<path d="M266 38h1v2h-1v-2z" fill="rgb(59,53,38)"/>
<path d="M267 38h1v1h-1v-1z" fill="rgb(234,217,136)"/>
<path d="M268 38h1v2h-2v-1h1v-1z" fill="rgb(170,145,65)"/>
<path d="M269 38h1v2h-1v-2z" fill="rgb(59,53,38)"/>
<path d="M270 38h1v3h-1v1h-3v-1h2v-1h1v-2z" fill="rgb(133,88,44)"/>
<path d="M362 38h1v2h-1v-2z" fill="rgb(59,53,38)"/>
<path d="M363 38h1v1h-1v-1z" fill="rgb(234,217,136)"/>
<path d="M364 38h1v2h-2v-1h1v-1z" fill="rgb(170,145,65)"/>
<path d="M365 38h1v2h-1v-2z" fill="rgb(59,53,38)"/>
<path d="M366 38h1v3h-1v1h-3v-1h2v-1h1v-2z" fill="rgb(133,88,44)"/>
<path d="M16 39h27v1h-27v-1z" fill="rgb(104,137,165)"/>
<path d="M44 39h3v3h-3v-3z" fill="rgb(160,160,160)"/>
<path d="M85 39h71v1h-71v-1z" fill="rgb(104,137,165)"/>
<path d="M162 39h2v2h-1v-1h-1v-1z" fill="rgb(213,186,0)"/>
<path d="M166 39h2v1h-1v1h-1v-2z" fill="rgb(213,186,0)"/>
<path d="M180 39h2v1h-2v-1z" fill="rgb(104,137,165)"/>
<path d="M182 39h11v1h-11v-1z" fill="rgb(78,103,124)"/>
<path d="M193 39h59v1h-59v-1z" fill="rgb(104,137,165)"/>
<path d="M276 39h2v1h-2v-1z" fill="rgb(104,137,165)"/>
<path d="M278 39h11v1h-11v-1z" fill="rgb(78,103,124)"/>
<path d="M289 39h59v1h-59v-1z" fill="rgb(104,137,165)"/>
<path d="M372 39h2v1h-2v-1z" fill="rgb(104,137,165)"/>
<path d="M374 39h11v1h-11v-1z" fill="rgb(78,103,124)"/>
<path d="M385 39h15v1h-15v-1z" fill="rgb(104,137,165)"/>
<path d="M16 40h27v1h-27v-1z" fill="rgb(155,173,192)"/>
<path d="M62 40h1v1h-1v-1z" fill="rgb(216,216,216)"/>
<path d="M85 40h71v1h-71v-1z" fill="rgb(155,173,192)"/>
<path d="M157 40h3v1h-3v-1z" fill="rgb(104,137,165)"/>
<path d="M161 40h1v1h-1v-1z" fill="rgb(54,54,54)"/>
<path d="M162 40h1v2h-1v-2z" fill="rgb(64,64,64)"/>
<path d="M164 40h2v1h1v1h1v1h1v1h1v1h1v1h1v1h-9v-1h-1v-4h1v-1h1v-1z" fill="rgb(163,108,54)"/>
<path d="M167 40h2v1h-1v1h-1v-2z" fill="rgb(64,64,64)"/>
<path d="M170 40h1v1h-1v-1z" fill="rgb(133,88,44)"/>
<path d="M171 40h2v1h-2v-1z" fill="rgb(59,53,38)"/>
<path d="M176 40h3v1h-3v-1z" fill="rgb(104,137,165)"/>
<path d="M180 40h72v1h-72v-1z" fill="rgb(155,173,192)"/>
<path d="M253 40h3v1h-3v-1z" fill="rgb(104,137,165)"/>
<path d="M266 40h1v1h-1v-1z" fill="rgb(133,88,44)"/>
<path d="M267 40h2v1h-2v-1z" fill="rgb(59,53,38)"/>
<path d="M272 40h3v1h-3v-1z" fill="rgb(104,137,165)"/>
<path d="M276 40h72v1h-72v-1z" fill="rgb(155,173,192)"/>
<path d="M349 40h3v1h-3v-1z" fill="rgb(104,137,165)"/>
<path d="M362 40h1v1h-1v-1z" fill="rgb(133,88,44)"/>
<path d="M363 40h2v1h-2v-1z" fill="rgb(59,53,38)"/>
<path d="M368 40h3v1h-3v-1z" fill="rgb(104,137,165)"/>
<path d="M372 40h28v1h-28v-1z" fill="rgb(155,173,192)"/>
<path d="M16 41h27v4h-27v-4z" fill="rgb(104,137,165)"/>
<path d="M61 41h1v1h-1v-1z" fill="rgb(216,216,216)"/>
<path d="M62 41h1v2h-1v1h-1v1h-1v1h-2v-1h1v-1h1v-1h1v-1h1v-1z" fill="rgb(198,198,198)"/>
<path d="M78 41h1v1h-1v-1z" fill="rgb(216,216,216)"/>
<path d="M85 41h71v4h-71v-4z" fill="rgb(104,137,165)"/>
<path d="M157 41h3v1h-3v-1z" fill="rgb(155,173,192)"/>
<path d="M161 41h1v2h-1v-2z" fill="rgb(181,158,0)"/>
<path d="M168 41h2v1h-1v1h-1v-2z" fill="rgb(213,186,0)"/>
<path d="M170 41h1v1h-1v-1z" fill="rgb(163,108,54)"/>
<path d="M174 41h1v4h-2v-1h-1v-1h-1v-1h3v-1z" fill="rgb(163,108,54)"/>
<path d="M176 41h3v1h-3v-1z" fill="rgb(155,173,192)"/>
<path d="M180 41h72v4h-72v-4z" fill="rgb(104,137,165)"/>
<path d="M253 41h3v1h-3v-1z" fill="rgb(155,173,192)"/>
<path d="M272 41h3v1h-3v-1z" fill="rgb(155,173,192)"/>
<path d="M276 41h72v4h-72v-4z" fill="rgb(104,137,165)"/>
<path d="M349 41h3v1h-3v-1z" fill="rgb(155,173,192)"/>
<path d="M368 41h3v1h-3v-1z" fill="rgb(155,173,192)"/>
<path d="M372 41h28v4h-28v-4z" fill="rgb(104,137,165)"/>
<path d="M44 42h3v1h-3v-1z" fill="rgb(129,129,129)"/>
<path d="M60 42h1v1h-1v-1z" fill="rgb(216,216,216)"/>
<path d="M77 42h1v1h-1v-1z" fill="rgb(216,216,216)"/>
<path d="M78 42h1v3h-1v1h-3v-1h1v-1h1v-1h1v-1z" fill="rgb(198,198,198)"/>
<path d="M81 42h3v1h-3v-1z" fill="rgb(129,129,129)"/>
<path d="M157 42h3v4h-3v-4z" fill="rgb(104,137,165)"/>
<path d="M169 42h2v1h-1v1h-1v-2z" fill="rgb(64,64,64)"/>
<path d="M176 42h3v4h-3v-4z" fill="rgb(104,137,165)"/>
<path d="M253 42h3v4h-3v-4z" fill="rgb(104,137,165)"/>
<path d="M272 42h3v4h-3v-4z" fill="rgb(104,137,165)"/>
<path d="M349 42h3v4h-3v-4z" fill="rgb(104,137,165)"/>
<path d="M368 42h3v4h-3v-4z" fill="rgb(104,137,165)"/>
<path d="M44 43h3v1h-3v-1z" fill="rgb(160,160,160)"/>
<path d="M59 43h1v1h-1v-1z" fill="rgb(216,216,216)"/>
<path d="M62 43h1v3h-3v-1h1v-1h1v-1z" fill="rgb(216,216,216)"/>
<path d="M76 43h1v1h-1v-1z" fill="rgb(216,216,216)"/>
<path d="M81 43h3v1h-3v-1z" fill="rgb(160,160,160)"/>
<path d="M161 43h1v3h1v1h-2v-4z" fill="rgb(133,88,44)"/>
<path d="M170 43h2v1h-1v1h-1v-2z" fill="rgb(213,186,0)"/>
<path d="M44 44h3v3h-3v-3z" fill="rgb(129,129,129)"/>
<path d="M58 44h1v1h-1v-1z" fill="rgb(216,216,216)"/>
<path d="M75 44h1v1h-1v-1z" fill="rgb(216,216,216)"/>
<path d="M81 44h3v3h-3v-3z" fill="rgb(129,129,129)"/>
<path d="M171 44h2v1h-1v1h-1v-2z" fill="rgb(64,64,64)"/>
<path d="M16 45h27v3h-27v-3z" fill="rgb(78,102,136)"/>
<path d="M57 45h1v1h-1v-1z" fill="rgb(216,216,216)"/>
<path d="M74 45h1v1h-1v-1z" fill="rgb(216,216,216)"/>
<path d="M85 45h71v3h-71v-3z" fill="rgb(78,102,136)"/>
<path d="M156 45h1v2h3v-2h1v3h-5v-3z" fill="rgb(58,66,81)"/>
<path d="M172 45h2v1h-1v1h-1v-2z" fill="rgb(213,186,0)"/>
<path d="M174 45h1v1h-1v-1z" fill="rgb(133,88,44)"/>
<path d="M175 45h1v2h3v-2h1v3h-5v-3z" fill="rgb(58,66,81)"/>
<path d="M180 45h72v3h-72v-3z" fill="rgb(78,102,136)"/>
<path d="M252 45h1v2h3v-2h1v3h-5v-3z" fill="rgb(58,66,81)"/>
<path d="M270 45h1v2h-2v-1h1v-1z" fill="rgb(133,88,44)"/>
<path d="M271 45h1v2h3v-2h1v3h-5v-3z" fill="rgb(58,66,81)"/>
<path d="M276 45h72v3h-72v-3z" fill="rgb(78,102,136)"/>
<path d="M348 45h1v2h3v-2h1v3h-5v-3z" fill="rgb(58,66,81)"/>
<path d="M366 45h1v2h-2v-1h1v-1z" fill="rgb(133,88,44)"/>
<path d="M367 45h1v2h3v-2h1v3h-5v-3z" fill="rgb(58,66,81)"/>
<path d="M372 45h28v3h-28v-3z" fill="rgb(78,102,136)"/>
<path d="M157 46h3v1h-3v-1z" fill="rgb(78,102,136)"/>
<path d="M173 46h2v1h-2v-1z" fill="rgb(54,54,54)"/>
<path d="M176 46h3v1h-3v-1z" fill="rgb(78,102,136)"/>
<path d="M253 46h3v1h-3v-1z" fill="rgb(78,102,136)"/>
<path d="M272 46h3v1h-3v-1z" fill="rgb(78,102,136)"/>
<path d="M349 46h3v1h-3v-1z" fill="rgb(78,102,136)"/>
<path d="M368 46h3v1h-3v-1z" fill="rgb(78,102,136)"/>
<path d="M48 47h15v1h-15v-1z" fill="rgb(129,129,129)"/>
<path d="M65 47h15v1h-15v-1z" fill="rgb(129,129,129)"/>
<path d="M161 47h14v1h-14v-1z" fill="rgb(105,70,35)"/>
<path d="M257 47h14v1h-14v-1z" fill="rgb(105,70,35)"/>
<path d="M353 47h14v1h-14v-1z" fill="rgb(105,70,35)"/>
<path d="M16 48h6v1h-1v1h-1v1h-1v1h-1v1h-1v1h-1v-6z" fill="rgb(112,166,151)"/>
<path d="M22 48h4v1h1v1h1v1h1v1h1v1h1v1h2v-1h1v-1h1v-1h1v-1h1v-1h1v-1h4v1h1v1h1v1h1v1h1
	v1h1v1h2v-1h1v-1h1v-1h1v-1h1v-1h1v-1h4v1h1v1h1v1h1v1h1v1h1v1h2v-1h1v-1h1v-1h1
	v-1h1v-1h1v-1h4v1h1v1h1v1h1v1h1v1h1v1h2v-1h1v-1h1v-1h1v-1h1v-1h1v-1h4v1h1v1h1v1
	h1v1h1v1h1v1h2v-1h1v-1h1v-1h1v-1h1v-1h1v-1h4v1h1v1h1v1h1v1h1v1h1v1h2v-1h1v-1h1
	v-1h1v-1h1v-1h1v-1h4v1h1v1h1v1h1v1h1v1h1v1h2v-1h1v-1h1v-1h1v-1h1v-1h1v-1h4v1h1
	v1h1v1h1v1h1v1h1v1h2v-1h1v-1h1v-1h1v-1h1v-1h1v-1h4v1h1v1h1v1h1v1h1v1h1v1h2v-1h1
	v-1h1v-1h1v-1h1v-1h1v-1h4v1h1v1h1v1h1v1h1v1h1v1h2v-1h1v-1h1v-1h1v-1h1v-1h1v-1
	h4v1h1v1h1v1h1v1h1v1h1v1h2v-1h1v-1h1v-1h1v-1h1v-1h1v-1h4v1h1v1h1v1h1v1h1v1h1v1
	h2v-1h1v-1h1v-1h1v-1h1v-1h1v-1h4v1h1v1h1v1h1v1h1v1h1v1h2v-1h1v-1h1v-1h1v-1h1v-1
	h1v-1h4v1h1v1h1v1h1v1h1v1h1v1h2v-1h1v-1h1v-1h1v-1h1v-1h1v-1h4v1h1v1h1v1h1v1h1
	v1h1v1h2v-1h1v-1h1v-1h1v-1h1v-1h1v-1h4v1h1v1h1v1h1v1h1v1h1v1h2v-1h1v-1h1v-1h1
	v-1h1v-1h1v-1h4v1h1v1h1v1h1v1h1v1h1v1h2v-1h1v-1h1v-1h1v-1h1v-1h1v-1h4v1h1v1h1v1
	h1v1h1v1h1v1h2v-1h1v-1h1v-1h1v-1h1v-1h1v-1h4v1h1v1h1v1h1v1h1v1h1v1h2v-1h1v-1h1
	v-1h1v-1h1v-1h1v-1h4v1h1v1h1v1h1v1h1v1h1v1h2v-1h1v-1h1v-1h1v-1h1v-1h1v-1h4v1h1
	v1h1v1h1v1h1v1h1v1h2v-1h1v-1h1v-1h1v-1h1v-1h1v-1h4v1h1v1h1v1h1v1h1v1h1v1h2v-1h1
	v-1h1v-1h1v-1h1v-1h1v-1h4v1h1v1h1v1h1v1h1v1h1v1h2v-1h1v-1h1v-1h1v-1h1v-1h1v-1
	h4v1h1v1h1v1h1v1h1v1h1v1h1v2h-2v-1h-1v-1h-1v-1h-1v-1h-1v-1h-1v-1h-2v1h-1v1h-1v1
	h-1v1h-1v1h-1v1h-4v-1h-1v-1h-1v-1h-1v-1h-1v-1h-1v-1h-2v1h-1v1h-1v1h-1v1h-1v1
	h-1v1h-4v-1h-1v-1h-1v-1h-1v-1h-1v-1h-1v-1h-2v1h-1v1h-1v1h-1v1h-1v1h-1v1h-4v-1h-1
	v-1h-1v-1h-1v-1h-1v-1h-1v-1h-2v1h-1v1h-1v1h-1v1h-1v1h-1v1h-4v-1h-1v-1h-1v-1h-1
	v-1h-1v-1h-1v-1h-2v1h-1v1h-1v1h-1v1h-1v1h-1v1h-4v-1h-1v-1h-1v-1h-1v-1h-1v-1h-1
	v-1h-2v1h-1v1h-1v1h-1v1h-1v1h-1v1h-4v-1h-1v-1h-1v-1h-1v-1h-1v-1h-1v-1h-2v1h-1
	v1h-1v1h-1v1h-1v1h-1v1h-4v-1h-1v-1h-1v-1h-1v-1h-1v-1h-1v-1h-2v1h-1v1h-1v1h-1v1
	h-1v1h-1v1h-4v-1h-1v-1h-1v-1h-1v-1h-1v-1h-1v-1h-2v1h-1v1h-1v1h-1v1h-1v1h-1v1h-4
	v-1h-1v-1h-1v-1h-1v-1h-1v-1h-1v-1h-2v1h-1v1h-1v1h-1v1h-1v1h-1v1h-4v-1h-1v-1h-1
	v-1h-1v-1h-1v-1h-1v-1h-2v1h-1v1h-1v1h-1v1h-1v1h-1v1h-4v-1h-1v-1h-1v-1h-1v-1h-1
	v-1h-1v-1h-2v1h-1v1h-1v1h-1v1h-1v1h-1v1h-4v-1h-1v-1h-1v-1h-1v-1h-1v-1h-1v-1h-2
	v1h-1v1h-1v1h-1v1h-1v1h-1v1h-4v-1h-1v-1h-1v-1h-1v-1h-1v-1h-1v-1h-2v1h-1v1h-1v1
	h-1v1h-1v1h-1v1h-4v-1h-1v-1h-1v-1h-1v-1h-1v-1h-1v-1h-2v1h-1v1h-1v1h-1v1h-1v1
	h-1v1h-4v-1h-1v-1h-1v-1h-1v-1h-1v-1h-1v-1h-2v1h-1v1h-1v1h-1v1h-1v1h-1v1h-4v-1h-1
	v-1h-1v-1h-1v-1h-1v-1h-1v-1h-2v1h-1v1h-1v1h-1v1h-1v1h-1v1h-4v-1h-1v-1h-1v-1h-1
	v-1h-1v-1h-1v-1h-2v1h-1v1h-1v1h-1v1h-1v1h-1v1h-4v-1h-1v-1h-1v-1h-1v-1h-1v-1h-1
	v-1h-2v1h-1v1h-1v1h-1v1h-1v1h-1v1h-4v-1h-1v-1h-1v-1h-1v-1h-1v-1h-1v-1h-2v1h-1
	v1h-1v1h-1v1h-1v1h-1v1h-4v-1h-1v-1h-1v-1h-1v-1h-1v-1h-1v-1h-2v1h-1v1h-1v1h-1v1
	h-1v1h-1v1h-4v-1h-1v-1h-1v-1h-1v-1h-1v-1h-1v-1h-2v1h-1v1h-1v1h-1v1h-1v1h-1v1h-4
	v-1h-1v-1h-1v-1h-1v-1h-1v-1h-1v-1h-2v1h-1v1h-1v1h-1v1h-1v1h-1v1h-4v-1h-1v-1h-1
	v-1h-1v-1h-1v-1h-1v-1h-2v1h-1v1h-1v1h-1v1h-1v1h-1v2h1v1h1v1h1v1h1v1h1v1h1v4h-1
	v1h-1v1h-1v1h-1v1h-1v1h-1v2h1v1h1v1h1v1h1v1h1v1h1v4h-1v1h-1v1h-1v1h-1v1h-1v1
	h-1v2h1v1h1v1h1v1h1v1h1v1h1v4h-1v1h-1v1h-1v1h-1v1h-1v1h-1v2h1v1h1v1h1v1h1v1h1v1
	h1v2h-2v-1h-1v-1h-1v-1h-1v-1h-1v-1h-1v-1h-1v-4h1v-1h1v-1h1v-1h1v-1h1v-1h1v-2h-1
	v-1h-1v-1h-1v-1h-1v-1h-1v-1h-1v-4h1v-1h1v-1h1v-1h1v-1h1v-1h1v-2h-1v-1h-1v-1h-1
	v-1h-1v-1h-1v-1h-1v-4h1v-1h1v-1h1v-1h1v-1h1v-1h1v-2h-1v-1h-1v-1h-1v-1h-1v-1h-1
	v-1h-1v-4h1v-1h1v-1h1v-1h1v-1h1v-1h1v-1z" fill="rgb(146,180,171)"/>
<path d="M26 48h12v1h-1v1h-1v1h-1v1h-1v1h-1v1h-2v-1h-1v-1h-1v-1h-1v-1h-1v-1h-1v-1z" fill="rgb(112,166,151)"/>
<path d="M42 48h12v1h-1v1h-1v1h-1v1h-1v1h-1v1h-2v-1h-1v-1h-1v-1h-1v-1h-1v-1h-1v-1z" fill="rgb(112,166,151)"/>
<path d="M58 48h12v1h-1v1h-1v1h-1v1h-1v1h-1v1h-2v-1h-1v-1h-1v-1h-1v-1h-1v-1h-1v-1z" fill="rgb(112,166,151)"/>
<path d="M74 48h12v1h-1v1h-1v1h-1v1h-1v1h-1v1h-2v-1h-1v-1h-1v-1h-1v-1h-1v-1h-1v-1z" fill="rgb(112,166,151)"/>
<path d="M90 48h12v1h-1v1h-1v1h-1v1h-1v1h-1v1h-2v-1h-1v-1h-1v-1h-1v-1h-1v-1h-1v-1z" fill="rgb(112,166,151)"/>
<path d="M106 48h12v1h-1v1h-1v1h-1v1h-1v1h-1v1h-2v-1h-1v-1h-1v-1h-1v-1h-1v-1h-1v-1z" fill="rgb(112,166,151)"/>
<path d="M122 48h12v1h-1v1h-1v1h-1v1h-1v1h-1v1h-2v-1h-1v-1h-1v-1h-1v-1h-1v-1h-1v-1z" fill="rgb(112,166,151)"/>
<path d="M138 48h12v1h-1v1h-1v1h-1v1h-1v1h-1v1h-2v-1h-1v-1h-1v-1h-1v-1h-1v-1h-1v-1z" fill="rgb(112,166,151)"/>
<path d="M154 48h12v1h-1v1h-1v1h-1v1h-1v1h-1v1h-2v-1h-1v-1h-1v-1h-1v-1h-1v-1h-1v-1z" fill="rgb(112,166,151)"/>
<path d="M170 48h12v1h-1v1h-1v1h-1v1h-1v1h-1v1h-2v-1h-1v-1h-1v-1h-1v-1h-1v-1h-1v-1z" fill="rgb(112,166,151)"/>
<path d="M186 48h12v1h-1v1h-1v1h-1v1h-1v1h-1v1h-2v-1h-1v-1h-1v-1h-1v-1h-1v-1h-1v-1z" fill="rgb(112,166,151)"/>
<path d="M202 48h12v1h-1v1h-1v1h-1v1h-1v1h-1v1h-2v-1h-1v-1h-1v-1h-1v-1h-1v-1h-1v-1z" fill="rgb(112,166,151)"/>
<path d="M218 48h12v1h-1v1h-1v1h-1v1h-1v1h-1v1h-2v-1h-1v-1h-1v-1h-1v-1h-1v-1h-1v-1z" fill="rgb(112,166,151)"/>
<path d="M234 48h12v1h-1v1h-1v1h-1v1h-1v1h-1v1h-2v-1h-1v-1h-1v-1h-1v-1h-1v-1h-1v-1z" fill="rgb(112,166,151)"/>
<path d="M250 48h12v1h-1v1h-1v1h-1v1h-1v1h-1v1h-2v-1h-1v-1h-1v-1h-1v-1h-1v-1h-1v-1z" fill="rgb(112,166,151)"/>
<path d="M266 48h12v1h-1v1h-1v1h-1v1h-1v1h-1v1h-2v-1h-1v-1h-1v-1h-1v-1h-1v-1h-1v-1z" fill="rgb(112,166,151)"/>
<path d="M282 48h12v1h-1v1h-1v1h-1v1h-1v1h-1v1h-2v-1h-1v-1h-1v-1h-1v-1h-1v-1h-1v-1z" fill="rgb(112,166,151)"/>
<path d="M298 48h12v1h-1v1h-1v1h-1v1h-1v1h-1v1h-2v-1h-1v-1h-1v-1h-1v-1h-1v-1h-1v-1z" fill="rgb(112,166,151)"/>
<path d="M314 48h12v1h-1v1h-1v1h-1v1h-1v1h-1v1h-2v-1h-1v-1h-1v-1h-1v-1h-1v-1h-1v-1z" fill="rgb(112,166,151)"/>
<path d="M330 48h12v1h-1v1h-1v1h-1v1h-1v1h-1v1h-2v-1h-1v-1h-1v-1h-1v-1h-1v-1h-1v-1z" fill="rgb(112,166,151)"/>
<path d="M346 48h12v1h-1v1h-1v1h-1v1h-1v1h-1v1h-2v-1h-1v-1h-1v-1h-1v-1h-1v-1h-1v-1z" fill="rgb(112,166,151)"/>
<path d="M362 48h12v1h-1v1h-1v1h-1v1h-1v1h-1v1h-2v-1h-1v-1h-1v-1h-1v-1h-1v-1h-1v-1z" fill="rgb(112,166,151)"/>
<path d="M378 48h12v1h-1v1h-1v1h-1v1h-1v1h-1v1h-2v-1h-1v-1h-1v-1h-1v-1h-1v-1h-1v-1z" fill="rgb(112,166,151)"/>
<path d="M394 48h6v6h-1v-1h-1v-1h-1v-1h-1v-1h-1v-1h-1v-1z" fill="rgb(112,166,151)"/>
<path d="M23 50h2v1h1v1h1v1h1v1h1v1h1v1h-2v-1h-1v-1h-1v-1h-1v-1h-2v1h-1v1h-1v1h-1v1h-1v1
	h-1v-2h1v-1h1v-1h1v-1h1v-1h1v-1z" fill="rgb(106,139,167)"/>
<path d="M39 50h2v1h1v1h1v1h1v1h1v1h1v1h-2v-1h-1v-1h-1v-1h-1v-1h-2v1h-1v1h-1v1h-1v1h-2
	v-1h1v-1h1v-1h1v-1h1v-1h1v-1z" fill="rgb(106,139,167)"/>
<path d="M55 50h2v1h1v1h1v1h1v1h1v1h1v1h-2v-1h-1v-1h-1v-1h-1v-1h-2v1h-1v1h-1v1h-1v1h-2
	v-1h1v-1h1v-1h1v-1h1v-1h1v-1z" fill="rgb(106,139,167)"/>
<path d="M71 50h2v1h1v1h1v1h1v1h1v1h1v1h-2v-1h-1v-1h-1v-1h-1v-1h-2v1h-1v1h-1v1h-1v1h-2
	v-1h1v-1h1v-1h1v-1h1v-1h1v-1z" fill="rgb(106,139,167)"/>
<path d="M87 50h2v1h1v1h1v1h1v1h1v1h1v1h-2v-1h-1v-1h-1v-1h-1v-1h-2v1h-1v1h-1v1h-1v1h-2
	v-1h1v-1h1v-1h1v-1h1v-1h1v-1z" fill="rgb(106,139,167)"/>
<path d="M103 50h2v1h1v1h1v1h1v1h1v1h1v1h-2v-1h-1v-1h-1v-1h-1v-1h-2v1h-1v1h-1v1h-1v1h-2
	v-1h1v-1h1v-1h1v-1h1v-1h1v-1z" fill="rgb(106,139,167)"/>
<path d="M119 50h2v1h1v1h1v1h1v1h1v1h1v1h-2v-1h-1v-1h-1v-1h-1v-1h-2v1h-1v1h-1v1h-1v1h-2
	v-1h1v-1h1v-1h1v-1h1v-1h1v-1z" fill="rgb(106,139,167)"/>
<path d="M135 50h2v1h1v1h1v1h1v1h1v1h1v1h-2v-1h-1v-1h-1v-1h-1v-1h-2v1h-1v1h-1v1h-1v1h-2
	v-1h1v-1h1v-1h1v-1h1v-1h1v-1z" fill="rgb(106,139,167)"/>
<path d="M151 50h2v1h1v1h1v1h1v1h1v1h1v1h-2v-1h-1v-1h-1v-1h-1v-1h-2v1h-1v1h-1v1h-1v1h-2
	v-1h1v-1h1v-1h1v-1h1v-1h1v-1z" fill="rgb(106,139,167)"/>
<path d="M167 50h2v1h1v1h1v1h1v1h1v1h1v1h-2v-1h-1v-1h-1v-1h-1v-1h-2v1h-1v1h-1v1h-1v1h-2
	v-1h1v-1h1v-1h1v-1h1v-1h1v-1z" fill="rgb(106,139,167)"/>
<path d="M183 50h2v1h1v1h1v1h1v1h1v1h1v1h-2v-1h-1v-1h-1v-1h-1v-1h-2v1h-1v1h-1v1h-1v1h-2
	v-1h1v-1h1v-1h1v-1h1v-1h1v-1z" fill="rgb(106,139,167)"/>
<path d="M199 50h2v1h1v1h1v1h1v1h1v1h1v1h-2v-1h-1v-1h-1v-1h-1v-1h-2v1h-1v1h-1v1h-1v1h-2
	v-1h1v-1h1v-1h1v-1h1v-1h1v-1z" fill="rgb(106,139,167)"/>
<path d="M215 50h2v1h1v1h1v1h1v1h1v1h1v1h-2v-1h-1v-1h-1v-1h-1v-1h-2v1h-1v1h-1v1h-1v1h-2
	v-1h1v-1h1v-1h1v-1h1v-1h1v-1z" fill="rgb(106,139,167)"/>
<path d="M231 50h2v1h1v1h1v1h1v1h1v1h1v1h-2v-1h-1v-1h-1v-1h-1v-1h-2v1h-1v1h-1v1h-1v1h-2
	v-1h1v-1h1v-1h1v-1h1v-1h1v-1z" fill="rgb(106,139,167)"/>
<path d="M247 50h2v1h1v1h1v1h1v1h1v1h1v1h-2v-1h-1v-1h-1v-1h-1v-1h-2v1h-1v1h-1v1h-1v1h-2
	v-1h1v-1h1v-1h1v-1h1v-1h1v-1z" fill="rgb(106,139,167)"/>
<path d="M263 50h2v1h1v1h1v1h1v1h1v1h1v1h-2v-1h-1v-1h-1v-1h-1v-1h-2v1h-1v1h-1v1h-1v1h-2
	v-1h1v-1h1v-1h1v-1h1v-1h1v-1z" fill="rgb(106,139,167)"/>
<path d="M279 50h2v1h1v1h1v1h1v1h1v1h1v1h-2v-1h-1v-1h-1v-1h-1v-1h-2v1h-1v1h-1v1h-1v1h-2
	v-1h1v-1h1v-1h1v-1h1v-1h1v-1z" fill="rgb(106,139,167)"/>
<path d="M295 50h2v1h1v1h1v1h1v1h1v1h1v1h-2v-1h-1v-1h-1v-1h-1v-1h-2v1h-1v1h-1v1h-1v1h-2
	v-1h1v-1h1v-1h1v-1h1v-1h1v-1z" fill="rgb(106,139,167)"/>
<path d="M311 50h2v1h1v1h1v1h1v1h1v1h1v1h-2v-1h-1v-1h-1v-1h-1v-1h-2v1h-1v1h-1v1h-1v1h-2
	v-1h1v-1h1v-1h1v-1h1v-1h1v-1z" fill="rgb(106,139,167)"/>
<path d="M327 50h2v1h1v1h1v1h1v1h1v1h1v1h-2v-1h-1v-1h-1v-1h-1v-1h-2v1h-1v1h-1v1h-1v1h-2
	v-1h1v-1h1v-1h1v-1h1v-1h1v-1z" fill="rgb(106,139,167)"/>
<path d="M343 50h2v1h1v1h1v1h1v1h1v1h1v1h-2v-1h-1v-1h-1v-1h-1v-1h-2v1h-1v1h-1v1h-1v1h-2
	v-1h1v-1h1v-1h1v-1h1v-1h1v-1z" fill="rgb(106,139,167)"/>
<path d="M359 50h2v1h1v1h1v1h1v1h1v1h1v1h-2v-1h-1v-1h-1v-1h-1v-1h-2v1h-1v1h-1v1h-1v1h-2
	v-1h1v-1h1v-1h1v-1h1v-1h1v-1z" fill="rgb(106,139,167)"/>
<path d="M375 50h2v1h1v1h1v1h1v1h1v1h1v1h-2v-1h-1v-1h-1v-1h-1v-1h-2v1h-1v1h-1v1h-1v1h-2
	v-1h1v-1h1v-1h1v-1h1v-1h1v-1z" fill="rgb(106,139,167)"/>
<path d="M391 50h2v1h1v1h1v1h1v1h1v1h1v1h-2v-1h-1v-1h-1v-1h-1v-1h-2v1h-1v1h-1v1h-1v1h-2
	v-1h1v-1h1v-1h1v-1h1v-1h1v-1z" fill="rgb(106,139,167)"/>
<path d="M23 52h2v1h1v1h1v1h1v1h-4v6h-1v-1h-1v-1h-1v-1h-1v-1h-1v-2h1v-1h1v-1h1v-1h1v-1z" fill="rgb(117,155,186)"/>
<path d="M39 52h2v1h1v1h1v1h1v1h-8v-1h1v-1h1v-1h1v-1z" fill="rgb(117,155,186)"/>
<path d="M55 52h2v1h1v1h1v1h1v1h-8v-1h1v-1h1v-1h1v-1z" fill="rgb(117,155,186)"/>
<path d="M71 52h2v1h1v1h1v1h1v1h-8v-1h1v-1h1v-1h1v-1z" fill="rgb(117,155,186)"/>
<path d="M87 52h2v1h1v1h1v1h1v1h-8v-1h1v-1h1v-1h1v-1z" fill="rgb(117,155,186)"/>
<path d="M103 52h2v1h1v1h1v1h1v1h-8v-1h1v-1h1v-1h1v-1z" fill="rgb(117,155,186)"/>
<path d="M119 52h2v1h1v1h1v1h1v1h-8v-1h1v-1h1v-1h1v-1z" fill="rgb(117,155,186)"/>
<path d="M135 52h2v1h1v1h1v1h1v1h-8v-1h1v-1h1v-1h1v-1z" fill="rgb(117,155,186)"/>
<path d="M151 52h2v1h1v1h1v1h1v1h-8v-1h1v-1h1v-1h1v-1z" fill="rgb(117,155,186)"/>
<path d="M167 52h2v1h1v1h1v1h1v1h-8v-1h1v-1h1v-1h1v-1z" fill="rgb(117,155,186)"/>
<path d="M183 52h2v1h1v1h1v1h1v1h-8v-1h1v-1h1v-1h1v-1z" fill="rgb(117,155,186)"/>
<path d="M199 52h2v1h1v1h1v1h1v1h-8v-1h1v-1h1v-1h1v-1z" fill="rgb(117,155,186)"/>
<path d="M215 52h2v1h1v1h1v1h1v1h-8v-1h1v-1h1v-1h1v-1z" fill="rgb(117,155,186)"/>
<path d="M231 52h2v1h1v1h1v1h1v1h-8v-1h1v-1h1v-1h1v-1z" fill="rgb(117,155,186)"/>
<path d="M247 52h2v1h1v1h1v1h1v1h-8v-1h1v-1h1v-1h1v-1z" fill="rgb(117,155,186)"/>
<path d="M263 52h2v1h1v1h1v1h1v1h-8v-1h1v-1h1v-1h1v-1z" fill="rgb(117,155,186)"/>
<path d="M279 52h2v1h1v1h1v1h1v1h-8v-1h1v-1h1v-1h1v-1z" fill="rgb(117,155,186)"/>
<path d="M295 52h2v1h1v1h1v1h1v1h-8v-1h1v-1h1v-1h1v-1z" fill="rgb(117,155,186)"/>
<path d="M311 52h2v1h1v1h1v1h1v1h-8v-1h1v-1h1v-1h1v-1z" fill="rgb(117,155,186)"/>
<path d="M327 52h2v1h1v1h1v1h1v1h-8v-1h1v-1h1v-1h1v-1z" fill="rgb(117,155,186)"/>
<path d="M343 52h2v1h1v1h1v1h1v1h-8v-1h1v-1h1v-1h1v-1z" fill="rgb(117,155,186)"/>
<path d="M359 52h2v1h1v1h1v1h1v1h-8v-1h1v-1h1v-1h1v-1z" fill="rgb(117,155,186)"/>
<path d="M375 52h2v1h1v1h1v1h1v1h-8v-1h1v-1h1v-1h1v-1z" fill="rgb(117,155,186)"/>
<path d="M391 52h2v1h1v1h1v1h1v1h-8v-1h1v-1h1v-1h1v-1z" fill="rgb(117,155,186)"/>
<path d="M24 56h5v2h-1v1h-1v1h-1v1h-1v1h-1v-6z" fill="rgb(138,182,219)"/>
<path d="M29 56h1v1h-1v-1z" fill="rgb(124,163,196)"/>
<path d="M30 56h4v1h1v1h1v1h1v1h1v1h1v1h2v-1h1v-1h1v-1h1v-1h1v-1h1v-1h4v1h1v1h1v1h1v1h1
	v1h1v1h2v-1h1v-1h1v-1h1v-1h1v-1h1v-1h4v1h1v1h1v1h1v1h1v1h1v1h2v-1h1v-1h1v-1h1
	v-1h1v-1h1v-1h4v1h1v1h1v1h1v1h1v1h1v1h2v-1h1v-1h1v-1h1v-1h1v-1h1v-1h4v1h1v1h1v1
	h1v1h1v1h1v1h2v-1h1v-1h1v-1h1v-1h1v-1h1v-1h4v1h1v1h1v1h1v1h1v1h1v1h2v-1h1v-1h1
	v-1h1v-1h1v-1h1v-1h4v1h1v1h1v1h1v1h1v1h1v1h2v-1h1v-1h1v-1h1v-1h1v-1h1v-1h4v1h1
	v1h1v1h1v1h1v1h1v1h2v-1h1v-1h1v-1h1v-1h1v-1h1v-1h4v1h1v1h1v1h1v1h1v1h1v1h2v-1h1
	v-1h1v-1h1v-1h1v-1h1v-1h4v1h1v1h1v1h1v1h1v1h1v1h2v-1h1v-1h1v-1h1v-1h1v-1h1v-1
	h4v1h1v1h1v1h1v1h1v1h1v1h2v-1h1v-1h1v-1h1v-1h1v-1h1v-1h4v1h1v1h1v1h1v1h1v1h1v1
	h2v-1h1v-1h1v-1h1v-1h1v-1h1v-1h4v1h1v1h1v1h1v1h1v1h1v1h2v-1h1v-1h1v-1h1v-1h1v-1
	h1v-1h4v1h1v1h1v1h1v1h1v1h1v1h2v-1h1v-1h1v-1h1v-1h1v-1h1v-1h4v1h1v1h1v1h1v1h1
	v1h1v1h2v-1h1v-1h1v-1h1v-1h1v-1h1v-1h4v1h1v1h1v1h1v1h1v1h1v1h2v-1h1v-1h1v-1h1
	v-1h1v-1h1v-1h4v1h1v1h1v1h1v1h1v1h1v1h2v-1h1v-1h1v-1h1v-1h1v-1h1v-1h4v1h1v1h1v1
	h1v1h1v1h1v1h2v-1h1v-1h1v-1h1v-1h1v-1h1v-1h4v1h1v1h1v1h1v1h1v1h1v1h2v-1h1v-1h1
	v-1h1v-1h1v-1h1v-1h4v1h1v1h1v1h1v1h1v1h1v1h2v-1h1v-1h1v-1h1v-1h1v-1h1v-1h4v1h1
	v1h1v1h1v1h1v1h1v1h2v-1h1v-1h1v-1h1v-1h1v-1h1v-1h4v1h1v1h1v1h1v1h1v1h1v1h2v-1h1
	v-1h1v-1h1v-1h1v-1h1v-1h4v1h1v1h1v1h1v1h1v1h1v1h2v-1h1v-1h1v-1h1v-1h1v-1h1v-1
	h2v2h-1v1h-1v1h-1v1h-1v1h-1v1h-1v2h1v1h1v1h1v1h1v1h1v1h1v4h-1v1h-1v1h-1v1h-1v1
	h-1v1h-1v2h1v1h1v1h1v1h1v1h1v1h1v4h-1v1h-1v1h-1v1h-1v1h-1v1h-1v2h1v1h1v1h1v1h1
	v1h1v1h1v4h-1v1h-1v1h-1v1h-1v1h-1v1h-1v1h-4v-1h-1v-1h-1v-1h-1v-1h-1v-1h-1v-1h-2
	v1h-1v1h-1v1h-1v1h-1v1h-1v1h-4v-1h-1v-1h-1v-1h-1v-1h-1v-1h-1v-1h-2v1h-1v1h-1v1
	h-1v1h-1v1h-1v1h-4v-1h-1v-1h-1v-1h-1v-1h-1v-1h-1v-1h-2v1h-1v1h-1v1h-1v1h-1v1
	h-1v1h-4v-1h-1v-1h-1v-1h-1v-1h-1v-1h-1v-1h-2v1h-1v1h-1v1h-1v1h-1v1h-1v1h-4v-1h-1
	v-1h-1v-1h-1v-1h-1v-1h-1v-1h-2v1h-1v1h-1v1h-1v1h-1v1h-1v1h-4v-1h-1v-1h-1v-1h-1
	v-1h-1v-1h-1v-1h-2v1h-1v1h-1v1h-1v1h-1v1h-1v1h-4v-1h-1v-1h-1v-1h-1v-1h-1v-1h-1
	v-1h-2v1h-1v1h-1v1h-1v1h-1v1h-1v1h-4v-1h-1v-1h-1v-1h-1v-1h-1v-1h-1v-1h-2v1h-1
	v1h-1v1h-1v1h-1v1h-1v1h-4v-1h-1v-1h-1v-1h-1v-1h-1v-1h-1v-1h-2v1h-1v1h-1v1h-1v1
	h-1v1h-1v1h-4v-1h-1v-1h-1v-1h-1v-1h-1v-1h-1v-1h-2v1h-1v1h-1v1h-1v1h-1v1h-1v1h-4
	v-1h-1v-1h-1v-1h-1v-1h-1v-1h-1v-1h-2v1h-1v1h-1v1h-1v1h-1v1h-1v1h-4v-1h-1v-1h-1
	v-1h-1v-1h-1v-1h-1v-1h-2v1h-1v1h-1v1h-1v1h-1v1h-1v1h-4v-1h-1v-1h-1v-1h-1v-1h-1
	v-1h-1v-1h-2v1h-1v1h-1v1h-1v1h-1v1h-1v1h-4v-1h-1v-1h-1v-1h-1v-1h-1v-1h-1v-1h-2
	v1h-1v1h-1v1h-1v1h-1v1h-1v1h-4v-1h-1v-1h-1v-1h-1v-1h-1v-1h-1v-1h-2v1h-1v1h-1v1
	h-1v1h-1v1h-1v1h-4v-1h-1v-1h-1v-1h-1v-1h-1v-1h-1v-1h-2v1h-1v1h-1v1h-1v1h-1v1
	h-1v1h-4v-1h-1v-1h-1v-1h-1v-1h-1v-1h-1v-1h-2v1h-1v1h-1v1h-1v1h-1v1h-1v1h-4v-1h-1
	v-1h-1v-1h-1v-1h-1v-1h-1v-1h-2v1h-1v1h-1v1h-1v1h-1v1h-1v1h-4v-1h-1v-1h-1v-1h-1
	v-1h-1v-1h-1v-1h-2v1h-1v1h-1v1h-1v1h-1v1h-1v1h-4v-1h-1v-1h-1v-1h-1v-1h-1v-1h-1
	v-1h-2v1h-1v1h-1v1h-1v1h-1v1h-1v1h-4v-1h-1v-1h-1v-1h-1v-1h-1v-1h-1v-1h-2v1h-1
	v1h-1v1h-1v1h-1v1h-1v1h-4v-1h-1v-1h-1v-1h-1v-1h-1v-1h-1v-1h-2v1h-1v1h-1v1h-1v1
	h-1v1h-1v1h-4v-1h-1v-1h-1v-1h-1v-1h-1v-1h-1v-1h-2v1h-1v1h-1v1h-1v1h-1v1h-1v1h-2
	v-2h1v-1h1v-1h1v-1h1v-1h1v-1h1v-2h-1v-1h-1v-1h-1v-1h-1v-1h-1v-1h-1v-4h1v-1h1
	v-1h1v-1h1v-1h1v-1h1v-2h-1v-1h-1v-1h-1v-1h-1v-1h-1v-1h-1v-4h1v-1h1v-1h1v-1h1v-1
	h1v-1h1v-2h-1v-1h-1v-1h-1v-1h-1v-1h-1v-1h-1v-4h1v-1h1v-1h1v-1h1v-1h1v-1h1v-1z" fill="rgb(171,212,201)"/>
<path d="M34 56h1v1h-1v-1z" fill="rgb(124,163,196)"/>
<path d="M35 56h10v2h-1v1h-1v1h-1v1h-1v1h-2v-1h-1v-1h-1v-1h-1v-1h-1v-2z" fill="rgb(138,182,219)"/>
<path d="M45 56h1v1h-1v-1z" fill="rgb(124,163,196)"/>
<path d="M50 56h1v1h-1v-1z" fill="rgb(124,163,196)"/>
<path d="M51 56h10v2h-1v1h-1v1h-1v1h-1v1h-2v-1h-1v-1h-1v-1h-1v-1h-1v-2z" fill="rgb(138,182,219)"/>
<path d="M61 56h1v1h-1v-1z" fill="rgb(124,163,196)"/>
<path d="M66 56h1v1h-1v-1z" fill="rgb(124,163,196)"/>
<path d="M67 56h10v2h-1v1h-1v1h-1v1h-1v1h-2v-1h-1v-1h-1v-1h-1v-1h-1v-2z" fill="rgb(138,182,219)"/>
<path d="M77 56h1v1h-1v-1z" fill="rgb(124,163,196)"/>
<path d="M82 56h1v1h-1v-1z" fill="rgb(124,163,196)"/>
<path d="M83 56h10v2h-1v1h-1v1h-1v1h-1v1h-2v-1h-1v-1h-1v-1h-1v-1h-1v-2z" fill="rgb(138,182,219)"/>
<path d="M93 56h1v1h-1v-1z" fill="rgb(124,163,196)"/>
<path d="M98 56h1v1h-1v-1z" fill="rgb(124,163,196)"/>
<path d="M99 56h10v2h-1v1h-1v1h-1v1h-1v1h-2v-1h-1v-1h-1v-1h-1v-1h-1v-2z" fill="rgb(138,182,219)"/>
<path d="M109 56h1v1h-1v-1z" fill="rgb(124,163,196)"/>
<path d="M114 56h1v1h-1v-1z" fill="rgb(124,163,196)"/>
<path d="M115 56h10v2h-1v1h-1v1h-1v1h-1v1h-2v-1h-1v-1h-1v-1h-1v-1h-1v-2z" fill="rgb(138,182,219)"/>
<path d="M125 56h1v1h-1v-1z" fill="rgb(124,163,196)"/>
<path d="M130 56h1v1h-1v-1z" fill="rgb(124,163,196)"/>
<path d="M131 56h10v2h-1v1h-1v1h-1v1h-1v1h-2v-1h-1v-1h-1v-1h-1v-1h-1v-2z" fill="rgb(138,182,219)"/>
<path d="M141 56h1v1h-1v-1z" fill="rgb(124,163,196)"/>
<path d="M146 56h1v1h-1v-1z" fill="rgb(124,163,196)"/>
<path d="M147 56h10v2h-1v1h-1v1h-1v1h-1v1h-2v-1h-1v-1h-1v-1h-1v-1h-1v-2z" fill="rgb(138,182,219)"/>
<path d="M157 56h1v1h-1v-1z" fill="rgb(124,163,196)"/>
<path d="M162 56h1v1h-1v-1z" fill="rgb(124,163,196)"/>
<path d="M163 56h10v2h-1v1h-1v1h-1v1h-1v1h-2v-1h-1v-1h-1v-1h-1v-1h-1v-2z" fill="rgb(138,182,219)"/>
<path d="M173 56h1v1h-1v-1z" fill="rgb(124,163,196)"/>
<path d="M178 56h1v1h-1v-1z" fill="rgb(124,163,196)"/>
<path d="M179 56h10v2h-1v1h-1v1h-1v1h-1v1h-2v-1h-1v-1h-1v-1h-1v-1h-1v-2z" fill="rgb(138,182,219)"/>
<path d="M189 56h1v1h-1v-1z" fill="rgb(124,163,196)"/>
<path d="M194 56h1v1h-1v-1z" fill="rgb(124,163,196)"/>
<path d="M195 56h10v2h-1v1h-1v1h-1v1h-1v1h-2v-1h-1v-1h-1v-1h-1v-1h-1v-2z" fill="rgb(138,182,219)"/>
<path d="M205 56h1v1h-1v-1z" fill="rgb(124,163,196)"/>
<path d="M210 56h1v1h-1v-1z" fill="rgb(124,163,196)"/>
<path d="M211 56h10v2h-1v1h-1v1h-1v1h-1v1h-2v-1h-1v-1h-1v-1h-1v-1h-1v-2z" fill="rgb(138,182,219)"/>
<path d="M221 56h1v1h-1v-1z" fill="rgb(124,163,196)"/>
<path d="M226 56h1v1h-1v-1z" fill="rgb(124,163,196)"/>
<path d="M227 56h10v2h-1v1h-1v1h-1v1h-1v1h-2v-1h-1v-1h-1v-1h-1v-1h-1v-2z" fill="rgb(138,182,219)"/>
<path d="M237 56h1v1h-1v-1z" fill="rgb(124,163,196)"/>
<path d="M242 56h1v1h-1v-1z" fill="rgb(124,163,196)"/>
<path d="M243 56h10v2h-1v1h-1v1h-1v1h-1v1h-2v-1h-1v-1h-1v-1h-1v-1h-1v-2z" fill="rgb(138,182,219)"/>
<path d="M253 56h1v1h-1v-1z" fill="rgb(124,163,196)"/>
<path d="M258 56h1v1h-1v-1z" fill="rgb(124,163,196)"/>
<path d="M259 56h10v2h-1v1h-1v1h-1v1h-1v1h-2v-1h-1v-1h-1v-1h-1v-1h-1v-2z" fill="rgb(138,182,219)"/>
<path d="M269 56h1v1h-1v-1z" fill="rgb(124,163,196)"/>
<path d="M274 56h1v1h-1v-1z" fill="rgb(124,163,196)"/>
<path d="M275 56h10v2h-1v1h-1v1h-1v1h-1v1h-2v-1h-1v-1h-1v-1h-1v-1h-1v-2z" fill="rgb(138,182,219)"/>
<path d="M285 56h1v1h-1v-1z" fill="rgb(124,163,196)"/>
<path d="M290 56h1v1h-1v-1z" fill="rgb(124,163,196)"/>
<path d="M291 56h10v2h-1v1h-1v1h-1v1h-1v1h-2v-1h-1v-1h-1v-1h-1v-1h-1v-2z" fill="rgb(138,182,219)"/>
<path d="M301 56h1v1h-1v-1z" fill="rgb(124,163,196)"/>
<path d="M306 56h1v1h-1v-1z" fill="rgb(124,163,196)"/>
<path d="M307 56h10v2h-1v1h-1v1h-1v1h-1v1h-2v-1h-1v-1h-1v-1h-1v-1h-1v-2z" fill="rgb(138,182,219)"/>
<path d="M317 56h1v1h-1v-1z" fill="rgb(124,163,196)"/>
<path d="M322 56h1v1h-1v-1z" fill="rgb(124,163,196)"/>
<path d="M323 56h10v2h-1v1h-1v1h-1v1h-1v1h-2v-1h-1v-1h-1v-1h-1v-1h-1v-2z" fill="rgb(138,182,219)"/>
<path d="M333 56h1v1h-1v-1z" fill="rgb(124,163,196)"/>
<path d="M338 56h1v1h-1v-1z" fill="rgb(124,163,196)"/>
<path d="M339 56h10v2h-1v1h-1v1h-1v1h-1v1h-2v-1h-1v-1h-1v-1h-1v-1h-1v-2z" fill="rgb(138,182,219)"/>
<path d="M349 56h1v1h-1v-1z" fill="rgb(124,163,196)"/>
<path d="M354 56h1v1h-1v-1z" fill="rgb(124,163,196)"/>
<path d="M355 56h10v2h-1v1h-1v1h-1v1h-1v1h-2v-1h-1v-1h-1v-1h-1v-1h-1v-2z" fill="rgb(138,182,219)"/>
<path d="M365 56h1v1h-1v-1z" fill="rgb(124,163,196)"/>
<path d="M370 56h1v1h-1v-1z" fill="rgb(124,163,196)"/>
<path d="M371 56h10v2h-1v1h-1v1h-1v1h-1v1h-2v-1h-1v-1h-1v-1h-1v-1h-1v-2z" fill="rgb(138,182,219)"/>
<path d="M381 56h1v1h-1v-1z" fill="rgb(124,163,196)"/>
<path d="M386 56h1v1h-1v-1z" fill="rgb(124,163,196)"/>
<path d="M387 56h10v2h-1v1h-1v1h-1v1h-1v1h-2v-1h-1v-1h-1v-1h-1v-1h-1v-2z" fill="rgb(138,182,219)"/>
<path d="M397 56h1v1h-1v-1z" fill="rgb(124,163,196)"/>
<path d="M16 58h1v1h1v1h1v1h1v1h1v1h1v2h-1v1h-1v1h-1v1h-1v1h-1v1h-1v-12z" fill="rgb(112,166,151)"/>
<path d="M31 58h2v1h1v1h1v1h1v1h1v1h1v2h-1v1h-1v1h-1v1h-1v1h-1v1h-2v-1h-1v-1h-1v-1h-1v-1
	h-1v-1h-1v-2h1v-1h1v-1h1v-1h1v-1h1v-1z" fill="rgb(132,195,178)"/>
<path d="M47 58h2v1h1v1h1v1h1v1h1v1h1v2h-1v1h-1v1h-1v1h-1v1h-1v1h-2v-1h-1v-1h-1v-1h-1v-1
	h-1v-1h-1v-2h1v-1h1v-1h1v-1h1v-1h1v-1z" fill="rgb(132,195,178)"/>
<path d="M63 58h2v1h1v1h1v1h1v1h1v1h1v2h-1v1h-1v1h-1v1h-1v1h-1v1h-2v-1h-1v-1h-1v-1h-1v-1
	h-1v-1h-1v-2h1v-1h1v-1h1v-1h1v-1h1v-1z" fill="rgb(132,195,178)"/>
<path d="M79 58h2v1h1v1h1v1h1v1h1v1h1v2h-1v1h-1v1h-1v1h-1v1h-1v1h-2v-1h-1v-1h-1v-1h-1v-1
	h-1v-1h-1v-2h1v-1h1v-1h1v-1h1v-1h1v-1z" fill="rgb(132,195,178)"/>
<path d="M95 58h2v1h1v1h1v1h1v1h1v1h1v2h-1v1h-1v1h-1v1h-1v1h-1v1h-2v-1h-1v-1h-1v-1h-1v-1
	h-1v-1h-1v-2h1v-1h1v-1h1v-1h1v-1h1v-1z" fill="rgb(132,195,178)"/>
<path d="M111 58h2v1h1v1h1v1h1v1h1v1h1v2h-1v1h-1v1h-1v1h-1v1h-1v1h-2v-1h-1v-1h-1v-1h-1
	v-1h-1v-1h-1v-2h1v-1h1v-1h1v-1h1v-1h1v-1z" fill="rgb(132,195,178)"/>
<path d="M127 58h2v1h1v1h1v1h1v1h1v1h1v2h-1v1h-1v1h-1v1h-1v1h-1v1h-2v-1h-1v-1h-1v-1h-1
	v-1h-1v-1h-1v-2h1v-1h1v-1h1v-1h1v-1h1v-1z" fill="rgb(132,195,178)"/>
<path d="M143 58h2v1h1v1h1v1h1v1h1v1h1v2h-1v1h-1v1h-1v1h-1v1h-1v1h-2v-1h-1v-1h-1v-1h-1
	v-1h-1v-1h-1v-2h1v-1h1v-1h1v-1h1v-1h1v-1z" fill="rgb(132,195,178)"/>
<path d="M159 58h2v1h1v1h1v1h1v1h1v1h1v2h-1v1h-1v1h-1v1h-1v1h-1v1h-2v-1h-1v-1h-1v-1h-1
	v-1h-1v-1h-1v-2h1v-1h1v-1h1v-1h1v-1h1v-1z" fill="rgb(132,195,178)"/>
<path d="M175 58h2v1h1v1h1v1h1v1h1v1h1v2h-1v1h-1v1h-1v1h-1v1h-1v1h-2v-1h-1v-1h-1v-1h-1
	v-1h-1v-1h-1v-2h1v-1h1v-1h1v-1h1v-1h1v-1z" fill="rgb(132,195,178)"/>
<path d="M191 58h2v1h1v1h1v1h1v1h1v1h1v2h-1v1h-1v1h-1v1h-1v1h-1v1h-2v-1h-1v-1h-1v-1h-1
	v-1h-1v-1h-1v-2h1v-1h1v-1h1v-1h1v-1h1v-1z" fill="rgb(132,195,178)"/>
<path d="M207 58h2v1h1v1h1v1h1v1h1v1h1v2h-1v1h-1v1h-1v1h-1v1h-1v1h-2v-1h-1v-1h-1v-1h-1
	v-1h-1v-1h-1v-2h1v-1h1v-1h1v-1h1v-1h1v-1z" fill="rgb(132,195,178)"/>
<path d="M223 58h2v1h1v1h1v1h1v1h1v1h1v2h-1v1h-1v1h-1v1h-1v1h-1v1h-2v-1h-1v-1h-1v-1h-1
	v-1h-1v-1h-1v-2h1v-1h1v-1h1v-1h1v-1h1v-1z" fill="rgb(132,195,178)"/>
<path d="M239 58h2v1h1v1h1v1h1v1h1v1h1v2h-1v1h-1v1h-1v1h-1v1h-1v1h-2v-1h-1v-1h-1v-1h-1
	v-1h-1v-1h-1v-2h1v-1h1v-1h1v-1h1v-1h1v-1z" fill="rgb(132,195,178)"/>
<path d="M255 58h2v1h1v1h1v1h1v1h1v1h1v2h-1v1h-1v1h-1v1h-1v1h-1v1h-2v-1h-1v-1h-1v-1h-1
	v-1h-1v-1h-1v-2h1v-1h1v-1h1v-1h1v-1h1v-1z" fill="rgb(132,195,178)"/>
<path d="M271 58h2v1h1v1h1v1h1v1h1v1h1v2h-1v1h-1v1h-1v1h-1v1h-1v1h-2v-1h-1v-1h-1v-1h-1
	v-1h-1v-1h-1v-2h1v-1h1v-1h1v-1h1v-1h1v-1z" fill="rgb(132,195,178)"/>
<path d="M287 58h2v1h1v1h1v1h1v1h1v1h1v2h-1v1h-1v1h-1v1h-1v1h-1v1h-2v-1h-1v-1h-1v-1h-1
	v-1h-1v-1h-1v-2h1v-1h1v-1h1v-1h1v-1h1v-1z" fill="rgb(132,195,178)"/>
<path d="M303 58h2v1h1v1h1v1h1v1h1v1h1v2h-1v1h-1v1h-1v1h-1v1h-1v1h-2v-1h-1v-1h-1v-1h-1
	v-1h-1v-1h-1v-2h1v-1h1v-1h1v-1h1v-1h1v-1z" fill="rgb(132,195,178)"/>
<path d="M319 58h2v1h1v1h1v1h1v1h1v1h1v2h-1v1h-1v1h-1v1h-1v1h-1v1h-2v-1h-1v-1h-1v-1h-1
	v-1h-1v-1h-1v-2h1v-1h1v-1h1v-1h1v-1h1v-1z" fill="rgb(132,195,178)"/>
<path d="M335 58h2v1h1v1h1v1h1v1h1v1h1v2h-1v1h-1v1h-1v1h-1v1h-1v1h-2v-1h-1v-1h-1v-1h-1
	v-1h-1v-1h-1v-2h1v-1h1v-1h1v-1h1v-1h1v-1z" fill="rgb(132,195,178)"/>
<path d="M351 58h2v1h1v1h1v1h1v1h1v1h1v2h-1v1h-1v1h-1v1h-1v1h-1v1h-2v-1h-1v-1h-1v-1h-1
	v-1h-1v-1h-1v-2h1v-1h1v-1h1v-1h1v-1h1v-1z" fill="rgb(132,195,178)"/>
<path d="M367 58h2v1h1v1h1v1h1v1h1v1h1v2h-1v1h-1v1h-1v1h-1v1h-1v1h-2v-1h-1v-1h-1v-1h-1
	v-1h-1v-1h-1v-2h1v-1h1v-1h1v-1h1v-1h1v-1z" fill="rgb(132,195,178)"/>
<path d="M383 58h2v1h1v1h1v1h1v1h1v1h1v2h-1v1h-1v1h-1v1h-1v1h-1v1h-2v-1h-1v-1h-1v-1h-1
	v-1h-1v-1h-1v-2h1v-1h1v-1h1v-1h1v-1h1v-1z" fill="rgb(132,195,178)"/>
<path d="M399 58h1v12h-1v-1h-1v-1h-1v-1h-1v-1h-1v-1h-1v-2h1v-1h1v-1h1v-1h1v-1h1v-1z" fill="rgb(132,195,178)"/>
<path d="M23 66h1v2h-1v1h-1v1h-1v1h-1v1h-1v1h-1v-2h1v-1h1v-1h1v-1h1v-1h1v-1z" fill="rgb(106,139,167)"/>
<path d="M24 66h1v1h1v1h1v1h1v1h1v1h1v2h-1v-1h-1v-1h-1v-1h-1v-1h-1v-1h-1v-2z" fill="rgb(124,163,196)"/>
<path d="M39 66h2v1h1v1h1v1h1v1h1v1h1v2h-1v-1h-1v-1h-1v-1h-1v-1h-1v-1h-2v1h-1v1h-1v1h-1
	v1h-1v1h-1v-2h1v-1h1v-1h1v-1h1v-1h1v-1z" fill="rgb(124,163,196)"/>
<path d="M55 66h2v1h1v1h1v1h1v1h1v1h1v2h-1v-1h-1v-1h-1v-1h-1v-1h-1v-1h-2v1h-1v1h-1v1h-1
	v1h-1v1h-1v-2h1v-1h1v-1h1v-1h1v-1h1v-1z" fill="rgb(124,163,196)"/>
<path d="M71 66h2v1h1v1h1v1h1v1h1v1h1v2h-1v-1h-1v-1h-1v-1h-1v-1h-1v-1h-2v1h-1v1h-1v1h-1
	v1h-1v1h-1v-2h1v-1h1v-1h1v-1h1v-1h1v-1z" fill="rgb(124,163,196)"/>
<path d="M87 66h2v1h1v1h1v1h1v1h1v1h1v2h-1v-1h-1v-1h-1v-1h-1v-1h-1v-1h-2v1h-1v1h-1v1h-1
	v1h-1v1h-1v-2h1v-1h1v-1h1v-1h1v-1h1v-1z" fill="rgb(124,163,196)"/>
<path d="M103 66h2v1h1v1h1v1h1v1h1v1h1v2h-1v-1h-1v-1h-1v-1h-1v-1h-1v-1h-2v1h-1v1h-1v1h-1
	v1h-1v1h-1v-2h1v-1h1v-1h1v-1h1v-1h1v-1z" fill="rgb(124,163,196)"/>
<path d="M119 66h2v1h1v1h1v1h1v1h1v1h1v2h-1v-1h-1v-1h-1v-1h-1v-1h-1v-1h-2v1h-1v1h-1v1h-1
	v1h-1v1h-1v-2h1v-1h1v-1h1v-1h1v-1h1v-1z" fill="rgb(124,163,196)"/>
<path d="M135 66h2v1h1v1h1v1h1v1h1v1h1v2h-1v-1h-1v-1h-1v-1h-1v-1h-1v-1h-2v1h-1v1h-1v1h-1
	v1h-1v1h-1v-2h1v-1h1v-1h1v-1h1v-1h1v-1z" fill="rgb(124,163,196)"/>
<path d="M151 66h2v1h1v1h1v1h1v1h1v1h1v2h-1v-1h-1v-1h-1v-1h-1v-1h-1v-1h-2v1h-1v1h-1v1h-1
	v1h-1v1h-1v-2h1v-1h1v-1h1v-1h1v-1h1v-1z" fill="rgb(124,163,196)"/>
<path d="M167 66h2v1h1v1h1v1h1v1h1v1h1v2h-1v-1h-1v-1h-1v-1h-1v-1h-1v-1h-2v1h-1v1h-1v1h-1
	v1h-1v1h-1v-2h1v-1h1v-1h1v-1h1v-1h1v-1z" fill="rgb(124,163,196)"/>
<path d="M183 66h2v1h1v1h1v1h1v1h1v1h1v2h-1v-1h-1v-1h-1v-1h-1v-1h-1v-1h-2v1h-1v1h-1v1h-1
	v1h-1v1h-1v-2h1v-1h1v-1h1v-1h1v-1h1v-1z" fill="rgb(124,163,196)"/>
<path d="M199 66h2v1h1v1h1v1h1v1h1v1h1v2h-1v-1h-1v-1h-1v-1h-1v-1h-1v-1h-2v1h-1v1h-1v1h-1
	v1h-1v1h-1v-2h1v-1h1v-1h1v-1h1v-1h1v-1z" fill="rgb(124,163,196)"/>
<path d="M215 66h2v1h1v1h1v1h1v1h1v1h1v2h-1v-1h-1v-1h-1v-1h-1v-1h-1v-1h-2v1h-1v1h-1v1h-1
	v1h-1v1h-1v-2h1v-1h1v-1h1v-1h1v-1h1v-1z" fill="rgb(124,163,196)"/>
<path d="M231 66h2v1h1v1h1v1h1v1h1v1h1v2h-1v-1h-1v-1h-1v-1h-1v-1h-1v-1h-2v1h-1v1h-1v1h-1
	v1h-1v1h-1v-2h1v-1h1v-1h1v-1h1v-1h1v-1z" fill="rgb(124,163,196)"/>
<path d="M247 66h2v1h1v1h1v1h1v1h1v1h1v2h-1v-1h-1v-1h-1v-1h-1v-1h-1v-1h-2v1h-1v1h-1v1h-1
	v1h-1v1h-1v-2h1v-1h1v-1h1v-1h1v-1h1v-1z" fill="rgb(124,163,196)"/>
<path d="M263 66h2v1h1v1h1v1h1v1h1v1h1v2h-1v-1h-1v-1h-1v-1h-1v-1h-1v-1h-2v1h-1v1h-1v1h-1
	v1h-1v1h-1v-2h1v-1h1v-1h1v-1h1v-1h1v-1z" fill="rgb(124,163,196)"/>
<path d="M279 66h2v1h1v1h1v1h1v1h1v1h1v2h-1v-1h-1v-1h-1v-1h-1v-1h-1v-1h-2v1h-1v1h-1v1h-1
	v1h-1v1h-1v-2h1v-1h1v-1h1v-1h1v-1h1v-1z" fill="rgb(124,163,196)"/>
<path d="M295 66h2v1h1v1h1v1h1v1h1v1h1v2h-1v-1h-1v-1h-1v-1h-1v-1h-1v-1h-2v1h-1v1h-1v1h-1
	v1h-1v1h-1v-2h1v-1h1v-1h1v-1h1v-1h1v-1z" fill="rgb(124,163,196)"/>
<path d="M311 66h2v1h1v1h1v1h1v1h1v1h1v2h-1v-1h-1v-1h-1v-1h-1v-1h-1v-1h-2v1h-1v1h-1v1h-1
	v1h-1v1h-1v-2h1v-1h1v-1h1v-1h1v-1h1v-1z" fill="rgb(124,163,196)"/>
<path d="M327 66h2v1h1v1h1v1h1v1h1v1h1v2h-1v-1h-1v-1h-1v-1h-1v-1h-1v-1h-2v1h-1v1h-1v1h-1
	v1h-1v1h-1v-2h1v-1h1v-1h1v-1h1v-1h1v-1z" fill="rgb(124,163,196)"/>
<path d="M343 66h2v1h1v1h1v1h1v1h1v1h1v2h-1v-1h-1v-1h-1v-1h-1v-1h-1v-1h-2v1h-1v1h-1v1h-1
	v1h-1v1h-1v-2h1v-1h1v-1h1v-1h1v-1h1v-1z" fill="rgb(124,163,196)"/>
<path d="M359 66h2v1h1v1h1v1h1v1h1v1h1v2h-1v-1h-1v-1h-1v-1h-1v-1h-1v-1h-2v1h-1v1h-1v1h-1
	v1h-1v1h-1v-2h1v-1h1v-1h1v-1h1v-1h1v-1z" fill="rgb(124,163,196)"/>
<path d="M375 66h2v1h1v1h1v1h1v1h1v1h1v2h-1v-1h-1v-1h-1v-1h-1v-1h-1v-1h-2v1h-1v1h-1v1h-1
	v1h-1v1h-1v-2h1v-1h1v-1h1v-1h1v-1h1v-1z" fill="rgb(124,163,196)"/>
<path d="M391 66h2v1h1v1h1v1h1v1h1v1h1v2h-1v-1h-1v-1h-1v-1h-1v-1h-1v-1h-2v1h-1v1h-1v1h-1
	v1h-1v1h-1v-2h1v-1h1v-1h1v-1h1v-1h1v-1z" fill="rgb(124,163,196)"/>
<path d="M23 68h1v10h-1v-1h-1v-1h-1v-1h-1v-1h-1v-2h1v-1h1v-1h1v-1h1v-1z" fill="rgb(117,155,186)"/>
<path d="M24 68h1v1h1v1h1v1h1v1h1v2h-1v1h-1v1h-1v1h-1v1h-1v-10z" fill="rgb(138,182,219)"/>
<path d="M39 68h2v1h1v1h1v1h1v1h1v2h-1v1h-1v1h-1v1h-1v1h-2v-1h-1v-1h-1v-1h-1v-1h-1v-2h1
	v-1h1v-1h1v-1h1v-1z" fill="rgb(138,182,219)"/>
<path d="M55 68h2v1h1v1h1v1h1v1h1v2h-1v1h-1v1h-1v1h-1v1h-2v-1h-1v-1h-1v-1h-1v-1h-1v-2h1
	v-1h1v-1h1v-1h1v-1z" fill="rgb(138,182,219)"/>
<path d="M71 68h2v1h1v1h1v1h1v1h1v2h-1v1h-1v1h-1v1h-1v1h-2v-1h-1v-1h-1v-1h-1v-1h-1v-2h1
	v-1h1v-1h1v-1h1v-1z" fill="rgb(138,182,219)"/>
<path d="M87 68h2v1h1v1h1v1h1v1h1v2h-1v1h-1v1h-1v1h-1v1h-2v-1h-1v-1h-1v-1h-1v-1h-1v-2h1
	v-1h1v-1h1v-1h1v-1z" fill="rgb(138,182,219)"/>
<path d="M103 68h2v1h1v1h1v1h1v1h1v2h-1v1h-1v1h-1v1h-1v1h-2v-1h-1v-1h-1v-1h-1v-1h-1v-2h1
	v-1h1v-1h1v-1h1v-1z" fill="rgb(138,182,219)"/>
<path d="M119 68h2v1h1v1h1v1h1v1h1v2h-1v1h-1v1h-1v1h-1v1h-2v-1h-1v-1h-1v-1h-1v-1h-1v-2h1
	v-1h1v-1h1v-1h1v-1z" fill="rgb(138,182,219)"/>
<path d="M135 68h2v1h1v1h1v1h1v1h1v2h-1v1h-1v1h-1v1h-1v1h-2v-1h-1v-1h-1v-1h-1v-1h-1v-2h1
	v-1h1v-1h1v-1h1v-1z" fill="rgb(138,182,219)"/>
<path d="M151 68h2v1h1v1h1v1h1v1h1v2h-1v1h-1v1h-1v1h-1v1h-2v-1h-1v-1h-1v-1h-1v-1h-1v-2h1
	v-1h1v-1h1v-1h1v-1z" fill="rgb(138,182,219)"/>
<path d="M167 68h2v1h1v1h1v1h1v1h1v2h-1v1h-1v1h-1v1h-1v1h-2v-1h-1v-1h-1v-1h-1v-1h-1v-2h1
	v-1h1v-1h1v-1h1v-1z" fill="rgb(138,182,219)"/>
<path d="M183 68h2v1h1v1h1v1h1v1h1v2h-1v1h-1v1h-1v1h-1v1h-2v-1h-1v-1h-1v-1h-1v-1h-1v-2h1
	v-1h1v-1h1v-1h1v-1z" fill="rgb(138,182,219)"/>
<path d="M199 68h2v1h1v1h1v1h1v1h1v2h-1v1h-1v1h-1v1h-1v1h-2v-1h-1v-1h-1v-1h-1v-1h-1v-2h1
	v-1h1v-1h1v-1h1v-1z" fill="rgb(138,182,219)"/>
<path d="M215 68h2v1h1v1h1v1h1v1h1v2h-1v1h-1v1h-1v1h-1v1h-2v-1h-1v-1h-1v-1h-1v-1h-1v-2h1
	v-1h1v-1h1v-1h1v-1z" fill="rgb(138,182,219)"/>
<path d="M231 68h2v1h1v1h1v1h1v1h1v2h-1v1h-1v1h-1v1h-1v1h-2v-1h-1v-1h-1v-1h-1v-1h-1v-2h1
	v-1h1v-1h1v-1h1v-1z" fill="rgb(138,182,219)"/>
<path d="M247 68h2v1h1v1h1v1h1v1h1v2h-1v1h-1v1h-1v1h-1v1h-2v-1h-1v-1h-1v-1h-1v-1h-1v-2h1
	v-1h1v-1h1v-1h1v-1z" fill="rgb(138,182,219)"/>
<path d="M263 68h2v1h1v1h1v1h1v1h1v2h-1v1h-1v1h-1v1h-1v1h-2v-1h-1v-1h-1v-1h-1v-1h-1v-2h1
	v-1h1v-1h1v-1h1v-1z" fill="rgb(138,182,219)"/>
<path d="M279 68h2v1h1v1h1v1h1v1h1v2h-1v1h-1v1h-1v1h-1v1h-2v-1h-1v-1h-1v-1h-1v-1h-1v-2h1
	v-1h1v-1h1v-1h1v-1z" fill="rgb(138,182,219)"/>
<path d="M295 68h2v1h1v1h1v1h1v1h1v2h-1v1h-1v1h-1v1h-1v1h-2v-1h-1v-1h-1v-1h-1v-1h-1v-2h1
	v-1h1v-1h1v-1h1v-1z" fill="rgb(138,182,219)"/>
<path d="M311 68h2v1h1v1h1v1h1v1h1v2h-1v1h-1v1h-1v1h-1v1h-2v-1h-1v-1h-1v-1h-1v-1h-1v-2h1
	v-1h1v-1h1v-1h1v-1z" fill="rgb(138,182,219)"/>
<path d="M327 68h2v1h1v1h1v1h1v1h1v2h-1v1h-1v1h-1v1h-1v1h-2v-1h-1v-1h-1v-1h-1v-1h-1v-2h1
	v-1h1v-1h1v-1h1v-1z" fill="rgb(138,182,219)"/>
<path d="M343 68h2v1h1v1h1v1h1v1h1v2h-1v1h-1v1h-1v1h-1v1h-2v-1h-1v-1h-1v-1h-1v-1h-1v-2h1
	v-1h1v-1h1v-1h1v-1z" fill="rgb(138,182,219)"/>
<path d="M359 68h2v1h1v1h1v1h1v1h1v2h-1v1h-1v1h-1v1h-1v1h-2v-1h-1v-1h-1v-1h-1v-1h-1v-2h1
	v-1h1v-1h1v-1h1v-1z" fill="rgb(138,182,219)"/>
<path d="M375 68h2v1h1v1h1v1h1v1h1v2h-1v1h-1v1h-1v1h-1v1h-2v-1h-1v-1h-1v-1h-1v-1h-1v-2h1
	v-1h1v-1h1v-1h1v-1z" fill="rgb(138,182,219)"/>
<path d="M391 68h2v1h1v1h1v1h1v1h1v2h-1v1h-1v1h-1v1h-1v1h-2v-1h-1v-1h-1v-1h-1v-1h-1v-2h1
	v-1h1v-1h1v-1h1v-1z" fill="rgb(138,182,219)"/>
<path d="M16 74h1v1h1v1h1v1h1v1h1v1h1v2h-1v1h-1v1h-1v1h-1v1h-1v1h-1v-12z" fill="rgb(112,166,151)"/>
<path d="M31 74h2v1h1v1h1v1h1v1h1v1h1v2h-1v1h-1v1h-1v1h-1v1h-1v1h-2v-1h-1v-1h-1v-1h-1v-1
	h-1v-1h-1v-2h1v-1h1v-1h1v-1h1v-1h1v-1z" fill="rgb(132,195,178)"/>
<path d="M47 74h2v1h1v1h1v1h1v1h1v1h1v2h-1v1h-1v1h-1v1h-1v1h-1v1h-2v-1h-1v-1h-1v-1h-1v-1
	h-1v-1h-1v-2h1v-1h1v-1h1v-1h1v-1h1v-1z" fill="rgb(132,195,178)"/>
<path d="M63 74h2v1h1v1h1v1h1v1h1v1h1v2h-1v1h-1v1h-1v1h-1v1h-1v1h-2v-1h-1v-1h-1v-1h-1v-1
	h-1v-1h-1v-2h1v-1h1v-1h1v-1h1v-1h1v-1z" fill="rgb(132,195,178)"/>
<path d="M79 74h2v1h1v1h1v1h1v1h1v1h1v2h-1v1h-1v1h-1v1h-1v1h-1v1h-2v-1h-1v-1h-1v-1h-1v-1
	h-1v-1h-1v-2h1v-1h1v-1h1v-1h1v-1h1v-1z" fill="rgb(132,195,178)"/>
<path d="M95 74h2v1h1v1h1v1h1v1h1v1h1v2h-1v1h-1v1h-1v1h-1v1h-1v1h-2v-1h-1v-1h-1v-1h-1v-1
	h-1v-1h-1v-2h1v-1h1v-1h1v-1h1v-1h1v-1z" fill="rgb(132,195,178)"/>
<path d="M111 74h2v1h1v1h1v1h1v1h1v1h1v2h-1v1h-1v1h-1v1h-1v1h-1v1h-2v-1h-1v-1h-1v-1h-1
	v-1h-1v-1h-1v-2h1v-1h1v-1h1v-1h1v-1h1v-1z" fill="rgb(132,195,178)"/>
<path d="M127 74h2v1h1v1h1v1h1v1h1v1h1v2h-1v1h-1v1h-1v1h-1v1h-1v1h-2v-1h-1v-1h-1v-1h-1
	v-1h-1v-1h-1v-2h1v-1h1v-1h1v-1h1v-1h1v-1z" fill="rgb(132,195,178)"/>
<path d="M143 74h2v1h1v1h1v1h1v1h1v1h1v2h-1v1h-1v1h-1v1h-1v1h-1v1h-2v-1h-1v-1h-1v-1h-1
	v-1h-1v-1h-1v-2h1v-1h1v-1h1v-1h1v-1h1v-1z" fill="rgb(132,195,178)"/>
<path d="M159 74h2v1h1v1h1v1h1v1h1v1h1v2h-1v1h-1v1h-1v1h-1v1h-1v1h-2v-1h-1v-1h-1v-1h-1
	v-1h-1v-1h-1v-2h1v-1h1v-1h1v-1h1v-1h1v-1z" fill="rgb(132,195,178)"/>
<path d="M175 74h2v1h1v1h1v1h1v1h1v1h1v2h-1v1h-1v1h-1v1h-1v1h-1v1h-2v-1h-1v-1h-1v-1h-1
	v-1h-1v-1h-1v-2h1v-1h1v-1h1v-1h1v-1h1v-1z" fill="rgb(132,195,178)"/>
<path d="M191 74h2v1h1v1h1v1h1v1h1v1h1v2h-1v1h-1v1h-1v1h-1v1h-1v1h-2v-1h-1v-1h-1v-1h-1
	v-1h-1v-1h-1v-2h1v-1h1v-1h1v-1h1v-1h1v-1z" fill="rgb(132,195,178)"/>
<path d="M207 74h2v1h1v1h1v1h1v1h1v1h1v2h-1v1h-1v1h-1v1h-1v1h-1v1h-2v-1h-1v-1h-1v-1h-1
	v-1h-1v-1h-1v-2h1v-1h1v-1h1v-1h1v-1h1v-1z" fill="rgb(132,195,178)"/>
<path d="M223 74h2v1h1v1h1v1h1v1h1v1h1v2h-1v1h-1v1h-1v1h-1v1h-1v1h-2v-1h-1v-1h-1v-1h-1
	v-1h-1v-1h-1v-2h1v-1h1v-1h1v-1h1v-1h1v-1z" fill="rgb(132,195,178)"/>
<path d="M239 74h2v1h1v1h1v1h1v1h1v1h1v2h-1v1h-1v1h-1v1h-1v1h-1v1h-2v-1h-1v-1h-1v-1h-1
	v-1h-1v-1h-1v-2h1v-1h1v-1h1v-1h1v-1h1v-1z" fill="rgb(132,195,178)"/>
<path d="M255 74h2v1h1v1h1v1h1v1h1v1h1v2h-1v1h-1v1h-1v1h-1v1h-1v1h-2v-1h-1v-1h-1v-1h-1
	v-1h-1v-1h-1v-2h1v-1h1v-1h1v-1h1v-1h1v-1z" fill="rgb(132,195,178)"/>
<path d="M271 74h2v1h1v1h1v1h1v1h1v1h1v2h-1v1h-1v1h-1v1h-1v1h-1v1h-2v-1h-1v-1h-1v-1h-1
	v-1h-1v-1h-1v-2h1v-1h1v-1h1v-1h1v-1h1v-1z" fill="rgb(132,195,178)"/>
<path d="M287 74h2v1h1v1h1v1h1v1h1v1h1v2h-1v1h-1v1h-1v1h-1v1h-1v1h-2v-1h-1v-1h-1v-1h-1
	v-1h-1v-1h-1v-2h1v-1h1v-1h1v-1h1v-1h1v-1z" fill="rgb(132,195,178)"/>
<path d="M303 74h2v1h1v1h1v1h1v1h1v1h1v2h-1v1h-1v1h-1v1h-1v1h-1v1h-2v-1h-1v-1h-1v-1h-1
	v-1h-1v-1h-1v-2h1v-1h1v-1h1v-1h1v-1h1v-1z" fill="rgb(132,195,178)"/>
<path d="M319 74h2v1h1v1h1v1h1v1h1v1h1v2h-1v1h-1v1h-1v1h-1v1h-1v1h-2v-1h-1v-1h-1v-1h-1
	v-1h-1v-1h-1v-2h1v-1h1v-1h1v-1h1v-1h1v-1z" fill="rgb(132,195,178)"/>
<path d="M335 74h2v1h1v1h1v1h1v1h1v1h1v2h-1v1h-1v1h-1v1h-1v1h-1v1h-2v-1h-1v-1h-1v-1h-1
	v-1h-1v-1h-1v-2h1v-1h1v-1h1v-1h1v-1h1v-1z" fill="rgb(132,195,178)"/>
<path d="M351 74h2v1h1v1h1v1h1v1h1v1h1v2h-1v1h-1v1h-1v1h-1v1h-1v1h-2v-1h-1v-1h-1v-1h-1
	v-1h-1v-1h-1v-2h1v-1h1v-1h1v-1h1v-1h1v-1z" fill="rgb(132,195,178)"/>
<path d="M367 74h2v1h1v1h1v1h1v1h1v1h1v2h-1v1h-1v1h-1v1h-1v1h-1v1h-2v-1h-1v-1h-1v-1h-1
	v-1h-1v-1h-1v-2h1v-1h1v-1h1v-1h1v-1h1v-1z" fill="rgb(132,195,178)"/>
<path d="M383 74h2v1h1v1h1v1h1v1h1v1h1v2h-1v1h-1v1h-1v1h-1v1h-1v1h-2v-1h-1v-1h-1v-1h-1
	v-1h-1v-1h-1v-2h1v-1h1v-1h1v-1h1v-1h1v-1z" fill="rgb(132,195,178)"/>
<path d="M399 74h1v12h-1v-1h-1v-1h-1v-1h-1v-1h-1v-1h-1v-2h1v-1h1v-1h1v-1h1v-1h1v-1z" fill="rgb(132,195,178)"/>
<path d="M23 82h1v2h-1v1h-1v1h-1v1h-1v1h-1v1h-1v-2h1v-1h1v-1h1v-1h1v-1h1v-1z" fill="rgb(106,139,167)"/>
<path d="M24 82h1v1h1v1h1v1h1v1h1v1h1v2h-1v-1h-1v-1h-1v-1h-1v-1h-1v-1h-1v-2z" fill="rgb(124,163,196)"/>
<path d="M39 82h2v1h1v1h1v1h1v1h1v1h1v2h-1v-1h-1v-1h-1v-1h-1v-1h-1v-1h-2v1h-1v1h-1v1h-1
	v1h-1v1h-1v-2h1v-1h1v-1h1v-1h1v-1h1v-1z" fill="rgb(124,163,196)"/>
<path d="M55 82h2v1h1v1h1v1h1v1h1v1h1v2h-1v-1h-1v-1h-1v-1h-1v-1h-1v-1h-2v1h-1v1h-1v1h-1
	v1h-1v1h-1v-2h1v-1h1v-1h1v-1h1v-1h1v-1z" fill="rgb(124,163,196)"/>
<path d="M71 82h2v1h1v1h1v1h1v1h1v1h1v2h-1v-1h-1v-1h-1v-1h-1v-1h-1v-1h-2v1h-1v1h-1v1h-1
	v1h-1v1h-1v-2h1v-1h1v-1h1v-1h1v-1h1v-1z" fill="rgb(124,163,196)"/>
<path d="M87 82h2v1h1v1h1v1h1v1h1v1h1v2h-1v-1h-1v-1h-1v-1h-1v-1h-1v-1h-2v1h-1v1h-1v1h-1
	v1h-1v1h-1v-2h1v-1h1v-1h1v-1h1v-1h1v-1z" fill="rgb(124,163,196)"/>
<path d="M103 82h2v1h1v1h1v1h1v1h1v1h1v2h-1v-1h-1v-1h-1v-1h-1v-1h-1v-1h-2v1h-1v1h-1v1h-1
	v1h-1v1h-1v-2h1v-1h1v-1h1v-1h1v-1h1v-1z" fill="rgb(124,163,196)"/>
<path d="M119 82h2v1h1v1h1v1h1v1h1v1h1v2h-1v-1h-1v-1h-1v-1h-1v-1h-1v-1h-2v1h-1v1h-1v1h-1
	v1h-1v1h-1v-2h1v-1h1v-1h1v-1h1v-1h1v-1z" fill="rgb(124,163,196)"/>
<path d="M135 82h2v1h1v1h1v1h1v1h1v1h1v2h-1v-1h-1v-1h-1v-1h-1v-1h-1v-1h-2v1h-1v1h-1v1h-1
	v1h-1v1h-1v-2h1v-1h1v-1h1v-1h1v-1h1v-1z" fill="rgb(124,163,196)"/>
<path d="M151 82h2v1h1v1h1v1h1v1h1v1h1v2h-1v-1h-1v-1h-1v-1h-1v-1h-1v-1h-2v1h-1v1h-1v1h-1
	v1h-1v1h-1v-2h1v-1h1v-1h1v-1h1v-1h1v-1z" fill="rgb(124,163,196)"/>
<path d="M167 82h2v1h1v1h1v1h1v1h1v1h1v2h-1v-1h-1v-1h-1v-1h-1v-1h-1v-1h-2v1h-1v1h-1v1h-1
	v1h-1v1h-1v-2h1v-1h1v-1h1v-1h1v-1h1v-1z" fill="rgb(124,163,196)"/>
<path d="M183 82h2v1h1v1h1v1h1v1h1v1h1v2h-1v-1h-1v-1h-1v-1h-1v-1h-1v-1h-2v1h-1v1h-1v1h-1
	v1h-1v1h-1v-2h1v-1h1v-1h1v-1h1v-1h1v-1z" fill="rgb(124,163,196)"/>
<path d="M199 82h2v1h1v1h1v1h1v1h1v1h1v2h-1v-1h-1v-1h-1v-1h-1v-1h-1v-1h-2v1h-1v1h-1v1h-1
	v1h-1v1h-1v-2h1v-1h1v-1h1v-1h1v-1h1v-1z" fill="rgb(124,163,196)"/>
<path d="M215 82h2v1h1v1h1v1h1v1h1v1h1v2h-1v-1h-1v-1h-1v-1h-1v-1h-1v-1h-2v1h-1v1h-1v1h-1
	v1h-1v1h-1v-2h1v-1h1v-1h1v-1h1v-1h1v-1z" fill="rgb(124,163,196)"/>
<path d="M231 82h2v1h1v1h1v1h1v1h1v1h1v2h-1v-1h-1v-1h-1v-1h-1v-1h-1v-1h-2v1h-1v1h-1v1h-1
	v1h-1v1h-1v-2h1v-1h1v-1h1v-1h1v-1h1v-1z" fill="rgb(124,163,196)"/>
<path d="M247 82h2v1h1v1h1v1h1v1h1v1h1v2h-1v-1h-1v-1h-1v-1h-1v-1h-1v-1h-2v1h-1v1h-1v1h-1
	v1h-1v1h-1v-2h1v-1h1v-1h1v-1h1v-1h1v-1z" fill="rgb(124,163,196)"/>
<path d="M263 82h2v1h1v1h1v1h1v1h1v1h1v2h-1v-1h-1v-1h-1v-1h-1v-1h-1v-1h-2v1h-1v1h-1v1h-1
	v1h-1v1h-1v-2h1v-1h1v-1h1v-1h1v-1h1v-1z" fill="rgb(124,163,196)"/>
<path d="M279 82h2v1h1v1h1v1h1v1h1v1h1v2h-1v-1h-1v-1h-1v-1h-1v-1h-1v-1h-2v1h-1v1h-1v1h-1
	v1h-1v1h-1v-2h1v-1h1v-1h1v-1h1v-1h1v-1z" fill="rgb(124,163,196)"/>
<path d="M295 82h2v1h1v1h1v1h1v1h1v1h1v2h-1v-1h-1v-1h-1v-1h-1v-1h-1v-1h-2v1h-1v1h-1v1h-1
	v1h-1v1h-1v-2h1v-1h1v-1h1v-1h1v-1h1v-1z" fill="rgb(124,163,196)"/>
<path d="M311 82h2v1h1v1h1v1h1v1h1v1h1v2h-1v-1h-1v-1h-1v-1h-1v-1h-1v-1h-2v1h-1v1h-1v1h-1
	v1h-1v1h-1v-2h1v-1h1v-1h1v-1h1v-1h1v-1z" fill="rgb(124,163,196)"/>
<path d="M327 82h2v1h1v1h1v1h1v1h1v1h1v2h-1v-1h-1v-1h-1v-1h-1v-1h-1v-1h-2v1h-1v1h-1v1h-1
	v1h-1v1h-1v-2h1v-1h1v-1h1v-1h1v-1h1v-1z" fill="rgb(124,163,196)"/>
<path d="M343 82h2v1h1v1h1v1h1v1h1v1h1v2h-1v-1h-1v-1h-1v-1h-1v-1h-1v-1h-2v1h-1v1h-1v1h-1
	v1h-1v1h-1v-2h1v-1h1v-1h1v-1h1v-1h1v-1z" fill="rgb(124,163,196)"/>
<path d="M359 82h2v1h1v1h1v1h1v1h1v1h1v2h-1v-1h-1v-1h-1v-1h-1v-1h-1v-1h-2v1h-1v1h-1v1h-1
	v1h-1v1h-1v-2h1v-1h1v-1h1v-1h1v-1h1v-1z" fill="rgb(124,163,196)"/>
<path d="M375 82h2v1h1v1h1v1h1v1h1v1h1v2h-1v-1h-1v-1h-1v-1h-1v-1h-1v-1h-2v1h-1v1h-1v1h-1
	v1h-1v1h-1v-2h1v-1h1v-1h1v-1h1v-1h1v-1z" fill="rgb(124,163,196)"/>
<path d="M391 82h2v1h1v1h1v1h1v1h1v1h1v2h-1v-1h-1v-1h-1v-1h-1v-1h-1v-1h-2v1h-1v1h-1v1h-1
	v1h-1v1h-1v-2h1v-1h1v-1h1v-1h1v-1h1v-1z" fill="rgb(124,163,196)"/>
<path d="M23 84h1v10h-1v-1h-1v-1h-1v-1h-1v-1h-1v-2h1v-1h1v-1h1v-1h1v-1z" fill="rgb(117,155,186)"/>
<path d="M24 84h1v1h1v1h1v1h1v1h1v2h-1v1h-1v1h-1v1h-1v1h-1v-10z" fill="rgb(138,182,219)"/>
<path d="M39 84h2v1h1v1h1v1h1v1h1v2h-1v1h-1v1h-1v1h-1v1h-2v-1h-1v-1h-1v-1h-1v-1h-1v-2h1
	v-1h1v-1h1v-1h1v-1z" fill="rgb(138,182,219)"/>
<path d="M55 84h2v1h1v1h1v1h1v1h1v2h-1v1h-1v1h-1v1h-1v1h-2v-1h-1v-1h-1v-1h-1v-1h-1v-2h1
	v-1h1v-1h1v-1h1v-1z" fill="rgb(138,182,219)"/>
<path d="M71 84h2v1h1v1h1v1h1v1h1v2h-1v1h-1v1h-1v1h-1v1h-2v-1h-1v-1h-1v-1h-1v-1h-1v-2h1
	v-1h1v-1h1v-1h1v-1z" fill="rgb(138,182,219)"/>
<path d="M87 84h2v1h1v1h1v1h1v1h1v2h-1v1h-1v1h-1v1h-1v1h-2v-1h-1v-1h-1v-1h-1v-1h-1v-2h1
	v-1h1v-1h1v-1h1v-1z" fill="rgb(138,182,219)"/>
<path d="M103 84h2v1h1v1h1v1h1v1h1v2h-1v1h-1v1h-1v1h-1v1h-2v-1h-1v-1h-1v-1h-1v-1h-1v-2h1
	v-1h1v-1h1v-1h1v-1z" fill="rgb(138,182,219)"/>
<path d="M119 84h2v1h1v1h1v1h1v1h1v2h-1v1h-1v1h-1v1h-1v1h-2v-1h-1v-1h-1v-1h-1v-1h-1v-2h1
	v-1h1v-1h1v-1h1v-1z" fill="rgb(138,182,219)"/>
<path d="M135 84h2v1h1v1h1v1h1v1h1v2h-1v1h-1v1h-1v1h-1v1h-2v-1h-1v-1h-1v-1h-1v-1h-1v-2h1
	v-1h1v-1h1v-1h1v-1z" fill="rgb(138,182,219)"/>
<path d="M151 84h2v1h1v1h1v1h1v1h1v2h-1v1h-1v1h-1v1h-1v1h-2v-1h-1v-1h-1v-1h-1v-1h-1v-2h1
	v-1h1v-1h1v-1h1v-1z" fill="rgb(138,182,219)"/>
<path d="M167 84h2v1h1v1h1v1h1v1h1v2h-1v1h-1v1h-1v1h-1v1h-2v-1h-1v-1h-1v-1h-1v-1h-1v-2h1
	v-1h1v-1h1v-1h1v-1z" fill="rgb(138,182,219)"/>
<path d="M183 84h2v1h1v1h1v1h1v1h1v2h-1v1h-1v1h-1v1h-1v1h-2v-1h-1v-1h-1v-1h-1v-1h-1v-2h1
	v-1h1v-1h1v-1h1v-1z" fill="rgb(138,182,219)"/>
<path d="M199 84h2v1h1v1h1v1h1v1h1v2h-1v1h-1v1h-1v1h-1v1h-2v-1h-1v-1h-1v-1h-1v-1h-1v-2h1
	v-1h1v-1h1v-1h1v-1z" fill="rgb(138,182,219)"/>
<path d="M215 84h2v1h1v1h1v1h1v1h1v2h-1v1h-1v1h-1v1h-1v1h-2v-1h-1v-1h-1v-1h-1v-1h-1v-2h1
	v-1h1v-1h1v-1h1v-1z" fill="rgb(138,182,219)"/>
<path d="M231 84h2v1h1v1h1v1h1v1h1v2h-1v1h-1v1h-1v1h-1v1h-2v-1h-1v-1h-1v-1h-1v-1h-1v-2h1
	v-1h1v-1h1v-1h1v-1z" fill="rgb(138,182,219)"/>
<path d="M247 84h2v1h1v1h1v1h1v1h1v2h-1v1h-1v1h-1v1h-1v1h-2v-1h-1v-1h-1v-1h-1v-1h-1v-2h1
	v-1h1v-1h1v-1h1v-1z" fill="rgb(138,182,219)"/>
<path d="M263 84h2v1h1v1h1v1h1v1h1v2h-1v1h-1v1h-1v1h-1v1h-2v-1h-1v-1h-1v-1h-1v-1h-1v-2h1
	v-1h1v-1h1v-1h1v-1z" fill="rgb(138,182,219)"/>
<path d="M279 84h2v1h1v1h1v1h1v1h1v2h-1v1h-1v1h-1v1h-1v1h-2v-1h-1v-1h-1v-1h-1v-1h-1v-2h1
	v-1h1v-1h1v-1h1v-1z" fill="rgb(138,182,219)"/>
<path d="M295 84h2v1h1v1h1v1h1v1h1v2h-1v1h-1v1h-1v1h-1v1h-2v-1h-1v-1h-1v-1h-1v-1h-1v-2h1
	v-1h1v-1h1v-1h1v-1z" fill="rgb(138,182,219)"/>
<path d="M311 84h2v1h1v1h1v1h1v1h1v2h-1v1h-1v1h-1v1h-1v1h-2v-1h-1v-1h-1v-1h-1v-1h-1v-2h1
	v-1h1v-1h1v-1h1v-1z" fill="rgb(138,182,219)"/>
<path d="M327 84h2v1h1v1h1v1h1v1h1v2h-1v1h-1v1h-1v1h-1v1h-2v-1h-1v-1h-1v-1h-1v-1h-1v-2h1
	v-1h1v-1h1v-1h1v-1z" fill="rgb(138,182,219)"/>
<path d="M343 84h2v1h1v1h1v1h1v1h1v2h-1v1h-1v1h-1v1h-1v1h-2v-1h-1v-1h-1v-1h-1v-1h-1v-2h1
	v-1h1v-1h1v-1h1v-1z" fill="rgb(138,182,219)"/>
<path d="M359 84h2v1h1v1h1v1h1v1h1v2h-1v1h-1v1h-1v1h-1v1h-2v-1h-1v-1h-1v-1h-1v-1h-1v-2h1
	v-1h1v-1h1v-1h1v-1z" fill="rgb(138,182,219)"/>
<path d="M375 84h2v1h1v1h1v1h1v1h1v2h-1v1h-1v1h-1v1h-1v1h-2v-1h-1v-1h-1v-1h-1v-1h-1v-2h1
	v-1h1v-1h1v-1h1v-1z" fill="rgb(138,182,219)"/>
<path d="M391 84h2v1h1v1h1v1h1v1h1v2h-1v1h-1v1h-1v1h-1v1h-2v-1h-1v-1h-1v-1h-1v-1h-1v-2h1
	v-1h1v-1h1v-1h1v-1z" fill="rgb(138,182,219)"/>
<path d="M16 90h1v1h1v1h1v1h1v1h1v1h1v2h-1v1h-1v1h-1v1h-1v1h-1v1h-1v-12z" fill="rgb(112,166,151)"/>
<path d="M31 90h2v1h1v1h1v1h1v1h1v1h1v2h-1v1h-1v1h-1v1h-1v1h-1v1h-2v-1h-1v-1h-1v-1h-1v-1
	h-1v-1h-1v-2h1v-1h1v-1h1v-1h1v-1h1v-1z" fill="rgb(132,195,178)"/>
<path d="M47 90h2v1h1v1h1v1h1v1h1v1h1v2h-1v1h-1v1h-1v1h-1v1h-1v1h-2v-1h-1v-1h-1v-1h-1v-1
	h-1v-1h-1v-2h1v-1h1v-1h1v-1h1v-1h1v-1z" fill="rgb(132,195,178)"/>
<path d="M63 90h2v1h1v1h1v1h1v1h1v1h1v2h-1v1h-1v1h-1v1h-1v1h-1v1h-2v-1h-1v-1h-1v-1h-1v-1
	h-1v-1h-1v-2h1v-1h1v-1h1v-1h1v-1h1v-1z" fill="rgb(132,195,178)"/>
<path d="M79 90h2v1h1v1h1v1h1v1h1v1h1v2h-1v1h-1v1h-1v1h-1v1h-1v1h-2v-1h-1v-1h-1v-1h-1v-1
	h-1v-1h-1v-2h1v-1h1v-1h1v-1h1v-1h1v-1z" fill="rgb(132,195,178)"/>
<path d="M95 90h2v1h1v1h1v1h1v1h1v1h1v2h-1v1h-1v1h-1v1h-1v1h-1v1h-2v-1h-1v-1h-1v-1h-1v-1
	h-1v-1h-1v-2h1v-1h1v-1h1v-1h1v-1h1v-1z" fill="rgb(132,195,178)"/>
<path d="M111 90h2v1h1v1h1v1h1v1h1v1h1v2h-1v1h-1v1h-1v1h-1v1h-1v1h-2v-1h-1v-1h-1v-1h-1
	v-1h-1v-1h-1v-2h1v-1h1v-1h1v-1h1v-1h1v-1z" fill="rgb(132,195,178)"/>
<path d="M127 90h2v1h1v1h1v1h1v1h1v1h1v2h-1v1h-1v1h-1v1h-1v1h-1v1h-2v-1h-1v-1h-1v-1h-1
	v-1h-1v-1h-1v-2h1v-1h1v-1h1v-1h1v-1h1v-1z" fill="rgb(132,195,178)"/>
<path d="M143 90h2v1h1v1h1v1h1v1h1v1h1v2h-1v1h-1v1h-1v1h-1v1h-1v1h-2v-1h-1v-1h-1v-1h-1
	v-1h-1v-1h-1v-2h1v-1h1v-1h1v-1h1v-1h1v-1z" fill="rgb(132,195,178)"/>
<path d="M159 90h2v1h1v1h1v1h1v1h1v1h1v2h-1v1h-1v1h-1v1h-1v1h-1v1h-2v-1h-1v-1h-1v-1h-1
	v-1h-1v-1h-1v-2h1v-1h1v-1h1v-1h1v-1h1v-1z" fill="rgb(132,195,178)"/>
<path d="M175 90h2v1h1v1h1v1h1v1h1v1h1v2h-1v1h-1v1h-1v1h-1v1h-1v1h-2v-1h-1v-1h-1v-1h-1
	v-1h-1v-1h-1v-2h1v-1h1v-1h1v-1h1v-1h1v-1z" fill="rgb(132,195,178)"/>
<path d="M191 90h2v1h1v1h1v1h1v1h1v1h1v2h-1v1h-1v1h-1v1h-1v1h-1v1h-2v-1h-1v-1h-1v-1h-1
	v-1h-1v-1h-1v-2h1v-1h1v-1h1v-1h1v-1h1v-1z" fill="rgb(132,195,178)"/>
<path d="M207 90h2v1h1v1h1v1h1v1h1v1h1v2h-1v1h-1v1h-1v1h-1v1h-1v1h-2v-1h-1v-1h-1v-1h-1
	v-1h-1v-1h-1v-2h1v-1h1v-1h1v-1h1v-1h1v-1z" fill="rgb(132,195,178)"/>
<path d="M223 90h2v1h1v1h1v1h1v1h1v1h1v2h-1v1h-1v1h-1v1h-1v1h-1v1h-2v-1h-1v-1h-1v-1h-1
	v-1h-1v-1h-1v-2h1v-1h1v-1h1v-1h1v-1h1v-1z" fill="rgb(132,195,178)"/>
<path d="M239 90h2v1h1v1h1v1h1v1h1v1h1v2h-1v1h-1v1h-1v1h-1v1h-1v1h-2v-1h-1v-1h-1v-1h-1
	v-1h-1v-1h-1v-2h1v-1h1v-1h1v-1h1v-1h1v-1z" fill="rgb(132,195,178)"/>
<path d="M255 90h2v1h1v1h1v1h1v1h1v1h1v2h-1v1h-1v1h-1v1h-1v1h-1v1h-2v-1h-1v-1h-1v-1h-1
	v-1h-1v-1h-1v-2h1v-1h1v-1h1v-1h1v-1h1v-1z" fill="rgb(132,195,178)"/>
<path d="M271 90h2v1h1v1h1v1h1v1h1v1h1v2h-1v1h-1v1h-1v1h-1v1h-1v1h-2v-1h-1v-1h-1v-1h-1
	v-1h-1v-1h-1v-2h1v-1h1v-1h1v-1h1v-1h1v-1z" fill="rgb(132,195,178)"/>
<path d="M287 90h2v1h1v1h1v1h1v1h1v1h1v2h-1v1h-1v1h-1v1h-1v1h-1v1h-2v-1h-1v-1h-1v-1h-1
	v-1h-1v-1h-1v-2h1v-1h1v-1h1v-1h1v-1h1v-1z" fill="rgb(132,195,178)"/>
<path d="M303 90h2v1h1v1h1v1h1v1h1v1h1v2h-1v1h-1v1h-1v1h-1v1h-1v1h-2v-1h-1v-1h-1v-1h-1
	v-1h-1v-1h-1v-2h1v-1h1v-1h1v-1h1v-1h1v-1z" fill="rgb(132,195,178)"/>
<path d="M319 90h2v1h1v1h1v1h1v1h1v1h1v2h-1v1h-1v1h-1v1h-1v1h-1v1h-2v-1h-1v-1h-1v-1h-1
	v-1h-1v-1h-1v-2h1v-1h1v-1h1v-1h1v-1h1v-1z" fill="rgb(132,195,178)"/>
<path d="M335 90h2v1h1v1h1v1h1v1h1v1h1v2h-1v1h-1v1h-1v1h-1v1h-1v1h-2v-1h-1v-1h-1v-1h-1
	v-1h-1v-1h-1v-2h1v-1h1v-1h1v-1h1v-1h1v-1z" fill="rgb(132,195,178)"/>
<path d="M351 90h2v1h1v1h1v1h1v1h1v1h1v2h-1v1h-1v1h-1v1h-1v1h-1v1h-2v-1h-1v-1h-1v-1h-1
	v-1h-1v-1h-1v-2h1v-1h1v-1h1v-1h1v-1h1v-1z" fill="rgb(132,195,178)"/>
<path d="M367 90h2v1h1v1h1v1h1v1h1v1h1v2h-1v1h-1v1h-1v1h-1v1h-1v1h-2v-1h-1v-1h-1v-1h-1
	v-1h-1v-1h-1v-2h1v-1h1v-1h1v-1h1v-1h1v-1z" fill="rgb(132,195,178)"/>
<path d="M383 90h2v1h1v1h1v1h1v1h1v1h1v2h-1v1h-1v1h-1v1h-1v1h-1v1h-2v-1h-1v-1h-1v-1h-1
	v-1h-1v-1h-1v-2h1v-1h1v-1h1v-1h1v-1h1v-1z" fill="rgb(132,195,178)"/>
<path d="M399 90h1v12h-1v-1h-1v-1h-1v-1h-1v-1h-1v-1h-1v-2h1v-1h1v-1h1v-1h1v-1h1v-1z" fill="rgb(132,195,178)"/>
<path d="M23 98h1v2h-1v1h-1v1h-1v1h-1v1h-1v1h-1v-2h1v-1h1v-1h1v-1h1v-1h1v-1z" fill="rgb(106,139,167)"/>
<path d="M24 98h1v1h1v1h1v1h1v1h1v1h1v2h-1v-1h-1v-1h-1v-1h-1v-1h-1v-1h-1v-2z" fill="rgb(124,163,196)"/>
<path d="M39 98h2v1h1v1h1v1h1v1h1v1h1v2h-1v-1h-1v-1h-1v-1h-1v-1h-1v-1h-2v1h-1v1h-1v1h-1
	v1h-1v1h-1v-2h1v-1h1v-1h1v-1h1v-1h1v-1z" fill="rgb(124,163,196)"/>
<path d="M55 98h2v1h1v1h1v1h1v1h1v1h1v2h-1v-1h-1v-1h-1v-1h-1v-1h-1v-1h-2v1h-1v1h-1v1h-1
	v1h-1v1h-1v-2h1v-1h1v-1h1v-1h1v-1h1v-1z" fill="rgb(124,163,196)"/>
<path d="M71 98h2v1h1v1h1v1h1v1h1v1h1v2h-1v-1h-1v-1h-1v-1h-1v-1h-1v-1h-2v1h-1v1h-1v1h-1
	v1h-1v1h-1v-2h1v-1h1v-1h1v-1h1v-1h1v-1z" fill="rgb(124,163,196)"/>
<path d="M87 98h2v1h1v1h1v1h1v1h1v1h1v2h-1v-1h-1v-1h-1v-1h-1v-1h-1v-1h-2v1h-1v1h-1v1h-1
	v1h-1v1h-1v-2h1v-1h1v-1h1v-1h1v-1h1v-1z" fill="rgb(124,163,196)"/>
<path d="M103 98h2v1h1v1h1v1h1v1h1v1h1v2h-1v-1h-1v-1h-1v-1h-1v-1h-1v-1h-2v1h-1v1h-1v1h-1
	v1h-1v1h-1v-2h1v-1h1v-1h1v-1h1v-1h1v-1z" fill="rgb(124,163,196)"/>
<path d="M119 98h2v1h1v1h1v1h1v1h1v1h1v2h-1v-1h-1v-1h-1v-1h-1v-1h-1v-1h-2v1h-1v1h-1v1h-1
	v1h-1v1h-1v-2h1v-1h1v-1h1v-1h1v-1h1v-1z" fill="rgb(124,163,196)"/>
<path d="M135 98h2v1h1v1h1v1h1v1h1v1h1v2h-1v-1h-1v-1h-1v-1h-1v-1h-1v-1h-2v1h-1v1h-1v1h-1
	v1h-1v1h-1v-2h1v-1h1v-1h1v-1h1v-1h1v-1z" fill="rgb(124,163,196)"/>
<path d="M151 98h2v1h1v1h1v1h1v1h1v1h1v2h-1v-1h-1v-1h-1v-1h-1v-1h-1v-1h-2v1h-1v1h-1v1h-1
	v1h-1v1h-1v-2h1v-1h1v-1h1v-1h1v-1h1v-1z" fill="rgb(124,163,196)"/>
<path d="M167 98h2v1h1v1h1v1h1v1h1v1h1v2h-1v-1h-1v-1h-1v-1h-1v-1h-1v-1h-2v1h-1v1h-1v1h-1
	v1h-1v1h-1v-2h1v-1h1v-1h1v-1h1v-1h1v-1z" fill="rgb(124,163,196)"/>
<path d="M183 98h2v1h1v1h1v1h1v1h1v1h1v2h-1v-1h-1v-1h-1v-1h-1v-1h-1v-1h-2v1h-1v1h-1v1h-1
	v1h-1v1h-1v-2h1v-1h1v-1h1v-1h1v-1h1v-1z" fill="rgb(124,163,196)"/>
<path d="M199 98h2v1h1v1h1v1h1v1h1v1h1v2h-1v-1h-1v-1h-1v-1h-1v-1h-1v-1h-2v1h-1v1h-1v1h-1
	v1h-1v1h-1v-2h1v-1h1v-1h1v-1h1v-1h1v-1z" fill="rgb(124,163,196)"/>
<path d="M215 98h2v1h1v1h1v1h1v1h1v1h1v2h-1v-1h-1v-1h-1v-1h-1v-1h-1v-1h-2v1h-1v1h-1v1h-1
	v1h-1v1h-1v-2h1v-1h1v-1h1v-1h1v-1h1v-1z" fill="rgb(124,163,196)"/>
<path d="M231 98h2v1h1v1h1v1h1v1h1v1h1v2h-1v-1h-1v-1h-1v-1h-1v-1h-1v-1h-2v1h-1v1h-1v1h-1
	v1h-1v1h-1v-2h1v-1h1v-1h1v-1h1v-1h1v-1z" fill="rgb(124,163,196)"/>
<path d="M247 98h2v1h1v1h1v1h1v1h1v1h1v2h-1v-1h-1v-1h-1v-1h-1v-1h-1v-1h-2v1h-1v1h-1v1h-1
	v1h-1v1h-1v-2h1v-1h1v-1h1v-1h1v-1h1v-1z" fill="rgb(124,163,196)"/>
<path d="M263 98h2v1h1v1h1v1h1v1h1v1h1v2h-1v-1h-1v-1h-1v-1h-1v-1h-1v-1h-2v1h-1v1h-1v1h-1
	v1h-1v1h-1v-2h1v-1h1v-1h1v-1h1v-1h1v-1z" fill="rgb(124,163,196)"/>
<path d="M279 98h2v1h1v1h1v1h1v1h1v1h1v2h-1v-1h-1v-1h-1v-1h-1v-1h-1v-1h-2v1h-1v1h-1v1h-1
	v1h-1v1h-1v-2h1v-1h1v-1h1v-1h1v-1h1v-1z" fill="rgb(124,163,196)"/>
<path d="M295 98h2v1h1v1h1v1h1v1h1v1h1v2h-1v-1h-1v-1h-1v-1h-1v-1h-1v-1h-2v1h-1v1h-1v1h-1
	v1h-1v1h-1v-2h1v-1h1v-1h1v-1h1v-1h1v-1z" fill="rgb(124,163,196)"/>
<path d="M311 98h2v1h1v1h1v1h1v1h1v1h1v2h-1v-1h-1v-1h-1v-1h-1v-1h-1v-1h-2v1h-1v1h-1v1h-1
	v1h-1v1h-1v-2h1v-1h1v-1h1v-1h1v-1h1v-1z" fill="rgb(124,163,196)"/>
<path d="M327 98h2v1h1v1h1v1h1v1h1v1h1v2h-1v-1h-1v-1h-1v-1h-1v-1h-1v-1h-2v1h-1v1h-1v1h-1
	v1h-1v1h-1v-2h1v-1h1v-1h1v-1h1v-1h1v-1z" fill="rgb(124,163,196)"/>
<path d="M343 98h2v1h1v1h1v1h1v1h1v1h1v2h-1v-1h-1v-1h-1v-1h-1v-1h-1v-1h-2v1h-1v1h-1v1h-1
	v1h-1v1h-1v-2h1v-1h1v-1h1v-1h1v-1h1v-1z" fill="rgb(124,163,196)"/>
<path d="M359 98h2v1h1v1h1v1h1v1h1v1h1v2h-1v-1h-1v-1h-1v-1h-1v-1h-1v-1h-2v1h-1v1h-1v1h-1
	v1h-1v1h-1v-2h1v-1h1v-1h1v-1h1v-1h1v-1z" fill="rgb(124,163,196)"/>
<path d="M375 98h2v1h1v1h1v1h1v1h1v1h1v2h-1v-1h-1v-1h-1v-1h-1v-1h-1v-1h-2v1h-1v1h-1v1h-1
	v1h-1v1h-1v-2h1v-1h1v-1h1v-1h1v-1h1v-1z" fill="rgb(124,163,196)"/>
<path d="M391 98h2v1h1v1h1v1h1v1h1v1h1v2h-1v-1h-1v-1h-1v-1h-1v-1h-1v-1h-2v1h-1v1h-1v1h-1
	v1h-1v1h-1v-2h1v-1h1v-1h1v-1h1v-1h1v-1z" fill="rgb(124,163,196)"/>
<path d="M23 100h1v10h-1v-1h-1v-1h-1v-1h-1v-1h-1v-2h1v-1h1v-1h1v-1h1v-1z" fill="rgb(117,155,186)"/>
<path d="M24 100h1v1h1v1h1v1h1v1h1v2h-1v1h-1v1h-1v1h-1v1h-1v-10z" fill="rgb(138,182,219)"/>
<path d="M39 100h2v1h1v1h1v1h1v1h1v2h-1v1h-1v1h-1v1h-1v1h-2v-1h-1v-1h-1v-1h-1v-1h-1v-2h1
	v-1h1v-1h1v-1h1v-1z" fill="rgb(138,182,219)"/>
<path d="M55 100h2v1h1v1h1v1h1v1h1v2h-1v1h-1v1h-1v1h-1v1h-2v-1h-1v-1h-1v-1h-1v-1h-1v-2h1
	v-1h1v-1h1v-1h1v-1z" fill="rgb(138,182,219)"/>
<path d="M71 100h2v1h1v1h1v1h1v1h1v2h-1v1h-1v1h-1v1h-1v1h-2v-1h-1v-1h-1v-1h-1v-1h-1v-2h1
	v-1h1v-1h1v-1h1v-1z" fill="rgb(138,182,219)"/>
<path d="M87 100h2v1h1v1h1v1h1v1h1v2h-1v1h-1v1h-1v1h-1v1h-2v-1h-1v-1h-1v-1h-1v-1h-1v-2h1
	v-1h1v-1h1v-1h1v-1z" fill="rgb(138,182,219)"/>
<path d="M103 100h2v1h1v1h1v1h1v1h1v2h-1v1h-1v1h-1v1h-1v1h-2v-1h-1v-1h-1v-1h-1v-1h-1v-2
	h1v-1h1v-1h1v-1h1v-1z" fill="rgb(138,182,219)"/>
<path d="M119 100h2v1h1v1h1v1h1v1h1v2h-1v1h-1v1h-1v1h-1v1h-2v-1h-1v-1h-1v-1h-1v-1h-1v-2
	h1v-1h1v-1h1v-1h1v-1z" fill="rgb(138,182,219)"/>
<path d="M135 100h2v1h1v1h1v1h1v1h1v2h-1v1h-1v1h-1v1h-1v1h-2v-1h-1v-1h-1v-1h-1v-1h-1v-2
	h1v-1h1v-1h1v-1h1v-1z" fill="rgb(138,182,219)"/>
<path d="M151 100h2v1h1v1h1v1h1v1h1v2h-1v1h-1v1h-1v1h-1v1h-2v-1h-1v-1h-1v-1h-1v-1h-1v-2
	h1v-1h1v-1h1v-1h1v-1z" fill="rgb(138,182,219)"/>
<path d="M167 100h2v1h1v1h1v1h1v1h1v2h-1v1h-1v1h-1v1h-1v1h-2v-1h-1v-1h-1v-1h-1v-1h-1v-2
	h1v-1h1v-1h1v-1h1v-1z" fill="rgb(138,182,219)"/>
<path d="M183 100h2v1h1v1h1v1h1v1h1v2h-1v1h-1v1h-1v1h-1v1h-2v-1h-1v-1h-1v-1h-1v-1h-1v-2
	h1v-1h1v-1h1v-1h1v-1z" fill="rgb(138,182,219)"/>
<path d="M199 100h2v1h1v1h1v1h1v1h1v2h-1v1h-1v1h-1v1h-1v1h-2v-1h-1v-1h-1v-1h-1v-1h-1v-2
	h1v-1h1v-1h1v-1h1v-1z" fill="rgb(138,182,219)"/>
<path d="M215 100h2v1h1v1h1v1h1v1h1v2h-1v1h-1v1h-1v1h-1v1h-2v-1h-1v-1h-1v-1h-1v-1h-1v-2
	h1v-1h1v-1h1v-1h1v-1z" fill="rgb(138,182,219)"/>
<path d="M231 100h2v1h1v1h1v1h1v1h1v2h-1v1h-1v1h-1v1h-1v1h-2v-1h-1v-1h-1v-1h-1v-1h-1v-2
	h1v-1h1v-1h1v-1h1v-1z" fill="rgb(138,182,219)"/>
<path d="M247 100h2v1h1v1h1v1h1v1h1v2h-1v1h-1v1h-1v1h-1v1h-2v-1h-1v-1h-1v-1h-1v-1h-1v-2
	h1v-1h1v-1h1v-1h1v-1z" fill="rgb(138,182,219)"/>
<path d="M263 100h2v1h1v1h1v1h1v1h1v2h-1v1h-1v1h-1v1h-1v1h-2v-1h-1v-1h-1v-1h-1v-1h-1v-2
	h1v-1h1v-1h1v-1h1v-1z" fill="rgb(138,182,219)"/>
<path d="M279 100h2v1h1v1h1v1h1v1h1v2h-1v1h-1v1h-1v1h-1v1h-2v-1h-1v-1h-1v-1h-1v-1h-1v-2
	h1v-1h1v-1h1v-1h1v-1z" fill="rgb(138,182,219)"/>
<path d="M295 100h2v1h1v1h1v1h1v1h1v2h-1v1h-1v1h-1v1h-1v1h-2v-1h-1v-1h-1v-1h-1v-1h-1v-2
	h1v-1h1v-1h1v-1h1v-1z" fill="rgb(138,182,219)"/>
<path d="M311 100h2v1h1v1h1v1h1v1h1v2h-1v1h-1v1h-1v1h-1v1h-2v-1h-1v-1h-1v-1h-1v-1h-1v-2
	h1v-1h1v-1h1v-1h1v-1z" fill="rgb(138,182,219)"/>
<path d="M327 100h2v1h1v1h1v1h1v1h1v2h-1v1h-1v1h-1v1h-1v1h-2v-1h-1v-1h-1v-1h-1v-1h-1v-2
	h1v-1h1v-1h1v-1h1v-1z" fill="rgb(138,182,219)"/>
<path d="M343 100h2v1h1v1h1v1h1v1h1v2h-1v1h-1v1h-1v1h-1v1h-2v-1h-1v-1h-1v-1h-1v-1h-1v-2
	h1v-1h1v-1h1v-1h1v-1z" fill="rgb(138,182,219)"/>
<path d="M359 100h2v1h1v1h1v1h1v1h1v2h-1v1h-1v1h-1v1h-1v1h-2v-1h-1v-1h-1v-1h-1v-1h-1v-2
	h1v-1h1v-1h1v-1h1v-1z" fill="rgb(138,182,219)"/>
<path d="M375 100h2v1h1v1h1v1h1v1h1v2h-1v1h-1v1h-1v1h-1v1h-2v-1h-1v-1h-1v-1h-1v-1h-1v-2
	h1v-1h1v-1h1v-1h1v-1z" fill="rgb(138,182,219)"/>
<path d="M391 100h2v1h1v1h1v1h1v1h1v2h-1v1h-1v1h-1v1h-1v1h-2v-1h-1v-1h-1v-1h-1v-1h-1v-2
	h1v-1h1v-1h1v-1h1v-1z" fill="rgb(138,182,219)"/>
<path d="M16 106h1v1h1v1h1v1h1v1h1v1h1v1h-6v-6z" fill="rgb(112,166,151)"/>
<path d="M31 106h2v1h1v1h1v1h1v1h1v1h1v1h-12v-1h1v-1h1v-1h1v-1h1v-1h1v-1z" fill="rgb(132,195,178)"/>
<path d="M47 106h2v1h1v1h1v1h1v1h1v1h1v1h-12v-1h1v-1h1v-1h1v-1h1v-1h1v-1z" fill="rgb(132,195,178)"/>
<path d="M63 106h2v1h1v1h1v1h1v1h1v1h1v1h-12v-1h1v-1h1v-1h1v-1h1v-1h1v-1z" fill="rgb(132,195,178)"/>
<path d="M79 106h2v1h1v1h1v1h1v1h1v1h1v1h-12v-1h1v-1h1v-1h1v-1h1v-1h1v-1z" fill="rgb(132,195,178)"/>
<path d="M95 106h2v1h1v1h1v1h1v1h1v1h1v1h-12v-1h1v-1h1v-1h1v-1h1v-1h1v-1z" fill="rgb(132,195,178)"/>
<path d="M111 106h2v1h1v1h1v1h1v1h1v1h1v1h-12v-1h1v-1h1v-1h1v-1h1v-1h1v-1z" fill="rgb(132,195,178)"/>
<path d="M127 106h2v1h1v1h1v1h1v1h1v1h1v1h-12v-1h1v-1h1v-1h1v-1h1v-1h1v-1z" fill="rgb(132,195,178)"/>
<path d="M143 106h2v1h1v1h1v1h1v1h1v1h1v1h-12v-1h1v-1h1v-1h1v-1h1v-1h1v-1z" fill="rgb(132,195,178)"/>
<path d="M159 106h2v1h1v1h1v1h1v1h1v1h1v1h-12v-1h1v-1h1v-1h1v-1h1v-1h1v-1z" fill="rgb(132,195,178)"/>
<path d="M175 106h2v1h1v1h1v1h1v1h1v1h1v1h-12v-1h1v-1h1v-1h1v-1h1v-1h1v-1z" fill="rgb(132,195,178)"/>
<path d="M191 106h2v1h1v1h1v1h1v1h1v1h1v1h-12v-1h1v-1h1v-1h1v-1h1v-1h1v-1z" fill="rgb(132,195,178)"/>
<path d="M207 106h2v1h1v1h1v1h1v1h1v1h1v1h-12v-1h1v-1h1v-1h1v-1h1v-1h1v-1z" fill="rgb(132,195,178)"/>
<path d="M223 106h2v1h1v1h1v1h1v1h1v1h1v1h-12v-1h1v-1h1v-1h1v-1h1v-1h1v-1z" fill="rgb(132,195,178)"/>
<path d="M239 106h2v1h1v1h1v1h1v1h1v1h1v1h-12v-1h1v-1h1v-1h1v-1h1v-1h1v-1z" fill="rgb(132,195,178)"/>
<path d="M255 106h2v1h1v1h1v1h1v1h1v1h1v1h-12v-1h1v-1h1v-1h1v-1h1v-1h1v-1z" fill="rgb(132,195,178)"/>
<path d="M271 106h2v1h1v1h1v1h1v1h1v1h1v1h-12v-1h1v-1h1v-1h1v-1h1v-1h1v-1z" fill="rgb(132,195,178)"/>
<path d="M287 106h2v1h1v1h1v1h1v1h1v1h1v1h-12v-1h1v-1h1v-1h1v-1h1v-1h1v-1z" fill="rgb(132,195,178)"/>
<path d="M303 106h2v1h1v1h1v1h1v1h1v1h1v1h-12v-1h1v-1h1v-1h1v-1h1v-1h1v-1z" fill="rgb(132,195,178)"/>
<path d="M319 106h2v1h1v1h1v1h1v1h1v1h1v1h-12v-1h1v-1h1v-1h1v-1h1v-1h1v-1z" fill="rgb(132,195,178)"/>
<path d="M335 106h2v1h1v1h1v1h1v1h1v1h1v1h-12v-1h1v-1h1v-1h1v-1h1v-1h1v-1z" fill="rgb(132,195,178)"/>
<path d="M351 106h2v1h1v1h1v1h1v1h1v1h1v1h-12v-1h1v-1h1v-1h1v-1h1v-1h1v-1z" fill="rgb(132,195,178)"/>
<path d="M367 106h2v1h1v1h1v1h1v1h1v1h1v1h-12v-1h1v-1h1v-1h1v-1h1v-1h1v-1z" fill="rgb(132,195,178)"/>
<path d="M383 106h2v1h1v1h1v1h1v1h1v1h1v1h-12v-1h1v-1h1v-1h1v-1h1v-1h1v-1z" fill="rgb(132,195,178)"/>
<path d="M399 106h1v6h-6v-1h1v-1h1v-1h1v-1h1v-1h1v-1z" fill="rgb(132,195,178)"/>
</svg>
