<?xml version="1.0" encoding="utf-8"?>
<!-- generated at drububu.com  -->
<!DOCTYPE svg PUBLIC "-//W3C//DTD SVG 1.1//EN" "http://www.w3.org/Graphics/SVG/1.1/DTD/svg11.dtd">
<svg version="1.1" preserveAspectRatio="xMinYMin meet" xmlns="http://www.w3.org/2000/svg" xmlns:xlink="http://www.w3.org/1999/xlink" x="0px" y="0px" width="96px" height="64px" viewBox="0 0 96 64">
<path d="M0 0h9v64h-9v-64z" fill="rgb(0,0,0)"/>
<path d="M9 0h78v64h-1v-63h-76v63h-1v-64z" fill="rgb(105,105,105)"/>
<path d="M87 0h9v64h-9v-64z" fill="rgb(0,0,0)"/>
<path d="M10 1h76v63h-5v-60h-66v60h-5v-63z" fill="rgb(255,255,255)"/>
<path d="M15 4h66v4h-1v-3h-64v3h-1v-4z" fill="rgb(181,181,181)"/>
<path d="M16 5h64v3h-64v-3z" fill="rgb(238,238,238)"/>
<path d="M15 8h66v56h-1v-55h-64v55h-1v-56z" fill="rgb(130,130,130)"/>
<path d="M16 9h1v1h-1v-1z" fill="rgb(139,92,46)"/>
<path d="M17 9h2v1h-2v-1z" fill="rgb(113,75,37)"/>
<path d="M19 9h2v1h-2v-1z" fill="rgb(139,92,46)"/>
<path d="M21 9h2v1h-2v-1z" fill="rgb(113,75,37)"/>
<path d="M23 9h2v1h-2v-1z" fill="rgb(139,92,46)"/>
<path d="M25 9h2v1h-2v-1z" fill="rgb(113,75,37)"/>
<path d="M27 9h2v1h-2v-1z" fill="rgb(139,92,46)"/>
<path d="M29 9h2v1h-2v-1z" fill="rgb(113,75,37)"/>
<path d="M31 9h2v1h-2v-1z" fill="rgb(139,92,46)"/>
<path d="M33 9h2v1h-2v-1z" fill="rgb(113,75,37)"/>
<path d="M35 9h2v1h-2v-1z" fill="rgb(139,92,46)"/>
<path d="M37 9h2v1h-2v-1z" fill="rgb(113,75,37)"/>
<path d="M39 9h2v1h-2v-1z" fill="rgb(139,92,46)"/>
<path d="M41 9h2v1h-2v-1z" fill="rgb(113,75,37)"/>
<path d="M43 9h2v1h-2v-1z" fill="rgb(139,92,46)"/>
<path d="M45 9h2v1h-2v-1z" fill="rgb(113,75,37)"/>
<path d="M47 9h2v1h-2v-1z" fill="rgb(139,92,46)"/>
<path d="M49 9h2v1h-2v-1z" fill="rgb(113,75,37)"/>
<path d="M51 9h2v1h-2v-1z" fill="rgb(139,92,46)"/>
<path d="M53 9h2v1h-2v-1z" fill="rgb(113,75,37)"/>
<path d="M55 9h2v1h-2v-1z" fill="rgb(139,92,46)"/>
<path d="M57 9h2v1h-2v-1z" fill="rgb(113,75,37)"/>
<path d="M59 9h2v1h-2v-1z" fill="rgb(139,92,46)"/>
<path d="M61 9h2v1h-2v-1z" fill="rgb(113,75,37)"/>
<path d="M63 9h2v1h-2v-1z" fill="rgb(139,92,46)"/>
<path d="M65 9h2v1h-2v-1z" fill="rgb(113,75,37)"/>
<path d="M67 9h2v1h-2v-1z" fill="rgb(139,92,46)"/>
<path d="M69 9h2v1h-2v-1z" fill="rgb(113,75,37)"/>
<path d="M71 9h2v1h-2v-1z" fill="rgb(139,92,46)"/>
<path d="M73 9h2v1h-2v-1z" fill="rgb(113,75,37)"/>
<path d="M75 9h2v1h-2v-1z" fill="rgb(139,92,46)"/>
<path d="M77 9h2v1h-2v-1z" fill="rgb(113,75,37)"/>
<path d="M79 9h1v1h-1v-1z" fill="rgb(139,92,46)"/>
<path d="M16 10h1v18h-1v-18z" fill="rgb(163,108,54)"/>
<path d="M17 10h2v18h-2v-18z" fill="rgb(133,88,44)"/>
<path d="M19 10h2v18h-2v-18z" fill="rgb(163,108,54)"/>
<path d="M21 10h2v5h-1v1h-1v-6z" fill="rgb(133,88,44)"/>
<path d="M23 10h2v5h-2v-5z" fill="rgb(163,108,54)"/>
<path d="M25 10h2v6h-1v-1h-1v-5z" fill="rgb(133,88,44)"/>
<path d="M27 10h2v18h-2v-18z" fill="rgb(163,108,54)"/>
<path d="M29 10h2v18h-2v-18z" fill="rgb(133,88,44)"/>
<path d="M31 10h2v18h-2v-18z" fill="rgb(163,108,54)"/>
<path d="M33 10h2v18h-2v-18z" fill="rgb(133,88,44)"/>
<path d="M35 10h2v18h-2v-18z" fill="rgb(163,108,54)"/>
<path d="M37 10h2v18h-2v-18z" fill="rgb(133,88,44)"/>
<path d="M39 10h2v18h-2v-18z" fill="rgb(163,108,54)"/>
<path d="M41 10h2v18h-2v-18z" fill="rgb(133,88,44)"/>
<path d="M43 10h2v18h-2v-18z" fill="rgb(163,108,54)"/>
<path d="M45 10h2v18h-2v-18z" fill="rgb(133,88,44)"/>
<path d="M47 10h2v18h-2v-18z" fill="rgb(163,108,54)"/>
<path d="M49 10h2v18h-2v-18z" fill="rgb(133,88,44)"/>
<path d="M51 10h2v18h-2v-18z" fill="rgb(163,108,54)"/>
<path d="M53 10h2v18h-2v-18z" fill="rgb(133,88,44)"/>
<path d="M55 10h2v18h-2v-18z" fill="rgb(163,108,54)"/>
<path d="M57 10h2v18h-2v-18z" fill="rgb(133,88,44)"/>
<path d="M59 10h2v18h-2v-18z" fill="rgb(163,108,54)"/>
<path d="M61 10h2v18h-2v-18z" fill="rgb(133,88,44)"/>
<path d="M63 10h2v18h-2v-18z" fill="rgb(163,108,54)"/>
<path d="M65 10h2v18h-2v-18z" fill="rgb(133,88,44)"/>
<path d="M67 10h2v18h-2v-18z" fill="rgb(163,108,54)"/>
<path d="M69 10h2v18h-2v-18z" fill="rgb(133,88,44)"/>
<path d="M71 10h2v18h-2v-18z" fill="rgb(163,108,54)"/>
<path d="M73 10h2v18h-2v-18z" fill="rgb(133,88,44)"/>
<path d="M75 10h2v18h-2v-18z" fill="rgb(163,108,54)"/>
<path d="M77 10h2v18h-2v-18z" fill="rgb(133,88,44)"/>
<path d="M79 10h1v18h-1v-18z" fill="rgb(163,108,54)"/>
<path d="M22 15h4v1h-4v-1z" fill="rgb(77,77,77)"/>
<path d="M21 16h1v10h-1v-10z" fill="rgb(77,77,77)"/>
<path d="M22 16h4v10h-4v-10z" fill="rgb(153,153,153)"/>
<path d="M26 16h1v10h-1v-10z" fill="rgb(77,77,77)"/>
<path d="M23 17h1v1h-1v-1z" fill="rgb(248,248,248)"/>
<path d="M24 17h1v2h-2v-1h1v-1z" fill="rgb(216,216,216)"/>
<path d="M23 20h1v1h-1v-1z" fill="rgb(248,248,248)"/>
<path d="M24 20h1v2h-2v-1h1v-1z" fill="rgb(216,216,216)"/>
<path d="M23 23h1v1h-1v-1z" fill="rgb(248,248,248)"/>
<path d="M24 23h1v2h-2v-1h1v-1z" fill="rgb(216,216,216)"/>
<path d="M21 26h1v1h1v1h-2v-2z" fill="rgb(133,88,44)"/>
<path d="M22 26h4v1h-4v-1z" fill="rgb(77,77,77)"/>
<path d="M26 26h1v2h-2v-1h1v-1z" fill="rgb(133,88,44)"/>
<path d="M23 27h2v1h-2v-1z" fill="rgb(163,108,54)"/>
<path d="M16 28h1v1h-1v-1z" fill="rgb(139,92,46)"/>
<path d="M17 28h2v1h-2v-1z" fill="rgb(113,75,37)"/>
<path d="M19 28h2v1h-2v-1z" fill="rgb(139,92,46)"/>
<path d="M21 28h2v1h-2v-1z" fill="rgb(113,75,37)"/>
<path d="M23 28h2v1h-2v-1z" fill="rgb(139,92,46)"/>
<path d="M25 28h2v1h-2v-1z" fill="rgb(113,75,37)"/>
<path d="M27 28h2v1h-2v-1z" fill="rgb(139,92,46)"/>
<path d="M29 28h2v1h-2v-1z" fill="rgb(113,75,37)"/>
<path d="M31 28h2v1h-2v-1z" fill="rgb(139,92,46)"/>
<path d="M33 28h2v1h-2v-1z" fill="rgb(113,75,37)"/>
<path d="M35 28h2v1h-2v-1z" fill="rgb(139,92,46)"/>
<path d="M37 28h2v1h-2v-1z" fill="rgb(113,75,37)"/>
<path d="M39 28h2v1h-2v-1z" fill="rgb(139,92,46)"/>
<path d="M41 28h2v1h-2v-1z" fill="rgb(113,75,37)"/>
<path d="M43 28h2v1h-2v-1z" fill="rgb(139,92,46)"/>
<path d="M45 28h2v1h-2v-1z" fill="rgb(113,75,37)"/>
<path d="M47 28h2v1h-2v-1z" fill="rgb(139,92,46)"/>
<path d="M49 28h2v1h-2v-1z" fill="rgb(113,75,37)"/>
<path d="M51 28h2v1h-2v-1z" fill="rgb(139,92,46)"/>
<path d="M53 28h2v1h-2v-1z" fill="rgb(113,75,37)"/>
<path d="M55 28h2v1h-2v-1z" fill="rgb(139,92,46)"/>
<path d="M57 28h2v1h-2v-1z" fill="rgb(113,75,37)"/>
<path d="M59 28h2v1h-2v-1z" fill="rgb(139,92,46)"/>
<path d="M61 28h2v1h-2v-1z" fill="rgb(113,75,37)"/>
<path d="M63 28h2v1h-2v-1z" fill="rgb(139,92,46)"/>
<path d="M65 28h2v1h-2v-1z" fill="rgb(113,75,37)"/>
<path d="M67 28h2v1h-2v-1z" fill="rgb(139,92,46)"/>
<path d="M69 28h2v1h-2v-1z" fill="rgb(113,75,37)"/>
<path d="M71 28h2v1h-2v-1z" fill="rgb(139,92,46)"/>
<path d="M73 28h2v1h-2v-1z" fill="rgb(113,75,37)"/>
<path d="M75 28h2v1h-2v-1z" fill="rgb(139,92,46)"/>
<path d="M77 28h2v1h-2v-1z" fill="rgb(113,75,37)"/>
<path d="M79 28h1v1h-1v-1z" fill="rgb(139,92,46)"/>
<path d="M16 29h2v1h-1v1h-1v-2z" fill="rgb(198,198,198)"/>
<path d="M18 29h1v1h-1v-1z" fill="rgb(216,216,216)"/>
<path d="M19 29h3v1h-1v1h-1v1h-1v1h-1v1h-1v1h-1v-3h1v-1h1v-1h1v-1z" fill="rgb(198,198,198)"/>
<path d="M22 29h3v1h-1v1h-1v1h-1v1h-1v1h-1v1h-3v-1h1v-1h1v-1h1v-1h1v-1h1v-1z" fill="rgb(216,216,216)"/>
<path d="M25 29h9v1h-1v1h-1v1h-1v1h-1v1h-1v1h-9v-1h1v-1h1v-1h1v-1h1v-1h1v-1z" fill="rgb(198,198,198)"/>
<path d="M34 29h1v1h-1v-1z" fill="rgb(216,216,216)"/>
<path d="M35 29h3v1h-1v1h-1v1h-1v1h-1v1h-1v1h-3v-1h1v-1h1v-1h1v-1h1v-1h1v-1z" fill="rgb(198,198,198)"/>
<path d="M38 29h3v1h-1v1h-1v1h-1v1h-1v1h-1v1h-3v-1h1v-1h1v-1h1v-1h1v-1h1v-1z" fill="rgb(216,216,216)"/>
<path d="M41 29h9v1h-1v1h-1v1h-1v1h-1v1h-1v1h-9v-1h1v-1h1v-1h1v-1h1v-1h1v-1z" fill="rgb(198,198,198)"/>
<path d="M50 29h1v1h-1v-1z" fill="rgb(216,216,216)"/>
<path d="M51 29h3v1h-1v1h-1v1h-1v1h-1v1h-1v1h-3v-1h1v-1h1v-1h1v-1h1v-1h1v-1z" fill="rgb(198,198,198)"/>
<path d="M54 29h3v1h-1v1h-1v1h-1v1h-1v1h-1v1h-3v-1h1v-1h1v-1h1v-1h1v-1h1v-1z" fill="rgb(216,216,216)"/>
<path d="M57 29h9v1h-1v1h-1v1h-1v1h-1v1h-1v1h-9v-1h1v-1h1v-1h1v-1h1v-1h1v-1z" fill="rgb(198,198,198)"/>
<path d="M66 29h1v1h-1v-1z" fill="rgb(216,216,216)"/>
<path d="M67 29h3v1h-1v1h-1v1h-1v1h-1v1h-1v1h-3v-1h1v-1h1v-1h1v-1h1v-1h1v-1z" fill="rgb(198,198,198)"/>
<path d="M70 29h3v1h-1v1h-1v1h-1v1h-1v1h-1v1h-3v-1h1v-1h1v-1h1v-1h1v-1h1v-1z" fill="rgb(216,216,216)"/>
<path d="M73 29h7v3h-1v1h-1v1h-1v1h-9v-1h1v-1h1v-1h1v-1h1v-1h1v-1z" fill="rgb(198,198,198)"/>
<path d="M17 30h1v1h-1v-1z" fill="rgb(216,216,216)"/>
<path d="M33 30h1v1h-1v-1z" fill="rgb(216,216,216)"/>
<path d="M49 30h1v1h-1v-1z" fill="rgb(216,216,216)"/>
<path d="M65 30h1v1h-1v-1z" fill="rgb(216,216,216)"/>
<path d="M16 31h1v1h-1v-1z" fill="rgb(216,216,216)"/>
<path d="M32 31h1v1h-1v-1z" fill="rgb(216,216,216)"/>
<path d="M48 31h1v1h-1v-1z" fill="rgb(216,216,216)"/>
<path d="M64 31h1v1h-1v-1z" fill="rgb(216,216,216)"/>
<path d="M31 32h1v1h-1v-1z" fill="rgb(216,216,216)"/>
<path d="M47 32h1v1h-1v-1z" fill="rgb(216,216,216)"/>
<path d="M63 32h1v1h-1v-1z" fill="rgb(216,216,216)"/>
<path d="M79 32h1v1h-1v-1z" fill="rgb(216,216,216)"/>
<path d="M30 33h1v1h-1v-1z" fill="rgb(216,216,216)"/>
<path d="M46 33h1v1h-1v-1z" fill="rgb(216,216,216)"/>
<path d="M62 33h1v1h-1v-1z" fill="rgb(216,216,216)"/>
<path d="M78 33h1v1h-1v-1z" fill="rgb(216,216,216)"/>
<path d="M79 33h1v2h-2v-1h1v-1z" fill="rgb(198,198,198)"/>
<path d="M29 34h1v1h-1v-1z" fill="rgb(216,216,216)"/>
<path d="M45 34h1v1h-1v-1z" fill="rgb(216,216,216)"/>
<path d="M61 34h1v1h-1v-1z" fill="rgb(216,216,216)"/>
<path d="M77 34h1v1h-1v-1z" fill="rgb(216,216,216)"/>
<path d="M16 35h1v1h-1v-1z" fill="rgb(113,75,37)"/>
<path d="M17 35h2v1h-2v-1z" fill="rgb(89,60,30)"/>
<path d="M19 35h2v1h-2v-1z" fill="rgb(113,75,37)"/>
<path d="M21 35h2v1h-2v-1z" fill="rgb(89,60,30)"/>
<path d="M23 35h2v1h-2v-1z" fill="rgb(113,75,37)"/>
<path d="M25 35h2v1h-2v-1z" fill="rgb(89,60,30)"/>
<path d="M27 35h2v1h-2v-1z" fill="rgb(113,75,37)"/>
<path d="M29 35h2v1h-2v-1z" fill="rgb(89,60,30)"/>
<path d="M31 35h2v1h-2v-1z" fill="rgb(113,75,37)"/>
<path d="M33 35h2v1h-2v-1z" fill="rgb(89,60,30)"/>
<path d="M35 35h2v1h-2v-1z" fill="rgb(113,75,37)"/>
<path d="M37 35h2v1h-2v-1z" fill="rgb(89,60,30)"/>
<path d="M39 35h2v1h-2v-1z" fill="rgb(113,75,37)"/>
<path d="M41 35h2v1h-2v-1z" fill="rgb(89,60,30)"/>
<path d="M43 35h2v1h-2v-1z" fill="rgb(113,75,37)"/>
<path d="M45 35h2v1h-2v-1z" fill="rgb(89,60,30)"/>
<path d="M47 35h2v1h-2v-1z" fill="rgb(113,75,37)"/>
<path d="M49 35h2v1h-2v-1z" fill="rgb(89,60,30)"/>
<path d="M51 35h2v1h-2v-1z" fill="rgb(113,75,37)"/>
<path d="M53 35h2v1h-2v-1z" fill="rgb(89,60,30)"/>
<path d="M55 35h2v1h-2v-1z" fill="rgb(113,75,37)"/>
<path d="M57 35h2v1h-2v-1z" fill="rgb(89,60,30)"/>
<path d="M59 35h2v1h-2v-1z" fill="rgb(113,75,37)"/>
<path d="M61 35h2v1h-2v-1z" fill="rgb(89,60,30)"/>
<path d="M63 35h2v1h-2v-1z" fill="rgb(113,75,37)"/>
<path d="M65 35h2v1h-2v-1z" fill="rgb(89,60,30)"/>
<path d="M67 35h2v1h-2v-1z" fill="rgb(113,75,37)"/>
<path d="M69 35h2v1h-2v-1z" fill="rgb(89,60,30)"/>
<path d="M71 35h2v1h-2v-1z" fill="rgb(113,75,37)"/>
<path d="M73 35h2v1h-2v-1z" fill="rgb(89,60,30)"/>
<path d="M75 35h2v1h-2v-1z" fill="rgb(113,75,37)"/>
<path d="M77 35h2v1h-2v-1z" fill="rgb(89,60,30)"/>
<path d="M79 35h1v1h-1v-1z" fill="rgb(113,75,37)"/>
<path d="M16 36h1v4h-1v-4z" fill="rgb(133,88,44)"/>
<path d="M17 36h2v4h-2v-4z" fill="rgb(105,70,35)"/>
<path d="M19 36h2v4h-2v-4z" fill="rgb(133,88,44)"/>
<path d="M21 36h2v4h-2v-4z" fill="rgb(105,70,35)"/>
<path d="M23 36h2v4h-2v-4z" fill="rgb(133,88,44)"/>
<path d="M25 36h2v4h-2v-4z" fill="rgb(105,70,35)"/>
<path d="M27 36h2v4h-2v-4z" fill="rgb(133,88,44)"/>
<path d="M29 36h2v4h-2v-4z" fill="rgb(105,70,35)"/>
<path d="M31 36h2v4h-2v-4z" fill="rgb(133,88,44)"/>
<path d="M33 36h2v4h-2v-4z" fill="rgb(105,70,35)"/>
<path d="M35 36h2v4h-2v-4z" fill="rgb(133,88,44)"/>
<path d="M37 36h2v4h-2v-4z" fill="rgb(105,70,35)"/>
<path d="M39 36h2v4h-2v-4z" fill="rgb(133,88,44)"/>
<path d="M41 36h2v4h-2v-4z" fill="rgb(105,70,35)"/>
<path d="M43 36h2v4h-2v-4z" fill="rgb(133,88,44)"/>
<path d="M45 36h2v4h-2v-4z" fill="rgb(105,70,35)"/>
<path d="M47 36h2v4h-2v-4z" fill="rgb(133,88,44)"/>
<path d="M49 36h2v4h-2v-4z" fill="rgb(105,70,35)"/>
<path d="M51 36h2v4h-2v-4z" fill="rgb(133,88,44)"/>
<path d="M53 36h2v4h-2v-4z" fill="rgb(105,70,35)"/>
<path d="M55 36h2v4h-2v-4z" fill="rgb(133,88,44)"/>
<path d="M57 36h2v4h-2v-4z" fill="rgb(105,70,35)"/>
<path d="M59 36h2v4h-2v-4z" fill="rgb(133,88,44)"/>
<path d="M61 36h2v4h-2v-4z" fill="rgb(105,70,35)"/>
<path d="M63 36h2v4h-2v-4z" fill="rgb(133,88,44)"/>
<path d="M65 36h2v4h-2v-4z" fill="rgb(105,70,35)"/>
<path d="M67 36h2v4h-2v-4z" fill="rgb(133,88,44)"/>
<path d="M69 36h2v4h-2v-4z" fill="rgb(105,70,35)"/>
<path d="M71 36h2v4h-2v-4z" fill="rgb(133,88,44)"/>
<path d="M73 36h2v4h-2v-4z" fill="rgb(105,70,35)"/>
<path d="M75 36h2v4h-2v-4z" fill="rgb(133,88,44)"/>
<path d="M77 36h2v4h-2v-4z" fill="rgb(105,70,35)"/>
<path d="M79 36h1v4h-1v-4z" fill="rgb(133,88,44)"/>
<path d="M16 40h64v8h-1v-6h-1v-1h-60v1h-1v20h1v1h6v1h-8v-24z" fill="rgb(146,133,119)"/>
<path d="M18 41h60v1h-60v-1z" fill="rgb(70,106,95)"/>
<path d="M17 42h1v20h-1v-20z" fill="rgb(70,106,95)"/>
<path d="M18 42h60v6h-2v-4h-56v16h4v2h-6v-20z" fill="rgb(112,166,151)"/>
<path d="M78 42h1v6h-1v-6z" fill="rgb(70,106,95)"/>
<path d="M20 44h56v4h-2v-2h-52v12h2v2h-4v-16z" fill="rgb(146,180,171)"/>
<path d="M22 46h52v2h-50v10h-2v-12z" fill="rgb(112,166,151)"/>
<path d="M24 48h50v10h-13v-1h-2v-1h-2v-1h-18v1h-2v1h-2v1h-11v-10z" fill="rgb(132,195,178)"/>
<path d="M74 48h2v12h-13v-1h-1v-1h12v-10z" fill="rgb(171,212,201)"/>
<path d="M76 48h2v14h-14v-1h-1v-1h13v-12z" fill="rgb(132,195,178)"/>
<path d="M78 48h1v14h-1v-14z" fill="rgb(82,125,112)"/>
<path d="M79 48h1v16h-16v-1h14v-1h1v-14z" fill="rgb(172,156,140)"/>
<path d="M39 55h18v1h2v1h2v1h-26v-1h2v-1h2v-1z" fill="rgb(106,156,142)"/>
<path d="M24 58h10v1h-1v1h-9v-2z" fill="rgb(171,212,201)"/>
<path d="M34 58h28v1h1v1h-30v-1h1v-1z" fill="rgb(103,127,121)"/>
<path d="M24 60h9v1h-1v1h-8v-2z" fill="rgb(132,195,178)"/>
<path d="M33 60h30v1h1v1h-32v-1h1v-1z" fill="rgb(66,97,89)"/>
<path d="M18 62h6v1h-6v-1z" fill="rgb(70,106,95)"/>
<path d="M24 62h8v1h-8v-1z" fill="rgb(82,125,112)"/>
<path d="M32 62h32v1h-32v-1z" fill="rgb(16,25,22)"/>
<path d="M64 62h14v1h-14v-1z" fill="rgb(82,125,112)"/>
<path d="M24 63h8v1h-8v-1z" fill="rgb(172,156,140)"/>
<path d="M32 63h32v1h-32v-1z" fill="rgb(27,18,9)"/>
</svg>
