<?xml version="1.0" encoding="utf-8"?>
<!-- generated at drububu.com  -->
<!DOCTYPE svg PUBLIC "-//W3C//DTD SVG 1.1//EN" "http://www.w3.org/Graphics/SVG/1.1/DTD/svg11.dtd">
<svg version="1.1" preserveAspectRatio="xMinYMin meet" xmlns="http://www.w3.org/2000/svg" xmlns:xlink="http://www.w3.org/1999/xlink" x="0px" y="0px" width="160px" height="112px" viewBox="0 0 160 112">
<path d="M0 0h160v1h-160v-1z" fill="rgb(130,130,130)"/>
<path d="M0 1h160v2h-160v-2z" fill="rgb(238,238,238)"/>
<path d="M0 3h160v1h-160v-1z" fill="rgb(255,255,255)"/>
<path d="M0 4h160v1h-160v-1z" fill="rgb(130,130,130)"/>
<path d="M0 5h160v1h-160v-1z" fill="rgb(197,197,197)"/>
<path d="M0 6h27v9h-16v-1h-2v-1h-2v1h-2v1h-5v-9z" fill="rgb(232,232,232)"/>
<path d="M27 6h42v26h-5v-21h1v20h3v-24h-40v24h3v-20h1v21h-5v-26z" fill="rgb(71,71,71)"/>
<path d="M69 6h91v9h-5v-1h-2v-1h-2v1h-2v1h-80v-9z" fill="rgb(232,232,232)"/>
<path d="M28 7h40v1h-40v-1z" fill="rgb(216,216,216)"/>
<path d="M28 8h40v1h-40v-1z" fill="rgb(129,129,129)"/>
<path d="M28 9h12v1h-9v8h-3v-9z" fill="rgb(160,160,160)"/>
<path d="M40 9h1v1h-1v-1z" fill="rgb(153,242,143)"/>
<path d="M41 9h4v1h-4v-1z" fill="rgb(160,160,160)"/>
<path d="M45 9h1v1h-1v-1z" fill="rgb(216,216,216)"/>
<path d="M46 9h4v1h-4v-1z" fill="rgb(160,160,160)"/>
<path d="M50 9h1v1h-1v-1z" fill="rgb(216,216,216)"/>
<path d="M51 9h4v1h-4v-1z" fill="rgb(160,160,160)"/>
<path d="M55 9h1v1h-1v-1z" fill="rgb(216,216,216)"/>
<path d="M56 9h12v17h-3v-16h-9v-1z" fill="rgb(160,160,160)"/>
<path d="M31 10h34v1h-34v-1z" fill="rgb(37,37,37)"/>
<path d="M32 11h15v1h-15v-1z" fill="rgb(129,129,129)"/>
<path d="M47 11h2v21h-2v-21z" fill="rgb(71,71,71)"/>
<path d="M49 11h15v1h-15v-1z" fill="rgb(129,129,129)"/>
<path d="M32 12h15v1h-13v1h-1v16h14v1h-15v-19z" fill="rgb(160,160,160)"/>
<path d="M49 12h15v19h-15v-1h13v-1h1v-16h-14v-1z" fill="rgb(160,160,160)"/>
<path d="M7 13h2v1h-2v-1z" fill="rgb(92,117,47)"/>
<path d="M34 13h7v1h-1v1h-1v1h-1v1h-1v1h-1v1h-1v1h-1v1h-1v-7h1v-1z" fill="rgb(198,198,198)"/>
<path d="M41 13h1v1h-1v-1z" fill="rgb(216,216,216)"/>
<path d="M42 13h2v1h-1v1h-1v1h-1v1h-1v1h-1v1h-1v1h-1v1h-1v1h-1v1h-1v1h-1v-2h1v-1h1v-1h1
	v-1h1v-1h1v-1h1v-1h1v-1h1v-1h1v-1z" fill="rgb(198,198,198)"/>
<path d="M44 13h3v1h-1v1h-1v1h-1v1h-1v1h-1v1h-1v1h-1v1h-1v1h-1v1h-1v1h-1v1h-1v1h-1v1h-1
	v-3h1v-1h1v-1h1v-1h1v-1h1v-1h1v-1h1v-1h1v-1h1v-1h1v-1h1v-1z" fill="rgb(216,216,216)"/>
<path d="M49 13h9v1h-1v1h-1v1h-1v1h-1v1h-1v1h-1v1h-1v1h-1v1h-1v-9z" fill="rgb(198,198,198)"/>
<path d="M58 13h1v1h-1v-1z" fill="rgb(216,216,216)"/>
<path d="M59 13h2v1h-1v1h-1v1h-1v1h-1v1h-1v1h-1v1h-1v1h-1v1h-1v1h-1v1h-1v1h-1v-2h1v-1h1
	v-1h1v-1h1v-1h1v-1h1v-1h1v-1h1v-1h1v-1h1v-1z" fill="rgb(198,198,198)"/>
<path d="M61 13h2v2h-1v1h-1v1h-1v1h-1v1h-1v1h-1v1h-1v1h-1v1h-1v1h-1v1h-1v1h-1v1h-1v1h-1
	v-3h1v-1h1v-1h1v-1h1v-1h1v-1h1v-1h1v-1h1v-1h1v-1h1v-1h1v-1h1v-1z" fill="rgb(216,216,216)"/>
<path d="M151 13h2v1h-2v-1z" fill="rgb(92,117,47)"/>
<path d="M5 14h2v1h-2v-1z" fill="rgb(92,117,47)"/>
<path d="M7 14h2v2h-2v-2z" fill="rgb(186,224,112)"/>
<path d="M9 14h2v1h-2v-1z" fill="rgb(92,117,47)"/>
<path d="M40 14h1v1h-1v-1z" fill="rgb(216,216,216)"/>
<path d="M46 14h1v10h-1v1h-1v1h-1v1h-1v1h-1v1h-1v1h-8v-3h1v-1h1v-1h1v-1h1v-1h1v-1h1v-1h1
	v-1h1v-1h1v-1h1v-1h1v-1h1v-1h1v-1z" fill="rgb(198,198,198)"/>
<path d="M57 14h1v1h-1v-1z" fill="rgb(216,216,216)"/>
<path d="M149 14h2v1h-2v-1z" fill="rgb(92,117,47)"/>
<path d="M151 14h2v2h-2v-2z" fill="rgb(186,224,112)"/>
<path d="M153 14h2v1h-2v-1z" fill="rgb(92,117,47)"/>
<path d="M0 15h4v1h-4v-1z" fill="rgb(78,102,136)"/>
<path d="M4 15h1v1h-1v-1z" fill="rgb(92,117,47)"/>
<path d="M5 15h1v2h-1v1h-1v-2h1v-1z" fill="rgb(186,224,112)"/>
<path d="M6 15h1v1h-1v-1z" fill="rgb(146,184,75)"/>
<path d="M9 15h1v1h-1v-1z" fill="rgb(146,184,75)"/>
<path d="M10 15h1v1h1v2h-1v-1h-1v-2z" fill="rgb(186,224,112)"/>
<path d="M11 15h1v1h-1v-1z" fill="rgb(92,117,47)"/>
<path d="M12 15h15v1h-15v-1z" fill="rgb(78,102,136)"/>
<path d="M39 15h1v1h-1v-1z" fill="rgb(216,216,216)"/>
<path d="M56 15h1v1h-1v-1z" fill="rgb(216,216,216)"/>
<path d="M62 15h1v10h-1v1h-1v1h-1v1h-1v1h-1v1h-9v-2h1v-1h1v-1h1v-1h1v-1h1v-1h1v-1h1v-1h1
	v-1h1v-1h1v-1h1v-1h1v-1h1v-1z" fill="rgb(198,198,198)"/>
<path d="M69 15h79v1h-79v-1z" fill="rgb(78,102,136)"/>
<path d="M148 15h1v1h-1v-1z" fill="rgb(92,117,47)"/>
<path d="M149 15h1v2h-1v1h-1v-2h1v-1z" fill="rgb(186,224,112)"/>
<path d="M150 15h1v1h-1v-1z" fill="rgb(146,184,75)"/>
<path d="M153 15h1v1h-1v-1z" fill="rgb(146,184,75)"/>
<path d="M154 15h1v1h1v2h-1v-1h-1v-2z" fill="rgb(186,224,112)"/>
<path d="M155 15h1v1h-1v-1z" fill="rgb(92,117,47)"/>
<path d="M156 15h4v1h-4v-1z" fill="rgb(78,102,136)"/>
<path d="M0 16h3v1h-3v-1z" fill="rgb(182,197,212)"/>
<path d="M3 16h1v1h-1v-1z" fill="rgb(92,117,47)"/>
<path d="M6 16h4v2h-1v-1h-2v1h-1v-2z" fill="rgb(170,209,97)"/>
<path d="M12 16h1v1h-1v-1z" fill="rgb(92,117,47)"/>
<path d="M13 16h14v1h-14v-1z" fill="rgb(182,197,212)"/>
<path d="M38 16h1v1h-1v-1z" fill="rgb(216,216,216)"/>
<path d="M55 16h1v1h-1v-1z" fill="rgb(216,216,216)"/>
<path d="M69 16h78v1h-78v-1z" fill="rgb(182,197,212)"/>
<path d="M147 16h1v1h-1v-1z" fill="rgb(92,117,47)"/>
<path d="M150 16h4v2h-1v-1h-2v1h-1v-2z" fill="rgb(170,209,97)"/>
<path d="M156 16h1v1h-1v-1z" fill="rgb(92,117,47)"/>
<path d="M157 16h3v1h-3v-1z" fill="rgb(182,197,212)"/>
<path d="M0 17h2v3h-2v-3z" fill="rgb(155,173,192)"/>
<path d="M2 17h1v3h-1v-3z" fill="rgb(92,117,47)"/>
<path d="M3 17h1v1h1v1h-1v1h-1v-3z" fill="rgb(170,209,97)"/>
<path d="M5 17h1v2h-1v-2z" fill="rgb(146,184,75)"/>
<path d="M7 17h2v1h1v2h-1v1h-2v-1h-1v-2h1v-1z" fill="rgb(186,224,112)"/>
<path d="M10 17h1v2h-1v-2z" fill="rgb(146,184,75)"/>
<path d="M12 17h1v3h-1v-1h-1v-1h1v-1z" fill="rgb(170,209,97)"/>
<path d="M13 17h1v3h-1v-3z" fill="rgb(92,117,47)"/>
<path d="M14 17h13v3h-13v-3z" fill="rgb(155,173,192)"/>
<path d="M37 17h1v1h-1v-1z" fill="rgb(216,216,216)"/>
<path d="M54 17h1v1h-1v-1z" fill="rgb(216,216,216)"/>
<path d="M69 17h77v3h-77v-3z" fill="rgb(155,173,192)"/>
<path d="M146 17h1v3h-1v-3z" fill="rgb(92,117,47)"/>
<path d="M147 17h1v1h1v1h-1v1h-1v-3z" fill="rgb(170,209,97)"/>
<path d="M149 17h1v2h-1v-2z" fill="rgb(146,184,75)"/>
<path d="M151 17h2v1h1v2h-1v1h-2v-1h-1v-2h1v-1z" fill="rgb(186,224,112)"/>
<path d="M154 17h1v2h-1v-2z" fill="rgb(146,184,75)"/>
<path d="M156 17h1v3h-1v-1h-1v-1h1v-1z" fill="rgb(170,209,97)"/>
<path d="M157 17h1v3h-1v-3z" fill="rgb(92,117,47)"/>
<path d="M158 17h2v3h-2v-3z" fill="rgb(155,173,192)"/>
<path d="M28 18h3v5h-3v-5z" fill="rgb(129,129,129)"/>
<path d="M36 18h1v1h-1v-1z" fill="rgb(216,216,216)"/>
<path d="M53 18h1v1h-1v-1z" fill="rgb(216,216,216)"/>
<path d="M4 19h1v2h1v1h4v-1h1v-2h1v1h1v1h-1v2h-2v1h-4v-1h-2v-2h-1v-1h1v-1z" fill="rgb(146,184,75)"/>
<path d="M5 19h1v1h1v1h2v-1h1v-1h1v2h-1v1h-4v-1h-1v-2z" fill="rgb(170,209,97)"/>
<path d="M29 19h1v1h-1v-1z" fill="rgb(216,216,216)"/>
<path d="M35 19h1v1h-1v-1z" fill="rgb(216,216,216)"/>
<path d="M52 19h1v1h-1v-1z" fill="rgb(216,216,216)"/>
<path d="M148 19h1v2h1v1h4v-1h1v-2h1v1h1v1h-1v2h-2v1h-4v-1h-2v-2h-1v-1h1v-1z" fill="rgb(146,184,75)"/>
<path d="M149 19h1v1h1v1h2v-1h1v-1h1v2h-1v1h-4v-1h-1v-2z" fill="rgb(170,209,97)"/>
<path d="M0 20h1v1h-1v-1z" fill="rgb(78,102,136)"/>
<path d="M1 20h1v4h-1v-4z" fill="rgb(92,117,47)"/>
<path d="M2 20h1v1h1v2h-1v-1h-1v-2z" fill="rgb(121,154,61)"/>
<path d="M13 20h1v2h-1v1h-1v-2h1v-1z" fill="rgb(121,154,61)"/>
<path d="M14 20h1v4h-1v-4z" fill="rgb(92,117,47)"/>
<path d="M15 20h12v1h-12v-1z" fill="rgb(78,102,136)"/>
<path d="M34 20h1v1h-1v-1z" fill="rgb(216,216,216)"/>
<path d="M51 20h1v1h-1v-1z" fill="rgb(216,216,216)"/>
<path d="M69 20h76v1h-76v-1z" fill="rgb(78,102,136)"/>
<path d="M145 20h1v4h-1v-4z" fill="rgb(92,117,47)"/>
<path d="M146 20h1v1h1v2h-1v-1h-1v-2z" fill="rgb(121,154,61)"/>
<path d="M157 20h1v2h-1v1h-1v-2h1v-1z" fill="rgb(121,154,61)"/>
<path d="M158 20h1v4h-1v-4z" fill="rgb(92,117,47)"/>
<path d="M159 20h1v1h-1v-1z" fill="rgb(78,102,136)"/>
<path d="M0 21h1v3h-1v-3z" fill="rgb(127,161,189)"/>
<path d="M15 21h1v4h-1v-4z" fill="rgb(155,173,192)"/>
<path d="M16 21h2v3h-2v-3z" fill="rgb(127,161,189)"/>
<path d="M18 21h2v4h-1v1h-1v-5z" fill="rgb(155,173,192)"/>
<path d="M20 21h2v3h-2v-3z" fill="rgb(127,161,189)"/>
<path d="M22 21h2v4h-1v1h-1v-5z" fill="rgb(155,173,192)"/>
<path d="M24 21h2v3h-2v-3z" fill="rgb(127,161,189)"/>
<path d="M26 21h1v5h-1v-5z" fill="rgb(155,173,192)"/>
<path d="M29 21h1v1h-1v-1z" fill="rgb(216,216,216)"/>
<path d="M33 21h1v1h-1v-1z" fill="rgb(216,216,216)"/>
<path d="M50 21h1v1h-1v-1z" fill="rgb(216,216,216)"/>
<path d="M69 21h1v3h-1v-3z" fill="rgb(127,161,189)"/>
<path d="M70 21h2v4h-1v1h-1v-5z" fill="rgb(155,173,192)"/>
<path d="M72 21h2v3h-2v-3z" fill="rgb(127,161,189)"/>
<path d="M74 21h2v4h-1v1h-1v-5z" fill="rgb(155,173,192)"/>
<path d="M76 21h2v3h-2v-3z" fill="rgb(127,161,189)"/>
<path d="M78 21h2v4h-1v1h-1v-5z" fill="rgb(155,173,192)"/>
<path d="M80 21h1v1h-1v-1z" fill="rgb(127,161,189)"/>
<path d="M81 21h14v1h-14v-1z" fill="rgb(48,48,48)"/>
<path d="M95 21h1v1h-1v-1z" fill="rgb(155,173,192)"/>
<path d="M96 21h2v3h-2v-3z" fill="rgb(127,161,189)"/>
<path d="M98 21h2v4h-1v1h-1v-5z" fill="rgb(155,173,192)"/>
<path d="M100 21h2v3h-2v-3z" fill="rgb(127,161,189)"/>
<path d="M102 21h2v4h-1v1h-1v-5z" fill="rgb(155,173,192)"/>
<path d="M104 21h2v3h-2v-3z" fill="rgb(127,161,189)"/>
<path d="M106 21h2v4h-1v1h-1v-5z" fill="rgb(155,173,192)"/>
<path d="M108 21h2v3h-2v-3z" fill="rgb(127,161,189)"/>
<path d="M110 21h2v4h-1v1h-1v-5z" fill="rgb(155,173,192)"/>
<path d="M112 21h2v3h-2v-3z" fill="rgb(127,161,189)"/>
<path d="M114 21h2v4h-1v1h-1v-5z" fill="rgb(155,173,192)"/>
<path d="M116 21h2v3h-2v-3z" fill="rgb(127,161,189)"/>
<path d="M118 21h2v4h-1v1h-1v-5z" fill="rgb(155,173,192)"/>
<path d="M120 21h2v3h-2v-3z" fill="rgb(127,161,189)"/>
<path d="M122 21h2v4h-1v1h-1v-5z" fill="rgb(155,173,192)"/>
<path d="M124 21h2v3h-2v-3z" fill="rgb(127,161,189)"/>
<path d="M126 21h2v4h-1v1h-1v-5z" fill="rgb(155,173,192)"/>
<path d="M128 21h2v3h-2v-3z" fill="rgb(127,161,189)"/>
<path d="M130 21h2v4h-1v1h-1v-5z" fill="rgb(155,173,192)"/>
<path d="M132 21h2v3h-2v-3z" fill="rgb(127,161,189)"/>
<path d="M134 21h2v4h-1v1h-1v-5z" fill="rgb(155,173,192)"/>
<path d="M136 21h2v3h-2v-3z" fill="rgb(127,161,189)"/>
<path d="M138 21h2v4h-1v1h-1v-5z" fill="rgb(155,173,192)"/>
<path d="M140 21h2v3h-2v-3z" fill="rgb(127,161,189)"/>
<path d="M142 21h2v4h-1v1h-1v-5z" fill="rgb(155,173,192)"/>
<path d="M144 21h1v3h-1v-3z" fill="rgb(127,161,189)"/>
<path d="M159 21h1v4h-1v-4z" fill="rgb(155,173,192)"/>
<path d="M2 22h1v1h1v2h-1v1h-1v-4z" fill="rgb(146,184,75)"/>
<path d="M13 22h1v4h-1v-1h-1v-2h1v-1z" fill="rgb(146,184,75)"/>
<path d="M49 22h1v1h-1v-1z" fill="rgb(216,216,216)"/>
<path d="M80 22h1v30h-1v-30z" fill="rgb(48,48,48)"/>
<path d="M81 22h2v1h-1v27h-1v-28z" fill="rgb(188,188,188)"/>
<path d="M83 22h10v1h1v17h1v1h30v10h-43v-28h1v-1z" fill="rgb(205,205,205)"/>
<path d="M93 22h2v18h-1v-17h-1v-1z" fill="rgb(238,238,238)"/>
<path d="M95 22h1v18h-1v-18z" fill="rgb(48,48,48)"/>
<path d="M146 22h1v1h1v2h-1v1h-1v-4z" fill="rgb(146,184,75)"/>
<path d="M157 22h1v4h-1v-1h-1v-2h1v-1z" fill="rgb(146,184,75)"/>
<path d="M4 23h2v1h4v-1h2v2h1v3h-2v-1h-1v2h-1v1h-2v-1h-1v-2h-1v1h-2v-3h1v-2z" fill="rgb(121,154,61)"/>
<path d="M28 23h3v3h-3v-3z" fill="rgb(160,160,160)"/>
<path d="M148 23h2v1h4v-1h2v2h1v3h-2v-1h-1v2h-1v1h-2v-1h-1v-2h-1v1h-2v-3h1v-2z" fill="rgb(121,154,61)"/>
<path d="M0 24h1v2h1v5h-2v-7z" fill="rgb(104,137,165)"/>
<path d="M1 24h1v2h-1v-2z" fill="rgb(71,89,36)"/>
<path d="M14 24h1v2h-1v-2z" fill="rgb(71,89,36)"/>
<path d="M16 24h2v7h-2v-7z" fill="rgb(104,137,165)"/>
<path d="M20 24h2v7h-2v-7z" fill="rgb(104,137,165)"/>
<path d="M24 24h2v7h-2v-7z" fill="rgb(104,137,165)"/>
<path d="M46 24h1v1h-1v-1z" fill="rgb(216,216,216)"/>
<path d="M69 24h1v7h-1v-7z" fill="rgb(104,137,165)"/>
<path d="M72 24h2v7h-2v-7z" fill="rgb(104,137,165)"/>
<path d="M76 24h2v7h-2v-7z" fill="rgb(104,137,165)"/>
<path d="M96 24h2v7h-2v-7z" fill="rgb(104,137,165)"/>
<path d="M100 24h2v7h-2v-7z" fill="rgb(104,137,165)"/>
<path d="M104 24h2v7h-2v-7z" fill="rgb(104,137,165)"/>
<path d="M108 24h2v7h-2v-7z" fill="rgb(104,137,165)"/>
<path d="M112 24h2v7h-2v-7z" fill="rgb(104,137,165)"/>
<path d="M116 24h2v7h-2v-7z" fill="rgb(104,137,165)"/>
<path d="M120 24h2v7h-2v-7z" fill="rgb(104,137,165)"/>
<path d="M124 24h2v7h-2v-7z" fill="rgb(104,137,165)"/>
<path d="M128 24h2v7h-2v-7z" fill="rgb(104,137,165)"/>
<path d="M132 24h2v7h-2v-7z" fill="rgb(104,137,165)"/>
<path d="M136 24h2v7h-2v-7z" fill="rgb(104,137,165)"/>
<path d="M140 24h2v7h-2v-7z" fill="rgb(104,137,165)"/>
<path d="M144 24h1v2h1v5h-2v-7z" fill="rgb(104,137,165)"/>
<path d="M145 24h1v2h-1v-2z" fill="rgb(71,89,36)"/>
<path d="M158 24h1v2h-1v-2z" fill="rgb(71,89,36)"/>
<path d="M15 25h1v6h-2v-5h1v-1z" fill="rgb(134,156,180)"/>
<path d="M19 25h1v6h-2v-5h1v-1z" fill="rgb(134,156,180)"/>
<path d="M23 25h1v6h-2v-5h1v-1z" fill="rgb(134,156,180)"/>
<path d="M45 25h1v1h-1v-1z" fill="rgb(216,216,216)"/>
<path d="M46 25h1v2h-1v1h-1v1h-1v1h-2v-1h1v-1h1v-1h1v-1h1v-1z" fill="rgb(198,198,198)"/>
<path d="M62 25h1v1h-1v-1z" fill="rgb(216,216,216)"/>
<path d="M71 25h1v6h-2v-5h1v-1z" fill="rgb(134,156,180)"/>
<path d="M75 25h1v6h-2v-5h1v-1z" fill="rgb(134,156,180)"/>
<path d="M79 25h1v6h-2v-5h1v-1z" fill="rgb(134,156,180)"/>
<path d="M99 25h1v6h-2v-5h1v-1z" fill="rgb(134,156,180)"/>
<path d="M103 25h1v6h-2v-5h1v-1z" fill="rgb(134,156,180)"/>
<path d="M107 25h1v6h-2v-5h1v-1z" fill="rgb(134,156,180)"/>
<path d="M111 25h1v6h-2v-5h1v-1z" fill="rgb(134,156,180)"/>
<path d="M115 25h1v6h-2v-5h1v-1z" fill="rgb(134,156,180)"/>
<path d="M119 25h1v6h-2v-5h1v-1z" fill="rgb(134,156,180)"/>
<path d="M123 25h1v6h-2v-5h1v-1z" fill="rgb(134,156,180)"/>
<path d="M127 25h1v6h-2v-5h1v-1z" fill="rgb(134,156,180)"/>
<path d="M131 25h1v6h-2v-5h1v-1z" fill="rgb(134,156,180)"/>
<path d="M135 25h1v6h-2v-5h1v-1z" fill="rgb(134,156,180)"/>
<path d="M139 25h1v6h-2v-5h1v-1z" fill="rgb(134,156,180)"/>
<path d="M143 25h1v6h-2v-5h1v-1z" fill="rgb(134,156,180)"/>
<path d="M159 25h1v6h-2v-5h1v-1z" fill="rgb(134,156,180)"/>
<path d="M2 26h1v2h-1v-2z" fill="rgb(71,89,36)"/>
<path d="M13 26h1v2h-1v-2z" fill="rgb(71,89,36)"/>
<path d="M26 26h1v5h-1v-5z" fill="rgb(134,156,180)"/>
<path d="M28 26h3v1h-3v-1z" fill="rgb(129,129,129)"/>
<path d="M44 26h1v1h-1v-1z" fill="rgb(216,216,216)"/>
<path d="M61 26h1v1h-1v-1z" fill="rgb(216,216,216)"/>
<path d="M62 26h1v3h-1v1h-3v-1h1v-1h1v-1h1v-1z" fill="rgb(198,198,198)"/>
<path d="M65 26h3v1h-3v-1z" fill="rgb(129,129,129)"/>
<path d="M146 26h1v2h-1v-2z" fill="rgb(71,89,36)"/>
<path d="M157 26h1v2h-1v-2z" fill="rgb(71,89,36)"/>
<path d="M5 27h1v2h-2v-1h1v-1z" fill="rgb(99,131,38)"/>
<path d="M10 27h1v1h1v1h-2v-2z" fill="rgb(99,131,38)"/>
<path d="M28 27h3v1h-3v-1z" fill="rgb(160,160,160)"/>
<path d="M43 27h1v1h-1v-1z" fill="rgb(216,216,216)"/>
<path d="M46 27h1v3h-3v-1h1v-1h1v-1z" fill="rgb(216,216,216)"/>
<path d="M60 27h1v1h-1v-1z" fill="rgb(216,216,216)"/>
<path d="M65 27h3v1h-3v-1z" fill="rgb(160,160,160)"/>
<path d="M149 27h1v2h-2v-1h1v-1z" fill="rgb(99,131,38)"/>
<path d="M154 27h1v1h1v1h-2v-2z" fill="rgb(99,131,38)"/>
<path d="M2 28h1v1h1v2h-2v-3z" fill="rgb(134,156,180)"/>
<path d="M3 28h1v1h-1v-1z" fill="rgb(71,89,36)"/>
<path d="M12 28h1v1h-1v-1z" fill="rgb(71,89,36)"/>
<path d="M13 28h1v3h-2v-2h1v-1z" fill="rgb(104,137,165)"/>
<path d="M28 28h3v3h-3v-3z" fill="rgb(129,129,129)"/>
<path d="M42 28h1v1h-1v-1z" fill="rgb(216,216,216)"/>
<path d="M59 28h1v1h-1v-1z" fill="rgb(216,216,216)"/>
<path d="M65 28h3v3h-3v-3z" fill="rgb(129,129,129)"/>
<path d="M146 28h1v1h1v2h-2v-3z" fill="rgb(134,156,180)"/>
<path d="M147 28h1v1h-1v-1z" fill="rgb(71,89,36)"/>
<path d="M156 28h1v1h-1v-1z" fill="rgb(71,89,36)"/>
<path d="M157 28h1v3h-2v-2h1v-1z" fill="rgb(104,137,165)"/>
<path d="M4 29h2v1h-2v-1z" fill="rgb(71,89,36)"/>
<path d="M6 29h1v1h-1v-1z" fill="rgb(99,131,38)"/>
<path d="M9 29h1v1h-1v-1z" fill="rgb(99,131,38)"/>
<path d="M10 29h2v1h-2v-1z" fill="rgb(71,89,36)"/>
<path d="M41 29h1v1h-1v-1z" fill="rgb(216,216,216)"/>
<path d="M58 29h1v1h-1v-1z" fill="rgb(216,216,216)"/>
<path d="M148 29h2v1h-2v-1z" fill="rgb(71,89,36)"/>
<path d="M150 29h1v1h-1v-1z" fill="rgb(99,131,38)"/>
<path d="M153 29h1v1h-1v-1z" fill="rgb(99,131,38)"/>
<path d="M154 29h2v1h-2v-1z" fill="rgb(71,89,36)"/>
<path d="M4 30h2v1h-2v-1z" fill="rgb(104,137,165)"/>
<path d="M6 30h1v5h-1v-5z" fill="rgb(105,70,35)"/>
<path d="M7 30h2v2h-2v-2z" fill="rgb(163,108,54)"/>
<path d="M9 30h1v5h-1v-5z" fill="rgb(105,70,35)"/>
<path d="M10 30h2v1h-2v-1z" fill="rgb(134,156,180)"/>
<path d="M148 30h2v1h-2v-1z" fill="rgb(104,137,165)"/>
<path d="M150 30h1v5h-1v-5z" fill="rgb(105,70,35)"/>
<path d="M151 30h2v2h-2v-2z" fill="rgb(163,108,54)"/>
<path d="M153 30h1v5h-1v-5z" fill="rgb(105,70,35)"/>
<path d="M154 30h2v1h-2v-1z" fill="rgb(134,156,180)"/>
<path d="M0 31h4v1h-4v-1z" fill="rgb(78,102,136)"/>
<path d="M4 31h2v1h-2v-1z" fill="rgb(48,48,48)"/>
<path d="M10 31h2v1h-2v-1z" fill="rgb(48,48,48)"/>
<path d="M12 31h15v1h-15v-1z" fill="rgb(78,102,136)"/>
<path d="M32 31h15v1h-15v-1z" fill="rgb(129,129,129)"/>
<path d="M49 31h15v1h-15v-1z" fill="rgb(129,129,129)"/>
<path d="M69 31h11v1h-11v-1z" fill="rgb(78,102,136)"/>
<path d="M96 31h52v1h-52v-1z" fill="rgb(78,102,136)"/>
<path d="M148 31h2v1h-2v-1z" fill="rgb(48,48,48)"/>
<path d="M154 31h2v1h-2v-1z" fill="rgb(48,48,48)"/>
<path d="M156 31h4v1h-4v-1z" fill="rgb(78,102,136)"/>
<path d="M0 32h3v1h-1v4h-1v1h-1v-6z" fill="rgb(99,146,133)"/>
<path d="M3 32h1v1h-1v-1z" fill="rgb(48,48,48)"/>
<path d="M4 32h2v1h-2v-1z" fill="rgb(174,174,174)"/>
<path d="M7 32h2v4h-2v-4z" fill="rgb(190,126,63)"/>
<path d="M10 32h2v1h-2v-1z" fill="rgb(174,174,174)"/>
<path d="M12 32h1v1h-1v-1z" fill="rgb(48,48,48)"/>
<path d="M13 32h9v1h-1v1h-1v1h-1v1h-1v1h-1v1h-2v-3h-1v-2h-1v-1z" fill="rgb(99,146,133)"/>
<path d="M22 32h4v1h1v1h1v1h1v1h1v1h1v1h2v-1h1v-1h1v-1h1v-1h1v-1h1v-1h4v1h1v1h1v1h1v1h1
	v1h1v1h2v-1h1v-1h1v-1h1v-1h1v-1h1v-1h4v1h1v1h1v1h1v1h1v1h1v1h2v-1h1v-1h1v-1h1
	v-1h1v-1h1v-1h4v1h1v1h1v1h1v1h1v1h1v3h-1v-1h-1v-1h-1v-1h-1v-1h-1v-1h-1v-1h-2v1
	h-1v1h-1v1h-1v1h-1v1h-1v1h-4v-1h-1v-1h-1v-1h-1v-1h-1v-1h-1v-1h-2v1h-1v1h-1v1h-1
	v1h-1v1h-1v1h-4v-1h-1v-1h-1v-1h-1v-1h-1v-1h-1v-1h-2v1h-1v1h-1v1h-1v1h-1v1h-1v1
	h-4v-1h-1v-1h-1v-1h-1v-1h-1v-1h-1v-1h-2v1h-1v1h-1v1h-1v1h-1v1h-1v1h-3v-2h2v-1h1
	v-1h1v-1h1v-1h1v-1h1v-1z" fill="rgb(128,159,151)"/>
<path d="M26 32h12v1h-1v1h-1v1h-1v1h-1v1h-1v1h-2v-1h-1v-1h-1v-1h-1v-1h-1v-1h-1v-1z" fill="rgb(99,146,133)"/>
<path d="M42 32h12v1h-1v1h-1v1h-1v1h-1v1h-1v1h-2v-1h-1v-1h-1v-1h-1v-1h-1v-1h-1v-1z" fill="rgb(99,146,133)"/>
<path d="M58 32h12v1h-1v1h-1v1h-1v1h-1v1h-1v1h-2v-1h-1v-1h-1v-1h-1v-1h-1v-1h-1v-1z" fill="rgb(99,146,133)"/>
<path d="M74 32h5v5h-1v-1h-1v-1h-1v-1h-1v-1h-1v-1z" fill="rgb(99,146,133)"/>
<path d="M79 32h1v6h-1v-6z" fill="rgb(74,109,100)"/>
<path d="M96 32h6v1h-1v1h-1v1h-1v1h-1v1h-1v1h-1v-6z" fill="rgb(99,146,133)"/>
<path d="M102 32h4v1h1v1h1v1h1v1h1v1h1v1h2v-1h1v-1h1v-1h1v-1h1v-1h1v-1h4v1h1v1h1v1h1v1h1
	v1h1v1h2v-1h1v-1h1v-1h1v-1h1v-1h1v-1h4v1h1v1h1v1h1v1h1v1h1v1h2v-1h1v3h-4v-1h-1
	v-1h-1v-1h-1v-1h-1v-1h-1v-1h-2v1h-1v1h-1v1h-1v1h-1v1h-1v1h-4v-1h-1v-1h-1v-1h-1
	v-1h-1v-1h-1v-1h-2v1h-1v1h-1v1h-1v1h-1v1h-1v1h-4v-1h-1v-1h-1v-1h-1v-1h-1v-1h-1
	v-1h-2v1h-1v1h-1v1h-1v1h-1v1h-1v1h-2v-2h1v-1h1v-1h1v-1h1v-1h1v-1h1v-1z" fill="rgb(128,159,151)"/>
<path d="M106 32h12v1h-1v1h-1v1h-1v1h-1v1h-1v1h-2v-1h-1v-1h-1v-1h-1v-1h-1v-1h-1v-1z" fill="rgb(99,146,133)"/>
<path d="M122 32h12v1h-1v1h-1v1h-1v1h-1v1h-1v1h-2v-1h-1v-1h-1v-1h-1v-1h-1v-1h-1v-1z" fill="rgb(99,146,133)"/>
<path d="M138 32h9v1h-1v4h-1v1h-2v-1h-1v-1h-1v-1h-1v-1h-1v-1h-1v-1z" fill="rgb(99,146,133)"/>
<path d="M147 32h1v1h-1v-1z" fill="rgb(48,48,48)"/>
<path d="M148 32h2v1h-2v-1z" fill="rgb(174,174,174)"/>
<path d="M151 32h2v4h-2v-4z" fill="rgb(190,126,63)"/>
<path d="M154 32h2v1h-2v-1z" fill="rgb(174,174,174)"/>
<path d="M156 32h1v1h-1v-1z" fill="rgb(48,48,48)"/>
<path d="M157 32h3v6h-1v-3h-1v-2h-1v-1z" fill="rgb(99,146,133)"/>
<path d="M2 33h1v3h-1v-3z" fill="rgb(130,130,130)"/>
<path d="M3 33h1v1h-1v-1z" fill="rgb(174,174,174)"/>
<path d="M4 33h1v3h1v1h4v-1h1v-3h1v4h-1v1h-6v-1h-1v-4z" fill="rgb(238,238,238)"/>
<path d="M5 33h1v2h1v1h2v-1h1v-2h1v3h-1v1h-4v-1h-1v-3z" fill="rgb(93,87,87)"/>
<path d="M12 33h1v2h-1v-2z" fill="rgb(174,174,174)"/>
<path d="M13 33h1v3h-1v-3z" fill="rgb(130,130,130)"/>
<path d="M146 33h1v3h-1v-3z" fill="rgb(130,130,130)"/>
<path d="M147 33h1v1h-1v-1z" fill="rgb(174,174,174)"/>
<path d="M148 33h1v3h1v1h4v-1h1v-3h1v4h-1v1h-6v-1h-1v-4z" fill="rgb(238,238,238)"/>
<path d="M149 33h1v2h1v1h2v-1h1v-2h1v3h-1v1h-4v-1h-1v-3z" fill="rgb(93,87,87)"/>
<path d="M156 33h1v2h-1v-2z" fill="rgb(174,174,174)"/>
<path d="M157 33h1v3h-1v-3z" fill="rgb(130,130,130)"/>
<path d="M3 34h1v3h-1v-3z" fill="rgb(205,205,205)"/>
<path d="M23 34h2v1h1v1h1v1h1v1h1v1h1v1h-2v-1h-1v-1h-1v-1h-1v-1h-2v1h-1v1h-1v1h-1v1h-2
	v-1h1v-1h1v-1h1v-1h1v-1h1v-1z" fill="rgb(93,122,147)"/>
<path d="M39 34h2v1h1v1h1v1h1v1h1v1h1v1h-2v-1h-1v-1h-1v-1h-1v-1h-2v1h-1v1h-1v1h-1v1h-2
	v-1h1v-1h1v-1h1v-1h1v-1h1v-1z" fill="rgb(93,122,147)"/>
<path d="M55 34h2v1h1v1h1v1h1v1h1v1h1v1h-2v-1h-1v-1h-1v-1h-1v-1h-2v1h-1v1h-1v1h-1v1h-2
	v-1h1v-1h1v-1h1v-1h1v-1h1v-1z" fill="rgb(93,122,147)"/>
<path d="M71 34h2v1h1v1h1v1h1v1h1v1h1v1h-2v-1h-1v-1h-1v-1h-1v-1h-2v1h-1v1h-1v1h-1v1h-2
	v-1h1v-1h1v-1h1v-1h1v-1h1v-1z" fill="rgb(93,122,147)"/>
<path d="M103 34h2v1h1v1h1v1h1v1h1v1h1v1h-2v-1h-1v-1h-1v-1h-1v-1h-2v1h-1v1h-1v1h-1v1h-2
	v-1h1v-1h1v-1h1v-1h1v-1h1v-1z" fill="rgb(93,122,147)"/>
<path d="M119 34h2v1h1v1h1v1h1v1h1v1h1v1h-2v-1h-1v-1h-1v-1h-1v-1h-2v1h-1v1h-1v1h-1v1h-2
	v-1h1v-1h1v-1h1v-1h1v-1h1v-1z" fill="rgb(93,122,147)"/>
<path d="M135 34h2v1h1v1h1v1h1v1h1v1h1v1h-2v-1h-1v-1h-1v-1h-1v-1h-2v1h-1v1h-1v1h-1v1h-2
	v-1h1v-1h1v-1h1v-1h1v-1h1v-1z" fill="rgb(93,122,147)"/>
<path d="M147 34h1v3h-1v-3z" fill="rgb(205,205,205)"/>
<path d="M12 35h1v2h-1v-2z" fill="rgb(205,205,205)"/>
<path d="M14 35h1v2h-1v-2z" fill="rgb(74,109,100)"/>
<path d="M156 35h1v2h-1v-2z" fill="rgb(205,205,205)"/>
<path d="M158 35h1v2h-1v-2z" fill="rgb(74,109,100)"/>
<path d="M2 36h1v2h-1v-2z" fill="rgb(48,48,48)"/>
<path d="M13 36h1v2h-1v-2z" fill="rgb(48,48,48)"/>
<path d="M23 36h2v1h1v1h1v1h1v1h-8v-1h1v-1h1v-1h1v-1z" fill="rgb(103,136,164)"/>
<path d="M39 36h2v1h1v1h1v1h1v1h-8v-1h1v-1h1v-1h1v-1z" fill="rgb(103,136,164)"/>
<path d="M55 36h2v1h1v1h1v1h1v1h-8v-1h1v-1h1v-1h1v-1z" fill="rgb(103,136,164)"/>
<path d="M71 36h2v1h1v1h1v1h1v1h-8v-1h1v-1h1v-1h1v-1z" fill="rgb(103,136,164)"/>
<path d="M103 36h2v1h1v1h1v1h1v1h-8v-1h1v-1h1v-1h1v-1z" fill="rgb(103,136,164)"/>
<path d="M119 36h2v1h1v1h1v1h1v1h-8v-1h1v-1h1v-1h1v-1z" fill="rgb(103,136,164)"/>
<path d="M135 36h2v1h1v1h1v1h1v1h-8v-1h1v-1h1v-1h1v-1z" fill="rgb(103,136,164)"/>
<path d="M146 36h1v2h-1v-2z" fill="rgb(48,48,48)"/>
<path d="M157 36h1v2h-1v-2z" fill="rgb(48,48,48)"/>
<path d="M1 37h1v4h1v1h1v1h1v1h1v1h1v1h1v4h-1v1h-1v1h-1v1h-1v1h-1v1h-1v2h1v1h1v1h1v1h1v1
	h1v1h1v4h-1v1h-1v1h-1v1h-1v1h-1v1h-1v2h1v1h1v1h1v1h1v1h1v1h1v4h-1v1h-1v1h-1v1
	h-1v1h-1v1h-1v2h1v1h1v1h1v1h1v1h1v1h1v4h-1v1h-1v1h-1v1h-1v1h-1v1h-1v2h1v1h1v1h1
	v1h1v1h1v1h1v2h-2v-1h-1v-1h-1v-1h-1v-1h-1v-1h-1v-1h-1v-4h1v-1h1v-1h1v-1h1v-1h1
	v-1h1v-2h-1v-1h-1v-1h-1v-1h-1v-1h-1v-1h-1v-4h1v-1h1v-1h1v-1h1v-1h1v-1h1v-2h-1
	v-1h-1v-1h-1v-1h-1v-1h-1v-1h-1v-4h1v-1h1v-1h1v-1h1v-1h1v-1h1v-2h-1v-1h-1v-1h-1
	v-1h-1v-1h-1v-1h-1v-4h1v-1h1v-1h1v-1h1v-1h1v-1h1v-2h-1v-1h-1v-1h-1v-1h-1v-1h-1
	v-1h-1v-4h1v-1z" fill="rgb(128,159,151)"/>
<path d="M3 37h1v1h-1v-1z" fill="rgb(174,174,174)"/>
<path d="M4 37h1v1h-1v-1z" fill="rgb(205,205,205)"/>
<path d="M11 37h1v1h-1v-1z" fill="rgb(205,205,205)"/>
<path d="M12 37h1v1h-1v-1z" fill="rgb(174,174,174)"/>
<path d="M14 37h1v3h-1v-1h-1v-1h1v-1z" fill="rgb(96,119,113)"/>
<path d="M147 37h1v1h-1v-1z" fill="rgb(174,174,174)"/>
<path d="M148 37h1v1h-1v-1z" fill="rgb(205,205,205)"/>
<path d="M155 37h1v1h-1v-1z" fill="rgb(205,205,205)"/>
<path d="M156 37h1v1h-1v-1z" fill="rgb(174,174,174)"/>
<path d="M158 37h1v3h-1v-1h-1v-1h1v-1z" fill="rgb(96,119,113)"/>
<path d="M2 38h1v1h-1v-1z" fill="rgb(96,119,113)"/>
<path d="M3 38h1v2h-1v-2z" fill="rgb(48,48,48)"/>
<path d="M4 38h1v1h-1v-1z" fill="rgb(130,130,130)"/>
<path d="M5 38h6v1h-6v-1z" fill="rgb(205,205,205)"/>
<path d="M11 38h1v1h-1v-1z" fill="rgb(130,130,130)"/>
<path d="M12 38h1v2h-1v-2z" fill="rgb(48,48,48)"/>
<path d="M79 38h1v2h-1v-2z" fill="rgb(96,119,113)"/>
<path d="M146 38h1v1h-1v-1z" fill="rgb(96,119,113)"/>
<path d="M147 38h1v2h-1v-2z" fill="rgb(48,48,48)"/>
<path d="M148 38h1v1h-1v-1z" fill="rgb(130,130,130)"/>
<path d="M149 38h6v1h-6v-1z" fill="rgb(205,205,205)"/>
<path d="M155 38h1v1h-1v-1z" fill="rgb(130,130,130)"/>
<path d="M156 38h1v2h-1v-2z" fill="rgb(48,48,48)"/>
<path d="M159 38h1v2h-1v-2z" fill="rgb(128,159,151)"/>
<path d="M2 39h1v1h-1v-1z" fill="rgb(70,91,110)"/>
<path d="M4 39h1v1h-1v-1z" fill="rgb(174,174,174)"/>
<path d="M5 39h6v1h-6v-1z" fill="rgb(130,130,130)"/>
<path d="M11 39h1v1h-1v-1z" fill="rgb(174,174,174)"/>
<path d="M13 39h1v1h-1v-1z" fill="rgb(70,91,110)"/>
<path d="M146 39h1v1h-1v-1z" fill="rgb(70,91,110)"/>
<path d="M148 39h1v1h-1v-1z" fill="rgb(174,174,174)"/>
<path d="M149 39h6v1h-6v-1z" fill="rgb(130,130,130)"/>
<path d="M155 39h1v1h-1v-1z" fill="rgb(174,174,174)"/>
<path d="M157 39h1v1h-1v-1z" fill="rgb(70,91,110)"/>
<path d="M2 40h1v1h-1v-1z" fill="rgb(93,122,147)"/>
<path d="M3 40h1v1h1v1h3v1h-4v-1h-1v-2z" fill="rgb(77,102,123)"/>
<path d="M4 40h1v1h-1v-1z" fill="rgb(48,48,48)"/>
<path d="M5 40h1v1h-1v-1z" fill="rgb(174,174,174)"/>
<path d="M6 40h4v1h-4v-1z" fill="rgb(205,205,205)"/>
<path d="M10 40h1v1h-1v-1z" fill="rgb(174,174,174)"/>
<path d="M11 40h1v1h-1v-1z" fill="rgb(48,48,48)"/>
<path d="M12 40h1v2h-1v1h-4v-1h3v-1h1v-1z" fill="rgb(103,136,164)"/>
<path d="M13 40h1v1h-1v-1z" fill="rgb(93,122,147)"/>
<path d="M14 40h4v1h1v1h1v1h1v1h1v1h1v1h2v-1h1v-1h1v-1h1v-1h1v-1h1v-1h4v1h1v1h1v1h1v1h1
	v1h1v1h2v-1h1v-1h1v-1h1v-1h1v-1h1v-1h4v1h1v1h1v1h1v1h1v1h1v1h2v-1h1v-1h1v-1h1
	v-1h1v-1h1v-1h4v1h1v1h1v1h1v1h1v1h1v1h2v-1h1v-1h1v-1h1v-1h1v-1h1v-1h1v3h-1v1h-1
	v1h-1v1h-1v1h-1v2h1v1h1v1h1v1h1v1h1v4h1v1h-1v1h-1v1h-1v1h-1v1h-1v1h-1v2h1v1h1v1
	h1v1h1v1h1v1h2v-1h1v-1h1v-1h1v-1h1v-1h1v-2h-1v-1h-1v-1h-1v-1h3v1h1v1h2v-1h1v-1
	h3v1h-1v1h-1v1h-1v2h1v1h1v1h1v1h1v1h1v1h2v-1h1v-1h1v-1h1v-1h1v-1h1v-2h-1v-1h-1
	v-1h-1v-1h3v1h1v1h2v-1h1v-1h3v1h-1v1h-1v1h-1v2h1v1h1v1h1v1h1v1h1v1h2v-1h1v-1h1
	v-1h1v-1h1v-1h1v-2h-1v-1h-1v-1h-1v-1h3v1h1v1h2v-1h1v-1h3v1h-1v1h-1v1h-1v2h1v1
	h1v1h1v1h1v1h1v1h2v-1h1v-1h1v-1h1v-1h1v-1h1v-2h-1v-1h-1v-1h-1v-1h-1v-1h-1v-1h-2
	v-1h1v-3h1v-1h1v-1h1v-1h1v-1h1v-1h1v-2h-1v-1h-1v-1h-1v-1h-1v-1h-1v-1h-2v-1h-1
	v-1h4v1h1v1h1v1h1v1h1v1h1v1h2v-1h1v-1h1v-1h1v-1h1v-1h1v-1h4v1h1v1h1v1h1v1h1v1h1
	v1h2v-1h1v-1h1v-1h2v-1h1v-2h2v2h-1v1h-1v1h-1v1h-1v1h-1v1h-1v2h1v1h1v1h1v1h1v1
	h1v1h1v4h-1v1h-1v1h-1v1h-1v1h-1v1h-1v2h1v1h1v1h1v1h1v1h1v1h1v4h-1v1h-1v1h-1v1
	h-1v1h-1v1h-1v2h1v1h1v1h1v1h1v1h1v1h1v4h-1v1h-1v1h-1v1h-1v1h-1v1h-1v2h1v1h1v1h1
	v1h1v1h1v1h1v4h-1v1h-1v1h-1v1h-1v1h-1v1h-1v1h-4v-1h-1v-1h-1v-1h-1v-1h-1v-1h-1
	v-1h-2v1h-1v1h-1v1h-1v1h-1v1h-1v1h-4v-1h-1v-1h-1v-1h-1v-1h-1v-1h-1v-1h-2v1h-1v1
	h-1v1h-1v1h-1v1h-1v1h-4v-1h-1v-1h-1v-1h-1v-1h-1v-1h-1v-1h-2v1h-1v1h-1v1h-1v1h-1
	v1h-1v1h-4v-1h-1v-1h-1v-1h-1v-1h-1v-1h-1v-1h-2v1h-1v1h-1v1h-1v1h-1v1h-1v1h-4
	v-1h-1v-1h-1v-1h-1v-1h-1v-1h-1v-1h-2v1h-1v1h-1v1h-1v1h-1v1h-1v1h-4v-1h-1v-1h-1
	v-1h-1v-1h-1v-1h-1v-1h-2v1h-1v1h-1v1h-1v1h-1v1h-1v1h-4v-1h-1v-1h-1v-1h-1v-1h-1
	v-1h-1v-2h-1v-1h-2v-1h-1v-1h-1v-1h-1v-1h-1v-1h-1v-1h-2v1h-1v1h-1v1h-1v1h-1v1h-1
	v1h-2v1h-1v2h-1v1h-1v1h-1v1h-1v1h-1v1h-4v-1h-1v-1h-1v-1h-1v-1h-1v-1h-1v-1h-2v1
	h-1v1h-1v1h-1v1h-1v1h-1v1h-2v-2h1v-1h1v-1h1v-1h1v-1h1v-1h1v-2h-1v-1h-1v-1h-1v-1
	h-1v-1h-1v-1h-1v-4h1v-1h1v-1h1v-1h1v-1h1v-1h1v-2h-1v-1h-1v-1h-1v-1h-1v-1h-1v-1
	h-1v-4h1v-1h1v-1h1v-1h1v-1h1v-1h1v-2h-1v-1h-1v-1h-1v-1h-1v-1h-1v-1h-1v-4h1v-1
	h1v-1h1v-1h1v-1h1v-1h1v-2h-1v-1h-1v-1h-1v-1h-1v-1h-1v-1h-1v-4h1v-1h1v-1h1v-1h2
	v-1h1v-2z" fill="rgb(171,212,201)"/>
<path d="M18 40h1v1h-1v-1z" fill="rgb(124,163,196)"/>
<path d="M19 40h10v2h-1v1h-1v1h-1v1h-1v1h-2v-1h-1v-1h-1v-1h-1v-1h-1v-2z" fill="rgb(138,182,219)"/>
<path d="M29 40h1v1h-1v-1z" fill="rgb(124,163,196)"/>
<path d="M34 40h1v1h-1v-1z" fill="rgb(124,163,196)"/>
<path d="M35 40h10v2h-1v1h-1v1h-1v1h-1v1h-2v-1h-1v-1h-1v-1h-1v-1h-1v-2z" fill="rgb(138,182,219)"/>
<path d="M45 40h1v1h-1v-1z" fill="rgb(124,163,196)"/>
<path d="M50 40h1v1h-1v-1z" fill="rgb(124,163,196)"/>
<path d="M51 40h10v2h-1v1h-1v1h-1v1h-1v1h-2v-1h-1v-1h-1v-1h-1v-1h-1v-2z" fill="rgb(138,182,219)"/>
<path d="M61 40h1v1h-1v-1z" fill="rgb(124,163,196)"/>
<path d="M66 40h1v1h-1v-1z" fill="rgb(124,163,196)"/>
<path d="M67 40h10v2h-1v1h-1v1h-1v1h-1v1h-2v-1h-1v-1h-1v-1h-1v-1h-1v-2z" fill="rgb(138,182,219)"/>
<path d="M77 40h1v1h-1v-1z" fill="rgb(124,163,196)"/>
<path d="M79 40h1v2h-1v-2z" fill="rgb(128,159,151)"/>
<path d="M95 40h1v1h-1v-1z" fill="rgb(188,188,188)"/>
<path d="M96 40h30v1h-30v-1z" fill="rgb(48,48,48)"/>
<path d="M130 40h1v1h-1v-1z" fill="rgb(124,163,196)"/>
<path d="M131 40h10v2h-1v1h-1v1h-1v1h-1v1h-2v-1h-1v-1h-1v-1h-1v-1h-1v-2z" fill="rgb(138,182,219)"/>
<path d="M141 40h1v1h-1v-1z" fill="rgb(124,163,196)"/>
<path d="M146 40h1v1h-1v-1z" fill="rgb(124,163,196)"/>
<path d="M147 40h1v1h1v1h6v-1h1v-1h1v2h-1v1h-8v-1h-1v-2z" fill="rgb(103,136,164)"/>
<path d="M148 40h1v1h-1v-1z" fill="rgb(48,48,48)"/>
<path d="M149 40h1v1h-1v-1z" fill="rgb(174,174,174)"/>
<path d="M150 40h4v1h-4v-1z" fill="rgb(205,205,205)"/>
<path d="M154 40h1v1h-1v-1z" fill="rgb(174,174,174)"/>
<path d="M155 40h1v1h-1v-1z" fill="rgb(48,48,48)"/>
<path d="M157 40h1v1h-1v-1z" fill="rgb(93,122,147)"/>
<path d="M5 41h6v1h-6v-1z" fill="rgb(48,48,48)"/>
<path d="M13 41h1v1h-1v-1z" fill="rgb(128,159,151)"/>
<path d="M125 41h1v10h-1v-10z" fill="rgb(238,238,238)"/>
<path d="M126 41h1v11h-1v-11z" fill="rgb(48,48,48)"/>
<path d="M149 41h6v1h-6v-1z" fill="rgb(48,48,48)"/>
<path d="M157 41h1v1h-1v-1z" fill="rgb(128,159,151)"/>
<path d="M0 42h1v1h1v1h1v1h1v1h1v1h1v2h-1v1h-1v1h-1v1h-1v1h-1v1h-1v-12z" fill="rgb(99,146,133)"/>
<path d="M12 42h1v1h-1v-1z" fill="rgb(128,159,151)"/>
<path d="M15 42h2v1h1v1h1v1h1v1h1v1h1v2h-1v1h-1v1h-1v1h-1v1h-1v1h-2v-1h-1v-1h-1v-1h-1v-1
	h-1v-1h-1v-2h1v-1h1v-1h1v-1h1v-1h1v-1z" fill="rgb(132,195,178)"/>
<path d="M31 42h2v1h1v1h1v1h1v1h1v1h1v2h-1v1h-1v1h-1v1h-1v1h-1v1h-2v-1h-1v-1h-1v-1h-1v-1
	h-1v-1h-1v-2h1v-1h1v-1h1v-1h1v-1h1v-1z" fill="rgb(132,195,178)"/>
<path d="M47 42h2v1h1v1h1v1h1v1h1v1h1v2h-1v1h-1v1h-1v1h-1v1h-1v1h-2v-1h-1v-1h-1v-1h-1v-1
	h-1v-1h-1v-2h1v-1h1v-1h1v-1h1v-1h1v-1z" fill="rgb(132,195,178)"/>
<path d="M63 42h2v1h1v1h1v1h1v1h1v1h1v2h-1v1h-1v1h-1v1h-1v1h-1v1h-2v-1h-1v-1h-1v-1h-1v-1
	h-1v-1h-1v-2h1v-1h1v-1h1v-1h1v-1h1v-1z" fill="rgb(132,195,178)"/>
<path d="M79 42h1v12h-1v-12z" fill="rgb(99,146,133)"/>
<path d="M127 42h2v1h1v1h1v1h1v1h1v1h1v2h-1v1h-1v1h-1v1h-1v1h-1v1h-1v-6h-1v-6z" fill="rgb(132,195,178)"/>
<path d="M143 42h2v1h1v1h1v1h1v1h1v1h1v2h-1v1h-1v1h-1v1h-1v1h-1v1h-2v-1h-1v-1h-1v-1h-1
	v-1h-1v-1h-1v-2h1v-1h1v-1h1v-1h1v-1h1v-1z" fill="rgb(132,195,178)"/>
<path d="M156 42h1v1h-1v-1z" fill="rgb(128,159,151)"/>
<path d="M159 42h1v12h-1v-1h-1v-1h-1v-1h-1v-1h-1v-1h-1v-2h1v-1h1v-1h1v-1h1v-1h1v-1z" fill="rgb(132,195,178)"/>
<path d="M5 43h3v3h-1v-1h-1v-1h-1v-1z" fill="rgb(103,136,164)"/>
<path d="M8 43h3v1h-1v1h-1v1h-1v-3z" fill="rgb(138,182,219)"/>
<path d="M78 43h1v10h-1v-1h-1v-1h-1v-1h-1v-1h-1v-2h1v-1h1v-1h1v-1h1v-1z" fill="rgb(132,195,178)"/>
<path d="M149 43h6v1h-1v1h-1v1h-2v-1h-1v-1h-1v-1z" fill="rgb(138,182,219)"/>
<path d="M127 48h1v6h-1v-6z" fill="rgb(99,146,133)"/>
<path d="M7 50h1v2h-1v1h-1v1h-1v1h-1v1h-1v1h-1v-2h1v-1h1v-1h1v-1h1v-1h1v-1z" fill="rgb(93,122,147)"/>
<path d="M8 50h1v1h1v1h1v1h1v1h1v1h1v2h-1v-1h-1v-1h-1v-1h-1v-1h-1v-1h-1v-2z" fill="rgb(124,163,196)"/>
<path d="M23 50h2v1h1v1h1v1h1v1h1v1h1v2h-1v-1h-1v-1h-1v-1h-1v-1h-1v-1h-2v1h-1v1h-1v1h-1
	v1h-1v1h-1v-2h1v-1h1v-1h1v-1h1v-1h1v-1z" fill="rgb(124,163,196)"/>
<path d="M39 50h2v1h1v1h1v1h1v1h1v1h1v2h-1v-1h-1v-1h-1v-1h-1v-1h-1v-1h-2v1h-1v1h-1v1h-1
	v1h-1v1h-1v-2h1v-1h1v-1h1v-1h1v-1h1v-1z" fill="rgb(124,163,196)"/>
<path d="M55 50h2v1h1v1h1v1h1v1h1v1h1v2h-1v-1h-1v-1h-1v-1h-1v-1h-1v-1h-2v1h-1v1h-1v1h-1
	v1h-1v1h-1v-2h1v-1h1v-1h1v-1h1v-1h1v-1z" fill="rgb(124,163,196)"/>
<path d="M71 50h2v1h1v1h1v1h1v1h1v1h1v2h-1v-1h-1v-1h-1v-1h-1v-1h-1v-1h-2v1h-1v1h-1v1h-1
	v1h-1v1h-1v-2h1v-1h1v-1h1v-1h1v-1h1v-1z" fill="rgb(124,163,196)"/>
<path d="M81 50h1v1h-1v-1z" fill="rgb(238,238,238)"/>
<path d="M135 50h2v1h1v1h1v1h1v1h1v1h1v2h-1v-1h-1v-1h-1v-1h-1v-1h-1v-1h-2v1h-1v1h-1v1h-1
	v1h-1v1h-1v-2h1v-1h1v-1h1v-1h1v-1h1v-1z" fill="rgb(124,163,196)"/>
<path d="M151 50h2v1h1v1h1v1h1v1h1v1h1v2h-1v-1h-1v-1h-1v-1h-1v-1h-1v-1h-2v1h-1v1h-1v1h-1
	v1h-1v1h-1v-2h1v-1h1v-1h1v-1h1v-1h1v-1z" fill="rgb(124,163,196)"/>
<path d="M81 51h1v1h-1v-1z" fill="rgb(188,188,188)"/>
<path d="M82 51h43v1h-43v-1z" fill="rgb(238,238,238)"/>
<path d="M125 51h1v1h-1v-1z" fill="rgb(205,205,205)"/>
<path d="M7 52h1v10h-1v-1h-1v-1h-1v-1h-1v-1h-1v-2h1v-1h1v-1h1v-1h1v-1z" fill="rgb(103,136,164)"/>
<path d="M8 52h1v1h1v1h1v1h1v1h1v2h-1v1h-1v1h-1v1h-1v1h-1v-10z" fill="rgb(138,182,219)"/>
<path d="M23 52h2v1h1v1h1v1h1v1h1v2h-1v1h-1v1h-1v1h-1v1h-2v-1h-1v-1h-1v-1h-1v-1h-1v-2h1
	v-1h1v-1h1v-1h1v-1z" fill="rgb(138,182,219)"/>
<path d="M39 52h2v1h1v1h1v1h1v1h1v2h-1v1h-1v1h-1v1h-1v1h-2v-1h-1v-1h-1v-1h-1v-1h-1v-2h1
	v-1h1v-1h1v-1h1v-1z" fill="rgb(138,182,219)"/>
<path d="M55 52h2v1h1v1h1v1h1v1h1v2h-1v1h-1v1h-1v1h-1v1h-2v-1h-1v-1h-1v-1h-1v-1h-1v-2h1
	v-1h1v-1h1v-1h1v-1z" fill="rgb(138,182,219)"/>
<path d="M71 52h2v1h1v1h1v1h1v1h1v2h-1v1h-1v1h-1v1h-1v1h-2v-1h-1v-1h-1v-1h-1v-1h-1v-2h1
	v-1h1v-1h1v-1h1v-1z" fill="rgb(138,182,219)"/>
<path d="M80 52h1v3h-1v-3z" fill="rgb(105,70,35)"/>
<path d="M81 52h45v2h-45v-2z" fill="rgb(174,174,174)"/>
<path d="M126 52h1v3h-1v-3z" fill="rgb(105,70,35)"/>
<path d="M135 52h2v1h1v1h1v1h1v1h1v2h-1v1h-1v1h-1v1h-1v1h-2v-1h-1v-1h-1v-1h-1v-1h-1v-2h1
	v-1h1v-1h1v-1h1v-1z" fill="rgb(138,182,219)"/>
<path d="M151 52h2v1h1v1h1v1h1v1h1v2h-1v1h-1v1h-1v1h-1v1h-2v-1h-1v-1h-1v-1h-1v-1h-1v-2h1
	v-1h1v-1h1v-1h1v-1z" fill="rgb(138,182,219)"/>
<path d="M79 54h1v1h1v2h1v1h2v1h1v1h-3v-1h-1v-1h-1v-1h-1v-3z" fill="rgb(128,159,151)"/>
<path d="M81 54h45v1h-45v-1z" fill="rgb(163,108,54)"/>
<path d="M127 54h1v3h-1v2h-1v1h-3v-1h1v-1h1v-1h1v-2h1v-1z" fill="rgb(128,159,151)"/>
<path d="M81 55h1v2h-1v-2z" fill="rgb(59,59,59)"/>
<path d="M82 55h43v1h-1v1h-41v-1h-1v-1z" fill="rgb(190,126,63)"/>
<path d="M125 55h1v2h-1v-2z" fill="rgb(59,59,59)"/>
<path d="M82 56h1v1h-1v-1z" fill="rgb(163,108,54)"/>
<path d="M124 56h1v1h-1v-1z" fill="rgb(163,108,54)"/>
<path d="M82 57h43v1h-43v-1z" fill="rgb(59,59,59)"/>
<path d="M0 58h1v1h1v1h1v1h1v1h1v1h1v2h-1v1h-1v1h-1v1h-1v1h-1v1h-1v-12z" fill="rgb(99,146,133)"/>
<path d="M15 58h2v1h1v1h1v1h1v1h1v1h1v2h-1v1h-1v1h-1v1h-1v1h-1v1h-2v-1h-1v-1h-1v-1h-1v-1
	h-1v-1h-1v-2h1v-1h1v-1h1v-1h1v-1h1v-1z" fill="rgb(132,195,178)"/>
<path d="M31 58h2v1h1v1h1v1h1v1h1v1h1v2h-1v1h-1v1h-1v1h-1v1h-1v1h-2v-1h-1v-1h-1v-1h-1v-1
	h-1v-1h-1v-2h1v-1h1v-1h1v-1h1v-1h1v-1z" fill="rgb(132,195,178)"/>
<path d="M47 58h2v1h1v1h1v1h1v1h1v1h1v2h-1v1h-1v1h-1v1h-1v1h-1v1h-2v-1h-1v-1h-1v-1h-1v-1
	h-1v-1h-1v-2h1v-1h1v-1h1v-1h1v-1h1v-1z" fill="rgb(132,195,178)"/>
<path d="M63 58h2v1h1v1h1v1h1v1h1v1h1v2h-1v1h-1v1h-1v1h-1v1h-1v1h-2v-1h-1v-1h-1v-1h-1v-1
	h-1v-1h-1v-2h1v-1h1v-1h1v-1h1v-1h1v-1z" fill="rgb(132,195,178)"/>
<path d="M79 58h1v1h1v1h2v1h1v1h1v1h1v2h-1v1h-1v1h-1v1h-1v1h-1v1h-2v-1h-1v-1h-1v-1h-1v-1
	h-1v-1h-1v-2h1v-1h1v-1h1v-1h1v-1h1v-1z" fill="rgb(132,195,178)"/>
<path d="M80 58h1v1h-1v-1z" fill="rgb(99,146,133)"/>
<path d="M84 58h8v1h-1v1h-6v-1h-1v-1z" fill="rgb(103,136,164)"/>
<path d="M92 58h3v1h-1v1h-3v-1h1v-1z" fill="rgb(128,159,151)"/>
<path d="M95 58h2v1h1v1h-4v-1h1v-1z" fill="rgb(99,146,133)"/>
<path d="M97 58h3v1h1v1h-3v-1h-1v-1z" fill="rgb(128,159,151)"/>
<path d="M100 58h8v1h-1v1h-6v-1h-1v-1z" fill="rgb(103,136,164)"/>
<path d="M108 58h3v1h-1v1h-3v-1h1v-1z" fill="rgb(128,159,151)"/>
<path d="M111 58h2v1h1v1h-4v-1h1v-1z" fill="rgb(99,146,133)"/>
<path d="M113 58h3v1h1v1h-3v-1h-1v-1z" fill="rgb(128,159,151)"/>
<path d="M116 58h8v1h-1v1h-6v-1h-1v-1z" fill="rgb(103,136,164)"/>
<path d="M127 58h2v1h1v1h1v1h1v1h1v1h1v2h-1v1h-1v1h-1v1h-1v1h-1v1h-2v-1h-1v-1h-1v-1h-1
	v-1h-1v-1h-1v-2h1v-1h1v-1h1v-1h1v-1h1v-1z" fill="rgb(132,195,178)"/>
<path d="M143 58h2v1h1v1h1v1h1v1h1v1h1v2h-1v1h-1v1h-1v1h-1v1h-1v1h-2v-1h-1v-1h-1v-1h-1
	v-1h-1v-1h-1v-2h1v-1h1v-1h1v-1h1v-1h1v-1z" fill="rgb(132,195,178)"/>
<path d="M159 58h1v12h-1v-1h-1v-1h-1v-1h-1v-1h-1v-1h-1v-2h1v-1h1v-1h1v-1h1v-1h1v-1z" fill="rgb(132,195,178)"/>
<path d="M81 59h1v1h-1v-1z" fill="rgb(99,146,133)"/>
<path d="M86 60h4v1h-1v1h-2v-1h-1v-1z" fill="rgb(138,182,219)"/>
<path d="M93 60h6v1h1v1h1v1h1v2h-1v1h-1v1h-1v1h-1v1h-1v1h-2v-1h-1v-1h-1v-1h-1v-1h-1v-1
	h-1v-2h1v-1h1v-1h1v-1z" fill="rgb(132,195,178)"/>
<path d="M102 60h4v1h-1v1h-2v-1h-1v-1z" fill="rgb(138,182,219)"/>
<path d="M109 60h6v1h1v1h1v1h1v2h-1v1h-1v1h-1v1h-1v1h-1v1h-2v-1h-1v-1h-1v-1h-1v-1h-1v-1
	h-1v-2h1v-1h1v-1h1v-1z" fill="rgb(132,195,178)"/>
<path d="M118 60h4v1h-1v1h-2v-1h-1v-1z" fill="rgb(138,182,219)"/>
<path d="M7 66h1v2h-1v1h-1v1h-1v1h-1v1h-1v1h-1v-2h1v-1h1v-1h1v-1h1v-1h1v-1z" fill="rgb(93,122,147)"/>
<path d="M8 66h1v1h1v1h1v1h1v1h1v1h1v2h-1v-1h-1v-1h-1v-1h-1v-1h-1v-1h-1v-2z" fill="rgb(124,163,196)"/>
<path d="M23 66h2v1h1v1h1v1h1v1h1v1h1v2h-1v-1h-1v-1h-1v-1h-1v-1h-1v-1h-2v1h-1v1h-1v1h-1
	v1h-1v1h-1v-2h1v-1h1v-1h1v-1h1v-1h1v-1z" fill="rgb(124,163,196)"/>
<path d="M39 66h2v1h1v1h1v1h1v1h1v1h1v2h-1v-1h-1v-1h-1v-1h-1v-1h-1v-1h-2v1h-1v1h-1v1h-1
	v1h-1v1h-1v-2h1v-1h1v-1h1v-1h1v-1h1v-1z" fill="rgb(124,163,196)"/>
<path d="M55 66h2v1h1v1h1v1h1v1h1v1h1v2h-1v-1h-1v-1h-1v-1h-1v-1h-1v-1h-2v1h-1v1h-1v1h-1
	v1h-1v1h-1v-2h1v-1h1v-1h1v-1h1v-1h1v-1z" fill="rgb(124,163,196)"/>
<path d="M71 66h2v1h1v1h1v1h1v1h1v1h1v2h-1v-1h-1v-1h-1v-1h-1v-1h-1v-1h-2v1h-1v1h-1v1h-1
	v1h-1v1h-1v-2h1v-1h1v-1h1v-1h1v-1h1v-1z" fill="rgb(124,163,196)"/>
<path d="M87 66h2v1h1v1h1v1h1v1h1v1h1v2h-1v-1h-1v-1h-1v-1h-1v-1h-1v-1h-2v1h-1v1h-1v1h-1
	v1h-1v1h-1v-2h1v-1h1v-1h1v-1h1v-1h1v-1z" fill="rgb(124,163,196)"/>
<path d="M103 66h2v1h1v1h1v1h1v1h1v1h1v2h-1v-1h-1v-1h-1v-1h-1v-1h-1v-1h-2v1h-1v1h-1v1h-1
	v1h-1v1h-1v-2h1v-1h1v-1h1v-1h1v-1h1v-1z" fill="rgb(124,163,196)"/>
<path d="M119 66h2v1h1v1h1v1h1v1h1v1h1v2h-1v-1h-1v-1h-1v-1h-1v-1h-1v-1h-2v1h-1v1h-1v1h-1
	v1h-1v1h-1v-2h1v-1h1v-1h1v-1h1v-1h1v-1z" fill="rgb(124,163,196)"/>
<path d="M135 66h2v1h1v1h1v1h1v1h1v1h1v2h-1v-1h-1v-1h-1v-1h-1v-1h-1v-1h-2v1h-1v1h-1v1h-1
	v1h-1v1h-1v-2h1v-1h1v-1h1v-1h1v-1h1v-1z" fill="rgb(124,163,196)"/>
<path d="M151 66h2v1h1v1h1v1h1v1h1v1h1v2h-1v-1h-1v-1h-1v-1h-1v-1h-1v-1h-2v1h-1v1h-1v1h-1
	v1h-1v1h-1v-2h1v-1h1v-1h1v-1h1v-1h1v-1z" fill="rgb(124,163,196)"/>
<path d="M7 68h1v10h-1v-1h-1v-1h-1v-1h-1v-1h-1v-2h1v-1h1v-1h1v-1h1v-1z" fill="rgb(103,136,164)"/>
<path d="M8 68h1v1h1v1h1v1h1v1h1v2h-1v1h-1v1h-1v1h-1v1h-1v-10z" fill="rgb(138,182,219)"/>
<path d="M23 68h2v1h1v1h1v1h1v1h1v2h-1v1h-1v1h-1v1h-1v1h-2v-1h-1v-1h-1v-1h-1v-1h-1v-2h1
	v-1h1v-1h1v-1h1v-1z" fill="rgb(138,182,219)"/>
<path d="M39 68h2v1h1v1h1v1h1v1h1v2h-1v1h-1v1h-1v1h-1v1h-2v-1h-1v-1h-1v-1h-1v-1h-1v-2h1
	v-1h1v-1h1v-1h1v-1z" fill="rgb(138,182,219)"/>
<path d="M55 68h2v1h1v1h1v1h1v1h1v2h-1v1h-1v1h-1v1h-1v1h-2v-1h-1v-1h-1v-1h-1v-1h-1v-2h1
	v-1h1v-1h1v-1h1v-1z" fill="rgb(138,182,219)"/>
<path d="M71 68h2v1h1v1h1v1h1v1h1v2h-1v1h-1v1h-1v1h-1v1h-2v-1h-1v-1h-1v-1h-1v-1h-1v-2h1
	v-1h1v-1h1v-1h1v-1z" fill="rgb(138,182,219)"/>
<path d="M87 68h2v1h1v1h1v1h1v1h1v2h-1v1h-1v1h-1v1h-1v1h-2v-1h-1v-1h-1v-1h-1v-1h-1v-2h1
	v-1h1v-1h1v-1h1v-1z" fill="rgb(138,182,219)"/>
<path d="M103 68h2v1h1v1h1v1h1v1h1v2h-1v1h-1v1h-1v1h-1v1h-2v-1h-1v-1h-1v-1h-1v-1h-1v-2h1
	v-1h1v-1h1v-1h1v-1z" fill="rgb(138,182,219)"/>
<path d="M119 68h2v1h1v1h1v1h1v1h1v2h-1v1h-1v1h-1v1h-1v1h-2v-1h-1v-1h-1v-1h-1v-1h-1v-2h1
	v-1h1v-1h1v-1h1v-1z" fill="rgb(138,182,219)"/>
<path d="M135 68h2v1h1v1h1v1h1v1h1v2h-1v1h-1v1h-1v1h-1v1h-2v-1h-1v-1h-1v-1h-1v-1h-1v-2h1
	v-1h1v-1h1v-1h1v-1z" fill="rgb(138,182,219)"/>
<path d="M151 68h2v1h1v1h1v1h1v1h1v2h-1v1h-1v1h-1v1h-1v1h-2v-1h-1v-1h-1v-1h-1v-1h-1v-2h1
	v-1h1v-1h1v-1h1v-1z" fill="rgb(138,182,219)"/>
<path d="M0 74h1v1h1v1h1v1h1v1h1v1h1v2h-1v1h-1v1h-1v1h-1v1h-1v1h-1v-12z" fill="rgb(99,146,133)"/>
<path d="M15 74h2v1h1v1h1v1h1v1h1v1h1v2h-1v1h-1v1h-1v1h-1v1h-1v1h-2v-1h-1v-1h-1v-1h-1v-1
	h-1v-1h-1v-2h1v-1h1v-1h1v-1h1v-1h1v-1z" fill="rgb(132,195,178)"/>
<path d="M31 74h2v1h1v1h1v1h1v1h1v1h1v2h-1v1h-1v1h-1v1h-1v1h-1v1h-2v-1h-1v-1h-1v-1h-1v-1
	h-1v-1h-1v-2h1v-1h1v-1h1v-1h1v-1h1v-1z" fill="rgb(132,195,178)"/>
<path d="M47 74h2v1h1v1h1v1h1v1h1v1h1v2h-1v1h-1v1h-1v1h-1v1h-1v1h-2v-1h-1v-1h-1v-1h-1v-1
	h-1v-1h-1v-2h1v-1h1v-1h1v-1h1v-1h1v-1z" fill="rgb(132,195,178)"/>
<path d="M63 74h2v1h1v1h1v1h1v1h1v1h1v2h-1v1h-1v1h-1v1h-1v1h-1v1h-2v-1h-1v-1h-1v-1h-1v-1
	h-1v-1h-1v-2h1v-1h1v-1h1v-1h1v-1h1v-1z" fill="rgb(132,195,178)"/>
<path d="M79 74h2v1h1v1h1v1h1v1h1v1h1v2h-1v1h-1v1h-1v1h-1v1h-1v1h-2v-1h-1v-1h-1v-1h-1v-1
	h-1v-1h-1v-2h1v-1h1v-1h1v-1h1v-1h1v-1z" fill="rgb(132,195,178)"/>
<path d="M95 74h2v1h1v1h1v1h1v1h1v1h1v2h-1v1h-1v1h-1v1h-1v1h-1v1h-2v-1h-1v-1h-1v-1h-1v-1
	h-1v-1h-1v-2h1v-1h1v-1h1v-1h1v-1h1v-1z" fill="rgb(132,195,178)"/>
<path d="M111 74h2v1h1v1h1v1h1v1h1v1h1v2h-1v1h-1v1h-1v1h-1v1h-1v1h-2v-1h-1v-1h-1v-1h-1
	v-1h-1v-1h-1v-2h1v-1h1v-1h1v-1h1v-1h1v-1z" fill="rgb(132,195,178)"/>
<path d="M127 74h2v1h1v1h1v1h1v1h1v1h1v2h-1v1h-1v1h-1v1h-1v1h-1v1h-2v-1h-1v-1h-1v-1h-1
	v-1h-1v-1h-1v-2h1v-1h1v-1h1v-1h1v-1h1v-1z" fill="rgb(132,195,178)"/>
<path d="M143 74h2v1h1v1h1v1h1v1h1v1h1v2h-1v1h-1v1h-1v1h-1v1h-1v1h-2v-1h-1v-1h-1v-1h-1
	v-1h-1v-1h-1v-2h1v-1h1v-1h1v-1h1v-1h1v-1z" fill="rgb(132,195,178)"/>
<path d="M159 74h1v12h-1v-1h-1v-1h-1v-1h-1v-1h-1v-1h-1v-2h1v-1h1v-1h1v-1h1v-1h1v-1z" fill="rgb(132,195,178)"/>
<path d="M7 82h1v2h-1v1h-1v1h-1v1h-1v1h-1v1h-1v-2h1v-1h1v-1h1v-1h1v-1h1v-1z" fill="rgb(93,122,147)"/>
<path d="M8 82h1v1h1v1h1v1h1v1h1v1h1v2h-1v-1h-1v-1h-1v-1h-1v-1h-1v-1h-1v-2z" fill="rgb(124,163,196)"/>
<path d="M23 82h2v1h1v1h1v1h1v1h1v1h1v2h-1v-1h-1v-1h-1v-1h-1v-1h-1v-1h-2v1h-1v1h-1v1h-1
	v1h-1v1h-1v-2h1v-1h1v-1h1v-1h1v-1h1v-1z" fill="rgb(124,163,196)"/>
<path d="M39 82h2v1h1v1h1v1h1v1h1v1h1v2h-1v-1h-1v-1h-1v-1h-1v-1h-1v-1h-2v1h-1v1h-1v1h-1
	v1h-1v1h-1v-2h1v-1h1v-1h1v-1h1v-1h1v-1z" fill="rgb(124,163,196)"/>
<path d="M55 82h2v1h1v1h1v1h1v1h1v1h1v2h-1v-1h-1v-1h-1v-1h-1v-1h-1v-1h-2v1h-1v1h-1v1h-1
	v1h-1v1h-1v-2h1v-1h1v-1h1v-1h1v-1h1v-1z" fill="rgb(124,163,196)"/>
<path d="M71 82h2v1h1v1h1v1h1v1h1v1h1v2h-1v-1h-1v-1h-1v-1h-1v-1h-1v-1h-2v1h-1v1h-1v1h-1
	v1h-1v1h-1v-2h1v-1h1v-1h1v-1h1v-1h1v-1z" fill="rgb(124,163,196)"/>
<path d="M87 82h2v1h1v1h1v1h1v1h1v1h1v2h-1v-1h-1v-1h-1v-1h-1v-1h-1v-1h-2v1h-1v1h-1v1h-1
	v1h-1v1h-1v-2h1v-1h1v-1h1v-1h1v-1h1v-1z" fill="rgb(124,163,196)"/>
<path d="M103 82h2v1h1v1h1v1h1v1h1v1h1v2h-1v-1h-1v-1h-1v-1h-1v-1h-1v-1h-2v1h-1v1h-1v1h-1
	v1h-1v1h-1v-2h1v-1h1v-1h1v-1h1v-1h1v-1z" fill="rgb(124,163,196)"/>
<path d="M119 82h2v1h1v1h1v1h1v1h1v1h1v2h-1v-1h-1v-1h-1v-1h-1v-1h-1v-1h-2v1h-1v1h-1v1h-1
	v1h-1v1h-1v-2h1v-1h1v-1h1v-1h1v-1h1v-1z" fill="rgb(124,163,196)"/>
<path d="M135 82h2v1h1v1h1v1h1v1h1v1h1v2h-1v-1h-1v-1h-1v-1h-1v-1h-1v-1h-2v1h-1v1h-1v1h-1
	v1h-1v1h-1v-2h1v-1h1v-1h1v-1h1v-1h1v-1z" fill="rgb(124,163,196)"/>
<path d="M151 82h2v1h1v1h1v1h1v1h1v1h1v2h-1v-1h-1v-1h-1v-1h-1v-1h-1v-1h-2v1h-1v1h-1v1h-1
	v1h-1v1h-1v-2h1v-1h1v-1h1v-1h1v-1h1v-1z" fill="rgb(124,163,196)"/>
<path d="M7 84h1v10h-1v-1h-1v-1h-1v-1h-1v-1h-1v-2h1v-1h1v-1h1v-1h1v-1z" fill="rgb(103,136,164)"/>
<path d="M8 84h1v1h1v1h1v1h1v1h1v2h-1v1h-1v1h-1v1h-1v1h-1v-10z" fill="rgb(138,182,219)"/>
<path d="M23 84h2v1h1v1h1v1h1v1h1v2h-1v1h-1v1h-1v1h-1v1h-2v-1h-1v-1h-1v-1h-1v-1h-1v-2h1
	v-1h1v-1h1v-1h1v-1z" fill="rgb(138,182,219)"/>
<path d="M39 84h2v1h1v1h1v1h1v1h1v2h-1v1h-1v1h-1v1h-1v1h-2v-1h-1v-1h-1v-1h-1v-1h-1v-2h1
	v-1h1v-1h1v-1h1v-1z" fill="rgb(138,182,219)"/>
<path d="M55 84h2v1h1v1h1v1h1v1h1v2h-1v1h-1v1h-1v1h-1v1h-2v-1h-1v-1h-1v-1h-1v-1h-1v-2h1
	v-1h1v-1h1v-1h1v-1z" fill="rgb(138,182,219)"/>
<path d="M71 84h2v1h1v1h1v1h1v1h1v2h-1v1h-1v1h-1v1h-1v1h-2v-1h-1v-1h-1v-1h-1v-1h-1v-2h1
	v-1h1v-1h1v-1h1v-1z" fill="rgb(138,182,219)"/>
<path d="M87 84h2v1h1v1h1v1h1v1h1v2h-1v1h-1v1h-1v1h-1v1h-2v-1h-1v-1h-1v-1h-1v-1h-1v-2h1
	v-1h1v-1h1v-1h1v-1z" fill="rgb(138,182,219)"/>
<path d="M103 84h2v1h1v1h1v1h1v1h1v2h-1v1h-1v1h-1v1h-1v1h-2v-1h-1v-1h-1v-1h-1v-1h-1v-2h1
	v-1h1v-1h1v-1h1v-1z" fill="rgb(138,182,219)"/>
<path d="M119 84h2v1h1v1h1v1h1v1h1v2h-1v1h-1v1h-1v1h-1v1h-2v-1h-1v-1h-1v-1h-1v-1h-1v-2h1
	v-1h1v-1h1v-1h1v-1z" fill="rgb(138,182,219)"/>
<path d="M135 84h2v1h1v1h1v1h1v1h1v2h-1v1h-1v1h-1v1h-1v1h-2v-1h-1v-1h-1v-1h-1v-1h-1v-2h1
	v-1h1v-1h1v-1h1v-1z" fill="rgb(138,182,219)"/>
<path d="M151 84h2v1h1v1h1v1h1v1h1v2h-1v1h-1v1h-1v1h-1v1h-2v-1h-1v-1h-1v-1h-1v-1h-1v-2h1
	v-1h1v-1h1v-1h1v-1z" fill="rgb(138,182,219)"/>
<path d="M0 90h1v1h1v1h1v1h1v1h1v1h1v2h-1v1h-1v1h-1v1h-1v1h-1v1h-1v-12z" fill="rgb(99,146,133)"/>
<path d="M15 90h2v1h1v1h1v1h1v1h1v1h1v2h-1v1h-1v1h-1v1h-1v1h-1v1h-2v-1h-1v-1h-1v-1h-1v-1
	h-1v-1h-1v-2h1v-1h1v-1h1v-1h1v-1h1v-1z" fill="rgb(132,195,178)"/>
<path d="M31 90h2v1h1v1h1v1h1v1h1v1h1v2h-1v1h-1v1h-1v1h-1v1h-1v1h-2v-1h-1v-1h-1v-1h-1v-1
	h-1v-1h-1v-2h1v-1h1v-1h1v-1h1v-1h1v-1z" fill="rgb(132,195,178)"/>
<path d="M47 90h2v1h1v1h1v1h1v1h1v1h1v2h-1v1h-1v1h-1v1h-1v1h-1v1h-2v-1h-1v-1h-1v-1h-1v-1
	h-1v-1h-1v-2h1v-1h1v-1h1v-1h1v-1h1v-1z" fill="rgb(132,195,178)"/>
<path d="M63 90h2v1h1v1h1v1h1v1h1v1h1v2h-1v1h-1v1h-1v1h-1v1h-1v1h-2v-1h-1v-1h-1v-1h-1v-1
	h-1v-1h-1v-2h1v-1h1v-1h1v-1h1v-1h1v-1z" fill="rgb(132,195,178)"/>
<path d="M79 90h2v1h1v1h1v1h1v1h1v1h1v2h-1v1h-1v1h-1v1h-1v1h-1v1h-2v-1h-1v-1h-1v-1h-1v-1
	h-1v-1h-1v-2h1v-1h1v-1h1v-1h1v-1h1v-1z" fill="rgb(132,195,178)"/>
<path d="M95 90h2v1h1v1h1v1h1v1h1v1h1v2h-1v1h-1v1h-1v1h-1v1h-1v1h-2v-1h-1v-1h-1v-1h-1v-1
	h-1v-1h-1v-2h1v-1h1v-1h1v-1h1v-1h1v-1z" fill="rgb(132,195,178)"/>
<path d="M111 90h2v1h1v1h1v1h1v1h1v1h1v2h-1v1h-1v1h-1v1h-1v1h-1v1h-2v-1h-1v-1h-1v-1h-1
	v-1h-1v-1h-1v-2h1v-1h1v-1h1v-1h1v-1h1v-1z" fill="rgb(132,195,178)"/>
<path d="M127 90h2v1h1v1h1v1h1v1h1v1h1v2h-1v1h-1v1h-1v1h-1v1h-1v1h-2v-1h-1v-1h-1v-1h-1
	v-1h-1v-1h-1v-2h1v-1h1v-1h1v-1h1v-1h1v-1z" fill="rgb(132,195,178)"/>
<path d="M143 90h2v1h1v1h1v1h1v1h1v1h1v2h-1v1h-1v1h-1v1h-1v1h-1v1h-2v-1h-1v-1h-1v-1h-1
	v-1h-1v-1h-1v-2h1v-1h1v-1h1v-1h1v-1h1v-1z" fill="rgb(132,195,178)"/>
<path d="M159 90h1v12h-1v-1h-1v-1h-1v-1h-1v-1h-1v-1h-1v-2h1v-1h1v-1h1v-1h1v-1h1v-1z" fill="rgb(132,195,178)"/>
<path d="M7 98h1v2h-1v1h-1v1h-1v1h-1v1h-1v1h-1v-2h1v-1h1v-1h1v-1h1v-1h1v-1z" fill="rgb(93,122,147)"/>
<path d="M8 98h1v1h1v1h1v1h1v1h1v1h1v2h-1v-1h-1v-1h-1v-1h-1v-1h-1v-1h-1v-2z" fill="rgb(124,163,196)"/>
<path d="M23 98h2v1h1v1h1v1h1v1h1v1h1v2h-1v-1h-1v-1h-1v-1h-1v-1h-1v-1h-2v1h-1v1h-1v1h-1
	v1h-1v1h-1v-2h1v-1h1v-1h1v-1h1v-1h1v-1z" fill="rgb(124,163,196)"/>
<path d="M39 98h2v1h1v1h1v1h1v1h-2v-1h-1v-1h-2v1h-1v1h-2v-1h1v-1h1v-1h1v-1z" fill="rgb(124,163,196)"/>
<path d="M55 98h2v1h1v1h1v1h1v1h1v1h1v2h-1v-1h-1v-1h-1v-1h-1v-1h-1v-1h-2v1h-1v1h-1v1h-1
	v1h-1v1h-1v-2h1v-1h1v-1h1v-1h1v-1h1v-1z" fill="rgb(124,163,196)"/>
<path d="M71 98h2v1h1v1h1v1h1v1h1v1h1v2h-1v-1h-1v-1h-1v-1h-1v-1h-1v-1h-2v1h-1v1h-1v1h-1
	v1h-1v1h-1v-2h1v-1h1v-1h1v-1h1v-1h1v-1z" fill="rgb(124,163,196)"/>
<path d="M87 98h2v1h1v1h1v1h1v1h1v1h1v2h-1v-1h-1v-1h-1v-1h-1v-1h-1v-1h-2v1h-1v1h-1v1h-1
	v1h-1v1h-1v-2h1v-1h1v-1h1v-1h1v-1h1v-1z" fill="rgb(124,163,196)"/>
<path d="M103 98h2v1h1v1h1v1h1v1h1v1h1v2h-1v-1h-1v-1h-1v-1h-1v-1h-1v-1h-2v1h-1v1h-1v1h-1
	v1h-1v1h-1v-2h1v-1h1v-1h1v-1h1v-1h1v-1z" fill="rgb(124,163,196)"/>
<path d="M119 98h2v1h1v1h1v1h1v1h1v1h1v2h-1v-1h-1v-1h-1v-1h-1v-1h-1v-1h-2v1h-1v1h-1v1h-1
	v1h-1v1h-1v-2h1v-1h1v-1h1v-1h1v-1h1v-1z" fill="rgb(124,163,196)"/>
<path d="M135 98h2v1h1v1h1v1h1v1h1v1h1v2h-1v-1h-1v-1h-1v-1h-1v-1h-1v-1h-2v1h-1v1h-1v1h-1
	v1h-1v1h-1v-2h1v-1h1v-1h1v-1h1v-1h1v-1z" fill="rgb(124,163,196)"/>
<path d="M151 98h2v1h1v1h1v1h1v1h1v1h1v2h-1v-1h-1v-1h-1v-1h-1v-1h-1v-1h-2v1h-1v1h-1v1h-1
	v1h-1v1h-1v-2h1v-1h1v-1h1v-1h1v-1h1v-1z" fill="rgb(124,163,196)"/>
<path d="M7 100h1v10h-1v-1h-1v-1h-1v-1h-1v-1h-1v-2h1v-1h1v-1h1v-1h1v-1z" fill="rgb(103,136,164)"/>
<path d="M8 100h1v1h1v1h1v1h1v1h1v2h-1v1h-1v1h-1v1h-1v1h-1v-10z" fill="rgb(138,182,219)"/>
<path d="M23 100h2v1h1v1h1v1h1v1h1v2h-1v1h-1v1h-1v1h-1v1h-2v-1h-1v-1h-1v-1h-1v-1h-1v-2h1
	v-1h1v-1h1v-1h1v-1z" fill="rgb(138,182,219)"/>
<path d="M39 100h2v1h1v1h-4v-1h1v-1z" fill="rgb(138,182,219)"/>
<path d="M55 100h2v1h1v1h1v1h1v1h1v2h-1v1h-1v1h-1v1h-1v1h-2v-1h-1v-1h-1v-1h-1v-1h-1v-2h1
	v-1h1v-1h1v-1h1v-1z" fill="rgb(138,182,219)"/>
<path d="M71 100h2v1h1v1h1v1h1v1h1v2h-1v1h-1v1h-1v1h-1v1h-2v-1h-1v-1h-1v-1h-1v-1h-1v-2h1
	v-1h1v-1h1v-1h1v-1z" fill="rgb(138,182,219)"/>
<path d="M87 100h2v1h1v1h1v1h1v1h1v2h-1v1h-1v1h-1v1h-1v1h-2v-1h-1v-1h-1v-1h-1v-1h-1v-2h1
	v-1h1v-1h1v-1h1v-1z" fill="rgb(138,182,219)"/>
<path d="M103 100h2v1h1v1h1v1h1v1h1v2h-1v1h-1v1h-1v1h-1v1h-2v-1h-1v-1h-1v-1h-1v-1h-1v-2
	h1v-1h1v-1h1v-1h1v-1z" fill="rgb(138,182,219)"/>
<path d="M119 100h2v1h1v1h1v1h1v1h1v2h-1v1h-1v1h-1v1h-1v1h-2v-1h-1v-1h-1v-1h-1v-1h-1v-2
	h1v-1h1v-1h1v-1h1v-1z" fill="rgb(138,182,219)"/>
<path d="M135 100h2v1h1v1h1v1h1v1h1v2h-1v1h-1v1h-1v1h-1v1h-2v-1h-1v-1h-1v-1h-1v-1h-1v-2
	h1v-1h1v-1h1v-1h1v-1z" fill="rgb(138,182,219)"/>
<path d="M151 100h2v1h1v1h1v1h1v1h1v2h-1v1h-1v1h-1v1h-1v1h-2v-1h-1v-1h-1v-1h-1v-1h-1v-2
	h1v-1h1v-1h1v-1h1v-1z" fill="rgb(138,182,219)"/>
<path d="M35 102h1v1h-1v-1z" fill="rgb(124,163,196)"/>
<path d="M36 102h1v1h-1v-1z" fill="rgb(99,130,157)"/>
<path d="M37 102h6v1h1v1h1v2h-10v-2h1v-1h1v-1z" fill="rgb(110,146,175)"/>
<path d="M43 102h1v1h-1v-1z" fill="rgb(99,130,157)"/>
<path d="M44 102h1v1h-1v-1z" fill="rgb(124,163,196)"/>
<path d="M34 103h2v1h-1v1h-1v-2z" fill="rgb(99,130,157)"/>
<path d="M44 103h2v2h-1v-1h-1v-1z" fill="rgb(99,130,157)"/>
<path d="M32 104h2v1h1v1h-4v-1h1v-1z" fill="rgb(137,170,161)"/>
<path d="M46 104h2v1h1v1h-4v-1h1v-1z" fill="rgb(137,170,161)"/>
<path d="M0 106h1v1h1v1h1v1h1v1h1v1h1v1h-6v-6z" fill="rgb(99,146,133)"/>
<path d="M15 106h2v1h1v1h1v1h1v1h1v1h1v1h-12v-1h1v-1h1v-1h1v-1h1v-1h1v-1z" fill="rgb(132,195,178)"/>
<path d="M31 106h2v1h1v1h-4v-1h1v-1z" fill="rgb(79,117,107)"/>
<path d="M33 106h3v1h1v1h-3v-1h-1v-1z" fill="rgb(103,127,121)"/>
<path d="M36 106h8v1h-1v1h-6v-1h-1v-1z" fill="rgb(83,109,131)"/>
<path d="M44 106h3v1h-1v1h-3v-1h1v-1z" fill="rgb(103,127,121)"/>
<path d="M47 106h2v1h1v1h-4v-1h1v-1z" fill="rgb(79,117,107)"/>
<path d="M63 106h2v1h1v1h1v1h1v1h1v1h1v1h-12v-1h1v-1h1v-1h1v-1h1v-1h1v-1z" fill="rgb(132,195,178)"/>
<path d="M79 106h2v1h1v1h1v1h1v1h1v1h1v1h-12v-1h1v-1h1v-1h1v-1h1v-1h1v-1z" fill="rgb(132,195,178)"/>
<path d="M95 106h2v1h1v1h1v1h1v1h1v1h1v1h-12v-1h1v-1h1v-1h1v-1h1v-1h1v-1z" fill="rgb(132,195,178)"/>
<path d="M111 106h2v1h1v1h1v1h1v1h1v1h1v1h-12v-1h1v-1h1v-1h1v-1h1v-1h1v-1z" fill="rgb(132,195,178)"/>
<path d="M127 106h2v1h1v1h1v1h1v1h1v1h1v1h-12v-1h1v-1h1v-1h1v-1h1v-1h1v-1z" fill="rgb(132,195,178)"/>
<path d="M143 106h2v1h1v1h1v1h1v1h1v1h1v1h-12v-1h1v-1h1v-1h1v-1h1v-1h1v-1z" fill="rgb(132,195,178)"/>
<path d="M159 106h1v6h-6v-1h1v-1h1v-1h1v-1h1v-1h1v-1z" fill="rgb(132,195,178)"/>
<path d="M29 108h1v1h-1v-1z" fill="rgb(132,195,178)"/>
<path d="M30 108h5v1h1v1h-7v-1h1v-1z" fill="rgb(53,78,71)"/>
<path d="M35 108h3v1h1v1h-3v-1h-1v-1z" fill="rgb(68,85,80)"/>
<path d="M38 108h4v1h-1v1h-2v-1h-1v-1z" fill="rgb(55,73,88)"/>
<path d="M42 108h3v1h-1v1h-3v-1h1v-1z" fill="rgb(68,85,80)"/>
<path d="M45 108h5v1h1v1h-7v-1h1v-1z" fill="rgb(53,78,71)"/>
<path d="M50 108h1v1h-1v-1z" fill="rgb(132,195,178)"/>
<path d="M28 109h1v3h-3v-1h1v-1h1v-1z" fill="rgb(132,195,178)"/>
<path d="M51 109h1v1h1v1h1v1h-3v-3z" fill="rgb(132,195,178)"/>
<path d="M29 110h8v1h1v1h-9v-2z" fill="rgb(26,39,36)"/>
<path d="M37 110h6v1h-1v1h-4v-1h-1v-1z" fill="rgb(34,42,40)"/>
<path d="M43 110h8v2h-9v-1h1v-1z" fill="rgb(26,39,36)"/>
</svg>
