<?xml version="1.0" encoding="utf-8"?>
<!-- generated at drububu.com  -->
<!DOCTYPE svg PUBLIC "-//W3C//DTD SVG 1.1//EN" "http://www.w3.org/Graphics/SVG/1.1/DTD/svg11.dtd">
<svg version="1.1" preserveAspectRatio="xMinYMin meet" xmlns="http://www.w3.org/2000/svg" xmlns:xlink="http://www.w3.org/1999/xlink" x="0px" y="0px" width="160px" height="112px" viewBox="0 0 160 112">
<path d="M0 0h160v1h-160z" fill="rgb(130,130,130)"/>
<path d="M0 1h160v3h-160z" fill="rgb(238,238,238)"/>
<path d="M0 4h160v1h-160z" fill="rgb(255,255,255)"/>
<path d="M0 5h160v1h-160z" fill="rgb(161,161,161)"/>
<path d="M0 6h27v2h-27z" fill="rgb(232,232,232)"/>
<path d="M27 6h42v26h-5v-21h1v20h3v-24h-40v24h3v-20h1v21h-5z" fill="rgb(71,71,71)"/>
<path d="M69 6h91v2h-91z" fill="rgb(232,232,232)"/>
<path d="M28 7h40v1h-40z" fill="rgb(216,216,216)"/>
<path d="M0 8h27v7h-16v-1h-2v-1h-2v1h-2v1h-5z" fill="rgb(211,211,211)"/>
<path d="M28 8h40v1h-40z" fill="rgb(129,129,129)"/>
<path d="M69 8h91v7h-5v-1h-2v-1h-2v1h-2v1h-80z" fill="rgb(211,211,211)"/>
<path d="M28 9h12v1h-9v8h-3z" fill="rgb(160,160,160)"/>
<path d="M40 9h1v1h-1z" fill="rgb(153,242,143)"/>
<path d="M41 9h4v1h-4z" fill="rgb(160,160,160)"/>
<path d="M45 9h1v1h-1z" fill="rgb(216,216,216)"/>
<path d="M46 9h4v1h-4z" fill="rgb(160,160,160)"/>
<path d="M50 9h1v1h-1z" fill="rgb(216,216,216)"/>
<path d="M51 9h4v1h-4z" fill="rgb(160,160,160)"/>
<path d="M55 9h1v1h-1z" fill="rgb(216,216,216)"/>
<path d="M56 9h12v17h-3v-16h-9z" fill="rgb(160,160,160)"/>
<path d="M31 10h34v1h-34z" fill="rgb(37,37,37)"/>
<path d="M32 11h15v1h-15z" fill="rgb(129,129,129)"/>
<path d="M47 11h2v21h-2z" fill="rgb(71,71,71)"/>
<path d="M49 11h15v1h-15z" fill="rgb(129,129,129)"/>
<path d="M32 12h15v1h-13v1h-1v16h14v1h-15z" fill="rgb(160,160,160)"/>
<path d="M49 12h15v19h-15v-1h13v-1h1v-16h-14z" fill="rgb(160,160,160)"/>
<path d="M7 13h2v1h-2z" fill="rgb(92,117,47)"/>
<path d="M34 13h7v1h-1v1h-1v1h-1v1h-1v1h-1v1h-1v1h-1v1h-1v-7h1z" fill="rgb(198,198,198)"/>
<path d="M41 13h1v1h-1z" fill="rgb(216,216,216)"/>
<path d="M42 13h2v1h-1v1h-1v1h-1v1h-1v1h-1v1h-1v1h-1v1h-1v1h-1v1h-1v1h-1v-2h1
	v-1h1v-1h1v-1h1v-1h1v-1h1v-1h1v-1h1v-1h1z" fill="rgb(198,198,198)"/>
<path d="M44 13h3v1h-1v1h-1v1h-1v1h-1v1h-1v1h-1v1h-1v1h-1v1h-1v1h-1v1h-1v1h-1v1
	h-1v1h-1v-3h1v-1h1v-1h1v-1h1v-1h1v-1h1v-1h1v-1h1v-1h1v-1h1v-1h1z" fill="rgb(216,216,216)"/>
<path d="M49 13h9v1h-1v1h-1v1h-1v1h-1v1h-1v1h-1v1h-1v1h-1v1h-1z" fill="rgb(198,198,198)"/>
<path d="M58 13h1v1h-1z" fill="rgb(216,216,216)"/>
<path d="M59 13h2v1h-1v1h-1v1h-1v1h-1v1h-1v1h-1v1h-1v1h-1v1h-1v1h-1v1h-1v1h-1
	v-2h1v-1h1v-1h1v-1h1v-1h1v-1h1v-1h1v-1h1v-1h1v-1h1z" fill="rgb(198,198,198)"/>
<path d="M61 13h2v2h-1v1h-1v1h-1v1h-1v1h-1v1h-1v1h-1v1h-1v1h-1v1h-1v1h-1v1h-1v1
	h-1v1h-1v-3h1v-1h1v-1h1v-1h1v-1h1v-1h1v-1h1v-1h1v-1h1v-1h1v-1h1v-1h1z" fill="rgb(216,216,216)"/>
<path d="M151 13h2v1h-2z" fill="rgb(92,117,47)"/>
<path d="M5 14h2v1h-2z" fill="rgb(92,117,47)"/>
<path d="M7 14h2v2h-2z" fill="rgb(186,224,112)"/>
<path d="M9 14h2v1h-2z" fill="rgb(92,117,47)"/>
<path d="M40 14h1v1h-1z" fill="rgb(216,216,216)"/>
<path d="M46 14h1v10h-1v1h-1v1h-1v1h-1v1h-1v1h-1v1h-8v-3h1v-1h1v-1h1v-1h1v-1h1
	v-1h1v-1h1v-1h1v-1h1v-1h1v-1h1v-1h1v-1h1z" fill="rgb(198,198,198)"/>
<path d="M57 14h1v1h-1z" fill="rgb(216,216,216)"/>
<path d="M149 14h2v1h-2z" fill="rgb(92,117,47)"/>
<path d="M151 14h2v2h-2z" fill="rgb(186,224,112)"/>
<path d="M153 14h2v1h-2z" fill="rgb(92,117,47)"/>
<path d="M0 15h4v1h-4z" fill="rgb(29,84,118)"/>
<path d="M4 15h1v1h-1z" fill="rgb(92,117,47)"/>
<path d="M5 15h1v2h-1v1h-1v-2h1z" fill="rgb(186,224,112)"/>
<path d="M6 15h1v1h-1z" fill="rgb(146,184,75)"/>
<path d="M9 15h1v1h-1z" fill="rgb(146,184,75)"/>
<path d="M10 15h1v1h1v2h-1v-1h-1z" fill="rgb(186,224,112)"/>
<path d="M11 15h1v1h-1z" fill="rgb(92,117,47)"/>
<path d="M12 15h15v1h-15z" fill="rgb(29,84,118)"/>
<path d="M39 15h1v1h-1z" fill="rgb(216,216,216)"/>
<path d="M56 15h1v1h-1z" fill="rgb(216,216,216)"/>
<path d="M62 15h1v10h-1v1h-1v1h-1v1h-1v1h-1v1h-9v-2h1v-1h1v-1h1v-1h1v-1h1v-1h1
	v-1h1v-1h1v-1h1v-1h1v-1h1v-1h1v-1h1z" fill="rgb(198,198,198)"/>
<path d="M69 15h79v1h-79z" fill="rgb(29,84,118)"/>
<path d="M148 15h1v1h-1z" fill="rgb(92,117,47)"/>
<path d="M149 15h1v2h-1v1h-1v-2h1z" fill="rgb(186,224,112)"/>
<path d="M150 15h1v1h-1z" fill="rgb(146,184,75)"/>
<path d="M153 15h1v1h-1z" fill="rgb(146,184,75)"/>
<path d="M154 15h1v1h1v2h-1v-1h-1z" fill="rgb(186,224,112)"/>
<path d="M155 15h1v1h-1z" fill="rgb(92,117,47)"/>
<path d="M156 15h4v1h-4z" fill="rgb(29,84,118)"/>
<path d="M0 16h3v1h-3z" fill="rgb(157,208,237)"/>
<path d="M3 16h1v1h-1z" fill="rgb(92,117,47)"/>
<path d="M6 16h4v2h-1v-1h-2v1h-1z" fill="rgb(170,209,97)"/>
<path d="M12 16h1v1h-1z" fill="rgb(92,117,47)"/>
<path d="M13 16h14v1h-14z" fill="rgb(157,208,237)"/>
<path d="M38 16h1v1h-1z" fill="rgb(216,216,216)"/>
<path d="M55 16h1v1h-1z" fill="rgb(216,216,216)"/>
<path d="M69 16h78v1h-78z" fill="rgb(157,208,237)"/>
<path d="M147 16h1v1h-1z" fill="rgb(92,117,47)"/>
<path d="M150 16h4v2h-1v-1h-2v1h-1z" fill="rgb(170,209,97)"/>
<path d="M156 16h1v1h-1z" fill="rgb(92,117,47)"/>
<path d="M157 16h3v1h-3z" fill="rgb(157,208,237)"/>
<path d="M0 17h2v3h-2z" fill="rgb(130,180,209)"/>
<path d="M2 17h1v3h-1z" fill="rgb(92,117,47)"/>
<path d="M3 17h1v1h1v1h-1v1h-1z" fill="rgb(170,209,97)"/>
<path d="M5 17h1v2h-1z" fill="rgb(146,184,75)"/>
<path d="M7 17h2v1h1v2h-1v1h-2v-1h-1v-2h1z" fill="rgb(186,224,112)"/>
<path d="M10 17h1v2h-1z" fill="rgb(146,184,75)"/>
<path d="M12 17h1v3h-1v-1h-1v-1h1z" fill="rgb(170,209,97)"/>
<path d="M13 17h1v3h-1z" fill="rgb(92,117,47)"/>
<path d="M14 17h13v3h-13z" fill="rgb(130,180,209)"/>
<path d="M37 17h1v1h-1z" fill="rgb(216,216,216)"/>
<path d="M54 17h1v1h-1z" fill="rgb(216,216,216)"/>
<path d="M69 17h77v3h-77z" fill="rgb(130,180,209)"/>
<path d="M146 17h1v3h-1z" fill="rgb(92,117,47)"/>
<path d="M147 17h1v1h1v1h-1v1h-1z" fill="rgb(170,209,97)"/>
<path d="M149 17h1v2h-1z" fill="rgb(146,184,75)"/>
<path d="M151 17h2v1h1v2h-1v1h-2v-1h-1v-2h1z" fill="rgb(186,224,112)"/>
<path d="M154 17h1v2h-1z" fill="rgb(146,184,75)"/>
<path d="M156 17h1v3h-1v-1h-1v-1h1z" fill="rgb(170,209,97)"/>
<path d="M157 17h1v3h-1z" fill="rgb(92,117,47)"/>
<path d="M158 17h2v3h-2z" fill="rgb(130,180,209)"/>
<path d="M28 18h3v5h-3z" fill="rgb(129,129,129)"/>
<path d="M36 18h1v1h-1z" fill="rgb(216,216,216)"/>
<path d="M53 18h1v1h-1z" fill="rgb(216,216,216)"/>
<path d="M4 19h1v2h1v1h4v-1h1v-2h1v1h1v1h-1v2h-2v1h-4v-1h-2v-2h-1v-1h1z" fill="rgb(146,184,75)"/>
<path d="M5 19h1v1h1v1h2v-1h1v-1h1v2h-1v1h-4v-1h-1z" fill="rgb(170,209,97)"/>
<path d="M29 19h1v1h-1z" fill="rgb(216,216,216)"/>
<path d="M35 19h1v1h-1z" fill="rgb(216,216,216)"/>
<path d="M52 19h1v1h-1z" fill="rgb(216,216,216)"/>
<path d="M148 19h1v2h1v1h4v-1h1v-2h1v1h1v1h-1v2h-2v1h-4v-1h-2v-2h-1v-1h1z" fill="rgb(146,184,75)"/>
<path d="M149 19h1v1h1v1h2v-1h1v-1h1v2h-1v1h-4v-1h-1z" fill="rgb(170,209,97)"/>
<path d="M0 20h1v1h-1z" fill="rgb(29,84,118)"/>
<path d="M1 20h1v4h-1z" fill="rgb(92,117,47)"/>
<path d="M2 20h1v1h1v2h-1v-1h-1z" fill="rgb(121,154,61)"/>
<path d="M13 20h1v2h-1v1h-1v-2h1z" fill="rgb(121,154,61)"/>
<path d="M14 20h1v4h-1z" fill="rgb(92,117,47)"/>
<path d="M15 20h12v1h-12z" fill="rgb(29,84,118)"/>
<path d="M34 20h1v1h-1z" fill="rgb(216,216,216)"/>
<path d="M51 20h1v1h-1z" fill="rgb(216,216,216)"/>
<path d="M69 20h76v1h-76z" fill="rgb(29,84,118)"/>
<path d="M145 20h1v4h-1z" fill="rgb(92,117,47)"/>
<path d="M146 20h1v1h1v2h-1v-1h-1z" fill="rgb(121,154,61)"/>
<path d="M157 20h1v2h-1v1h-1v-2h1z" fill="rgb(121,154,61)"/>
<path d="M158 20h1v4h-1z" fill="rgb(92,117,47)"/>
<path d="M159 20h1v1h-1z" fill="rgb(29,84,118)"/>
<path d="M0 21h1v3h-1z" fill="rgb(101,147,184)"/>
<path d="M15 21h1v4h-1z" fill="rgb(130,180,209)"/>
<path d="M16 21h2v3h-2z" fill="rgb(101,147,184)"/>
<path d="M18 21h2v4h-1v1h-1z" fill="rgb(130,180,209)"/>
<path d="M20 21h2v3h-2z" fill="rgb(101,147,184)"/>
<path d="M22 21h2v4h-1v1h-1z" fill="rgb(130,180,209)"/>
<path d="M24 21h2v3h-2z" fill="rgb(101,147,184)"/>
<path d="M26 21h1v5h-1z" fill="rgb(130,180,209)"/>
<path d="M29 21h1v1h-1z" fill="rgb(216,216,216)"/>
<path d="M33 21h1v1h-1z" fill="rgb(216,216,216)"/>
<path d="M50 21h1v1h-1z" fill="rgb(216,216,216)"/>
<path d="M69 21h1v3h-1z" fill="rgb(101,147,184)"/>
<path d="M70 21h2v4h-1v1h-1z" fill="rgb(130,180,209)"/>
<path d="M72 21h2v3h-2z" fill="rgb(101,147,184)"/>
<path d="M74 21h2v4h-1v1h-1z" fill="rgb(130,180,209)"/>
<path d="M76 21h2v3h-2z" fill="rgb(101,147,184)"/>
<path d="M78 21h2v4h-1v1h-1z" fill="rgb(130,180,209)"/>
<path d="M80 21h2v3h-2z" fill="rgb(101,147,184)"/>
<path d="M82 21h2v3h-2z" fill="rgb(130,180,209)"/>
<path d="M84 21h2v3h-2z" fill="rgb(101,147,184)"/>
<path d="M86 21h2v3h-2z" fill="rgb(130,180,209)"/>
<path d="M88 21h2v3h-2z" fill="rgb(101,147,184)"/>
<path d="M90 21h2v3h-2z" fill="rgb(130,180,209)"/>
<path d="M92 21h2v3h-2z" fill="rgb(101,147,184)"/>
<path d="M94 21h2v4h-1v-1h-1z" fill="rgb(130,180,209)"/>
<path d="M96 21h2v3h-2z" fill="rgb(101,147,184)"/>
<path d="M98 21h2v4h-1v1h-1z" fill="rgb(130,180,209)"/>
<path d="M100 21h2v3h-2z" fill="rgb(101,147,184)"/>
<path d="M102 21h2v4h-1v1h-1z" fill="rgb(130,180,209)"/>
<path d="M104 21h2v3h-2z" fill="rgb(101,147,184)"/>
<path d="M106 21h2v4h-1v1h-1z" fill="rgb(130,180,209)"/>
<path d="M108 21h2v3h-2z" fill="rgb(101,147,184)"/>
<path d="M110 21h2v4h-1v1h-1z" fill="rgb(130,180,209)"/>
<path d="M112 21h2v3h-2z" fill="rgb(101,147,184)"/>
<path d="M114 21h2v4h-1v1h-1z" fill="rgb(130,180,209)"/>
<path d="M116 21h2v3h-2z" fill="rgb(101,147,184)"/>
<path d="M118 21h2v4h-1v1h-1z" fill="rgb(130,180,209)"/>
<path d="M120 21h2v3h-2z" fill="rgb(101,147,184)"/>
<path d="M122 21h2v4h-1v1h-1z" fill="rgb(130,180,209)"/>
<path d="M124 21h2v3h-2z" fill="rgb(101,147,184)"/>
<path d="M126 21h2v4h-1v1h-1z" fill="rgb(130,180,209)"/>
<path d="M128 21h2v3h-2z" fill="rgb(101,147,184)"/>
<path d="M130 21h2v4h-1v1h-1z" fill="rgb(130,180,209)"/>
<path d="M132 21h2v3h-2z" fill="rgb(101,147,184)"/>
<path d="M134 21h2v4h-1v1h-1z" fill="rgb(130,180,209)"/>
<path d="M136 21h2v3h-2z" fill="rgb(101,147,184)"/>
<path d="M138 21h2v4h-1v1h-1z" fill="rgb(130,180,209)"/>
<path d="M140 21h2v3h-2z" fill="rgb(101,147,184)"/>
<path d="M142 21h2v4h-1v1h-1z" fill="rgb(130,180,209)"/>
<path d="M144 21h1v3h-1z" fill="rgb(101,147,184)"/>
<path d="M159 21h1v4h-1z" fill="rgb(130,180,209)"/>
<path d="M2 22h1v1h1v2h-1v1h-1z" fill="rgb(146,184,75)"/>
<path d="M13 22h1v4h-1v-1h-1v-2h1z" fill="rgb(146,184,75)"/>
<path d="M49 22h1v1h-1z" fill="rgb(216,216,216)"/>
<path d="M146 22h1v1h1v2h-1v1h-1z" fill="rgb(146,184,75)"/>
<path d="M157 22h1v4h-1v-1h-1v-2h1z" fill="rgb(146,184,75)"/>
<path d="M4 23h2v1h4v-1h2v2h1v3h-2v-1h-1v2h-1v1h-2v-1h-1v-2h-1v1h-2v-3h1z" fill="rgb(121,154,61)"/>
<path d="M28 23h3v3h-3z" fill="rgb(160,160,160)"/>
<path d="M148 23h2v1h4v-1h2v2h1v3h-2v-1h-1v2h-1v1h-2v-1h-1v-2h-1v1h-2v-3h1z" fill="rgb(121,154,61)"/>
<path d="M0 24h1v2h1v5h-2z" fill="rgb(63,112,148)"/>
<path d="M1 24h1v2h-1z" fill="rgb(71,89,36)"/>
<path d="M14 24h1v2h-1z" fill="rgb(71,89,36)"/>
<path d="M16 24h2v7h-2z" fill="rgb(63,112,148)"/>
<path d="M20 24h2v7h-2z" fill="rgb(63,112,148)"/>
<path d="M24 24h2v7h-2z" fill="rgb(63,112,148)"/>
<path d="M46 24h1v1h-1z" fill="rgb(216,216,216)"/>
<path d="M69 24h1v7h-1z" fill="rgb(63,112,148)"/>
<path d="M72 24h2v7h-2z" fill="rgb(63,112,148)"/>
<path d="M76 24h2v7h-2z" fill="rgb(63,112,148)"/>
<path d="M80 24h2v1h-1v6h-1z" fill="rgb(63,112,148)"/>
<path d="M82 24h13v1h-13z" fill="rgb(48,48,48)"/>
<path d="M96 24h2v7h-2z" fill="rgb(63,112,148)"/>
<path d="M100 24h2v7h-2z" fill="rgb(63,112,148)"/>
<path d="M104 24h2v7h-2z" fill="rgb(63,112,148)"/>
<path d="M108 24h2v7h-2z" fill="rgb(63,112,148)"/>
<path d="M112 24h2v7h-2z" fill="rgb(63,112,148)"/>
<path d="M116 24h2v7h-2z" fill="rgb(63,112,148)"/>
<path d="M120 24h2v7h-2z" fill="rgb(63,112,148)"/>
<path d="M124 24h2v7h-2z" fill="rgb(63,112,148)"/>
<path d="M128 24h2v7h-2z" fill="rgb(63,112,148)"/>
<path d="M132 24h2v7h-2z" fill="rgb(63,112,148)"/>
<path d="M136 24h2v7h-2z" fill="rgb(63,112,148)"/>
<path d="M140 24h2v7h-2z" fill="rgb(63,112,148)"/>
<path d="M144 24h1v2h1v5h-2z" fill="rgb(63,112,148)"/>
<path d="M145 24h1v2h-1z" fill="rgb(71,89,36)"/>
<path d="M158 24h1v2h-1z" fill="rgb(71,89,36)"/>
<path d="M15 25h1v6h-2v-5h1z" fill="rgb(101,147,184)"/>
<path d="M19 25h1v6h-2v-5h1z" fill="rgb(101,147,184)"/>
<path d="M23 25h1v6h-2v-5h1z" fill="rgb(101,147,184)"/>
<path d="M45 25h1v1h-1z" fill="rgb(216,216,216)"/>
<path d="M46 25h1v2h-1v1h-1v1h-1v1h-2v-1h1v-1h1v-1h1v-1h1z" fill="rgb(198,198,198)"/>
<path d="M62 25h1v1h-1z" fill="rgb(216,216,216)"/>
<path d="M71 25h1v6h-2v-5h1z" fill="rgb(101,147,184)"/>
<path d="M75 25h1v6h-2v-5h1z" fill="rgb(101,147,184)"/>
<path d="M79 25h1v6h-2v-5h1z" fill="rgb(101,147,184)"/>
<path d="M81 25h1v28h-1z" fill="rgb(48,48,48)"/>
<path d="M82 25h2v1h-1v24h-1z" fill="rgb(174,174,174)"/>
<path d="M84 25h9v1h1v16h1v1h29v1h1v7h-42v-25h1z" fill="rgb(205,205,205)"/>
<path d="M93 25h2v17h-1v-16h-1z" fill="rgb(238,238,238)"/>
<path d="M95 25h1v17h-1z" fill="rgb(48,48,48)"/>
<path d="M99 25h1v6h-2v-5h1z" fill="rgb(101,147,184)"/>
<path d="M103 25h1v6h-2v-5h1z" fill="rgb(101,147,184)"/>
<path d="M107 25h1v6h-2v-5h1z" fill="rgb(101,147,184)"/>
<path d="M111 25h1v6h-2v-5h1z" fill="rgb(101,147,184)"/>
<path d="M115 25h1v6h-2v-5h1z" fill="rgb(101,147,184)"/>
<path d="M119 25h1v6h-2v-5h1z" fill="rgb(101,147,184)"/>
<path d="M123 25h1v6h-2v-5h1z" fill="rgb(101,147,184)"/>
<path d="M127 25h1v6h-2v-5h1z" fill="rgb(101,147,184)"/>
<path d="M131 25h1v6h-2v-5h1z" fill="rgb(101,147,184)"/>
<path d="M135 25h1v6h-2v-5h1z" fill="rgb(101,147,184)"/>
<path d="M139 25h1v6h-2v-5h1z" fill="rgb(101,147,184)"/>
<path d="M143 25h1v6h-2v-5h1z" fill="rgb(101,147,184)"/>
<path d="M159 25h1v6h-2v-5h1z" fill="rgb(101,147,184)"/>
<path d="M2 26h1v2h-1z" fill="rgb(71,89,36)"/>
<path d="M13 26h1v2h-1z" fill="rgb(71,89,36)"/>
<path d="M26 26h1v5h-1z" fill="rgb(101,147,184)"/>
<path d="M28 26h3v1h-3z" fill="rgb(129,129,129)"/>
<path d="M44 26h1v1h-1z" fill="rgb(216,216,216)"/>
<path d="M61 26h1v1h-1z" fill="rgb(216,216,216)"/>
<path d="M62 26h1v3h-1v1h-3v-1h1v-1h1v-1h1z" fill="rgb(198,198,198)"/>
<path d="M65 26h3v1h-3z" fill="rgb(129,129,129)"/>
<path d="M146 26h1v2h-1z" fill="rgb(71,89,36)"/>
<path d="M157 26h1v2h-1z" fill="rgb(71,89,36)"/>
<path d="M5 27h1v2h-2v-1h1z" fill="rgb(99,131,38)"/>
<path d="M10 27h1v1h1v1h-2z" fill="rgb(99,131,38)"/>
<path d="M28 27h3v1h-3z" fill="rgb(160,160,160)"/>
<path d="M43 27h1v1h-1z" fill="rgb(216,216,216)"/>
<path d="M46 27h1v3h-3v-1h1v-1h1z" fill="rgb(216,216,216)"/>
<path d="M60 27h1v1h-1z" fill="rgb(216,216,216)"/>
<path d="M65 27h3v1h-3z" fill="rgb(160,160,160)"/>
<path d="M149 27h1v2h-2v-1h1z" fill="rgb(99,131,38)"/>
<path d="M154 27h1v1h1v1h-2z" fill="rgb(99,131,38)"/>
<path d="M2 28h1v1h1v2h-2z" fill="rgb(101,147,184)"/>
<path d="M3 28h1v1h-1z" fill="rgb(71,89,36)"/>
<path d="M12 28h1v1h-1z" fill="rgb(71,89,36)"/>
<path d="M13 28h1v3h-2v-2h1z" fill="rgb(63,112,148)"/>
<path d="M28 28h3v3h-3z" fill="rgb(129,129,129)"/>
<path d="M42 28h1v1h-1z" fill="rgb(216,216,216)"/>
<path d="M59 28h1v1h-1z" fill="rgb(216,216,216)"/>
<path d="M65 28h3v3h-3z" fill="rgb(129,129,129)"/>
<path d="M146 28h1v1h1v2h-2z" fill="rgb(101,147,184)"/>
<path d="M147 28h1v1h-1z" fill="rgb(71,89,36)"/>
<path d="M156 28h1v1h-1z" fill="rgb(71,89,36)"/>
<path d="M157 28h1v3h-2v-2h1z" fill="rgb(63,112,148)"/>
<path d="M4 29h2v1h-2z" fill="rgb(71,89,36)"/>
<path d="M6 29h1v1h-1z" fill="rgb(99,131,38)"/>
<path d="M9 29h1v1h-1z" fill="rgb(99,131,38)"/>
<path d="M10 29h2v1h-2z" fill="rgb(71,89,36)"/>
<path d="M41 29h1v1h-1z" fill="rgb(216,216,216)"/>
<path d="M58 29h1v1h-1z" fill="rgb(216,216,216)"/>
<path d="M148 29h2v1h-2z" fill="rgb(71,89,36)"/>
<path d="M150 29h1v1h-1z" fill="rgb(99,131,38)"/>
<path d="M153 29h1v1h-1z" fill="rgb(99,131,38)"/>
<path d="M154 29h2v1h-2z" fill="rgb(71,89,36)"/>
<path d="M4 30h2v1h-2z" fill="rgb(63,112,148)"/>
<path d="M6 30h1v5h-1z" fill="rgb(73,73,73)"/>
<path d="M7 30h2v2h-2z" fill="rgb(111,95,77)"/>
<path d="M9 30h1v5h-1z" fill="rgb(73,73,73)"/>
<path d="M10 30h2v1h-2z" fill="rgb(101,147,184)"/>
<path d="M148 30h2v1h-2z" fill="rgb(63,112,148)"/>
<path d="M150 30h1v5h-1z" fill="rgb(73,73,73)"/>
<path d="M151 30h2v2h-2z" fill="rgb(111,95,77)"/>
<path d="M153 30h1v5h-1z" fill="rgb(73,73,73)"/>
<path d="M154 30h2v1h-2z" fill="rgb(101,147,184)"/>
<path d="M0 31h4v1h-4z" fill="rgb(29,84,118)"/>
<path d="M4 31h2v1h-2z" fill="rgb(48,48,48)"/>
<path d="M10 31h2v1h-2z" fill="rgb(48,48,48)"/>
<path d="M12 31h15v1h-15z" fill="rgb(29,84,118)"/>
<path d="M32 31h15v1h-15z" fill="rgb(129,129,129)"/>
<path d="M49 31h15v1h-15z" fill="rgb(129,129,129)"/>
<path d="M69 31h12v1h-12z" fill="rgb(29,84,118)"/>
<path d="M96 31h52v1h-52z" fill="rgb(29,84,118)"/>
<path d="M148 31h2v1h-2z" fill="rgb(48,48,48)"/>
<path d="M154 31h2v1h-2z" fill="rgb(48,48,48)"/>
<path d="M156 31h4v1h-4z" fill="rgb(29,84,118)"/>
<path d="M0 32h3v1h-1v4h-1v1h-1z" fill="rgb(106,148,120)"/>
<path d="M3 32h1v1h-1z" fill="rgb(48,48,48)"/>
<path d="M4 32h2v1h-2z" fill="rgb(174,174,174)"/>
<path d="M7 32h2v4h-2z" fill="rgb(147,112,78)"/>
<path d="M10 32h2v1h-2z" fill="rgb(174,174,174)"/>
<path d="M12 32h1v1h-1z" fill="rgb(48,48,48)"/>
<path d="M13 32h2v1h-2z" fill="rgb(106,148,120)"/>
<path d="M15 32h2v1h1v1h1v2h-1v1h-1v1h-2v-3h-1v-2h1z" fill="rgb(97,136,109)"/>
<path d="M17 32h5v1h-1v1h-1v1h-1v-1h-1v-1h-1z" fill="rgb(106,148,120)"/>
<path d="M22 32h4v1h1v1h1v1h1v1h1v1h1v1h2v-1h1v-1h1v-1h1v-1h1v-1h1v-1h4v1h1v1h1
	v2h-2v-1h-1v-1h-2v1h-1v1h-1v1h-1v1h-1v1h-1v1h-4v-1h-1v-1h-1v-1h-1v-1h-1v-1h-1
	v-1h-2v1h-1v1h-2v-2h1v-1h1z" fill="rgb(135,160,130)"/>
<path d="M26 32h12v1h-1v1h-1v1h-1v1h-1v1h-1v1h-2v-1h-1v-1h-1v-1h-1v-1h-1v-1h-1z" fill="rgb(106,148,120)"/>
<path d="M42 32h5v1h-1v1h-1v1h-1v-1h-1v-1h-1z" fill="rgb(106,148,120)"/>
<path d="M47 32h2v1h1v1h1v2h-1v1h-1v1h-2v-1h-1v-1h-1v-2h1v-1h1z" fill="rgb(97,136,109)"/>
<path d="M49 32h5v1h-1v1h-1v1h-1v-1h-1v-1h-1z" fill="rgb(106,148,120)"/>
<path d="M54 32h4v1h1v1h1v1h1v1h1v1h1v1h2v-1h1v-1h1v-1h1v-1h1v-1h1v-1h4v1h1v1h1
	v2h-2v-1h-1v-1h-2v1h-1v1h-1v1h-1v1h-1v1h-1v1h-4v-1h-1v-1h-1v-1h-1v-1h-1v-1h-1
	v-1h-2v1h-1v1h-2v-2h1v-1h1z" fill="rgb(135,160,130)"/>
<path d="M58 32h12v1h-1v1h-1v1h-1v1h-1v1h-1v1h-2v-1h-1v-1h-1v-1h-1v-1h-1v-1h-1z" fill="rgb(106,148,120)"/>
<path d="M74 32h5v1h-1v1h-1v1h-1v-1h-1v-1h-1z" fill="rgb(106,148,120)"/>
<path d="M79 32h2v6h-2v-1h-1v-1h-1v-2h1v-1h1z" fill="rgb(97,136,109)"/>
<path d="M96 32h6v1h-1v1h-1v1h-1v1h-1v1h-1v1h-1z" fill="rgb(106,148,120)"/>
<path d="M102 32h4v1h1v1h1v2h-2v-1h-1v-1h-2v1h-1v1h-1v1h-1v1h-1v1h-1v1h-2v-2h1
	v-1h1v-1h1v-1h1v-1h1v-1h1z" fill="rgb(135,160,130)"/>
<path d="M106 32h5v1h-1v1h-1v1h-1v-1h-1v-1h-1z" fill="rgb(106,148,120)"/>
<path d="M111 32h2v1h1v1h1v2h-1v1h-1v1h-2v-1h-1v-1h-1v-2h1v-1h1z" fill="rgb(97,136,109)"/>
<path d="M113 32h5v1h-1v1h-1v1h-1v-1h-1v-1h-1z" fill="rgb(106,148,120)"/>
<path d="M118 32h4v1h1v1h1v1h1v1h1v1h1v1h2v-1h1v-1h1v-1h1v-1h1v-1h1v-1h4v1h1v1
	h1v2h-2v-1h-1v-1h-2v1h-1v1h-1v1h-1v1h-1v1h-1v1h-4v-1h-1v-1h-1v-1h-1v-1h-1v-1h-1
	v-1h-2v1h-1v1h-2v-2h1v-1h1z" fill="rgb(135,160,130)"/>
<path d="M122 32h12v1h-1v1h-1v1h-1v1h-1v1h-1v1h-2v-1h-1v-1h-1v-1h-1v-1h-1v-1h-1z" fill="rgb(106,148,120)"/>
<path d="M138 32h5v1h-1v1h-1v1h-1v-1h-1v-1h-1z" fill="rgb(106,148,120)"/>
<path d="M143 32h2v1h1v4h-1v1h-2v-1h-1v-1h-1v-2h1v-1h1z" fill="rgb(97,136,109)"/>
<path d="M145 32h2v1h-2z" fill="rgb(106,148,120)"/>
<path d="M147 32h1v1h-1z" fill="rgb(48,48,48)"/>
<path d="M148 32h2v1h-2z" fill="rgb(174,174,174)"/>
<path d="M151 32h2v4h-2z" fill="rgb(147,112,78)"/>
<path d="M154 32h2v1h-2z" fill="rgb(174,174,174)"/>
<path d="M156 32h1v1h-1z" fill="rgb(48,48,48)"/>
<path d="M157 32h3v6h-1v-3h-1v-2h-1z" fill="rgb(106,148,120)"/>
<path d="M2 33h1v1h-1z" fill="rgb(48,48,48)"/>
<path d="M3 33h1v1h-1z" fill="rgb(174,174,174)"/>
<path d="M4 33h1v4h2v1h2v-1h2v-4h1v2h1v2h-1v1h-1v1h-6v-1h-1v-1h-1v-3h1z" fill="rgb(205,205,205)"/>
<path d="M5 33h1v2h1v1h2v-1h1v-2h1v3h-1v1h-4v-1h-1z" fill="rgb(93,87,87)"/>
<path d="M12 33h1v2h-1z" fill="rgb(174,174,174)"/>
<path d="M13 33h1v1h-1z" fill="rgb(48,48,48)"/>
<path d="M146 33h1v1h-1z" fill="rgb(48,48,48)"/>
<path d="M147 33h1v1h-1z" fill="rgb(174,174,174)"/>
<path d="M148 33h1v4h2v1h2v-1h2v-4h1v2h1v2h-1v1h-1v1h-6v-1h-1v-1h-1v-3h1z" fill="rgb(205,205,205)"/>
<path d="M149 33h1v2h1v1h2v-1h1v-2h1v3h-1v1h-4v-1h-1z" fill="rgb(93,87,87)"/>
<path d="M156 33h1v2h-1z" fill="rgb(174,174,174)"/>
<path d="M157 33h1v1h-1z" fill="rgb(48,48,48)"/>
<path d="M2 34h1v4h-1z" fill="rgb(130,130,130)"/>
<path d="M13 34h1v4h-1z" fill="rgb(130,130,130)"/>
<path d="M23 34h2v1h1v1h1v1h1v1h1v2h-5v-1h-1v-1h-1v-1h-1v-1h1v-1h1z" fill="rgb(97,135,157)"/>
<path d="M39 34h2v1h1v1h1v1h-1v1h-1v1h-1v1h-5v-2h1v-1h1v-1h1v-1h1z" fill="rgb(97,135,157)"/>
<path d="M55 34h2v1h1v1h1v1h1v1h1v2h-5v-1h-1v-1h-1v-1h-1v-1h1v-1h1z" fill="rgb(97,135,157)"/>
<path d="M71 34h2v1h1v1h1v1h-1v1h-1v1h-1v1h-5v-2h1v-1h1v-1h1v-1h1z" fill="rgb(97,135,157)"/>
<path d="M103 34h2v1h1v1h1v1h-1v1h-1v1h-1v1h-5v-2h1v-1h1v-1h1v-1h1z" fill="rgb(97,135,157)"/>
<path d="M119 34h2v1h1v1h1v1h1v1h1v2h-5v-1h-1v-1h-1v-1h-1v-1h1v-1h1z" fill="rgb(97,135,157)"/>
<path d="M135 34h2v1h1v1h1v1h-1v1h-1v1h-1v1h-5v-2h1v-1h1v-1h1v-1h1z" fill="rgb(97,135,157)"/>
<path d="M146 34h1v4h-1z" fill="rgb(130,130,130)"/>
<path d="M157 34h1v4h-1z" fill="rgb(130,130,130)"/>
<path d="M14 35h1v2h-1z" fill="rgb(73,102,82)"/>
<path d="M19 35h1v1h1v1h-1v1h-1v1h-1v1h-3v-2h2v-1h1v-1h1z" fill="rgb(123,145,121)"/>
<path d="M44 35h1v1h1v1h1v1h2v-1h1v-1h1v-1h1v1h1v1h-1v1h-1v1h-1v1h-4v-1h-1v-1
	h-1v-1h-1v-1h1z" fill="rgb(123,145,121)"/>
<path d="M76 35h1v1h1v1h1v1h2v2h-3v-1h-1v-1h-1v-1h-1v-1h1z" fill="rgb(123,145,121)"/>
<path d="M108 35h1v1h1v1h1v1h2v-1h1v-1h1v-1h1v1h1v1h-1v1h-1v1h-1v1h-4v-1h-1v-1
	h-1v-1h-1v-1h1z" fill="rgb(123,145,121)"/>
<path d="M140 35h1v1h1v1h1v1h2v-1h1v3h-4v-1h-1v-1h-1v-1h-1v-1h1z" fill="rgb(123,145,121)"/>
<path d="M158 35h1v2h-1z" fill="rgb(79,111,90)"/>
<path d="M5 36h1v1h-1z" fill="rgb(174,174,174)"/>
<path d="M10 36h1v1h-1z" fill="rgb(174,174,174)"/>
<path d="M149 36h1v1h-1z" fill="rgb(174,174,174)"/>
<path d="M154 36h1v1h-1z" fill="rgb(174,174,174)"/>
<path d="M1 37h1v4h1v1h1v2h-2v-1h-1v-1h-1v-4h1z" fill="rgb(135,160,130)"/>
<path d="M3 37h1v1h-1z" fill="rgb(174,174,174)"/>
<path d="M7 37h2v1h-2z" fill="rgb(174,174,174)"/>
<path d="M12 37h1v1h-1z" fill="rgb(174,174,174)"/>
<path d="M14 37h1v3h-1v-1h-1v-1h1z" fill="rgb(92,109,91)"/>
<path d="M20 37h2v1h-1v1h-1v1h-2v-1h1v-1h1z" fill="rgb(76,110,138)"/>
<path d="M42 37h2v1h1v1h1v1h-2v-1h-1v-1h-1z" fill="rgb(76,110,138)"/>
<path d="M52 37h2v1h-1v1h-1v1h-2v-1h1v-1h1z" fill="rgb(76,110,138)"/>
<path d="M74 37h2v1h1v1h1v1h-2v-1h-1v-1h-1z" fill="rgb(76,110,138)"/>
<path d="M106 37h2v1h1v1h1v1h-2v-1h-1v-1h-1z" fill="rgb(76,110,138)"/>
<path d="M116 37h2v1h-1v1h-1v1h-2v-1h1v-1h1z" fill="rgb(76,110,138)"/>
<path d="M138 37h2v1h1v1h1v1h-2v-1h-1v-1h-1z" fill="rgb(76,110,138)"/>
<path d="M147 37h1v1h-1z" fill="rgb(174,174,174)"/>
<path d="M151 37h2v1h-2z" fill="rgb(174,174,174)"/>
<path d="M156 37h1v1h-1z" fill="rgb(174,174,174)"/>
<path d="M158 37h1v3h-1v-1h-1v-1h1z" fill="rgb(101,120,97)"/>
<path d="M2 38h1v1h-1z" fill="rgb(101,120,97)"/>
<path d="M3 38h1v2h-1z" fill="rgb(48,48,48)"/>
<path d="M4 38h1v1h-1z" fill="rgb(130,130,130)"/>
<path d="M11 38h1v1h-1z" fill="rgb(130,130,130)"/>
<path d="M12 38h1v2h-1z" fill="rgb(48,48,48)"/>
<path d="M21 38h2v1h1v1h-4v-1h1z" fill="rgb(89,124,143)"/>
<path d="M41 38h2v1h1v1h-4v-1h1z" fill="rgb(89,124,143)"/>
<path d="M53 38h2v1h1v1h-4v-1h1z" fill="rgb(89,124,143)"/>
<path d="M73 38h2v1h1v1h-4v-1h1z" fill="rgb(89,124,143)"/>
<path d="M105 38h2v1h1v1h-4v-1h1z" fill="rgb(89,124,143)"/>
<path d="M117 38h2v1h1v1h-4v-1h1z" fill="rgb(89,124,143)"/>
<path d="M137 38h2v1h1v1h-4v-1h1z" fill="rgb(89,124,143)"/>
<path d="M146 38h1v1h-1z" fill="rgb(92,109,91)"/>
<path d="M147 38h1v2h-1z" fill="rgb(48,48,48)"/>
<path d="M148 38h1v1h-1z" fill="rgb(130,130,130)"/>
<path d="M155 38h1v1h-1z" fill="rgb(130,130,130)"/>
<path d="M156 38h1v2h-1z" fill="rgb(48,48,48)"/>
<path d="M159 38h1v2h-1z" fill="rgb(135,160,130)"/>
<path d="M2 39h1v1h-1z" fill="rgb(61,91,113)"/>
<path d="M4 39h1v1h-1z" fill="rgb(174,174,174)"/>
<path d="M5 39h6v1h-6z" fill="rgb(130,130,130)"/>
<path d="M11 39h1v1h-1z" fill="rgb(174,174,174)"/>
<path d="M13 39h1v1h-1z" fill="rgb(57,82,103)"/>
<path d="M29 39h1v1h-1z" fill="rgb(82,121,151)"/>
<path d="M34 39h1v1h-1z" fill="rgb(82,121,151)"/>
<path d="M61 39h1v1h-1z" fill="rgb(82,121,151)"/>
<path d="M66 39h1v1h-1z" fill="rgb(82,121,151)"/>
<path d="M98 39h1v1h-1z" fill="rgb(82,121,151)"/>
<path d="M125 39h1v1h-1z" fill="rgb(82,121,151)"/>
<path d="M130 39h1v1h-1z" fill="rgb(82,121,151)"/>
<path d="M146 39h1v1h-1z" fill="rgb(57,82,103)"/>
<path d="M148 39h1v1h-1z" fill="rgb(174,174,174)"/>
<path d="M149 39h6v1h-6z" fill="rgb(130,130,130)"/>
<path d="M155 39h1v1h-1z" fill="rgb(174,174,174)"/>
<path d="M157 39h1v1h-1z" fill="rgb(61,91,113)"/>
<path d="M2 40h1v1h-1z" fill="rgb(82,121,151)"/>
<path d="M3 40h1v1h1v2h-1v-1h-1z" fill="rgb(61,91,113)"/>
<path d="M4 40h1v1h-1z" fill="rgb(48,48,48)"/>
<path d="M5 40h6v1h-6z" fill="rgb(174,174,174)"/>
<path d="M11 40h1v1h-1z" fill="rgb(48,48,48)"/>
<path d="M12 40h1v2h-1v1h-4v-1h3v-1h1z" fill="rgb(89,124,143)"/>
<path d="M13 40h1v1h-1z" fill="rgb(76,110,138)"/>
<path d="M14 40h4v1h1v1h1v1h1v1h1v1h1v1h2v-1h1v-1h1v-1h1v1h1v1h-1v1h-1v1h-1v2h1
	v1h1v1h1v1h-1v1h-1v-1h-1v-1h-1v-1h-2v1h-1v1h-1v1h-1v1h-1v1h-1v2h1v1h1v1h1v1h-1
	v1h-1v-1h-1v-1h-1v-1h-2v1h-1v1h-1v1h-1v-1h-1v-1h1v-1h1v-1h1v-2h-1v-1h-1v-1h-1
	v-1h-1v-1h-1v-1h-1v-4h1v-1h1v-1h1v-1h2v-1h1z" fill="rgb(164,194,161)"/>
<path d="M18 40h1v1h-1z" fill="rgb(101,147,184)"/>
<path d="M19 40h6v1h1v1h1v2h-1v1h-1v1h-2v-1h-1v-1h-1v-1h-1v-1h-1z" fill="rgb(119,165,191)"/>
<path d="M25 40h3v1h-1v1h-1v-1h-1z" fill="rgb(130,180,209)"/>
<path d="M28 40h2v1h-1v1h-1v1h-1v-2h1z" fill="rgb(110,162,201)"/>
<path d="M30 40h4v1h1v1h1v2h-2v-1h-1v-1h-2v1h-1v1h-2v-2h1v-1h1z" fill="rgb(180,213,174)"/>
<path d="M34 40h2v1h1v2h-1v-1h-1v-1h-1z" fill="rgb(110,162,201)"/>
<path d="M36 40h3v1h-1v1h-1v-1h-1z" fill="rgb(130,180,209)"/>
<path d="M39 40h6v2h-1v1h-1v1h-1v1h-1v1h-2v-1h-1v-1h-1v-2h1v-1h1z" fill="rgb(119,165,191)"/>
<path d="M45 40h1v1h-1z" fill="rgb(101,147,184)"/>
<path d="M46 40h4v1h1v1h1v1h1v1h1v1h1v1h2v-1h1v-1h1v-1h1v1h1v1h-1v1h-1v1h-1v2h1
	v1h1v1h1v1h-1v1h-1v-1h-1v-1h-1v-1h-2v1h-1v1h-1v1h-1v1h-1v1h-1v2h1v1h1v1h1v1h-1
	v1h-1v-1h-1v-1h-1v-1h-2v1h-1v1h-1v1h-1v-1h-1v-1h1v-1h1v-1h1v-2h-1v-1h-1v-1h-1
	v-1h-1v-1h-1v-1h-2v1h-1v1h-1v1h-1v-1h-1v-1h1v-1h1v-1h1v-2h-1v-1h-1v-1h-1v-1h1
	v-1h1v1h1v1h1v1h2v-1h1v-1h1v-1h1v-1h1v-1h1z" fill="rgb(164,194,161)"/>
<path d="M50 40h1v1h-1z" fill="rgb(101,147,184)"/>
<path d="M51 40h6v1h1v1h1v2h-1v1h-1v1h-2v-1h-1v-1h-1v-1h-1v-1h-1z" fill="rgb(119,165,191)"/>
<path d="M57 40h3v1h-1v1h-1v-1h-1z" fill="rgb(130,180,209)"/>
<path d="M60 40h2v1h-1v1h-1v1h-1v-2h1z" fill="rgb(110,162,201)"/>
<path d="M62 40h4v1h1v1h1v2h-2v-1h-1v-1h-2v1h-1v1h-2v-2h1v-1h1z" fill="rgb(180,213,174)"/>
<path d="M66 40h2v1h1v2h-1v-1h-1v-1h-1z" fill="rgb(110,162,201)"/>
<path d="M68 40h3v1h-1v1h-1v-1h-1z" fill="rgb(130,180,209)"/>
<path d="M71 40h6v2h-1v1h-1v1h-1v1h-1v1h-2v-1h-1v-1h-1v-2h1v-1h1z" fill="rgb(119,165,191)"/>
<path d="M77 40h1v1h-1z" fill="rgb(101,147,184)"/>
<path d="M78 40h3v2h-2v1h-1v1h-1v1h-1v1h-1v1h-1v2h1v1h1v1h1v1h1v1h1v1h2v4h-2v1
	h-1v1h-1v1h-1v-1h-1v-1h1v-1h1v-1h1v-2h-1v-1h-1v-1h-1v-1h-1v-1h-1v-1h-2v1h-1v1
	h-1v1h-1v-1h-1v-1h1v-1h1v-1h1v-2h-1v-1h-1v-1h-1v-1h1v-1h1v1h1v1h1v1h2v-1h1v-1h1
	v-1h1v-1h1v-1h1z" fill="rgb(164,194,161)"/>
<path d="M96 40h2v1h1v1h-3z" fill="rgb(180,213,174)"/>
<path d="M98 40h2v1h1v1h-2v-1h-1z" fill="rgb(110,162,201)"/>
<path d="M100 40h3v1h-1v1h-1v-1h-1z" fill="rgb(130,180,209)"/>
<path d="M103 40h6v2h-7v-1h1z" fill="rgb(119,165,191)"/>
<path d="M109 40h1v1h-1z" fill="rgb(101,147,184)"/>
<path d="M110 40h4v1h1v1h-6v-1h1z" fill="rgb(164,194,161)"/>
<path d="M114 40h1v1h-1z" fill="rgb(101,147,184)"/>
<path d="M115 40h6v1h1v1h-7z" fill="rgb(119,165,191)"/>
<path d="M121 40h3v1h-1v1h-1v-1h-1z" fill="rgb(130,180,209)"/>
<path d="M124 40h2v1h-1v1h-2v-1h1z" fill="rgb(110,162,201)"/>
<path d="M126 40h4v1h1v1h1v2h-2v-1h-1v-1h-2v1h-1v-1h-1v-1h1z" fill="rgb(180,213,174)"/>
<path d="M130 40h2v1h1v2h-1v-1h-1v-1h-1z" fill="rgb(110,162,201)"/>
<path d="M132 40h3v1h-1v1h-1v-1h-1z" fill="rgb(130,180,209)"/>
<path d="M135 40h6v2h-1v1h-1v1h-1v1h-1v1h-2v-1h-1v-1h-1v-2h1v-1h1z" fill="rgb(119,165,191)"/>
<path d="M141 40h1v1h-1z" fill="rgb(101,147,184)"/>
<path d="M142 40h4v1h1v1h1v1h1v1h1v1h1v1h2v-1h1v-1h1v-1h1v1h1v1h-1v1h-1v1h-1v2
	h1v1h1v1h1v1h-1v1h-1v-1h-1v-1h-1v-1h-2v1h-1v1h-1v1h-1v1h-1v1h-1v2h1v1h1v1h1v1
	h-1v1h-1v-1h-1v-1h-1v-1h-2v1h-1v1h-1v1h-1v-1h-1v-1h1v-1h1v-1h1v-2h-1v-1h-1v-1h-1
	v-1h-1v-1h-1v-1h-2v1h-1v1h-1v1h-1v-1h-1v-1h1v-1h1v-1h1v-2h-1v-1h-1v-1h-1v-1h1
	v-1h1v1h1v1h1v1h2v-1h1v-1h1v-1h1v-1h1v-1h1z" fill="rgb(164,194,161)"/>
<path d="M146 40h1v1h-1z" fill="rgb(101,147,184)"/>
<path d="M147 40h1v1h1v1h6v1h-7v-1h-1z" fill="rgb(89,124,143)"/>
<path d="M148 40h1v1h-1z" fill="rgb(48,48,48)"/>
<path d="M149 40h6v1h-6z" fill="rgb(174,174,174)"/>
<path d="M155 40h1v1h-1z" fill="rgb(48,48,48)"/>
<path d="M156 40h2v1h-1v1h-1v1h-1v-2h1z" fill="rgb(82,121,151)"/>
<path d="M158 40h2v2h-1v1h-1v1h-2v-1h1v-1h1z" fill="rgb(180,213,174)"/>
<path d="M5 41h6v1h-6z" fill="rgb(48,48,48)"/>
<path d="M13 41h1v1h-1z" fill="rgb(123,145,121)"/>
<path d="M149 41h6v1h-6z" fill="rgb(48,48,48)"/>
<path d="M157 41h1v1h-1z" fill="rgb(135,160,130)"/>
<path d="M0 42h1v1h1v1h1v1h-1v1h-1v1h-1z" fill="rgb(106,148,120)"/>
<path d="M5 42h3v1h-3z" fill="rgb(67,93,107)"/>
<path d="M12 42h1v1h-1z" fill="rgb(123,145,121)"/>
<path d="M15 42h2v1h1v1h1v1h1v1h1v1h1v2h-1v1h-1v1h-1v1h-1v1h-1v1h-2v-1h-1v-1h-1
	v-1h-1v-1h-1v-1h-1v-2h1v-1h1v-1h1v-1h1v-1h1z" fill="rgb(130,181,145)"/>
<path d="M31 42h2v1h1v1h1v1h-1v1h-1v1h-2v-1h-1v-1h-1v-1h1v-1h1z" fill="rgb(142,198,160)"/>
<path d="M47 42h2v1h1v1h1v1h1v1h1v1h1v2h-1v1h-1v1h-1v1h-1v1h-1v1h-2v-1h-1v-1h-1
	v-1h-1v-1h-1v-1h-1v-2h1v-1h1v-1h1v-1h1v-1h1z" fill="rgb(130,181,145)"/>
<path d="M63 42h2v1h1v1h1v1h-1v1h-1v1h-2v-1h-1v-1h-1v-1h1v-1h1z" fill="rgb(142,198,160)"/>
<path d="M79 42h2v12h-2v-1h-1v-1h-1v-1h-1v-1h-1v-1h-1v-2h1v-1h1v-1h1v-1h1v-1h1z" fill="rgb(130,181,145)"/>
<path d="M95 42h1v1h-1z" fill="rgb(174,174,174)"/>
<path d="M96 42h30v1h-30z" fill="rgb(48,48,48)"/>
<path d="M127 42h2v1h1v1h1v1h-1v1h-1v1h-2z" fill="rgb(142,198,160)"/>
<path d="M143 42h2v1h1v1h1v1h1v1h1v1h1v2h-1v1h-1v1h-1v1h-1v1h-1v1h-2v-1h-1v-1
	h-1v-1h-1v-1h-1v-1h-1v-2h1v-1h1v-1h1v-1h1v-1h1z" fill="rgb(130,181,145)"/>
<path d="M156 42h1v1h-1z" fill="rgb(135,160,130)"/>
<path d="M159 42h1v5h-1v-1h-1v-1h-1v-1h1v-1h1z" fill="rgb(142,198,160)"/>
<path d="M4 43h1v1h1v1h1v1h1v4h-1v1h-1v1h-1v1h-1v-1h-1v-1h1v-1h1v-1h1v-2h-1v-1
	h-1v-1h-1v-1h1z" fill="rgb(123,145,121)"/>
<path d="M5 43h3v3h-1v-1h-1v-1h-1z" fill="rgb(89,124,143)"/>
<path d="M8 43h3v1h-1v1h-1v1h-1z" fill="rgb(119,165,191)"/>
<path d="M124 43h2v8h-1v-7h-1z" fill="rgb(238,238,238)"/>
<path d="M126 43h1v10h-1z" fill="rgb(48,48,48)"/>
<path d="M149 43h6v1h-1v1h-1v1h-2v-1h-1v-1h-1z" fill="rgb(119,165,191)"/>
<path d="M2 45h2v1h1v1h1v2h-1v1h-1v1h-2v-1h-1v-1h-1v-2h1v-1h1z" fill="rgb(97,136,109)"/>
<path d="M28 45h2v1h1v1h2v-1h1v-1h2v1h1v1h1v2h-1v1h-1v1h-2v-1h-1v-1h-2v1h-1v1
	h-2v-1h-1v-1h-1v-2h1v-1h1z" fill="rgb(130,181,145)"/>
<path d="M60 45h2v1h1v1h2v-1h1v-1h2v1h1v1h1v2h-1v1h-1v1h-2v-1h-1v-1h-2v1h-1v1
	h-2v-1h-1v-1h-1v-2h1v-1h1z" fill="rgb(130,181,145)"/>
<path d="M130 45h2v1h1v1h1v2h-1v1h-1v1h-2v-1h-1v-1h-2v-2h2v-1h1z" fill="rgb(130,181,145)"/>
<path d="M156 45h2v1h1v1h1v2h-1v1h-1v1h-2v-1h-1v-1h-1v-2h1v-1h1z" fill="rgb(130,181,145)"/>
<path d="M0 49h1v1h1v1h1v1h-1v1h-1v1h-1z" fill="rgb(106,148,120)"/>
<path d="M31 49h2v1h1v1h1v1h-1v1h-1v1h-2v-1h-1v-1h-1v-1h1v-1h1z" fill="rgb(142,198,160)"/>
<path d="M63 49h2v1h1v1h1v1h-1v1h-1v1h-2v-1h-1v-1h-1v-1h1v-1h1z" fill="rgb(142,198,160)"/>
<path d="M127 49h1v5h-1z" fill="rgb(106,148,120)"/>
<path d="M128 49h1v1h1v1h1v1h-1v1h-1v1h-1z" fill="rgb(142,198,160)"/>
<path d="M159 49h1v5h-1v-1h-1v-1h-1v-1h1v-1h1z" fill="rgb(142,198,160)"/>
<path d="M7 50h1v2h-1v1h-1v1h-1v-2h1v-1h1z" fill="rgb(76,110,138)"/>
<path d="M8 50h1v1h1v1h1v1h1v1h1v1h1v2h-1v-1h-1v-1h-1v-1h-1v-1h-1v-1h-1z" fill="rgb(101,147,184)"/>
<path d="M23 50h2v1h1v1h1v2h-1v-1h-1v-1h-2v1h-1v1h-1v1h-1v1h-1v1h-1v-2h1v-1h1
	v-1h1v-1h1v-1h1z" fill="rgb(101,147,184)"/>
<path d="M39 50h2v1h1v1h1v1h1v1h1v1h1v2h-1v-1h-1v-1h-1v-1h-1v-1h-1v-1h-2v1h-1v1
	h-1v-2h1v-1h1z" fill="rgb(101,147,184)"/>
<path d="M55 50h2v1h1v1h1v2h-1v-1h-1v-1h-2v1h-1v1h-1v1h-1v1h-1v1h-1v-2h1v-1h1
	v-1h1v-1h1v-1h1z" fill="rgb(101,147,184)"/>
<path d="M71 50h2v1h1v1h1v1h1v1h1v1h1v2h-1v-1h-1v-1h-1v-1h-1v-1h-1v-1h-2v1h-1v1
	h-1v-2h1v-1h1z" fill="rgb(101,147,184)"/>
<path d="M82 50h1v1h-1z" fill="rgb(238,238,238)"/>
<path d="M135 50h2v1h1v1h1v1h1v1h1v1h1v2h-1v-1h-1v-1h-1v-1h-1v-1h-1v-1h-2v1h-1
	v1h-1v-2h1v-1h1z" fill="rgb(101,147,184)"/>
<path d="M151 50h2v1h1v1h1v2h-1v-1h-1v-1h-2v1h-1v1h-1v1h-1v1h-1v1h-1v-2h1v-1h1
	v-1h1v-1h1v-1h1z" fill="rgb(101,147,184)"/>
<path d="M82 51h1v1h-1z" fill="rgb(205,205,205)"/>
<path d="M83 51h42v1h-42z" fill="rgb(238,238,238)"/>
<path d="M125 51h1v1h-1z" fill="rgb(205,205,205)"/>
<path d="M2 52h2v2h-1v1h-1v2h1v1h1v1h1v1h1v1h1v1h1v4h-1v1h-1v1h-1v1h-1v1h-1v1
	h-1v2h1v1h1v2h-2v-1h-1v-1h-1v-4h1v-1h1v-1h1v-1h1v-1h1v-1h1v-2h-1v-1h-1v-1h-1v-1
	h-1v-1h-1v-1h-1v-4h1v-1h1z" fill="rgb(135,160,130)"/>
<path d="M7 52h1v4h-1v-1h-1v-2h1z" fill="rgb(89,124,143)"/>
<path d="M8 52h1v1h1v1h1v1h1v1h1v2h-1v1h-2v-1h-1v-1h-1z" fill="rgb(119,165,191)"/>
<path d="M23 52h2v1h1v2h-1v1h-1v1h-1v1h-1v1h-2v-1h-1v-2h1v-1h1v-1h1v-1h1z" fill="rgb(119,165,191)"/>
<path d="M28 52h2v1h1v1h2v-1h1v-1h2v2h-1v1h-1v2h1v1h1v1h1v1h1v1h1v1h2v-1h1v-1h2
	v2h-1v1h-1v2h1v1h1v2h-2v-1h-1v-1h-2v1h-1v1h-1v1h-1v1h-1v1h-1v2h1v1h1v2h-2v-1
	h-1v-1h-2v1h-1v1h-2v-2h1v-1h1v-2h-1v-1h-1v-1h-1v-1h-1v-1h-1v-1h-2v1h-1v1h-2v-2h1
	v-1h1v-2h-1v-1h-1v-2h2v1h1v1h2v-1h1v-1h1v-1h1v-1h1v-1h1v-2h-1v-1h-1z" fill="rgb(180,213,174)"/>
<path d="M39 52h2v1h1v1h1v1h1v1h1v2h-1v1h-2v-1h-1v-1h-1v-1h-1v-1h-1v-2h1z" fill="rgb(119,165,191)"/>
<path d="M55 52h2v1h1v2h-1v1h-1v1h-1v1h-1v1h-2v-1h-1v-2h1v-1h1v-1h1v-1h1z" fill="rgb(119,165,191)"/>
<path d="M60 52h2v1h1v1h2v-1h1v-1h2v2h-1v1h-1v2h1v1h1v1h1v1h1v1h1v1h2v-1h1v-1h2
	v2h-1v1h-1v2h1v1h1v2h-2v-1h-1v-1h-2v1h-1v1h-1v1h-1v1h-1v1h-1v2h1v1h1v2h-2v-1
	h-1v-1h-2v1h-1v1h-2v-2h1v-1h1v-2h-1v-1h-1v-1h-1v-1h-1v-1h-1v-1h-2v1h-1v1h-2v-2h1
	v-1h1v-2h-1v-1h-1v-2h2v1h1v1h2v-1h1v-1h1v-1h1v-1h1v-1h1v-2h-1v-1h-1z" fill="rgb(180,213,174)"/>
<path d="M71 52h2v1h1v1h1v1h1v1h1v2h-1v1h-2v-1h-1v-1h-1v-1h-1v-1h-1v-2h1z" fill="rgb(119,165,191)"/>
<path d="M82 52h44v1h-44z" fill="rgb(174,174,174)"/>
<path d="M130 52h2v2h-1v1h-1v2h1v1h1v1h1v1h1v1h1v1h2v-1h1v-1h2v2h-1v1h-1v2h1v1
	h1v2h-2v-1h-1v-1h-2v1h-1v1h-1v1h-1v1h-1v1h-1v2h1v1h1v2h-2v-1h-1v-1h-2v1h-1v1h-2
	v-2h1v-1h1v-2h-1v-1h-1v-1h-1v-1h-1v-1h-1v-1h-2v1h-1v1h-2v-2h1v-1h1v-2h4v2h1v1
	h1v1h1v1h1v1h1v1h2v-1h1v-1h1v-1h1v-1h1v-1h1v-2h-1v-1h-1v-1h-1v-1h-1v-1h-1v-1h-1
	v-4h1v-1h1z" fill="rgb(180,213,174)"/>
<path d="M135 52h2v1h1v1h1v1h1v1h1v2h-1v1h-2v-1h-1v-1h-1v-1h-1v-1h-1v-2h1z" fill="rgb(119,165,191)"/>
<path d="M151 52h2v1h1v2h-1v1h-1v1h-1v1h-1v1h-2v-1h-1v-2h1v-1h1v-1h1v-1h1z" fill="rgb(119,165,191)"/>
<path d="M156 52h2v1h1v1h1v4h-1v1h-1v1h-1v1h-1v1h-1v1h-1v2h1v1h1v1h1v1h1v1h1v1
	h1v4h-1v1h-1v1h-2v-2h1v-1h1v-2h-1v-1h-1v-1h-1v-1h-1v-1h-1v-1h-2v1h-1v1h-2v-2h1
	v-1h1v-2h-1v-1h-1v-2h2v1h1v1h2v-1h1v-1h1v-1h1v-1h1v-1h1v-2h-1v-1h-1z" fill="rgb(180,213,174)"/>
<path d="M4 53h1v2h-1v1h-1v1h-1v-2h1v-1h1z" fill="rgb(82,121,151)"/>
<path d="M27 53h1v1h1v1h1v2h-1v-1h-1v-1h-1z" fill="rgb(110,162,201)"/>
<path d="M36 53h1v2h-1v1h-1v1h-1v-2h1v-1h1z" fill="rgb(110,162,201)"/>
<path d="M59 53h1v1h1v1h1v2h-1v-1h-1v-1h-1z" fill="rgb(110,162,201)"/>
<path d="M68 53h1v2h-1v1h-1v1h-1v-2h1v-1h1z" fill="rgb(110,162,201)"/>
<path d="M81 53h1v6h-1z" fill="rgb(123,145,121)"/>
<path d="M82 53h44v1h-44z" fill="rgb(48,48,48)"/>
<path d="M126 53h1v1h1v4h-1v1h-1z" fill="rgb(135,160,130)"/>
<path d="M132 53h1v2h-1v1h-1v1h-1v-2h1v-1h1z" fill="rgb(110,162,201)"/>
<path d="M155 53h1v1h1v1h1v2h-1v-1h-1v-1h-1z" fill="rgb(110,162,201)"/>
<path d="M5 54h1v1h1v1h1v6h-1v-1h-1v-1h-1v-1h-1v-1h-1v-2h1v-1h1z" fill="rgb(97,135,157)"/>
<path d="M26 54h1v1h1v1h1v2h-1v1h-1v1h-1v1h-1v1h-2v-1h-1v-1h-1v-1h1v-1h1v-1h1
	v-1h1v-1h1z" fill="rgb(130,180,209)"/>
<path d="M37 54h1v1h1v1h1v1h1v1h1v1h1v1h-1v1h-1v1h-2v-1h-1v-1h-1v-1h-1v-1h-1v-2
	h1v-1h1z" fill="rgb(130,180,209)"/>
<path d="M58 54h1v1h1v1h1v2h-1v1h-1v1h-1v1h-1v1h-2v-1h-1v-1h-1v-1h1v-1h1v-1h1
	v-1h1v-1h1z" fill="rgb(130,180,209)"/>
<path d="M69 54h1v1h1v1h1v1h1v1h1v1h1v1h-1v1h-1v1h-2v-1h-1v-1h-1v-1h-1v-1h-1v-2
	h1v-1h1z" fill="rgb(130,180,209)"/>
<path d="M82 54h1v6h-1z" fill="rgb(73,73,73)"/>
<path d="M83 54h42v1h-42z" fill="rgb(111,95,77)"/>
<path d="M125 54h1v6h-1z" fill="rgb(73,73,73)"/>
<path d="M133 54h1v1h1v1h1v1h1v1h1v1h1v1h-1v1h-1v1h-2v-1h-1v-1h-1v-1h-1v-1h-1
	v-2h1v-1h1z" fill="rgb(130,180,209)"/>
<path d="M154 54h1v1h1v1h1v2h-1v1h-1v1h-1v1h-1v1h-2v-1h-1v-1h-1v-1h1v-1h1v-1h1
	v-1h1v-1h1z" fill="rgb(130,180,209)"/>
<path d="M83 55h42v5h-42z" fill="rgb(147,112,78)"/>
<path d="M8 57h1v1h1v1h1v1h-1v1h-1v1h-1z" fill="rgb(130,180,209)"/>
<path d="M0 58h1v1h1v1h1v1h1v1h1v1h1v2h-1v1h-1v1h-1v1h-1v1h-1v1h-1z" fill="rgb(106,148,120)"/>
<path d="M15 58h2v1h1v1h1v2h-1v1h-1v2h1v1h1v2h-1v1h-1v1h-2v-1h-1v-1h-1v-2h1v-1
	h1v-2h-1v-1h-1v-2h1v-1h1z" fill="rgb(130,181,145)"/>
<path d="M31 58h2v1h1v1h1v1h1v1h1v1h1v2h-1v1h-1v1h-1v1h-1v1h-1v1h-2v-1h-1v-1h-1
	v-1h-1v-1h-1v-1h-1v-2h1v-1h1v-1h1v-1h1v-1h1z" fill="rgb(142,198,160)"/>
<path d="M47 58h2v1h1v1h1v2h-1v1h-1v2h1v1h1v2h-1v1h-1v1h-2v-1h-1v-1h-1v-2h1v-1
	h1v-2h-1v-1h-1v-2h1v-1h1z" fill="rgb(130,181,145)"/>
<path d="M63 58h2v1h1v1h1v1h1v1h1v1h1v2h-1v1h-1v1h-1v1h-1v1h-1v1h-2v-1h-1v-1h-1
	v-1h-1v-1h-1v-1h-1v-2h1v-1h1v-1h1v-1h1v-1h1z" fill="rgb(142,198,160)"/>
<path d="M79 58h2v4h1v1h-1v2h1v1h1v2h-1v1h-1v1h-2v-1h-1v-1h-1v-2h1v-1h1v-2h-1
	v-1h-1v-2h1v-1h1z" fill="rgb(130,181,145)"/>
<path d="M127 58h1v4h-1v1h-4v-1h1v-1h1v-1h1v-1h1z" fill="rgb(106,148,120)"/>
<path d="M128 58h1v1h1v1h1v1h1v1h1v1h1v2h-1v1h-1v1h-1v1h-1v1h-1v1h-2v-1h-1v-1
	h-1v-1h-1v-1h-1v-1h-1v-2h5v-1h1z" fill="rgb(142,198,160)"/>
<path d="M143 58h2v1h1v1h1v2h-1v1h-1v2h1v1h1v2h-1v1h-1v1h-2v-1h-1v-1h-1v-2h1v-1
	h1v-2h-1v-1h-1v-2h1v-1h1z" fill="rgb(130,181,145)"/>
<path d="M159 58h1v12h-1v-1h-1v-1h-1v-1h-1v-1h-1v-1h-1v-2h1v-1h1v-1h1v-1h1v-1h1z" fill="rgb(142,198,160)"/>
<path d="M81 59h1v1h1v2h-2z" fill="rgb(97,136,109)"/>
<path d="M10 60h2v2h-1v1h-1v2h1v1h1v2h-2v-1h-1v-1h-1v-4h1v-1h1z" fill="rgb(180,213,174)"/>
<path d="M83 60h42v1h-42z" fill="rgb(73,73,73)"/>
<path d="M12 61h1v1h1v1h1v2h-1v1h-1v1h-1v-1h-1v-1h-1v-2h1v-1h1z" fill="rgb(142,198,160)"/>
<path d="M19 61h1v1h1v1h1v2h-1v1h-1v1h-1v-1h-1v-1h-1v-2h1v-1h1z" fill="rgb(142,198,160)"/>
<path d="M44 61h1v1h1v1h1v2h-1v1h-1v1h-1v-1h-1v-1h-1v-2h1v-1h1z" fill="rgb(142,198,160)"/>
<path d="M51 61h1v1h1v1h1v2h-1v1h-1v1h-1v-1h-1v-1h-1v-2h1v-1h1z" fill="rgb(142,198,160)"/>
<path d="M76 61h1v1h1v1h1v2h-1v1h-1v1h-1v-1h-1v-1h-1v-2h1v-1h1z" fill="rgb(142,198,160)"/>
<path d="M83 61h1v1h1v1h-3v-1h1z" fill="rgb(106,148,120)"/>
<path d="M84 61h3v1h2v-1h3v1h-1v1h-6v-1h-1z" fill="rgb(135,160,130)"/>
<path d="M87 61h2v1h-2z" fill="rgb(97,135,157)"/>
<path d="M92 61h8v1h1v1h-10v-1h1z" fill="rgb(106,148,120)"/>
<path d="M100 61h3v1h2v-1h3v1h-1v1h-6v-1h-1z" fill="rgb(135,160,130)"/>
<path d="M103 61h2v1h-2z" fill="rgb(97,135,157)"/>
<path d="M108 61h1v1h1v1h-3v-1h1z" fill="rgb(106,148,120)"/>
<path d="M109 61h6v1h-1v1h-4v-1h-1z" fill="rgb(97,136,109)"/>
<path d="M115 61h1v1h1v1h-3v-1h1z" fill="rgb(106,148,120)"/>
<path d="M116 61h3v1h2v-1h3v1h-1v1h-6v-1h-1z" fill="rgb(135,160,130)"/>
<path d="M119 61h2v1h-2z" fill="rgb(97,135,157)"/>
<path d="M140 61h1v1h1v1h1v2h-1v1h-1v1h-1v-1h-1v-1h-1v-2h1v-1h1z" fill="rgb(142,198,160)"/>
<path d="M147 61h1v1h1v1h1v2h-1v1h-1v1h-1v-1h-1v-1h-1v-2h1v-1h1z" fill="rgb(142,198,160)"/>
<path d="M81 63h5v2h-1v1h-1v1h-1v-1h-1v-1h-1z" fill="rgb(142,198,160)"/>
<path d="M86 63h4v2h1v1h1v1h1v1h1v1h1v1h2v-1h1v-1h1v-1h1v-1h1v-1h1v-2h4v2h1v1h1
	v2h-2v-1h-1v-1h-2v1h-1v1h-1v1h-1v1h-1v1h-1v2h1v1h1v2h-2v-1h-1v-1h-2v1h-1v1h-2
	v-2h1v-1h1v-2h-1v-1h-1v-1h-1v-1h-1v-1h-1v-1h-2v1h-1v1h-2v-2h1v-1h1z" fill="rgb(180,213,174)"/>
<path d="M90 63h12v2h-1v1h-1v1h-1v1h-1v1h-1v1h-2v-1h-1v-1h-1v-1h-1v-1h-1v-1h-1z" fill="rgb(142,198,160)"/>
<path d="M106 63h5v2h-1v1h-1v1h-1v-1h-1v-1h-1z" fill="rgb(142,198,160)"/>
<path d="M111 63h2v2h1v1h1v2h-1v1h-1v1h-2v-1h-1v-1h-1v-2h1v-1h1z" fill="rgb(130,181,145)"/>
<path d="M113 63h5v2h-1v1h-1v1h-1v-1h-1v-1h-1z" fill="rgb(142,198,160)"/>
<path d="M7 66h1v6h-1v1h-1v1h-1v-1h-1v-1h-1v-2h1v-1h1v-1h1v-1h1z" fill="rgb(97,135,157)"/>
<path d="M8 66h1v1h1v1h1v1h-1v1h-1v1h-1z" fill="rgb(130,180,209)"/>
<path d="M23 66h2v1h1v1h1v1h1v1h1v2h-1v1h-1v1h-1v-1h-1v-1h-1v-1h-1v-1h-1v-1h-1
	v-1h1v-1h1z" fill="rgb(130,180,209)"/>
<path d="M39 66h2v1h1v1h1v1h-1v1h-1v1h-1v1h-1v1h-1v1h-1v-1h-1v-1h-1v-2h1v-1h1
	v-1h1v-1h1z" fill="rgb(130,180,209)"/>
<path d="M55 66h2v1h1v1h1v1h1v1h1v2h-1v1h-1v1h-1v-1h-1v-1h-1v-1h-1v-1h-1v-1h-1
	v-1h1v-1h1z" fill="rgb(130,180,209)"/>
<path d="M71 66h2v1h1v1h1v1h-1v1h-1v1h-1v1h-1v1h-1v1h-1v-1h-1v-1h-1v-2h1v-1h1
	v-1h1v-1h1z" fill="rgb(130,180,209)"/>
<path d="M87 66h2v1h1v1h1v1h1v1h1v2h-1v1h-1v1h-1v-1h-1v-1h-1v-1h-1v-1h-1v-1h-1
	v-1h1v-1h1z" fill="rgb(130,180,209)"/>
<path d="M103 66h2v1h1v1h1v1h-1v1h-1v1h-1v1h-1v1h-1v1h-1v-1h-1v-1h-1v-2h1v-1h1
	v-1h1v-1h1z" fill="rgb(130,180,209)"/>
<path d="M119 66h2v1h1v1h1v1h1v1h1v2h-1v1h-1v1h-1v-1h-1v-1h-1v-1h-1v-1h-1v-1h-1
	v-1h1v-1h1z" fill="rgb(130,180,209)"/>
<path d="M135 66h2v1h1v1h1v1h-1v1h-1v1h-1v1h-1v1h-1v1h-1v-1h-1v-1h-1v-2h1v-1h1
	v-1h1v-1h1z" fill="rgb(130,180,209)"/>
<path d="M151 66h2v1h1v1h1v1h1v1h1v2h-1v1h-1v1h-1v-1h-1v-1h-1v-1h-1v-1h-1v-1h-1
	v-1h1v-1h1z" fill="rgb(130,180,209)"/>
<path d="M12 67h1v1h1v1h1v1h2v-1h1v-1h1v-1h1v1h1v1h-1v1h-1v1h-1v2h1v1h1v1h1v1h1
	v1h1v1h2v-1h1v-1h1v-1h1v1h1v1h-1v1h-1v1h-1v2h1v1h1v1h1v1h-1v1h-1v-1h-1v-1h-1
	v-1h-2v1h-1v1h-1v1h-1v1h-1v1h-1v2h1v1h1v1h1v1h-1v1h-1v-1h-1v-1h-1v-1h-2v1h-1v1
	h-1v1h-1v-1h-1v-1h1v-1h1v-1h1v-2h-1v-1h-1v-1h-1v-1h-1v-1h-1v-1h-1v-4h1v-1h1v-1h1
	v-1h1v-1h1v-1h1v-2h-1v-1h-1v-1h-1v-1h1z" fill="rgb(164,194,161)"/>
<path d="M44 67h1v1h1v1h1v1h2v-1h1v-1h1v-1h1v1h1v1h-1v1h-1v1h-1v2h1v1h1v1h1v1h1
	v1h1v1h2v-1h1v-1h1v-1h1v1h1v1h-1v1h-1v1h-1v2h1v1h1v1h1v1h-1v1h-1v-1h-1v-1h-1
	v-1h-2v1h-1v1h-1v1h-1v1h-1v1h-1v2h1v1h1v1h1v1h-1v1h-1v-1h-1v-1h-1v-1h-2v1h-1v1
	h-1v1h-1v-1h-1v-1h1v-1h1v-1h1v-2h-1v-1h-1v-1h-1v-1h-1v-1h-1v-1h-2v1h-1v1h-1v1h-1
	v-1h-1v-1h1v-1h1v-1h1v-2h-1v-1h-1v-1h-1v-1h1v-1h1v1h1v1h1v1h2v-1h1v-1h1v-1h1
	v-1h1v-1h1v-2h-1v-1h-1v-1h-1v-1h1z" fill="rgb(164,194,161)"/>
<path d="M76 67h1v1h1v1h1v1h2v-1h1v-1h1v-1h1v1h1v1h-1v1h-1v1h-1v2h1v1h1v1h1v1h1
	v1h1v1h2v-1h1v-1h1v-1h1v1h1v1h-1v1h-1v1h-1v2h1v1h1v1h1v1h-1v1h-1v-1h-1v-1h-1
	v-1h-2v1h-1v1h-1v1h-1v1h-1v1h-1v2h1v1h1v1h1v1h-1v1h-1v-1h-1v-1h-1v-1h-2v1h-1v1
	h-1v1h-1v-1h-1v-1h1v-1h1v-1h1v-2h-1v-1h-1v-1h-1v-1h-1v-1h-1v-1h-2v1h-1v1h-1v1h-1
	v-1h-1v-1h1v-1h1v-1h1v-2h-1v-1h-1v-1h-1v-1h1v-1h1v1h1v1h1v1h2v-1h1v-1h1v-1h1
	v-1h1v-1h1v-2h-1v-1h-1v-1h-1v-1h1z" fill="rgb(164,194,161)"/>
<path d="M108 67h1v1h1v1h1v1h2v-1h1v-1h1v-1h1v1h1v1h-1v1h-1v1h-1v2h1v1h1v1h1v1
	h1v1h1v1h2v-1h1v-1h1v-1h1v1h1v1h-1v1h-1v1h-1v2h1v1h1v1h1v1h-1v1h-1v-1h-1v-1h-1
	v-1h-2v1h-1v1h-1v1h-1v1h-1v1h-1v2h1v1h1v1h1v1h-1v1h-1v-1h-1v-1h-1v-1h-2v1h-1v1
	h-1v1h-1v-1h-1v-1h1v-1h1v-1h1v-2h-1v-1h-1v-1h-1v-1h-1v-1h-1v-1h-2v1h-1v1h-1v1
	h-1v-1h-1v-1h1v-1h1v-1h1v-2h-1v-1h-1v-1h-1v-1h1v-1h1v1h1v1h1v1h2v-1h1v-1h1v-1h1
	v-1h1v-1h1v-2h-1v-1h-1v-1h-1v-1h1z" fill="rgb(164,194,161)"/>
<path d="M140 67h1v1h1v1h1v1h2v-1h1v-1h1v-1h1v1h1v1h-1v1h-1v1h-1v2h1v1h1v1h1v1
	h1v1h1v1h2v-1h1v-1h1v-1h1v1h1v1h-1v1h-1v1h-1v2h1v1h1v1h1v1h-1v1h-1v-1h-1v-1h-1
	v-1h-2v1h-1v1h-1v1h-1v1h-1v1h-1v2h1v1h1v1h1v1h-1v1h-1v-1h-1v-1h-1v-1h-2v1h-1v1
	h-1v1h-1v-1h-1v-1h1v-1h1v-1h1v-2h-1v-1h-1v-1h-1v-1h-1v-1h-1v-1h-2v1h-1v1h-1v1
	h-1v-1h-1v-1h1v-1h1v-1h1v-2h-1v-1h-1v-1h-1v-1h1v-1h1v1h1v1h1v1h2v-1h1v-1h1v-1h1
	v-1h1v-1h1v-2h-1v-1h-1v-1h-1v-1h1z" fill="rgb(164,194,161)"/>
<path d="M10 69h2v1h1v1h1v2h-1v-1h-1v-1h-1v-1h-1z" fill="rgb(101,147,184)"/>
<path d="M20 69h2v1h-1v1h-1v1h-1v1h-1v-2h1v-1h1z" fill="rgb(101,147,184)"/>
<path d="M42 69h2v1h1v1h1v2h-1v-1h-1v-1h-1v-1h-1z" fill="rgb(101,147,184)"/>
<path d="M52 69h2v1h-1v1h-1v1h-1v1h-1v-2h1v-1h1z" fill="rgb(101,147,184)"/>
<path d="M74 69h2v1h1v1h1v2h-1v-1h-1v-1h-1v-1h-1z" fill="rgb(101,147,184)"/>
<path d="M84 69h2v1h-1v1h-1v1h-1v1h-1v-2h1v-1h1z" fill="rgb(101,147,184)"/>
<path d="M106 69h2v1h1v1h1v2h-1v-1h-1v-1h-1v-1h-1z" fill="rgb(101,147,184)"/>
<path d="M116 69h2v1h-1v1h-1v1h-1v1h-1v-2h1v-1h1z" fill="rgb(101,147,184)"/>
<path d="M138 69h2v1h1v1h1v2h-1v-1h-1v-1h-1v-1h-1z" fill="rgb(101,147,184)"/>
<path d="M148 69h2v1h-1v1h-1v1h-1v1h-1v-2h1v-1h1z" fill="rgb(101,147,184)"/>
<path d="M9 70h2v1h1v1h1v2h-1v1h-1v1h-1v1h-1v1h-1v-7h1z" fill="rgb(119,165,191)"/>
<path d="M21 70h2v1h1v1h1v1h1v1h1v2h-1v1h-1v1h-2v-1h-1v-1h-1v-1h-1v-1h-1v-2h1
	v-1h1z" fill="rgb(119,165,191)"/>
<path d="M41 70h2v1h1v1h1v2h-1v1h-1v1h-1v1h-1v1h-2v-1h-1v-1h-1v-2h1v-1h1v-1h1
	v-1h1z" fill="rgb(119,165,191)"/>
<path d="M53 70h2v1h1v1h1v1h1v1h1v2h-1v1h-1v1h-2v-1h-1v-1h-1v-1h-1v-1h-1v-2h1
	v-1h1z" fill="rgb(119,165,191)"/>
<path d="M73 70h2v1h1v1h1v2h-1v1h-1v1h-1v1h-1v1h-2v-1h-1v-1h-1v-2h1v-1h1v-1h1
	v-1h1z" fill="rgb(119,165,191)"/>
<path d="M85 70h2v1h1v1h1v1h1v1h1v2h-1v1h-1v1h-2v-1h-1v-1h-1v-1h-1v-1h-1v-2h1
	v-1h1z" fill="rgb(119,165,191)"/>
<path d="M105 70h2v1h1v1h1v2h-1v1h-1v1h-1v1h-1v1h-2v-1h-1v-1h-1v-2h1v-1h1v-1h1
	v-1h1z" fill="rgb(119,165,191)"/>
<path d="M117 70h2v1h1v1h1v1h1v1h1v2h-1v1h-1v1h-2v-1h-1v-1h-1v-1h-1v-1h-1v-2h1
	v-1h1z" fill="rgb(119,165,191)"/>
<path d="M137 70h2v1h1v1h1v2h-1v1h-1v1h-1v1h-1v1h-2v-1h-1v-1h-1v-2h1v-1h1v-1h1
	v-1h1z" fill="rgb(119,165,191)"/>
<path d="M149 70h2v1h1v1h1v1h1v1h1v2h-1v1h-1v1h-2v-1h-1v-1h-1v-1h-1v-1h-1v-2h1
	v-1h1z" fill="rgb(119,165,191)"/>
<path d="M2 71h1v1h1v1h1v2h-1v-1h-1v-1h-1z" fill="rgb(82,121,151)"/>
<path d="M29 71h1v2h-1v1h-1v1h-1v-2h1v-1h1z" fill="rgb(110,162,201)"/>
<path d="M34 71h1v1h1v1h1v2h-1v-1h-1v-1h-1z" fill="rgb(110,162,201)"/>
<path d="M61 71h1v2h-1v1h-1v1h-1v-2h1v-1h1z" fill="rgb(110,162,201)"/>
<path d="M66 71h1v1h1v1h1v2h-1v-1h-1v-1h-1z" fill="rgb(110,162,201)"/>
<path d="M93 71h1v2h-1v1h-1v1h-1v-2h1v-1h1z" fill="rgb(110,162,201)"/>
<path d="M98 71h1v1h1v1h1v2h-1v-1h-1v-1h-1z" fill="rgb(110,162,201)"/>
<path d="M125 71h1v2h-1v1h-1v1h-1v-2h1v-1h1z" fill="rgb(110,162,201)"/>
<path d="M130 71h1v1h1v1h1v2h-1v-1h-1v-1h-1z" fill="rgb(110,162,201)"/>
<path d="M157 71h1v2h-1v1h-1v1h-1v-2h1v-1h1z" fill="rgb(110,162,201)"/>
<path d="M7 72h1v6h-1v-1h-1v-1h-1v-2h1v-1h1z" fill="rgb(89,124,143)"/>
<path d="M0 74h1v1h1v1h1v1h-1v1h-1v1h-1z" fill="rgb(106,148,120)"/>
<path d="M15 74h2v1h1v1h1v1h1v1h1v1h1v2h-1v1h-1v1h-1v1h-1v1h-1v1h-2v-1h-1v-1h-1
	v-1h-1v-1h-1v-1h-1v-2h1v-1h1v-1h1v-1h1v-1h1z" fill="rgb(130,181,145)"/>
<path d="M31 74h2v1h1v1h1v1h-1v1h-1v1h-2v-1h-1v-1h-1v-1h1v-1h1z" fill="rgb(142,198,160)"/>
<path d="M47 74h2v1h1v1h1v1h1v1h1v1h1v2h-1v1h-1v1h-1v1h-1v1h-1v1h-2v-1h-1v-1h-1
	v-1h-1v-1h-1v-1h-1v-2h1v-1h1v-1h1v-1h1v-1h1z" fill="rgb(130,181,145)"/>
<path d="M63 74h2v1h1v1h1v1h-1v1h-1v1h-2v-1h-1v-1h-1v-1h1v-1h1z" fill="rgb(142,198,160)"/>
<path d="M79 74h2v1h1v1h1v1h1v1h1v1h1v2h-1v1h-1v1h-1v1h-1v1h-1v1h-2v-1h-1v-1h-1
	v-1h-1v-1h-1v-1h-1v-2h1v-1h1v-1h1v-1h1v-1h1z" fill="rgb(130,181,145)"/>
<path d="M95 74h2v1h1v1h1v1h-1v1h-1v1h-2v-1h-1v-1h-1v-1h1v-1h1z" fill="rgb(142,198,160)"/>
<path d="M111 74h2v1h1v1h1v1h1v1h1v1h1v2h-1v1h-1v1h-1v1h-1v1h-1v1h-2v-1h-1v-1
	h-1v-1h-1v-1h-1v-1h-1v-2h1v-1h1v-1h1v-1h1v-1h1z" fill="rgb(130,181,145)"/>
<path d="M127 74h2v1h1v1h1v1h-1v1h-1v1h-2v-1h-1v-1h-1v-1h1v-1h1z" fill="rgb(142,198,160)"/>
<path d="M143 74h2v1h1v1h1v1h1v1h1v1h1v2h-1v1h-1v1h-1v1h-1v1h-1v1h-2v-1h-1v-1
	h-1v-1h-1v-1h-1v-1h-1v-2h1v-1h1v-1h1v-1h1v-1h1z" fill="rgb(130,181,145)"/>
<path d="M159 74h1v5h-1v-1h-1v-1h-1v-1h1v-1h1z" fill="rgb(142,198,160)"/>
<path d="M4 75h1v1h1v1h1v1h1v4h-1v1h-1v1h-1v1h-1v-1h-1v-1h1v-1h1v-1h1v-2h-1v-1
	h-1v-1h-1v-1h1z" fill="rgb(123,145,121)"/>
<path d="M2 77h2v1h1v1h1v2h-1v1h-1v1h-2v-1h-1v-1h-1v-2h1v-1h1z" fill="rgb(97,136,109)"/>
<path d="M28 77h2v1h1v1h2v-1h1v-1h2v1h1v1h1v2h-1v1h-1v1h-2v-1h-1v-1h-2v1h-1v1
	h-2v-1h-1v-1h-1v-2h1v-1h1z" fill="rgb(130,181,145)"/>
<path d="M60 77h2v1h1v1h2v-1h1v-1h2v1h1v1h1v2h-1v1h-1v1h-2v-1h-1v-1h-2v1h-1v1
	h-2v-1h-1v-1h-1v-2h1v-1h1z" fill="rgb(130,181,145)"/>
<path d="M92 77h2v1h1v1h2v-1h1v-1h2v1h1v1h1v2h-1v1h-1v1h-2v-1h-1v-1h-2v1h-1v1
	h-2v-1h-1v-1h-1v-2h1v-1h1z" fill="rgb(130,181,145)"/>
<path d="M124 77h2v1h1v1h2v-1h1v-1h2v1h1v1h1v2h-1v1h-1v1h-2v-1h-1v-1h-2v1h-1v1
	h-2v-1h-1v-1h-1v-2h1v-1h1z" fill="rgb(130,181,145)"/>
<path d="M156 77h2v1h1v1h1v2h-1v1h-1v1h-2v-1h-1v-1h-1v-2h1v-1h1z" fill="rgb(130,181,145)"/>
<path d="M0 81h1v1h1v1h1v1h-1v1h-1v1h-1z" fill="rgb(106,148,120)"/>
<path d="M31 81h2v1h1v1h1v1h-1v1h-1v1h-2v-1h-1v-1h-1v-1h1v-1h1z" fill="rgb(142,198,160)"/>
<path d="M63 81h2v1h1v1h1v1h-1v1h-1v1h-2v-1h-1v-1h-1v-1h1v-1h1z" fill="rgb(142,198,160)"/>
<path d="M95 81h2v1h1v1h1v1h-1v1h-1v1h-2v-1h-1v-1h-1v-1h1v-1h1z" fill="rgb(142,198,160)"/>
<path d="M127 81h2v1h1v1h1v1h-1v1h-1v1h-2v-1h-1v-1h-1v-1h1v-1h1z" fill="rgb(142,198,160)"/>
<path d="M159 81h1v5h-1v-1h-1v-1h-1v-1h1v-1h1z" fill="rgb(142,198,160)"/>
<path d="M7 82h1v2h-1v1h-1v1h-1v-2h1v-1h1z" fill="rgb(76,110,138)"/>
<path d="M8 82h1v1h1v1h1v1h1v1h1v1h1v2h-1v-1h-1v-1h-1v-1h-1v-1h-1v-1h-1z" fill="rgb(101,147,184)"/>
<path d="M23 82h2v1h1v1h1v2h-1v-1h-1v-1h-2v1h-1v1h-1v1h-1v1h-1v1h-1v-2h1v-1h1
	v-1h1v-1h1v-1h1z" fill="rgb(101,147,184)"/>
<path d="M39 82h2v1h1v1h1v1h1v1h1v1h1v2h-1v-1h-1v-1h-1v-1h-1v-1h-1v-1h-2v1h-1v1
	h-1v-2h1v-1h1z" fill="rgb(101,147,184)"/>
<path d="M55 82h2v1h1v1h1v2h-1v-1h-1v-1h-2v1h-1v1h-1v1h-1v1h-1v1h-1v-2h1v-1h1
	v-1h1v-1h1v-1h1z" fill="rgb(101,147,184)"/>
<path d="M71 82h2v1h1v1h1v1h1v1h1v1h1v2h-1v-1h-1v-1h-1v-1h-1v-1h-1v-1h-2v1h-1v1
	h-1v-2h1v-1h1z" fill="rgb(101,147,184)"/>
<path d="M87 82h2v1h1v1h1v2h-1v-1h-1v-1h-2v1h-1v1h-1v1h-1v1h-1v1h-1v-2h1v-1h1
	v-1h1v-1h1v-1h1z" fill="rgb(101,147,184)"/>
<path d="M103 82h2v1h1v1h1v1h1v1h1v1h1v2h-1v-1h-1v-1h-1v-1h-1v-1h-1v-1h-2v1h-1
	v1h-1v-2h1v-1h1z" fill="rgb(101,147,184)"/>
<path d="M119 82h2v1h1v1h1v2h-1v-1h-1v-1h-2v1h-1v1h-1v1h-1v1h-1v1h-1v-2h1v-1h1
	v-1h1v-1h1v-1h1z" fill="rgb(101,147,184)"/>
<path d="M135 82h2v1h1v1h1v1h1v1h1v1h1v2h-1v-1h-1v-1h-1v-1h-1v-1h-1v-1h-2v1h-1
	v1h-1v-2h1v-1h1z" fill="rgb(101,147,184)"/>
<path d="M151 82h2v1h1v1h1v2h-1v-1h-1v-1h-2v1h-1v1h-1v1h-1v1h-1v1h-1v-2h1v-1h1
	v-1h1v-1h1v-1h1z" fill="rgb(101,147,184)"/>
<path d="M2 84h2v2h-1v1h-1v2h1v1h1v1h1v1h1v1h1v1h1v4h-1v1h-1v1h-1v1h-1v1h-1v1
	h-1v2h1v1h1v2h-2v-1h-1v-1h-1v-4h1v-1h1v-1h1v-1h1v-1h1v-1h1v-2h-1v-1h-1v-1h-1v-1
	h-1v-1h-1v-1h-1v-4h1v-1h1z" fill="rgb(135,160,130)"/>
<path d="M7 84h1v4h-1v-1h-1v-2h1z" fill="rgb(89,124,143)"/>
<path d="M8 84h1v1h1v1h1v1h1v1h1v2h-1v1h-2v-1h-1v-1h-1z" fill="rgb(119,165,191)"/>
<path d="M23 84h2v1h1v2h-1v1h-1v1h-1v1h-1v1h-2v-1h-1v-2h1v-1h1v-1h1v-1h1z" fill="rgb(119,165,191)"/>
<path d="M28 84h2v1h1v1h2v-1h1v-1h2v2h-1v1h-1v2h1v1h1v1h1v1h1v1h1v1h2v-1h1v-1h2
	v2h-1v1h-1v2h1v1h1v2h-2v-1h-1v-1h-2v1h-1v1h-1v1h-1v1h-1v1h-1v2h1v1h-1v1h-1v-1
	h-2v1h-1v1h-2v-2h1v-1h1v-2h-1v-1h-1v-1h-1v-1h-1v-1h-1v-1h-2v1h-1v1h-2v-2h1v-1h1
	v-2h-1v-1h-1v-2h2v1h1v1h2v-1h1v-1h1v-1h1v-1h1v-1h1v-2h-1v-1h-1z" fill="rgb(180,213,174)"/>
<path d="M39 84h2v1h1v1h1v1h1v1h1v2h-1v1h-2v-1h-1v-1h-1v-1h-1v-1h-1v-2h1z" fill="rgb(119,165,191)"/>
<path d="M55 84h2v1h1v2h-1v1h-1v1h-1v1h-1v1h-2v-1h-1v-2h1v-1h1v-1h1v-1h1z" fill="rgb(119,165,191)"/>
<path d="M60 84h2v1h1v1h2v-1h1v-1h2v2h-1v1h-1v2h1v1h1v1h1v1h1v1h1v1h2v-1h1v-1h2
	v2h-1v1h-1v2h1v1h1v2h-2v-1h-1v-1h-2v1h-1v1h-1v1h-1v1h-1v1h-1v2h1v1h1v2h-2v-1
	h-1v-1h-2v1h-1v-1h-1v-1h1v-2h-1v-1h-1v-1h-1v-1h-1v-1h-1v-1h-2v1h-1v1h-2v-2h1v-1
	h1v-2h-1v-1h-1v-2h2v1h1v1h2v-1h1v-1h1v-1h1v-1h1v-1h1v-2h-1v-1h-1z" fill="rgb(180,213,174)"/>
<path d="M71 84h2v1h1v1h1v1h1v1h1v2h-1v1h-2v-1h-1v-1h-1v-1h-1v-1h-1v-2h1z" fill="rgb(119,165,191)"/>
<path d="M87 84h2v1h1v2h-1v1h-1v1h-1v1h-1v1h-2v-1h-1v-2h1v-1h1v-1h1v-1h1z" fill="rgb(119,165,191)"/>
<path d="M92 84h2v1h1v1h2v-1h1v-1h2v2h-1v1h-1v2h1v1h1v1h1v1h1v1h1v1h2v-1h1v-1h2
	v2h-1v1h-1v2h1v1h1v2h-2v-1h-1v-1h-2v1h-1v1h-1v1h-1v1h-1v1h-1v2h1v1h1v2h-2v-1
	h-1v-1h-2v1h-1v1h-2v-2h1v-1h1v-2h-1v-1h-1v-1h-1v-1h-1v-1h-1v-1h-2v1h-1v1h-2v-2h1
	v-1h1v-2h-1v-1h-1v-2h2v1h1v1h2v-1h1v-1h1v-1h1v-1h1v-1h1v-2h-1v-1h-1z" fill="rgb(180,213,174)"/>
<path d="M103 84h2v1h1v1h1v1h1v1h1v2h-1v1h-2v-1h-1v-1h-1v-1h-1v-1h-1v-2h1z" fill="rgb(119,165,191)"/>
<path d="M119 84h2v1h1v2h-1v1h-1v1h-1v1h-1v1h-2v-1h-1v-2h1v-1h1v-1h1v-1h1z" fill="rgb(119,165,191)"/>
<path d="M124 84h2v1h1v1h2v-1h1v-1h2v2h-1v1h-1v2h1v1h1v1h1v1h1v1h1v1h2v-1h1v-1
	h2v2h-1v1h-1v2h1v1h1v2h-2v-1h-1v-1h-2v1h-1v1h-1v1h-1v1h-1v1h-1v2h1v1h1v2h-2v-1
	h-1v-1h-2v1h-1v1h-2v-2h1v-1h1v-2h-1v-1h-1v-1h-1v-1h-1v-1h-1v-1h-2v1h-1v1h-2v-2
	h1v-1h1v-2h-1v-1h-1v-2h2v1h1v1h2v-1h1v-1h1v-1h1v-1h1v-1h1v-2h-1v-1h-1z" fill="rgb(180,213,174)"/>
<path d="M135 84h2v1h1v1h1v1h1v1h1v2h-1v1h-2v-1h-1v-1h-1v-1h-1v-1h-1v-2h1z" fill="rgb(119,165,191)"/>
<path d="M151 84h2v1h1v2h-1v1h-1v1h-1v1h-1v1h-2v-1h-1v-2h1v-1h1v-1h1v-1h1z" fill="rgb(119,165,191)"/>
<path d="M156 84h2v1h1v1h1v4h-1v1h-1v1h-1v1h-1v1h-1v1h-1v2h1v1h1v1h1v1h1v1h1v1
	h1v4h-1v1h-1v1h-2v-2h1v-1h1v-2h-1v-1h-1v-1h-1v-1h-1v-1h-1v-1h-2v1h-1v1h-2v-2h1
	v-1h1v-2h-1v-1h-1v-2h2v1h1v1h2v-1h1v-1h1v-1h1v-1h1v-1h1v-2h-1v-1h-1z" fill="rgb(180,213,174)"/>
<path d="M4 85h1v2h-1v1h-1v1h-1v-2h1v-1h1z" fill="rgb(82,121,151)"/>
<path d="M27 85h1v1h1v1h1v2h-1v-1h-1v-1h-1z" fill="rgb(110,162,201)"/>
<path d="M36 85h1v2h-1v1h-1v1h-1v-2h1v-1h1z" fill="rgb(110,162,201)"/>
<path d="M59 85h1v1h1v1h1v2h-1v-1h-1v-1h-1z" fill="rgb(110,162,201)"/>
<path d="M68 85h1v2h-1v1h-1v1h-1v-2h1v-1h1z" fill="rgb(110,162,201)"/>
<path d="M91 85h1v1h1v1h1v2h-1v-1h-1v-1h-1z" fill="rgb(110,162,201)"/>
<path d="M100 85h1v2h-1v1h-1v1h-1v-2h1v-1h1z" fill="rgb(110,162,201)"/>
<path d="M123 85h1v1h1v1h1v2h-1v-1h-1v-1h-1z" fill="rgb(110,162,201)"/>
<path d="M132 85h1v2h-1v1h-1v1h-1v-2h1v-1h1z" fill="rgb(110,162,201)"/>
<path d="M155 85h1v1h1v1h1v2h-1v-1h-1v-1h-1z" fill="rgb(110,162,201)"/>
<path d="M5 86h1v1h1v1h1v6h-1v-1h-1v-1h-1v-1h-1v-1h-1v-2h1v-1h1z" fill="rgb(97,135,157)"/>
<path d="M26 86h1v1h1v1h1v2h-1v1h-1v1h-1v1h-1v1h-2v-1h-1v-1h-1v-1h1v-1h1v-1h1
	v-1h1v-1h1z" fill="rgb(130,180,209)"/>
<path d="M37 86h1v1h1v1h1v1h1v1h1v1h1v1h-1v1h-1v1h-2v-1h-1v-1h-1v-1h-1v-1h-1v-2
	h1v-1h1z" fill="rgb(130,180,209)"/>
<path d="M58 86h1v1h1v1h1v2h-1v1h-1v1h-1v1h-1v1h-2v-1h-1v-1h-1v-1h1v-1h1v-1h1
	v-1h1v-1h1z" fill="rgb(130,180,209)"/>
<path d="M69 86h1v1h1v1h1v1h1v1h1v1h1v1h-1v1h-1v1h-2v-1h-1v-1h-1v-1h-1v-1h-1v-2
	h1v-1h1z" fill="rgb(130,180,209)"/>
<path d="M90 86h1v1h1v1h1v2h-1v1h-1v1h-1v1h-1v1h-2v-1h-1v-1h-1v-1h1v-1h1v-1h1
	v-1h1v-1h1z" fill="rgb(130,180,209)"/>
<path d="M101 86h1v1h1v1h1v1h1v1h1v1h1v1h-1v1h-1v1h-2v-1h-1v-1h-1v-1h-1v-1h-1
	v-2h1v-1h1z" fill="rgb(130,180,209)"/>
<path d="M122 86h1v1h1v1h1v2h-1v1h-1v1h-1v1h-1v1h-2v-1h-1v-1h-1v-1h1v-1h1v-1h1
	v-1h1v-1h1z" fill="rgb(130,180,209)"/>
<path d="M133 86h1v1h1v1h1v1h1v1h1v1h1v1h-1v1h-1v1h-2v-1h-1v-1h-1v-1h-1v-1h-1
	v-2h1v-1h1z" fill="rgb(130,180,209)"/>
<path d="M154 86h1v1h1v1h1v2h-1v1h-1v1h-1v1h-1v1h-2v-1h-1v-1h-1v-1h1v-1h1v-1h1
	v-1h1v-1h1z" fill="rgb(130,180,209)"/>
<path d="M8 89h1v1h1v1h1v1h-1v1h-1v1h-1z" fill="rgb(130,180,209)"/>
<path d="M0 90h1v1h1v1h1v1h1v1h1v1h1v2h-1v1h-1v1h-1v1h-1v1h-1v1h-1z" fill="rgb(106,148,120)"/>
<path d="M15 90h2v1h1v1h1v2h-1v1h-1v2h1v1h1v2h-1v1h-1v1h-2v-1h-1v-1h-1v-2h1v-1
	h1v-2h-1v-1h-1v-2h1v-1h1z" fill="rgb(130,181,145)"/>
<path d="M31 90h2v1h1v1h1v1h1v1h1v1h1v2h-1v1h-1v1h-1v1h-1v1h-1v1h-2v-1h-1v-1h-1
	v-1h-1v-1h-1v-1h-1v-2h1v-1h1v-1h1v-1h1v-1h1z" fill="rgb(142,198,160)"/>
<path d="M47 90h2v1h1v1h1v2h-1v1h-1v2h1v1h1v2h-1v1h-1v1h-2v-1h-1v-1h-1v-2h1v-1
	h1v-2h-1v-1h-1v-2h1v-1h1z" fill="rgb(130,181,145)"/>
<path d="M63 90h2v1h1v1h1v1h1v1h1v1h1v2h-1v1h-1v1h-1v1h-1v1h-1v1h-2v-1h-1v-1h-1
	v-1h-1v-1h-1v-1h-1v-2h1v-1h1v-1h1v-1h1v-1h1z" fill="rgb(142,198,160)"/>
<path d="M79 90h2v1h1v1h1v2h-1v1h-1v2h1v1h1v2h-1v1h-1v1h-2v-1h-1v-1h-1v-2h1v-1
	h1v-2h-1v-1h-1v-2h1v-1h1z" fill="rgb(130,181,145)"/>
<path d="M95 90h2v1h1v1h1v1h1v1h1v1h1v2h-1v1h-1v1h-1v1h-1v1h-1v1h-2v-1h-1v-1h-1
	v-1h-1v-1h-1v-1h-1v-2h1v-1h1v-1h1v-1h1v-1h1z" fill="rgb(142,198,160)"/>
<path d="M111 90h2v1h1v1h1v2h-1v1h-1v2h1v1h1v2h-1v1h-1v1h-2v-1h-1v-1h-1v-2h1v-1
	h1v-2h-1v-1h-1v-2h1v-1h1z" fill="rgb(130,181,145)"/>
<path d="M127 90h2v1h1v1h1v1h1v1h1v1h1v2h-1v1h-1v1h-1v1h-1v1h-1v1h-2v-1h-1v-1
	h-1v-1h-1v-1h-1v-1h-1v-2h1v-1h1v-1h1v-1h1v-1h1z" fill="rgb(142,198,160)"/>
<path d="M143 90h2v1h1v1h1v2h-1v1h-1v2h1v1h1v2h-1v1h-1v1h-2v-1h-1v-1h-1v-2h1v-1
	h1v-2h-1v-1h-1v-2h1v-1h1z" fill="rgb(130,181,145)"/>
<path d="M159 90h1v12h-1v-1h-1v-1h-1v-1h-1v-1h-1v-1h-1v-2h1v-1h1v-1h1v-1h1v-1h1z" fill="rgb(142,198,160)"/>
<path d="M10 92h2v2h-1v1h-1v2h1v1h1v2h-2v-1h-1v-1h-1v-4h1v-1h1z" fill="rgb(180,213,174)"/>
<path d="M12 93h1v1h1v1h1v2h-1v1h-1v1h-1v-1h-1v-1h-1v-2h1v-1h1z" fill="rgb(142,198,160)"/>
<path d="M19 93h1v1h1v1h1v2h-1v1h-1v1h-1v-1h-1v-1h-1v-2h1v-1h1z" fill="rgb(142,198,160)"/>
<path d="M44 93h1v1h1v1h1v2h-1v1h-1v1h-1v-1h-1v-1h-1v-2h1v-1h1z" fill="rgb(142,198,160)"/>
<path d="M51 93h1v1h1v1h1v2h-1v1h-1v1h-1v-1h-1v-1h-1v-2h1v-1h1z" fill="rgb(142,198,160)"/>
<path d="M76 93h1v1h1v1h1v2h-1v1h-1v1h-1v-1h-1v-1h-1v-2h1v-1h1z" fill="rgb(142,198,160)"/>
<path d="M83 93h1v1h1v1h1v2h-1v1h-1v1h-1v-1h-1v-1h-1v-2h1v-1h1z" fill="rgb(142,198,160)"/>
<path d="M108 93h1v1h1v1h1v2h-1v1h-1v1h-1v-1h-1v-1h-1v-2h1v-1h1z" fill="rgb(142,198,160)"/>
<path d="M115 93h1v1h1v1h1v2h-1v1h-1v1h-1v-1h-1v-1h-1v-2h1v-1h1z" fill="rgb(142,198,160)"/>
<path d="M140 93h1v1h1v1h1v2h-1v1h-1v1h-1v-1h-1v-1h-1v-2h1v-1h1z" fill="rgb(142,198,160)"/>
<path d="M147 93h1v1h1v1h1v2h-1v1h-1v1h-1v-1h-1v-1h-1v-2h1v-1h1z" fill="rgb(142,198,160)"/>
<path d="M7 98h1v6h-1v1h-1v1h-1v-1h-1v-1h-1v-2h1v-1h1v-1h1v-1h1z" fill="rgb(97,135,157)"/>
<path d="M8 98h1v1h1v1h1v1h-1v1h-1v1h-1z" fill="rgb(130,180,209)"/>
<path d="M23 98h2v1h1v1h1v1h1v1h1v2h-1v1h-1v1h-1v-1h-1v-1h-1v-1h-1v-1h-1v-1h-1
	v-1h1v-1h1z" fill="rgb(130,180,209)"/>
<path d="M39 98h2v1h1v1h1v1h-1v1h-1v1h-2v1h-2v1h-1v-1h-1v-2h1v-1h1v-1h1v-1h1z" fill="rgb(130,180,209)"/>
<path d="M55 98h2v1h1v1h1v1h1v1h1v2h-1v1h-1v-1h-2v-1h-2v-1h-1v-1h-1v-1h1v-1h1z" fill="rgb(130,180,209)"/>
<path d="M71 98h2v1h1v1h1v1h-1v1h-1v1h-1v1h-1v1h-1v1h-1v-1h-1v-1h-1v-2h1v-1h1
	v-1h1v-1h1z" fill="rgb(130,180,209)"/>
<path d="M87 98h2v1h1v1h1v1h1v1h1v2h-1v1h-1v1h-1v-1h-1v-1h-1v-1h-1v-1h-1v-1h-1
	v-1h1v-1h1z" fill="rgb(130,180,209)"/>
<path d="M103 98h2v1h1v1h1v1h-1v1h-1v1h-1v1h-1v1h-1v1h-1v-1h-1v-1h-1v-2h1v-1h1
	v-1h1v-1h1z" fill="rgb(130,180,209)"/>
<path d="M119 98h2v1h1v1h1v1h1v1h1v2h-1v1h-1v1h-1v-1h-1v-1h-1v-1h-1v-1h-1v-1h-1
	v-1h1v-1h1z" fill="rgb(130,180,209)"/>
<path d="M135 98h2v1h1v1h1v1h-1v1h-1v1h-1v1h-1v1h-1v1h-1v-1h-1v-1h-1v-2h1v-1h1
	v-1h1v-1h1z" fill="rgb(130,180,209)"/>
<path d="M151 98h2v1h1v1h1v1h1v1h1v2h-1v1h-1v1h-1v-1h-1v-1h-1v-1h-1v-1h-1v-1h-1
	v-1h1v-1h1z" fill="rgb(130,180,209)"/>
<path d="M12 99h1v1h1v1h1v1h2v-1h1v-1h1v-1h1v1h1v1h-1v1h-1v1h-1v2h1v1h1v1h1v1h1
	v1h1v1h2v-1h1v-1h1v-1h1v1h1v1h-1v1h-1v1h-1v1h-4v-1h-1v-1h-1v-1h-1v-1h-1v-1h-1
	v-1h-2v1h-1v1h-1v1h-1v1h-1v1h-1v1h-2v-2h1v-1h1v-1h1v-1h1v-1h1v-1h1v-2h-1v-1h-1
	v-1h-1v-1h1z" fill="rgb(164,194,161)"/>
<path d="M44 99h1v1h1v1h1v1h2v-1h1v-1h1v-1h1v1h1v1h-1v1h-1v1h-6v-1h-1v-1h-1v-1
	h1z" fill="rgb(164,194,161)"/>
<path d="M76 99h1v1h1v1h1v1h2v-1h1v-1h1v-1h1v1h1v1h-1v1h-1v1h-1v2h1v1h1v1h1v1h1
	v1h1v1h2v-1h1v-1h1v-1h1v1h1v1h-1v1h-1v1h-1v1h-4v-1h-1v-1h-1v-1h-1v-1h-1v-1h-1
	v-1h-2v1h-1v1h-1v1h-1v1h-1v1h-1v1h-4v-1h-1v-1h-1v-1h-1v-1h1v-1h1v1h1v1h1v1h2v-1
	h1v-1h1v-1h1v-1h1v-1h1v-2h-1v-1h-1v-1h-1v-1h1z" fill="rgb(164,194,161)"/>
<path d="M108 99h1v1h1v1h1v1h2v-1h1v-1h1v-1h1v1h1v1h-1v1h-1v1h-1v2h1v1h1v1h1v1
	h1v1h1v1h2v-1h1v-1h1v-1h1v1h1v1h-1v1h-1v1h-1v1h-4v-1h-1v-1h-1v-1h-1v-1h-1v-1h-1
	v-1h-2v1h-1v1h-1v1h-1v1h-1v1h-1v1h-4v-1h-1v-1h-1v-1h-1v-1h1v-1h1v1h1v1h1v1h2
	v-1h1v-1h1v-1h1v-1h1v-1h1v-2h-1v-1h-1v-1h-1v-1h1z" fill="rgb(164,194,161)"/>
<path d="M140 99h1v1h1v1h1v1h2v-1h1v-1h1v-1h1v1h1v1h-1v1h-1v1h-1v2h1v1h1v1h1v1
	h1v1h1v1h2v-1h1v-1h1v-1h1v1h1v1h-1v1h-1v1h-1v1h-4v-1h-1v-1h-1v-1h-1v-1h-1v-1h-1
	v-1h-2v1h-1v1h-1v1h-1v1h-1v1h-1v1h-4v-1h-1v-1h-1v-1h-1v-1h1v-1h1v1h1v1h1v1h2
	v-1h1v-1h1v-1h1v-1h1v-1h1v-2h-1v-1h-1v-1h-1v-1h1z" fill="rgb(164,194,161)"/>
<path d="M10 101h2v1h1v1h1v2h-1v-1h-1v-1h-1v-1h-1z" fill="rgb(101,147,184)"/>
<path d="M20 101h2v1h-1v1h-1v1h-1v1h-1v-2h1v-1h1z" fill="rgb(101,147,184)"/>
<path d="M42 101h2v1h1v1h-2v-1h-1z" fill="rgb(101,147,184)"/>
<path d="M52 101h2v1h-1v1h-2v-1h1z" fill="rgb(101,147,184)"/>
<path d="M74 101h2v1h1v1h1v2h-1v-1h-1v-1h-1v-1h-1z" fill="rgb(101,147,184)"/>
<path d="M84 101h2v1h-1v1h-1v1h-1v1h-1v-2h1v-1h1z" fill="rgb(101,147,184)"/>
<path d="M106 101h2v1h1v1h1v2h-1v-1h-1v-1h-1v-1h-1z" fill="rgb(101,147,184)"/>
<path d="M116 101h2v1h-1v1h-1v1h-1v1h-1v-2h1v-1h1z" fill="rgb(101,147,184)"/>
<path d="M138 101h2v1h1v1h1v2h-1v-1h-1v-1h-1v-1h-1z" fill="rgb(101,147,184)"/>
<path d="M148 101h2v1h-1v1h-1v1h-1v1h-1v-2h1v-1h1z" fill="rgb(101,147,184)"/>
<path d="M9 102h2v1h1v1h1v2h-1v1h-1v1h-1v1h-1v1h-1v-7h1z" fill="rgb(119,165,191)"/>
<path d="M21 102h2v1h1v1h1v1h1v1h1v2h-1v1h-1v1h-2v-1h-1v-1h-1v-1h-1v-1h-1v-2h1
	v-1h1z" fill="rgb(119,165,191)"/>
<path d="M41 102h2v1h-2z" fill="rgb(119,165,191)"/>
<path d="M53 102h2v1h-2z" fill="rgb(119,165,191)"/>
<path d="M73 102h2v1h1v1h1v2h-1v1h-1v1h-1v1h-1v1h-2v-1h-1v-1h-1v-2h1v-1h1v-1h1
	v-1h1z" fill="rgb(119,165,191)"/>
<path d="M85 102h2v1h1v1h1v1h1v1h1v2h-1v1h-1v1h-2v-1h-1v-1h-1v-1h-1v-1h-1v-2h1
	v-1h1z" fill="rgb(119,165,191)"/>
<path d="M105 102h2v1h1v1h1v2h-1v1h-1v1h-1v1h-1v1h-2v-1h-1v-1h-1v-2h1v-1h1v-1h1
	v-1h1z" fill="rgb(119,165,191)"/>
<path d="M117 102h2v1h1v1h1v1h1v1h1v2h-1v1h-1v1h-2v-1h-1v-1h-1v-1h-1v-1h-1v-2h1
	v-1h1z" fill="rgb(119,165,191)"/>
<path d="M137 102h2v1h1v1h1v2h-1v1h-1v1h-1v1h-1v1h-2v-1h-1v-1h-1v-2h1v-1h1v-1h1
	v-1h1z" fill="rgb(119,165,191)"/>
<path d="M149 102h2v1h1v1h1v1h1v1h1v2h-1v1h-1v1h-2v-1h-1v-1h-1v-1h-1v-1h-1v-2h1
	v-1h1z" fill="rgb(119,165,191)"/>
<path d="M2 103h1v1h1v1h1v2h-1v-1h-1v-1h-1z" fill="rgb(82,121,151)"/>
<path d="M29 103h1v2h-1v1h-1v1h-1v-2h1v-1h1z" fill="rgb(110,162,201)"/>
<path d="M34 103h1v1h1v1h-2z" fill="rgb(110,162,201)"/>
<path d="M39 103h1v1h-1z" fill="rgb(104,144,167)"/>
<path d="M40 103h4v1h1v2h-7v-1h1v-1h1z" fill="rgb(95,132,153)"/>
<path d="M44 103h2v2h-1v-1h-1z" fill="rgb(81,118,147)"/>
<path d="M46 103h4v2h1v1h-6v-1h1z" fill="rgb(131,155,129)"/>
<path d="M50 103h2v1h-1v1h-1z" fill="rgb(81,118,147)"/>
<path d="M52 103h4v1h1v1h1v1h-7v-2h1z" fill="rgb(95,132,153)"/>
<path d="M56 103h1v1h-1z" fill="rgb(104,144,167)"/>
<path d="M61 103h1v2h-2v-1h1z" fill="rgb(110,162,201)"/>
<path d="M66 103h1v1h1v1h1v2h-1v-1h-1v-1h-1z" fill="rgb(110,162,201)"/>
<path d="M93 103h1v2h-1v1h-1v1h-1v-2h1v-1h1z" fill="rgb(110,162,201)"/>
<path d="M98 103h1v1h1v1h1v2h-1v-1h-1v-1h-1z" fill="rgb(110,162,201)"/>
<path d="M125 103h1v2h-1v1h-1v1h-1v-2h1v-1h1z" fill="rgb(110,162,201)"/>
<path d="M130 103h1v1h1v1h1v2h-1v-1h-1v-1h-1z" fill="rgb(110,162,201)"/>
<path d="M157 103h1v2h-1v1h-1v1h-1v-2h1v-1h1z" fill="rgb(110,162,201)"/>
<path d="M7 104h1v6h-1v-1h-1v-1h-1v-2h1v-1h1z" fill="rgb(89,124,143)"/>
<path d="M37 104h2v1h-1v1h-1z" fill="rgb(104,144,167)"/>
<path d="M57 104h2v2h-1v-1h-1z" fill="rgb(104,144,167)"/>
<path d="M35 105h2v1h-2z" fill="rgb(88,130,161)"/>
<path d="M59 105h2v1h-2z" fill="rgb(88,130,161)"/>
<path d="M0 106h1v1h1v1h1v1h-1v1h-1v1h-1z" fill="rgb(106,148,120)"/>
<path d="M15 106h2v1h1v1h1v1h1v1h1v1h1v1h-12v-1h1v-1h1v-1h1v-1h1v-1h1z" fill="rgb(130,181,145)"/>
<path d="M31 106h2v3h-1v2h-1v-1h-1v-1h-1v-1h1v-1h1z" fill="rgb(142,198,160)"/>
<path d="M34 106h2v2h-2z" fill="rgb(108,128,104)"/>
<path d="M36 106h1v1h-1z" fill="rgb(66,97,121)"/>
<path d="M37 106h7v1h-1v1h-6z" fill="rgb(71,99,115)"/>
<path d="M44 106h3v1h-1v1h-3v-1h1z" fill="rgb(98,116,97)"/>
<path d="M47 106h2v1h1v1h-4v-1h1z" fill="rgb(78,109,87)"/>
<path d="M49 106h3v1h1v1h-3v-1h-1z" fill="rgb(98,116,97)"/>
<path d="M52 106h7v2h-6v-1h-1z" fill="rgb(71,99,115)"/>
<path d="M59 106h1v1h-1z" fill="rgb(66,97,121)"/>
<path d="M60 106h2v2h-2z" fill="rgb(108,128,104)"/>
<path d="M63 106h2v1h1v1h1v1h-1v1h-1v1h-1v-2h-1z" fill="rgb(142,198,160)"/>
<path d="M79 106h2v1h1v1h1v1h1v1h1v1h1v1h-12v-1h1v-1h1v-1h1v-1h1v-1h1z" fill="rgb(130,181,145)"/>
<path d="M95 106h2v1h1v1h1v1h-1v1h-1v1h-2v-1h-1v-1h-1v-1h1v-1h1z" fill="rgb(142,198,160)"/>
<path d="M111 106h2v1h1v1h1v1h1v1h1v1h1v1h-12v-1h1v-1h1v-1h1v-1h1v-1h1z" fill="rgb(130,181,145)"/>
<path d="M127 106h2v1h1v1h1v1h-1v1h-1v1h-2v-1h-1v-1h-1v-1h1v-1h1z" fill="rgb(142,198,160)"/>
<path d="M143 106h2v1h1v1h1v1h1v1h1v1h1v1h-12v-1h1v-1h1v-1h1v-1h1v-1h1z" fill="rgb(130,181,145)"/>
<path d="M159 106h1v5h-1v-1h-1v-1h-1v-1h1v-1h1z" fill="rgb(142,198,160)"/>
<path d="M4 107h1v1h1v1h1v1h1v2h-2v-1h-1v-1h-1v-1h-1v-1h1z" fill="rgb(123,145,121)"/>
<path d="M33 107h1v1h-1z" fill="rgb(85,119,96)"/>
<path d="M36 107h1v1h-1z" fill="rgb(98,116,97)"/>
<path d="M59 107h1v1h-1z" fill="rgb(98,116,97)"/>
<path d="M62 107h1v1h-1z" fill="rgb(85,119,96)"/>
<path d="M33 108h2v1h-1v1h-2v-1h1z" fill="rgb(71,99,80)"/>
<path d="M35 108h3v1h1v1h-3v-1h-1z" fill="rgb(82,97,80)"/>
<path d="M38 108h4v1h-1v1h-2v-1h-1z" fill="rgb(59,82,95)"/>
<path d="M42 108h3v1h-1v1h-3v-1h1z" fill="rgb(82,97,80)"/>
<path d="M45 108h6v1h1v1h-8v-1h1z" fill="rgb(65,90,72)"/>
<path d="M51 108h3v1h1v1h-3v-1h-1z" fill="rgb(82,97,80)"/>
<path d="M54 108h4v1h-1v1h-2v-1h-1z" fill="rgb(59,82,95)"/>
<path d="M58 108h3v1h-1v1h-3v-1h1z" fill="rgb(82,97,80)"/>
<path d="M61 108h2v1h1v1h-2v-1h-1z" fill="rgb(71,99,80)"/>
<path d="M2 109h2v1h1v1h1v1h-6v-1h1v-1h1z" fill="rgb(97,136,109)"/>
<path d="M28 109h2v1h1v1h1v1h-6v-1h1v-1h1z" fill="rgb(130,181,145)"/>
<path d="M34 109h2v1h-2z" fill="rgb(65,90,72)"/>
<path d="M60 109h2v1h-2z" fill="rgb(65,90,72)"/>
<path d="M66 109h2v1h1v1h1v1h-6v-1h1v-1h1z" fill="rgb(130,181,145)"/>
<path d="M92 109h2v1h1v1h2v-1h1v-1h2v1h1v1h1v1h-12v-1h1v-1h1z" fill="rgb(130,181,145)"/>
<path d="M124 109h2v1h1v1h2v-1h1v-1h2v1h1v1h1v1h-12v-1h1v-1h1z" fill="rgb(130,181,145)"/>
<path d="M156 109h2v1h1v1h1v1h-6v-1h1v-1h1z" fill="rgb(130,181,145)"/>
<path d="M32 110h1v1h-1z" fill="rgb(28,40,32)"/>
<path d="M33 110h4v1h1v1h-6v-1h1z" fill="rgb(26,36,29)"/>
<path d="M37 110h6v1h-1v1h-4v-1h-1z" fill="rgb(33,39,32)"/>
<path d="M43 110h10v1h1v1h-12v-1h1z" fill="rgb(26,36,29)"/>
<path d="M53 110h6v1h-1v1h-4v-1h-1z" fill="rgb(33,39,32)"/>
<path d="M59 110h4v1h1v1h-6v-1h1z" fill="rgb(26,36,29)"/>
<path d="M63 110h1v1h-1z" fill="rgb(28,40,32)"/>
</svg>
