<?xml version="1.0" encoding="utf-8"?>
<!-- generated at drububu.com  -->
<!DOCTYPE svg PUBLIC "-//W3C//DTD SVG 1.1//EN" "http://www.w3.org/Graphics/SVG/1.1/DTD/svg11.dtd">
<svg version="1.1" preserveAspectRatio="xMinYMin meet" xmlns="http://www.w3.org/2000/svg" xmlns:xlink="http://www.w3.org/1999/xlink" x="0px" y="0px" width="112px" height="112px" viewBox="0 0 112 112">
<path d="M0 0h9v112h-9v-112z" fill="rgb(0,0,0)"/>
<path d="M9 0h94v112h-1v-111h-92v111h-1v-112z" fill="rgb(105,105,105)"/>
<path d="M103 0h9v112h-9v-112z" fill="rgb(0,0,0)"/>
<path d="M10 1h92v111h-5v-108h-82v108h-5v-111z" fill="rgb(255,255,255)"/>
<path d="M15 4h82v4h-1v-3h-80v3h-1v-4z" fill="rgb(181,181,181)"/>
<path d="M16 5h80v3h-80v-3z" fill="rgb(238,238,238)"/>
<path d="M15 8h82v104h-1v-103h-80v103h-1v-104z" fill="rgb(130,130,130)"/>
<path d="M16 9h80v1h-79v1h-1v-2z" fill="rgb(85,115,157)"/>
<path d="M17 10h2v1h-2v-1z" fill="rgb(114,133,153)"/>
<path d="M19 10h2v1h-2v-1z" fill="rgb(132,147,163)"/>
<path d="M21 10h2v1h-2v-1z" fill="rgb(114,133,153)"/>
<path d="M23 10h2v1h-2v-1z" fill="rgb(132,147,163)"/>
<path d="M25 10h2v1h-2v-1z" fill="rgb(114,133,153)"/>
<path d="M27 10h2v1h-2v-1z" fill="rgb(132,147,163)"/>
<path d="M29 10h2v1h-2v-1z" fill="rgb(114,133,153)"/>
<path d="M31 10h2v1h-2v-1z" fill="rgb(132,147,163)"/>
<path d="M33 10h2v1h-2v-1z" fill="rgb(114,133,153)"/>
<path d="M35 10h2v1h-2v-1z" fill="rgb(132,147,163)"/>
<path d="M37 10h2v1h-2v-1z" fill="rgb(114,133,153)"/>
<path d="M39 10h2v1h-2v-1z" fill="rgb(132,147,163)"/>
<path d="M41 10h2v1h-2v-1z" fill="rgb(114,133,153)"/>
<path d="M43 10h2v1h-2v-1z" fill="rgb(132,147,163)"/>
<path d="M45 10h2v1h-2v-1z" fill="rgb(114,133,153)"/>
<path d="M47 10h2v1h-2v-1z" fill="rgb(132,147,163)"/>
<path d="M49 10h2v1h-2v-1z" fill="rgb(114,133,153)"/>
<path d="M51 10h2v1h-2v-1z" fill="rgb(132,147,163)"/>
<path d="M53 10h2v1h-2v-1z" fill="rgb(114,133,153)"/>
<path d="M55 10h2v1h-2v-1z" fill="rgb(132,147,163)"/>
<path d="M57 10h2v1h-2v-1z" fill="rgb(114,133,153)"/>
<path d="M59 10h2v1h-2v-1z" fill="rgb(132,147,163)"/>
<path d="M61 10h2v1h-2v-1z" fill="rgb(114,133,153)"/>
<path d="M63 10h2v1h-2v-1z" fill="rgb(132,147,163)"/>
<path d="M65 10h2v1h-2v-1z" fill="rgb(114,133,153)"/>
<path d="M67 10h2v1h-2v-1z" fill="rgb(132,147,163)"/>
<path d="M69 10h2v1h-2v-1z" fill="rgb(114,133,153)"/>
<path d="M71 10h2v1h-2v-1z" fill="rgb(132,147,163)"/>
<path d="M73 10h2v1h-2v-1z" fill="rgb(114,133,153)"/>
<path d="M75 10h2v1h-2v-1z" fill="rgb(132,147,163)"/>
<path d="M77 10h2v1h-2v-1z" fill="rgb(114,133,153)"/>
<path d="M79 10h2v1h-2v-1z" fill="rgb(132,147,163)"/>
<path d="M81 10h2v1h-2v-1z" fill="rgb(114,133,153)"/>
<path d="M83 10h2v1h-2v-1z" fill="rgb(132,147,163)"/>
<path d="M85 10h2v1h-2v-1z" fill="rgb(114,133,153)"/>
<path d="M87 10h2v1h-2v-1z" fill="rgb(132,147,163)"/>
<path d="M89 10h2v1h-2v-1z" fill="rgb(114,133,153)"/>
<path d="M91 10h2v1h-2v-1z" fill="rgb(132,147,163)"/>
<path d="M93 10h2v1h-2v-1z" fill="rgb(114,133,153)"/>
<path d="M95 10h1v1h-1v-1z" fill="rgb(132,147,163)"/>
<path d="M16 11h1v1h1v1h1v6h-2v-6h-1v-2z" fill="rgb(155,173,192)"/>
<path d="M17 11h2v2h-1v-1h-1v-1z" fill="rgb(134,156,180)"/>
<path d="M19 11h2v1h1v1h1v6h-2v-6h-1v-1h-1v-1z" fill="rgb(155,173,192)"/>
<path d="M21 11h2v2h-1v-1h-1v-1z" fill="rgb(134,156,180)"/>
<path d="M23 11h2v1h1v1h1v6h-2v-6h-1v-1h-1v-1z" fill="rgb(155,173,192)"/>
<path d="M25 11h2v2h-1v-1h-1v-1z" fill="rgb(134,156,180)"/>
<path d="M27 11h2v1h1v1h1v6h-2v-6h-1v-1h-1v-1z" fill="rgb(155,173,192)"/>
<path d="M29 11h2v2h-1v-1h-1v-1z" fill="rgb(134,156,180)"/>
<path d="M31 11h2v1h1v1h1v18h-2v-18h-1v-1h-1v-1z" fill="rgb(155,173,192)"/>
<path d="M33 11h2v2h-1v-1h-1v-1z" fill="rgb(134,156,180)"/>
<path d="M35 11h2v1h1v1h1v15h-1v3h-1v-18h-1v-1h-1v-1z" fill="rgb(155,173,192)"/>
<path d="M37 11h2v2h-1v-1h-1v-1z" fill="rgb(134,156,180)"/>
<path d="M39 11h2v1h1v1h1v18h-1v-3h-1v-15h-1v-1h-1v-1z" fill="rgb(155,173,192)"/>
<path d="M41 11h2v2h-1v-1h-1v-1z" fill="rgb(134,156,180)"/>
<path d="M43 11h2v1h1v1h1v18h-2v-18h-1v-1h-1v-1z" fill="rgb(155,173,192)"/>
<path d="M45 11h2v2h-1v-1h-1v-1z" fill="rgb(134,156,180)"/>
<path d="M47 11h2v1h1v1h1v18h-1v1h-2v-1h1v-18h-1v-1h-1v-1z" fill="rgb(155,173,192)"/>
<path d="M49 11h2v2h-1v-1h-1v-1z" fill="rgb(134,156,180)"/>
<path d="M51 11h2v1h1v1h1v18h-1v1h-2v-1h1v-18h-1v-1h-1v-1z" fill="rgb(155,173,192)"/>
<path d="M53 11h2v2h-1v-1h-1v-1z" fill="rgb(134,156,180)"/>
<path d="M55 11h2v1h1v1h1v18h-1v1h-2v-1h1v-18h-1v-1h-1v-1z" fill="rgb(155,173,192)"/>
<path d="M57 11h2v2h-1v-1h-1v-1z" fill="rgb(134,156,180)"/>
<path d="M59 11h2v1h1v1h1v18h-1v1h-2v-1h1v-18h-1v-1h-1v-1z" fill="rgb(155,173,192)"/>
<path d="M61 11h2v2h-1v-1h-1v-1z" fill="rgb(134,156,180)"/>
<path d="M63 11h2v1h1v1h1v2h-2v-2h-1v-1h-1v-1z" fill="rgb(155,173,192)"/>
<path d="M65 11h2v2h-1v-1h-1v-1z" fill="rgb(134,156,180)"/>
<path d="M67 11h2v1h1v1h1v2h-2v-2h-1v-1h-1v-1z" fill="rgb(155,173,192)"/>
<path d="M69 11h2v2h-1v-1h-1v-1z" fill="rgb(134,156,180)"/>
<path d="M71 11h2v1h1v1h1v2h-2v-2h-1v-1h-1v-1z" fill="rgb(155,173,192)"/>
<path d="M73 11h2v2h-1v-1h-1v-1z" fill="rgb(134,156,180)"/>
<path d="M75 11h2v1h1v1h1v2h-2v-2h-1v-1h-1v-1z" fill="rgb(155,173,192)"/>
<path d="M77 11h2v2h-1v-1h-1v-1z" fill="rgb(134,156,180)"/>
<path d="M79 11h2v1h1v1h1v18h-1v1h-2v-1h1v-18h-1v-1h-1v-1z" fill="rgb(155,173,192)"/>
<path d="M81 11h2v2h-1v-1h-1v-1z" fill="rgb(134,156,180)"/>
<path d="M83 11h2v1h1v1h1v18h-1v1h-2v-1h1v-18h-1v-1h-1v-1z" fill="rgb(155,173,192)"/>
<path d="M85 11h2v2h-1v-1h-1v-1z" fill="rgb(134,156,180)"/>
<path d="M87 11h2v1h1v1h1v18h-1v1h-2v-1h1v-18h-1v-1h-1v-1z" fill="rgb(155,173,192)"/>
<path d="M89 11h2v2h-1v-1h-1v-1z" fill="rgb(134,156,180)"/>
<path d="M91 11h2v1h1v1h1v18h-1v1h-2v-1h1v-18h-1v-1h-1v-1z" fill="rgb(155,173,192)"/>
<path d="M93 11h2v2h-1v-1h-1v-1z" fill="rgb(134,156,180)"/>
<path d="M95 11h1v1h-1v-1z" fill="rgb(155,173,192)"/>
<path d="M19 12h1v1h1v6h-2v-7z" fill="rgb(182,197,212)"/>
<path d="M23 12h1v1h1v6h-2v-7z" fill="rgb(182,197,212)"/>
<path d="M27 12h1v1h1v6h-2v-7z" fill="rgb(182,197,212)"/>
<path d="M31 12h1v1h1v18h-1v-11h-1v-8z" fill="rgb(182,197,212)"/>
<path d="M35 12h1v1h1v18h-2v-19z" fill="rgb(182,197,212)"/>
<path d="M39 12h1v1h1v15h-2v-16z" fill="rgb(182,197,212)"/>
<path d="M43 12h1v1h1v18h-2v-19z" fill="rgb(182,197,212)"/>
<path d="M47 12h1v1h1v18h-1v1h-1v-20z" fill="rgb(182,197,212)"/>
<path d="M51 12h1v1h1v18h-1v1h-1v-20z" fill="rgb(182,197,212)"/>
<path d="M55 12h1v1h1v18h-1v1h-1v-20z" fill="rgb(182,197,212)"/>
<path d="M59 12h1v1h1v18h-1v1h-1v-20z" fill="rgb(182,197,212)"/>
<path d="M63 12h1v1h1v18h-1v1h-1v-20z" fill="rgb(182,197,212)"/>
<path d="M67 12h1v1h1v2h-2v-3z" fill="rgb(182,197,212)"/>
<path d="M71 12h1v1h1v2h-2v-3z" fill="rgb(182,197,212)"/>
<path d="M75 12h1v1h1v2h-2v-3z" fill="rgb(182,197,212)"/>
<path d="M79 12h1v1h1v18h-1v1h-1v-3h1v-13h-1v-4z" fill="rgb(182,197,212)"/>
<path d="M83 12h1v1h1v18h-1v1h-1v-20z" fill="rgb(182,197,212)"/>
<path d="M87 12h1v1h1v18h-1v1h-1v-20z" fill="rgb(182,197,212)"/>
<path d="M91 12h1v1h1v18h-1v1h-1v-20z" fill="rgb(182,197,212)"/>
<path d="M95 12h1v20h-1v-20z" fill="rgb(182,197,212)"/>
<path d="M16 13h1v7h-1v-7z" fill="rgb(182,197,212)"/>
<path d="M65 15h14v14h-14v-14z" fill="rgb(105,70,35)"/>
<path d="M66 16h12v1h-12v-1z" fill="rgb(203,153,103)"/>
<path d="M79 16h1v13h-1v-13z" fill="rgb(136,148,159)"/>
<path d="M66 17h12v11h-12v-11z" fill="rgb(163,108,54)"/>
<path d="M67 18h4v1h-1v1h2v1h-1v1h-1v1h-1v-2h-1v1h-1v-4z" fill="rgb(169,202,205)"/>
<path d="M71 18h3v1h-1v1h-3v-1h1v-1z" fill="rgb(145,188,191)"/>
<path d="M74 18h1v1h-1v-1z" fill="rgb(169,202,205)"/>
<path d="M75 18h2v2h-3v-1h1v-1z" fill="rgb(145,188,191)"/>
<path d="M17 19h10v1h-10v-1z" fill="rgb(96,111,108)"/>
<path d="M27 19h4v1h-4v-1z" fill="rgb(73,84,82)"/>
<path d="M73 19h1v1h3v1h-1v1h-1v1h-1v1h-1v1h-1v1h-3v-1h-1v-1h2v-1h1v-1h1v-1h1v-2z" fill="rgb(169,202,205)"/>
<path d="M16 20h1v7h1v1h-1v6h1v1h-1v1h1v1h-1v5h-1v-22z" fill="rgb(96,111,108)"/>
<path d="M17 20h5v1h-3v1h-1v2h-1v-4z" fill="rgb(174,183,170)"/>
<path d="M22 20h4v1h3v1h1v2h1v1h-1v1h-12v-1h-1v-1h1v-2h1v-1h3v-1z" fill="rgb(209,215,206)"/>
<path d="M26 20h5v4h-1v-2h-1v-1h-3v-1z" fill="rgb(174,183,170)"/>
<path d="M31 20h1v28h-1v-28z" fill="rgb(73,84,82)"/>
<path d="M72 20h1v1h-1v-1z" fill="rgb(199,220,222)"/>
<path d="M68 21h1v3h-1v1h-1v-3h1v-1z" fill="rgb(145,188,191)"/>
<path d="M71 21h1v1h-1v-1z" fill="rgb(199,220,222)"/>
<path d="M76 21h1v3h-1v1h-1v1h-3v-1h1v-1h1v-1h1v-1h1v-1z" fill="rgb(199,220,222)"/>
<path d="M70 22h1v1h-1v-1z" fill="rgb(199,220,222)"/>
<path d="M69 23h1v1h-1v-1z" fill="rgb(199,220,222)"/>
<path d="M76 24h1v2h-2v-1h1v-1z" fill="rgb(169,202,205)"/>
<path d="M17 25h1v1h-1v-1z" fill="rgb(146,163,159)"/>
<path d="M30 25h1v1h-1v-1z" fill="rgb(146,163,159)"/>
<path d="M67 25h1v1h-1v-1z" fill="rgb(169,202,205)"/>
<path d="M68 25h1v1h-1v-1z" fill="rgb(145,188,191)"/>
<path d="M17 26h1v1h-1v-1z" fill="rgb(209,215,206)"/>
<path d="M18 26h12v1h-12v-1z" fill="rgb(146,163,159)"/>
<path d="M30 26h1v1h-1v-1z" fill="rgb(209,215,206)"/>
<path d="M67 26h10v1h-10v-1z" fill="rgb(203,153,103)"/>
<path d="M18 27h12v1h-12v-1z" fill="rgb(209,215,206)"/>
<path d="M30 27h1v1h-1v-1z" fill="rgb(96,111,108)"/>
<path d="M17 28h1v1h2v6h-2v-1h-1v-6z" fill="rgb(146,163,159)"/>
<path d="M18 28h3v1h-3v-1z" fill="rgb(96,111,108)"/>
<path d="M21 28h6v1h-6v-1z" fill="rgb(146,163,159)"/>
<path d="M27 28h3v1h-3v-1z" fill="rgb(96,111,108)"/>
<path d="M30 28h1v6h-1v1h-2v-2h1v-1h-1v-3h2v-1z" fill="rgb(146,163,159)"/>
<path d="M38 28h4v3h5v1h-6v-1h-2v1h-6v-1h5v-3z" fill="rgb(96,111,108)"/>
<path d="M20 29h8v2h-1v1h-2v1h3v2h-8v-6z" fill="rgb(174,183,170)"/>
<path d="M39 29h2v1h-2v-1z" fill="rgb(121,140,136)"/>
<path d="M65 29h1v1h1v1h-1v1h-2v-1h1v-2z" fill="rgb(155,173,192)"/>
<path d="M66 29h1v1h-1v-1z" fill="rgb(116,130,144)"/>
<path d="M67 29h2v1h-2v-1z" fill="rgb(136,148,159)"/>
<path d="M69 29h2v1h-2v-1z" fill="rgb(116,130,144)"/>
<path d="M71 29h2v1h-2v-1z" fill="rgb(136,148,159)"/>
<path d="M73 29h2v1h-2v-1z" fill="rgb(116,130,144)"/>
<path d="M75 29h2v1h-2v-1z" fill="rgb(136,148,159)"/>
<path d="M77 29h2v1h-2v-1z" fill="rgb(116,130,144)"/>
<path d="M67 30h2v1h-1v1h-1v-2z" fill="rgb(182,197,212)"/>
<path d="M69 30h2v1h-1v1h-2v-1h1v-1z" fill="rgb(155,173,192)"/>
<path d="M71 30h2v1h-1v1h-1v-2z" fill="rgb(182,197,212)"/>
<path d="M73 30h2v1h-1v1h-2v-1h1v-1z" fill="rgb(155,173,192)"/>
<path d="M75 30h2v1h-1v1h-1v-2z" fill="rgb(182,197,212)"/>
<path d="M77 30h2v1h-1v1h-2v-1h1v-1z" fill="rgb(155,173,192)"/>
<path d="M27 31h1v1h1v1h-4v-1h2v-1z" fill="rgb(96,111,108)"/>
<path d="M32 31h1v1h-1v-1z" fill="rgb(155,173,192)"/>
<path d="M39 31h2v1h-2v-1z" fill="rgb(121,140,136)"/>
<path d="M50 31h1v1h-1v-1z" fill="rgb(134,156,180)"/>
<path d="M54 31h1v1h-1v-1z" fill="rgb(134,156,180)"/>
<path d="M58 31h1v1h-1v-1z" fill="rgb(134,156,180)"/>
<path d="M62 31h1v1h-1v-1z" fill="rgb(134,156,180)"/>
<path d="M66 31h1v1h-1v-1z" fill="rgb(134,156,180)"/>
<path d="M70 31h1v1h-1v-1z" fill="rgb(134,156,180)"/>
<path d="M74 31h1v1h-1v-1z" fill="rgb(134,156,180)"/>
<path d="M78 31h1v1h-1v-1z" fill="rgb(134,156,180)"/>
<path d="M82 31h1v1h-1v-1z" fill="rgb(134,156,180)"/>
<path d="M86 31h1v1h-1v-1z" fill="rgb(134,156,180)"/>
<path d="M90 31h1v1h-1v-1z" fill="rgb(134,156,180)"/>
<path d="M94 31h1v1h-1v-1z" fill="rgb(134,156,180)"/>
<path d="M32 32h1v10h-1v-10z" fill="rgb(96,111,108)"/>
<path d="M33 32h2v1h-1v1h1v2h10v-2h1v3h-12v2h-1v-7z" fill="rgb(146,163,159)"/>
<path d="M35 32h12v8h-13v-2h1v1h10v-1h1v-4h-1v-1h-10v-1z" fill="rgb(174,183,170)"/>
<path d="M47 32h1v10h-1v-10z" fill="rgb(73,84,82)"/>
<path d="M48 32h1v1h-1v-1z" fill="rgb(182,197,212)"/>
<path d="M49 32h1v1h1v4h-2v-5z" fill="rgb(134,156,180)"/>
<path d="M50 32h2v1h1v4h-2v-4h-1v-1z" fill="rgb(155,173,192)"/>
<path d="M52 32h1v1h-1v-1z" fill="rgb(182,197,212)"/>
<path d="M53 32h1v1h1v4h-2v-5z" fill="rgb(134,156,180)"/>
<path d="M54 32h2v1h1v4h-2v-4h-1v-1z" fill="rgb(155,173,192)"/>
<path d="M56 32h1v1h-1v-1z" fill="rgb(182,197,212)"/>
<path d="M57 32h1v1h1v4h-2v-5z" fill="rgb(134,156,180)"/>
<path d="M58 32h2v1h1v4h-2v-4h-1v-1z" fill="rgb(155,173,192)"/>
<path d="M60 32h1v1h-1v-1z" fill="rgb(182,197,212)"/>
<path d="M61 32h1v1h1v4h-2v-5z" fill="rgb(134,156,180)"/>
<path d="M62 32h2v1h1v4h-2v-4h-1v-1z" fill="rgb(155,173,192)"/>
<path d="M64 32h1v1h-1v-1z" fill="rgb(182,197,212)"/>
<path d="M65 32h1v1h1v4h-2v-5z" fill="rgb(134,156,180)"/>
<path d="M66 32h2v1h1v4h-2v-4h-1v-1z" fill="rgb(155,173,192)"/>
<path d="M68 32h1v1h-1v-1z" fill="rgb(182,197,212)"/>
<path d="M69 32h1v1h1v4h-2v-5z" fill="rgb(134,156,180)"/>
<path d="M70 32h2v1h1v4h-2v-4h-1v-1z" fill="rgb(155,173,192)"/>
<path d="M72 32h1v1h-1v-1z" fill="rgb(182,197,212)"/>
<path d="M73 32h1v1h1v4h-2v-5z" fill="rgb(134,156,180)"/>
<path d="M74 32h2v1h1v4h-2v-4h-1v-1z" fill="rgb(155,173,192)"/>
<path d="M76 32h1v1h-1v-1z" fill="rgb(182,197,212)"/>
<path d="M77 32h1v1h1v4h-2v-5z" fill="rgb(134,156,180)"/>
<path d="M78 32h2v1h1v2h-1v2h-1v-4h-1v-1z" fill="rgb(155,173,192)"/>
<path d="M80 32h1v1h-1v-1z" fill="rgb(182,197,212)"/>
<path d="M81 32h1v1h1v2h-2v-3z" fill="rgb(134,156,180)"/>
<path d="M82 32h2v1h1v2h-2v-2h-1v-1z" fill="rgb(155,173,192)"/>
<path d="M84 32h1v1h-1v-1z" fill="rgb(182,197,212)"/>
<path d="M85 32h1v1h1v2h-2v-3z" fill="rgb(134,156,180)"/>
<path d="M86 32h2v1h1v2h-2v-2h-1v-1z" fill="rgb(155,173,192)"/>
<path d="M88 32h1v1h-1v-1z" fill="rgb(182,197,212)"/>
<path d="M89 32h1v1h1v2h-2v-3z" fill="rgb(134,156,180)"/>
<path d="M90 32h2v1h1v2h-2v-2h-1v-1z" fill="rgb(155,173,192)"/>
<path d="M92 32h1v1h-1v-1z" fill="rgb(182,197,212)"/>
<path d="M93 32h1v1h1v2h-2v-3z" fill="rgb(134,156,180)"/>
<path d="M94 32h2v3h-1v-2h-1v-1z" fill="rgb(155,173,192)"/>
<path d="M34 33h1v1h-1v-1z" fill="rgb(174,183,170)"/>
<path d="M35 33h10v1h-10v-1z" fill="rgb(146,163,159)"/>
<path d="M48 33h1v4h-1v-4z" fill="rgb(155,173,192)"/>
<path d="M30 34h1v1h-1v-1z" fill="rgb(96,111,108)"/>
<path d="M35 34h10v2h-10v-2z" fill="rgb(174,183,170)"/>
<path d="M17 35h1v1h-1v-1z" fill="rgb(209,215,206)"/>
<path d="M18 35h12v1h-12v-1z" fill="rgb(96,111,108)"/>
<path d="M30 35h1v1h-1v-1z" fill="rgb(209,215,206)"/>
<path d="M80 35h16v15h-1v3h-1v-3h-2v3h-1v-1h-6v1h-1v-3h-2v3h-1v-3h-1v-15z" fill="rgb(105,70,35)"/>
<path d="M18 36h12v1h-12v-1z" fill="rgb(209,215,206)"/>
<path d="M30 36h1v1h-1v-1z" fill="rgb(96,111,108)"/>
<path d="M81 36h14v10h-14v-10z" fill="rgb(190,126,63)"/>
<path d="M17 37h1v1h2v8h1v1h6v-1h1v-4h1v-1h-1v-3h2v-1h1v11h-1v1h-12v-1h-1v-11z" fill="rgb(146,163,159)"/>
<path d="M18 37h3v1h-3v-1z" fill="rgb(96,111,108)"/>
<path d="M21 37h6v1h-6v-1z" fill="rgb(146,163,159)"/>
<path d="M27 37h3v1h-3v-1z" fill="rgb(96,111,108)"/>
<path d="M34 37h1v1h-1v-1z" fill="rgb(96,111,108)"/>
<path d="M35 37h10v1h-10v-1z" fill="rgb(121,140,136)"/>
<path d="M45 37h1v1h-1v-1z" fill="rgb(96,111,108)"/>
<path d="M48 37h32v1h-32v-1z" fill="rgb(78,102,136)"/>
<path d="M20 38h8v2h-1v1h-2v1h3v4h-1v1h-6v-1h-1v-8z" fill="rgb(174,183,170)"/>
<path d="M35 38h10v1h-10v-1z" fill="rgb(96,111,108)"/>
<path d="M48 38h32v1h-32v-1z" fill="rgb(104,137,165)"/>
<path d="M33 39h1v1h-1v-1z" fill="rgb(209,215,206)"/>
<path d="M48 39h32v1h-32v-1z" fill="rgb(130,130,130)"/>
<path d="M27 40h1v1h1v1h-4v-1h2v-1z" fill="rgb(96,111,108)"/>
<path d="M33 40h1v1h-1v-1z" fill="rgb(174,183,170)"/>
<path d="M34 40h13v1h-13v-1z" fill="rgb(209,215,206)"/>
<path d="M48 40h1v2h-1v-2z" fill="rgb(174,174,137)"/>
<path d="M49 40h2v5h10v-5h2v6h-1v1h-12v-1h-1v-6z" fill="rgb(169,164,128)"/>
<path d="M51 40h1v4h8v-4h1v5h-10v-5z" fill="rgb(174,174,137)"/>
<path d="M52 40h8v4h-8v-4z" fill="rgb(175,160,126)"/>
<path d="M63 40h2v6h1v1h12v-1h1v-6h1v8h-31v-2h1v1h12v-1h1v-6z" fill="rgb(174,174,137)"/>
<path d="M65 40h2v5h10v-5h2v6h-1v1h-12v-1h-1v-6z" fill="rgb(169,164,128)"/>
<path d="M67 40h1v4h8v-4h1v5h-10v-5z" fill="rgb(174,174,137)"/>
<path d="M68 40h8v4h-8v-4z" fill="rgb(175,160,126)"/>
<path d="M33 41h14v1h-14v-1z" fill="rgb(146,163,159)"/>
<path d="M16 42h1v6h-1v-6z" fill="rgb(73,84,82)"/>
<path d="M32 42h1v6h-1v-6z" fill="rgb(130,130,103)"/>
<path d="M33 42h14v1h-14v-1z" fill="rgb(73,84,82)"/>
<path d="M47 42h2v6h-2v-6z" fill="rgb(130,130,103)"/>
<path d="M33 43h1v6h-1v-6z" fill="rgb(105,70,35)"/>
<path d="M34 43h12v2h-1v-1h-10v4h10v-1h1v2h-12v-6z" fill="rgb(163,108,54)"/>
<path d="M46 43h1v6h-1v-6z" fill="rgb(105,70,35)"/>
<path d="M35 44h10v1h-10v-1z" fill="rgb(203,153,103)"/>
<path d="M35 45h1v1h1v-1h6v1h1v-1h1v2h-10v-2z" fill="rgb(190,126,63)"/>
<path d="M36 45h1v1h-1v-1z" fill="rgb(133,88,44)"/>
<path d="M43 45h1v1h-1v-1z" fill="rgb(133,88,44)"/>
<path d="M45 45h1v2h-1v-2z" fill="rgb(133,88,44)"/>
<path d="M81 46h14v1h-14v-1z" fill="rgb(203,153,103)"/>
<path d="M35 47h10v1h-10v-1z" fill="rgb(133,88,44)"/>
<path d="M81 47h14v1h-14v-1z" fill="rgb(163,108,54)"/>
<path d="M16 48h1v1h1v1h-1v1h-1v-3z" fill="rgb(130,130,103)"/>
<path d="M17 48h1v1h-1v-1z" fill="rgb(73,84,82)"/>
<path d="M30 48h1v1h-1v-1z" fill="rgb(73,84,82)"/>
<path d="M31 48h2v1h1v1h-1v1h-2v-1h-1v-1h1v-1z" fill="rgb(153,153,121)"/>
<path d="M47 48h2v2h-1v1h-1v-1h-1v-1h1v-1z" fill="rgb(153,153,121)"/>
<path d="M49 48h31v7h1v7h1v1h1v2h-1v1h-1v12h-1v8h-1v-4h-1v-1h-12v1h-1v12h1v1h12v-1h1v4
	h-1v-1h-12v1h-1v12h1v1h12v-1h1v-10h1v1h1v9h1v1h12v-1h1v-8h1v10h-45v-1h11v-1h1
	v-12h-1v-1h-12v1h-1v7h-1v-1h-1v-6h-1v-1h-12v1h-1v6h-1v1h-1v-7h-1v-1h-6v-2h6v-1h1
	v-12h-1v-1h-6v-2h6v-1h1v-12h-1v-1h-6v-2h6v-1h1v-11h2v11h1v1h12v-1h1v-11h1v-1h1
	v-2z" fill="rgb(204,204,161)"/>
<path d="M81 48h14v1h-14v-1z" fill="rgb(133,88,44)"/>
<path d="M18 49h12v1h-12v-1z" fill="rgb(73,84,82)"/>
<path d="M34 49h12v1h-12v-1z" fill="rgb(105,70,35)"/>
<path d="M50 49h12v1h1v12h-1v1h-12v-1h-1v-12h1v-1z" fill="rgb(199,193,151)"/>
<path d="M66 49h12v1h1v12h-1v1h-12v-1h-1v-12h1v-1z" fill="rgb(199,193,151)"/>
<path d="M17 50h7v1h-5v1h-2v-2z" fill="rgb(127,123,96)"/>
<path d="M24 50h7v2h-2v-1h-5v-1z" fill="rgb(149,145,113)"/>
<path d="M33 50h14v2h-2v-1h-10v1h-1v-1h-1v-1z" fill="rgb(149,145,113)"/>
<path d="M80 50h1v5h-1v-5z" fill="rgb(153,153,121)"/>
<path d="M82 50h2v1h-2v-1z" fill="rgb(133,88,44)"/>
<path d="M85 50h6v1h-6v-1z" fill="rgb(133,88,44)"/>
<path d="M92 50h2v1h-2v-1z" fill="rgb(133,88,44)"/>
<path d="M95 50h1v6h-1v-6z" fill="rgb(153,153,121)"/>
<path d="M16 51h1v11h1v1h6v2h-6v1h-1v12h1v1h6v2h-6v1h-1v12h1v1h6v2h-6v1h-1v12h1v1h6v1h-8
	v-61z" fill="rgb(174,174,137)"/>
<path d="M19 51h5v1h-5v-1z" fill="rgb(130,130,103)"/>
<path d="M24 51h5v1h-5v-1z" fill="rgb(153,153,121)"/>
<path d="M33 51h1v1h1v9h10v-9h2v10h-1v1h-12v-1h-1v-11z" fill="rgb(199,193,151)"/>
<path d="M35 51h10v1h-10v-1z" fill="rgb(153,153,121)"/>
<path d="M51 51h10v10h-10v-10z" fill="rgb(204,204,161)"/>
<path d="M67 51h10v10h-10v-10z" fill="rgb(204,204,161)"/>
<path d="M82 51h2v1h-2v-1z" fill="rgb(163,108,54)"/>
<path d="M92 51h2v1h-2v-1z" fill="rgb(163,108,54)"/>
<path d="M17 52h2v9h5v2h-6v-1h-1v-10z" fill="rgb(169,164,128)"/>
<path d="M19 52h1v8h4v1h-5v-9z" fill="rgb(174,174,137)"/>
<path d="M20 52h4v8h-4v-8z" fill="rgb(175,160,126)"/>
<path d="M24 52h4v8h-4v-8z" fill="rgb(206,188,148)"/>
<path d="M28 52h1v9h-5v-1h4v-8z" fill="rgb(204,204,161)"/>
<path d="M29 52h2v10h-1v1h-6v-2h5v-9z" fill="rgb(199,193,151)"/>
<path d="M35 52h1v8h8v-8h1v9h-10v-9z" fill="rgb(204,204,161)"/>
<path d="M36 52h8v8h-8v-8z" fill="rgb(206,188,148)"/>
<path d="M52 52h8v8h-8v-8z" fill="rgb(206,188,148)"/>
<path d="M68 52h8v8h-8v-8z" fill="rgb(206,188,148)"/>
<path d="M82 52h2v1h-2v-1z" fill="rgb(190,126,63)"/>
<path d="M85 52h6v2h1v1h-2v-1h-3v1h-3v-1h1v-2z" fill="rgb(154,141,111)"/>
<path d="M92 52h2v1h-2v-1z" fill="rgb(190,126,63)"/>
<path d="M81 53h1v1h-1v-1z" fill="rgb(190,126,63)"/>
<path d="M82 53h2v1h-2v-1z" fill="rgb(105,70,35)"/>
<path d="M84 53h1v1h-1v-1z" fill="rgb(190,126,63)"/>
<path d="M91 53h1v1h-1v-1z" fill="rgb(190,126,63)"/>
<path d="M92 53h2v1h-2v-1z" fill="rgb(105,70,35)"/>
<path d="M94 53h1v1h-1v-1z" fill="rgb(190,126,63)"/>
<path d="M81 54h2v2h-2v-2z" fill="rgb(149,145,113)"/>
<path d="M83 54h1v2h-1v-2z" fill="rgb(153,153,121)"/>
<path d="M87 54h3v1h-3v-1z" fill="rgb(206,188,148)"/>
<path d="M92 54h1v1h-1v-1z" fill="rgb(153,153,121)"/>
<path d="M93 54h2v2h-2v-2z" fill="rgb(149,145,113)"/>
<path d="M84 55h9v1h-9v-1z" fill="rgb(95,89,54)"/>
<path d="M81 56h2v1h-1v5h-1v-6z" fill="rgb(199,193,151)"/>
<path d="M83 56h1v1h-1v-1z" fill="rgb(95,89,54)"/>
<path d="M84 56h2v1h-1v1h-2v-1h1v-1z" fill="rgb(182,170,115)"/>
<path d="M86 56h5v1h1v1h2v2h-2v1h-1v1h-5v-1h-1v-1h-2v-2h2v-1h1v-1z" fill="rgb(198,194,139)"/>
<path d="M91 56h2v1h1v1h-2v-1h-1v-1z" fill="rgb(182,170,115)"/>
<path d="M93 56h1v1h-1v-1z" fill="rgb(95,89,54)"/>
<path d="M94 56h1v1h-1v-1z" fill="rgb(199,193,151)"/>
<path d="M95 56h1v15h-1v-15z" fill="rgb(204,204,161)"/>
<path d="M82 57h1v6h-1v-6z" fill="rgb(95,89,54)"/>
<path d="M88 57h1v1h1v1h-1v1h-1v-1h-1v-1h1v-1z" fill="rgb(182,170,115)"/>
<path d="M94 57h1v6h-1v-6z" fill="rgb(95,89,54)"/>
<path d="M83 60h2v1h1v1h-2v-1h-1v-1z" fill="rgb(182,170,115)"/>
<path d="M92 60h2v1h-1v1h-2v-1h1v-1z" fill="rgb(182,170,115)"/>
<path d="M83 61h1v1h9v-1h1v2h-3v1h-5v-1h-3v-2z" fill="rgb(151,141,86)"/>
<path d="M83 63h3v1h-3v-1z" fill="rgb(95,89,54)"/>
<path d="M91 63h3v1h-3v-1z" fill="rgb(95,89,54)"/>
<path d="M94 63h1v3h-1v-3z" fill="rgb(153,153,121)"/>
<path d="M83 64h1v2h-1v-2z" fill="rgb(105,70,35)"/>
<path d="M84 64h2v1h-2v-1z" fill="rgb(133,88,44)"/>
<path d="M86 64h5v1h-5v-1z" fill="rgb(95,89,54)"/>
<path d="M91 64h2v1h-2v-1z" fill="rgb(133,88,44)"/>
<path d="M93 64h1v2h-1v-2z" fill="rgb(105,70,35)"/>
<path d="M18 65h6v2h-5v10h5v2h-6v-1h-1v-12h1v-1z" fill="rgb(169,164,128)"/>
<path d="M24 65h6v1h1v12h-1v1h-6v-2h5v-10h-5v-2z" fill="rgb(199,193,151)"/>
<path d="M34 65h12v1h1v12h-1v1h-12v-1h-1v-12h1v-1z" fill="rgb(199,193,151)"/>
<path d="M50 65h12v1h1v12h-1v1h-12v-1h-1v-12h1v-1z" fill="rgb(199,193,151)"/>
<path d="M66 65h12v1h1v12h-1v1h-12v-1h-1v-12h1v-1z" fill="rgb(199,193,151)"/>
<path d="M82 65h1v5h-1v1h-1v-5h1v-1z" fill="rgb(199,193,151)"/>
<path d="M84 65h2v1h-2v-1z" fill="rgb(163,108,54)"/>
<path d="M86 65h1v1h-1v-1z" fill="rgb(105,70,35)"/>
<path d="M87 65h3v1h-3v-1z" fill="rgb(149,145,113)"/>
<path d="M90 65h1v1h-1v-1z" fill="rgb(105,70,35)"/>
<path d="M91 65h2v1h-2v-1z" fill="rgb(163,108,54)"/>
<path d="M83 66h1v1h-1v-1z" fill="rgb(149,145,113)"/>
<path d="M84 66h2v1h-2v-1z" fill="rgb(105,70,35)"/>
<path d="M86 66h1v1h-1v-1z" fill="rgb(149,145,113)"/>
<path d="M87 66h3v1h-3v-1z" fill="rgb(199,193,151)"/>
<path d="M90 66h1v1h-1v-1z" fill="rgb(149,145,113)"/>
<path d="M91 66h2v1h-2v-1z" fill="rgb(105,70,35)"/>
<path d="M93 66h1v1h-1v-1z" fill="rgb(149,145,113)"/>
<path d="M94 66h1v4h-2v-3h1v-1z" fill="rgb(199,193,151)"/>
<path d="M19 67h5v1h-4v8h4v1h-5v-10z" fill="rgb(174,174,137)"/>
<path d="M24 67h5v10h-5v-1h4v-8h-4v-1z" fill="rgb(204,204,161)"/>
<path d="M35 67h10v10h-10v-10z" fill="rgb(204,204,161)"/>
<path d="M51 67h10v10h-10v-10z" fill="rgb(204,204,161)"/>
<path d="M67 67h10v10h-10v-10z" fill="rgb(204,204,161)"/>
<path d="M83 67h1v3h-1v-3z" fill="rgb(204,204,161)"/>
<path d="M84 67h2v1h-2v-1z" fill="rgb(153,153,121)"/>
<path d="M86 67h5v1h-5v-1z" fill="rgb(204,204,161)"/>
<path d="M91 67h2v1h-2v-1z" fill="rgb(153,153,121)"/>
<path d="M20 68h4v8h-4v-8z" fill="rgb(175,160,126)"/>
<path d="M24 68h4v8h-4v-8z" fill="rgb(206,188,148)"/>
<path d="M36 68h8v8h-8v-8z" fill="rgb(206,188,148)"/>
<path d="M52 68h8v8h-8v-8z" fill="rgb(206,188,148)"/>
<path d="M68 68h8v8h-8v-8z" fill="rgb(206,188,148)"/>
<path d="M84 68h8v1h-8v-1z" fill="rgb(206,188,148)"/>
<path d="M92 68h1v1h-1v-1z" fill="rgb(204,204,161)"/>
<path d="M84 69h9v1h-9v-1z" fill="rgb(83,83,83)"/>
<path d="M82 70h2v1h-2v-1z" fill="rgb(83,83,83)"/>
<path d="M84 70h2v1h-2v-1z" fill="rgb(129,129,121)"/>
<path d="M86 70h5v1h2v1h-9v-1h2v-1z" fill="rgb(147,156,156)"/>
<path d="M91 70h2v1h-2v-1z" fill="rgb(129,129,121)"/>
<path d="M93 70h2v1h-2v-1z" fill="rgb(83,83,83)"/>
<path d="M81 71h1v6h-1v-6z" fill="rgb(83,83,83)"/>
<path d="M82 71h2v2h-1v-1h-1v-1z" fill="rgb(167,174,174)"/>
<path d="M93 71h2v1h-1v1h-1v-2z" fill="rgb(167,174,174)"/>
<path d="M95 71h1v6h-1v-6z" fill="rgb(83,83,83)"/>
<path d="M82 72h1v1h-1v-1z" fill="rgb(147,156,156)"/>
<path d="M84 72h9v1h-9v-1z" fill="rgb(83,83,83)"/>
<path d="M94 72h1v1h-1v-1z" fill="rgb(147,156,156)"/>
<path d="M82 73h1v3h-1v-3z" fill="rgb(129,129,121)"/>
<path d="M83 73h1v2h-1v-2z" fill="rgb(83,83,83)"/>
<path d="M84 73h8v1h-8v-1z" fill="rgb(206,188,148)"/>
<path d="M92 73h1v1h-1v-1z" fill="rgb(204,204,161)"/>
<path d="M93 73h1v2h-1v-2z" fill="rgb(83,83,83)"/>
<path d="M94 73h1v3h-1v-3z" fill="rgb(129,129,121)"/>
<path d="M84 74h9v1h-9v-1z" fill="rgb(48,48,48)"/>
<path d="M83 75h1v7h-1v-5h-1v-1h1v-1z" fill="rgb(48,48,48)"/>
<path d="M84 75h2v1h-1v1h-1v-2z" fill="rgb(174,174,174)"/>
<path d="M86 75h1v1h-1v-1z" fill="rgb(205,205,205)"/>
<path d="M87 75h3v1h2v1h1v2h-1v1h-1v1h-5v-1h-1v-1h-1v-2h1v-1h2v-1z" fill="rgb(238,238,238)"/>
<path d="M90 75h1v1h-1v-1z" fill="rgb(205,205,205)"/>
<path d="M91 75h2v2h-1v-1h-1v-1z" fill="rgb(174,174,174)"/>
<path d="M93 75h1v1h1v1h-1v5h-1v-7z" fill="rgb(48,48,48)"/>
<path d="M81 77h1v9h-1v-9z" fill="rgb(48,48,48)"/>
<path d="M82 77h1v1h-1v-1z" fill="rgb(174,174,174)"/>
<path d="M94 77h1v5h-1v-5z" fill="rgb(174,174,174)"/>
<path d="M95 77h1v9h-1v-9z" fill="rgb(48,48,48)"/>
<path d="M80 78h1v9h-1v12h1v2h-1v-1h-1v-14h1v-8z" fill="rgb(153,153,121)"/>
<path d="M82 78h1v4h1v1h10v-1h1v3h-3v-1h-7v1h-3v-7z" fill="rgb(205,205,205)"/>
<path d="M87 78h3v1h-1v1h-1v-1h-1v-1z" fill="rgb(205,205,205)"/>
<path d="M84 79h1v1h-1v-1z" fill="rgb(205,205,205)"/>
<path d="M92 79h1v1h-1v-1z" fill="rgb(205,205,205)"/>
<path d="M84 80h1v1h1v1h-2v-2z" fill="rgb(174,174,174)"/>
<path d="M85 80h1v1h-1v-1z" fill="rgb(205,205,205)"/>
<path d="M91 80h1v1h-1v-1z" fill="rgb(205,205,205)"/>
<path d="M92 80h1v2h-2v-1h1v-1z" fill="rgb(174,174,174)"/>
<path d="M18 81h6v2h-5v10h5v2h-6v-1h-1v-12h1v-1z" fill="rgb(169,164,128)"/>
<path d="M24 81h6v1h1v12h-1v1h-6v-2h5v-10h-5v-2z" fill="rgb(199,193,151)"/>
<path d="M34 81h12v1h1v12h-1v1h-12v-1h-1v-12h1v-1z" fill="rgb(199,193,151)"/>
<path d="M50 81h12v1h1v12h-1v1h-12v-1h-1v-12h1v-1z" fill="rgb(199,193,151)"/>
<path d="M66 81h12v1h1v12h-1v1h-12v-1h-1v-12h1v-1z" fill="rgb(199,193,151)"/>
<path d="M86 81h5v1h-5v-1z" fill="rgb(205,205,205)"/>
<path d="M84 82h9v1h-9v-1z" fill="rgb(48,48,48)"/>
<path d="M93 82h1v1h-1v-1z" fill="rgb(174,174,174)"/>
<path d="M19 83h5v1h-4v8h4v1h-5v-10z" fill="rgb(174,174,137)"/>
<path d="M24 83h5v10h-5v-1h4v-8h-4v-1z" fill="rgb(204,204,161)"/>
<path d="M35 83h10v10h-10v-10z" fill="rgb(204,204,161)"/>
<path d="M51 83h10v10h-10v-10z" fill="rgb(204,204,161)"/>
<path d="M67 83h10v10h-10v-10z" fill="rgb(204,204,161)"/>
<path d="M20 84h4v8h-4v-8z" fill="rgb(175,160,126)"/>
<path d="M24 84h4v8h-4v-8z" fill="rgb(206,188,148)"/>
<path d="M36 84h8v8h-8v-8z" fill="rgb(206,188,148)"/>
<path d="M52 84h8v8h-8v-8z" fill="rgb(206,188,148)"/>
<path d="M68 84h8v8h-8v-8z" fill="rgb(206,188,148)"/>
<path d="M85 84h7v1h-7v-1z" fill="rgb(104,137,165)"/>
<path d="M82 85h1v1h-1v-1z" fill="rgb(78,102,136)"/>
<path d="M83 85h2v1h-2v-1z" fill="rgb(104,137,165)"/>
<path d="M85 85h7v1h1v5h-1v2h-7v-2h-1v-2h-1v-3h2v-1z" fill="rgb(182,197,212)"/>
<path d="M92 85h1v1h-1v-1z" fill="rgb(104,137,165)"/>
<path d="M93 85h2v1h-2v-1z" fill="rgb(78,102,136)"/>
<path d="M81 86h1v1h-1v-1z" fill="rgb(78,102,136)"/>
<path d="M82 86h1v3h1v2h1v2h7v-2h1v-5h2v8h-1v2h-1v2h-10v-2h-1v-2h-1v-7h1v-1z" fill="rgb(155,173,192)"/>
<path d="M95 86h1v13h-1v-13z" fill="rgb(78,102,136)"/>
<path d="M80 87h1v12h-1v-12z" fill="rgb(78,102,136)"/>
<path d="M81 94h1v2h1v2h10v-2h1v-2h1v5h-1v1h-12v-1h-1v-5z" fill="rgb(134,156,180)"/>
<path d="M18 97h6v2h-5v10h5v2h-6v-1h-1v-12h1v-1z" fill="rgb(169,164,128)"/>
<path d="M24 97h6v1h1v9h-1v2h-1v-10h-5v-2z" fill="rgb(199,193,151)"/>
<path d="M34 97h12v1h1v6h-1v-1h-1v-4h-10v4h-1v1h-1v-6h1v-1z" fill="rgb(199,193,151)"/>
<path d="M50 97h12v1h1v12h-1v1h-11v-2h-1v-2h-1v-9h1v-1z" fill="rgb(199,193,151)"/>
<path d="M66 97h12v1h1v12h-1v1h-12v-1h-1v-12h1v-1z" fill="rgb(199,193,151)"/>
<path d="M19 99h5v1h-4v8h4v1h-5v-10z" fill="rgb(174,174,137)"/>
<path d="M24 99h5v10h-5v-1h4v-8h-4v-1z" fill="rgb(204,204,161)"/>
<path d="M35 99h10v4h-1v-3h-8v3h-1v-4z" fill="rgb(204,204,161)"/>
<path d="M51 99h10v10h-10v-10z" fill="rgb(204,204,161)"/>
<path d="M67 99h10v10h-10v-10z" fill="rgb(204,204,161)"/>
<path d="M81 99h1v1h-1v-1z" fill="rgb(78,102,136)"/>
<path d="M94 99h1v1h-1v-1z" fill="rgb(78,102,136)"/>
<path d="M95 99h1v3h-1v-3z" fill="rgb(153,153,121)"/>
<path d="M20 100h4v8h-4v-8z" fill="rgb(175,160,126)"/>
<path d="M24 100h4v8h-4v-8z" fill="rgb(206,188,148)"/>
<path d="M36 100h8v2h-8v-2z" fill="rgb(206,188,148)"/>
<path d="M52 100h8v8h-8v-8z" fill="rgb(206,188,148)"/>
<path d="M68 100h8v8h-8v-8z" fill="rgb(206,188,148)"/>
<path d="M81 100h1v2h1v2h-1v-1h-1v-3z" fill="rgb(149,145,113)"/>
<path d="M82 100h12v1h-12v-1z" fill="rgb(78,102,136)"/>
<path d="M94 100h1v3h-1v1h-1v-2h1v-2z" fill="rgb(149,145,113)"/>
<path d="M82 101h3v1h-3v-1z" fill="rgb(48,48,48)"/>
<path d="M85 101h6v1h1v2h-8v-2h1v-1z" fill="rgb(154,141,111)"/>
<path d="M91 101h3v1h-3v-1z" fill="rgb(48,48,48)"/>
<path d="M36 102h8v4h-8v-4z" fill="rgb(165,150,118)"/>
<path d="M83 102h1v2h-1v-2z" fill="rgb(153,153,121)"/>
<path d="M92 102h1v2h-1v-2z" fill="rgb(153,153,121)"/>
<path d="M34 103h1v3h-2v-2h1v-1z" fill="rgb(159,154,121)"/>
<path d="M35 103h1v3h-1v-3z" fill="rgb(163,163,129)"/>
<path d="M44 103h1v3h-1v-3z" fill="rgb(163,163,129)"/>
<path d="M45 103h1v1h1v2h-2v-3z" fill="rgb(159,154,121)"/>
<path d="M81 103h1v1h1v5h10v-5h1v-1h1v7h-1v1h-12v-1h-1v-7z" fill="rgb(199,193,151)"/>
<path d="M32 104h1v2h-2v-1h1v-1z" fill="rgb(163,163,129)"/>
<path d="M47 104h1v1h1v1h-2v-2z" fill="rgb(163,163,129)"/>
<path d="M83 104h1v4h8v-4h1v5h-10v-5z" fill="rgb(204,204,161)"/>
<path d="M84 104h8v4h-8v-4z" fill="rgb(206,188,148)"/>
<path d="M31 106h2v2h-2v-2z" fill="rgb(122,122,97)"/>
<path d="M33 106h2v2h-2v-2z" fill="rgb(119,116,91)"/>
<path d="M35 106h1v2h-1v-2z" fill="rgb(122,122,97)"/>
<path d="M36 106h8v2h-8v-2z" fill="rgb(124,113,89)"/>
<path d="M44 106h1v2h-1v-2z" fill="rgb(122,122,97)"/>
<path d="M45 106h2v2h-2v-2z" fill="rgb(119,116,91)"/>
<path d="M47 106h2v2h-2v-2z" fill="rgb(122,122,97)"/>
<path d="M30 107h1v1h-1v-1z" fill="rgb(119,116,91)"/>
<path d="M49 107h1v1h-1v-1z" fill="rgb(119,116,91)"/>
<path d="M30 108h1v2h-2v-1h1v-1z" fill="rgb(80,77,60)"/>
<path d="M31 108h2v2h-2v-2z" fill="rgb(82,82,64)"/>
<path d="M33 108h2v1h10v-1h2v2h-14v-2z" fill="rgb(80,77,60)"/>
<path d="M35 108h10v1h-10v-1z" fill="rgb(82,82,64)"/>
<path d="M47 108h2v2h-2v-2z" fill="rgb(82,82,64)"/>
<path d="M49 108h1v1h1v1h-2v-2z" fill="rgb(80,77,60)"/>
<path d="M24 109h5v2h-5v-2z" fill="rgb(199,193,151)"/>
<path d="M29 110h1v1h-1v-1z" fill="rgb(40,39,30)"/>
<path d="M30 110h4v1h12v-1h4v1h1v1h-22v-1h1v-1z" fill="rgb(41,41,32)"/>
<path d="M34 110h12v1h-12v-1z" fill="rgb(40,39,30)"/>
<path d="M50 110h1v1h-1v-1z" fill="rgb(40,39,30)"/>
<path d="M24 111h5v1h-5v-1z" fill="rgb(204,204,161)"/>
</svg>
