<?xml version="1.0" encoding="utf-8"?>
<!-- generated at drububu.com  -->
<!DOCTYPE svg PUBLIC "-//W3C//DTD SVG 1.1//EN" "http://www.w3.org/Graphics/SVG/1.1/DTD/svg11.dtd">
<svg version="1.1" preserveAspectRatio="xMinYMin meet" xmlns="http://www.w3.org/2000/svg" xmlns:xlink="http://www.w3.org/1999/xlink" x="0px" y="0px" width="112px" height="96px" viewBox="0 0 112 96">
<path d="M0 0h9v96h-9v-96z" fill="rgb(0,0,0)"/>
<path d="M9 0h94v96h-1v-95h-92v95h-1v-96z" fill="rgb(105,105,105)"/>
<path d="M103 0h9v96h-9v-96z" fill="rgb(0,0,0)"/>
<path d="M10 1h92v95h-5v-92h-82v92h-5v-95z" fill="rgb(255,255,255)"/>
<path d="M15 4h82v4h-1v-3h-80v3h-1v-4z" fill="rgb(181,181,181)"/>
<path d="M16 5h80v3h-80v-3z" fill="rgb(238,238,238)"/>
<path d="M15 8h82v88h-1v-87h-80v87h-1v-88z" fill="rgb(130,130,130)"/>
<path d="M16 9h80v1h-79v1h-1v-2z" fill="rgb(85,115,157)"/>
<path d="M17 10h10v1h-10v-1z" fill="rgb(96,111,108)"/>
<path d="M27 10h4v1h-4v-1z" fill="rgb(73,84,82)"/>
<path d="M31 10h2v1h-2v-1z" fill="rgb(132,147,163)"/>
<path d="M33 10h2v1h-2v-1z" fill="rgb(114,133,153)"/>
<path d="M35 10h2v1h-2v-1z" fill="rgb(132,147,163)"/>
<path d="M37 10h2v1h-2v-1z" fill="rgb(114,133,153)"/>
<path d="M39 10h2v1h-2v-1z" fill="rgb(132,147,163)"/>
<path d="M41 10h2v1h-2v-1z" fill="rgb(114,133,153)"/>
<path d="M43 10h2v1h-2v-1z" fill="rgb(132,147,163)"/>
<path d="M45 10h2v1h-2v-1z" fill="rgb(114,133,153)"/>
<path d="M47 10h2v1h-2v-1z" fill="rgb(132,147,163)"/>
<path d="M49 10h2v1h-2v-1z" fill="rgb(114,133,153)"/>
<path d="M51 10h2v1h-2v-1z" fill="rgb(132,147,163)"/>
<path d="M53 10h2v1h-2v-1z" fill="rgb(114,133,153)"/>
<path d="M55 10h2v1h-2v-1z" fill="rgb(132,147,163)"/>
<path d="M57 10h2v1h-2v-1z" fill="rgb(114,133,153)"/>
<path d="M59 10h2v1h-2v-1z" fill="rgb(132,147,163)"/>
<path d="M61 10h2v1h-2v-1z" fill="rgb(114,133,153)"/>
<path d="M63 10h2v1h-2v-1z" fill="rgb(132,147,163)"/>
<path d="M65 10h2v1h-2v-1z" fill="rgb(114,133,153)"/>
<path d="M67 10h2v1h-2v-1z" fill="rgb(132,147,163)"/>
<path d="M69 10h2v1h-2v-1z" fill="rgb(114,133,153)"/>
<path d="M71 10h2v1h-2v-1z" fill="rgb(132,147,163)"/>
<path d="M73 10h2v1h-2v-1z" fill="rgb(114,133,153)"/>
<path d="M75 10h2v1h-2v-1z" fill="rgb(132,147,163)"/>
<path d="M77 10h2v1h-2v-1z" fill="rgb(114,133,153)"/>
<path d="M79 10h2v1h-2v-1z" fill="rgb(132,147,163)"/>
<path d="M81 10h2v1h-2v-1z" fill="rgb(114,133,153)"/>
<path d="M83 10h2v1h-2v-1z" fill="rgb(132,147,163)"/>
<path d="M85 10h2v1h-2v-1z" fill="rgb(114,133,153)"/>
<path d="M87 10h2v1h-2v-1z" fill="rgb(132,147,163)"/>
<path d="M89 10h2v1h-2v-1z" fill="rgb(114,133,153)"/>
<path d="M91 10h2v1h-2v-1z" fill="rgb(132,147,163)"/>
<path d="M93 10h2v1h-2v-1z" fill="rgb(114,133,153)"/>
<path d="M95 10h1v1h-1v-1z" fill="rgb(132,147,163)"/>
<path d="M16 11h1v7h1v1h-1v6h1v1h-1v1h1v1h-1v5h-1v-22z" fill="rgb(96,111,108)"/>
<path d="M17 11h5v1h-3v1h-1v2h-1v-4z" fill="rgb(174,183,170)"/>
<path d="M22 11h4v1h3v1h1v2h1v1h-1v1h-12v-1h-1v-1h1v-2h1v-1h3v-1z" fill="rgb(209,215,206)"/>
<path d="M26 11h5v4h-1v-2h-1v-1h-3v-1z" fill="rgb(174,183,170)"/>
<path d="M31 11h1v28h-1v-28z" fill="rgb(73,84,82)"/>
<path d="M32 11h1v1h1v1h1v8h-2v-8h-1v-2z" fill="rgb(155,173,192)"/>
<path d="M33 11h2v2h-1v-1h-1v-1z" fill="rgb(134,156,180)"/>
<path d="M35 11h2v1h1v1h1v5h-1v3h-1v-8h-1v-1h-1v-1z" fill="rgb(155,173,192)"/>
<path d="M37 11h2v2h-1v-1h-1v-1z" fill="rgb(134,156,180)"/>
<path d="M39 11h2v1h1v1h1v8h-1v-3h-1v-5h-1v-1h-1v-1z" fill="rgb(155,173,192)"/>
<path d="M41 11h2v2h-1v-1h-1v-1z" fill="rgb(134,156,180)"/>
<path d="M43 11h2v1h1v1h1v8h-2v-8h-1v-1h-1v-1z" fill="rgb(155,173,192)"/>
<path d="M45 11h2v2h-1v-1h-1v-1z" fill="rgb(134,156,180)"/>
<path d="M47 11h2v1h1v1h1v10h-1v1h-2v-1h1v-10h-1v-1h-1v-1z" fill="rgb(155,173,192)"/>
<path d="M49 11h2v2h-1v-1h-1v-1z" fill="rgb(134,156,180)"/>
<path d="M51 11h2v1h1v1h1v10h-1v1h-2v-1h1v-10h-1v-1h-1v-1z" fill="rgb(155,173,192)"/>
<path d="M53 11h2v2h-1v-1h-1v-1z" fill="rgb(134,156,180)"/>
<path d="M55 11h2v1h1v1h1v10h-1v1h-2v-1h1v-10h-1v-1h-1v-1z" fill="rgb(155,173,192)"/>
<path d="M57 11h2v2h-1v-1h-1v-1z" fill="rgb(134,156,180)"/>
<path d="M59 11h2v1h1v1h1v10h-1v1h-2v-1h1v-10h-1v-1h-1v-1z" fill="rgb(155,173,192)"/>
<path d="M61 11h2v2h-1v-1h-1v-1z" fill="rgb(134,156,180)"/>
<path d="M63 11h2v2h-1v-1h-1v-1z" fill="rgb(155,173,192)"/>
<path d="M65 11h14v14h-14v-14z" fill="rgb(105,70,35)"/>
<path d="M79 11h2v1h1v1h1v10h-1v1h-2v-1h1v-10h-1v-1h-1v-1z" fill="rgb(155,173,192)"/>
<path d="M81 11h2v2h-1v-1h-1v-1z" fill="rgb(134,156,180)"/>
<path d="M83 11h2v1h1v1h1v10h-1v1h-2v-1h1v-10h-1v-1h-1v-1z" fill="rgb(155,173,192)"/>
<path d="M85 11h2v2h-1v-1h-1v-1z" fill="rgb(134,156,180)"/>
<path d="M87 11h2v1h1v1h1v10h-1v1h-2v-1h1v-10h-1v-1h-1v-1z" fill="rgb(155,173,192)"/>
<path d="M89 11h2v2h-1v-1h-1v-1z" fill="rgb(134,156,180)"/>
<path d="M91 11h2v1h1v1h1v10h-1v1h-2v-1h1v-10h-1v-1h-1v-1z" fill="rgb(155,173,192)"/>
<path d="M93 11h2v2h-1v-1h-1v-1z" fill="rgb(134,156,180)"/>
<path d="M95 11h1v1h-1v-1z" fill="rgb(155,173,192)"/>
<path d="M35 12h1v1h1v8h-2v-9z" fill="rgb(182,197,212)"/>
<path d="M39 12h1v1h1v5h-2v-6z" fill="rgb(182,197,212)"/>
<path d="M43 12h1v1h1v8h-2v-9z" fill="rgb(182,197,212)"/>
<path d="M47 12h1v1h1v10h-1v-1h-1v-10z" fill="rgb(182,197,212)"/>
<path d="M51 12h1v1h1v10h-1v1h-1v-12z" fill="rgb(182,197,212)"/>
<path d="M55 12h1v1h1v10h-1v1h-1v-12z" fill="rgb(182,197,212)"/>
<path d="M59 12h1v1h1v10h-1v1h-1v-12z" fill="rgb(182,197,212)"/>
<path d="M63 12h1v1h1v10h-1v1h-1v-12z" fill="rgb(182,197,212)"/>
<path d="M66 12h12v1h-12v-1z" fill="rgb(203,153,103)"/>
<path d="M79 12h1v12h-1v-12z" fill="rgb(136,148,159)"/>
<path d="M83 12h1v1h1v10h-1v1h-1v-12z" fill="rgb(182,197,212)"/>
<path d="M87 12h1v1h1v10h-1v1h-1v-12z" fill="rgb(182,197,212)"/>
<path d="M91 12h1v1h1v10h-1v1h-1v-12z" fill="rgb(182,197,212)"/>
<path d="M95 12h1v12h-1v-12z" fill="rgb(182,197,212)"/>
<path d="M32 13h1v9h-1v-9z" fill="rgb(182,197,212)"/>
<path d="M66 13h12v11h-12v-11z" fill="rgb(163,108,54)"/>
<path d="M80 13h1v10h-1v-10z" fill="rgb(182,197,212)"/>
<path d="M67 14h4v1h-1v1h2v1h-1v1h-1v1h-1v-2h-1v1h-1v-4z" fill="rgb(169,202,205)"/>
<path d="M71 14h3v1h-1v1h-3v-1h1v-1z" fill="rgb(145,188,191)"/>
<path d="M74 14h1v1h-1v-1z" fill="rgb(169,202,205)"/>
<path d="M75 14h2v2h-3v-1h1v-1z" fill="rgb(145,188,191)"/>
<path d="M73 15h1v1h3v1h-1v1h-1v1h-1v1h-1v1h-1v1h-3v-1h-1v-1h2v-1h1v-1h1v-1h1v-2z" fill="rgb(169,202,205)"/>
<path d="M17 16h1v1h-1v-1z" fill="rgb(146,163,159)"/>
<path d="M30 16h1v1h-1v-1z" fill="rgb(146,163,159)"/>
<path d="M72 16h1v1h-1v-1z" fill="rgb(199,220,222)"/>
<path d="M17 17h1v1h-1v-1z" fill="rgb(209,215,206)"/>
<path d="M18 17h12v1h-12v-1z" fill="rgb(146,163,159)"/>
<path d="M30 17h1v1h-1v-1z" fill="rgb(209,215,206)"/>
<path d="M68 17h1v3h-1v1h-1v-3h1v-1z" fill="rgb(145,188,191)"/>
<path d="M71 17h1v1h-1v-1z" fill="rgb(199,220,222)"/>
<path d="M76 17h1v3h-1v1h-1v1h-3v-1h1v-1h1v-1h1v-1h1v-1z" fill="rgb(199,220,222)"/>
<path d="M18 18h12v1h-12v-1z" fill="rgb(209,215,206)"/>
<path d="M30 18h1v1h-1v-1z" fill="rgb(96,111,108)"/>
<path d="M38 18h4v3h5v1h-6v-1h-2v1h-6v-1h5v-3z" fill="rgb(96,111,108)"/>
<path d="M70 18h1v1h-1v-1z" fill="rgb(199,220,222)"/>
<path d="M17 19h1v1h2v6h-2v-1h-1v-6z" fill="rgb(146,163,159)"/>
<path d="M18 19h3v1h-3v-1z" fill="rgb(96,111,108)"/>
<path d="M21 19h6v1h-6v-1z" fill="rgb(146,163,159)"/>
<path d="M27 19h3v1h-3v-1z" fill="rgb(96,111,108)"/>
<path d="M30 19h1v6h-1v1h-2v-2h1v-1h-1v-3h2v-1z" fill="rgb(146,163,159)"/>
<path d="M39 19h2v1h-2v-1z" fill="rgb(121,140,136)"/>
<path d="M69 19h1v1h-1v-1z" fill="rgb(199,220,222)"/>
<path d="M20 20h8v2h-1v1h-2v1h3v2h-8v-6z" fill="rgb(174,183,170)"/>
<path d="M76 20h1v2h-2v-1h1v-1z" fill="rgb(169,202,205)"/>
<path d="M39 21h2v1h-2v-1z" fill="rgb(121,140,136)"/>
<path d="M67 21h1v1h-1v-1z" fill="rgb(169,202,205)"/>
<path d="M68 21h1v1h-1v-1z" fill="rgb(145,188,191)"/>
<path d="M27 22h1v1h1v1h-4v-1h2v-1z" fill="rgb(96,111,108)"/>
<path d="M32 22h1v10h-1v-10z" fill="rgb(96,111,108)"/>
<path d="M33 22h2v1h-1v1h1v2h10v-2h1v3h-12v2h-1v-7z" fill="rgb(146,163,159)"/>
<path d="M35 22h12v8h-13v-2h1v1h10v-1h1v-4h-1v-1h-10v-1z" fill="rgb(174,183,170)"/>
<path d="M47 22h1v10h-1v-10z" fill="rgb(73,84,82)"/>
<path d="M67 22h10v1h-10v-1z" fill="rgb(203,153,103)"/>
<path d="M34 23h1v1h-1v-1z" fill="rgb(174,183,170)"/>
<path d="M35 23h10v1h-10v-1z" fill="rgb(146,163,159)"/>
<path d="M50 23h1v1h-1v-1z" fill="rgb(134,156,180)"/>
<path d="M54 23h1v1h-1v-1z" fill="rgb(134,156,180)"/>
<path d="M58 23h1v1h-1v-1z" fill="rgb(134,156,180)"/>
<path d="M62 23h1v1h-1v-1z" fill="rgb(134,156,180)"/>
<path d="M64 23h1v1h-1v-1z" fill="rgb(155,173,192)"/>
<path d="M82 23h1v1h-1v-1z" fill="rgb(134,156,180)"/>
<path d="M86 23h1v1h-1v-1z" fill="rgb(134,156,180)"/>
<path d="M90 23h1v1h-1v-1z" fill="rgb(134,156,180)"/>
<path d="M94 23h1v1h-1v-1z" fill="rgb(134,156,180)"/>
<path d="M35 24h10v2h-10v-2z" fill="rgb(174,183,170)"/>
<path d="M48 24h1v1h-1v-1z" fill="rgb(182,197,212)"/>
<path d="M49 24h1v1h1v4h-2v-5z" fill="rgb(134,156,180)"/>
<path d="M50 24h2v1h1v4h-2v-4h-1v-1z" fill="rgb(155,173,192)"/>
<path d="M52 24h1v1h-1v-1z" fill="rgb(182,197,212)"/>
<path d="M53 24h1v1h1v4h-2v-5z" fill="rgb(134,156,180)"/>
<path d="M54 24h2v1h1v4h-2v-4h-1v-1z" fill="rgb(155,173,192)"/>
<path d="M56 24h1v1h-1v-1z" fill="rgb(182,197,212)"/>
<path d="M57 24h1v1h1v4h-2v-5z" fill="rgb(134,156,180)"/>
<path d="M58 24h2v1h1v4h-2v-4h-1v-1z" fill="rgb(155,173,192)"/>
<path d="M60 24h1v1h-1v-1z" fill="rgb(182,197,212)"/>
<path d="M61 24h1v1h1v4h-2v-5z" fill="rgb(134,156,180)"/>
<path d="M62 24h2v1h1v4h-2v-4h-1v-1z" fill="rgb(155,173,192)"/>
<path d="M64 24h1v1h-1v-1z" fill="rgb(182,197,212)"/>
<path d="M79 24h1v1h-1v-1z" fill="rgb(116,130,144)"/>
<path d="M80 24h16v12h-1v3h-1v-3h-2v3h-1v-3h-6v3h-1v-3h-2v3h-1v-3h-1v-12z" fill="rgb(105,70,35)"/>
<path d="M30 25h1v1h-1v-1z" fill="rgb(96,111,108)"/>
<path d="M48 25h1v4h-1v-4z" fill="rgb(155,173,192)"/>
<path d="M65 25h1v1h1v3h-2v-4z" fill="rgb(134,156,180)"/>
<path d="M66 25h1v1h-1v-1z" fill="rgb(100,117,135)"/>
<path d="M67 25h2v1h-2v-1z" fill="rgb(116,130,144)"/>
<path d="M69 25h2v1h-2v-1z" fill="rgb(100,117,135)"/>
<path d="M71 25h2v1h-2v-1z" fill="rgb(116,130,144)"/>
<path d="M73 25h2v1h-2v-1z" fill="rgb(100,117,135)"/>
<path d="M75 25h2v1h-2v-1z" fill="rgb(116,130,144)"/>
<path d="M77 25h2v1h-2v-1z" fill="rgb(100,117,135)"/>
<path d="M79 25h1v4h-1v-4z" fill="rgb(155,173,192)"/>
<path d="M81 25h14v7h-14v-7z" fill="rgb(190,126,63)"/>
<path d="M17 26h1v1h-1v-1z" fill="rgb(209,215,206)"/>
<path d="M18 26h12v1h-12v-1z" fill="rgb(96,111,108)"/>
<path d="M30 26h1v1h-1v-1z" fill="rgb(209,215,206)"/>
<path d="M67 26h2v3h-2v-3z" fill="rgb(155,173,192)"/>
<path d="M69 26h2v3h-2v-3z" fill="rgb(134,156,180)"/>
<path d="M71 26h2v3h-2v-3z" fill="rgb(155,173,192)"/>
<path d="M73 26h2v3h-2v-3z" fill="rgb(134,156,180)"/>
<path d="M75 26h2v3h-2v-3z" fill="rgb(155,173,192)"/>
<path d="M77 26h2v3h-2v-3z" fill="rgb(134,156,180)"/>
<path d="M18 27h12v1h-12v-1z" fill="rgb(209,215,206)"/>
<path d="M30 27h1v1h-1v-1z" fill="rgb(96,111,108)"/>
<path d="M34 27h1v1h-1v-1z" fill="rgb(96,111,108)"/>
<path d="M35 27h10v1h-10v-1z" fill="rgb(121,140,136)"/>
<path d="M45 27h1v1h-1v-1z" fill="rgb(96,111,108)"/>
<path d="M17 28h1v1h2v8h1v1h6v-1h1v-4h1v-1h-1v-3h2v-1h1v11h-1v1h-12v-1h-1v-11z" fill="rgb(146,163,159)"/>
<path d="M18 28h3v1h-3v-1z" fill="rgb(96,111,108)"/>
<path d="M21 28h6v1h-6v-1z" fill="rgb(146,163,159)"/>
<path d="M27 28h3v1h-3v-1z" fill="rgb(96,111,108)"/>
<path d="M35 28h10v1h-10v-1z" fill="rgb(96,111,108)"/>
<path d="M20 29h8v2h-1v1h-2v1h3v4h-1v1h-6v-1h-1v-8z" fill="rgb(174,183,170)"/>
<path d="M33 29h1v1h-1v-1z" fill="rgb(209,215,206)"/>
<path d="M48 29h32v1h-32v-1z" fill="rgb(78,102,136)"/>
<path d="M33 30h1v1h-1v-1z" fill="rgb(174,183,170)"/>
<path d="M34 30h13v1h-13v-1z" fill="rgb(209,215,206)"/>
<path d="M48 30h32v1h-32v-1z" fill="rgb(104,137,165)"/>
<path d="M27 31h1v1h1v1h-4v-1h2v-1z" fill="rgb(96,111,108)"/>
<path d="M33 31h14v1h-14v-1z" fill="rgb(146,163,159)"/>
<path d="M48 31h32v1h-32v-1z" fill="rgb(130,130,130)"/>
<path d="M32 32h1v1h-1v-1z" fill="rgb(174,174,137)"/>
<path d="M33 32h14v1h-14v-1z" fill="rgb(73,84,82)"/>
<path d="M47 32h2v8h-2v-8z" fill="rgb(130,130,103)"/>
<path d="M49 32h31v8h-1v-6h-1v-1h-12v1h-1v6h-2v-6h-1v-1h-12v1h-1v-2z" fill="rgb(174,174,137)"/>
<path d="M81 32h14v1h-14v-1z" fill="rgb(203,153,103)"/>
<path d="M16 33h1v6h-1v-6z" fill="rgb(73,84,82)"/>
<path d="M32 33h1v7h-2v-1h1v-6z" fill="rgb(130,130,103)"/>
<path d="M33 33h1v6h-1v-6z" fill="rgb(105,70,35)"/>
<path d="M34 33h12v2h-1v-1h-10v4h10v-1h1v2h-12v-6z" fill="rgb(163,108,54)"/>
<path d="M46 33h1v6h-1v-6z" fill="rgb(105,70,35)"/>
<path d="M50 33h12v1h1v6h-2v-5h-10v5h-2v-6h1v-1z" fill="rgb(169,164,128)"/>
<path d="M66 33h12v1h1v6h-2v-5h-10v5h-2v-6h1v-1z" fill="rgb(169,164,128)"/>
<path d="M81 33h14v1h-14v-1z" fill="rgb(163,108,54)"/>
<path d="M35 34h10v1h-10v-1z" fill="rgb(203,153,103)"/>
<path d="M81 34h14v1h-14v-1z" fill="rgb(133,88,44)"/>
<path d="M35 35h1v1h1v-1h6v1h1v-1h1v2h-10v-2z" fill="rgb(190,126,63)"/>
<path d="M36 35h1v1h-1v-1z" fill="rgb(133,88,44)"/>
<path d="M43 35h1v1h-1v-1z" fill="rgb(133,88,44)"/>
<path d="M45 35h1v2h-1v-2z" fill="rgb(133,88,44)"/>
<path d="M51 35h10v5h-1v-4h-8v4h-1v-5z" fill="rgb(174,174,137)"/>
<path d="M67 35h10v5h-1v-4h-8v4h-1v-5z" fill="rgb(174,174,137)"/>
<path d="M52 36h8v4h-8v-4z" fill="rgb(175,160,126)"/>
<path d="M68 36h8v4h-8v-4z" fill="rgb(175,160,126)"/>
<path d="M80 36h1v4h-1v-4z" fill="rgb(130,130,103)"/>
<path d="M82 36h2v1h-2v-1z" fill="rgb(133,88,44)"/>
<path d="M85 36h6v3h-6v-3z" fill="rgb(131,120,94)"/>
<path d="M92 36h2v1h-2v-1z" fill="rgb(133,88,44)"/>
<path d="M95 36h1v4h-1v-4z" fill="rgb(130,130,103)"/>
<path d="M35 37h10v1h-10v-1z" fill="rgb(133,88,44)"/>
<path d="M82 37h2v1h-2v-1z" fill="rgb(163,108,54)"/>
<path d="M92 37h2v1h-2v-1z" fill="rgb(163,108,54)"/>
<path d="M82 38h2v1h-2v-1z" fill="rgb(190,126,63)"/>
<path d="M92 38h2v1h-2v-1z" fill="rgb(190,126,63)"/>
<path d="M16 39h1v3h-1v-3z" fill="rgb(130,130,103)"/>
<path d="M17 39h1v1h-1v-1z" fill="rgb(73,84,82)"/>
<path d="M30 39h1v1h-1v-1z" fill="rgb(73,84,82)"/>
<path d="M33 39h1v1h-1v-1z" fill="rgb(95,92,72)"/>
<path d="M34 39h12v1h-12v-1z" fill="rgb(105,70,35)"/>
<path d="M46 39h1v1h-1v-1z" fill="rgb(127,123,96)"/>
<path d="M81 39h1v1h-1v-1z" fill="rgb(127,123,96)"/>
<path d="M82 39h2v1h-2v-1z" fill="rgb(105,70,35)"/>
<path d="M84 39h9v1h-9v-1z" fill="rgb(95,89,54)"/>
<path d="M93 39h1v1h-1v-1z" fill="rgb(105,70,35)"/>
<path d="M94 39h1v1h-1v-1z" fill="rgb(127,123,96)"/>
<path d="M17 40h1v1h1v2h-2v-3z" fill="rgb(127,123,96)"/>
<path d="M18 40h12v1h-12v-1z" fill="rgb(73,84,82)"/>
<path d="M30 40h1v3h-2v-2h1v-1z" fill="rgb(149,145,113)"/>
<path d="M31 40h1v2h-1v-2z" fill="rgb(153,153,121)"/>
<path d="M32 40h1v1h-1v-1z" fill="rgb(115,115,91)"/>
<path d="M33 40h2v2h-1v-1h-1v-1z" fill="rgb(149,145,113)"/>
<path d="M35 40h1v2h-1v-2z" fill="rgb(153,153,121)"/>
<path d="M36 40h8v2h-8v-2z" fill="rgb(154,141,111)"/>
<path d="M44 40h1v2h-1v-2z" fill="rgb(153,153,121)"/>
<path d="M45 40h2v2h-2v-2z" fill="rgb(149,145,113)"/>
<path d="M47 40h1v1h-1v-1z" fill="rgb(153,153,121)"/>
<path d="M48 40h1v6h1v1h12v-1h1v-6h2v6h1v1h12v-1h1v-6h1v1h1v5h1v1h1v2h-1v1h-1v12h-1v8h-1
	v-4h-1v-1h-12v1h-1v12h1v1h12v-1h1v4h-1v-1h-12v1h-1v12h1v1h12v-1h1v-10h1v1h1v9
	h1v1h12v-1h1v-8h1v10h-45v-1h11v-1h1v-12h-1v-1h-12v1h-1v7h-1v-1h-1v-6h-1v-1h-12
	v1h-1v6h-1v1h-1v-7h-1v-1h-6v-2h6v-1h1v-12h-1v-1h-6v-2h6v-1h1v-12h-1v-1h-6v-2h6
	v-1h1v-4h1v-1h1v5h1v1h12v-1h1v-5h1v-1z" fill="rgb(204,204,161)"/>
<path d="M49 40h2v5h10v-5h2v6h-1v1h-12v-1h-1v-6z" fill="rgb(199,193,151)"/>
<path d="M51 40h1v4h8v-4h1v5h-10v-5z" fill="rgb(204,204,161)"/>
<path d="M52 40h8v4h-8v-4z" fill="rgb(206,188,148)"/>
<path d="M65 40h2v5h10v-5h2v6h-1v1h-12v-1h-1v-6z" fill="rgb(199,193,151)"/>
<path d="M67 40h1v4h8v-4h1v5h-10v-5z" fill="rgb(204,204,161)"/>
<path d="M68 40h8v4h-8v-4z" fill="rgb(206,188,148)"/>
<path d="M80 40h1v1h-1v-1z" fill="rgb(153,153,121)"/>
<path d="M81 40h2v1h-1v1h-1v-2z" fill="rgb(149,145,113)"/>
<path d="M83 40h1v1h-1v-1z" fill="rgb(95,89,54)"/>
<path d="M84 40h2v1h-1v1h-2v-1h1v-1z" fill="rgb(182,170,115)"/>
<path d="M86 40h5v1h1v1h2v2h-2v1h-1v1h-5v-1h-1v-1h-2v-2h2v-1h1v-1z" fill="rgb(198,194,139)"/>
<path d="M91 40h2v1h1v1h-2v-1h-1v-1z" fill="rgb(182,170,115)"/>
<path d="M93 40h1v1h-1v-1z" fill="rgb(95,89,54)"/>
<path d="M94 40h1v1h-1v-1z" fill="rgb(149,145,113)"/>
<path d="M95 40h1v2h-1v-2z" fill="rgb(153,153,121)"/>
<path d="M19 41h1v2h-1v-2z" fill="rgb(130,130,103)"/>
<path d="M20 41h4v2h-4v-2z" fill="rgb(131,120,94)"/>
<path d="M24 41h4v2h-4v-2z" fill="rgb(154,141,111)"/>
<path d="M28 41h1v2h-1v-2z" fill="rgb(153,153,121)"/>
<path d="M33 41h1v1h1v3h10v-3h2v4h-1v1h-12v-1h-1v-5z" fill="rgb(199,193,151)"/>
<path d="M82 41h1v6h-1v-6z" fill="rgb(95,89,54)"/>
<path d="M88 41h1v1h1v1h-1v1h-1v-1h-1v-1h1v-1z" fill="rgb(182,170,115)"/>
<path d="M94 41h1v6h-1v-6z" fill="rgb(95,89,54)"/>
<path d="M16 42h1v4h1v1h6v2h-6v1h-1v12h1v1h6v2h-6v1h-1v12h1v1h6v2h-6v1h-1v12h1v1h6v1h-8
	v-54z" fill="rgb(174,174,137)"/>
<path d="M35 42h1v2h8v-2h1v3h-10v-3z" fill="rgb(204,204,161)"/>
<path d="M36 42h8v2h-8v-2z" fill="rgb(206,188,148)"/>
<path d="M81 42h1v4h-1v-4z" fill="rgb(199,193,151)"/>
<path d="M95 42h1v13h-1v-13z" fill="rgb(204,204,161)"/>
<path d="M17 43h2v2h5v2h-6v-1h-1v-3z" fill="rgb(169,164,128)"/>
<path d="M19 43h1v1h4v1h-5v-2z" fill="rgb(174,174,137)"/>
<path d="M20 43h4v1h-4v-1z" fill="rgb(175,160,126)"/>
<path d="M24 43h4v1h-4v-1z" fill="rgb(206,188,148)"/>
<path d="M28 43h1v2h-5v-1h4v-1z" fill="rgb(204,204,161)"/>
<path d="M29 43h2v3h-1v1h-6v-2h5v-2z" fill="rgb(199,193,151)"/>
<path d="M83 44h2v1h1v1h-2v-1h-1v-1z" fill="rgb(182,170,115)"/>
<path d="M92 44h2v1h-1v1h-2v-1h1v-1z" fill="rgb(182,170,115)"/>
<path d="M83 45h1v1h9v-1h1v2h-3v1h-5v-1h-3v-2z" fill="rgb(151,141,86)"/>
<path d="M83 47h3v1h-3v-1z" fill="rgb(95,89,54)"/>
<path d="M91 47h3v1h-3v-1z" fill="rgb(95,89,54)"/>
<path d="M94 47h1v3h-1v-3z" fill="rgb(153,153,121)"/>
<path d="M83 48h1v2h-1v-2z" fill="rgb(105,70,35)"/>
<path d="M84 48h2v1h-2v-1z" fill="rgb(133,88,44)"/>
<path d="M86 48h5v1h-5v-1z" fill="rgb(95,89,54)"/>
<path d="M91 48h2v1h-2v-1z" fill="rgb(133,88,44)"/>
<path d="M93 48h1v2h-1v-2z" fill="rgb(105,70,35)"/>
<path d="M18 49h6v2h-5v10h5v2h-6v-1h-1v-12h1v-1z" fill="rgb(169,164,128)"/>
<path d="M24 49h6v1h1v12h-1v1h-6v-2h5v-10h-5v-2z" fill="rgb(199,193,151)"/>
<path d="M34 49h12v1h1v12h-1v1h-12v-1h-1v-12h1v-1z" fill="rgb(199,193,151)"/>
<path d="M50 49h12v1h1v12h-1v1h-12v-1h-1v-12h1v-1z" fill="rgb(199,193,151)"/>
<path d="M66 49h12v1h1v12h-1v1h-12v-1h-1v-12h1v-1z" fill="rgb(199,193,151)"/>
<path d="M82 49h1v5h-1v1h-1v-5h1v-1z" fill="rgb(199,193,151)"/>
<path d="M84 49h2v1h-2v-1z" fill="rgb(163,108,54)"/>
<path d="M86 49h1v1h-1v-1z" fill="rgb(105,70,35)"/>
<path d="M87 49h3v1h-3v-1z" fill="rgb(149,145,113)"/>
<path d="M90 49h1v1h-1v-1z" fill="rgb(105,70,35)"/>
<path d="M91 49h2v1h-2v-1z" fill="rgb(163,108,54)"/>
<path d="M83 50h1v1h-1v-1z" fill="rgb(149,145,113)"/>
<path d="M84 50h2v1h-2v-1z" fill="rgb(105,70,35)"/>
<path d="M86 50h1v1h-1v-1z" fill="rgb(149,145,113)"/>
<path d="M87 50h3v1h-3v-1z" fill="rgb(199,193,151)"/>
<path d="M90 50h1v1h-1v-1z" fill="rgb(149,145,113)"/>
<path d="M91 50h2v1h-2v-1z" fill="rgb(105,70,35)"/>
<path d="M93 50h1v1h-1v-1z" fill="rgb(149,145,113)"/>
<path d="M94 50h1v4h-2v-3h1v-1z" fill="rgb(199,193,151)"/>
<path d="M19 51h5v1h-4v8h4v1h-5v-10z" fill="rgb(174,174,137)"/>
<path d="M24 51h5v10h-5v-1h4v-8h-4v-1z" fill="rgb(204,204,161)"/>
<path d="M35 51h10v10h-10v-10z" fill="rgb(204,204,161)"/>
<path d="M51 51h10v10h-10v-10z" fill="rgb(204,204,161)"/>
<path d="M67 51h10v10h-10v-10z" fill="rgb(204,204,161)"/>
<path d="M83 51h1v3h-1v-3z" fill="rgb(204,204,161)"/>
<path d="M84 51h2v1h-2v-1z" fill="rgb(153,153,121)"/>
<path d="M86 51h5v1h-5v-1z" fill="rgb(204,204,161)"/>
<path d="M91 51h2v1h-2v-1z" fill="rgb(153,153,121)"/>
<path d="M20 52h4v8h-4v-8z" fill="rgb(175,160,126)"/>
<path d="M24 52h4v8h-4v-8z" fill="rgb(206,188,148)"/>
<path d="M36 52h8v8h-8v-8z" fill="rgb(206,188,148)"/>
<path d="M52 52h8v8h-8v-8z" fill="rgb(206,188,148)"/>
<path d="M68 52h8v8h-8v-8z" fill="rgb(206,188,148)"/>
<path d="M84 52h8v1h-8v-1z" fill="rgb(206,188,148)"/>
<path d="M92 52h1v1h-1v-1z" fill="rgb(204,204,161)"/>
<path d="M84 53h9v1h-9v-1z" fill="rgb(83,83,83)"/>
<path d="M82 54h2v1h-2v-1z" fill="rgb(83,83,83)"/>
<path d="M84 54h2v1h-2v-1z" fill="rgb(129,129,121)"/>
<path d="M86 54h5v1h2v1h-9v-1h2v-1z" fill="rgb(147,156,156)"/>
<path d="M91 54h2v1h-2v-1z" fill="rgb(129,129,121)"/>
<path d="M93 54h2v1h-2v-1z" fill="rgb(83,83,83)"/>
<path d="M81 55h1v6h-1v-6z" fill="rgb(83,83,83)"/>
<path d="M82 55h2v2h-1v-1h-1v-1z" fill="rgb(167,174,174)"/>
<path d="M93 55h2v1h-1v1h-1v-2z" fill="rgb(167,174,174)"/>
<path d="M95 55h1v6h-1v-6z" fill="rgb(83,83,83)"/>
<path d="M82 56h1v1h-1v-1z" fill="rgb(147,156,156)"/>
<path d="M84 56h9v1h-9v-1z" fill="rgb(83,83,83)"/>
<path d="M94 56h1v1h-1v-1z" fill="rgb(147,156,156)"/>
<path d="M82 57h1v3h-1v-3z" fill="rgb(129,129,121)"/>
<path d="M83 57h1v2h-1v-2z" fill="rgb(83,83,83)"/>
<path d="M84 57h8v1h-8v-1z" fill="rgb(206,188,148)"/>
<path d="M92 57h1v1h-1v-1z" fill="rgb(204,204,161)"/>
<path d="M93 57h1v2h-1v-2z" fill="rgb(83,83,83)"/>
<path d="M94 57h1v3h-1v-3z" fill="rgb(129,129,121)"/>
<path d="M84 58h9v1h-9v-1z" fill="rgb(48,48,48)"/>
<path d="M83 59h1v7h-1v-5h-1v-1h1v-1z" fill="rgb(48,48,48)"/>
<path d="M84 59h2v1h-1v1h-1v-2z" fill="rgb(174,174,174)"/>
<path d="M86 59h1v1h-1v-1z" fill="rgb(205,205,205)"/>
<path d="M87 59h3v1h2v1h1v2h-1v1h-1v1h-5v-1h-1v-1h-1v-2h1v-1h2v-1z" fill="rgb(238,238,238)"/>
<path d="M90 59h1v1h-1v-1z" fill="rgb(205,205,205)"/>
<path d="M91 59h2v2h-1v-1h-1v-1z" fill="rgb(174,174,174)"/>
<path d="M93 59h1v1h1v1h-1v5h-1v-7z" fill="rgb(48,48,48)"/>
<path d="M81 61h1v9h-1v-9z" fill="rgb(48,48,48)"/>
<path d="M82 61h1v1h-1v-1z" fill="rgb(174,174,174)"/>
<path d="M94 61h1v5h-1v-5z" fill="rgb(174,174,174)"/>
<path d="M95 61h1v9h-1v-9z" fill="rgb(48,48,48)"/>
<path d="M80 62h1v9h-1v12h1v2h-1v-1h-1v-14h1v-8z" fill="rgb(153,153,121)"/>
<path d="M82 62h1v4h1v1h10v-1h1v3h-3v-1h-7v1h-3v-7z" fill="rgb(205,205,205)"/>
<path d="M87 62h3v1h-1v1h-1v-1h-1v-1z" fill="rgb(205,205,205)"/>
<path d="M84 63h1v1h-1v-1z" fill="rgb(205,205,205)"/>
<path d="M92 63h1v1h-1v-1z" fill="rgb(205,205,205)"/>
<path d="M84 64h1v1h1v1h-2v-2z" fill="rgb(174,174,174)"/>
<path d="M85 64h1v1h-1v-1z" fill="rgb(205,205,205)"/>
<path d="M91 64h1v1h-1v-1z" fill="rgb(205,205,205)"/>
<path d="M92 64h1v2h-2v-1h1v-1z" fill="rgb(174,174,174)"/>
<path d="M18 65h6v2h-5v10h5v2h-6v-1h-1v-12h1v-1z" fill="rgb(169,164,128)"/>
<path d="M24 65h6v1h1v12h-1v1h-6v-2h5v-10h-5v-2z" fill="rgb(199,193,151)"/>
<path d="M34 65h12v1h1v12h-1v1h-12v-1h-1v-12h1v-1z" fill="rgb(199,193,151)"/>
<path d="M50 65h12v1h1v12h-1v1h-12v-1h-1v-12h1v-1z" fill="rgb(199,193,151)"/>
<path d="M66 65h12v1h1v12h-1v1h-12v-1h-1v-12h1v-1z" fill="rgb(199,193,151)"/>
<path d="M86 65h5v1h-5v-1z" fill="rgb(205,205,205)"/>
<path d="M84 66h9v1h-9v-1z" fill="rgb(48,48,48)"/>
<path d="M93 66h1v1h-1v-1z" fill="rgb(174,174,174)"/>
<path d="M19 67h5v1h-4v8h4v1h-5v-10z" fill="rgb(174,174,137)"/>
<path d="M24 67h5v10h-5v-1h4v-8h-4v-1z" fill="rgb(204,204,161)"/>
<path d="M35 67h10v10h-10v-10z" fill="rgb(204,204,161)"/>
<path d="M51 67h10v10h-10v-10z" fill="rgb(204,204,161)"/>
<path d="M67 67h10v10h-10v-10z" fill="rgb(204,204,161)"/>
<path d="M20 68h4v8h-4v-8z" fill="rgb(175,160,126)"/>
<path d="M24 68h4v8h-4v-8z" fill="rgb(206,188,148)"/>
<path d="M36 68h8v8h-8v-8z" fill="rgb(206,188,148)"/>
<path d="M52 68h8v8h-8v-8z" fill="rgb(206,188,148)"/>
<path d="M68 68h8v8h-8v-8z" fill="rgb(206,188,148)"/>
<path d="M85 68h7v1h-7v-1z" fill="rgb(104,137,165)"/>
<path d="M82 69h1v1h-1v-1z" fill="rgb(78,102,136)"/>
<path d="M83 69h2v1h-2v-1z" fill="rgb(104,137,165)"/>
<path d="M85 69h7v1h1v5h-1v2h-7v-2h-1v-2h-1v-3h2v-1z" fill="rgb(182,197,212)"/>
<path d="M92 69h1v1h-1v-1z" fill="rgb(104,137,165)"/>
<path d="M93 69h2v1h-2v-1z" fill="rgb(78,102,136)"/>
<path d="M81 70h1v1h-1v-1z" fill="rgb(78,102,136)"/>
<path d="M82 70h1v3h1v2h1v2h7v-2h1v-5h2v8h-1v2h-1v2h-10v-2h-1v-2h-1v-7h1v-1z" fill="rgb(155,173,192)"/>
<path d="M95 70h1v13h-1v-13z" fill="rgb(78,102,136)"/>
<path d="M80 71h1v12h-1v-12z" fill="rgb(78,102,136)"/>
<path d="M81 78h1v2h1v2h10v-2h1v-2h1v5h-1v1h-12v-1h-1v-5z" fill="rgb(134,156,180)"/>
<path d="M18 81h6v2h-5v10h5v2h-6v-1h-1v-12h1v-1z" fill="rgb(169,164,128)"/>
<path d="M24 81h6v1h1v9h-1v2h-1v-10h-5v-2z" fill="rgb(199,193,151)"/>
<path d="M34 81h12v1h1v6h-1v-1h-1v-4h-10v4h-1v1h-1v-6h1v-1z" fill="rgb(199,193,151)"/>
<path d="M50 81h12v1h1v12h-1v1h-11v-2h-1v-2h-1v-9h1v-1z" fill="rgb(199,193,151)"/>
<path d="M66 81h12v1h1v12h-1v1h-12v-1h-1v-12h1v-1z" fill="rgb(199,193,151)"/>
<path d="M19 83h5v1h-4v8h4v1h-5v-10z" fill="rgb(174,174,137)"/>
<path d="M24 83h5v10h-5v-1h4v-8h-4v-1z" fill="rgb(204,204,161)"/>
<path d="M35 83h10v4h-1v-3h-8v3h-1v-4z" fill="rgb(204,204,161)"/>
<path d="M51 83h10v10h-10v-10z" fill="rgb(204,204,161)"/>
<path d="M67 83h10v10h-10v-10z" fill="rgb(204,204,161)"/>
<path d="M81 83h1v1h-1v-1z" fill="rgb(78,102,136)"/>
<path d="M94 83h1v1h-1v-1z" fill="rgb(78,102,136)"/>
<path d="M95 83h1v3h-1v-3z" fill="rgb(153,153,121)"/>
<path d="M20 84h4v8h-4v-8z" fill="rgb(175,160,126)"/>
<path d="M24 84h4v8h-4v-8z" fill="rgb(206,188,148)"/>
<path d="M36 84h8v2h-8v-2z" fill="rgb(206,188,148)"/>
<path d="M52 84h8v8h-8v-8z" fill="rgb(206,188,148)"/>
<path d="M68 84h8v8h-8v-8z" fill="rgb(206,188,148)"/>
<path d="M81 84h1v2h1v2h-1v-1h-1v-3z" fill="rgb(149,145,113)"/>
<path d="M82 84h12v1h-12v-1z" fill="rgb(78,102,136)"/>
<path d="M94 84h1v3h-1v1h-1v-2h1v-2z" fill="rgb(149,145,113)"/>
<path d="M82 85h3v1h-3v-1z" fill="rgb(48,48,48)"/>
<path d="M85 85h6v1h1v2h-8v-2h1v-1z" fill="rgb(154,141,111)"/>
<path d="M91 85h3v1h-3v-1z" fill="rgb(48,48,48)"/>
<path d="M36 86h8v4h-8v-4z" fill="rgb(165,150,118)"/>
<path d="M83 86h1v2h-1v-2z" fill="rgb(153,153,121)"/>
<path d="M92 86h1v2h-1v-2z" fill="rgb(153,153,121)"/>
<path d="M34 87h1v3h-2v-2h1v-1z" fill="rgb(159,154,121)"/>
<path d="M35 87h1v3h-1v-3z" fill="rgb(163,163,129)"/>
<path d="M44 87h1v3h-1v-3z" fill="rgb(163,163,129)"/>
<path d="M45 87h1v1h1v2h-2v-3z" fill="rgb(159,154,121)"/>
<path d="M81 87h1v1h1v5h10v-5h1v-1h1v7h-1v1h-12v-1h-1v-7z" fill="rgb(199,193,151)"/>
<path d="M32 88h1v2h-2v-1h1v-1z" fill="rgb(163,163,129)"/>
<path d="M47 88h1v1h1v1h-2v-2z" fill="rgb(163,163,129)"/>
<path d="M83 88h1v4h8v-4h1v5h-10v-5z" fill="rgb(204,204,161)"/>
<path d="M84 88h8v4h-8v-4z" fill="rgb(206,188,148)"/>
<path d="M31 90h2v2h-2v-2z" fill="rgb(122,122,97)"/>
<path d="M33 90h2v2h-2v-2z" fill="rgb(119,116,91)"/>
<path d="M35 90h1v2h-1v-2z" fill="rgb(122,122,97)"/>
<path d="M36 90h8v2h-8v-2z" fill="rgb(124,113,89)"/>
<path d="M44 90h1v2h-1v-2z" fill="rgb(122,122,97)"/>
<path d="M45 90h2v2h-2v-2z" fill="rgb(119,116,91)"/>
<path d="M47 90h2v2h-2v-2z" fill="rgb(122,122,97)"/>
<path d="M30 91h1v1h-1v-1z" fill="rgb(119,116,91)"/>
<path d="M49 91h1v1h-1v-1z" fill="rgb(119,116,91)"/>
<path d="M30 92h1v2h-2v-1h1v-1z" fill="rgb(80,77,60)"/>
<path d="M31 92h2v2h-2v-2z" fill="rgb(82,82,64)"/>
<path d="M33 92h2v1h10v-1h2v2h-14v-2z" fill="rgb(80,77,60)"/>
<path d="M35 92h10v1h-10v-1z" fill="rgb(82,82,64)"/>
<path d="M47 92h2v2h-2v-2z" fill="rgb(82,82,64)"/>
<path d="M49 92h1v1h1v1h-2v-2z" fill="rgb(80,77,60)"/>
<path d="M24 93h5v2h-5v-2z" fill="rgb(199,193,151)"/>
<path d="M29 94h1v1h-1v-1z" fill="rgb(40,39,30)"/>
<path d="M30 94h4v1h12v-1h4v1h1v1h-22v-1h1v-1z" fill="rgb(41,41,32)"/>
<path d="M34 94h12v1h-12v-1z" fill="rgb(40,39,30)"/>
<path d="M50 94h1v1h-1v-1z" fill="rgb(40,39,30)"/>
<path d="M24 95h5v1h-5v-1z" fill="rgb(204,204,161)"/>
</svg>
