<?xml version="1.0" encoding="utf-8"?>
<!-- generated at drububu.com  -->
<!DOCTYPE svg PUBLIC "-//W3C//DTD SVG 1.1//EN" "http://www.w3.org/Graphics/SVG/1.1/DTD/svg11.dtd">
<svg version="1.1" preserveAspectRatio="xMinYMin meet" xmlns="http://www.w3.org/2000/svg" xmlns:xlink="http://www.w3.org/1999/xlink" x="0px" y="0px" width="80px" height="96px" viewBox="0 0 80 96">
<path d="M0 0h80v1h-80v-1z" fill="rgb(130,130,130)"/>
<path d="M0 1h80v2h-80v-2z" fill="rgb(238,238,238)"/>
<path d="M0 3h80v1h-80v-1z" fill="rgb(255,255,255)"/>
<path d="M0 4h80v1h-80v-1z" fill="rgb(130,130,130)"/>
<path d="M0 5h80v1h-80v-1z" fill="rgb(85,115,157)"/>
<path d="M0 6h80v1h-80v-1z" fill="rgb(75,72,74)"/>
<path d="M0 7h1v3h-1v-3z" fill="rgb(155,173,192)"/>
<path d="M1 7h2v2h-2v-2z" fill="rgb(134,156,180)"/>
<path d="M3 7h2v2h-2v-2z" fill="rgb(155,173,192)"/>
<path d="M5 7h2v2h-2v-2z" fill="rgb(134,156,180)"/>
<path d="M7 7h2v2h-2v-2z" fill="rgb(155,173,192)"/>
<path d="M9 7h2v2h-2v-2z" fill="rgb(134,156,180)"/>
<path d="M11 7h2v2h-2v-2z" fill="rgb(155,173,192)"/>
<path d="M13 7h2v2h-2v-2z" fill="rgb(134,156,180)"/>
<path d="M15 7h2v2h1v1h1v11h-2v-11h-1v-1h-1v-2z" fill="rgb(155,173,192)"/>
<path d="M17 7h2v3h-1v-1h-1v-2z" fill="rgb(134,156,180)"/>
<path d="M19 7h2v2h1v1h1v8h-1v3h-1v-11h-1v-1h-1v-2z" fill="rgb(155,173,192)"/>
<path d="M21 7h2v3h-1v-1h-1v-2z" fill="rgb(134,156,180)"/>
<path d="M23 7h2v2h1v1h1v11h-1v-3h-1v-8h-1v-1h-1v-2z" fill="rgb(155,173,192)"/>
<path d="M25 7h2v3h-1v-1h-1v-2z" fill="rgb(134,156,180)"/>
<path d="M27 7h2v2h1v1h1v11h-2v-11h-1v-1h-1v-2z" fill="rgb(155,173,192)"/>
<path d="M29 7h2v3h-1v-1h-1v-2z" fill="rgb(134,156,180)"/>
<path d="M31 7h2v2h1v1h1v13h-1v1h-2v-1h1v-13h-1v-1h-1v-2z" fill="rgb(155,173,192)"/>
<path d="M33 7h2v3h-1v-1h-1v-2z" fill="rgb(134,156,180)"/>
<path d="M35 7h2v2h1v1h1v13h-1v1h-2v-1h1v-13h-1v-1h-1v-2z" fill="rgb(155,173,192)"/>
<path d="M37 7h2v3h-1v-1h-1v-2z" fill="rgb(134,156,180)"/>
<path d="M39 7h2v2h1v1h1v13h-1v1h-2v-1h1v-13h-1v-1h-1v-2z" fill="rgb(155,173,192)"/>
<path d="M41 7h2v3h-1v-1h-1v-2z" fill="rgb(134,156,180)"/>
<path d="M43 7h2v2h1v1h1v13h-1v1h-2v-1h1v-13h-1v-1h-1v-2z" fill="rgb(155,173,192)"/>
<path d="M45 7h2v3h-1v-1h-1v-2z" fill="rgb(134,156,180)"/>
<path d="M47 7h2v2h1v1h1v1h-2v-1h-1v-1h-1v-2z" fill="rgb(155,173,192)"/>
<path d="M49 7h2v3h-1v-1h-1v-2z" fill="rgb(134,156,180)"/>
<path d="M51 7h2v2h1v1h1v1h-2v-1h-1v-1h-1v-2z" fill="rgb(155,173,192)"/>
<path d="M53 7h2v3h-1v-1h-1v-2z" fill="rgb(134,156,180)"/>
<path d="M55 7h2v2h1v1h1v1h-2v-1h-1v-1h-1v-2z" fill="rgb(155,173,192)"/>
<path d="M57 7h2v3h-1v-1h-1v-2z" fill="rgb(134,156,180)"/>
<path d="M59 7h2v2h1v1h1v1h-2v-1h-1v-1h-1v-2z" fill="rgb(155,173,192)"/>
<path d="M61 7h2v3h-1v-1h-1v-2z" fill="rgb(134,156,180)"/>
<path d="M63 7h2v2h1v1h1v13h-1v1h-2v-1h1v-13h-1v-1h-1v-2z" fill="rgb(155,173,192)"/>
<path d="M65 7h2v3h-1v-1h-1v-2z" fill="rgb(134,156,180)"/>
<path d="M67 7h2v2h1v1h1v13h-1v1h-2v-1h1v-13h-1v-1h-1v-2z" fill="rgb(155,173,192)"/>
<path d="M69 7h2v3h-1v-1h-1v-2z" fill="rgb(134,156,180)"/>
<path d="M71 7h2v2h1v1h1v13h-1v1h-2v-1h1v-13h-1v-1h-1v-2z" fill="rgb(155,173,192)"/>
<path d="M73 7h2v3h-1v-1h-1v-2z" fill="rgb(134,156,180)"/>
<path d="M75 7h2v2h1v1h1v13h-1v1h-2v-1h1v-13h-1v-1h-1v-2z" fill="rgb(155,173,192)"/>
<path d="M77 7h2v3h-1v-1h-1v-2z" fill="rgb(134,156,180)"/>
<path d="M79 7h1v2h-1v-2z" fill="rgb(155,173,192)"/>
<path d="M1 9h10v1h-10v-1z" fill="rgb(96,111,108)"/>
<path d="M11 9h4v1h-4v-1z" fill="rgb(73,84,82)"/>
<path d="M15 9h1v1h-1v-1z" fill="rgb(182,197,212)"/>
<path d="M19 9h1v1h1v11h-2v-12z" fill="rgb(182,197,212)"/>
<path d="M23 9h1v1h1v8h-2v-9z" fill="rgb(182,197,212)"/>
<path d="M27 9h1v1h1v11h-2v-12z" fill="rgb(182,197,212)"/>
<path d="M31 9h1v1h1v13h-1v-1h-1v-13z" fill="rgb(182,197,212)"/>
<path d="M35 9h1v1h1v13h-1v1h-1v-15z" fill="rgb(182,197,212)"/>
<path d="M39 9h1v1h1v13h-1v1h-1v-15z" fill="rgb(182,197,212)"/>
<path d="M43 9h1v1h1v13h-1v1h-1v-15z" fill="rgb(182,197,212)"/>
<path d="M47 9h1v1h1v13h-1v1h-1v-15z" fill="rgb(182,197,212)"/>
<path d="M51 9h1v1h1v1h-2v-2z" fill="rgb(182,197,212)"/>
<path d="M55 9h1v1h1v1h-2v-2z" fill="rgb(182,197,212)"/>
<path d="M59 9h1v1h1v1h-2v-2z" fill="rgb(182,197,212)"/>
<path d="M63 9h1v1h1v13h-1v-11h-1v-3z" fill="rgb(182,197,212)"/>
<path d="M67 9h1v1h1v13h-1v1h-1v-15z" fill="rgb(182,197,212)"/>
<path d="M71 9h1v1h1v13h-1v1h-1v-15z" fill="rgb(182,197,212)"/>
<path d="M75 9h1v1h1v13h-1v1h-1v-15z" fill="rgb(182,197,212)"/>
<path d="M79 9h1v15h-1v-15z" fill="rgb(182,197,212)"/>
<path d="M0 10h1v7h1v1h-1v6h1v1h-1v1h1v1h-1v5h-1v-22z" fill="rgb(96,111,108)"/>
<path d="M1 10h5v1h-3v1h-1v2h-1v-4z" fill="rgb(174,183,170)"/>
<path d="M6 10h4v1h3v1h1v2h1v1h-1v1h-12v-1h-1v-1h1v-2h1v-1h3v-1z" fill="rgb(209,215,206)"/>
<path d="M10 10h5v4h-1v-2h-1v-1h-3v-1z" fill="rgb(174,183,170)"/>
<path d="M15 10h1v28h-1v-28z" fill="rgb(73,84,82)"/>
<path d="M16 10h1v12h-1v-12z" fill="rgb(182,197,212)"/>
<path d="M49 11h14v14h-14v-14z" fill="rgb(105,70,35)"/>
<path d="M50 12h12v1h-12v-1z" fill="rgb(203,153,103)"/>
<path d="M63 12h1v12h-1v-12z" fill="rgb(136,148,159)"/>
<path d="M50 13h12v11h-12v-11z" fill="rgb(163,108,54)"/>
<path d="M51 14h4v1h-1v1h2v1h-1v1h-1v1h-1v-2h-1v1h-1v-4z" fill="rgb(169,202,205)"/>
<path d="M55 14h3v1h-1v1h-3v-1h1v-1z" fill="rgb(145,188,191)"/>
<path d="M58 14h1v1h-1v-1z" fill="rgb(169,202,205)"/>
<path d="M59 14h2v2h-3v-1h1v-1z" fill="rgb(145,188,191)"/>
<path d="M1 15h1v1h-1v-1z" fill="rgb(146,163,159)"/>
<path d="M14 15h1v1h-1v-1z" fill="rgb(146,163,159)"/>
<path d="M57 15h1v1h3v1h-1v1h-1v1h-1v1h-1v1h-1v1h-3v-1h-1v-1h2v-1h1v-1h1v-1h1v-2z" fill="rgb(169,202,205)"/>
<path d="M1 16h1v1h-1v-1z" fill="rgb(209,215,206)"/>
<path d="M2 16h12v1h-12v-1z" fill="rgb(146,163,159)"/>
<path d="M14 16h1v1h-1v-1z" fill="rgb(209,215,206)"/>
<path d="M56 16h1v1h-1v-1z" fill="rgb(199,220,222)"/>
<path d="M2 17h12v1h-12v-1z" fill="rgb(209,215,206)"/>
<path d="M14 17h1v1h-1v-1z" fill="rgb(96,111,108)"/>
<path d="M52 17h1v3h-1v1h-1v-3h1v-1z" fill="rgb(145,188,191)"/>
<path d="M55 17h1v1h-1v-1z" fill="rgb(199,220,222)"/>
<path d="M60 17h1v3h-1v1h-1v1h-3v-1h1v-1h1v-1h1v-1h1v-1z" fill="rgb(199,220,222)"/>
<path d="M1 18h1v1h2v6h-2v-1h-1v-6z" fill="rgb(146,163,159)"/>
<path d="M2 18h3v1h-3v-1z" fill="rgb(96,111,108)"/>
<path d="M5 18h6v1h-6v-1z" fill="rgb(146,163,159)"/>
<path d="M11 18h3v1h-3v-1z" fill="rgb(96,111,108)"/>
<path d="M14 18h1v6h-1v1h-2v-2h1v-1h-1v-3h2v-1z" fill="rgb(146,163,159)"/>
<path d="M22 18h4v3h5v1h-6v-1h-2v1h-6v-1h5v-3z" fill="rgb(96,111,108)"/>
<path d="M54 18h1v1h-1v-1z" fill="rgb(199,220,222)"/>
<path d="M4 19h8v2h-1v1h-2v1h3v2h-8v-6z" fill="rgb(174,183,170)"/>
<path d="M23 19h2v1h-2v-1z" fill="rgb(121,140,136)"/>
<path d="M53 19h1v1h-1v-1z" fill="rgb(199,220,222)"/>
<path d="M60 20h1v2h-2v-1h1v-1z" fill="rgb(169,202,205)"/>
<path d="M11 21h1v1h1v1h-4v-1h2v-1z" fill="rgb(96,111,108)"/>
<path d="M23 21h2v1h-2v-1z" fill="rgb(121,140,136)"/>
<path d="M51 21h1v1h-1v-1z" fill="rgb(169,202,205)"/>
<path d="M52 21h1v1h-1v-1z" fill="rgb(145,188,191)"/>
<path d="M16 22h1v10h-1v-10z" fill="rgb(96,111,108)"/>
<path d="M17 22h2v1h-1v1h1v2h10v-2h1v3h-12v2h-1v-7z" fill="rgb(146,163,159)"/>
<path d="M19 22h12v8h-13v-2h1v1h10v-1h1v-4h-1v-1h-10v-1z" fill="rgb(174,183,170)"/>
<path d="M31 22h1v10h-1v-10z" fill="rgb(73,84,82)"/>
<path d="M51 22h10v1h-10v-1z" fill="rgb(203,153,103)"/>
<path d="M18 23h1v1h-1v-1z" fill="rgb(174,183,170)"/>
<path d="M19 23h10v1h-10v-1z" fill="rgb(146,163,159)"/>
<path d="M34 23h1v1h-1v-1z" fill="rgb(134,156,180)"/>
<path d="M38 23h1v1h-1v-1z" fill="rgb(134,156,180)"/>
<path d="M42 23h1v1h-1v-1z" fill="rgb(134,156,180)"/>
<path d="M46 23h1v1h-1v-1z" fill="rgb(134,156,180)"/>
<path d="M48 23h1v1h-1v-1z" fill="rgb(155,173,192)"/>
<path d="M66 23h1v1h-1v-1z" fill="rgb(134,156,180)"/>
<path d="M70 23h1v1h-1v-1z" fill="rgb(134,156,180)"/>
<path d="M74 23h1v1h-1v-1z" fill="rgb(134,156,180)"/>
<path d="M78 23h1v1h-1v-1z" fill="rgb(134,156,180)"/>
<path d="M14 24h1v1h-1v-1z" fill="rgb(96,111,108)"/>
<path d="M19 24h10v2h-10v-2z" fill="rgb(174,183,170)"/>
<path d="M32 24h1v1h-1v-1z" fill="rgb(182,197,212)"/>
<path d="M33 24h1v1h1v4h-2v-5z" fill="rgb(134,156,180)"/>
<path d="M34 24h2v1h1v4h-2v-4h-1v-1z" fill="rgb(155,173,192)"/>
<path d="M36 24h1v1h-1v-1z" fill="rgb(182,197,212)"/>
<path d="M37 24h1v1h1v4h-2v-5z" fill="rgb(134,156,180)"/>
<path d="M38 24h2v1h1v4h-2v-4h-1v-1z" fill="rgb(155,173,192)"/>
<path d="M40 24h1v1h-1v-1z" fill="rgb(182,197,212)"/>
<path d="M41 24h1v1h1v4h-2v-5z" fill="rgb(134,156,180)"/>
<path d="M42 24h2v1h1v4h-2v-4h-1v-1z" fill="rgb(155,173,192)"/>
<path d="M44 24h1v1h-1v-1z" fill="rgb(182,197,212)"/>
<path d="M45 24h1v1h1v4h-2v-5z" fill="rgb(134,156,180)"/>
<path d="M46 24h2v1h1v4h-2v-4h-1v-1z" fill="rgb(155,173,192)"/>
<path d="M48 24h1v1h-1v-1z" fill="rgb(182,197,212)"/>
<path d="M63 24h1v1h-1v-1z" fill="rgb(116,130,144)"/>
<path d="M64 24h16v12h-1v3h-1v-3h-2v3h-1v-3h-6v3h-1v-3h-2v3h-1v-3h-1v-12z" fill="rgb(105,70,35)"/>
<path d="M1 25h1v1h-1v-1z" fill="rgb(209,215,206)"/>
<path d="M2 25h12v1h-12v-1z" fill="rgb(96,111,108)"/>
<path d="M14 25h1v1h-1v-1z" fill="rgb(209,215,206)"/>
<path d="M32 25h1v4h-1v-4z" fill="rgb(155,173,192)"/>
<path d="M49 25h1v1h1v3h-2v-4z" fill="rgb(134,156,180)"/>
<path d="M50 25h1v1h-1v-1z" fill="rgb(100,117,135)"/>
<path d="M51 25h2v1h-2v-1z" fill="rgb(116,130,144)"/>
<path d="M53 25h2v1h-2v-1z" fill="rgb(100,117,135)"/>
<path d="M55 25h2v1h-2v-1z" fill="rgb(116,130,144)"/>
<path d="M57 25h2v1h-2v-1z" fill="rgb(100,117,135)"/>
<path d="M59 25h2v1h-2v-1z" fill="rgb(116,130,144)"/>
<path d="M61 25h2v1h-2v-1z" fill="rgb(100,117,135)"/>
<path d="M63 25h1v4h-1v-4z" fill="rgb(155,173,192)"/>
<path d="M65 25h14v7h-14v-7z" fill="rgb(190,126,63)"/>
<path d="M2 26h12v1h-12v-1z" fill="rgb(209,215,206)"/>
<path d="M14 26h1v1h-1v-1z" fill="rgb(96,111,108)"/>
<path d="M51 26h2v3h-2v-3z" fill="rgb(155,173,192)"/>
<path d="M53 26h2v3h-2v-3z" fill="rgb(134,156,180)"/>
<path d="M55 26h2v3h-2v-3z" fill="rgb(155,173,192)"/>
<path d="M57 26h2v3h-2v-3z" fill="rgb(134,156,180)"/>
<path d="M59 26h2v3h-2v-3z" fill="rgb(155,173,192)"/>
<path d="M61 26h2v3h-2v-3z" fill="rgb(134,156,180)"/>
<path d="M1 27h1v1h2v8h1v1h6v-1h1v-4h1v-1h-1v-3h2v-1h1v11h-1v1h-12v-1h-1v-11z" fill="rgb(146,163,159)"/>
<path d="M2 27h3v1h-3v-1z" fill="rgb(96,111,108)"/>
<path d="M5 27h6v1h-6v-1z" fill="rgb(146,163,159)"/>
<path d="M11 27h3v1h-3v-1z" fill="rgb(96,111,108)"/>
<path d="M18 27h1v1h-1v-1z" fill="rgb(96,111,108)"/>
<path d="M19 27h10v1h-10v-1z" fill="rgb(121,140,136)"/>
<path d="M29 27h1v1h-1v-1z" fill="rgb(96,111,108)"/>
<path d="M4 28h8v2h-1v1h-2v1h3v4h-1v1h-6v-1h-1v-8z" fill="rgb(174,183,170)"/>
<path d="M19 28h10v1h-10v-1z" fill="rgb(96,111,108)"/>
<path d="M17 29h1v1h-1v-1z" fill="rgb(209,215,206)"/>
<path d="M32 29h32v1h-32v-1z" fill="rgb(78,102,136)"/>
<path d="M11 30h1v1h1v1h-4v-1h2v-1z" fill="rgb(96,111,108)"/>
<path d="M17 30h1v1h-1v-1z" fill="rgb(174,183,170)"/>
<path d="M18 30h13v1h-13v-1z" fill="rgb(209,215,206)"/>
<path d="M32 30h32v1h-32v-1z" fill="rgb(104,137,165)"/>
<path d="M17 31h14v1h-14v-1z" fill="rgb(146,163,159)"/>
<path d="M32 31h32v1h-32v-1z" fill="rgb(130,130,130)"/>
<path d="M0 32h1v6h-1v-6z" fill="rgb(73,84,82)"/>
<path d="M16 32h1v8h-2v-2h1v-6z" fill="rgb(115,115,91)"/>
<path d="M17 32h14v1h-14v-1z" fill="rgb(73,84,82)"/>
<path d="M31 32h2v8h-2v-8z" fill="rgb(115,115,91)"/>
<path d="M33 32h31v8h-1v-6h-1v-1h-12v1h-1v6h-2v-6h-1v-1h-12v1h-1v-2z" fill="rgb(153,153,121)"/>
<path d="M65 32h14v1h-14v-1z" fill="rgb(203,153,103)"/>
<path d="M17 33h1v6h-1v-6z" fill="rgb(105,70,35)"/>
<path d="M18 33h12v2h-1v-1h-10v4h10v-1h1v2h-12v-6z" fill="rgb(163,108,54)"/>
<path d="M30 33h1v6h-1v-6z" fill="rgb(105,70,35)"/>
<path d="M34 33h12v1h1v6h-2v-5h-10v5h-2v-6h1v-1z" fill="rgb(149,145,113)"/>
<path d="M50 33h12v1h1v6h-2v-5h-10v5h-2v-6h1v-1z" fill="rgb(149,145,113)"/>
<path d="M65 33h14v1h-14v-1z" fill="rgb(163,108,54)"/>
<path d="M19 34h10v1h-10v-1z" fill="rgb(203,153,103)"/>
<path d="M65 34h14v1h-14v-1z" fill="rgb(133,88,44)"/>
<path d="M19 35h1v1h1v-1h6v1h1v-1h1v2h-10v-2z" fill="rgb(190,126,63)"/>
<path d="M20 35h1v1h-1v-1z" fill="rgb(133,88,44)"/>
<path d="M27 35h1v1h-1v-1z" fill="rgb(133,88,44)"/>
<path d="M29 35h1v2h-1v-2z" fill="rgb(133,88,44)"/>
<path d="M35 35h10v5h-1v-4h-8v4h-1v-5z" fill="rgb(153,153,121)"/>
<path d="M51 35h10v5h-1v-4h-8v4h-1v-5z" fill="rgb(153,153,121)"/>
<path d="M36 36h8v4h-8v-4z" fill="rgb(154,141,111)"/>
<path d="M52 36h8v4h-8v-4z" fill="rgb(154,141,111)"/>
<path d="M64 36h1v4h-1v-4z" fill="rgb(115,115,91)"/>
<path d="M66 36h2v1h-2v-1z" fill="rgb(133,88,44)"/>
<path d="M69 36h6v3h-6v-3z" fill="rgb(115,106,83)"/>
<path d="M76 36h2v1h-2v-1z" fill="rgb(133,88,44)"/>
<path d="M79 36h1v4h-1v-4z" fill="rgb(115,115,91)"/>
<path d="M19 37h10v1h-10v-1z" fill="rgb(133,88,44)"/>
<path d="M66 37h2v1h-2v-1z" fill="rgb(163,108,54)"/>
<path d="M76 37h2v1h-2v-1z" fill="rgb(163,108,54)"/>
<path d="M0 38h1v3h-1v-3z" fill="rgb(115,115,91)"/>
<path d="M1 38h1v1h-1v-1z" fill="rgb(73,84,82)"/>
<path d="M14 38h1v1h-1v-1z" fill="rgb(73,84,82)"/>
<path d="M66 38h2v1h-2v-1z" fill="rgb(190,126,63)"/>
<path d="M76 38h2v1h-2v-1z" fill="rgb(190,126,63)"/>
<path d="M1 39h1v1h1v2h-2v-3z" fill="rgb(112,109,85)"/>
<path d="M2 39h12v1h-12v-1z" fill="rgb(73,84,82)"/>
<path d="M14 39h1v1h-1v-1z" fill="rgb(112,109,85)"/>
<path d="M17 39h1v1h-1v-1z" fill="rgb(112,109,85)"/>
<path d="M18 39h12v1h-12v-1z" fill="rgb(105,70,35)"/>
<path d="M30 39h1v1h-1v-1z" fill="rgb(112,109,85)"/>
<path d="M65 39h1v1h-1v-1z" fill="rgb(112,109,85)"/>
<path d="M66 39h2v1h-2v-1z" fill="rgb(105,70,35)"/>
<path d="M68 39h9v1h-9v-1z" fill="rgb(95,89,54)"/>
<path d="M77 39h1v1h-1v-1z" fill="rgb(105,70,35)"/>
<path d="M78 39h1v1h-1v-1z" fill="rgb(112,109,85)"/>
<path d="M3 40h1v2h-1v-2z" fill="rgb(115,115,91)"/>
<path d="M4 40h4v2h-4v-2z" fill="rgb(115,106,83)"/>
<path d="M8 40h4v2h-4v-2z" fill="rgb(154,141,111)"/>
<path d="M12 40h1v2h-1v-2z" fill="rgb(153,153,121)"/>
<path d="M13 40h2v2h-2v-2z" fill="rgb(149,145,113)"/>
<path d="M15 40h2v1h-2v-1z" fill="rgb(153,153,121)"/>
<path d="M17 40h2v2h-1v-1h-1v-1z" fill="rgb(149,145,113)"/>
<path d="M19 40h1v2h-1v-2z" fill="rgb(153,153,121)"/>
<path d="M20 40h8v2h-8v-2z" fill="rgb(154,141,111)"/>
<path d="M28 40h1v2h-1v-2z" fill="rgb(153,153,121)"/>
<path d="M29 40h2v2h-2v-2z" fill="rgb(149,145,113)"/>
<path d="M31 40h1v1h-1v-1z" fill="rgb(153,153,121)"/>
<path d="M32 40h1v6h1v1h12v-1h1v-6h2v6h1v1h12v-1h1v-6h1v1h1v5h1v1h1v2h-1v1h-1v12h-1v8h-1
	v-4h-1v-1h-12v1h-1v12h1v1h12v-1h1v4h-1v-1h-12v1h-1v12h1v1h12v-1h1v-10h1v1h1v9
	h1v1h12v-1h1v-8h1v10h-45v-1h11v-1h1v-12h-1v-1h-12v1h-1v7h-1v-1h-1v-6h-1v-1h-12
	v1h-1v6h-1v1h-1v-7h-1v-1h-6v-2h6v-1h1v-12h-1v-1h-6v-2h6v-1h1v-12h-1v-1h-6v-2h6
	v-1h1v-5h2v5h1v1h12v-1h1v-5h1v-1z" fill="rgb(204,204,161)"/>
<path d="M33 40h2v5h10v-5h2v6h-1v1h-12v-1h-1v-6z" fill="rgb(199,193,151)"/>
<path d="M35 40h1v4h8v-4h1v5h-10v-5z" fill="rgb(204,204,161)"/>
<path d="M36 40h8v4h-8v-4z" fill="rgb(206,188,148)"/>
<path d="M49 40h2v5h10v-5h2v6h-1v1h-12v-1h-1v-6z" fill="rgb(199,193,151)"/>
<path d="M51 40h1v4h8v-4h1v5h-10v-5z" fill="rgb(204,204,161)"/>
<path d="M52 40h8v4h-8v-4z" fill="rgb(206,188,148)"/>
<path d="M64 40h1v1h-1v-1z" fill="rgb(153,153,121)"/>
<path d="M65 40h2v1h-1v1h-1v-2z" fill="rgb(149,145,113)"/>
<path d="M67 40h1v1h-1v-1z" fill="rgb(95,89,54)"/>
<path d="M68 40h2v1h-1v1h-2v-1h1v-1z" fill="rgb(182,170,115)"/>
<path d="M70 40h5v1h1v1h2v2h-2v1h-1v1h-5v-1h-1v-1h-2v-2h2v-1h1v-1z" fill="rgb(198,194,139)"/>
<path d="M75 40h2v1h1v1h-2v-1h-1v-1z" fill="rgb(182,170,115)"/>
<path d="M77 40h1v1h-1v-1z" fill="rgb(95,89,54)"/>
<path d="M78 40h1v1h-1v-1z" fill="rgb(149,145,113)"/>
<path d="M79 40h1v2h-1v-2z" fill="rgb(153,153,121)"/>
<path d="M0 41h1v5h1v1h6v2h-6v1h-1v12h1v1h6v2h-6v1h-1v12h1v1h6v2h-6v1h-1v12h1v1h6v1h-8
	v-55z" fill="rgb(153,153,121)"/>
<path d="M17 41h1v1h1v3h10v-3h2v4h-1v1h-12v-1h-1v-5z" fill="rgb(199,193,151)"/>
<path d="M66 41h1v6h-1v-6z" fill="rgb(95,89,54)"/>
<path d="M72 41h1v1h1v1h-1v1h-1v-1h-1v-1h1v-1z" fill="rgb(182,170,115)"/>
<path d="M78 41h1v6h-1v-6z" fill="rgb(95,89,54)"/>
<path d="M1 42h2v3h5v2h-6v-1h-1v-4z" fill="rgb(149,145,113)"/>
<path d="M3 42h1v2h4v1h-5v-3z" fill="rgb(153,153,121)"/>
<path d="M4 42h4v2h-4v-2z" fill="rgb(154,141,111)"/>
<path d="M8 42h4v2h-4v-2z" fill="rgb(206,188,148)"/>
<path d="M12 42h1v3h-5v-1h4v-2z" fill="rgb(204,204,161)"/>
<path d="M13 42h2v4h-1v1h-6v-2h5v-3z" fill="rgb(199,193,151)"/>
<path d="M19 42h1v2h8v-2h1v3h-10v-3z" fill="rgb(204,204,161)"/>
<path d="M20 42h8v2h-8v-2z" fill="rgb(206,188,148)"/>
<path d="M65 42h1v4h-1v-4z" fill="rgb(199,193,151)"/>
<path d="M79 42h1v13h-1v-13z" fill="rgb(204,204,161)"/>
<path d="M67 44h2v1h1v1h-2v-1h-1v-1z" fill="rgb(182,170,115)"/>
<path d="M76 44h2v1h-1v1h-2v-1h1v-1z" fill="rgb(182,170,115)"/>
<path d="M67 45h1v1h9v-1h1v2h-3v1h-5v-1h-3v-2z" fill="rgb(151,141,86)"/>
<path d="M67 47h3v1h-3v-1z" fill="rgb(95,89,54)"/>
<path d="M75 47h3v1h-3v-1z" fill="rgb(95,89,54)"/>
<path d="M78 47h1v3h-1v-3z" fill="rgb(153,153,121)"/>
<path d="M67 48h1v2h-1v-2z" fill="rgb(105,70,35)"/>
<path d="M68 48h2v1h-2v-1z" fill="rgb(133,88,44)"/>
<path d="M70 48h5v1h-5v-1z" fill="rgb(95,89,54)"/>
<path d="M75 48h2v1h-2v-1z" fill="rgb(133,88,44)"/>
<path d="M77 48h1v2h-1v-2z" fill="rgb(105,70,35)"/>
<path d="M2 49h6v2h-5v10h5v2h-6v-1h-1v-12h1v-1z" fill="rgb(149,145,113)"/>
<path d="M8 49h6v1h1v12h-1v1h-6v-2h5v-10h-5v-2z" fill="rgb(199,193,151)"/>
<path d="M18 49h12v1h1v12h-1v1h-12v-1h-1v-12h1v-1z" fill="rgb(199,193,151)"/>
<path d="M34 49h12v1h1v12h-1v1h-12v-1h-1v-12h1v-1z" fill="rgb(199,193,151)"/>
<path d="M50 49h12v1h1v12h-1v1h-12v-1h-1v-12h1v-1z" fill="rgb(199,193,151)"/>
<path d="M66 49h1v5h-1v1h-1v-5h1v-1z" fill="rgb(199,193,151)"/>
<path d="M68 49h2v1h-2v-1z" fill="rgb(163,108,54)"/>
<path d="M70 49h1v1h-1v-1z" fill="rgb(105,70,35)"/>
<path d="M71 49h3v1h-3v-1z" fill="rgb(149,145,113)"/>
<path d="M74 49h1v1h-1v-1z" fill="rgb(105,70,35)"/>
<path d="M75 49h2v1h-2v-1z" fill="rgb(163,108,54)"/>
<path d="M67 50h1v1h-1v-1z" fill="rgb(149,145,113)"/>
<path d="M68 50h2v1h-2v-1z" fill="rgb(105,70,35)"/>
<path d="M70 50h1v1h-1v-1z" fill="rgb(149,145,113)"/>
<path d="M71 50h3v1h-3v-1z" fill="rgb(199,193,151)"/>
<path d="M74 50h1v1h-1v-1z" fill="rgb(149,145,113)"/>
<path d="M75 50h2v1h-2v-1z" fill="rgb(105,70,35)"/>
<path d="M77 50h1v1h-1v-1z" fill="rgb(149,145,113)"/>
<path d="M78 50h1v4h-2v-3h1v-1z" fill="rgb(199,193,151)"/>
<path d="M3 51h5v1h-4v8h4v1h-5v-10z" fill="rgb(153,153,121)"/>
<path d="M8 51h5v10h-5v-1h4v-8h-4v-1z" fill="rgb(204,204,161)"/>
<path d="M19 51h10v10h-10v-10z" fill="rgb(204,204,161)"/>
<path d="M35 51h10v10h-10v-10z" fill="rgb(204,204,161)"/>
<path d="M51 51h10v10h-10v-10z" fill="rgb(204,204,161)"/>
<path d="M67 51h1v3h-1v-3z" fill="rgb(204,204,161)"/>
<path d="M68 51h2v1h-2v-1z" fill="rgb(153,153,121)"/>
<path d="M70 51h5v1h-5v-1z" fill="rgb(204,204,161)"/>
<path d="M75 51h2v1h-2v-1z" fill="rgb(153,153,121)"/>
<path d="M4 52h4v8h-4v-8z" fill="rgb(154,141,111)"/>
<path d="M8 52h4v8h-4v-8z" fill="rgb(206,188,148)"/>
<path d="M20 52h8v8h-8v-8z" fill="rgb(206,188,148)"/>
<path d="M36 52h8v8h-8v-8z" fill="rgb(206,188,148)"/>
<path d="M52 52h8v8h-8v-8z" fill="rgb(206,188,148)"/>
<path d="M68 52h8v1h-8v-1z" fill="rgb(206,188,148)"/>
<path d="M76 52h1v1h-1v-1z" fill="rgb(204,204,161)"/>
<path d="M68 53h9v1h-9v-1z" fill="rgb(83,83,83)"/>
<path d="M66 54h2v1h-2v-1z" fill="rgb(83,83,83)"/>
<path d="M68 54h2v1h-2v-1z" fill="rgb(129,129,121)"/>
<path d="M70 54h5v1h2v1h-9v-1h2v-1z" fill="rgb(147,156,156)"/>
<path d="M75 54h2v1h-2v-1z" fill="rgb(129,129,121)"/>
<path d="M77 54h2v1h-2v-1z" fill="rgb(83,83,83)"/>
<path d="M65 55h1v6h-1v-6z" fill="rgb(83,83,83)"/>
<path d="M66 55h2v2h-1v-1h-1v-1z" fill="rgb(167,174,174)"/>
<path d="M77 55h2v1h-1v1h-1v-2z" fill="rgb(167,174,174)"/>
<path d="M79 55h1v6h-1v-6z" fill="rgb(83,83,83)"/>
<path d="M66 56h1v1h-1v-1z" fill="rgb(147,156,156)"/>
<path d="M68 56h9v1h-9v-1z" fill="rgb(83,83,83)"/>
<path d="M78 56h1v1h-1v-1z" fill="rgb(147,156,156)"/>
<path d="M66 57h1v3h-1v-3z" fill="rgb(129,129,121)"/>
<path d="M67 57h1v2h-1v-2z" fill="rgb(83,83,83)"/>
<path d="M68 57h8v1h-8v-1z" fill="rgb(206,188,148)"/>
<path d="M76 57h1v1h-1v-1z" fill="rgb(204,204,161)"/>
<path d="M77 57h1v2h-1v-2z" fill="rgb(83,83,83)"/>
<path d="M78 57h1v3h-1v-3z" fill="rgb(129,129,121)"/>
<path d="M68 58h9v1h-9v-1z" fill="rgb(48,48,48)"/>
<path d="M67 59h1v7h-1v-5h-1v-1h1v-1z" fill="rgb(48,48,48)"/>
<path d="M68 59h2v1h-1v1h-1v-2z" fill="rgb(174,174,174)"/>
<path d="M70 59h1v1h-1v-1z" fill="rgb(205,205,205)"/>
<path d="M71 59h3v1h2v1h1v2h-1v1h-1v1h-5v-1h-1v-1h-1v-2h1v-1h2v-1z" fill="rgb(238,238,238)"/>
<path d="M74 59h1v1h-1v-1z" fill="rgb(205,205,205)"/>
<path d="M75 59h2v2h-1v-1h-1v-1z" fill="rgb(174,174,174)"/>
<path d="M77 59h1v1h1v1h-1v5h-1v-7z" fill="rgb(48,48,48)"/>
<path d="M65 61h1v9h-1v-9z" fill="rgb(48,48,48)"/>
<path d="M66 61h1v1h-1v-1z" fill="rgb(174,174,174)"/>
<path d="M78 61h1v5h-1v-5z" fill="rgb(174,174,174)"/>
<path d="M79 61h1v9h-1v-9z" fill="rgb(48,48,48)"/>
<path d="M64 62h1v9h-1v12h1v2h-1v-1h-1v-14h1v-8z" fill="rgb(153,153,121)"/>
<path d="M66 62h1v4h1v1h10v-1h1v3h-3v-1h-7v1h-3v-7z" fill="rgb(205,205,205)"/>
<path d="M71 62h3v1h-1v1h-1v-1h-1v-1z" fill="rgb(205,205,205)"/>
<path d="M68 63h1v1h-1v-1z" fill="rgb(205,205,205)"/>
<path d="M76 63h1v1h-1v-1z" fill="rgb(205,205,205)"/>
<path d="M68 64h1v1h1v1h-2v-2z" fill="rgb(174,174,174)"/>
<path d="M69 64h1v1h-1v-1z" fill="rgb(205,205,205)"/>
<path d="M75 64h1v1h-1v-1z" fill="rgb(205,205,205)"/>
<path d="M76 64h1v2h-2v-1h1v-1z" fill="rgb(174,174,174)"/>
<path d="M2 65h6v2h-5v10h5v2h-6v-1h-1v-12h1v-1z" fill="rgb(149,145,113)"/>
<path d="M8 65h6v1h1v12h-1v1h-6v-2h5v-10h-5v-2z" fill="rgb(199,193,151)"/>
<path d="M18 65h12v1h1v12h-1v1h-12v-1h-1v-12h1v-1z" fill="rgb(199,193,151)"/>
<path d="M34 65h12v1h1v12h-1v1h-12v-1h-1v-12h1v-1z" fill="rgb(199,193,151)"/>
<path d="M50 65h12v1h1v12h-1v1h-12v-1h-1v-12h1v-1z" fill="rgb(199,193,151)"/>
<path d="M70 65h5v1h-5v-1z" fill="rgb(205,205,205)"/>
<path d="M68 66h9v1h-9v-1z" fill="rgb(48,48,48)"/>
<path d="M77 66h1v1h-1v-1z" fill="rgb(174,174,174)"/>
<path d="M3 67h5v1h-4v8h4v1h-5v-10z" fill="rgb(153,153,121)"/>
<path d="M8 67h5v10h-5v-1h4v-8h-4v-1z" fill="rgb(204,204,161)"/>
<path d="M19 67h10v10h-10v-10z" fill="rgb(204,204,161)"/>
<path d="M35 67h10v10h-10v-10z" fill="rgb(204,204,161)"/>
<path d="M51 67h10v10h-10v-10z" fill="rgb(204,204,161)"/>
<path d="M4 68h4v8h-4v-8z" fill="rgb(154,141,111)"/>
<path d="M8 68h4v8h-4v-8z" fill="rgb(206,188,148)"/>
<path d="M20 68h8v8h-8v-8z" fill="rgb(206,188,148)"/>
<path d="M36 68h8v8h-8v-8z" fill="rgb(206,188,148)"/>
<path d="M52 68h8v8h-8v-8z" fill="rgb(206,188,148)"/>
<path d="M69 68h7v1h-7v-1z" fill="rgb(104,137,165)"/>
<path d="M66 69h1v1h-1v-1z" fill="rgb(78,102,136)"/>
<path d="M67 69h2v1h-2v-1z" fill="rgb(104,137,165)"/>
<path d="M69 69h7v1h1v5h-1v2h-7v-2h-1v-2h-1v-3h2v-1z" fill="rgb(182,197,212)"/>
<path d="M76 69h1v1h-1v-1z" fill="rgb(104,137,165)"/>
<path d="M77 69h2v1h-2v-1z" fill="rgb(78,102,136)"/>
<path d="M65 70h1v1h-1v-1z" fill="rgb(78,102,136)"/>
<path d="M66 70h1v3h1v2h1v2h7v-2h1v-5h2v8h-1v2h-1v2h-10v-2h-1v-2h-1v-7h1v-1z" fill="rgb(155,173,192)"/>
<path d="M79 70h1v13h-1v-13z" fill="rgb(78,102,136)"/>
<path d="M64 71h1v12h-1v-12z" fill="rgb(78,102,136)"/>
<path d="M65 78h1v2h1v2h10v-2h1v-2h1v5h-1v1h-12v-1h-1v-5z" fill="rgb(134,156,180)"/>
<path d="M2 81h6v2h-5v10h5v2h-6v-1h-1v-12h1v-1z" fill="rgb(149,145,113)"/>
<path d="M8 81h6v1h1v9h-1v2h-1v-10h-5v-2z" fill="rgb(199,193,151)"/>
<path d="M18 81h12v1h1v6h-1v-1h-1v-4h-10v4h-1v1h-1v-6h1v-1z" fill="rgb(199,193,151)"/>
<path d="M34 81h12v1h1v12h-1v1h-11v-2h-1v-2h-1v-9h1v-1z" fill="rgb(199,193,151)"/>
<path d="M50 81h12v1h1v12h-1v1h-12v-1h-1v-12h1v-1z" fill="rgb(199,193,151)"/>
<path d="M3 83h5v1h-4v8h4v1h-5v-10z" fill="rgb(153,153,121)"/>
<path d="M8 83h5v10h-5v-1h4v-8h-4v-1z" fill="rgb(204,204,161)"/>
<path d="M19 83h10v4h-1v-3h-8v3h-1v-4z" fill="rgb(204,204,161)"/>
<path d="M35 83h10v10h-10v-10z" fill="rgb(204,204,161)"/>
<path d="M51 83h10v10h-10v-10z" fill="rgb(204,204,161)"/>
<path d="M65 83h1v1h-1v-1z" fill="rgb(78,102,136)"/>
<path d="M78 83h1v1h-1v-1z" fill="rgb(78,102,136)"/>
<path d="M79 83h1v3h-1v-3z" fill="rgb(153,153,121)"/>
<path d="M4 84h4v8h-4v-8z" fill="rgb(154,141,111)"/>
<path d="M8 84h4v8h-4v-8z" fill="rgb(206,188,148)"/>
<path d="M20 84h8v2h-8v-2z" fill="rgb(206,188,148)"/>
<path d="M36 84h8v8h-8v-8z" fill="rgb(206,188,148)"/>
<path d="M52 84h8v8h-8v-8z" fill="rgb(206,188,148)"/>
<path d="M65 84h1v2h1v2h-1v-1h-1v-3z" fill="rgb(149,145,113)"/>
<path d="M66 84h12v1h-12v-1z" fill="rgb(78,102,136)"/>
<path d="M78 84h1v3h-1v1h-1v-2h1v-2z" fill="rgb(149,145,113)"/>
<path d="M66 85h3v1h-3v-1z" fill="rgb(48,48,48)"/>
<path d="M69 85h6v1h1v2h-8v-2h1v-1z" fill="rgb(154,141,111)"/>
<path d="M75 85h3v1h-3v-1z" fill="rgb(48,48,48)"/>
<path d="M20 86h8v4h-8v-4z" fill="rgb(165,150,118)"/>
<path d="M67 86h1v2h-1v-2z" fill="rgb(153,153,121)"/>
<path d="M76 86h1v2h-1v-2z" fill="rgb(153,153,121)"/>
<path d="M18 87h1v3h-2v-2h1v-1z" fill="rgb(159,154,121)"/>
<path d="M19 87h1v3h-1v-3z" fill="rgb(163,163,129)"/>
<path d="M28 87h1v3h-1v-3z" fill="rgb(163,163,129)"/>
<path d="M29 87h1v1h1v2h-2v-3z" fill="rgb(159,154,121)"/>
<path d="M65 87h1v1h1v5h10v-5h1v-1h1v7h-1v1h-12v-1h-1v-7z" fill="rgb(199,193,151)"/>
<path d="M16 88h1v2h-2v-1h1v-1z" fill="rgb(163,163,129)"/>
<path d="M31 88h1v1h1v1h-2v-2z" fill="rgb(163,163,129)"/>
<path d="M67 88h1v4h8v-4h1v5h-10v-5z" fill="rgb(204,204,161)"/>
<path d="M68 88h8v4h-8v-4z" fill="rgb(206,188,148)"/>
<path d="M15 90h2v2h-2v-2z" fill="rgb(122,122,97)"/>
<path d="M17 90h2v2h-2v-2z" fill="rgb(119,116,91)"/>
<path d="M19 90h1v2h-1v-2z" fill="rgb(122,122,97)"/>
<path d="M20 90h8v2h-8v-2z" fill="rgb(124,113,89)"/>
<path d="M28 90h1v2h-1v-2z" fill="rgb(122,122,97)"/>
<path d="M29 90h2v2h-2v-2z" fill="rgb(119,116,91)"/>
<path d="M31 90h2v2h-2v-2z" fill="rgb(122,122,97)"/>
<path d="M14 91h1v1h-1v-1z" fill="rgb(119,116,91)"/>
<path d="M33 91h1v1h-1v-1z" fill="rgb(119,116,91)"/>
<path d="M14 92h1v2h-2v-1h1v-1z" fill="rgb(80,77,60)"/>
<path d="M15 92h2v2h-2v-2z" fill="rgb(82,82,64)"/>
<path d="M17 92h2v1h10v-1h2v2h-14v-2z" fill="rgb(80,77,60)"/>
<path d="M19 92h10v1h-10v-1z" fill="rgb(82,82,64)"/>
<path d="M31 92h2v2h-2v-2z" fill="rgb(82,82,64)"/>
<path d="M33 92h1v1h1v1h-2v-2z" fill="rgb(80,77,60)"/>
<path d="M8 93h5v2h-5v-2z" fill="rgb(199,193,151)"/>
<path d="M13 94h1v1h-1v-1z" fill="rgb(40,39,30)"/>
<path d="M14 94h4v1h12v-1h4v1h1v1h-22v-1h1v-1z" fill="rgb(41,41,32)"/>
<path d="M18 94h12v1h-12v-1z" fill="rgb(40,39,30)"/>
<path d="M34 94h1v1h-1v-1z" fill="rgb(40,39,30)"/>
<path d="M8 95h5v1h-5v-1z" fill="rgb(204,204,161)"/>
</svg>
