<?xml version="1.0" encoding="utf-8"?>
<!-- Generator: Adobe Illustrator 16.0.4, SVG Export Plug-In . SVG Version: 6.00 Build 0)  -->
<!DOCTYPE svg PUBLIC "-//W3C//DTD SVG 1.1//EN" "http://www.w3.org/Graphics/SVG/1.1/DTD/svg11.dtd">
<svg version="1.1" id="Layer_1" xmlns="http://www.w3.org/2000/svg" xmlns:xlink="http://www.w3.org/1999/xlink" x="0px" y="0px"
	 width="92px" height="116px" viewBox="0 0 92 116" enable-background="new 0 0 92 116" xml:space="preserve">
<path fill="#584C62" d="M7,10h2v1H7V10z"/>
<path fill="#584C62" d="M14,10h2v1h-2V10z"/>
<path fill="#584C62" d="M53,10h2v1h-2V10z"/>
<path fill="#584C62" d="M60,10h2v1h-2V10z"/>
<path fill="#354048" d="M7,11h1v2H7V11z"/>
<path fill="#AEC3BE" d="M8,11h1v1H8V11z"/>
<path fill="#584C62" d="M9,11h1v1H9V11z"/>
<path fill="#584C62" d="M13,11h1v1h-1V11z"/>
<path fill="#AEC3BE" d="M14,11h1v1h-1V11z"/>
<path fill="#354048" d="M15,11h1v2h-1V11z"/>
<path fill="#584C62" d="M30,11h2v1h-2V11z"/>
<path fill="#584C62" d="M37,11h2v1h-2V11z"/>
<path fill="#354048" d="M53,11h1v2h-1V11z"/>
<path fill="#AEC3BE" d="M54,11h1v1h-1V11z"/>
<path fill="#584C62" d="M55,11h1v1h-1V11z"/>
<path fill="#584C62" d="M59,11h1v1h-1V11z"/>
<path fill="#AEC3BE" d="M60,11h1v1h-1V11z"/>
<path fill="#354048" d="M61,11h1v2h-1V11z"/>
<path fill="#584C62" d="M76,11h2v1h-2V11z"/>
<path fill="#584C62" d="M83,11h2v1h-2V11z"/>
<path fill="#F77DB7" d="M8,12h1v2H8V12z"/>
<path fill="#AEC3BE" d="M9,12h1v2H9V12z"/>
<path fill="#354048" d="M10,12h1v1h-1V12z"/>
<path fill="#584C62" d="M11,12h1v1h-1V12z"/>
<path fill="#354048" d="M12,12h1v1h-1V12z"/>
<path fill="#AEC3BE" d="M13,12h1v2h-1V12z"/>
<path fill="#F77DB7" d="M14,12h1v2h-1V12z"/>
<path fill="#354048" d="M30,12h1v2h-1V12z"/>
<path fill="#AEC3BE" d="M31,12h1v1h-1V12z"/>
<path fill="#584C62" d="M32,12h1v1h-1V12z"/>
<path fill="#584C62" d="M36,12h1v1h-1V12z"/>
<path fill="#AEC3BE" d="M37,12h1v1h-1V12z"/>
<path fill="#354048" d="M38,12h1v2h-1V12z"/>
<path fill="#F77DB7" d="M54,12h1v2h-1V12z"/>
<path fill="#AEC3BE" d="M55,12h1v2h-1V12z"/>
<path fill="#354048" d="M56,12h1v1h-1V12z"/>
<path fill="#584C62" d="M57,12h1v1h-1V12z"/>
<path fill="#354048" d="M58,12h1v1h-1V12z"/>
<path fill="#AEC3BE" d="M59,12h1v2h-1V12z"/>
<path fill="#F77DB7" d="M60,12h1v2h-1V12z"/>
<path fill="#354048" d="M76,12h1v2h-1V12z"/>
<path fill="#AEC3BE" d="M77,12h1v1h-1V12z"/>
<path fill="#584C62" d="M78,12h1v1h-1V12z"/>
<path fill="#584C62" d="M82,12h1v1h-1V12z"/>
<path fill="#AEC3BE" d="M83,12h1v1h-1V12z"/>
<path fill="#354048" d="M84,12h1v2h-1V12z"/>
<path fill="#584C62" d="M7,13h1v1H7V13z"/>
<path fill="#E4E8DA" d="M10,13h3v1h1v1h1v2h-1v-1h-1v2h-3v-2H9v1H8v-2h1v-1h1V13z"/>
<path fill="#584C62" d="M15,13h1v1h-1V13z"/>
<path fill="#F77DB7" d="M31,13h1v2h-1V13z"/>
<path fill="#AEC3BE" d="M32,13h1v2h-1V13z"/>
<path fill="#354048" d="M33,13h1v1h-1V13z"/>
<path fill="#584C62" d="M34,13h1v1h-1V13z"/>
<path fill="#354048" d="M35,13h1v1h-1V13z"/>
<path fill="#AEC3BE" d="M36,13h1v2h-1V13z"/>
<path fill="#F77DB7" d="M37,13h1v2h-1V13z"/>
<path fill="#584C62" d="M53,13h1v1h-1V13z"/>
<path fill="#E4E8DA" d="M56,13h3v1h1v1h1v2h-1v-1h-1v2h-3v-2h-1v1h-1v-2h1v-1h1V13z"/>
<path fill="#584C62" d="M61,13h1v1h-1V13z"/>
<path fill="#F77DB7" d="M77,13h1v2h-1V13z"/>
<path fill="#AEC3BE" d="M78,13h1v2h-1V13z"/>
<path fill="#354048" d="M79,13h1v1h-1V13z"/>
<path fill="#584C62" d="M80,13h1v1h-1V13z"/>
<path fill="#354048" d="M81,13h1v1h-1V13z"/>
<path fill="#AEC3BE" d="M82,13h1v2h-1V13z"/>
<path fill="#F77DB7" d="M83,13h1v2h-1V13z"/>
<path fill="#354048" d="M7,14h1v4H7V14z"/>
<path fill="#AEC3BE" d="M8,14h1v1H8V14z"/>
<path fill="#AEC3BE" d="M14,14h1v1h-1V14z"/>
<path fill="#354048" d="M15,14h1v4h-1V14z"/>
<path fill="#584C62" d="M30,14h1v1h-1V14z"/>
<path fill="#E4E8DA" d="M33,14h3v1h1v1h1v2h-1v-1h-1v2h-3v-2h-1v1h-1v-2h1v-1h1V14z"/>
<path fill="#584C62" d="M38,14h1v1h-1V14z"/>
<path fill="#354048" d="M53,14h1v4h-1V14z"/>
<path fill="#AEC3BE" d="M54,14h1v1h-1V14z"/>
<path fill="#AEC3BE" d="M60,14h1v1h-1V14z"/>
<path fill="#354048" d="M61,14h1v4h-1V14z"/>
<path fill="#584C62" d="M76,14h1v1h-1V14z"/>
<path fill="#E4E8DA" d="M79,14h3v1h1v1h1v2h-1v-1h-1v2h-3v-2h-1v1h-1v-2h1v-1h1V14z"/>
<path fill="#584C62" d="M84,14h1v1h-1V14z"/>
<path fill="#354048" d="M30,15h1v4h-1V15z"/>
<path fill="#AEC3BE" d="M31,15h1v1h-1V15z"/>
<path fill="#AEC3BE" d="M37,15h1v1h-1V15z"/>
<path fill="#354048" d="M38,15h1v4h-1V15z"/>
<path fill="#354048" d="M76,15h1v4h-1V15z"/>
<path fill="#AEC3BE" d="M77,15h1v1h-1V15z"/>
<path fill="#AEC3BE" d="M83,15h1v1h-1V15z"/>
<path fill="#354048" d="M84,15h1v4h-1V15z"/>
<path fill="#AEC3BE" d="M9,16h1v1H9V16z"/>
<path fill="#AEC3BE" d="M13,16h1v1h-1V16z"/>
<path fill="#AEC3BE" d="M55,16h1v1h-1V16z"/>
<path fill="#AEC3BE" d="M59,16h1v1h-1V16z"/>
<path fill="#AEC3BE" d="M8,17h1v1H8V17z"/>
<path fill="#354048" d="M9,17h1v1H9V17z"/>
<path fill="#354048" d="M13,17h1v1h-1V17z"/>
<path fill="#AEC3BE" d="M14,17h1v1h-1V17z"/>
<path fill="#AEC3BE" d="M32,17h1v1h-1V17z"/>
<path fill="#AEC3BE" d="M36,17h1v1h-1V17z"/>
<path fill="#AEC3BE" d="M54,17h1v1h-1V17z"/>
<path fill="#354048" d="M55,17h1v1h-1V17z"/>
<path fill="#354048" d="M59,17h1v1h-1V17z"/>
<path fill="#AEC3BE" d="M60,17h1v1h-1V17z"/>
<path fill="#AEC3BE" d="M78,17h1v1h-1V17z"/>
<path fill="#AEC3BE" d="M82,17h1v1h-1V17z"/>
<path fill="#584C62" d="M6,18h2v2H7v-1H6V18z"/>
<path fill="#E4E8DA" d="M8,18h2v1H8V18z"/>
<path fill="#AEC3BE" d="M10,18h1v1h-1V18z"/>
<path fill="#354048" d="M11,18h1v1h-1V18z"/>
<path fill="#AEC3BE" d="M12,18h1v1h-1V18z"/>
<path fill="#E4E8DA" d="M13,18h2v1h-2V18z"/>
<path fill="#584C62" d="M15,18h2v1h-1v1h-1V18z"/>
<path fill="#AEC3BE" d="M31,18h1v1h-1V18z"/>
<path fill="#354048" d="M32,18h1v1h-1V18z"/>
<path fill="#354048" d="M36,18h1v1h-1V18z"/>
<path fill="#AEC3BE" d="M37,18h1v1h-1V18z"/>
<path fill="#584C62" d="M52,18h2v2h-1v-1h-1V18z"/>
<path fill="#E4E8DA" d="M54,18h2v1h-2V18z"/>
<path fill="#AEC3BE" d="M56,18h1v1h-1V18z"/>
<path fill="#354048" d="M57,18h1v1h-1V18z"/>
<path fill="#AEC3BE" d="M58,18h1v1h-1V18z"/>
<path fill="#E4E8DA" d="M59,18h2v1h-2V18z"/>
<path fill="#584C62" d="M61,18h2v1h-1v1h-1V18z"/>
<path fill="#AEC3BE" d="M77,18h1v1h-1V18z"/>
<path fill="#354048" d="M78,18h1v1h-1V18z"/>
<path fill="#354048" d="M82,18h1v1h-1V18z"/>
<path fill="#AEC3BE" d="M83,18h1v1h-1V18z"/>
<path fill="#354048" d="M8,19h1v1H8V19z"/>
<path fill="#AEC3BE" d="M9,19h1v1H9V19z"/>
<path fill="#E4E8DA" d="M10,19h3v1h-3V19z"/>
<path fill="#AEC3BE" d="M13,19h1v1h-1V19z"/>
<path fill="#354048" d="M14,19h1v1h-1V19z"/>
<path fill="#584C62" d="M29,19h2v3h-1v-2h-1V19z"/>
<path fill="#E4E8DA" d="M31,19h2v1h-2V19z"/>
<path fill="#AEC3BE" d="M33,19h1v1h-1V19z"/>
<path fill="#354048" d="M34,19h1v1h-1V19z"/>
<path fill="#AEC3BE" d="M35,19h1v1h-1V19z"/>
<path fill="#E4E8DA" d="M36,19h2v1h-2V19z"/>
<path fill="#584C62" d="M38,19h2v1h-2V19z"/>
<path fill="#354048" d="M54,19h1v1h-1V19z"/>
<path fill="#AEC3BE" d="M55,19h1v1h-1V19z"/>
<path fill="#E4E8DA" d="M56,19h3v1h-3V19z"/>
<path fill="#AEC3BE" d="M59,19h1v1h-1V19z"/>
<path fill="#354048" d="M60,19h1v1h-1V19z"/>
<path fill="#584C62" d="M75,19h2v1h-2V19z"/>
<path fill="#E4E8DA" d="M77,19h2v1h-2V19z"/>
<path fill="#AEC3BE" d="M79,19h1v1h-1V19z"/>
<path fill="#354048" d="M80,19h1v1h-1V19z"/>
<path fill="#AEC3BE" d="M81,19h1v1h-1V19z"/>
<path fill="#E4E8DA" d="M82,19h2v1h-2V19z"/>
<path fill="#584C62" d="M84,19h2v1h-1v2h-1V19z"/>
<path fill="#354048" d="M6,20h1v3h1v2h3v-1h-1v-1h3v1h-1v1h3v-2h1v-3h1v4h-1v2h-1v1H8v-1H7v-2H6V20z"/>
<path fill="#879289" d="M7,20h2v2H8v-1H7V20z"/>
<path fill="#354048" d="M9,20h1v1H9V20z"/>
<path fill="#584C62" d="M10,20h3v1h-3V20z"/>
<path fill="#354048" d="M13,20h1v1h-1V20z"/>
<path fill="#879289" d="M14,20h2v1h-1v1h-1V20z"/>
<path fill="#354048" d="M29,20h1v3h1v2h3v-1h-1v-1h3v1h-1v1h3v-2h1v-3h1v4h-1v2h-1v1h-7v-1h-1v-2h-1V20z"/>
<path fill="#354048" d="M31,20h1v1h-1V20z"/>
<path fill="#AEC3BE" d="M32,20h1v1h-1V20z"/>
<path fill="#E4E8DA" d="M33,20h3v1h-3V20z"/>
<path fill="#AEC3BE" d="M36,20h1v1h-1V20z"/>
<path fill="#354048" d="M37,20h1v1h-1V20z"/>
<path fill="#879289" d="M38,20h1v1h-1V20z"/>
<path fill="#354048" d="M52,20h1v3h1v2h3v-1h-1v-1h3v1h-1v1h3v-2h1v-3h1v4h-1v2h-1v1h-7v-1h-1v-2h-1V20z"/>
<path fill="#879289" d="M53,20h2v2h-1v-1h-1V20z"/>
<path fill="#354048" d="M55,20h1v1h-1V20z"/>
<path fill="#584C62" d="M56,20h3v1h-3V20z"/>
<path fill="#354048" d="M59,20h1v1h-1V20z"/>
<path fill="#879289" d="M60,20h2v1h-1v1h-1V20z"/>
<path fill="#354048" d="M75,20h1v3h1v2h3v-1h-1v-1h3v1h-1v1h3v-2h1v-3h1v4h-1v2h-1v1h-7v-1h-1v-2h-1V20z"/>
<path fill="#879289" d="M76,20h1v1h-1V20z"/>
<path fill="#354048" d="M77,20h1v1h-1V20z"/>
<path fill="#AEC3BE" d="M78,20h1v1h-1V20z"/>
<path fill="#E4E8DA" d="M79,20h3v1h-3V20z"/>
<path fill="#AEC3BE" d="M82,20h1v1h-1V20z"/>
<path fill="#354048" d="M83,20h1v1h-1V20z"/>
<path fill="#584C62" d="M7,21h1v1H7V21z"/>
<path fill="#E4E8DA" d="M9,21h5v1h-1v1h-3v-1H9V21z"/>
<path fill="#584C62" d="M15,21h1v1h-1V21z"/>
<path fill="#879289" d="M31,21h1v1h-1V21z"/>
<path fill="#354048" d="M32,21h1v1h-1V21z"/>
<path fill="#584C62" d="M33,21h3v1h-3V21z"/>
<path fill="#354048" d="M36,21h1v1h-1V21z"/>
<path fill="#879289" d="M37,21h1v1h-1V21z"/>
<path fill="#AEC3BE" d="M38,21h1v1h-1V21z"/>
<path fill="#584C62" d="M53,21h1v1h-1V21z"/>
<path fill="#E4E8DA" d="M55,21h5v1h-1v1h-3v-1h-1V21z"/>
<path fill="#584C62" d="M61,21h1v1h-1V21z"/>
<path fill="#AEC3BE" d="M76,21h1v1h-1V21z"/>
<path fill="#879289" d="M77,21h1v1h-1V21z"/>
<path fill="#354048" d="M78,21h1v1h-1V21z"/>
<path fill="#584C62" d="M79,21h3v1h-3V21z"/>
<path fill="#354048" d="M82,21h1v1h-1V21z"/>
<path fill="#879289" d="M83,21h1v1h-1V21z"/>
<path fill="#879289" d="M7,22h1v1H7V22z"/>
<path fill="#AEC3BE" d="M8,22h2v1H9v1H8V22z"/>
<path fill="#AEC3BE" d="M13,22h2v2h-1v-1h-1V22z"/>
<path fill="#879289" d="M15,22h1v1h-1V22z"/>
<path fill="#879289" d="M30,22h1v1h-1V22z"/>
<path fill="#AEC3BE" d="M31,22h1v1h-1V22z"/>
<path fill="#E4E8DA" d="M32,22h3v1h-3V22z"/>
<path fill="#AEC3BE" d="M35,22h3v1h-3V22z"/>
<path fill="#879289" d="M38,22h1v1h-1V22z"/>
<path fill="#879289" d="M53,22h1v1h-1V22z"/>
<path fill="#AEC3BE" d="M54,22h2v1h-1v1h-1V22z"/>
<path fill="#AEC3BE" d="M59,22h2v2h-1v-1h-1V22z"/>
<path fill="#879289" d="M61,22h1v1h-1V22z"/>
<path fill="#879289" d="M76,22h1v1h-1V22z"/>
<path fill="#AEC3BE" d="M77,22h3v1h-3V22z"/>
<path fill="#E4E8DA" d="M80,22h3v1h-3V22z"/>
<path fill="#AEC3BE" d="M83,22h1v1h-1V22z"/>
<path fill="#879289" d="M84,22h1v1h-1V22z"/>
<path fill="#879289" d="M9,23h1v1H9V23z"/>
<path fill="#879289" d="M13,23h1v1h-1V23z"/>
<path fill="#E4E8DA" d="M31,23h1v2h-1V23z"/>
<path fill="#879289" d="M32,23h1v1h-1V23z"/>
<path fill="#584C62" d="M36,23h1v1h-1V23z"/>
<path fill="#879289" d="M37,23h1v1h-1V23z"/>
<path fill="#879289" d="M55,23h1v1h-1V23z"/>
<path fill="#879289" d="M59,23h1v1h-1V23z"/>
<path fill="#879289" d="M77,23h1v1h-1V23z"/>
<path fill="#584C62" d="M78,23h1v1h-1V23z"/>
<path fill="#879289" d="M82,23h1v1h-1V23z"/>
<path fill="#E4E8DA" d="M83,23h1v2h-1V23z"/>
<path fill="#879289" d="M8,24h1v1H8V24z"/>
<path fill="#AEC3BE" d="M9,24h1v1H9V24z"/>
<path fill="#584C62" d="M10,24h1v1h-1V24z"/>
<path fill="#584C62" d="M12,24h1v1h-1V24z"/>
<path fill="#AEC3BE" d="M13,24h1v1h-1V24z"/>
<path fill="#879289" d="M14,24h1v1h-1V24z"/>
<path fill="#AEC3BE" d="M32,24h1v1h-1V24z"/>
<path fill="#584C62" d="M33,24h1v1h-1V24z"/>
<path fill="#584C62" d="M35,24h1v1h-1V24z"/>
<path fill="#879289" d="M36,24h1v1h-1V24z"/>
<path fill="#584C62" d="M37,24h1v1h-1V24z"/>
<path fill="#879289" d="M54,24h1v1h-1V24z"/>
<path fill="#AEC3BE" d="M55,24h1v1h-1V24z"/>
<path fill="#584C62" d="M56,24h1v1h-1V24z"/>
<path fill="#584C62" d="M58,24h1v1h-1V24z"/>
<path fill="#AEC3BE" d="M59,24h1v1h-1V24z"/>
<path fill="#879289" d="M60,24h1v1h-1V24z"/>
<path fill="#584C62" d="M77,24h1v1h-1V24z"/>
<path fill="#879289" d="M78,24h1v1h-1V24z"/>
<path fill="#584C62" d="M79,24h1v1h-1V24z"/>
<path fill="#584C62" d="M81,24h1v1h-1V24z"/>
<path fill="#AEC3BE" d="M82,24h1v1h-1V24z"/>
<path fill="#354048" d="M12,39h2v2h1v1h-2v-2h-1V39z"/>
<path fill="#354048" d="M58,39h2v2h1v1h-2v-2h-1V39z"/>
<path fill="#354048" d="M11,40h1v1h-1V40z"/>
<path fill="#AEC3BE" d="M12,40h1v1h-1V40z"/>
<path fill="#354048" d="M35,40h2v2h1v1h-2v-2h-1V40z"/>
<path fill="#354048" d="M57,40h1v1h-1V40z"/>
<path fill="#AEC3BE" d="M58,40h1v1h-1V40z"/>
<path fill="#354048" d="M82,40h2v2h1v1h-2v-2h-1V40z"/>
<path fill="#584C62" d="M10,41h2v1h-2V41z"/>
<path fill="#879289" d="M12,41h1v1h-1V41z"/>
<path fill="#584C62" d="M15,41h1v1h-1V41z"/>
<path fill="#354048" d="M34,41h1v1h-1V41z"/>
<path fill="#AEC3BE" d="M35,41h1v1h-1V41z"/>
<path fill="#584C62" d="M56,41h2v1h-2V41z"/>
<path fill="#879289" d="M58,41h1v1h-1V41z"/>
<path fill="#584C62" d="M61,41h1v1h-1V41z"/>
<path fill="#354048" d="M81,41h1v1h-1V41z"/>
<path fill="#AEC3BE" d="M82,41h1v1h-1V41z"/>
<path fill="#354048" d="M10,42h1v2h-1V42z"/>
<path fill="#E4E8DA" d="M11,42h1v1h-1V42z"/>
<path fill="#584C62" d="M12,42h1v1h-1V42z"/>
<path fill="#AEC3BE" d="M13,42h3v1h-2v1h-1V42z"/>
<path fill="#584C62" d="M16,42h1v1h-1V42z"/>
<path fill="#584C62" d="M33,42h2v1h-2V42z"/>
<path fill="#879289" d="M35,42h1v1h-1V42z"/>
<path fill="#584C62" d="M38,42h1v1h-1V42z"/>
<path fill="#354048" d="M56,42h1v2h-1V42z"/>
<path fill="#E4E8DA" d="M57,42h1v1h-1V42z"/>
<path fill="#584C62" d="M58,42h1v1h-1V42z"/>
<path fill="#AEC3BE" d="M59,42h3v1h-2v1h-1V42z"/>
<path fill="#584C62" d="M62,42h1v1h-1V42z"/>
<path fill="#584C62" d="M80,42h2v1h-2V42z"/>
<path fill="#879289" d="M82,42h1v1h-1V42z"/>
<path fill="#584C62" d="M85,42h1v1h-1V42z"/>
<path fill="#F77DB7" d="M11,43h1v2h-1V43z"/>
<path fill="#879289" d="M12,43h1v1h-1V43z"/>
<path fill="#E4E8DA" d="M14,43h2v1h1v2h-1v-1h-1v2h3v1h-1v1h-2v-1h-2v-1h1v-1h-2v-1h1v-1h1V43z"/>
<path fill="#AEC3BE" d="M16,43h1v1h-1V43z"/>
<path fill="#584C62" d="M17,43h1v2h-1V43z"/>
<path fill="#354048" d="M33,43h1v2h-1V43z"/>
<path fill="#E4E8DA" d="M34,43h1v1h-1V43z"/>
<path fill="#584C62" d="M35,43h1v1h-1V43z"/>
<path fill="#AEC3BE" d="M36,43h3v1h-2v1h-1V43z"/>
<path fill="#584C62" d="M39,43h1v1h-1V43z"/>
<path fill="#F77DB7" d="M57,43h1v2h-1V43z"/>
<path fill="#879289" d="M58,43h1v1h-1V43z"/>
<path fill="#E4E8DA" d="M60,43h2v1h1v2h-1v-1h-1v2h3v1h-1v1h-2v-1h-2v-1h1v-1h-2v-1h1v-1h1V43z"/>
<path fill="#AEC3BE" d="M62,43h1v1h-1V43z"/>
<path fill="#584C62" d="M63,43h1v2h-1V43z"/>
<path fill="#354048" d="M80,43h1v2h-1V43z"/>
<path fill="#E4E8DA" d="M81,43h1v1h-1V43z"/>
<path fill="#584C62" d="M82,43h1v1h-1V43z"/>
<path fill="#AEC3BE" d="M83,43h3v1h-2v1h-1V43z"/>
<path fill="#584C62" d="M86,43h1v1h-1V43z"/>
<path fill="#584C62" d="M10,44h1v2h-1V44z"/>
<path fill="#AEC3BE" d="M12,44h1v1h-1V44z"/>
<path fill="#F77DB7" d="M34,44h1v2h-1V44z"/>
<path fill="#879289" d="M35,44h1v1h-1V44z"/>
<path fill="#E4E8DA" d="M37,44h2v1h1v2h-1v-1h-1v2h3v1h-1v1h-2v-1h-2v-1h1v-1h-2v-1h1v-1h1V44z"/>
<path fill="#AEC3BE" d="M39,44h1v1h-1V44z"/>
<path fill="#584C62" d="M40,44h1v2h-1V44z"/>
<path fill="#584C62" d="M56,44h1v2h-1V44z"/>
<path fill="#AEC3BE" d="M58,44h1v1h-1V44z"/>
<path fill="#F77DB7" d="M81,44h1v2h-1V44z"/>
<path fill="#879289" d="M82,44h1v1h-1V44z"/>
<path fill="#E4E8DA" d="M84,44h2v1h1v2h-1v-1h-1v2h3v1h-1v1h-2v-1h-2v-1h1v-1h-2v-1h1v-1h1V44z"/>
<path fill="#AEC3BE" d="M86,44h1v1h-1V44z"/>
<path fill="#584C62" d="M87,44h1v2h-1V44z"/>
<path fill="#584C62" d="M4,45h2v1H5v2H4V45z"/>
<path fill="#879289" d="M11,45h1v1h-1V45z"/>
<path fill="#AEC3BE" d="M15,45h1v1h-1V45z"/>
<path fill="#354048" d="M17,45h1v1h1v3h-1v-2h-1V45z"/>
<path fill="#584C62" d="M28,45h1v1h-1V45z"/>
<path fill="#354048" d="M29,45h1v2h-1V45z"/>
<path fill="#584C62" d="M33,45h1v2h-1V45z"/>
<path fill="#AEC3BE" d="M35,45h1v1h-1V45z"/>
<path fill="#584C62" d="M50,45h2v1h-1v2h-1V45z"/>
<path fill="#879289" d="M57,45h1v1h-1V45z"/>
<path fill="#AEC3BE" d="M61,45h1v1h-1V45z"/>
<path fill="#354048" d="M63,45h1v1h1v3h-1v-2h-1V45z"/>
<path fill="#584C62" d="M75,45h1v1h-1V45z"/>
<path fill="#354048" d="M76,45h1v2h-1V45z"/>
<path fill="#584C62" d="M80,45h1v2h-1V45z"/>
<path fill="#AEC3BE" d="M82,45h1v1h-1V45z"/>
<path fill="#E4E8DA" d="M5,46h1v2H5V46z"/>
<path fill="#354048" d="M6,46h1v1H6V46z"/>
<path fill="#354048" d="M10,46h1v1h-1V46z"/>
<path fill="#AEC3BE" d="M11,46h3v1h-1v1h-1v-1h-1V46z"/>
<path fill="#354048" d="M15,46h1v1h-1V46z"/>
<path fill="#AEC3BE" d="M16,46h1v1h-1V46z"/>
<path fill="#584C62" d="M27,46h1v2h-1V46z"/>
<path fill="#E4E8DA" d="M28,46h1v2h-1V46z"/>
<path fill="#879289" d="M34,46h1v1h-1V46z"/>
<path fill="#AEC3BE" d="M38,46h1v1h-1V46z"/>
<path fill="#354048" d="M40,46h1v1h1v3h-1v-2h-1V46z"/>
<path fill="#E4E8DA" d="M51,46h1v2h-1V46z"/>
<path fill="#354048" d="M52,46h1v1h-1V46z"/>
<path fill="#354048" d="M56,46h1v1h-1V46z"/>
<path fill="#AEC3BE" d="M57,46h3v1h-1v1h-1v-1h-1V46z"/>
<path fill="#354048" d="M61,46h1v1h-1V46z"/>
<path fill="#AEC3BE" d="M62,46h1v1h-1V46z"/>
<path fill="#584C62" d="M74,46h1v2h-1V46z"/>
<path fill="#E4E8DA" d="M75,46h1v2h-1V46z"/>
<path fill="#879289" d="M81,46h1v1h-1V46z"/>
<path fill="#AEC3BE" d="M85,46h1v1h-1V46z"/>
<path fill="#354048" d="M87,46h1v1h1v3h-1v-2h-1V46z"/>
<path fill="#879289" d="M6,47h1v1H6V47z"/>
<path fill="#354048" d="M7,47h1v1H7V47z"/>
<path fill="#584C62" d="M8,47h1v1H8V47z"/>
<path fill="#354048" d="M9,47h1v1H9V47z"/>
<path fill="#879289" d="M10,47h2v1h-2V47z"/>
<path fill="#879289" d="M29,47h1v1h-1V47z"/>
<path fill="#354048" d="M30,47h1v1h-1V47z"/>
<path fill="#584C62" d="M31,47h1v1h-1V47z"/>
<path fill="#354048" d="M32,47h2v1h-2V47z"/>
<path fill="#AEC3BE" d="M34,47h3v1h-1v1h-1v-1h-1V47z"/>
<path fill="#354048" d="M38,47h1v1h-1V47z"/>
<path fill="#AEC3BE" d="M39,47h1v1h-1V47z"/>
<path fill="#879289" d="M52,47h1v1h-1V47z"/>
<path fill="#354048" d="M53,47h1v1h-1V47z"/>
<path fill="#584C62" d="M54,47h1v1h-1V47z"/>
<path fill="#354048" d="M55,47h1v1h-1V47z"/>
<path fill="#879289" d="M56,47h2v1h-2V47z"/>
<path fill="#879289" d="M76,47h1v1h-1V47z"/>
<path fill="#354048" d="M77,47h1v1h-1V47z"/>
<path fill="#584C62" d="M78,47h1v1h-1V47z"/>
<path fill="#354048" d="M79,47h2v1h-2V47z"/>
<path fill="#AEC3BE" d="M81,47h3v1h-1v1h-1v-1h-1V47z"/>
<path fill="#354048" d="M85,47h1v1h-1V47z"/>
<path fill="#AEC3BE" d="M86,47h1v1h-1V47z"/>
<path fill="#354048" d="M4,48h1v1H4V48z"/>
<path fill="#879289" d="M5,48h1v1H5V48z"/>
<path fill="#AEC3BE" d="M6,48h2v1H6V48z"/>
<path fill="#E4E8DA" d="M8,48h3v1h1v1h1v1h-1v2h-1v-3H9v1H8v1H7v-3h1V48z"/>
<path fill="#AEC3BE" d="M11,48h1v1h-1V48z"/>
<path fill="#879289" d="M12,48h1v1h-1V48z"/>
<path fill="#AEC3BE" d="M13,48h2v1h-2V48z"/>
<path fill="#AEC3BE" d="M17,48h1v1h-1V48z"/>
<path fill="#354048" d="M27,48h1v1h-1V48z"/>
<path fill="#879289" d="M28,48h1v1h-1V48z"/>
<path fill="#AEC3BE" d="M29,48h2v1h-2V48z"/>
<path fill="#E4E8DA" d="M31,48h2v1h1v1h1v1h-2v-1h-1v1h-2v-2h1V48z"/>
<path fill="#879289" d="M33,48h2v1h-2V48z"/>
<path fill="#354048" d="M50,48h1v1h-1V48z"/>
<path fill="#879289" d="M51,48h1v1h-1V48z"/>
<path fill="#AEC3BE" d="M52,48h2v1h-2V48z"/>
<path fill="#E4E8DA" d="M54,48h3v1h1v1h1v1h-1v2h-1v-3h-2v1h-1v1h-1v-3h1V48z"/>
<path fill="#AEC3BE" d="M57,48h1v1h-1V48z"/>
<path fill="#879289" d="M58,48h1v1h-1V48z"/>
<path fill="#AEC3BE" d="M59,48h2v1h-2V48z"/>
<path fill="#AEC3BE" d="M63,48h1v1h-1V48z"/>
<path fill="#354048" d="M74,48h1v1h-1V48z"/>
<path fill="#879289" d="M75,48h1v1h-1V48z"/>
<path fill="#AEC3BE" d="M76,48h2v1h-2V48z"/>
<path fill="#E4E8DA" d="M78,48h2v1h1v1h1v1h-2v-1h-1v1h-2v-2h1V48z"/>
<path fill="#879289" d="M80,48h2v1h-2V48z"/>
<path fill="#584C62" d="M5,49h1v1H5V49z"/>
<path fill="#879289" d="M6,49h1v1H6V49z"/>
<path fill="#AEC3BE" d="M12,49h1v1h-1V49z"/>
<path fill="#879289" d="M13,49h2v1h-1v1h-1V49z"/>
<path fill="#354048" d="M15,49h3v1h-2v1h1v1h2v2h-1v1h-2v1H7v-1H5v-1H4v-2h1v-2h1v2h1v2h3v-1h1v1h3v-4h1V49z"/>
<path fill="#584C62" d="M28,49h1v1h-1V49z"/>
<path fill="#879289" d="M29,49h1v1h-1V49z"/>
<path fill="#AEC3BE" d="M34,49h1v1h-1V49z"/>
<path fill="#879289" d="M35,49h1v1h-1V49z"/>
<path fill="#AEC3BE" d="M36,49h2v1h-2V49z"/>
<path fill="#AEC3BE" d="M40,49h1v1h-1V49z"/>
<path fill="#584C62" d="M51,49h1v1h-1V49z"/>
<path fill="#879289" d="M52,49h1v1h-1V49z"/>
<path fill="#AEC3BE" d="M58,49h1v1h-1V49z"/>
<path fill="#879289" d="M59,49h2v1h-1v1h-1V49z"/>
<path fill="#354048" d="M61,49h3v1h-2v1h1v1h2v2h-1v1h-2v1h-9v-1h-2v-1h-1v-2h1v-2h1v2h1v2h3v-1h1v1h3v-4h1V49z"/>
<path fill="#584C62" d="M75,49h1v1h-1V49z"/>
<path fill="#879289" d="M76,49h1v1h-1V49z"/>
<path fill="#AEC3BE" d="M81,49h1v1h-1V49z"/>
<path fill="#879289" d="M82,49h1v1h-1V49z"/>
<path fill="#AEC3BE" d="M83,49h2v1h-2V49z"/>
<path fill="#AEC3BE" d="M87,49h1v1h-1V49z"/>
<path fill="#AEC3BE" d="M6,50h1v1H6V50z"/>
<path fill="#AEC3BE" d="M9,50h2v2h-1v-1H9V50z"/>
<path fill="#354048" d="M28,50h1v2h-1V50z"/>
<path fill="#AEC3BE" d="M29,50h1v1h-1V50z"/>
<path fill="#AEC3BE" d="M32,50h1v1h-1V50z"/>
<path fill="#AEC3BE" d="M35,50h1v2h-3v-1h2V50z"/>
<path fill="#879289" d="M36,50h2v1h-1v1h-1V50z"/>
<path fill="#354048" d="M38,50h3v1h-1v1h2v2h-1v1h-2v1h-9v-1h-2v-1h-1v-2h1v1h1v1h3v-1h1v-1h1v1h2v1h2v-2h-1v-1h1V50z"/>
<path fill="#AEC3BE" d="M52,50h1v1h-1V50z"/>
<path fill="#AEC3BE" d="M55,50h2v2h-1v-1h-1V50z"/>
<path fill="#354048" d="M75,50h1v2h1v1h1v1h4v-1h4v-1h-1v-2h3v1h-1v1h2v2h-1v1h-2v1h-9v-1h-2v-1h-1v-2h1V50z"/>
<path fill="#AEC3BE" d="M76,50h1v1h-1V50z"/>
<path fill="#AEC3BE" d="M79,50h1v1h-1V50z"/>
<path fill="#AEC3BE" d="M82,50h1v1h-1V50z"/>
<path fill="#879289" d="M83,50h2v1h-1v1h-1v1h-1v1h-1v-2h1v-1h1V50z"/>
<path fill="#879289" d="M6,51h1v1H6V51z"/>
<path fill="#AEC3BE" d="M8,51h1v1H8V51z"/>
<path fill="#879289" d="M9,51h1v1H9V51z"/>
<path fill="#AEC3BE" d="M12,51h1v1h-1V51z"/>
<path fill="#584C62" d="M13,51h1v1h-1V51z"/>
<path fill="#879289" d="M29,51h1v2h-1V51z"/>
<path fill="#AEC3BE" d="M30,51h2v1h-1v1h-1V51z"/>
<path fill="#879289" d="M32,51h1v1h-1V51z"/>
<path fill="#879289" d="M52,51h1v1h-1V51z"/>
<path fill="#AEC3BE" d="M54,51h1v1h-1V51z"/>
<path fill="#879289" d="M55,51h1v1h-1V51z"/>
<path fill="#AEC3BE" d="M58,51h1v1h-1V51z"/>
<path fill="#584C62" d="M59,51h1v1h-1V51z"/>
<path fill="#879289" d="M76,51h1v1h-1V51z"/>
<path fill="#AEC3BE" d="M77,51h2v2h-1v-1h-1V51z"/>
<path fill="#879289" d="M79,51h1v2h-1V51z"/>
<path fill="#AEC3BE" d="M80,51h2v1h-1v2h-1V51z"/>
<path fill="#584C62" d="M84,51h1v2h-2v-1h1V51z"/>
<path fill="#AEC3BE" d="M7,52h1v1H7V52z"/>
<path fill="#879289" d="M8,52h1v1H8V52z"/>
<path fill="#354048" d="M9,52h1v1H9V52z"/>
<path fill="#879289" d="M10,52h1v1h-1V52z"/>
<path fill="#879289" d="M12,52h2v2h-1v-1h-1V52z"/>
<path fill="#584C62" d="M28,52h1v1h-1V52z"/>
<path fill="#879289" d="M31,52h1v1h-1V52z"/>
<path fill="#584C62" d="M32,52h1v1h-1V52z"/>
<path fill="#584C62" d="M34,52h1v1h-1V52z"/>
<path fill="#879289" d="M35,52h1v1h-1V52z"/>
<path fill="#AEC3BE" d="M36,52h1v1h-1V52z"/>
<path fill="#879289" d="M37,52h1v1h-1V52z"/>
<path fill="#AEC3BE" d="M53,52h1v1h-1V52z"/>
<path fill="#879289" d="M54,52h1v1h-1V52z"/>
<path fill="#354048" d="M55,52h1v1h-1V52z"/>
<path fill="#879289" d="M56,52h1v1h-1V52z"/>
<path fill="#879289" d="M58,52h2v2h-1v-1h-1V52z"/>
<path fill="#879289" d="M77,52h1v1h-1V52z"/>
<path fill="#879289" d="M85,52h1v1h-1V52z"/>
<path fill="#879289" d="M7,53h1v1H7V53z"/>
<path fill="#AEC3BE" d="M8,53h1v1H8V53z"/>
<path fill="#584C62" d="M9,53h1v1H9V53z"/>
<path fill="#AEC3BE" d="M11,53h1v1h-1V53z"/>
<path fill="#584C62" d="M12,53h1v1h-1V53z"/>
<path fill="#AEC3BE" d="M29,53h1v1h-1V53z"/>
<path fill="#879289" d="M30,53h1v1h-1V53z"/>
<path fill="#584C62" d="M31,53h1v1h-1V53z"/>
<path fill="#879289" d="M36,53h1v1h-1V53z"/>
<path fill="#AEC3BE" d="M37,53h1v1h-1V53z"/>
<path fill="#879289" d="M53,53h1v1h-1V53z"/>
<path fill="#AEC3BE" d="M54,53h1v1h-1V53z"/>
<path fill="#584C62" d="M55,53h1v1h-1V53z"/>
<path fill="#AEC3BE" d="M57,53h1v1h-1V53z"/>
<path fill="#584C62" d="M58,53h1v1h-1V53z"/>
<path fill="#879289" d="M78,53h1v1h-1V53z"/>
<path fill="#584C62" d="M79,53h1v1h-1V53z"/>
<path fill="#584C62" d="M7,68h2v1H7V68z"/>
<path fill="#584C62" d="M14,68h2v1h-2V68z"/>
<path fill="#584C62" d="M53,68h2v1h-2V68z"/>
<path fill="#584C62" d="M60,68h2v1h-2V68z"/>
<path fill="#354048" d="M7,69h1v2H7V69z"/>
<path fill="#AEC3BE" d="M8,69h1v1H8V69z"/>
<path fill="#584C62" d="M9,69h1v1H9V69z"/>
<path fill="#584C62" d="M13,69h1v1h-1V69z"/>
<path fill="#AEC3BE" d="M14,69h1v1h-1V69z"/>
<path fill="#354048" d="M15,69h1v2h-1V69z"/>
<path fill="#584C62" d="M30,69h2v1h-2V69z"/>
<path fill="#584C62" d="M37,69h2v1h-2V69z"/>
<path fill="#354048" d="M53,69h1v2h-1V69z"/>
<path fill="#AEC3BE" d="M54,69h1v1h-1V69z"/>
<path fill="#584C62" d="M55,69h1v1h-1V69z"/>
<path fill="#584C62" d="M59,69h1v1h-1V69z"/>
<path fill="#AEC3BE" d="M60,69h1v1h-1V69z"/>
<path fill="#354048" d="M61,69h1v2h-1V69z"/>
<path fill="#584C62" d="M76,69h2v1h-2V69z"/>
<path fill="#584C62" d="M83,69h2v1h-2V69z"/>
<path fill="#F77DB7" d="M8,70h1v2H8V70z"/>
<path fill="#AEC3BE" d="M9,70h1v2H9V70z"/>
<path fill="#354048" d="M10,70h1v1h-1V70z"/>
<path fill="#584C62" d="M11,70h1v1h-1V70z"/>
<path fill="#354048" d="M12,70h1v1h-1V70z"/>
<path fill="#AEC3BE" d="M13,70h1v2h-1V70z"/>
<path fill="#F77DB7" d="M14,70h1v2h-1V70z"/>
<path fill="#354048" d="M30,70h1v2h-1V70z"/>
<path fill="#AEC3BE" d="M31,70h1v1h-1V70z"/>
<path fill="#584C62" d="M32,70h1v1h-1V70z"/>
<path fill="#584C62" d="M36,70h1v1h-1V70z"/>
<path fill="#AEC3BE" d="M37,70h1v1h-1V70z"/>
<path fill="#354048" d="M38,70h1v2h-1V70z"/>
<path fill="#F77DB7" d="M54,70h1v2h-1V70z"/>
<path fill="#AEC3BE" d="M55,70h1v2h-1V70z"/>
<path fill="#354048" d="M56,70h1v1h-1V70z"/>
<path fill="#584C62" d="M57,70h1v1h-1V70z"/>
<path fill="#354048" d="M58,70h1v1h-1V70z"/>
<path fill="#AEC3BE" d="M59,70h1v2h-1V70z"/>
<path fill="#F77DB7" d="M60,70h1v2h-1V70z"/>
<path fill="#354048" d="M76,70h1v2h-1V70z"/>
<path fill="#AEC3BE" d="M77,70h1v1h-1V70z"/>
<path fill="#584C62" d="M78,70h1v1h-1V70z"/>
<path fill="#584C62" d="M82,70h1v1h-1V70z"/>
<path fill="#AEC3BE" d="M83,70h1v1h-1V70z"/>
<path fill="#354048" d="M84,70h1v2h-1V70z"/>
<path fill="#584C62" d="M7,71h1v1H7V71z"/>
<path fill="#E4E8DA" d="M10,71h3v1h1v1h1v1h-1v1H9v-1H8v-1h1v-1h1V71z"/>
<path fill="#584C62" d="M15,71h1v1h-1V71z"/>
<path fill="#F77DB7" d="M31,71h1v2h-1V71z"/>
<path fill="#AEC3BE" d="M32,71h1v2h-1V71z"/>
<path fill="#354048" d="M33,71h1v1h-1V71z"/>
<path fill="#584C62" d="M34,71h1v1h-1V71z"/>
<path fill="#354048" d="M35,71h1v1h-1V71z"/>
<path fill="#AEC3BE" d="M36,71h1v2h-1V71z"/>
<path fill="#F77DB7" d="M37,71h1v2h-1V71z"/>
<path fill="#584C62" d="M53,71h1v1h-1V71z"/>
<path fill="#E4E8DA" d="M56,71h3v1h1v1h1v1h-1v1h-5v-1h-1v-1h1v-1h1V71z"/>
<path fill="#584C62" d="M61,71h1v1h-1V71z"/>
<path fill="#F77DB7" d="M77,71h1v2h-1V71z"/>
<path fill="#AEC3BE" d="M78,71h1v2h-1V71z"/>
<path fill="#354048" d="M79,71h1v1h-1V71z"/>
<path fill="#584C62" d="M80,71h1v1h-1V71z"/>
<path fill="#354048" d="M81,71h1v1h-1V71z"/>
<path fill="#AEC3BE" d="M82,71h1v2h-1V71z"/>
<path fill="#F77DB7" d="M83,71h1v2h-1V71z"/>
<path fill="#354048" d="M7,72h1v4H7V72z"/>
<path fill="#AEC3BE" d="M8,72h1v1H8V72z"/>
<path fill="#AEC3BE" d="M14,72h1v1h-1V72z"/>
<path fill="#354048" d="M15,72h1v4h-1V72z"/>
<path fill="#584C62" d="M30,72h1v1h-1V72z"/>
<path fill="#E4E8DA" d="M33,72h3v1h1v1h1v1h-1v1h-1v-1h-3v1h-1v-1h-1v-1h1v-1h1V72z"/>
<path fill="#584C62" d="M38,72h1v1h-1V72z"/>
<path fill="#354048" d="M53,72h1v4h-1V72z"/>
<path fill="#AEC3BE" d="M54,72h1v1h-1V72z"/>
<path fill="#AEC3BE" d="M60,72h1v1h-1V72z"/>
<path fill="#354048" d="M61,72h1v4h-1V72z"/>
<path fill="#584C62" d="M76,72h1v1h-1V72z"/>
<path fill="#E4E8DA" d="M79,72h3v1h1v1h1v1h-1v1h-1v-1h-3v1h-1v-1h-1v-1h1v-1h1V72z"/>
<path fill="#584C62" d="M84,72h1v1h-1V72z"/>
<path fill="#354048" d="M30,73h1v4h-1V73z"/>
<path fill="#AEC3BE" d="M31,73h1v1h-1V73z"/>
<path fill="#AEC3BE" d="M37,73h1v1h-1V73z"/>
<path fill="#354048" d="M38,73h1v4h-1V73z"/>
<path fill="#354048" d="M76,73h1v4h-1V73z"/>
<path fill="#AEC3BE" d="M77,73h1v1h-1V73z"/>
<path fill="#AEC3BE" d="M83,73h1v1h-1V73z"/>
<path fill="#354048" d="M84,73h1v4h-1V73z"/>
<path fill="#AEC3BE" d="M8,74h1v1h1v1H8V74z"/>
<path fill="#AEC3BE" d="M14,74h1v2h-2v-1h1V74z"/>
<path fill="#AEC3BE" d="M54,74h1v1h1v1h-2V74z"/>
<path fill="#AEC3BE" d="M60,74h1v2h-2v-1h1V74z"/>
<path fill="#584C62" d="M10,75h1v1h-1V75z"/>
<path fill="#879289" d="M11,75h1v1h-1V75z"/>
<path fill="#584C62" d="M12,75h1v1h-1V75z"/>
<path fill="#AEC3BE" d="M31,75h1v1h-1V75z"/>
<path fill="#AEC3BE" d="M33,75h1v1h-1V75z"/>
<path fill="#879289" d="M34,75h1v1h-1V75z"/>
<path fill="#584C62" d="M35,75h1v1h-1V75z"/>
<path fill="#AEC3BE" d="M37,75h1v1h-1V75z"/>
<path fill="#584C62" d="M56,75h1v1h-1V75z"/>
<path fill="#879289" d="M57,75h1v1h-1V75z"/>
<path fill="#584C62" d="M58,75h1v1h-1V75z"/>
<path fill="#AEC3BE" d="M77,75h1v1h-1V75z"/>
<path fill="#584C62" d="M79,75h1v1h-1V75z"/>
<path fill="#879289" d="M80,75h1v1h-1V75z"/>
<path fill="#AEC3BE" d="M81,75h1v1h-1V75z"/>
<path fill="#AEC3BE" d="M83,75h1v1h-1V75z"/>
<path fill="#584C62" d="M6,76h2v2H7v-1H6V76z"/>
<path fill="#879289" d="M8,76h2v1H8V76z"/>
<path fill="#354048" d="M10,76h1v2h-1V76z"/>
<path fill="#E4E8DA" d="M11,76h1v4h1v1h-3v-1h1V76z"/>
<path fill="#354048" d="M12,76h1v2h-1V76z"/>
<path fill="#879289" d="M13,76h2v1h-2V76z"/>
<path fill="#584C62" d="M15,76h2v1h-1v1h-1V76z"/>
<path fill="#879289" d="M31,76h1v1h1v1h-1v2h-1V76z"/>
<path fill="#AEC3BE" d="M32,76h1v1h-1V76z"/>
<path fill="#354048" d="M33,76h1v2h-1V76z"/>
<path fill="#AEC3BE" d="M34,76h1v1h-1V76z"/>
<path fill="#E4E8DA" d="M35,76h1v1h-1V76z"/>
<path fill="#AEC3BE" d="M36,76h1v1h-1V76z"/>
<path fill="#879289" d="M37,76h1v2h1v1h-1v1h-1v-2h-1v-1h1V76z"/>
<path fill="#584C62" d="M52,76h2v2h-1v-1h-1V76z"/>
<path fill="#879289" d="M54,76h2v1h-2V76z"/>
<path fill="#354048" d="M56,76h1v2h-1V76z"/>
<path fill="#E4E8DA" d="M57,76h1v4h1v1h-3v-1h1V76z"/>
<path fill="#354048" d="M58,76h1v2h-1V76z"/>
<path fill="#879289" d="M59,76h2v1h-2V76z"/>
<path fill="#584C62" d="M61,76h2v1h-1v1h-1V76z"/>
<path fill="#879289" d="M77,76h1v1h1v1h-1v2h-1v-1h-1v-1h1V76z"/>
<path fill="#AEC3BE" d="M78,76h1v1h-1V76z"/>
<path fill="#E4E8DA" d="M79,76h1v1h-1V76z"/>
<path fill="#AEC3BE" d="M80,76h1v1h-1V76z"/>
<path fill="#354048" d="M81,76h1v2h-1V76z"/>
<path fill="#AEC3BE" d="M82,76h1v1h-1V76z"/>
<path fill="#879289" d="M83,76h1v4h-1v-2h-1v-1h1V76z"/>
<path fill="#354048" d="M8,77h1v1H8V77z"/>
<path fill="#AEC3BE" d="M9,77h1v1H9V77z"/>
<path fill="#AEC3BE" d="M13,77h1v1h-1V77z"/>
<path fill="#354048" d="M14,77h1v1h-1V77z"/>
<path fill="#584C62" d="M29,77h2v3h-1v-2h-1V77z"/>
<path fill="#E4E8DA" d="M34,77h1v4h-3v-2h1v1h1V77z"/>
<path fill="#AEC3BE" d="M35,77h1v1h-1V77z"/>
<path fill="#584C62" d="M38,77h2v1h-2V77z"/>
<path fill="#354048" d="M54,77h1v1h-1V77z"/>
<path fill="#AEC3BE" d="M55,77h1v1h-1V77z"/>
<path fill="#AEC3BE" d="M59,77h1v1h-1V77z"/>
<path fill="#354048" d="M60,77h1v1h-1V77z"/>
<path fill="#584C62" d="M75,77h2v1h-2V77z"/>
<path fill="#AEC3BE" d="M79,77h1v1h-1V77z"/>
<path fill="#E4E8DA" d="M80,77h1v3h1v-1h1v2h-3V77z"/>
<path fill="#584C62" d="M84,77h2v1h-1v2h-1V77z"/>
<path fill="#354048" d="M6,78h1v3h1v2h3v-1h-1v-1h3v1h-1v1h3v-2h1v-3h1v4h-1v2h-1v1H8v-1H7v-2H6V78z"/>
<path fill="#879289" d="M7,78h2v2H8v-1H7V78z"/>
<path fill="#E4E8DA" d="M9,78h1v2H9V78z"/>
<path fill="#584C62" d="M10,78h1v1h-1V78z"/>
<path fill="#584C62" d="M12,78h1v1h-1V78z"/>
<path fill="#E4E8DA" d="M13,78h1v2h-1V78z"/>
<path fill="#879289" d="M14,78h2v1h-1v1h-1V78z"/>
<path fill="#354048" d="M29,78h1v3h1v2h3v-1h-1v-1h3v1h-1v1h3v-2h1v-3h1v4h-1v2h-1v1h-7v-1h-1v-2h-1V78z"/>
<path fill="#AEC3BE" d="M32,78h1v1h-1V78z"/>
<path fill="#584C62" d="M33,78h1v1h-1V78z"/>
<path fill="#584C62" d="M35,78h1v1h-1V78z"/>
<path fill="#AEC3BE" d="M36,78h1v1h-1V78z"/>
<path fill="#354048" d="M52,78h1v3h1v2h3v-1h-1v-1h3v1h-1v1h3v-2h1v-3h1v4h-1v2h-1v1h-7v-1h-1v-2h-1V78z"/>
<path fill="#879289" d="M53,78h2v2h-1v-1h-1V78z"/>
<path fill="#E4E8DA" d="M55,78h1v2h-1V78z"/>
<path fill="#584C62" d="M56,78h1v1h-1V78z"/>
<path fill="#584C62" d="M58,78h1v1h-1V78z"/>
<path fill="#E4E8DA" d="M59,78h1v2h-1V78z"/>
<path fill="#879289" d="M60,78h2v1h-1v1h-1V78z"/>
<path fill="#354048" d="M75,78h1v3h1v2h3v-1h-1v-1h3v1h-1v1h3v-2h1v-3h1v4h-1v2h-1v1h-7v-1h-1v-2h-1V78z"/>
<path fill="#AEC3BE" d="M78,78h1v1h-1V78z"/>
<path fill="#584C62" d="M79,78h1v1h-1V78z"/>
<path fill="#584C62" d="M81,78h1v1h-1V78z"/>
<path fill="#AEC3BE" d="M82,78h1v1h-1V78z"/>
<path fill="#584C62" d="M7,79h1v1H7V79z"/>
<path fill="#AEC3BE" d="M10,79h1v1h-1V79z"/>
<path fill="#AEC3BE" d="M12,79h1v1h-1V79z"/>
<path fill="#584C62" d="M15,79h1v1h-1V79z"/>
<path fill="#AEC3BE" d="M33,79h1v1h-1V79z"/>
<path fill="#AEC3BE" d="M35,79h1v1h2v1h-3V79z"/>
<path fill="#E4E8DA" d="M36,79h1v1h-1V79z"/>
<path fill="#AEC3BE" d="M38,79h1v1h-1V79z"/>
<path fill="#584C62" d="M53,79h1v1h-1V79z"/>
<path fill="#AEC3BE" d="M56,79h1v1h-1V79z"/>
<path fill="#AEC3BE" d="M58,79h1v1h-1V79z"/>
<path fill="#584C62" d="M61,79h1v1h-1V79z"/>
<path fill="#AEC3BE" d="M76,79h1v1h-1V79z"/>
<path fill="#E4E8DA" d="M78,79h1v1h-1V79z"/>
<path fill="#AEC3BE" d="M79,79h1v2h-3v-1h2V79z"/>
<path fill="#AEC3BE" d="M81,79h1v1h-1V79z"/>
<path fill="#879289" d="M7,80h1v1H7V80z"/>
<path fill="#AEC3BE" d="M8,80h2v1H9v1H8V80z"/>
<path fill="#AEC3BE" d="M13,80h2v2h-1v-1h-1V80z"/>
<path fill="#879289" d="M15,80h1v1h-1V80z"/>
<path fill="#879289" d="M30,80h1v1h-1V80z"/>
<path fill="#AEC3BE" d="M31,80h1v1h-1V80z"/>
<path fill="#879289" d="M38,80h1v1h-1V80z"/>
<path fill="#879289" d="M53,80h1v1h-1V80z"/>
<path fill="#AEC3BE" d="M54,80h2v1h-1v1h-1V80z"/>
<path fill="#AEC3BE" d="M59,80h2v2h-1v-1h-1V80z"/>
<path fill="#879289" d="M61,80h1v1h-1V80z"/>
<path fill="#879289" d="M76,80h1v1h-1V80z"/>
<path fill="#AEC3BE" d="M83,80h1v1h-1V80z"/>
<path fill="#879289" d="M84,80h1v1h-1V80z"/>
<path fill="#879289" d="M9,81h1v1H9V81z"/>
<path fill="#879289" d="M13,81h1v1h-1V81z"/>
<path fill="#E4E8DA" d="M31,81h1v2h-1V81z"/>
<path fill="#879289" d="M32,81h1v1h-1V81z"/>
<path fill="#584C62" d="M36,81h1v1h-1V81z"/>
<path fill="#879289" d="M37,81h1v1h-1V81z"/>
<path fill="#879289" d="M55,81h1v1h-1V81z"/>
<path fill="#879289" d="M59,81h1v1h-1V81z"/>
<path fill="#879289" d="M77,81h1v1h-1V81z"/>
<path fill="#584C62" d="M78,81h1v1h-1V81z"/>
<path fill="#879289" d="M82,81h1v1h-1V81z"/>
<path fill="#E4E8DA" d="M83,81h1v2h-1V81z"/>
<path fill="#879289" d="M8,82h1v1H8V82z"/>
<path fill="#AEC3BE" d="M9,82h1v1H9V82z"/>
<path fill="#584C62" d="M10,82h1v1h-1V82z"/>
<path fill="#584C62" d="M12,82h1v1h-1V82z"/>
<path fill="#AEC3BE" d="M13,82h1v1h-1V82z"/>
<path fill="#879289" d="M14,82h1v1h-1V82z"/>
<path fill="#AEC3BE" d="M32,82h1v1h-1V82z"/>
<path fill="#584C62" d="M33,82h1v1h-1V82z"/>
<path fill="#584C62" d="M35,82h1v1h-1V82z"/>
<path fill="#879289" d="M36,82h1v1h-1V82z"/>
<path fill="#584C62" d="M37,82h1v1h-1V82z"/>
<path fill="#879289" d="M54,82h1v1h-1V82z"/>
<path fill="#AEC3BE" d="M55,82h1v1h-1V82z"/>
<path fill="#584C62" d="M56,82h1v1h-1V82z"/>
<path fill="#584C62" d="M58,82h1v1h-1V82z"/>
<path fill="#AEC3BE" d="M59,82h1v1h-1V82z"/>
<path fill="#879289" d="M60,82h1v1h-1V82z"/>
<path fill="#584C62" d="M77,82h1v1h-1V82z"/>
<path fill="#879289" d="M78,82h1v1h-1V82z"/>
<path fill="#584C62" d="M79,82h1v1h-1V82z"/>
<path fill="#584C62" d="M81,82h1v1h-1V82z"/>
<path fill="#AEC3BE" d="M82,82h1v1h-1V82z"/>
<path fill="#354048" d="M9,97h2v1h-1v2H8v-1h1V97z"/>
<path fill="#354048" d="M54,97h2v1h-1v2h-2v-1h1V97z"/>
<path fill="#AEC3BE" d="M10,98h1v1h-1V98z"/>
<path fill="#354048" d="M11,98h1v1h-1V98z"/>
<path fill="#354048" d="M31,98h2v1h-1v2h-2v-1h1V98z"/>
<path fill="#AEC3BE" d="M55,98h1v1h-1V98z"/>
<path fill="#354048" d="M56,98h1v1h-1V98z"/>
<path fill="#354048" d="M78,98h2v1h-1v2h-2v-1h1V98z"/>
<path fill="#584C62" d="M7,99h1v1H7V99z"/>
<path fill="#879289" d="M10,99h1v1h-1V99z"/>
<path fill="#584C62" d="M11,99h2v1h-2V99z"/>
<path fill="#AEC3BE" d="M32,99h1v1h-1V99z"/>
<path fill="#354048" d="M33,99h1v1h-1V99z"/>
<path fill="#584C62" d="M52,99h1v1h-1V99z"/>
<path fill="#879289" d="M55,99h1v1h-1V99z"/>
<path fill="#584C62" d="M56,99h2v1h-2V99z"/>
<path fill="#AEC3BE" d="M79,99h1v1h-1V99z"/>
<path fill="#354048" d="M80,99h1v1h-1V99z"/>
<path fill="#584C62" d="M6,100h1v1H6V100z"/>
<path fill="#AEC3BE" d="M7,100h3v2H9v-1H7V100z"/>
<path fill="#584C62" d="M10,100h1v1h-1V100z"/>
<path fill="#E4E8DA" d="M11,100h1v1h-1V100z"/>
<path fill="#354048" d="M12,100h1v2h-1V100z"/>
<path fill="#584C62" d="M29,100h1v1h-1V100z"/>
<path fill="#879289" d="M32,100h1v1h-1V100z"/>
<path fill="#584C62" d="M33,100h2v1h-2V100z"/>
<path fill="#584C62" d="M51,100h1v1h-1V100z"/>
<path fill="#AEC3BE" d="M52,100h3v2h-1v-1h-2V100z"/>
<path fill="#584C62" d="M55,100h1v1h-1V100z"/>
<path fill="#E4E8DA" d="M56,100h1v1h-1V100z"/>
<path fill="#354048" d="M57,100h1v2h-1V100z"/>
<path fill="#584C62" d="M76,100h1v1h-1V100z"/>
<path fill="#879289" d="M79,100h1v1h-1V100z"/>
<path fill="#584C62" d="M80,100h2v1h-2V100z"/>
<path fill="#584C62" d="M5,101h1v2H5V101z"/>
<path fill="#AEC3BE" d="M6,101h1v1H6V101z"/>
<path fill="#E4E8DA" d="M7,101h2v1h1v1h1v1H9v1h1v1H8v1H6v-1H5v-1h3v-2H7v1H6v-2h1V101z"/>
<path fill="#879289" d="M10,101h1v1h-1V101z"/>
<path fill="#F77DB7" d="M11,101h1v2h-1V101z"/>
<path fill="#584C62" d="M28,101h1v1h-1V101z"/>
<path fill="#AEC3BE" d="M29,101h3v2h-1v-1h-2V101z"/>
<path fill="#584C62" d="M32,101h1v1h-1V101z"/>
<path fill="#E4E8DA" d="M33,101h1v1h-1V101z"/>
<path fill="#354048" d="M34,101h1v2h-1V101z"/>
<path fill="#584C62" d="M50,101h1v2h-1V101z"/>
<path fill="#AEC3BE" d="M51,101h1v1h-1V101z"/>
<path fill="#E4E8DA" d="M52,101h2v1h1v1h1v1h-2v1h1v1h-2v1h-2v-1h-1v-1h3v-2h-1v1h-1v-2h1V101z"/>
<path fill="#879289" d="M55,101h1v1h-1V101z"/>
<path fill="#F77DB7" d="M56,101h1v2h-1V101z"/>
<path fill="#584C62" d="M75,101h1v1h-1V101z"/>
<path fill="#AEC3BE" d="M76,101h3v2h-1v-1h-2V101z"/>
<path fill="#584C62" d="M79,101h1v1h-1V101z"/>
<path fill="#E4E8DA" d="M80,101h1v1h-1V101z"/>
<path fill="#354048" d="M81,101h1v2h-1V101z"/>
<path fill="#AEC3BE" d="M10,102h1v1h-1V102z"/>
<path fill="#584C62" d="M12,102h1v2h-1V102z"/>
<path fill="#584C62" d="M27,102h1v2h-1V102z"/>
<path fill="#AEC3BE" d="M28,102h1v1h-1V102z"/>
<path fill="#E4E8DA" d="M29,102h2v1h1v1h1v1h-2v1h1v1h-2v1h-2v-1h-1v-1h3v-2h-1v1h-1v-2h1V102z"/>
<path fill="#879289" d="M32,102h1v1h-1V102z"/>
<path fill="#F77DB7" d="M33,102h1v2h-1V102z"/>
<path fill="#AEC3BE" d="M55,102h1v1h-1V102z"/>
<path fill="#584C62" d="M57,102h1v2h-1V102z"/>
<path fill="#584C62" d="M74,102h1v2h-1V102z"/>
<path fill="#AEC3BE" d="M75,102h1v1h-1V102z"/>
<path fill="#E4E8DA" d="M76,102h2v1h1v1h1v1h-2v1h1v1h-2v1h-2v-1h-1v-1h3v-2h-1v1h-1v-2h1V102z"/>
<path fill="#879289" d="M79,102h1v1h-1V102z"/>
<path fill="#F77DB7" d="M80,102h1v2h-1V102z"/>
<path fill="#354048" d="M5,103h1v2H5v2H4v-3h1V103z"/>
<path fill="#AEC3BE" d="M7,103h1v1H7V103z"/>
<path fill="#879289" d="M11,103h1v1h-1V103z"/>
<path fill="#584C62" d="M17,103h2v3h-1v-2h-1V103z"/>
<path fill="#AEC3BE" d="M32,103h1v1h-1V103z"/>
<path fill="#584C62" d="M34,103h1v2h-1V103z"/>
<path fill="#354048" d="M38,103h1v2h-1V103z"/>
<path fill="#584C62" d="M39,103h1v1h-1V103z"/>
<path fill="#354048" d="M50,103h1v2h-1v2h-1v-3h1V103z"/>
<path fill="#AEC3BE" d="M52,103h1v1h-1V103z"/>
<path fill="#879289" d="M56,103h1v1h-1V103z"/>
<path fill="#584C62" d="M62,103h2v3h-1v-2h-1V103z"/>
<path fill="#AEC3BE" d="M79,103h1v1h-1V103z"/>
<path fill="#584C62" d="M81,103h1v2h-1V103z"/>
<path fill="#354048" d="M85,103h1v2h-1V103z"/>
<path fill="#584C62" d="M86,103h1v1h-1V103z"/>
<path fill="#AEC3BE" d="M6,104h1v1H6V104z"/>
<path fill="#354048" d="M7,104h1v1H7V104z"/>
<path fill="#AEC3BE" d="M9,104h3v1h-1v1h-1v-1H9V104z"/>
<path fill="#354048" d="M12,104h1v1h-1V104z"/>
<path fill="#354048" d="M16,104h1v1h-1V104z"/>
<path fill="#E4E8DA" d="M17,104h1v2h-1V104z"/>
<path fill="#354048" d="M27,104h1v2h-1v2h-1v-3h1V104z"/>
<path fill="#AEC3BE" d="M29,104h1v1h-1V104z"/>
<path fill="#879289" d="M33,104h1v1h-1V104z"/>
<path fill="#E4E8DA" d="M39,104h1v2h-1V104z"/>
<path fill="#584C62" d="M40,104h1v2h-1V104z"/>
<path fill="#AEC3BE" d="M51,104h1v1h-1V104z"/>
<path fill="#354048" d="M52,104h1v1h-1V104z"/>
<path fill="#AEC3BE" d="M54,104h3v1h-1v1h-1v-1h-1V104z"/>
<path fill="#354048" d="M57,104h1v1h-1V104z"/>
<path fill="#354048" d="M61,104h1v1h-1V104z"/>
<path fill="#E4E8DA" d="M62,104h1v2h-1V104z"/>
<path fill="#354048" d="M74,104h1v2h-1v2h-1v-3h1V104z"/>
<path fill="#AEC3BE" d="M76,104h1v1h-1V104z"/>
<path fill="#879289" d="M80,104h1v1h-1V104z"/>
<path fill="#E4E8DA" d="M86,104h1v2h-1V104z"/>
<path fill="#584C62" d="M87,104h1v2h-1V104z"/>
<path fill="#879289" d="M11,105h2v1h-2V105z"/>
<path fill="#354048" d="M13,105h1v1h-1V105z"/>
<path fill="#584C62" d="M14,105h1v1h-1V105z"/>
<path fill="#354048" d="M15,105h1v1h-1V105z"/>
<path fill="#879289" d="M16,105h1v1h-1V105z"/>
<path fill="#AEC3BE" d="M28,105h1v1h-1V105z"/>
<path fill="#354048" d="M29,105h1v1h-1V105z"/>
<path fill="#AEC3BE" d="M31,105h3v1h-1v1h-1v-1h-1V105z"/>
<path fill="#354048" d="M34,105h2v1h-2V105z"/>
<path fill="#584C62" d="M36,105h1v1h-1V105z"/>
<path fill="#354048" d="M37,105h1v1h-1V105z"/>
<path fill="#879289" d="M38,105h1v1h-1V105z"/>
<path fill="#879289" d="M56,105h2v1h-2V105z"/>
<path fill="#354048" d="M58,105h1v1h-1V105z"/>
<path fill="#584C62" d="M59,105h1v1h-1V105z"/>
<path fill="#354048" d="M60,105h1v1h-1V105z"/>
<path fill="#879289" d="M61,105h1v1h-1V105z"/>
<path fill="#AEC3BE" d="M75,105h1v1h-1V105z"/>
<path fill="#354048" d="M76,105h1v1h-1V105z"/>
<path fill="#AEC3BE" d="M78,105h3v1h-1v1h-1v-1h-1V105z"/>
<path fill="#354048" d="M81,105h2v1h-2V105z"/>
<path fill="#584C62" d="M83,105h1v1h-1V105z"/>
<path fill="#354048" d="M84,105h1v1h-1V105z"/>
<path fill="#879289" d="M85,105h1v1h-1V105z"/>
<path fill="#AEC3BE" d="M5,106h1v1H5V106z"/>
<path fill="#AEC3BE" d="M8,106h2v1H8V106z"/>
<path fill="#879289" d="M10,106h1v1h-1V106z"/>
<path fill="#AEC3BE" d="M11,106h1v1h-1V106z"/>
<path fill="#E4E8DA" d="M12,106h3v1h1v3h-1v-1h-1v-1h-2v3h-1v-2h-1v-1h1v-1h1V106z"/>
<path fill="#AEC3BE" d="M15,106h2v1h-2V106z"/>
<path fill="#879289" d="M17,106h1v1h-1V106z"/>
<path fill="#354048" d="M18,106h1v1h-1V106z"/>
<path fill="#879289" d="M33,106h2v1h-2V106z"/>
<path fill="#E4E8DA" d="M35,106h2v1h1v2h-2v-1h-1v1h-2v-1h1v-1h1V106z"/>
<path fill="#AEC3BE" d="M37,106h2v1h-2V106z"/>
<path fill="#879289" d="M39,106h1v1h-1V106z"/>
<path fill="#354048" d="M40,106h1v1h-1V106z"/>
<path fill="#AEC3BE" d="M50,106h1v1h-1V106z"/>
<path fill="#AEC3BE" d="M53,106h2v1h-2V106z"/>
<path fill="#879289" d="M55,106h1v1h-1V106z"/>
<path fill="#AEC3BE" d="M56,106h1v1h-1V106z"/>
<path fill="#E4E8DA" d="M57,106h3v1h1v3h-1v-1h-1v-1h-2v3h-1v-2h-1v-1h1v-1h1V106z"/>
<path fill="#AEC3BE" d="M60,106h2v1h-2V106z"/>
<path fill="#879289" d="M62,106h1v1h-1V106z"/>
<path fill="#354048" d="M63,106h1v1h-1V106z"/>
<path fill="#879289" d="M80,106h2v1h-2V106z"/>
<path fill="#E4E8DA" d="M82,106h2v1h1v2h-2v-1h-1v1h-2v-1h1v-1h1V106z"/>
<path fill="#AEC3BE" d="M84,106h2v1h-2V106z"/>
<path fill="#879289" d="M86,106h1v1h-1V106z"/>
<path fill="#354048" d="M87,106h1v1h-1V106z"/>
<path fill="#354048" d="M5,107h3v1h1v4h3v-1h1v1h3v-2h1v-2h1v2h1v2h-1v1h-2v1H7v-1H5v-1H4v-2h2v-1h1v-1H5V107z"/>
<path fill="#879289" d="M8,107h2v2H9v-1H8V107z"/>
<path fill="#AEC3BE" d="M10,107h1v1h-1V107z"/>
<path fill="#879289" d="M16,107h1v1h-1V107z"/>
<path fill="#584C62" d="M17,107h1v1h-1V107z"/>
<path fill="#AEC3BE" d="M27,107h1v1h-1V107z"/>
<path fill="#AEC3BE" d="M30,107h2v1h-2V107z"/>
<path fill="#879289" d="M32,107h1v1h-1V107z"/>
<path fill="#AEC3BE" d="M33,107h1v1h-1V107z"/>
<path fill="#879289" d="M38,107h1v1h-1V107z"/>
<path fill="#584C62" d="M39,107h1v1h-1V107z"/>
<path fill="#354048" d="M50,107h3v1h1v4h3v-1h1v1h3v-2h1v-2h1v2h1v2h-1v1h-2v1h-9v-1h-2v-1h-1v-2h2v-1h1v-1h-2V107z"/>
<path fill="#879289" d="M53,107h2v2h-1v-1h-1V107z"/>
<path fill="#AEC3BE" d="M55,107h1v1h-1V107z"/>
<path fill="#879289" d="M61,107h1v1h-1V107z"/>
<path fill="#584C62" d="M62,107h1v1h-1V107z"/>
<path fill="#AEC3BE" d="M74,107h1v1h-1V107z"/>
<path fill="#AEC3BE" d="M77,107h2v1h-2V107z"/>
<path fill="#879289" d="M79,107h1v1h-1V107z"/>
<path fill="#AEC3BE" d="M80,107h1v1h-1V107z"/>
<path fill="#879289" d="M85,107h1v1h-1V107z"/>
<path fill="#584C62" d="M86,107h1v1h-1V107z"/>
<path fill="#AEC3BE" d="M12,108h2v1h-1v1h-1V108z"/>
<path fill="#AEC3BE" d="M16,108h1v1h-1V108z"/>
<path fill="#354048" d="M27,108h3v2h-1v1h4v1h4v-1h1v-1h1v-2h1v2h1v2h-1v1h-2v1h-9v-1h-2v-1h-1v-2h2v-1h-1V108z"/>
<path fill="#879289" d="M30,108h2v1h1v1h1v2h-1v-1h-1v-1h-1v-1h-1V108z"/>
<path fill="#AEC3BE" d="M32,108h1v1h-1V108z"/>
<path fill="#AEC3BE" d="M35,108h1v1h-1V108z"/>
<path fill="#AEC3BE" d="M38,108h1v1h-1V108z"/>
<path fill="#AEC3BE" d="M57,108h2v1h-1v1h-1V108z"/>
<path fill="#AEC3BE" d="M61,108h1v1h-1V108z"/>
<path fill="#354048" d="M74,108h3v1h1v1h-1v2h2v-1h2v-1h1v1h1v1h3v-1h1v-1h1v2h-1v1h-2v1h-9v-1h-2v-1h-1v-2h2v-1h-1V108z"/>
<path fill="#879289" d="M77,108h2v2h-1v-1h-1V108z"/>
<path fill="#AEC3BE" d="M79,108h1v1h2v1h-3V108z"/>
<path fill="#AEC3BE" d="M82,108h1v1h-1V108z"/>
<path fill="#AEC3BE" d="M85,108h1v1h-1V108z"/>
<path fill="#354048" d="M86,108h1v2h-1V108z"/>
<path fill="#584C62" d="M9,109h1v1H9V109z"/>
<path fill="#AEC3BE" d="M10,109h1v1h-1V109z"/>
<path fill="#879289" d="M13,109h1v1h-1V109z"/>
<path fill="#AEC3BE" d="M14,109h1v1h-1V109z"/>
<path fill="#879289" d="M16,109h1v1h-1V109z"/>
<path fill="#584C62" d="M30,109h1v1h1v1h-2V109z"/>
<path fill="#AEC3BE" d="M33,109h2v3h-1v-2h-1V109z"/>
<path fill="#879289" d="M35,109h1v2h-1V109z"/>
<path fill="#AEC3BE" d="M36,109h2v1h-1v1h-1V109z"/>
<path fill="#879289" d="M38,109h1v1h-1V109z"/>
<path fill="#584C62" d="M54,109h1v1h-1V109z"/>
<path fill="#AEC3BE" d="M55,109h1v1h-1V109z"/>
<path fill="#879289" d="M58,109h1v1h-1V109z"/>
<path fill="#AEC3BE" d="M59,109h1v1h-1V109z"/>
<path fill="#879289" d="M61,109h1v1h-1V109z"/>
<path fill="#879289" d="M82,109h1v1h-1V109z"/>
<path fill="#AEC3BE" d="M83,109h2v2h-1v-1h-1V109z"/>
<path fill="#879289" d="M85,109h1v2h-1V109z"/>
<path fill="#879289" d="M9,110h2v1h-1v1H9V110z"/>
<path fill="#879289" d="M12,110h1v1h-1V110z"/>
<path fill="#354048" d="M13,110h1v1h-1V110z"/>
<path fill="#879289" d="M14,110h1v1h-1V110z"/>
<path fill="#AEC3BE" d="M15,110h1v1h-1V110z"/>
<path fill="#879289" d="M29,110h1v1h-1V110z"/>
<path fill="#879289" d="M37,110h1v1h-1V110z"/>
<path fill="#879289" d="M54,110h2v1h-1v1h-1V110z"/>
<path fill="#879289" d="M57,110h1v1h-1V110z"/>
<path fill="#354048" d="M58,110h1v1h-1V110z"/>
<path fill="#879289" d="M59,110h1v1h-1V110z"/>
<path fill="#AEC3BE" d="M60,110h1v1h-1V110z"/>
<path fill="#879289" d="M77,110h1v1h-1V110z"/>
<path fill="#AEC3BE" d="M78,110h1v1h-1V110z"/>
<path fill="#879289" d="M79,110h1v1h-1V110z"/>
<path fill="#584C62" d="M80,110h1v1h-1V110z"/>
<path fill="#584C62" d="M82,110h1v1h-1V110z"/>
<path fill="#879289" d="M83,110h1v1h-1V110z"/>
<path fill="#584C62" d="M86,110h1v1h-1V110z"/>
<path fill="#584C62" d="M10,111h1v1h-1V111z"/>
<path fill="#AEC3BE" d="M11,111h1v1h-1V111z"/>
<path fill="#584C62" d="M13,111h1v1h-1V111z"/>
<path fill="#AEC3BE" d="M14,111h1v1h-1V111z"/>
<path fill="#879289" d="M15,111h1v1h-1V111z"/>
<path fill="#584C62" d="M35,111h1v1h-1V111z"/>
<path fill="#879289" d="M36,111h1v1h-1V111z"/>
<path fill="#584C62" d="M55,111h1v1h-1V111z"/>
<path fill="#AEC3BE" d="M56,111h1v1h-1V111z"/>
<path fill="#584C62" d="M58,111h1v1h-1V111z"/>
<path fill="#AEC3BE" d="M59,111h1v1h-1V111z"/>
<path fill="#879289" d="M60,111h1v1h-1V111z"/>
<path fill="#AEC3BE" d="M77,111h1v1h-1V111z"/>
<path fill="#879289" d="M78,111h1v1h-1V111z"/>
<path fill="#584C62" d="M83,111h1v1h-1V111z"/>
<path fill="#879289" d="M84,111h1v1h-1V111z"/>
<path fill="#AEC3BE" d="M85,111h1v1h-1V111z"/>
</svg>
