<?xml version="1.0" encoding="utf-8"?>
<!-- Generator: Adobe Illustrator 16.0.4, SVG Export Plug-In . SVG Version: 6.00 Build 0)  -->
<!DOCTYPE svg PUBLIC "-//W3C//DTD SVG 1.1//EN" "http://www.w3.org/Graphics/SVG/1.1/DTD/svg11.dtd">
<svg version="1.1" id="Layer_1" xmlns="http://www.w3.org/2000/svg" xmlns:xlink="http://www.w3.org/1999/xlink" x="0px" y="0px"
	 width="92px" height="116px" viewBox="0 0 92 116" enable-background="new 0 0 92 116" xml:space="preserve">
<path fill="#403848" d="M11,11h1v1h-1V11z"/>
<path fill="#403848" d="M33,11h2v1h-2V11z"/>
<path fill="#403848" d="M57,11h1v1h-1V11z"/>
<path fill="#605868" d="M80,11h1v1h-1V11z"/>
<path fill="#403848" d="M81,11h1v1h-1V11z"/>
<path fill="#030303" d="M10,12h1v2h1v-2h1v3h-3V12z"/>
<path fill="#B0A8B0" d="M11,12h1v1h-1V12z"/>
<path fill="#030303" d="M33,12h1v2h1v-2h1v3h-3V12z"/>
<path fill="#B0A8B0" d="M34,12h1v1h-1V12z"/>
<path fill="#030303" d="M56,12h1v2h1v-2h1v3h-3V12z"/>
<path fill="#B0A8B0" d="M57,12h1v1h-1V12z"/>
<path fill="#030303" d="M79,12h1v2h1v-2h1v3h-3V12z"/>
<path fill="#B0A8B0" d="M80,12h1v1h-1V12z"/>
<path fill="#403848" d="M7,13h2v1H7V13z"/>
<path fill="#D8D0D8" d="M11,13h1v1h-1V13z"/>
<path fill="#403848" d="M14,13h2v1h-2V13z"/>
<path fill="#D8D0D8" d="M34,13h1v1h-1V13z"/>
<path fill="#403848" d="M53,13h2v1h-2V13z"/>
<path fill="#D8D0D8" d="M57,13h1v1h-1V13z"/>
<path fill="#403848" d="M60,13h2v1h-2V13z"/>
<path fill="#D8D0D8" d="M80,13h1v1h-1V13z"/>
<path fill="#030303" d="M7,14h1v2H7V14z"/>
<path fill="#D8D0D8" d="M8,14h1v1H8V14z"/>
<path fill="#403848" d="M9,14h1v1H9V14z"/>
<path fill="#403848" d="M13,14h1v1h-1V14z"/>
<path fill="#D8D0D8" d="M14,14h1v1h-1V14z"/>
<path fill="#030303" d="M15,14h1v2h-1V14z"/>
<path fill="#403848" d="M30,14h2v1h-2V14z"/>
<path fill="#403848" d="M37,14h2v1h-2V14z"/>
<path fill="#030303" d="M53,14h1v2h-1V14z"/>
<path fill="#D8D0D8" d="M54,14h1v1h-1V14z"/>
<path fill="#403848" d="M55,14h1v1h-1V14z"/>
<path fill="#403848" d="M59,14h1v1h-1V14z"/>
<path fill="#D8D0D8" d="M60,14h1v1h-1V14z"/>
<path fill="#030303" d="M61,14h1v2h-1V14z"/>
<path fill="#403848" d="M76,14h2v1h-2V14z"/>
<path fill="#403848" d="M83,14h2v1h-2V14z"/>
<path fill="#F88898" d="M8,15h1v2H8V15z"/>
<path fill="#D8D0D8" d="M9,15h1v3H9v2H8v-3h1V15z"/>
<path fill="#403848" d="M10,15h3v1h-3V15z"/>
<path fill="#D8D0D8" d="M13,15h1v2h1v3h-1v-2h-1V15z"/>
<path fill="#F88898" d="M14,15h1v2h-1V15z"/>
<path fill="#030303" d="M30,15h1v2h-1V15z"/>
<path fill="#D8D0D8" d="M31,15h1v1h-1V15z"/>
<path fill="#403848" d="M32,15h1v1h-1V15z"/>
<path fill="#D8D0D8" d="M33,15h3v1h-3V15z"/>
<path fill="#403848" d="M36,15h1v1h-1V15z"/>
<path fill="#D8D0D8" d="M37,15h1v1h-1V15z"/>
<path fill="#030303" d="M38,15h1v2h-1V15z"/>
<path fill="#F88898" d="M54,15h1v2h-1V15z"/>
<path fill="#D8D0D8" d="M55,15h1v3h-1v2h-1v-3h1V15z"/>
<path fill="#403848" d="M56,15h3v1h-3V15z"/>
<path fill="#D8D0D8" d="M59,15h1v2h1v3h-1v-2h-1V15z"/>
<path fill="#F88898" d="M60,15h1v2h-1V15z"/>
<path fill="#030303" d="M76,15h1v2h-1V15z"/>
<path fill="#D8D0D8" d="M77,15h1v1h-1V15z"/>
<path fill="#403848" d="M78,15h1v1h-1V15z"/>
<path fill="#D8D0D8" d="M79,15h3v1h-3V15z"/>
<path fill="#403848" d="M82,15h1v1h-1V15z"/>
<path fill="#D8D0D8" d="M83,15h1v1h-1V15z"/>
<path fill="#030303" d="M84,15h1v2h-1V15z"/>
<path fill="#403848" d="M7,16h1v1H7V16z"/>
<path fill="#E8E8F8" d="M10,16h3v2h-1v2h-1v-2h-1V16z"/>
<path fill="#403848" d="M15,16h1v1h-1V16z"/>
<path fill="#F88898" d="M31,16h1v2h-1V16z"/>
<path fill="#D8D0D8" d="M32,16h1v3h-1v2h-1v-3h1V16z"/>
<path fill="#403848" d="M33,16h3v1h-3V16z"/>
<path fill="#D8D0D8" d="M36,16h1v2h1v3h-1v-2h-1V16z"/>
<path fill="#F88898" d="M37,16h1v2h-1V16z"/>
<path fill="#403848" d="M53,16h1v1h-1V16z"/>
<path fill="#E8E8F8" d="M56,16h3v2h-1v2h-1v-2h-1V16z"/>
<path fill="#403848" d="M61,16h1v1h-1V16z"/>
<path fill="#F88898" d="M77,16h1v2h-1V16z"/>
<path fill="#D8D0D8" d="M78,16h1v3h-1v2h-1v-3h1V16z"/>
<path fill="#403848" d="M79,16h3v1h-3V16z"/>
<path fill="#D8D0D8" d="M82,16h1v2h1v3h-1v-2h-1V16z"/>
<path fill="#F88898" d="M83,16h1v2h-1V16z"/>
<path fill="#030303" d="M7,17h1v3H7V17z"/>
<path fill="#030303" d="M15,17h1v3h-1V17z"/>
<path fill="#403848" d="M30,17h1v1h-1V17z"/>
<path fill="#E8E8F8" d="M33,17h3v2h-1v2h-1v-2h-1V17z"/>
<path fill="#403848" d="M38,17h1v1h-1V17z"/>
<path fill="#030303" d="M53,17h1v3h-1V17z"/>
<path fill="#030303" d="M61,17h1v3h-1V17z"/>
<path fill="#403848" d="M76,17h1v1h-1V17z"/>
<path fill="#E8E8F8" d="M79,17h3v2h-1v2h-1v-2h-1V17z"/>
<path fill="#403848" d="M84,17h1v1h-1V17z"/>
<path fill="#403848" d="M6,18h1v1H6V18z"/>
<path fill="#FFFFFF" d="M9,18h1v1H9V18z"/>
<path fill="#D8D0D8" d="M10,18h1v3h-1V18z"/>
<path fill="#D8D0D8" d="M12,18h1v3h-1V18z"/>
<path fill="#FFFFFF" d="M13,18h1v1h-1V18z"/>
<path fill="#403848" d="M16,18h1v1h-1V18z"/>
<path fill="#030303" d="M30,18h1v3h-1V18z"/>
<path fill="#030303" d="M38,18h1v3h-1V18z"/>
<path fill="#403848" d="M52,18h1v1h-1V18z"/>
<path fill="#FFFFFF" d="M55,18h1v1h-1V18z"/>
<path fill="#D8D0D8" d="M56,18h1v3h-1V18z"/>
<path fill="#D8D0D8" d="M58,18h1v3h-1V18z"/>
<path fill="#FFFFFF" d="M59,18h1v1h-1V18z"/>
<path fill="#403848" d="M62,18h1v1h-1V18z"/>
<path fill="#030303" d="M76,18h1v3h-1V18z"/>
<path fill="#030303" d="M84,18h1v3h-1V18z"/>
<path fill="#403848" d="M9,19h1v1H9V19z"/>
<path fill="#403848" d="M13,19h1v1h-1V19z"/>
<path fill="#403848" d="M29,19h1v1h-1V19z"/>
<path fill="#FFFFFF" d="M32,19h1v1h-1V19z"/>
<path fill="#D8D0D8" d="M33,19h1v3h-1V19z"/>
<path fill="#D8D0D8" d="M35,19h1v3h-1V19z"/>
<path fill="#FFFFFF" d="M36,19h1v1h-1V19z"/>
<path fill="#403848" d="M39,19h1v1h-1V19z"/>
<path fill="#403848" d="M55,19h1v1h-1V19z"/>
<path fill="#403848" d="M59,19h1v1h-1V19z"/>
<path fill="#403848" d="M75,19h1v1h-1V19z"/>
<path fill="#FFFFFF" d="M78,19h1v1h-1V19z"/>
<path fill="#D8D0D8" d="M79,19h1v3h-1V19z"/>
<path fill="#D8D0D8" d="M81,19h1v3h-1V19z"/>
<path fill="#FFFFFF" d="M82,19h1v1h-1V19z"/>
<path fill="#403848" d="M85,19h1v1h-1V19z"/>
<path fill="#403848" d="M6,20h2v2H7v-1H6V20z"/>
<path fill="#E8E8F8" d="M8,20h2v1H8V20z"/>
<path fill="#F88898" d="M11,20h1v1h-1V20z"/>
<path fill="#E8E8F8" d="M13,20h2v1h-2V20z"/>
<path fill="#403848" d="M15,20h2v1h-1v1h-1V20z"/>
<path fill="#403848" d="M32,20h1v1h-1V20z"/>
<path fill="#403848" d="M36,20h1v1h-1V20z"/>
<path fill="#403848" d="M52,20h2v2h-1v-1h-1V20z"/>
<path fill="#E8E8F8" d="M54,20h2v1h-2V20z"/>
<path fill="#F88898" d="M57,20h1v1h-1V20z"/>
<path fill="#E8E8F8" d="M59,20h2v1h-2V20z"/>
<path fill="#403848" d="M61,20h2v1h-1v1h-1V20z"/>
<path fill="#403848" d="M78,20h1v1h-1V20z"/>
<path fill="#403848" d="M82,20h1v1h-1V20z"/>
<path fill="#030303" d="M8,21h1v1H8V21z"/>
<path fill="#D8D0D8" d="M9,21h1v1H9V21z"/>
<path fill="#E8E8F8" d="M10,21h3v1h-3V21z"/>
<path fill="#D8D0D8" d="M13,21h1v1h-1V21z"/>
<path fill="#030303" d="M14,21h1v1h-1V21z"/>
<path fill="#403848" d="M29,21h2v2h-1v-1h-1V21z"/>
<path fill="#E8E8F8" d="M31,21h2v1h-2V21z"/>
<path fill="#F88898" d="M34,21h1v1h-1V21z"/>
<path fill="#E8E8F8" d="M36,21h2v1h-2V21z"/>
<path fill="#403848" d="M38,21h2v1h-1v1h-1V21z"/>
<path fill="#030303" d="M54,21h1v1h-1V21z"/>
<path fill="#D8D0D8" d="M55,21h1v1h-1V21z"/>
<path fill="#E8E8F8" d="M56,21h3v1h-3V21z"/>
<path fill="#D8D0D8" d="M59,21h1v1h-1V21z"/>
<path fill="#030303" d="M60,21h1v1h-1V21z"/>
<path fill="#403848" d="M75,21h2v2h-1v-1h-1V21z"/>
<path fill="#E8E8F8" d="M77,21h2v1h-2V21z"/>
<path fill="#F88898" d="M80,21h1v1h-1V21z"/>
<path fill="#E8E8F8" d="M82,21h2v1h-2V21z"/>
<path fill="#403848" d="M84,21h2v1h-1v1h-1V21z"/>
<path fill="#030303" d="M7,22h1v3H7V22z"/>
<path fill="#B0A8B0" d="M8,22h1v1H8V22z"/>
<path fill="#030303" d="M9,22h1v1H9V22z"/>
<path fill="#403848" d="M10,22h3v1h-3V22z"/>
<path fill="#030303" d="M13,22h1v1h-1V22z"/>
<path fill="#B0A8B0" d="M14,22h1v1h-1V22z"/>
<path fill="#030303" d="M15,22h1v3h-1V22z"/>
<path fill="#030303" d="M31,22h1v1h-1V22z"/>
<path fill="#D8D0D8" d="M32,22h1v1h-1V22z"/>
<path fill="#E8E8F8" d="M33,22h3v1h-3V22z"/>
<path fill="#D8D0D8" d="M36,22h1v1h-1V22z"/>
<path fill="#030303" d="M37,22h1v1h-1V22z"/>
<path fill="#030303" d="M53,22h1v3h-1V22z"/>
<path fill="#B0A8B0" d="M54,22h1v1h-1V22z"/>
<path fill="#030303" d="M55,22h1v1h-1V22z"/>
<path fill="#403848" d="M56,22h3v1h-3V22z"/>
<path fill="#030303" d="M59,22h1v1h-1V22z"/>
<path fill="#B0A8B0" d="M60,22h1v1h-1V22z"/>
<path fill="#030303" d="M61,22h1v3h-1V22z"/>
<path fill="#030303" d="M77,22h1v1h-1V22z"/>
<path fill="#D8D0D8" d="M78,22h1v1h-1V22z"/>
<path fill="#E8E8F8" d="M79,22h3v1h-3V22z"/>
<path fill="#D8D0D8" d="M82,22h1v1h-1V22z"/>
<path fill="#030303" d="M83,22h1v1h-1V22z"/>
<path fill="#D8D0D8" d="M8,23h1v1H8V23z"/>
<path fill="#B0A8B0" d="M9,23h1v1H9V23z"/>
<path fill="#030303" d="M10,23h3v1h-3V23z"/>
<path fill="#B0A8B0" d="M13,23h1v1h-1V23z"/>
<path fill="#D8D0D8" d="M14,23h1v1h-1V23z"/>
<path fill="#030303" d="M30,23h1v2h-1V23z"/>
<path fill="#E8E8F8" d="M31,23h1v2h-1V23z"/>
<path fill="#030303" d="M32,23h1v1h-1V23z"/>
<path fill="#403848" d="M33,23h3v2h-1v-1h-1v1h-1V23z"/>
<path fill="#030303" d="M36,23h1v1h-1V23z"/>
<path fill="#A29BA2" d="M37,23h1v1h-1V23z"/>
<path fill="#030303" d="M38,23h1v2h-1V23z"/>
<path fill="#D8D0D8" d="M54,23h1v1h-1V23z"/>
<path fill="#B0A8B0" d="M55,23h1v1h-1V23z"/>
<path fill="#030303" d="M56,23h3v1h-3V23z"/>
<path fill="#B0A8B0" d="M59,23h1v1h-1V23z"/>
<path fill="#D8D0D8" d="M60,23h1v1h-1V23z"/>
<path fill="#030303" d="M76,23h1v2h-1V23z"/>
<path fill="#A29BA2" d="M77,23h1v1h-1V23z"/>
<path fill="#030303" d="M78,23h1v1h-1V23z"/>
<path fill="#403848" d="M79,23h3v2h-1v-1h-1v1h-1V23z"/>
<path fill="#030303" d="M82,23h1v1h-1V23z"/>
<path fill="#E8E8F8" d="M83,23h1v2h-1V23z"/>
<path fill="#030303" d="M84,23h1v2h-1V23z"/>
<path fill="#B0A8B0" d="M8,24h1v1H8V24z"/>
<path fill="#D8D0D8" d="M9,24h1v1H9V24z"/>
<path fill="#403848" d="M10,24h1v1h-1V24z"/>
<path fill="#403848" d="M12,24h1v1h-1V24z"/>
<path fill="#D8D0D8" d="M13,24h1v1h-1V24z"/>
<path fill="#B0A8B0" d="M14,24h1v1h-1V24z"/>
<path fill="#D8D0D8" d="M32,24h1v1h-1V24z"/>
<path fill="#030303" d="M34,24h1v1h-1V24z"/>
<path fill="#A29BA2" d="M36,24h1v1h-1V24z"/>
<path fill="#403848" d="M37,24h1v1h-1V24z"/>
<path fill="#B0A8B0" d="M54,24h1v1h-1V24z"/>
<path fill="#D8D0D8" d="M55,24h1v1h-1V24z"/>
<path fill="#403848" d="M56,24h1v1h-1V24z"/>
<path fill="#403848" d="M58,24h1v1h-1V24z"/>
<path fill="#D8D0D8" d="M59,24h1v1h-1V24z"/>
<path fill="#B0A8B0" d="M60,24h1v1h-1V24z"/>
<path fill="#403848" d="M77,24h1v1h-1V24z"/>
<path fill="#A29BA2" d="M78,24h1v1h-1V24z"/>
<path fill="#030303" d="M80,24h1v1h-1V24z"/>
<path fill="#D8D0D8" d="M82,24h1v1h-1V24z"/>
<path fill="#030303" d="M8,25h2v1H8V25z"/>
<path fill="#030303" d="M13,25h2v1h-2V25z"/>
<path fill="#030303" d="M31,25h2v1h-2V25z"/>
<path fill="#030303" d="M36,25h2v1h-2V25z"/>
<path fill="#030303" d="M54,25h2v1h-2V25z"/>
<path fill="#030303" d="M59,25h2v1h-2V25z"/>
<path fill="#030303" d="M77,25h2v1h-2V25z"/>
<path fill="#030303" d="M82,25h2v1h-2V25z"/>
<path fill="#030303" d="M12,40h2v2h1v1h-2v-2h-1V40z"/>
<path fill="#030303" d="M58,40h2v2h1v1h-2v-2h-1V40z"/>
<path fill="#030303" d="M11,41h1v1h-1V41z"/>
<path fill="#D8D0D8" d="M12,41h1v1h-1V41z"/>
<path fill="#030303" d="M35,41h2v2h1v1h-2v-2h-1V41z"/>
<path fill="#030303" d="M57,41h1v1h-1V41z"/>
<path fill="#D8D0D8" d="M58,41h1v1h-1V41z"/>
<path fill="#030303" d="M81,41h2v2h1v1h-2v-2h-1V41z"/>
<path fill="#403848" d="M10,42h2v1h-2V42z"/>
<path fill="#B0A8B0" d="M12,42h1v1h-1V42z"/>
<path fill="#403848" d="M15,42h1v1h-1V42z"/>
<path fill="#030303" d="M34,42h1v1h-1V42z"/>
<path fill="#D8D0D8" d="M35,42h1v1h-1V42z"/>
<path fill="#403848" d="M56,42h2v1h-2V42z"/>
<path fill="#B0A8B0" d="M58,42h1v1h-1V42z"/>
<path fill="#403848" d="M61,42h1v1h-1V42z"/>
<path fill="#030303" d="M80,42h1v1h-1V42z"/>
<path fill="#D8D0D8" d="M81,42h1v1h-1V42z"/>
<path fill="#403848" d="M5,43h1v1H5V43z"/>
<path fill="#030303" d="M10,43h1v2h-1V43z"/>
<path fill="#E8E8F8" d="M11,43h1v1h-1V43z"/>
<path fill="#403848" d="M12,43h1v1h-1V43z"/>
<path fill="#D8D0D8" d="M13,43h3v1h1v1h-2v1h-1v-1h-1V43z"/>
<path fill="#403848" d="M16,43h1v1h-1V43z"/>
<path fill="#403848" d="M27,43h2v1h-1v4h-1V43z"/>
<path fill="#403848" d="M33,43h2v1h-2V43z"/>
<path fill="#B0A8B0" d="M35,43h1v1h-1V43z"/>
<path fill="#403848" d="M38,43h1v1h-1V43z"/>
<path fill="#403848" d="M51,43h1v1h-1V43z"/>
<path fill="#030303" d="M56,43h1v2h-1V43z"/>
<path fill="#E8E8F8" d="M57,43h1v1h-1V43z"/>
<path fill="#403848" d="M58,43h1v1h-1V43z"/>
<path fill="#D8D0D8" d="M59,43h3v1h1v1h-2v1h-1v-1h-1V43z"/>
<path fill="#403848" d="M62,43h1v1h-1V43z"/>
<path fill="#403848" d="M74,43h1v1h-1V43z"/>
<path fill="#030303" d="M75,43h1v4h-1V43z"/>
<path fill="#403848" d="M79,43h2v1h-2V43z"/>
<path fill="#B0A8B0" d="M81,43h1v1h-1V43z"/>
<path fill="#403848" d="M84,43h1v1h-1V43z"/>
<path fill="#403848" d="M4,44h1v4H4V44z"/>
<path fill="#E8E8F8" d="M5,44h1v4H5V44z"/>
<path fill="#030303" d="M6,44h1v3H6V44z"/>
<path fill="#F88898" d="M11,44h1v2h-1V44z"/>
<path fill="#B0A8B0" d="M12,44h1v1h-1V44z"/>
<path fill="#403848" d="M17,44h1v2h-1V44z"/>
<path fill="#E8E8F8" d="M28,44h1v4h-1V44z"/>
<path fill="#030303" d="M29,44h1v3h-1V44z"/>
<path fill="#030303" d="M33,44h1v2h-1V44z"/>
<path fill="#E8E8F8" d="M34,44h1v1h-1V44z"/>
<path fill="#403848" d="M35,44h1v1h-1V44z"/>
<path fill="#D8D0D8" d="M36,44h3v1h1v1h-2v1h-1v-1h-1V44z"/>
<path fill="#403848" d="M39,44h1v1h-1V44z"/>
<path fill="#403848" d="M50,44h1v4h-1V44z"/>
<path fill="#E8E8F8" d="M51,44h1v4h-1V44z"/>
<path fill="#030303" d="M52,44h1v3h-1V44z"/>
<path fill="#F88898" d="M57,44h1v2h-1V44z"/>
<path fill="#B0A8B0" d="M58,44h1v1h-1V44z"/>
<path fill="#403848" d="M63,44h1v2h-1V44z"/>
<path fill="#403848" d="M73,44h1v4h-1V44z"/>
<path fill="#E8E8F8" d="M74,44h1v4h-1V44z"/>
<path fill="#030303" d="M79,44h1v2h-1V44z"/>
<path fill="#E8E8F8" d="M80,44h1v1h-1V44z"/>
<path fill="#403848" d="M81,44h1v1h-1V44z"/>
<path fill="#D8D0D8" d="M82,44h3v1h1v1h-2v1h-1v-1h-1V44z"/>
<path fill="#403848" d="M85,44h1v1h-1V44z"/>
<path fill="#403848" d="M10,45h1v1h-1V45z"/>
<path fill="#D8D0D8" d="M12,45h1v1h1v1h-1v1h-1V45z"/>
<path fill="#E8E8F8" d="M13,45h1v1h-1V45z"/>
<path fill="#FFFFFF" d="M15,45h1v1h-1V45z"/>
<path fill="#E8E8F8" d="M16,45h1v1h-1V45z"/>
<path fill="#F88898" d="M34,45h1v2h-1V45z"/>
<path fill="#B0A8B0" d="M35,45h1v1h-1V45z"/>
<path fill="#403848" d="M40,45h1v2h-1V45z"/>
<path fill="#403848" d="M56,45h1v1h-1V45z"/>
<path fill="#D8D0D8" d="M58,45h1v1h1v1h-1v1h-1V45z"/>
<path fill="#E8E8F8" d="M59,45h1v1h-1V45z"/>
<path fill="#FFFFFF" d="M61,45h1v1h-1V45z"/>
<path fill="#E8E8F8" d="M62,45h1v1h-1V45z"/>
<path fill="#F88898" d="M80,45h1v2h-1V45z"/>
<path fill="#B0A8B0" d="M81,45h1v1h-1V45z"/>
<path fill="#403848" d="M86,45h1v2h-1V45z"/>
<path fill="#030303" d="M10,46h1v1h-1V46z"/>
<path fill="#B0A8B0" d="M11,46h1v2h-2v-1h1V46z"/>
<path fill="#E8E8F8" d="M14,46h1v1h3v1h-1v1h-2v-1h-2v-1h1V46z"/>
<path fill="#403848" d="M15,46h1v1h-1V46z"/>
<path fill="#D8D0D8" d="M16,46h1v1h-1V46z"/>
<path fill="#F88898" d="M17,46h1v1h-1V46z"/>
<path fill="#030303" d="M18,46h1v2h-1V46z"/>
<path fill="#403848" d="M33,46h1v1h-1V46z"/>
<path fill="#D8D0D8" d="M35,46h1v1h1v1h-1v1h-1V46z"/>
<path fill="#E8E8F8" d="M36,46h1v1h-1V46z"/>
<path fill="#FFFFFF" d="M38,46h1v1h-1V46z"/>
<path fill="#E8E8F8" d="M39,46h1v1h-1V46z"/>
<path fill="#030303" d="M56,46h1v1h-1V46z"/>
<path fill="#B0A8B0" d="M57,46h1v2h-2v-1h1V46z"/>
<path fill="#E8E8F8" d="M60,46h1v1h3v1h-1v1h-2v-1h-2v-1h1V46z"/>
<path fill="#403848" d="M61,46h1v1h-1V46z"/>
<path fill="#D8D0D8" d="M62,46h1v1h-1V46z"/>
<path fill="#F88898" d="M63,46h1v1h-1V46z"/>
<path fill="#030303" d="M64,46h1v2h-1V46z"/>
<path fill="#403848" d="M79,46h1v1h-1V46z"/>
<path fill="#D8D0D8" d="M81,46h1v1h1v1h-1v1h-1V46z"/>
<path fill="#E8E8F8" d="M82,46h1v1h-1V46z"/>
<path fill="#FFFFFF" d="M84,46h1v1h-1V46z"/>
<path fill="#E8E8F8" d="M85,46h1v1h-1V46z"/>
<path fill="#B0A8B0" d="M6,47h1v1H6V47z"/>
<path fill="#030303" d="M7,47h1v1H7V47z"/>
<path fill="#403848" d="M8,47h1v1H8V47z"/>
<path fill="#030303" d="M9,47h1v1H9V47z"/>
<path fill="#B0A8B0" d="M29,47h1v1h-1V47z"/>
<path fill="#030303" d="M30,47h1v1h-1V47z"/>
<path fill="#403848" d="M31,47h1v1h-1V47z"/>
<path fill="#030303" d="M32,47h2v1h-2V47z"/>
<path fill="#B0A8B0" d="M34,47h1v2h-2v-1h1V47z"/>
<path fill="#E8E8F8" d="M37,47h1v1h3v1h-1v1h-2v-1h-2v-1h1V47z"/>
<path fill="#403848" d="M38,47h1v1h-1V47z"/>
<path fill="#D8D0D8" d="M39,47h1v1h-1V47z"/>
<path fill="#F88898" d="M40,47h1v1h-1V47z"/>
<path fill="#030303" d="M41,47h1v2h-1V47z"/>
<path fill="#B0A8B0" d="M52,47h1v1h-1V47z"/>
<path fill="#030303" d="M53,47h1v1h-1V47z"/>
<path fill="#403848" d="M54,47h1v1h-1V47z"/>
<path fill="#030303" d="M55,47h1v1h-1V47z"/>
<path fill="#B0A8B0" d="M75,47h1v1h-1V47z"/>
<path fill="#030303" d="M76,47h1v1h-1V47z"/>
<path fill="#403848" d="M77,47h1v1h-1V47z"/>
<path fill="#030303" d="M78,47h2v1h-2V47z"/>
<path fill="#B0A8B0" d="M80,47h1v2h-2v-1h1V47z"/>
<path fill="#E8E8F8" d="M83,47h1v1h3v1h-1v1h-2v-1h-2v-1h1V47z"/>
<path fill="#403848" d="M84,47h1v1h-1V47z"/>
<path fill="#D8D0D8" d="M85,47h1v1h-1V47z"/>
<path fill="#F88898" d="M86,47h1v1h-1V47z"/>
<path fill="#030303" d="M87,47h1v2h-1V47z"/>
<path fill="#030303" d="M4,48h1v1H4V48z"/>
<path fill="#B0A8B0" d="M5,48h1v1H5V48z"/>
<path fill="#D8D0D8" d="M6,48h2v1H6V48z"/>
<path fill="#E8E8F8" d="M8,48h3v1h1v1h1v1h-1v2h-1v-3H9v1H8v1H7v-3h1V48z"/>
<path fill="#D8D0D8" d="M11,48h1v1h-1V48z"/>
<path fill="#B0A8B0" d="M12,48h1v1h-1V48z"/>
<path fill="#D8D0D8" d="M13,48h2v1h-2V48z"/>
<path fill="#030303" d="M17,48h1v1h-1V48z"/>
<path fill="#030303" d="M27,48h1v1h-1V48z"/>
<path fill="#B0A8B0" d="M28,48h1v1h-1V48z"/>
<path fill="#D8D0D8" d="M29,48h2v1h-2V48z"/>
<path fill="#E8E8F8" d="M31,48h2v1h1v1h1v1h-2v-1h-1v1h-2v-2h1V48z"/>
<path fill="#030303" d="M50,48h1v1h-1V48z"/>
<path fill="#B0A8B0" d="M51,48h1v1h-1V48z"/>
<path fill="#D8D0D8" d="M52,48h2v1h-2V48z"/>
<path fill="#E8E8F8" d="M54,48h3v1h1v1h1v1h-1v2h-1v-3h-2v1h-1v1h-1v-3h1V48z"/>
<path fill="#D8D0D8" d="M57,48h1v1h-1V48z"/>
<path fill="#B0A8B0" d="M58,48h1v1h-1V48z"/>
<path fill="#D8D0D8" d="M59,48h2v1h-2V48z"/>
<path fill="#030303" d="M63,48h1v1h-1V48z"/>
<path fill="#030303" d="M73,48h1v1h-1V48z"/>
<path fill="#B0A8B0" d="M74,48h1v1h-1V48z"/>
<path fill="#D8D0D8" d="M75,48h2v1h-2V48z"/>
<path fill="#E8E8F8" d="M77,48h2v1h1v1h1v1h-2v-1h-1v1h-2v-2h1V48z"/>
<path fill="#403848" d="M5,49h1v1H5V49z"/>
<path fill="#B0A8B0" d="M6,49h1v1H6V49z"/>
<path fill="#D8D0D8" d="M12,49h1v1h-1V49z"/>
<path fill="#B0A8B0" d="M13,49h1v2h-1V49z"/>
<path fill="#030303" d="M14,49h3v1h-2v4h-1V49z"/>
<path fill="#403848" d="M28,49h1v1h-1V49z"/>
<path fill="#B0A8B0" d="M29,49h1v1h-1V49z"/>
<path fill="#D8D0D8" d="M34,49h1v1h-1V49z"/>
<path fill="#B0A8B0" d="M35,49h1v1h-1V49z"/>
<path fill="#D8D0D8" d="M36,49h2v1h-2V49z"/>
<path fill="#030303" d="M40,49h1v1h-1V49z"/>
<path fill="#403848" d="M51,49h1v1h-1V49z"/>
<path fill="#B0A8B0" d="M52,49h1v1h-1V49z"/>
<path fill="#D8D0D8" d="M58,49h1v1h-1V49z"/>
<path fill="#B0A8B0" d="M59,49h1v2h-1V49z"/>
<path fill="#030303" d="M60,49h3v1h-2v4h-1V49z"/>
<path fill="#403848" d="M74,49h1v1h-1V49z"/>
<path fill="#B0A8B0" d="M75,49h1v1h-1V49z"/>
<path fill="#D8D0D8" d="M80,49h1v1h-1V49z"/>
<path fill="#B0A8B0" d="M81,49h1v1h-1V49z"/>
<path fill="#D8D0D8" d="M82,49h2v1h-2V49z"/>
<path fill="#030303" d="M86,49h1v1h-1V49z"/>
<path fill="#030303" d="M5,50h1v2H5V50z"/>
<path fill="#D8D0D8" d="M6,50h1v1H6V50z"/>
<path fill="#D8D0D8" d="M9,50h2v2h-1v-1H9V50z"/>
<path fill="#030303" d="M28,50h1v2h-1V50z"/>
<path fill="#D8D0D8" d="M29,50h1v1h-1V50z"/>
<path fill="#D8D0D8" d="M32,50h1v1h-1V50z"/>
<path fill="#D8D0D8" d="M35,50h1v2h-3v-1h2V50z"/>
<path fill="#B0A8B0" d="M36,50h1v2h-1V50z"/>
<path fill="#030303" d="M37,50h3v1h-2v1h-1V50z"/>
<path fill="#030303" d="M51,50h1v2h-1V50z"/>
<path fill="#D8D0D8" d="M52,50h1v1h-1V50z"/>
<path fill="#D8D0D8" d="M55,50h2v2h-1v-1h-1V50z"/>
<path fill="#030303" d="M74,50h1v2h-1V50z"/>
<path fill="#D8D0D8" d="M75,50h1v1h-1V50z"/>
<path fill="#D8D0D8" d="M78,50h1v1h-1V50z"/>
<path fill="#D8D0D8" d="M81,50h1v1h-1V50z"/>
<path fill="#B0A8B0" d="M82,50h1v1h-1V50z"/>
<path fill="#030303" d="M83,50h3v1h-1v1h-2V50z"/>
<path fill="#B0A8B0" d="M6,51h1v1H6V51z"/>
<path fill="#D8D0D8" d="M8,51h1v1H8V51z"/>
<path fill="#B0A8B0" d="M9,51h1v1H9V51z"/>
<path fill="#D8D0D8" d="M12,51h1v1h-1V51z"/>
<path fill="#7B737B" d="M13,51h1v1h-1V51z"/>
<path fill="#B0A8B0" d="M29,51h1v2h-1V51z"/>
<path fill="#D8D0D8" d="M30,51h2v1h-1v1h-1V51z"/>
<path fill="#B0A8B0" d="M32,51h1v1h-1V51z"/>
<path fill="#B0A8B0" d="M52,51h1v1h-1V51z"/>
<path fill="#D8D0D8" d="M54,51h1v1h-1V51z"/>
<path fill="#B0A8B0" d="M55,51h1v1h-1V51z"/>
<path fill="#D8D0D8" d="M58,51h1v1h-1V51z"/>
<path fill="#7B737B" d="M59,51h1v1h-1V51z"/>
<path fill="#B0A8B0" d="M75,51h1v1h-1V51z"/>
<path fill="#D8D0D8" d="M76,51h2v2h-1v-1h-1V51z"/>
<path fill="#B0A8B0" d="M78,51h1v2h-1V51z"/>
<path fill="#D8D0D8" d="M79,51h2v1h-1v2h-1V51z"/>
<path fill="#B0A8B0" d="M81,51h1v1h-1V51z"/>
<path fill="#403848" d="M82,51h1v2h-2v-1h1V51z"/>
<path fill="#030303" d="M6,52h1v2H6V52z"/>
<path fill="#D8D0D8" d="M7,52h1v1H7V52z"/>
<path fill="#B0A8B0" d="M8,52h1v1H8V52z"/>
<path fill="#030303" d="M9,52h1v1H9V52z"/>
<path fill="#B0A8B0" d="M10,52h1v1h-1V52z"/>
<path fill="#B0A8B0" d="M12,52h2v2h-1v-1h-1V52z"/>
<path fill="#403848" d="M28,52h1v1h-1V52z"/>
<path fill="#B0A8B0" d="M31,52h1v1h-1V52z"/>
<path fill="#403848" d="M32,52h1v1h-1V52z"/>
<path fill="#030303" d="M33,52h1v1h-1V52z"/>
<path fill="#403848" d="M34,52h1v1h-1V52z"/>
<path fill="#B0A8B0" d="M35,52h1v1h-1V52z"/>
<path fill="#D8D0D8" d="M36,52h1v1h-1V52z"/>
<path fill="#B0A8B0" d="M37,52h1v1h-1V52z"/>
<path fill="#030303" d="M38,52h1v2h-1V52z"/>
<path fill="#030303" d="M52,52h1v2h-1V52z"/>
<path fill="#D8D0D8" d="M53,52h1v1h-1V52z"/>
<path fill="#B0A8B0" d="M54,52h1v1h-1V52z"/>
<path fill="#030303" d="M55,52h1v1h-1V52z"/>
<path fill="#B0A8B0" d="M56,52h1v1h-1V52z"/>
<path fill="#B0A8B0" d="M58,52h2v2h-1v-1h-1V52z"/>
<path fill="#030303" d="M75,52h1v2h-1V52z"/>
<path fill="#B0A8B0" d="M76,52h1v1h1v1h-2V52z"/>
<path fill="#B0A8B0" d="M80,52h1v2h-1V52z"/>
<path fill="#7B737B" d="M83,52h1v1h-1V52z"/>
<path fill="#B0A8B0" d="M7,53h1v1H7V53z"/>
<path fill="#D8D0D8" d="M8,53h1v1H8V53z"/>
<path fill="#403848" d="M9,53h1v1H9V53z"/>
<path fill="#030303" d="M10,53h1v1h3v1h-4V53z"/>
<path fill="#D8D0D8" d="M11,53h1v1h-1V53z"/>
<path fill="#403848" d="M12,53h1v1h-1V53z"/>
<path fill="#030303" d="M28,53h1v1h-1V53z"/>
<path fill="#D8D0D8" d="M29,53h1v1h-1V53z"/>
<path fill="#B0A8B0" d="M30,53h1v1h-1V53z"/>
<path fill="#403848" d="M31,53h1v1h-1V53z"/>
<path fill="#030303" d="M32,53h1v1h-1V53z"/>
<path fill="#030303" d="M35,53h1v1h-1V53z"/>
<path fill="#B0A8B0" d="M36,53h1v1h-1V53z"/>
<path fill="#D8D0D8" d="M37,53h1v1h-1V53z"/>
<path fill="#B0A8B0" d="M53,53h1v1h-1V53z"/>
<path fill="#D8D0D8" d="M54,53h1v1h-1V53z"/>
<path fill="#403848" d="M55,53h1v1h-1V53z"/>
<path fill="#030303" d="M56,53h1v1h3v1h-4V53z"/>
<path fill="#D8D0D8" d="M57,53h1v1h-1V53z"/>
<path fill="#403848" d="M58,53h1v1h-1V53z"/>
<path fill="#403848" d="M78,53h1v1h-1V53z"/>
<path fill="#030303" d="M81,53h1v1h-1V53z"/>
<path fill="#7B737B" d="M82,53h1v1h-1V53z"/>
<path fill="#B0A8B0" d="M83,53h1v1h-1V53z"/>
<path fill="#030303" d="M84,53h1v1h-1V53z"/>
<path fill="#030303" d="M7,54h2v1H7V54z"/>
<path fill="#030303" d="M29,54h3v1h-3V54z"/>
<path fill="#030303" d="M36,54h2v1h-2V54z"/>
<path fill="#030303" d="M53,54h2v1h-2V54z"/>
<path fill="#030303" d="M76,54h2v1h-2V54z"/>
<path fill="#030303" d="M79,54h2v1h-2V54z"/>
<path fill="#030303" d="M82,54h2v1h-2V54z"/>
<path fill="#403848" d="M7,69h2v1H7V69z"/>
<path fill="#403848" d="M14,69h2v1h-2V69z"/>
<path fill="#403848" d="M53,69h2v1h-2V69z"/>
<path fill="#403848" d="M60,69h2v1h-2V69z"/>
<path fill="#030303" d="M7,70h1v2H7V70z"/>
<path fill="#D8D0D8" d="M8,70h1v1H8V70z"/>
<path fill="#403848" d="M9,70h1v1H9V70z"/>
<path fill="#403848" d="M13,70h1v1h-1V70z"/>
<path fill="#D8D0D8" d="M14,70h1v1h-1V70z"/>
<path fill="#030303" d="M15,70h1v2h-1V70z"/>
<path fill="#403848" d="M30,70h2v1h-2V70z"/>
<path fill="#403848" d="M37,70h2v1h-2V70z"/>
<path fill="#030303" d="M53,70h1v2h-1V70z"/>
<path fill="#D8D0D8" d="M54,70h1v1h-1V70z"/>
<path fill="#403848" d="M55,70h1v1h-1V70z"/>
<path fill="#403848" d="M59,70h1v1h-1V70z"/>
<path fill="#D8D0D8" d="M60,70h1v1h-1V70z"/>
<path fill="#030303" d="M61,70h1v2h-1V70z"/>
<path fill="#403848" d="M76,70h2v1h-2V70z"/>
<path fill="#403848" d="M83,70h2v1h-2V70z"/>
<path fill="#F88898" d="M8,71h1v2H8V71z"/>
<path fill="#D8D0D8" d="M9,71h1v2H9V71z"/>
<path fill="#030303" d="M10,71h1v1h-1V71z"/>
<path fill="#403848" d="M11,71h1v1h-1V71z"/>
<path fill="#030303" d="M12,71h1v1h-1V71z"/>
<path fill="#D8D0D8" d="M13,71h1v2h-1V71z"/>
<path fill="#F88898" d="M14,71h1v2h-1V71z"/>
<path fill="#030303" d="M30,71h1v2h-1V71z"/>
<path fill="#D8D0D8" d="M31,71h1v1h-1V71z"/>
<path fill="#403848" d="M32,71h1v1h-1V71z"/>
<path fill="#403848" d="M36,71h1v1h-1V71z"/>
<path fill="#D8D0D8" d="M37,71h1v1h-1V71z"/>
<path fill="#030303" d="M38,71h1v2h-1V71z"/>
<path fill="#F88898" d="M54,71h1v2h-1V71z"/>
<path fill="#D8D0D8" d="M55,71h1v2h-1V71z"/>
<path fill="#030303" d="M56,71h1v1h-1V71z"/>
<path fill="#403848" d="M57,71h1v1h-1V71z"/>
<path fill="#030303" d="M58,71h1v1h-1V71z"/>
<path fill="#D8D0D8" d="M59,71h1v2h-1V71z"/>
<path fill="#F88898" d="M60,71h1v2h-1V71z"/>
<path fill="#040404" d="M76,71h1v2h-1V71z"/>
<path fill="#D8D0D8" d="M77,71h1v1h-1V71z"/>
<path fill="#403848" d="M78,71h1v1h-1V71z"/>
<path fill="#403848" d="M82,71h1v1h-1V71z"/>
<path fill="#D8D0D8" d="M83,71h1v1h-1V71z"/>
<path fill="#040404" d="M84,71h1v2h-1V71z"/>
<path fill="#403848" d="M7,72h1v1H7V72z"/>
<path fill="#E8E8F8" d="M10,72h3v1h1v2H9v-2h1V72z"/>
<path fill="#403848" d="M15,72h1v1h-1V72z"/>
<path fill="#F88898" d="M31,72h1v2h-1V72z"/>
<path fill="#D8D0D8" d="M32,72h1v2h-1V72z"/>
<path fill="#030303" d="M33,72h1v1h-1V72z"/>
<path fill="#403848" d="M34,72h1v1h-1V72z"/>
<path fill="#030303" d="M35,72h1v1h-1V72z"/>
<path fill="#D8D0D8" d="M36,72h1v2h-1V72z"/>
<path fill="#F88898" d="M37,72h1v2h-1V72z"/>
<path fill="#403848" d="M53,72h1v1h-1V72z"/>
<path fill="#E8E8F8" d="M56,72h3v1h1v2h-5v-2h1V72z"/>
<path fill="#403848" d="M61,72h1v1h-1V72z"/>
<path fill="#F88898" d="M77,72h1v2h-1V72z"/>
<path fill="#D8D0D8" d="M78,72h1v2h-1V72z"/>
<path fill="#040404" d="M79,72h1v1h-1V72z"/>
<path fill="#403848" d="M80,72h1v1h-1V72z"/>
<path fill="#040404" d="M81,72h1v1h-1V72z"/>
<path fill="#D8D0D8" d="M82,72h1v2h-1V72z"/>
<path fill="#F88898" d="M83,72h1v2h-1V72z"/>
<path fill="#030303" d="M7,73h1v3H7V73z"/>
<path fill="#D8D0D8" d="M8,73h1v2h1v1H8V73z"/>
<path fill="#D8D0D8" d="M14,73h1v3h-2v-1h1V73z"/>
<path fill="#030303" d="M15,73h1v3h-1V73z"/>
<path fill="#403848" d="M30,73h1v1h-1V73z"/>
<path fill="#E8E8F8" d="M33,73h3v1h1v2h-1v-1h-3v1h-1v-2h1V73z"/>
<path fill="#403848" d="M38,73h1v1h-1V73z"/>
<path fill="#030303" d="M53,73h1v3h-1V73z"/>
<path fill="#D8D0D8" d="M54,73h1v2h1v1h-2V73z"/>
<path fill="#D8D0D8" d="M60,73h1v3h-2v-1h1V73z"/>
<path fill="#030303" d="M61,73h1v3h-1V73z"/>
<path fill="#403848" d="M76,73h1v1h-1V73z"/>
<path fill="#E8E8F8" d="M79,73h3v1h1v2h-1v-1h-3v1h-1v-2h1V73z"/>
<path fill="#403848" d="M84,73h1v1h-1V73z"/>
<path fill="#403848" d="M6,74h1v1H6V74z"/>
<path fill="#403848" d="M16,74h1v1h-1V74z"/>
<path fill="#030303" d="M30,74h1v3h-1V74z"/>
<path fill="#D8D0D8" d="M31,74h1v2h-1V74z"/>
<path fill="#D8D0D8" d="M37,74h1v2h-1V74z"/>
<path fill="#030303" d="M38,74h1v3h-1V74z"/>
<path fill="#403848" d="M52,74h1v1h-1V74z"/>
<path fill="#403848" d="M62,74h1v1h-1V74z"/>
<path fill="#040404" d="M76,74h1v3h-1V74z"/>
<path fill="#D8D0D8" d="M77,74h1v2h-1V74z"/>
<path fill="#D8D0D8" d="M83,74h1v2h-1V74z"/>
<path fill="#040404" d="M84,74h1v3h-1V74z"/>
<path fill="#403848" d="M10,75h1v1h-1V75z"/>
<path fill="#B0A8B0" d="M11,75h1v1h-1V75z"/>
<path fill="#403848" d="M12,75h1v1h-1V75z"/>
<path fill="#403848" d="M29,75h1v1h-1V75z"/>
<path fill="#D8D0D8" d="M33,75h1v1h-1V75z"/>
<path fill="#B0A8B0" d="M34,75h1v1h-1V75z"/>
<path fill="#403848" d="M35,75h1v1h-1V75z"/>
<path fill="#403848" d="M39,75h1v1h-1V75z"/>
<path fill="#403848" d="M56,75h1v1h-1V75z"/>
<path fill="#B0A8B0" d="M57,75h1v1h-1V75z"/>
<path fill="#403848" d="M58,75h1v1h-1V75z"/>
<path fill="#403848" d="M75,75h1v1h-1V75z"/>
<path fill="#403848" d="M79,75h1v1h-1V75z"/>
<path fill="#B0A8B0" d="M80,75h1v1h-1V75z"/>
<path fill="#D8D0D8" d="M81,75h1v1h-1V75z"/>
<path fill="#403848" d="M85,75h1v1h-1V75z"/>
<path fill="#403848" d="M6,76h2v1H6V76z"/>
<path fill="#B0A8B0" d="M8,76h2v1H8V76z"/>
<path fill="#030303" d="M10,76h1v2h-1V76z"/>
<path fill="#E8E8F8" d="M11,76h1v4h1v1h-3v-1h1V76z"/>
<path fill="#030303" d="M12,76h1v2h-1V76z"/>
<path fill="#B0A8B0" d="M13,76h2v1h-2V76z"/>
<path fill="#403848" d="M15,76h2v1h-2V76z"/>
<path fill="#B0A8B0" d="M31,76h1v1h1v1h-2V76z"/>
<path fill="#D8D0D8" d="M32,76h1v1h-1V76z"/>
<path fill="#030303" d="M33,76h1v2h-1V76z"/>
<path fill="#D8D0D8" d="M34,76h1v1h-1V76z"/>
<path fill="#E8E8F8" d="M35,76h1v1h-1V76z"/>
<path fill="#D8D0D8" d="M36,76h1v1h-1V76z"/>
<path fill="#B0A8B0" d="M37,76h1v3h-1v-1h-1v-1h1V76z"/>
<path fill="#403848" d="M52,76h2v1h-2V76z"/>
<path fill="#B0A8B0" d="M54,76h2v1h-2V76z"/>
<path fill="#030303" d="M56,76h1v2h-1V76z"/>
<path fill="#E8E8F8" d="M57,76h1v4h1v1h-3v-1h1V76z"/>
<path fill="#030303" d="M58,76h1v2h-1V76z"/>
<path fill="#B0A8B0" d="M59,76h2v1h-2V76z"/>
<path fill="#403848" d="M61,76h2v1h-2V76z"/>
<path fill="#B0A8B0" d="M77,76h1v1h1v1h-1v1h-1V76z"/>
<path fill="#D8D0D8" d="M78,76h1v1h-1V76z"/>
<path fill="#E8E8F8" d="M79,76h1v1h-1V76z"/>
<path fill="#D8D0D8" d="M80,76h1v1h-1V76z"/>
<path fill="#030303" d="M81,76h1v2h-1V76z"/>
<path fill="#D8D0D8" d="M82,76h1v1h-1V76z"/>
<path fill="#B0A8B0" d="M83,76h1v2h-2v-1h1V76z"/>
<path fill="#030303" d="M8,77h1v1H8V77z"/>
<path fill="#D8D0D8" d="M9,77h1v1H9V77z"/>
<path fill="#D8D0D8" d="M13,77h1v1h-1V77z"/>
<path fill="#030303" d="M14,77h1v1h-1V77z"/>
<path fill="#403848" d="M29,77h2v1h-2V77z"/>
<path fill="#E8E8F8" d="M34,77h1v4h-3v-2h1v1h1V77z"/>
<path fill="#D8D0D8" d="M35,77h1v1h-1V77z"/>
<path fill="#403848" d="M38,77h2v1h-2V77z"/>
<path fill="#030303" d="M54,77h1v1h-1V77z"/>
<path fill="#D8D0D8" d="M55,77h1v1h-1V77z"/>
<path fill="#D8D0D8" d="M59,77h1v1h-1V77z"/>
<path fill="#030303" d="M60,77h1v1h-1V77z"/>
<path fill="#403848" d="M75,77h2v1h-2V77z"/>
<path fill="#D8D0D8" d="M79,77h1v1h-1V77z"/>
<path fill="#E8E8F8" d="M80,77h1v3h1v-1h1v2h-3V77z"/>
<path fill="#403848" d="M84,77h2v1h-2V77z"/>
<path fill="#030303" d="M7,78h1v5H7V78z"/>
<path fill="#B0A8B0" d="M8,78h1v1H8V78z"/>
<path fill="#E8E8F8" d="M9,78h1v2H9V78z"/>
<path fill="#403848" d="M10,78h1v1h-1V78z"/>
<path fill="#403848" d="M12,78h1v1h-1V78z"/>
<path fill="#E8E8F8" d="M13,78h1v2h-1V78z"/>
<path fill="#B0A8B0" d="M14,78h1v1h-1V78z"/>
<path fill="#030303" d="M15,78h1v5h-1V78z"/>
<path fill="#030303" d="M30,78h1v5h-1V78z"/>
<path fill="#7B737B" d="M31,78h1v2h-1V78z"/>
<path fill="#D8D0D8" d="M32,78h1v1h-1V78z"/>
<path fill="#403848" d="M33,78h1v1h-1V78z"/>
<path fill="#403848" d="M35,78h1v1h-1V78z"/>
<path fill="#E8E8F8" d="M36,78h1v2h-1V78z"/>
<path fill="#030303" d="M38,78h1v5h-1V78z"/>
<path fill="#030303" d="M53,78h1v5h-1V78z"/>
<path fill="#B0A8B0" d="M54,78h1v1h-1V78z"/>
<path fill="#E8E8F8" d="M55,78h1v2h-1V78z"/>
<path fill="#403848" d="M56,78h1v1h-1V78z"/>
<path fill="#403848" d="M58,78h1v1h-1V78z"/>
<path fill="#E8E8F8" d="M59,78h1v2h-1V78z"/>
<path fill="#B0A8B0" d="M60,78h1v1h-1V78z"/>
<path fill="#030303" d="M61,78h1v5h-1V78z"/>
<path fill="#040404" d="M76,78h1v5h-1V78z"/>
<path fill="#E8E8F8" d="M78,78h1v2h-1V78z"/>
<path fill="#403848" d="M79,78h1v1h-1V78z"/>
<path fill="#403848" d="M81,78h1v1h-1V78z"/>
<path fill="#D8D0D8" d="M82,78h1v1h-1V78z"/>
<path fill="#7B737B" d="M83,78h1v2h-1V78z"/>
<path fill="#040404" d="M84,78h1v5h-1V78z"/>
<path fill="#7B737B" d="M8,79h1v1H8V79z"/>
<path fill="#D8D0D8" d="M10,79h1v1h-1V79z"/>
<path fill="#D8D0D8" d="M12,79h1v1h-1V79z"/>
<path fill="#7B737B" d="M14,79h1v1h-1V79z"/>
<path fill="#D8D0D8" d="M33,79h1v1h-1V79z"/>
<path fill="#D8D0D8" d="M35,79h1v1h1v1h-2V79z"/>
<path fill="#D8D0D8" d="M37,79h1v1h-1V79z"/>
<path fill="#7B737B" d="M54,79h1v1h-1V79z"/>
<path fill="#D8D0D8" d="M56,79h1v1h-1V79z"/>
<path fill="#D8D0D8" d="M58,79h1v1h-1V79z"/>
<path fill="#7B737B" d="M60,79h1v1h-1V79z"/>
<path fill="#D8D0D8" d="M77,79h1v1h-1V79z"/>
<path fill="#D8D0D8" d="M79,79h1v2h-2v-1h1V79z"/>
<path fill="#D8D0D8" d="M81,79h1v1h-1V79z"/>
<path fill="#B0A8B0" d="M8,80h1v1H8V80z"/>
<path fill="#D8D0D8" d="M9,80h1v1H9V80z"/>
<path fill="#D8D0D8" d="M13,80h1v1h-1V80z"/>
<path fill="#B0A8B0" d="M14,80h1v1h-1V80z"/>
<path fill="#B0A8B0" d="M31,80h1v1h-1V80z"/>
<path fill="#B0A8B0" d="M37,80h1v1h-1V80z"/>
<path fill="#B0A8B0" d="M54,80h1v1h-1V80z"/>
<path fill="#D8D0D8" d="M55,80h1v1h-1V80z"/>
<path fill="#D8D0D8" d="M59,80h1v1h-1V80z"/>
<path fill="#B0A8B0" d="M60,80h1v1h-1V80z"/>
<path fill="#B0A8B0" d="M77,80h1v1h-1V80z"/>
<path fill="#B0A8B0" d="M83,80h1v1h-1V80z"/>
<path fill="#D8D0D8" d="M8,81h1v1H8V81z"/>
<path fill="#B0A8B0" d="M9,81h1v1H9V81z"/>
<path fill="#030303" d="M10,81h3v1h-3V81z"/>
<path fill="#B0A8B0" d="M13,81h1v1h-1V81z"/>
<path fill="#D8D0D8" d="M14,81h1v1h-1V81z"/>
<path fill="#E8E8F8" d="M31,81h1v2h-1V81z"/>
<path fill="#B0A8B0" d="M32,81h1v1h-1V81z"/>
<path fill="#030303" d="M33,81h3v1h-3V81z"/>
<path fill="#403848" d="M36,81h1v1h-1V81z"/>
<path fill="#7B737B" d="M37,81h1v1h-1V81z"/>
<path fill="#D8D0D8" d="M54,81h1v1h-1V81z"/>
<path fill="#B0A8B0" d="M55,81h1v1h-1V81z"/>
<path fill="#030303" d="M56,81h3v1h-3V81z"/>
<path fill="#B0A8B0" d="M59,81h1v1h-1V81z"/>
<path fill="#D8D0D8" d="M60,81h1v1h-1V81z"/>
<path fill="#7B737B" d="M77,81h1v1h-1V81z"/>
<path fill="#403848" d="M78,81h1v1h-1V81z"/>
<path fill="#040404" d="M79,81h3v1h-3V81z"/>
<path fill="#B0A8B0" d="M82,81h1v1h-1V81z"/>
<path fill="#E8E8F8" d="M83,81h1v2h-1V81z"/>
<path fill="#B0A8B0" d="M8,82h1v1H8V82z"/>
<path fill="#D8D0D8" d="M9,82h1v1H9V82z"/>
<path fill="#403848" d="M10,82h1v1h-1V82z"/>
<path fill="#403848" d="M12,82h1v1h-1V82z"/>
<path fill="#D8D0D8" d="M13,82h1v1h-1V82z"/>
<path fill="#B0A8B0" d="M14,82h1v1h-1V82z"/>
<path fill="#D8D0D8" d="M32,82h1v1h-1V82z"/>
<path fill="#403848" d="M33,82h1v1h-1V82z"/>
<path fill="#403848" d="M35,82h1v1h-1V82z"/>
<path fill="#7B737B" d="M36,82h1v1h-1V82z"/>
<path fill="#403848" d="M37,82h1v1h-1V82z"/>
<path fill="#B0A8B0" d="M54,82h1v1h-1V82z"/>
<path fill="#D8D0D8" d="M55,82h1v1h-1V82z"/>
<path fill="#403848" d="M56,82h1v1h-1V82z"/>
<path fill="#403848" d="M58,82h1v1h-1V82z"/>
<path fill="#D8D0D8" d="M59,82h1v1h-1V82z"/>
<path fill="#B0A8B0" d="M60,82h1v1h-1V82z"/>
<path fill="#403848" d="M77,82h1v1h-1V82z"/>
<path fill="#7B737B" d="M78,82h1v1h-1V82z"/>
<path fill="#403848" d="M79,82h1v1h-1V82z"/>
<path fill="#403848" d="M81,82h1v1h-1V82z"/>
<path fill="#D8D0D8" d="M82,82h1v1h-1V82z"/>
<path fill="#030303" d="M8,83h2v1H8V83z"/>
<path fill="#030303" d="M13,83h2v1h-2V83z"/>
<path fill="#030303" d="M31,83h2v1h-2V83z"/>
<path fill="#030303" d="M36,83h2v1h-2V83z"/>
<path fill="#030303" d="M54,83h2v1h-2V83z"/>
<path fill="#030303" d="M59,83h2v1h-2V83z"/>
<path fill="#040404" d="M77,83h2v1h-2V83z"/>
<path fill="#040404" d="M82,83h2v1h-2V83z"/>
<path fill="#030303" d="M9,98h2v1h-1v2H8v-1h1V98z"/>
<path fill="#030303" d="M55,98h2v1h-1v2h-2v-1h1V98z"/>
<path fill="#D8D0D8" d="M10,99h1v1h-1V99z"/>
<path fill="#030303" d="M11,99h1v1h-1V99z"/>
<path fill="#030303" d="M32,99h2v1h-1v2h-2v-1h1V99z"/>
<path fill="#D8D0D8" d="M56,99h1v1h-1V99z"/>
<path fill="#030303" d="M57,99h1v1h-1V99z"/>
<path fill="#030303" d="M78,99h2v1h-1v2h-2v-1h1V99z"/>
<path fill="#403848" d="M7,100h1v1H7V100z"/>
<path fill="#B0A8B0" d="M10,100h1v1h-1V100z"/>
<path fill="#403848" d="M11,100h2v1h-2V100z"/>
<path fill="#D8D0D8" d="M33,100h1v1h-1V100z"/>
<path fill="#030303" d="M34,100h1v1h-1V100z"/>
<path fill="#403848" d="M53,100h1v1h-1V100z"/>
<path fill="#B0A8B0" d="M56,100h1v1h-1V100z"/>
<path fill="#403848" d="M57,100h2v1h-2V100z"/>
<path fill="#D8D0D8" d="M79,100h1v1h-1V100z"/>
<path fill="#030303" d="M80,100h1v1h-1V100z"/>
<path fill="#403848" d="M6,101h1v1H6V101z"/>
<path fill="#D8D0D8" d="M7,101h3v2H9v1H8v-1H6v-1h1V101z"/>
<path fill="#403848" d="M10,101h1v1h-1V101z"/>
<path fill="#E8E8F8" d="M11,101h1v1h-1V101z"/>
<path fill="#030303" d="M12,101h1v2h-1V101z"/>
<path fill="#403848" d="M17,101h1v1h-1V101z"/>
<path fill="#403848" d="M30,101h1v1h-1V101z"/>
<path fill="#B0A8B0" d="M33,101h1v1h-1V101z"/>
<path fill="#403848" d="M34,101h2v1h-2V101z"/>
<path fill="#030303" d="M39,101h1v4h-1V101z"/>
<path fill="#403848" d="M40,101h1v1h-1V101z"/>
<path fill="#403848" d="M52,101h1v1h-1V101z"/>
<path fill="#D8D0D8" d="M53,101h3v2h-1v1h-1v-1h-2v-1h1V101z"/>
<path fill="#403848" d="M56,101h1v1h-1V101z"/>
<path fill="#E8E8F8" d="M57,101h1v1h-1V101z"/>
<path fill="#030303" d="M58,101h1v2h-1V101z"/>
<path fill="#403848" d="M63,101h2v5h-1v-4h-1V101z"/>
<path fill="#403848" d="M76,101h1v1h-1V101z"/>
<path fill="#B0A8B0" d="M79,101h1v1h-1V101z"/>
<path fill="#403848" d="M80,101h2v1h-2V101z"/>
<path fill="#403848" d="M86,101h2v5h-1v-4h-1V101z"/>
<path fill="#403848" d="M5,102h1v2H5V102z"/>
<path fill="#B0A8B0" d="M10,102h1v1h-1V102z"/>
<path fill="#F88898" d="M11,102h1v2h-1V102z"/>
<path fill="#030303" d="M16,102h1v3h-1V102z"/>
<path fill="#E8E8F8" d="M17,102h1v4h-1V102z"/>
<path fill="#403848" d="M18,102h1v4h-1V102z"/>
<path fill="#403848" d="M29,102h1v1h-1V102z"/>
<path fill="#D8D0D8" d="M30,102h3v2h-1v1h-1v-1h-2v-1h1V102z"/>
<path fill="#403848" d="M33,102h1v1h-1V102z"/>
<path fill="#E8E8F8" d="M34,102h1v1h-1V102z"/>
<path fill="#030303" d="M35,102h1v2h-1V102z"/>
<path fill="#E8E8F8" d="M40,102h1v4h-1V102z"/>
<path fill="#403848" d="M41,102h1v4h-1V102z"/>
<path fill="#403848" d="M51,102h1v2h-1V102z"/>
<path fill="#B0A8B0" d="M56,102h1v1h-1V102z"/>
<path fill="#F88898" d="M57,102h1v2h-1V102z"/>
<path fill="#030303" d="M62,102h1v3h-1V102z"/>
<path fill="#E8E8F8" d="M63,102h1v4h-1V102z"/>
<path fill="#403848" d="M75,102h1v1h-1V102z"/>
<path fill="#D8D0D8" d="M76,102h3v2h-1v1h-1v-1h-2v-1h1V102z"/>
<path fill="#403848" d="M79,102h1v1h-1V102z"/>
<path fill="#E8E8F8" d="M80,102h1v1h-1V102z"/>
<path fill="#030303" d="M81,102h1v2h-1V102z"/>
<path fill="#030303" d="M85,102h1v3h-1V102z"/>
<path fill="#E8E8F8" d="M86,102h1v4h-1V102z"/>
<path fill="#E8E8F8" d="M6,103h1v1H6V103z"/>
<path fill="#FFFFFF" d="M7,103h1v1H7V103z"/>
<path fill="#E8E8F8" d="M9,103h1v1H9V103z"/>
<path fill="#D8D0D8" d="M10,103h1v3h-1v-1H9v-1h1V103z"/>
<path fill="#403848" d="M12,103h1v1h-1V103z"/>
<path fill="#403848" d="M28,103h1v2h-1V103z"/>
<path fill="#B0A8B0" d="M33,103h1v1h-1V103z"/>
<path fill="#F88898" d="M34,103h1v2h-1V103z"/>
<path fill="#E8E8F8" d="M52,103h1v1h-1V103z"/>
<path fill="#FFFFFF" d="M53,103h1v1h-1V103z"/>
<path fill="#E8E8F8" d="M55,103h1v1h-1V103z"/>
<path fill="#D8D0D8" d="M56,103h1v3h-1v-1h-1v-1h1V103z"/>
<path fill="#403848" d="M58,103h1v1h-1V103z"/>
<path fill="#403848" d="M74,103h1v2h-1V103z"/>
<path fill="#B0A8B0" d="M79,103h1v1h-1V103z"/>
<path fill="#F88898" d="M80,103h1v2h-1V103z"/>
<path fill="#030303" d="M4,104h1v2H4V104z"/>
<path fill="#F88898" d="M5,104h1v1H5V104z"/>
<path fill="#D8D0D8" d="M6,104h1v1H6V104z"/>
<path fill="#403848" d="M7,104h1v1H7V104z"/>
<path fill="#E8E8F8" d="M8,104h1v1h1v1H8v1H6v-1H5v-1h3V104z"/>
<path fill="#B0A8B0" d="M11,104h1v1h1v1h-2V104z"/>
<path fill="#030303" d="M12,104h1v1h-1V104z"/>
<path fill="#E8E8F8" d="M29,104h1v1h-1V104z"/>
<path fill="#FFFFFF" d="M30,104h1v1h-1V104z"/>
<path fill="#E8E8F8" d="M32,104h1v1h-1V104z"/>
<path fill="#D8D0D8" d="M33,104h1v3h-1v-1h-1v-1h1V104z"/>
<path fill="#403848" d="M35,104h1v1h-1V104z"/>
<path fill="#030303" d="M50,104h1v2h-1V104z"/>
<path fill="#F88898" d="M51,104h1v1h-1V104z"/>
<path fill="#D8D0D8" d="M52,104h1v1h-1V104z"/>
<path fill="#403848" d="M53,104h1v1h-1V104z"/>
<path fill="#E8E8F8" d="M54,104h1v1h1v1h-2v1h-2v-1h-1v-1h3V104z"/>
<path fill="#B0A8B0" d="M57,104h1v1h1v1h-2V104z"/>
<path fill="#030303" d="M58,104h1v1h-1V104z"/>
<path fill="#E8E8F8" d="M75,104h1v1h-1V104z"/>
<path fill="#FFFFFF" d="M76,104h1v1h-1V104z"/>
<path fill="#E8E8F8" d="M78,104h1v1h-1V104z"/>
<path fill="#D8D0D8" d="M79,104h1v3h-1v-1h-1v-1h1V104z"/>
<path fill="#403848" d="M81,104h1v1h-1V104z"/>
<path fill="#030303" d="M13,105h1v1h-1V105z"/>
<path fill="#403848" d="M14,105h1v1h-1V105z"/>
<path fill="#030303" d="M15,105h1v1h-1V105z"/>
<path fill="#B0A8B0" d="M16,105h1v1h-1V105z"/>
<path fill="#030303" d="M27,105h1v2h-1V105z"/>
<path fill="#F88898" d="M28,105h1v1h-1V105z"/>
<path fill="#D8D0D8" d="M29,105h1v1h-1V105z"/>
<path fill="#403848" d="M30,105h1v1h-1V105z"/>
<path fill="#E8E8F8" d="M31,105h1v1h1v1h-2v1h-2v-1h-1v-1h3V105z"/>
<path fill="#B0A8B0" d="M34,105h1v1h1v1h-2V105z"/>
<path fill="#030303" d="M35,105h2v1h-2V105z"/>
<path fill="#403848" d="M37,105h1v1h-1V105z"/>
<path fill="#030303" d="M38,105h1v1h-1V105z"/>
<path fill="#B0A8B0" d="M39,105h1v1h-1V105z"/>
<path fill="#030303" d="M59,105h1v1h-1V105z"/>
<path fill="#403848" d="M60,105h1v1h-1V105z"/>
<path fill="#030303" d="M61,105h1v1h-1V105z"/>
<path fill="#B0A8B0" d="M62,105h1v1h-1V105z"/>
<path fill="#030303" d="M73,105h1v2h-1V105z"/>
<path fill="#F88898" d="M74,105h1v1h-1V105z"/>
<path fill="#D8D0D8" d="M75,105h1v1h-1V105z"/>
<path fill="#403848" d="M76,105h1v1h-1V105z"/>
<path fill="#E8E8F8" d="M77,105h1v1h1v1h-2v1h-2v-1h-1v-1h3V105z"/>
<path fill="#B0A8B0" d="M80,105h1v1h1v1h-2V105z"/>
<path fill="#030303" d="M81,105h2v1h-2V105z"/>
<path fill="#403848" d="M83,105h1v1h-1V105z"/>
<path fill="#030303" d="M84,105h1v1h-1V105z"/>
<path fill="#B0A8B0" d="M85,105h1v1h-1V105z"/>
<path fill="#030303" d="M5,106h1v1H5V106z"/>
<path fill="#D8D0D8" d="M8,106h2v1H8V106z"/>
<path fill="#B0A8B0" d="M10,106h1v1h-1V106z"/>
<path fill="#D8D0D8" d="M11,106h1v1h-1V106z"/>
<path fill="#E8E8F8" d="M12,106h3v1h1v3h-1v-1h-1v-1h-2v3h-1v-2h-1v-1h1v-1h1V106z"/>
<path fill="#D8D0D8" d="M15,106h2v1h-2V106z"/>
<path fill="#B0A8B0" d="M17,106h1v1h-1V106z"/>
<path fill="#030303" d="M18,106h1v1h-1V106z"/>
<path fill="#E8E8F8" d="M36,106h2v1h1v2h-2v-1h-1v1h-2v-1h1v-1h1V106z"/>
<path fill="#D8D0D8" d="M38,106h2v1h-2V106z"/>
<path fill="#B0A8B0" d="M40,106h1v1h-1V106z"/>
<path fill="#030303" d="M41,106h1v1h-1V106z"/>
<path fill="#030303" d="M51,106h1v1h-1V106z"/>
<path fill="#D8D0D8" d="M54,106h2v1h-2V106z"/>
<path fill="#B0A8B0" d="M56,106h1v1h-1V106z"/>
<path fill="#D8D0D8" d="M57,106h1v1h-1V106z"/>
<path fill="#E8E8F8" d="M58,106h3v1h1v3h-1v-1h-1v-1h-2v3h-1v-2h-1v-1h1v-1h1V106z"/>
<path fill="#D8D0D8" d="M61,106h2v1h-2V106z"/>
<path fill="#B0A8B0" d="M63,106h1v1h-1V106z"/>
<path fill="#030303" d="M64,106h1v1h-1V106z"/>
<path fill="#E8E8F8" d="M82,106h2v1h1v2h-2v-1h-1v1h-2v-1h1v-1h1V106z"/>
<path fill="#D8D0D8" d="M84,106h2v1h-2V106z"/>
<path fill="#B0A8B0" d="M86,106h1v1h-1V106z"/>
<path fill="#030303" d="M87,106h1v1h-1V106z"/>
<path fill="#030303" d="M6,107h3v5H8v-4H6V107z"/>
<path fill="#B0A8B0" d="M9,107h1v2H9V107z"/>
<path fill="#D8D0D8" d="M10,107h1v1h-1V107z"/>
<path fill="#B0A8B0" d="M16,107h1v1h-1V107z"/>
<path fill="#403848" d="M17,107h1v1h-1V107z"/>
<path fill="#030303" d="M28,107h1v1h-1V107z"/>
<path fill="#D8D0D8" d="M31,107h2v1h-2V107z"/>
<path fill="#B0A8B0" d="M33,107h1v1h-1V107z"/>
<path fill="#D8D0D8" d="M34,107h1v1h-1V107z"/>
<path fill="#B0A8B0" d="M39,107h1v1h-1V107z"/>
<path fill="#403848" d="M40,107h1v1h-1V107z"/>
<path fill="#030303" d="M52,107h3v5h-1v-4h-2V107z"/>
<path fill="#B0A8B0" d="M55,107h1v2h-1V107z"/>
<path fill="#D8D0D8" d="M56,107h1v1h-1V107z"/>
<path fill="#B0A8B0" d="M62,107h1v1h-1V107z"/>
<path fill="#403848" d="M63,107h1v1h-1V107z"/>
<path fill="#030303" d="M74,107h1v1h-1V107z"/>
<path fill="#D8D0D8" d="M77,107h2v1h-2V107z"/>
<path fill="#B0A8B0" d="M79,107h1v1h-1V107z"/>
<path fill="#D8D0D8" d="M80,107h1v1h-1V107z"/>
<path fill="#B0A8B0" d="M85,107h1v1h-1V107z"/>
<path fill="#403848" d="M86,107h1v1h-1V107z"/>
<path fill="#D8D0D8" d="M12,108h2v1h-1v1h-1V108z"/>
<path fill="#D8D0D8" d="M16,108h1v1h-1V108z"/>
<path fill="#030303" d="M17,108h1v2h-1V108z"/>
<path fill="#030303" d="M29,108h3v2h-2v-1h-1V108z"/>
<path fill="#B0A8B0" d="M32,108h1v1h-1V108z"/>
<path fill="#D8D0D8" d="M33,108h1v1h-1V108z"/>
<path fill="#D8D0D8" d="M36,108h1v1h-1V108z"/>
<path fill="#D8D0D8" d="M39,108h1v1h-1V108z"/>
<path fill="#030303" d="M40,108h1v2h-1V108z"/>
<path fill="#D8D0D8" d="M58,108h2v1h-1v1h-1V108z"/>
<path fill="#D8D0D8" d="M62,108h1v1h-1V108z"/>
<path fill="#030303" d="M63,108h1v2h-1V108z"/>
<path fill="#030303" d="M75,108h3v2h-1v-1h-2V108z"/>
<path fill="#B0A8B0" d="M78,108h1v2h-1V108z"/>
<path fill="#D8D0D8" d="M79,108h1v1h2v1h-3V108z"/>
<path fill="#D8D0D8" d="M82,108h1v1h-1V108z"/>
<path fill="#D8D0D8" d="M85,108h1v1h-1V108z"/>
<path fill="#030303" d="M86,108h1v2h-1V108z"/>
<path fill="#7B737B" d="M9,109h1v1H9V109z"/>
<path fill="#D8D0D8" d="M10,109h1v1h-1V109z"/>
<path fill="#B0A8B0" d="M13,109h1v1h-1V109z"/>
<path fill="#D8D0D8" d="M14,109h1v1h-1V109z"/>
<path fill="#B0A8B0" d="M16,109h1v1h-1V109z"/>
<path fill="#403848" d="M32,109h1v1h1v1h-2V109z"/>
<path fill="#B0A8B0" d="M33,109h1v1h-1V109z"/>
<path fill="#D8D0D8" d="M34,109h2v3h-1v-2h-1V109z"/>
<path fill="#B0A8B0" d="M36,109h1v2h-1V109z"/>
<path fill="#D8D0D8" d="M37,109h2v1h-1v1h-1V109z"/>
<path fill="#B0A8B0" d="M39,109h1v1h-1V109z"/>
<path fill="#7B737B" d="M55,109h1v1h-1V109z"/>
<path fill="#D8D0D8" d="M56,109h1v1h-1V109z"/>
<path fill="#B0A8B0" d="M59,109h1v1h-1V109z"/>
<path fill="#D8D0D8" d="M60,109h1v1h-1V109z"/>
<path fill="#B0A8B0" d="M62,109h1v1h-1V109z"/>
<path fill="#B0A8B0" d="M82,109h1v1h-1V109z"/>
<path fill="#D8D0D8" d="M83,109h2v2h-1v-1h-1V109z"/>
<path fill="#B0A8B0" d="M85,109h1v2h-1V109z"/>
<path fill="#B0A8B0" d="M9,110h2v1h-1v1H9V110z"/>
<path fill="#B0A8B0" d="M12,110h1v1h-1V110z"/>
<path fill="#030303" d="M13,110h1v1h-1V110z"/>
<path fill="#B0A8B0" d="M14,110h1v1h-1V110z"/>
<path fill="#D8D0D8" d="M15,110h1v1h-1V110z"/>
<path fill="#030303" d="M16,110h1v2h-1V110z"/>
<path fill="#7B737B" d="M31,110h1v1h-1V110z"/>
<path fill="#B0A8B0" d="M34,110h1v2h-1V110z"/>
<path fill="#B0A8B0" d="M38,110h1v2h-2v-1h1V110z"/>
<path fill="#030303" d="M39,110h1v2h-1V110z"/>
<path fill="#B0A8B0" d="M55,110h2v1h-1v1h-1V110z"/>
<path fill="#B0A8B0" d="M58,110h1v1h-1V110z"/>
<path fill="#030303" d="M59,110h1v1h-1V110z"/>
<path fill="#B0A8B0" d="M60,110h1v1h-1V110z"/>
<path fill="#D8D0D8" d="M61,110h1v1h-1V110z"/>
<path fill="#030303" d="M62,110h1v2h-1V110z"/>
<path fill="#030303" d="M76,110h1v2h-1V110z"/>
<path fill="#B0A8B0" d="M77,110h1v1h-1V110z"/>
<path fill="#D8D0D8" d="M78,110h1v1h-1V110z"/>
<path fill="#B0A8B0" d="M79,110h1v1h-1V110z"/>
<path fill="#403848" d="M80,110h1v1h-1V110z"/>
<path fill="#030303" d="M81,110h1v1h-1V110z"/>
<path fill="#403848" d="M82,110h1v1h-1V110z"/>
<path fill="#B0A8B0" d="M83,110h1v1h-1V110z"/>
<path fill="#403848" d="M86,110h1v1h-1V110z"/>
<path fill="#403848" d="M10,111h1v1h-1V111z"/>
<path fill="#D8D0D8" d="M11,111h1v1h-1V111z"/>
<path fill="#030303" d="M12,111h1v2H9v-1h3V111z"/>
<path fill="#403848" d="M13,111h1v1h-1V111z"/>
<path fill="#D8D0D8" d="M14,111h1v1h-1V111z"/>
<path fill="#B0A8B0" d="M15,111h1v1h-1V111z"/>
<path fill="#030303" d="M30,111h1v1h-1V111z"/>
<path fill="#B0A8B0" d="M31,111h1v1h-1V111z"/>
<path fill="#7B737B" d="M32,111h1v1h-1V111z"/>
<path fill="#030303" d="M33,111h1v1h-1V111z"/>
<path fill="#403848" d="M36,111h1v1h-1V111z"/>
<path fill="#403848" d="M56,111h1v1h-1V111z"/>
<path fill="#D8D0D8" d="M57,111h1v1h-1V111z"/>
<path fill="#030303" d="M58,111h1v2h-4v-1h3V111z"/>
<path fill="#403848" d="M59,111h1v1h-1V111z"/>
<path fill="#D8D0D8" d="M60,111h1v1h-1V111z"/>
<path fill="#B0A8B0" d="M61,111h1v1h-1V111z"/>
<path fill="#D8D0D8" d="M77,111h1v1h-1V111z"/>
<path fill="#B0A8B0" d="M78,111h1v1h-1V111z"/>
<path fill="#030303" d="M79,111h1v1h-1V111z"/>
<path fill="#030303" d="M82,111h1v1h-1V111z"/>
<path fill="#403848" d="M83,111h1v1h-1V111z"/>
<path fill="#B0A8B0" d="M84,111h1v1h-1V111z"/>
<path fill="#D8D0D8" d="M85,111h1v1h-1V111z"/>
<path fill="#030303" d="M86,111h1v1h-1V111z"/>
<path fill="#030303" d="M14,112h2v1h-2V112z"/>
<path fill="#030303" d="M31,112h2v1h-2V112z"/>
<path fill="#030303" d="M34,112h2v1h-2V112z"/>
<path fill="#030303" d="M37,112h2v1h-2V112z"/>
<path fill="#030303" d="M60,112h2v1h-2V112z"/>
<path fill="#030303" d="M77,112h2v1h-2V112z"/>
<path fill="#030303" d="M83,112h3v1h-3V112z"/>
</svg>
