<?xml version="1.0" encoding="utf-8"?>
<!-- Generator: Adobe Illustrator 16.0.4, SVG Export Plug-In . SVG Version: 6.00 Build 0)  -->
<!DOCTYPE svg PUBLIC "-//W3C//DTD SVG 1.1//EN" "http://www.w3.org/Graphics/SVG/1.1/DTD/svg11.dtd">
<svg version="1.1" id="Layer_1" xmlns="http://www.w3.org/2000/svg" xmlns:xlink="http://www.w3.org/1999/xlink" x="0px" y="0px"
	 width="68px" height="26px" viewBox="-0.5 0.5 68 26" enable-background="new -0.5 0.5 68 26" xml:space="preserve">
<g>
	<path fill="#404149" d="M39.5,2.5h1v1h-1V2.5z"/>
	<path fill="#404048" d="M40.5,2.5h4v1h-4V2.5z"/>
	<path fill="#404048" d="M37.5,3.5h2v1h-2V3.5z"/>
	<path fill="#B99058" d="M39.5,3.5h1v1h-1V3.5z"/>
	<path fill="#785850" d="M40.5,3.5h2v1h-1v1h-1V3.5z"/>
	<path fill="#785750" d="M42.5,3.5h1v1h-1V3.5z"/>
	<path fill="#B89057" d="M43.5,3.5h1v1h-1V3.5z"/>
	<path fill="#404048" d="M44.5,3.5h2v1h-2V3.5z"/>
	<path fill="#404048" d="M36.5,4.5h1v1h-1V4.5z"/>
	<path fill="#785750" d="M37.5,4.5h1v1h-1V4.5z"/>
	<path fill="#B89057" d="M38.5,4.5h1v1h-1V4.5z"/>
	<path fill="#775750" d="M39.5,4.5h1v1h-1V4.5z"/>
	<path fill="#404048" d="M41.5,4.5h1v1h1v1h-1v1h-1V4.5z"/>
	<path fill="#785850" d="M42.5,4.5h1v1h-1V4.5z"/>
	<path fill="#785750" d="M43.5,4.5h3v1h-2v1h-1V4.5z"/>
	<path fill="#404149" d="M46.5,4.5h1v1h-1V4.5z"/>
	<path fill="#010101" d="M35.5,5.5h1v1h-1V5.5z"/>
	<path fill="#785750" d="M36.5,5.5h1v1h-1V5.5z"/>
	<path fill="#B89058" d="M37.5,5.5h2v1h-2V5.5z"/>
	<path fill="#785750" d="M39.5,5.5h1v2h-1V5.5z"/>
	<path fill="#404149" d="M40.5,5.5h1v1h-1V5.5z"/>
	<path fill="#B89057" d="M44.5,5.5h1v2h-1V5.5z"/>
	<path fill="#785851" d="M45.5,5.5h1v1h-1V5.5z"/>
	<path fill="#785850" d="M46.5,5.5h1v1h-1V5.5z"/>
	<path fill="#020202" d="M47.5,5.5h1v1h-1V5.5z"/>
	<path fill="#404048" d="M35.5,6.5h1v1h-1V6.5z"/>
	<path fill="#785850" d="M36.5,6.5h1v1h-1V6.5z"/>
	<path fill="#B99058" d="M37.5,6.5h2v1h1v1h-2v-1h-1V6.5z"/>
	<path fill="#785850" d="M40.5,6.5h1v2h-1V6.5z"/>
	<path fill="#785750" d="M42.5,6.5h1v3h1v1h-1v4h-1v-1h-1v-1h-2v1h-1v-1h-2v-1h-2v-1h2v-1h1v2h2v-1h1v-1h1v2h1v-3h-1v-1h1V6.5z"/>
	<path fill="#785851" d="M43.5,6.5h1v1h-1V6.5z"/>
	<path fill="#785750" d="M45.5,6.5h2v2h-1v-1h-1V6.5z"/>
	<path fill="#404149" d="M47.5,6.5h1v1h-1V6.5z"/>
	<path fill="#010101" d="M34.5,7.5h1v2h-1V7.5z"/>
	<path fill="#785750" d="M35.5,7.5h3v2h-1v-1h-1v1h-1V7.5z"/>
	<path fill="#B99058" d="M43.5,7.5h1v1h-1V7.5z"/>
	<path fill="#785750" d="M44.5,7.5h1v2h-1V7.5z"/>
	<path fill="#785850" d="M45.5,7.5h1v3h-2v-1h1V7.5z"/>
	<path fill="#785850" d="M47.5,7.5h1v1h-1V7.5z"/>
	<path fill="#020202" d="M48.5,7.5h1v1h-1V7.5z"/>
	<path fill="#785851" d="M36.5,8.5h1v1h-1V8.5z"/>
	<path fill="#785850" d="M38.5,8.5h2v1h-1v2h-2v-1h1V8.5z"/>
	<path fill="#B89058" d="M40.5,8.5h1v1h-1V8.5z"/>
	<path fill="#B89057" d="M41.5,8.5h1v1h-1V8.5z"/>
	<path fill="#785850" d="M43.5,8.5h1v1h-1V8.5z"/>
	<path fill="#785851" d="M46.5,8.5h2v1h-2V8.5z"/>
	<path fill="#010101" d="M48.5,8.5h1v1h-1V8.5z"/>
	<path fill="#020202" d="M33.5,9.5h1v4h-1V9.5z"/>
	<path fill="#785850" d="M34.5,9.5h1v1h-1V9.5z"/>
	<path fill="#785851" d="M35.5,9.5h1v1h-1V9.5z"/>
	<path fill="#775750" d="M37.5,9.5h1v1h-1V9.5z"/>
	<path fill="#785851" d="M39.5,9.5h1v1h-1V9.5z"/>
	<path fill="#775750" d="M41.5,9.5h1v1h-1V9.5z"/>
	<path fill="#785750" d="M46.5,9.5h2v1h-2V9.5z"/>
	<path fill="#785851" d="M48.5,9.5h1v1h-1V9.5z"/>
	<path fill="#010101" d="M49.5,9.5h1v3h-1V9.5z"/>
	<path fill="#785850" d="M41.5,10.5h1v1h-1V10.5z"/>
	<path fill="#785850" d="M43.5,10.5h1v3h-1V10.5z"/>
	<path fill="#785750" d="M44.5,10.5h2v2h-1v1h-1V10.5z"/>
	<path fill="#785850" d="M46.5,10.5h1v1h-1V10.5z"/>
	<path fill="#785851" d="M47.5,10.5h1v1h-1V10.5z"/>
	<path fill="#785750" d="M48.5,10.5h1v1h-1V10.5z"/>
	<path fill="#404048" d="M34.5,11.5h1v1h-1V11.5z"/>
	<path fill="#785851" d="M35.5,11.5h1v1h-1V11.5z"/>
	<path fill="#775750" d="M46.5,11.5h2v1h-2V11.5z"/>
	<path fill="#404148" d="M48.5,11.5h1v1h-1V11.5z"/>
	<path fill="#D89870" d="M34.5,12.5h1v1h-1V12.5z"/>
	<path fill="#404148" d="M35.5,12.5h1v1h-1V12.5z"/>
	<path fill="#404048" d="M36.5,12.5h1v2h1v-1h1v2h-3V12.5z"/>
	<path fill="#785851" d="M37.5,12.5h1v1h-1V12.5z"/>
	<path fill="#775750" d="M39.5,12.5h1v2h-1V12.5z"/>
	<path fill="#785850" d="M40.5,12.5h1v1h-1V12.5z"/>
	<path fill="#785851" d="M45.5,12.5h1v1h-1V12.5z"/>
	<path fill="#404048" d="M46.5,12.5h2v1h-1v2h-7v-1h4v-1h1v1h1V12.5z"/>
	<path fill="#D89870" d="M48.5,12.5h1v1h-1V12.5z"/>
	<path fill="#020202" d="M49.5,12.5h1v1h-1V12.5z"/>
	<path fill="#010101" d="M34.5,13.5h1v1h-1V13.5z"/>
	<path fill="#404149" d="M35.5,13.5h1v2h3v-1h1v1h7v-2h1v3h-3v1h-1v-1h-3v1h-1v-1h-5V13.5z"/>
	<path fill="#404149" d="M37.5,13.5h1v1h-1V13.5z"/>
	<path fill="#785750" d="M40.5,13.5h1v1h-1V13.5z"/>
	<path fill="#785851" d="M41.5,13.5h1v1h-1V13.5z"/>
	<path fill="#785851" d="M43.5,13.5h1v1h-1V13.5z"/>
	<path fill="#404149" d="M45.5,13.5h1v1h-1V13.5z"/>
	<path fill="#010101" d="M48.5,13.5h1v3h-1V13.5z"/>
	<path fill="#020202" d="M34.5,14.5h1v1h-1V14.5z"/>
	<path fill="#010101" d="M34.5,15.5h1v1h-1V15.5z"/>
	<path fill="#020202" d="M33.5,16.5h1v1h-1V16.5z"/>
	<path fill="#404048" d="M34.5,16.5h6v1h1v-1h3v1h1v-1h4v1h-2v1h-4v1h1v1h-3v-2h-2v-1h-1v1h-2v-1h-2V16.5z"/>
	<path fill="#010101" d="M49.5,16.5h1v2h-1V16.5z"/>
	<path fill="#010101" d="M33.5,17.5h1v1h-1V17.5z"/>
	<path fill="#404149" d="M34.5,17.5h1v1h-1V17.5z"/>
	<path fill="#010101" d="M35.5,17.5h1v1h-1V17.5z"/>
	<path fill="#404149" d="M38.5,17.5h1v1h-1V17.5z"/>
	<path fill="#010101" d="M47.5,17.5h1v1h-1V17.5z"/>
	<path fill="#404149" d="M48.5,17.5h1v1h-1V17.5z"/>
	<path fill="#010101" d="M34.5,18.5h1v1h-1V18.5z"/>
	<path fill="#D89870" d="M35.5,18.5h1v1h1v1h-2V18.5z"/>
	<path fill="#783F3F" d="M36.5,18.5h1v1h-1V18.5z"/>
	<path fill="#404149" d="M37.5,18.5h1v1h-1V18.5z"/>
	<path fill="#404048" d="M38.5,18.5h1v1h-1V18.5z"/>
	<path fill="#404149" d="M39.5,18.5h2v2h-1v-1h-1V18.5z"/>
	<path fill="#414149" d="M43.5,18.5h1v1h-1V18.5z"/>
	<path fill="#404149" d="M44.5,18.5h2v1h-2V18.5z"/>
	<path fill="#794040" d="M46.5,18.5h1v1h-1V18.5z"/>
	<path fill="#D89870" d="M47.5,18.5h1v2h-1V18.5z"/>
	<path fill="#010101" d="M48.5,18.5h1v1h-1V18.5z"/>
	<path fill="#783F3F" d="M33.5,19.5h1v1h-1V19.5z"/>
	<path fill="#F8D0B8" d="M34.5,19.5h1v1h-1V19.5z"/>
	<path fill="#010101" d="M37.5,19.5h1v2h-1V19.5z"/>
	<path fill="#020202" d="M38.5,19.5h1v1h-1V19.5z"/>
	<path fill="#404048" d="M39.5,19.5h1v1h-1V19.5z"/>
	<path fill="#020202" d="M44.5,19.5h2v2h-1v-1h-1V19.5z"/>
	<path fill="#D79770" d="M46.5,19.5h1v1h-1V19.5z"/>
	<path fill="#F8D0B8" d="M48.5,19.5h1v2h-2v-1h1V19.5z"/>
	<path fill="#783F40" d="M49.5,19.5h1v1h-1V19.5z"/>
	<path fill="#783F40" d="M33.5,20.5h1v1h-1V20.5z"/>
	<path fill="#F8D0B9" d="M34.5,20.5h1v1h-1V20.5z"/>
	<path fill="#F8D0B8" d="M35.5,20.5h1v1h-1V20.5z"/>
	<path fill="#794040" d="M36.5,20.5h1v1h-1V20.5z"/>
	<path fill="#AFAFC8" d="M38.5,20.5h1v1h-1V20.5z"/>
	<path fill="#010101" d="M39.5,20.5h5v1h-5V20.5z"/>
	<path fill="#B0B0C8" d="M44.5,20.5h1v1h1v1h-2V20.5z"/>
	<path fill="#784040" d="M46.5,20.5h1v1h-1V20.5z"/>
	<path fill="#783F3F" d="M49.5,20.5h1v1h-1V20.5z"/>
	<path fill="#783F40" d="M34.5,21.5h2v1h-2V21.5z"/>
	<path fill="#010101" d="M36.5,21.5h1v3h-1V21.5z"/>
	<path fill="#AFAFC8" d="M37.5,21.5h1v1h-1V21.5z"/>
	<path fill="#B0B0C8" d="M38.5,21.5h4v1h-3v1h-1V21.5z"/>
	<path fill="#AFAFC8" d="M42.5,21.5h2v1h-2V21.5z"/>
	<path fill="#020202" d="M46.5,21.5h1v1h-1V21.5z"/>
	<path fill="#784040" d="M47.5,21.5h1v1h-1V21.5z"/>
	<path fill="#783F40" d="M48.5,21.5h1v1h-1V21.5z"/>
	<path fill="#98608F" d="M37.5,22.5h1v1h-1V22.5z"/>
	<path fill="#E8E8F8" d="M39.5,22.5h2v1h2v1h-3v-1h-1V22.5z"/>
	<path fill="#E8E9F8" d="M41.5,22.5h2v1h-2V22.5z"/>
	<path fill="#E8E8F8" d="M43.5,22.5h1v1h-1V22.5z"/>
	<path fill="#AFAFC8" d="M44.5,22.5h1v1h-1V22.5z"/>
	<path fill="#98608F" d="M45.5,22.5h1v1h-1V22.5z"/>
	<path fill="#010101" d="M46.5,22.5h1v1h-1V22.5z"/>
	<path fill="#D79770" d="M37.5,23.5h1v1h-1V23.5z"/>
	<path fill="#98608F" d="M38.5,23.5h1v1h-1V23.5z"/>
	<path fill="#AFAFC8" d="M39.5,23.5h1v1h-1V23.5z"/>
	<path fill="#B0B0C8" d="M43.5,23.5h1v1h-1V23.5z"/>
	<path fill="#986090" d="M44.5,23.5h1v1h-1V23.5z"/>
	<path fill="#D7976F" d="M45.5,23.5h1v1h-1V23.5z"/>
	<path fill="#020202" d="M46.5,23.5h1v1h-1V23.5z"/>
	<path fill="#010101" d="M37.5,24.5h1v1h-1V24.5z"/>
	<path fill="#595181" d="M38.5,24.5h1v1h-1V24.5z"/>
	<path fill="#585080" d="M39.5,24.5h1v1h-1V24.5z"/>
	<path fill="#010101" d="M40.5,24.5h2v1h-2V24.5z"/>
	<path fill="#020202" d="M42.5,24.5h1v1h-1V24.5z"/>
	<path fill="#595181" d="M43.5,24.5h1v1h-1V24.5z"/>
	<path fill="#585180" d="M44.5,24.5h1v1h-1V24.5z"/>
	<path fill="#010101" d="M45.5,24.5h1v1h-1V24.5z"/>
	<path fill="#010101" d="M38.5,25.5h1v1h-1V25.5z"/>
	<path fill="#020202" d="M39.5,25.5h1v1h-1V25.5z"/>
	<path fill="#020202" d="M43.5,25.5h1v1h-1V25.5z"/>
	<path fill="#010101" d="M44.5,25.5h1v1h-1V25.5z"/>
</g>
<g>
	<path fill="#404048" d="M57.5,2.5h4v1h-4V2.5z"/>
	<path fill="#404048" d="M55.5,3.5h2v1h-2V3.5z"/>
	<path fill="#785850" d="M57.5,3.5h4v1h2v1h-1v1h-1v1h-2v1h-2v-1h-1v1h1v1h1v1h2v-1h2v2h1v2h-1v-1h-1v-1h-1v1h1v1h1v1h-1v2h-1v-3h-2
		v-1h-1v-1h-1v-1h-1v-2h-1v1h-1v3h-1v-4h1v-2h1v-1h1v-1h2V3.5z"/>
	<path fill="#404048" d="M61.5,3.5h2v1h-2V3.5z"/>
	<path fill="#040404" d="M54.5,4.5h1v1h-1V4.5z"/>
	<path fill="#404048" d="M63.5,4.5h1v1h-1V4.5z"/>
	<path fill="#040404" d="M53.5,5.5h1v1h-1V5.5z"/>
	<path fill="#B89058" d="M62.5,5.5h1v1h-1V5.5z"/>
	<path fill="#785850" d="M63.5,5.5h1v1h-1V5.5z"/>
	<path fill="#404048" d="M64.5,5.5h1v1h-1V5.5z"/>
	<path fill="#040404" d="M52.5,6.5h1v2h-1V6.5z"/>
	<path fill="#B89058" d="M61.5,6.5h1v1h1v1h-1v1h-2v1h-2v-1h-1v-1h2v-1h2V6.5z"/>
	<path fill="#785850" d="M62.5,6.5h1v1h-1V6.5z"/>
	<path fill="#B89058" d="M63.5,6.5h1v1h-1V6.5z"/>
	<path fill="#785850" d="M64.5,6.5h1v2h1v2h-1v2h-1v-1h-1v-2h-1v-1h1v-1h1V6.5z"/>
	<path fill="#040404" d="M65.5,6.5h1v2h-1V6.5z"/>
	<path fill="#B89058" d="M56.5,7.5h1v1h-1V7.5z"/>
	<path fill="#040404" d="M51.5,8.5h1v4h-1V8.5z"/>
	<path fill="#404048" d="M54.5,8.5h1v2h-1v1h-1v-2h1V8.5z"/>
	<path fill="#040404" d="M66.5,8.5h1v6h-1V8.5z"/>
	<path fill="#404048" d="M62.5,9.5h1v2h-1V9.5z"/>
	<path fill="#F8D0B8" d="M54.5,10.5h1v1h1v1h-1v1h-1v2h2v2h-2v-1h-1v-4h1V10.5z"/>
	<path fill="#404048" d="M55.5,10.5h1v1h-1V10.5z"/>
	<path fill="#404048" d="M65.5,10.5h1v4h-1v3h-1v1h-1v2h-1v-1h-1v-1h-1v-2h1v-2h1v-1h1v-2h1v1h1V10.5z"/>
	<path fill="#D89870" d="M53.5,11.5h1v1h-1V11.5z"/>
	<path fill="#404048" d="M56.5,11.5h1v1h-1V11.5z"/>
	<path fill="#404048" d="M60.5,11.5h1v1h-1V11.5z"/>
	<path fill="#303050" d="M52.5,12.5h1v1h-1V12.5z"/>
	<path fill="#785850" d="M55.5,12.5h1v1h-1V12.5z"/>
	<path fill="#F8D0B8" d="M56.5,12.5h1v2h-1V12.5z"/>
	<path fill="#404048" d="M57.5,12.5h1v1h-1V12.5z"/>
	<path fill="#404048" d="M61.5,12.5h1v1h-1V12.5z"/>
	<path fill="#784040" d="M52.5,13.5h1v2h-1V13.5z"/>
	<path fill="#404048" d="M54.5,13.5h1v1h-1V13.5z"/>
	<path fill="#A8A0C8" d="M55.5,13.5h1v1h-1V13.5z"/>
	<path fill="#785850" d="M57.5,13.5h1v3h-2v-1h1V13.5z"/>
	<path fill="#404048" d="M58.5,13.5h2v1h-2V13.5z"/>
	<path fill="#040404" d="M54.5,14.5h1v1h-1V14.5z"/>
	<path fill="#E8E8F8" d="M55.5,14.5h1v1h-1V14.5z"/>
	<path fill="#D89870" d="M56.5,14.5h1v1h-1V14.5z"/>
	<path fill="#D89870" d="M58.5,14.5h2v2h-1v1h-1v1h-1v-1h-1v-1h2V14.5z"/>
	<path fill="#040404" d="M65.5,14.5h1v3h-1V14.5z"/>
	<path fill="#D89870" d="M52.5,15.5h1v1h-1V15.5z"/>
	<path fill="#784040" d="M53.5,16.5h1v1h-1V16.5z"/>
	<path fill="#784040" d="M59.5,16.5h1v1h-1V16.5z"/>
	<path fill="#784040" d="M54.5,17.5h3v1h-3V17.5z"/>
	<path fill="#303050" d="M58.5,17.5h1v1h-1V17.5z"/>
	<path fill="#040404" d="M59.5,17.5h1v1h-1V17.5z"/>
	<path fill="#040404" d="M64.5,17.5h1v1h-1V17.5z"/>
	<path fill="#040404" d="M55.5,18.5h1v1h-1V18.5z"/>
	<path fill="#B0B0C8" d="M56.5,18.5h2v1h-2V18.5z"/>
	<path fill="#784040" d="M58.5,18.5h2v1h-2V18.5z"/>
	<path fill="#040404" d="M60.5,18.5h1v1h-1V18.5z"/>
	<path fill="#040404" d="M63.5,18.5h1v2h-1V18.5z"/>
	<path fill="#B0B0C8" d="M55.5,19.5h1v1h-1V19.5z"/>
	<path fill="#E8E8F8" d="M56.5,19.5h1v2h-2v-1h1V19.5z"/>
	<path fill="#784040" d="M57.5,19.5h1v2h-1V19.5z"/>
	<path fill="#F8D0B8" d="M58.5,19.5h2v2h-1v1h-2v-1h1V19.5z"/>
	<path fill="#606080" d="M60.5,19.5h1v1h-1V19.5z"/>
	<path fill="#040404" d="M61.5,19.5h1v2h-1V19.5z"/>
	<path fill="#383038" d="M54.5,20.5h1v2h-1V20.5z"/>
	<path fill="#383038" d="M60.5,20.5h1v2h-1V20.5z"/>
	<path fill="#606080" d="M55.5,21.5h1v1h-1V21.5z"/>
	<path fill="#784040" d="M56.5,21.5h1v2h-1V21.5z"/>
	<path fill="#040404" d="M59.5,21.5h1v2h-1V21.5z"/>
	<path fill="#B0B0C8" d="M61.5,21.5h1v1h-1V21.5z"/>
	<path fill="#040404" d="M62.5,21.5h1v2h-1V21.5z"/>
	<path fill="#E8E8F8" d="M55.5,22.5h1v1h-1V22.5z"/>
	<path fill="#D89870" d="M57.5,22.5h2v1h-2V22.5z"/>
	<path fill="#B0B0C8" d="M60.5,22.5h1v1h-1V22.5z"/>
	<path fill="#986090" d="M61.5,22.5h1v1h-1V22.5z"/>
	<path fill="#040404" d="M55.5,23.5h1v1h-1V23.5z"/>
	<path fill="#E8E8F8" d="M56.5,23.5h1v1h-1V23.5z"/>
	<path fill="#040404" d="M57.5,23.5h2v1h-2V23.5z"/>
	<path fill="#B0B0C8" d="M59.5,23.5h1v1h-1V23.5z"/>
	<path fill="#986090" d="M60.5,23.5h1v1h-1V23.5z"/>
	<path fill="#040404" d="M61.5,23.5h1v1h-1V23.5z"/>
	<path fill="#040404" d="M56.5,24.5h1v1h-1V24.5z"/>
	<path fill="#585080" d="M57.5,24.5h3v1h-3V24.5z"/>
	<path fill="#040404" d="M60.5,24.5h1v1h-1V24.5z"/>
	<path fill="#040404" d="M57.5,25.5h3v1h-3V25.5z"/>
</g>
<g>
	<path fill="#404048" d="M22.55,2.5h4v1h-4V2.5z"/>
	<path fill="#404048" d="M20.55,3.5h2v1h-2V3.5z"/>
	<path fill="#785850" d="M22.55,3.5h4v1h2v1h1v1h1v2h1v4h-1v-3h-1v-1h-1v2h-1v1h-1v1h-1v1h-2v3h-1v-2h-1v-1h1v-1h1v-1h-1v1h-1v1h-1
		v-2h1v-2h2v1h2v-1h1v-1h1v-1h-1v1h-2v-1h-2v-1h-1v-1h-1v-1h2V3.5z"/>
	<path fill="#404048" d="M26.55,3.5h2v1h-2V3.5z"/>
	<path fill="#404048" d="M19.55,4.5h1v1h-1V4.5z"/>
	<path fill="#030303" d="M28.55,4.5h1v1h-1V4.5z"/>
	<path fill="#404048" d="M18.55,5.5h1v1h-1V5.5z"/>
	<path fill="#785850" d="M19.55,5.5h1v1h-1V5.5z"/>
	<path fill="#B89058" d="M20.55,5.5h1v1h-1V5.5z"/>
	<path fill="#030303" d="M29.55,5.5h1v1h-1V5.5z"/>
	<path fill="#030303" d="M17.55,6.5h1v2h-1V6.5z"/>
	<path fill="#785850" d="M18.55,6.5h1v1h1v1h1v1h-1v2h-1v1h-1v-2h-1v-2h1V6.5z"/>
	<path fill="#B89058" d="M19.55,6.5h1v1h-1V6.5z"/>
	<path fill="#785850" d="M20.55,6.5h1v1h-1V6.5z"/>
	<path fill="#B89058" d="M21.55,6.5h1v1h2v1h2v1h-1v1h-2v-1h-2v-1h-1v-1h1V6.5z"/>
	<path fill="#030303" d="M30.55,6.5h1v2h-1V6.5z"/>
	<path fill="#B89058" d="M26.55,7.5h1v1h-1V7.5z"/>
	<path fill="#404048" d="M28.55,8.5h1v1h1v2h-1v-1h-1V8.5z"/>
	<path fill="#030303" d="M31.55,8.5h1v4h-1V8.5z"/>
	<path fill="#404048" d="M20.55,9.5h1v2h-1V9.5z"/>
	<path fill="#404048" d="M17.55,10.5h1v2h1v-1h1v2h1v1h1v2h1v2h-1v1h-1v1h-1v-2h-1v-1h-1v-3h-1V10.5z"/>
	<path fill="#404048" d="M27.55,10.5h1v1h-1V10.5z"/>
	<path fill="#F8D0B8" d="M28.55,10.5h1v2h1v4h-1v1h-2v-2h2v-2h-1v-1h-1v-1h1V10.5z"/>
	<path fill="#404048" d="M22.55,11.5h1v1h-1V11.5z"/>
	<path fill="#404048" d="M26.55,11.5h1v1h-1V11.5z"/>
	<path fill="#D89870" d="M29.55,11.5h1v1h-1V11.5z"/>
	<path fill="#404048" d="M21.55,12.5h1v1h-1V12.5z"/>
	<path fill="#404048" d="M25.55,12.5h1v1h-1V12.5z"/>
	<path fill="#F8D0B8" d="M26.55,12.5h1v2h-1V12.5z"/>
	<path fill="#785850" d="M27.55,12.5h1v1h-1V12.5z"/>
	<path fill="#303050" d="M30.55,12.5h1v1h-1V12.5z"/>
	<path fill="#404048" d="M23.55,13.5h2v1h-2V13.5z"/>
	<path fill="#785850" d="M25.55,13.5h1v2h1v1h-2V13.5z"/>
	<path fill="#A8A0C8" d="M27.55,13.5h1v1h-1V13.5z"/>
	<path fill="#404048" d="M28.55,13.5h1v1h-1V13.5z"/>
	<path fill="#784040" d="M30.55,13.5h1v2h-1V13.5z"/>
	<path fill="#030303" d="M17.55,14.5h1v3h-1V14.5z"/>
	<path fill="#D89870" d="M23.55,14.5h2v2h2v1h-1v1h-1v-1h-1v-1h-1V14.5z"/>
	<path fill="#D89870" d="M26.55,14.5h1v1h-1V14.5z"/>
	<path fill="#E8E8F8" d="M27.55,14.5h1v1h-1V14.5z"/>
	<path fill="#030303" d="M28.55,14.5h1v1h-1V14.5z"/>
	<path fill="#D89870" d="M30.55,15.5h1v1h-1V15.5z"/>
	<path fill="#784040" d="M23.55,16.5h1v1h-1V16.5z"/>
	<path fill="#784040" d="M29.55,16.5h1v1h-1V16.5z"/>
	<path fill="#030303" d="M18.55,17.5h1v1h-1V17.5z"/>
	<path fill="#030303" d="M23.55,17.5h1v1h-1V17.5z"/>
	<path fill="#303050" d="M24.55,17.5h1v1h-1V17.5z"/>
	<path fill="#784040" d="M26.55,17.5h3v1h-3V17.5z"/>
	<path fill="#030303" d="M19.55,18.5h1v2h-1V18.5z"/>
	<path fill="#030303" d="M22.55,18.5h1v1h-1V18.5z"/>
	<path fill="#784040" d="M23.55,18.5h2v1h-2V18.5z"/>
	<path fill="#B0B0C8" d="M25.55,18.5h2v1h-2V18.5z"/>
	<path fill="#030303" d="M27.55,18.5h1v1h-1V18.5z"/>
	<path fill="#030303" d="M21.55,19.5h1v2h-1V19.5z"/>
	<path fill="#606080" d="M22.55,19.5h1v1h-1V19.5z"/>
	<path fill="#F8D0B8" d="M23.55,19.5h2v2h1v1h-2v-1h-1V19.5z"/>
	<path fill="#784040" d="M25.55,19.5h1v2h-1V19.5z"/>
	<path fill="#E8E8F8" d="M26.55,19.5h1v1h1v1h-2V19.5z"/>
	<path fill="#B0B0C8" d="M27.55,19.5h1v1h-1V19.5z"/>
	<path fill="#383038" d="M22.55,20.5h1v2h-1V20.5z"/>
	<path fill="#383038" d="M28.55,20.5h1v2h-1V20.5z"/>
	<path fill="#030303" d="M20.55,21.5h1v2h-1V21.5z"/>
	<path fill="#B0B0C8" d="M21.55,21.5h1v1h-1V21.5z"/>
	<path fill="#030303" d="M23.55,21.5h1v2h-1V21.5z"/>
	<path fill="#784040" d="M26.55,21.5h1v2h-1V21.5z"/>
	<path fill="#606080" d="M27.55,21.5h1v1h-1V21.5z"/>
	<path fill="#986090" d="M21.55,22.5h1v1h-1V22.5z"/>
	<path fill="#B0B0C8" d="M22.55,22.5h1v1h-1V22.5z"/>
	<path fill="#D89870" d="M24.55,22.5h2v1h-2V22.5z"/>
	<path fill="#E8E8F8" d="M27.55,22.5h1v1h-1V22.5z"/>
	<path fill="#030303" d="M21.55,23.5h1v1h-1V23.5z"/>
	<path fill="#986090" d="M22.55,23.5h1v1h-1V23.5z"/>
	<path fill="#B0B0C8" d="M23.55,23.5h1v1h-1V23.5z"/>
	<path fill="#030303" d="M24.55,23.5h2v1h-2V23.5z"/>
	<path fill="#E8E8F8" d="M26.55,23.5h1v1h-1V23.5z"/>
	<path fill="#030303" d="M27.55,23.5h1v1h-1V23.5z"/>
	<path fill="#030303" d="M22.55,24.5h1v1h-1V24.5z"/>
	<path fill="#585080" d="M23.55,24.5h3v1h-3V24.5z"/>
	<path fill="#030303" d="M26.55,24.5h1v1h-1V24.5z"/>
	<path fill="#030303" d="M23.55,25.5h3v1h-3V25.5z"/>
	<path fill="#030303" d="M16.55,8.5h1v6h-1V8.5z"/>
</g>
<g>
	<path fill="#404048" d="M5.5,2.5h5v1h-5V2.5z"/>
	<path fill="#404048" d="M3.5,3.5h2v1h-2V3.5z"/>
	<path fill="#B89058" d="M5.5,3.5h1v1h-1V3.5z"/>
	<path fill="#785850" d="M6.5,3.5h3v1h3v1h1v2h1v2h-1v1h1v2h-1v-1h-2v-1h-1v-1h-1v1h-1v1h-2v1h-2v-1h1v-1h-1v1h-2v1h-1v-2h1v-1h-1
		v-2h1v-2h1v2h1v1h2v1h2v-1h-2v-1h-1v-3h1V3.5z"/>
	<path fill="#B89058" d="M9.5,3.5h1v1h-1V3.5z"/>
	<path fill="#404048" d="M10.5,3.5h2v1h-2V3.5z"/>
	<path fill="#404048" d="M2.5,4.5h1v1h-1V4.5z"/>
	<path fill="#785850" d="M3.5,4.5h1v1h-1V4.5z"/>
	<path fill="#B89058" d="M4.5,4.5h1v3h1v1h-2v-1h-1v-2h1V4.5z"/>
	<path fill="#404048" d="M7.5,4.5h1v1h1v1h-1v1h-1v-1h-1v-1h1V4.5z"/>
	<path fill="#404048" d="M12.5,4.5h1v1h-1V4.5z"/>
	<path fill="#030303" d="M1.5,5.5h1v1h-1V5.5z"/>
	<path fill="#B89058" d="M10.5,5.5h1v2h-1V5.5z"/>
	<path fill="#030303" d="M13.5,5.5h1v1h-1V5.5z"/>
	<path fill="#404048" d="M1.5,6.5h1v1h-1V6.5z"/>
	<path fill="#404048" d="M13.5,6.5h1v1h-1V6.5z"/>
	<path fill="#030303" d="M0.5,7.5h1v2h-1V7.5z"/>
	<path fill="#B89058" d="M9.5,7.5h1v1h-1V7.5z"/>
	<path fill="#030303" d="M14.5,7.5h1v2h-1V7.5z"/>
	<path fill="#B89058" d="M6.5,8.5h2v1h-2V8.5z"/>
	<path fill="#030303" d="M16.5,13.5h-1v-2h1V13.5z"/>
	<path fill="#030303" d="M-0.5,9.5h1v1h-1V9.5z"/>
	<path fill="#785850" d="M0.5,9.5h1v1h-1V9.5z"/>
	<path fill="#404048" d="M1.5,9.5h1v1h-1V9.5z"/>
	<path fill="#404048" d="M9.5,9.5h1v1h-1V9.5z"/>
	<path fill="#404048" d="M13.5,9.5h1v1h-1V9.5z"/>
	<path fill="#785850" d="M14.5,9.5h1v1h-1V9.5z"/>
	<path fill="#404048" d="M-0.5,10.5h2v1h-2V10.5z"/>
	<path fill="#404048" d="M4.5,10.5h1v1h-1V10.5z"/>
	<path fill="#404048" d="M8.5,10.5h1v1h-1V10.5z"/>
	<path fill="#D89870" d="M9.5,10.5h1v1h-1V10.5z"/>
	<path fill="#404048" d="M10.5,10.5h1v1h-1V10.5z"/>
	<path fill="#404048" d="M14.5,10.5h2v1h-2V10.5z"/>
	<path fill="#030303" d="M-0.5,11.5h1v2h-1V11.5z"/>
	<path fill="#D89870" d="M0.5,11.5h1v1h-1V11.5z"/>
	<path fill="#404048" d="M2.5,11.5h2v1h1v1h-1v1h-1v3h-2v1h-1v-2h1v-3h-1v-1h2V11.5z"/>
	<path fill="#404048" d="M6.5,11.5h2v1h-2V11.5z"/>
	<path fill="#F8D0B8" d="M8.5,11.5h3v1h-1v1h-1v2h2v1h-1v1h-2v-1h-1v1h-2v-1h-1v-1h2v-2h-1v-1h3V11.5z"/>
	<path fill="#404048" d="M11.5,11.5h2v1h2v1h-1v3h1v2h-1v-1h-2v-3h-1v-1h1v-1h-1V11.5z"/>
	<path fill="#D89870" d="M14.5,11.5h1v1h-1V11.5z"/>
	<path fill="#785850" d="M10.5,12.5h1v1h-1V12.5z"/>
	<path fill="#D89870" d="M11.5,12.5h1v1h-1V12.5z"/>
	<path fill="#030303" d="M0.5,13.5h1v3h-1V13.5z"/>
	<path fill="#A8A0C8" d="M4.5,13.5h1v1h-1V13.5z"/>
	<path fill="#404048" d="M5.5,13.5h1v1h-1V13.5z"/>
	<path fill="#404048" d="M9.5,13.5h1v1h-1V13.5z"/>
	<path fill="#A8A0C8" d="M10.5,13.5h1v1h-1V13.5z"/>
	<path fill="#030303" d="M14.5,13.5h1v3h-1V13.5z"/>
	<path fill="#D89870" d="M3.5,14.5h1v2h-1V14.5z"/>
	<path fill="#E8E8F8" d="M4.5,14.5h1v1h-1V14.5z"/>
	<path fill="#030303" d="M5.5,14.5h1v1h-1V14.5z"/>
	<path fill="#030303" d="M9.5,14.5h1v1h-1V14.5z"/>
	<path fill="#E8E8F8" d="M10.5,14.5h1v1h-1V14.5z"/>
	<path fill="#D89870" d="M11.5,14.5h1v2h-1V14.5z"/>
	<path fill="#030303" d="M-0.5,16.5h1v2h-1V16.5z"/>
	<path fill="#784040" d="M3.5,16.5h1v1h-1V16.5z"/>
	<path fill="#D89870" d="M4.5,16.5h1v1h-1V16.5z"/>
	<path fill="#D89870" d="M7.5,16.5h1v1h1v1h-3v-1h1V16.5z"/>
	<path fill="#D89870" d="M10.5,16.5h1v1h-1V16.5z"/>
	<path fill="#784040" d="M11.5,16.5h1v1h-1V16.5z"/>
	<path fill="#030303" d="M15.5,16.5h1v2h-1V16.5z"/>
	<path fill="#030303" d="M1.5,17.5h1v1h-1V17.5z"/>
	<path fill="#784040" d="M2.5,17.5h1v1h-1V17.5z"/>
	<path fill="#D89870" d="M3.5,17.5h1v2h-1v1h-2v-2h2V17.5z"/>
	<path fill="#030303" d="M4.5,17.5h1v1h-1V17.5z"/>
	<path fill="#784040" d="M5.5,17.5h1v1h-1V17.5z"/>
	<path fill="#784040" d="M9.5,17.5h1v1h-1V17.5z"/>
	<path fill="#030303" d="M10.5,17.5h1v1h-1V17.5z"/>
	<path fill="#D89870" d="M11.5,17.5h1v1h2v2h-2v-1h-1V17.5z"/>
	<path fill="#784040" d="M12.5,17.5h1v1h-1V17.5z"/>
	<path fill="#030303" d="M13.5,17.5h1v1h-1V17.5z"/>
	<path d="M-0.5,18.5h1v1h-1V18.5z"/>
	<path fill="#030303" d="M0.5,18.5h1v1h-1V18.5z"/>
	<path fill="#606080" d="M4.5,18.5h1v1h1v1h3v-1h1v-1h1v2h-1v1h-5v-1h-1V18.5z"/>
	<path fill="#B0B0C8" d="M5.5,18.5h5v1h-5V18.5z"/>
	<path fill="#030303" d="M14.5,18.5h1v1h-1V18.5z"/>
	<path fill="#784040" d="M-0.5,19.5h1v2h-1V19.5z"/>
	<path fill="#F8D0B8" d="M0.5,19.5h1v1h1v1h-2V19.5z"/>
	<path fill="#030303" d="M3.5,19.5h1v2h-1V19.5z"/>
	<path fill="#E8E8F8" d="M6.5,19.5h3v1h-3V19.5z"/>
	<path fill="#030303" d="M11.5,19.5h1v2h-1V19.5z"/>
	<path fill="#F8D0B8" d="M14.5,19.5h1v2h-2v-1h1V19.5z"/>
	<path fill="#784040" d="M15.5,19.5h1v2h-1V19.5z"/>
	<path fill="#784040" d="M2.5,20.5h1v1h-1V20.5z"/>
	<path fill="#B0B0C8" d="M4.5,20.5h1v3h-1v-1h-1v-1h1V20.5z"/>
	<path fill="#B0B0C8" d="M10.5,20.5h1v1h1v1h-1v1h-1V20.5z"/>
	<path fill="#784040" d="M12.5,20.5h1v1h-1V20.5z"/>
	<path fill="#784040" d="M0.5,21.5h2v1h-2V21.5z"/>
	<path fill="#030303" d="M2.5,21.5h1v3h-1V21.5z"/>
	<path fill="#E8E8F8" d="M5.5,21.5h5v2h-1v1h-3v-1h-1V21.5z"/>
	<path fill="#030303" d="M12.5,21.5h1v3h-1V21.5z"/>
	<path fill="#784040" d="M13.5,21.5h2v1h-2V21.5z"/>
	<path fill="#986090" d="M3.5,22.5h1v1h-1V22.5z"/>
	<path fill="#986090" d="M11.5,22.5h1v1h-1V22.5z"/>
	<path fill="#D89870" d="M3.5,23.5h1v1h-1V23.5z"/>
	<path fill="#986090" d="M4.5,23.5h1v1h-1V23.5z"/>
	<path fill="#B0B0C8" d="M5.5,23.5h1v1h-1V23.5z"/>
	<path fill="#B0B0C8" d="M9.5,23.5h1v1h-1V23.5z"/>
	<path fill="#986090" d="M10.5,23.5h1v1h-1V23.5z"/>
	<path fill="#D89870" d="M11.5,23.5h1v1h-1V23.5z"/>
	<path fill="#030303" d="M3.5,24.5h1v1h-1V24.5z"/>
	<path fill="#585080" d="M4.5,24.5h2v1h-2V24.5z"/>
	<path fill="#030303" d="M6.5,24.5h3v1h-3V24.5z"/>
	<path fill="#585080" d="M9.5,24.5h2v1h-2V24.5z"/>
	<path fill="#030303" d="M11.5,24.5h1v1h-1V24.5z"/>
	<path fill="#030303" d="M4.5,25.5h2v1h-2V25.5z"/>
	<path fill="#030303" d="M9.5,25.5h2v1h-2V25.5z"/>
	<path fill="#030303" d="M16.5,10.5h-1v-1h1V10.5z"/>
</g>
</svg>
