<?xml version="1.0" encoding="utf-8"?>
<!-- Generator: Adobe Illustrator 16.0.4, SVG Export Plug-In . SVG Version: 6.00 Build 0)  -->
<!DOCTYPE svg PUBLIC "-//W3C//DTD SVG 1.1//EN" "http://www.w3.org/Graphics/SVG/1.1/DTD/svg11.dtd">
<svg version="1.1" id="Layer_1" xmlns="http://www.w3.org/2000/svg" xmlns:xlink="http://www.w3.org/1999/xlink" x="0px" y="0px"
	 width="92px" height="116px" viewBox="0 0 92 116" enable-background="new 0 0 92 116" xml:space="preserve">
<path fill="#404048" d="M9,2h5v1H9V2z"/>
<path fill="#404048" d="M7,3h2v1H7V3z"/>
<path fill="#B89058" d="M9,3h1v1H9V3z"/>
<path fill="#785850" d="M10,3h3v1h3v1h1v2h1v2h-1v1h1v2h-1v-1h-2v-1h-1V9h-1v1h-1v1h-2v1H8v-1H6v1H5v-2h1V9H5V7h1V5h1v2h1v1h2V7H9V4
	h1V3z"/>
<path fill="#B89058" d="M13,3h1v1h-1V3z"/>
<path fill="#404048" d="M14,3h2v1h-2V3z"/>
<path fill="#404048" d="M6,4h1v1H6V4z"/>
<path fill="#785850" d="M7,4h1v1H7V4z"/>
<path fill="#B89058" d="M8,4h1v3h1v1H8V7H7V5h1V4z"/>
<path fill="#404048" d="M11,4h1v1h1v1h-1v1h-1V6h-1V5h1V4z"/>
<path fill="#404048" d="M16,4h1v1h-1V4z"/>
<path fill="#030303" d="M5,5h1v1H5V5z"/>
<path fill="#B89058" d="M14,5h1v2h-1V5z"/>
<path fill="#030303" d="M17,5h1v1h-1V5z"/>
<path fill="#404048" d="M5,6h1v1H5V6z"/>
<path fill="#404048" d="M17,6h1v1h-1V6z"/>
<path fill="#030303" d="M4,7h1v2H4V7z"/>
<path fill="#B89058" d="M13,7h1v1h-1V7z"/>
<path fill="#030303" d="M18,7h1v2h-1V7z"/>
<path fill="#B89058" d="M10,8h2v1h-2V8z"/>
<path fill="#030303" d="M3,9h1v1H3V9z"/>
<path fill="#785850" d="M4,9h1v1H4V9z"/>
<path fill="#404048" d="M5,9h1v1H5V9z"/>
<path fill="#404048" d="M13,9h1v1h-1V9z"/>
<path fill="#404048" d="M17,9h1v1h-1V9z"/>
<path fill="#785850" d="M18,9h1v1h-1V9z"/>
<path fill="#030303" d="M19,9h1v1h-1V9z"/>
<path fill="#404048" d="M3,10h2v1H3V10z"/>
<path fill="#404048" d="M8,10h1v1H8V10z"/>
<path fill="#404048" d="M12,10h1v1h-1V10z"/>
<path fill="#D89870" d="M13,10h1v1h-1V10z"/>
<path fill="#404048" d="M14,10h1v1h-1V10z"/>
<path fill="#404048" d="M18,10h2v1h-2V10z"/>
<path fill="#030303" d="M3,11h1v2H3V11z"/>
<path fill="#D89870" d="M4,11h1v1H4V11z"/>
<path fill="#404048" d="M6,11h2v1h1v1H8v1H7v3H5v1H4v-2h1v-3H4v-1h2V11z"/>
<path fill="#404048" d="M10,11h2v1h-2V11z"/>
<path fill="#F8D0B8" d="M12,11h3v1h-1v1h-1v2h2v1h-1v1h-2v-1h-1v1H9v-1H8v-1h2v-2H9v-1h3V11z"/>
<path fill="#404048" d="M15,11h2v1h2v1h-1v3h1v2h-1v-1h-2v-3h-1v-1h1v-1h-1V11z"/>
<path fill="#D89870" d="M18,11h1v1h-1V11z"/>
<path fill="#030303" d="M19,11h1v2h-1V11z"/>
<path fill="#785850" d="M14,12h1v1h-1V12z"/>
<path fill="#D89870" d="M15,12h1v1h-1V12z"/>
<path fill="#030303" d="M4,13h1v3H4V13z"/>
<path fill="#A8A0C8" d="M8,13h1v1H8V13z"/>
<path fill="#404048" d="M9,13h1v1H9V13z"/>
<path fill="#404048" d="M13,13h1v1h-1V13z"/>
<path fill="#A8A0C8" d="M14,13h1v1h-1V13z"/>
<path fill="#030303" d="M18,13h1v3h-1V13z"/>
<path fill="#D89870" d="M7,14h1v2H7V14z"/>
<path fill="#E8E8F8" d="M8,14h1v1H8V14z"/>
<path fill="#030303" d="M9,14h1v1H9V14z"/>
<path fill="#030303" d="M13,14h1v1h-1V14z"/>
<path fill="#E8E8F8" d="M14,14h1v1h-1V14z"/>
<path fill="#D89870" d="M15,14h1v2h-1V14z"/>
<path fill="#030303" d="M3,16h1v2H3V16z"/>
<path fill="#784040" d="M7,16h1v1H7V16z"/>
<path fill="#D89870" d="M8,16h1v1H8V16z"/>
<path fill="#D89870" d="M11,16h1v1h1v1h-3v-1h1V16z"/>
<path fill="#D89870" d="M14,16h1v1h-1V16z"/>
<path fill="#784040" d="M15,16h1v1h-1V16z"/>
<path fill="#030303" d="M19,16h1v2h-1V16z"/>
<path fill="#030303" d="M5,17h1v1H5V17z"/>
<path fill="#784040" d="M6,17h1v1H6V17z"/>
<path fill="#D89870" d="M7,17h1v2H7v1H5v-2h2V17z"/>
<path fill="#030303" d="M8,17h1v1H8V17z"/>
<path fill="#784040" d="M9,17h1v1H9V17z"/>
<path fill="#784040" d="M13,17h1v1h-1V17z"/>
<path fill="#030303" d="M14,17h1v1h-1V17z"/>
<path fill="#D89870" d="M15,17h1v1h2v2h-2v-1h-1V17z"/>
<path fill="#784040" d="M16,17h1v1h-1V17z"/>
<path fill="#030303" d="M17,17h1v1h-1V17z"/>
<path fill="#030303" d="M4,18h1v1H4V18z"/>
<path fill="#606080" d="M8,18h1v1h1v1h3v-1h1v-1h1v2h-1v1H9v-1H8V18z"/>
<path fill="#B0B0C8" d="M9,18h5v1H9V18z"/>
<path fill="#030303" d="M18,18h1v1h-1V18z"/>
<path fill="#784040" d="M3,19h1v2H3V19z"/>
<path fill="#F8D0B8" d="M4,19h1v1h1v1H4V19z"/>
<path fill="#030303" d="M7,19h1v2H7V19z"/>
<path fill="#E8E8F8" d="M10,19h3v1h-3V19z"/>
<path fill="#030303" d="M15,19h1v2h-1V19z"/>
<path fill="#F8D0B8" d="M18,19h1v2h-2v-1h1V19z"/>
<path fill="#784040" d="M19,19h1v2h-1V19z"/>
<path fill="#784040" d="M6,20h1v1H6V20z"/>
<path fill="#B0B0C8" d="M8,20h1v3H8v-1H7v-1h1V20z"/>
<path fill="#B0B0C8" d="M14,20h1v1h1v1h-1v1h-1V20z"/>
<path fill="#784040" d="M16,20h1v1h-1V20z"/>
<path fill="#784040" d="M4,21h2v1H4V21z"/>
<path fill="#030303" d="M6,21h1v3H6V21z"/>
<path fill="#E8E8F8" d="M9,21h5v2h-1v1h-3v-1H9V21z"/>
<path fill="#030303" d="M16,21h1v3h-1V21z"/>
<path fill="#784040" d="M17,21h2v1h-2V21z"/>
<path fill="#986090" d="M7,22h1v1H7V22z"/>
<path fill="#986090" d="M15,22h1v1h-1V22z"/>
<path fill="#D89870" d="M7,23h1v1H7V23z"/>
<path fill="#986090" d="M8,23h1v1H8V23z"/>
<path fill="#B0B0C8" d="M9,23h1v1H9V23z"/>
<path fill="#B0B0C8" d="M13,23h1v1h-1V23z"/>
<path fill="#986090" d="M14,23h1v1h-1V23z"/>
<path fill="#D89870" d="M15,23h1v1h-1V23z"/>
<path fill="#030303" d="M7,24h1v1H7V24z"/>
<path fill="#585080" d="M8,24h2v1H8V24z"/>
<path fill="#030303" d="M10,24h3v1h-3V24z"/>
<path fill="#585080" d="M13,24h2v1h-2V24z"/>
<path fill="#030303" d="M15,24h1v1h-1V24z"/>
<path fill="#030303" d="M8,25h2v1H8V25z"/>
<path fill="#030303" d="M13,25h2v1h-2V25z"/>
<path fill="#404048" d="M10,31h4v1h-4V31z"/>
<path fill="#404048" d="M8,32h2v1H8V32z"/>
<path fill="#785850" d="M10,32h4v1h2v1h1v1h1v2h1v4h-1v-3h-1v-1h-1v2h-1v1h-1v1h-1v1h-2v3h-1v-2H9v-1H8v-2h1v-2h2v1h2v-1h1v-1h-2v-1
	h-2v-1H9v-1H8v-1h2V32z"/>
<path fill="#404048" d="M14,32h2v1h-2V32z"/>
<path fill="#404048" d="M7,33h1v1H7V33z"/>
<path fill="#030303" d="M16,33h1v1h-1V33z"/>
<path fill="#404048" d="M6,34h1v1H6V34z"/>
<path fill="#785850" d="M7,34h1v1H7V34z"/>
<path fill="#B89058" d="M8,34h1v1H8V34z"/>
<path fill="#030303" d="M17,34h1v1h-1V34z"/>
<path fill="#030303" d="M5,35h1v2H5V35z"/>
<path fill="#785850" d="M6,35h1v1h1v1h1v1H8v2H7v1H6v-2H5v-2h1V35z"/>
<path fill="#B89058" d="M7,35h1v1H7V35z"/>
<path fill="#785850" d="M8,35h1v1H8V35z"/>
<path fill="#B89058" d="M9,35h1v1h2v1h2v1h-1v1h-2v-1H9v-1H8v-1h1V35z"/>
<path fill="#030303" d="M18,35h1v2h-1V35z"/>
<path fill="#B89058" d="M14,36h1v1h-1V36z"/>
<path fill="#030303" d="M4,37h1v6H4V37z"/>
<path fill="#404048" d="M16,37h1v1h1v2h-1v-1h-1V37z"/>
<path fill="#030303" d="M19,37h1v4h-1V37z"/>
<path fill="#404048" d="M8,38h1v2H8V38z"/>
<path fill="#404048" d="M5,39h1v2h1v-1h1v2h1v1h1v2h1v2h-1v1H9v1H8v-2H7v-1H6v-3H5V39z"/>
<path fill="#404048" d="M15,39h1v1h-1V39z"/>
<path fill="#F8D0B8" d="M16,39h1v2h1v4h-1v1h-2v-2h2v-2h-1v-1h-1v-1h1V39z"/>
<path fill="#404048" d="M10,40h1v1h-1V40z"/>
<path fill="#404048" d="M14,40h1v1h-1V40z"/>
<path fill="#D89870" d="M17,40h1v1h-1V40z"/>
<path fill="#404048" d="M9,41h1v1H9V41z"/>
<path fill="#404048" d="M13,41h1v1h-1V41z"/>
<path fill="#F8D0B8" d="M14,41h1v2h-1V41z"/>
<path fill="#785850" d="M15,41h1v1h-1V41z"/>
<path fill="#303050" d="M18,41h1v1h-1V41z"/>
<path fill="#404048" d="M11,42h2v1h-2V42z"/>
<path fill="#785850" d="M13,42h1v2h1v1h-2V42z"/>
<path fill="#A8A0C8" d="M15,42h1v1h-1V42z"/>
<path fill="#404048" d="M16,42h1v1h-1V42z"/>
<path fill="#784040" d="M18,42h1v2h-1V42z"/>
<path fill="#030303" d="M5,43h1v3H5V43z"/>
<path fill="#D89870" d="M11,43h2v2h2v1h-1v1h-1v-1h-1v-1h-1V43z"/>
<path fill="#D89870" d="M14,43h1v1h-1V43z"/>
<path fill="#E8E8F8" d="M15,43h1v1h-1V43z"/>
<path fill="#030303" d="M16,43h1v1h-1V43z"/>
<path fill="#D89870" d="M18,44h1v1h-1V44z"/>
<path fill="#784040" d="M11,45h1v1h-1V45z"/>
<path fill="#784040" d="M17,45h1v1h-1V45z"/>
<path fill="#030303" d="M6,46h1v1H6V46z"/>
<path fill="#030303" d="M11,46h1v1h-1V46z"/>
<path fill="#303050" d="M12,46h1v1h-1V46z"/>
<path fill="#784040" d="M14,46h3v1h-3V46z"/>
<path fill="#030303" d="M7,47h1v2H7V47z"/>
<path fill="#030303" d="M10,47h1v1h-1V47z"/>
<path fill="#784040" d="M11,47h2v1h-2V47z"/>
<path fill="#B0B0C8" d="M13,47h2v1h-2V47z"/>
<path fill="#030303" d="M15,47h1v1h-1V47z"/>
<path fill="#030303" d="M9,48h1v2H9V48z"/>
<path fill="#606080" d="M10,48h1v1h-1V48z"/>
<path fill="#F8D0B8" d="M11,48h2v2h1v1h-2v-1h-1V48z"/>
<path fill="#784040" d="M13,48h1v2h-1V48z"/>
<path fill="#E8E8F8" d="M14,48h1v1h1v1h-2V48z"/>
<path fill="#B0B0C8" d="M15,48h1v1h-1V48z"/>
<path fill="#383038" d="M10,49h1v2h-1V49z"/>
<path fill="#383038" d="M16,49h1v2h-1V49z"/>
<path fill="#030303" d="M8,50h1v2H8V50z"/>
<path fill="#B0B0C8" d="M9,50h1v1H9V50z"/>
<path fill="#030303" d="M11,50h1v2h-1V50z"/>
<path fill="#784040" d="M14,50h1v2h-1V50z"/>
<path fill="#606080" d="M15,50h1v1h-1V50z"/>
<path fill="#986090" d="M9,51h1v1H9V51z"/>
<path fill="#B0B0C8" d="M10,51h1v1h-1V51z"/>
<path fill="#D89870" d="M12,51h2v1h-2V51z"/>
<path fill="#E8E8F8" d="M15,51h1v1h-1V51z"/>
<path fill="#030303" d="M9,52h1v1H9V52z"/>
<path fill="#986090" d="M10,52h1v1h-1V52z"/>
<path fill="#B0B0C8" d="M11,52h1v1h-1V52z"/>
<path fill="#030303" d="M12,52h2v1h-2V52z"/>
<path fill="#E8E8F8" d="M14,52h1v1h-1V52z"/>
<path fill="#030303" d="M15,52h1v1h-1V52z"/>
<path fill="#030303" d="M10,53h1v1h-1V53z"/>
<path fill="#585080" d="M11,53h3v1h-3V53z"/>
<path fill="#030303" d="M14,53h1v1h-1V53z"/>
<path fill="#030303" d="M11,54h3v1h-3V54z"/>
<path fill="#404149" d="M9,60h1v1H9V60z"/>
<path fill="#404048" d="M10,60h4v1h-4V60z"/>
<path fill="#404048" d="M7,61h2v1H7V61z"/>
<path fill="#B99058" d="M9,61h1v1H9V61z"/>
<path fill="#785850" d="M10,61h2v1h-1v1h-1V61z"/>
<path fill="#785750" d="M12,61h1v1h-1V61z"/>
<path fill="#B89057" d="M13,61h1v1h-1V61z"/>
<path fill="#404048" d="M14,61h2v1h-2V61z"/>
<path fill="#404048" d="M6,62h1v1H6V62z"/>
<path fill="#785750" d="M7,62h1v1H7V62z"/>
<path fill="#B89057" d="M8,62h1v1H8V62z"/>
<path fill="#775750" d="M9,62h1v1H9V62z"/>
<path fill="#404048" d="M11,62h1v1h1v1h-1v1h-1V62z"/>
<path fill="#785850" d="M12,62h1v1h-1V62z"/>
<path fill="#785750" d="M13,62h3v1h-2v1h-1V62z"/>
<path fill="#404149" d="M16,62h1v1h-1V62z"/>
<path fill="#010101" d="M5,63h1v1H5V63z"/>
<path fill="#785750" d="M6,63h1v1H6V63z"/>
<path fill="#B89058" d="M7,63h2v1H7V63z"/>
<path fill="#785750" d="M9,63h1v2H9V63z"/>
<path fill="#404149" d="M10,63h1v1h-1V63z"/>
<path fill="#B89057" d="M14,63h1v2h-1V63z"/>
<path fill="#785851" d="M15,63h1v1h-1V63z"/>
<path fill="#785850" d="M16,63h1v1h-1V63z"/>
<path fill="#020202" d="M17,63h1v1h-1V63z"/>
<path fill="#404048" d="M5,64h1v1H5V64z"/>
<path fill="#785850" d="M6,64h1v1H6V64z"/>
<path fill="#B99058" d="M7,64h2v1h1v1H8v-1H7V64z"/>
<path fill="#785850" d="M10,64h1v2h-1V64z"/>
<path fill="#785750" d="M12,64h1v3h1v1h-1v4h-1v-1h-1v-1H9v1H8v-1H6v-1H4v-1h2v-1h1v2h2v-1h1v-1h1v2h1v-3h-1v-1h1V64z"/>
<path fill="#785851" d="M13,64h1v1h-1V64z"/>
<path fill="#785750" d="M15,64h2v2h-1v-1h-1V64z"/>
<path fill="#404149" d="M17,64h1v1h-1V64z"/>
<path fill="#010101" d="M4,65h1v2H4V65z"/>
<path fill="#785750" d="M5,65h3v2H7v-1H6v1H5V65z"/>
<path fill="#B99058" d="M13,65h1v1h-1V65z"/>
<path fill="#785750" d="M14,65h1v2h-1V65z"/>
<path fill="#785850" d="M15,65h1v3h-2v-1h1V65z"/>
<path fill="#785850" d="M17,65h1v1h-1V65z"/>
<path fill="#020202" d="M18,65h1v1h-1V65z"/>
<path fill="#785851" d="M6,66h1v1H6V66z"/>
<path fill="#785850" d="M8,66h2v1H9v2H7v-1h1V66z"/>
<path fill="#B89058" d="M10,66h1v1h-1V66z"/>
<path fill="#B89057" d="M11,66h1v1h-1V66z"/>
<path fill="#785850" d="M13,66h1v1h-1V66z"/>
<path fill="#785851" d="M16,66h2v1h-2V66z"/>
<path fill="#010101" d="M18,66h1v1h-1V66z"/>
<path fill="#020202" d="M3,67h1v4H3V67z"/>
<path fill="#785850" d="M4,67h1v1H4V67z"/>
<path fill="#785851" d="M5,67h1v1H5V67z"/>
<path fill="#775750" d="M7,67h1v1H7V67z"/>
<path fill="#785851" d="M9,67h1v1H9V67z"/>
<path fill="#775750" d="M11,67h1v1h-1V67z"/>
<path fill="#785750" d="M16,67h2v1h-2V67z"/>
<path fill="#785851" d="M18,67h1v1h-1V67z"/>
<path fill="#010101" d="M19,67h1v3h-1V67z"/>
<path fill="#785850" d="M11,68h1v1h-1V68z"/>
<path fill="#785850" d="M13,68h1v3h-1V68z"/>
<path fill="#785750" d="M14,68h2v2h-1v1h-1V68z"/>
<path fill="#785850" d="M16,68h1v1h-1V68z"/>
<path fill="#785851" d="M17,68h1v1h-1V68z"/>
<path fill="#785750" d="M18,68h1v1h-1V68z"/>
<path fill="#404048" d="M4,69h1v1H4V69z"/>
<path fill="#785851" d="M5,69h1v1H5V69z"/>
<path fill="#775750" d="M16,69h2v1h-2V69z"/>
<path fill="#404148" d="M18,69h1v1h-1V69z"/>
<path fill="#D89870" d="M4,70h1v1H4V70z"/>
<path fill="#404148" d="M5,70h1v1H5V70z"/>
<path fill="#404048" d="M6,70h1v2h1v-1h1v2H6V70z"/>
<path fill="#785851" d="M7,70h1v1H7V70z"/>
<path fill="#775750" d="M9,70h1v2H9V70z"/>
<path fill="#785850" d="M10,70h1v1h-1V70z"/>
<path fill="#785851" d="M15,70h1v1h-1V70z"/>
<path fill="#404048" d="M16,70h2v1h-1v2h-7v-1h4v-1h1v1h1V70z"/>
<path fill="#D89870" d="M18,70h1v1h-1V70z"/>
<path fill="#020202" d="M19,70h1v1h-1V70z"/>
<path fill="#010101" d="M4,71h1v1H4V71z"/>
<path fill="#404149" d="M5,71h1v2h3v-1h1v1h7v-2h1v3h-3v1h-1v-1h-3v1h-1v-1H5V71z"/>
<path fill="#404149" d="M7,71h1v1H7V71z"/>
<path fill="#785750" d="M10,71h1v1h-1V71z"/>
<path fill="#785851" d="M11,71h1v1h-1V71z"/>
<path fill="#785851" d="M13,71h1v1h-1V71z"/>
<path fill="#404149" d="M15,71h1v1h-1V71z"/>
<path fill="#010101" d="M18,71h1v3h-1V71z"/>
<path fill="#020202" d="M4,72h1v1H4V72z"/>
<path fill="#010101" d="M4,73h1v1H4V73z"/>
<path fill="#020202" d="M3,74h1v1H3V74z"/>
<path fill="#404048" d="M4,74h6v1h1v-1h3v1h1v-1h4v1h-2v1h-4v1h1v1h-3v-2H9v-1H8v1H6v-1H4V74z"/>
<path fill="#010101" d="M19,74h1v2h-1V74z"/>
<path fill="#010101" d="M3,75h1v1H3V75z"/>
<path fill="#404149" d="M4,75h1v1H4V75z"/>
<path fill="#010101" d="M5,75h1v1H5V75z"/>
<path fill="#404149" d="M8,75h1v1H8V75z"/>
<path fill="#010101" d="M17,75h1v1h-1V75z"/>
<path fill="#404149" d="M18,75h1v1h-1V75z"/>
<path fill="#010101" d="M4,76h1v1H4V76z"/>
<path fill="#D89870" d="M5,76h1v1h1v1H5V76z"/>
<path fill="#783F3F" d="M6,76h1v1H6V76z"/>
<path fill="#404149" d="M7,76h1v1H7V76z"/>
<path fill="#404048" d="M8,76h1v1H8V76z"/>
<path fill="#404149" d="M9,76h2v2h-1v-1H9V76z"/>
<path fill="#414149" d="M13,76h1v1h-1V76z"/>
<path fill="#404149" d="M14,76h2v1h-2V76z"/>
<path fill="#794040" d="M16,76h1v1h-1V76z"/>
<path fill="#D89870" d="M17,76h1v2h-1V76z"/>
<path fill="#010101" d="M18,76h1v1h-1V76z"/>
<path fill="#783F3F" d="M3,77h1v1H3V77z"/>
<path fill="#F8D0B8" d="M4,77h1v1H4V77z"/>
<path fill="#010101" d="M7,77h1v2H7V77z"/>
<path fill="#020202" d="M8,77h1v1H8V77z"/>
<path fill="#404048" d="M9,77h1v1H9V77z"/>
<path fill="#020202" d="M14,77h2v2h-1v-1h-1V77z"/>
<path fill="#D79770" d="M16,77h1v1h-1V77z"/>
<path fill="#F8D0B8" d="M18,77h1v2h-2v-1h1V77z"/>
<path fill="#783F40" d="M19,77h1v1h-1V77z"/>
<path fill="#783F40" d="M3,78h1v1H3V78z"/>
<path fill="#F8D0B9" d="M4,78h1v1H4V78z"/>
<path fill="#F8D0B8" d="M5,78h1v1H5V78z"/>
<path fill="#794040" d="M6,78h1v1H6V78z"/>
<path fill="#AFAFC8" d="M8,78h1v1H8V78z"/>
<path fill="#010101" d="M9,78h5v1H9V78z"/>
<path fill="#B0B0C8" d="M14,78h1v1h1v1h-2V78z"/>
<path fill="#784040" d="M16,78h1v1h-1V78z"/>
<path fill="#783F3F" d="M19,78h1v1h-1V78z"/>
<path fill="#783F40" d="M4,79h2v1H4V79z"/>
<path fill="#010101" d="M6,79h1v3H6V79z"/>
<path fill="#AFAFC8" d="M7,79h1v1H7V79z"/>
<path fill="#B0B0C8" d="M8,79h4v1H9v1H8V79z"/>
<path fill="#AFAFC8" d="M12,79h2v1h-2V79z"/>
<path fill="#020202" d="M16,79h1v1h-1V79z"/>
<path fill="#784040" d="M17,79h1v1h-1V79z"/>
<path fill="#783F40" d="M18,79h1v1h-1V79z"/>
<path fill="#98608F" d="M7,80h1v1H7V80z"/>
<path fill="#E8E8F8" d="M9,80h2v1h2v1h-3v-1H9V80z"/>
<path fill="#E8E9F8" d="M11,80h2v1h-2V80z"/>
<path fill="#E8E8F8" d="M13,80h1v1h-1V80z"/>
<path fill="#AFAFC8" d="M14,80h1v1h-1V80z"/>
<path fill="#98608F" d="M15,80h1v1h-1V80z"/>
<path fill="#010101" d="M16,80h1v1h-1V80z"/>
<path fill="#D79770" d="M7,81h1v1H7V81z"/>
<path fill="#98608F" d="M8,81h1v1H8V81z"/>
<path fill="#AFAFC8" d="M9,81h1v1H9V81z"/>
<path fill="#B0B0C8" d="M13,81h1v1h-1V81z"/>
<path fill="#986090" d="M14,81h1v1h-1V81z"/>
<path fill="#D7976F" d="M15,81h1v1h-1V81z"/>
<path fill="#020202" d="M16,81h1v1h-1V81z"/>
<path fill="#010101" d="M7,82h1v1H7V82z"/>
<path fill="#595181" d="M8,82h1v1H8V82z"/>
<path fill="#585080" d="M9,82h1v1H9V82z"/>
<path fill="#010101" d="M10,82h2v1h-2V82z"/>
<path fill="#020202" d="M12,82h1v1h-1V82z"/>
<path fill="#595181" d="M13,82h1v1h-1V82z"/>
<path fill="#585180" d="M14,82h1v1h-1V82z"/>
<path fill="#010101" d="M15,82h1v1h-1V82z"/>
<path fill="#010101" d="M8,83h1v1H8V83z"/>
<path fill="#020202" d="M9,83h1v1H9V83z"/>
<path fill="#020202" d="M13,83h1v1h-1V83z"/>
<path fill="#010101" d="M14,83h1v1h-1V83z"/>
<path fill="#404048" d="M10,89h4v1h-4V89z"/>
<path fill="#404048" d="M8,90h2v1H8V90z"/>
<path fill="#785850" d="M10,90h4v1h2v1h-1v1h-1v1h-2v1h-2v-1H9v1h1v1h1v1h2v-1h2v2h1v2h-1v-1h-1v-1h-1v1h1v1h1v1h-1v2h-1v-3h-2v-1
	h-1v-1H9v-1H8v-2H7v1H6v3H5v-4h1v-2h1v-1h1v-1h2V90z"/>
<path fill="#404048" d="M14,90h2v1h-2V90z"/>
<path fill="#040404" d="M7,91h1v1H7V91z"/>
<path fill="#404048" d="M16,91h1v1h-1V91z"/>
<path fill="#040404" d="M6,92h1v1H6V92z"/>
<path fill="#B89058" d="M15,92h1v1h-1V92z"/>
<path fill="#785850" d="M16,92h1v1h-1V92z"/>
<path fill="#404048" d="M17,92h1v1h-1V92z"/>
<path fill="#040404" d="M5,93h1v2H5V93z"/>
<path fill="#B89058" d="M14,93h1v1h1v1h-1v1h-2v1h-2v-1h-1v-1h2v-1h2V93z"/>
<path fill="#785850" d="M15,93h1v1h-1V93z"/>
<path fill="#B89058" d="M16,93h1v1h-1V93z"/>
<path fill="#785850" d="M17,93h1v2h1v2h-1v2h-1v-1h-1v-2h-1v-1h1v-1h1V93z"/>
<path fill="#040404" d="M18,93h1v2h-1V93z"/>
<path fill="#B89058" d="M9,94h1v1H9V94z"/>
<path fill="#040404" d="M4,95h1v4H4V95z"/>
<path fill="#404048" d="M7,95h1v2H7v1H6v-2h1V95z"/>
<path fill="#040404" d="M19,95h1v6h-1V95z"/>
<path fill="#404048" d="M15,96h1v2h-1V96z"/>
<path fill="#F8D0B8" d="M7,97h1v1h1v1H8v1H7v2h2v2H7v-1H6v-4h1V97z"/>
<path fill="#404048" d="M8,97h1v1H8V97z"/>
<path fill="#404048" d="M18,97h1v4h-1v3h-1v1h-1v2h-1v-1h-1v-1h-1v-2h1v-2h1v-1h1v-2h1v1h1V97z"/>
<path fill="#D89870" d="M6,98h1v1H6V98z"/>
<path fill="#404048" d="M9,98h1v1H9V98z"/>
<path fill="#404048" d="M13,98h1v1h-1V98z"/>
<path fill="#303050" d="M5,99h1v1H5V99z"/>
<path fill="#785850" d="M8,99h1v1H8V99z"/>
<path fill="#F8D0B8" d="M9,99h1v2H9V99z"/>
<path fill="#404048" d="M10,99h1v1h-1V99z"/>
<path fill="#404048" d="M14,99h1v1h-1V99z"/>
<path fill="#784040" d="M5,100h1v2H5V100z"/>
<path fill="#404048" d="M7,100h1v1H7V100z"/>
<path fill="#A8A0C8" d="M8,100h1v1H8V100z"/>
<path fill="#785850" d="M10,100h1v3H9v-1h1V100z"/>
<path fill="#404048" d="M11,100h2v1h-2V100z"/>
<path fill="#040404" d="M7,101h1v1H7V101z"/>
<path fill="#E8E8F8" d="M8,101h1v1H8V101z"/>
<path fill="#D89870" d="M9,101h1v1H9V101z"/>
<path fill="#D89870" d="M11,101h2v2h-1v1h-1v1h-1v-1H9v-1h2V101z"/>
<path fill="#040404" d="M18,101h1v3h-1V101z"/>
<path fill="#D89870" d="M5,102h1v1H5V102z"/>
<path fill="#784040" d="M6,103h1v1H6V103z"/>
<path fill="#784040" d="M12,103h1v1h-1V103z"/>
<path fill="#784040" d="M7,104h3v1H7V104z"/>
<path fill="#303050" d="M11,104h1v1h-1V104z"/>
<path fill="#040404" d="M12,104h1v1h-1V104z"/>
<path fill="#040404" d="M17,104h1v1h-1V104z"/>
<path fill="#040404" d="M8,105h1v1H8V105z"/>
<path fill="#B0B0C8" d="M9,105h2v1H9V105z"/>
<path fill="#784040" d="M11,105h2v1h-2V105z"/>
<path fill="#040404" d="M13,105h1v1h-1V105z"/>
<path fill="#040404" d="M16,105h1v2h-1V105z"/>
<path fill="#B0B0C8" d="M8,106h1v1H8V106z"/>
<path fill="#E8E8F8" d="M9,106h1v2H8v-1h1V106z"/>
<path fill="#784040" d="M10,106h1v2h-1V106z"/>
<path fill="#F8D0B8" d="M11,106h2v2h-1v1h-2v-1h1V106z"/>
<path fill="#606080" d="M13,106h1v1h-1V106z"/>
<path fill="#040404" d="M14,106h1v2h-1V106z"/>
<path fill="#383038" d="M7,107h1v2H7V107z"/>
<path fill="#383038" d="M13,107h1v2h-1V107z"/>
<path fill="#606080" d="M8,108h1v1H8V108z"/>
<path fill="#784040" d="M9,108h1v2H9V108z"/>
<path fill="#040404" d="M12,108h1v2h-1V108z"/>
<path fill="#B0B0C8" d="M14,108h1v1h-1V108z"/>
<path fill="#040404" d="M15,108h1v2h-1V108z"/>
<path fill="#E8E8F8" d="M8,109h1v1H8V109z"/>
<path fill="#D89870" d="M10,109h2v1h-2V109z"/>
<path fill="#B0B0C8" d="M13,109h1v1h-1V109z"/>
<path fill="#986090" d="M14,109h1v1h-1V109z"/>
<path fill="#040404" d="M8,110h1v1H8V110z"/>
<path fill="#E8E8F8" d="M9,110h1v1H9V110z"/>
<path fill="#040404" d="M10,110h2v1h-2V110z"/>
<path fill="#B0B0C8" d="M12,110h1v1h-1V110z"/>
<path fill="#986090" d="M13,110h1v1h-1V110z"/>
<path fill="#040404" d="M14,110h1v1h-1V110z"/>
<path fill="#040404" d="M9,111h1v1H9V111z"/>
<path fill="#585080" d="M10,111h3v1h-3V111z"/>
<path fill="#040404" d="M13,111h1v1h-1V111z"/>
<path fill="#040404" d="M10,112h3v1h-3V112z"/>
</svg>
