<?xml version="1.0" encoding="utf-8"?>
<!-- Generator: Adobe Illustrator 16.0.4, SVG Export Plug-In . SVG Version: 6.00 Build 0)  -->
<!DOCTYPE svg PUBLIC "-//W3C//DTD SVG 1.1//EN" "http://www.w3.org/Graphics/SVG/1.1/DTD/svg11.dtd">
<svg version="1.1" id="Layer_1" xmlns="http://www.w3.org/2000/svg" xmlns:xlink="http://www.w3.org/1999/xlink" x="0px" y="0px"
	 width="92px" height="116px" viewBox="0 0 92 116" enable-background="new 0 0 92 116" xml:space="preserve">
<path fill="#373840" d="M9,2h5v1H9V2z"/>
<path fill="#373840" d="M32,2h5v1h-5V2z"/>
<path fill="#373840" d="M55,2h5v1h-5V2z"/>
<path fill="#373840" d="M78,2h5v1h-5V2z"/>
<path fill="#373840" d="M7,3h2v1H7V3z"/>
<path fill="#707688" d="M9,3h1v1H9V3z"/>
<path fill="#515060" d="M10,3h3v1h3v1h1v2h1v2h-1v1h1v2h-1v-1h-2v-1h-1V9h-1v1h-1v1h-2v1H8v-1H6v1H5v-2h1V9H5V7h1V5h1v2h1v1h2V7H9V4
	h1V3z"/>
<path fill="#707688" d="M13,3h1v1h-1V3z"/>
<path fill="#373840" d="M14,3h2v1h-2V3z"/>
<path fill="#373840" d="M30,3h2v1h-2V3z"/>
<path fill="#707688" d="M32,3h1v1h-1V3z"/>
<path fill="#515060" d="M33,3h3v1h3v1h1v2h1v2h-1v1h1v2h-1v-1h-2v-1h-1V9h-1v1h-1v1h-2v1h-2v-1h-2v1h-1v-2h1V9h-1V7h1V5h1v2h1v1h2V7
	h-1V4h1V3z"/>
<path fill="#707688" d="M36,3h1v1h-1V3z"/>
<path fill="#373840" d="M37,3h2v1h-2V3z"/>
<path fill="#373840" d="M53,3h2v1h-2V3z"/>
<path fill="#707688" d="M55,3h1v1h-1V3z"/>
<path fill="#515060" d="M56,3h3v1h3v1h1v2h1v2h-1v1h1v2h-1v-1h-2v-1h-1V9h-1v1h-1v1h-2v1h-2v-1h-2v1h-1v-2h1V9h-1V7h1V5h1v2h1v1h2V7
	h-1V4h1V3z"/>
<path fill="#707688" d="M59,3h1v1h-1V3z"/>
<path fill="#373840" d="M60,3h2v1h-2V3z"/>
<path fill="#373840" d="M76,3h2v1h-2V3z"/>
<path fill="#707688" d="M78,3h1v1h-1V3z"/>
<path fill="#515060" d="M79,3h3v1h3v1h1v2h1v2h-1v1h1v2h-1v-1h-2v-1h-1V9h-1v1h-1v1h-2v1h-2v-1h-2v1h-1v-2h1V9h-1V7h1V5h1v2h1v1h2V7
	h-1V4h1V3z"/>
<path fill="#707688" d="M82,3h1v1h-1V3z"/>
<path fill="#373840" d="M83,3h2v1h-2V3z"/>
<path fill="#373840" d="M6,4h1v1H6V4z"/>
<path fill="#515060" d="M7,4h1v1H7V4z"/>
<path fill="#707688" d="M8,4h1v3h1v1H8V7H7V5h1V4z"/>
<path fill="#373840" d="M11,4h1v1h1v1h-1v1h-1V6h-1V5h1V4z"/>
<path fill="#373840" d="M16,4h1v1h-1V4z"/>
<path fill="#373840" d="M29,4h1v1h-1V4z"/>
<path fill="#515060" d="M30,4h1v1h-1V4z"/>
<path fill="#707688" d="M31,4h1v3h1v1h-2V7h-1V5h1V4z"/>
<path fill="#373840" d="M34,4h1v1h1v1h-1v1h-1V6h-1V5h1V4z"/>
<path fill="#373840" d="M39,4h1v1h-1V4z"/>
<path fill="#373840" d="M52,4h1v1h-1V4z"/>
<path fill="#515060" d="M53,4h1v1h-1V4z"/>
<path fill="#707688" d="M54,4h1v3h1v1h-2V7h-1V5h1V4z"/>
<path fill="#373840" d="M57,4h1v1h1v1h-1v1h-1V6h-1V5h1V4z"/>
<path fill="#373840" d="M62,4h1v1h-1V4z"/>
<path fill="#373840" d="M75,4h1v1h-1V4z"/>
<path fill="#515060" d="M76,4h1v1h-1V4z"/>
<path fill="#707688" d="M77,4h1v3h1v1h-2V7h-1V5h1V4z"/>
<path fill="#373840" d="M80,4h1v1h1v1h-1v1h-1V6h-1V5h1V4z"/>
<path fill="#373840" d="M85,4h1v1h-1V4z"/>
<path fill="#010101" d="M5,5h1v1H5V5z"/>
<path fill="#707688" d="M14,5h1v2h-1V5z"/>
<path fill="#010101" d="M17,5h1v1h-1V5z"/>
<path fill="#010101" d="M28,5h1v1h-1V5z"/>
<path fill="#707688" d="M37,5h1v2h-1V5z"/>
<path fill="#010101" d="M40,5h1v1h-1V5z"/>
<path fill="#010101" d="M51,5h1v1h-1V5z"/>
<path fill="#707688" d="M60,5h1v2h-1V5z"/>
<path fill="#010101" d="M63,5h1v1h-1V5z"/>
<path fill="#010101" d="M74,5h1v1h-1V5z"/>
<path fill="#707688" d="M83,5h1v2h-1V5z"/>
<path fill="#010101" d="M86,5h1v1h-1V5z"/>
<path fill="#373840" d="M5,6h1v1H5V6z"/>
<path fill="#373840" d="M17,6h1v1h-1V6z"/>
<path fill="#373840" d="M28,6h1v1h-1V6z"/>
<path fill="#373840" d="M40,6h1v1h-1V6z"/>
<path fill="#373840" d="M51,6h1v1h-1V6z"/>
<path fill="#373840" d="M63,6h1v1h-1V6z"/>
<path fill="#373840" d="M74,6h1v1h-1V6z"/>
<path fill="#373840" d="M86,6h1v1h-1V6z"/>
<path fill="#010101" d="M4,7h1v2H4V7z"/>
<path fill="#707688" d="M13,7h1v1h-1V7z"/>
<path fill="#010101" d="M18,7h1v2h-1V7z"/>
<path fill="#010101" d="M27,7h1v2h-1V7z"/>
<path fill="#707688" d="M36,7h1v1h-1V7z"/>
<path fill="#010101" d="M41,7h1v2h-1V7z"/>
<path fill="#010101" d="M50,7h1v2h-1V7z"/>
<path fill="#707688" d="M59,7h1v1h-1V7z"/>
<path fill="#010101" d="M64,7h1v2h-1V7z"/>
<path fill="#010101" d="M73,7h1v2h-1V7z"/>
<path fill="#707688" d="M82,7h1v1h-1V7z"/>
<path fill="#010101" d="M87,7h1v2h-1V7z"/>
<path fill="#707688" d="M10,8h2v1h-2V8z"/>
<path fill="#707688" d="M33,8h2v1h-2V8z"/>
<path fill="#707688" d="M56,8h2v1h-2V8z"/>
<path fill="#707688" d="M79,8h2v1h-2V8z"/>
<path fill="#010101" d="M3,9h1v1H3V9z"/>
<path fill="#515060" d="M4,9h1v1H4V9z"/>
<path fill="#373840" d="M5,9h1v1H5V9z"/>
<path fill="#373840" d="M13,9h1v1h-1V9z"/>
<path fill="#373840" d="M17,9h1v1h-1V9z"/>
<path fill="#515060" d="M18,9h1v1h-1V9z"/>
<path fill="#010101" d="M19,9h1v1h-1V9z"/>
<path fill="#010101" d="M26,9h1v1h-1V9z"/>
<path fill="#515060" d="M27,9h1v1h-1V9z"/>
<path fill="#373840" d="M28,9h1v1h-1V9z"/>
<path fill="#373840" d="M36,9h1v1h-1V9z"/>
<path fill="#373840" d="M40,9h1v1h-1V9z"/>
<path fill="#515060" d="M41,9h1v1h-1V9z"/>
<path fill="#010101" d="M42,9h1v1h-1V9z"/>
<path fill="#010101" d="M49,9h1v1h-1V9z"/>
<path fill="#515060" d="M50,9h1v1h-1V9z"/>
<path fill="#373840" d="M51,9h1v1h-1V9z"/>
<path fill="#373840" d="M59,9h1v1h-1V9z"/>
<path fill="#373840" d="M63,9h1v1h-1V9z"/>
<path fill="#515060" d="M64,9h1v1h-1V9z"/>
<path fill="#010101" d="M65,9h1v1h-1V9z"/>
<path fill="#010101" d="M72,9h1v1h-1V9z"/>
<path fill="#515060" d="M73,9h1v1h-1V9z"/>
<path fill="#373840" d="M74,9h1v1h-1V9z"/>
<path fill="#373840" d="M82,9h1v1h-1V9z"/>
<path fill="#373840" d="M86,9h1v1h-1V9z"/>
<path fill="#515060" d="M87,9h1v1h-1V9z"/>
<path fill="#010101" d="M88,9h1v1h-1V9z"/>
<path fill="#373840" d="M3,10h2v1H3V10z"/>
<path fill="#373840" d="M8,10h1v1H8V10z"/>
<path fill="#373840" d="M12,10h1v1h-1V10z"/>
<path fill="#D89870" d="M13,10h1v1h-1V10z"/>
<path fill="#373840" d="M14,10h1v1h-1V10z"/>
<path fill="#373840" d="M18,10h2v1h-2V10z"/>
<path fill="#373840" d="M26,10h2v1h-2V10z"/>
<path fill="#373840" d="M31,10h1v1h-1V10z"/>
<path fill="#373840" d="M35,10h1v1h-1V10z"/>
<path fill="#D89870" d="M36,10h1v1h-1V10z"/>
<path fill="#373840" d="M37,10h1v1h-1V10z"/>
<path fill="#373840" d="M41,10h2v1h-2V10z"/>
<path fill="#373840" d="M49,10h2v1h-2V10z"/>
<path fill="#373840" d="M54,10h1v1h-1V10z"/>
<path fill="#373840" d="M58,10h1v1h-1V10z"/>
<path fill="#D79770" d="M59,10h1v1h-1V10z"/>
<path fill="#373840" d="M60,10h1v1h-1V10z"/>
<path fill="#373840" d="M64,10h2v1h-2V10z"/>
<path fill="#373840" d="M72,10h2v1h-2V10z"/>
<path fill="#373840" d="M77,10h1v1h-1V10z"/>
<path fill="#373840" d="M81,10h1v1h-1V10z"/>
<path fill="#D89870" d="M82,10h1v1h-1V10z"/>
<path fill="#373840" d="M83,10h1v1h-1V10z"/>
<path fill="#373840" d="M87,10h2v1h-2V10z"/>
<path fill="#010101" d="M3,11h1v2H3V11z"/>
<path fill="#D79770" d="M4,11h1v1H4V11z"/>
<path fill="#373840" d="M6,11h2v1h1v1H8v1H7v3H5v1H4v-2h1v-3H4v-1h2V11z"/>
<path fill="#373840" d="M10,11h2v1h-2V11z"/>
<path fill="#F8D0B8" d="M12,11h1v1h1v1h-1v2h-1v-1h-1v1h-1v-2h2V11z"/>
<path fill="#F8D0B9" d="M13,11h1v1h-1V11z"/>
<path fill="#F8D0B8" d="M14,11h1v1h-1V11z"/>
<path fill="#373840" d="M15,11h2v1h2v1h-1v3h1v2h-1v-1h-2v-3h-1v-1h1v-1h-1V11z"/>
<path fill="#D79770" d="M18,11h1v1h-1V11z"/>
<path fill="#010101" d="M19,11h1v2h-1V11z"/>
<path fill="#010101" d="M26,11h1v2h-1V11z"/>
<path fill="#D79770" d="M27,11h1v1h-1V11z"/>
<path fill="#373840" d="M29,11h2v1h1v1h-1v1h-1v3h-2v1h-1v-2h1v-3h-1v-1h2V11z"/>
<path fill="#373840" d="M33,11h2v1h-2V11z"/>
<path fill="#F8D0B8" d="M35,11h1v1h1v1h-1v2h-1v-1h-1v1h-1v-2h2V11z"/>
<path fill="#F8D0B9" d="M36,11h1v1h-1V11z"/>
<path fill="#F8D0B8" d="M37,11h1v1h-1V11z"/>
<path fill="#373840" d="M38,11h2v1h2v1h-1v3h1v2h-1v-1h-2v-3h-1v-1h1v-1h-1V11z"/>
<path fill="#D79770" d="M41,11h1v1h-1V11z"/>
<path fill="#010101" d="M42,11h1v2h-1V11z"/>
<path fill="#010101" d="M49,11h1v2h-1V11z"/>
<path fill="#D79770" d="M50,11h1v1h-1V11z"/>
<path fill="#373840" d="M52,11h2v1h1v1h-1v1h-1v3h-2v1h-1v-2h1v-3h-1v-1h2V11z"/>
<path fill="#373840" d="M56,11h2v1h-2V11z"/>
<path fill="#F8D0B8" d="M58,11h3v1h-1v1h-1v-1h-1V11z"/>
<path fill="#373840" d="M61,11h2v1h2v1h-1v3h1v2h-1v-1h-2v-3h-1v-1h1v-1h-1V11z"/>
<path fill="#D79770" d="M64,11h1v1h-1V11z"/>
<path fill="#010101" d="M65,11h1v2h-1V11z"/>
<path fill="#010101" d="M72,11h1v2h-1V11z"/>
<path fill="#D79770" d="M73,11h1v1h-1V11z"/>
<path fill="#373840" d="M75,11h2v1h1v1h-1v1h-1v3h-2v1h-1v-2h1v-3h-1v-1h2V11z"/>
<path fill="#373840" d="M79,11h2v1h-2V11z"/>
<path fill="#F8D0B8" d="M81,11h1v1h1v1h-1v2h-1v-1h-1v1h-1v-2h2V11z"/>
<path fill="#F8D0B9" d="M82,11h1v1h-1V11z"/>
<path fill="#F8D0B8" d="M83,11h1v1h-1V11z"/>
<path fill="#373840" d="M84,11h2v1h2v1h-1v3h1v2h-1v-1h-2v-3h-1v-1h1v-1h-1V11z"/>
<path fill="#D79770" d="M87,11h1v1h-1V11z"/>
<path fill="#010101" d="M88,11h1v2h-1V11z"/>
<path fill="#F8D0B9" d="M9,12h1v1H9V12z"/>
<path fill="#F7CFB8" d="M10,12h1v1h-1V12z"/>
<path fill="#F8D0B9" d="M11,12h1v1h-1V12z"/>
<path fill="#515060" d="M14,12h1v1h-1V12z"/>
<path fill="#D89870" d="M15,12h1v1h-1V12z"/>
<path fill="#F8D0B9" d="M32,12h1v1h-1V12z"/>
<path fill="#F7CFB8" d="M33,12h1v1h-1V12z"/>
<path fill="#F8D0B9" d="M34,12h1v1h-1V12z"/>
<path fill="#515060" d="M37,12h1v1h-1V12z"/>
<path fill="#D89870" d="M38,12h1v1h-1V12z"/>
<path fill="#F8D0B9" d="M55,12h1v1h-1V12z"/>
<path fill="#F8D0B8" d="M56,12h2v1h-2V12z"/>
<path fill="#F8D0B9" d="M58,12h1v1h-1V12z"/>
<path fill="#515060" d="M60,12h1v1h-1V12z"/>
<path fill="#D79770" d="M61,12h1v1h-1V12z"/>
<path fill="#F8D0B9" d="M78,12h1v1h-1V12z"/>
<path fill="#F7CFB8" d="M79,12h1v1h-1V12z"/>
<path fill="#F8D0B9" d="M80,12h1v1h-1V12z"/>
<path fill="#515060" d="M83,12h1v1h-1V12z"/>
<path fill="#D89870" d="M84,12h1v1h-1V12z"/>
<path fill="#010101" d="M4,13h1v3H4V13z"/>
<path fill="#A8A1C8" d="M8,13h1v1H8V13z"/>
<path fill="#404048" d="M9,13h1v1H9V13z"/>
<path fill="#404048" d="M13,13h1v1h-1V13z"/>
<path fill="#A8A0C8" d="M14,13h1v1h-1V13z"/>
<path fill="#010101" d="M18,13h1v3h-1V13z"/>
<path fill="#010101" d="M27,13h1v3h-1V13z"/>
<path fill="#A8A1C8" d="M31,13h1v1h-1V13z"/>
<path fill="#404048" d="M32,13h1v1h-1V13z"/>
<path fill="#404048" d="M36,13h1v1h-1V13z"/>
<path fill="#A8A0C8" d="M37,13h1v1h-1V13z"/>
<path fill="#010101" d="M41,13h1v3h-1V13z"/>
<path fill="#010101" d="M50,13h1v3h-1V13z"/>
<path fill="#A8A1C9" d="M54,13h1v1h-1V13z"/>
<path fill="#404149" d="M55,13h1v1h-1V13z"/>
<path fill="#F8D0B9" d="M56,13h1v3h-1V13z"/>
<path fill="#F7CFB8" d="M57,13h1v1h-1V13z"/>
<path fill="#F8CFB8" d="M58,13h1v1h-1V13z"/>
<path fill="#404149" d="M59,13h1v1h-1V13z"/>
<path fill="#A8A0C8" d="M60,13h1v1h-1V13z"/>
<path fill="#010101" d="M64,13h1v3h-1V13z"/>
<path fill="#010101" d="M73,13h1v3h-1V13z"/>
<path fill="#A8A1C8" d="M77,13h1v1h-1V13z"/>
<path fill="#404048" d="M78,13h1v1h-1V13z"/>
<path fill="#404048" d="M82,13h1v1h-1V13z"/>
<path fill="#A8A0C8" d="M83,13h1v1h-1V13z"/>
<path fill="#010101" d="M87,13h1v3h-1V13z"/>
<path fill="#D79770" d="M7,14h1v1H7V14z"/>
<path fill="#E7E8F7" d="M8,14h1v1H8V14z"/>
<path fill="#010101" d="M9,14h1v1H9V14z"/>
<path fill="#F8CFB8" d="M11,14h1v1h-1V14z"/>
<path fill="#010101" d="M13,14h1v1h-1V14z"/>
<path fill="#E8E8F8" d="M14,14h1v1h-1V14z"/>
<path fill="#D7976F" d="M15,14h1v1h-1V14z"/>
<path fill="#D79770" d="M30,14h1v1h-1V14z"/>
<path fill="#E7E8F7" d="M31,14h1v1h-1V14z"/>
<path fill="#010101" d="M32,14h1v1h-1V14z"/>
<path fill="#F8CFB8" d="M34,14h1v1h-1V14z"/>
<path fill="#010101" d="M36,14h1v1h-1V14z"/>
<path fill="#E8E8F8" d="M37,14h1v1h-1V14z"/>
<path fill="#D7976F" d="M38,14h1v1h-1V14z"/>
<path fill="#D89870" d="M53,14h1v1h-1V14z"/>
<path fill="#E8E8F8" d="M54,14h1v1h-1V14z"/>
<path fill="#010101" d="M55,14h1v1h-1V14z"/>
<path fill="#F8CFB8" d="M57,14h1v1h-1V14z"/>
<path fill="#F8D0B8" d="M58,14h1v1h-1V14z"/>
<path fill="#010101" d="M59,14h1v1h-1V14z"/>
<path fill="#E7E8F7" d="M60,14h1v1h-1V14z"/>
<path fill="#D89870" d="M61,14h1v2h-1V14z"/>
<path fill="#D79770" d="M76,14h1v1h-1V14z"/>
<path fill="#E7E8F7" d="M77,14h1v1h-1V14z"/>
<path fill="#010101" d="M78,14h1v1h-1V14z"/>
<path fill="#F8CFB8" d="M80,14h1v1h-1V14z"/>
<path fill="#010101" d="M82,14h1v1h-1V14z"/>
<path fill="#E8E8F8" d="M83,14h1v1h-1V14z"/>
<path fill="#D7976F" d="M84,14h1v1h-1V14z"/>
<path fill="#D89770" d="M7,15h1v1H7V15z"/>
<path fill="#F8D0B8" d="M8,15h1v1H8V15z"/>
<path fill="#F8D0B9" d="M9,15h1v2H9V15z"/>
<path fill="#F8CFB8" d="M10,15h1v1h-1V15z"/>
<path fill="#F7CFB8" d="M11,15h1v1h-1V15z"/>
<path fill="#F8D0B9" d="M12,15h2v1h-2V15z"/>
<path fill="#F8D0B8" d="M14,15h1v1h-1V15z"/>
<path fill="#D89870" d="M15,15h1v1h-1V15z"/>
<path fill="#D89770" d="M30,15h1v1h-1V15z"/>
<path fill="#F8D0B8" d="M31,15h1v1h-1V15z"/>
<path fill="#F8D0B9" d="M32,15h1v2h-1V15z"/>
<path fill="#F8CFB8" d="M33,15h1v1h-1V15z"/>
<path fill="#F7CFB8" d="M34,15h1v1h-1V15z"/>
<path fill="#F8D0B9" d="M35,15h2v1h-2V15z"/>
<path fill="#F8D0B8" d="M37,15h1v1h-1V15z"/>
<path fill="#D89870" d="M38,15h1v1h-1V15z"/>
<path fill="#D79770" d="M53,15h1v1h-1V15z"/>
<path fill="#F8D0B8" d="M54,15h2v1h1v1h-2v-1h-1V15z"/>
<path fill="#F8D0B8" d="M57,15h1v1h-1V15z"/>
<path fill="#F8D0B9" d="M58,15h1v2h-1V15z"/>
<path fill="#F8CFB8" d="M59,15h1v1h-1V15z"/>
<path fill="#F8D0B9" d="M60,15h1v1h-1V15z"/>
<path fill="#D89770" d="M76,15h1v1h-1V15z"/>
<path fill="#F8D0B8" d="M77,15h1v1h-1V15z"/>
<path fill="#F8D0B9" d="M78,15h1v2h-1V15z"/>
<path fill="#F8CFB8" d="M79,15h1v1h-1V15z"/>
<path fill="#F7CFB8" d="M80,15h1v1h-1V15z"/>
<path fill="#F8D0B9" d="M81,15h2v1h-2V15z"/>
<path fill="#F8D0B8" d="M83,15h1v1h-1V15z"/>
<path fill="#D89870" d="M84,15h1v1h-1V15z"/>
<path fill="#010101" d="M3,16h1v2H3V16z"/>
<path fill="#784040" d="M7,16h1v1H7V16z"/>
<path fill="#D89870" d="M8,16h1v1H8V16z"/>
<path fill="#F8D0B8" d="M10,16h1v1h-1V16z"/>
<path fill="#D7976F" d="M11,16h1v1h-1V16z"/>
<path fill="#F8CFB8" d="M12,16h1v1h-1V16z"/>
<path fill="#F8D0B8" d="M13,16h1v1h-1V16z"/>
<path fill="#D79770" d="M14,16h1v1h-1V16z"/>
<path fill="#783F40" d="M15,16h1v1h-1V16z"/>
<path fill="#010101" d="M19,16h1v2h-1V16z"/>
<path fill="#010101" d="M26,16h1v2h-1V16z"/>
<path fill="#784040" d="M30,16h1v1h-1V16z"/>
<path fill="#D89870" d="M31,16h1v1h-1V16z"/>
<path fill="#F8D0B8" d="M33,16h1v1h-1V16z"/>
<path fill="#D7976F" d="M34,16h1v1h-1V16z"/>
<path fill="#F8CFB8" d="M35,16h1v1h-1V16z"/>
<path fill="#F8D0B8" d="M36,16h1v1h-1V16z"/>
<path fill="#D79770" d="M37,16h1v1h-1V16z"/>
<path fill="#783F40" d="M38,16h1v1h-1V16z"/>
<path fill="#010101" d="M42,16h1v2h-1V16z"/>
<path fill="#010101" d="M49,16h1v2h-1V16z"/>
<path fill="#794040" d="M53,16h1v1h-1V16z"/>
<path fill="#D89870" d="M54,16h1v1h-1V16z"/>
<path fill="#D79770" d="M57,16h1v2h-1V16z"/>
<path fill="#F8D0B8" d="M59,16h1v1h-1V16z"/>
<path fill="#D89870" d="M60,16h1v1h-1V16z"/>
<path fill="#783F40" d="M61,16h1v1h-1V16z"/>
<path fill="#010101" d="M65,16h1v2h-1V16z"/>
<path fill="#010101" d="M72,16h1v2h-1V16z"/>
<path fill="#784040" d="M76,16h1v1h-1V16z"/>
<path fill="#D89870" d="M77,16h1v1h-1V16z"/>
<path fill="#F8D0B8" d="M79,16h1v1h-1V16z"/>
<path fill="#D7976F" d="M80,16h1v1h-1V16z"/>
<path fill="#F8CFB8" d="M81,16h1v1h-1V16z"/>
<path fill="#F8D0B8" d="M82,16h1v1h-1V16z"/>
<path fill="#D79770" d="M83,16h1v1h-1V16z"/>
<path fill="#783F40" d="M84,16h1v1h-1V16z"/>
<path fill="#010101" d="M88,16h1v2h-1V16z"/>
<path fill="#010101" d="M5,17h1v1H5V17z"/>
<path fill="#783F40" d="M6,17h1v1H6V17z"/>
<path fill="#D7976F" d="M7,17h1v2H6v-1h1V17z"/>
<path fill="#020202" d="M8,17h1v1H8V17z"/>
<path fill="#794040" d="M9,17h1v1H9V17z"/>
<path fill="#D89870" d="M10,17h2v1h-2V17z"/>
<path fill="#D79770" d="M12,17h1v1h-1V17z"/>
<path fill="#794040" d="M13,17h1v1h-1V17z"/>
<path fill="#010101" d="M14,17h1v1h-1V17z"/>
<path fill="#D89870" d="M15,17h1v2h-1V17z"/>
<path fill="#794040" d="M16,17h1v1h-1V17z"/>
<path fill="#010101" d="M17,17h1v1h-1V17z"/>
<path fill="#010101" d="M28,17h1v1h-1V17z"/>
<path fill="#783F40" d="M29,17h1v1h-1V17z"/>
<path fill="#D7976F" d="M30,17h1v1h-1V17z"/>
<path fill="#020202" d="M31,17h1v1h-1V17z"/>
<path fill="#794040" d="M32,17h1v1h-1V17z"/>
<path fill="#D89870" d="M33,17h2v1h-2V17z"/>
<path fill="#D79770" d="M35,17h1v1h-1V17z"/>
<path fill="#794040" d="M36,17h1v1h-1V17z"/>
<path fill="#010101" d="M37,17h1v1h-1V17z"/>
<path fill="#D89870" d="M38,17h1v1h-1V17z"/>
<path fill="#794040" d="M39,17h1v1h-1V17z"/>
<path fill="#010101" d="M40,17h1v1h-1V17z"/>
<path fill="#010101" d="M51,17h1v1h-1V17z"/>
<path fill="#783F3F" d="M52,17h1v1h-1V17z"/>
<path fill="#D89870" d="M53,17h1v2h-1V17z"/>
<path fill="#010101" d="M54,17h1v1h-1V17z"/>
<path fill="#784040" d="M55,17h1v1h-1V17z"/>
<path fill="#D89870" d="M56,17h1v1h-1V17z"/>
<path fill="#D89870" d="M58,17h1v1h-1V17z"/>
<path fill="#783F40" d="M59,17h1v1h-1V17z"/>
<path fill="#010101" d="M60,17h1v1h-1V17z"/>
<path fill="#D89870" d="M61,17h1v2h-1V17z"/>
<path fill="#794040" d="M62,17h1v1h-1V17z"/>
<path fill="#010101" d="M63,17h1v1h-1V17z"/>
<path fill="#010101" d="M74,17h1v1h-1V17z"/>
<path fill="#783F40" d="M75,17h1v1h-1V17z"/>
<path fill="#D7976F" d="M76,17h1v1h-1V17z"/>
<path fill="#020202" d="M77,17h1v1h-1V17z"/>
<path fill="#794040" d="M78,17h1v1h-1V17z"/>
<path fill="#D89870" d="M79,17h2v1h-2V17z"/>
<path fill="#D79770" d="M81,17h1v1h-1V17z"/>
<path fill="#794040" d="M82,17h1v1h-1V17z"/>
<path fill="#010101" d="M83,17h1v1h-1V17z"/>
<path fill="#D89870" d="M84,17h1v1h1v1h-2V17z"/>
<path fill="#794040" d="M85,17h1v1h-1V17z"/>
<path fill="#010101" d="M86,17h1v1h-1V17z"/>
<path fill="#020202" d="M4,18h1v1H4V18z"/>
<path fill="#D79770" d="M5,18h1v1H5V18z"/>
<path fill="#606080" d="M8,18h1v2H8V18z"/>
<path fill="#AFAFC8" d="M9,18h5v1H9V18z"/>
<path fill="#5F5F80" d="M14,18h1v2h-1V18z"/>
<path fill="#D7976F" d="M16,18h1v1h-1V18z"/>
<path fill="#D79770" d="M17,18h1v1h-1V18z"/>
<path fill="#010101" d="M18,18h1v1h-1V18z"/>
<path fill="#783F40" d="M26,18h1v2h-1V18z"/>
<path fill="#010101" d="M27,18h1v1h-1V18z"/>
<path fill="#D89870" d="M28,18h3v1h-3V18z"/>
<path fill="#606081" d="M31,18h1v1h-1V18z"/>
<path fill="#B0B0C9" d="M32,18h1v1h-1V18z"/>
<path fill="#AFAFC8" d="M33,18h1v1h-1V18z"/>
<path fill="#B0B0C8" d="M34,18h2v1h-2V18z"/>
<path fill="#AFAFC8" d="M36,18h1v1h-1V18z"/>
<path fill="#606080" d="M37,18h1v1h-1V18z"/>
<path fill="#F8D0B8" d="M38,18h1v1h-1V18z"/>
<path fill="#F8D0B9" d="M39,18h1v1h-1V18z"/>
<path fill="#D89870" d="M40,18h1v1h-1V18z"/>
<path fill="#010101" d="M41,18h1v1h-1V18z"/>
<path fill="#010101" d="M50,18h1v1h-1V18z"/>
<path fill="#D89870" d="M51,18h1v2h-1V18z"/>
<path fill="#D7976F" d="M52,18h1v1h-1V18z"/>
<path fill="#606081" d="M54,18h1v1h-1V18z"/>
<path fill="#AFAFC8" d="M55,18h1v1h-1V18z"/>
<path fill="#B0B0C8" d="M56,18h2v1h-2V18z"/>
<path fill="#AFAFC8" d="M58,18h1v1h-1V18z"/>
<path fill="#B0B0C8" d="M59,18h1v1h-1V18z"/>
<path fill="#606081" d="M60,18h1v1h-1V18z"/>
<path fill="#D7976F" d="M62,18h1v2h-1V18z"/>
<path fill="#D89870" d="M63,18h1v2h-1V18z"/>
<path fill="#010101" d="M64,18h1v1h-1V18z"/>
<path fill="#020202" d="M73,18h1v1h-1V18z"/>
<path fill="#D89870" d="M74,18h1v1h-1V18z"/>
<path fill="#F8D0B9" d="M75,18h1v2h-1V18z"/>
<path fill="#F8D0B8" d="M76,18h1v1h-1V18z"/>
<path fill="#606080" d="M77,18h1v1h-1V18z"/>
<path fill="#B0B0C8" d="M78,18h1v1h-1V18z"/>
<path fill="#AFAFC8" d="M79,18h1v1h-1V18z"/>
<path fill="#B0B0C8" d="M80,18h3v1h-3V18z"/>
<path fill="#5F5F80" d="M83,18h1v1h-1V18z"/>
<path fill="#D79770" d="M86,18h1v1h-1V18z"/>
<path fill="#020202" d="M87,18h1v1h-1V18z"/>
<path fill="#784040" d="M88,18h1v1h-1V18z"/>
<path fill="#783F40" d="M3,19h1v2H3V19z"/>
<path fill="#F8D0B8" d="M4,19h1v2H4V19z"/>
<path fill="#D89870" d="M5,19h1v1H5V19z"/>
<path fill="#D79770" d="M6,19h1v1H6V19z"/>
<path fill="#010101" d="M7,19h1v1H7V19z"/>
<path fill="#606081" d="M9,19h1v2H9V19z"/>
<path fill="#E8E8F8" d="M10,19h2v1h-2V19z"/>
<path fill="#E7E8F7" d="M12,19h1v1h-1V19z"/>
<path fill="#5F6080" d="M13,19h1v1h-1V19z"/>
<path fill="#010101" d="M15,19h1v2h-1V19z"/>
<path fill="#D89870" d="M16,19h1v1h-1V19z"/>
<path fill="#D7976F" d="M17,19h1v1h-1V19z"/>
<path fill="#F8D0B8" d="M18,19h1v2h-1V19z"/>
<path fill="#783F40" d="M19,19h1v1h-1V19z"/>
<path fill="#D89870" d="M27,19h1v1h-1V19z"/>
<path fill="#D7976F" d="M28,19h2v1h-2V19z"/>
<path fill="#010101" d="M30,19h1v2h-1V19z"/>
<path fill="#5F5F80" d="M31,19h1v1h-1V19z"/>
<path fill="#606081" d="M32,19h1v1h-1V19z"/>
<path fill="#E7E8F8" d="M33,19h1v1h-1V19z"/>
<path fill="#E7E8F7" d="M34,19h1v1h-1V19z"/>
<path fill="#E7E8F8" d="M35,19h1v1h-1V19z"/>
<path fill="#606080" d="M36,19h1v1h-1V19z"/>
<path fill="#5F5F80" d="M37,19h1v1h-1V19z"/>
<path fill="#010101" d="M38,19h1v1h-1V19z"/>
<path fill="#F8D0B8" d="M39,19h2v1h-2V19z"/>
<path fill="#783F3F" d="M41,19h1v1h-1V19z"/>
<path fill="#794040" d="M49,19h1v2h-1V19z"/>
<path fill="#F8D0B8" d="M50,19h1v1h1v1h-2V19z"/>
<path fill="#D79770" d="M52,19h1v1h-1V19z"/>
<path fill="#010101" d="M53,19h1v2h-1V19z"/>
<path fill="#5F6080" d="M54,19h1v1h-1V19z"/>
<path fill="#606080" d="M55,19h1v1h-1V19z"/>
<path fill="#E8E9F8" d="M56,19h1v1h-1V19z"/>
<path fill="#E8E8F8" d="M57,19h1v1h-1V19z"/>
<path fill="#E8E9F8" d="M58,19h1v1h-1V19z"/>
<path fill="#5F5F80" d="M59,19h1v1h-1V19z"/>
<path fill="#5F6080" d="M60,19h1v1h-1V19z"/>
<path fill="#010101" d="M61,19h1v2h-1V19z"/>
<path fill="#F8D0B9" d="M64,19h1v1h-1V19z"/>
<path fill="#794040" d="M65,19h1v2h-1V19z"/>
<path fill="#783F40" d="M73,19h1v1h-1V19z"/>
<path fill="#F8D0B8" d="M74,19h1v1h-1V19z"/>
<path fill="#010101" d="M76,19h1v2h-1V19z"/>
<path fill="#5F5F80" d="M77,19h1v1h-1V19z"/>
<path fill="#606080" d="M78,19h1v1h-1V19z"/>
<path fill="#E7E8F8" d="M79,19h1v1h-1V19z"/>
<path fill="#E8E8F8" d="M80,19h1v1h-1V19z"/>
<path fill="#E7E8F8" d="M81,19h1v1h-1V19z"/>
<path fill="#5F5F80" d="M82,19h1v1h-1V19z"/>
<path fill="#606080" d="M83,19h1v1h-1V19z"/>
<path fill="#010101" d="M84,19h1v1h-1V19z"/>
<path fill="#D7976F" d="M85,19h1v1h-1V19z"/>
<path fill="#D89870" d="M86,19h2v1h-2V19z"/>
<path fill="#794040" d="M88,19h1v1h-1V19z"/>
<path fill="#F8D0B9" d="M5,20h1v1H5V20z"/>
<path fill="#783F40" d="M6,20h1v1H6V20z"/>
<path fill="#020202" d="M7,20h1v1H7V20z"/>
<path fill="#AFAFC8" d="M8,20h1v2H7v-1h1V20z"/>
<path fill="#606080" d="M10,20h2v1h-2V20z"/>
<path fill="#606081" d="M12,20h2v1h-2V20z"/>
<path fill="#AFAFC8" d="M14,20h1v1h-1V20z"/>
<path fill="#794040" d="M16,20h1v1h-1V20z"/>
<path fill="#F7CFB8" d="M17,20h1v1h-1V20z"/>
<path fill="#784040" d="M19,20h1v1h-1V20z"/>
<path fill="#783F3F" d="M27,20h1v1h-1V20z"/>
<path fill="#784040" d="M28,20h1v1h-1V20z"/>
<path fill="#783F40" d="M29,20h1v1h-1V20z"/>
<path fill="#B0B0C8" d="M31,20h1v1h-1V20z"/>
<path fill="#5F6080" d="M32,20h1v1h-1V20z"/>
<path fill="#606080" d="M33,20h1v1h-1V20z"/>
<path fill="#606081" d="M34,20h3v1h-3V20z"/>
<path fill="#B0B0C9" d="M37,20h1v1h-1V20z"/>
<path fill="#020202" d="M38,20h1v1h-1V20z"/>
<path fill="#D89870" d="M39,20h2v1h-2V20z"/>
<path fill="#794040" d="M41,20h1v1h-1V20z"/>
<path fill="#783F3F" d="M52,20h1v1h-1V20z"/>
<path fill="#B0B0C9" d="M54,20h1v1h-1V20z"/>
<path fill="#5F6080" d="M55,20h2v1h-2V20z"/>
<path fill="#606081" d="M57,20h1v1h-1V20z"/>
<path fill="#606080" d="M58,20h2v1h-2V20z"/>
<path fill="#B0B0C8" d="M60,20h1v1h1v1h-2V20z"/>
<path fill="#783F40" d="M62,20h1v1h-1V20z"/>
<path fill="#F8CFB8" d="M63,20h1v1h-1V20z"/>
<path fill="#F8D0B8" d="M64,20h1v1h-1V20z"/>
<path fill="#784040" d="M73,20h1v1h-1V20z"/>
<path fill="#D89870" d="M74,20h2v1h-2V20z"/>
<path fill="#B0B0C8" d="M77,20h1v1h-1V20z"/>
<path fill="#606081" d="M78,20h3v1h-3V20z"/>
<path fill="#606080" d="M81,20h2v1h-2V20z"/>
<path fill="#B0AFC8" d="M83,20h1v1h-1V20z"/>
<path fill="#020202" d="M84,20h1v1h-1V20z"/>
<path fill="#783F40" d="M85,20h3v1h-3V20z"/>
<path fill="#783F40" d="M4,21h2v1H4V21z"/>
<path fill="#010101" d="M6,21h1v1H6V21z"/>
<path fill="#E8E9F8" d="M9,21h1v1H9V21z"/>
<path fill="#E8E8F8" d="M10,21h2v1h1v1h-2v-1h-1V21z"/>
<path fill="#E7E8F8" d="M12,21h1v1h-1V21z"/>
<path fill="#E8E9F8" d="M13,21h1v2h-1V21z"/>
<path fill="#B0B0C8" d="M14,21h2v1h-1v1h-1V21z"/>
<path fill="#010101" d="M16,21h1v3h-1V21z"/>
<path fill="#794040" d="M17,21h1v1h-1V21z"/>
<path fill="#783F40" d="M18,21h1v1h-1V21z"/>
<path fill="#010101" d="M29,21h1v3h-1V21z"/>
<path fill="#AFAFC8" d="M30,21h2v1h-2V21z"/>
<path fill="#B0B0C9" d="M32,21h1v1h-1V21z"/>
<path fill="#E7E8F8" d="M33,21h1v1h-1V21z"/>
<path fill="#E8E8F8" d="M34,21h1v1h1v-1h1v2h-3V21z"/>
<path fill="#E7E8F7" d="M35,21h1v1h-1V21z"/>
<path fill="#B0B0C8" d="M37,21h2v1h-1v1h-1V21z"/>
<path fill="#783F40" d="M39,21h2v1h-2V21z"/>
<path fill="#783F40" d="M50,21h1v1h-1V21z"/>
<path fill="#794040" d="M51,21h1v1h-1V21z"/>
<path fill="#010101" d="M52,21h1v3h-1V21z"/>
<path fill="#B0B0C8" d="M53,21h2v1h-2V21z"/>
<path fill="#E8E9F8" d="M55,21h1v1h-1V21z"/>
<path fill="#E7E8F7" d="M56,21h1v2h-2v-1h1V21z"/>
<path fill="#E8E8F8" d="M57,21h1v1h-1V21z"/>
<path fill="#E7E8F7" d="M58,21h1v1h-1V21z"/>
<path fill="#E8E8F8" d="M59,21h1v1h-1V21z"/>
<path fill="#010101" d="M62,21h1v1h-1V21z"/>
<path fill="#784040" d="M63,21h1v1h-1V21z"/>
<path fill="#794040" d="M64,21h1v1h-1V21z"/>
<path fill="#783F40" d="M74,21h1v1h-1V21z"/>
<path fill="#783F3F" d="M75,21h1v1h-1V21z"/>
<path fill="#AFAFC8" d="M76,21h2v1h-2V21z"/>
<path fill="#E8E9F8" d="M78,21h1v2h-1V21z"/>
<path fill="#E8E8F8" d="M79,21h1v1h1v-1h1v2h-3V21z"/>
<path fill="#E7E8F7" d="M80,21h1v1h-1V21z"/>
<path fill="#B0B0C8" d="M82,21h2v2h-2V21z"/>
<path fill="#AFAFC8" d="M84,21h1v1h-1V21z"/>
<path fill="#010101" d="M85,21h1v3h-1V21z"/>
<path fill="#020202" d="M6,22h1v1H6V22z"/>
<path fill="#98608F" d="M7,22h1v1H7V22z"/>
<path fill="#B0B0C8" d="M8,22h1v1H8V22z"/>
<path fill="#E7E8F7" d="M9,22h1v1H9V22z"/>
<path fill="#E7E8F8" d="M10,22h1v2h-1V22z"/>
<path fill="#986090" d="M15,22h1v1h-1V22z"/>
<path fill="#986090" d="M30,22h1v1h-1V22z"/>
<path fill="#B0B0C8" d="M31,22h1v1h-1V22z"/>
<path fill="#AFAFC8" d="M32,22h1v1h-1V22z"/>
<path fill="#E8E9F8" d="M33,22h1v1h-1V22z"/>
<path fill="#986090" d="M38,22h1v1h-1V22z"/>
<path fill="#010101" d="M39,22h1v1h-1V22z"/>
<path fill="#986090" d="M53,22h1v1h-1V22z"/>
<path fill="#AFAFC8" d="M54,22h1v1h-1V22z"/>
<path fill="#E8E9F8" d="M57,22h1v2h-1V22z"/>
<path fill="#E7E8F8" d="M58,22h1v1h-1V22z"/>
<path fill="#E8E9F8" d="M59,22h1v1h-1V22z"/>
<path fill="#B0B0C9" d="M60,22h1v1h-1V22z"/>
<path fill="#98608F" d="M61,22h1v1h-1V22z"/>
<path fill="#020202" d="M62,22h1v1h-1V22z"/>
<path fill="#010101" d="M75,22h1v1h-1V22z"/>
<path fill="#986090" d="M76,22h1v1h-1V22z"/>
<path fill="#B0B0C8" d="M77,22h1v1h-1V22z"/>
<path fill="#986090" d="M84,22h1v1h-1V22z"/>
<path fill="#010101" d="M6,23h1v1H6V23z"/>
<path fill="#D89870" d="M7,23h1v1H7V23z"/>
<path fill="#986090" d="M8,23h1v1H8V23z"/>
<path fill="#B0B0C8" d="M9,23h1v1H9V23z"/>
<path fill="#E8E9F8" d="M11,23h1v1h-1V23z"/>
<path fill="#E7E8F7" d="M12,23h1v1h-1V23z"/>
<path fill="#B0B0C8" d="M13,23h1v1h-1V23z"/>
<path fill="#98608F" d="M14,23h1v1h-1V23z"/>
<path fill="#D89870" d="M15,23h1v1h-1V23z"/>
<path fill="#D89770" d="M30,23h1v1h-1V23z"/>
<path fill="#996090" d="M31,23h1v1h-1V23z"/>
<path fill="#996190" d="M32,23h1v1h-1V23z"/>
<path fill="#B0B0C8" d="M33,23h1v1h-1V23z"/>
<path fill="#E8E9F8" d="M34,23h2v1h-2V23z"/>
<path fill="#B0B0C8" d="M36,23h1v1h-1V23z"/>
<path fill="#010101" d="M37,23h1v1h-1V23z"/>
<path fill="#020202" d="M38,23h1v1h-1V23z"/>
<path fill="#D89870" d="M53,23h1v1h-1V23z"/>
<path fill="#986090" d="M54,23h1v1h-1V23z"/>
<path fill="#B0B0C8" d="M55,23h1v1h-1V23z"/>
<path fill="#E8E8F8" d="M56,23h1v1h-1V23z"/>
<path fill="#E8E8F8" d="M58,23h1v1h-1V23z"/>
<path fill="#B0B0C8" d="M59,23h1v1h-1V23z"/>
<path fill="#986090" d="M60,23h1v1h-1V23z"/>
<path fill="#D89870" d="M61,23h1v1h-1V23z"/>
<path fill="#010101" d="M62,23h1v1h-1V23z"/>
<path fill="#010101" d="M76,23h2v1h-2V23z"/>
<path fill="#B0B0C8" d="M78,23h1v1h-1V23z"/>
<path fill="#E8E9F8" d="M79,23h1v1h-1V23z"/>
<path fill="#E7E8F8" d="M80,23h1v1h-1V23z"/>
<path fill="#B0B0C8" d="M81,23h1v1h-1V23z"/>
<path fill="#98608F" d="M82,23h2v1h-2V23z"/>
<path fill="#D7976F" d="M84,23h1v1h-1V23z"/>
<path fill="#010101" d="M7,24h1v1H7V24z"/>
<path fill="#585080" d="M8,24h2v1H8V24z"/>
<path fill="#020202" d="M10,24h1v1h-1V24z"/>
<path fill="#010101" d="M11,24h2v1h-2V24z"/>
<path fill="#585180" d="M13,24h1v1h-1V24z"/>
<path fill="#585080" d="M14,24h1v1h-1V24z"/>
<path fill="#010101" d="M15,24h1v1h-1V24z"/>
<path fill="#010101" d="M30,24h1v1h-1V24z"/>
<path fill="#D89870" d="M31,24h2v1h-2V24z"/>
<path fill="#D79770" d="M33,24h1v1h-1V24z"/>
<path fill="#010101" d="M34,24h3v1h-2v2h-1V24z"/>
<path fill="#010101" d="M53,24h1v1h-1V24z"/>
<path fill="#595181" d="M54,24h1v1h-1V24z"/>
<path fill="#585180" d="M55,24h1v1h-1V24z"/>
<path fill="#010101" d="M56,24h2v1h-2V24z"/>
<path fill="#020202" d="M58,24h1v1h-1V24z"/>
<path fill="#585080" d="M59,24h2v1h-2V24z"/>
<path fill="#010101" d="M61,24h1v1h-1V24z"/>
<path fill="#010101" d="M78,24h2v1h-2V24z"/>
<path fill="#020202" d="M80,24h1v2h-1V24z"/>
<path fill="#D89870" d="M81,24h2v1h-2V24z"/>
<path fill="#D79770" d="M83,24h1v1h-1V24z"/>
<path fill="#010101" d="M84,24h1v1h-1V24z"/>
<path fill="#010101" d="M8,25h2v1H8V25z"/>
<path fill="#010101" d="M13,25h1v1h-1V25z"/>
<path fill="#020202" d="M14,25h1v1h-1V25z"/>
<path fill="#020202" d="M31,25h1v2h-1V25z"/>
<path fill="#303051" d="M32,25h1v1h-1V25z"/>
<path fill="#303050" d="M33,25h1v1h-1V25z"/>
<path fill="#010101" d="M54,25h2v1h-2V25z"/>
<path fill="#010101" d="M59,25h2v1h-2V25z"/>
<path fill="#303151" d="M81,25h1v1h-1V25z"/>
<path fill="#303050" d="M82,25h1v1h-1V25z"/>
<path fill="#010101" d="M83,25h1v2h-1V25z"/>
<path fill="#585080" d="M32,26h1v1h-1V26z"/>
<path fill="#595181" d="M33,26h1v1h-1V26z"/>
<path fill="#010101" d="M80,26h1v1h-1V26z"/>
<path fill="#585180" d="M81,26h1v1h-1V26z"/>
<path fill="#585080" d="M82,26h1v1h-1V26z"/>
<path fill="#010101" d="M32,27h1v1h-1V27z"/>
<path fill="#020202" d="M33,27h1v1h-1V27z"/>
<path fill="#010101" d="M81,27h1v1h-1V27z"/>
<path fill="#020202" d="M82,27h1v1h-1V27z"/>
<path fill="#373840" d="M9,31h4v1H9V31z"/>
<path fill="#373840" d="M32,31h4v1h-4V31z"/>
<path fill="#373840" d="M55,31h4v1h-4V31z"/>
<path fill="#373840" d="M78,31h4v1h-4V31z"/>
<path fill="#373840" d="M7,32h2v1H7V32z"/>
<path fill="#515060" d="M9,32h4v1h2v1h1v1h1v2h1v4h-1v-3h-1v-1h-1v2h-1v1h-1v1h-1v1h-2v3H9v-2H8v-1H7v-2h1v-2h2v1h2v-1h1v-1h-2v-1H9
	v-1H8v-1H7v-1h2V32z"/>
<path fill="#373840" d="M13,32h2v1h-2V32z"/>
<path fill="#373840" d="M30,32h2v1h-2V32z"/>
<path fill="#515060" d="M32,32h4v1h2v1h1v1h1v2h1v4h-1v-3h-1v-1h-1v2h-1v1h-1v1h-1v1h-2v3h-1v-2h-1v-1h-1v-2h1v-2h2v1h2v-1h1v-1h-2
	v-1h-2v-1h-1v-1h-1v-1h2V32z"/>
<path fill="#373840" d="M36,32h2v1h-2V32z"/>
<path fill="#373840" d="M53,32h2v1h-2V32z"/>
<path fill="#515060" d="M55,32h4v1h2v1h1v1h1v2h1v4h-1v-3h-1v-1h-1v2h-1v1h-1v1h-1v1h-2v3h-1v-2h-1v-1h-1v-2h1v-2h2v1h2v-1h1v-1h-2
	v-1h-2v-1h-1v-1h-1v-1h2V32z"/>
<path fill="#373840" d="M59,32h2v1h-2V32z"/>
<path fill="#373840" d="M76,32h2v1h-2V32z"/>
<path fill="#515060" d="M78,32h4v1h2v1h1v1h1v2h1v4h-1v-3h-1v-1h-1v2h-1v1h-1v1h-1v1h-2v3h-1v-2h-1v-1h-1v-2h1v-2h2v1h2v-1h1v-1h-2
	v-1h-2v-1h-1v-1h-1v-1h2V32z"/>
<path fill="#373840" d="M82,32h2v1h-2V32z"/>
<path fill="#373840" d="M6,33h1v1H6V33z"/>
<path fill="#010101" d="M15,33h1v1h-1V33z"/>
<path fill="#373840" d="M29,33h1v1h-1V33z"/>
<path fill="#010101" d="M38,33h1v1h-1V33z"/>
<path fill="#373840" d="M52,33h1v1h-1V33z"/>
<path fill="#010101" d="M61,33h1v1h-1V33z"/>
<path fill="#373840" d="M75,33h1v1h-1V33z"/>
<path fill="#010101" d="M84,33h1v1h-1V33z"/>
<path fill="#373840" d="M5,34h1v1H5V34z"/>
<path fill="#515060" d="M6,34h1v1H6V34z"/>
<path fill="#707688" d="M7,34h1v1H7V34z"/>
<path fill="#010101" d="M16,34h1v1h-1V34z"/>
<path fill="#373840" d="M28,34h1v1h-1V34z"/>
<path fill="#515060" d="M29,34h1v1h-1V34z"/>
<path fill="#707688" d="M30,34h1v1h-1V34z"/>
<path fill="#010101" d="M39,34h1v1h-1V34z"/>
<path fill="#373840" d="M51,34h1v1h-1V34z"/>
<path fill="#515060" d="M52,34h1v1h-1V34z"/>
<path fill="#707688" d="M53,34h1v1h-1V34z"/>
<path fill="#010101" d="M62,34h1v1h-1V34z"/>
<path fill="#373840" d="M74,34h1v1h-1V34z"/>
<path fill="#515060" d="M75,34h1v1h-1V34z"/>
<path fill="#707688" d="M76,34h1v1h-1V34z"/>
<path fill="#010101" d="M85,34h1v1h-1V34z"/>
<path fill="#010101" d="M4,35h1v2H4V35z"/>
<path fill="#515060" d="M5,35h1v1h1v1h1v1H7v2H6v1H5v-2H4v-2h1V35z"/>
<path fill="#707688" d="M6,35h1v1H6V35z"/>
<path fill="#515060" d="M7,35h1v1H7V35z"/>
<path fill="#707688" d="M8,35h1v1h2v1h2v1h-1v1h-2v-1H8v-1H7v-1h1V35z"/>
<path fill="#010101" d="M17,35h1v2h-1V35z"/>
<path fill="#010101" d="M27,35h1v2h-1V35z"/>
<path fill="#515060" d="M28,35h1v1h1v1h1v1h-1v2h-1v1h-1v-2h-1v-2h1V35z"/>
<path fill="#707688" d="M29,35h1v1h-1V35z"/>
<path fill="#515060" d="M30,35h1v1h-1V35z"/>
<path fill="#707688" d="M31,35h1v1h2v1h2v1h-1v1h-2v-1h-2v-1h-1v-1h1V35z"/>
<path fill="#010101" d="M40,35h1v2h-1V35z"/>
<path fill="#010101" d="M50,35h1v2h-1V35z"/>
<path fill="#515060" d="M51,35h1v1h1v1h1v1h-1v2h-1v1h-1v-2h-1v-2h1V35z"/>
<path fill="#707688" d="M52,35h1v1h-1V35z"/>
<path fill="#515060" d="M53,35h1v1h-1V35z"/>
<path fill="#707688" d="M54,35h1v1h2v1h2v1h-1v1h-2v-1h-2v-1h-1v-1h1V35z"/>
<path fill="#010101" d="M63,35h1v2h-1V35z"/>
<path fill="#010101" d="M73,35h1v2h-1V35z"/>
<path fill="#515060" d="M74,35h1v1h1v1h1v1h-1v2h-1v1h-1v-2h-1v-2h1V35z"/>
<path fill="#707688" d="M75,35h1v1h-1V35z"/>
<path fill="#515060" d="M76,35h1v1h-1V35z"/>
<path fill="#707688" d="M77,35h1v1h2v1h2v1h-1v1h-2v-1h-2v-1h-1v-1h1V35z"/>
<path fill="#010101" d="M86,35h1v2h-1V35z"/>
<path fill="#707688" d="M13,36h1v1h-1V36z"/>
<path fill="#707688" d="M36,36h1v1h-1V36z"/>
<path fill="#707688" d="M59,36h1v1h-1V36z"/>
<path fill="#707688" d="M82,36h1v1h-1V36z"/>
<path fill="#010101" d="M3,37h1v6H3V37z"/>
<path fill="#373840" d="M15,37h1v1h1v2h-1v-1h-1V37z"/>
<path fill="#010101" d="M18,37h1v4h-1V37z"/>
<path fill="#010101" d="M26,37h1v6h-1V37z"/>
<path fill="#373840" d="M38,37h1v1h1v2h-1v-1h-1V37z"/>
<path fill="#010101" d="M41,37h1v4h-1V37z"/>
<path fill="#010101" d="M49,37h1v6h-1V37z"/>
<path fill="#373840" d="M61,37h1v1h1v2h-1v-1h-1V37z"/>
<path fill="#010101" d="M64,37h1v4h-1V37z"/>
<path fill="#010101" d="M72,37h1v6h-1V37z"/>
<path fill="#373840" d="M84,37h1v1h1v2h-1v-1h-1V37z"/>
<path fill="#010101" d="M87,37h1v4h-1V37z"/>
<path fill="#373840" d="M7,38h1v2H7V38z"/>
<path fill="#373840" d="M30,38h1v2h-1V38z"/>
<path fill="#373840" d="M53,38h1v2h-1V38z"/>
<path fill="#373840" d="M76,38h1v2h-1V38z"/>
<path fill="#373840" d="M4,39h1v2h1v-1h1v2h1v1h1v2h1v2H9v1H8v1H7v-2H6v-1H5v-3H4V39z"/>
<path fill="#373840" d="M14,39h1v1h-1V39z"/>
<path fill="#F8D0B8" d="M15,39h1v2h1v4h-1v1h-2v-2h2v-2h-1v-1h-1v-1h1V39z"/>
<path fill="#373840" d="M27,39h1v2h1v-1h1v2h1v1h1v2h1v2h-1v1h-1v1h-1v-2h-1v-1h-1v-3h-1V39z"/>
<path fill="#373840" d="M37,39h1v1h-1V39z"/>
<path fill="#F8D0B8" d="M38,39h1v2h1v2h-1v-1h-1v-1h-1v-1h1V39z"/>
<path fill="#373840" d="M50,39h1v2h1v-1h1v2h1v1h1v2h1v2h-1v1h-1v1h-1v-2h-1v-1h-1v-3h-1V39z"/>
<path fill="#373840" d="M60,39h1v1h-1V39z"/>
<path fill="#F8D0B8" d="M61,39h1v2h1v4h-1v1h-2v-2h2v-2h-1v-1h-1v-1h1V39z"/>
<path fill="#373840" d="M73,39h1v2h1v-1h1v2h1v1h1v2h1v2h-1v2h-2v-2h-1v-1h-1v-3h-1V39z"/>
<path fill="#373840" d="M83,39h1v1h-1V39z"/>
<path fill="#F8D0B8" d="M84,39h1v2h1v4h-1v1h-2v-2h2v-2h-1v-1h-1v-1h1V39z"/>
<path fill="#373840" d="M9,40h1v1H9V40z"/>
<path fill="#373840" d="M13,40h1v1h-1V40z"/>
<path fill="#D89870" d="M16,40h1v1h-1V40z"/>
<path fill="#373840" d="M32,40h1v1h-1V40z"/>
<path fill="#373840" d="M36,40h1v1h-1V40z"/>
<path fill="#D89870" d="M39,40h1v1h-1V40z"/>
<path fill="#373840" d="M55,40h1v1h-1V40z"/>
<path fill="#373840" d="M59,40h1v1h-1V40z"/>
<path fill="#D89870" d="M62,40h1v1h-1V40z"/>
<path fill="#373840" d="M78,40h1v1h-1V40z"/>
<path fill="#373840" d="M82,40h1v1h-1V40z"/>
<path fill="#D89870" d="M85,40h1v1h-1V40z"/>
<path fill="#373840" d="M8,41h1v1H8V41z"/>
<path fill="#373840" d="M12,41h1v1h-1V41z"/>
<path fill="#F8D0B8" d="M13,41h1v2h-1V41z"/>
<path fill="#515060" d="M14,41h1v1h-1V41z"/>
<path fill="#373840" d="M17,41h1v1h-1V41z"/>
<path fill="#373840" d="M31,41h1v1h-1V41z"/>
<path fill="#373840" d="M35,41h1v1h-1V41z"/>
<path fill="#F8CFB8" d="M36,41h1v1h-1V41z"/>
<path fill="#515060" d="M37,41h1v1h-1V41z"/>
<path fill="#373840" d="M40,41h1v1h-1V41z"/>
<path fill="#373840" d="M54,41h1v1h-1V41z"/>
<path fill="#373840" d="M58,41h1v1h-1V41z"/>
<path fill="#F8D0B8" d="M59,41h1v2h-1V41z"/>
<path fill="#515060" d="M60,41h1v1h-1V41z"/>
<path fill="#373840" d="M63,41h1v1h-1V41z"/>
<path fill="#373840" d="M77,41h1v1h-1V41z"/>
<path fill="#373840" d="M81,41h1v1h-1V41z"/>
<path fill="#F8D0B8" d="M82,41h1v2h-1V41z"/>
<path fill="#515060" d="M83,41h1v1h-1V41z"/>
<path fill="#373840" d="M86,41h1v1h-1V41z"/>
<path fill="#373840" d="M10,42h2v1h-2V42z"/>
<path fill="#515060" d="M12,42h1v2h1v1h-2V42z"/>
<path fill="#A8A0C8" d="M14,42h1v1h-1V42z"/>
<path fill="#404048" d="M15,42h1v1h-1V42z"/>
<path fill="#784040" d="M17,42h1v2h-1V42z"/>
<path fill="#373840" d="M33,42h2v1h-2V42z"/>
<path fill="#515060" d="M35,42h1v2h1v1h-2V42z"/>
<path fill="#F8D0B8" d="M36,42h1v1h-1V42z"/>
<path fill="#A7A7D8" d="M37,42h1v1h-1V42z"/>
<path fill="#404048" d="M38,42h1v1h-1V42z"/>
<path fill="#794040" d="M40,42h1v1h-1V42z"/>
<path fill="#373840" d="M56,42h2v1h-2V42z"/>
<path fill="#515060" d="M58,42h1v2h1v1h-2V42z"/>
<path fill="#A8A0C8" d="M60,42h1v1h-1V42z"/>
<path fill="#404048" d="M61,42h1v1h-1V42z"/>
<path fill="#784040" d="M63,42h1v2h-1V42z"/>
<path fill="#373840" d="M79,42h2v1h-2V42z"/>
<path fill="#515060" d="M81,42h1v2h1v1h-2V42z"/>
<path fill="#A8A8D8" d="M83,42h1v1h-1V42z"/>
<path fill="#404048" d="M84,42h1v1h-1V42z"/>
<path fill="#784040" d="M86,42h1v2h-1V42z"/>
<path fill="#010101" d="M4,43h1v3H4V43z"/>
<path fill="#D89870" d="M10,43h2v2h2v1h-1v1h-1v-1h-1v-1h-1V43z"/>
<path fill="#D89870" d="M13,43h1v1h-1V43z"/>
<path fill="#E8E8F8" d="M14,43h1v1h-1V43z"/>
<path fill="#030303" d="M15,43h1v1h-1V43z"/>
<path fill="#010101" d="M27,43h1v3h-1V43z"/>
<path fill="#D7976F" d="M33,43h1v1h-1V43z"/>
<path fill="#D79770" d="M34,43h1v1h-1V43z"/>
<path fill="#D89870" d="M36,43h1v1h-1V43z"/>
<path fill="#E7E8F8" d="M37,43h1v1h-1V43z"/>
<path fill="#040404" d="M38,43h1v1h-1V43z"/>
<path fill="#F8D0B9" d="M39,43h1v1h-1V43z"/>
<path fill="#783F3E" d="M40,43h1v1h-1V43z"/>
<path fill="#010101" d="M50,43h1v3h-1V43z"/>
<path fill="#D89870" d="M56,43h2v2h2v1h-1v1h-1v-1h-1v-1h-1V43z"/>
<path fill="#D89870" d="M59,43h1v1h-1V43z"/>
<path fill="#E8E8F8" d="M60,43h1v1h-1V43z"/>
<path fill="#040404" d="M61,43h1v1h-1V43z"/>
<path fill="#010101" d="M73,43h1v3h-1V43z"/>
<path fill="#D89870" d="M79,43h2v2h2v1h-1v1h-1v-1h-1v-1h-1V43z"/>
<path fill="#D89870" d="M82,43h1v1h-1V43z"/>
<path fill="#E8E8F8" d="M83,43h1v1h-1V43z"/>
<path fill="#040404" d="M84,43h1v1h-1V43z"/>
<path fill="#D89870" d="M17,44h1v1h-1V44z"/>
<path fill="#D7966F" d="M33,44h1v1h-1V44z"/>
<path fill="#D89870" d="M34,44h1v1h-1V44z"/>
<path fill="#F7CFB8" d="M37,44h1v1h-1V44z"/>
<path fill="#F8D0B8" d="M38,44h1v1h-1V44z"/>
<path fill="#F7CFB8" d="M39,44h1v1h-1V44z"/>
<path fill="#D79770" d="M40,44h1v1h-1V44z"/>
<path fill="#D89870" d="M63,44h1v1h-1V44z"/>
<path fill="#D89870" d="M86,44h1v1h-1V44z"/>
<path fill="#784040" d="M10,45h1v1h-1V45z"/>
<path fill="#784040" d="M16,45h1v1h-1V45z"/>
<path fill="#783E40" d="M33,45h1v1h-1V45z"/>
<path fill="#D7976F" d="M34,45h1v1h-1V45z"/>
<path fill="#D89770" d="M35,45h1v1h-1V45z"/>
<path fill="#D7976F" d="M36,45h1v1h-1V45z"/>
<path fill="#F8D0B9" d="M37,45h1v1h-1V45z"/>
<path fill="#F8CFB8" d="M38,45h1v1h-1V45z"/>
<path fill="#783E40" d="M39,45h1v1h-1V45z"/>
<path fill="#784040" d="M56,45h1v1h-1V45z"/>
<path fill="#784040" d="M62,45h1v1h-1V45z"/>
<path fill="#784040" d="M79,45h1v1h-1V45z"/>
<path fill="#784040" d="M85,45h1v1h-1V45z"/>
<path fill="#010101" d="M5,46h1v1H5V46z"/>
<path fill="#030303" d="M10,46h1v1h-1V46z"/>
<path fill="#303050" d="M11,46h1v1h-1V46z"/>
<path fill="#784040" d="M13,46h3v1h-3V46z"/>
<path fill="#010101" d="M28,46h1v1h-1V46z"/>
<path fill="#040404" d="M33,46h1v1h-1V46z"/>
<path fill="#404048" d="M34,46h1v1h-1V46z"/>
<path fill="#D89870" d="M35,46h1v1h-1V46z"/>
<path fill="#783F40" d="M36,46h1v1h-1V46z"/>
<path fill="#793F40" d="M37,46h1v1h-1V46z"/>
<path fill="#783E40" d="M38,46h1v1h-1V46z"/>
<path fill="#010101" d="M51,46h1v1h-1V46z"/>
<path fill="#040404" d="M56,46h1v1h-1V46z"/>
<path fill="#404048" d="M57,46h1v1h-1V46z"/>
<path fill="#784040" d="M59,46h3v1h-3V46z"/>
<path fill="#010101" d="M74,46h1v1h-1V46z"/>
<path fill="#040404" d="M79,46h1v1h-1V46z"/>
<path fill="#404048" d="M80,46h1v1h-1V46z"/>
<path fill="#784040" d="M82,46h3v1h-3V46z"/>
<path fill="#010101" d="M6,47h1v2H6V47z"/>
<path fill="#030303" d="M9,47h1v1H9V47z"/>
<path fill="#784040" d="M10,47h2v1h-2V47z"/>
<path fill="#B0B0C8" d="M12,47h2v1h-2V47z"/>
<path fill="#030303" d="M14,47h1v1h-1V47z"/>
<path fill="#010101" d="M29,47h1v2h-1V47z"/>
<path fill="#040404" d="M32,47h1v1h-1V47z"/>
<path fill="#793F3F" d="M33,47h1v1h-1V47z"/>
<path fill="#793F40" d="M34,47h1v1h-1V47z"/>
<path fill="#AFAFC8" d="M35,47h2v1h-2V47z"/>
<path fill="#040404" d="M37,47h1v1h-1V47z"/>
<path fill="#010101" d="M52,47h1v2h-1V47z"/>
<path fill="#040404" d="M55,47h1v1h-1V47z"/>
<path fill="#784040" d="M56,47h2v1h-2V47z"/>
<path fill="#B0B0C8" d="M58,47h2v1h-2V47z"/>
<path fill="#040404" d="M60,47h1v1h-1V47z"/>
<path fill="#010101" d="M75,47h1v2h-1V47z"/>
<path fill="#040404" d="M78,47h1v2h-1V47z"/>
<path fill="#B0B0C8" d="M79,47h1v3h-1V47z"/>
<path fill="#784040" d="M80,47h2v1h-2V47z"/>
<path fill="#B0B0C8" d="M82,47h1v1h-1V47z"/>
<path fill="#040404" d="M83,47h1v1h-1V47z"/>
<path fill="#030303" d="M8,48h1v2H8V48z"/>
<path fill="#606080" d="M9,48h1v1H9V48z"/>
<path fill="#F8D0B8" d="M10,48h2v2h1v1h-2v-1h-1V48z"/>
<path fill="#784040" d="M12,48h1v2h-1V48z"/>
<path fill="#E8E8F8" d="M13,48h1v1h1v1h-2V48z"/>
<path fill="#B0B0C8" d="M14,48h1v1h-1V48z"/>
<path fill="#040404" d="M31,48h1v1h1v1h-1v2h-2v-1h1V48z"/>
<path fill="#5F5F80" d="M32,48h1v1h-1V48z"/>
<path fill="#F8D0B8" d="M33,48h2v1h-2V48z"/>
<path fill="#793F40" d="M35,48h1v2h-1V48z"/>
<path fill="#E7E8F7" d="M36,48h1v1h-1V48z"/>
<path fill="#B0B0C8" d="M37,48h1v1h-1V48z"/>
<path fill="#040404" d="M54,48h1v2h-1V48z"/>
<path fill="#606080" d="M55,48h1v1h-1V48z"/>
<path fill="#F8D0B8" d="M56,48h2v2h1v1h-2v-1h-1V48z"/>
<path fill="#784040" d="M58,48h1v2h-1V48z"/>
<path fill="#E8E8F8" d="M59,48h1v1h1v1h-2V48z"/>
<path fill="#B0B0C8" d="M60,48h1v1h-1V48z"/>
<path fill="#F8D0B8" d="M80,48h2v2h1v1h-2v-1h-1V48z"/>
<path fill="#784040" d="M82,48h1v2h-1V48z"/>
<path fill="#B0B0C8" d="M83,48h1v1h-1V48z"/>
<path fill="#383038" d="M9,49h1v2H9V49z"/>
<path fill="#383038" d="M15,49h1v2h-1V49z"/>
<path fill="#F8CFB8" d="M33,49h1v1h-1V49z"/>
<path fill="#F8D0B9" d="M34,49h1v1h-1V49z"/>
<path fill="#E8E9F8" d="M36,49h1v1h-1V49z"/>
<path fill="#E7E8F7" d="M37,49h1v1h-1V49z"/>
<path fill="#383038" d="M38,49h1v1h-1V49z"/>
<path fill="#383038" d="M55,49h1v2h-1V49z"/>
<path fill="#383038" d="M61,49h1v2h-1V49z"/>
<path fill="#040404" d="M77,49h1v2h-1V49z"/>
<path fill="#606080" d="M78,49h1v1h-1V49z"/>
<path fill="#E8E8F8" d="M83,49h1v1h-1V49z"/>
<path fill="#383038" d="M84,49h1v3h-1V49z"/>
<path fill="#030303" d="M7,50h1v2H7V50z"/>
<path fill="#B0B0C8" d="M8,50h1v1H8V50z"/>
<path fill="#030303" d="M10,50h1v2h-1V50z"/>
<path fill="#784040" d="M13,50h1v2h-1V50z"/>
<path fill="#606080" d="M14,50h1v1h-1V50z"/>
<path fill="#D79770" d="M32,50h1v1h-1V50z"/>
<path fill="#D7976F" d="M33,50h1v1h-1V50z"/>
<path fill="#79403F" d="M34,50h1v1h-1V50z"/>
<path fill="#B0B0C9" d="M35,50h1v1h-1V50z"/>
<path fill="#5F6081" d="M36,50h1v1h-1V50z"/>
<path fill="#5F5F80" d="M37,50h1v1h-1V50z"/>
<path fill="#363037" d="M38,50h1v1h-1V50z"/>
<path fill="#040404" d="M53,50h1v2h-1V50z"/>
<path fill="#B0B0C8" d="M54,50h1v1h-1V50z"/>
<path fill="#040404" d="M56,50h1v2h-1V50z"/>
<path fill="#784040" d="M59,50h1v2h-1V50z"/>
<path fill="#606080" d="M60,50h1v1h-1V50z"/>
<path fill="#B0B0C8" d="M78,50h1v1h1v1h1v1h-2v-1h-1V50z"/>
<path fill="#606080" d="M79,50h1v1h-1V50z"/>
<path fill="#040404" d="M80,50h1v2h-1V50z"/>
<path fill="#784040" d="M83,50h1v2h-1V50z"/>
<path fill="#986090" d="M8,51h1v1H8V51z"/>
<path fill="#B0B0C8" d="M9,51h1v1H9V51z"/>
<path fill="#D89870" d="M11,51h2v1h-2V51z"/>
<path fill="#E8E8F8" d="M14,51h1v1h-1V51z"/>
<path fill="#D89770" d="M32,51h1v1h-1V51z"/>
<path fill="#D79670" d="M33,51h1v1h-1V51z"/>
<path fill="#783E40" d="M34,51h1v1h-1V51z"/>
<path fill="#E7E8F7" d="M35,51h1v1h-1V51z"/>
<path fill="#E8E8F8" d="M36,51h1v2h-1V51z"/>
<path fill="#E7E8F8" d="M37,51h1v1h-1V51z"/>
<path fill="#303051" d="M38,51h1v1h-1V51z"/>
<path fill="#986090" d="M54,51h1v1h-1V51z"/>
<path fill="#B0B0C8" d="M55,51h1v1h-1V51z"/>
<path fill="#D89870" d="M57,51h2v1h-2V51z"/>
<path fill="#E8E8F8" d="M60,51h1v1h-1V51z"/>
<path fill="#040404" d="M76,51h1v2h-1V51z"/>
<path fill="#986090" d="M77,51h1v1h-1V51z"/>
<path fill="#D89870" d="M81,51h2v1h-2V51z"/>
<path fill="#030303" d="M8,52h1v1H8V52z"/>
<path fill="#986090" d="M9,52h1v1H9V52z"/>
<path fill="#B0B0C8" d="M10,52h1v1h-1V52z"/>
<path fill="#030303" d="M11,52h2v1h-2V52z"/>
<path fill="#E8E8F8" d="M13,52h1v1h-1V52z"/>
<path fill="#030303" d="M14,52h1v1h-1V52z"/>
<path fill="#040404" d="M29,52h1v3h-1V52z"/>
<path fill="#303051" d="M30,52h1v1h-1V52z"/>
<path fill="#98608F" d="M31,52h1v1h-1V52z"/>
<path fill="#040404" d="M32,52h2v1h-2V52z"/>
<path fill="#E8E9F8" d="M34,52h2v1h-2V52z"/>
<path fill="#99608F" d="M37,52h1v1h-1V52z"/>
<path fill="#303050" d="M38,52h1v1h-1V52z"/>
<path fill="#040404" d="M54,52h1v1h-1V52z"/>
<path fill="#986090" d="M55,52h1v1h-1V52z"/>
<path fill="#B0B0C8" d="M56,52h1v1h-1V52z"/>
<path fill="#040404" d="M57,52h2v1h-2V52z"/>
<path fill="#E8E8F8" d="M59,52h1v1h-1V52z"/>
<path fill="#040404" d="M60,52h1v1h-1V52z"/>
<path fill="#303050" d="M77,52h1v1h-1V52z"/>
<path fill="#986090" d="M78,52h1v1h-1V52z"/>
<path fill="#040404" d="M81,52h2v1h-2V52z"/>
<path fill="#E8E8F8" d="M83,52h1v1h-1V52z"/>
<path fill="#606080" d="M84,52h1v1h-1V52z"/>
<path fill="#303050" d="M85,52h1v2h-3v-1h2V52z"/>
<path fill="#040404" d="M86,52h1v2h-1V52z"/>
<path fill="#030303" d="M9,53h1v1H9V53z"/>
<path fill="#585080" d="M10,53h3v1h-3V53z"/>
<path fill="#030303" d="M13,53h1v1h-1V53z"/>
<path fill="#303050" d="M30,53h1v2h-1V53z"/>
<path fill="#D79770" d="M31,53h1v1h-1V53z"/>
<path fill="#98608F" d="M32,53h1v1h-1V53z"/>
<path fill="#B0B0C8" d="M33,53h1v1h-1V53z"/>
<path fill="#AFAFC8" d="M34,53h1v1h-1V53z"/>
<path fill="#E7E8F7" d="M35,53h1v1h-1V53z"/>
<path fill="#98608E" d="M36,53h1v1h-1V53z"/>
<path fill="#F8CFB8" d="M37,53h1v1h-1V53z"/>
<path fill="#585180" d="M38,53h1v1h-1V53z"/>
<path fill="#303050" d="M39,53h1v1h-1V53z"/>
<path fill="#040404" d="M55,53h1v1h-1V53z"/>
<path fill="#585080" d="M56,53h3v1h-3V53z"/>
<path fill="#040404" d="M59,53h1v1h-1V53z"/>
<path fill="#040404" d="M75,53h1v2h-1V53z"/>
<path fill="#585080" d="M76,53h1v1h1v1h-2V53z"/>
<path fill="#F8D0B8" d="M77,53h2v1h-2V53z"/>
<path fill="#986090" d="M79,53h4v1h-4V53z"/>
<path fill="#030303" d="M10,54h3v1h-3V54z"/>
<path fill="#303051" d="M31,54h1v1h-1V54z"/>
<path fill="#040404" d="M32,54h1v1h-1V54z"/>
<path fill="#98608F" d="M33,54h1v1h-1V54z"/>
<path fill="#996090" d="M34,54h1v1h-1V54z"/>
<path fill="#040404" d="M35,54h1v1h-1V54z"/>
<path fill="#5A5181" d="M36,54h1v1h-1V54z"/>
<path fill="#585080" d="M37,54h1v1h-1V54z"/>
<path fill="#595181" d="M38,54h1v1h-1V54z"/>
<path fill="#040404" d="M39,54h1v1h-1V54z"/>
<path fill="#040404" d="M56,54h3v1h-3V54z"/>
<path fill="#040404" d="M78,54h4v1h-4V54z"/>
<path fill="#040404" d="M84,54h2v1h-2V54z"/>
<path fill="#040404" d="M30,55h2v1h-2V55z"/>
<path fill="#040404" d="M36,55h3v1h-3V55z"/>
<path fill="#040404" d="M76,55h2v1h-2V55z"/>
<path fill="#373840" d="M9,60h5v1H9V60z"/>
<path fill="#373840" d="M32,60h5v1h-5V60z"/>
<path fill="#373840" d="M55,60h5v1h-5V60z"/>
<path fill="#373840" d="M78,60h5v1h-5V60z"/>
<path fill="#373840" d="M7,61h2v1H7V61z"/>
<path fill="#707688" d="M9,61h1v1H9V61z"/>
<path fill="#515060" d="M10,61h3v1h3v1h1v2h1v2h1v2h-1v1h-2v1h-2v1H9v-1H7v-1H5v-1H4v-2h1v-2h1v-2h1v2h1v1h2v-1H9v-3h1V61z"/>
<path fill="#707688" d="M13,61h1v1h-1V61z"/>
<path fill="#373840" d="M14,61h2v1h-2V61z"/>
<path fill="#373840" d="M30,61h2v1h-2V61z"/>
<path fill="#707688" d="M32,61h1v1h-1V61z"/>
<path fill="#515060" d="M33,61h3v1h3v1h1v2h1v2h1v2h-1v1h-2v1h-2v1h-5v-1h-2v-1h-2v-1h-1v-2h1v-2h1v-2h1v2h1v1h2v-1h-1v-3h1V61z"/>
<path fill="#707688" d="M36,61h1v1h-1V61z"/>
<path fill="#373840" d="M37,61h2v1h-2V61z"/>
<path fill="#373840" d="M53,61h2v1h-2V61z"/>
<path fill="#707688" d="M55,61h1v1h-1V61z"/>
<path fill="#515060" d="M56,61h3v1h3v1h1v2h1v2h1v2h-1v1h-2v1h-2v1h-5v-1h-2v-1h-2v-1h-1v-2h1v-2h1v-2h1v2h1v1h2v-1h-1v-3h1V61z"/>
<path fill="#707688" d="M59,61h1v1h-1V61z"/>
<path fill="#373840" d="M60,61h2v1h-2V61z"/>
<path fill="#373840" d="M76,61h2v1h-2V61z"/>
<path fill="#707688" d="M78,61h1v1h-1V61z"/>
<path fill="#515060" d="M79,61h3v1h3v1h1v2h1v2h1v2h-1v1h-2v1h-2v1h-5v-1h-2v-1h-2v-1h-1v-2h1v-2h1v-2h1v2h1v1h2v-1h-1v-3h1V61z"/>
<path fill="#707688" d="M82,61h1v1h-1V61z"/>
<path fill="#373840" d="M83,61h2v1h-2V61z"/>
<path fill="#373840" d="M6,62h1v1H6V62z"/>
<path fill="#515060" d="M7,62h1v1H7V62z"/>
<path fill="#707688" d="M8,62h1v3h1v1H8v-1H7v-2h1V62z"/>
<path fill="#373840" d="M11,62h1v1h1v1h-1v1h-1v-1h-1v-1h1V62z"/>
<path fill="#373840" d="M16,62h1v1h-1V62z"/>
<path fill="#373840" d="M29,62h1v1h-1V62z"/>
<path fill="#515060" d="M30,62h1v1h-1V62z"/>
<path fill="#707688" d="M31,62h1v3h1v1h-2v-1h-1v-2h1V62z"/>
<path fill="#373840" d="M34,62h1v1h1v1h-1v1h-1v-1h-1v-1h1V62z"/>
<path fill="#373840" d="M39,62h1v1h-1V62z"/>
<path fill="#373840" d="M52,62h1v1h-1V62z"/>
<path fill="#515060" d="M53,62h1v1h-1V62z"/>
<path fill="#707688" d="M54,62h1v3h1v1h-2v-1h-1v-2h1V62z"/>
<path fill="#373840" d="M57,62h1v1h1v1h-1v1h-1v-1h-1v-1h1V62z"/>
<path fill="#373840" d="M62,62h1v1h-1V62z"/>
<path fill="#373840" d="M75,62h1v1h-1V62z"/>
<path fill="#515060" d="M76,62h1v1h-1V62z"/>
<path fill="#707688" d="M77,62h1v3h1v1h-2v-1h-1v-2h1V62z"/>
<path fill="#373840" d="M80,62h1v1h1v1h-1v1h-1v-1h-1v-1h1V62z"/>
<path fill="#373840" d="M85,62h1v1h-1V62z"/>
<path fill="#010101" d="M5,63h1v1H5V63z"/>
<path fill="#707688" d="M14,63h1v2h-1V63z"/>
<path fill="#010101" d="M17,63h1v1h-1V63z"/>
<path fill="#010101" d="M28,63h1v1h-1V63z"/>
<path fill="#707688" d="M37,63h1v2h-1V63z"/>
<path fill="#010101" d="M40,63h1v1h-1V63z"/>
<path fill="#010101" d="M51,63h1v1h-1V63z"/>
<path fill="#707688" d="M60,63h1v2h-1V63z"/>
<path fill="#010101" d="M63,63h1v1h-1V63z"/>
<path fill="#010101" d="M74,63h1v1h-1V63z"/>
<path fill="#707688" d="M83,63h1v2h-1V63z"/>
<path fill="#010101" d="M86,63h1v1h-1V63z"/>
<path fill="#373840" d="M5,64h1v1H5V64z"/>
<path fill="#373840" d="M17,64h1v1h-1V64z"/>
<path fill="#373840" d="M28,64h1v1h-1V64z"/>
<path fill="#373840" d="M40,64h1v1h-1V64z"/>
<path fill="#373840" d="M51,64h1v1h-1V64z"/>
<path fill="#373840" d="M63,64h1v1h-1V64z"/>
<path fill="#373840" d="M74,64h1v1h-1V64z"/>
<path fill="#373840" d="M86,64h1v1h-1V64z"/>
<path fill="#010101" d="M4,65h1v2H4V65z"/>
<path fill="#707688" d="M13,65h1v1h-1V65z"/>
<path fill="#010101" d="M18,65h1v2h-1V65z"/>
<path fill="#010101" d="M27,65h1v2h-1V65z"/>
<path fill="#707688" d="M36,65h1v1h-1V65z"/>
<path fill="#010101" d="M41,65h1v2h-1V65z"/>
<path fill="#010101" d="M50,65h1v2h-1V65z"/>
<path fill="#707688" d="M59,65h1v1h-1V65z"/>
<path fill="#010101" d="M64,65h1v2h-1V65z"/>
<path fill="#010101" d="M73,65h1v2h-1V65z"/>
<path fill="#707688" d="M82,65h1v1h-1V65z"/>
<path fill="#010101" d="M87,65h1v2h-1V65z"/>
<path fill="#707688" d="M10,66h2v1h-2V66z"/>
<path fill="#707688" d="M33,66h2v1h-2V66z"/>
<path fill="#707688" d="M56,66h2v1h-2V66z"/>
<path fill="#707688" d="M79,66h2v1h-2V66z"/>
<path fill="#010101" d="M3,67h1v4H3V67z"/>
<path fill="#010101" d="M19,67h1v4h-1V67z"/>
<path fill="#010101" d="M26,67h1v4h-1V67z"/>
<path fill="#010101" d="M42,67h1v4h-1V67z"/>
<path fill="#010101" d="M49,67h1v4h-1V67z"/>
<path fill="#010101" d="M65,67h1v4h-1V67z"/>
<path fill="#010101" d="M72,67h1v4h-1V67z"/>
<path fill="#010101" d="M88,67h1v4h-1V67z"/>
<path fill="#373840" d="M4,69h1v1H4V69z"/>
<path fill="#373840" d="M18,69h1v1h-1V69z"/>
<path fill="#373840" d="M27,69h1v1h-1V69z"/>
<path fill="#373840" d="M41,69h1v1h-1V69z"/>
<path fill="#373840" d="M50,69h1v1h-1V69z"/>
<path fill="#373840" d="M64,69h1v1h-1V69z"/>
<path fill="#373840" d="M73,69h1v1h-1V69z"/>
<path fill="#373840" d="M87,69h1v1h-1V69z"/>
<path fill="#D79770" d="M4,70h1v1H4V70z"/>
<path fill="#373840" d="M5,70h2v1h2v1h5v-1h2v-1h2v4h1v2h-1v-1h-1v1h-1v1h-2v1H9v-1H7v-1H6v-1H5v1H4v-2h1V70z"/>
<path fill="#D79770" d="M18,70h1v1h-1V70z"/>
<path fill="#D79770" d="M27,70h1v1h-1V70z"/>
<path fill="#373840" d="M28,70h2v1h2v1h5v-1h2v-1h2v4h1v2h-1v-1h-1v1h-1v1h-2v1h-5v-1h-2v-1h-1v-1h-1v1h-1v-2h1V70z"/>
<path fill="#D79770" d="M41,70h1v1h-1V70z"/>
<path fill="#D79770" d="M50,70h1v1h-1V70z"/>
<path fill="#373840" d="M51,70h2v1h2v1h5v-1h2v-1h2v4h1v2h-1v-1h-1v1h-1v1h-2v1h-5v-1h-2v-1h-1v-1h-1v1h-1v-2h1V70z"/>
<path fill="#D79770" d="M64,70h1v1h-1V70z"/>
<path fill="#D79770" d="M73,70h1v1h-1V70z"/>
<path fill="#373840" d="M74,70h2v1h2v1h5v-1h2v-1h2v4h1v2h-1v-1h-1v1h-1v1h-2v1h-5v-1h-2v-1h-1v-1h-1v1h-1v-2h1V70z"/>
<path fill="#D79770" d="M87,70h1v1h-1V70z"/>
<path fill="#010101" d="M4,71h1v3H4V71z"/>
<path fill="#010101" d="M18,71h1v3h-1V71z"/>
<path fill="#010101" d="M27,71h1v3h-1V71z"/>
<path fill="#010101" d="M41,71h1v3h-1V71z"/>
<path fill="#010101" d="M50,71h1v3h-1V71z"/>
<path fill="#010101" d="M64,71h1v3h-1V71z"/>
<path fill="#010101" d="M73,71h1v3h-1V71z"/>
<path fill="#010101" d="M87,71h1v3h-1V71z"/>
<path fill="#010101" d="M3,74h1v2H3V74z"/>
<path fill="#010101" d="M19,74h1v2h-1V74z"/>
<path fill="#010101" d="M26,74h1v2h-1V74z"/>
<path fill="#010101" d="M42,74h1v2h-1V74z"/>
<path fill="#010101" d="M49,74h1v2h-1V74z"/>
<path fill="#010101" d="M65,74h1v2h-1V74z"/>
<path fill="#010101" d="M72,74h1v2h-1V74z"/>
<path fill="#010101" d="M88,74h1v2h-1V74z"/>
<path fill="#010101" d="M5,75h1v1H5V75z"/>
<path fill="#010101" d="M17,75h1v1h-1V75z"/>
<path fill="#010101" d="M28,75h1v1h-1V75z"/>
<path fill="#010101" d="M40,75h1v1h-1V75z"/>
<path fill="#010101" d="M51,75h1v1h-1V75z"/>
<path fill="#010101" d="M63,75h1v1h-1V75z"/>
<path fill="#010101" d="M74,75h1v1h-1V75z"/>
<path fill="#010101" d="M86,75h1v1h-1V75z"/>
<path fill="#010101" d="M4,76h1v1H4V76z"/>
<path fill="#D7976F" d="M5,76h1v1H5V76z"/>
<path fill="#783F3E" d="M6,76h1v1H6V76z"/>
<path fill="#793F3F" d="M16,76h1v1h-1V76z"/>
<path fill="#D7976F" d="M17,76h1v1h-1V76z"/>
<path fill="#010101" d="M18,76h1v1h-1V76z"/>
<path fill="#783F40" d="M26,76h1v1h-1V76z"/>
<path fill="#D89870" d="M27,76h2v2h-1v-1h-1V76z"/>
<path fill="#783F40" d="M29,76h1v1h-1V76z"/>
<path fill="#783F40" d="M39,76h1v1h-1V76z"/>
<path fill="#373840" d="M40,76h1v1h-1V76z"/>
<path fill="#010101" d="M41,76h1v1h-1V76z"/>
<path fill="#010101" d="M50,76h1v1h-1V76z"/>
<path fill="#D89870" d="M51,76h1v1h-1V76z"/>
<path fill="#783F3F" d="M52,76h1v1h-1V76z"/>
<path fill="#793F3F" d="M62,76h1v1h-1V76z"/>
<path fill="#D79770" d="M63,76h1v1h-1V76z"/>
<path fill="#010101" d="M64,76h1v1h-1V76z"/>
<path fill="#010101" d="M73,76h1v1h-1V76z"/>
<path fill="#373840" d="M74,76h1v1h-1V76z"/>
<path fill="#794040" d="M75,76h1v1h-1V76z"/>
<path fill="#783F40" d="M85,76h1v1h-1V76z"/>
<path fill="#D79770" d="M86,76h1v1h-1V76z"/>
<path fill="#D89870" d="M87,76h1v1h-1V76z"/>
<path fill="#783F40" d="M88,76h1v2h-1V76z"/>
<path fill="#783F3F" d="M3,77h1v1H3V77z"/>
<path fill="#F8D0B8" d="M4,77h1v1H4V77z"/>
<path fill="#D89870" d="M5,77h1v1H5V77z"/>
<path fill="#D7976F" d="M6,77h1v1H6V77z"/>
<path fill="#010101" d="M7,77h2v1H8v1H7V77z"/>
<path fill="#010101" d="M14,77h2v2h-1v-1h-1V77z"/>
<path fill="#D6966F" d="M16,77h1v1h-1V77z"/>
<path fill="#D89870" d="M17,77h1v1h-1V77z"/>
<path fill="#F8D0B8" d="M18,77h1v2h-2v-1h1V77z"/>
<path fill="#783E40" d="M19,77h1v1h-1V77z"/>
<path fill="#794040" d="M26,77h1v1h-1V77z"/>
<path fill="#D79770" d="M27,77h1v1h-1V77z"/>
<path fill="#D79770" d="M29,77h1v1h-1V77z"/>
<path fill="#010101" d="M30,77h2v1h-1v1h-1V77z"/>
<path fill="#010101" d="M37,77h2v3h-1v-2h-1V77z"/>
<path fill="#D89870" d="M39,77h1v1h-1V77z"/>
<path fill="#783F3F" d="M40,77h1v1h-1V77z"/>
<path fill="#783F3F" d="M49,77h1v1h-1V77z"/>
<path fill="#F8D0B9" d="M50,77h1v2h-1V77z"/>
<path fill="#D79770" d="M51,77h1v1h-1V77z"/>
<path fill="#D7976F" d="M52,77h1v1h-1V77z"/>
<path fill="#010101" d="M53,77h2v1h-1v1h-1V77z"/>
<path fill="#010101" d="M60,77h2v2h-1v-1h-1V77z"/>
<path fill="#D79770" d="M62,77h1v1h-1V77z"/>
<path fill="#D89870" d="M63,77h1v1h-1V77z"/>
<path fill="#F8D0B9" d="M64,77h1v1h-1V77z"/>
<path fill="#783E3F" d="M65,77h1v1h-1V77z"/>
<path fill="#794040" d="M74,77h1v1h-1V77z"/>
<path fill="#D89770" d="M75,77h1v1h-1V77z"/>
<path fill="#010101" d="M76,77h2v1h-1v2h-1V77z"/>
<path fill="#010101" d="M83,77h2v2h-1v-1h-1V77z"/>
<path fill="#D89870" d="M85,77h2v1h-2V77z"/>
<path fill="#D79770" d="M87,77h1v1h-1V77z"/>
<path fill="#793F40" d="M3,78h1v1H3V78z"/>
<path fill="#F8CFB9" d="M4,78h1v1H4V78z"/>
<path fill="#F7CFB8" d="M5,78h1v1H5V78z"/>
<path fill="#793F40" d="M6,78h1v1H6V78z"/>
<path fill="#AFAFC8" d="M8,78h1v3H8v-1H7v-1h1V78z"/>
<path fill="#010101" d="M9,78h5v1H9V78z"/>
<path fill="#B0B0C9" d="M14,78h1v1h-1V78z"/>
<path fill="#783F40" d="M16,78h1v1h-1V78z"/>
<path fill="#783F3E" d="M19,78h1v1h-1V78z"/>
<path fill="#783F3F" d="M27,78h1v1h-1V78z"/>
<path fill="#784040" d="M28,78h1v1h-1V78z"/>
<path fill="#794040" d="M29,78h1v1h-1V78z"/>
<path fill="#AFAFC8" d="M31,78h1v1h-1V78z"/>
<path fill="#010101" d="M32,78h5v1h-5V78z"/>
<path fill="#B0B0C8" d="M37,78h1v1h-1V78z"/>
<path fill="#F8D0B9" d="M39,78h1v1h-1V78z"/>
<path fill="#F8D0B8" d="M40,78h1v1h-1V78z"/>
<path fill="#783F40" d="M41,78h1v2h-1V78z"/>
<path fill="#793F40" d="M49,78h1v1h-1V78z"/>
<path fill="#F7CFB8" d="M51,78h1v1h-1V78z"/>
<path fill="#7A4040" d="M52,78h1v1h-1V78z"/>
<path fill="#AFAFC8" d="M54,78h1v2h-1V78z"/>
<path fill="#010101" d="M55,78h5v1h-5V78z"/>
<path fill="#AFAFC8" d="M60,78h1v1h-1V78z"/>
<path fill="#783F3F" d="M62,78h1v1h-1V78z"/>
<path fill="#F8D0B8" d="M63,78h2v1h-2V78z"/>
<path fill="#783F3E" d="M65,78h1v1h-1V78z"/>
<path fill="#783F40" d="M73,78h1v1h-1V78z"/>
<path fill="#F8D0B8" d="M74,78h2v1h-2V78z"/>
<path fill="#B0B0C8" d="M77,78h1v1h-1V78z"/>
<path fill="#010101" d="M78,78h5v1h-5V78z"/>
<path fill="#B0B0C8" d="M83,78h1v2h-3v-1h2V78z"/>
<path fill="#794040" d="M85,78h1v1h-1V78z"/>
<path fill="#784040" d="M86,78h1v1h-1V78z"/>
<path fill="#783F40" d="M87,78h1v1h-1V78z"/>
<path fill="#783E40" d="M4,79h2v1H4V79z"/>
<path fill="#010101" d="M6,79h1v3H6V79z"/>
<path fill="#B0B0C9" d="M9,79h1v1H9V79z"/>
<path fill="#B0B0C8" d="M10,79h2v1h-2V79z"/>
<path fill="#AEAEC8" d="M12,79h2v1h-2V79z"/>
<path fill="#AFAFC8" d="M14,79h2v1h-2V79z"/>
<path fill="#010101" d="M16,79h1v3h-1V79z"/>
<path fill="#783F40" d="M17,79h1v1h-1V79z"/>
<path fill="#793F40" d="M18,79h1v1h-1V79z"/>
<path fill="#010101" d="M29,79h1v4h-1V79z"/>
<path fill="#AFAFC8" d="M30,79h1v1h-1V79z"/>
<path fill="#B0B0C8" d="M31,79h1v2h-1V79z"/>
<path fill="#AFAFC8" d="M32,79h2v1h-2V79z"/>
<path fill="#B0B0C8" d="M34,79h2v1h-2V79z"/>
<path fill="#B0B0C9" d="M36,79h1v1h-1V79z"/>
<path fill="#AFAFC8" d="M37,79h1v1h-1V79z"/>
<path fill="#D7976F" d="M39,79h1v1h-1V79z"/>
<path fill="#D89770" d="M40,79h1v1h-1V79z"/>
<path fill="#793F40" d="M50,79h1v1h-1V79z"/>
<path fill="#783E40" d="M51,79h1v1h-1V79z"/>
<path fill="#010101" d="M52,79h1v3h-1V79z"/>
<path fill="#AEAEC8" d="M53,79h1v1h-1V79z"/>
<path fill="#B0B0C8" d="M55,79h1v1h-1V79z"/>
<path fill="#B0AFC8" d="M56,79h1v1h-1V79z"/>
<path fill="#B0B0C9" d="M57,79h1v1h-1V79z"/>
<path fill="#AFAFC8" d="M58,79h1v1h-1V79z"/>
<path fill="#AEAEC8" d="M59,79h1v1h-1V79z"/>
<path fill="#B0B0C8" d="M60,79h2v1h-2V79z"/>
<path fill="#010101" d="M62,79h1v3h-1V79z"/>
<path fill="#783F3F" d="M63,79h1v1h-1V79z"/>
<path fill="#793F40" d="M64,79h1v1h-1V79z"/>
<path fill="#794040" d="M73,79h1v1h-1V79z"/>
<path fill="#D89870" d="M74,79h2v1h-2V79z"/>
<path fill="#AFAFC8" d="M77,79h2v1h-1v1h-1V79z"/>
<path fill="#B0B0C8" d="M79,79h1v1h-1V79z"/>
<path fill="#B0B0C9" d="M80,79h1v1h-1V79z"/>
<path fill="#AFAFC8" d="M84,79h1v1h-1V79z"/>
<path fill="#010101" d="M85,79h1v4h-1V79z"/>
<path fill="#98608E" d="M7,80h1v1H7V80z"/>
<path fill="#E8E9F8" d="M9,80h4v1H9V80z"/>
<path fill="#E8E8F8" d="M13,80h1v1h-1V80z"/>
<path fill="#AEAEC8" d="M14,80h1v1h-1V80z"/>
<path fill="#98608E" d="M15,80h1v1h-1V80z"/>
<path fill="#98608F" d="M30,80h1v1h-1V80z"/>
<path fill="#E8E8F8" d="M32,80h1v1h-1V80z"/>
<path fill="#E7E8F7" d="M33,80h1v1h-1V80z"/>
<path fill="#E8E8F8" d="M34,80h1v1h-1V80z"/>
<path fill="#E7E8F8" d="M35,80h1v1h-1V80z"/>
<path fill="#E8E9F8" d="M36,80h1v1h-1V80z"/>
<path fill="#B0AFC8" d="M37,80h1v1h-1V80z"/>
<path fill="#606080" d="M38,80h1v1h-1V80z"/>
<path fill="#010101" d="M39,80h2v1h-2V80z"/>
<path fill="#98608F" d="M53,80h1v1h-1V80z"/>
<path fill="#B0B0C8" d="M54,80h1v1h-1V80z"/>
<path fill="#E8E8F8" d="M55,80h2v1h2v1h-3v-1h-1V80z"/>
<path fill="#E8E9F8" d="M57,80h2v1h-2V80z"/>
<path fill="#E8E8F8" d="M59,80h1v1h-1V80z"/>
<path fill="#AFAFC8" d="M60,80h1v1h-1V80z"/>
<path fill="#98608F" d="M61,80h1v1h-1V80z"/>
<path fill="#010101" d="M74,80h2v1h-2V80z"/>
<path fill="#606080" d="M76,80h1v1h-1V80z"/>
<path fill="#E8E8F8" d="M78,80h1v1h-1V80z"/>
<path fill="#E8E9F8" d="M79,80h1v1h-1V80z"/>
<path fill="#E8E8F8" d="M80,80h1v2h-1V80z"/>
<path fill="#E7E8F8" d="M81,80h1v2h-1V80z"/>
<path fill="#E8E8F8" d="M82,80h1v1h-1V80z"/>
<path fill="#B0B0C9" d="M83,80h1v1h-1V80z"/>
<path fill="#98608F" d="M84,80h1v1h-1V80z"/>
<path fill="#D79770" d="M7,81h1v1H7V81z"/>
<path fill="#98608F" d="M8,81h1v1H8V81z"/>
<path fill="#AEAEC8" d="M9,81h1v1H9V81z"/>
<path fill="#E7E8F7" d="M10,81h1v1h-1V81z"/>
<path fill="#E8E8F8" d="M11,81h2v1h-2V81z"/>
<path fill="#B0B0C8" d="M13,81h1v1h-1V81z"/>
<path fill="#996090" d="M14,81h1v1h-1V81z"/>
<path fill="#D7976F" d="M15,81h1v1h-1V81z"/>
<path fill="#D89870" d="M30,81h1v1h-1V81z"/>
<path fill="#986090" d="M31,81h1v1h-1V81z"/>
<path fill="#B0B0C8" d="M32,81h1v1h-1V81z"/>
<path fill="#E8E9F8" d="M33,81h1v1h-1V81z"/>
<path fill="#E7E8F7" d="M34,81h2v1h-2V81z"/>
<path fill="#010101" d="M36,81h3v1h-3V81z"/>
<path fill="#D79770" d="M53,81h1v1h-1V81z"/>
<path fill="#99608F" d="M54,81h1v1h-1V81z"/>
<path fill="#AEAEC8" d="M55,81h1v1h-1V81z"/>
<path fill="#B0B0C8" d="M59,81h1v1h-1V81z"/>
<path fill="#986090" d="M60,81h1v1h-1V81z"/>
<path fill="#D7976F" d="M61,81h1v1h-1V81z"/>
<path fill="#010101" d="M76,81h3v1h-3V81z"/>
<path fill="#E7E8F7" d="M79,81h1v1h-1V81z"/>
<path fill="#AFAFC8" d="M82,81h1v1h-1V81z"/>
<path fill="#986090" d="M83,81h1v1h-1V81z"/>
<path fill="#D89870" d="M84,81h1v1h-1V81z"/>
<path fill="#010101" d="M7,82h1v1H7V82z"/>
<path fill="#595181" d="M8,82h1v1H8V82z"/>
<path fill="#585080" d="M9,82h1v1H9V82z"/>
<path fill="#010101" d="M10,82h3v1h-3V82z"/>
<path fill="#5A5182" d="M13,82h1v1h-1V82z"/>
<path fill="#585280" d="M14,82h1v1h-1V82z"/>
<path fill="#010101" d="M15,82h1v1h-1V82z"/>
<path fill="#303050" d="M30,82h1v1h-1V82z"/>
<path fill="#D89870" d="M31,82h2v1h-2V82z"/>
<path fill="#010101" d="M33,82h3v1h-2v2h-1V82z"/>
<path fill="#010101" d="M53,82h1v1h-1V82z"/>
<path fill="#595081" d="M54,82h1v1h-1V82z"/>
<path fill="#585180" d="M55,82h1v1h-1V82z"/>
<path fill="#010101" d="M56,82h3v1h-3V82z"/>
<path fill="#595081" d="M59,82h1v1h-1V82z"/>
<path fill="#585280" d="M60,82h1v1h-1V82z"/>
<path fill="#010101" d="M61,82h1v1h-1V82z"/>
<path fill="#010101" d="M79,82h3v3h-1v-2h-2V82z"/>
<path fill="#D89870" d="M82,82h1v1h-1V82z"/>
<path fill="#D7976F" d="M83,82h1v1h-1V82z"/>
<path fill="#303050" d="M84,82h1v1h-1V82z"/>
<path fill="#010101" d="M8,83h2v1H8V83z"/>
<path fill="#010101" d="M13,83h2v1h-2V83z"/>
<path fill="#010101" d="M30,83h1v2h-1V83z"/>
<path fill="#303050" d="M31,83h2v1h-2V83z"/>
<path fill="#010101" d="M54,83h2v1h-2V83z"/>
<path fill="#010101" d="M59,83h2v1h-2V83z"/>
<path fill="#303151" d="M82,83h1v1h-1V83z"/>
<path fill="#303050" d="M83,83h1v1h-1V83z"/>
<path fill="#010101" d="M84,83h1v2h-1V83z"/>
<path fill="#595181" d="M31,84h2v1h-2V84z"/>
<path fill="#585080" d="M82,84h2v1h-2V84z"/>
<path fill="#010101" d="M31,85h2v1h-2V85z"/>
<path fill="#010101" d="M82,85h2v1h-2V85z"/>
<path fill="#373840" d="M10,89h4v1h-4V89z"/>
<path fill="#373840" d="M33,89h4v1h-4V89z"/>
<path fill="#373840" d="M56,89h4v1h-4V89z"/>
<path fill="#373840" d="M79,89h4v1h-4V89z"/>
<path fill="#373840" d="M8,90h2v1H8V90z"/>
<path fill="#515060" d="M10,90h4v1h2v1h-1v1h-1v1h-2v1h-2v-1H9v1h1v1h1v1h2v-1h2v2h1v2h-1v-1h-1v-1h-1v1h1v1h1v1h-1v2h-1v-3h-2v-1
	h-1v-1H9v-1H8v-2H7v1H6v3H5v-4h1v-2h1v-1h1v-1h2V90z"/>
<path fill="#373840" d="M14,90h2v1h-2V90z"/>
<path fill="#373840" d="M31,90h2v1h-2V90z"/>
<path fill="#515060" d="M33,90h4v1h2v1h-1v1h-1v1h-2v1h-2v-1h-1v1h1v1h1v1h2v-1h2v2h1v2h-1v-1h-1v-1h-1v1h1v1h1v1h-1v2h-1v-3h-2v-1
	h-1v-1h-1v-1h-1v-2h-1v1h-1v3h-1v-4h1v-2h1v-1h1v-1h2V90z"/>
<path fill="#373840" d="M37,90h2v1h-2V90z"/>
<path fill="#373840" d="M54,90h2v1h-2V90z"/>
<path fill="#515060" d="M56,90h4v1h2v1h-1v1h-1v1h-2v1h-2v-1h-1v1h1v1h1v1h2v-1h2v2h1v2h-1v-1h-1v-1h-1v1h1v1h1v1h-1v2h-1v-3h-2v-1
	h-1v-1h-1v-1h-1v-2h-1v1h-1v3h-1v-4h1v-2h1v-1h1v-1h2V90z"/>
<path fill="#373840" d="M60,90h2v1h-2V90z"/>
<path fill="#373840" d="M77,90h2v1h-2V90z"/>
<path fill="#515060" d="M79,90h4v1h2v1h-1v1h-1v1h-2v1h-2v-1h-1v1h1v1h1v1h2v-1h2v2h1v2h-1v-1h-1v-1h-1v1h1v1h1v1h-1v2h-1v-3h-2v-1
	h-1v-1h-1v-1h-1v-2h-1v1h-1v3h-1v-4h1v-2h1v-1h1v-1h2V90z"/>
<path fill="#373840" d="M83,90h2v1h-2V90z"/>
<path fill="#010101" d="M7,91h1v1H7V91z"/>
<path fill="#373840" d="M16,91h1v1h-1V91z"/>
<path fill="#010101" d="M30,91h1v1h-1V91z"/>
<path fill="#373840" d="M39,91h1v1h-1V91z"/>
<path fill="#010101" d="M53,91h1v1h-1V91z"/>
<path fill="#373840" d="M62,91h1v1h-1V91z"/>
<path fill="#010101" d="M76,91h1v1h-1V91z"/>
<path fill="#373840" d="M85,91h1v1h-1V91z"/>
<path fill="#010101" d="M6,92h1v1H6V92z"/>
<path fill="#707688" d="M15,92h1v1h-1V92z"/>
<path fill="#515060" d="M16,92h1v1h-1V92z"/>
<path fill="#373840" d="M17,92h1v1h-1V92z"/>
<path fill="#010101" d="M29,92h1v1h-1V92z"/>
<path fill="#707688" d="M38,92h1v1h-1V92z"/>
<path fill="#515060" d="M39,92h1v1h-1V92z"/>
<path fill="#373840" d="M40,92h1v1h-1V92z"/>
<path fill="#010101" d="M52,92h1v1h-1V92z"/>
<path fill="#707688" d="M61,92h1v1h-1V92z"/>
<path fill="#515060" d="M62,92h1v1h-1V92z"/>
<path fill="#373840" d="M63,92h1v1h-1V92z"/>
<path fill="#010101" d="M75,92h1v1h-1V92z"/>
<path fill="#707688" d="M84,92h1v1h-1V92z"/>
<path fill="#515060" d="M85,92h1v1h-1V92z"/>
<path fill="#373840" d="M86,92h1v1h-1V92z"/>
<path fill="#010101" d="M5,93h1v2H5V93z"/>
<path fill="#707688" d="M14,93h1v1h1v1h-1v1h-2v1h-2v-1h-1v-1h2v-1h2V93z"/>
<path fill="#515060" d="M15,93h1v1h-1V93z"/>
<path fill="#707688" d="M16,93h1v1h-1V93z"/>
<path fill="#515060" d="M17,93h1v2h1v2h-1v2h-1v-1h-1v-2h-1v-1h1v-1h1V93z"/>
<path fill="#010101" d="M18,93h1v2h-1V93z"/>
<path fill="#010101" d="M28,93h1v2h-1V93z"/>
<path fill="#707688" d="M37,93h1v1h1v1h-1v1h-2v1h-2v-1h-1v-1h2v-1h2V93z"/>
<path fill="#515060" d="M38,93h1v1h-1V93z"/>
<path fill="#707688" d="M39,93h1v1h-1V93z"/>
<path fill="#515060" d="M40,93h1v2h1v2h-1v2h-1v-1h-1v-2h-1v-1h1v-1h1V93z"/>
<path fill="#010101" d="M41,93h1v2h-1V93z"/>
<path fill="#010101" d="M51,93h1v2h-1V93z"/>
<path fill="#707688" d="M60,93h1v1h1v1h-1v1h-2v1h-2v-1h-1v-1h2v-1h2V93z"/>
<path fill="#515060" d="M61,93h1v1h-1V93z"/>
<path fill="#707688" d="M62,93h1v1h-1V93z"/>
<path fill="#515060" d="M63,93h1v2h1v2h-1v2h-1v-1h-1v-2h-1v-1h1v-1h1V93z"/>
<path fill="#010101" d="M64,93h1v2h-1V93z"/>
<path fill="#010101" d="M74,93h1v2h-1V93z"/>
<path fill="#707688" d="M83,93h1v1h1v1h-1v1h-2v1h-2v-1h-1v-1h2v-1h2V93z"/>
<path fill="#515060" d="M84,93h1v1h-1V93z"/>
<path fill="#707688" d="M85,93h1v1h-1V93z"/>
<path fill="#515060" d="M86,93h1v2h1v2h-1v2h-1v-1h-1v-2h-1v-1h1v-1h1V93z"/>
<path fill="#010101" d="M87,93h1v2h-1V93z"/>
<path fill="#707688" d="M9,94h1v1H9V94z"/>
<path fill="#707688" d="M32,94h1v1h-1V94z"/>
<path fill="#707688" d="M55,94h1v1h-1V94z"/>
<path fill="#707688" d="M78,94h1v1h-1V94z"/>
<path fill="#010101" d="M4,95h1v4H4V95z"/>
<path fill="#373840" d="M7,95h1v2H7v1H6v-2h1V95z"/>
<path fill="#010101" d="M19,95h1v6h-1V95z"/>
<path fill="#010101" d="M27,95h1v4h-1V95z"/>
<path fill="#373840" d="M30,95h1v2h-1v1h-1v-2h1V95z"/>
<path fill="#010101" d="M42,95h1v6h-1V95z"/>
<path fill="#010101" d="M50,95h1v4h-1V95z"/>
<path fill="#373840" d="M53,95h1v2h-1v1h-1v-2h1V95z"/>
<path fill="#010101" d="M65,95h1v6h-1V95z"/>
<path fill="#010101" d="M73,95h1v4h-1V95z"/>
<path fill="#373840" d="M76,95h1v2h-1v1h-1v-2h1V95z"/>
<path fill="#010101" d="M88,95h1v6h-1V95z"/>
<path fill="#373840" d="M15,96h1v2h-1V96z"/>
<path fill="#373840" d="M38,96h1v2h-1V96z"/>
<path fill="#373840" d="M61,96h1v2h-1V96z"/>
<path fill="#373840" d="M84,96h1v2h-1V96z"/>
<path fill="#F8D0B8" d="M7,97h1v1h1v1H8v1H7v2h2v2H7v-1H6v-4h1V97z"/>
<path fill="#373840" d="M8,97h1v1H8V97z"/>
<path fill="#373840" d="M18,97h1v4h-1v3h-1v1h-1v2h-1v-1h-1v-1h-1v-2h1v-2h1v-1h1v-2h1v1h1V97z"/>
<path fill="#F8D0B8" d="M30,97h1v1h1v1h-1v1h-1v2h2v2h-2v-1h-1v-4h1V97z"/>
<path fill="#373840" d="M31,97h1v1h-1V97z"/>
<path fill="#373840" d="M41,97h1v4h-1v3h-1v1h-1v2h-2v-2h-1v-2h1v-2h1v-1h1v-2h1v1h1V97z"/>
<path fill="#F8D0B8" d="M53,97h1v1h1v1h-1v1h-1v2h2v2h-2v-1h-1v-4h1V97z"/>
<path fill="#373840" d="M54,97h1v1h-1V97z"/>
<path fill="#373840" d="M64,97h1v4h-1v3h-1v1h-1v2h-1v-1h-1v-1h-1v-2h1v-2h1v-1h1v-2h1v1h1V97z"/>
<path fill="#F8D0B8" d="M76,97h1v1h1v1h-1v1h-1v1h-1v-2h1V97z"/>
<path fill="#373840" d="M77,97h1v1h-1V97z"/>
<path fill="#373840" d="M87,97h1v4h-1v3h-1v1h-1v2h-1v-1h-1v-1h-1v-2h1v-2h1v-1h1v-2h1v1h1V97z"/>
<path fill="#D89870" d="M6,98h1v1H6V98z"/>
<path fill="#373840" d="M9,98h1v1H9V98z"/>
<path fill="#373840" d="M13,98h1v1h-1V98z"/>
<path fill="#D89870" d="M29,98h1v1h-1V98z"/>
<path fill="#373840" d="M32,98h1v1h-1V98z"/>
<path fill="#373840" d="M36,98h1v1h-1V98z"/>
<path fill="#D89870" d="M52,98h1v1h-1V98z"/>
<path fill="#373840" d="M55,98h1v1h-1V98z"/>
<path fill="#373840" d="M59,98h1v1h-1V98z"/>
<path fill="#D89870" d="M75,98h1v1h-1V98z"/>
<path fill="#373840" d="M78,98h1v1h-1V98z"/>
<path fill="#373840" d="M82,98h1v1h-1V98z"/>
<path fill="#373840" d="M5,99h1v1H5V99z"/>
<path fill="#515060" d="M8,99h1v1H8V99z"/>
<path fill="#F8D0B8" d="M9,99h1v2H9V99z"/>
<path fill="#373840" d="M10,99h1v1h-1V99z"/>
<path fill="#373840" d="M14,99h1v1h-1V99z"/>
<path fill="#373840" d="M28,99h1v1h-1V99z"/>
<path fill="#515060" d="M31,99h1v1h-1V99z"/>
<path fill="#F8D0B8" d="M32,99h1v2h-1V99z"/>
<path fill="#373840" d="M33,99h1v1h-1V99z"/>
<path fill="#373840" d="M37,99h1v1h-1V99z"/>
<path fill="#373840" d="M51,99h1v1h-1V99z"/>
<path fill="#515060" d="M54,99h1v1h-1V99z"/>
<path fill="#F8D0B8" d="M55,99h1v2h-1V99z"/>
<path fill="#373840" d="M56,99h1v1h-1V99z"/>
<path fill="#373840" d="M60,99h1v1h-1V99z"/>
<path fill="#373840" d="M74,99h1v1h-1V99z"/>
<path fill="#515060" d="M77,99h1v1h-1V99z"/>
<path fill="#F8CFB8" d="M78,99h1v1h-1V99z"/>
<path fill="#373840" d="M79,99h1v1h-1V99z"/>
<path fill="#373840" d="M83,99h1v1h-1V99z"/>
<path fill="#784040" d="M5,100h1v2H5V100z"/>
<path fill="#404048" d="M7,100h1v1H7V100z"/>
<path fill="#A8A0C8" d="M8,100h1v1H8V100z"/>
<path fill="#515060" d="M10,100h1v3H9v-1h1V100z"/>
<path fill="#373840" d="M11,100h2v1h-2V100z"/>
<path fill="#784040" d="M28,100h1v2h-1V100z"/>
<path fill="#404048" d="M30,100h1v1h-1V100z"/>
<path fill="#A8A8D8" d="M31,100h1v1h-1V100z"/>
<path fill="#515060" d="M33,100h1v3h-2v-1h1V100z"/>
<path fill="#373840" d="M34,100h2v1h-2V100z"/>
<path fill="#784040" d="M51,100h1v2h-1V100z"/>
<path fill="#404048" d="M53,100h1v1h-1V100z"/>
<path fill="#A8A0C8" d="M54,100h1v1h-1V100z"/>
<path fill="#515060" d="M56,100h1v3h-2v-1h1V100z"/>
<path fill="#373840" d="M57,100h2v1h-2V100z"/>
<path fill="#794040" d="M74,100h1v1h-1V100z"/>
<path fill="#404048" d="M76,100h1v1h-1V100z"/>
<path fill="#A7A7D8" d="M77,100h1v1h-1V100z"/>
<path fill="#F8D0B8" d="M78,100h1v1h-1V100z"/>
<path fill="#515060" d="M79,100h1v3h-2v-1h1V100z"/>
<path fill="#373840" d="M80,100h2v1h-2V100z"/>
<path fill="#030303" d="M7,101h1v1H7V101z"/>
<path fill="#E8E8F8" d="M8,101h1v1H8V101z"/>
<path fill="#D89870" d="M9,101h1v1H9V101z"/>
<path fill="#D89870" d="M11,101h2v2h-1v1h-1v1h-1v-1H9v-1h2V101z"/>
<path fill="#010101" d="M18,101h1v3h-1V101z"/>
<path fill="#030303" d="M30,101h1v1h-1V101z"/>
<path fill="#E8E8F8" d="M31,101h1v1h-1V101z"/>
<path fill="#D89870" d="M32,101h1v1h-1V101z"/>
<path fill="#D89870" d="M34,101h2v2h-1v1h-1v1h-1v-1h-1v-1h2V101z"/>
<path fill="#010101" d="M41,101h1v3h-1V101z"/>
<path fill="#030303" d="M53,101h1v1h-1V101z"/>
<path fill="#E8E8F8" d="M54,101h1v1h-1V101z"/>
<path fill="#D89870" d="M55,101h1v1h-1V101z"/>
<path fill="#D89870" d="M57,101h2v2h-1v1h-1v1h-1v-1h-1v-1h2V101z"/>
<path fill="#010101" d="M64,101h1v3h-1V101z"/>
<path fill="#783F3E" d="M74,101h1v1h-1V101z"/>
<path fill="#F8D0B9" d="M75,101h1v1h-1V101z"/>
<path fill="#030303" d="M76,101h1v1h-1V101z"/>
<path fill="#E7E8F8" d="M77,101h1v1h-1V101z"/>
<path fill="#D89870" d="M78,101h1v1h-1V101z"/>
<path fill="#D79770" d="M80,101h1v1h-1V101z"/>
<path fill="#D7976F" d="M81,101h1v1h-1V101z"/>
<path fill="#010101" d="M87,101h1v3h-1V101z"/>
<path fill="#D89870" d="M5,102h1v1H5V102z"/>
<path fill="#D89870" d="M28,102h1v1h-1V102z"/>
<path fill="#D89870" d="M51,102h1v1h-1V102z"/>
<path fill="#D79770" d="M74,102h1v1h-1V102z"/>
<path fill="#F7CFB8" d="M75,102h1v1h-1V102z"/>
<path fill="#F8D0B8" d="M76,102h1v1h-1V102z"/>
<path fill="#F7CFB8" d="M77,102h1v1h-1V102z"/>
<path fill="#D89870" d="M80,102h1v1h-1V102z"/>
<path fill="#D7966F" d="M81,102h1v1h-1V102z"/>
<path fill="#784040" d="M6,103h1v1H6V103z"/>
<path fill="#784040" d="M12,103h1v1h-1V103z"/>
<path fill="#784040" d="M29,103h1v1h-1V103z"/>
<path fill="#784040" d="M35,103h1v1h-1V103z"/>
<path fill="#784040" d="M52,103h1v1h-1V103z"/>
<path fill="#784040" d="M58,103h1v1h-1V103z"/>
<path fill="#783E40" d="M75,103h1v1h-1V103z"/>
<path fill="#F8CFB8" d="M76,103h1v1h-1V103z"/>
<path fill="#F8D0B9" d="M77,103h1v1h-1V103z"/>
<path fill="#D7976F" d="M78,103h1v1h-1V103z"/>
<path fill="#D89770" d="M79,103h1v1h-1V103z"/>
<path fill="#D7976F" d="M80,103h1v1h-1V103z"/>
<path fill="#783E40" d="M81,103h1v1h-1V103z"/>
<path fill="#784040" d="M7,104h3v1H7V104z"/>
<path fill="#404048" d="M11,104h1v1h-1V104z"/>
<path fill="#030303" d="M12,104h1v1h-1V104z"/>
<path fill="#010101" d="M17,104h1v1h-1V104z"/>
<path fill="#784040" d="M30,104h3v1h-3V104z"/>
<path fill="#404048" d="M34,104h1v1h-1V104z"/>
<path fill="#030303" d="M35,104h1v1h-1V104z"/>
<path fill="#010101" d="M40,104h1v1h-1V104z"/>
<path fill="#784040" d="M53,104h3v1h-3V104z"/>
<path fill="#404048" d="M57,104h1v1h-1V104z"/>
<path fill="#030303" d="M58,104h1v1h-1V104z"/>
<path fill="#010101" d="M63,104h1v1h-1V104z"/>
<path fill="#783E40" d="M76,104h1v1h-1V104z"/>
<path fill="#793F40" d="M77,104h1v1h-1V104z"/>
<path fill="#783F40" d="M78,104h1v1h-1V104z"/>
<path fill="#D89870" d="M79,104h1v1h-1V104z"/>
<path fill="#404048" d="M80,104h1v1h-1V104z"/>
<path fill="#030303" d="M81,104h1v1h-1V104z"/>
<path fill="#010101" d="M86,104h1v1h-1V104z"/>
<path fill="#030303" d="M8,105h1v1H8V105z"/>
<path fill="#B0B0C8" d="M9,105h2v1H9V105z"/>
<path fill="#784040" d="M11,105h2v1h-2V105z"/>
<path fill="#030303" d="M13,105h1v1h-1V105z"/>
<path fill="#010101" d="M16,105h1v2h-1V105z"/>
<path fill="#030303" d="M31,105h1v1h-1V105z"/>
<path fill="#B0B0C8" d="M32,105h1v1h-1V105z"/>
<path fill="#784040" d="M33,105h2v1h-2V105z"/>
<path fill="#B0B0C8" d="M35,105h1v3h-1V105z"/>
<path fill="#030303" d="M36,105h1v2h-1V105z"/>
<path fill="#010101" d="M39,105h1v2h-1V105z"/>
<path fill="#030303" d="M54,105h1v1h-1V105z"/>
<path fill="#B0B0C8" d="M55,105h2v1h-2V105z"/>
<path fill="#784040" d="M57,105h2v1h-2V105z"/>
<path fill="#030303" d="M59,105h1v1h-1V105z"/>
<path fill="#010101" d="M62,105h1v2h-1V105z"/>
<path fill="#030303" d="M77,105h1v1h-1V105z"/>
<path fill="#AFAFC8" d="M78,105h2v1h-2V105z"/>
<path fill="#793F40" d="M80,105h1v1h-1V105z"/>
<path fill="#793F3F" d="M81,105h1v1h-1V105z"/>
<path fill="#030303" d="M82,105h1v1h-1V105z"/>
<path fill="#010101" d="M85,105h1v2h-1V105z"/>
<path fill="#B0B0C8" d="M8,106h1v1H8V106z"/>
<path fill="#E8E8F8" d="M9,106h1v2H8v-1h1V106z"/>
<path fill="#784040" d="M10,106h1v2h-1V106z"/>
<path fill="#F8D0B8" d="M11,106h2v2h-1v1h-2v-1h1V106z"/>
<path fill="#606080" d="M13,106h1v1h-1V106z"/>
<path fill="#030303" d="M14,106h1v2h-1V106z"/>
<path fill="#B0B0C8" d="M31,106h1v1h-1V106z"/>
<path fill="#784040" d="M32,106h1v2h-1V106z"/>
<path fill="#F8D0B8" d="M33,106h2v2h-1v1h-2v-1h1V106z"/>
<path fill="#B0B0C8" d="M54,106h1v1h-1V106z"/>
<path fill="#E8E8F8" d="M55,106h1v2h-2v-1h1V106z"/>
<path fill="#784040" d="M56,106h1v2h-1V106z"/>
<path fill="#F8D0B8" d="M57,106h2v2h-1v1h-2v-1h1V106z"/>
<path fill="#606080" d="M59,106h1v1h-1V106z"/>
<path fill="#030303" d="M60,106h1v2h-1V106z"/>
<path fill="#B0B0C8" d="M77,106h1v1h-1V106z"/>
<path fill="#E7E8F7" d="M78,106h1v1h-1V106z"/>
<path fill="#793F40" d="M79,106h1v2h-1V106z"/>
<path fill="#F8D0B8" d="M80,106h2v1h-2V106z"/>
<path fill="#5F5F80" d="M82,106h1v1h-1V106z"/>
<path fill="#030303" d="M83,106h1v3h1v1h-2v-2h-1v-1h1V106z"/>
<path fill="#383038" d="M7,107h1v2H7V107z"/>
<path fill="#383038" d="M13,107h1v2h-1V107z"/>
<path fill="#383038" d="M30,107h1v3h-1V107z"/>
<path fill="#E8E8F8" d="M31,107h1v1h-1V107z"/>
<path fill="#606080" d="M36,107h1v1h-1V107z"/>
<path fill="#030303" d="M37,107h1v2h-1V107z"/>
<path fill="#383038" d="M53,107h1v2h-1V107z"/>
<path fill="#383038" d="M59,107h1v2h-1V107z"/>
<path fill="#383038" d="M76,107h1v1h-1V107z"/>
<path fill="#E7E8F7" d="M77,107h1v1h-1V107z"/>
<path fill="#E8E9F8" d="M78,107h1v1h-1V107z"/>
<path fill="#F8D0B9" d="M80,107h1v1h-1V107z"/>
<path fill="#F8CFB8" d="M81,107h1v1h-1V107z"/>
<path fill="#606080" d="M8,108h1v1H8V108z"/>
<path fill="#784040" d="M9,108h1v2H9V108z"/>
<path fill="#030303" d="M12,108h1v2h-1V108z"/>
<path fill="#B0B0C8" d="M14,108h1v1h-1V108z"/>
<path fill="#030303" d="M15,108h1v2h-1V108z"/>
<path fill="#784040" d="M31,108h1v2h-1V108z"/>
<path fill="#030303" d="M34,108h1v2h-1V108z"/>
<path fill="#606080" d="M35,108h1v1h-1V108z"/>
<path fill="#B0B0C8" d="M36,108h1v2h-1v1h-2v-1h1v-1h1V108z"/>
<path fill="#606080" d="M54,108h1v1h-1V108z"/>
<path fill="#784040" d="M55,108h1v2h-1V108z"/>
<path fill="#030303" d="M58,108h1v2h-1V108z"/>
<path fill="#B0B0C8" d="M60,108h1v1h-1V108z"/>
<path fill="#030303" d="M61,108h1v2h-1V108z"/>
<path fill="#363037" d="M76,108h1v1h-1V108z"/>
<path fill="#5F5F80" d="M77,108h1v1h-1V108z"/>
<path fill="#5F6081" d="M78,108h1v1h-1V108z"/>
<path fill="#B0B0C9" d="M79,108h1v1h-1V108z"/>
<path fill="#79403F" d="M80,108h1v1h-1V108z"/>
<path fill="#D7976F" d="M81,108h1v1h-1V108z"/>
<path fill="#D79770" d="M82,108h1v1h-1V108z"/>
<path fill="#E8E8F8" d="M8,109h1v1H8V109z"/>
<path fill="#D89870" d="M10,109h2v1h-2V109z"/>
<path fill="#B0B0C8" d="M13,109h1v1h-1V109z"/>
<path fill="#986090" d="M14,109h1v1h-1V109z"/>
<path fill="#D89870" d="M32,109h2v1h-2V109z"/>
<path fill="#986090" d="M37,109h1v1h-1V109z"/>
<path fill="#030303" d="M38,109h1v2h-1V109z"/>
<path fill="#E8E8F8" d="M54,109h1v1h-1V109z"/>
<path fill="#D89870" d="M56,109h2v1h-2V109z"/>
<path fill="#B0B0C8" d="M59,109h1v1h-1V109z"/>
<path fill="#986090" d="M60,109h1v1h-1V109z"/>
<path fill="#303051" d="M76,109h1v1h-1V109z"/>
<path fill="#E7E8F8" d="M77,109h1v1h-1V109z"/>
<path fill="#E8E8F8" d="M78,109h1v2h-1V109z"/>
<path fill="#E7E8F7" d="M79,109h1v1h-1V109z"/>
<path fill="#783E40" d="M80,109h1v1h-1V109z"/>
<path fill="#D79670" d="M81,109h1v1h-1V109z"/>
<path fill="#D89770" d="M82,109h1v1h-1V109z"/>
<path fill="#030303" d="M8,110h1v1H8V110z"/>
<path fill="#E8E8F8" d="M9,110h1v1H9V110z"/>
<path fill="#030303" d="M10,110h2v1h-2V110z"/>
<path fill="#B0B0C8" d="M12,110h1v1h-1V110z"/>
<path fill="#986090" d="M13,110h1v1h-1V110z"/>
<path fill="#030303" d="M14,110h1v1h-1V110z"/>
<path fill="#030303" d="M28,110h1v2h-1V110z"/>
<path fill="#303050" d="M29,110h1v1h2v1h-3V110z"/>
<path fill="#606080" d="M30,110h1v1h-1V110z"/>
<path fill="#E8E8F8" d="M31,110h1v1h-1V110z"/>
<path fill="#030303" d="M32,110h2v1h-2V110z"/>
<path fill="#986090" d="M36,110h1v1h-1V110z"/>
<path fill="#303050" d="M37,110h1v1h-1V110z"/>
<path fill="#030303" d="M54,110h1v1h-1V110z"/>
<path fill="#E8E8F8" d="M55,110h1v1h-1V110z"/>
<path fill="#030303" d="M56,110h2v1h-2V110z"/>
<path fill="#B0B0C8" d="M58,110h1v1h-1V110z"/>
<path fill="#986090" d="M59,110h1v1h-1V110z"/>
<path fill="#030303" d="M60,110h1v1h-1V110z"/>
<path fill="#303050" d="M76,110h1v1h-1V110z"/>
<path fill="#99608F" d="M77,110h1v1h-1V110z"/>
<path fill="#E8E9F8" d="M79,110h2v1h-2V110z"/>
<path fill="#030303" d="M81,110h2v1h-2V110z"/>
<path fill="#98608F" d="M83,110h1v1h-1V110z"/>
<path fill="#303051" d="M84,110h1v1h-1V110z"/>
<path fill="#030303" d="M85,110h1v3h-1V110z"/>
<path fill="#030303" d="M9,111h1v1H9V111z"/>
<path fill="#585080" d="M10,111h3v1h-3V111z"/>
<path fill="#030303" d="M13,111h1v1h-1V111z"/>
<path fill="#986090" d="M32,111h4v1h-4V111z"/>
<path fill="#F8D0B8" d="M36,111h2v1h-2V111z"/>
<path fill="#585080" d="M38,111h1v2h-2v-1h1V111z"/>
<path fill="#030303" d="M39,111h1v2h-1V111z"/>
<path fill="#030303" d="M55,111h1v1h-1V111z"/>
<path fill="#585080" d="M56,111h3v1h-3V111z"/>
<path fill="#030303" d="M59,111h1v1h-1V111z"/>
<path fill="#303050" d="M75,111h1v1h-1V111z"/>
<path fill="#585180" d="M76,111h1v1h-1V111z"/>
<path fill="#F8CFB8" d="M77,111h1v1h-1V111z"/>
<path fill="#98608E" d="M78,111h1v1h-1V111z"/>
<path fill="#E7E8F7" d="M79,111h1v1h-1V111z"/>
<path fill="#AFAFC8" d="M80,111h1v1h-1V111z"/>
<path fill="#B0B0C8" d="M81,111h1v1h-1V111z"/>
<path fill="#98608F" d="M82,111h1v1h-1V111z"/>
<path fill="#D79770" d="M83,111h1v1h-1V111z"/>
<path fill="#303050" d="M84,111h1v2h-1V111z"/>
<path fill="#030303" d="M10,112h3v1h-3V112z"/>
<path fill="#030303" d="M29,112h2v1h-2V112z"/>
<path fill="#030303" d="M33,112h4v1h-4V112z"/>
<path fill="#030303" d="M56,112h3v1h-3V112z"/>
<path fill="#030303" d="M75,112h1v1h-1V112z"/>
<path fill="#595181" d="M76,112h1v1h-1V112z"/>
<path fill="#585080" d="M77,112h1v1h-1V112z"/>
<path fill="#5A5181" d="M78,112h1v1h-1V112z"/>
<path fill="#030303" d="M79,112h1v1h-1V112z"/>
<path fill="#996090" d="M80,112h1v1h-1V112z"/>
<path fill="#98608F" d="M81,112h1v1h-1V112z"/>
<path fill="#030303" d="M82,112h1v1h-1V112z"/>
<path fill="#303051" d="M83,112h1v1h-1V112z"/>
<path fill="#030303" d="M37,113h2v1h-2V113z"/>
<path fill="#030303" d="M76,113h3v1h-3V113z"/>
<path fill="#030303" d="M83,113h2v1h-2V113z"/>
</svg>
