<?xml version="1.0" encoding="utf-8"?>
<!-- Generator: Adobe Illustrator 16.0.4, SVG Export Plug-In . SVG Version: 6.00 Build 0)  -->
<!DOCTYPE svg PUBLIC "-//W3C//DTD SVG 1.1//EN" "http://www.w3.org/Graphics/SVG/1.1/DTD/svg11.dtd">
<svg version="1.1" id="Layer_1" xmlns="http://www.w3.org/2000/svg" xmlns:xlink="http://www.w3.org/1999/xlink" x="0px" y="0px"
	 width="17px" height="26px" viewBox="0 0 17 26" enable-background="new 0 0 17 26" xml:space="preserve">
<path fill="#404048" d="M6,2h5v1H6V2z"/>
<path fill="#404048" d="M4,3h2v1H4V3z"/>
<path fill="#B89058" d="M6,3h1v1H6V3z"/>
<path fill="#785850" d="M7,3h3v1h3v1h1v2h1v2h-1v1h1v2h-1v-1h-2v-1h-1V9h-1v1H9v1H7v1H5v-1h1v-1H5v1H3v1H2v-2h1V9H2V7h1V5h1v2h1v1h2
	v1h2V8H7V7H6V4h1V3z"/>
<path fill="#B89058" d="M10,3h1v1h-1V3z"/>
<path fill="#404048" d="M11,3h2v1h-2V3z"/>
<path fill="#404048" d="M3,4h1v1H3V4z"/>
<path fill="#785850" d="M4,4h1v1H4V4z"/>
<path fill="#B89058" d="M5,4h1v3h1v1H5V7H4V5h1V4z"/>
<path fill="#404048" d="M8,4h1v1h1v1H9v1H8V6H7V5h1V4z"/>
<path fill="#404048" d="M13,4h1v1h-1V4z"/>
<path fill="#030303" d="M2,5h1v1H2V5z"/>
<path fill="#B89058" d="M11,5h1v2h-1V5z"/>
<path fill="#030303" d="M14,5h1v1h-1V5z"/>
<path fill="#404048" d="M2,6h1v1H2V6z"/>
<path fill="#404048" d="M14,6h1v1h-1V6z"/>
<path fill="#030303" d="M1,7h1v2H1V7z"/>
<path fill="#B89058" d="M10,7h1v1h-1V7z"/>
<path fill="#030303" d="M15,7h1v2h-1V7z"/>
<path fill="#B89058" d="M7,8h2v1H7V8z"/>
<path fill="#030303" d="M0,9h1v1H0V9z"/>
<path fill="#785850" d="M1,9h1v1H1V9z"/>
<path fill="#404048" d="M2,9h1v1H2V9z"/>
<path fill="#404048" d="M10,9h1v1h-1V9z"/>
<path fill="#404048" d="M14,9h1v1h-1V9z"/>
<path fill="#785850" d="M15,9h1v1h-1V9z"/>
<path fill="#030303" d="M16,9h1v1h-1V9z"/>
<path fill="#404048" d="M0,10h2v1H0V10z"/>
<path fill="#404048" d="M5,10h1v1H5V10z"/>
<path fill="#404048" d="M9,10h1v1H9V10z"/>
<path fill="#D89870" d="M10,10h1v1h-1V10z"/>
<path fill="#404048" d="M11,10h1v1h-1V10z"/>
<path fill="#404048" d="M15,10h2v1h-2V10z"/>
<path fill="#030303" d="M0,11h1v2H0V11z"/>
<path fill="#D89870" d="M1,11h1v1H1V11z"/>
<path fill="#404048" d="M3,11h2v1h1v1H5v1H4v3H2v1H1v-2h1v-3H1v-1h2V11z"/>
<path fill="#404048" d="M7,11h2v1H7V11z"/>
<path fill="#F8D0B8" d="M9,11h3v1h-1v1h-1v2h2v1h-1v1H9v-1H8v1H6v-1H5v-1h2v-2H6v-1h3V11z"/>
<path fill="#404048" d="M12,11h2v1h2v1h-1v3h1v2h-1v-1h-2v-3h-1v-1h1v-1h-1V11z"/>
<path fill="#D89870" d="M15,11h1v1h-1V11z"/>
<path fill="#030303" d="M16,11h1v2h-1V11z"/>
<path fill="#785850" d="M11,12h1v1h-1V12z"/>
<path fill="#D89870" d="M12,12h1v1h-1V12z"/>
<path fill="#030303" d="M1,13h1v3H1V13z"/>
<path fill="#A8A0C8" d="M5,13h1v1H5V13z"/>
<path fill="#404048" d="M6,13h1v1H6V13z"/>
<path fill="#404048" d="M10,13h1v1h-1V13z"/>
<path fill="#A8A0C8" d="M11,13h1v1h-1V13z"/>
<path fill="#030303" d="M15,13h1v3h-1V13z"/>
<path fill="#D89870" d="M4,14h1v2H4V14z"/>
<path fill="#E8E8F8" d="M5,14h1v1H5V14z"/>
<path fill="#030303" d="M6,14h1v1H6V14z"/>
<path fill="#030303" d="M10,14h1v1h-1V14z"/>
<path fill="#E8E8F8" d="M11,14h1v1h-1V14z"/>
<path fill="#D89870" d="M12,14h1v2h-1V14z"/>
<path fill="#030303" d="M0,16h1v2H0V16z"/>
<path fill="#784040" d="M4,16h1v1H4V16z"/>
<path fill="#D89870" d="M5,16h1v1H5V16z"/>
<path fill="#D89870" d="M8,16h1v1h1v1H7v-1h1V16z"/>
<path fill="#D89870" d="M11,16h1v1h-1V16z"/>
<path fill="#784040" d="M12,16h1v1h-1V16z"/>
<path fill="#030303" d="M16,16h1v2h-1V16z"/>
<path fill="#030303" d="M2,17h1v1H2V17z"/>
<path fill="#784040" d="M3,17h1v1H3V17z"/>
<path fill="#D89870" d="M4,17h1v2H4v1H2v-2h2V17z"/>
<path fill="#030303" d="M5,17h1v1H5V17z"/>
<path fill="#784040" d="M6,17h1v1H6V17z"/>
<path fill="#784040" d="M10,17h1v1h-1V17z"/>
<path fill="#030303" d="M11,17h1v1h-1V17z"/>
<path fill="#D89870" d="M12,17h1v1h2v2h-2v-1h-1V17z"/>
<path fill="#784040" d="M13,17h1v1h-1V17z"/>
<path fill="#030303" d="M14,17h1v1h-1V17z"/>
<path d="M0,18h1v1H0V18z"/>
<path fill="#030303" d="M1,18h1v1H1V18z"/>
<path fill="#606080" d="M5,18h1v1h1v1h3v-1h1v-1h1v2h-1v1H6v-1H5V18z"/>
<path fill="#B0B0C8" d="M6,18h5v1H6V18z"/>
<path fill="#030303" d="M15,18h1v1h-1V18z"/>
<path d="M16,18h1v1h-1V18z"/>
<path fill="#784040" d="M0,19h1v2H0V19z"/>
<path fill="#F8D0B8" d="M1,19h1v1h1v1H1V19z"/>
<path fill="#030303" d="M4,19h1v2H4V19z"/>
<path fill="#E8E8F8" d="M7,19h3v1H7V19z"/>
<path fill="#030303" d="M12,19h1v2h-1V19z"/>
<path fill="#F8D0B8" d="M15,19h1v2h-2v-1h1V19z"/>
<path fill="#784040" d="M16,19h1v2h-1V19z"/>
<path fill="#784040" d="M3,20h1v1H3V20z"/>
<path fill="#B0B0C8" d="M5,20h1v3H5v-1H4v-1h1V20z"/>
<path fill="#B0B0C8" d="M11,20h1v1h1v1h-1v1h-1V20z"/>
<path fill="#784040" d="M13,20h1v1h-1V20z"/>
<path fill="#784040" d="M1,21h2v1H1V21z"/>
<path fill="#030303" d="M3,21h1v3H3V21z"/>
<path fill="#E8E8F8" d="M6,21h5v2h-1v1H7v-1H6V21z"/>
<path fill="#030303" d="M13,21h1v3h-1V21z"/>
<path fill="#784040" d="M14,21h2v1h-2V21z"/>
<path fill="#986090" d="M4,22h1v1H4V22z"/>
<path fill="#986090" d="M12,22h1v1h-1V22z"/>
<path fill="#D89870" d="M4,23h1v1H4V23z"/>
<path fill="#986090" d="M5,23h1v1H5V23z"/>
<path fill="#B0B0C8" d="M6,23h1v1H6V23z"/>
<path fill="#B0B0C8" d="M10,23h1v1h-1V23z"/>
<path fill="#986090" d="M11,23h1v1h-1V23z"/>
<path fill="#D89870" d="M12,23h1v1h-1V23z"/>
<path fill="#030303" d="M4,24h1v1H4V24z"/>
<path fill="#585080" d="M5,24h2v1H5V24z"/>
<path fill="#030303" d="M7,24h3v1H7V24z"/>
<path fill="#585080" d="M10,24h2v1h-2V24z"/>
<path fill="#030303" d="M12,24h1v1h-1V24z"/>
<path fill="#030303" d="M5,25h2v1H5V25z"/>
<path fill="#030303" d="M10,25h2v1h-2V25z"/>
</svg>
