<?xml version="1.0" encoding="utf-8"?>
<!-- Generator: Adobe Illustrator 16.0.4, SVG Export Plug-In . SVG Version: 6.00 Build 0)  -->
<!DOCTYPE svg PUBLIC "-//W3C//DTD SVG 1.1//EN" "http://www.w3.org/Graphics/SVG/1.1/DTD/svg11.dtd">
<svg version="1.1" id="Layer_1" xmlns="http://www.w3.org/2000/svg" xmlns:xlink="http://www.w3.org/1999/xlink" x="0px" y="0px"
	 width="17px" height="26px" viewBox="0 0 17 26" enable-background="new 0 0 17 26" xml:space="preserve">
<path fill="#404149" d="M6,2h1v1H6V2z"/>
<path fill="#404048" d="M7,2h4v1H7V2z"/>
<path fill="#404048" d="M4,3h2v1H4V3z"/>
<path fill="#B99058" d="M6,3h1v1H6V3z"/>
<path fill="#785850" d="M7,3h2v1H8v1H7V3z"/>
<path fill="#785750" d="M9,3h1v1H9V3z"/>
<path fill="#B89057" d="M10,3h1v1h-1V3z"/>
<path fill="#404048" d="M11,3h2v1h-2V3z"/>
<path fill="#404048" d="M3,4h1v1H3V4z"/>
<path fill="#785750" d="M4,4h1v1H4V4z"/>
<path fill="#B89057" d="M5,4h1v1H5V4z"/>
<path fill="#775750" d="M6,4h1v1H6V4z"/>
<path fill="#404048" d="M8,4h1v1h1v1H9v1H8V4z"/>
<path fill="#785850" d="M9,4h1v1H9V4z"/>
<path fill="#785750" d="M10,4h3v1h-2v1h-1V4z"/>
<path fill="#404149" d="M13,4h1v1h-1V4z"/>
<path fill="#010101" d="M2,5h1v1H2V5z"/>
<path fill="#785750" d="M3,5h1v1H3V5z"/>
<path fill="#B89058" d="M4,5h2v1H4V5z"/>
<path fill="#785750" d="M6,5h1v2H6V5z"/>
<path fill="#404149" d="M7,5h1v1H7V5z"/>
<path fill="#B89057" d="M11,5h1v2h-1V5z"/>
<path fill="#785851" d="M12,5h1v1h-1V5z"/>
<path fill="#785850" d="M13,5h1v1h-1V5z"/>
<path fill="#020202" d="M14,5h1v1h-1V5z"/>
<path fill="#404048" d="M2,6h1v1H2V6z"/>
<path fill="#785850" d="M3,6h1v1H3V6z"/>
<path fill="#B99058" d="M4,6h2v1h1v1H5V7H4V6z"/>
<path fill="#785850" d="M7,6h1v2H7V6z"/>
<path fill="#785750" d="M9,6h1v3h1v1h-1v4H9v-1H8v-1H6v1H5v-1H3v-1H1v-1h2V9h1v2h2v-1h1V9h1v2h1V8H8V7h1V6z"/>
<path fill="#785851" d="M10,6h1v1h-1V6z"/>
<path fill="#785750" d="M12,6h2v2h-1V7h-1V6z"/>
<path fill="#404149" d="M14,6h1v1h-1V6z"/>
<path fill="#010101" d="M1,7h1v2H1V7z"/>
<path fill="#785750" d="M2,7h3v2H4V8H3v1H2V7z"/>
<path fill="#B99058" d="M10,7h1v1h-1V7z"/>
<path fill="#785750" d="M11,7h1v2h-1V7z"/>
<path fill="#785850" d="M12,7h1v3h-2V9h1V7z"/>
<path fill="#785850" d="M14,7h1v1h-1V7z"/>
<path fill="#020202" d="M15,7h1v1h-1V7z"/>
<path fill="#785851" d="M3,8h1v1H3V8z"/>
<path fill="#785850" d="M5,8h2v1H6v2H4v-1h1V8z"/>
<path fill="#B89058" d="M7,8h1v1H7V8z"/>
<path fill="#B89057" d="M8,8h1v1H8V8z"/>
<path fill="#785850" d="M10,8h1v1h-1V8z"/>
<path fill="#785851" d="M13,8h2v1h-2V8z"/>
<path fill="#010101" d="M15,8h1v1h-1V8z"/>
<path fill="#020202" d="M0,9h1v4H0V9z"/>
<path fill="#785850" d="M1,9h1v1H1V9z"/>
<path fill="#785851" d="M2,9h1v1H2V9z"/>
<path fill="#775750" d="M4,9h1v1H4V9z"/>
<path fill="#785851" d="M6,9h1v1H6V9z"/>
<path fill="#775750" d="M8,9h1v1H8V9z"/>
<path fill="#785750" d="M13,9h2v1h-2V9z"/>
<path fill="#785851" d="M15,9h1v1h-1V9z"/>
<path fill="#010101" d="M16,9h1v3h-1V9z"/>
<path fill="#785850" d="M8,10h1v1H8V10z"/>
<path fill="#785850" d="M10,10h1v3h-1V10z"/>
<path fill="#785750" d="M11,10h2v2h-1v1h-1V10z"/>
<path fill="#785850" d="M13,10h1v1h-1V10z"/>
<path fill="#785851" d="M14,10h1v1h-1V10z"/>
<path fill="#785750" d="M15,10h1v1h-1V10z"/>
<path fill="#404048" d="M1,11h1v1H1V11z"/>
<path fill="#785851" d="M2,11h1v1H2V11z"/>
<path fill="#775750" d="M13,11h2v1h-2V11z"/>
<path fill="#404148" d="M15,11h1v1h-1V11z"/>
<path fill="#D89870" d="M1,12h1v1H1V12z"/>
<path fill="#404148" d="M2,12h1v1H2V12z"/>
<path fill="#404048" d="M3,12h1v2h1v-1h1v2H3V12z"/>
<path fill="#785851" d="M4,12h1v1H4V12z"/>
<path fill="#775750" d="M6,12h1v2H6V12z"/>
<path fill="#785850" d="M7,12h1v1H7V12z"/>
<path fill="#785851" d="M12,12h1v1h-1V12z"/>
<path fill="#404048" d="M13,12h2v1h-1v2H7v-1h4v-1h1v1h1V12z"/>
<path fill="#D89870" d="M15,12h1v1h-1V12z"/>
<path fill="#020202" d="M16,12h1v1h-1V12z"/>
<path fill="#010101" d="M1,13h1v1H1V13z"/>
<path fill="#404149" d="M2,13h1v2H2V13z"/>
<path fill="#404149" d="M4,13h1v1H4V13z"/>
<path fill="#785750" d="M7,13h1v1H7V13z"/>
<path fill="#785851" d="M8,13h1v1H8V13z"/>
<path fill="#785851" d="M10,13h1v1h-1V13z"/>
<path fill="#404149" d="M12,13h1v1h-1V13z"/>
<path fill="#404149" d="M14,13h1v2h-1V13z"/>
<path fill="#010101" d="M15,13h1v3h-1V13z"/>
<path fill="#020202" d="M1,14h1v1H1V14z"/>
<path fill="#404149" d="M6,14h1v1h8v1h-3v1h-1v-1H8v1H7v-1H2v-1h4V14z"/>
<path fill="#010101" d="M1,15h1v1H1V15z"/>
<path fill="#020202" d="M0,16h1v1H0V16z"/>
<path fill="#404048" d="M1,16h6v1h1v-1h3v1h1v-1h4v1h-2v1h-4v1h1v1H8v-2H6v-1H5v1H3v-1H1V16z"/>
<path fill="#010101" d="M16,16h1v2h-1V16z"/>
<path fill="#010101" d="M0,17h1v1H0V17z"/>
<path fill="#404149" d="M1,17h1v1H1V17z"/>
<path fill="#010101" d="M2,17h1v1H2V17z"/>
<path fill="#404149" d="M5,17h1v1H5V17z"/>
<path fill="#010101" d="M14,17h1v1h-1V17z"/>
<path fill="#404149" d="M15,17h1v1h-1V17z"/>
<path d="M0,18h1v1H0V18z"/>
<path fill="#010101" d="M1,18h1v1H1V18z"/>
<path fill="#D89870" d="M2,18h1v1h1v1H2V18z"/>
<path fill="#783F3F" d="M3,18h1v1H3V18z"/>
<path fill="#404149" d="M4,18h1v1H4V18z"/>
<path fill="#404048" d="M5,18h1v1H5V18z"/>
<path fill="#404149" d="M6,18h2v2H7v-1H6V18z"/>
<path fill="#414149" d="M10,18h1v1h-1V18z"/>
<path fill="#404149" d="M11,18h2v1h-2V18z"/>
<path fill="#794040" d="M13,18h1v1h-1V18z"/>
<path fill="#D89870" d="M14,18h1v2h-1V18z"/>
<path fill="#010101" d="M15,18h1v1h-1V18z"/>
<path d="M16,18h1v1h-1V18z"/>
<path fill="#783F3F" d="M0,19h1v1H0V19z"/>
<path fill="#F8D0B8" d="M1,19h1v1H1V19z"/>
<path fill="#010101" d="M4,19h1v2H4V19z"/>
<path fill="#020202" d="M5,19h1v1H5V19z"/>
<path fill="#404048" d="M6,19h1v1H6V19z"/>
<path fill="#020202" d="M11,19h2v2h-1v-1h-1V19z"/>
<path fill="#D79770" d="M13,19h1v1h-1V19z"/>
<path fill="#F8D0B8" d="M15,19h1v2h-2v-1h1V19z"/>
<path fill="#783F40" d="M16,19h1v1h-1V19z"/>
<path fill="#783F40" d="M0,20h1v1H0V20z"/>
<path fill="#F8D0B9" d="M1,20h1v1H1V20z"/>
<path fill="#F8D0B8" d="M2,20h1v1H2V20z"/>
<path fill="#794040" d="M3,20h1v1H3V20z"/>
<path fill="#AFAFC8" d="M5,20h1v1H5V20z"/>
<path fill="#010101" d="M6,20h5v1H6V20z"/>
<path fill="#B0B0C8" d="M11,20h1v1h1v1h-2V20z"/>
<path fill="#784040" d="M13,20h1v1h-1V20z"/>
<path fill="#783F3F" d="M16,20h1v1h-1V20z"/>
<path fill="#783F40" d="M1,21h2v1H1V21z"/>
<path fill="#010101" d="M3,21h1v3H3V21z"/>
<path fill="#AFAFC8" d="M4,21h1v1H4V21z"/>
<path fill="#B0B0C8" d="M5,21h4v1H6v1H5V21z"/>
<path fill="#AFAFC8" d="M9,21h2v1H9V21z"/>
<path fill="#020202" d="M13,21h1v1h-1V21z"/>
<path fill="#784040" d="M14,21h1v1h-1V21z"/>
<path fill="#783F40" d="M15,21h1v1h-1V21z"/>
<path fill="#98608F" d="M4,22h1v1H4V22z"/>
<path fill="#E8E8F8" d="M6,22h2v1h2v1H7v-1H6V22z"/>
<path fill="#E8E9F8" d="M8,22h2v1H8V22z"/>
<path fill="#E8E8F8" d="M10,22h1v1h-1V22z"/>
<path fill="#AFAFC8" d="M11,22h1v1h-1V22z"/>
<path fill="#98608F" d="M12,22h1v1h-1V22z"/>
<path fill="#010101" d="M13,22h1v1h-1V22z"/>
<path fill="#D79770" d="M4,23h1v1H4V23z"/>
<path fill="#98608F" d="M5,23h1v1H5V23z"/>
<path fill="#AFAFC8" d="M6,23h1v1H6V23z"/>
<path fill="#B0B0C8" d="M10,23h1v1h-1V23z"/>
<path fill="#986090" d="M11,23h1v1h-1V23z"/>
<path fill="#D7976F" d="M12,23h1v1h-1V23z"/>
<path fill="#020202" d="M13,23h1v1h-1V23z"/>
<path fill="#010101" d="M4,24h1v1H4V24z"/>
<path fill="#010101" d="M7,24h2v1H7V24z"/>
<path fill="#020202" d="M9,24h1v1H9V24z"/>
<g>
	<g>
		<rect x="5" y="24" fill="#585080" width="2" height="1"/>
	</g>
</g>
<g>
	<g>
		<g>
			<rect x="10" y="24" fill="#595181" width="2" height="1"/>
		</g>
	</g>
</g>
<path fill="#010101" d="M12,24h1v1h-1V24z"/>
<path fill="#010101" d="M5,25h1v1H5V25z"/>
<path fill="#020202" d="M6,25h1v1H6V25z"/>
<path fill="#020202" d="M10,25h1v1h-1V25z"/>
<path fill="#010101" d="M11,25h1v1h-1V25z"/>
</svg>
