<?xml version="1.0" encoding="utf-8"?>
<!-- Generator: Adobe Illustrator 16.0.4, SVG Export Plug-In . SVG Version: 6.00 Build 0)  -->
<!DOCTYPE svg PUBLIC "-//W3C//DTD SVG 1.1//EN" "http://www.w3.org/Graphics/SVG/1.1/DTD/svg11.dtd">
<svg version="1.1" id="Layer_1" xmlns="http://www.w3.org/2000/svg" xmlns:xlink="http://www.w3.org/1999/xlink" x="0px" y="0px"
	 width="17px" height="26px" viewBox="0 0 17 26" enable-background="new 0 0 17 26" xml:space="preserve">
<path fill="#404048" d="M7,2h4v1H7V2z"/>
<path fill="#404048" d="M5,3h2v1H5V3z"/>
<path fill="#785850" d="M7,3h4v1h2v1h-1v1h-1v1H9v1H7V7H6v1h1v1h1v1h2V9h2v2h1v2h-1v-1h-1v-1h-1v1h1v1h1v1h-1v2h-1v-3H8v-1H7v-1H6
	v-1H5V8H4v1H3v3H2V8h1V6h1V5h1V4h2V3z"/>
<path fill="#404048" d="M11,3h2v1h-2V3z"/>
<path fill="#040404" d="M4,4h1v1H4V4z"/>
<path fill="#404048" d="M13,4h1v1h-1V4z"/>
<path fill="#040404" d="M3,5h1v1H3V5z"/>
<path fill="#B89058" d="M12,5h1v1h-1V5z"/>
<path fill="#785850" d="M13,5h1v1h-1V5z"/>
<path fill="#404048" d="M14,5h1v1h-1V5z"/>
<path fill="#040404" d="M2,6h1v2H2V6z"/>
<path fill="#B89058" d="M11,6h1v1h1v1h-1v1h-2v1H8V9H7V8h2V7h2V6z"/>
<path fill="#785850" d="M12,6h1v1h-1V6z"/>
<path fill="#B89058" d="M13,6h1v1h-1V6z"/>
<path fill="#785850" d="M14,6h1v2h1v2h-1v2h-1v-1h-1V9h-1V8h1V7h1V6z"/>
<path fill="#040404" d="M15,6h1v2h-1V6z"/>
<path fill="#B89058" d="M6,7h1v1H6V7z"/>
<path fill="#040404" d="M1,8h1v4H1V8z"/>
<path fill="#404048" d="M4,8h1v2H4v1H3V9h1V8z"/>
<path fill="#040404" d="M16,8h1v6h-1V8z"/>
<path fill="#404048" d="M12,9h1v2h-1V9z"/>
<path fill="#F8D0B8" d="M4,10h1v1h1v1H5v1H4v2h2v2H4v-1H3v-4h1V10z"/>
<path fill="#404048" d="M5,10h1v1H5V10z"/>
<path fill="#404048" d="M15,10h1v4h-1v3h-1v1h-1v2h-1v-1h-1v-1h-1v-2h1v-2h1v-1h1v-2h1v1h1V10z"/>
<path fill="#D89870" d="M3,11h1v1H3V11z"/>
<path fill="#404048" d="M6,11h1v1H6V11z"/>
<path fill="#404048" d="M10,11h1v1h-1V11z"/>
<path fill="#303050" d="M2,12h1v1H2V12z"/>
<path fill="#785850" d="M5,12h1v1H5V12z"/>
<path fill="#F8D0B8" d="M6,12h1v2H6V12z"/>
<path fill="#404048" d="M7,12h1v1H7V12z"/>
<path fill="#404048" d="M11,12h1v1h-1V12z"/>
<path fill="#784040" d="M2,13h1v2H2V13z"/>
<path fill="#404048" d="M4,13h1v1H4V13z"/>
<path fill="#A8A0C8" d="M5,13h1v1H5V13z"/>
<path fill="#785850" d="M7,13h1v3H6v-1h1V13z"/>
<path fill="#404048" d="M8,13h2v1H8V13z"/>
<path fill="#040404" d="M4,14h1v1H4V14z"/>
<path fill="#E8E8F8" d="M5,14h1v1H5V14z"/>
<path fill="#D89870" d="M6,14h1v1H6V14z"/>
<path fill="#D89870" d="M8,14h2v2H9v1H8v1H7v-1H6v-1h2V14z"/>
<path fill="#040404" d="M15,14h1v3h-1V14z"/>
<path fill="#D89870" d="M2,15h1v1H2V15z"/>
<path fill="#784040" d="M3,16h1v1H3V16z"/>
<path fill="#784040" d="M9,16h1v1H9V16z"/>
<path fill="#784040" d="M4,17h3v1H4V17z"/>
<path fill="#303050" d="M8,17h1v1H8V17z"/>
<path fill="#040404" d="M9,17h1v1H9V17z"/>
<path fill="#040404" d="M14,17h1v1h-1V17z"/>
<path fill="#040404" d="M5,18h1v1H5V18z"/>
<path fill="#B0B0C8" d="M6,18h2v1H6V18z"/>
<path fill="#784040" d="M8,18h2v1H8V18z"/>
<path fill="#040404" d="M10,18h1v1h-1V18z"/>
<path fill="#040404" d="M13,18h1v2h-1V18z"/>
<path fill="#B0B0C8" d="M5,19h1v1H5V19z"/>
<path fill="#E8E8F8" d="M6,19h1v2H5v-1h1V19z"/>
<path fill="#784040" d="M7,19h1v2H7V19z"/>
<path fill="#F8D0B8" d="M8,19h2v2H9v1H7v-1h1V19z"/>
<path fill="#606080" d="M10,19h1v1h-1V19z"/>
<path fill="#040404" d="M11,19h1v2h-1V19z"/>
<path fill="#383038" d="M4,20h1v2H4V20z"/>
<path fill="#383038" d="M10,20h1v2h-1V20z"/>
<path fill="#606080" d="M5,21h1v1H5V21z"/>
<path fill="#784040" d="M6,21h1v2H6V21z"/>
<path fill="#040404" d="M9,21h1v2H9V21z"/>
<path fill="#B0B0C8" d="M11,21h1v1h-1V21z"/>
<path fill="#040404" d="M12,21h1v2h-1V21z"/>
<path fill="#E8E8F8" d="M5,22h1v1H5V22z"/>
<path fill="#D89870" d="M7,22h2v1H7V22z"/>
<path fill="#B0B0C8" d="M10,22h1v1h-1V22z"/>
<path fill="#986090" d="M11,22h1v1h-1V22z"/>
<path fill="#040404" d="M5,23h1v1H5V23z"/>
<path fill="#E8E8F8" d="M6,23h1v1H6V23z"/>
<path fill="#040404" d="M7,23h2v1H7V23z"/>
<path fill="#B0B0C8" d="M9,23h1v1H9V23z"/>
<path fill="#986090" d="M10,23h1v1h-1V23z"/>
<path fill="#040404" d="M11,23h1v1h-1V23z"/>
<path fill="#040404" d="M6,24h1v1H6V24z"/>
<path fill="#585080" d="M7,24h3v1H7V24z"/>
<path fill="#040404" d="M10,24h1v1h-1V24z"/>
<path fill="#040404" d="M7,25h3v1H7V25z"/>
</svg>
