<?xml version="1.0" encoding="utf-8"?>
<!-- Generator: Adobe Illustrator 16.0.4, SVG Export Plug-In . SVG Version: 6.00 Build 0)  -->
<!DOCTYPE svg PUBLIC "-//W3C//DTD SVG 1.1//EN" "http://www.w3.org/Graphics/SVG/1.1/DTD/svg11.dtd">
<svg version="1.1" id="Layer_1" xmlns="http://www.w3.org/2000/svg" xmlns:xlink="http://www.w3.org/1999/xlink" x="0px" y="0px"
	 width="17px" height="26px" viewBox="0 0 17 26" enable-background="new 0 0 17 26" xml:space="preserve">
<path fill="#404048" d="M6,2h4v1H6V2z"/>
<path fill="#404048" d="M4,3h2v1H4V3z"/>
<path fill="#785850" d="M6,3h4v1h2v1h1v1h1v2h1v4h-1V9h-1V8h-1v2h-1v1h-1v1H9v1H7v3H6v-2H5v-1h1v-1h1v-1H6v1H5v1H4v-2h1V9h2v1h2V9h1
	V8h1V7h-1v1H8V7H6V6H5V5H4V4h2V3z"/>
<path fill="#404048" d="M10,3h2v1h-2V3z"/>
<path fill="#404048" d="M3,4h1v1H3V4z"/>
<path fill="#030303" d="M12,4h1v1h-1V4z"/>
<path fill="#404048" d="M2,5h1v1H2V5z"/>
<path fill="#785850" d="M3,5h1v1H3V5z"/>
<path fill="#B89058" d="M4,5h1v1H4V5z"/>
<path fill="#030303" d="M13,5h1v1h-1V5z"/>
<path fill="#030303" d="M1,6h1v2H1V6z"/>
<path fill="#785850" d="M2,6h1v1h1v1h1v1H4v2H3v1H2v-2H1V8h1V6z"/>
<path fill="#B89058" d="M3,6h1v1H3V6z"/>
<path fill="#785850" d="M4,6h1v1H4V6z"/>
<path fill="#B89058" d="M5,6h1v1h2v1h2v1H9v1H7V9H5V8H4V7h1V6z"/>
<path fill="#030303" d="M14,6h1v2h-1V6z"/>
<path fill="#B89058" d="M10,7h1v1h-1V7z"/>
<path fill="#030303" d="M0,8h1v6H0V8z"/>
<path fill="#404048" d="M12,8h1v1h1v2h-1v-1h-1V8z"/>
<path fill="#030303" d="M15,8h1v4h-1V8z"/>
<path fill="#404048" d="M4,9h1v2H4V9z"/>
<path fill="#404048" d="M1,10h1v2h1v-1h1v2h1v1h1v2h1v2H6v1H5v1H4v-2H3v-1H2v-3H1V10z"/>
<path fill="#404048" d="M11,10h1v1h-1V10z"/>
<path fill="#F8D0B8" d="M12,10h1v2h1v4h-1v1h-2v-2h2v-2h-1v-1h-1v-1h1V10z"/>
<path fill="#404048" d="M6,11h1v1H6V11z"/>
<path fill="#404048" d="M10,11h1v1h-1V11z"/>
<path fill="#D89870" d="M13,11h1v1h-1V11z"/>
<path fill="#404048" d="M5,12h1v1H5V12z"/>
<path fill="#404048" d="M9,12h1v1H9V12z"/>
<path fill="#F8D0B8" d="M10,12h1v2h-1V12z"/>
<path fill="#785850" d="M11,12h1v1h-1V12z"/>
<path fill="#303050" d="M14,12h1v1h-1V12z"/>
<path fill="#404048" d="M7,13h2v1H7V13z"/>
<path fill="#785850" d="M9,13h1v2h1v1H9V13z"/>
<path fill="#A8A0C8" d="M11,13h1v1h-1V13z"/>
<path fill="#404048" d="M12,13h1v1h-1V13z"/>
<path fill="#784040" d="M14,13h1v2h-1V13z"/>
<path fill="#030303" d="M1,14h1v3H1V14z"/>
<path fill="#D89870" d="M7,14h2v2h2v1h-1v1H9v-1H8v-1H7V14z"/>
<path fill="#D89870" d="M10,14h1v1h-1V14z"/>
<path fill="#E8E8F8" d="M11,14h1v1h-1V14z"/>
<path fill="#030303" d="M12,14h1v1h-1V14z"/>
<path fill="#D89870" d="M14,15h1v1h-1V15z"/>
<path fill="#784040" d="M7,16h1v1H7V16z"/>
<path fill="#784040" d="M13,16h1v1h-1V16z"/>
<path fill="#030303" d="M2,17h1v1H2V17z"/>
<path fill="#030303" d="M7,17h1v1H7V17z"/>
<path fill="#303050" d="M8,17h1v1H8V17z"/>
<path fill="#784040" d="M10,17h3v1h-3V17z"/>
<path fill="#030303" d="M3,18h1v2H3V18z"/>
<path fill="#030303" d="M6,18h1v1H6V18z"/>
<path fill="#784040" d="M7,18h2v1H7V18z"/>
<path fill="#B0B0C8" d="M9,18h2v1H9V18z"/>
<path fill="#030303" d="M11,18h1v1h-1V18z"/>
<path fill="#030303" d="M5,19h1v2H5V19z"/>
<path fill="#606080" d="M6,19h1v1H6V19z"/>
<path fill="#F8D0B8" d="M7,19h2v2h1v1H8v-1H7V19z"/>
<path fill="#784040" d="M9,19h1v2H9V19z"/>
<path fill="#E8E8F8" d="M10,19h1v1h1v1h-2V19z"/>
<path fill="#B0B0C8" d="M11,19h1v1h-1V19z"/>
<path fill="#383038" d="M6,20h1v2H6V20z"/>
<path fill="#383038" d="M12,20h1v2h-1V20z"/>
<path fill="#030303" d="M4,21h1v2H4V21z"/>
<path fill="#B0B0C8" d="M5,21h1v1H5V21z"/>
<path fill="#030303" d="M7,21h1v2H7V21z"/>
<path fill="#784040" d="M10,21h1v2h-1V21z"/>
<path fill="#606080" d="M11,21h1v1h-1V21z"/>
<path fill="#986090" d="M5,22h1v1H5V22z"/>
<path fill="#B0B0C8" d="M6,22h1v1H6V22z"/>
<path fill="#D89870" d="M8,22h2v1H8V22z"/>
<path fill="#E8E8F8" d="M11,22h1v1h-1V22z"/>
<path fill="#030303" d="M5,23h1v1H5V23z"/>
<path fill="#986090" d="M6,23h1v1H6V23z"/>
<path fill="#B0B0C8" d="M7,23h1v1H7V23z"/>
<path fill="#030303" d="M8,23h2v1H8V23z"/>
<path fill="#E8E8F8" d="M10,23h1v1h-1V23z"/>
<path fill="#030303" d="M11,23h1v1h-1V23z"/>
<path fill="#030303" d="M6,24h1v1H6V24z"/>
<path fill="#585080" d="M7,24h3v1H7V24z"/>
<path fill="#030303" d="M10,24h1v1h-1V24z"/>
<path fill="#030303" d="M7,25h3v1H7V25z"/>
</svg>
