<?xml version="1.0" encoding="utf-8"?>
<!-- Generator: Adobe Illustrator 16.0.4, SVG Export Plug-In . SVG Version: 6.00 Build 0)  -->
<!DOCTYPE svg PUBLIC "-//W3C//DTD SVG 1.1//EN" "http://www.w3.org/Graphics/SVG/1.1/DTD/svg11.dtd">
<svg version="1.1" id="Layer_1" xmlns="http://www.w3.org/2000/svg" xmlns:xlink="http://www.w3.org/1999/xlink" x="0px" y="0px"
	 width="92px" height="116px" viewBox="0 0 92 116" enable-background="new 0 0 92 116" xml:space="preserve">
<path fill="#303038" d="M9,2h5v1H9V2z"/>
<path fill="#303038" d="M32,2h5v1h-5V2z"/>
<path fill="#303038" d="M55,2h5v1h-5V2z"/>
<path fill="#303038" d="M78,2h5v1h-5V2z"/>
<path fill="#303038" d="M7,3h2v1H7V3z"/>
<path fill="#808868" d="M9,3h1v1H9V3z"/>
<path fill="#505750" d="M10,3h3v1h3v1h1v2h1v2h1v3h-1v2h-1v-2h-1v-2h-1V9h-1v1h1v2h-1v-1H9v1H8v-2h1V9H8v1H7v2H6v2H5v-2H4V9h1V7h1V5
	h1v2h1v1h2V7H9V4h1V3z"/>
<path fill="#808868" d="M13,3h1v1h-1V3z"/>
<path fill="#303038" d="M14,3h2v1h-2V3z"/>
<path fill="#303038" d="M30,3h2v1h-2V3z"/>
<path fill="#808868" d="M32,3h1v1h-1V3z"/>
<path fill="#505750" d="M33,3h3v1h3v1h1v2h1v2h1v3h-1v2h-1v-2h-1v-2h-1V9h-1v1h1v2h-1v-1h-5v1h-1v-2h1V9h-1v1h-1v2h-1v2h-1v-2h-1V9
	h1V7h1V5h1v2h1v1h2V7h-1V4h1V3z"/>
<path fill="#808868" d="M36,3h1v1h-1V3z"/>
<path fill="#303038" d="M37,3h2v1h-2V3z"/>
<path fill="#303038" d="M53,3h2v1h-2V3z"/>
<path fill="#808868" d="M55,3h1v1h-1V3z"/>
<path fill="#505750" d="M56,3h3v1h3v1h1v2h1v2h1v3h-1v2h-1v-2h-1v-2h-1V9h-1v1h1v2h-1v-1h-5v1h-1v-2h1V9h-1v1h-1v2h-1v2h-1v-2h-1V9
	h1V7h1V5h1v2h1v1h2V7h-1V4h1V3z"/>
<path fill="#808868" d="M59,3h1v1h-1V3z"/>
<path fill="#303038" d="M60,3h2v1h-2V3z"/>
<path fill="#303038" d="M76,3h2v1h-2V3z"/>
<path fill="#808868" d="M78,3h1v1h-1V3z"/>
<path fill="#505750" d="M79,3h3v1h3v1h1v2h1v2h1v3h-1v2h-1v-2h-1v-2h-1V9h-1v1h1v2h-1v-1h-5v1h-1v-2h1V9h-1v1h-1v2h-1v2h-1v-2h-1V9
	h1V7h1V5h1v2h1v1h2V7h-1V4h1V3z"/>
<path fill="#808868" d="M82,3h1v1h-1V3z"/>
<path fill="#303038" d="M83,3h2v1h-2V3z"/>
<path fill="#303038" d="M6,4h1v1H6V4z"/>
<path fill="#505750" d="M7,4h1v1H7V4z"/>
<path fill="#808868" d="M8,4h1v3h1v1H8V7H7V5h1V4z"/>
<path fill="#303038" d="M11,4h1v1h1v1h-1v1h-1V6h-1V5h1V4z"/>
<path fill="#303038" d="M16,4h1v1h-1V4z"/>
<path fill="#303038" d="M29,4h1v1h-1V4z"/>
<path fill="#505750" d="M30,4h1v1h-1V4z"/>
<path fill="#808868" d="M31,4h1v3h1v1h-2V7h-1V5h1V4z"/>
<path fill="#303038" d="M34,4h1v1h1v1h-1v1h-1V6h-1V5h1V4z"/>
<path fill="#303038" d="M39,4h1v1h-1V4z"/>
<path fill="#303038" d="M52,4h1v1h-1V4z"/>
<path fill="#505750" d="M53,4h1v1h-1V4z"/>
<path fill="#808868" d="M54,4h1v3h1v1h-2V7h-1V5h1V4z"/>
<path fill="#303038" d="M57,4h1v1h1v1h-1v1h-1V6h-1V5h1V4z"/>
<path fill="#303038" d="M62,4h1v1h-1V4z"/>
<path fill="#303038" d="M75,4h1v1h-1V4z"/>
<path fill="#505750" d="M76,4h1v1h-1V4z"/>
<path fill="#808868" d="M77,4h1v3h1v1h-2V7h-1V5h1V4z"/>
<path fill="#303038" d="M80,4h1v1h1v1h-1v1h-1V6h-1V5h1V4z"/>
<path fill="#303038" d="M85,4h1v1h-1V4z"/>
<path fill="#010101" d="M5,5h1v2H5V5z"/>
<path fill="#808868" d="M14,5h1v2h-1V5z"/>
<path fill="#010101" d="M17,5h1v2h-1V5z"/>
<path fill="#010101" d="M28,5h1v2h-1V5z"/>
<path fill="#808868" d="M37,5h1v2h-1V5z"/>
<path fill="#010101" d="M40,5h1v2h-1V5z"/>
<path fill="#010101" d="M51,5h1v2h-1V5z"/>
<path fill="#808868" d="M60,5h1v2h-1V5z"/>
<path fill="#010101" d="M63,5h1v2h-1V5z"/>
<path fill="#010101" d="M74,5h1v2h-1V5z"/>
<path fill="#808868" d="M83,5h1v2h-1V5z"/>
<path fill="#010101" d="M86,5h1v2h-1V5z"/>
<path fill="#010101" d="M4,7h1v2H4V7z"/>
<path fill="#808868" d="M13,7h1v1h-1V7z"/>
<path fill="#010101" d="M18,7h1v2h-1V7z"/>
<path fill="#010101" d="M27,7h1v2h-1V7z"/>
<path fill="#808868" d="M36,7h1v1h-1V7z"/>
<path fill="#010101" d="M41,7h1v2h-1V7z"/>
<path fill="#010101" d="M50,7h1v2h-1V7z"/>
<path fill="#808868" d="M59,7h1v1h-1V7z"/>
<path fill="#010101" d="M64,7h1v2h-1V7z"/>
<path fill="#010101" d="M73,7h1v2h-1V7z"/>
<path fill="#808868" d="M82,7h1v1h-1V7z"/>
<path fill="#010101" d="M87,7h1v2h-1V7z"/>
<path fill="#808868" d="M10,8h2v1h-2V8z"/>
<path fill="#808868" d="M33,8h2v1h-2V8z"/>
<path fill="#808868" d="M56,8h2v1h-2V8z"/>
<path fill="#808868" d="M79,8h2v1h-2V8z"/>
<path fill="#010101" d="M3,9h1v4H3V9z"/>
<path fill="#303038" d="M8,9h1v1H8V9z"/>
<path fill="#303038" d="M14,9h1v1h-1V9z"/>
<path fill="#010101" d="M19,9h1v4h-1V9z"/>
<path fill="#010101" d="M26,9h1v4h-1V9z"/>
<path fill="#303038" d="M31,9h1v1h-1V9z"/>
<path fill="#303038" d="M37,9h1v1h-1V9z"/>
<path fill="#010101" d="M42,9h1v4h-1V9z"/>
<path fill="#010101" d="M49,9h1v4h-1V9z"/>
<path fill="#303038" d="M54,9h1v1h-1V9z"/>
<path fill="#303038" d="M60,9h1v1h-1V9z"/>
<path fill="#010101" d="M65,9h1v4h-1V9z"/>
<path fill="#010101" d="M72,9h1v4h-1V9z"/>
<path fill="#303038" d="M77,9h1v1h-1V9z"/>
<path fill="#303038" d="M83,9h1v1h-1V9z"/>
<path fill="#010101" d="M88,9h1v4h-1V9z"/>
<path fill="#303038" d="M7,10h1v2H7V10z"/>
<path fill="#303038" d="M15,10h1v2h-1V10z"/>
<path fill="#303038" d="M30,10h1v2h-1V10z"/>
<path fill="#303038" d="M38,10h1v2h-1V10z"/>
<path fill="#303038" d="M53,10h1v2h-1V10z"/>
<path fill="#303038" d="M61,10h1v2h-1V10z"/>
<path fill="#303038" d="M76,10h1v2h-1V10z"/>
<path fill="#303038" d="M84,10h1v2h-1V10z"/>
<path fill="#303038" d="M9,11h2v1H9V11z"/>
<path fill="#F8D0B8" d="M11,11h1v3h-2v-1h1V11z"/>
<path fill="#303038" d="M12,11h2v1h-2V11z"/>
<path fill="#303038" d="M32,11h2v1h-2V11z"/>
<path fill="#F8D0B8" d="M34,11h1v1h2v1h-1v2h2v1h-1v1h-2v-1h-1v1h-2v-1h-1v-1h2v-2h-1v-1h2V11z"/>
<path fill="#303038" d="M35,11h2v1h-2V11z"/>
<path fill="#303038" d="M55,11h2v1h-2V11z"/>
<path fill="#F8D0B8" d="M57,11h1v3h-2v-1h1V11z"/>
<path fill="#303038" d="M58,11h2v1h-2V11z"/>
<path fill="#303038" d="M78,11h2v1h-2V11z"/>
<path fill="#F8D0B8" d="M80,11h1v1h2v1h-1v2h2v1h-1v1h-2v-1h-1v1h-2v-1h-1v-1h2v-2h-1v-1h2V11z"/>
<path fill="#303038" d="M81,11h2v1h-2V11z"/>
<path fill="#303038" d="M4,12h1v1H4V12z"/>
<path fill="#303038" d="M6,12h1v1h1v1H7v2H6v1H5v-3h1V12z"/>
<path fill="#505750" d="M7,12h1v1H7V12z"/>
<path fill="#303038" d="M8,12h1v1H8V12z"/>
<path fill="#F8D0B8" d="M9,12h1v1H9V12z"/>
<path fill="#F8D0B9" d="M10,12h1v1h-1V12z"/>
<path fill="#F8CFB9" d="M12,12h1v1h-1V12z"/>
<path fill="#F8D0B9" d="M13,12h1v1h-1V12z"/>
<path fill="#303038" d="M14,12h1v1h-1V12z"/>
<path fill="#505750" d="M15,12h1v1h-1V12z"/>
<path fill="#303038" d="M16,12h1v2h1v3h-1v-1h-1v-2h-1v-1h1V12z"/>
<path fill="#303038" d="M18,12h1v1h-1V12z"/>
<path fill="#303038" d="M27,12h1v1h-1V12z"/>
<path fill="#303038" d="M29,12h1v1h1v1h-1v2h-2v-2h1V12z"/>
<path fill="#505750" d="M30,12h1v1h-1V12z"/>
<path fill="#303038" d="M31,12h1v1h-1V12z"/>
<path fill="#303038" d="M37,12h1v1h-1V12z"/>
<path fill="#505750" d="M38,12h1v1h-1V12z"/>
<path fill="#303038" d="M39,12h1v2h1v3h-1v-1h-1v-2h-1v-1h1V12z"/>
<path fill="#303038" d="M41,12h1v1h-1V12z"/>
<path fill="#303038" d="M50,12h1v1h-1V12z"/>
<path fill="#303038" d="M52,12h1v1h1v1h-1v2h-1v1h-1v-3h1V12z"/>
<path fill="#505750" d="M53,12h1v1h-1V12z"/>
<path fill="#303038" d="M54,12h1v1h-1V12z"/>
<path fill="#F8D0B8" d="M55,12h1v1h-1V12z"/>
<path fill="#F8D0B9" d="M56,12h1v1h-1V12z"/>
<path fill="#F8CFB9" d="M58,12h1v1h-1V12z"/>
<path fill="#F8D0B9" d="M59,12h1v1h-1V12z"/>
<path fill="#303038" d="M60,12h1v1h-1V12z"/>
<path fill="#505750" d="M61,12h1v1h-1V12z"/>
<path fill="#303038" d="M62,12h1v2h1v3h-1v-1h-1v-2h-1v-1h1V12z"/>
<path fill="#303038" d="M64,12h1v1h-1V12z"/>
<path fill="#303038" d="M73,12h1v1h-1V12z"/>
<path fill="#303038" d="M75,12h1v1h1v1h-1v2h-1v1h-1v-3h1V12z"/>
<path fill="#505750" d="M76,12h1v1h-1V12z"/>
<path fill="#303038" d="M77,12h1v1h-1V12z"/>
<path fill="#303038" d="M83,12h1v1h-1V12z"/>
<path fill="#505750" d="M84,12h1v1h-1V12z"/>
<path fill="#303038" d="M85,12h1v2h1v2h-2v-2h-1v-1h1V12z"/>
<path fill="#303038" d="M87,12h1v1h-1V12z"/>
<path fill="#010101" d="M4,13h1v3H4V13z"/>
<path fill="#A8A0C8" d="M8,13h1v1H8V13z"/>
<path fill="#505750" d="M9,13h1v1H9V13z"/>
<path fill="#F8CFB8" d="M12,13h1v1h-1V13z"/>
<path fill="#505750" d="M13,13h1v1h-1V13z"/>
<path fill="#A8A1C8" d="M14,13h1v1h-1V13z"/>
<path fill="#010101" d="M18,13h1v3h-1V13z"/>
<path fill="#010101" d="M27,13h1v3h-1V13z"/>
<path fill="#A8A0C8" d="M31,13h1v1h-1V13z"/>
<path fill="#505750" d="M32,13h1v1h-1V13z"/>
<path fill="#505750" d="M36,13h1v1h-1V13z"/>
<path fill="#A8A0C8" d="M37,13h1v1h-1V13z"/>
<path fill="#010101" d="M41,13h1v3h-1V13z"/>
<path fill="#010101" d="M50,13h1v3h-1V13z"/>
<path fill="#A8A0C8" d="M54,13h1v1h-1V13z"/>
<path fill="#505750" d="M55,13h1v1h-1V13z"/>
<path fill="#F8CFB8" d="M58,13h1v1h-1V13z"/>
<path fill="#505750" d="M59,13h1v1h-1V13z"/>
<path fill="#A8A1C8" d="M60,13h1v1h-1V13z"/>
<path fill="#010101" d="M64,13h1v3h-1V13z"/>
<path fill="#010101" d="M73,13h1v3h-1V13z"/>
<path fill="#A8A0C8" d="M77,13h1v1h-1V13z"/>
<path fill="#505750" d="M78,13h1v1h-1V13z"/>
<path fill="#505750" d="M82,13h1v1h-1V13z"/>
<path fill="#A8A0C8" d="M83,13h1v1h-1V13z"/>
<path fill="#010101" d="M87,13h1v3h-1V13z"/>
<path fill="#D89770" d="M7,14h1v1H7V14z"/>
<path fill="#E7E9F7" d="M8,14h1v1H8V14z"/>
<path fill="#010101" d="M9,14h1v1H9V14z"/>
<path fill="#F7CFB8" d="M10,14h1v1h-1V14z"/>
<path fill="#F8D0B9" d="M11,14h1v1h-1V14z"/>
<path fill="#F7CFB8" d="M12,14h1v1h-1V14z"/>
<path fill="#010101" d="M13,14h1v1h-1V14z"/>
<path fill="#E8E8F8" d="M14,14h1v1h-1V14z"/>
<path fill="#D7976F" d="M15,14h1v1h-1V14z"/>
<path fill="#D89870" d="M30,14h1v2h-1V14z"/>
<path fill="#E8E8F8" d="M31,14h1v1h-1V14z"/>
<path fill="#010101" d="M32,14h1v1h-1V14z"/>
<path fill="#010101" d="M36,14h1v1h-1V14z"/>
<path fill="#E8E8F8" d="M37,14h1v1h-1V14z"/>
<path fill="#D89870" d="M38,14h1v2h-1V14z"/>
<path fill="#D89770" d="M53,14h1v1h-1V14z"/>
<path fill="#E7E9F7" d="M54,14h1v1h-1V14z"/>
<path fill="#010101" d="M55,14h1v1h-1V14z"/>
<path fill="#F7CFB8" d="M56,14h1v1h-1V14z"/>
<path fill="#F8D0B9" d="M57,14h1v1h-1V14z"/>
<path fill="#F7CFB8" d="M58,14h1v1h-1V14z"/>
<path fill="#010101" d="M59,14h1v1h-1V14z"/>
<path fill="#E8E8F8" d="M60,14h1v1h-1V14z"/>
<path fill="#D7976F" d="M61,14h1v1h-1V14z"/>
<path fill="#D89870" d="M76,14h1v2h-1V14z"/>
<path fill="#E8E8F8" d="M77,14h1v1h-1V14z"/>
<path fill="#010101" d="M78,14h1v1h-1V14z"/>
<path fill="#010101" d="M82,14h1v1h-1V14z"/>
<path fill="#E8E8F8" d="M83,14h1v1h-1V14z"/>
<path fill="#D89870" d="M84,14h1v2h-1V14z"/>
<path fill="#D79770" d="M7,15h1v1H7V15z"/>
<path fill="#F8D0B9" d="M8,15h3v2h-1v-1H8V15z"/>
<path fill="#F8CFB8" d="M11,15h1v1h-1V15z"/>
<path fill="#F8D0B9" d="M12,15h1v1h-1V15z"/>
<path fill="#F8D0B8" d="M13,15h1v1h-1V15z"/>
<path fill="#F7CFB8" d="M14,15h1v1h-1V15z"/>
<path fill="#D79770" d="M15,15h1v1h-1V15z"/>
<path fill="#D79770" d="M53,15h1v1h-1V15z"/>
<path fill="#F8D0B9" d="M54,15h3v2h-1v-1h-2V15z"/>
<path fill="#F8CFB8" d="M57,15h1v1h-1V15z"/>
<path fill="#F8D0B9" d="M58,15h1v1h-1V15z"/>
<path fill="#F8D0B8" d="M59,15h1v1h-1V15z"/>
<path fill="#F7CFB8" d="M60,15h1v1h-1V15z"/>
<path fill="#D79770" d="M61,15h1v1h-1V15z"/>
<path fill="#010101" d="M6,16h1v1H6V16z"/>
<path fill="#383741" d="M7,16h1v1H7V16z"/>
<path fill="#D79770" d="M8,16h1v1H8V16z"/>
<path fill="#F7CFB8" d="M9,16h1v1H9V16z"/>
<path fill="#D89770" d="M11,16h1v1h-1V16z"/>
<path fill="#F8CFB8" d="M12,16h1v1h-1V16z"/>
<path fill="#F8D0BA" d="M13,16h1v1h-1V16z"/>
<path fill="#D69670" d="M14,16h1v1h-1V16z"/>
<path fill="#303038" d="M15,16h1v1h-1V16z"/>
<path fill="#010101" d="M16,16h1v1h-1V16z"/>
<path fill="#010101" d="M28,16h2v1h-1v1h-2v-1h1V16z"/>
<path fill="#303038" d="M30,16h1v1h-1V16z"/>
<path fill="#D89870" d="M31,16h1v1h-1V16z"/>
<path fill="#D89870" d="M34,16h1v1h1v1h-3v-1h1V16z"/>
<path fill="#D89870" d="M37,16h1v1h-1V16z"/>
<path fill="#303038" d="M38,16h1v1h-1V16z"/>
<path fill="#010101" d="M39,16h1v1h1v3h-1v-2h-1V16z"/>
<path fill="#010101" d="M52,16h1v1h-1V16z"/>
<path fill="#383741" d="M53,16h1v1h-1V16z"/>
<path fill="#D79770" d="M54,16h1v1h-1V16z"/>
<path fill="#F7CFB8" d="M55,16h1v1h-1V16z"/>
<path fill="#D89770" d="M57,16h1v1h-1V16z"/>
<path fill="#F8CFB8" d="M58,16h1v1h-1V16z"/>
<path fill="#F8D0BA" d="M59,16h1v1h-1V16z"/>
<path fill="#D69670" d="M60,16h1v1h-1V16z"/>
<path fill="#303038" d="M61,16h1v1h-1V16z"/>
<path fill="#010101" d="M62,16h1v1h-1V16z"/>
<path fill="#010101" d="M75,16h1v2h-1v2h-1v-3h1V16z"/>
<path fill="#303038" d="M76,16h1v1h-1V16z"/>
<path fill="#D89870" d="M77,16h1v1h-1V16z"/>
<path fill="#D89870" d="M80,16h1v1h1v1h-3v-1h1V16z"/>
<path fill="#D89870" d="M83,16h1v1h-1V16z"/>
<path fill="#303038" d="M84,16h1v1h-1V16z"/>
<path fill="#010101" d="M85,16h2v1h1v1h-2v-1h-1V16z"/>
<path fill="#010101" d="M5,17h1v1H5V17z"/>
<path fill="#E06868" d="M6,17h2v2H7v-1H6V17z"/>
<path fill="#010101" d="M8,17h1v1H8V17z"/>
<path fill="#784040" d="M9,17h1v1H9V17z"/>
<path fill="#D89870" d="M10,17h3v1h-3V17z"/>
<path fill="#784040" d="M13,17h1v1h-1V17z"/>
<path fill="#010101" d="M14,17h1v1h-1V17z"/>
<path fill="#E06868" d="M15,17h2v1h-1v1h-1V17z"/>
<path fill="#010101" d="M17,17h1v1h-1V17z"/>
<path fill="#985858" d="M29,17h2v2h-2V17z"/>
<path fill="#010101" d="M31,17h1v1h-1V17z"/>
<path fill="#784040" d="M32,17h1v1h-1V17z"/>
<path fill="#784040" d="M36,17h1v1h-1V17z"/>
<path fill="#010101" d="M37,17h1v1h-1V17z"/>
<path fill="#E06868" d="M38,17h1v2h-1V17z"/>
<path fill="#010101" d="M51,17h1v1h-1V17z"/>
<path fill="#E06868" d="M52,17h2v2h-1v-1h-1V17z"/>
<path fill="#010101" d="M54,17h1v1h-1V17z"/>
<path fill="#784040" d="M55,17h1v1h-1V17z"/>
<path fill="#D89870" d="M56,17h3v1h-3V17z"/>
<path fill="#784040" d="M59,17h1v1h-1V17z"/>
<path fill="#010101" d="M60,17h1v1h-1V17z"/>
<path fill="#E06868" d="M61,17h2v1h-1v1h-1V17z"/>
<path fill="#010101" d="M63,17h1v1h-1V17z"/>
<path fill="#E06868" d="M76,17h1v2h-1V17z"/>
<path fill="#010101" d="M77,17h1v1h-1V17z"/>
<path fill="#784040" d="M78,17h1v1h-1V17z"/>
<path fill="#784040" d="M82,17h1v1h-1V17z"/>
<path fill="#010101" d="M83,17h1v1h-1V17z"/>
<path fill="#985858" d="M84,17h2v2h-2V17z"/>
<path fill="#010101" d="M4,18h1v1H4V18z"/>
<path fill="#985858" d="M5,18h1v1H5V18z"/>
<path fill="#F8E8E8" d="M6,18h1v1H6V18z"/>
<path fill="#985858" d="M8,18h1v1h1v1h1v-1h1v1h1v-1h1v-1h1v2h-1v1H9v-1H8V18z"/>
<path fill="#E06868" d="M9,18h1v1H9V18z"/>
<path fill="#985858" d="M10,18h1v1h-1V18z"/>
<path fill="#F8D0B8" d="M11,18h1v1h-1V18z"/>
<path fill="#985858" d="M12,18h1v1h-1V18z"/>
<path fill="#E06868" d="M13,18h1v1h-1V18z"/>
<path fill="#F8E8E8" d="M16,18h1v1h-1V18z"/>
<path fill="#985858" d="M17,18h1v1h-1V18z"/>
<path fill="#010101" d="M18,18h1v1h-1V18z"/>
<path fill="#784040" d="M26,18h1v2h-1V18z"/>
<path fill="#D89870" d="M27,18h1v2h-1V18z"/>
<path fill="#B8B0D8" d="M28,18h1v2h-1V18z"/>
<path fill="#493130" d="M31,18h1v1h-1V18z"/>
<path fill="#E06868" d="M32,18h1v1h-1V18z"/>
<path fill="#985858" d="M33,18h1v1h-1V18z"/>
<path fill="#F8D0B8" d="M34,18h1v1h-1V18z"/>
<path fill="#985858" d="M35,18h1v1h-1V18z"/>
<path fill="#E06868" d="M36,18h1v1h-1V18z"/>
<path fill="#985858" d="M37,18h1v2h-1v1h-5v-1h-1v-1h2v1h1v-1h1v1h1v-1h1V18z"/>
<path fill="#E8E8F8" d="M39,18h1v1h-1V18z"/>
<path fill="#010101" d="M50,18h1v1h-1V18z"/>
<path fill="#985858" d="M51,18h1v1h-1V18z"/>
<path fill="#F8E8E8" d="M52,18h1v1h-1V18z"/>
<path fill="#985858" d="M54,18h1v1h1v1h1v-1h1v1h1v-1h1v-1h1v2h-1v1h-5v-1h-1V18z"/>
<path fill="#E06868" d="M55,18h1v1h-1V18z"/>
<path fill="#985858" d="M56,18h1v1h-1V18z"/>
<path fill="#F8D0B8" d="M57,18h1v1h-1V18z"/>
<path fill="#985858" d="M58,18h1v1h-1V18z"/>
<path fill="#E06868" d="M59,18h1v1h-1V18z"/>
<path fill="#F8E8E8" d="M62,18h1v1h-1V18z"/>
<path fill="#985858" d="M63,18h1v1h-1V18z"/>
<path fill="#010101" d="M64,18h1v1h-1V18z"/>
<path fill="#E8E8F8" d="M75,18h1v1h-1V18z"/>
<path fill="#985858" d="M77,18h1v1h1v1h1v-1h1v1h1v-1h2v1h-1v1h-5v-1h-1V18z"/>
<path fill="#E06868" d="M78,18h1v1h-1V18z"/>
<path fill="#985858" d="M79,18h1v1h-1V18z"/>
<path fill="#F8D0B8" d="M80,18h1v1h-1V18z"/>
<path fill="#985858" d="M81,18h1v1h-1V18z"/>
<path fill="#E06868" d="M82,18h1v1h-1V18z"/>
<path fill="#493130" d="M83,18h1v1h-1V18z"/>
<path fill="#B8B0D8" d="M86,18h1v2h-1V18z"/>
<path fill="#D89870" d="M87,18h1v2h-1V18z"/>
<path fill="#784040" d="M88,18h1v2h-1V18z"/>
<path fill="#784040" d="M3,19h1v2H3V19z"/>
<path fill="#F8D0B8" d="M4,19h2v1H4V19z"/>
<path fill="#985858" d="M6,19h1v1H6V19z"/>
<path fill="#010101" d="M7,19h1v2H7V19z"/>
<path fill="#E06868" d="M10,19h1v1h-1V19z"/>
<path fill="#E06868" d="M12,19h1v1h-1V19z"/>
<path fill="#010101" d="M15,19h1v2h-1V19z"/>
<path fill="#985858" d="M16,19h1v1h-1V19z"/>
<path fill="#F8D0B8" d="M17,19h2v1h-2V19z"/>
<path fill="#784040" d="M19,19h1v2h-1V19z"/>
<path fill="#010101" d="M29,19h2v2h-1v-1h-1V19z"/>
<path fill="#E06868" d="M33,19h1v1h-1V19z"/>
<path fill="#E06868" d="M35,19h1v1h-1V19z"/>
<path fill="#E8E8F8" d="M38,19h1v1h-1V19z"/>
<path fill="#985858" d="M39,19h1v1h-1V19z"/>
<path fill="#784040" d="M49,19h1v2h-1V19z"/>
<path fill="#F8D0B8" d="M50,19h2v1h-2V19z"/>
<path fill="#985858" d="M52,19h1v1h-1V19z"/>
<path fill="#010101" d="M53,19h1v2h-1V19z"/>
<path fill="#E06868" d="M56,19h1v1h-1V19z"/>
<path fill="#E06868" d="M58,19h1v1h-1V19z"/>
<path fill="#010101" d="M61,19h1v2h-1V19z"/>
<path fill="#985858" d="M62,19h1v1h-1V19z"/>
<path fill="#F8D0B8" d="M63,19h2v1h-2V19z"/>
<path fill="#784040" d="M65,19h1v2h-1V19z"/>
<path fill="#985858" d="M75,19h1v1h-1V19z"/>
<path fill="#E8E8F8" d="M76,19h1v1h-1V19z"/>
<path fill="#E06868" d="M79,19h1v1h-1V19z"/>
<path fill="#E06868" d="M81,19h1v1h-1V19z"/>
<path fill="#010101" d="M84,19h2v1h-1v1h-1V19z"/>
<path fill="#D89870" d="M4,20h2v1H4V20z"/>
<path fill="#784040" d="M6,20h1v1H6V20z"/>
<path fill="#493130" d="M8,20h1v1H8V20z"/>
<path fill="#493130" d="M14,20h1v1h-1V20z"/>
<path fill="#784040" d="M16,20h1v1h-1V20z"/>
<path fill="#D89870" d="M17,20h2v1h-2V20z"/>
<path fill="#010101" d="M27,20h2v1h-2V20z"/>
<path fill="#B8B0D8" d="M29,20h1v1h-1V20z"/>
<path fill="#493130" d="M31,20h1v1h-1V20z"/>
<path fill="#493130" d="M37,20h1v1h-1V20z"/>
<path fill="#010101" d="M38,20h1v1h-1V20z"/>
<path fill="#F8D0B8" d="M39,20h2v1h-2V20z"/>
<path fill="#784040" d="M41,20h1v2h-1V20z"/>
<path fill="#D89870" d="M50,20h2v1h-2V20z"/>
<path fill="#784040" d="M52,20h1v1h-1V20z"/>
<path fill="#493130" d="M54,20h1v1h-1V20z"/>
<path fill="#493130" d="M60,20h1v1h-1V20z"/>
<path fill="#784040" d="M62,20h1v1h-1V20z"/>
<path fill="#D89870" d="M63,20h2v1h-2V20z"/>
<path fill="#784040" d="M73,20h1v2h-1V20z"/>
<path fill="#F8D0B8" d="M74,20h2v1h-2V20z"/>
<path fill="#010101" d="M76,20h1v1h-1V20z"/>
<path fill="#493130" d="M77,20h1v1h-1V20z"/>
<path fill="#493130" d="M83,20h1v1h-1V20z"/>
<path fill="#B8B0D8" d="M85,20h1v1h-1V20z"/>
<path fill="#010101" d="M86,20h2v1h-2V20z"/>
<path fill="#784040" d="M4,21h2v1H4V21z"/>
<path fill="#010101" d="M6,21h1v3H6V21z"/>
<path fill="#B8B0D8" d="M7,21h2v2H8v-1H7V21z"/>
<path fill="#493130" d="M9,21h5v1H9V21z"/>
<path fill="#B8B0D8" d="M14,21h2v1h-1v1h-1V21z"/>
<path fill="#010101" d="M16,21h1v3h-1V21z"/>
<path fill="#784040" d="M17,21h2v1h-2V21z"/>
<path fill="#010101" d="M29,21h1v2h1v1h-1v1h-1V21z"/>
<path fill="#B8B0D8" d="M30,21h2v2h1v1h-2v-1h-1V21z"/>
<path fill="#493130" d="M32,21h5v1h-5V21z"/>
<path fill="#B8B0D8" d="M37,21h1v2h-1V21z"/>
<path fill="#686878" d="M38,21h1v1h-1V21z"/>
<path fill="#D89870" d="M39,21h2v1h-2V21z"/>
<path fill="#784040" d="M50,21h2v1h-2V21z"/>
<path fill="#010101" d="M52,21h1v3h-1V21z"/>
<path fill="#B8B0D8" d="M53,21h2v2h-1v-1h-1V21z"/>
<path fill="#493130" d="M55,21h5v1h-5V21z"/>
<path fill="#B8B0D8" d="M60,21h2v1h-1v1h-1V21z"/>
<path fill="#010101" d="M62,21h1v3h-1V21z"/>
<path fill="#784040" d="M63,21h2v1h-2V21z"/>
<path fill="#D89870" d="M74,21h2v1h-2V21z"/>
<path fill="#686878" d="M76,21h1v1h-1V21z"/>
<path fill="#B8B0D8" d="M77,21h1v2h-1V21z"/>
<path fill="#493130" d="M78,21h5v1h-5V21z"/>
<path fill="#B8B0D8" d="M83,21h2v2h-1v1h-2v-1h1V21z"/>
<path fill="#010101" d="M85,21h1v4h-1v-1h-1v-1h1V21z"/>
<path fill="#686878" d="M7,22h1v1H7V22z"/>
<path fill="#E8E8F8" d="M9,22h5v1h-1v1h-3v-1H9V22z"/>
<path fill="#686878" d="M15,22h1v1h-1V22z"/>
<path fill="#E8E8F8" d="M32,22h5v1h-1v1h-3v-1h-1V22z"/>
<path fill="#010101" d="M38,22h1v1h-1V22z"/>
<path fill="#784040" d="M39,22h2v1h-2V22z"/>
<path fill="#686878" d="M53,22h1v1h-1V22z"/>
<path fill="#E8E8F8" d="M55,22h5v1h-1v1h-3v-1h-1V22z"/>
<path fill="#686878" d="M61,22h1v1h-1V22z"/>
<path fill="#784040" d="M74,22h2v1h-2V22z"/>
<path fill="#010101" d="M76,22h1v1h-1V22z"/>
<path fill="#E8E8F8" d="M78,22h5v1h-1v1h-3v-1h-1V22z"/>
<path fill="#D89870" d="M7,23h1v1H7V23z"/>
<path fill="#686878" d="M8,23h1v1H8V23z"/>
<path fill="#B8B0D8" d="M9,23h1v1H9V23z"/>
<path fill="#B8B0D8" d="M13,23h1v1h-1V23z"/>
<path fill="#686878" d="M14,23h1v1h-1V23z"/>
<path fill="#D89870" d="M15,23h1v1h-1V23z"/>
<path fill="#010101" d="M36,23h2v1h-2V23z"/>
<path fill="#D89870" d="M53,23h1v1h-1V23z"/>
<path fill="#686878" d="M54,23h1v1h-1V23z"/>
<path fill="#B8B0D8" d="M55,23h1v1h-1V23z"/>
<path fill="#B8B0D8" d="M59,23h1v1h-1V23z"/>
<path fill="#686878" d="M60,23h1v1h-1V23z"/>
<path fill="#D89870" d="M61,23h1v1h-1V23z"/>
<path fill="#010101" d="M77,23h2v1h-2V23z"/>
<path fill="#010101" d="M7,24h1v1H7V24z"/>
<path fill="#585898" d="M8,24h2v1H8V24z"/>
<path fill="#010101" d="M10,24h3v1h-3V24z"/>
<path fill="#585898" d="M13,24h2v1h-2V24z"/>
<path fill="#010101" d="M15,24h1v1h-1V24z"/>
<path fill="#D89870" d="M30,24h1v1h-1V24z"/>
<path fill="#985858" d="M31,24h1v1h-1V24z"/>
<path fill="#010101" d="M32,24h3v1h-1v2h-1v-2h-1V24z"/>
<path fill="#493130" d="M35,24h1v1h-1V24z"/>
<path fill="#010101" d="M53,24h1v1h-1V24z"/>
<path fill="#585898" d="M54,24h2v1h-2V24z"/>
<path fill="#010101" d="M56,24h3v1h-3V24z"/>
<path fill="#585898" d="M59,24h2v1h-2V24z"/>
<path fill="#010101" d="M61,24h1v1h-1V24z"/>
<path fill="#493130" d="M79,24h1v1h-1V24z"/>
<path fill="#010101" d="M80,24h3v1h-1v2h-1v-2h-1V24z"/>
<path fill="#985858" d="M83,24h1v1h-1V24z"/>
<path fill="#D89870" d="M84,24h1v1h-1V24z"/>
<path fill="#010101" d="M8,25h2v1H8V25z"/>
<path fill="#010101" d="M13,25h2v1h-2V25z"/>
<path fill="#010101" d="M30,25h1v2h-1V25z"/>
<path fill="#F8D0B8" d="M31,25h2v1h-2V25z"/>
<path fill="#010101" d="M54,25h2v1h-2V25z"/>
<path fill="#010101" d="M59,25h2v1h-2V25z"/>
<path fill="#F8D0B8" d="M82,25h2v1h-2V25z"/>
<path fill="#010101" d="M84,25h1v2h-1V25z"/>
<path fill="#6890E0" d="M31,26h2v1h-2V26z"/>
<path fill="#6890E0" d="M82,26h2v1h-2V26z"/>
<path fill="#010101" d="M31,27h2v1h-2V27z"/>
<path fill="#010101" d="M82,27h2v1h-2V27z"/>
<path fill="#303038" d="M9,31h4v1H9V31z"/>
<path fill="#303038" d="M32,31h4v1h-4V31z"/>
<path fill="#303038" d="M55,31h4v1h-4V31z"/>
<path fill="#303038" d="M78,31h4v1h-4V31z"/>
<path fill="#303038" d="M7,32h2v1H7V32z"/>
<path fill="#505750" d="M9,32h4v1h2v1h1v1h1v4h-1v2h-1v1h-2v1h-1v1h-2v-1H8v-1H7v-2h1v-1h3v-1h2v-1h-2v-1H9v-1H8v-1H7v-1h2V32z"/>
<path fill="#303038" d="M13,32h2v1h-2V32z"/>
<path fill="#373840" d="M30,32h1v1h-1V32z"/>
<path fill="#303038" d="M31,32h1v1h-1V32z"/>
<path fill="#505750" d="M32,32h4v1h2v1h1v1h1v4h-1v2h-1v1h-2v1h-1v1h-2v-1h-2v-1h-1v-2h1v-1h3v-1h2v-1h-2v-1h-2v-1h-1v-1h-1v-1h2V32
	z"/>
<path fill="#303038" d="M36,32h2v1h-2V32z"/>
<path fill="#303038" d="M53,32h2v1h-2V32z"/>
<path fill="#505750" d="M55,32h4v1h2v1h1v1h1v4h-1v2h-1v1h-2v1h-1v1h-2v-1h-2v-1h-1v-2h1v-1h3v-1h2v-1h-2v-1h-2v-1h-1v-1h-1v-1h2V32
	z"/>
<path fill="#303038" d="M59,32h2v1h-2V32z"/>
<path fill="#303038" d="M76,32h2v1h-2V32z"/>
<path fill="#505750" d="M78,32h4v1h2v1h1v1h1v4h-1v2h-1v1h-2v1h-1v1h-2v-1h-2v-1h-1v-2h1v-1h3v-1h2v-1h-2v-1h-2v-1h-1v-1h-1v-1h2V32
	z"/>
<path fill="#303038" d="M82,32h2v1h-2V32z"/>
<path fill="#303038" d="M6,33h1v1H6V33z"/>
<path fill="#010101" d="M15,33h1v1h-1V33z"/>
<path fill="#303038" d="M29,33h1v1h-1V33z"/>
<path fill="#010101" d="M38,33h1v1h-1V33z"/>
<path fill="#303038" d="M52,33h1v1h-1V33z"/>
<path fill="#010101" d="M61,33h1v1h-1V33z"/>
<path fill="#303038" d="M75,33h1v1h-1V33z"/>
<path fill="#010101" d="M84,33h1v1h-1V33z"/>
<path fill="#303038" d="M5,34h1v1H5V34z"/>
<path fill="#505750" d="M6,34h1v1H6V34z"/>
<path fill="#808868" d="M7,34h1v1H7V34z"/>
<path fill="#010101" d="M16,34h1v1h-1V34z"/>
<path fill="#303038" d="M28,34h1v1h-1V34z"/>
<path fill="#505750" d="M29,34h1v1h-1V34z"/>
<path fill="#808868" d="M30,34h1v1h-1V34z"/>
<path fill="#010101" d="M39,34h1v1h-1V34z"/>
<path fill="#303038" d="M51,34h1v1h-1V34z"/>
<path fill="#505750" d="M52,34h1v1h-1V34z"/>
<path fill="#808868" d="M53,34h1v1h-1V34z"/>
<path fill="#010101" d="M62,34h1v1h-1V34z"/>
<path fill="#303038" d="M74,34h1v1h-1V34z"/>
<path fill="#505750" d="M75,34h1v1h-1V34z"/>
<path fill="#808868" d="M76,34h1v1h-1V34z"/>
<path fill="#010101" d="M85,34h1v1h-1V34z"/>
<path fill="#010101" d="M4,35h1v2H4V35z"/>
<path fill="#505750" d="M5,35h1v1h1v4H6v1H5v-2H4v-2h1V35z"/>
<path fill="#808868" d="M6,35h1v1H6V35z"/>
<path fill="#505750" d="M7,35h1v1H7V35z"/>
<path fill="#808868" d="M8,35h1v1h2v1h2v1h-2v1H8v-1H7v-2h1V35z"/>
<path fill="#010101" d="M17,35h1v2h-1V35z"/>
<path fill="#010101" d="M27,35h1v2h-1V35z"/>
<path fill="#505750" d="M28,35h1v1h1v4h-1v1h-1v-2h-1v-2h1V35z"/>
<path fill="#808868" d="M29,35h1v1h-1V35z"/>
<path fill="#505750" d="M30,35h1v1h-1V35z"/>
<path fill="#808868" d="M31,35h1v1h2v1h2v1h-2v1h-3v-1h-1v-2h1V35z"/>
<path fill="#010101" d="M40,35h1v2h-1V35z"/>
<path fill="#010101" d="M50,35h1v2h-1V35z"/>
<path fill="#505750" d="M51,35h1v1h1v4h-1v1h-1v-2h-1v-2h1V35z"/>
<path fill="#808868" d="M52,35h1v1h-1V35z"/>
<path fill="#505750" d="M53,35h1v1h-1V35z"/>
<path fill="#808868" d="M54,35h1v1h2v1h2v1h-2v1h-3v-1h-1v-2h1V35z"/>
<path fill="#010101" d="M63,35h1v2h-1V35z"/>
<path fill="#010101" d="M73,35h1v2h-1V35z"/>
<path fill="#505750" d="M74,35h1v1h1v4h-1v1h-1v-2h-1v-2h1V35z"/>
<path fill="#808868" d="M75,35h1v1h-1V35z"/>
<path fill="#505750" d="M76,35h1v1h-1V35z"/>
<path fill="#808868" d="M77,35h1v1h2v1h2v1h-2v1h-3v-1h-1v-2h1V35z"/>
<path fill="#010101" d="M86,35h1v2h-1V35z"/>
<path fill="#808868" d="M13,36h1v1h-1V36z"/>
<path fill="#808868" d="M36,36h1v1h-1V36z"/>
<path fill="#808868" d="M59,36h1v1h-1V36z"/>
<path fill="#808868" d="M82,36h1v1h-1V36z"/>
<path fill="#010101" d="M3,37h1v6H3V37z"/>
<path fill="#505750" d="M8,37h1v1H8V37z"/>
<path fill="#303038" d="M17,37h1v2h-1V37z"/>
<path fill="#010101" d="M18,37h1v4h-1V37z"/>
<path fill="#010101" d="M26,37h1v6h-1V37z"/>
<path fill="#505750" d="M31,37h1v1h-1V37z"/>
<path fill="#303038" d="M40,37h1v2h-1V37z"/>
<path fill="#010101" d="M41,37h1v4h-1V37z"/>
<path fill="#010101" d="M49,37h1v6h-1V37z"/>
<path fill="#505750" d="M54,37h1v1h-1V37z"/>
<path fill="#303038" d="M63,37h1v2h-1V37z"/>
<path fill="#010101" d="M64,37h1v4h-1V37z"/>
<path fill="#010101" d="M72,37h1v6h-1V37z"/>
<path fill="#505750" d="M77,37h1v1h-1V37z"/>
<path fill="#303038" d="M86,37h1v2h-1V37z"/>
<path fill="#010101" d="M87,37h1v4h-1V37z"/>
<path fill="#303038" d="M7,38h1v2H7V38z"/>
<path fill="#303038" d="M30,38h1v2h-1V38z"/>
<path fill="#303038" d="M53,38h1v2h-1V38z"/>
<path fill="#303038" d="M76,38h1v2h-1V38z"/>
<path fill="#303038" d="M4,39h1v2h1v-1h1v2h1v1h2v1h2v1h-2v2H9v2H7v-1H6v-2H5v-3H4V39z"/>
<path fill="#303038" d="M16,39h1v2h-1V39z"/>
<path fill="#505750" d="M17,39h1v2h-1V39z"/>
<path fill="#303038" d="M27,39h1v2h1v-1h1v2h1v1h2v1h2v1h-2v2h-1v2h-2v-1h-1v-2h-1v-3h-1V39z"/>
<path fill="#303038" d="M39,39h1v2h-1V39z"/>
<path fill="#505750" d="M40,39h1v2h-1V39z"/>
<path fill="#303038" d="M50,39h1v2h1v-1h1v2h1v1h2v1h2v1h-2v2h-1v2h-2v-1h-1v-2h-1v-3h-1V39z"/>
<path fill="#303038" d="M62,39h1v2h-1V39z"/>
<path fill="#505750" d="M63,39h1v2h-1V39z"/>
<path fill="#303038" d="M73,39h1v2h1v-1h1v2h1v1h2v1h2v1h-2v2h-1v2h-2v-1h-1v-2h-1v-3h-1V39z"/>
<path fill="#303038" d="M85,39h1v2h-1V39z"/>
<path fill="#505750" d="M86,39h1v2h-1V39z"/>
<path fill="#303038" d="M8,41h1v1H8V41z"/>
<path fill="#303038" d="M15,41h1v1h-1V41z"/>
<path fill="#F8D0B8" d="M16,41h1v4h-1v1h-2v-2h2V41z"/>
<path fill="#303038" d="M17,41h1v1h-1V41z"/>
<path fill="#303038" d="M31,41h1v1h-1V41z"/>
<path fill="#303038" d="M38,41h1v1h-1V41z"/>
<path fill="#F8D0B8" d="M39,41h1v4h-1v1h-2v-2h2V41z"/>
<path fill="#303038" d="M40,41h1v1h-1V41z"/>
<path fill="#303038" d="M54,41h1v1h-1V41z"/>
<path fill="#303038" d="M61,41h1v1h-1V41z"/>
<path fill="#F8D0B8" d="M62,41h1v4h-1v1h-2v-2h2V41z"/>
<path fill="#303038" d="M63,41h1v1h-1V41z"/>
<path fill="#303038" d="M77,41h1v1h-1V41z"/>
<path fill="#303038" d="M84,41h1v1h-1V41z"/>
<path fill="#F8D0B8" d="M85,41h1v4h-1v1h-2v-2h2V41z"/>
<path fill="#303038" d="M86,41h1v1h-1V41z"/>
<path fill="#303038" d="M10,42h1v1h-1V42z"/>
<path fill="#303038" d="M13,42h1v1h-1V42z"/>
<path fill="#A8A0C8" d="M14,42h1v1h-1V42z"/>
<path fill="#505750" d="M15,42h1v1h-1V42z"/>
<path fill="#784040" d="M17,42h1v2h-1V42z"/>
<path fill="#303038" d="M33,42h1v1h-1V42z"/>
<path fill="#303038" d="M36,42h1v1h-1V42z"/>
<path fill="#A8A0C8" d="M37,42h1v1h-1V42z"/>
<path fill="#505750" d="M38,42h1v1h-1V42z"/>
<path fill="#784040" d="M40,42h1v2h-1V42z"/>
<path fill="#303038" d="M56,42h1v1h-1V42z"/>
<path fill="#303038" d="M59,42h1v1h-1V42z"/>
<path fill="#A8A0C8" d="M60,42h1v1h-1V42z"/>
<path fill="#505750" d="M61,42h1v1h-1V42z"/>
<path fill="#784040" d="M63,42h1v2h-1V42z"/>
<path fill="#303038" d="M79,42h1v1h-1V42z"/>
<path fill="#303038" d="M82,42h1v1h-1V42z"/>
<path fill="#A8A0C8" d="M83,42h1v1h-1V42z"/>
<path fill="#505750" d="M84,42h1v1h-1V42z"/>
<path fill="#784040" d="M86,42h1v2h-1V42z"/>
<path fill="#010101" d="M4,43h1v3H4V43z"/>
<path fill="#303038" d="M12,43h1v1h-1V43z"/>
<path fill="#D89870" d="M13,43h1v2h-1V43z"/>
<path fill="#E8E8F8" d="M14,43h1v1h-1V43z"/>
<path fill="#010101" d="M15,43h1v1h-1V43z"/>
<path fill="#010101" d="M27,43h1v3h-1V43z"/>
<path fill="#303038" d="M35,43h1v1h-1V43z"/>
<path fill="#D89870" d="M36,43h1v2h-1V43z"/>
<path fill="#E8E8F8" d="M37,43h1v1h-1V43z"/>
<path fill="#010101" d="M38,43h1v1h-1V43z"/>
<path fill="#010101" d="M50,43h1v3h-1V43z"/>
<path fill="#303038" d="M58,43h1v1h-1V43z"/>
<path fill="#D89870" d="M59,43h1v2h-1V43z"/>
<path fill="#E8E8F8" d="M60,43h1v1h-1V43z"/>
<path fill="#010101" d="M61,43h1v1h-1V43z"/>
<path fill="#010101" d="M73,43h1v3h-1V43z"/>
<path fill="#303038" d="M81,43h1v1h-1V43z"/>
<path fill="#D89870" d="M82,43h1v2h-1V43z"/>
<path fill="#E8E8F8" d="M83,43h1v1h-1V43z"/>
<path fill="#010101" d="M84,43h1v1h-1V43z"/>
<path fill="#505750" d="M12,44h1v1h1v1h-2V44z"/>
<path fill="#D89870" d="M17,44h1v1h-1V44z"/>
<path fill="#505750" d="M35,44h1v1h1v1h-2V44z"/>
<path fill="#D89870" d="M40,44h1v1h-1V44z"/>
<path fill="#505750" d="M58,44h1v1h1v1h-2V44z"/>
<path fill="#D89870" d="M63,44h1v1h-1V44z"/>
<path fill="#505750" d="M81,44h1v1h1v1h-2V44z"/>
<path fill="#D89870" d="M86,44h1v1h-1V44z"/>
<path fill="#784040" d="M10,45h1v1h-1V45z"/>
<path fill="#D89870" d="M11,45h1v1h-1V45z"/>
<path fill="#784040" d="M16,45h1v1h-1V45z"/>
<path fill="#784040" d="M33,45h1v1h-1V45z"/>
<path fill="#D89870" d="M34,45h1v1h-1V45z"/>
<path fill="#784040" d="M39,45h1v1h-1V45z"/>
<path fill="#784040" d="M56,45h1v1h-1V45z"/>
<path fill="#D89870" d="M57,45h1v1h-1V45z"/>
<path fill="#784040" d="M62,45h1v1h-1V45z"/>
<path fill="#784040" d="M79,45h1v1h-1V45z"/>
<path fill="#D89870" d="M80,45h1v1h-1V45z"/>
<path fill="#784040" d="M85,45h1v1h-1V45z"/>
<path fill="#010101" d="M5,46h1v2H5V46z"/>
<path fill="#010101" d="M10,46h2v1h-2V46z"/>
<path fill="#D89870" d="M12,46h1v2h-1V46z"/>
<path fill="#784040" d="M13,46h3v1h-3V46z"/>
<path fill="#010101" d="M28,46h1v2h-1V46z"/>
<path fill="#010101" d="M33,46h2v1h-1v1h-1v1h-1v-2h1V46z"/>
<path fill="#D89870" d="M35,46h1v1h-1V46z"/>
<path fill="#784040" d="M36,46h3v1h-3V46z"/>
<path fill="#010101" d="M51,46h1v2h-1V46z"/>
<path fill="#010101" d="M56,46h2v1h-2V46z"/>
<path fill="#D89870" d="M58,46h1v2h-1V46z"/>
<path fill="#784040" d="M59,46h3v1h-3V46z"/>
<path fill="#010101" d="M74,46h1v2h-1V46z"/>
<path fill="#010101" d="M79,46h2v1h-1v1h-1v1h-1v-2h1V46z"/>
<path fill="#D89870" d="M81,46h1v1h-1V46z"/>
<path fill="#784040" d="M82,46h3v1h-3V46z"/>
<path fill="#010101" d="M9,47h1v2H9V47z"/>
<path fill="#493130" d="M10,47h1v1h-1V47z"/>
<path fill="#E06868" d="M11,47h1v1h-1V47z"/>
<path fill="#010101" d="M13,47h2v1h-2V47z"/>
<path fill="#493130" d="M34,47h1v1h-1V47z"/>
<path fill="#E06868" d="M35,47h1v1h-1V47z"/>
<path fill="#D89870" d="M36,47h1v1h-1V47z"/>
<path fill="#010101" d="M37,47h1v1h-1V47z"/>
<path fill="#010101" d="M55,47h1v2h-1V47z"/>
<path fill="#493130" d="M56,47h1v1h-1V47z"/>
<path fill="#E06868" d="M57,47h1v1h-1V47z"/>
<path fill="#010101" d="M59,47h2v1h-2V47z"/>
<path fill="#493130" d="M80,47h2v1h-2V47z"/>
<path fill="#D89870" d="M82,47h1v1h-1V47z"/>
<path fill="#010101" d="M83,47h1v1h-1V47z"/>
<path fill="#010101" d="M6,48h1v1H6V48z"/>
<path fill="#E06868" d="M10,48h1v1h-1V48z"/>
<path fill="#493130" d="M11,48h1v2h-1V48z"/>
<path fill="#E06868" d="M12,48h2v1h-1v1h-1V48z"/>
<path fill="#493130" d="M14,48h1v2h-1V48z"/>
<path fill="#010101" d="M29,48h1v1h-1V48z"/>
<path fill="#E06868" d="M33,48h2v1h-2V48z"/>
<path fill="#493130" d="M35,48h1v2h-1V48z"/>
<path fill="#E06868" d="M36,48h2v1h-1v1h-1V48z"/>
<path fill="#493130" d="M38,48h1v2h-1V48z"/>
<path fill="#010101" d="M52,48h1v1h-1V48z"/>
<path fill="#E06868" d="M56,48h1v1h-1V48z"/>
<path fill="#493130" d="M57,48h1v2h-1V48z"/>
<path fill="#E06868" d="M58,48h2v1h-1v1h-1V48z"/>
<path fill="#493130" d="M60,48h1v2h-1V48z"/>
<path fill="#010101" d="M75,48h1v1h-1V48z"/>
<path fill="#303038" d="M79,48h1v1h-1V48z"/>
<path fill="#E06868" d="M80,48h2v1h-2V48z"/>
<path fill="#493130" d="M82,48h1v2h-1V48z"/>
<path fill="#E06868" d="M83,48h1v2h-1V48z"/>
<path fill="#493130" d="M84,48h1v2h-1V48z"/>
<path fill="#010101" d="M7,49h1v1H7V49z"/>
<path fill="#493130" d="M8,49h1v2H8V49z"/>
<path fill="#F8E8E8" d="M9,49h1v1H9V49z"/>
<path fill="#985858" d="M10,49h1v1h-1V49z"/>
<path fill="#985858" d="M13,49h1v1h-1V49z"/>
<path fill="#010101" d="M31,49h1v3h-2v-2h1V49z"/>
<path fill="#985858" d="M32,49h1v1h-1V49z"/>
<path fill="#F8E8E8" d="M33,49h2v1h-2V49z"/>
<path fill="#985858" d="M37,49h1v1h-1V49z"/>
<path fill="#010101" d="M53,49h1v1h-1V49z"/>
<path fill="#493130" d="M54,49h1v2h-1V49z"/>
<path fill="#F8E8E8" d="M55,49h1v1h-1V49z"/>
<path fill="#985858" d="M56,49h1v1h-1V49z"/>
<path fill="#985858" d="M59,49h1v1h-1V49z"/>
<path fill="#010101" d="M77,49h1v1h-1V49z"/>
<path fill="#B8B0D8" d="M78,49h1v1h-1V49z"/>
<path fill="#493130" d="M79,49h1v2h-1V49z"/>
<path fill="#F8E8E8" d="M80,49h1v1h-1V49z"/>
<path fill="#985858" d="M81,49h1v1h-1V49z"/>
<path fill="#010101" d="M6,50h1v2H6V50z"/>
<path fill="#985858" d="M7,50h1v1h1v1h1v1H8v-1H7V50z"/>
<path fill="#985858" d="M9,50h1v1H9V50z"/>
<path fill="#F8D0B8" d="M10,50h2v1h-2V50z"/>
<path fill="#784040" d="M12,50h1v2h-1V50z"/>
<path fill="#B8B0D8" d="M13,50h2v2h-1v1h-2v-1h1V50z"/>
<path fill="#010101" d="M15,50h1v2h-1V50z"/>
<path fill="#F8D0B8" d="M32,50h2v1h-2V50z"/>
<path fill="#010101" d="M34,50h1v2h-1V50z"/>
<path fill="#985858" d="M35,50h2v1h-2V50z"/>
<path fill="#E8E8F8" d="M37,50h2v2h-1v1h-2v-1h-1v-1h2V50z"/>
<path fill="#010101" d="M39,50h1v2h-1V50z"/>
<path fill="#010101" d="M52,50h1v2h-1V50z"/>
<path fill="#985858" d="M53,50h1v1h1v1h1v1h-2v-1h-1V50z"/>
<path fill="#985858" d="M55,50h1v1h-1V50z"/>
<path fill="#F8D0B8" d="M56,50h2v1h-2V50z"/>
<path fill="#784040" d="M58,50h1v2h-1V50z"/>
<path fill="#B8B0D8" d="M59,50h2v2h-1v1h-2v-1h1V50z"/>
<path fill="#010101" d="M61,50h1v2h-1V50z"/>
<path fill="#010101" d="M76,50h1v3h-1V50z"/>
<path fill="#E06868" d="M77,50h1v1h2v1h-1v1h-1v-1h-1V50z"/>
<path fill="#985858" d="M78,50h1v1h-1V50z"/>
<path fill="#985858" d="M80,50h1v1h-1V50z"/>
<path fill="#F8D0B8" d="M81,50h2v1h-2V50z"/>
<path fill="#784040" d="M83,50h1v2h-1V50z"/>
<path fill="#B8B0D8" d="M84,50h1v2h-1V50z"/>
<path fill="#010101" d="M85,50h1v2h-1V50z"/>
<path fill="#010101" d="M9,51h1v1H9V51z"/>
<path fill="#D89870" d="M10,51h2v1h-2V51z"/>
<path fill="#D89870" d="M32,51h2v1h-2V51z"/>
<path fill="#010101" d="M55,51h1v1h-1V51z"/>
<path fill="#D89870" d="M56,51h2v1h-2V51z"/>
<path fill="#010101" d="M80,51h1v1h-1V51z"/>
<path fill="#D89870" d="M81,51h2v1h-2V51z"/>
<path fill="#010101" d="M7,52h1v1H7V52z"/>
<path fill="#010101" d="M10,52h2v1h-2V52z"/>
<path fill="#010101" d="M14,52h1v1h-1V52z"/>
<path fill="#010101" d="M29,52h1v3h-1V52z"/>
<path fill="#D89870" d="M30,52h1v1h-1V52z"/>
<path fill="#493130" d="M31,52h1v1h-1V52z"/>
<path fill="#010101" d="M32,52h2v1h-2V52z"/>
<path fill="#B8B0D8" d="M34,52h2v2h-1v-1h-1V52z"/>
<path fill="#010101" d="M38,52h1v1h-1V52z"/>
<path fill="#010101" d="M53,52h1v1h-1V52z"/>
<path fill="#010101" d="M56,52h2v1h-2V52z"/>
<path fill="#010101" d="M60,52h1v1h-1V52z"/>
<path fill="#493130" d="M77,52h1v1h-1V52z"/>
<path fill="#985858" d="M79,52h1v1h-1V52z"/>
<path fill="#B8B0D8" d="M80,52h1v1h-1V52z"/>
<path fill="#784040" d="M81,52h2v1h-2V52z"/>
<path fill="#493130" d="M83,52h2v1h-2V52z"/>
<path fill="#585898" d="M85,52h1v1h-1V52z"/>
<path fill="#010101" d="M8,53h2v1H8V53z"/>
<path fill="#585898" d="M10,53h3v1h-3V53z"/>
<path fill="#010101" d="M13,53h1v1h-1V53z"/>
<path fill="#585898" d="M30,53h1v1h1v1h-2V53z"/>
<path fill="#D89870" d="M31,53h2v1h-2V53z"/>
<path fill="#493130" d="M33,53h2v1h-2V53z"/>
<path fill="#010101" d="M36,53h1v1h-1V53z"/>
<path fill="#585898" d="M37,53h1v1h-1V53z"/>
<path fill="#6890E0" d="M38,53h2v1h-1v1h-3v-1h2V53z"/>
<path fill="#010101" d="M54,53h2v1h-2V53z"/>
<path fill="#585898" d="M56,53h3v1h-3V53z"/>
<path fill="#010101" d="M59,53h1v1h-1V53z"/>
<path fill="#010101" d="M75,53h1v2h-1V53z"/>
<path fill="#6890E0" d="M76,53h1v1h1v1h-2V53z"/>
<path fill="#F8D0B8" d="M77,53h2v1h-2V53z"/>
<path fill="#010101" d="M79,53h4v1h-4V53z"/>
<path fill="#585898" d="M83,53h2v1h-2V53z"/>
<path fill="#010101" d="M85,53h1v1h-1V53z"/>
<path fill="#010101" d="M10,54h3v1h-3V54z"/>
<path fill="#010101" d="M32,54h1v1h-1V54z"/>
<path fill="#010101" d="M34,54h2v1h-2V54z"/>
<path fill="#010101" d="M39,54h1v1h-1V54z"/>
<path fill="#010101" d="M56,54h3v1h-3V54z"/>
<path fill="#010101" d="M78,54h1v1h-1V54z"/>
<path fill="#010101" d="M83,54h2v1h-2V54z"/>
<path fill="#010101" d="M30,55h2v1h-2V55z"/>
<path fill="#010101" d="M36,55h3v1h-3V55z"/>
<path fill="#010101" d="M76,55h2v1h-2V55z"/>
<path fill="#303038" d="M9,60h5v1H9V60z"/>
<path fill="#303038" d="M32,60h5v1h-5V60z"/>
<path fill="#303038" d="M55,60h5v1h-5V60z"/>
<path fill="#303038" d="M78,60h5v1h-5V60z"/>
<path fill="#303038" d="M7,61h2v1H7V61z"/>
<path fill="#808868" d="M9,61h1v1H9V61z"/>
<path fill="#505750" d="M10,61h3v1h3v1h1v2h1v2h1v2h-1v1h-1v1h-3v1H9v-1H6v-1H5v-1H4v-2h1v-2h1v-2h1v2h1v1h2v-1H9v-3h1V61z"/>
<path fill="#808868" d="M13,61h1v1h-1V61z"/>
<path fill="#303038" d="M14,61h2v1h-2V61z"/>
<path fill="#303038" d="M30,61h2v1h-2V61z"/>
<path fill="#808868" d="M32,61h1v1h-1V61z"/>
<path fill="#505750" d="M33,61h3v1h3v1h1v2h1v2h1v2h-1v1h-1v1h-3v1h-5v-1h-3v-1h-1v-1h-1v-2h1v-2h1v-2h1v2h1v1h2v-1h-1v-3h1V61z"/>
<path fill="#808868" d="M36,61h1v1h-1V61z"/>
<path fill="#303038" d="M37,61h2v1h-2V61z"/>
<path fill="#303038" d="M53,61h2v1h-2V61z"/>
<path fill="#808868" d="M55,61h1v1h-1V61z"/>
<path fill="#505750" d="M56,61h3v1h3v1h1v2h1v2h1v2h-1v1h-1v1h-3v1h-5v-1h-3v-1h-1v-1h-1v-2h1v-2h1v-2h1v2h1v1h2v-1h-1v-3h1V61z"/>
<path fill="#808868" d="M59,61h1v1h-1V61z"/>
<path fill="#303038" d="M60,61h2v1h-2V61z"/>
<path fill="#303038" d="M76,61h2v1h-2V61z"/>
<path fill="#808868" d="M78,61h1v1h-1V61z"/>
<path fill="#505750" d="M79,61h3v1h3v1h1v2h1v2h1v2h-1v1h-1v1h-3v1h-5v-1h-3v-1h-1v-1h-1v-2h1v-2h1v-2h1v2h1v1h2v-1h-1v-3h1V61z"/>
<path fill="#808868" d="M82,61h1v1h-1V61z"/>
<path fill="#303038" d="M83,61h2v1h-2V61z"/>
<path fill="#303038" d="M6,62h1v1H6V62z"/>
<path fill="#505750" d="M7,62h1v1H7V62z"/>
<path fill="#808868" d="M8,62h1v3h1v1H8v-1H7v-2h1V62z"/>
<path fill="#303038" d="M11,62h1v1h1v1h-1v1h-1v-1h-1v-1h1V62z"/>
<path fill="#303038" d="M16,62h1v1h-1V62z"/>
<path fill="#303038" d="M29,62h1v1h-1V62z"/>
<path fill="#505750" d="M30,62h1v1h-1V62z"/>
<path fill="#808868" d="M31,62h1v3h1v1h-2v-1h-1v-2h1V62z"/>
<path fill="#303038" d="M34,62h1v1h1v1h-1v1h-1v-1h-1v-1h1V62z"/>
<path fill="#303038" d="M39,62h1v1h-1V62z"/>
<path fill="#303038" d="M52,62h1v1h-1V62z"/>
<path fill="#505750" d="M53,62h1v1h-1V62z"/>
<path fill="#808868" d="M54,62h1v3h1v1h-2v-1h-1v-2h1V62z"/>
<path fill="#303038" d="M57,62h1v1h1v1h-1v1h-1v-1h-1v-1h1V62z"/>
<path fill="#303038" d="M62,62h1v1h-1V62z"/>
<path fill="#303038" d="M75,62h1v1h-1V62z"/>
<path fill="#505750" d="M76,62h1v1h-1V62z"/>
<path fill="#808868" d="M77,62h1v3h1v1h-2v-1h-1v-2h1V62z"/>
<path fill="#303038" d="M80,62h1v1h1v1h-1v1h-1v-1h-1v-1h1V62z"/>
<path fill="#303038" d="M85,62h1v1h-1V62z"/>
<path fill="#303038" d="M5,63h1v2H5V63z"/>
<path fill="#808868" d="M14,63h1v2h-1V63z"/>
<path fill="#303038" d="M17,63h1v2h-1V63z"/>
<path fill="#303038" d="M28,63h1v2h-1V63z"/>
<path fill="#808868" d="M37,63h1v2h-1V63z"/>
<path fill="#303038" d="M40,63h1v2h-1V63z"/>
<path fill="#303038" d="M51,63h1v2h-1V63z"/>
<path fill="#808868" d="M60,63h1v2h-1V63z"/>
<path fill="#303038" d="M63,63h1v2h-1V63z"/>
<path fill="#303038" d="M74,63h1v2h-1V63z"/>
<path fill="#808868" d="M83,63h1v2h-1V63z"/>
<path fill="#303038" d="M86,63h1v2h-1V63z"/>
<path fill="#030303" d="M4,65h1v2H4V65z"/>
<path fill="#808868" d="M13,65h1v1h-1V65z"/>
<path fill="#030303" d="M18,65h1v2h-1V65z"/>
<path fill="#030303" d="M27,65h1v2h-1V65z"/>
<path fill="#808868" d="M36,65h1v1h-1V65z"/>
<path fill="#030303" d="M41,65h1v2h-1V65z"/>
<path fill="#030303" d="M50,65h1v2h-1V65z"/>
<path fill="#808868" d="M59,65h1v1h-1V65z"/>
<path fill="#030303" d="M64,65h1v2h-1V65z"/>
<path fill="#030303" d="M73,65h1v2h-1V65z"/>
<path fill="#808868" d="M82,65h1v1h-1V65z"/>
<path fill="#030303" d="M87,65h1v2h-1V65z"/>
<path fill="#808868" d="M10,66h2v1h-2V66z"/>
<path fill="#808868" d="M33,66h2v1h-2V66z"/>
<path fill="#808868" d="M56,66h2v1h-2V66z"/>
<path fill="#808868" d="M79,66h2v1h-2V66z"/>
<path fill="#030303" d="M3,67h1v4H3V67z"/>
<path fill="#030303" d="M19,67h1v4h-1V67z"/>
<path fill="#030303" d="M26,67h1v4h-1V67z"/>
<path fill="#030303" d="M42,67h1v4h-1V67z"/>
<path fill="#030303" d="M49,67h1v4h-1V67z"/>
<path fill="#030303" d="M65,67h1v4h-1V67z"/>
<path fill="#030303" d="M72,67h1v4h-1V67z"/>
<path fill="#030303" d="M88,67h1v4h-1V67z"/>
<path fill="#303038" d="M4,69h1v1h1v1h3v1h5v-1h3v-1h1v-1h1v2h-1v3h-1v-1h-1v2h-1v1h-2v1h-3v-1H8v-1H7v-2H6v1H5v-3H4V69z"/>
<path fill="#303038" d="M27,69h1v1h1v1h3v1h5v-1h3v-1h1v-1h1v2h-1v3h-1v-1h-1v2h-1v1h-2v1h-3v-1h-2v-1h-1v-2h-1v1h-1v-3h-1V69z"/>
<path fill="#303038" d="M50,69h1v1h1v1h3v1h5v-1h3v-1h1v-1h1v2h-1v3h-1v-1h-1v2h-1v1h-2v1h-3v-1h-2v-1h-1v-2h-1v1h-1v-3h-1V69z"/>
<path fill="#303038" d="M73,69h1v1h1v1h3v1h5v-1h3v-1h1v-1h1v2h-1v3h-1v-1h-1v2h-1v1h-2v1h-3v-1h-2v-1h-1v-2h-1v1h-1v-3h-1V69z"/>
<path fill="#030303" d="M4,71h1v3H4V71z"/>
<path fill="#030303" d="M18,71h1v3h-1V71z"/>
<path fill="#030303" d="M27,71h1v3h-1V71z"/>
<path fill="#030303" d="M41,71h1v3h-1V71z"/>
<path fill="#030303" d="M50,71h1v3h-1V71z"/>
<path fill="#030303" d="M64,71h1v3h-1V71z"/>
<path fill="#030303" d="M73,71h1v3h-1V71z"/>
<path fill="#030303" d="M87,71h1v3h-1V71z"/>
<path fill="#030303" d="M6,73h1v2H6v2H5v-3h1V73z"/>
<path fill="#030303" d="M16,73h1v1h1v3h-1v-2h-1V73z"/>
<path fill="#030303" d="M29,73h1v2h1v1h-2v-1h-1v-1h1V73z"/>
<path fill="#030303" d="M39,73h1v1h1v1h-1v1h-2v-1h1V73z"/>
<path fill="#030303" d="M52,73h1v2h-1v2h-1v-3h1V73z"/>
<path fill="#030303" d="M62,73h1v1h1v3h-1v-2h-1V73z"/>
<path fill="#030303" d="M75,73h1v2h1v1h-2v-1h-1v-1h1V73z"/>
<path fill="#030303" d="M85,73h1v1h1v1h-1v1h-2v-1h1V73z"/>
<path fill="#303038" d="M27,74h1v1h-1V74z"/>
<path fill="#303038" d="M87,74h1v1h-1V74z"/>
<path fill="#985858" d="M6,75h1v2H6V75z"/>
<path fill="#030303" d="M7,75h1v1H7V75z"/>
<path fill="#030303" d="M15,75h1v1h-1V75z"/>
<path fill="#985858" d="M16,75h1v2h-1V75z"/>
<path fill="#303038" d="M26,75h1v2h-1V75z"/>
<path fill="#D89870" d="M27,75h1v2h-1V75z"/>
<path fill="#F8E8E8" d="M28,75h1v2h-1V75z"/>
<path fill="#985858" d="M52,75h1v2h-1V75z"/>
<path fill="#030303" d="M53,75h1v1h-1V75z"/>
<path fill="#030303" d="M61,75h1v1h-1V75z"/>
<path fill="#985858" d="M62,75h1v2h-1V75z"/>
<path fill="#F8E8E8" d="M86,75h1v2h-1V75z"/>
<path fill="#D89870" d="M87,75h1v2h-1V75z"/>
<path fill="#303038" d="M88,75h1v2h-1V75z"/>
<path fill="#784040" d="M4,76h1v1H4V76z"/>
<path fill="#303038" d="M7,76h1v1H7V76z"/>
<path fill="#030303" d="M8,76h2v1H8V76z"/>
<path fill="#030303" d="M13,76h2v1h-2V76z"/>
<path fill="#303038" d="M15,76h1v1h-1V76z"/>
<path fill="#784040" d="M18,76h1v1h-1V76z"/>
<path fill="#985858" d="M29,76h1v1h1v1h-2V76z"/>
<path fill="#303038" d="M30,76h1v1h-1V76z"/>
<path fill="#030303" d="M31,76h2v1h-2V76z"/>
<path fill="#030303" d="M36,76h2v1h-2V76z"/>
<path fill="#303038" d="M38,76h1v1h-1V76z"/>
<path fill="#E06868" d="M39,76h1v1h-1V76z"/>
<path fill="#030303" d="M40,76h1v2h-1V76z"/>
<path fill="#784040" d="M50,76h1v1h-1V76z"/>
<path fill="#303038" d="M53,76h1v1h-1V76z"/>
<path fill="#030303" d="M54,76h2v1h-2V76z"/>
<path fill="#030303" d="M59,76h2v1h-2V76z"/>
<path fill="#303038" d="M61,76h1v1h-1V76z"/>
<path fill="#784040" d="M64,76h1v1h-1V76z"/>
<path fill="#030303" d="M74,76h1v2h-1V76z"/>
<path fill="#E06868" d="M75,76h1v1h-1V76z"/>
<path fill="#303038" d="M76,76h1v1h-1V76z"/>
<path fill="#030303" d="M77,76h2v1h-2V76z"/>
<path fill="#030303" d="M82,76h2v1h-2V76z"/>
<path fill="#303038" d="M84,76h1v1h-1V76z"/>
<path fill="#985858" d="M85,76h1v2h-2v-1h1V76z"/>
<path fill="#784040" d="M3,77h1v2H3V77z"/>
<path fill="#F8D0B8" d="M4,77h1v1H4V77z"/>
<path fill="#985858" d="M5,77h1v1H5V77z"/>
<path fill="#E06868" d="M6,77h1v1H6V77z"/>
<path fill="#985858" d="M7,77h1v1H7V77z"/>
<path fill="#303038" d="M8,77h1v1H8V77z"/>
<path fill="#985858" d="M9,77h1v1H9V77z"/>
<path fill="#030303" d="M10,77h3v1h-3V77z"/>
<path fill="#985858" d="M13,77h1v1h-1V77z"/>
<path fill="#303038" d="M14,77h1v1h-1V77z"/>
<path fill="#985858" d="M15,77h1v1h-1V77z"/>
<path fill="#E06868" d="M16,77h1v1h-1V77z"/>
<path fill="#985858" d="M17,77h1v1h-1V77z"/>
<path fill="#F8D0B8" d="M18,77h1v1h-1V77z"/>
<path fill="#784040" d="M19,77h1v2h-1V77z"/>
<path fill="#303038" d="M27,77h2v1h-2V77z"/>
<path fill="#303038" d="M31,77h1v1h-1V77z"/>
<path fill="#985858" d="M32,77h1v1h-1V77z"/>
<path fill="#030303" d="M33,77h3v1h-3V77z"/>
<path fill="#985858" d="M36,77h1v1h-1V77z"/>
<path fill="#303038" d="M37,77h1v1h-1V77z"/>
<path fill="#E06868" d="M38,77h1v1h-1V77z"/>
<path fill="#985858" d="M39,77h1v1h-1V77z"/>
<path fill="#784040" d="M49,77h1v2h-1V77z"/>
<path fill="#F8D0B8" d="M50,77h1v1h-1V77z"/>
<path fill="#985858" d="M51,77h1v1h-1V77z"/>
<path fill="#E06868" d="M52,77h1v1h-1V77z"/>
<path fill="#985858" d="M53,77h1v1h-1V77z"/>
<path fill="#303038" d="M54,77h1v1h-1V77z"/>
<path fill="#985858" d="M55,77h1v1h-1V77z"/>
<path fill="#030303" d="M56,77h3v1h-3V77z"/>
<path fill="#985858" d="M59,77h1v1h-1V77z"/>
<path fill="#303038" d="M60,77h1v1h-1V77z"/>
<path fill="#985858" d="M61,77h1v1h-1V77z"/>
<path fill="#E06868" d="M62,77h1v1h-1V77z"/>
<path fill="#985858" d="M63,77h1v1h-1V77z"/>
<path fill="#F8D0B8" d="M64,77h1v1h-1V77z"/>
<path fill="#784040" d="M65,77h1v2h-1V77z"/>
<path fill="#985858" d="M75,77h1v1h-1V77z"/>
<path fill="#E06868" d="M76,77h1v1h-1V77z"/>
<path fill="#303038" d="M77,77h1v1h-1V77z"/>
<path fill="#985858" d="M78,77h1v1h-1V77z"/>
<path fill="#030303" d="M79,77h3v1h-3V77z"/>
<path fill="#985858" d="M82,77h1v1h-1V77z"/>
<path fill="#303038" d="M83,77h1v1h-1V77z"/>
<path fill="#303038" d="M86,77h2v1h-2V77z"/>
<path fill="#D89870" d="M4,78h2v1H4V78z"/>
<path fill="#303038" d="M6,78h1v1H6V78z"/>
<path fill="#786868" d="M7,78h1v1H7V78z"/>
<path fill="#985858" d="M8,78h1v1H8V78z"/>
<path fill="#E8E8F8" d="M9,78h2v1h-1v1H9V78z"/>
<path fill="#686878" d="M11,78h1v2h-1V78z"/>
<path fill="#E8E8F8" d="M12,78h2v2h-1v-1h-1V78z"/>
<path fill="#985858" d="M14,78h1v1h-1V78z"/>
<path fill="#786868" d="M15,78h1v1h-1V78z"/>
<path fill="#303038" d="M16,78h1v1h-1V78z"/>
<path fill="#D89870" d="M17,78h2v1h-2V78z"/>
<path fill="#303038" d="M29,78h1v1h-1V78z"/>
<path fill="#786868" d="M30,78h1v1h-1V78z"/>
<path fill="#985858" d="M31,78h1v2h-1V78z"/>
<path fill="#E8E8F8" d="M32,78h2v1h-1v1h-1V78z"/>
<path fill="#786868" d="M34,78h1v2h-1V78z"/>
<path fill="#E8E8F8" d="M35,78h2v2h-1v-1h-1V78z"/>
<path fill="#985858" d="M37,78h1v2h-1V78z"/>
<path fill="#303038" d="M38,78h1v1h-1V78z"/>
<path fill="#F8D0B8" d="M39,78h2v1h-2V78z"/>
<path fill="#030303" d="M41,78h1v2h-1V78z"/>
<path fill="#D89870" d="M50,78h2v1h-2V78z"/>
<path fill="#303038" d="M52,78h1v1h-1V78z"/>
<path fill="#786868" d="M53,78h1v1h-1V78z"/>
<path fill="#985858" d="M54,78h1v1h-1V78z"/>
<path fill="#E8E8F8" d="M55,78h2v1h-1v1h-1V78z"/>
<path fill="#686878" d="M57,78h1v2h-1V78z"/>
<path fill="#E8E8F8" d="M58,78h2v2h-1v-1h-1V78z"/>
<path fill="#985858" d="M60,78h1v1h-1V78z"/>
<path fill="#786868" d="M61,78h1v1h-1V78z"/>
<path fill="#303038" d="M62,78h1v1h-1V78z"/>
<path fill="#D89870" d="M63,78h2v1h-2V78z"/>
<path fill="#030303" d="M73,78h1v2h-1V78z"/>
<path fill="#F8D0B8" d="M74,78h2v1h-2V78z"/>
<path fill="#303038" d="M76,78h1v1h-1V78z"/>
<path fill="#985858" d="M77,78h1v2h-1V78z"/>
<path fill="#E8E8F8" d="M78,78h2v1h-1v1h-1V78z"/>
<path fill="#786868" d="M80,78h1v2h-1V78z"/>
<path fill="#E8E8F8" d="M81,78h2v2h-1v-1h-1V78z"/>
<path fill="#985858" d="M83,78h1v2h-1V78z"/>
<path fill="#786868" d="M84,78h1v1h-1V78z"/>
<path fill="#303038" d="M85,78h1v1h-1V78z"/>
<path fill="#784040" d="M4,79h2v1H4V79z"/>
<path fill="#030303" d="M6,79h1v3H6V79z"/>
<path fill="#E06868" d="M7,79h1v1h1v1h1v1H8v-1H7V79z"/>
<path fill="#786868" d="M8,79h1v1H8V79z"/>
<path fill="#B8B0D8" d="M10,79h1v1h-1V79z"/>
<path fill="#B8B0D8" d="M12,79h1v1h-1V79z"/>
<path fill="#786868" d="M14,79h1v1h-1V79z"/>
<path fill="#E06868" d="M15,79h1v2h-1v1h-2v-1h1v-1h1V79z"/>
<path fill="#030303" d="M16,79h1v3h-1V79z"/>
<path fill="#784040" d="M17,79h2v1h-2V79z"/>
<path fill="#030303" d="M29,79h1v2h-1V79z"/>
<path fill="#E06868" d="M30,79h1v1h-1V79z"/>
<path fill="#B8B0D8" d="M33,79h1v1h-1V79z"/>
<path fill="#B8B0D8" d="M35,79h1v1h-1V79z"/>
<path fill="#030303" d="M38,79h1v1h2v1h-2v1h-2v-1h1V79z"/>
<path fill="#D89870" d="M39,79h2v1h-2V79z"/>
<path fill="#784040" d="M50,79h2v1h-2V79z"/>
<path fill="#030303" d="M52,79h1v3h-1V79z"/>
<path fill="#E06868" d="M53,79h1v1h1v1h1v1h-2v-1h-1V79z"/>
<path fill="#786868" d="M54,79h1v1h-1V79z"/>
<path fill="#B8B0D8" d="M56,79h1v1h-1V79z"/>
<path fill="#B8B0D8" d="M58,79h1v1h-1V79z"/>
<path fill="#786868" d="M60,79h1v1h-1V79z"/>
<path fill="#E06868" d="M61,79h1v2h-1v1h-2v-1h1v-1h1V79z"/>
<path fill="#030303" d="M62,79h1v3h-1V79z"/>
<path fill="#784040" d="M63,79h2v1h-2V79z"/>
<path fill="#D89870" d="M74,79h2v1h-2V79z"/>
<path fill="#030303" d="M76,79h1v2h1v1h-2v-1h-2v-1h2V79z"/>
<path fill="#B8B0D8" d="M79,79h1v1h-1V79z"/>
<path fill="#B8B0D8" d="M81,79h1v1h-1V79z"/>
<path fill="#E06868" d="M84,79h1v1h-1V79z"/>
<path fill="#030303" d="M85,79h1v2h-1V79z"/>
<path fill="#786868" d="M9,80h1v1H9V80z"/>
<path fill="#E8E8F8" d="M10,80h1v1h-1V80z"/>
<path fill="#B8B0D8" d="M11,80h1v1h-1V80z"/>
<path fill="#E8E8F8" d="M12,80h1v1h-1V80z"/>
<path fill="#786868" d="M13,80h1v1h-1V80z"/>
<path fill="#786868" d="M30,80h1v1h-1V80z"/>
<path fill="#E06868" d="M31,80h1v1h-1V80z"/>
<path fill="#985858" d="M32,80h1v1h-1V80z"/>
<path fill="#E8E8F8" d="M33,80h1v1h-1V80z"/>
<path fill="#B8B0D8" d="M34,80h1v1h-1V80z"/>
<path fill="#E8E8F8" d="M35,80h1v1h-1V80z"/>
<path fill="#985858" d="M36,80h1v2h-2v1h-3v-1h2v-1h2V80z"/>
<path fill="#E06868" d="M37,80h1v1h-1V80z"/>
<path fill="#786868" d="M55,80h1v1h-1V80z"/>
<path fill="#E8E8F8" d="M56,80h1v1h-1V80z"/>
<path fill="#B8B0D8" d="M57,80h1v1h-1V80z"/>
<path fill="#E8E8F8" d="M58,80h1v1h-1V80z"/>
<path fill="#786868" d="M59,80h1v1h-1V80z"/>
<path fill="#E06868" d="M77,80h1v1h-1V80z"/>
<path fill="#985858" d="M78,80h1v1h2v1h2v1h-3v-1h-2V80z"/>
<path fill="#E8E8F8" d="M79,80h1v1h-1V80z"/>
<path fill="#B8B0D8" d="M80,80h1v1h-1V80z"/>
<path fill="#E8E8F8" d="M81,80h1v1h-1V80z"/>
<path fill="#985858" d="M82,80h1v1h-1V80z"/>
<path fill="#E06868" d="M83,80h1v1h-1V80z"/>
<path fill="#786868" d="M84,80h1v1h-1V80z"/>
<path fill="#686878" d="M7,81h1v1H7V81z"/>
<path fill="#786868" d="M10,81h3v1h-3V81z"/>
<path fill="#686878" d="M15,81h1v1h-1V81z"/>
<path fill="#030303" d="M30,81h1v2h-1V81z"/>
<path fill="#985858" d="M31,81h1v1h-1V81z"/>
<path fill="#E06868" d="M32,81h2v1h-2V81z"/>
<path fill="#686878" d="M53,81h1v1h-1V81z"/>
<path fill="#786868" d="M56,81h3v1h-3V81z"/>
<path fill="#686878" d="M61,81h1v1h-1V81z"/>
<path fill="#E06868" d="M81,81h2v1h-2V81z"/>
<path fill="#985858" d="M83,81h1v1h-1V81z"/>
<path fill="#030303" d="M84,81h1v2h-1V81z"/>
<path fill="#030303" d="M7,82h1v1H7V82z"/>
<path fill="#585898" d="M8,82h2v1H8V82z"/>
<path fill="#303038" d="M10,82h3v1h-3V82z"/>
<path fill="#585898" d="M13,82h2v1h-2V82z"/>
<path fill="#030303" d="M15,82h1v1h-1V82z"/>
<path fill="#D89870" d="M31,82h1v1h-1V82z"/>
<path fill="#030303" d="M35,82h2v1h-2V82z"/>
<path fill="#030303" d="M53,82h1v1h-1V82z"/>
<path fill="#585898" d="M54,82h2v1h-2V82z"/>
<path fill="#303038" d="M56,82h3v1h-3V82z"/>
<path fill="#585898" d="M59,82h2v1h-2V82z"/>
<path fill="#030303" d="M61,82h1v1h-1V82z"/>
<path fill="#030303" d="M78,82h2v1h-2V82z"/>
<path fill="#D89870" d="M83,82h1v1h-1V82z"/>
<path fill="#030303" d="M8,83h2v1H8V83z"/>
<path fill="#030303" d="M13,83h2v1h-2V83z"/>
<path fill="#030303" d="M31,83h1v2h-1V83z"/>
<path fill="#F8D0B8" d="M32,83h2v1h-2V83z"/>
<path fill="#030303" d="M34,83h1v2h-1V83z"/>
<path fill="#030303" d="M54,83h2v1h-2V83z"/>
<path fill="#030303" d="M59,83h2v1h-2V83z"/>
<path fill="#030303" d="M80,83h1v2h-1V83z"/>
<path fill="#F8D0B8" d="M81,83h2v1h-2V83z"/>
<path fill="#030303" d="M83,83h1v2h-1V83z"/>
<path fill="#6890E0" d="M32,84h2v1h-2V84z"/>
<path fill="#6890E0" d="M81,84h2v1h-2V84z"/>
<path fill="#030303" d="M32,85h2v1h-2V85z"/>
<path fill="#030303" d="M81,85h2v1h-2V85z"/>
<path fill="#303038" d="M10,89h4v1h-4V89z"/>
<path fill="#303038" d="M33,89h4v1h-4V89z"/>
<path fill="#303038" d="M56,89h4v1h-4V89z"/>
<path fill="#303038" d="M79,89h4v1h-4V89z"/>
<path fill="#303038" d="M8,90h2v1H8V90z"/>
<path fill="#505750" d="M10,90h4v1h2v1h-1v1h-1v1h-2v1h-2v-1H9v1h1v1h2v1h3v1h1v2h-1v-1h-1v1h1v1h-2v-1h-1v1h1v1h-2v-1h-1v-1H8v-1H7
	v-2H6v-4h1v-1h1v-1h2V90z"/>
<path fill="#303038" d="M14,90h2v1h-2V90z"/>
<path fill="#303038" d="M31,90h2v1h-2V90z"/>
<path fill="#505750" d="M33,90h4v1h2v1h-1v1h-1v1h-2v1h-2v-1h-1v1h1v1h2v1h3v1h1v2h-1v-1h-1v1h1v1h-2v-1h-1v1h1v1h-2v-1h-1v-1h-2v-1
	h-1v-2h-1v-4h1v-1h1v-1h2V90z"/>
<path fill="#303038" d="M37,90h2v1h-2V90z"/>
<path fill="#303038" d="M54,90h2v1h-2V90z"/>
<path fill="#505750" d="M56,90h4v1h2v1h-1v1h-1v1h-2v1h-2v-1h-1v1h1v1h2v1h3v1h1v2h-1v-1h-1v1h1v1h-2v-1h-1v1h1v1h-2v-1h-1v-1h-2v-1
	h-1v-2h-1v-4h1v-1h1v-1h2V90z"/>
<path fill="#303038" d="M60,90h2v1h-2V90z"/>
<path fill="#303038" d="M77,90h2v1h-2V90z"/>
<path fill="#505750" d="M79,90h4v1h2v1h-1v1h-1v1h-2v1h-2v-1h-1v1h1v1h2v1h3v1h1v2h-1v-1h-1v1h1v1h-2v-1h-1v1h1v1h-2v-1h-1v-1h-2v-1
	h-1v-2h-1v-4h1v-1h1v-1h2V90z"/>
<path fill="#303038" d="M83,90h1v1h-1V90z"/>
<path fill="#373840" d="M84,90h1v1h-1V90z"/>
<path fill="#010101" d="M7,91h1v1H7V91z"/>
<path fill="#303038" d="M16,91h1v1h-1V91z"/>
<path fill="#010101" d="M30,91h1v1h-1V91z"/>
<path fill="#303038" d="M39,91h1v1h-1V91z"/>
<path fill="#010101" d="M53,91h1v1h-1V91z"/>
<path fill="#303038" d="M62,91h1v1h-1V91z"/>
<path fill="#010101" d="M76,91h1v1h-1V91z"/>
<path fill="#303038" d="M85,91h1v1h-1V91z"/>
<path fill="#010101" d="M6,92h1v1H6V92z"/>
<path fill="#808868" d="M15,92h1v1h-1V92z"/>
<path fill="#505750" d="M16,92h1v1h-1V92z"/>
<path fill="#303038" d="M17,92h1v1h-1V92z"/>
<path fill="#010101" d="M29,92h1v1h-1V92z"/>
<path fill="#808868" d="M38,92h1v1h-1V92z"/>
<path fill="#505750" d="M39,92h1v1h-1V92z"/>
<path fill="#303038" d="M40,92h1v1h-1V92z"/>
<path fill="#010101" d="M52,92h1v1h-1V92z"/>
<path fill="#808868" d="M61,92h1v1h-1V92z"/>
<path fill="#505750" d="M62,92h1v1h-1V92z"/>
<path fill="#303038" d="M63,92h1v1h-1V92z"/>
<path fill="#010101" d="M75,92h1v1h-1V92z"/>
<path fill="#808868" d="M84,92h1v1h-1V92z"/>
<path fill="#505750" d="M85,92h1v1h-1V92z"/>
<path fill="#303038" d="M86,92h1v1h-1V92z"/>
<path fill="#010101" d="M5,93h1v2H5V93z"/>
<path fill="#808868" d="M14,93h1v1h1v2h-1v-1h-1v1h1v1h-3v-1h-2v-1h2v-1h2V93z"/>
<path fill="#505750" d="M15,93h1v1h-1V93z"/>
<path fill="#808868" d="M16,93h1v1h-1V93z"/>
<path fill="#505750" d="M17,93h1v2h1v2h-1v2h-1v-1h-1v-4h1V93z"/>
<path fill="#010101" d="M18,93h1v2h-1V93z"/>
<path fill="#010101" d="M28,93h1v2h-1V93z"/>
<path fill="#808868" d="M37,93h1v1h1v2h-1v-1h-1v1h1v1h-3v-1h-2v-1h2v-1h2V93z"/>
<path fill="#505750" d="M38,93h1v1h-1V93z"/>
<path fill="#808868" d="M39,93h1v1h-1V93z"/>
<path fill="#505750" d="M40,93h1v2h1v2h-1v2h-1v-1h-1v-4h1V93z"/>
<path fill="#010101" d="M41,93h1v2h-1V93z"/>
<path fill="#010101" d="M51,93h1v2h-1V93z"/>
<path fill="#808868" d="M60,93h1v1h1v2h-1v-1h-1v1h1v1h-3v-1h-2v-1h2v-1h2V93z"/>
<path fill="#505750" d="M61,93h1v1h-1V93z"/>
<path fill="#808868" d="M62,93h1v1h-1V93z"/>
<path fill="#505750" d="M63,93h1v2h1v2h-1v2h-1v-1h-1v-4h1V93z"/>
<path fill="#010101" d="M64,93h1v2h-1V93z"/>
<path fill="#010101" d="M74,93h1v2h-1V93z"/>
<path fill="#808868" d="M83,93h1v1h1v2h-1v-1h-1v1h1v1h-3v-1h-2v-1h2v-1h2V93z"/>
<path fill="#505750" d="M84,93h1v1h-1V93z"/>
<path fill="#808868" d="M85,93h1v1h-1V93z"/>
<path fill="#505750" d="M86,93h1v2h1v2h-1v2h-1v-1h-1v-4h1V93z"/>
<path fill="#010101" d="M87,93h1v2h-1V93z"/>
<path fill="#808868" d="M9,94h1v1H9V94z"/>
<path fill="#808868" d="M32,94h1v1h-1V94z"/>
<path fill="#808868" d="M55,94h1v1h-1V94z"/>
<path fill="#808868" d="M78,94h1v1h-1V94z"/>
<path fill="#010101" d="M4,95h1v4H4V95z"/>
<path fill="#303038" d="M5,95h1v2H5V95z"/>
<path fill="#505750" d="M14,95h1v1h-1V95z"/>
<path fill="#010101" d="M19,95h1v6h-1V95z"/>
<path fill="#010101" d="M27,95h1v4h-1V95z"/>
<path fill="#303038" d="M28,95h1v2h-1V95z"/>
<path fill="#505750" d="M37,95h1v1h-1V95z"/>
<path fill="#010101" d="M42,95h1v6h-1V95z"/>
<path fill="#010101" d="M50,95h1v4h-1V95z"/>
<path fill="#303038" d="M51,95h1v2h-1V95z"/>
<path fill="#505750" d="M60,95h1v1h-1V95z"/>
<path fill="#010101" d="M65,95h1v6h-1V95z"/>
<path fill="#010101" d="M73,95h1v4h-1V95z"/>
<path fill="#303038" d="M74,95h1v2h-1V95z"/>
<path fill="#505750" d="M83,95h1v1h-1V95z"/>
<path fill="#010101" d="M88,95h1v6h-1V95z"/>
<path fill="#303038" d="M15,96h1v2h-1V96z"/>
<path fill="#303038" d="M38,96h1v2h-1V96z"/>
<path fill="#303038" d="M61,96h1v2h-1V96z"/>
<path fill="#303038" d="M84,96h1v2h-1V96z"/>
<path fill="#505750" d="M5,97h1v2H5V97z"/>
<path fill="#303038" d="M6,97h1v2H6V97z"/>
<path fill="#303038" d="M18,97h1v4h-1v3h-1v2h-1v1h-2v-2h-1v-2h-2v-1h2v-1h2v-1h1v-2h1v1h1V97z"/>
<path fill="#505750" d="M28,97h1v2h-1V97z"/>
<path fill="#303038" d="M29,97h1v2h-1V97z"/>
<path fill="#303038" d="M41,97h1v4h-1v3h-1v2h-1v1h-2v-2h-1v-2h-2v-1h2v-1h2v-1h1v-2h1v1h1V97z"/>
<path fill="#505750" d="M51,97h1v2h-1V97z"/>
<path fill="#303038" d="M52,97h1v2h-1V97z"/>
<path fill="#303038" d="M64,97h1v4h-1v3h-1v2h-1v1h-2v-2h-1v-2h-2v-1h2v-1h2v-1h1v-2h1v1h1V97z"/>
<path fill="#505750" d="M74,97h1v2h-1V97z"/>
<path fill="#303038" d="M75,97h1v2h-1V97z"/>
<path fill="#303038" d="M87,97h1v4h-1v3h-1v2h-1v1h-2v-2h-1v-2h-2v-1h2v-1h2v-1h1v-2h1v1h1V97z"/>
<path fill="#303038" d="M5,99h1v1H5V99z"/>
<path fill="#F8D0B8" d="M6,99h1v3h2v2H7v-1H6V99z"/>
<path fill="#303038" d="M7,99h1v1H7V99z"/>
<path fill="#303038" d="M14,99h1v1h-1V99z"/>
<path fill="#303038" d="M28,99h1v1h-1V99z"/>
<path fill="#F8D0B8" d="M29,99h1v3h2v2h-2v-1h-1V99z"/>
<path fill="#303038" d="M30,99h1v1h-1V99z"/>
<path fill="#303038" d="M37,99h1v1h-1V99z"/>
<path fill="#303038" d="M51,99h1v1h-1V99z"/>
<path fill="#F8D0B8" d="M52,99h1v3h2v2h-2v-1h-1V99z"/>
<path fill="#303038" d="M53,99h1v1h-1V99z"/>
<path fill="#303038" d="M60,99h1v1h-1V99z"/>
<path fill="#303038" d="M74,99h1v1h-1V99z"/>
<path fill="#F8D0B8" d="M75,99h1v3h2v2h-2v-1h-1V99z"/>
<path fill="#303038" d="M76,99h1v1h-1V99z"/>
<path fill="#303038" d="M83,99h1v1h-1V99z"/>
<path fill="#784040" d="M5,100h1v2H5V100z"/>
<path fill="#505750" d="M7,100h1v1H7V100z"/>
<path fill="#A8A0C8" d="M8,100h1v1H8V100z"/>
<path fill="#303038" d="M9,100h1v1H9V100z"/>
<path fill="#303038" d="M12,100h1v1h-1V100z"/>
<path fill="#784040" d="M28,100h1v2h-1V100z"/>
<path fill="#505750" d="M30,100h1v1h-1V100z"/>
<path fill="#A8A0C8" d="M31,100h1v1h-1V100z"/>
<path fill="#303038" d="M32,100h1v1h-1V100z"/>
<path fill="#303038" d="M35,100h1v1h-1V100z"/>
<path fill="#784040" d="M51,100h1v2h-1V100z"/>
<path fill="#505750" d="M53,100h1v1h-1V100z"/>
<path fill="#A8A0C8" d="M54,100h1v1h-1V100z"/>
<path fill="#303038" d="M55,100h1v1h-1V100z"/>
<path fill="#303038" d="M58,100h1v1h-1V100z"/>
<path fill="#784040" d="M74,100h1v2h-1V100z"/>
<path fill="#505750" d="M76,100h1v1h-1V100z"/>
<path fill="#A8A0C8" d="M77,100h1v1h-1V100z"/>
<path fill="#303038" d="M78,100h1v1h-1V100z"/>
<path fill="#303038" d="M81,100h1v1h-1V100z"/>
<path fill="#010101" d="M7,101h1v1H7V101z"/>
<path fill="#E8E8F8" d="M8,101h1v1H8V101z"/>
<path fill="#D89870" d="M9,101h1v2H9V101z"/>
<path fill="#303038" d="M10,101h1v1h-1V101z"/>
<path fill="#010101" d="M18,101h1v3h-1V101z"/>
<path fill="#010101" d="M30,101h1v1h-1V101z"/>
<path fill="#E8E8F8" d="M31,101h1v1h-1V101z"/>
<path fill="#D89870" d="M32,101h1v2h-1V101z"/>
<path fill="#303038" d="M33,101h1v1h-1V101z"/>
<path fill="#010101" d="M41,101h1v3h-1V101z"/>
<path fill="#010101" d="M53,101h1v1h-1V101z"/>
<path fill="#E8E8F8" d="M54,101h1v1h-1V101z"/>
<path fill="#D89870" d="M55,101h1v2h-1V101z"/>
<path fill="#303038" d="M56,101h1v1h-1V101z"/>
<path fill="#010101" d="M64,101h1v3h-1V101z"/>
<path fill="#010101" d="M76,101h1v1h-1V101z"/>
<path fill="#E8E8F8" d="M77,101h1v1h-1V101z"/>
<path fill="#D89870" d="M78,101h1v2h-1V101z"/>
<path fill="#303038" d="M79,101h1v1h-1V101z"/>
<path fill="#010101" d="M87,101h1v3h-1V101z"/>
<path fill="#D89870" d="M5,102h1v1H5V102z"/>
<path fill="#505750" d="M10,102h1v2H9v-1h1V102z"/>
<path fill="#D89870" d="M28,102h1v1h-1V102z"/>
<path fill="#505750" d="M33,102h1v2h-2v-1h1V102z"/>
<path fill="#D89870" d="M51,102h1v1h-1V102z"/>
<path fill="#505750" d="M56,102h1v2h-2v-1h1V102z"/>
<path fill="#D89870" d="M74,102h1v1h-1V102z"/>
<path fill="#505750" d="M79,102h1v2h-2v-1h1V102z"/>
<path fill="#784040" d="M6,103h1v1H6V103z"/>
<path fill="#D89870" d="M11,103h1v1h-1V103z"/>
<path fill="#784040" d="M12,103h1v1h-1V103z"/>
<path fill="#784040" d="M29,103h1v1h-1V103z"/>
<path fill="#D89870" d="M34,103h1v1h-1V103z"/>
<path fill="#784040" d="M35,103h1v1h-1V103z"/>
<path fill="#784040" d="M52,103h1v1h-1V103z"/>
<path fill="#D89870" d="M57,103h1v1h-1V103z"/>
<path fill="#784040" d="M58,103h1v1h-1V103z"/>
<path fill="#784040" d="M75,103h1v1h-1V103z"/>
<path fill="#D89870" d="M80,103h1v1h-1V103z"/>
<path fill="#784040" d="M81,103h1v1h-1V103z"/>
<path fill="#784040" d="M7,104h3v1H7V104z"/>
<path fill="#D89870" d="M10,104h1v2h-1V104z"/>
<path fill="#010101" d="M11,104h2v1h-2V104z"/>
<path fill="#010101" d="M17,104h1v2h-1V104z"/>
<path fill="#784040" d="M30,104h3v1h-3V104z"/>
<path fill="#D89870" d="M33,104h1v1h-1V104z"/>
<path fill="#010101" d="M34,104h2v1h1v2h-1v-1h-1v-1h-1V104z"/>
<path fill="#010101" d="M40,104h1v2h-1V104z"/>
<path fill="#784040" d="M53,104h3v1h-3V104z"/>
<path fill="#D89870" d="M56,104h1v2h-1V104z"/>
<path fill="#010101" d="M57,104h2v1h-2V104z"/>
<path fill="#010101" d="M63,104h1v2h-1V104z"/>
<path fill="#784040" d="M76,104h3v1h-3V104z"/>
<path fill="#D89870" d="M79,104h1v1h-1V104z"/>
<path fill="#010101" d="M80,104h2v1h1v2h-1v-1h-1v-1h-1V104z"/>
<path fill="#010101" d="M86,104h1v2h-1V104z"/>
<path fill="#010101" d="M8,105h2v1H8V105z"/>
<path fill="#E06868" d="M11,105h1v1h-1V105z"/>
<path fill="#493130" d="M12,105h1v1h-1V105z"/>
<path fill="#010101" d="M13,105h1v2h-1V105z"/>
<path fill="#010101" d="M31,105h1v1h-1V105z"/>
<path fill="#D89870" d="M32,105h1v1h-1V105z"/>
<path fill="#493130" d="M33,105h2v1h-2V105z"/>
<path fill="#010101" d="M54,105h2v1h-2V105z"/>
<path fill="#E06868" d="M57,105h1v1h-1V105z"/>
<path fill="#493130" d="M58,105h1v1h-1V105z"/>
<path fill="#010101" d="M59,105h1v2h-1V105z"/>
<path fill="#010101" d="M77,105h1v1h-1V105z"/>
<path fill="#D89870" d="M78,105h1v1h-1V105z"/>
<path fill="#E06868" d="M79,105h1v1h-1V105z"/>
<path fill="#493130" d="M80,105h1v1h-1V105z"/>
<path fill="#493130" d="M8,106h1v2H8V106z"/>
<path fill="#E06868" d="M9,106h2v2h-1v-1H9V106z"/>
<path fill="#493130" d="M11,106h1v2h-1V106z"/>
<path fill="#E06868" d="M12,106h1v1h-1V106z"/>
<path fill="#010101" d="M16,106h1v1h-1V106z"/>
<path fill="#493130" d="M30,106h1v2h-1V106z"/>
<path fill="#E06868" d="M31,106h1v2h-1V106z"/>
<path fill="#493130" d="M32,106h1v2h-1V106z"/>
<path fill="#E06868" d="M33,106h2v1h-2V106z"/>
<path fill="#303038" d="M35,106h1v1h-1V106z"/>
<path fill="#010101" d="M39,106h1v1h-1V106z"/>
<path fill="#493130" d="M54,106h1v2h-1V106z"/>
<path fill="#E06868" d="M55,106h2v2h-1v-1h-1V106z"/>
<path fill="#493130" d="M57,106h1v2h-1V106z"/>
<path fill="#E06868" d="M58,106h1v1h-1V106z"/>
<path fill="#010101" d="M62,106h1v1h-1V106z"/>
<path fill="#493130" d="M76,106h1v2h-1V106z"/>
<path fill="#E06868" d="M77,106h2v2h-1v-1h-1V106z"/>
<path fill="#493130" d="M79,106h1v2h-1V106z"/>
<path fill="#E06868" d="M80,106h2v1h-2V106z"/>
<path fill="#010101" d="M85,106h1v1h-1V106z"/>
<path fill="#985858" d="M9,107h1v1H9V107z"/>
<path fill="#985858" d="M12,107h1v1h-1V107z"/>
<path fill="#F8E8E8" d="M13,107h1v1h-1V107z"/>
<path fill="#493130" d="M14,107h1v2h-1V107z"/>
<path fill="#010101" d="M15,107h1v1h-1V107z"/>
<path fill="#985858" d="M33,107h1v1h-1V107z"/>
<path fill="#F8E8E8" d="M34,107h1v1h-1V107z"/>
<path fill="#493130" d="M35,107h1v2h-1V107z"/>
<path fill="#B8B0D8" d="M36,107h1v1h-1V107z"/>
<path fill="#010101" d="M37,107h1v1h-1V107z"/>
<path fill="#985858" d="M55,107h1v1h-1V107z"/>
<path fill="#985858" d="M58,107h1v1h-1V107z"/>
<path fill="#F8E8E8" d="M59,107h1v1h-1V107z"/>
<path fill="#493130" d="M60,107h1v2h-1V107z"/>
<path fill="#010101" d="M61,107h1v1h-1V107z"/>
<path fill="#985858" d="M77,107h1v1h-1V107z"/>
<path fill="#F8E8E8" d="M80,107h2v1h-2V107z"/>
<path fill="#985858" d="M82,107h1v1h-1V107z"/>
<path fill="#010101" d="M83,107h1v1h1v2h-2V107z"/>
<path fill="#010101" d="M7,108h1v2H7V108z"/>
<path fill="#B8B0D8" d="M8,108h2v2h1v1H9v-1H8V108z"/>
<path fill="#784040" d="M10,108h1v2h-1V108z"/>
<path fill="#F8D0B8" d="M11,108h2v1h-2V108z"/>
<path fill="#985858" d="M13,108h1v1h-1V108z"/>
<path fill="#985858" d="M15,108h1v2h-1v1h-2v-1h1v-1h1V108z"/>
<path fill="#010101" d="M16,108h1v2h-1V108z"/>
<path fill="#010101" d="M29,108h1v2h-1V108z"/>
<path fill="#B8B0D8" d="M30,108h1v2h-1V108z"/>
<path fill="#784040" d="M31,108h1v2h-1V108z"/>
<path fill="#F8D0B8" d="M32,108h2v1h-2V108z"/>
<path fill="#985858" d="M34,108h1v1h-1V108z"/>
<path fill="#985858" d="M36,108h1v1h-1V108z"/>
<path fill="#E06868" d="M37,108h1v2h-1v1h-1v-1h-1v-1h2V108z"/>
<path fill="#010101" d="M38,108h1v3h-1V108z"/>
<path fill="#010101" d="M53,108h1v2h-1V108z"/>
<path fill="#B8B0D8" d="M54,108h2v2h1v1h-2v-1h-1V108z"/>
<path fill="#784040" d="M56,108h1v2h-1V108z"/>
<path fill="#F8D0B8" d="M57,108h2v1h-2V108z"/>
<path fill="#985858" d="M59,108h1v1h-1V108z"/>
<path fill="#985858" d="M61,108h1v2h-1v1h-2v-1h1v-1h1V108z"/>
<path fill="#010101" d="M62,108h1v2h-1V108z"/>
<path fill="#010101" d="M75,108h1v2h-1V108z"/>
<path fill="#E8E8F8" d="M76,108h2v1h2v1h-1v1h-2v-1h-1V108z"/>
<path fill="#985858" d="M78,108h2v1h-2V108z"/>
<path fill="#010101" d="M80,108h1v2h-1V108z"/>
<path fill="#F8D0B8" d="M81,108h2v1h-2V108z"/>
<path fill="#D89870" d="M11,109h2v1h-2V109z"/>
<path fill="#010101" d="M13,109h1v1h-1V109z"/>
<path fill="#D89870" d="M32,109h2v1h-2V109z"/>
<path fill="#010101" d="M34,109h1v1h-1V109z"/>
<path fill="#D89870" d="M57,109h2v1h-2V109z"/>
<path fill="#010101" d="M59,109h1v1h-1V109z"/>
<path fill="#D89870" d="M81,109h2v1h-2V109z"/>
<path fill="#010101" d="M8,110h1v1H8V110z"/>
<path fill="#010101" d="M11,110h2v1h-2V110z"/>
<path fill="#010101" d="M15,110h1v1h-1V110z"/>
<path fill="#585898" d="M29,110h1v1h-1V110z"/>
<path fill="#493130" d="M30,110h2v1h-2V110z"/>
<path fill="#784040" d="M32,110h2v1h-2V110z"/>
<path fill="#B8B0D8" d="M34,110h1v1h-1V110z"/>
<path fill="#985858" d="M35,110h1v1h-1V110z"/>
<path fill="#493130" d="M37,110h1v1h-1V110z"/>
<path fill="#010101" d="M54,110h1v1h-1V110z"/>
<path fill="#010101" d="M57,110h2v1h-2V110z"/>
<path fill="#010101" d="M61,110h1v1h-1V110z"/>
<path fill="#010101" d="M76,110h1v1h-1V110z"/>
<path fill="#B8B0D8" d="M79,110h2v1h-1v1h-1V110z"/>
<path fill="#010101" d="M81,110h2v1h-2V110z"/>
<path fill="#493130" d="M83,110h1v1h-1V110z"/>
<path fill="#D89870" d="M84,110h1v1h-1V110z"/>
<path fill="#010101" d="M85,110h1v3h-1V110z"/>
<path fill="#010101" d="M9,111h1v1H9V111z"/>
<path fill="#585898" d="M10,111h3v1h-3V111z"/>
<path fill="#010101" d="M13,111h2v1h-2V111z"/>
<path fill="#010101" d="M29,111h1v1h-1V111z"/>
<path fill="#585898" d="M30,111h2v1h-2V111z"/>
<path fill="#010101" d="M32,111h4v1h-4V111z"/>
<path fill="#F8D0B8" d="M36,111h2v1h-2V111z"/>
<path fill="#6890E0" d="M38,111h1v2h-2v-1h1V111z"/>
<path fill="#010101" d="M39,111h1v2h-1V111z"/>
<path fill="#010101" d="M55,111h1v1h-1V111z"/>
<path fill="#585898" d="M56,111h3v1h-3V111z"/>
<path fill="#010101" d="M59,111h2v1h-2V111z"/>
<path fill="#6890E0" d="M75,111h2v1h2v1h-3v-1h-1V111z"/>
<path fill="#585898" d="M77,111h1v1h-1V111z"/>
<path fill="#010101" d="M78,111h1v1h-1V111z"/>
<path fill="#493130" d="M80,111h2v1h-2V111z"/>
<path fill="#D89870" d="M82,111h2v1h-2V111z"/>
<path fill="#585898" d="M84,111h1v2h-2v-1h1V111z"/>
<path fill="#010101" d="M10,112h3v1h-3V112z"/>
<path fill="#010101" d="M30,112h2v1h-2V112z"/>
<path fill="#010101" d="M36,112h1v1h-1V112z"/>
<path fill="#010101" d="M56,112h3v1h-3V112z"/>
<path fill="#010101" d="M75,112h1v1h-1V112z"/>
<path fill="#010101" d="M79,112h2v1h-2V112z"/>
<path fill="#010101" d="M82,112h1v1h-1V112z"/>
<path fill="#010101" d="M37,113h2v1h-2V113z"/>
<path fill="#010101" d="M76,113h3v1h-3V113z"/>
<path fill="#010101" d="M83,113h2v1h-2V113z"/>
</svg>
