<?xml version="1.0" encoding="utf-8"?>
<!-- Generator: Adobe Illustrator 16.0.4, SVG Export Plug-In . SVG Version: 6.00 Build 0)  -->
<!DOCTYPE svg PUBLIC "-//W3C//DTD SVG 1.1//EN" "http://www.w3.org/Graphics/SVG/1.1/DTD/svg11.dtd">
<svg version="1.1" id="Layer_1" xmlns="http://www.w3.org/2000/svg" xmlns:xlink="http://www.w3.org/1999/xlink" x="0px" y="0px"
	 width="92px" height="116px" viewBox="0 0 92 116" enable-background="new 0 0 92 116" xml:space="preserve">
<path fill="#383030" d="M10,0h3v1h-3V0z"/>
<path fill="#383030" d="M33,0h3v1h-3V0z"/>
<path fill="#383030" d="M56,0h3v1h-3V0z"/>
<path fill="#383030" d="M79,0h3v1h-3V0z"/>
<path fill="#383030" d="M9,1h1v1H9V1z"/>
<path fill="#584138" d="M10,1h3v1h-3V1z"/>
<path fill="#383030" d="M13,1h1v1h-1V1z"/>
<path fill="#383030" d="M31,1h2v1h-2V1z"/>
<path fill="#584138" d="M33,1h3v1h-3V1z"/>
<path fill="#383030" d="M36,1h1v2h-1V1z"/>
<path fill="#383030" d="M55,1h1v1h-1V1z"/>
<path fill="#584138" d="M56,1h3v1h-3V1z"/>
<path fill="#383030" d="M59,1h1v1h-1V1z"/>
<path fill="#383030" d="M78,1h1v2h-1V1z"/>
<path fill="#584138" d="M79,1h3v1h-3V1z"/>
<path fill="#383030" d="M82,1h2v1h-2V1z"/>
<path fill="#383030" d="M8,2h1v2H8V2z"/>
<path fill="#584138" d="M9,2h1v1H9V2z"/>
<path fill="#485088" d="M10,2h3v1h-3V2z"/>
<path fill="#584138" d="M13,2h1v1h-1V2z"/>
<path fill="#383030" d="M14,2h1v2h-1V2z"/>
<path fill="#383030" d="M30,2h1v1h-1V2z"/>
<path fill="#584138" d="M31,2h2v1h-2V2z"/>
<path fill="#485088" d="M33,2h3v1h-3V2z"/>
<path fill="#383030" d="M54,2h1v2h-1V2z"/>
<path fill="#584138" d="M55,2h1v1h-1V2z"/>
<path fill="#485088" d="M56,2h3v1h-3V2z"/>
<path fill="#584138" d="M59,2h1v1h-1V2z"/>
<path fill="#383030" d="M60,2h1v2h-1V2z"/>
<path fill="#485088" d="M79,2h3v1h-3V2z"/>
<path fill="#584138" d="M82,2h2v1h-2V2z"/>
<path fill="#383030" d="M84,2h1v1h-1V2z"/>
<path fill="#485088" d="M9,3h1v1H9V3z"/>
<path fill="#5878B0" d="M10,3h3v1h-3V3z"/>
<path fill="#485088" d="M13,3h1v1h-1V3z"/>
<path fill="#383030" d="M29,3h1v1h-1V3z"/>
<path fill="#584138" d="M30,3h1v1h-1V3z"/>
<path fill="#383030" d="M31,3h1v1h-1V3z"/>
<path fill="#485088" d="M32,3h1v1h-1V3z"/>
<path fill="#5878B0" d="M33,3h3v1h-3V3z"/>
<path fill="#485088" d="M36,3h1v1h-1V3z"/>
<path fill="#383030" d="M37,3h1v1h-1V3z"/>
<path fill="#485088" d="M55,3h1v1h-1V3z"/>
<path fill="#5878B0" d="M56,3h3v1h-3V3z"/>
<path fill="#485088" d="M59,3h1v1h-1V3z"/>
<path fill="#383030" d="M77,3h1v1h-1V3z"/>
<path fill="#485088" d="M78,3h1v1h-1V3z"/>
<path fill="#5878B0" d="M79,3h3v1h-3V3z"/>
<path fill="#485088" d="M82,3h1v1h-1V3z"/>
<path fill="#383030" d="M83,3h1v1h-1V3z"/>
<path fill="#584138" d="M84,3h1v1h-1V3z"/>
<path fill="#383030" d="M85,3h1v1h-1V3z"/>
<path fill="#383030" d="M7,4h1v1H7V4z"/>
<path fill="#584138" d="M8,4h1v1H8V4z"/>
<path fill="#886040" d="M9,4h1v1h3V4h1v1h2v1h1v1h1v3h-1V9h-1v1h1v1h-1v1h1v1h-2v-1h-1v-1h-1v-1h-1v1h1v1h1v1h-2v-1h-2v-1H9V9H8v2H7
	v1H6v-2H5V7h1V6h1V5h2V4z"/>
<path fill="#383030" d="M10,4h3v1h-3V4z"/>
<path fill="#584138" d="M14,4h1v1h-1V4z"/>
<path fill="#383030" d="M15,4h1v1h-1V4z"/>
<path fill="#383030" d="M28,4h1v1h1v1h-1v1h-1V4z"/>
<path fill="#584138" d="M29,4h1v1h-1V4z"/>
<path fill="#383030" d="M30,4h1v1h-1V4z"/>
<path fill="#584138" d="M31,4h1v1h-1V4z"/>
<path fill="#886040" d="M32,4h1v1h3V4h1v1h2v1h1v1h1v3h-1V9h-1v1h1v1h-1v1h1v1h-2v-1h-1v-1h-1v-1h-1v1h1v1h1v1h-2v-1h-2v-1h-1V9h-1
	v2h-1v1h-1v-2h-1V7h1V6h1V5h2V4z"/>
<path fill="#383030" d="M33,4h3v1h-3V4z"/>
<path fill="#584138" d="M37,4h1v1h-1V4z"/>
<path fill="#383030" d="M38,4h1v1h-1V4z"/>
<path fill="#383030" d="M53,4h1v1h-1V4z"/>
<path fill="#584138" d="M54,4h1v1h-1V4z"/>
<path fill="#886040" d="M55,4h1v1h3V4h1v1h2v1h1v1h1v3h-1V9h-1v1h1v1h-1v1h1v1h-2v-1h-1v-1h-1v-1h-1v1h1v1h1v1h-2v-1h-2v-1h-1V9h-1
	v2h-1v1h-1v-2h-1V7h1V6h1V5h2V4z"/>
<path fill="#383030" d="M56,4h3v1h-3V4z"/>
<path fill="#584138" d="M60,4h1v1h-1V4z"/>
<path fill="#383030" d="M61,4h1v1h-1V4z"/>
<path fill="#383030" d="M76,4h1v1h-1V4z"/>
<path fill="#584138" d="M77,4h1v1h-1V4z"/>
<path fill="#886040" d="M78,4h1v1h3V4h1v1h2v1h1v1h1v3h-1V9h-1v1h1v1h-1v1h1v1h-2v-1h-1v-1h-1v-1h-1v1h1v1h1v1h-2v-1h-2v-1h-1V9h-1
	v2h-1v1h-1v-2h-1V7h1V6h1V5h2V4z"/>
<path fill="#383030" d="M79,4h3v1h-3V4z"/>
<path fill="#584138" d="M83,4h1v1h-1V4z"/>
<path fill="#383030" d="M84,4h1v1h-1V4z"/>
<path fill="#584138" d="M85,4h1v1h-1V4z"/>
<path fill="#383030" d="M86,4h1v3h-1V6h-1V5h1V4z"/>
<path fill="#383030" d="M6,5h1v1H6V5z"/>
<path fill="#383030" d="M16,5h1v1h-1V5z"/>
<path fill="#383030" d="M39,5h1v1h-1V5z"/>
<path fill="#383030" d="M52,5h1v1h-1V5z"/>
<path fill="#383030" d="M62,5h1v1h-1V5z"/>
<path fill="#383030" d="M75,5h1v1h-1V5z"/>
<path fill="#383030" d="M5,6h1v1H5V6z"/>
<path fill="#383030" d="M17,6h1v1h-1V6z"/>
<path fill="#383030" d="M40,6h1v1h-1V6z"/>
<path fill="#383030" d="M51,6h1v1h-1V6z"/>
<path fill="#383030" d="M63,6h1v1h-1V6z"/>
<path fill="#383030" d="M74,6h1v1h-1V6z"/>
<path fill="#383030" d="M4,7h1v2H4V7z"/>
<path fill="#C08850" d="M15,7h1v1h-1V7z"/>
<path fill="#383030" d="M18,7h1v2h-1V7z"/>
<path fill="#383030" d="M27,7h1v2h-1V7z"/>
<path fill="#C08850" d="M38,7h1v1h-1V7z"/>
<path fill="#383030" d="M41,7h1v2h-1V7z"/>
<path fill="#383030" d="M50,7h1v2h-1V7z"/>
<path fill="#C08850" d="M61,7h1v1h-1V7z"/>
<path fill="#383030" d="M64,7h1v2h-1V7z"/>
<path fill="#383030" d="M73,7h1v2h-1V7z"/>
<path fill="#C08850" d="M84,7h1v1h-1V7z"/>
<path fill="#383030" d="M87,7h1v2h-1V7z"/>
<path fill="#584138" d="M9,8h1v1H9V8z"/>
<path fill="#C08850" d="M13,8h1v1h-1V8z"/>
<path fill="#584138" d="M32,8h1v1h-1V8z"/>
<path fill="#C08850" d="M36,8h1v1h-1V8z"/>
<path fill="#584138" d="M55,8h1v1h-1V8z"/>
<path fill="#C08850" d="M59,8h1v1h-1V8z"/>
<path fill="#584138" d="M78,8h1v1h-1V8z"/>
<path fill="#C08850" d="M82,8h1v1h-1V8z"/>
<path fill="#383030" d="M3,9h1v2H3V9z"/>
<path fill="#584138" d="M4,9h1v1h1v2H5v-1H4V9z"/>
<path fill="#584138" d="M6,9h1v1H6V9z"/>
<path fill="#584138" d="M8,9h1v2h1v1H8v1H7v1H6v2H5v-3h1v-1h1v-1h1V9z"/>
<path fill="#584138" d="M16,9h1v1h-1V9z"/>
<path fill="#584138" d="M18,9h1v2h-1v5h-1v-2h-1v-1h1v-1h-1v-1h1v-1h1V9z"/>
<path fill="#383030" d="M19,9h1v2h-1V9z"/>
<path fill="#383030" d="M26,9h1v2h-1V9z"/>
<path fill="#584138" d="M27,9h1v1h1v2h-1v-1h-1V9z"/>
<path fill="#584138" d="M29,9h1v1h-1V9z"/>
<path fill="#584138" d="M31,9h1v2h1v1h-2v1h-1v1h-1v2h-1v-3h1v-1h1v-1h1V9z"/>
<path fill="#584138" d="M39,9h1v1h-1V9z"/>
<path fill="#584138" d="M41,9h1v2h-1v5h-1v-2h-1v-1h1v-1h-1v-1h1v-1h1V9z"/>
<path fill="#383030" d="M42,9h1v2h-1V9z"/>
<path fill="#383030" d="M49,9h1v2h-1V9z"/>
<path fill="#584138" d="M50,9h1v1h1v2h-1v-1h-1V9z"/>
<path fill="#584138" d="M52,9h1v1h-1V9z"/>
<path fill="#584138" d="M54,9h1v2h1v1h-2v1h-1v1h-1v2h-1v-3h1v-1h1v-1h1V9z"/>
<path fill="#584138" d="M62,9h1v1h-1V9z"/>
<path fill="#584138" d="M64,9h1v2h-1v5h-1v-2h-1v-1h1v-1h-1v-1h1v-1h1V9z"/>
<path fill="#383030" d="M65,9h1v2h-1V9z"/>
<path fill="#383030" d="M72,9h1v2h-1V9z"/>
<path fill="#584138" d="M73,9h1v1h1v2h-1v-1h-1V9z"/>
<path fill="#584138" d="M75,9h1v1h-1V9z"/>
<path fill="#584138" d="M77,9h1v2h1v1h-2v1h-1v1h-1v2h-1v-3h1v-1h1v-1h1V9z"/>
<path fill="#584138" d="M85,9h1v1h-1V9z"/>
<path fill="#584138" d="M87,9h1v2h-1v5h-1v-2h-1v-1h1v-1h-1v-1h1v-1h1V9z"/>
<path fill="#383030" d="M88,9h1v2h-1V9z"/>
<path fill="#584138" d="M12,10h1v1h-1V10z"/>
<path fill="#584138" d="M35,10h1v1h-1V10z"/>
<path fill="#584138" d="M58,10h1v1h-1V10z"/>
<path fill="#584138" d="M81,10h1v1h-1V10z"/>
<path fill="#383030" d="M2,11h1v2H2V11z"/>
<path fill="#584138" d="M3,11h1v1H3V11z"/>
<path fill="#784040" d="M4,11h1v1H4V11z"/>
<path fill="#584138" d="M13,11h1v1h-1V11z"/>
<path fill="#784040" d="M18,11h1v1h-1V11z"/>
<path fill="#584138" d="M19,11h1v1h-1V11z"/>
<path fill="#383030" d="M20,11h1v2h-1V11z"/>
<path fill="#383030" d="M25,11h1v2h-1V11z"/>
<path fill="#584138" d="M26,11h1v1h-1V11z"/>
<path fill="#784040" d="M27,11h1v1h-1V11z"/>
<path fill="#584138" d="M36,11h1v1h-1V11z"/>
<path fill="#784040" d="M41,11h1v1h-1V11z"/>
<path fill="#584138" d="M42,11h1v1h-1V11z"/>
<path fill="#383030" d="M43,11h1v2h-1V11z"/>
<path fill="#383030" d="M48,11h1v2h-1V11z"/>
<path fill="#584138" d="M49,11h1v1h-1V11z"/>
<path fill="#784040" d="M50,11h1v1h-1V11z"/>
<path fill="#584138" d="M59,11h1v1h-1V11z"/>
<path fill="#784040" d="M64,11h1v1h-1V11z"/>
<path fill="#584138" d="M65,11h1v1h-1V11z"/>
<path fill="#383030" d="M66,11h1v2h-1V11z"/>
<path fill="#383030" d="M71,11h1v2h-1V11z"/>
<path fill="#584138" d="M72,11h1v1h-1V11z"/>
<path fill="#784040" d="M73,11h1v1h-1V11z"/>
<path fill="#584138" d="M82,11h1v1h-1V11z"/>
<path fill="#784040" d="M87,11h1v1h-1V11z"/>
<path fill="#584138" d="M88,11h1v1h-1V11z"/>
<path fill="#383030" d="M89,11h1v2h-1V11z"/>
<path fill="#784040" d="M3,12h1v2H3V12z"/>
<path fill="#D89870" d="M4,12h1v2H4V12z"/>
<path fill="#886040" d="M5,12h1v1H5V12z"/>
<path fill="#383030" d="M8,12h1v1H8V12z"/>
<path fill="#D89870" d="M9,12h1v1h2v1h1v1h-3v-1H8v-1h1V12z"/>
<path fill="#584138" d="M10,12h2v1h-2V12z"/>
<path fill="#383030" d="M14,12h1v1h-1V12z"/>
<path fill="#D89870" d="M18,12h1v2h-1V12z"/>
<path fill="#784040" d="M19,12h1v2h-1V12z"/>
<path fill="#784040" d="M26,12h1v2h-1V12z"/>
<path fill="#D89870" d="M27,12h1v2h-1V12z"/>
<path fill="#886040" d="M28,12h1v1h-1V12z"/>
<path fill="#383030" d="M31,12h1v1h-1V12z"/>
<path fill="#D89870" d="M32,12h1v1h2v1h1v1h-3v-1h-2v-1h1V12z"/>
<path fill="#584138" d="M33,12h2v1h-2V12z"/>
<path fill="#383030" d="M37,12h1v1h-1V12z"/>
<path fill="#D89870" d="M41,12h1v2h-1V12z"/>
<path fill="#784040" d="M42,12h1v2h-1V12z"/>
<path fill="#784040" d="M49,12h1v2h-1V12z"/>
<path fill="#D89870" d="M50,12h1v2h-1V12z"/>
<path fill="#886040" d="M51,12h1v1h-1V12z"/>
<path fill="#383030" d="M54,12h1v1h-1V12z"/>
<path fill="#D89870" d="M55,12h1v1h2v1h1v1h-3v-1h-2v-1h1V12z"/>
<path fill="#584138" d="M56,12h2v1h-2V12z"/>
<path fill="#383030" d="M60,12h1v1h-1V12z"/>
<path fill="#D89870" d="M64,12h1v2h-1V12z"/>
<path fill="#784040" d="M65,12h1v2h-1V12z"/>
<path fill="#784040" d="M72,12h1v2h-1V12z"/>
<path fill="#D89870" d="M73,12h1v2h-1V12z"/>
<path fill="#886040" d="M74,12h1v1h-1V12z"/>
<path fill="#383030" d="M77,12h1v1h-1V12z"/>
<path fill="#D89870" d="M78,12h1v1h2v1h1v1h-3v-1h-2v-1h1V12z"/>
<path fill="#584138" d="M79,12h2v1h-2V12z"/>
<path fill="#383030" d="M83,12h1v1h-1V12z"/>
<path fill="#D89870" d="M87,12h1v2h-1V12z"/>
<path fill="#784040" d="M88,12h1v2h-1V12z"/>
<path fill="#383030" d="M7,13h1v2H7v2H6v-3h1V13z"/>
<path fill="#584138" d="M12,13h3v1h-3V13z"/>
<path fill="#383030" d="M15,13h1v1h1v3h-1v-2h-1V13z"/>
<path fill="#383030" d="M30,13h1v2h-1v2h-1v-3h1V13z"/>
<path fill="#584138" d="M35,13h3v1h-3V13z"/>
<path fill="#383030" d="M38,13h1v1h1v3h-1v-2h-1V13z"/>
<path fill="#383030" d="M53,13h1v2h-1v2h-1v-3h1V13z"/>
<path fill="#584138" d="M58,13h3v1h-3V13z"/>
<path fill="#383030" d="M61,13h1v1h1v3h-1v-2h-1V13z"/>
<path fill="#383030" d="M76,13h1v2h-1v2h-1v-3h1V13z"/>
<path fill="#584138" d="M81,13h3v1h-3V13z"/>
<path fill="#383030" d="M84,13h1v1h1v3h-1v-2h-1V13z"/>
<path fill="#030303" d="M4,14h1v2H4V14z"/>
<path fill="#A8A8D8" d="M8,14h1v1H8V14z"/>
<path fill="#485088" d="M9,14h1v1H9V14z"/>
<path fill="#485088" d="M13,14h1v1h-1V14z"/>
<path fill="#A8A8D8" d="M14,14h1v1h-1V14z"/>
<path fill="#030303" d="M18,14h1v2h-1V14z"/>
<path fill="#030303" d="M27,14h1v2h-1V14z"/>
<path fill="#A8A8D8" d="M31,14h1v1h-1V14z"/>
<path fill="#485088" d="M32,14h1v1h-1V14z"/>
<path fill="#485088" d="M36,14h1v1h-1V14z"/>
<path fill="#A8A8D8" d="M37,14h1v1h-1V14z"/>
<path fill="#030303" d="M41,14h1v2h-1V14z"/>
<path fill="#030303" d="M50,14h1v2h-1V14z"/>
<path fill="#A8A8D8" d="M54,14h1v1h-1V14z"/>
<path fill="#485088" d="M55,14h1v1h-1V14z"/>
<path fill="#485088" d="M59,14h1v1h-1V14z"/>
<path fill="#A8A8D8" d="M60,14h1v1h-1V14z"/>
<path fill="#030303" d="M64,14h1v2h-1V14z"/>
<path fill="#030303" d="M73,14h1v2h-1V14z"/>
<path fill="#A8A8D8" d="M77,14h1v1h-1V14z"/>
<path fill="#485088" d="M78,14h1v1h-1V14z"/>
<path fill="#485088" d="M82,14h1v1h-1V14z"/>
<path fill="#A8A8D8" d="M83,14h1v1h-1V14z"/>
<path fill="#030303" d="M87,14h1v2h-1V14z"/>
<path fill="#D89870" d="M7,15h1v2H7V15z"/>
<path fill="#E8E8F8" d="M8,15h1v1H8V15z"/>
<path fill="#030303" d="M9,15h1v1H9V15z"/>
<path fill="#F8D0B8" d="M10,15h3v1h2v1h-1v1h-2v-1h-1v1H9v-1H8v-1h2V15z"/>
<path fill="#030303" d="M13,15h1v1h-1V15z"/>
<path fill="#E8E8F8" d="M14,15h1v1h-1V15z"/>
<path fill="#D89870" d="M15,15h1v2h-1V15z"/>
<path fill="#D89870" d="M30,15h1v2h-1V15z"/>
<path fill="#E8E8F8" d="M31,15h1v1h-1V15z"/>
<path fill="#030303" d="M32,15h1v1h-1V15z"/>
<path fill="#F8D0B8" d="M33,15h3v1h2v1h-1v1h-2v-1h-1v1h-2v-1h-1v-1h2V15z"/>
<path fill="#030303" d="M36,15h1v1h-1V15z"/>
<path fill="#E8E8F8" d="M37,15h1v1h-1V15z"/>
<path fill="#D89870" d="M38,15h1v2h-1V15z"/>
<path fill="#D89870" d="M53,15h1v2h-1V15z"/>
<path fill="#E8E8F8" d="M54,15h1v1h-1V15z"/>
<path fill="#030303" d="M55,15h1v1h-1V15z"/>
<path fill="#F8D0B8" d="M56,15h3v1h2v1h-1v1h-2v-1h-1v1h-2v-1h-1v-1h2V15z"/>
<path fill="#030303" d="M59,15h1v1h-1V15z"/>
<path fill="#E8E8F8" d="M60,15h1v1h-1V15z"/>
<path fill="#D89870" d="M61,15h1v2h-1V15z"/>
<path fill="#D89870" d="M76,15h1v2h-1V15z"/>
<path fill="#E8E8F8" d="M77,15h1v1h-1V15z"/>
<path fill="#030303" d="M78,15h1v1h-1V15z"/>
<path fill="#F8D0B8" d="M79,15h3v1h2v1h-1v1h-2v-1h-1v1h-2v-1h-1v-1h2V15z"/>
<path fill="#030303" d="M82,15h1v1h-1V15z"/>
<path fill="#E8E8F8" d="M83,15h1v1h-1V15z"/>
<path fill="#D89870" d="M84,15h1v2h-1V15z"/>
<path fill="#030303" d="M5,16h1v1H5V16z"/>
<path fill="#030303" d="M17,16h1v1h-1V16z"/>
<path fill="#030303" d="M28,16h1v1h-1V16z"/>
<path fill="#030303" d="M40,16h1v1h-1V16z"/>
<path fill="#030303" d="M51,16h1v1h-1V16z"/>
<path fill="#030303" d="M63,16h1v1h-1V16z"/>
<path fill="#030303" d="M74,16h1v1h-1V16z"/>
<path fill="#030303" d="M86,16h1v1h-1V16z"/>
<path fill="#030303" d="M6,17h1v1H6V17z"/>
<path fill="#784040" d="M7,17h1v1H7V17z"/>
<path fill="#D89870" d="M8,17h1v1H8V17z"/>
<path fill="#D89870" d="M11,17h1v1h1v1h-3v-1h1V17z"/>
<path fill="#D89870" d="M14,17h1v1h-1V17z"/>
<path fill="#784040" d="M15,17h1v1h-1V17z"/>
<path fill="#030303" d="M16,17h1v1h-1V17z"/>
<path fill="#030303" d="M29,17h1v1h-1V17z"/>
<path fill="#784040" d="M30,17h1v1h-1V17z"/>
<path fill="#D89870" d="M31,17h1v1h-1V17z"/>
<path fill="#D89870" d="M34,17h1v1h1v1h-3v-1h1V17z"/>
<path fill="#D89870" d="M37,17h1v1h-1V17z"/>
<path fill="#784040" d="M38,17h1v1h-1V17z"/>
<path fill="#030303" d="M39,17h1v2h-1V17z"/>
<path fill="#030303" d="M52,17h1v1h-1V17z"/>
<path fill="#784040" d="M53,17h1v1h-1V17z"/>
<path fill="#D89870" d="M54,17h1v1h-1V17z"/>
<path fill="#D89870" d="M57,17h1v1h1v1h-3v-1h1V17z"/>
<path fill="#D89870" d="M60,17h1v1h-1V17z"/>
<path fill="#784040" d="M61,17h1v1h-1V17z"/>
<path fill="#030303" d="M62,17h1v1h-1V17z"/>
<path fill="#030303" d="M75,17h1v2h-1V17z"/>
<path fill="#784040" d="M76,17h1v1h-1V17z"/>
<path fill="#D89870" d="M77,17h1v1h-1V17z"/>
<path fill="#D89870" d="M80,17h1v1h1v1h-3v-1h1V17z"/>
<path fill="#D89870" d="M83,17h1v1h-1V17z"/>
<path fill="#784040" d="M84,17h1v1h-1V17z"/>
<path fill="#030303" d="M85,17h1v1h-1V17z"/>
<path fill="#030303" d="M5,18h1v1H5V18z"/>
<path fill="#5878B0" d="M6,18h1v3H6V18z"/>
<path fill="#A8A8D8" d="M7,18h1v2H7V18z"/>
<path fill="#030303" d="M8,18h1v1H8V18z"/>
<path fill="#784040" d="M9,18h1v1H9V18z"/>
<path fill="#784040" d="M13,18h1v1h-1V18z"/>
<path fill="#030303" d="M14,18h1v1h-1V18z"/>
<path fill="#A8A8D8" d="M15,18h1v2h-1V18z"/>
<path fill="#5878B0" d="M16,18h1v3h-1V18z"/>
<path fill="#030303" d="M17,18h1v1h-1V18z"/>
<path fill="#030303" d="M27,18h2v1h-2V18z"/>
<path fill="#5878B0" d="M29,18h1v2h-1V18z"/>
<path fill="#A8A8D8" d="M30,18h1v2h-1V18z"/>
<path fill="#030303" d="M31,18h1v1h-1V18z"/>
<path fill="#784040" d="M32,18h1v1h-1V18z"/>
<path fill="#784040" d="M36,18h1v1h-1V18z"/>
<path fill="#030303" d="M37,18h1v1h-1V18z"/>
<path fill="#A8A8D8" d="M38,18h1v2h-1V18z"/>
<path fill="#030303" d="M51,18h1v1h-1V18z"/>
<path fill="#5878B0" d="M52,18h1v3h-1V18z"/>
<path fill="#A8A8D8" d="M53,18h1v2h-1V18z"/>
<path fill="#030303" d="M54,18h1v1h-1V18z"/>
<path fill="#784040" d="M55,18h1v1h-1V18z"/>
<path fill="#784040" d="M59,18h1v1h-1V18z"/>
<path fill="#030303" d="M60,18h1v1h-1V18z"/>
<path fill="#A8A8D8" d="M61,18h1v2h-1V18z"/>
<path fill="#5878B0" d="M62,18h1v3h-1V18z"/>
<path fill="#030303" d="M63,18h1v1h-1V18z"/>
<path fill="#A8A8D8" d="M76,18h1v2h-1V18z"/>
<path fill="#030303" d="M77,18h1v1h-1V18z"/>
<path fill="#784040" d="M78,18h1v1h-1V18z"/>
<path fill="#784040" d="M82,18h1v1h-1V18z"/>
<path fill="#030303" d="M83,18h1v1h-1V18z"/>
<path fill="#A8A8D8" d="M84,18h1v2h-1V18z"/>
<path fill="#5878B0" d="M85,18h1v2h-1V18z"/>
<path fill="#030303" d="M86,18h2v1h-2V18z"/>
<path fill="#030303" d="M4,19h1v1H4V19z"/>
<path fill="#D89870" d="M5,19h1v2H5V19z"/>
<path fill="#485088" d="M8,19h1v1h5v-1h1v2h-1v1h-1v-1h-3v1H9v-1H8V19z"/>
<path fill="#F86030" d="M9,19h1v1H9V19z"/>
<path fill="#A85030" d="M10,19h3v1h-3V19z"/>
<path fill="#F86030" d="M13,19h1v1h-1V19z"/>
<path fill="#D89870" d="M17,19h1v2h-1V19z"/>
<path fill="#030303" d="M18,19h1v1h-1V19z"/>
<path fill="#030303" d="M26,19h1v2h-1V19z"/>
<path fill="#F8D0B8" d="M27,19h1v2h-1V19z"/>
<path fill="#D89870" d="M28,19h1v2h-1V19z"/>
<path fill="#485088" d="M31,19h1v1h5v-1h1v2h-1v1h-1v-1h-3v1h-1v-1h-1V19z"/>
<path fill="#F86030" d="M32,19h1v1h-1V19z"/>
<path fill="#A85030" d="M33,19h3v1h-3V19z"/>
<path fill="#F86030" d="M36,19h1v1h-1V19z"/>
<path fill="#F8D0B8" d="M39,19h1v1h1v1h-2V19z"/>
<path fill="#030303" d="M40,19h1v1h-1V19z"/>
<path fill="#030303" d="M50,19h1v1h-1V19z"/>
<path fill="#D89870" d="M51,19h1v2h-1V19z"/>
<path fill="#485088" d="M54,19h1v1h5v-1h1v2h-1v1h-1v-1h-3v1h-1v-1h-1V19z"/>
<path fill="#F86030" d="M55,19h1v1h-1V19z"/>
<path fill="#A85030" d="M56,19h3v1h-3V19z"/>
<path fill="#F86030" d="M59,19h1v1h-1V19z"/>
<path fill="#D89870" d="M63,19h1v2h-1V19z"/>
<path fill="#030303" d="M64,19h1v1h-1V19z"/>
<path fill="#030303" d="M74,19h1v1h-1V19z"/>
<path fill="#F8D0B8" d="M75,19h1v2h-2v-1h1V19z"/>
<path fill="#485088" d="M77,19h1v1h5v-1h1v2h-1v1h-1v-1h-3v1h-1v-1h-1V19z"/>
<path fill="#F86030" d="M78,19h1v1h-1V19z"/>
<path fill="#A85030" d="M79,19h3v1h-3V19z"/>
<path fill="#F86030" d="M82,19h1v1h-1V19z"/>
<path fill="#D89870" d="M86,19h1v2h-1V19z"/>
<path fill="#F8D0B8" d="M87,19h1v2h-1V19z"/>
<path fill="#030303" d="M88,19h1v2h-1V19z"/>
<path fill="#784040" d="M3,20h1v2H3V20z"/>
<path fill="#F8D0B8" d="M4,20h1v1h1v1H4V20z"/>
<path fill="#030303" d="M7,20h1v2H7V20z"/>
<path fill="#030303" d="M15,20h1v2h-1V20z"/>
<path fill="#F8D0B8" d="M18,20h1v2h-2v-1h1V20z"/>
<path fill="#784040" d="M19,20h1v2h-1V20z"/>
<path fill="#030303" d="M29,20h2v1h-2V20z"/>
<path fill="#030303" d="M38,20h1v2h-1V20z"/>
<path fill="#784040" d="M41,20h1v2h-1V20z"/>
<path fill="#784040" d="M49,20h1v2h-1V20z"/>
<path fill="#F8D0B8" d="M50,20h1v1h1v1h-2V20z"/>
<path fill="#030303" d="M53,20h1v2h-1V20z"/>
<path fill="#030303" d="M61,20h1v2h-1V20z"/>
<path fill="#F8D0B8" d="M64,20h1v2h-2v-1h1V20z"/>
<path fill="#784040" d="M65,20h1v2h-1V20z"/>
<path fill="#784040" d="M73,20h1v2h-1V20z"/>
<path fill="#030303" d="M76,20h1v2h-1V20z"/>
<path fill="#030303" d="M84,20h2v1h-2V20z"/>
<path fill="#784040" d="M6,21h1v1H6V21z"/>
<path fill="#383038" d="M8,21h1v1H8V21z"/>
<path fill="#5878B0" d="M10,21h3v1h-3V21z"/>
<path fill="#383038" d="M14,21h1v1h-1V21z"/>
<path fill="#784040" d="M16,21h1v1h-1V21z"/>
<path fill="#030303" d="M27,21h2v1h-2V21z"/>
<path fill="#784040" d="M29,21h1v1h-1V21z"/>
<path fill="#383038" d="M30,21h2v1h-2V21z"/>
<path fill="#5878B0" d="M33,21h3v1h-3V21z"/>
<path fill="#383038" d="M37,21h1v1h-1V21z"/>
<path fill="#D89870" d="M39,21h2v1h-2V21z"/>
<path fill="#784040" d="M52,21h1v1h-1V21z"/>
<path fill="#383038" d="M54,21h1v1h-1V21z"/>
<path fill="#5878B0" d="M56,21h3v1h-3V21z"/>
<path fill="#383038" d="M60,21h1v1h-1V21z"/>
<path fill="#784040" d="M62,21h1v1h-1V21z"/>
<path fill="#D89870" d="M74,21h2v1h-2V21z"/>
<path fill="#383038" d="M77,21h1v1h-1V21z"/>
<path fill="#5878B0" d="M79,21h3v1h-3V21z"/>
<path fill="#383038" d="M83,21h2v1h-2V21z"/>
<path fill="#784040" d="M85,21h1v1h-1V21z"/>
<path fill="#030303" d="M86,21h2v1h-2V21z"/>
<path fill="#784040" d="M4,22h2v1H4V22z"/>
<path fill="#030303" d="M6,22h1v2H6V22z"/>
<path fill="#F86030" d="M7,22h2v1H7V22z"/>
<path fill="#383038" d="M9,22h5v1H9V22z"/>
<path fill="#F86030" d="M14,22h2v1h-2V22z"/>
<path fill="#030303" d="M16,22h1v3h-2v-1h1V22z"/>
<path fill="#784040" d="M17,22h2v1h-2V22z"/>
<path fill="#030303" d="M29,22h1v1h-1V22z"/>
<path fill="#F86030" d="M30,22h2v1h-2V22z"/>
<path fill="#383038" d="M32,22h5v1h-5V22z"/>
<path fill="#F86030" d="M37,22h2v1h-2V22z"/>
<path fill="#784040" d="M39,22h2v1h-2V22z"/>
<path fill="#784040" d="M50,22h2v1h-2V22z"/>
<path fill="#030303" d="M52,22h1v2h-1V22z"/>
<path fill="#F86030" d="M53,22h2v1h-2V22z"/>
<path fill="#383038" d="M55,22h5v1h-5V22z"/>
<path fill="#F86030" d="M60,22h2v1h-2V22z"/>
<path fill="#030303" d="M62,22h1v3h-2v-1h1V22z"/>
<path fill="#784040" d="M63,22h2v1h-2V22z"/>
<path fill="#784040" d="M74,22h2v1h-2V22z"/>
<path fill="#F86030" d="M76,22h2v1h-2V22z"/>
<path fill="#383038" d="M78,22h5v1h-5V22z"/>
<path fill="#F86030" d="M83,22h2v1h-2V22z"/>
<path fill="#030303" d="M85,22h1v1h-1V22z"/>
<path fill="#F8D0B8" d="M7,23h1v1H7V23z"/>
<path fill="#D89870" d="M8,23h1v1H8V23z"/>
<path fill="#F86030" d="M9,23h5v1H9V23z"/>
<path fill="#D89870" d="M14,23h1v1h-1V23z"/>
<path fill="#F8D0B8" d="M15,23h1v1h-1V23z"/>
<path fill="#030303" d="M30,23h1v2h-1V23z"/>
<path fill="#A85030" d="M31,23h1v1h-1V23z"/>
<path fill="#F86030" d="M32,23h5v1h-5V23z"/>
<path fill="#030303" d="M37,23h2v1h-2V23z"/>
<path fill="#F8D0B8" d="M53,23h1v1h-1V23z"/>
<path fill="#D89870" d="M54,23h1v1h-1V23z"/>
<path fill="#F86030" d="M55,23h5v1h-5V23z"/>
<path fill="#D89870" d="M60,23h1v1h-1V23z"/>
<path fill="#F8D0B8" d="M61,23h1v1h-1V23z"/>
<path fill="#030303" d="M76,23h2v1h-2V23z"/>
<path fill="#F86030" d="M78,23h5v1h-5V23z"/>
<path fill="#A85030" d="M83,23h1v1h-1V23z"/>
<path fill="#030303" d="M84,23h1v2h-1V23z"/>
<path fill="#030303" d="M7,24h1v1H7V24z"/>
<path fill="#686840" d="M8,24h2v1H8V24z"/>
<path fill="#030303" d="M10,24h3v1h-3V24z"/>
<path fill="#686840" d="M13,24h2v1h-2V24z"/>
<path fill="#F8D0B8" d="M31,24h1v1h-1V24z"/>
<path fill="#D89870" d="M32,24h1v1h-1V24z"/>
<path fill="#030303" d="M33,24h4v1h-2v2h-1v-2h-1V24z"/>
<path fill="#030303" d="M53,24h1v1h-1V24z"/>
<path fill="#686840" d="M54,24h2v1h-2V24z"/>
<path fill="#030303" d="M56,24h3v1h-3V24z"/>
<path fill="#686840" d="M59,24h2v1h-2V24z"/>
<path fill="#030303" d="M78,24h4v1h-1v2h-1v-2h-2V24z"/>
<path fill="#D89870" d="M82,24h1v1h-1V24z"/>
<path fill="#F8D0B8" d="M83,24h1v1h-1V24z"/>
<path fill="#030303" d="M8,25h2v1H8V25z"/>
<path fill="#030303" d="M13,25h2v1h-2V25z"/>
<path fill="#030303" d="M31,25h1v2h-1V25z"/>
<path fill="#484838" d="M32,25h2v1h-2V25z"/>
<path fill="#030303" d="M54,25h2v1h-2V25z"/>
<path fill="#030303" d="M59,25h2v1h-2V25z"/>
<path fill="#484838" d="M81,25h2v1h-2V25z"/>
<path fill="#030303" d="M83,25h1v2h-1V25z"/>
<path fill="#686840" d="M32,26h2v1h-2V26z"/>
<path fill="#686840" d="M81,26h2v1h-2V26z"/>
<path fill="#030303" d="M32,27h2v1h-2V27z"/>
<path fill="#030303" d="M81,27h2v1h-2V27z"/>
<path fill="#383030" d="M6,29h3v1H6V29z"/>
<path fill="#383030" d="M29,29h3v1h-3V29z"/>
<path fill="#383030" d="M52,29h3v1h-3V29z"/>
<path fill="#383030" d="M75,29h3v1h-3V29z"/>
<path fill="#383030" d="M5,30h1v1H5V30z"/>
<path fill="#886040" d="M6,30h2v1h1v2H8v2H7v1H5v-1H4v1H3v-2h1v-1h1v-2h1V30z"/>
<path fill="#584138" d="M8,30h1v1H8V30z"/>
<path fill="#383030" d="M9,30h1v3H9V30z"/>
<path fill="#485088" d="M10,30h1v1h-1V30z"/>
<path fill="#383030" d="M28,30h1v1h-1V30z"/>
<path fill="#886040" d="M29,30h2v1h1v2h-1v2h-2v1h-4v-1h2v-1h-2v-1h1v-1h2v-1h1V30z"/>
<path fill="#584138" d="M31,30h1v1h-1V30z"/>
<path fill="#383030" d="M32,30h1v3h-1V30z"/>
<path fill="#485088" d="M33,30h1v1h-1V30z"/>
<path fill="#383030" d="M51,30h1v1h-1V30z"/>
<path fill="#886040" d="M52,30h2v1h1v2h-1v2h-1v1h-2v-1h-1v1h-1v-2h1v-1h1v-2h1V30z"/>
<path fill="#584138" d="M54,30h1v1h-1V30z"/>
<path fill="#383030" d="M55,30h1v3h-1V30z"/>
<path fill="#485088" d="M56,30h1v1h-1V30z"/>
<path fill="#383030" d="M74,30h1v1h-1V30z"/>
<path fill="#886040" d="M75,30h2v1h1v2h-1v2h-2v1h-4v-1h2v-1h-2v-1h1v-1h2v-1h1V30z"/>
<path fill="#584138" d="M77,30h1v1h-1V30z"/>
<path fill="#383030" d="M78,30h1v3h-1V30z"/>
<path fill="#485088" d="M79,30h1v1h-1V30z"/>
<path fill="#383030" d="M4,31h1v2H4V31z"/>
<path fill="#5878B0" d="M10,31h1v3h-1v1H9v-2h1V31z"/>
<path fill="#485088" d="M11,31h1v3h-1V31z"/>
<path fill="#383030" d="M26,31h2v1h-2V31z"/>
<path fill="#5878B0" d="M33,31h1v3h-1v1h-1v-2h1V31z"/>
<path fill="#485088" d="M34,31h1v3h-1V31z"/>
<path fill="#383030" d="M50,31h1v2h-1V31z"/>
<path fill="#5878B0" d="M56,31h1v3h-1v1h-1v-2h1V31z"/>
<path fill="#485088" d="M57,31h1v3h-1V31z"/>
<path fill="#383030" d="M72,31h2v1h-2V31z"/>
<path fill="#5878B0" d="M79,31h1v3h-1v1h-1v-2h1V31z"/>
<path fill="#485088" d="M80,31h1v3h-1V31z"/>
<path fill="#383030" d="M12,32h2v1h-2V32z"/>
<path fill="#383030" d="M24,32h2v1h-2V32z"/>
<path fill="#383030" d="M35,32h2v1h-2V32z"/>
<path fill="#383030" d="M58,32h2v1h-2V32z"/>
<path fill="#383030" d="M70,32h2v1h-2V32z"/>
<path fill="#383030" d="M81,32h2v1h-2V32z"/>
<path fill="#383030" d="M3,33h1v1H3V33z"/>
<path fill="#383030" d="M8,33h1v2H8V33z"/>
<path fill="#886040" d="M12,33h2v1h2v1h1v1h1v2h1v2h-1v1h-2v1h-2v-1h-1v1h-2v1H9v1H7v-1H5v-2H4v-2h1v-2h2v-1h3v-1h1v-1h1V33z"/>
<path fill="#383030" d="M14,33h2v1h-2V33z"/>
<path fill="#383030" d="M23,33h1v2h-1V33z"/>
<path fill="#584138" d="M24,33h1v1h-1V33z"/>
<path fill="#383030" d="M31,33h1v2h-1V33z"/>
<path fill="#886040" d="M35,33h2v1h2v1h1v1h1v2h1v2h-1v1h-2v1h-2v-1h-1v1h-2v1h-2v1h-2v-1h-2v-2h-1v-2h1v-2h1v-1h4v-1h1v-1h1V33z"/>
<path fill="#383030" d="M37,33h2v1h-2V33z"/>
<path fill="#383030" d="M49,33h1v1h-1V33z"/>
<path fill="#383030" d="M54,33h1v2h-1V33z"/>
<path fill="#886040" d="M58,33h2v1h2v1h1v1h1v2h1v2h-1v1h-2v1h-2v-1h-1v1h-2v1h-2v1h-2v-1h-2v-2h-1v-2h1v-2h2v-1h3v-1h1v-1h1V33z"/>
<path fill="#383030" d="M60,33h2v1h-2V33z"/>
<path fill="#383030" d="M69,33h1v2h-1V33z"/>
<path fill="#584138" d="M70,33h1v1h-1V33z"/>
<path fill="#383030" d="M77,33h1v2h-1V33z"/>
<path fill="#886040" d="M81,33h2v1h2v1h1v1h1v2h1v2h-1v1h-2v1h-2v-1h-1v1h-2v1h-2v1h-2v-1h-2v-2h-1v-2h1v-2h1v-1h4v-1h1v-1h1V33z"/>
<path fill="#383030" d="M83,33h2v1h-2V33z"/>
<path fill="#383030" d="M2,34h1v2h1v1H2V34z"/>
<path fill="#485088" d="M10,34h1v1h-1V34z"/>
<path fill="#383030" d="M16,34h1v1h-1V34z"/>
<path fill="#886040" d="M24,34h1v1h-1V34z"/>
<path fill="#584138" d="M25,34h2v1h-2V34z"/>
<path fill="#485088" d="M33,34h1v1h-1V34z"/>
<path fill="#383030" d="M39,34h1v1h-1V34z"/>
<path fill="#383030" d="M48,34h1v2h1v1h-2V34z"/>
<path fill="#485088" d="M56,34h1v1h-1V34z"/>
<path fill="#383030" d="M62,34h1v1h-1V34z"/>
<path fill="#886040" d="M70,34h1v1h-1V34z"/>
<path fill="#584138" d="M71,34h2v1h-2V34z"/>
<path fill="#485088" d="M79,34h1v1h-1V34z"/>
<path fill="#383030" d="M85,34h1v1h-1V34z"/>
<path fill="#584138" d="M4,35h1v1H4V35z"/>
<path fill="#383030" d="M7,35h1v1H7V35z"/>
<path fill="#485088" d="M8,35h2v1H8V35z"/>
<path fill="#383030" d="M17,35h1v1h-1V35z"/>
<path fill="#383030" d="M24,35h1v1h-1V35z"/>
<path fill="#383030" d="M29,35h2v1h-2V35z"/>
<path fill="#485088" d="M31,35h2v1h-2V35z"/>
<path fill="#383030" d="M40,35h1v1h-1V35z"/>
<path fill="#584138" d="M50,35h1v1h-1V35z"/>
<path fill="#383030" d="M53,35h1v1h-1V35z"/>
<path fill="#485088" d="M54,35h2v1h-2V35z"/>
<path fill="#383030" d="M63,35h1v1h-1V35z"/>
<path fill="#383030" d="M70,35h1v1h-1V35z"/>
<path fill="#383030" d="M75,35h2v1h-2V35z"/>
<path fill="#485088" d="M77,35h2v1h-2V35z"/>
<path fill="#383030" d="M86,35h1v1h-1V35z"/>
<path fill="#886040" d="M4,36h1v1H4V36z"/>
<path fill="#383030" d="M5,36h2v1H5V36z"/>
<path fill="#383030" d="M18,36h1v2h-1V36z"/>
<path fill="#383030" d="M25,36h4v1h-1v2h-1v-2h-2V36z"/>
<path fill="#383030" d="M41,36h1v2h-1V36z"/>
<path fill="#886040" d="M50,36h1v1h-1V36z"/>
<path fill="#383030" d="M51,36h2v1h-2V36z"/>
<path fill="#383030" d="M64,36h1v2h-1V36z"/>
<path fill="#383030" d="M71,36h4v1h-1v2h-1v-2h-2V36z"/>
<path fill="#383030" d="M87,36h1v2h-1V36z"/>
<path fill="#383030" d="M4,37h1v2H4V37z"/>
<path fill="#C08850" d="M10,37h1v1h-1V37z"/>
<path fill="#C08850" d="M33,37h1v1h-1V37z"/>
<path fill="#383030" d="M50,37h1v2h-1V37z"/>
<path fill="#C08850" d="M56,37h1v1h-1V37z"/>
<path fill="#C08850" d="M79,37h1v1h-1V37z"/>
<path fill="#C08850" d="M12,38h1v1h-1V38z"/>
<path fill="#584138" d="M15,38h1v1h-1V38z"/>
<path fill="#383030" d="M19,38h1v2h-1V38z"/>
<path fill="#C08850" d="M35,38h1v1h-1V38z"/>
<path fill="#584138" d="M38,38h1v1h-1V38z"/>
<path fill="#383030" d="M42,38h1v2h-1V38z"/>
<path fill="#C08850" d="M58,38h1v1h-1V38z"/>
<path fill="#584138" d="M61,38h1v1h-1V38z"/>
<path fill="#383030" d="M65,38h1v2h-1V38z"/>
<path fill="#C08850" d="M81,38h1v1h-1V38z"/>
<path fill="#584138" d="M84,38h1v1h-1V38z"/>
<path fill="#383030" d="M88,38h1v2h-1V38z"/>
<path fill="#383030" d="M3,39h1v3H3V39z"/>
<path fill="#584138" d="M14,39h1v2h-1V39z"/>
<path fill="#383030" d="M26,39h1v3h-1V39z"/>
<path fill="#584138" d="M37,39h1v2h-1V39z"/>
<path fill="#383030" d="M49,39h1v3h-1V39z"/>
<path fill="#584138" d="M60,39h1v2h-1V39z"/>
<path fill="#383030" d="M72,39h1v3h-1V39z"/>
<path fill="#584138" d="M83,39h1v2h-1V39z"/>
<path fill="#584138" d="M5,40h1v1H5V40z"/>
<path fill="#383030" d="M18,40h1v1h-1V40z"/>
<path fill="#584138" d="M28,40h1v1h-1V40z"/>
<path fill="#383030" d="M41,40h1v1h-1V40z"/>
<path fill="#584138" d="M51,40h1v1h-1V40z"/>
<path fill="#383030" d="M64,40h1v1h-1V40z"/>
<path fill="#584138" d="M74,40h1v1h-1V40z"/>
<path fill="#383030" d="M87,40h1v1h-1V40z"/>
<path fill="#584138" d="M4,41h1v1H4V41z"/>
<path fill="#584138" d="M8,41h1v1H8V41z"/>
<path fill="#584138" d="M13,41h1v1h-1V41z"/>
<path fill="#383030" d="M16,41h2v1h-2V41z"/>
<path fill="#584138" d="M27,41h1v1h-1V41z"/>
<path fill="#584138" d="M31,41h1v1h-1V41z"/>
<path fill="#584138" d="M36,41h1v1h-1V41z"/>
<path fill="#383030" d="M39,41h2v1h-2V41z"/>
<path fill="#584138" d="M50,41h1v1h-1V41z"/>
<path fill="#584138" d="M54,41h1v1h-1V41z"/>
<path fill="#584138" d="M59,41h1v1h-1V41z"/>
<path fill="#383030" d="M62,41h2v1h-2V41z"/>
<path fill="#584138" d="M73,41h1v1h-1V41z"/>
<path fill="#584138" d="M77,41h1v1h-1V41z"/>
<path fill="#584138" d="M82,41h1v1h-1V41z"/>
<path fill="#383030" d="M85,41h2v1h-2V41z"/>
<path fill="#383030" d="M4,42h1v1H4V42z"/>
<path fill="#584138" d="M7,42h1v1H7V42z"/>
<path fill="#584138" d="M11,42h2v2h-1v-1h-1V42z"/>
<path fill="#886040" d="M13,42h1v1h-1V42z"/>
<path fill="#383030" d="M14,42h2v1h-2V42z"/>
<path fill="#D89870" d="M16,42h1v1h-1V42z"/>
<path fill="#784040" d="M17,42h1v3h-1V42z"/>
<path fill="#383030" d="M27,42h1v1h-1V42z"/>
<path fill="#584138" d="M30,42h1v1h-1V42z"/>
<path fill="#584138" d="M34,42h2v2h-1v-1h-1V42z"/>
<path fill="#886040" d="M36,42h1v1h-1V42z"/>
<path fill="#383030" d="M37,42h2v1h-2V42z"/>
<path fill="#D89870" d="M39,42h1v1h-1V42z"/>
<path fill="#784040" d="M40,42h1v3h-1V42z"/>
<path fill="#383030" d="M50,42h1v1h-1V42z"/>
<path fill="#584138" d="M53,42h1v1h-1V42z"/>
<path fill="#584138" d="M57,42h2v2h-1v-1h-1V42z"/>
<path fill="#886040" d="M59,42h1v1h-1V42z"/>
<path fill="#383030" d="M60,42h2v1h-2V42z"/>
<path fill="#D89870" d="M62,42h1v1h-1V42z"/>
<path fill="#784040" d="M63,42h1v3h-1V42z"/>
<path fill="#383030" d="M73,42h1v1h-1V42z"/>
<path fill="#584138" d="M76,42h1v1h-1V42z"/>
<path fill="#584138" d="M80,42h2v2h-1v-1h-1V42z"/>
<path fill="#886040" d="M82,42h1v1h-1V42z"/>
<path fill="#383030" d="M83,42h2v1h-2V42z"/>
<path fill="#D89870" d="M85,42h1v1h-1V42z"/>
<path fill="#784040" d="M86,42h1v3h-1V42z"/>
<path fill="#030303" d="M4,43h1v1H4V43z"/>
<path fill="#584138" d="M5,43h2v1h2v2H7v-1H6v-1H5V43z"/>
<path fill="#584138" d="M9,43h1v1H9V43z"/>
<path fill="#784040" d="M10,43h1v1h-1V43z"/>
<path fill="#D89870" d="M11,43h1v3h2v1h-1v1h-1v-1h-1v-1h-1v-2h1V43z"/>
<path fill="#383030" d="M13,43h1v1h-1V43z"/>
<path fill="#A8A8D8" d="M14,43h1v1h-1V43z"/>
<path fill="#485088" d="M15,43h1v1h-1V43z"/>
<path fill="#F8D0B8" d="M16,43h1v3h-1v1h-2v-1h-1v-1h3V43z"/>
<path fill="#030303" d="M27,43h1v1h-1V43z"/>
<path fill="#584138" d="M28,43h2v1h2v2h-2v-1h-1v-1h-1V43z"/>
<path fill="#584138" d="M32,43h1v1h-1V43z"/>
<path fill="#784040" d="M33,43h1v1h-1V43z"/>
<path fill="#D89870" d="M34,43h1v3h2v1h-1v1h-1v-1h-1v-1h-1v-2h1V43z"/>
<path fill="#383030" d="M36,43h1v1h-1V43z"/>
<path fill="#A8A8D8" d="M37,43h1v1h-1V43z"/>
<path fill="#485088" d="M38,43h1v1h-1V43z"/>
<path fill="#F8D0B8" d="M39,43h1v3h-1v1h-2v-1h-1v-1h3V43z"/>
<path fill="#030303" d="M50,43h1v1h-1V43z"/>
<path fill="#584138" d="M51,43h2v1h2v2h-2v-1h-1v-1h-1V43z"/>
<path fill="#584138" d="M55,43h1v1h-1V43z"/>
<path fill="#784040" d="M56,43h1v1h-1V43z"/>
<path fill="#D89870" d="M57,43h1v3h2v1h-1v1h-1v-1h-1v-1h-1v-2h1V43z"/>
<path fill="#383030" d="M59,43h1v1h-1V43z"/>
<path fill="#A8A8D8" d="M60,43h1v1h-1V43z"/>
<path fill="#485088" d="M61,43h1v1h-1V43z"/>
<path fill="#F8D0B8" d="M62,43h1v3h-1v1h-2v-1h-1v-1h3V43z"/>
<path fill="#030303" d="M73,43h1v1h-1V43z"/>
<path fill="#584138" d="M74,43h2v1h2v2h-2v-1h-1v-1h-1V43z"/>
<path fill="#584138" d="M78,43h1v1h-1V43z"/>
<path fill="#784040" d="M79,43h1v1h-1V43z"/>
<path fill="#D89870" d="M80,43h1v3h2v1h-1v1h-1v-1h-1v-1h-1v-2h1V43z"/>
<path fill="#383030" d="M82,43h1v1h-1V43z"/>
<path fill="#A8A8D8" d="M83,43h1v1h-1V43z"/>
<path fill="#485088" d="M84,43h1v1h-1V43z"/>
<path fill="#F8D0B8" d="M85,43h1v3h-1v1h-2v-1h-1v-1h3V43z"/>
<path fill="#030303" d="M5,44h1v1H5V44z"/>
<path fill="#784040" d="M9,44h1v2H9V44z"/>
<path fill="#383030" d="M12,44h1v2h-1V44z"/>
<path fill="#D89870" d="M13,44h1v1h-1V44z"/>
<path fill="#E8E8F8" d="M14,44h1v1h-1V44z"/>
<path fill="#030303" d="M15,44h1v1h-1V44z"/>
<path fill="#030303" d="M28,44h1v1h-1V44z"/>
<path fill="#784040" d="M32,44h1v2h-1V44z"/>
<path fill="#383030" d="M35,44h1v2h-1V44z"/>
<path fill="#D89870" d="M36,44h1v1h-1V44z"/>
<path fill="#E8E8F8" d="M37,44h1v1h-1V44z"/>
<path fill="#030303" d="M38,44h1v1h-1V44z"/>
<path fill="#030303" d="M51,44h1v1h-1V44z"/>
<path fill="#784040" d="M55,44h1v2h-1V44z"/>
<path fill="#383030" d="M58,44h1v2h-1V44z"/>
<path fill="#D89870" d="M59,44h1v1h-1V44z"/>
<path fill="#E8E8F8" d="M60,44h1v1h-1V44z"/>
<path fill="#030303" d="M61,44h1v1h-1V44z"/>
<path fill="#030303" d="M74,44h1v1h-1V44z"/>
<path fill="#784040" d="M78,44h1v2h-1V44z"/>
<path fill="#383030" d="M81,44h1v2h-1V44z"/>
<path fill="#D89870" d="M82,44h1v1h-1V44z"/>
<path fill="#E8E8F8" d="M83,44h1v1h-1V44z"/>
<path fill="#030303" d="M84,44h1v1h-1V44z"/>
<path fill="#030303" d="M6,45h1v1H6V45z"/>
<path fill="#D89870" d="M17,45h1v1h-1V45z"/>
<path fill="#030303" d="M29,45h1v1h-1V45z"/>
<path fill="#D89870" d="M40,45h1v1h-1V45z"/>
<path fill="#030303" d="M52,45h1v1h-1V45z"/>
<path fill="#D89870" d="M63,45h1v1h-1V45z"/>
<path fill="#030303" d="M75,45h1v1h-1V45z"/>
<path fill="#D89870" d="M86,45h1v1h-1V45z"/>
<path fill="#030303" d="M7,46h2v1H7V46z"/>
<path fill="#584138" d="M9,46h1v1H9V46z"/>
<path fill="#784040" d="M10,46h1v1h-1V46z"/>
<path fill="#784040" d="M16,46h1v1h-1V46z"/>
<path fill="#030303" d="M30,46h2v1h-2V46z"/>
<path fill="#584138" d="M32,46h1v1h-1V46z"/>
<path fill="#784040" d="M33,46h1v1h-1V46z"/>
<path fill="#784040" d="M39,46h1v1h-1V46z"/>
<path fill="#030303" d="M53,46h2v1h-2V46z"/>
<path fill="#584138" d="M55,46h1v1h-1V46z"/>
<path fill="#784040" d="M56,46h1v1h-1V46z"/>
<path fill="#784040" d="M62,46h1v1h-1V46z"/>
<path fill="#030303" d="M76,46h2v1h-2V46z"/>
<path fill="#584138" d="M78,46h1v1h-1V46z"/>
<path fill="#784040" d="M79,46h1v1h-1V46z"/>
<path fill="#784040" d="M85,46h1v1h-1V46z"/>
<path fill="#030303" d="M9,47h2v1h-1v1h1v3h-1v-2H9V47z"/>
<path fill="#784040" d="M11,47h1v1h-1V47z"/>
<path fill="#784040" d="M13,47h3v1h-3V47z"/>
<path fill="#030303" d="M32,47h2v1h-1v4h-1v-1h-1v-1h1V47z"/>
<path fill="#784040" d="M34,47h1v1h-1V47z"/>
<path fill="#784040" d="M36,47h3v1h-3V47z"/>
<path fill="#030303" d="M55,47h2v1h-1v1h1v3h-1v-2h-1V47z"/>
<path fill="#784040" d="M57,47h1v1h-1V47z"/>
<path fill="#784040" d="M59,47h3v1h-3V47z"/>
<path fill="#030303" d="M78,47h2v1h-1v1h-1V47z"/>
<path fill="#784040" d="M80,47h1v1h-1V47z"/>
<path fill="#784040" d="M82,47h3v1h-3V47z"/>
<path fill="#485088" d="M10,48h3v1h2v2h-1v-1h-2v-1h-2V48z"/>
<path fill="#A85030" d="M13,48h1v1h-1V48z"/>
<path fill="#030303" d="M14,48h1v1h-1V48z"/>
<path fill="#485088" d="M33,48h3v1h2v2h-2v-1h-1v-1h-2V48z"/>
<path fill="#A85030" d="M36,48h1v1h-1V48z"/>
<path fill="#030303" d="M37,48h1v1h-1V48z"/>
<path fill="#485088" d="M56,48h3v1h2v2h-1v-1h-2v-1h-2V48z"/>
<path fill="#A85030" d="M59,48h1v1h-1V48z"/>
<path fill="#030303" d="M60,48h1v1h-1V48z"/>
<path fill="#485088" d="M79,48h3v1h-2v2h-1v-1h-1v-1h1V48z"/>
<path fill="#A85030" d="M82,48h1v1h-1V48z"/>
<path fill="#030303" d="M83,48h1v1h-1V48z"/>
<path fill="#A8A8D8" d="M11,49h1v1h-1V49z"/>
<path fill="#383038" d="M15,49h1v1h-1V49z"/>
<path fill="#A8A8D8" d="M33,49h2v1h-2V49z"/>
<path fill="#383038" d="M38,49h1v1h-1V49z"/>
<path fill="#A8A8D8" d="M57,49h1v1h-1V49z"/>
<path fill="#383038" d="M61,49h1v1h-1V49z"/>
<path fill="#030303" d="M77,49h1v1h-1V49z"/>
<path fill="#030303" d="M80,49h1v3h-1V49z"/>
<path fill="#A8A8D8" d="M81,49h1v1h-1V49z"/>
<path fill="#485088" d="M82,49h2v1h-2V49z"/>
<path fill="#383038" d="M84,49h1v1h-1V49z"/>
<path fill="#030303" d="M8,50h1v2H8V50z"/>
<path fill="#A85030" d="M9,50h1v2H9V50z"/>
<path fill="#F8D0B8" d="M11,50h2v1h-2V50z"/>
<path fill="#784040" d="M13,50h1v2h-1V50z"/>
<path fill="#030303" d="M15,50h1v2h-1V50z"/>
<path fill="#F8D0B8" d="M33,50h2v1h-2V50z"/>
<path fill="#784040" d="M35,50h1v2h-1V50z"/>
<path fill="#030303" d="M38,50h1v2h-1V50z"/>
<path fill="#030303" d="M54,50h1v2h-1V50z"/>
<path fill="#A85030" d="M55,50h1v2h-1V50z"/>
<path fill="#F8D0B8" d="M57,50h2v1h-2V50z"/>
<path fill="#784040" d="M59,50h1v2h-1V50z"/>
<path fill="#030303" d="M61,50h1v2h-1V50z"/>
<path fill="#784040" d="M76,50h1v1h-1V50z"/>
<path fill="#A85030" d="M77,50h1v1h1v1h2v1h-3v-1h-1V50z"/>
<path fill="#383038" d="M78,50h1v1h-1V50z"/>
<path fill="#F8D0B8" d="M81,50h2v1h-2V50z"/>
<path fill="#784040" d="M83,50h1v2h-1V50z"/>
<path fill="#030303" d="M84,50h1v2h-1V50z"/>
<path fill="#D89870" d="M11,51h2v1h-2V51z"/>
<path fill="#F86030" d="M14,51h1v1h-1V51z"/>
<path fill="#030303" d="M30,51h1v1h-1V51z"/>
<path fill="#A85030" d="M31,51h1v1h-1V51z"/>
<path fill="#D89870" d="M33,51h2v1h-2V51z"/>
<path fill="#F86030" d="M36,51h2v2h-3v-1h1V51z"/>
<path fill="#D89870" d="M57,51h2v1h-2V51z"/>
<path fill="#F86030" d="M60,51h1v1h-1V51z"/>
<path fill="#030303" d="M76,51h1v1h1v1h-2V51z"/>
<path fill="#383038" d="M79,51h1v1h-1V51z"/>
<path fill="#D89870" d="M81,51h2v1h-2V51z"/>
<path fill="#030303" d="M9,52h1v1H9V52z"/>
<path fill="#A85030" d="M10,52h1v1h-1V52z"/>
<path fill="#030303" d="M11,52h2v1h-2V52z"/>
<path fill="#F86030" d="M13,52h1v1h-1V52z"/>
<path fill="#030303" d="M14,52h1v1h-1V52z"/>
<path fill="#030303" d="M29,52h1v3h-1V52z"/>
<path fill="#D89870" d="M30,52h1v1h-1V52z"/>
<path fill="#784040" d="M31,52h1v1h-1V52z"/>
<path fill="#A85030" d="M32,52h1v1h-1V52z"/>
<path fill="#030303" d="M33,52h2v1h-2V52z"/>
<path fill="#A85030" d="M38,52h1v1h-1V52z"/>
<path fill="#030303" d="M55,52h1v1h-1V52z"/>
<path fill="#A85030" d="M56,52h1v1h-1V52z"/>
<path fill="#030303" d="M57,52h2v1h-2V52z"/>
<path fill="#F86030" d="M59,52h1v1h-1V52z"/>
<path fill="#030303" d="M60,52h1v1h-1V52z"/>
<path fill="#784040" d="M81,52h2v1h-2V52z"/>
<path fill="#D89870" d="M83,52h2v1h-2V52z"/>
<path fill="#383038" d="M85,52h1v2h-2v-1h1V52z"/>
<path fill="#030303" d="M86,52h1v2h-1V52z"/>
<path fill="#030303" d="M10,53h1v1h-1V53z"/>
<path fill="#686840" d="M11,53h3v1h-3V53z"/>
<path fill="#484838" d="M14,53h1v1h-1V53z"/>
<path fill="#484838" d="M30,53h1v1h1v1h-2V53z"/>
<path fill="#D89870" d="M31,53h2v1h-2V53z"/>
<path fill="#A85030" d="M33,53h3v1h-3V53z"/>
<path fill="#030303" d="M36,53h1v1h-1V53z"/>
<path fill="#F8D0B8" d="M37,53h1v1h-1V53z"/>
<path fill="#686840" d="M38,53h1v2h-3v-1h2V53z"/>
<path fill="#484838" d="M39,53h1v1h-1V53z"/>
<path fill="#030303" d="M56,53h1v1h-1V53z"/>
<path fill="#686840" d="M57,53h3v1h-3V53z"/>
<path fill="#484838" d="M60,53h1v1h-1V53z"/>
<path fill="#030303" d="M75,53h1v2h-1V53z"/>
<path fill="#484838" d="M76,53h1v1h1v1h-2V53z"/>
<path fill="#F8D0B8" d="M77,53h2v1h-2V53z"/>
<path fill="#030303" d="M79,53h5v1h-5V53z"/>
<path fill="#030303" d="M11,54h3v1h-3V54z"/>
<path fill="#030303" d="M32,54h1v1h-1V54z"/>
<path fill="#030303" d="M34,54h2v1h-2V54z"/>
<path fill="#030303" d="M39,54h1v1h-1V54z"/>
<path fill="#030303" d="M57,54h3v1h-3V54z"/>
<path fill="#030303" d="M78,54h1v1h-1V54z"/>
<path fill="#030303" d="M84,54h2v1h-2V54z"/>
<path fill="#030303" d="M30,55h2v1h-2V55z"/>
<path fill="#030303" d="M36,55h3v1h-3V55z"/>
<path fill="#030303" d="M76,55h2v1h-2V55z"/>
<path fill="#383030" d="M10,58h3v1h-3V58z"/>
<path fill="#383030" d="M33,58h3v1h-3V58z"/>
<path fill="#383030" d="M56,58h3v1h-3V58z"/>
<path fill="#383030" d="M79,58h3v1h-3V58z"/>
<path fill="#383030" d="M9,59h1v1H9V59z"/>
<path fill="#886040" d="M10,59h3v1h1v5h-1v-2h-1v2h1v2h-1v1h-1v-1h-1v-3H9v-4h1V59z"/>
<path fill="#383030" d="M13,59h1v1h-1V59z"/>
<path fill="#383030" d="M31,59h2v1h-2V59z"/>
<path fill="#886040" d="M33,59h3v1h1v2h-1v1h-1v-1h-1v-1h-1v1h1v1h-1v2h-1v2h-2v-1h-1v-2h1v-3h1v-1h2V59z"/>
<path fill="#383030" d="M36,59h1v1h-1V59z"/>
<path fill="#383030" d="M55,59h1v1h-1V59z"/>
<path fill="#886040" d="M56,59h3v1h1v5h-1v-2h-1v2h1v2h-1v1h-1v-1h-1v-3h-1v-4h1V59z"/>
<path fill="#383030" d="M59,59h1v1h-1V59z"/>
<path fill="#383030" d="M78,59h1v1h-1V59z"/>
<path fill="#886040" d="M79,59h3v1h2v1h-1v1h1v-1h1v3h1v2h-1v-1h-1v1h1v1h-2v-2h-1v-2h-1v-1h-1v1h-1v-1h-1v-2h1V59z"/>
<path fill="#383030" d="M82,59h2v1h-2V59z"/>
<path fill="#383030" d="M8,60h1v5H8v-2H7v-1h1V60z"/>
<path fill="#383030" d="M14,60h1v2h1v1h-1v2h-1V60z"/>
<path fill="#383030" d="M30,60h1v1h-1V60z"/>
<path fill="#383030" d="M37,60h1v2h1v1h-3v-1h1V60z"/>
<path fill="#383030" d="M54,60h1v5h-1v-2h-1v-1h1V60z"/>
<path fill="#383030" d="M60,60h1v2h1v1h-1v2h-1V60z"/>
<path fill="#383030" d="M77,60h1v2h1v1h-3v-1h1V60z"/>
<path fill="#383030" d="M84,60h1v1h-1V60z"/>
<path fill="#C08850" d="M10,61h1v1h-1V61z"/>
<path fill="#C08850" d="M12,61h1v1h-1V61z"/>
<path fill="#383030" d="M29,61h1v3h-1V61z"/>
<path fill="#C08850" d="M31,61h1v1h-1V61z"/>
<path fill="#C08850" d="M33,61h1v1h-1V61z"/>
<path fill="#C08850" d="M56,61h1v1h-1V61z"/>
<path fill="#C08850" d="M58,61h1v1h-1V61z"/>
<path fill="#C08850" d="M81,61h1v1h-1V61z"/>
<path fill="#C08850" d="M83,61h1v1h-1V61z"/>
<path fill="#383030" d="M85,61h1v3h-1V61z"/>
<path fill="#584138" d="M34,62h1v1h-1V62z"/>
<path fill="#584138" d="M80,62h1v1h-1V62z"/>
<path fill="#383030" d="M6,63h1v1H6V63z"/>
<path fill="#886040" d="M7,63h1v1H7V63z"/>
<path fill="#584138" d="M12,63h1v2h-1V63z"/>
<path fill="#886040" d="M15,63h1v1h-1V63z"/>
<path fill="#383030" d="M16,63h1v1h-1V63z"/>
<path fill="#584138" d="M33,63h1v2h-1V63z"/>
<path fill="#886040" d="M34,63h1v2h-1V63z"/>
<path fill="#383030" d="M35,63h1v2h-1V63z"/>
<path fill="#886040" d="M36,63h3v1h-1v1h1v1h-1v1h1v-1h2v3h-1v2h-2v1h-7v-1h-2v-1h-1v-3h1v1h3v-1h1v-1h2v-1h1V63z"/>
<path fill="#383030" d="M39,63h1v1h-1V63z"/>
<path fill="#383030" d="M52,63h1v1h-1V63z"/>
<path fill="#886040" d="M53,63h1v1h-1V63z"/>
<path fill="#584138" d="M58,63h1v2h-1V63z"/>
<path fill="#886040" d="M61,63h1v1h-1V63z"/>
<path fill="#383030" d="M62,63h1v1h-1V63z"/>
<path fill="#383030" d="M75,63h1v1h-1V63z"/>
<path fill="#886040" d="M76,63h3v2h1v1h2v1h1v1h3v-1h1v3h-1v1h-2v1h-7v-1h-2v-2h-1v-3h2v-1h1v-1h-1V63z"/>
<path fill="#383030" d="M79,63h1v2h-1V63z"/>
<path fill="#886040" d="M80,63h1v2h-1V63z"/>
<path fill="#584138" d="M81,63h1v2h-1V63z"/>
<path fill="#383030" d="M5,64h1v1H5V64z"/>
<path fill="#584138" d="M6,64h2v1H6V64z"/>
<path fill="#584138" d="M9,64h1v1H9V64z"/>
<path fill="#584138" d="M15,64h1v1h-1V64z"/>
<path fill="#886040" d="M16,64h1v1h-1V64z"/>
<path fill="#383030" d="M17,64h1v1h-1V64z"/>
<path fill="#383030" d="M28,64h1v3h-2v-2h1V64z"/>
<path fill="#584138" d="M38,64h1v1h-1V64z"/>
<path fill="#886040" d="M39,64h1v1h-1V64z"/>
<path fill="#383030" d="M40,64h1v1h-1V64z"/>
<path fill="#383030" d="M51,64h1v1h-1V64z"/>
<path fill="#584138" d="M52,64h2v1h-2V64z"/>
<path fill="#584138" d="M55,64h1v1h-1V64z"/>
<path fill="#584138" d="M61,64h1v1h-1V64z"/>
<path fill="#886040" d="M62,64h1v1h-1V64z"/>
<path fill="#383030" d="M63,64h1v1h-1V64z"/>
<path fill="#383030" d="M74,64h1v1h-1V64z"/>
<path fill="#886040" d="M75,64h1v1h-1V64z"/>
<path fill="#584138" d="M76,64h1v1h-1V64z"/>
<path fill="#383030" d="M86,64h1v1h1v2h-2V64z"/>
<path fill="#383030" d="M4,65h1v2H4V65z"/>
<path fill="#584138" d="M5,65h1v1H5V65z"/>
<path fill="#886040" d="M6,65h2v1H7v1h1v-1h1v2h1v1h3v-1h1v-2h1v1h1v-1h2v3h-1v2h-2v1H8v-1H6v-1H5v-4h1V65z"/>
<path fill="#584138" d="M8,65h1v1H8V65z"/>
<path fill="#383030" d="M9,65h1v3H9V65z"/>
<path fill="#383030" d="M13,65h1v3h-1V65z"/>
<path fill="#584138" d="M14,65h1v1h-1V65z"/>
<path fill="#886040" d="M15,65h1v1h-1V65z"/>
<path fill="#584138" d="M16,65h2v1h-2V65z"/>
<path fill="#383030" d="M18,65h1v2h-1V65z"/>
<path fill="#584138" d="M30,65h1v1h-1V65z"/>
<path fill="#584138" d="M32,65h1v1h-1V65z"/>
<path fill="#383030" d="M33,65h2v1h-2V65z"/>
<path fill="#584138" d="M39,65h2v1h-2V65z"/>
<path fill="#383030" d="M41,65h1v2h-1V65z"/>
<path fill="#383030" d="M50,65h1v2h-1V65z"/>
<path fill="#584138" d="M51,65h1v1h-1V65z"/>
<path fill="#886040" d="M52,65h2v1h-1v1h1v-1h1v2h1v1h3v-1h1v-2h1v1h1v-1h2v3h-1v2h-2v1h-7v-1h-2v-1h-1v-4h1V65z"/>
<path fill="#584138" d="M54,65h1v1h-1V65z"/>
<path fill="#383030" d="M55,65h1v3h-1V65z"/>
<path fill="#383030" d="M59,65h1v3h-1V65z"/>
<path fill="#584138" d="M60,65h1v1h-1V65z"/>
<path fill="#886040" d="M61,65h1v1h-1V65z"/>
<path fill="#584138" d="M62,65h2v1h-2V65z"/>
<path fill="#383030" d="M64,65h1v2h-1V65z"/>
<path fill="#383030" d="M73,65h1v2h-1V65z"/>
<path fill="#584138" d="M74,65h2v1h-2V65z"/>
<path fill="#383030" d="M80,65h2v1h-2V65z"/>
<path fill="#584138" d="M82,65h1v1h-1V65z"/>
<path fill="#584138" d="M84,65h1v1h-1V65z"/>
<path fill="#584138" d="M7,66h1v1H7V66z"/>
<path fill="#584138" d="M15,66h1v1h-1V66z"/>
<path fill="#584138" d="M29,66h1v1h-1V66z"/>
<path fill="#383030" d="M32,66h1v1h-1V66z"/>
<path fill="#584138" d="M38,66h1v1h-1V66z"/>
<path fill="#584138" d="M53,66h1v1h-1V66z"/>
<path fill="#584138" d="M61,66h1v1h-1V66z"/>
<path fill="#584138" d="M76,66h1v1h-1V66z"/>
<path fill="#383030" d="M82,66h1v1h-1V66z"/>
<path fill="#584138" d="M85,66h1v1h-1V66z"/>
<path fill="#383030" d="M3,67h1v2H3V67z"/>
<path fill="#584138" d="M4,67h1v2H4V67z"/>
<path fill="#584138" d="M10,67h1v1h-1V67z"/>
<path fill="#584138" d="M12,67h1v1h-1V67z"/>
<path fill="#584138" d="M18,67h1v2h-1V67z"/>
<path fill="#383030" d="M19,67h1v2h-1V67z"/>
<path fill="#383030" d="M26,67h1v2h-1V67z"/>
<path fill="#584138" d="M27,67h1v2h-1V67z"/>
<path fill="#383030" d="M29,67h3v1h-3V67z"/>
<path fill="#584138" d="M41,67h1v2h-1V67z"/>
<path fill="#383030" d="M42,67h1v2h-1V67z"/>
<path fill="#383030" d="M49,67h1v2h-1V67z"/>
<path fill="#584138" d="M50,67h1v2h-1V67z"/>
<path fill="#584138" d="M56,67h1v1h-1V67z"/>
<path fill="#584138" d="M58,67h1v1h-1V67z"/>
<path fill="#584138" d="M64,67h1v2h-1V67z"/>
<path fill="#383030" d="M65,67h1v2h-1V67z"/>
<path fill="#383030" d="M72,67h1v2h-1V67z"/>
<path fill="#584138" d="M73,67h1v2h-1V67z"/>
<path fill="#383030" d="M83,67h3v1h-3V67z"/>
<path fill="#584138" d="M87,67h1v2h-1V67z"/>
<path fill="#383030" d="M88,67h1v2h-1V67z"/>
<path fill="#383030" d="M10,68h3v1h-3V68z"/>
<path fill="#383030" d="M56,68h3v1h-3V68z"/>
<path fill="#383030" d="M2,69h1v2H2V69z"/>
<path fill="#584138" d="M3,69h1v1H3V69z"/>
<path fill="#784040" d="M4,69h1v1H4V69z"/>
<path fill="#584138" d="M17,69h1v5h-1v1h-2v1h-2v1h-3v-1H8v-1H6v-1H5v-4h1v1h2v1h7v-1h2V69z"/>
<path fill="#784040" d="M18,69h1v1h-1V69z"/>
<path fill="#584138" d="M19,69h1v1h-1V69z"/>
<path fill="#383030" d="M20,69h1v2h-1V69z"/>
<path fill="#383030" d="M25,69h1v2h-1V69z"/>
<path fill="#584138" d="M26,69h1v1h-1V69z"/>
<path fill="#784040" d="M27,69h1v1h-1V69z"/>
<path fill="#584138" d="M40,69h1v5h-1v1h-2v1h-2v1h-3v-1h-2v-1h-2v-1h-1v-4h1v1h2v1h7v-1h2V69z"/>
<path fill="#784040" d="M41,69h1v1h-1V69z"/>
<path fill="#584138" d="M42,69h1v1h-1V69z"/>
<path fill="#383030" d="M43,69h1v2h-1V69z"/>
<path fill="#383030" d="M48,69h1v2h-1V69z"/>
<path fill="#584138" d="M49,69h1v1h-1V69z"/>
<path fill="#784040" d="M50,69h1v1h-1V69z"/>
<path fill="#584138" d="M63,69h1v5h-1v1h-2v1h-2v1h-3v-1h-2v-1h-2v-1h-1v-4h1v1h2v1h7v-1h2V69z"/>
<path fill="#784040" d="M64,69h1v1h-1V69z"/>
<path fill="#584138" d="M65,69h1v1h-1V69z"/>
<path fill="#383030" d="M66,69h1v2h-1V69z"/>
<path fill="#383030" d="M71,69h1v2h-1V69z"/>
<path fill="#584138" d="M72,69h1v1h-1V69z"/>
<path fill="#784040" d="M73,69h1v1h-1V69z"/>
<path fill="#584138" d="M74,69h1v2h2v1h7v-1h2v-1h1v4h-1v1h-2v1h-2v1h-3v-1h-2v-1h-2v-1h-1V69z"/>
<path fill="#784040" d="M87,69h1v1h-1V69z"/>
<path fill="#584138" d="M88,69h1v1h-1V69z"/>
<path fill="#383030" d="M89,69h1v2h-1V69z"/>
<path fill="#784040" d="M3,70h1v2H3V70z"/>
<path fill="#D89870" d="M4,70h1v2H4V70z"/>
<path fill="#D89870" d="M18,70h1v2h-1V70z"/>
<path fill="#784040" d="M19,70h1v2h-1V70z"/>
<path fill="#784040" d="M26,70h1v2h-1V70z"/>
<path fill="#D89870" d="M27,70h1v2h-1V70z"/>
<path fill="#D89870" d="M41,70h1v2h-1V70z"/>
<path fill="#784040" d="M42,70h1v2h-1V70z"/>
<path fill="#784040" d="M49,70h1v2h-1V70z"/>
<path fill="#D89870" d="M50,70h1v2h-1V70z"/>
<path fill="#D89870" d="M64,70h1v2h-1V70z"/>
<path fill="#784040" d="M65,70h1v2h-1V70z"/>
<path fill="#784040" d="M72,70h1v2h-1V70z"/>
<path fill="#D89870" d="M73,70h1v2h-1V70z"/>
<path fill="#D89870" d="M87,70h1v2h-1V70z"/>
<path fill="#784040" d="M88,70h1v2h-1V70z"/>
<path fill="#030303" d="M4,72h1v2H4V72z"/>
<path fill="#030303" d="M18,72h1v2h-1V72z"/>
<path fill="#030303" d="M27,72h1v2h-1V72z"/>
<path fill="#030303" d="M41,72h1v2h-1V72z"/>
<path fill="#030303" d="M50,72h1v2h-1V72z"/>
<path fill="#030303" d="M64,72h1v2h-1V72z"/>
<path fill="#030303" d="M73,72h1v2h-1V72z"/>
<path fill="#030303" d="M87,72h1v2h-1V72z"/>
<path fill="#030303" d="M5,74h1v1H5V74z"/>
<path fill="#030303" d="M17,74h1v1h-1V74z"/>
<path fill="#030303" d="M28,74h1v1h-1V74z"/>
<path fill="#030303" d="M40,74h1v1h-1V74z"/>
<path fill="#030303" d="M51,74h1v1h-1V74z"/>
<path fill="#030303" d="M63,74h1v1h-1V74z"/>
<path fill="#030303" d="M74,74h1v1h-1V74z"/>
<path fill="#030303" d="M86,74h1v1h-1V74z"/>
<path fill="#030303" d="M6,75h1v1H6V75z"/>
<path fill="#784040" d="M7,75h1v1H7V75z"/>
<path fill="#784040" d="M15,75h1v1h-1V75z"/>
<path fill="#030303" d="M16,75h1v1h-1V75z"/>
<path fill="#030303" d="M29,75h1v1h-1V75z"/>
<path fill="#784040" d="M30,75h1v1h-1V75z"/>
<path fill="#784040" d="M38,75h1v1h-1V75z"/>
<path fill="#030303" d="M39,75h1v1h-1V75z"/>
<path fill="#030303" d="M52,75h1v1h-1V75z"/>
<path fill="#784040" d="M53,75h1v1h-1V75z"/>
<path fill="#784040" d="M61,75h1v1h-1V75z"/>
<path fill="#030303" d="M62,75h1v1h-1V75z"/>
<path fill="#030303" d="M75,75h1v1h-1V75z"/>
<path fill="#784040" d="M76,75h1v1h-1V75z"/>
<path fill="#784040" d="M84,75h1v1h-1V75z"/>
<path fill="#030303" d="M85,75h1v1h-1V75z"/>
<path fill="#030303" d="M5,76h1v1H5V76z"/>
<path fill="#485088" d="M6,76h2v1h1v1H7v-1H6V76z"/>
<path fill="#030303" d="M8,76h1v1H8V76z"/>
<path fill="#784040" d="M9,76h1v1H9V76z"/>
<path fill="#784040" d="M13,76h1v1h-1V76z"/>
<path fill="#030303" d="M14,76h1v1h-1V76z"/>
<path fill="#485088" d="M15,76h2v1h-1v1h-2v-1h1V76z"/>
<path fill="#030303" d="M17,76h1v1h-1V76z"/>
<path fill="#784040" d="M27,76h2v1h-2V76z"/>
<path fill="#485088" d="M29,76h2v1h1v1h-2v-1h-1V76z"/>
<path fill="#030303" d="M31,76h1v1h-1V76z"/>
<path fill="#784040" d="M32,76h1v1h-1V76z"/>
<path fill="#784040" d="M36,76h1v1h-1V76z"/>
<path fill="#030303" d="M37,76h2v1h-2V76z"/>
<path fill="#030303" d="M51,76h1v1h-1V76z"/>
<path fill="#485088" d="M52,76h2v1h1v1h-2v-1h-1V76z"/>
<path fill="#030303" d="M54,76h1v1h-1V76z"/>
<path fill="#784040" d="M55,76h1v1h-1V76z"/>
<path fill="#784040" d="M59,76h1v1h-1V76z"/>
<path fill="#030303" d="M60,76h1v1h-1V76z"/>
<path fill="#485088" d="M61,76h2v1h-1v1h-2v-1h1V76z"/>
<path fill="#030303" d="M63,76h1v1h-1V76z"/>
<path fill="#030303" d="M76,76h2v1h-2V76z"/>
<path fill="#784040" d="M78,76h1v1h-1V76z"/>
<path fill="#784040" d="M82,76h1v1h-1V76z"/>
<path fill="#030303" d="M83,76h1v1h-1V76z"/>
<path fill="#485088" d="M84,76h2v1h-1v1h-2v-1h1V76z"/>
<path fill="#784040" d="M86,76h2v1h-2V76z"/>
<path fill="#030303" d="M4,77h1v1H4V77z"/>
<path fill="#D89870" d="M5,77h1v1h1v1H5V77z"/>
<path fill="#5878B0" d="M6,77h1v1H6V77z"/>
<path fill="#5878B0" d="M9,77h5v1h-1v1h-3v-1H9V77z"/>
<path fill="#5878B0" d="M16,77h1v1h-1V77z"/>
<path fill="#D89870" d="M17,77h1v2h-2v-1h1V77z"/>
<path fill="#030303" d="M18,77h1v1h-1V77z"/>
<path fill="#784040" d="M26,77h1v2h-1V77z"/>
<path fill="#F8D0B8" d="M27,77h1v1h1v1h-2V77z"/>
<path fill="#D89870" d="M28,77h1v1h-1V77z"/>
<path fill="#5878B0" d="M29,77h1v1h-1V77z"/>
<path fill="#5878B0" d="M32,77h1v1h-1V77z"/>
<path fill="#485088" d="M33,77h3v1h-3V77z"/>
<path fill="#5878B0" d="M36,77h1v1h-1V77z"/>
<path fill="#485088" d="M37,77h1v1h-1V77z"/>
<path fill="#5878B0" d="M38,77h2v1h-2V77z"/>
<path fill="#030303" d="M50,77h1v1h-1V77z"/>
<path fill="#D89870" d="M51,77h1v1h1v1h-2V77z"/>
<path fill="#5878B0" d="M52,77h1v1h-1V77z"/>
<path fill="#5878B0" d="M55,77h5v1h-1v1h-3v-1h-1V77z"/>
<path fill="#5878B0" d="M62,77h1v1h-1V77z"/>
<path fill="#D89870" d="M63,77h1v2h-2v-1h1V77z"/>
<path fill="#030303" d="M64,77h1v1h-1V77z"/>
<path fill="#5878B0" d="M75,77h2v1h-2V77z"/>
<path fill="#485088" d="M77,77h1v1h-1V77z"/>
<path fill="#5878B0" d="M78,77h1v1h-1V77z"/>
<path fill="#485088" d="M79,77h3v1h-3V77z"/>
<path fill="#5878B0" d="M82,77h1v1h-1V77z"/>
<path fill="#5878B0" d="M85,77h1v1h-1V77z"/>
<path fill="#D89870" d="M86,77h1v1h-1V77z"/>
<path fill="#F8D0B8" d="M87,77h1v2h-2v-1h1V77z"/>
<path fill="#784040" d="M88,77h1v2h-1V77z"/>
<path fill="#784040" d="M3,78h1v2H3V78z"/>
<path fill="#F8D0B8" d="M4,78h1v1h1v1H4V78z"/>
<path fill="#030303" d="M7,78h1v2H7V78z"/>
<path fill="#383038" d="M8,78h1v1H8V78z"/>
<path fill="#485088" d="M9,78h1v1H9V78z"/>
<path fill="#485088" d="M13,78h1v1h-1V78z"/>
<path fill="#383038" d="M14,78h1v1h-1V78z"/>
<path fill="#030303" d="M15,78h1v2h-1V78z"/>
<path fill="#F8D0B8" d="M18,78h1v2h-2v-1h1V78z"/>
<path fill="#784040" d="M19,78h1v2h-1V78z"/>
<path fill="#D89870" d="M29,78h1v1h-1V78z"/>
<path fill="#030303" d="M30,78h1v2h-1V78z"/>
<path fill="#383038" d="M31,78h1v1h-1V78z"/>
<path fill="#485088" d="M32,78h1v1h-1V78z"/>
<path fill="#5878B0" d="M33,78h3v1h-3V78z"/>
<path fill="#485088" d="M36,78h1v1h-1V78z"/>
<path fill="#383038" d="M37,78h1v1h-1V78z"/>
<path fill="#030303" d="M38,78h1v1h-1V78z"/>
<path fill="#D89870" d="M39,78h1v1h-1V78z"/>
<path fill="#030303" d="M40,78h1v1h-1V78z"/>
<path fill="#784040" d="M49,78h1v2h-1V78z"/>
<path fill="#F8D0B8" d="M50,78h1v1h1v1h-2V78z"/>
<path fill="#030303" d="M53,78h1v2h-1V78z"/>
<path fill="#383038" d="M54,78h1v1h-1V78z"/>
<path fill="#485088" d="M55,78h1v1h-1V78z"/>
<path fill="#485088" d="M59,78h1v1h-1V78z"/>
<path fill="#383038" d="M60,78h1v1h-1V78z"/>
<path fill="#030303" d="M61,78h1v2h-1V78z"/>
<path fill="#F8D0B8" d="M64,78h1v2h-2v-1h1V78z"/>
<path fill="#784040" d="M65,78h1v2h-1V78z"/>
<path fill="#030303" d="M74,78h1v1h-1V78z"/>
<path fill="#D89870" d="M75,78h1v1h-1V78z"/>
<path fill="#030303" d="M76,78h1v1h-1V78z"/>
<path fill="#383038" d="M77,78h1v1h-1V78z"/>
<path fill="#485088" d="M78,78h1v1h-1V78z"/>
<path fill="#5878B0" d="M79,78h3v1h-3V78z"/>
<path fill="#485088" d="M82,78h1v1h-1V78z"/>
<path fill="#383038" d="M83,78h1v1h-1V78z"/>
<path fill="#030303" d="M84,78h1v2h-1V78z"/>
<path fill="#D89870" d="M85,78h1v1h-1V78z"/>
<path fill="#784040" d="M6,79h1v1H6V79z"/>
<path fill="#F86030" d="M8,79h1v1h5v-1h1v2h-2v1h-3v-1H8V79z"/>
<path fill="#383038" d="M9,79h5v1H9V79z"/>
<path fill="#784040" d="M16,79h1v1h-1V79z"/>
<path fill="#784040" d="M27,79h3v1h-3V79z"/>
<path fill="#F86030" d="M31,79h1v1h5v-1h1v2h-1v1h-5v-1h-1V79z"/>
<path fill="#383038" d="M32,79h5v1h-5V79z"/>
<path fill="#784040" d="M38,79h1v1h-1V79z"/>
<path fill="#F8D0B8" d="M39,79h2v1h-2V79z"/>
<path fill="#030303" d="M41,79h1v2h-1V79z"/>
<path fill="#784040" d="M52,79h1v1h-1V79z"/>
<path fill="#F86030" d="M54,79h1v1h5v-1h1v2h-2v1h-3v-1h-2V79z"/>
<path fill="#383038" d="M55,79h5v1h-5V79z"/>
<path fill="#784040" d="M62,79h1v1h-1V79z"/>
<path fill="#030303" d="M73,79h1v2h-1V79z"/>
<path fill="#F8D0B8" d="M74,79h2v1h-2V79z"/>
<path fill="#784040" d="M76,79h1v1h-1V79z"/>
<path fill="#F86030" d="M77,79h1v1h5v-1h1v2h-1v1h-5v-1h-1V79z"/>
<path fill="#383038" d="M78,79h5v1h-5V79z"/>
<path fill="#784040" d="M85,79h3v1h-3V79z"/>
<path fill="#784040" d="M4,80h2v1H4V80z"/>
<path fill="#030303" d="M6,80h1v2H6V80z"/>
<path fill="#A85030" d="M7,80h1v1H7V80z"/>
<path fill="#A85030" d="M15,80h1v1h-1V80z"/>
<path fill="#030303" d="M16,80h1v2h-1V80z"/>
<path fill="#784040" d="M17,80h2v1h-2V80z"/>
<path fill="#030303" d="M29,80h1v3h-1V80z"/>
<path fill="#A85030" d="M30,80h1v1h-1V80z"/>
<path fill="#030303" d="M38,80h1v1h2v1h-3V80z"/>
<path fill="#D89870" d="M39,80h2v1h-2V80z"/>
<path fill="#784040" d="M50,80h2v1h-2V80z"/>
<path fill="#030303" d="M52,80h1v2h-1V80z"/>
<path fill="#A85030" d="M53,80h1v1h-1V80z"/>
<path fill="#A85030" d="M61,80h1v1h-1V80z"/>
<path fill="#030303" d="M62,80h1v2h-1V80z"/>
<path fill="#784040" d="M63,80h2v1h-2V80z"/>
<path fill="#D89870" d="M74,80h2v1h-2V80z"/>
<path fill="#030303" d="M76,80h1v2h-3v-1h2V80z"/>
<path fill="#A85030" d="M84,80h1v1h-1V80z"/>
<path fill="#030303" d="M85,80h1v3h-1V80z"/>
<path fill="#F8D0B8" d="M7,81h1v1H7V81z"/>
<path fill="#D89870" d="M8,81h1v1H8V81z"/>
<path fill="#A85030" d="M9,81h1v1H9V81z"/>
<path fill="#A85030" d="M13,81h1v1h-1V81z"/>
<path fill="#D89870" d="M14,81h1v1h-1V81z"/>
<path fill="#F8D0B8" d="M15,81h1v1h-1V81z"/>
<path fill="#D89870" d="M30,81h1v1h-1V81z"/>
<path fill="#A85030" d="M31,81h1v1h-1V81z"/>
<path fill="#A85030" d="M37,81h1v1h-1V81z"/>
<path fill="#F8D0B8" d="M53,81h1v1h-1V81z"/>
<path fill="#D89870" d="M54,81h1v1h-1V81z"/>
<path fill="#A85030" d="M55,81h1v1h-1V81z"/>
<path fill="#A85030" d="M59,81h1v1h-1V81z"/>
<path fill="#D89870" d="M60,81h1v1h-1V81z"/>
<path fill="#F8D0B8" d="M61,81h1v1h-1V81z"/>
<path fill="#A85030" d="M77,81h1v1h-1V81z"/>
<path fill="#A85030" d="M83,81h1v1h-1V81z"/>
<path fill="#D89870" d="M84,81h1v1h-1V81z"/>
<path fill="#030303" d="M7,82h1v1H7V82z"/>
<path fill="#686840" d="M8,82h2v1H8V82z"/>
<path fill="#030303" d="M10,82h3v1h-3V82z"/>
<path fill="#686840" d="M13,82h2v1h-2V82z"/>
<path fill="#030303" d="M15,82h1v1h-1V82z"/>
<path fill="#484838" d="M30,82h1v1h-1V82z"/>
<path fill="#F8D0B8" d="M31,82h1v1h-1V82z"/>
<path fill="#030303" d="M32,82h5v1h-3v2h-1v-2h-1V82z"/>
<path fill="#030303" d="M53,82h1v1h-1V82z"/>
<path fill="#686840" d="M54,82h2v1h-2V82z"/>
<path fill="#030303" d="M56,82h3v1h-3V82z"/>
<path fill="#686840" d="M59,82h2v1h-2V82z"/>
<path fill="#030303" d="M61,82h1v1h-1V82z"/>
<path fill="#030303" d="M78,82h5v1h-1v2h-1v-2h-3V82z"/>
<path fill="#F8D0B8" d="M83,82h1v1h-1V82z"/>
<path fill="#484838" d="M84,82h1v1h-1V82z"/>
<path fill="#030303" d="M8,83h2v1H8V83z"/>
<path fill="#030303" d="M13,83h2v1h-2V83z"/>
<path fill="#030303" d="M30,83h1v2h-1V83z"/>
<path fill="#484838" d="M31,83h2v1h-2V83z"/>
<path fill="#030303" d="M54,83h2v1h-2V83z"/>
<path fill="#030303" d="M59,83h2v1h-2V83z"/>
<path fill="#484838" d="M82,83h2v1h-2V83z"/>
<path fill="#030303" d="M84,83h1v2h-1V83z"/>
<path fill="#686840" d="M31,84h2v1h-2V84z"/>
<path fill="#686840" d="M82,84h2v1h-2V84z"/>
<path fill="#030303" d="M31,85h2v1h-2V85z"/>
<path fill="#030303" d="M82,85h2v1h-2V85z"/>
<path fill="#383030" d="M14,87h3v1h-3V87z"/>
<path fill="#383030" d="M37,87h3v1h-3V87z"/>
<path fill="#383030" d="M60,87h3v1h-3V87z"/>
<path fill="#383030" d="M83,87h3v1h-3V87z"/>
<path fill="#485088" d="M12,88h1v1h-1V88z"/>
<path fill="#383030" d="M13,88h1v3h-1V88z"/>
<path fill="#584138" d="M14,88h1v1h-1V88z"/>
<path fill="#886040" d="M15,88h2v1h1v2h1v1h1v2h-1v-1h-1v1h-2v-1h-1v-2h-1v-2h1V88z"/>
<path fill="#383030" d="M17,88h1v1h-1V88z"/>
<path fill="#485088" d="M35,88h1v1h-1V88z"/>
<path fill="#383030" d="M36,88h1v3h-1V88z"/>
<path fill="#584138" d="M37,88h1v1h-1V88z"/>
<path fill="#886040" d="M38,88h2v1h1v1h2v1h1v1h-2v1h2v1h-4v-1h-2v-2h-1v-2h1V88z"/>
<path fill="#383030" d="M40,88h1v1h-1V88z"/>
<path fill="#485088" d="M58,88h1v1h-1V88z"/>
<path fill="#383030" d="M59,88h1v3h-1V88z"/>
<path fill="#584138" d="M60,88h1v1h-1V88z"/>
<path fill="#886040" d="M61,88h2v1h1v2h1v1h1v2h-1v-1h-1v1h-2v-1h-1v-2h-1v-2h1V88z"/>
<path fill="#383030" d="M63,88h1v1h-1V88z"/>
<path fill="#485088" d="M81,88h1v1h-1V88z"/>
<path fill="#383030" d="M82,88h1v3h-1V88z"/>
<path fill="#584138" d="M83,88h1v1h-1V88z"/>
<path fill="#886040" d="M84,88h2v1h1v1h2v1h1v1h-2v1h2v1h-4v-1h-2v-2h-1v-2h1V88z"/>
<path fill="#383030" d="M86,88h1v1h-1V88z"/>
<path fill="#485088" d="M11,89h1v3h-1V89z"/>
<path fill="#5878B0" d="M12,89h1v2h1v2h-1v-1h-1V89z"/>
<path fill="#383030" d="M18,89h1v2h-1V89z"/>
<path fill="#485088" d="M34,89h1v3h-1V89z"/>
<path fill="#5878B0" d="M35,89h1v2h1v2h-1v-1h-1V89z"/>
<path fill="#383030" d="M41,89h2v1h-2V89z"/>
<path fill="#485088" d="M57,89h1v3h-1V89z"/>
<path fill="#5878B0" d="M58,89h1v2h1v2h-1v-1h-1V89z"/>
<path fill="#383030" d="M64,89h1v2h-1V89z"/>
<path fill="#485088" d="M80,89h1v3h-1V89z"/>
<path fill="#5878B0" d="M81,89h1v2h1v2h-1v-1h-1V89z"/>
<path fill="#383030" d="M87,89h2v1h-2V89z"/>
<path fill="#383030" d="M9,90h2v1H9V90z"/>
<path fill="#383030" d="M32,90h2v1h-2V90z"/>
<path fill="#383030" d="M43,90h2v1h-2V90z"/>
<path fill="#383030" d="M55,90h2v1h-2V90z"/>
<path fill="#383030" d="M78,90h2v1h-2V90z"/>
<path fill="#383030" d="M89,90h2v1h-2V90z"/>
<path fill="#383030" d="M7,91h2v1H7V91z"/>
<path fill="#886040" d="M9,91h2v1h1v1h1v1h3v1h2v2h1v2h-1v-1h-1v1h1v2h-2v-1h-1v-1h-1v1h1v1h1v1h-2v-1h-2v-1h-2v-1H9v-2H8v-1H7v1h1
	v2h1v1H7v-1H5v-1H4v-2h1v-2h1v-1h1v-1h2V91z"/>
<path fill="#383030" d="M14,91h1v2h-1V91z"/>
<path fill="#383030" d="M19,91h1v1h-1V91z"/>
<path fill="#383030" d="M30,91h2v1h-2V91z"/>
<path fill="#886040" d="M32,91h2v1h1v1h1v1h4v1h1v2h1v2h-1v-1h-1v1h1v2h-2v-1h-1v-1h-1v1h1v1h1v1h-2v-1h-2v-1h-2v-1h-1v-2h-1v-1h-1
	v1h1v2h1v1h-2v-1h-2v-1h-1v-2h1v-2h1v-1h1v-1h2V91z"/>
<path fill="#383030" d="M37,91h1v2h-1V91z"/>
<path fill="#584138" d="M44,91h1v1h-1V91z"/>
<path fill="#383030" d="M45,91h1v2h-1V91z"/>
<path fill="#383030" d="M53,91h2v1h-2V91z"/>
<path fill="#886040" d="M55,91h2v1h1v1h1v1h3v1h2v2h1v2h-1v-1h-1v1h1v2h-2v-1h-1v-1h-1v1h1v1h1v1h-2v-1h-2v-1h-2v-1h-1v-2h-1v-1h-1
	v1h1v2h1v1h-2v-1h-2v-1h-1v-2h1v-2h1v-1h1v-1h2V91z"/>
<path fill="#383030" d="M60,91h1v2h-1V91z"/>
<path fill="#383030" d="M65,91h1v1h-1V91z"/>
<path fill="#383030" d="M76,91h2v1h-2V91z"/>
<path fill="#886040" d="M78,91h2v1h1v1h1v1h4v1h1v2h1v2h-1v-1h-1v1h1v2h-2v-1h-1v-1h-1v1h1v1h1v1h-2v-1h-2v-1h-2v-1h-1v-2h-1v-1h-1
	v1h1v2h1v1h-2v-1h-2v-1h-1v-2h1v-2h1v-1h1v-1h2V91z"/>
<path fill="#383030" d="M83,91h1v2h-1V91z"/>
<path fill="#584138" d="M90,91h1v1h-1V91z"/>
<path fill="#383030" d="M91,91h1v2h-1V91z"/>
<path fill="#383030" d="M6,92h1v1H6V92z"/>
<path fill="#485088" d="M12,92h1v1h-1V92z"/>
<path fill="#383030" d="M20,92h1v3h-2v-1h1V92z"/>
<path fill="#383030" d="M29,92h1v1h-1V92z"/>
<path fill="#485088" d="M35,92h1v1h-1V92z"/>
<path fill="#584138" d="M42,92h2v1h-2V92z"/>
<path fill="#886040" d="M44,92h1v1h-1V92z"/>
<path fill="#383030" d="M52,92h1v1h-1V92z"/>
<path fill="#485088" d="M58,92h1v1h-1V92z"/>
<path fill="#383030" d="M66,92h1v3h-2v-1h1V92z"/>
<path fill="#383030" d="M75,92h1v1h-1V92z"/>
<path fill="#485088" d="M81,92h1v1h-1V92z"/>
<path fill="#584138" d="M88,92h2v1h-2V92z"/>
<path fill="#886040" d="M90,92h1v1h-1V92z"/>
<path fill="#383030" d="M5,93h1v1H5V93z"/>
<path fill="#485088" d="M13,93h2v1h-2V93z"/>
<path fill="#383030" d="M15,93h1v1h-1V93z"/>
<path fill="#584138" d="M18,93h1v1h-1V93z"/>
<path fill="#383030" d="M28,93h1v1h-1V93z"/>
<path fill="#485088" d="M36,93h2v1h-2V93z"/>
<path fill="#383030" d="M38,93h2v1h-2V93z"/>
<path fill="#383030" d="M44,93h1v1h-1V93z"/>
<path fill="#383030" d="M51,93h1v1h-1V93z"/>
<path fill="#485088" d="M59,93h2v1h-2V93z"/>
<path fill="#383030" d="M61,93h1v1h-1V93z"/>
<path fill="#584138" d="M64,93h1v1h-1V93z"/>
<path fill="#383030" d="M74,93h1v1h-1V93z"/>
<path fill="#485088" d="M82,93h2v1h-2V93z"/>
<path fill="#383030" d="M84,93h2v1h-2V93z"/>
<path fill="#383030" d="M90,93h1v1h-1V93z"/>
<path fill="#383030" d="M4,94h1v2H4V94z"/>
<path fill="#383030" d="M16,94h2v1h-2V94z"/>
<path fill="#886040" d="M18,94h1v1h-1V94z"/>
<path fill="#383030" d="M27,94h1v2h-1V94z"/>
<path fill="#383030" d="M40,94h4v1h-2v2h-1v-2h-1V94z"/>
<path fill="#383030" d="M50,94h1v2h-1V94z"/>
<path fill="#383030" d="M62,94h2v1h-2V94z"/>
<path fill="#886040" d="M64,94h1v1h-1V94z"/>
<path fill="#383030" d="M73,94h1v2h-1V94z"/>
<path fill="#383030" d="M86,94h4v1h-2v2h-1v-2h-1V94z"/>
<path fill="#C08850" d="M12,95h1v1h-1V95z"/>
<path fill="#383030" d="M18,95h1v2h-1V95z"/>
<path fill="#C08850" d="M35,95h1v1h-1V95z"/>
<path fill="#C08850" d="M58,95h1v1h-1V95z"/>
<path fill="#383030" d="M64,95h1v2h-1V95z"/>
<path fill="#C08850" d="M81,95h1v1h-1V95z"/>
<path fill="#383030" d="M3,96h1v2H3V96z"/>
<path fill="#584138" d="M7,96h1v1H7V96z"/>
<path fill="#C08850" d="M10,96h1v1h-1V96z"/>
<path fill="#383030" d="M26,96h1v2h-1V96z"/>
<path fill="#584138" d="M30,96h1v1h-1V96z"/>
<path fill="#C08850" d="M33,96h1v1h-1V96z"/>
<path fill="#383030" d="M49,96h1v2h-1V96z"/>
<path fill="#584138" d="M53,96h1v1h-1V96z"/>
<path fill="#C08850" d="M56,96h1v1h-1V96z"/>
<path fill="#383030" d="M72,96h1v2h-1V96z"/>
<path fill="#584138" d="M76,96h1v1h-1V96z"/>
<path fill="#C08850" d="M79,96h1v1h-1V96z"/>
<path fill="#584138" d="M8,97h1v2H8V97z"/>
<path fill="#383030" d="M19,97h1v3h-1V97z"/>
<path fill="#584138" d="M31,97h1v2h-1V97z"/>
<path fill="#383030" d="M42,97h1v3h-1V97z"/>
<path fill="#584138" d="M54,97h1v2h-1V97z"/>
<path fill="#383030" d="M65,97h1v3h-1V97z"/>
<path fill="#584138" d="M77,97h1v2h-1V97z"/>
<path fill="#383030" d="M88,97h1v3h-1V97z"/>
<path fill="#383030" d="M4,98h1v1H4V98z"/>
<path fill="#584138" d="M17,98h1v1h-1V98z"/>
<path fill="#383030" d="M27,98h1v1h-1V98z"/>
<path fill="#584138" d="M40,98h1v1h-1V98z"/>
<path fill="#383030" d="M50,98h1v1h-1V98z"/>
<path fill="#584138" d="M63,98h1v1h-1V98z"/>
<path fill="#383030" d="M73,98h1v1h-1V98z"/>
<path fill="#584138" d="M86,98h1v1h-1V98z"/>
<path fill="#383030" d="M5,99h2v1H5V99z"/>
<path fill="#584138" d="M9,99h1v1H9V99z"/>
<path fill="#584138" d="M14,99h1v1h-1V99z"/>
<path fill="#584138" d="M18,99h1v1h-1V99z"/>
<path fill="#383030" d="M28,99h2v1h-2V99z"/>
<path fill="#584138" d="M32,99h1v1h-1V99z"/>
<path fill="#584138" d="M37,99h1v1h-1V99z"/>
<path fill="#584138" d="M41,99h1v1h-1V99z"/>
<path fill="#383030" d="M51,99h2v1h-2V99z"/>
<path fill="#584138" d="M55,99h1v1h-1V99z"/>
<path fill="#584138" d="M60,99h1v1h-1V99z"/>
<path fill="#584138" d="M64,99h1v1h-1V99z"/>
<path fill="#383030" d="M74,99h2v1h-2V99z"/>
<path fill="#584138" d="M78,99h1v1h-1V99z"/>
<path fill="#584138" d="M83,99h1v1h-1V99z"/>
<path fill="#584138" d="M87,99h1v1h-1V99z"/>
<path fill="#784040" d="M5,100h1v3H5V100z"/>
<path fill="#D89870" d="M6,100h1v1H6V100z"/>
<path fill="#383030" d="M7,100h2v1H7V100z"/>
<path fill="#886040" d="M9,100h1v1H9V100z"/>
<path fill="#584138" d="M10,100h2v1h-1v1h-1V100z"/>
<path fill="#584138" d="M15,100h1v1h-1V100z"/>
<path fill="#383030" d="M18,100h1v1h-1V100z"/>
<path fill="#784040" d="M28,100h1v3h-1V100z"/>
<path fill="#D89870" d="M29,100h1v1h-1V100z"/>
<path fill="#383030" d="M30,100h2v1h-2V100z"/>
<path fill="#886040" d="M32,100h1v1h-1V100z"/>
<path fill="#584138" d="M33,100h2v1h-1v1h-1V100z"/>
<path fill="#584138" d="M38,100h1v1h-1V100z"/>
<path fill="#383030" d="M41,100h1v1h-1V100z"/>
<path fill="#784040" d="M51,100h1v3h-1V100z"/>
<path fill="#D89870" d="M52,100h1v1h-1V100z"/>
<path fill="#383030" d="M53,100h2v1h-2V100z"/>
<path fill="#886040" d="M55,100h1v1h-1V100z"/>
<path fill="#584138" d="M56,100h2v1h-1v1h-1V100z"/>
<path fill="#584138" d="M61,100h1v1h-1V100z"/>
<path fill="#383030" d="M64,100h1v1h-1V100z"/>
<path fill="#784040" d="M74,100h1v3h-1V100z"/>
<path fill="#D89870" d="M75,100h1v1h-1V100z"/>
<path fill="#383030" d="M76,100h2v1h-2V100z"/>
<path fill="#886040" d="M78,100h1v1h-1V100z"/>
<path fill="#584138" d="M79,100h2v1h-1v1h-1V100z"/>
<path fill="#584138" d="M84,100h1v1h-1V100z"/>
<path fill="#383030" d="M87,100h1v1h-1V100z"/>
<path fill="#F8D0B8" d="M6,101h1v2h3v1H9v1H7v-1H6V101z"/>
<path fill="#485088" d="M7,101h1v1H7V101z"/>
<path fill="#A8A8D8" d="M8,101h1v1H8V101z"/>
<path fill="#383030" d="M9,101h1v1H9V101z"/>
<path fill="#D89870" d="M11,101h1v1h1v2h-1v1h-1v1h-1v-1H9v-1h2V101z"/>
<path fill="#784040" d="M12,101h1v1h-1V101z"/>
<path fill="#584138" d="M13,101h1v1h-1V101z"/>
<path fill="#584138" d="M16,101h2v1h-1v1h-1v1h-2v-2h2V101z"/>
<path fill="#030303" d="M18,101h1v1h-1V101z"/>
<path fill="#F8D0B8" d="M29,101h1v2h3v1h-1v1h-2v-1h-1V101z"/>
<path fill="#485088" d="M30,101h1v1h-1V101z"/>
<path fill="#A8A8D8" d="M31,101h1v1h-1V101z"/>
<path fill="#383030" d="M32,101h1v1h-1V101z"/>
<path fill="#D89870" d="M34,101h1v1h1v2h-1v1h-1v1h-1v-1h-1v-1h2V101z"/>
<path fill="#784040" d="M35,101h1v1h-1V101z"/>
<path fill="#584138" d="M36,101h1v1h-1V101z"/>
<path fill="#584138" d="M39,101h2v1h-1v1h-1v1h-2v-2h2V101z"/>
<path fill="#030303" d="M41,101h1v1h-1V101z"/>
<path fill="#F8D0B8" d="M52,101h1v2h3v1h-1v1h-2v-1h-1V101z"/>
<path fill="#485088" d="M53,101h1v1h-1V101z"/>
<path fill="#A8A8D8" d="M54,101h1v1h-1V101z"/>
<path fill="#383030" d="M55,101h1v1h-1V101z"/>
<path fill="#D89870" d="M57,101h1v1h1v2h-1v1h-1v1h-1v-1h-1v-1h2V101z"/>
<path fill="#784040" d="M58,101h1v1h-1V101z"/>
<path fill="#584138" d="M59,101h1v1h-1V101z"/>
<path fill="#584138" d="M62,101h2v1h-1v1h-1v1h-2v-2h2V101z"/>
<path fill="#030303" d="M64,101h1v1h-1V101z"/>
<path fill="#F8D0B8" d="M75,101h1v2h3v1h-1v1h-2v-1h-1V101z"/>
<path fill="#485088" d="M76,101h1v1h-1V101z"/>
<path fill="#A8A8D8" d="M77,101h1v1h-1V101z"/>
<path fill="#383030" d="M78,101h1v1h-1V101z"/>
<path fill="#D89870" d="M80,101h1v1h1v2h-1v1h-1v1h-1v-1h-1v-1h2V101z"/>
<path fill="#784040" d="M81,101h1v1h-1V101z"/>
<path fill="#584138" d="M82,101h1v1h-1V101z"/>
<path fill="#584138" d="M85,101h2v1h-1v1h-1v1h-2v-2h2V101z"/>
<path fill="#030303" d="M87,101h1v1h-1V101z"/>
<path fill="#030303" d="M7,102h1v1H7V102z"/>
<path fill="#E8E8F8" d="M8,102h1v1H8V102z"/>
<path fill="#D89870" d="M9,102h1v1H9V102z"/>
<path fill="#383030" d="M10,102h1v2h-1V102z"/>
<path fill="#784040" d="M13,102h1v2h-1V102z"/>
<path fill="#030303" d="M17,102h1v1h-1V102z"/>
<path fill="#030303" d="M30,102h1v1h-1V102z"/>
<path fill="#E8E8F8" d="M31,102h1v1h-1V102z"/>
<path fill="#D89870" d="M32,102h1v1h-1V102z"/>
<path fill="#383030" d="M33,102h1v2h-1V102z"/>
<path fill="#784040" d="M36,102h1v2h-1V102z"/>
<path fill="#030303" d="M40,102h1v1h-1V102z"/>
<path fill="#030303" d="M53,102h1v1h-1V102z"/>
<path fill="#E8E8F8" d="M54,102h1v1h-1V102z"/>
<path fill="#D89870" d="M55,102h1v1h-1V102z"/>
<path fill="#383030" d="M56,102h1v2h-1V102z"/>
<path fill="#784040" d="M59,102h1v2h-1V102z"/>
<path fill="#030303" d="M63,102h1v1h-1V102z"/>
<path fill="#030303" d="M76,102h1v1h-1V102z"/>
<path fill="#E8E8F8" d="M77,102h1v1h-1V102z"/>
<path fill="#D89870" d="M78,102h1v1h-1V102z"/>
<path fill="#383030" d="M79,102h1v2h-1V102z"/>
<path fill="#784040" d="M82,102h1v2h-1V102z"/>
<path fill="#030303" d="M86,102h1v1h-1V102z"/>
<path fill="#D89870" d="M5,103h1v1H5V103z"/>
<path fill="#030303" d="M16,103h1v1h-1V103z"/>
<path fill="#D89870" d="M28,103h1v1h-1V103z"/>
<path fill="#030303" d="M39,103h1v1h-1V103z"/>
<path fill="#D89870" d="M51,103h1v1h-1V103z"/>
<path fill="#030303" d="M62,103h1v1h-1V103z"/>
<path fill="#D89870" d="M74,103h1v1h-1V103z"/>
<path fill="#030303" d="M85,103h1v1h-1V103z"/>
<path fill="#784040" d="M6,104h1v1H6V104z"/>
<path fill="#784040" d="M12,104h1v1h-1V104z"/>
<path fill="#584138" d="M13,104h1v1h-1V104z"/>
<path fill="#030303" d="M14,104h2v1h-2V104z"/>
<path fill="#784040" d="M29,104h1v1h-1V104z"/>
<path fill="#784040" d="M35,104h1v1h-1V104z"/>
<path fill="#584138" d="M36,104h1v1h-1V104z"/>
<path fill="#030303" d="M37,104h2v1h-2V104z"/>
<path fill="#784040" d="M52,104h1v1h-1V104z"/>
<path fill="#784040" d="M58,104h1v1h-1V104z"/>
<path fill="#584138" d="M59,104h1v1h-1V104z"/>
<path fill="#030303" d="M60,104h2v1h-2V104z"/>
<path fill="#784040" d="M75,104h1v1h-1V104z"/>
<path fill="#784040" d="M81,104h1v1h-1V104z"/>
<path fill="#584138" d="M82,104h1v1h-1V104z"/>
<path fill="#030303" d="M83,104h2v1h-2V104z"/>
<path fill="#784040" d="M7,105h3v1H7V105z"/>
<path fill="#784040" d="M11,105h1v1h-1V105z"/>
<path fill="#030303" d="M12,105h2v3h-1v2h-1v-3h1v-1h-1V105z"/>
<path fill="#784040" d="M30,105h3v1h-3V105z"/>
<path fill="#784040" d="M34,105h1v1h-1V105z"/>
<path fill="#030303" d="M35,105h2v2h-1v-1h-1V105z"/>
<path fill="#784040" d="M53,105h3v1h-3V105z"/>
<path fill="#784040" d="M57,105h1v1h-1V105z"/>
<path fill="#030303" d="M58,105h2v3h-1v2h-1v-3h1v-1h-1V105z"/>
<path fill="#784040" d="M76,105h3v1h-3V105z"/>
<path fill="#784040" d="M80,105h1v1h-1V105z"/>
<path fill="#030303" d="M81,105h2v3h1v1h-1v1h-1v-4h-1V105z"/>
<path fill="#030303" d="M8,106h1v1H8V106z"/>
<path fill="#A85030" d="M9,106h1v1H9V106z"/>
<path fill="#485088" d="M10,106h3v1h-2v1H9v1H8v-2h2V106z"/>
<path fill="#030303" d="M31,106h1v1h-1V106z"/>
<path fill="#A85030" d="M32,106h1v1h-1V106z"/>
<path fill="#485088" d="M33,106h3v1h1v1h-1v1h-1v-2h-2V106z"/>
<path fill="#030303" d="M54,106h1v1h-1V106z"/>
<path fill="#A85030" d="M55,106h1v1h-1V106z"/>
<path fill="#485088" d="M56,106h3v1h-2v1h-2v1h-1v-2h2V106z"/>
<path fill="#030303" d="M77,106h1v1h-1V106z"/>
<path fill="#A85030" d="M78,106h1v1h-1V106z"/>
<path fill="#485088" d="M79,106h3v1h-2v1h-1v1h-2v-2h2V106z"/>
<path fill="#383038" d="M7,107h1v1H7V107z"/>
<path fill="#A8A8D8" d="M11,107h1v1h-1V107z"/>
<path fill="#383038" d="M30,107h1v1h-1V107z"/>
<path fill="#485088" d="M31,107h2v1h-2V107z"/>
<path fill="#A8A8D8" d="M33,107h1v1h-1V107z"/>
<path fill="#030303" d="M34,107h1v3h-1V107z"/>
<path fill="#030303" d="M37,107h1v1h-1V107z"/>
<path fill="#383038" d="M53,107h1v1h-1V107z"/>
<path fill="#A8A8D8" d="M57,107h1v1h-1V107z"/>
<path fill="#383038" d="M76,107h1v1h-1V107z"/>
<path fill="#A8A8D8" d="M80,107h2v1h-2V107z"/>
<path fill="#030303" d="M7,108h1v2H7V108z"/>
<path fill="#784040" d="M9,108h1v2H9V108z"/>
<path fill="#F8D0B8" d="M10,108h2v1h-2V108z"/>
<path fill="#A85030" d="M13,108h1v2h-1V108z"/>
<path fill="#030303" d="M14,108h1v2h-1V108z"/>
<path fill="#030303" d="M30,108h1v2h-1V108z"/>
<path fill="#784040" d="M31,108h1v2h-1V108z"/>
<path fill="#F8D0B8" d="M32,108h2v1h-2V108z"/>
<path fill="#383038" d="M36,108h1v1h-1V108z"/>
<path fill="#A85030" d="M37,108h1v2h-1v1h-3v-1h2v-1h1V108z"/>
<path fill="#784040" d="M38,108h1v1h-1V108z"/>
<path fill="#030303" d="M53,108h1v2h-1V108z"/>
<path fill="#784040" d="M55,108h1v2h-1V108z"/>
<path fill="#F8D0B8" d="M56,108h2v1h-2V108z"/>
<path fill="#A85030" d="M59,108h1v2h-1V108z"/>
<path fill="#030303" d="M60,108h1v2h-1V108z"/>
<path fill="#030303" d="M76,108h1v2h-1V108z"/>
<path fill="#784040" d="M79,108h1v2h-1V108z"/>
<path fill="#F8D0B8" d="M80,108h2v1h-2V108z"/>
<path fill="#F86030" d="M8,109h1v1H8V109z"/>
<path fill="#D89870" d="M10,109h2v1h-2V109z"/>
<path fill="#D89870" d="M32,109h2v1h-2V109z"/>
<path fill="#383038" d="M35,109h1v1h-1V109z"/>
<path fill="#030303" d="M38,109h1v2h-2v-1h1V109z"/>
<path fill="#F86030" d="M54,109h1v1h-1V109z"/>
<path fill="#D89870" d="M56,109h2v1h-2V109z"/>
<path fill="#F86030" d="M77,109h2v1h1v1h-3V109z"/>
<path fill="#D89870" d="M80,109h2v1h-2V109z"/>
<path fill="#A85030" d="M83,109h1v1h-1V109z"/>
<path fill="#030303" d="M84,109h1v1h-1V109z"/>
<path fill="#030303" d="M8,110h1v1H8V110z"/>
<path fill="#F86030" d="M9,110h1v1H9V110z"/>
<path fill="#030303" d="M10,110h2v1h-2V110z"/>
<path fill="#A85030" d="M12,110h1v1h-1V110z"/>
<path fill="#030303" d="M13,110h1v1h-1V110z"/>
<path fill="#030303" d="M28,110h1v2h-1V110z"/>
<path fill="#383038" d="M29,110h1v1h1v1h-2V110z"/>
<path fill="#D89870" d="M30,110h2v1h-2V110z"/>
<path fill="#784040" d="M32,110h2v1h-2V110z"/>
<path fill="#030303" d="M54,110h1v1h-1V110z"/>
<path fill="#F86030" d="M55,110h1v1h-1V110z"/>
<path fill="#030303" d="M56,110h2v1h-2V110z"/>
<path fill="#A85030" d="M58,110h1v1h-1V110z"/>
<path fill="#030303" d="M59,110h1v1h-1V110z"/>
<path fill="#A85030" d="M76,110h1v1h-1V110z"/>
<path fill="#030303" d="M80,110h2v1h-2V110z"/>
<path fill="#A85030" d="M82,110h1v1h-1V110z"/>
<path fill="#784040" d="M83,110h1v1h-1V110z"/>
<path fill="#D89870" d="M84,110h1v1h-1V110z"/>
<path fill="#030303" d="M85,110h1v3h-1V110z"/>
<path fill="#484838" d="M8,111h1v1H8V111z"/>
<path fill="#686840" d="M9,111h3v1H9V111z"/>
<path fill="#030303" d="M12,111h1v1h-1V111z"/>
<path fill="#030303" d="M31,111h5v1h1v1h-2v-1h-4V111z"/>
<path fill="#F8D0B8" d="M36,111h2v1h-2V111z"/>
<path fill="#484838" d="M38,111h1v2h-2v-1h1V111z"/>
<path fill="#030303" d="M39,111h1v2h-1V111z"/>
<path fill="#484838" d="M54,111h1v1h-1V111z"/>
<path fill="#686840" d="M55,111h3v1h-3V111z"/>
<path fill="#030303" d="M58,111h1v1h-1V111z"/>
<path fill="#484838" d="M75,111h1v1h-1V111z"/>
<path fill="#686840" d="M76,111h1v1h2v1h-3V111z"/>
<path fill="#F8D0B8" d="M77,111h1v1h-1V111z"/>
<path fill="#030303" d="M78,111h1v1h-1V111z"/>
<path fill="#A85030" d="M79,111h3v1h-3V111z"/>
<path fill="#D89870" d="M82,111h2v1h-2V111z"/>
<path fill="#484838" d="M84,111h1v2h-2v-1h1V111z"/>
<path fill="#030303" d="M9,112h3v1H9V112z"/>
<path fill="#030303" d="M29,112h2v1h-2V112z"/>
<path fill="#030303" d="M55,112h3v1h-3V112z"/>
<path fill="#030303" d="M75,112h1v1h-1V112z"/>
<path fill="#030303" d="M79,112h2v1h-2V112z"/>
<path fill="#030303" d="M82,112h1v1h-1V112z"/>
<path fill="#030303" d="M37,113h2v1h-2V113z"/>
<path fill="#030303" d="M76,113h3v1h-3V113z"/>
<path fill="#030303" d="M83,113h2v1h-2V113z"/>
</svg>
