<?xml version="1.0" encoding="utf-8"?>
<!-- Generator: Adobe Illustrator 16.0.4, SVG Export Plug-In . SVG Version: 6.00 Build 0)  -->
<!DOCTYPE svg PUBLIC "-//W3C//DTD SVG 1.1//EN" "http://www.w3.org/Graphics/SVG/1.1/DTD/svg11.dtd">
<svg version="1.1" id="Layer_1" xmlns="http://www.w3.org/2000/svg" xmlns:xlink="http://www.w3.org/1999/xlink" x="0px" y="0px"
	 width="136px" height="52px" viewBox="-0.5 0.5 136 52" enable-background="new -0.5 0.5 136 52" xml:space="preserve">
<g>
	<path fill="#685850" d="M13.652,2.498h4.044V4.5h-4.044V2.498z"/>
	<path fill="#685850" d="M11.63,4.5h2.021v1.998H11.63V4.5z"/>
	<path fill="#988050" d="M13.652,4.5h2.021v1.998h-2.021V4.5z"/>
	<path fill="#E0B850" d="M15.673,4.5h2.022v1.998h2.021v2h2.021v-2h2.023v2h2.021v3.998h2.022v2.002h-2.022v2.001h-4.044V18.5
		h-6.065v2.001H3.543V18.5H1.522v-4.002h2.021v-4h2.022v-2h2.021v2h2.022v-2h2.022v-2h4.043V4.5z"/>
	<path fill="#685850" d="M17.696,4.5h6.065v1.998h-6.065V4.5z"/>
	<path fill="#685850" d="M5.565,6.498h6.065v2H5.565V6.498z"/>
	<path fill="#988050" d="M19.717,6.498h2.021v2h-2.021V6.498z"/>
	<path fill="#685850" d="M23.761,6.498h2.021v2h-2.021V6.498z"/>
	<path fill="#685850" d="M3.543,8.498h2.022v2H3.543V8.498z"/>
	<path fill="#988050" d="M7.586,8.498h2.022v2H7.586V8.498z"/>
	<path fill="#685850" d="M25.782,8.498h2.022v3.998h-2.022V8.498z"/>
	<path fill="#685850" d="M1.522,10.498h2.021v4H1.522V10.498z"/>
	<path fill="#030303" d="M27.805,12.496h2.021v4.003h-2.021V12.496z"/>
	<path fill="#030303" d="M-0.5,14.498h2.022v8.001H-0.5V14.498z"/>
	<path fill="#988050" d="M25.782,14.498h2.022v2.001h2.021v6h-4.044v-1.998h-6.065v5.998h-2.021v-4h-2.022V24.5h-2.021v1.999H11.63
		v3.999H7.586v-2.001H5.565v-1.998H3.543v-4H1.522V18.5h2.021v2.001h12.13V18.5h6.065v-2.001h4.044V14.498z"/>
	<path fill="#030303" d="M29.826,16.499h2.023v6h-2.023V16.499z"/>
	<path fill="#F8D0B8" d="M19.717,20.501h4.044v1.998h4.043v7.999h-2.022v2.001h-4.044v-2.001h-2.021V20.501z"/>
	<path fill="#D89870" d="M23.761,20.501h2.021v1.998h-2.021V20.501z"/>
	<path fill="#030303" d="M1.522,22.499h2.021v4H1.522V22.499z"/>
	<path fill="#685850" d="M15.673,22.499h2.022V24.5h-2.022V22.499z"/>
	<path fill="#030303" d="M27.805,22.499h2.021V24.5h-2.021V22.499z"/>
	<path fill="#685850" d="M13.652,24.5h2.021v1.999h-2.021V24.5z"/>
	<path fill="#D89870" d="M15.673,24.5h2.022v1.999h2.021v3.999h2.021v2.001h-2.021v1.998h-2.021v-1.998h-2.022v-2.001h-2.021v-3.999
		h2.021V24.5z"/>
	<path fill="#784040" d="M21.738,24.5h2.023v1.999h-2.023V24.5z"/>
	<path fill="#784040" d="M27.805,24.5h2.021v3.997h-2.021V24.5z"/>
	<path fill="#030303" d="M3.543,26.499h2.022v1.998H3.543V26.499z"/>
	<path fill="#685850" d="M11.63,26.499h2.021v3.999H11.63V26.499z"/>
	<path fill="#030303" d="M23.761,26.499h2.021v1.998h-2.021V26.499z"/>
	<path fill="#030303" d="M5.565,28.497h2.021v2.001H5.565V28.497z"/>
	<path fill="#D89870" d="M27.805,28.497h2.021v2.001h-2.021V28.497z"/>
	<path fill="#030303" d="M7.586,30.498h4.044v2.001H7.586V30.498z"/>
	<path fill="#988050" d="M11.63,30.498h2.021v2.001H11.63V30.498z"/>
	<path fill="#784040" d="M13.652,30.498h2.021v2.001h-2.021V30.498z"/>
	<path fill="#784040" d="M25.782,30.498h2.022v2.001h-2.022V30.498z"/>
	<path fill="#030303" d="M11.63,32.499h6.065v1.998h-4.044v2.001H11.63V32.499z"/>
	<path fill="#784040" d="M19.717,32.499h6.065v1.998h-6.065V32.499z"/>
	<path fill="#784040" d="M13.652,34.497h4.044v2.001h-4.044V34.497z"/>
	<path fill="#988050" d="M17.696,34.497h2.021v2.001h-2.021V34.497z"/>
	<path fill="#E0B850" d="M19.717,34.497h2.021v2.001h-2.021V34.497z"/>
	<path fill="#030303" d="M21.738,34.497h2.023v2.001h-2.023V34.497z"/>
	<path fill="#403840" d="M11.63,36.498h2.021V40.5H11.63V36.498z"/>
	<path fill="#F8D0B8" d="M13.652,36.498h4.044v2.001h-2.022V40.5h-2.021V36.498z"/>
	<path fill="#784040" d="M17.696,36.498h2.021V40.5h-2.021V36.498z"/>
	<path fill="#403840" d="M19.717,36.498h2.021v2.001h-2.021V36.498z"/>
	<path fill="#E0B850" d="M21.738,36.498h2.023v2.001h-2.023V36.498z"/>
	<path fill="#403840" d="M23.761,36.498h2.021v8.003h-4.044V42.5h2.023v-2h-2.023v-2.001h2.023V36.498z"/>
	<path fill="#030303" d="M9.608,38.499h2.022v6.002H9.608V38.499z"/>
	<path fill="#D89870" d="M15.673,38.499h2.022V40.5h-2.022V38.499z"/>
	<path fill="#686870" d="M19.717,38.499h2.021V40.5h-2.021V38.499z"/>
	<path fill="#605070" d="M11.63,40.5h2.021v2H11.63V40.5z"/>
	<path fill="#030303" d="M13.652,40.5h2.021v4.001h-2.021V40.5z"/>
	<path fill="#F8D0B8" d="M15.673,40.5h4.044v2h-4.044V40.5z"/>
	<path fill="#030303" d="M19.717,40.5h2.021v4.001h-2.021V40.5z"/>
	<path fill="#686870" d="M21.738,40.5h2.023v2h-2.023V40.5z"/>
	<path fill="#A06890" d="M11.63,42.5h2.021v2.001H11.63V42.5z"/>
	<path fill="#D89870" d="M15.673,42.5h4.044v2.001h-4.044V42.5z"/>
	<path fill="#030303" d="M11.63,44.501h2.021v3.997H11.63V44.501z"/>
	<path fill="#A06890" d="M13.652,44.501h2.021V46.5h-2.021V44.501z"/>
	<path fill="#030303" d="M15.673,44.501h4.044V46.5h-4.044V44.501z"/>
	<path fill="#A06890" d="M19.717,44.501h2.021V46.5h-2.021V44.501z"/>
	<path fill="#030303" d="M21.738,44.501h2.023v3.997h-2.023V44.501z"/>
	<path fill="#988050" d="M13.652,46.5h8.086v1.998h-8.086V46.5z"/>
	<path fill="#030303" d="M13.652,48.498h8.086v2h-8.086V48.498z"/>
</g>
<g>
	<path fill="#685850" d="M81.652,2.501h4.045v2.002h-4.045V2.501z"/>
	<path fill="#685850" d="M79.633,4.503h2.02V6.5h-2.02V4.503z"/>
	<path fill="#988050" d="M81.652,4.503h2.021V6.5h-2.021V4.503z"/>
	<path fill="#E0B850" d="M83.674,4.503h2.023V6.5h2.02v2h2.023v-2h2.02v2h2.023v3.998h2.023v2.002h-2.023v2.001H89.74v2.001h-6.066
		v2.001H71.543v-2.001H69.52v-4.002h2.023v-4h2.023v-2h2.02v2h2.021v-2h2.025v-2h4.041V4.503z"/>
	<path fill="#685850" d="M85.697,4.503h6.062V6.5h-6.062V4.503z"/>
	<path fill="#685850" d="M73.566,6.5h6.066v2h-6.066V6.5z"/>
	<path fill="#988050" d="M87.717,6.5h2.023v2h-2.023V6.5z"/>
	<path fill="#685850" d="M91.76,6.5h2.023v2H91.76V6.5z"/>
	<path fill="#685850" d="M71.543,8.501h2.023v2h-2.023V8.501z"/>
	<path fill="#988050" d="M75.586,8.501h2.021v2h-2.021V8.501z"/>
	<path fill="#685850" d="M93.783,8.501h2.023v3.998h-2.023V8.501z"/>
	<path fill="#685850" d="M69.52,10.501h2.023v4H69.52V10.501z"/>
	<path fill="#030303" d="M95.807,12.499h2.02v4.003h-2.02V12.499z"/>
	<path fill="#030303" d="M67.5,14.501h2.02v8.001H67.5V14.501z"/>
	<path fill="#988050" d="M93.783,14.501h2.023v2.001h2.02v6h-4.043v-1.998h-6.066v5.998h-2.02v-4h-2.023v2.001h-2.021v1.999h-2.02
		v3.999h-4.047V28.5h-2.02v-1.998h-2.023v-4H69.52v-3.999h2.023v2.001h12.131v-2.001h6.066v-2.001h4.043V14.501z"/>
	<path fill="#030303" d="M97.826,16.502h2.02v6h-2.02V16.502z"/>
	<path fill="#F8D0B8" d="M87.717,20.504h4.043v1.998h4.047v7.999h-2.023v2.001H89.74v-2.001h-2.023V20.504z"/>
	<path fill="#D89870" d="M91.76,20.504h2.023v1.998H91.76V20.504z"/>
	<path fill="#030303" d="M69.52,22.502h2.023v4H69.52V22.502z"/>
	<path fill="#685850" d="M83.674,22.502h2.023v2.001h-2.023V22.502z"/>
	<path fill="#030303" d="M95.807,22.502h2.02v2.001h-2.02V22.502z"/>
	<path fill="#685850" d="M81.652,24.503h2.021v1.999h-2.021V24.503z"/>
	<path fill="#D89870" d="M83.674,24.503h2.023v1.999h2.02v3.999h2.023v2.001h-2.023V34.5h-2.02v-1.998h-2.023v-2.001h-2.021v-3.999
		h2.021V24.503z"/>
	<path fill="#784040" d="M89.74,24.503h2.02v1.999h-2.02V24.503z"/>
	<path fill="#784040" d="M95.807,24.503h2.02V28.5h-2.02V24.503z"/>
	<path fill="#030303" d="M71.543,26.502h2.023V28.5h-2.023V26.502z"/>
	<path fill="#685850" d="M79.633,26.502h2.02v3.999h-2.02V26.502z"/>
	<path fill="#030303" d="M91.76,26.502h2.023V28.5H91.76V26.502z"/>
	<path fill="#030303" d="M73.566,28.5h2.02v2.001h-2.02V28.5z"/>
	<path fill="#D89870" d="M95.807,28.5h2.02v2.001h-2.02V28.5z"/>
	<path fill="#030303" d="M75.586,30.501h4.047v2.001h-4.047V30.501z"/>
	<path fill="#988050" d="M79.633,30.501h2.02v2.001h-2.02V30.501z"/>
	<path fill="#784040" d="M81.652,30.501h2.021v2.001h-2.021V30.501z"/>
	<path fill="#784040" d="M93.783,30.501h2.023v2.001h-2.023V30.501z"/>
	<path fill="#030303" d="M79.633,32.502h6.064V34.5h-4.045v2.001h-2.02V32.502z"/>
	<path fill="#784040" d="M87.717,32.502h6.066V34.5h-6.066V32.502z"/>
	<path fill="#784040" d="M81.652,34.5h4.045v2.001h-4.045V34.5z"/>
	<path fill="#988050" d="M85.697,34.5h2.02v2.001h-2.02V34.5z"/>
	<path fill="#E0B850" d="M87.717,34.5h2.023v2.001h-2.023V34.5z"/>
	<path fill="#030303" d="M89.74,34.5h2.02v2.001h-2.02V34.5z"/>
	<path fill="#403840" d="M79.633,36.501h2.02v4.002h-2.02V36.501z"/>
	<path fill="#F8D0B8" d="M81.652,36.501h4.045v2.001h-2.023v2.001h-2.021V36.501z"/>
	<path fill="#784040" d="M85.697,36.501h2.02v4.002h-2.02V36.501z"/>
	<path fill="#403840" d="M87.717,36.501h2.023v2.001h-2.023V36.501z"/>
	<path fill="#E0B850" d="M89.74,36.501h2.02v2.001h-2.02V36.501z"/>
	<path fill="#403840" d="M91.76,36.501h2.023v8.003H89.74v-2.001h2.02v-2h-2.02v-2.001h2.02V36.501z"/>
	<path fill="#030303" d="M77.607,38.502h2.025v6.002h-2.025V38.502z"/>
	<path fill="#D89870" d="M83.674,38.502h2.023v2.001h-2.023V38.502z"/>
	<path fill="#686870" d="M87.717,38.502h2.023v2.001h-2.023V38.502z"/>
	<path fill="#605070" d="M79.633,40.503h2.02v2h-2.02V40.503z"/>
	<path fill="#030303" d="M81.652,40.503h2.021v4.001h-2.021V40.503z"/>
	<path fill="#F8D0B8" d="M83.674,40.503h4.043v2h-4.043V40.503z"/>
	<path fill="#030303" d="M87.717,40.503h2.023v4.001h-2.023V40.503z"/>
	<path fill="#686870" d="M89.74,40.503h2.02v2h-2.02V40.503z"/>
	<path fill="#A06890" d="M79.633,42.503h2.02v2.001h-2.02V42.503z"/>
	<path fill="#D89870" d="M83.674,42.503h4.043v2.001h-4.043V42.503z"/>
	<path fill="#030303" d="M79.633,44.504h2.02v3.997h-2.02V44.504z"/>
	<path fill="#A06890" d="M81.652,44.504h2.021v1.999h-2.021V44.504z"/>
	<path fill="#030303" d="M83.674,44.504h4.043v1.999h-4.043V44.504z"/>
	<path fill="#A06890" d="M87.717,44.504h2.023v1.999h-2.023V44.504z"/>
	<path fill="#030303" d="M89.74,44.504h2.02v3.997h-2.02V44.504z"/>
	<path fill="#988050" d="M81.652,46.503h8.088v1.998h-8.088V46.503z"/>
	<path fill="#030303" d="M81.652,48.501h8.088v2h-8.088V48.501z"/>
</g>
<g>
	<path fill="#685850" d="M47.652,2.497h4.042v2.002h-4.042V2.497z"/>
	<path fill="#685850" d="M45.631,4.499h2.021v1.998h-2.021V4.499z"/>
	<path fill="#988050" d="M47.652,4.499h2.022v1.998h-2.022V4.499z"/>
	<path fill="#E0B850" d="M49.675,4.499h2.02v1.998h2.023v2h2.023v-2h2.023v2h2.019v3.998h2.022v2.002h-2.022v2.001h-4.042v2.001
		h-6.066V20.5h-12.13v-2.001h-2.021v-4.002h2.021v-4h2.021v-2h2.021v2h2.023v-2h2.02v-2h4.044V4.499z"/>
	<path fill="#685850" d="M51.694,4.499h6.07v1.998h-6.07V4.499z"/>
	<path fill="#685850" d="M39.566,6.497h6.064v2h-6.064V6.497z"/>
	<path fill="#988050" d="M53.718,6.497h2.023v2h-2.023V6.497z"/>
	<path fill="#685850" d="M57.765,6.497h2.019v2h-2.019V6.497z"/>
	<path fill="#685850" d="M37.545,8.497h2.021v2h-2.021V8.497z"/>
	<path fill="#988050" d="M41.588,8.497h2.023v2h-2.023V8.497z"/>
	<path fill="#685850" d="M59.783,8.497h2.022v3.998h-2.022V8.497z"/>
	<path fill="#685850" d="M35.523,10.497h2.021v4h-2.021V10.497z"/>
	<path fill="#030303" d="M61.806,12.495h2.022v4.003h-2.022V12.495z"/>
	<path fill="#030303" d="M33.5,14.497h2.024v8.001H33.5V14.497z"/>
	<path fill="#988050" d="M59.783,14.497h2.022v2.001h2.022v6h-4.045V20.5h-6.065v5.998h-2.023v-4h-2.02v2.001h-2.022v1.999h-2.021
		v3.999h-4.043v-2.001h-2.021v-1.998h-2.021v-4h-2.021v-3.999h2.021V20.5h12.13v-2.001h6.066v-2.001h4.042V14.497z"/>
	<path fill="#030303" d="M63.828,16.498h2.02v6h-2.02V16.498z"/>
	<path fill="#F8D0B8" d="M53.718,20.5h4.047v1.998h4.041v7.999h-2.022v2.001h-4.042v-2.001h-2.023V20.5z"/>
	<path fill="#D89870" d="M57.765,20.5h2.019v1.998h-2.019V20.5z"/>
	<path fill="#030303" d="M35.523,22.498h2.021v4h-2.021V22.498z"/>
	<path fill="#685850" d="M49.675,22.498h2.02v2.001h-2.02V22.498z"/>
	<path fill="#030303" d="M61.806,22.498h2.022v2.001h-2.022V22.498z"/>
	<path fill="#685850" d="M47.652,24.499h2.022v1.999h-2.022V24.499z"/>
	<path fill="#D89870" d="M49.675,24.499h2.02v1.999h2.023v3.999h2.023v2.001h-2.023v1.998h-2.023v-1.998h-2.02v-2.001h-2.022v-3.999
		h2.022V24.499z"/>
	<path fill="#784040" d="M55.741,24.499h2.023v1.999h-2.023V24.499z"/>
	<path fill="#784040" d="M61.806,24.499h2.022v3.997h-2.022V24.499z"/>
	<path fill="#030303" d="M37.545,26.498h2.021v1.998h-2.021V26.498z"/>
	<path fill="#685850" d="M45.631,26.498h2.021v3.999h-2.021V26.498z"/>
	<path fill="#030303" d="M57.765,26.498h2.019v1.998h-2.019V26.498z"/>
	<path fill="#030303" d="M39.566,28.496h2.021v2.001h-2.021V28.496z"/>
	<path fill="#D89870" d="M61.806,28.496h2.022v2.001h-2.022V28.496z"/>
	<path fill="#030303" d="M41.588,30.497h4.043v2.001h-4.043V30.497z"/>
	<path fill="#988050" d="M45.631,30.497h2.021v2.001h-2.021V30.497z"/>
	<path fill="#784040" d="M47.652,30.497h2.022v2.001h-2.022V30.497z"/>
	<path fill="#784040" d="M59.783,30.497h2.022v2.001h-2.022V30.497z"/>
	<path fill="#030303" d="M45.631,32.498h6.063v1.998h-4.042v2.001h-2.021V32.498z"/>
	<path fill="#784040" d="M53.718,32.498h6.065v1.998h-6.065V32.498z"/>
	<path fill="#686870" d="M47.652,34.496h2.022v2.001h-2.022V34.496z"/>
	<path fill="#784040" d="M49.675,34.496h4.043v2.001h-4.043V34.496z"/>
	<path fill="#E0B850" d="M53.718,34.496h2.023v2.001h-2.023V34.496z"/>
	<path fill="#030303" d="M55.741,34.496h2.023v2.001h-2.023V34.496z"/>
	<path fill="#686870" d="M45.631,36.497h2.021v4.002h-2.021V36.497z"/>
	<path fill="#403840" d="M47.652,36.497h2.022v6.002h-4.044v-2h2.021V36.497z"/>
	<path fill="#F8D0B8" d="M49.675,36.497h4.043v2.001h-4.043V36.497z"/>
	<path fill="#784040" d="M53.718,36.497h2.023v4.002h-2.023V36.497z"/>
	<path fill="#E0B850" d="M55.741,36.497h2.023v2.001h-2.023V36.497z"/>
	<path fill="#403840" d="M57.765,36.497h2.019V44.5h-2.019v-4.001h-2.023v-2.001h2.023V36.497z"/>
	<path fill="#030303" d="M43.611,38.498h2.02v4.001h-2.02V38.498z"/>
	<path fill="#D89870" d="M49.675,38.498h4.043v2.001h-4.043V38.498z"/>
	<path fill="#030303" d="M49.675,40.499h2.02V44.5h-2.02V40.499z"/>
	<path fill="#F8D0B8" d="M51.694,40.499h4.047v2h-4.047V40.499z"/>
	<path fill="#030303" d="M55.741,40.499h2.023V44.5h-2.023V40.499z"/>
	<path fill="#030303" d="M41.588,42.499h2.023v4h-2.023V42.499z"/>
	<path fill="#605070" d="M43.611,42.499h2.02V44.5h-2.02V42.499z"/>
	<path fill="#A06890" d="M45.631,42.499h4.044v4h-2.022v1.998h-4.041V44.5h2.02V42.499z"/>
	<path fill="#D89870" d="M51.694,42.499h4.047V44.5h-4.047V42.499z"/>
	<path fill="#605070" d="M49.675,44.5h2.02v1.999h2.023v1.998h-6.065v-1.998h2.022V44.5z"/>
	<path fill="#030303" d="M51.694,44.5h4.047v1.999h-4.047V44.5z"/>
	<path fill="#605070" d="M55.741,44.5h2.023v1.999h-2.023V44.5z"/>
	<path fill="#988050" d="M57.765,44.5h2.019v3.997h-6.065v-1.998h4.047V44.5z"/>
	<path fill="#030303" d="M59.783,44.5h2.022v3.997h-2.022V44.5z"/>
	<path fill="#030303" d="M39.566,46.499h2.021v3.998h-2.021V46.499z"/>
	<path fill="#E0B850" d="M41.588,46.499h2.023v1.998h4.041v2h-6.064V46.499z"/>
	<path fill="#030303" d="M47.652,48.497h2.022v2h-2.022V48.497z"/>
	<path fill="#030303" d="M53.718,48.497h6.065v2h-6.065V48.497z"/>
	<path fill="#030303" d="M41.588,50.497h6.064v2.002h-6.064V50.497z"/>
</g>
<g>
	<path fill="#685850" d="M115.652,2.5h4.043v2.002h-4.043V2.5z"/>
	<path fill="#685850" d="M113.629,4.502h2.023V6.5h-2.023V4.502z"/>
	<path fill="#988050" d="M115.652,4.502h2.023V6.5h-2.023V4.502z"/>
	<path fill="#E0B850" d="M117.676,4.502h2.02V6.5h2.023v2h2.023v-2h2.02v2h2.021v3.998h2.02V14.5h-2.02v2.001h-4.041v2.001h-6.066
		v2.001h-12.129v-2.001h-2.023V14.5h2.023v-4h2.023v-2h2.02v2h2.02v-2h2.02v-2h4.047V4.502z"/>
	<path fill="#685850" d="M119.695,4.502h6.066V6.5h-6.066V4.502z"/>
	<path fill="#685850" d="M107.57,6.5h6.059v2h-6.059V6.5z"/>
	<path fill="#988050" d="M121.719,6.5h2.023v2h-2.023V6.5z"/>
	<path fill="#685850" d="M125.762,6.5h2.021v2h-2.021V6.5z"/>
	<path fill="#685850" d="M105.547,8.5h2.023v2h-2.023V8.5z"/>
	<path fill="#988050" d="M109.59,8.5h2.02v2h-2.02V8.5z"/>
	<path fill="#685850" d="M127.783,8.5h2.02v3.998h-2.02V8.5z"/>
	<path fill="#685850" d="M103.523,10.5h2.023v4h-2.023V10.5z"/>
	<path fill="#030303" d="M129.803,12.498h2.025v4.003h-2.025V12.498z"/>
	<path fill="#030303" d="M101.5,14.5h2.023v8.001H101.5V14.5z"/>
	<path fill="#988050" d="M127.783,14.5h2.02v2.001h2.025v6h-4.045v-1.998h-6.064v5.998h-2.023v-4h-2.02v2.001h-2.023v1.999h-2.023
		V30.5h-4.039v-2.001h-2.02v-1.998h-2.023v-4h-2.023v-3.999h2.023v2.001h12.129v-2.001h6.066v-2.001h4.041V14.5z"/>
	<path fill="#030303" d="M131.828,16.501h2.021v6h-2.021V16.501z"/>
	<path fill="#F8D0B8" d="M121.719,20.503h4.043v1.998h4.041V30.5h-2.02v2.001h-4.041V30.5h-2.023V20.503z"/>
	<path fill="#D89870" d="M125.762,20.503h2.021v1.998h-2.021V20.503z"/>
	<path fill="#030303" d="M103.523,22.501h2.023v4h-2.023V22.501z"/>
	<path fill="#685850" d="M117.676,22.501h2.02v2.001h-2.02V22.501z"/>
	<path fill="#030303" d="M129.803,22.501h2.025v2.001h-2.025V22.501z"/>
	<path fill="#685850" d="M115.652,24.502h2.023v1.999h-2.023V24.502z"/>
	<path fill="#D89870" d="M117.676,24.502h2.02v1.999h2.023V30.5h2.023v2.001h-2.023v1.998h-2.023v-1.998h-2.02V30.5h-2.023v-3.999
		h2.023V24.502z"/>
	<path fill="#784040" d="M123.742,24.502h2.02v1.999h-2.02V24.502z"/>
	<path fill="#784040" d="M129.803,24.502h2.025v3.997h-2.025V24.502z"/>
	<path fill="#030303" d="M105.547,26.501h2.023v1.998h-2.023V26.501z"/>
	<path fill="#685850" d="M113.629,26.501h2.023V30.5h-2.023V26.501z"/>
	<path fill="#030303" d="M125.762,26.501h2.021v1.998h-2.021V26.501z"/>
	<path fill="#030303" d="M107.57,28.499h2.02V30.5h-2.02V28.499z"/>
	<path fill="#D89870" d="M129.803,28.499h2.025V30.5h-2.025V28.499z"/>
	<path fill="#030303" d="M109.59,30.5h4.039v2.001h-4.039V30.5z"/>
	<path fill="#988050" d="M113.629,30.5h2.023v2.001h-2.023V30.5z"/>
	<path fill="#784040" d="M115.652,30.5h2.023v2.001h-2.023V30.5z"/>
	<path fill="#784040" d="M127.783,30.5h2.02v2.001h-2.02V30.5z"/>
	<path fill="#030303" d="M113.629,32.501h6.066v1.998h-4.043V36.5h-2.023V32.501z"/>
	<path fill="#784040" d="M121.719,32.501h6.064v1.998h-6.064V32.501z"/>
	<path fill="#784040" d="M115.652,34.499h4.043V36.5h-4.043V34.499z"/>
	<path fill="#988050" d="M119.695,34.499h2.023V36.5h-2.023V34.499z"/>
	<path fill="#E0B850" d="M121.719,34.499h2.023V36.5h-2.023V34.499z"/>
	<path fill="#030303" d="M123.742,34.499h2.02V36.5h-2.02V34.499z"/>
	<path fill="#403840" d="M113.629,36.5h2.023v2.001h-2.023V36.5z"/>
	<path fill="#F8D0B8" d="M115.652,36.5h4.043v4.002h-2.02v-2.001h-2.023V36.5z"/>
	<path fill="#784040" d="M119.695,36.5h2.023v4.002h-2.023V36.5z"/>
	<path fill="#403840" d="M121.719,36.5h2.023v2.001h-2.023V36.5z"/>
	<path fill="#E0B850" d="M123.742,36.5h2.02v2.001h-2.02V36.5z"/>
	<path fill="#403840" d="M125.762,36.5h2.021v8.003h-8.088v-2.001h6.066v-2h-2.02v-2.001h2.02V36.5z"/>
	<path fill="#030303" d="M111.609,38.501h2.02v6.002h-4.039v-2.001h2.02V38.501z"/>
	<path fill="#D89870" d="M113.629,38.501h4.047v2.001h-4.047V38.501z"/>
	<path fill="#686870" d="M121.719,38.501h2.023v2.001h2.02v2h-6.066v-2h2.023V38.501z"/>
	<path fill="#F8D0B8" d="M113.629,40.502h4.047v2h-4.047V40.502z"/>
	<path fill="#030303" d="M117.676,40.502h2.02v4.001h-2.02V40.502z"/>
	<path fill="#D89870" d="M113.629,42.502h4.047v2.001h-4.047V42.502z"/>
	<path fill="#030303" d="M107.57,44.503h2.02V50.5h-2.02V44.503z"/>
	<path fill="#988050" d="M109.59,44.503h2.02V48.5h2.02v2h-4.039V44.503z"/>
	<path fill="#605070" d="M111.609,44.503h2.02v1.999h-2.02V44.503z"/>
	<path fill="#030303" d="M113.629,44.503h4.047v1.999h-4.047V44.503z"/>
	<path fill="#A06890" d="M117.676,44.503h8.086v1.999h-2.02V48.5h-4.047v-1.998h-2.02V44.503z"/>
	<path fill="#030303" d="M125.762,44.503h2.021v1.999h-2.021V44.503z"/>
	<path fill="#030303" d="M111.609,46.502h2.02V48.5h-2.02V46.502z"/>
	<path fill="#605070" d="M113.629,46.502h6.066V48.5h-6.066V46.502z"/>
	<path fill="#030303" d="M123.742,46.502h2.02V48.5h-2.02V46.502z"/>
	<path fill="#E0B850" d="M125.762,46.502h4.041V48.5h-2.02v2h-6.064v-2h4.043V46.502z"/>
	<path fill="#030303" d="M113.629,48.5h2.023v2h-2.023V48.5z"/>
	<path fill="#030303" d="M117.676,48.5h4.043v2h-4.043V48.5z"/>
	<path fill="#030303" d="M127.783,48.5h2.02v2h-2.02V48.5z"/>
	<path fill="#030303" d="M109.59,50.5h4.039v2.002h-4.039V50.5z"/>
	<path fill="#030303" d="M121.719,50.5h6.064v2.002h-6.064V50.5z"/>
</g>
</svg>
