<?xml version="1.0" encoding="utf-8"?>
<!-- Generator: Adobe Illustrator 16.0.4, SVG Export Plug-In . SVG Version: 6.00 Build 0)  -->
<!DOCTYPE svg PUBLIC "-//W3C//DTD SVG 1.1//EN" "http://www.w3.org/Graphics/SVG/1.1/DTD/svg11.dtd">
<svg version="1.1" id="Layer_1" xmlns="http://www.w3.org/2000/svg" xmlns:xlink="http://www.w3.org/1999/xlink" x="0px" y="0px"
	 width="92px" height="116px" viewBox="0 0 92 116" enable-background="new 0 0 92 116" xml:space="preserve">
<path fill="#685850" d="M10,31h2v1h-2V31z"/>
<path fill="#685850" d="M33,31h2v1h-2V31z"/>
<path fill="#685850" d="M56,31h2v1h-2V31z"/>
<path fill="#685850" d="M79,31h2v1h-2V31z"/>
<path fill="#685850" d="M9,32h1v1H9V32z"/>
<path fill="#988050" d="M10,32h1v1h-1V32z"/>
<path fill="#E0B850" d="M11,32h1v1h1v1h1v-1h1v1h1v2h1v1h-1v1h-2v1h-3v1H5v-1H4v-2h1v-2h1v-1h1v1h1v-1h1v-1h2V32z"/>
<path fill="#685850" d="M12,32h3v1h-3V32z"/>
<path fill="#685850" d="M32,32h1v1h-1V32z"/>
<path fill="#988050" d="M33,32h1v1h-1V32z"/>
<path fill="#E0B850" d="M34,32h1v1h1v1h1v-1h1v1h1v2h1v1h-1v1h-2v1h-3v1h-6v-1h-1v-2h1v-2h1v-1h1v1h1v-1h1v-1h2V32z"/>
<path fill="#685850" d="M35,32h3v1h-3V32z"/>
<path fill="#685850" d="M55,32h1v1h-1V32z"/>
<path fill="#988050" d="M56,32h1v1h-1V32z"/>
<path fill="#E0B850" d="M57,32h1v1h1v1h1v-1h1v1h1v2h1v1h-1v1h-2v1h-3v1h-6v-1h-1v-2h1v-2h1v-1h1v1h1v-1h1v-1h2V32z"/>
<path fill="#685850" d="M58,32h3v1h-3V32z"/>
<path fill="#685850" d="M78,32h1v1h-1V32z"/>
<path fill="#988050" d="M79,32h1v1h-1V32z"/>
<path fill="#E0B850" d="M80,32h1v1h1v1h1v-1h1v1h1v2h1v1h-1v1h-2v1h-3v1h-6v-1h-1v-2h1v-2h1v-1h1v1h1v-1h1v-1h2V32z"/>
<path fill="#685850" d="M81,32h3v1h-3V32z"/>
<path fill="#685850" d="M6,33h3v1H6V33z"/>
<path fill="#988050" d="M13,33h1v1h-1V33z"/>
<path fill="#685850" d="M15,33h1v1h-1V33z"/>
<path fill="#685850" d="M29,33h3v1h-3V33z"/>
<path fill="#988050" d="M36,33h1v1h-1V33z"/>
<path fill="#685850" d="M38,33h1v1h-1V33z"/>
<path fill="#685850" d="M52,33h3v1h-3V33z"/>
<path fill="#988050" d="M59,33h1v1h-1V33z"/>
<path fill="#685850" d="M61,33h1v1h-1V33z"/>
<path fill="#685850" d="M75,33h3v1h-3V33z"/>
<path fill="#988050" d="M82,33h1v1h-1V33z"/>
<path fill="#685850" d="M84,33h1v1h-1V33z"/>
<path fill="#685850" d="M5,34h1v1H5V34z"/>
<path fill="#988050" d="M7,34h1v1H7V34z"/>
<path fill="#685850" d="M16,34h1v2h-1V34z"/>
<path fill="#685850" d="M28,34h1v1h-1V34z"/>
<path fill="#988050" d="M30,34h1v1h-1V34z"/>
<path fill="#685850" d="M39,34h1v2h-1V34z"/>
<path fill="#685850" d="M51,34h1v1h-1V34z"/>
<path fill="#988050" d="M53,34h1v1h-1V34z"/>
<path fill="#685850" d="M62,34h1v2h-1V34z"/>
<path fill="#685850" d="M74,34h1v1h-1V34z"/>
<path fill="#988050" d="M76,34h1v1h-1V34z"/>
<path fill="#685850" d="M85,34h1v2h-1V34z"/>
<path fill="#685850" d="M4,35h1v2H4V35z"/>
<path fill="#685850" d="M27,35h1v2h-1V35z"/>
<path fill="#685850" d="M50,35h1v2h-1V35z"/>
<path fill="#685850" d="M73,35h1v2h-1V35z"/>
<path fill="#030303" d="M17,36h1v2h-1V36z"/>
<path fill="#030303" d="M40,36h1v2h-1V36z"/>
<path fill="#030303" d="M63,36h1v2h-1V36z"/>
<path fill="#030303" d="M86,36h1v2h-1V36z"/>
<path fill="#030303" d="M3,37h1v4H3V37z"/>
<path fill="#988050" d="M16,37h1v1h1v3h-2v-1h-3v3h-1v-2h-1v1h-1v1H9v2H7v-1H6v-1H5v-2H4v-2h1v1h6v-1h3v-1h2V37z"/>
<path fill="#030303" d="M26,37h1v4h-1V37z"/>
<path fill="#988050" d="M39,37h1v1h1v3h-2v-1h-3v3h-1v-2h-1v1h-1v1h-1v2h-2v-1h-1v-1h-1v-2h-1v-2h1v1h6v-1h3v-1h2V37z"/>
<path fill="#030303" d="M49,37h1v4h-1V37z"/>
<path fill="#988050" d="M62,37h1v1h1v3h-2v-1h-3v3h-1v-2h-1v1h-1v1h-1v2h-2v-1h-1v-1h-1v-2h-1v-2h1v1h6v-1h3v-1h2V37z"/>
<path fill="#030303" d="M72,37h1v4h-1V37z"/>
<path fill="#988050" d="M85,37h1v1h1v3h-2v-1h-3v3h-1v-2h-1v1h-1v1h-1v2h-2v-1h-1v-1h-1v-2h-1v-2h1v1h6v-1h3v-1h2V37z"/>
<path fill="#030303" d="M18,38h1v3h-1V38z"/>
<path fill="#030303" d="M41,38h1v3h-1V38z"/>
<path fill="#030303" d="M64,38h1v3h-1V38z"/>
<path fill="#030303" d="M87,38h1v3h-1V38z"/>
<path fill="#F8D0B8" d="M13,40h2v1h2v4h-1v1h-2v-1h-1V40z"/>
<path fill="#D89870" d="M15,40h1v1h-1V40z"/>
<path fill="#F8D0B8" d="M36,40h2v1h2v4h-1v1h-2v-1h-1V40z"/>
<path fill="#D89870" d="M38,40h1v1h-1V40z"/>
<path fill="#F8D0B8" d="M59,40h2v1h2v4h-1v1h-2v-1h-1V40z"/>
<path fill="#D89870" d="M61,40h1v1h-1V40z"/>
<path fill="#F8D0B8" d="M82,40h2v1h2v4h-1v1h-2v-1h-1V40z"/>
<path fill="#D89870" d="M84,40h1v1h-1V40z"/>
<path fill="#030303" d="M4,41h1v2H4V41z"/>
<path fill="#685850" d="M11,41h1v1h-1V41z"/>
<path fill="#030303" d="M17,41h1v1h-1V41z"/>
<path fill="#030303" d="M27,41h1v2h-1V41z"/>
<path fill="#685850" d="M34,41h1v1h-1V41z"/>
<path fill="#030303" d="M40,41h1v1h-1V41z"/>
<path fill="#030303" d="M50,41h1v2h-1V41z"/>
<path fill="#685850" d="M57,41h1v1h-1V41z"/>
<path fill="#030303" d="M63,41h1v1h-1V41z"/>
<path fill="#030303" d="M73,41h1v2h-1V41z"/>
<path fill="#685850" d="M80,41h1v1h-1V41z"/>
<path fill="#030303" d="M86,41h1v1h-1V41z"/>
<path fill="#685850" d="M10,42h1v1h-1V42z"/>
<path fill="#D89870" d="M11,42h1v1h1v2h1v1h-1v1h-1v-1h-1v-1h-1v-2h1V42z"/>
<path fill="#784040" d="M14,42h1v1h-1V42z"/>
<path fill="#784040" d="M17,42h1v2h-1V42z"/>
<path fill="#685850" d="M33,42h1v1h-1V42z"/>
<path fill="#D89870" d="M34,42h1v1h1v2h1v1h-1v1h-1v-1h-1v-1h-1v-2h1V42z"/>
<path fill="#784040" d="M37,42h1v1h-1V42z"/>
<path fill="#784040" d="M40,42h1v2h-1V42z"/>
<path fill="#685850" d="M56,42h1v1h-1V42z"/>
<path fill="#D89870" d="M57,42h1v1h1v2h1v1h-1v1h-1v-1h-1v-1h-1v-2h1V42z"/>
<path fill="#784040" d="M60,42h1v1h-1V42z"/>
<path fill="#784040" d="M63,42h1v2h-1V42z"/>
<path fill="#685850" d="M79,42h1v1h-1V42z"/>
<path fill="#D89870" d="M80,42h1v1h1v2h1v1h-1v1h-1v-1h-1v-1h-1v-2h1V42z"/>
<path fill="#784040" d="M83,42h1v1h-1V42z"/>
<path fill="#784040" d="M86,42h1v2h-1V42z"/>
<path fill="#030303" d="M5,43h1v1H5V43z"/>
<path fill="#685850" d="M9,43h1v2H9V43z"/>
<path fill="#030303" d="M15,43h1v1h-1V43z"/>
<path fill="#030303" d="M28,43h1v1h-1V43z"/>
<path fill="#685850" d="M32,43h1v2h-1V43z"/>
<path fill="#030303" d="M38,43h1v1h-1V43z"/>
<path fill="#030303" d="M51,43h1v1h-1V43z"/>
<path fill="#685850" d="M55,43h1v2h-1V43z"/>
<path fill="#030303" d="M61,43h1v1h-1V43z"/>
<path fill="#030303" d="M74,43h1v1h-1V43z"/>
<path fill="#685850" d="M78,43h1v2h-1V43z"/>
<path fill="#030303" d="M84,43h1v1h-1V43z"/>
<path fill="#030303" d="M6,44h1v1H6V44z"/>
<path fill="#D89870" d="M17,44h1v1h-1V44z"/>
<path fill="#030303" d="M29,44h1v1h-1V44z"/>
<path fill="#D89870" d="M40,44h1v1h-1V44z"/>
<path fill="#030303" d="M52,44h1v1h-1V44z"/>
<path fill="#D89870" d="M63,44h1v1h-1V44z"/>
<path fill="#030303" d="M75,44h1v1h-1V44z"/>
<path fill="#D89870" d="M86,44h1v1h-1V44z"/>
<path fill="#030303" d="M7,45h2v1H7V45z"/>
<path fill="#988050" d="M9,45h1v1H9V45z"/>
<path fill="#784040" d="M10,45h1v1h-1V45z"/>
<path fill="#784040" d="M16,45h1v1h-1V45z"/>
<path fill="#030303" d="M30,45h2v1h-2V45z"/>
<path fill="#988050" d="M32,45h1v1h-1V45z"/>
<path fill="#784040" d="M33,45h1v1h-1V45z"/>
<path fill="#784040" d="M39,45h1v1h-1V45z"/>
<path fill="#030303" d="M53,45h2v1h-2V45z"/>
<path fill="#988050" d="M55,45h1v1h-1V45z"/>
<path fill="#784040" d="M56,45h1v1h-1V45z"/>
<path fill="#784040" d="M62,45h1v1h-1V45z"/>
<path fill="#030303" d="M76,45h2v1h-2V45z"/>
<path fill="#988050" d="M78,45h1v1h-1V45z"/>
<path fill="#784040" d="M79,45h1v1h-1V45z"/>
<path fill="#784040" d="M85,45h1v1h-1V45z"/>
<path fill="#030303" d="M9,46h3v1h-2v1H9V46z"/>
<path fill="#784040" d="M13,46h3v1h-3V46z"/>
<path fill="#030303" d="M32,46h3v1h-2v1h-1V46z"/>
<path fill="#784040" d="M36,46h3v1h-3V46z"/>
<path fill="#030303" d="M55,46h3v1h-2v1h-1V46z"/>
<path fill="#784040" d="M59,46h3v1h-3V46z"/>
<path fill="#030303" d="M78,46h3v1h-2v1h-1V46z"/>
<path fill="#784040" d="M82,46h3v1h-3V46z"/>
<path fill="#784040" d="M10,47h2v1h-2V47z"/>
<path fill="#988050" d="M12,47h1v1h-1V47z"/>
<path fill="#E0B850" d="M13,47h1v1h-1V47z"/>
<path fill="#030303" d="M14,47h1v1h-1V47z"/>
<path fill="#784040" d="M33,47h2v1h-2V47z"/>
<path fill="#988050" d="M35,47h1v1h-1V47z"/>
<path fill="#E0B850" d="M36,47h1v1h-1V47z"/>
<path fill="#030303" d="M37,47h1v1h-1V47z"/>
<path fill="#784040" d="M56,47h2v1h-2V47z"/>
<path fill="#988050" d="M58,47h1v1h-1V47z"/>
<path fill="#E0B850" d="M59,47h1v1h-1V47z"/>
<path fill="#030303" d="M60,47h1v1h-1V47z"/>
<path fill="#686870" d="M79,47h1v1h-1V47z"/>
<path fill="#784040" d="M80,47h2v1h-2V47z"/>
<path fill="#E0B850" d="M82,47h1v1h-1V47z"/>
<path fill="#030303" d="M83,47h1v1h-1V47z"/>
<path fill="#403840" d="M9,48h1v2H9V48z"/>
<path fill="#F8D0B8" d="M10,48h2v1h-1v1h-1V48z"/>
<path fill="#784040" d="M12,48h1v2h-1V48z"/>
<path fill="#403840" d="M13,48h1v1h-1V48z"/>
<path fill="#E0B850" d="M14,48h1v1h-1V48z"/>
<path fill="#403840" d="M15,48h1v4h-2v-1h1v-1h-1v-1h1V48z"/>
<path fill="#403840" d="M32,48h1v1h-1V48z"/>
<path fill="#F8D0B8" d="M33,48h2v2h-1v-1h-1V48z"/>
<path fill="#784040" d="M35,48h1v2h-1V48z"/>
<path fill="#403840" d="M36,48h1v1h-1V48z"/>
<path fill="#E0B850" d="M37,48h1v1h-1V48z"/>
<path fill="#403840" d="M38,48h1v4h-4v-1h3v-1h-1v-1h1V48z"/>
<path fill="#403840" d="M55,48h1v2h-1V48z"/>
<path fill="#F8D0B8" d="M56,48h2v1h-1v1h-1V48z"/>
<path fill="#784040" d="M58,48h1v2h-1V48z"/>
<path fill="#403840" d="M59,48h1v1h-1V48z"/>
<path fill="#E0B850" d="M60,48h1v1h-1V48z"/>
<path fill="#403840" d="M61,48h1v4h-2v-1h1v-1h-1v-1h1V48z"/>
<path fill="#686870" d="M78,48h1v2h-1V48z"/>
<path fill="#403840" d="M79,48h1v3h-2v-1h1V48z"/>
<path fill="#F8D0B8" d="M80,48h2v1h-2V48z"/>
<path fill="#784040" d="M82,48h1v2h-1V48z"/>
<path fill="#E0B850" d="M83,48h1v1h-1V48z"/>
<path fill="#403840" d="M84,48h1v4h-1v-2h-1v-1h1V48z"/>
<path fill="#030303" d="M8,49h1v3H8V49z"/>
<path fill="#D89870" d="M11,49h1v1h-1V49z"/>
<path fill="#686870" d="M13,49h1v1h-1V49z"/>
<path fill="#030303" d="M31,49h1v3h-2v-1h1V49z"/>
<path fill="#D89870" d="M32,49h2v1h-2V49z"/>
<path fill="#686870" d="M36,49h1v1h1v1h-3v-1h1V49z"/>
<path fill="#030303" d="M54,49h1v3h-1V49z"/>
<path fill="#D89870" d="M57,49h1v1h-1V49z"/>
<path fill="#686870" d="M59,49h1v1h-1V49z"/>
<path fill="#030303" d="M77,49h1v2h-1V49z"/>
<path fill="#D89870" d="M80,49h2v1h-2V49z"/>
<path fill="#605070" d="M9,50h1v1H9V50z"/>
<path fill="#030303" d="M10,50h1v2h-1V50z"/>
<path fill="#F8D0B8" d="M11,50h2v1h-2V50z"/>
<path fill="#030303" d="M13,50h1v2h-1V50z"/>
<path fill="#686870" d="M14,50h1v1h-1V50z"/>
<path fill="#F8D0B8" d="M32,50h2v1h-2V50z"/>
<path fill="#030303" d="M34,50h1v2h-1V50z"/>
<path fill="#605070" d="M55,50h1v1h-1V50z"/>
<path fill="#030303" d="M56,50h1v2h-1V50z"/>
<path fill="#F8D0B8" d="M57,50h2v1h-2V50z"/>
<path fill="#030303" d="M59,50h1v2h-1V50z"/>
<path fill="#686870" d="M60,50h1v1h-1V50z"/>
<path fill="#030303" d="M80,50h1v2h-1V50z"/>
<path fill="#F8D0B8" d="M81,50h2v1h-2V50z"/>
<path fill="#030303" d="M83,50h1v2h-1V50z"/>
<path fill="#A06890" d="M9,51h1v1H9V51z"/>
<path fill="#D89870" d="M11,51h2v1h-2V51z"/>
<path fill="#D89870" d="M32,51h2v1h-2V51z"/>
<path fill="#A06890" d="M55,51h1v1h-1V51z"/>
<path fill="#D89870" d="M57,51h2v1h-2V51z"/>
<path fill="#030303" d="M76,51h1v2h-1V51z"/>
<path fill="#605070" d="M77,51h1v1h-1V51z"/>
<path fill="#A06890" d="M78,51h2v2h-1v1h-2v-2h1V51z"/>
<path fill="#D89870" d="M81,51h2v1h-2V51z"/>
<path fill="#030303" d="M9,52h1v2H9V52z"/>
<path fill="#A06890" d="M10,52h1v1h-1V52z"/>
<path fill="#030303" d="M11,52h2v1h-2V52z"/>
<path fill="#A06890" d="M13,52h1v1h-1V52z"/>
<path fill="#030303" d="M14,52h1v2h-1V52z"/>
<path fill="#030303" d="M29,52h1v3h-1V52z"/>
<path fill="#988050" d="M30,52h1v2h1v1h-2V52z"/>
<path fill="#605070" d="M31,52h1v1h-1V52z"/>
<path fill="#030303" d="M32,52h2v1h-2V52z"/>
<path fill="#A06890" d="M34,52h4v1h-1v1h-2v-1h-1V52z"/>
<path fill="#030303" d="M38,52h1v1h-1V52z"/>
<path fill="#030303" d="M55,52h1v2h-1V52z"/>
<path fill="#A06890" d="M56,52h1v1h-1V52z"/>
<path fill="#030303" d="M57,52h2v1h-2V52z"/>
<path fill="#A06890" d="M59,52h1v1h-1V52z"/>
<path fill="#030303" d="M60,52h1v2h-1V52z"/>
<path fill="#605070" d="M80,52h1v1h1v1h-3v-1h1V52z"/>
<path fill="#030303" d="M81,52h2v1h-2V52z"/>
<path fill="#605070" d="M83,52h1v1h-1V52z"/>
<path fill="#988050" d="M84,52h1v2h-3v-1h2V52z"/>
<path fill="#030303" d="M85,52h1v2h-1V52z"/>
<path fill="#988050" d="M10,53h4v1h-4V53z"/>
<path fill="#030303" d="M31,53h1v1h-1V53z"/>
<path fill="#605070" d="M32,53h3v1h-3V53z"/>
<path fill="#030303" d="M37,53h1v1h-1V53z"/>
<path fill="#E0B850" d="M38,53h2v1h-1v1h-3v-1h2V53z"/>
<path fill="#988050" d="M56,53h4v1h-4V53z"/>
<path fill="#030303" d="M75,53h1v2h-1V53z"/>
<path fill="#E0B850" d="M76,53h1v1h2v1h-3V53z"/>
<path fill="#030303" d="M10,54h4v1h-4V54z"/>
<path fill="#030303" d="M32,54h1v1h-1V54z"/>
<path fill="#030303" d="M34,54h2v1h-2V54z"/>
<path fill="#030303" d="M39,54h1v1h-1V54z"/>
<path fill="#030303" d="M56,54h4v1h-4V54z"/>
<path fill="#030303" d="M79,54h1v1h-1V54z"/>
<path fill="#030303" d="M82,54h3v1h-3V54z"/>
<path fill="#030303" d="M30,55h2v1h-2V55z"/>
<path fill="#030303" d="M36,55h3v1h-3V55z"/>
<path fill="#030303" d="M76,55h3v1h-3V55z"/>
</svg>
