<?xml version="1.0" encoding="utf-8"?>
<!-- Generator: Adobe Illustrator 16.0.4, SVG Export Plug-In . SVG Version: 6.00 Build 0)  -->
<!DOCTYPE svg PUBLIC "-//W3C//DTD SVG 1.1//EN" "http://www.w3.org/Graphics/SVG/1.1/DTD/svg11.dtd">
<svg version="1.1" id="Layer_1" xmlns="http://www.w3.org/2000/svg" xmlns:xlink="http://www.w3.org/1999/xlink" x="0px" y="0px"
	 width="92px" height="116px" viewBox="0 0 92 116" enable-background="new 0 0 92 116" xml:space="preserve">
<path fill="#784040" d="M9,2h5v1H9V2z"/>
<path fill="#784040" d="M7,3h2v1H7V3z"/>
<path fill="#E87060" d="M9,3h5v1h2v1h1v2h-1v1H7V7H6V5h1V4h2V3z"/>
<path fill="#784040" d="M14,3h2v1h-2V3z"/>
<path fill="#784040" d="M6,4h1v1H6V4z"/>
<path fill="#784040" d="M16,4h1v1h-1V4z"/>
<path fill="#030303" d="M5,5h1v3H5V5z"/>
<path fill="#030303" d="M17,5h1v3h-1V5z"/>
<path fill="#B05048" d="M6,7h1v1h9V7h1v2h-1v1H7V9H6V7z"/>
<path fill="#030303" d="M4,8h1v3H4V8z"/>
<path fill="#403040" d="M5,8h1v1H5V8z"/>
<path fill="#403040" d="M17,8h1v1h-1V8z"/>
<path fill="#030303" d="M18,8h1v2h-1V8z"/>
<path fill="#604848" d="M5,9h1v1H5V9z"/>
<path fill="#784040" d="M6,9h1v1H6V9z"/>
<path fill="#784040" d="M16,9h1v1h-1V9z"/>
<path fill="#604848" d="M17,9h1v1h-1V9z"/>
<path fill="#403040" d="M5,10h1v2H5V10z"/>
<path fill="#604848" d="M6,10h1v1h9v-1h1v2H6V10z"/>
<path fill="#784040" d="M7,10h9v1H7V10z"/>
<path fill="#403040" d="M17,10h2v1h-1v1h-1V10z"/>
<path fill="#030303" d="M3,11h1v2H3V11z"/>
<path fill="#D89870" d="M4,11h1v1h1v2H5v-1H4V11z"/>
<path fill="#D89870" d="M18,11h1v2h-1v1h-1v-2h1V11z"/>
<path fill="#030303" d="M19,11h1v2h-1V11z"/>
<path fill="#403040" d="M6,12h1v2H6V12z"/>
<path fill="#D89870" d="M7,12h9v2h1v1h-1v1h-1v-3H8v3H7v-1H6v-1h1V12z"/>
<path fill="#403040" d="M16,12h1v2h-1V12z"/>
<path fill="#030303" d="M4,13h1v1H4V13z"/>
<path fill="#A8A8D8" d="M8,13h1v1H8V13z"/>
<path fill="#387058" d="M9,13h1v1H9V13z"/>
<path fill="#F8D0B8" d="M10,13h3v2h2v1h-1v1h-2v-1h-1v1H9v-1H8v-1h2V13z"/>
<path fill="#387058" d="M13,13h1v1h-1V13z"/>
<path fill="#A8A8D8" d="M14,13h1v1h-1V13z"/>
<path fill="#030303" d="M18,13h1v1h-1V13z"/>
<path fill="#030303" d="M5,14h1v1H5V14z"/>
<path fill="#E8E8F8" d="M8,14h1v1H8V14z"/>
<path fill="#030303" d="M9,14h1v1H9V14z"/>
<path fill="#030303" d="M13,14h1v1h-1V14z"/>
<path fill="#E8E8F8" d="M14,14h1v1h-1V14z"/>
<path fill="#030303" d="M17,14h1v1h-1V14z"/>
<path fill="#784040" d="M6,15h1v1H6V15z"/>
<path fill="#784040" d="M16,15h1v1h-1V15z"/>
<path fill="#030303" d="M6,16h1v1H6V16z"/>
<path fill="#784040" d="M7,16h1v1H7V16z"/>
<path fill="#D89870" d="M8,16h1v1H8V16z"/>
<path fill="#D89870" d="M11,16h1v1h1v1h-3v-1h1V16z"/>
<path fill="#D89870" d="M14,16h1v1h-1V16z"/>
<path fill="#784040" d="M15,16h1v1h-1V16z"/>
<path fill="#030303" d="M16,16h1v1h-1V16z"/>
<path fill="#030303" d="M5,17h1v1H5V17z"/>
<path fill="#B0B0C0" d="M6,17h1v1H6V17z"/>
<path fill="#E8E8F8" d="M7,17h1v2H7V17z"/>
<path fill="#030303" d="M8,17h1v1H8V17z"/>
<path fill="#784040" d="M9,17h1v1H9V17z"/>
<path fill="#784040" d="M13,17h1v1h-1V17z"/>
<path fill="#030303" d="M14,17h1v1h-1V17z"/>
<path fill="#E8E8F8" d="M15,17h1v2h-1V17z"/>
<path fill="#B0B0C0" d="M16,17h1v1h-1V17z"/>
<path fill="#030303" d="M17,17h1v1h-1V17z"/>
<path fill="#030303" d="M4,18h1v1H4V18z"/>
<path fill="#D89870" d="M5,18h1v1h1v1H5V18z"/>
<path fill="#585060" d="M6,18h1v1H6V18z"/>
<path fill="#784040" d="M8,18h1v1H8V18z"/>
<path fill="#B05048" d="M9,18h1v2H8v-1h1V18z"/>
<path fill="#784040" d="M10,18h3v2h-1v-1h-1v1h-1V18z"/>
<path fill="#B05048" d="M13,18h1v1h1v1h-2V18z"/>
<path fill="#784040" d="M14,18h1v1h-1V18z"/>
<path fill="#585060" d="M16,18h1v1h-1V18z"/>
<path fill="#D89870" d="M17,18h1v2h-2v-1h1V18z"/>
<path fill="#030303" d="M18,18h1v1h-1V18z"/>
<path fill="#784040" d="M3,19h1v1H3V19z"/>
<path fill="#F8D0B8" d="M4,19h1v1H4V19z"/>
<path fill="#030303" d="M7,19h1v1H7V19z"/>
<path fill="#B0B0C0" d="M11,19h1v1h-1V19z"/>
<path fill="#030303" d="M15,19h1v1h-1V19z"/>
<path fill="#F8D0B8" d="M18,19h1v1h-1V19z"/>
<path fill="#784040" d="M19,19h1v1h-1V19z"/>
<path fill="#303030" d="M3,20h17v1H3V20z"/>
<path fill="#CDCDCD" d="M3,21h17v5H3V21z"/>
<path fill="#784040" d="M8,31h5v1H8V31z"/>
<path fill="#784040" d="M6,32h2v1H6V32z"/>
<path fill="#E87060" d="M8,32h5v1h2v1h1v1h-1v1h-2v1H8v-1H6v-1H5v-1h1v-1h2V32z"/>
<path fill="#784040" d="M13,32h2v1h-2V32z"/>
<path fill="#784040" d="M5,33h1v1H5V33z"/>
<path fill="#784040" d="M15,33h1v1h-1V33z"/>
<path fill="#030303" d="M4,34h1v4H4V34z"/>
<path fill="#784040" d="M16,34h1v4h-1V34z"/>
<path fill="#B05048" d="M5,35h1v1h2v1h5v-1h2v-1h1v3h-2v1H7v-1H5V35z"/>
<path fill="#403040" d="M17,37h1v3h-1v-1h-1v-1h1V37z"/>
<path fill="#403040" d="M4,38h1v1h2v1H5v2H4V38z"/>
<path fill="#030303" d="M5,38h2v1H5V38z"/>
<path fill="#784040" d="M14,38h2v1h-2V38z"/>
<path fill="#030303" d="M7,39h7v1H7V39z"/>
<path fill="#403040" d="M14,39h2v1h-2V39z"/>
<path fill="#D89870" d="M16,39h1v5h-1v-2h-2v-1h2V39z"/>
<path fill="#604848" d="M5,40h2v1H6v1H5V40z"/>
<path fill="#403040" d="M7,40h7v1H7V40z"/>
<path fill="#604848" d="M14,40h2v1h-2V40z"/>
<path fill="#784040" d="M17,40h1v4h-1V40z"/>
<path fill="#403040" d="M6,41h1v1H6V41z"/>
<path fill="#604848" d="M7,41h7v1h-1v1h-1v-1h-1v1h-1v1H8v-1H7v1H6v-2h1V41z"/>
<path fill="#403040" d="M5,42h1v1H5V42z"/>
<path fill="#D89870" d="M11,42h1v1h1v-1h1v2h-2v1h1v2h-1v-1h-1v-1h-1v-2h1V42z"/>
<path fill="#A8A8D8" d="M14,42h1v1h-1V42z"/>
<path fill="#387058" d="M15,42h1v1h-1V42z"/>
<path fill="#030303" d="M5,43h1v1H5V43z"/>
<path fill="#403040" d="M7,43h1v1h2v2H9v-1H7V43z"/>
<path fill="#E8E8F8" d="M14,43h1v1h-1V43z"/>
<path fill="#030303" d="M15,43h1v1h-1V43z"/>
<path fill="#030303" d="M6,44h1v1H6V44z"/>
<path fill="#F8D0B8" d="M12,44h5v1h-1v1h-3v-1h-1V44z"/>
<path fill="#D89870" d="M17,44h1v1h-1V44z"/>
<path fill="#030303" d="M7,45h2v1H7V45z"/>
<path fill="#784040" d="M10,45h1v1h-1V45z"/>
<path fill="#784040" d="M16,45h1v1h-1V45z"/>
<path fill="#784040" d="M9,46h1v1H9V46z"/>
<path fill="#030303" d="M10,46h2v1h-2V46z"/>
<path fill="#303040" d="M13,46h1v1h-1V46z"/>
<path fill="#784040" d="M14,46h2v1h-2V46z"/>
<path fill="#030303" d="M8,47h1v2H8V47z"/>
<path fill="#B05048" d="M9,47h1v2H9V47z"/>
<path fill="#585060" d="M10,47h1v1h-1V47z"/>
<path fill="#B0B0C0" d="M11,47h1v1h-1V47z"/>
<path fill="#B05048" d="M12,47h2v2h-1v-1h-1V47z"/>
<path fill="#585060" d="M14,47h1v1h-1V47z"/>
<path fill="#E8E8F8" d="M10,48h2v1h-2V48z"/>
<path fill="#585060" d="M12,48h1v1h-1V48z"/>
<path fill="#B0B0C0" d="M14,48h1v1h-1V48z"/>
<path fill="#585060" d="M15,48h1v1h-1V48z"/>
<path fill="#303030" d="M8,49h8v1H8V49z"/>
<path fill="#CDCDCD" d="M8,50h8v5H8V50z"/>
<path fill="#784040" d="M9,89h5v1H9V89z"/>
<path fill="#784040" d="M7,90h2v1H7V90z"/>
<path fill="#E87060" d="M9,90h5v1h2v1h1v1h-1v1h-2v1H9v-1H7v-1H6v-1h1v-1h2V90z"/>
<path fill="#784040" d="M14,90h2v1h-2V90z"/>
<path fill="#784040" d="M6,91h1v1H6V91z"/>
<path fill="#784040" d="M16,91h1v1h-1V91z"/>
<path fill="#784040" d="M5,92h1v4H5V92z"/>
<path fill="#040404" d="M17,92h1v4h-1V92z"/>
<path fill="#B05048" d="M6,93h1v1h2v1h5v-1h2v-1h1v3h-2v1H8v-1H6V93z"/>
<path fill="#403040" d="M4,95h1v1h1v1H5v1H4V95z"/>
<path fill="#784040" d="M6,96h2v1H6V96z"/>
<path fill="#040404" d="M15,96h2v1h-2V96z"/>
<path fill="#403040" d="M17,96h1v4h-1v-2h-2v-1h2V96z"/>
<path fill="#D89870" d="M5,97h1v2h2v1H6v2H5V97z"/>
<path fill="#403040" d="M6,97h2v1H6V97z"/>
<path fill="#040404" d="M8,97h7v1H8V97z"/>
<path fill="#784040" d="M4,98h1v4H4V98z"/>
<path fill="#604848" d="M6,98h2v1H6V98z"/>
<path fill="#403040" d="M8,98h7v1H8V98z"/>
<path fill="#604848" d="M15,98h2v2h-1v-1h-1V98z"/>
<path fill="#604848" d="M8,99h7v1h1v2h-1v-1h-1v1h-2v-1h-1v-1h-1v1H9v-1H8V99z"/>
<path fill="#403040" d="M15,99h1v1h-1V99z"/>
<path fill="#387058" d="M6,100h1v1H6V100z"/>
<path fill="#A8A8D8" d="M7,100h1v1H7V100z"/>
<path fill="#D89870" d="M8,100h1v1h1v-1h1v1h1v2h-1v1h-1v1H9v-2h1v-1H8V100z"/>
<path fill="#403040" d="M16,100h1v1h-1V100z"/>
<path fill="#040404" d="M6,101h1v1H6V101z"/>
<path fill="#E8E8F8" d="M7,101h1v1H7V101z"/>
<path fill="#403040" d="M14,101h1v2h-2v1h-1v-2h2V101z"/>
<path fill="#040404" d="M16,101h1v1h-1V101z"/>
<path fill="#D89870" d="M4,102h1v1H4V102z"/>
<path fill="#F8D0B8" d="M5,102h5v1H9v1H6v-1H5V102z"/>
<path fill="#040404" d="M15,102h1v1h-1V102z"/>
<path fill="#784040" d="M5,103h1v1H5V103z"/>
<path fill="#784040" d="M11,103h1v1h-1V103z"/>
<path fill="#040404" d="M13,103h2v1h-2V103z"/>
<path fill="#784040" d="M6,104h2v1H6V104z"/>
<path fill="#303040" d="M8,104h1v1H8V104z"/>
<path fill="#040404" d="M10,104h2v1h-2V104z"/>
<path fill="#784040" d="M12,104h1v1h-1V104z"/>
<path fill="#585060" d="M7,105h1v1H7V105z"/>
<path fill="#B05048" d="M8,105h2v1H9v1H8V105z"/>
<path fill="#B0B0C0" d="M10,105h1v1h-1V105z"/>
<path fill="#585060" d="M11,105h1v1h-1V105z"/>
<path fill="#B05048" d="M12,105h1v2h-1V105z"/>
<path fill="#040404" d="M13,105h1v2h-1V105z"/>
<path fill="#585060" d="M6,106h1v1H6V106z"/>
<path fill="#B0B0C0" d="M7,106h1v1H7V106z"/>
<path fill="#585060" d="M9,106h1v1H9V106z"/>
<path fill="#E8E8F8" d="M10,106h2v1h-2V106z"/>
<path fill="#303030" d="M6,107h8v1H6V107z"/>
<path fill="#CDCDCD" d="M6,108h8v5H6V108z"/>
</svg>
