<?xml version="1.0" encoding="utf-8"?>
<!-- Generator: Adobe Illustrator 16.0.4, SVG Export Plug-In . SVG Version: 6.00 Build 0)  -->
<!DOCTYPE svg PUBLIC "-//W3C//DTD SVG 1.1//EN" "http://www.w3.org/Graphics/SVG/1.1/DTD/svg11.dtd">
<svg version="1.1" id="Layer_1" xmlns="http://www.w3.org/2000/svg" xmlns:xlink="http://www.w3.org/1999/xlink" x="0px" y="0px"
	 width="92px" height="116px" viewBox="0 0 92 116" enable-background="new 0 0 92 116" xml:space="preserve">
<path fill="#784040" d="M9,2h5v1H9V2z"/>
<path fill="#784040" d="M32,2h5v1h-5V2z"/>
<path fill="#784040" d="M55,2h5v1h-5V2z"/>
<path fill="#784040" d="M78,2h5v1h-5V2z"/>
<path fill="#784040" d="M7,3h2v1H7V3z"/>
<path fill="#E87060" d="M9,3h5v1h2v1h1v2h-1v1h-2v1H9V8H7V7H6V5h1V4h2V3z"/>
<path fill="#784040" d="M14,3h2v1h-2V3z"/>
<path fill="#784040" d="M30,3h2v1h-2V3z"/>
<path fill="#E87060" d="M32,3h5v1h2v1h1v2h-1v1h-2v1h-5V8h-2V7h-1V5h1V4h2V3z"/>
<path fill="#784040" d="M37,3h2v1h-2V3z"/>
<path fill="#784040" d="M53,3h2v1h-2V3z"/>
<path fill="#E87060" d="M55,3h5v1h2v1h1v2h-1v1h-2v1h-5V8h-2V7h-1V5h1V4h2V3z"/>
<path fill="#784040" d="M60,3h2v1h-2V3z"/>
<path fill="#784040" d="M76,3h2v1h-2V3z"/>
<path fill="#E87060" d="M78,3h5v1h2v1h1v2h-1v1h-2v1h-5V8h-2V7h-1V5h1V4h2V3z"/>
<path fill="#784040" d="M83,3h2v1h-2V3z"/>
<path fill="#784040" d="M6,4h1v1H6V4z"/>
<path fill="#784040" d="M16,4h1v1h-1V4z"/>
<path fill="#784040" d="M29,4h1v1h-1V4z"/>
<path fill="#784040" d="M39,4h1v1h-1V4z"/>
<path fill="#784040" d="M52,4h1v1h-1V4z"/>
<path fill="#784040" d="M62,4h1v1h-1V4z"/>
<path fill="#784040" d="M75,4h1v1h-1V4z"/>
<path fill="#784040" d="M85,4h1v1h-1V4z"/>
<path fill="#020202" d="M5,5h1v1H5V5z"/>
<path fill="#010101" d="M17,5h1v1h-1V5z"/>
<path fill="#020202" d="M28,5h1v2h-1V5z"/>
<path fill="#010101" d="M40,5h1v3h-1V5z"/>
<path fill="#010101" d="M51,5h1v4h-1V5z"/>
<path fill="#010101" d="M63,5h1v1h-1V5z"/>
<path fill="#010101" d="M74,5h1v4h-1V5z"/>
<path fill="#020202" d="M86,5h1v1h-1V5z"/>
<path fill="#010101" d="M5,6h1v3H5V6z"/>
<path fill="#020202" d="M17,6h1v3h-1V6z"/>
<path fill="#020202" d="M63,6h1v1h-1V6z"/>
<path fill="#010101" d="M86,6h1v3h-1V6z"/>
<path fill="#B05048" d="M6,7h1v1h2v1h5V8h2V7h1v2h-1v1h-1v1H8v-1H7V9H6V7z"/>
<path fill="#010101" d="M28,7h1v2h-1V7z"/>
<path fill="#B05048" d="M29,7h1v1h2v1h5V8h2V7h1v2h-1v1h-1v1h-7v-1h-1V9h-1V7z"/>
<path fill="#B05048" d="M52,7h1v1h2v1h5V8h2V7h1v2h-1v1h-1v1h-7v-1h-1V9h-1V7z"/>
<path fill="#010101" d="M63,7h1v1h-1V7z"/>
<path fill="#B05048" d="M75,7h1v1h2v1h5V8h2V7h1v2h-1v1h-1v1h-7v-1h-1V9h-1V7z"/>
<path fill="#020202" d="M40,8h1v1h-1V8z"/>
<path fill="#020202" d="M63,8h1v1h-1V8z"/>
<path fill="#010101" d="M4,9h1v2H4V9z"/>
<path fill="#383030" d="M5,9h1v2H5V9z"/>
<path fill="#010101" d="M6,9h1v2H6V9z"/>
<path fill="#010101" d="M16,9h1v2h-1V9z"/>
<path fill="#383030" d="M17,9h1v1h-1V9z"/>
<path fill="#010101" d="M18,9h1v1h-1V9z"/>
<path fill="#020202" d="M27,9h1v1h-1V9z"/>
<path fill="#383130" d="M28,9h1v1h-1V9z"/>
<path fill="#020202" d="M29,9h1v1h-1V9z"/>
<path fill="#010101" d="M39,9h1v2h-1V9z"/>
<path fill="#373030" d="M40,9h1v1h-1V9z"/>
<path fill="#010101" d="M41,9h1v1h-1V9z"/>
<path fill="#010101" d="M50,9h1v2h-1V9z"/>
<path fill="#373030" d="M51,9h1v3h-1V9z"/>
<path fill="#020202" d="M52,9h1v1h-1V9z"/>
<path fill="#010101" d="M62,9h1v1h-1V9z"/>
<path fill="#383030" d="M63,9h1v3h-1V9z"/>
<path fill="#010101" d="M64,9h1v2h-1V9z"/>
<path fill="#010101" d="M73,9h1v1h-1V9z"/>
<path fill="#373030" d="M74,9h1v1h-1V9z"/>
<path fill="#010101" d="M75,9h1v2h-1V9z"/>
<path fill="#010101" d="M85,9h1v2h-1V9z"/>
<path fill="#383030" d="M86,9h1v3h-1V9z"/>
<path fill="#010101" d="M87,9h1v1h-1V9z"/>
<path fill="#E8B960" d="M7,10h1v1H7V10z"/>
<path fill="#E8B860" d="M15,10h1v1h-1V10z"/>
<path fill="#373030" d="M17,10h1v1h-1V10z"/>
<path fill="#020202" d="M18,10h1v1h-1V10z"/>
<path fill="#010101" d="M27,10h1v1h-1V10z"/>
<path fill="#373030" d="M28,10h1v1h-1V10z"/>
<path fill="#010101" d="M29,10h1v1h-1V10z"/>
<path fill="#E8B860" d="M30,10h1v1h-1V10z"/>
<path fill="#E8B960" d="M38,10h1v1h-1V10z"/>
<path fill="#383030" d="M40,10h1v2h-1V10z"/>
<path fill="#020202" d="M41,10h1v1h-1V10z"/>
<path fill="#010101" d="M52,10h1v1h-1V10z"/>
<path fill="#E8B860" d="M53,10h1v1h-1V10z"/>
<path fill="#E8B860" d="M61,10h1v1h-1V10z"/>
<path fill="#020202" d="M62,10h1v1h-1V10z"/>
<path fill="#020202" d="M73,10h1v1h-1V10z"/>
<path fill="#37302F" d="M74,10h1v1h-1V10z"/>
<path fill="#E8B860" d="M76,10h1v1h-1V10z"/>
<path fill="#E7B860" d="M84,10h1v1h-1V10z"/>
<path fill="#020202" d="M87,10h1v1h-1V10z"/>
<path fill="#010101" d="M3,11h1v2H3V11z"/>
<path fill="#D89870" d="M4,11h1v1h1v1H4V11z"/>
<path fill="#383130" d="M5,11h1v1H5V11z"/>
<path fill="#684F48" d="M6,11h1v1H6V11z"/>
<path fill="#010101" d="M7,11h1v1H7V11z"/>
<path fill="#A08961" d="M8,11h1v1H8V11z"/>
<path fill="#E8B860" d="M9,11h2v1H9V11z"/>
<path fill="#E8B960" d="M11,11h1v1h-1V11z"/>
<path fill="#E8B860" d="M12,11h1v1h-1V11z"/>
<path fill="#E8B960" d="M13,11h1v1h-1V11z"/>
<path fill="#9F8860" d="M14,11h1v1h-1V11z"/>
<path fill="#020202" d="M15,11h1v1h-1V11z"/>
<path fill="#684F48" d="M16,11h1v1h-1V11z"/>
<path fill="#383030" d="M17,11h1v1h-1V11z"/>
<path fill="#D79770" d="M18,11h1v2h-1V11z"/>
<path fill="#010101" d="M19,11h1v1h-1V11z"/>
<path fill="#010101" d="M26,11h1v2h-1V11z"/>
<path fill="#D89870" d="M27,11h1v1h-1V11z"/>
<path fill="#383030" d="M28,11h1v1h-1V11z"/>
<path fill="#695049" d="M29,11h1v1h-1V11z"/>
<path fill="#010101" d="M30,11h1v1h-1V11z"/>
<path fill="#A08961" d="M31,11h1v1h-1V11z"/>
<path fill="#E8B860" d="M32,11h1v1h-1V11z"/>
<path fill="#E8B960" d="M33,11h2v1h-2V11z"/>
<path fill="#E8B860" d="M35,11h2v1h-2V11z"/>
<path fill="#A08860" d="M37,11h1v1h-1V11z"/>
<path fill="#010101" d="M38,11h1v1h-1V11z"/>
<path fill="#684F48" d="M39,11h1v1h-1V11z"/>
<path fill="#D7976F" d="M41,11h1v1h-1V11z"/>
<path fill="#010101" d="M42,11h1v2h-1V11z"/>
<path fill="#020202" d="M49,11h1v1h-1V11z"/>
<path fill="#D79770" d="M50,11h1v2h-1V11z"/>
<path fill="#695048" d="M52,11h1v1h-1V11z"/>
<path fill="#010101" d="M53,11h1v1h-1V11z"/>
<path fill="#A08860" d="M54,11h1v1h-1V11z"/>
<path fill="#E8B860" d="M55,11h2v1h-2V11z"/>
<path fill="#E7B860" d="M57,11h1v1h-1V11z"/>
<path fill="#E8B960" d="M58,11h1v1h-1V11z"/>
<path fill="#E7B860" d="M59,11h1v1h-1V11z"/>
<path fill="#A08860" d="M60,11h1v1h-1V11z"/>
<path fill="#010101" d="M61,11h1v1h-1V11z"/>
<path fill="#684F48" d="M62,11h1v1h-1V11z"/>
<path fill="#D89870" d="M64,11h1v2h-1V11z"/>
<path fill="#010101" d="M65,11h1v2h-1V11z"/>
<path fill="#010101" d="M72,11h1v2h-1V11z"/>
<path fill="#D89870" d="M73,11h1v1h-1V11z"/>
<path fill="#383030" d="M74,11h1v1h-1V11z"/>
<path fill="#695049" d="M75,11h1v1h-1V11z"/>
<path fill="#020202" d="M76,11h1v1h-1V11z"/>
<path fill="#A08860" d="M77,11h1v1h-1V11z"/>
<path fill="#E8B860" d="M78,11h1v1h-1V11z"/>
<path fill="#E8B960" d="M79,11h1v1h-1V11z"/>
<path fill="#E7B860" d="M80,11h2v1h-2V11z"/>
<path fill="#E8B960" d="M82,11h1v1h-1V11z"/>
<path fill="#A08961" d="M83,11h1v1h-1V11z"/>
<path fill="#020202" d="M84,11h1v1h-1V11z"/>
<path fill="#684F48" d="M85,11h1v1h-1V11z"/>
<path fill="#D7976F" d="M87,11h1v1h-1V11z"/>
<path fill="#010101" d="M88,11h1v2h-1V11z"/>
<path fill="#373030" d="M6,12h1v1H6V12z"/>
<path fill="#D79770" d="M7,12h1v1H7V12z"/>
<path fill="#010101" d="M8,12h2v1H8V12z"/>
<path fill="#020202" d="M10,12h1v1h-1V12z"/>
<path fill="#010101" d="M11,12h1v1h-1V12z"/>
<path fill="#020202" d="M12,12h1v1h-1V12z"/>
<path fill="#010101" d="M13,12h2v1h-2V12z"/>
<path fill="#D89870" d="M15,12h1v2h1v1h-1v1h-1V12z"/>
<path fill="#383030" d="M16,12h1v1h-1V12z"/>
<path fill="#D89870" d="M17,12h1v2h-1V12z"/>
<path fill="#020202" d="M19,12h1v1h-1V12z"/>
<path fill="#D79770" d="M27,12h1v1h-1V12z"/>
<path fill="#D89870" d="M28,12h1v2h-1V12z"/>
<path fill="#37302F" d="M29,12h1v1h-1V12z"/>
<path fill="#D89770" d="M30,12h1v1h-1V12z"/>
<path fill="#010101" d="M31,12h7v1h-7V12z"/>
<path fill="#D89870" d="M38,12h1v2h-1V12z"/>
<path fill="#373030" d="M39,12h1v2h-1V12z"/>
<path fill="#D7976F" d="M40,12h1v2h-1V12z"/>
<path fill="#D79770" d="M41,12h1v1h-1V12z"/>
<path fill="#010101" d="M49,12h1v1h-1V12z"/>
<path fill="#D89870" d="M51,12h1v1h-1V12z"/>
<path fill="#373030" d="M52,12h1v1h-1V12z"/>
<path fill="#D7976F" d="M53,12h1v1h-1V12z"/>
<path fill="#010101" d="M54,12h4v1h-4V12z"/>
<path fill="#020202" d="M58,12h1v1h-1V12z"/>
<path fill="#010101" d="M59,12h2v1h-2V12z"/>
<path fill="#D79770" d="M61,12h1v1h-1V12z"/>
<path fill="#373030" d="M62,12h1v1h-1V12z"/>
<path fill="#D79770" d="M63,12h1v1h-1V12z"/>
<path fill="#D79770" d="M73,12h1v1h-1V12z"/>
<path fill="#D89870" d="M74,12h1v1h-1V12z"/>
<path fill="#37302F" d="M75,12h1v1h-1V12z"/>
<path fill="#D79770" d="M76,12h1v1h-1V12z"/>
<path fill="#020202" d="M77,12h1v1h-1V12z"/>
<path fill="#010101" d="M78,12h4v1h-4V12z"/>
<path fill="#020202" d="M82,12h1v1h-1V12z"/>
<path fill="#010101" d="M83,12h1v1h-1V12z"/>
<path fill="#D79770" d="M84,12h1v2h-1V12z"/>
<path fill="#383030" d="M85,12h1v1h-1V12z"/>
<path fill="#D89770" d="M86,12h1v1h-1V12z"/>
<path fill="#D89870" d="M87,12h1v1h-1V12z"/>
<path fill="#010101" d="M4,13h1v1H4V13z"/>
<path fill="#D7976F" d="M5,13h1v1H5V13z"/>
<path fill="#383030" d="M6,13h1v1H6V13z"/>
<path fill="#D7976F" d="M7,13h1v1H7V13z"/>
<path fill="#B0B0C0" d="M8,13h1v1H8V13z"/>
<path fill="#695049" d="M9,13h1v1H9V13z"/>
<path fill="#D89870" d="M10,13h1v1h1v1h-2V13z"/>
<path fill="#D7976F" d="M11,13h1v1h-1V13z"/>
<path fill="#D89770" d="M12,13h1v1h-1V13z"/>
<path fill="#695049" d="M13,13h1v1h-1V13z"/>
<path fill="#B0B0C0" d="M14,13h1v1h-1V13z"/>
<path fill="#373030" d="M16,13h1v1h-1V13z"/>
<path fill="#010101" d="M18,13h1v1h-1V13z"/>
<path fill="#010101" d="M27,13h1v1h-1V13z"/>
<path fill="#383030" d="M29,13h1v1h-1V13z"/>
<path fill="#D89870" d="M30,13h1v3h-1v-1h-1v-1h1V13z"/>
<path fill="#B0B0C0" d="M31,13h1v1h-1V13z"/>
<path fill="#695049" d="M32,13h1v1h-1V13z"/>
<path fill="#D89870" d="M33,13h2v1h-2V13z"/>
<path fill="#D7976F" d="M35,13h1v1h-1V13z"/>
<path fill="#695049" d="M36,13h1v1h-1V13z"/>
<path fill="#B0B1C1" d="M37,13h1v1h-1V13z"/>
<path fill="#010101" d="M41,13h1v1h-1V13z"/>
<path fill="#010101" d="M50,13h1v1h-1V13z"/>
<path fill="#D79770" d="M51,13h1v1h-1V13z"/>
<path fill="#383030" d="M52,13h1v1h-1V13z"/>
<path fill="#D89870" d="M53,13h1v1h-1V13z"/>
<path fill="#AFB0C0" d="M54,13h1v1h-1V13z"/>
<path fill="#695049" d="M55,13h1v1h-1V13z"/>
<path fill="#D79770" d="M56,13h1v1h-1V13z"/>
<path fill="#D7976F" d="M57,13h1v1h-1V13z"/>
<path fill="#D89870" d="M58,13h1v1h-1V13z"/>
<path fill="#695049" d="M59,13h1v1h-1V13z"/>
<path fill="#AFB0C0" d="M60,13h1v1h-1V13z"/>
<path fill="#D89870" d="M61,13h1v3h-1V13z"/>
<path fill="#383030" d="M62,13h1v1h-1V13z"/>
<path fill="#D89870" d="M63,13h1v1h-1V13z"/>
<path fill="#010101" d="M64,13h1v1h-1V13z"/>
<path fill="#020202" d="M73,13h1v1h-1V13z"/>
<path fill="#D7976F" d="M74,13h1v1h-1V13z"/>
<path fill="#383030" d="M75,13h1v1h-1V13z"/>
<path fill="#D89870" d="M76,13h1v3h-1v-1h-1v-1h1V13z"/>
<path fill="#AFB0C0" d="M77,13h1v1h-1V13z"/>
<path fill="#695049" d="M78,13h1v1h-1V13z"/>
<path fill="#D89870" d="M79,13h2v2h-2V13z"/>
<path fill="#D79770" d="M81,13h1v2h-1V13z"/>
<path fill="#695049" d="M82,13h1v1h-1V13z"/>
<path fill="#B0B0C0" d="M83,13h1v1h-1V13z"/>
<path fill="#383130" d="M85,13h1v1h-1V13z"/>
<path fill="#D7976F" d="M86,13h1v1h-1V13z"/>
<path fill="#010101" d="M87,13h1v1h-1V13z"/>
<path fill="#010101" d="M5,14h1v1H5V14z"/>
<path fill="#D89770" d="M6,14h1v1H6V14z"/>
<path fill="#D89870" d="M7,14h1v2H7V14z"/>
<path fill="#E8E8F8" d="M8,14h1v1H8V14z"/>
<path fill="#010101" d="M9,14h1v1H9V14z"/>
<path fill="#D7976F" d="M12,14h1v1h-1V14z"/>
<path fill="#010101" d="M13,14h1v1h-1V14z"/>
<path fill="#E8E8F8" d="M14,14h1v1h-1V14z"/>
<path fill="#010101" d="M17,14h1v1h-1V14z"/>
<path fill="#010101" d="M28,14h1v1h-1V14z"/>
<path fill="#E8E8F8" d="M31,14h1v1h-1V14z"/>
<path fill="#010101" d="M32,14h1v1h-1V14z"/>
<path fill="#D7976F" d="M33,14h1v1h-1V14z"/>
<path fill="#D79770" d="M34,14h2v1h-2V14z"/>
<path fill="#010101" d="M36,14h1v1h-1V14z"/>
<path fill="#E8E8F8" d="M37,14h1v1h-1V14z"/>
<path fill="#D79770" d="M38,14h2v1h-2V14z"/>
<path fill="#010101" d="M40,14h1v1h-1V14z"/>
<path fill="#010101" d="M51,14h1v1h-1V14z"/>
<path fill="#D89870" d="M52,14h1v1h-1V14z"/>
<path fill="#D79770" d="M53,14h1v2h-1V14z"/>
<path fill="#E8E8F8" d="M54,14h1v1h-1V14z"/>
<path fill="#010101" d="M55,14h1v1h-1V14z"/>
<path fill="#D89870" d="M56,14h2v1h-2V14z"/>
<path fill="#D7976F" d="M58,14h1v1h-1V14z"/>
<path fill="#010101" d="M59,14h1v1h-1V14z"/>
<path fill="#E8E8F8" d="M60,14h1v1h-1V14z"/>
<path fill="#D89770" d="M62,14h1v1h-1V14z"/>
<path fill="#010101" d="M63,14h1v1h-1V14z"/>
<path fill="#010101" d="M74,14h1v1h-1V14z"/>
<path fill="#E8E8F8" d="M77,14h1v1h-1V14z"/>
<path fill="#010101" d="M78,14h1v1h-1V14z"/>
<path fill="#010101" d="M82,14h1v1h-1V14z"/>
<path fill="#E8E8F8" d="M83,14h1v1h-1V14z"/>
<path fill="#D89870" d="M84,14h1v1h-1V14z"/>
<path fill="#D79770" d="M85,14h1v1h-1V14z"/>
<path fill="#010101" d="M86,14h1v1h-1V14z"/>
<path fill="#783F40" d="M6,15h1v1H6V15z"/>
<path fill="#F8D0B9" d="M8,15h1v1H8V15z"/>
<path fill="#F8D0B8" d="M9,15h2v2H9V15z"/>
<path fill="#F8D0B9" d="M11,15h1v1h-1V15z"/>
<path fill="#F8D0B8" d="M12,15h3v1h-3V15z"/>
<path fill="#784040" d="M16,15h1v1h-1V15z"/>
<path fill="#783F40" d="M29,15h1v1h-1V15z"/>
<path fill="#F8CFB8" d="M31,15h1v1h-1V15z"/>
<path fill="#F8D0B9" d="M32,15h1v1h-1V15z"/>
<path fill="#F8D0B8" d="M33,15h1v2h-2v-1h1V15z"/>
<path fill="#F8D0B9" d="M34,15h1v1h-1V15z"/>
<path fill="#F8D0B8" d="M35,15h1v1h-1V15z"/>
<path fill="#F8D0B9" d="M36,15h2v1h-1v1h-1V15z"/>
<path fill="#D89870" d="M38,15h1v1h-1V15z"/>
<path fill="#783F40" d="M39,15h1v1h-1V15z"/>
<path fill="#783F40" d="M52,15h1v1h-1V15z"/>
<path fill="#F8D0B8" d="M54,15h1v1h-1V15z"/>
<path fill="#F8CFB8" d="M55,15h1v1h-1V15z"/>
<path fill="#F8D0B8" d="M56,15h1v1h-1V15z"/>
<path fill="#F8D0B9" d="M57,15h1v1h-1V15z"/>
<path fill="#F8D0B8" d="M58,15h2v1h-1v1h-1V15z"/>
<path fill="#F8CFB8" d="M60,15h1v1h-1V15z"/>
<path fill="#783F40" d="M62,15h1v1h-1V15z"/>
<path fill="#794040" d="M75,15h1v1h-1V15z"/>
<path fill="#F8D0B8" d="M77,15h2v2h-1v-1h-1V15z"/>
<path fill="#F7CFB8" d="M79,15h2v1h-2V15z"/>
<path fill="#F8D0B8" d="M81,15h1v1h1v1h-2V15z"/>
<path fill="#F8D0B9" d="M82,15h2v1h-2V15z"/>
<path fill="#D7976F" d="M84,15h1v1h-1V15z"/>
<path fill="#794040" d="M85,15h1v1h-1V15z"/>
<path fill="#020202" d="M6,16h1v1H6V16z"/>
<path fill="#783F3F" d="M7,16h1v1H7V16z"/>
<path fill="#D79770" d="M8,16h1v1H8V16z"/>
<path fill="#D7976F" d="M11,16h1v1h-1V16z"/>
<path fill="#F8CFB8" d="M12,16h1v1h-1V16z"/>
<path fill="#F8D0B9" d="M13,16h1v1h-1V16z"/>
<path fill="#D89870" d="M14,16h1v1h-1V16z"/>
<path fill="#783F40" d="M15,16h1v1h-1V16z"/>
<path fill="#010101" d="M16,16h1v1h-1V16z"/>
<path fill="#010101" d="M29,16h1v1h-1V16z"/>
<path fill="#783F40" d="M30,16h1v1h-1V16z"/>
<path fill="#D89870" d="M31,16h1v1h-1V16z"/>
<path fill="#D89870" d="M34,16h1v2h-2v-1h1V16z"/>
<path fill="#F7CFB8" d="M35,16h1v1h-1V16z"/>
<path fill="#D89770" d="M37,16h1v1h-1V16z"/>
<path fill="#794040" d="M38,16h1v1h-1V16z"/>
<path fill="#010101" d="M39,16h1v2h-1V16z"/>
<path fill="#010101" d="M52,16h1v1h-1V16z"/>
<path fill="#783F40" d="M53,16h1v1h-1V16z"/>
<path fill="#D89870" d="M54,16h1v1h-1V16z"/>
<path fill="#F7CFB8" d="M55,16h1v1h-1V16z"/>
<path fill="#F8CFB8" d="M56,16h1v1h-1V16z"/>
<path fill="#D7976F" d="M57,16h1v2h-1V16z"/>
<path fill="#F8D0B9" d="M59,16h1v1h-1V16z"/>
<path fill="#D89870" d="M60,16h1v1h-1V16z"/>
<path fill="#783F40" d="M61,16h1v1h-1V16z"/>
<path fill="#010101" d="M62,16h1v1h-1V16z"/>
<path fill="#010101" d="M75,16h1v2h-1V16z"/>
<path fill="#784040" d="M76,16h1v1h-1V16z"/>
<path fill="#D89870" d="M77,16h1v1h-1V16z"/>
<path fill="#F8CFB8" d="M79,16h1v1h-1V16z"/>
<path fill="#D7976F" d="M80,16h1v1h-1V16z"/>
<path fill="#D89870" d="M83,16h1v1h-1V16z"/>
<path fill="#783F40" d="M84,16h1v1h-1V16z"/>
<path fill="#010101" d="M85,16h1v1h-1V16z"/>
<path fill="#010101" d="M5,17h1v1H5V17z"/>
<path fill="#A08860" d="M6,17h1v1H6V17z"/>
<path fill="#A08961" d="M7,17h1v1H7V17z"/>
<path fill="#010101" d="M8,17h1v2H8V17z"/>
<path fill="#783F3F" d="M9,17h1v1H9V17z"/>
<path fill="#D79770" d="M10,17h1v1h-1V17z"/>
<path fill="#D89870" d="M11,17h1v1h-1V17z"/>
<path fill="#D7976F" d="M12,17h1v1h-1V17z"/>
<path fill="#783F3F" d="M13,17h1v1h-1V17z"/>
<path fill="#020202" d="M14,17h1v2h-1V17z"/>
<path fill="#A08860" d="M15,17h1v1h-1V17z"/>
<path fill="#9F8860" d="M16,17h1v1h-1V17z"/>
<path fill="#010101" d="M17,17h1v1h-1V17z"/>
<path fill="#606060" d="M27,17h1v1h-1V17z"/>
<path fill="#020202" d="M28,17h1v1h-1V17z"/>
<path fill="#B05048" d="M29,17h1v1h1v1h-2V17z"/>
<path fill="#A08860" d="M30,17h1v1h-1V17z"/>
<path fill="#010101" d="M31,17h1v2h-1V17z"/>
<path fill="#783F40" d="M32,17h1v1h-1V17z"/>
<path fill="#D7976F" d="M35,17h1v1h-1V17z"/>
<path fill="#784040" d="M36,17h1v1h-1V17z"/>
<path fill="#010101" d="M37,17h1v2h-1V17z"/>
<path fill="#9F8860" d="M38,17h1v1h-1V17z"/>
<path fill="#010101" d="M51,17h1v1h-1V17z"/>
<path fill="#A08961" d="M52,17h1v1h-1V17z"/>
<path fill="#9F8860" d="M53,17h1v1h-1V17z"/>
<path fill="#010101" d="M54,17h1v2h-1V17z"/>
<path fill="#784040" d="M55,17h1v1h-1V17z"/>
<path fill="#D89870" d="M56,17h1v1h-1V17z"/>
<path fill="#D89870" d="M58,17h1v1h-1V17z"/>
<path fill="#783F3F" d="M59,17h1v1h-1V17z"/>
<path fill="#020202" d="M60,17h1v1h-1V17z"/>
<path fill="#A08961" d="M61,17h1v1h-1V17z"/>
<path fill="#9F8860" d="M62,17h1v1h-1V17z"/>
<path fill="#010101" d="M63,17h1v1h-1V17z"/>
<path fill="#A08860" d="M76,17h1v1h-1V17z"/>
<path fill="#020202" d="M77,17h1v1h-1V17z"/>
<path fill="#794040" d="M78,17h1v1h-1V17z"/>
<path fill="#D89870" d="M79,17h2v1h-2V17z"/>
<path fill="#D7976F" d="M81,17h1v1h-1V17z"/>
<path fill="#783F40" d="M82,17h1v1h-1V17z"/>
<path fill="#010101" d="M83,17h1v2h-1V17z"/>
<path fill="#A08861" d="M84,17h1v1h-1V17z"/>
<path fill="#B05048" d="M85,17h1v2h-2v-1h1V17z"/>
<path fill="#010101" d="M86,17h1v1h-1V17z"/>
<path fill="#5F5F5F" d="M87,17h1v1h-1V17z"/>
<path fill="#010101" d="M4,18h1v1H4V18z"/>
<path fill="#B05048" d="M5,18h3v1H7v1H5V18z"/>
<path fill="#E87060" d="M9,18h1v1H9V18z"/>
<path fill="#783F40" d="M10,18h1v1h-1V18z"/>
<path fill="#783F3F" d="M11,18h1v1h-1V18z"/>
<path fill="#794040" d="M12,18h1v1h-1V18z"/>
<path fill="#E87060" d="M13,18h1v1h-1V18z"/>
<path fill="#B05048" d="M15,18h3v2h-2v-1h-1V18z"/>
<path fill="#010101" d="M18,18h1v1h-1V18z"/>
<path fill="#5F5F5F" d="M26,18h1v2h-1V18z"/>
<path fill="#AFB0C0" d="M27,18h1v1h-1V18z"/>
<path fill="#606060" d="M28,18h1v1h-1V18z"/>
<path fill="#E87060" d="M32,18h1v1h-1V18z"/>
<path fill="#784040" d="M33,18h1v1h-1V18z"/>
<path fill="#783F3F" d="M34,18h1v1h-1V18z"/>
<path fill="#783F40" d="M35,18h1v1h-1V18z"/>
<path fill="#E87060" d="M36,18h1v1h-1V18z"/>
<path fill="#E87060" d="M38,18h2v2h-2V18z"/>
<path fill="#010101" d="M40,18h1v2h-1V18z"/>
<path fill="#020202" d="M50,18h1v1h-1V18z"/>
<path fill="#B05048" d="M51,18h3v1h-1v1h-2V18z"/>
<path fill="#E87060" d="M55,18h1v1h-1V18z"/>
<path fill="#794040" d="M56,18h1v1h-1V18z"/>
<path fill="#783F40" d="M57,18h1v1h-1V18z"/>
<path fill="#794040" d="M58,18h1v1h-1V18z"/>
<path fill="#E87060" d="M59,18h1v1h-1V18z"/>
<path fill="#010101" d="M60,18h1v1h-1V18z"/>
<path fill="#B05048" d="M61,18h3v2h-2v-1h-1V18z"/>
<path fill="#010101" d="M64,18h1v1h-1V18z"/>
<path fill="#010101" d="M74,18h1v2h-1V18z"/>
<path fill="#E87060" d="M75,18h2v2h-2V18z"/>
<path fill="#010101" d="M77,18h1v1h-1V18z"/>
<path fill="#E87060" d="M78,18h1v1h-1V18z"/>
<path fill="#783F3F" d="M79,18h3v1h-3V18z"/>
<path fill="#E87060" d="M82,18h1v1h-1V18z"/>
<path fill="#606060" d="M86,18h1v1h-1V18z"/>
<path fill="#AFB0C0" d="M87,18h1v2h-2v-1h1V18z"/>
<path fill="#606060" d="M88,18h1v1h-1V18z"/>
<path fill="#606060" d="M3,19h1v2H3V19z"/>
<path fill="#E7E8F8" d="M4,19h1v1H4V19z"/>
<path fill="#010101" d="M7,19h1v2H7V19z"/>
<path fill="#B05048" d="M8,19h1v1H8V19z"/>
<path fill="#E8B860" d="M9,19h1v1H9V19z"/>
<path fill="#E87060" d="M10,19h3v1h2v1h-2v1h-3v-1H8v-1h2V19z"/>
<path fill="#E7B85F" d="M13,19h1v1h-1V19z"/>
<path fill="#B05048" d="M14,19h1v1h-1V19z"/>
<path fill="#010101" d="M15,19h1v2h-1V19z"/>
<path fill="#E8E8F8" d="M18,19h1v1h-1V19z"/>
<path fill="#606060" d="M19,19h1v1h-1V19z"/>
<path fill="#B0B1C1" d="M27,19h2v1h-2V19z"/>
<path fill="#784040" d="M29,19h1v1h-1V19z"/>
<path fill="#010101" d="M30,19h1v2h-1V19z"/>
<path fill="#B05048" d="M31,19h1v1h-1V19z"/>
<path fill="#E8B860" d="M32,19h1v1h-1V19z"/>
<path fill="#E87060" d="M33,19h3v1h2v1h-2v1h-3v-1h-2v-1h2V19z"/>
<path fill="#E8B860" d="M36,19h1v1h-1V19z"/>
<path fill="#B05048" d="M37,19h1v1h-1V19z"/>
<path fill="#606060" d="M49,19h1v2h-1V19z"/>
<path fill="#E8E9F8" d="M50,19h1v1h-1V19z"/>
<path fill="#010101" d="M53,19h1v2h-1V19z"/>
<path fill="#B05048" d="M54,19h1v1h-1V19z"/>
<path fill="#E8B860" d="M55,19h1v1h-1V19z"/>
<path fill="#E87060" d="M56,19h3v1h2v1h-2v1h-3v-1h-2v-1h2V19z"/>
<path fill="#E8B860" d="M59,19h1v1h-1V19z"/>
<path fill="#B05048" d="M60,19h1v1h-1V19z"/>
<path fill="#020202" d="M61,19h1v1h-1V19z"/>
<path fill="#E8E8F8" d="M64,19h1v1h-1V19z"/>
<path fill="#606060" d="M65,19h1v2h-1V19z"/>
<path fill="#B05048" d="M77,19h1v1h-1V19z"/>
<path fill="#E8B960" d="M78,19h1v1h-1V19z"/>
<path fill="#E87060" d="M79,19h3v1h2v1h-2v1h-3v-1h-2v-1h2V19z"/>
<path fill="#E8B960" d="M82,19h1v1h-1V19z"/>
<path fill="#B05048" d="M83,19h1v1h-1V19z"/>
<path fill="#010101" d="M84,19h1v2h-1V19z"/>
<path fill="#784040" d="M85,19h1v1h-1V19z"/>
<path fill="#5F5F5F" d="M88,19h1v1h-1V19z"/>
<path fill="#AFB0C0" d="M4,20h2v1H4V20z"/>
<path fill="#606060" d="M6,20h1v1H6V20z"/>
<path fill="#606060" d="M16,20h1v1h-1V20z"/>
<path fill="#B0B1C1" d="M17,20h1v1h-1V20z"/>
<path fill="#AFB0C0" d="M18,20h1v1h-1V20z"/>
<path fill="#5F5F5F" d="M19,20h1v1h-1V20z"/>
<path fill="#784040" d="M27,20h2v1h-2V20z"/>
<path fill="#505888" d="M29,20h1v1h-1V20z"/>
<path fill="#B05048" d="M38,20h1v1h-1V20z"/>
<path fill="#E8E8F8" d="M39,20h2v1h-2V20z"/>
<path fill="#5F5F5F" d="M41,20h1v2h-1V20z"/>
<path fill="#AFB0C0" d="M50,20h1v1h-1V20z"/>
<path fill="#B0B0C0" d="M51,20h1v1h-1V20z"/>
<path fill="#5F5F5F" d="M52,20h1v1h-1V20z"/>
<path fill="#010101" d="M61,20h1v1h-1V20z"/>
<path fill="#606060" d="M62,20h1v1h-1V20z"/>
<path fill="#AFB0C0" d="M63,20h1v1h-1V20z"/>
<path fill="#B0B0C1" d="M64,20h1v1h-1V20z"/>
<path fill="#606060" d="M73,20h1v2h-1V20z"/>
<path fill="#E8E9F8" d="M74,20h1v1h-1V20z"/>
<path fill="#E8E8F8" d="M75,20h1v1h-1V20z"/>
<path fill="#B05048" d="M76,20h1v1h-1V20z"/>
<path fill="#505888" d="M85,20h1v1h-1V20z"/>
<path fill="#784040" d="M86,20h2v1h-2V20z"/>
<path fill="#606060" d="M4,21h1v1H4V21z"/>
<path fill="#5F5F5F" d="M5,21h1v1H5V21z"/>
<path fill="#010101" d="M6,21h1v4H6V21z"/>
<path fill="#784040" d="M7,21h1v1H7V21z"/>
<path fill="#B05048" d="M8,21h1v1H8V21z"/>
<path fill="#E8B860" d="M9,21h1v1H9V21z"/>
<path fill="#E8B860" d="M13,21h1v1h-1V21z"/>
<path fill="#B05048" d="M14,21h1v1h-1V21z"/>
<path fill="#2F2F48" d="M15,21h1v1h-1V21z"/>
<path fill="#010101" d="M16,21h1v2h-1V21z"/>
<path fill="#5F5F5F" d="M17,21h1v1h-1V21z"/>
<path fill="#606060" d="M18,21h1v1h-1V21z"/>
<path fill="#010101" d="M29,21h1v3h-1V21z"/>
<path fill="#784040" d="M30,21h1v1h-1V21z"/>
<path fill="#B05048" d="M31,21h1v1h-1V21z"/>
<path fill="#E8B860" d="M32,21h1v1h-1V21z"/>
<path fill="#E8B960" d="M36,21h1v1h-1V21z"/>
<path fill="#B05048" d="M37,21h1v1h1v1h-2V21z"/>
<path fill="#784040" d="M38,21h1v1h-1V21z"/>
<path fill="#AFB0C0" d="M39,21h2v1h-2V21z"/>
<path fill="#606060" d="M50,21h2v1h-2V21z"/>
<path fill="#010101" d="M52,21h1v4h-1V21z"/>
<path fill="#784040" d="M53,21h1v1h-1V21z"/>
<path fill="#B05048" d="M54,21h1v1h-1V21z"/>
<path fill="#E8B860" d="M55,21h1v1h-1V21z"/>
<path fill="#E8B860" d="M59,21h1v1h-1V21z"/>
<path fill="#B05048" d="M60,21h1v1h-1V21z"/>
<path fill="#784040" d="M61,21h1v1h-1V21z"/>
<path fill="#010101" d="M62,21h1v4h-1V21z"/>
<path fill="#606060" d="M63,21h1v1h-1V21z"/>
<path fill="#5F5F5F" d="M64,21h1v1h-1V21z"/>
<path fill="#AFB0C0" d="M74,21h1v1h-1V21z"/>
<path fill="#B0B1C1" d="M75,21h1v1h-1V21z"/>
<path fill="#784040" d="M76,21h1v1h-1V21z"/>
<path fill="#B05048" d="M77,21h1v2h-2v-1h1V21z"/>
<path fill="#E8B860" d="M78,21h1v1h-1V21z"/>
<path fill="#E8B960" d="M82,21h1v1h-1V21z"/>
<path fill="#B05048" d="M83,21h1v1h-1V21z"/>
<path fill="#784040" d="M84,21h1v1h-1V21z"/>
<path fill="#010101" d="M85,21h1v2h-1V21z"/>
<path fill="#E87060" d="M7,22h1v1H7V22z"/>
<path fill="#784040" d="M8,22h7v1H8V22z"/>
<path fill="#E87060" d="M15,22h1v1h-1V22z"/>
<path fill="#E87060" d="M30,22h1v1h-1V22z"/>
<path fill="#784040" d="M31,22h6v1h-6V22z"/>
<path fill="#010101" d="M39,22h2v1h-2V22z"/>
<path fill="#E87060" d="M53,22h1v1h-1V22z"/>
<path fill="#784040" d="M54,22h7v1h-7V22z"/>
<path fill="#E87060" d="M61,22h1v1h-1V22z"/>
<path fill="#010101" d="M74,22h2v1h-2V22z"/>
<path fill="#784040" d="M78,22h6v1h-6V22z"/>
<path fill="#E87060" d="M84,22h1v1h-1V22z"/>
<path fill="#B05048" d="M7,23h1v1H7V23z"/>
<path fill="#E87060" d="M8,23h3v1H8V23z"/>
<path fill="#B05048" d="M11,23h1v1h-1V23z"/>
<path fill="#E87060" d="M12,23h3v1h-3V23z"/>
<path fill="#B05048" d="M15,23h1v1h-1V23z"/>
<path fill="#020202" d="M16,23h1v2h-1V23z"/>
<path fill="#B05048" d="M30,23h1v1h-1V23z"/>
<path fill="#E87060" d="M31,23h3v1h-1v1h-2V23z"/>
<path fill="#B05048" d="M34,23h3v1h-3V23z"/>
<path fill="#010101" d="M37,23h2v1h-2V23z"/>
<path fill="#B05048" d="M53,23h1v1h-1V23z"/>
<path fill="#E87060" d="M54,23h3v1h-3V23z"/>
<path fill="#B05048" d="M57,23h1v1h-1V23z"/>
<path fill="#E87060" d="M58,23h3v1h-3V23z"/>
<path fill="#B05048" d="M61,23h1v1h-1V23z"/>
<path fill="#010101" d="M76,23h2v1h-2V23z"/>
<path fill="#B05048" d="M78,23h3v1h-3V23z"/>
<path fill="#E87060" d="M81,23h3v2h-2v-1h-1V23z"/>
<path fill="#B05048" d="M84,23h1v1h-1V23z"/>
<path fill="#020202" d="M85,23h1v1h-1V23z"/>
<path fill="#373030" d="M7,24h1v1H7V24z"/>
<path fill="#383030" d="M8,24h1v1H8V24z"/>
<path fill="#020202" d="M9,24h1v1H9V24z"/>
<path fill="#010101" d="M10,24h1v1h-1V24z"/>
<path fill="#020202" d="M11,24h3v1h-3V24z"/>
<path fill="#383030" d="M14,24h2v1h-2V24z"/>
<path fill="#020202" d="M30,24h1v1h-1V24z"/>
<path fill="#B05048" d="M33,24h1v1h-1V24z"/>
<path fill="#010101" d="M34,24h2v1h-2V24z"/>
<path fill="#020202" d="M36,24h1v1h-1V24z"/>
<path fill="#373030" d="M53,24h1v1h-1V24z"/>
<path fill="#383030" d="M54,24h1v1h-1V24z"/>
<path fill="#020202" d="M55,24h1v1h-1V24z"/>
<path fill="#010101" d="M56,24h4v1h-4V24z"/>
<path fill="#373030" d="M60,24h1v1h-1V24z"/>
<path fill="#37302F" d="M61,24h1v1h-1V24z"/>
<path fill="#010101" d="M78,24h3v1h-3V24z"/>
<path fill="#B05048" d="M81,24h1v1h-1V24z"/>
<path fill="#010101" d="M84,24h1v3h-1V24z"/>
<path fill="#010101" d="M7,25h2v1H7V25z"/>
<path fill="#010101" d="M14,25h2v1h-2V25z"/>
<path fill="#010101" d="M30,25h1v2h-1V25z"/>
<path fill="#383030" d="M31,25h3v1h-3V25z"/>
<path fill="#010101" d="M53,25h1v1h-1V25z"/>
<path fill="#020202" d="M54,25h1v1h-1V25z"/>
<path fill="#010101" d="M60,25h1v1h-1V25z"/>
<path fill="#020202" d="M61,25h1v1h-1V25z"/>
<path fill="#373030" d="M81,25h1v1h-1V25z"/>
<path fill="#37302F" d="M82,25h1v1h-1V25z"/>
<path fill="#373030" d="M83,25h1v1h-1V25z"/>
<path fill="#684F48" d="M31,26h1v1h-1V26z"/>
<path fill="#695048" d="M32,26h1v1h-1V26z"/>
<path fill="#010101" d="M33,26h1v1h-1V26z"/>
<path fill="#010101" d="M81,26h1v1h-1V26z"/>
<path fill="#684F48" d="M82,26h2v1h-2V26z"/>
<path fill="#010101" d="M31,27h2v1h-2V27z"/>
<path fill="#020202" d="M82,27h1v1h-1V27z"/>
<path fill="#010101" d="M83,27h1v1h-1V27z"/>
<path fill="#784040" d="M11,31h4v1h-4V31z"/>
<path fill="#784040" d="M34,31h4v1h-4V31z"/>
<path fill="#784040" d="M57,31h4v1h-4V31z"/>
<path fill="#784040" d="M80,31h4v1h-4V31z"/>
<path fill="#784040" d="M8,32h3v1H8V32z"/>
<path fill="#E87060" d="M11,32h4v1h1v1h-1v1h-2v1h-3v1H7v1H4v-2h1v-1h1v-1h2v-1h3V32z"/>
<path fill="#784040" d="M15,32h1v1h-1V32z"/>
<path fill="#784040" d="M31,32h3v1h-3V32z"/>
<path fill="#E87060" d="M34,32h4v1h1v1h-1v1h-2v1h-3v1h-3v1h-3v-2h1v-1h1v-1h2v-1h3V32z"/>
<path fill="#784040" d="M38,32h1v1h-1V32z"/>
<path fill="#784040" d="M54,32h3v1h-3V32z"/>
<path fill="#E87060" d="M57,32h4v1h1v1h-1v1h-2v1h-3v1h-3v1h-3v-2h1v-1h1v-1h2v-1h3V32z"/>
<path fill="#784040" d="M61,32h1v1h-1V32z"/>
<path fill="#784040" d="M77,32h3v1h-3V32z"/>
<path fill="#E87060" d="M80,32h4v1h1v1h-1v1h-2v1h-3v1h-3v1h-3v-2h1v-1h1v-1h2v-1h3V32z"/>
<path fill="#784040" d="M84,32h1v1h-1V32z"/>
<path fill="#784040" d="M6,33h2v1H6V33z"/>
<path fill="#784040" d="M16,33h1v1h-1V33z"/>
<path fill="#784040" d="M29,33h2v1h-2V33z"/>
<path fill="#784040" d="M39,33h1v1h-1V33z"/>
<path fill="#784040" d="M52,33h2v1h-2V33z"/>
<path fill="#784040" d="M62,33h1v1h-1V33z"/>
<path fill="#784040" d="M75,33h2v1h-2V33z"/>
<path fill="#2F2F48" d="M85,33h1v1h-1V33z"/>
<path fill="#784040" d="M4,34h2v1H4V34z"/>
<path fill="#B05048" d="M15,34h1v5h-3v1H9v1H6v-1H5v-2h2v-1h3v-1h3v-1h2V34z"/>
<path fill="#010101" d="M16,34h1v3h-1V34z"/>
<path fill="#784040" d="M27,34h2v1h-2V34z"/>
<path fill="#B05048" d="M38,34h1v5h-3v1h-4v1h-3v-1h-1v-2h2v-1h3v-1h3v-1h2V34z"/>
<path fill="#010101" d="M39,34h1v3h-1V34z"/>
<path fill="#784040" d="M50,34h2v1h-2V34z"/>
<path fill="#B05048" d="M61,34h1v5h-3v1h-4v1h-3v-1h-1v-2h2v-1h3v-1h3v-1h2V34z"/>
<path fill="#010101" d="M62,34h1v2h-1V34z"/>
<path fill="#784040" d="M73,34h2v1h-2V34z"/>
<path fill="#B05048" d="M84,34h1v5h-3v1h-4v1h-3v-1h-1v-2h2v-1h3v-1h3v-1h2V34z"/>
<path fill="#020202" d="M85,34h1v1h-1V34z"/>
<path fill="#010101" d="M3,35h1v3H3V35z"/>
<path fill="#B05048" d="M4,35h1v1H4V35z"/>
<path fill="#010101" d="M26,35h1v2h-1V35z"/>
<path fill="#B05048" d="M27,35h1v1h-1V35z"/>
<path fill="#010101" d="M49,35h1v2h-1V35z"/>
<path fill="#B05048" d="M50,35h1v1h-1V35z"/>
<path fill="#010101" d="M72,35h1v3h-1V35z"/>
<path fill="#B05048" d="M73,35h1v1h-1V35z"/>
<path fill="#010101" d="M85,35h1v2h-1V35z"/>
<path fill="#020202" d="M62,36h1v1h-1V36z"/>
<path fill="#784040" d="M16,37h1v1h-1V37z"/>
<path fill="#020202" d="M17,37h1v1h-1V37z"/>
<path fill="#020202" d="M26,37h1v1h-1V37z"/>
<path fill="#784040" d="M39,37h1v1h-1V37z"/>
<path fill="#010101" d="M40,37h1v2h-1V37z"/>
<path fill="#020202" d="M49,37h1v1h-1V37z"/>
<path fill="#784040" d="M62,37h1v1h-1V37z"/>
<path fill="#010101" d="M63,37h1v2h-1V37z"/>
<path fill="#784040" d="M85,37h1v1h-1V37z"/>
<path fill="#010101" d="M86,37h1v2h-1V37z"/>
<path fill="#010101" d="M4,38h1v2H4V38z"/>
<path fill="#E8B960" d="M16,38h1v1h-1V38z"/>
<path fill="#010101" d="M17,38h1v1h-1V38z"/>
<path fill="#010101" d="M27,38h1v2h-1V38z"/>
<path fill="#E8B860" d="M39,38h1v1h-1V38z"/>
<path fill="#010101" d="M50,38h1v2h-1V38z"/>
<path fill="#E8B860" d="M62,38h1v1h-1V38z"/>
<path fill="#010101" d="M73,38h1v2h-1V38z"/>
<path fill="#E8B960" d="M85,38h1v1h-1V38z"/>
<path fill="#E8B860" d="M13,39h2v1h-2V39z"/>
<path fill="#A08860" d="M15,39h1v1h-1V39z"/>
<path fill="#010101" d="M16,39h1v1h-1V39z"/>
<path fill="#783F40" d="M17,39h1v1h-1V39z"/>
<path fill="#E8B960" d="M36,39h1v1h-1V39z"/>
<path fill="#E8B860" d="M37,39h1v1h-1V39z"/>
<path fill="#A08860" d="M38,39h1v1h-1V39z"/>
<path fill="#010101" d="M39,39h1v1h-1V39z"/>
<path fill="#794040" d="M40,39h1v1h-1V39z"/>
<path fill="#E7B85F" d="M59,39h1v1h-1V39z"/>
<path fill="#E8B860" d="M60,39h1v1h-1V39z"/>
<path fill="#A08961" d="M61,39h1v1h-1V39z"/>
<path fill="#010101" d="M62,39h1v1h-1V39z"/>
<path fill="#794040" d="M63,39h1v2h-1V39z"/>
<path fill="#E8B960" d="M82,39h1v1h-1V39z"/>
<path fill="#E8B860" d="M83,39h1v1h-1V39z"/>
<path fill="#A08860" d="M84,39h1v1h-1V39z"/>
<path fill="#020202" d="M85,39h1v1h-1V39z"/>
<path fill="#783F40" d="M86,39h1v1h-1V39z"/>
<path fill="#010101" d="M5,40h1v3H5V40z"/>
<path fill="#E8B860" d="M9,40h2v1H9V40z"/>
<path fill="#E8B960" d="M11,40h1v1h-1V40z"/>
<path fill="#A08961" d="M12,40h1v1h-1V40z"/>
<path fill="#010101" d="M13,40h1v1h-1V40z"/>
<path fill="#020202" d="M14,40h2v1h-2V40z"/>
<path fill="#D89870" d="M16,40h1v4h-1V40z"/>
<path fill="#784040" d="M17,40h1v1h-1V40z"/>
<path fill="#010101" d="M28,40h1v1h-1V40z"/>
<path fill="#E8B860" d="M32,40h3v1h-3V40z"/>
<path fill="#9F8860" d="M35,40h1v1h-1V40z"/>
<path fill="#010101" d="M36,40h3v1h-3V40z"/>
<path fill="#D7976F" d="M39,40h1v1h-1V40z"/>
<path fill="#783F40" d="M40,40h1v1h-1V40z"/>
<path fill="#010101" d="M51,40h1v3h-1V40z"/>
<path fill="#E8B960" d="M55,40h1v1h-1V40z"/>
<path fill="#E7B85F" d="M56,40h1v1h-1V40z"/>
<path fill="#E8B960" d="M57,40h1v1h-1V40z"/>
<path fill="#A08860" d="M58,40h1v1h-1V40z"/>
<path fill="#010101" d="M59,40h1v1h-1V40z"/>
<path fill="#020202" d="M60,40h2v1h-2V40z"/>
<path fill="#D7976F" d="M62,40h1v1h-1V40z"/>
<path fill="#010101" d="M74,40h1v3h-1V40z"/>
<path fill="#E7B860" d="M78,40h3v1h-3V40z"/>
<path fill="#A08860" d="M81,40h1v1h-1V40z"/>
<path fill="#010101" d="M82,40h3v1h-3V40z"/>
<path fill="#D79770" d="M85,40h1v1h-1V40z"/>
<path fill="#784040" d="M86,40h1v1h-1V40z"/>
<path fill="#9F8860" d="M6,41h1v1H6V41z"/>
<path fill="#A08860" d="M7,41h1v1H7V41z"/>
<path fill="#9F8860" d="M8,41h1v1H8V41z"/>
<path fill="#010101" d="M9,41h3v1H9V41z"/>
<path fill="#020202" d="M12,41h1v1h-1V41z"/>
<path fill="#D89870" d="M13,41h1v3h-4v-1h1v-1h1v1h1V41z"/>
<path fill="#684F48" d="M14,41h1v1h-1V41z"/>
<path fill="#D89770" d="M15,41h1v1h-1V41z"/>
<path fill="#783F3F" d="M17,41h1v1h-1V41z"/>
<path fill="#020202" d="M28,41h1v1h-1V41z"/>
<path fill="#A08961" d="M29,41h1v1h-1V41z"/>
<path fill="#A08860" d="M30,41h2v1h-2V41z"/>
<path fill="#020202" d="M32,41h1v1h-1V41z"/>
<path fill="#010101" d="M33,41h3v1h-3V41z"/>
<path fill="#D7976F" d="M36,41h1v2h-1V41z"/>
<path fill="#684F48" d="M37,41h1v1h-1V41z"/>
<path fill="#D7976F" d="M38,41h1v1h-1V41z"/>
<path fill="#D89870" d="M39,41h1v1h-1V41z"/>
<path fill="#794040" d="M40,41h1v1h-1V41z"/>
<path fill="#A08860" d="M52,41h1v1h-1V41z"/>
<path fill="#9F8860" d="M53,41h1v1h-1V41z"/>
<path fill="#A08860" d="M54,41h1v1h-1V41z"/>
<path fill="#010101" d="M55,41h1v1h-1V41z"/>
<path fill="#020202" d="M56,41h1v1h-1V41z"/>
<path fill="#010101" d="M57,41h2v1h-2V41z"/>
<path fill="#D89870" d="M59,41h1v2h-1V41z"/>
<path fill="#695049" d="M60,41h1v1h-1V41z"/>
<path fill="#D89870" d="M61,41h2v1h-2V41z"/>
<path fill="#783F40" d="M63,41h1v2h-1V41z"/>
<path fill="#A08961" d="M75,41h1v1h-1V41z"/>
<path fill="#A08860" d="M76,41h1v1h-1V41z"/>
<path fill="#9F8860" d="M77,41h1v1h-1V41z"/>
<path fill="#010101" d="M78,41h3v1h-3V41z"/>
<path fill="#020202" d="M81,41h1v1h-1V41z"/>
<path fill="#D89870" d="M82,41h1v2h-1V41z"/>
<path fill="#684F48" d="M83,41h1v1h-1V41z"/>
<path fill="#D89870" d="M84,41h2v3h-1v-2h-1V41z"/>
<path fill="#783F40" d="M86,41h1v1h-1V41z"/>
<path fill="#383030" d="M6,42h3v1H6V42z"/>
<path fill="#695048" d="M9,42h1v1H9V42z"/>
<path fill="#383030" d="M10,42h1v1h-1V42z"/>
<path fill="#695049" d="M12,42h1v1h-1V42z"/>
<path fill="#B0B0C0" d="M14,42h1v1h-1V42z"/>
<path fill="#695049" d="M15,42h1v1h-1V42z"/>
<path fill="#783F40" d="M17,42h1v2h-1V42z"/>
<path fill="#010101" d="M28,42h1v1h-1V42z"/>
<path fill="#383030" d="M29,42h3v1h-3V42z"/>
<path fill="#684F48" d="M32,42h1v1h-1V42z"/>
<path fill="#37302F" d="M33,42h1v1h-1V42z"/>
<path fill="#D89870" d="M34,42h1v2h-1V42z"/>
<path fill="#695049" d="M35,42h1v1h-1V42z"/>
<path fill="#AFB0C0" d="M37,42h1v1h-1V42z"/>
<path fill="#695049" d="M38,42h1v1h-1V42z"/>
<path fill="#D7976F" d="M39,42h1v1h-1V42z"/>
<path fill="#783F40" d="M40,42h1v2h-1V42z"/>
<path fill="#383130" d="M52,42h2v1h-2V42z"/>
<path fill="#383030" d="M54,42h1v1h-1V42z"/>
<path fill="#695049" d="M55,42h1v1h-1V42z"/>
<path fill="#383030" d="M56,42h1v1h-1V42z"/>
<path fill="#D89870" d="M57,42h1v1h-1V42z"/>
<path fill="#684F48" d="M58,42h1v1h-1V42z"/>
<path fill="#B0B0C0" d="M60,42h1v1h-1V42z"/>
<path fill="#695049" d="M61,42h1v1h-1V42z"/>
<path fill="#D89770" d="M62,42h1v1h-1V42z"/>
<path fill="#383130" d="M75,42h1v1h-1V42z"/>
<path fill="#383030" d="M76,42h1v1h-1V42z"/>
<path fill="#383130" d="M77,42h1v1h-1V42z"/>
<path fill="#695048" d="M78,42h1v1h-1V42z"/>
<path fill="#383030" d="M79,42h1v1h-1V42z"/>
<path fill="#D7976F" d="M80,42h1v1h-1V42z"/>
<path fill="#694F48" d="M81,42h1v1h-1V42z"/>
<path fill="#AFB0C0" d="M83,42h1v1h-1V42z"/>
<path fill="#695049" d="M84,42h1v1h-1V42z"/>
<path fill="#794040" d="M86,42h1v1h-1V42z"/>
<path fill="#010101" d="M6,43h1v2H6V43z"/>
<path fill="#684F48" d="M7,43h1v1H7V43z"/>
<path fill="#695048" d="M8,43h1v1H8V43z"/>
<path fill="#383030" d="M9,43h1v1H9V43z"/>
<path fill="#E8E8F8" d="M14,43h1v1h-1V43z"/>
<path fill="#010101" d="M15,43h1v1h-1V43z"/>
<path fill="#020202" d="M29,43h1v2h-1V43z"/>
<path fill="#684F48" d="M30,43h2v2h-1v-1h-1V43z"/>
<path fill="#383030" d="M32,43h1v1h-1V43z"/>
<path fill="#D7976F" d="M33,43h1v1h-1V43z"/>
<path fill="#D7976F" d="M35,43h1v1h-1V43z"/>
<path fill="#D89770" d="M36,43h1v1h-1V43z"/>
<path fill="#E8E8F8" d="M37,43h1v1h-1V43z"/>
<path fill="#010101" d="M38,43h1v1h-1V43z"/>
<path fill="#D79770" d="M39,43h1v1h-1V43z"/>
<path fill="#010101" d="M52,43h1v2h-1V43z"/>
<path fill="#695048" d="M53,43h1v1h-1V43z"/>
<path fill="#684F48" d="M54,43h1v2h-1V43z"/>
<path fill="#383030" d="M55,43h1v3h-1V43z"/>
<path fill="#D89770" d="M56,43h1v1h-1V43z"/>
<path fill="#D79770" d="M57,43h3v1h-3V43z"/>
<path fill="#E8E8F8" d="M60,43h1v1h-1V43z"/>
<path fill="#010101" d="M61,43h1v1h-1V43z"/>
<path fill="#D79770" d="M62,43h1v1h-1V43z"/>
<path fill="#783F3F" d="M63,43h1v1h-1V43z"/>
<path fill="#010101" d="M75,43h1v2h-1V43z"/>
<path fill="#695048" d="M76,43h1v1h-1V43z"/>
<path fill="#684F48" d="M77,43h1v1h-1V43z"/>
<path fill="#383130" d="M78,43h1v1h-1V43z"/>
<path fill="#D89870" d="M79,43h3v1h-1v1h-1v-1h-1V43z"/>
<path fill="#D79770" d="M82,43h1v1h-1V43z"/>
<path fill="#E8E8F8" d="M83,43h1v1h-1V43z"/>
<path fill="#010101" d="M84,43h1v1h-1V43z"/>
<path fill="#784040" d="M86,43h1v1h-1V43z"/>
<path fill="#383130" d="M7,44h1v1H7V44z"/>
<path fill="#684F48" d="M8,44h1v1H8V44z"/>
<path fill="#373030" d="M9,44h1v1H9V44z"/>
<path fill="#D79770" d="M10,44h2v2h-1v-1h-1V44z"/>
<path fill="#F8D0B8" d="M12,44h2v1h1v1h-2v-1h-1V44z"/>
<path fill="#F8D0B9" d="M14,44h1v1h-1V44z"/>
<path fill="#F8CFB8" d="M15,44h1v1h-1V44z"/>
<path fill="#F8D0B9" d="M16,44h1v1h-1V44z"/>
<path fill="#D89870" d="M17,44h1v1h-1V44z"/>
<path fill="#37302F" d="M30,44h1v1h-1V44z"/>
<path fill="#373030" d="M32,44h1v1h-1V44z"/>
<path fill="#D79770" d="M33,44h1v1h-1V44z"/>
<path fill="#D7976F" d="M34,44h1v1h-1V44z"/>
<path fill="#F8D0B9" d="M35,44h1v1h-1V44z"/>
<path fill="#F8CFB8" d="M36,44h1v1h-1V44z"/>
<path fill="#F8D0B9" d="M37,44h2v1h-2V44z"/>
<path fill="#F8D0B8" d="M39,44h1v1h-1V44z"/>
<path fill="#D7976F" d="M40,44h1v1h-1V44z"/>
<path fill="#383030" d="M53,44h1v1h-1V44z"/>
<path fill="#D89870" d="M56,44h2v1h-2V44z"/>
<path fill="#F8D0B8" d="M58,44h4v1h-1v1h-2v-1h-1V44z"/>
<path fill="#F8D0B9" d="M62,44h1v1h-1V44z"/>
<path fill="#D89770" d="M63,44h1v1h-1V44z"/>
<path fill="#383030" d="M76,44h1v1h-1V44z"/>
<path fill="#695048" d="M77,44h1v1h-1V44z"/>
<path fill="#383030" d="M78,44h1v2h-1V44z"/>
<path fill="#D89770" d="M79,44h1v1h-1V44z"/>
<path fill="#F8D0B9" d="M81,44h1v1h-1V44z"/>
<path fill="#F8D0B8" d="M82,44h1v1h1v1h-2V44z"/>
<path fill="#F8CFB8" d="M83,44h3v1h-3V44z"/>
<path fill="#D7976F" d="M86,44h1v1h-1V44z"/>
<path fill="#010101" d="M7,45h2v1H7V45z"/>
<path fill="#37302F" d="M9,45h1v1H9V45z"/>
<path fill="#783F40" d="M10,45h1v1h-1V45z"/>
<path fill="#D89870" d="M12,45h1v1h-1V45z"/>
<path fill="#F8D0B9" d="M15,45h1v1h-1V45z"/>
<path fill="#783F40" d="M16,45h1v1h-1V45z"/>
<path fill="#010101" d="M30,45h2v1h-2V45z"/>
<path fill="#383030" d="M32,45h1v1h-1V45z"/>
<path fill="#783F40" d="M33,45h1v1h-1V45z"/>
<path fill="#D89870" d="M34,45h1v1h-1V45z"/>
<path fill="#D7976F" d="M35,45h1v1h-1V45z"/>
<path fill="#F8D0B9" d="M36,45h1v1h-1V45z"/>
<path fill="#F8D0B8" d="M37,45h1v1h-1V45z"/>
<path fill="#F8CFB8" d="M38,45h1v1h-1V45z"/>
<path fill="#783F40" d="M39,45h1v1h-1V45z"/>
<path fill="#020202" d="M53,45h1v1h-1V45z"/>
<path fill="#010101" d="M54,45h1v1h-1V45z"/>
<path fill="#783F40" d="M56,45h1v1h-1V45z"/>
<path fill="#D89770" d="M57,45h1v1h-1V45z"/>
<path fill="#D89870" d="M58,45h1v2h-1V45z"/>
<path fill="#F8D0B9" d="M61,45h1v1h-1V45z"/>
<path fill="#794040" d="M62,45h1v1h-1V45z"/>
<path fill="#010101" d="M76,45h2v1h-2V45z"/>
<path fill="#783F40" d="M79,45h1v1h-1V45z"/>
<path fill="#D7976F" d="M80,45h1v1h-1V45z"/>
<path fill="#D79770" d="M81,45h1v1h-1V45z"/>
<path fill="#F8D0B9" d="M84,45h1v1h-1V45z"/>
<path fill="#783F40" d="M85,45h1v1h-1V45z"/>
<path fill="#010101" d="M9,46h3v1H9V46z"/>
<path fill="#D7976F" d="M12,46h1v1h-1V46z"/>
<path fill="#2F2F48" d="M13,46h1v1h-1V46z"/>
<path fill="#783F40" d="M14,46h1v1h-1V46z"/>
<path fill="#784040" d="M15,46h1v1h-1V46z"/>
<path fill="#010101" d="M32,46h1v1h-1V46z"/>
<path fill="#020202" d="M33,46h2v1h-2V46z"/>
<path fill="#D89870" d="M35,46h1v1h-1V46z"/>
<path fill="#784040" d="M36,46h1v1h-1V46z"/>
<path fill="#794040" d="M37,46h1v1h-1V46z"/>
<path fill="#783F40" d="M38,46h1v1h-1V46z"/>
<path fill="#010101" d="M55,46h3v1h-3V46z"/>
<path fill="#784040" d="M59,46h1v1h-1V46z"/>
<path fill="#783F40" d="M60,46h2v1h-2V46z"/>
<path fill="#010101" d="M78,46h3v1h-2v1h-1V46z"/>
<path fill="#D89870" d="M81,46h1v1h-1V46z"/>
<path fill="#784040" d="M82,46h1v1h-1V46z"/>
<path fill="#794040" d="M83,46h2v1h-2V46z"/>
<path fill="#784040" d="M9,47h1v4H9V47z"/>
<path fill="#E8B860" d="M10,47h1v1h-1V47z"/>
<path fill="#E8B960" d="M11,47h1v1h-1V47z"/>
<path fill="#E87060" d="M12,47h1v1h-1V47z"/>
<path fill="#B05048" d="M13,47h1v1h-1V47z"/>
<path fill="#784040" d="M14,47h1v2h-1V47z"/>
<path fill="#784040" d="M32,47h1v2h-1V47z"/>
<path fill="#E8B860" d="M33,47h1v1h-1V47z"/>
<path fill="#E8B960" d="M34,47h1v1h-1V47z"/>
<path fill="#E87060" d="M35,47h1v1h-1V47z"/>
<path fill="#B05048" d="M36,47h1v1h-1V47z"/>
<path fill="#784040" d="M37,47h1v2h-1V47z"/>
<path fill="#784040" d="M55,47h1v4h-1V47z"/>
<path fill="#E8B860" d="M56,47h2v1h-2V47z"/>
<path fill="#E87060" d="M58,47h1v1h-1V47z"/>
<path fill="#B05048" d="M59,47h1v1h-1V47z"/>
<path fill="#784040" d="M60,47h1v1h-1V47z"/>
<path fill="#695049" d="M79,47h1v1h-1V47z"/>
<path fill="#E8B960" d="M80,47h1v1h-1V47z"/>
<path fill="#E7B860" d="M81,47h1v1h-1V47z"/>
<path fill="#E87060" d="M82,47h1v1h-1V47z"/>
<path fill="#784040" d="M83,47h1v2h-1v1h-1v-2h1V47z"/>
<path fill="#010101" d="M8,48h1v4H8V48z"/>
<path fill="#E87060" d="M10,48h2v2h-2V48z"/>
<path fill="#784040" d="M12,48h1v2h-1V48z"/>
<path fill="#E87060" d="M13,48h1v1h-1V48z"/>
<path fill="#010101" d="M15,48h1v4h-1V48z"/>
<path fill="#E87060" d="M33,48h2v2h-2V48z"/>
<path fill="#784040" d="M35,48h1v2h-1V48z"/>
<path fill="#E87060" d="M36,48h1v1h-1V48z"/>
<path fill="#010101" d="M38,48h1v2h-1V48z"/>
<path fill="#010101" d="M54,48h1v4h-1V48z"/>
<path fill="#E87060" d="M56,48h2v2h-2V48z"/>
<path fill="#784040" d="M58,48h1v2h-1V48z"/>
<path fill="#E87060" d="M59,48h1v1h-1V48z"/>
<path fill="#2F2F48" d="M60,48h1v1h-1V48z"/>
<path fill="#010101" d="M61,48h1v1h-1V48z"/>
<path fill="#010101" d="M77,48h1v2h-1V48z"/>
<path fill="#B05048" d="M78,48h1v3h-1V48z"/>
<path fill="#784040" d="M79,48h1v3h-1V48z"/>
<path fill="#E87060" d="M80,48h2v2h-2V48z"/>
<path fill="#010101" d="M84,48h1v4h-1V48z"/>
<path fill="#B05048" d="M13,49h1v1h-1V49z"/>
<path fill="#E87060" d="M14,49h1v2h-1V49z"/>
<path fill="#010101" d="M31,49h1v2h-1V49z"/>
<path fill="#B05048" d="M32,49h1v1h-1V49z"/>
<path fill="#E8B860" d="M36,49h1v1h-1V49z"/>
<path fill="#E87060" d="M37,49h1v2h-2v1h-1v-2h2V49z"/>
<path fill="#B05048" d="M59,49h1v1h-1V49z"/>
<path fill="#E87060" d="M60,49h1v2h-1V49z"/>
<path fill="#020202" d="M61,49h1v1h-1V49z"/>
<path fill="#B05048" d="M83,49h1v1h-1V49z"/>
<path fill="#020202" d="M10,50h1v1h-1V50z"/>
<path fill="#E8E9F8" d="M11,50h2v1h-2V50z"/>
<path fill="#784040" d="M13,50h1v2h-1V50z"/>
<path fill="#E7E8F7" d="M32,50h1v1h-1V50z"/>
<path fill="#E8E8F8" d="M33,50h1v1h-1V50z"/>
<path fill="#784040" d="M34,50h1v2h-1V50z"/>
<path fill="#020202" d="M38,50h1v2h-1V50z"/>
<path fill="#020202" d="M56,50h1v1h-1V50z"/>
<path fill="#E8E8F8" d="M57,50h1v1h-1V50z"/>
<path fill="#E7E8F8" d="M58,50h1v1h-1V50z"/>
<path fill="#784040" d="M59,50h1v2h-1V50z"/>
<path fill="#010101" d="M61,50h1v2h-1V50z"/>
<path fill="#020202" d="M77,50h1v1h-1V50z"/>
<path fill="#B0B1C1" d="M80,50h1v1h-1V50z"/>
<path fill="#E8E8F8" d="M81,50h1v1h-1V50z"/>
<path fill="#E7E8F8" d="M82,50h1v1h-1V50z"/>
<path fill="#784040" d="M83,50h1v2h-1V50z"/>
<path fill="#B05048" d="M9,51h1v1H9V51z"/>
<path fill="#010101" d="M10,51h1v1h-1V51z"/>
<path fill="#AFB0C0" d="M11,51h1v1h-1V51z"/>
<path fill="#B0B1C1" d="M12,51h1v1h-1V51z"/>
<path fill="#B05048" d="M14,51h1v1h-1V51z"/>
<path fill="#010101" d="M30,51h1v1h-1V51z"/>
<path fill="#B05048" d="M31,51h1v2h1v1h-2V51z"/>
<path fill="#AFB0C0" d="M32,51h1v1h-1V51z"/>
<path fill="#B0B0C0" d="M33,51h1v1h-1V51z"/>
<path fill="#E7B85F" d="M36,51h1v1h-1V51z"/>
<path fill="#B05048" d="M37,51h1v1h-1V51z"/>
<path fill="#B05048" d="M55,51h1v1h-1V51z"/>
<path fill="#010101" d="M56,51h1v1h-1V51z"/>
<path fill="#B0B0C0" d="M57,51h2v1h-2V51z"/>
<path fill="#B05048" d="M60,51h1v1h-1V51z"/>
<path fill="#010101" d="M76,51h1v2h-1V51z"/>
<path fill="#B05048" d="M77,51h1v1h-1V51z"/>
<path fill="#E87060" d="M78,51h1v1h2v1h-1v1h-2v-1h-1v-1h1V51z"/>
<path fill="#B05048" d="M79,51h1v1h-1V51z"/>
<path fill="#010101" d="M80,51h1v1h-1V51z"/>
<path fill="#B0B1C1" d="M81,51h1v1h-1V51z"/>
<path fill="#B0B0C0" d="M82,51h1v1h-1V51z"/>
<path fill="#010101" d="M9,52h1v2H9V52z"/>
<path fill="#B05048" d="M10,52h1v1h-1V52z"/>
<path fill="#010101" d="M11,52h2v1h-2V52z"/>
<path fill="#E87060" d="M13,52h1v1h-1V52z"/>
<path fill="#020202" d="M14,52h1v2h-1V52z"/>
<path fill="#010101" d="M29,52h1v3h-1V52z"/>
<path fill="#784040" d="M30,52h1v2h1v1h-2V52z"/>
<path fill="#010101" d="M32,52h2v1h-2V52z"/>
<path fill="#B05048" d="M34,52h3v1h-3V52z"/>
<path fill="#E87060" d="M37,52h1v1h-1V52z"/>
<path fill="#010101" d="M38,52h1v1h-1V52z"/>
<path fill="#010101" d="M55,52h1v1h-1V52z"/>
<path fill="#B05048" d="M56,52h1v1h-1V52z"/>
<path fill="#010101" d="M57,52h1v1h-1V52z"/>
<path fill="#020202" d="M58,52h1v1h-1V52z"/>
<path fill="#E87060" d="M59,52h1v1h-1V52z"/>
<path fill="#010101" d="M60,52h1v1h-1V52z"/>
<path fill="#010101" d="M81,52h2v1h-1v1h-2v-1h1V52z"/>
<path fill="#B05048" d="M83,52h1v1h-1V52z"/>
<path fill="#37302F" d="M84,52h1v1h-1V52z"/>
<path fill="#010101" d="M85,52h1v2h-1V52z"/>
<path fill="#383030" d="M10,53h1v1h-1V53z"/>
<path fill="#373030" d="M11,53h2v1h-2V53z"/>
<path fill="#383030" d="M13,53h1v1h-1V53z"/>
<path fill="#784040" d="M33,53h2v1h-2V53z"/>
<path fill="#E87060" d="M35,53h2v1h-2V53z"/>
<path fill="#010101" d="M37,53h1v1h-1V53z"/>
<path fill="#695048" d="M38,53h1v2h-1V53z"/>
<path fill="#784040" d="M39,53h1v1h-1V53z"/>
<path fill="#020202" d="M55,53h1v1h-1V53z"/>
<path fill="#373030" d="M56,53h2v1h-2V53z"/>
<path fill="#383030" d="M58,53h2v1h-2V53z"/>
<path fill="#020202" d="M60,53h1v1h-1V53z"/>
<path fill="#010101" d="M75,53h1v1h-1V53z"/>
<path fill="#684F48" d="M76,53h1v1h-1V53z"/>
<path fill="#B05048" d="M77,53h1v1h-1V53z"/>
<path fill="#383030" d="M82,53h3v1h-3V53z"/>
<path fill="#010101" d="M10,54h3v1h-3V54z"/>
<path fill="#020202" d="M13,54h1v1h-1V54z"/>
<path fill="#010101" d="M32,54h1v1h-1V54z"/>
<path fill="#010101" d="M34,54h2v1h-2V54z"/>
<path fill="#684F48" d="M36,54h1v1h-1V54z"/>
<path fill="#695049" d="M37,54h1v1h-1V54z"/>
<path fill="#010101" d="M39,54h1v1h-1V54z"/>
<path fill="#010101" d="M56,54h2v1h-2V54z"/>
<path fill="#020202" d="M58,54h1v1h-1V54z"/>
<path fill="#010101" d="M59,54h1v1h-1V54z"/>
<path fill="#020202" d="M75,54h1v1h-1V54z"/>
<path fill="#694F48" d="M76,54h1v1h-1V54z"/>
<path fill="#695048" d="M77,54h1v1h-1V54z"/>
<path fill="#695049" d="M78,54h1v1h-1V54z"/>
<path fill="#010101" d="M79,54h1v1h-1V54z"/>
<path fill="#010101" d="M82,54h3v1h-3V54z"/>
<path fill="#010101" d="M30,55h2v1h-2V55z"/>
<path fill="#010101" d="M36,55h1v1h-1V55z"/>
<path fill="#020202" d="M37,55h1v1h-1V55z"/>
<path fill="#010101" d="M38,55h1v1h-1V55z"/>
<path fill="#010101" d="M76,55h2v1h-2V55z"/>
<path fill="#020202" d="M78,55h1v1h-1V55z"/>
<path fill="#784040" d="M9,60h5v1H9V60z"/>
<path fill="#784040" d="M32,60h5v1h-5V60z"/>
<path fill="#784040" d="M55,60h5v1h-5V60z"/>
<path fill="#784040" d="M78,60h5v1h-5V60z"/>
<path fill="#784040" d="M7,61h2v1H7V61z"/>
<path fill="#E87060" d="M9,61h5v1h2v1h1v2h-1v1h-2v1H9v-1H7v-1H6v-2h1v-1h2V61z"/>
<path fill="#784040" d="M14,61h2v1h-2V61z"/>
<path fill="#784040" d="M30,61h2v1h-2V61z"/>
<path fill="#E87060" d="M32,61h5v1h2v1h1v2h-1v1h-2v1h-5v-1h-2v-1h-1v-2h1v-1h2V61z"/>
<path fill="#784040" d="M37,61h2v1h-2V61z"/>
<path fill="#784040" d="M53,61h2v1h-2V61z"/>
<path fill="#E87060" d="M55,61h5v1h2v1h1v2h-1v1h-2v1h-5v-1h-2v-1h-1v-2h1v-1h2V61z"/>
<path fill="#784040" d="M60,61h2v1h-2V61z"/>
<path fill="#784040" d="M76,61h2v1h-2V61z"/>
<path fill="#E87060" d="M78,61h5v1h2v1h1v2h-1v1h-2v1h-5v-1h-2v-1h-1v-2h1v-1h2V61z"/>
<path fill="#784040" d="M83,61h2v1h-2V61z"/>
<path fill="#784040" d="M6,62h1v1H6V62z"/>
<path fill="#784040" d="M16,62h1v1h-1V62z"/>
<path fill="#784040" d="M29,62h1v1h-1V62z"/>
<path fill="#784040" d="M39,62h1v1h-1V62z"/>
<path fill="#784040" d="M52,62h1v1h-1V62z"/>
<path fill="#784040" d="M62,62h1v1h-1V62z"/>
<path fill="#784040" d="M75,62h1v1h-1V62z"/>
<path fill="#784040" d="M85,62h1v1h-1V62z"/>
<path fill="#020202" d="M5,63h1v1H5V63z"/>
<path fill="#010101" d="M17,63h1v3h-1V63z"/>
<path fill="#020202" d="M28,63h1v1h-1V63z"/>
<path fill="#010101" d="M40,63h1v4h-1V63z"/>
<path fill="#020202" d="M51,63h1v1h-1V63z"/>
<path fill="#010101" d="M63,63h1v4h-1V63z"/>
<path fill="#010101" d="M74,63h1v4h-1V63z"/>
<path fill="#010101" d="M86,63h1v1h-1V63z"/>
<path fill="#010101" d="M5,64h1v3H5V64z"/>
<path fill="#010101" d="M28,64h1v3h-1V64z"/>
<path fill="#010101" d="M51,64h1v3h-1V64z"/>
<path fill="#020202" d="M86,64h1v3h-1V64z"/>
<path fill="#B05048" d="M6,65h1v1h2v1h5v-1h2v-1h1v2h-1v1h-1v1H8v-1H7v-1H6V65z"/>
<path fill="#B05048" d="M29,65h1v1h2v1h5v-1h2v-1h1v2h-1v1h-1v1h-7v-1h-1v-1h-1V65z"/>
<path fill="#B05048" d="M52,65h1v1h2v1h5v-1h2v-1h1v2h-1v1h-1v1h-7v-1h-1v-1h-1V65z"/>
<path fill="#B05048" d="M75,65h1v1h2v1h5v-1h2v-1h1v2h-1v1h-1v1h-7v-1h-1v-1h-1V65z"/>
<path fill="#020202" d="M17,66h1v1h-1V66z"/>
<path fill="#383030" d="M5,67h1v1H5V67z"/>
<path fill="#010101" d="M6,67h1v2H6V67z"/>
<path fill="#010101" d="M16,67h1v2h-1V67z"/>
<path fill="#37302F" d="M17,67h1v1h-1V67z"/>
<path fill="#383030" d="M28,67h1v2h-1V67z"/>
<path fill="#010101" d="M29,67h1v2h-1V67z"/>
<path fill="#010101" d="M39,67h1v1h-1V67z"/>
<path fill="#383030" d="M40,67h1v1h-1V67z"/>
<path fill="#37302F" d="M51,67h1v1h-1V67z"/>
<path fill="#010101" d="M52,67h1v1h-1V67z"/>
<path fill="#020202" d="M62,67h1v1h-1V67z"/>
<path fill="#383030" d="M63,67h1v2h-1V67z"/>
<path fill="#383030" d="M74,67h1v2h-1V67z"/>
<path fill="#020202" d="M75,67h1v1h-1V67z"/>
<path fill="#020202" d="M85,67h1v1h-1V67z"/>
<path fill="#373030" d="M86,67h1v1h-1V67z"/>
<path fill="#010101" d="M4,68h1v1H4V68z"/>
<path fill="#373030" d="M5,68h1v1H5V68z"/>
<path fill="#E8B860" d="M7,68h1v1H7V68z"/>
<path fill="#E8B960" d="M15,68h1v1h-1V68z"/>
<path fill="#383030" d="M17,68h1v1h-1V68z"/>
<path fill="#010101" d="M18,68h1v1h-1V68z"/>
<path fill="#010101" d="M27,68h1v1h-1V68z"/>
<path fill="#E8B860" d="M30,68h1v1h-1V68z"/>
<path fill="#E8B960" d="M38,68h1v1h-1V68z"/>
<path fill="#020202" d="M39,68h1v1h-1V68z"/>
<path fill="#373030" d="M40,68h1v1h-1V68z"/>
<path fill="#010101" d="M41,68h1v1h-1V68z"/>
<path fill="#010101" d="M50,68h1v1h-1V68z"/>
<path fill="#383030" d="M51,68h1v2h1v2h1v1h-2v-2h-1V68z"/>
<path fill="#020202" d="M52,68h1v1h-1V68z"/>
<path fill="#E8B960" d="M53,68h1v1h-1V68z"/>
<path fill="#E8B960" d="M61,68h1v1h-1V68z"/>
<path fill="#010101" d="M62,68h1v1h-1V68z"/>
<path fill="#010101" d="M64,68h1v1h-1V68z"/>
<path fill="#010101" d="M73,68h1v1h-1V68z"/>
<path fill="#010101" d="M75,68h1v1h-1V68z"/>
<path fill="#E8B860" d="M76,68h1v1h-1V68z"/>
<path fill="#E8B860" d="M84,68h1v1h-1V68z"/>
<path fill="#010101" d="M85,68h1v1h-1V68z"/>
<path fill="#383130" d="M86,68h1v1h-1V68z"/>
<path fill="#020202" d="M87,68h1v1h-1V68z"/>
<path fill="#010101" d="M3,69h1v2H3V69z"/>
<path fill="#D7976F" d="M4,69h1v1H4V69z"/>
<path fill="#383030" d="M5,69h1v2H5V69z"/>
<path fill="#694F48" d="M6,69h1v1H6V69z"/>
<path fill="#010101" d="M7,69h1v1H7V69z"/>
<path fill="#A08860" d="M8,69h1v1H8V69z"/>
<path fill="#E8B960" d="M9,69h1v1H9V69z"/>
<path fill="#E8B860" d="M10,69h4v1h-4V69z"/>
<path fill="#9F8860" d="M14,69h1v1h-1V69z"/>
<path fill="#020202" d="M15,69h1v1h-1V69z"/>
<path fill="#684F48" d="M16,69h1v1h-1V69z"/>
<path fill="#373030" d="M17,69h1v1h-1V69z"/>
<path fill="#D89870" d="M18,69h1v1h-1V69z"/>
<path fill="#010101" d="M19,69h1v2h-1V69z"/>
<path fill="#010101" d="M26,69h1v2h-1V69z"/>
<path fill="#D89870" d="M27,69h1v2h-1V69z"/>
<path fill="#37302F" d="M28,69h1v1h-1V69z"/>
<path fill="#695049" d="M29,69h1v1h-1V69z"/>
<path fill="#020202" d="M30,69h1v1h-1V69z"/>
<path fill="#A08860" d="M31,69h1v1h-1V69z"/>
<path fill="#E7B85F" d="M32,69h1v1h-1V69z"/>
<path fill="#E8B860" d="M33,69h2v1h-2V69z"/>
<path fill="#E8B960" d="M35,69h1v1h-1V69z"/>
<path fill="#E8B860" d="M36,69h1v1h-1V69z"/>
<path fill="#A08860" d="M37,69h1v1h-1V69z"/>
<path fill="#010101" d="M38,69h1v1h-1V69z"/>
<path fill="#695048" d="M39,69h1v1h-1V69z"/>
<path fill="#383030" d="M40,69h1v1h-1V69z"/>
<path fill="#D89870" d="M41,69h1v1h-1V69z"/>
<path fill="#010101" d="M42,69h1v2h-1V69z"/>
<path fill="#010101" d="M49,69h1v1h-1V69z"/>
<path fill="#D89870" d="M50,69h1v2h-1V69z"/>
<path fill="#695049" d="M52,69h1v1h-1V69z"/>
<path fill="#010101" d="M53,69h1v1h-1V69z"/>
<path fill="#A08860" d="M54,69h1v1h-1V69z"/>
<path fill="#E8B860" d="M55,69h1v1h-1V69z"/>
<path fill="#E7B85F" d="M56,69h1v1h-1V69z"/>
<path fill="#E8B960" d="M57,69h1v1h-1V69z"/>
<path fill="#E8B860" d="M58,69h1v1h-1V69z"/>
<path fill="#E8B960" d="M59,69h1v1h-1V69z"/>
<path fill="#A08861" d="M60,69h1v1h-1V69z"/>
<path fill="#020202" d="M61,69h1v1h-1V69z"/>
<path fill="#684F48" d="M62,69h1v1h-1V69z"/>
<path fill="#37302F" d="M63,69h1v1h-1V69z"/>
<path fill="#D89770" d="M64,69h1v1h-1V69z"/>
<path fill="#010101" d="M65,69h1v2h-1V69z"/>
<path fill="#010101" d="M72,69h1v1h-1V69z"/>
<path fill="#D89870" d="M73,69h1v2h-1V69z"/>
<path fill="#37302F" d="M74,69h1v1h-1V69z"/>
<path fill="#684F48" d="M75,69h1v1h-1V69z"/>
<path fill="#010101" d="M76,69h1v1h-1V69z"/>
<path fill="#A08961" d="M77,69h1v1h-1V69z"/>
<path fill="#E8B860" d="M78,69h1v1h-1V69z"/>
<path fill="#E8B960" d="M79,69h1v1h-1V69z"/>
<path fill="#E8B860" d="M80,69h2v1h-2V69z"/>
<path fill="#E8B960" d="M82,69h1v1h-1V69z"/>
<path fill="#A08860" d="M83,69h1v1h-1V69z"/>
<path fill="#020202" d="M84,69h1v1h-1V69z"/>
<path fill="#694F48" d="M85,69h1v1h-1V69z"/>
<path fill="#383030" d="M86,69h1v2h-2v-1h1V69z"/>
<path fill="#D89870" d="M87,69h1v2h-1V69z"/>
<path fill="#010101" d="M88,69h1v2h-1V69z"/>
<path fill="#D89770" d="M4,70h1v1H4V70z"/>
<path fill="#373030" d="M6,70h1v1H6V70z"/>
<path fill="#684F48" d="M7,70h1v1H7V70z"/>
<path fill="#010101" d="M8,70h3v1H8V70z"/>
<path fill="#020202" d="M11,70h1v1h-1V70z"/>
<path fill="#010101" d="M12,70h3v1h-3V70z"/>
<path fill="#684F48" d="M15,70h1v1h-1V70z"/>
<path fill="#37302F" d="M16,70h1v1h-1V70z"/>
<path fill="#383030" d="M17,70h1v1h-1V70z"/>
<path fill="#D79770" d="M18,70h1v1h-1V70z"/>
<path fill="#383030" d="M28,70h1v1h-1V70z"/>
<path fill="#37302F" d="M29,70h1v1h-1V70z"/>
<path fill="#694F48" d="M30,70h1v1h-1V70z"/>
<path fill="#010101" d="M31,70h5v1h-5V70z"/>
<path fill="#020202" d="M36,70h1v1h-1V70z"/>
<path fill="#010101" d="M37,70h1v1h-1V70z"/>
<path fill="#695048" d="M38,70h1v1h-1V70z"/>
<path fill="#383030" d="M39,70h1v1h-1V70z"/>
<path fill="#383130" d="M40,70h1v1h-1V70z"/>
<path fill="#D79770" d="M41,70h1v1h-1V70z"/>
<path fill="#020202" d="M49,70h1v1h-1V70z"/>
<path fill="#695048" d="M53,70h1v1h-1V70z"/>
<path fill="#010101" d="M54,70h7v1h-7V70z"/>
<path fill="#695048" d="M61,70h1v1h-1V70z"/>
<path fill="#383030" d="M62,70h2v1h-2V70z"/>
<path fill="#D7976F" d="M64,70h1v1h-1V70z"/>
<path fill="#020202" d="M72,70h1v1h-1V70z"/>
<path fill="#383030" d="M74,70h2v2h2v2h-2v-1h-1v-2h-1V70z"/>
<path fill="#695048" d="M76,70h1v1h-1V70z"/>
<path fill="#010101" d="M77,70h2v1h-2V70z"/>
<path fill="#020202" d="M79,70h1v1h-1V70z"/>
<path fill="#010101" d="M80,70h2v1h-2V70z"/>
<path fill="#020202" d="M82,70h1v1h-1V70z"/>
<path fill="#010101" d="M83,70h1v1h-1V70z"/>
<path fill="#695049" d="M84,70h1v1h-1V70z"/>
<path fill="#010101" d="M4,71h1v1H4V71z"/>
<path fill="#D79770" d="M5,71h1v1H5V71z"/>
<path fill="#383030" d="M6,71h2v2h1v-1h1v1h1v2h-1v-1H7v-2H6V71z"/>
<path fill="#695048" d="M8,71h1v1H8V71z"/>
<path fill="#684F48" d="M9,71h1v1H9V71z"/>
<path fill="#695048" d="M10,71h3v1h-3V71z"/>
<path fill="#684F48" d="M13,71h1v1h-1V71z"/>
<path fill="#695048" d="M14,71h1v1h-1V71z"/>
<path fill="#383030" d="M15,71h2v2h-2V71z"/>
<path fill="#D79770" d="M17,71h1v1h-1V71z"/>
<path fill="#010101" d="M18,71h1v1h-1V71z"/>
<path fill="#010101" d="M27,71h1v1h-1V71z"/>
<path fill="#D89870" d="M28,71h1v1h-1V71z"/>
<path fill="#373030" d="M29,71h1v1h-1V71z"/>
<path fill="#383030" d="M30,71h1v1h-1V71z"/>
<path fill="#695048" d="M31,71h1v1h-1V71z"/>
<path fill="#684F48" d="M32,71h1v1h-1V71z"/>
<path fill="#694F48" d="M33,71h1v1h-1V71z"/>
<path fill="#695048" d="M34,71h2v1h-1v1h-1V71z"/>
<path fill="#684F48" d="M36,71h2v1h-2V71z"/>
<path fill="#383130" d="M38,71h1v1h-1V71z"/>
<path fill="#373030" d="M39,71h1v1h-1V71z"/>
<path fill="#D79770" d="M40,71h1v1h-1V71z"/>
<path fill="#020202" d="M41,71h1v1h-1V71z"/>
<path fill="#010101" d="M50,71h1v1h-1V71z"/>
<path fill="#D89870" d="M51,71h1v1h-1V71z"/>
<path fill="#373030" d="M53,71h1v1h-1V71z"/>
<path fill="#695049" d="M54,71h1v1h-1V71z"/>
<path fill="#684F48" d="M55,71h2v1h-2V71z"/>
<path fill="#694F48" d="M57,71h1v1h-1V71z"/>
<path fill="#695048" d="M58,71h2v1h-1v1h-1V71z"/>
<path fill="#684F48" d="M60,71h1v1h-1V71z"/>
<path fill="#373030" d="M61,71h1v1h-1V71z"/>
<path fill="#383130" d="M62,71h1v1h-1V71z"/>
<path fill="#D89770" d="M63,71h1v1h-1V71z"/>
<path fill="#010101" d="M64,71h1v1h-1V71z"/>
<path fill="#010101" d="M73,71h1v1h-1V71z"/>
<path fill="#D7976F" d="M74,71h1v1h-1V71z"/>
<path fill="#373030" d="M76,71h1v1h-1V71z"/>
<path fill="#684F48" d="M77,71h1v1h-1V71z"/>
<path fill="#695048" d="M78,71h1v1h-1V71z"/>
<path fill="#684F48" d="M79,71h5v1h-5V71z"/>
<path fill="#383030" d="M84,71h1v1h1v1h-1v1h-1v-1h-1v-1h1V71z"/>
<path fill="#37302F" d="M85,71h1v1h-1V71z"/>
<path fill="#D89870" d="M86,71h1v1h-1V71z"/>
<path fill="#010101" d="M87,71h1v1h-1V71z"/>
<path fill="#020202" d="M5,72h1v1H5V72z"/>
<path fill="#383130" d="M6,72h1v1H6V72z"/>
<path fill="#373030" d="M8,72h1v1H8V72z"/>
<path fill="#684F48" d="M10,72h3v1h-3V72z"/>
<path fill="#383030" d="M13,72h1v3h-2v-2h1V72z"/>
<path fill="#383130" d="M14,72h1v1h-1V72z"/>
<path fill="#010101" d="M17,72h1v1h-1V72z"/>
<path fill="#020202" d="M28,72h1v1h-1V72z"/>
<path fill="#383030" d="M29,72h1v1h-1V72z"/>
<path fill="#373030" d="M30,72h1v1h-1V72z"/>
<path fill="#383030" d="M31,72h2v2h-3v-1h1V72z"/>
<path fill="#695049" d="M33,72h1v1h-1V72z"/>
<path fill="#684F48" d="M35,72h1v1h-1V72z"/>
<path fill="#373030" d="M36,72h1v1h-1V72z"/>
<path fill="#383030" d="M37,72h1v1h1v1h-3v1h-3v-1h1v-1h3V72z"/>
<path fill="#37302F" d="M38,72h1v1h-1V72z"/>
<path fill="#383030" d="M39,72h1v1h-1V72z"/>
<path fill="#010101" d="M40,72h1v1h-1V72z"/>
<path fill="#010101" d="M51,72h1v1h-1V72z"/>
<path fill="#373030" d="M54,72h2v1h-2V72z"/>
<path fill="#695048" d="M56,72h1v1h-1V72z"/>
<path fill="#695049" d="M57,72h1v1h-1V72z"/>
<path fill="#373030" d="M59,72h1v1h-1V72z"/>
<path fill="#383030" d="M60,72h1v1h1v1h-2V72z"/>
<path fill="#383130" d="M61,72h1v1h-1V72z"/>
<path fill="#383030" d="M62,72h1v1h-1V72z"/>
<path fill="#010101" d="M63,72h1v1h-1V72z"/>
<path fill="#010101" d="M74,72h1v1h-1V72z"/>
<path fill="#383130" d="M78,72h1v1h-1V72z"/>
<path fill="#695048" d="M79,72h2v1h-2V72z"/>
<path fill="#694F48" d="M81,72h1v1h-1V72z"/>
<path fill="#383130" d="M82,72h1v1h-1V72z"/>
<path fill="#020202" d="M86,72h1v1h-1V72z"/>
<path fill="#010101" d="M6,73h1v1H6V73z"/>
<path fill="#373030" d="M11,73h1v1h-1V73z"/>
<path fill="#373030" d="M14,73h2v1h-2V73z"/>
<path fill="#020202" d="M16,73h1v1h-1V73z"/>
<path fill="#020202" d="M29,73h1v1h-1V73z"/>
<path fill="#37302F" d="M33,73h1v1h-1V73z"/>
<path fill="#010101" d="M39,73h1v1h-1V73z"/>
<path fill="#010101" d="M52,73h1v1h-1V73z"/>
<path fill="#373030" d="M53,73h1v1h-1V73z"/>
<path fill="#383030" d="M54,73h3v1h1v1h-3v-1h-1V73z"/>
<path fill="#373030" d="M57,73h1v1h-1V73z"/>
<path fill="#383030" d="M58,73h1v1h-1V73z"/>
<path fill="#37302F" d="M59,73h1v1h-1V73z"/>
<path fill="#010101" d="M62,73h1v1h-1V73z"/>
<path fill="#010101" d="M75,73h1v1h-1V73z"/>
<path fill="#373030" d="M78,73h1v1h1v1h-2V73z"/>
<path fill="#383130" d="M79,73h1v1h-1V73z"/>
<path fill="#383030" d="M80,73h3v1h-1v1h-2V73z"/>
<path fill="#373030" d="M83,73h1v1h-1V73z"/>
<path fill="#010101" d="M85,73h1v1h-1V73z"/>
<path fill="#784040" d="M6,74h1v1H6V74z"/>
<path fill="#010101" d="M7,74h1v1H7V74z"/>
<path fill="#020202" d="M8,74h1v1H8V74z"/>
<path fill="#373030" d="M9,74h1v1H9V74z"/>
<path fill="#37302F" d="M11,74h1v1h-1V74z"/>
<path fill="#010101" d="M14,74h2v1h-2V74z"/>
<path fill="#784040" d="M16,74h1v1h-1V74z"/>
<path fill="#784040" d="M28,74h2v1h-2V74z"/>
<path fill="#020202" d="M30,74h1v1h-1V74z"/>
<path fill="#010101" d="M31,74h1v2h-1V74z"/>
<path fill="#37302F" d="M32,74h1v1h-1V74z"/>
<path fill="#37302F" d="M36,74h1v1h-1V74z"/>
<path fill="#010101" d="M37,74h2v1h-2V74z"/>
<path fill="#784040" d="M39,74h1v2h-1V74z"/>
<path fill="#784040" d="M52,74h1v1h-1V74z"/>
<path fill="#010101" d="M53,74h2v1h5v-1h2v1h-1v1h-7v-1h-1V74z"/>
<path fill="#373030" d="M58,74h1v1h-1V74z"/>
<path fill="#383030" d="M59,74h1v1h-1V74z"/>
<path fill="#784040" d="M62,74h1v1h-1V74z"/>
<path fill="#784040" d="M75,74h1v2h-1V74z"/>
<path fill="#020202" d="M76,74h1v1h-1V74z"/>
<path fill="#010101" d="M77,74h1v1h-1V74z"/>
<path fill="#373030" d="M82,74h1v1h-1V74z"/>
<path fill="#010101" d="M83,74h1v1h-1V74z"/>
<path fill="#020202" d="M84,74h1v1h-1V74z"/>
<path fill="#784040" d="M85,74h2v1h-2V74z"/>
<path fill="#010101" d="M5,75h1v1H5V75z"/>
<path fill="#A08961" d="M6,75h1v1H6V75z"/>
<path fill="#A08860" d="M7,75h1v1H7V75z"/>
<path fill="#010101" d="M8,75h6v1H8V75z"/>
<path fill="#020202" d="M14,75h1v1h-1V75z"/>
<path fill="#A08860" d="M15,75h2v1h-2V75z"/>
<path fill="#010101" d="M17,75h1v1h-1V75z"/>
<path fill="#784040" d="M27,75h1v1h-1V75z"/>
<path fill="#B05048" d="M28,75h1v1h2v1h-3V75z"/>
<path fill="#A08961" d="M29,75h2v1h-2V75z"/>
<path fill="#020202" d="M32,75h1v1h-1V75z"/>
<path fill="#010101" d="M33,75h2v1h-2V75z"/>
<path fill="#020202" d="M35,75h2v1h-2V75z"/>
<path fill="#A08860" d="M37,75h1v1h-1V75z"/>
<path fill="#A08961" d="M38,75h1v1h-1V75z"/>
<path fill="#010101" d="M51,75h1v1h-1V75z"/>
<path fill="#A08860" d="M52,75h2v1h-2V75z"/>
<path fill="#A08860" d="M61,75h1v1h-1V75z"/>
<path fill="#9F8860" d="M62,75h1v1h-1V75z"/>
<path fill="#010101" d="M63,75h1v1h-1V75z"/>
<path fill="#A08860" d="M76,75h1v1h-1V75z"/>
<path fill="#9F8860" d="M77,75h1v1h-1V75z"/>
<path fill="#010101" d="M78,75h5v1h-5V75z"/>
<path fill="#020202" d="M83,75h1v1h-1V75z"/>
<path fill="#A08860" d="M84,75h1v1h-1V75z"/>
<path fill="#A08861" d="M85,75h1v1h-1V75z"/>
<path fill="#B05048" d="M86,75h1v2h-3v-1h2V75z"/>
<path fill="#784040" d="M87,75h1v1h-1V75z"/>
<path fill="#010101" d="M4,76h1v1H4V76z"/>
<path fill="#B05048" d="M5,76h3v1H7v1H5V76z"/>
<path fill="#784040" d="M8,76h1v1H8V76z"/>
<path fill="#B05048" d="M9,76h5v1h1v1h-2v-1h-3v1H8v-1h1V76z"/>
<path fill="#784040" d="M14,76h1v1h-1V76z"/>
<path fill="#B05048" d="M15,76h3v2h-2v-1h-1V76z"/>
<path fill="#010101" d="M18,76h1v1h-1V76z"/>
<path fill="#784040" d="M26,76h1v2h-1V76z"/>
<path fill="#B0B0C0" d="M27,76h1v1h1v1h-2V76z"/>
<path fill="#784040" d="M31,76h1v1h-1V76z"/>
<path fill="#B05048" d="M32,76h5v2h-1v-1h-3v1h-2v-1h1V76z"/>
<path fill="#784040" d="M37,76h1v2h-1V76z"/>
<path fill="#B05048" d="M38,76h2v1h-1v1h-1V76z"/>
<path fill="#010101" d="M40,76h1v2h-1V76z"/>
<path fill="#010101" d="M50,76h1v1h-1V76z"/>
<path fill="#B05048" d="M51,76h3v1h-1v1h-2V76z"/>
<path fill="#784040" d="M54,76h1v1h-1V76z"/>
<path fill="#B05048" d="M55,76h5v1h1v1h-2v-1h-3v1h-2v-1h1V76z"/>
<path fill="#784040" d="M60,76h1v1h-1V76z"/>
<path fill="#B05048" d="M61,76h3v2h-2v-1h-1V76z"/>
<path fill="#020202" d="M64,76h1v1h-1V76z"/>
<path fill="#010101" d="M74,76h1v2h-1V76z"/>
<path fill="#B05048" d="M75,76h2v2h-1v-1h-1V76z"/>
<path fill="#784040" d="M77,76h1v2h-1V76z"/>
<path fill="#B05048" d="M78,76h5v1h1v1h-2v-1h-3v1h-1V76z"/>
<path fill="#784040" d="M83,76h1v1h-1V76z"/>
<path fill="#AFB0C0" d="M87,76h1v1h-1V76z"/>
<path fill="#784040" d="M88,76h1v2h-1V76z"/>
<path fill="#5F5F5F" d="M3,77h1v1H3V77z"/>
<path fill="#E8E9F8" d="M4,77h1v1H4V77z"/>
<path fill="#010101" d="M7,77h1v2H7V77z"/>
<path fill="#E87060" d="M10,77h3v1h2v1h-1v1H9v-1H8v-1h2V77z"/>
<path fill="#010101" d="M15,77h1v1h-1V77z"/>
<path fill="#E7E8F7" d="M18,77h1v1h-1V77z"/>
<path fill="#606060" d="M19,77h1v2h-1V77z"/>
<path fill="#784040" d="M29,77h1v1h-1V77z"/>
<path fill="#010101" d="M30,77h1v2h-1V77z"/>
<path fill="#E87060" d="M33,77h3v1h2v1h-1v1h-5v-1h-1v-1h2V77z"/>
<path fill="#784040" d="M39,77h1v1h-1V77z"/>
<path fill="#606060" d="M49,77h1v2h-1V77z"/>
<path fill="#E8E8F8" d="M50,77h1v1h-1V77z"/>
<path fill="#020202" d="M53,77h1v1h-1V77z"/>
<path fill="#E87060" d="M56,77h3v1h2v1h-1v1h-5v-1h-1v-1h2V77z"/>
<path fill="#010101" d="M61,77h1v2h-1V77z"/>
<path fill="#E8E9F8" d="M64,77h1v1h-1V77z"/>
<path fill="#606060" d="M65,77h1v1h-1V77z"/>
<path fill="#2F2F48" d="M75,77h1v1h-1V77z"/>
<path fill="#E87060" d="M79,77h3v1h2v1h-1v1h-5v-1h-1v-1h2V77z"/>
<path fill="#010101" d="M84,77h1v2h-1V77z"/>
<path fill="#784040" d="M85,77h1v1h-1V77z"/>
<path fill="#B0B0C0" d="M86,77h2v1h-2V77z"/>
<path fill="#606060" d="M3,78h1v1H3V78z"/>
<path fill="#AFB0C0" d="M4,78h2v1H4V78z"/>
<path fill="#5F5F5F" d="M6,78h1v1H6V78z"/>
<path fill="#020202" d="M15,78h1v1h-1V78z"/>
<path fill="#606060" d="M16,78h1v1h-1V78z"/>
<path fill="#B0B0C1" d="M17,78h1v1h-1V78z"/>
<path fill="#B0B1C1" d="M18,78h1v1h-1V78z"/>
<path fill="#784040" d="M27,78h2v1h-2V78z"/>
<path fill="#505788" d="M29,78h1v1h-1V78z"/>
<path fill="#020202" d="M38,78h1v1h-1V78z"/>
<path fill="#E7E8F7" d="M39,78h1v1h-1V78z"/>
<path fill="#E8E9F8" d="M40,78h1v1h-1V78z"/>
<path fill="#784040" d="M41,78h1v2h-1V78z"/>
<path fill="#B0B0C1" d="M50,78h1v1h-1V78z"/>
<path fill="#AFB0C0" d="M51,78h1v1h-1V78z"/>
<path fill="#5F5F5F" d="M52,78h1v1h-1V78z"/>
<path fill="#010101" d="M53,78h1v1h-1V78z"/>
<path fill="#606060" d="M62,78h1v1h-1V78z"/>
<path fill="#B0B0C1" d="M63,78h1v1h-1V78z"/>
<path fill="#AFB0C0" d="M64,78h1v1h-1V78z"/>
<path fill="#5F5F5F" d="M65,78h1v1h-1V78z"/>
<path fill="#784040" d="M73,78h1v2h-1V78z"/>
<path fill="#E7E8F7" d="M74,78h1v1h-1V78z"/>
<path fill="#E8E9F8" d="M75,78h1v1h-1V78z"/>
<path fill="#010101" d="M76,78h1v2h-1V78z"/>
<path fill="#505888" d="M85,78h1v1h-1V78z"/>
<path fill="#784040" d="M86,78h2v1h-2V78z"/>
<path fill="#5F5F5F" d="M4,79h1v1H4V79z"/>
<path fill="#606060" d="M5,79h1v1H5V79z"/>
<path fill="#010101" d="M6,79h1v4H6V79z"/>
<path fill="#784040" d="M7,79h1v1H7V79z"/>
<path fill="#B05048" d="M8,79h1v1H8V79z"/>
<path fill="#B05048" d="M14,79h1v1h-1V79z"/>
<path fill="#784040" d="M15,79h1v1h-1V79z"/>
<path fill="#010101" d="M16,79h1v3h-1V79z"/>
<path fill="#606060" d="M17,79h1v1h-1V79z"/>
<path fill="#5F5F5F" d="M18,79h1v1h-1V79z"/>
<path fill="#010101" d="M29,79h1v3h-1V79z"/>
<path fill="#784040" d="M30,79h1v1h-1V79z"/>
<path fill="#B05048" d="M31,79h1v1h-1V79z"/>
<path fill="#B05048" d="M37,79h1v1h-1V79z"/>
<path fill="#010101" d="M38,79h1v1h-1V79z"/>
<path fill="#AFB0C0" d="M39,79h2v1h-2V79z"/>
<path fill="#606060" d="M50,79h1v1h-1V79z"/>
<path fill="#5F5F5F" d="M51,79h1v1h-1V79z"/>
<path fill="#010101" d="M52,79h1v1h-1V79z"/>
<path fill="#784040" d="M53,79h1v1h-1V79z"/>
<path fill="#B05048" d="M54,79h1v1h-1V79z"/>
<path fill="#B05048" d="M60,79h1v1h-1V79z"/>
<path fill="#784040" d="M61,79h1v1h-1V79z"/>
<path fill="#010101" d="M62,79h1v2h-1V79z"/>
<path fill="#5F5F5F" d="M63,79h1v1h-1V79z"/>
<path fill="#606060" d="M64,79h1v1h-1V79z"/>
<path fill="#B0B1C1" d="M74,79h1v1h-1V79z"/>
<path fill="#AFB0C0" d="M75,79h1v1h-1V79z"/>
<path fill="#B05048" d="M77,79h1v1h-1V79z"/>
<path fill="#B05048" d="M83,79h1v1h-1V79z"/>
<path fill="#784040" d="M84,79h1v1h-1V79z"/>
<path fill="#010101" d="M85,79h1v2h-1V79z"/>
<path fill="#E87060" d="M7,80h1v1H7V80z"/>
<path fill="#784040" d="M8,80h7v1H8V80z"/>
<path fill="#E87060" d="M15,80h1v1h-1V80z"/>
<path fill="#E87060" d="M30,80h1v1h-1V80z"/>
<path fill="#784040" d="M31,80h7v1h-7V80z"/>
<path fill="#B05048" d="M38,80h1v1h-1V80z"/>
<path fill="#010101" d="M39,80h2v1h-2V80z"/>
<path fill="#020202" d="M52,80h1v1h-1V80z"/>
<path fill="#E87060" d="M53,80h1v1h-1V80z"/>
<path fill="#784040" d="M54,80h7v1h-7V80z"/>
<path fill="#E87060" d="M61,80h1v1h-1V80z"/>
<path fill="#010101" d="M74,80h1v1h-1V80z"/>
<path fill="#020202" d="M75,80h1v1h-1V80z"/>
<path fill="#B05048" d="M76,80h1v1h-1V80z"/>
<path fill="#784040" d="M77,80h4v1h-4V80z"/>
<path fill="#2F2F48" d="M81,80h1v1h-1V80z"/>
<path fill="#784040" d="M82,80h2v1h-2V80z"/>
<path fill="#E87060" d="M84,80h1v1h-1V80z"/>
<path fill="#B05048" d="M7,81h1v1H7V81z"/>
<path fill="#E87060" d="M8,81h3v1H8V81z"/>
<path fill="#B05048" d="M11,81h1v1h-1V81z"/>
<path fill="#E87060" d="M12,81h3v1h-3V81z"/>
<path fill="#B05048" d="M15,81h1v1h-1V81z"/>
<path fill="#B05048" d="M30,81h1v1h-1V81z"/>
<path fill="#E87060" d="M31,81h3v1h-3V81z"/>
<path fill="#B05048" d="M34,81h3v1h-3V81z"/>
<path fill="#020202" d="M37,81h2v1h-2V81z"/>
<path fill="#010101" d="M52,81h1v2h-1V81z"/>
<path fill="#B05048" d="M53,81h1v1h-1V81z"/>
<path fill="#E87060" d="M54,81h3v1h-3V81z"/>
<path fill="#B05048" d="M57,81h1v1h-1V81z"/>
<path fill="#E87060" d="M58,81h3v1h-3V81z"/>
<path fill="#B05048" d="M61,81h1v1h-1V81z"/>
<path fill="#020202" d="M62,81h1v1h-1V81z"/>
<path fill="#010101" d="M76,81h1v1h-1V81z"/>
<path fill="#020202" d="M77,81h1v1h-1V81z"/>
<path fill="#B05048" d="M78,81h3v1h-3V81z"/>
<path fill="#E87060" d="M81,81h3v1h-3V81z"/>
<path fill="#B05048" d="M84,81h1v1h-1V81z"/>
<path fill="#020202" d="M85,81h1v1h-1V81z"/>
<path fill="#37302F" d="M7,82h1v1H7V82z"/>
<path fill="#383130" d="M8,82h1v1H8V82z"/>
<path fill="#010101" d="M9,82h2v1H9V82z"/>
<path fill="#020202" d="M11,82h1v1h-1V82z"/>
<path fill="#010101" d="M12,82h2v1h-2V82z"/>
<path fill="#383030" d="M14,82h2v1h-2V82z"/>
<path fill="#020202" d="M16,82h1v1h-1V82z"/>
<path fill="#010101" d="M30,82h1v3h-1V82z"/>
<path fill="#383030" d="M31,82h1v1h-1V82z"/>
<path fill="#010101" d="M32,82h2v1h-2V82z"/>
<path fill="#020202" d="M34,82h1v1h-1V82z"/>
<path fill="#010101" d="M35,82h2v1h-2V82z"/>
<path fill="#37302F" d="M53,82h1v1h-1V82z"/>
<path fill="#383030" d="M54,82h1v1h-1V82z"/>
<path fill="#010101" d="M55,82h3v1h-3V82z"/>
<path fill="#020202" d="M58,82h2v1h-2V82z"/>
<path fill="#373030" d="M60,82h1v1h-1V82z"/>
<path fill="#383030" d="M61,82h1v1h-1V82z"/>
<path fill="#010101" d="M62,82h1v1h-1V82z"/>
<path fill="#010101" d="M78,82h5v1h-5V82z"/>
<path fill="#383030" d="M83,82h1v1h-1V82z"/>
<path fill="#020202" d="M84,82h1v2h-1V82z"/>
<path fill="#010101" d="M7,83h2v1H7V83z"/>
<path fill="#010101" d="M14,83h2v1h-2V83z"/>
<path fill="#684F48" d="M31,83h2v2h-1v-1h-1V83z"/>
<path fill="#383030" d="M33,83h1v1h-1V83z"/>
<path fill="#020202" d="M53,83h1v1h-1V83z"/>
<path fill="#010101" d="M54,83h1v1h-1V83z"/>
<path fill="#010101" d="M60,83h2v1h-2V83z"/>
<path fill="#383030" d="M81,83h1v1h-1V83z"/>
<path fill="#684F48" d="M82,83h2v1h-2V83z"/>
<path fill="#695049" d="M31,84h1v1h-1V84z"/>
<path fill="#020202" d="M33,84h1v1h-1V84z"/>
<path fill="#010101" d="M81,84h1v1h-1V84z"/>
<path fill="#695048" d="M82,84h2v1h-2V84z"/>
<path fill="#010101" d="M84,84h1v1h-1V84z"/>
<path fill="#010101" d="M31,85h1v1h-1V85z"/>
<path fill="#020202" d="M32,85h1v1h-1V85z"/>
<path fill="#010101" d="M82,85h2v1h-2V85z"/>
<path fill="#784040" d="M8,89h4v1H8V89z"/>
<path fill="#784040" d="M31,89h4v1h-4V89z"/>
<path fill="#784040" d="M54,89h4v1h-4V89z"/>
<path fill="#784040" d="M77,89h4v1h-4V89z"/>
<path fill="#784040" d="M7,90h1v1H7V90z"/>
<path fill="#E87060" d="M8,90h4v1h3v1h2v1h1v1h1v2h-3v-1h-3v-1h-3v-1H8v-1H7v-1h1V90z"/>
<path fill="#784040" d="M12,90h3v1h-3V90z"/>
<path fill="#784040" d="M30,90h1v1h-1V90z"/>
<path fill="#E87060" d="M31,90h4v1h3v1h2v1h1v1h1v2h-3v-1h-3v-1h-3v-1h-2v-1h-1v-1h1V90z"/>
<path fill="#784040" d="M35,90h3v1h-3V90z"/>
<path fill="#784040" d="M53,90h1v1h-1V90z"/>
<path fill="#E87060" d="M54,90h4v1h3v1h2v1h1v1h1v2h-3v-1h-3v-1h-3v-1h-2v-1h-1v-1h1V90z"/>
<path fill="#784040" d="M58,90h3v1h-3V90z"/>
<path fill="#784040" d="M76,90h1v1h-1V90z"/>
<path fill="#E87060" d="M77,90h4v1h3v1h2v1h1v1h1v2h-3v-1h-3v-1h-3v-1h-2v-1h-1v-1h1V90z"/>
<path fill="#784040" d="M81,90h1v1h-1V90z"/>
<path fill="#2F2F48" d="M82,90h1v1h-1V90z"/>
<path fill="#784040" d="M83,90h1v1h-1V90z"/>
<path fill="#784040" d="M6,91h1v1H6V91z"/>
<path fill="#784040" d="M15,91h2v1h-2V91z"/>
<path fill="#784040" d="M29,91h1v1h-1V91z"/>
<path fill="#784040" d="M38,91h2v1h-2V91z"/>
<path fill="#784040" d="M52,91h1v1h-1V91z"/>
<path fill="#784040" d="M61,91h2v1h-2V91z"/>
<path fill="#784040" d="M75,91h1v1h-1V91z"/>
<path fill="#784040" d="M84,91h2v1h-2V91z"/>
<path fill="#020202" d="M6,92h1v1H6V92z"/>
<path fill="#B05048" d="M7,92h1v1h2v1h3v1h3v1h2v2h-1v1h-3v-1h-4v-1H7V92z"/>
<path fill="#784040" d="M17,92h2v1h-2V92z"/>
<path fill="#010101" d="M29,92h1v3h-1V92z"/>
<path fill="#B05048" d="M30,92h1v1h2v1h3v1h3v1h2v2h-1v1h-3v-1h-4v-1h-3V92z"/>
<path fill="#784040" d="M40,92h2v1h-2V92z"/>
<path fill="#010101" d="M52,92h1v3h-1V92z"/>
<path fill="#B05048" d="M53,92h1v1h2v1h3v1h3v1h2v2h-1v1h-3v-1h-4v-1h-3V92z"/>
<path fill="#2F2F48" d="M63,92h1v1h-1V92z"/>
<path fill="#784040" d="M64,92h1v1h-1V92z"/>
<path fill="#020202" d="M75,92h1v1h-1V92z"/>
<path fill="#B05048" d="M76,92h1v1h2v1h3v1h3v1h2v2h-1v1h-3v-1h-4v-1h-3V92z"/>
<path fill="#784040" d="M86,92h2v1h-2V92z"/>
<path fill="#010101" d="M6,93h1v2H6V93z"/>
<path fill="#B05048" d="M18,93h1v1h-1V93z"/>
<path fill="#020202" d="M19,93h1v2h-1V93z"/>
<path fill="#B05048" d="M41,93h1v1h-1V93z"/>
<path fill="#010101" d="M42,93h1v3h-1V93z"/>
<path fill="#B05048" d="M64,93h1v1h-1V93z"/>
<path fill="#010101" d="M65,93h1v3h-1V93z"/>
<path fill="#010101" d="M75,93h1v2h-1V93z"/>
<path fill="#B05048" d="M87,93h1v1h-1V93z"/>
<path fill="#020202" d="M88,93h1v2h-1V93z"/>
<path fill="#010101" d="M5,95h1v2H5V95z"/>
<path fill="#784040" d="M6,95h1v1H6V95z"/>
<path fill="#010101" d="M19,95h1v1h-1V95z"/>
<path fill="#010101" d="M28,95h1v2h-1V95z"/>
<path fill="#784040" d="M29,95h1v1h-1V95z"/>
<path fill="#010101" d="M51,95h1v1h-1V95z"/>
<path fill="#784040" d="M52,95h1v1h-1V95z"/>
<path fill="#010101" d="M74,95h1v1h-1V95z"/>
<path fill="#784040" d="M75,95h1v1h-1V95z"/>
<path fill="#010101" d="M88,95h1v1h-1V95z"/>
<path fill="#E8B860" d="M6,96h1v1H6V96z"/>
<path fill="#010101" d="M18,96h1v2h-1V96z"/>
<path fill="#E8B860" d="M29,96h1v1h-1V96z"/>
<path fill="#010101" d="M41,96h1v2h-1V96z"/>
<path fill="#020202" d="M51,96h1v1h-1V96z"/>
<path fill="#E8B860" d="M52,96h1v1h-1V96z"/>
<path fill="#010101" d="M64,96h1v1h-1V96z"/>
<path fill="#020202" d="M74,96h1v1h-1V96z"/>
<path fill="#E8B860" d="M75,96h1v1h-1V96z"/>
<path fill="#010101" d="M87,96h1v2h-1V96z"/>
<path fill="#783F40" d="M5,97h1v2H5V97z"/>
<path fill="#010101" d="M6,97h1v1H6V97z"/>
<path fill="#A08860" d="M7,97h1v1H7V97z"/>
<path fill="#E8B960" d="M8,97h1v1H8V97z"/>
<path fill="#E8B860" d="M9,97h1v1H9V97z"/>
<path fill="#783F3F" d="M28,97h1v1h-1V97z"/>
<path fill="#020202" d="M29,97h1v1h-1V97z"/>
<path fill="#A08961" d="M30,97h1v1h-1V97z"/>
<path fill="#E8B860" d="M31,97h1v1h-1V97z"/>
<path fill="#E8B960" d="M32,97h1v1h-1V97z"/>
<path fill="#783F40" d="M51,97h1v2h-1V97z"/>
<path fill="#010101" d="M52,97h1v1h-1V97z"/>
<path fill="#A08860" d="M53,97h1v1h-1V97z"/>
<path fill="#E8B960" d="M54,97h1v1h-1V97z"/>
<path fill="#E7B85F" d="M55,97h1v1h-1V97z"/>
<path fill="#020202" d="M64,97h1v1h-1V97z"/>
<path fill="#783F3F" d="M74,97h1v1h-1V97z"/>
<path fill="#010101" d="M75,97h1v1h-1V97z"/>
<path fill="#A08860" d="M76,97h1v1h-1V97z"/>
<path fill="#E8B960" d="M77,97h2v1h-2V97z"/>
<path fill="#D7976F" d="M6,98h1v1H6V98z"/>
<path fill="#020202" d="M7,98h1v1H7V98z"/>
<path fill="#010101" d="M8,98h1v1H8V98z"/>
<path fill="#020202" d="M9,98h1v1H9V98z"/>
<path fill="#9F8860" d="M10,98h1v1h-1V98z"/>
<path fill="#E8B960" d="M11,98h1v1h-1V98z"/>
<path fill="#E8B860" d="M12,98h1v1h-1V98z"/>
<path fill="#E7B85F" d="M13,98h1v1h-1V98z"/>
<path fill="#010101" d="M17,98h1v3h-1V98z"/>
<path fill="#794040" d="M28,98h1v4h-1V98z"/>
<path fill="#D7976F" d="M29,98h1v1h-1V98z"/>
<path fill="#010101" d="M30,98h3v1h-3V98z"/>
<path fill="#A08860" d="M33,98h1v1h-1V98z"/>
<path fill="#E8B960" d="M34,98h1v1h-1V98z"/>
<path fill="#E8B860" d="M35,98h2v1h-2V98z"/>
<path fill="#020202" d="M40,98h1v1h-1V98z"/>
<path fill="#D89870" d="M52,98h1v1h-1V98z"/>
<path fill="#010101" d="M53,98h2v1h-2V98z"/>
<path fill="#020202" d="M55,98h1v1h-1V98z"/>
<path fill="#A08961" d="M56,98h1v1h-1V98z"/>
<path fill="#E8B860" d="M57,98h2v1h-2V98z"/>
<path fill="#E8B960" d="M59,98h1v1h-1V98z"/>
<path fill="#010101" d="M63,98h1v2h-1V98z"/>
<path fill="#794040" d="M74,98h1v2h-1V98z"/>
<path fill="#D89870" d="M75,98h1v2h-1V98z"/>
<path fill="#010101" d="M76,98h2v1h-2V98z"/>
<path fill="#020202" d="M78,98h1v1h-1V98z"/>
<path fill="#A08860" d="M79,98h1v1h-1V98z"/>
<path fill="#E8B960" d="M80,98h2v1h-2V98z"/>
<path fill="#E8B860" d="M82,98h1v1h-1V98z"/>
<path fill="#020202" d="M86,98h1v1h-1V98z"/>
<path fill="#794040" d="M5,99h1v3H5V99z"/>
<path fill="#D89870" d="M6,99h2v1H6V99z"/>
<path fill="#684F48" d="M8,99h1v1H8V99z"/>
<path fill="#D89870" d="M9,99h1v1H9V99z"/>
<path fill="#010101" d="M10,99h4v1h-4V99z"/>
<path fill="#A08961" d="M14,99h1v1h-1V99z"/>
<path fill="#A08860" d="M15,99h2v1h-2V99z"/>
<path fill="#D89870" d="M29,99h2v1h-1v2h-1V99z"/>
<path fill="#684F48" d="M31,99h1v1h-1V99z"/>
<path fill="#D79770" d="M32,99h1v1h-1V99z"/>
<path fill="#010101" d="M33,99h2v1h-2V99z"/>
<path fill="#020202" d="M35,99h1v1h-1V99z"/>
<path fill="#010101" d="M36,99h1v1h-1V99z"/>
<path fill="#A08861" d="M37,99h1v1h-1V99z"/>
<path fill="#A08860" d="M38,99h1v1h-1V99z"/>
<path fill="#A08961" d="M39,99h1v1h-1V99z"/>
<path fill="#010101" d="M40,99h1v1h-1V99z"/>
<path fill="#784040" d="M51,99h1v1h-1V99z"/>
<path fill="#D79770" d="M52,99h1v2h-1V99z"/>
<path fill="#D7976F" d="M53,99h1v1h-1V99z"/>
<path fill="#695048" d="M54,99h1v1h-1V99z"/>
<path fill="#D89870" d="M55,99h1v1h-1V99z"/>
<path fill="#010101" d="M56,99h4v1h-4V99z"/>
<path fill="#A08860" d="M60,99h3v1h-3V99z"/>
<path fill="#D79770" d="M76,99h1v1h-1V99z"/>
<path fill="#684F48" d="M77,99h1v1h-1V99z"/>
<path fill="#D89870" d="M78,99h1v2h1v-1h1v2h1v1h-1v1h-1v-2h-2V99z"/>
<path fill="#010101" d="M79,99h4v1h-4V99z"/>
<path fill="#A08961" d="M83,99h1v1h-1V99z"/>
<path fill="#A08860" d="M84,99h2v1h-2V99z"/>
<path fill="#010101" d="M86,99h1v2h-1V99z"/>
<path fill="#D7976F" d="M6,100h1v1H6V100z"/>
<path fill="#695049" d="M7,100h1v1H7V100z"/>
<path fill="#B0B0C1" d="M8,100h1v1H8V100z"/>
<path fill="#D79770" d="M9,100h1v2H9V100z"/>
<path fill="#684F48" d="M10,100h1v1h-1V100z"/>
<path fill="#D89870" d="M11,100h1v1h-1V100z"/>
<path fill="#37302F" d="M12,100h1v1h-1V100z"/>
<path fill="#695049" d="M13,100h1v1h-1V100z"/>
<path fill="#383030" d="M14,100h1v1h-1V100z"/>
<path fill="#37302F" d="M15,100h1v1h-1V100z"/>
<path fill="#383030" d="M16,100h1v1h-1V100z"/>
<path fill="#695049" d="M30,100h1v1h-1V100z"/>
<path fill="#AFB0C0" d="M31,100h1v1h-1V100z"/>
<path fill="#D89870" d="M32,100h1v1h1v1h-2V100z"/>
<path fill="#684F48" d="M33,100h1v1h-1V100z"/>
<path fill="#D89870" d="M34,100h1v1h-1V100z"/>
<path fill="#383030" d="M35,100h1v1h-1V100z"/>
<path fill="#695049" d="M36,100h1v1h-1V100z"/>
<path fill="#383030" d="M37,100h2v1h-2V100z"/>
<path fill="#373030" d="M39,100h1v1h-1V100z"/>
<path fill="#020202" d="M40,100h1v1h-1V100z"/>
<path fill="#794040" d="M51,100h1v2h-1V100z"/>
<path fill="#695049" d="M53,100h1v1h-1V100z"/>
<path fill="#B0B0C1" d="M54,100h1v1h-1V100z"/>
<path fill="#D7976F" d="M55,100h1v1h-1V100z"/>
<path fill="#684F48" d="M56,100h1v1h-1V100z"/>
<path fill="#D79770" d="M57,100h1v2h-1V100z"/>
<path fill="#383030" d="M58,100h1v1h-1V100z"/>
<path fill="#684F48" d="M59,100h1v1h-1V100z"/>
<path fill="#383030" d="M60,100h2v1h-2V100z"/>
<path fill="#383130" d="M62,100h1v1h-1V100z"/>
<path fill="#020202" d="M63,100h1v1h-1V100z"/>
<path fill="#783F40" d="M74,100h1v1h-1V100z"/>
<path fill="#D89770" d="M75,100h1v1h-1V100z"/>
<path fill="#695049" d="M76,100h1v1h-1V100z"/>
<path fill="#B0B0C0" d="M77,100h1v1h-1V100z"/>
<path fill="#695048" d="M79,100h1v1h-1V100z"/>
<path fill="#383030" d="M81,100h1v1h-1V100z"/>
<path fill="#684F48" d="M82,100h1v1h-1V100z"/>
<path fill="#383030" d="M83,100h2v1h-2V100z"/>
<path fill="#373030" d="M85,100h1v1h-1V100z"/>
<path fill="#D89870" d="M6,101h1v1H6V101z"/>
<path fill="#010101" d="M7,101h1v1H7V101z"/>
<path fill="#E8E8F8" d="M8,101h1v1H8V101z"/>
<path fill="#D89870" d="M10,101h1v1h-1V101z"/>
<path fill="#D7976F" d="M11,101h1v1h-1V101z"/>
<path fill="#D89870" d="M12,101h1v2h-2v-1h1V101z"/>
<path fill="#383130" d="M13,101h1v1h-1V101z"/>
<path fill="#684F48" d="M14,101h2v1h-2V101z"/>
<path fill="#010101" d="M16,101h1v2h-1V101z"/>
<path fill="#010101" d="M30,101h1v1h-1V101z"/>
<path fill="#E8E8F8" d="M31,101h1v1h-1V101z"/>
<path fill="#D79770" d="M34,101h1v1h-1V101z"/>
<path fill="#D89870" d="M35,101h1v2h-2v-1h1V101z"/>
<path fill="#383030" d="M36,101h1v3h-1V101z"/>
<path fill="#694F48" d="M37,101h1v1h-1V101z"/>
<path fill="#695048" d="M38,101h1v1h-1V101z"/>
<path fill="#010101" d="M39,101h1v2h-1V101z"/>
<path fill="#D89870" d="M52,101h1v1h-1V101z"/>
<path fill="#010101" d="M53,101h1v1h-1V101z"/>
<path fill="#E8E8F8" d="M54,101h1v1h-1V101z"/>
<path fill="#D89870" d="M55,101h1v1h-1V101z"/>
<path fill="#D7976F" d="M56,101h1v1h-1V101z"/>
<path fill="#D89870" d="M58,101h1v2h-1v1h-1v1h-1v-2h1v-1h1V101z"/>
<path fill="#373030" d="M59,101h1v1h-1V101z"/>
<path fill="#684F48" d="M60,101h2v1h-1v1h-1V101z"/>
<path fill="#010101" d="M62,101h1v2h-1V101z"/>
<path fill="#794040" d="M74,101h1v1h-1V101z"/>
<path fill="#D89870" d="M75,101h1v1h-1V101z"/>
<path fill="#010101" d="M76,101h1v1h-1V101z"/>
<path fill="#E8E8F8" d="M77,101h1v1h-1V101z"/>
<path fill="#D7976F" d="M81,101h1v1h-1V101z"/>
<path fill="#383030" d="M82,101h1v3h-1V101z"/>
<path fill="#695048" d="M83,101h2v1h-2V101z"/>
<path fill="#020202" d="M85,101h1v1h-1V101z"/>
<path fill="#D89870" d="M5,102h1v1H5V102z"/>
<path fill="#F8D0B9" d="M6,102h1v1H6V102z"/>
<path fill="#F8D0B8" d="M7,102h2v2H8v-1H7V102z"/>
<path fill="#F8CFB8" d="M9,102h1v1H9V102z"/>
<path fill="#F8D0B8" d="M10,102h1v1h-1V102z"/>
<path fill="#383030" d="M13,102h1v2h-1V102z"/>
<path fill="#695048" d="M14,102h1v1h-1V102z"/>
<path fill="#37302F" d="M15,102h1v1h-1V102z"/>
<path fill="#D89870" d="M28,102h1v1h-1V102z"/>
<path fill="#F8D0B9" d="M29,102h1v1h-1V102z"/>
<path fill="#F8D0B8" d="M30,102h1v1h1v1h-2V102z"/>
<path fill="#F8D0B9" d="M31,102h1v1h-1V102z"/>
<path fill="#F7CFB8" d="M32,102h1v1h-1V102z"/>
<path fill="#F8D0B9" d="M33,102h1v1h-1V102z"/>
<path fill="#684F48" d="M37,102h1v1h-1V102z"/>
<path fill="#383030" d="M38,102h1v1h-1V102z"/>
<path fill="#D89770" d="M51,102h1v1h-1V102z"/>
<path fill="#F8D0B9" d="M52,102h1v1h-1V102z"/>
<path fill="#F8D0B8" d="M53,102h1v2h-1V102z"/>
<path fill="#F7CFB8" d="M54,102h3v1h-2v1h-1V102z"/>
<path fill="#383130" d="M59,102h1v1h-1V102z"/>
<path fill="#383030" d="M61,102h1v1h-1V102z"/>
<path fill="#D89770" d="M74,102h1v1h-1V102z"/>
<path fill="#F8D0B8" d="M75,102h1v1h-1V102z"/>
<path fill="#F8D0B9" d="M76,102h3v1h-1v1h-2V102z"/>
<path fill="#F8D0B8" d="M79,102h1v1h-1V102z"/>
<path fill="#684F48" d="M83,102h1v1h-1V102z"/>
<path fill="#383030" d="M84,102h1v1h-1V102z"/>
<path fill="#010101" d="M85,102h1v1h-1V102z"/>
<path fill="#794040" d="M6,103h1v1H6V103z"/>
<path fill="#F8D0B9" d="M7,103h1v1H7V103z"/>
<path fill="#F8D0B9" d="M9,103h1v1H9V103z"/>
<path fill="#D79770" d="M10,103h2v1h-2V103z"/>
<path fill="#783F40" d="M12,103h1v1h-1V103z"/>
<path fill="#010101" d="M14,103h2v1h-2V103z"/>
<path fill="#783F3F" d="M29,103h1v1h-1V103z"/>
<path fill="#F8D0B9" d="M32,103h1v1h-1V103z"/>
<path fill="#D89770" d="M33,103h1v2h-1V103z"/>
<path fill="#D7976F" d="M34,103h1v1h-1V103z"/>
<path fill="#783F40" d="M35,103h1v1h-1V103z"/>
<path fill="#010101" d="M37,103h1v1h-1V103z"/>
<path fill="#020202" d="M38,103h1v1h-1V103z"/>
<path fill="#783F40" d="M52,103h1v1h-1V103z"/>
<path fill="#F8D0B8" d="M55,103h1v1h-1V103z"/>
<path fill="#794040" d="M58,103h1v1h-1V103z"/>
<path fill="#37302F" d="M59,103h1v1h-1V103z"/>
<path fill="#020202" d="M60,103h1v1h-1V103z"/>
<path fill="#010101" d="M61,103h1v1h-1V103z"/>
<path fill="#794040" d="M75,103h1v1h-1V103z"/>
<path fill="#F8D0B8" d="M78,103h1v1h-1V103z"/>
<path fill="#D7976F" d="M79,103h1v1h-1V103z"/>
<path fill="#794040" d="M81,103h1v1h-1V103z"/>
<path fill="#010101" d="M83,103h1v1h-1V103z"/>
<path fill="#020202" d="M84,103h1v1h-1V103z"/>
<path fill="#794040" d="M7,104h2v1H7V104z"/>
<path fill="#784040" d="M9,104h1v1H9V104z"/>
<path fill="#D89870" d="M10,104h1v1h-1V104z"/>
<path fill="#010101" d="M11,104h1v1h-1V104z"/>
<path fill="#020202" d="M12,104h1v1h-1V104z"/>
<path fill="#010101" d="M13,104h1v1h-1V104z"/>
<path fill="#783F40" d="M30,104h1v1h-1V104z"/>
<path fill="#794040" d="M31,104h1v1h-1V104z"/>
<path fill="#784040" d="M32,104h1v1h-1V104z"/>
<path fill="#010101" d="M34,104h1v1h-1V104z"/>
<path fill="#020202" d="M35,104h1v1h-1V104z"/>
<path fill="#010101" d="M36,104h1v1h-1V104z"/>
<path fill="#783F40" d="M53,104h2v1h-2V104z"/>
<path fill="#784040" d="M55,104h1v1h-1V104z"/>
<path fill="#010101" d="M57,104h3v1h-3V104z"/>
<path fill="#783F3F" d="M76,104h2v1h-2V104z"/>
<path fill="#784040" d="M78,104h1v1h-1V104z"/>
<path fill="#D79770" d="M79,104h1v1h-1V104z"/>
<path fill="#010101" d="M80,104h3v1h-3V104z"/>
<path fill="#784040" d="M8,105h1v2H8V105z"/>
<path fill="#B05048" d="M9,105h1v1H9V105z"/>
<path fill="#E87060" d="M10,105h1v1h-1V105z"/>
<path fill="#E7B85F" d="M11,105h2v1h-2V105z"/>
<path fill="#784040" d="M13,105h1v4h-1V105z"/>
<path fill="#784040" d="M31,105h1v1h1v2h-1v-1h-1V105z"/>
<path fill="#E87060" d="M32,105h1v1h-1V105z"/>
<path fill="#E8B860" d="M33,105h1v1h-1V105z"/>
<path fill="#E7B85F" d="M34,105h1v1h-1V105z"/>
<path fill="#695048" d="M35,105h1v1h-1V105z"/>
<path fill="#020202" d="M36,105h1v1h-1V105z"/>
<path fill="#784040" d="M54,105h1v2h-1V105z"/>
<path fill="#B05048" d="M55,105h1v1h-1V105z"/>
<path fill="#E87060" d="M56,105h1v1h-1V105z"/>
<path fill="#E8B860" d="M57,105h2v1h-2V105z"/>
<path fill="#784040" d="M59,105h1v4h-1V105z"/>
<path fill="#784040" d="M77,105h1v2h-1V105z"/>
<path fill="#B05048" d="M78,105h1v1h-1V105z"/>
<path fill="#E87060" d="M79,105h1v1h-1V105z"/>
<path fill="#E8B960" d="M80,105h1v1h-1V105z"/>
<path fill="#E8B860" d="M81,105h1v1h-1V105z"/>
<path fill="#784040" d="M82,105h1v1h-1V105z"/>
<path fill="#010101" d="M7,106h1v4H7V106z"/>
<path fill="#E87060" d="M9,106h1v1H9V106z"/>
<path fill="#784040" d="M10,106h1v2h-1V106z"/>
<path fill="#E87060" d="M11,106h2v2h-2V106z"/>
<path fill="#020202" d="M14,106h1v1h-1V106z"/>
<path fill="#010101" d="M30,106h1v2h-1V106z"/>
<path fill="#E87060" d="M33,106h2v2h-2V106z"/>
<path fill="#784040" d="M35,106h1v2h-1V106z"/>
<path fill="#B05048" d="M36,106h1v3h-1V106z"/>
<path fill="#020202" d="M37,106h1v2h-1V106z"/>
<path fill="#010101" d="M53,106h1v4h-1V106z"/>
<path fill="#E87060" d="M55,106h1v1h-1V106z"/>
<path fill="#784040" d="M56,106h1v2h-1V106z"/>
<path fill="#E87060" d="M57,106h2v2h-2V106z"/>
<path fill="#010101" d="M60,106h1v4h-1V106z"/>
<path fill="#010101" d="M76,106h1v5h-1V106z"/>
<path fill="#E87060" d="M78,106h1v1h-1V106z"/>
<path fill="#2F2F48" d="M79,106h1v1h-1V106z"/>
<path fill="#E87060" d="M80,106h2v2h-2V106z"/>
<path fill="#2F2F48" d="M82,106h1v1h-1V106z"/>
<path fill="#E87060" d="M8,107h1v2H8V107z"/>
<path fill="#B05048" d="M9,107h1v1H9V107z"/>
<path fill="#010101" d="M14,107h1v2h-1V107z"/>
<path fill="#B05048" d="M31,107h1v1h-1V107z"/>
<path fill="#E87060" d="M54,107h1v2h-1V107z"/>
<path fill="#B05048" d="M55,107h1v1h-1V107z"/>
<path fill="#E87060" d="M77,107h1v1h2v2h-1v-1h-2V107z"/>
<path fill="#E8B860" d="M78,107h1v1h-1V107z"/>
<path fill="#784040" d="M79,107h1v1h-1V107z"/>
<path fill="#B05048" d="M82,107h1v1h-1V107z"/>
<path fill="#010101" d="M83,107h1v2h-1V107z"/>
<path fill="#784040" d="M9,108h1v2H9V108z"/>
<path fill="#E8E8F8" d="M10,108h2v1h-2V108z"/>
<path fill="#010101" d="M12,108h1v1h-1V108z"/>
<path fill="#020202" d="M30,108h1v1h-1V108z"/>
<path fill="#784040" d="M31,108h1v2h-1V108z"/>
<path fill="#E8E8F8" d="M32,108h1v1h-1V108z"/>
<path fill="#E8E9F8" d="M33,108h1v1h-1V108z"/>
<path fill="#B0B0C0" d="M34,108h1v1h-1V108z"/>
<path fill="#2F2F48" d="M35,108h1v1h-1V108z"/>
<path fill="#010101" d="M37,108h1v1h-1V108z"/>
<path fill="#784040" d="M55,108h1v2h-1V108z"/>
<path fill="#E8E8F8" d="M56,108h2v1h-2V108z"/>
<path fill="#010101" d="M58,108h1v2h-1V108z"/>
<path fill="#784040" d="M80,108h1v2h-1V108z"/>
<path fill="#E8E8F8" d="M81,108h1v1h-1V108z"/>
<path fill="#E7E8F7" d="M82,108h1v1h-1V108z"/>
<path fill="#B05048" d="M8,109h1v1H8V109z"/>
<path fill="#B0B0C0" d="M10,109h1v1h-1V109z"/>
<path fill="#AFB0C0" d="M11,109h1v1h-1V109z"/>
<path fill="#020202" d="M12,109h1v1h-1V109z"/>
<path fill="#B05048" d="M13,109h1v1h-1V109z"/>
<path fill="#020202" d="M14,109h1v1h-1V109z"/>
<path fill="#010101" d="M30,109h1v1h-1V109z"/>
<path fill="#B0B0C0" d="M32,109h1v1h-1V109z"/>
<path fill="#AFB0C0" d="M33,109h1v1h-1V109z"/>
<path fill="#020202" d="M34,109h1v1h-1V109z"/>
<path fill="#B05048" d="M35,109h1v1h-1V109z"/>
<path fill="#E87060" d="M36,109h1v1h1v1h-1v1h-2v-1h-1v-1h2V109z"/>
<path fill="#B05048" d="M37,109h1v1h-1V109z"/>
<path fill="#020202" d="M38,109h1v1h-1V109z"/>
<path fill="#B05048" d="M54,109h1v1h-1V109z"/>
<path fill="#AFB0C0" d="M56,109h2v1h-2V109z"/>
<path fill="#B05048" d="M59,109h1v1h-1V109z"/>
<path fill="#B05048" d="M77,109h1v1h-1V109z"/>
<path fill="#E7B85F" d="M78,109h1v1h-1V109z"/>
<path fill="#B0B0C1" d="M81,109h2v1h-2V109z"/>
<path fill="#B05048" d="M83,109h1v3h-2v-1h1V109z"/>
<path fill="#010101" d="M84,109h1v1h-1V109z"/>
<path fill="#010101" d="M8,110h1v2H8V110z"/>
<path fill="#E87060" d="M9,110h1v1H9V110z"/>
<path fill="#020202" d="M10,110h1v1h-1V110z"/>
<path fill="#010101" d="M11,110h1v1h-1V110z"/>
<path fill="#B05048" d="M12,110h1v1h-1V110z"/>
<path fill="#020202" d="M13,110h1v2h-1V110z"/>
<path fill="#010101" d="M29,110h1v2h-1V110z"/>
<path fill="#373030" d="M30,110h1v1h-1V110z"/>
<path fill="#B05048" d="M31,110h1v1h-1V110z"/>
<path fill="#010101" d="M32,110h2v1h-2V110z"/>
<path fill="#010101" d="M38,110h1v1h-1V110z"/>
<path fill="#010101" d="M54,110h1v2h-1V110z"/>
<path fill="#E87060" d="M55,110h1v1h-1V110z"/>
<path fill="#010101" d="M56,110h2v1h-2V110z"/>
<path fill="#B05048" d="M58,110h1v1h-1V110z"/>
<path fill="#010101" d="M59,110h1v1h-1V110z"/>
<path fill="#E87060" d="M77,110h1v1h-1V110z"/>
<path fill="#B05048" d="M78,110h3v1h-3V110z"/>
<path fill="#010101" d="M81,110h2v1h-2V110z"/>
<path fill="#784040" d="M84,110h1v3h-2v-1h1V110z"/>
<path fill="#010101" d="M85,110h1v3h-1V110z"/>
<path fill="#37302F" d="M9,111h1v1H9V111z"/>
<path fill="#383030" d="M10,111h2v1h-2V111z"/>
<path fill="#373030" d="M12,111h1v1h-1V111z"/>
<path fill="#383030" d="M30,111h3v1h-3V111z"/>
<path fill="#020202" d="M33,111h1v1h-1V111z"/>
<path fill="#010101" d="M34,111h1v1h-1V111z"/>
<path fill="#B05048" d="M37,111h1v1h-1V111z"/>
<path fill="#684F48" d="M38,111h1v2h-1V111z"/>
<path fill="#010101" d="M39,111h1v2h-1V111z"/>
<path fill="#383030" d="M55,111h2v1h-2V111z"/>
<path fill="#37302F" d="M57,111h1v1h-1V111z"/>
<path fill="#383030" d="M58,111h1v1h-1V111z"/>
<path fill="#020202" d="M59,111h1v1h-1V111z"/>
<path fill="#784040" d="M75,111h1v1h-1V111z"/>
<path fill="#695049" d="M76,111h1v1h-1V111z"/>
<path fill="#020202" d="M77,111h1v1h-1V111z"/>
<path fill="#E87060" d="M78,111h2v1h-2V111z"/>
<path fill="#784040" d="M80,111h2v1h-2V111z"/>
<path fill="#010101" d="M9,112h3v1H9V112z"/>
<path fill="#020202" d="M12,112h1v1h-1V112z"/>
<path fill="#010101" d="M30,112h1v1h-1V112z"/>
<path fill="#020202" d="M31,112h1v1h-1V112z"/>
<path fill="#010101" d="M32,112h1v1h-1V112z"/>
<path fill="#010101" d="M35,112h1v1h-1V112z"/>
<path fill="#695048" d="M36,112h2v1h-2V112z"/>
<path fill="#010101" d="M55,112h3v1h-3V112z"/>
<path fill="#020202" d="M58,112h1v1h-1V112z"/>
<path fill="#010101" d="M75,112h1v1h-1V112z"/>
<path fill="#695048" d="M76,112h1v1h-1V112z"/>
<path fill="#684F48" d="M77,112h2v1h-2V112z"/>
<path fill="#010101" d="M79,112h2v1h-2V112z"/>
<path fill="#010101" d="M82,112h1v1h-1V112z"/>
<path fill="#020202" d="M36,113h1v1h-1V113z"/>
<path fill="#010101" d="M37,113h2v1h-2V113z"/>
<path fill="#010101" d="M76,113h3v1h-3V113z"/>
<path fill="#010101" d="M83,113h2v1h-2V113z"/>
</svg>
