<?xml version="1.0" encoding="utf-8"?>
<!-- Generator: Adobe Illustrator 16.0.4, SVG Export Plug-In . SVG Version: 6.00 Build 0)  -->
<!DOCTYPE svg PUBLIC "-//W3C//DTD SVG 1.1//EN" "http://www.w3.org/Graphics/SVG/1.1/DTD/svg11.dtd">
<svg version="1.1" id="Layer_1" xmlns="http://www.w3.org/2000/svg" xmlns:xlink="http://www.w3.org/1999/xlink" x="0px" y="0px"
	 width="68px" height="26px" viewBox="0 0 68 26" enable-background="new 0 0 68 26" xml:space="preserve">
<path fill="#784040" d="M6,2h5v1H6V2z"/>
<path fill="#784040" d="M21,2h5v1h-5V2z"/>
<path fill="#784040" d="M59,2h5v1h-5V2z"/>
<path fill="#784040" d="M4,3h2v1H4V3z"/>
<path fill="#E87060" d="M6,3h5v1h2v1h1v2h-1v1H4V7H3V5h1V4h2V3z"/>
<path fill="#784040" d="M11,3h2v1h-2V3z"/>
<path fill="#784040" d="M19,3h2v1h-2V3z"/>
<path fill="#E87060" d="M21,3h5v1h2v1h1v1h-1v1h-2v1h-5V7h-2V6h-1V5h1V4h2V3z"/>
<path fill="#784040" d="M26,3h2v1h-2V3z"/>
<path fill="#784040" d="M57,3h2v1h-2V3z"/>
<path fill="#E87060" d="M59,3h5v1h2v1h1v1h-1v1h-2v1h-5V7h-2V6h-1V5h1V4h2V3z"/>
<path fill="#784040" d="M64,3h2v1h-2V3z"/>
<path fill="#784040" d="M3,4h1v1H3V4z"/>
<path fill="#784040" d="M13,4h1v1h-1V4z"/>
<path fill="#784040" d="M18,4h1v1h-1V4z"/>
<path fill="#784040" d="M28,4h1v1h-1V4z"/>
<path fill="#784040" d="M56,4h1v1h-1V4z"/>
<path fill="#784040" d="M66,4h1v1h-1V4z"/>
<path fill="#030303" d="M2,5h1v3H2V5z"/>
<path fill="#030303" d="M14,5h1v3h-1V5z"/>
<path fill="#030303" d="M17,5h1v4h-1V5z"/>
<path fill="#784040" d="M29,5h1v4h-1V5z"/>
<path fill="#784040" d="M55,5h1v4h-1V5z"/>
<path fill="#040404" d="M67,5h1v4h-1V5z"/>
<path fill="#B05048" d="M18,6h1v1h2v1h5V7h2V6h1v3h-2v1h-7V9h-2V6z"/>
<path fill="#B05048" d="M56,6h1v1h2v1h5V7h2V6h1v3h-2v1h-7V9h-2V6z"/>
<path fill="#B05048" d="M3,7h1v1h9V7h1v2h-1v1H4V9H3V7z"/>
<path fill="#030303" d="M1,8h1v3H1V8z"/>
<path fill="#403040" d="M2,8h1v1H2V8z"/>
<path fill="#403040" d="M14,8h1v1h-1V8z"/>
<path fill="#030303" d="M15,8h1v2h-1V8z"/>
<path fill="#403040" d="M30,8h1v3h-1v-1h-1V9h1V8z"/>
<path fill="#403040" d="M54,8h1v1h1v1h-1v1h-1V8z"/>
<path fill="#604848" d="M2,9h1v1H2V9z"/>
<path fill="#784040" d="M3,9h1v1H3V9z"/>
<path fill="#784040" d="M13,9h1v1h-1V9z"/>
<path fill="#604848" d="M14,9h1v1h-1V9z"/>
<path fill="#403040" d="M17,9h1v1h2v1h-2v2h-1V9z"/>
<path fill="#030303" d="M18,9h2v1h-2V9z"/>
<path fill="#784040" d="M27,9h2v1h-2V9z"/>
<path fill="#784040" d="M56,9h2v1h-2V9z"/>
<path fill="#040404" d="M65,9h2v1h-2V9z"/>
<path fill="#403040" d="M67,9h1v4h-1v-2h-2v-1h2V9z"/>
<path fill="#403040" d="M2,10h1v2H2V10z"/>
<path fill="#604848" d="M3,10h1v1h9v-1h1v2H3V10z"/>
<path fill="#784040" d="M4,10h9v1H4V10z"/>
<path fill="#403040" d="M14,10h2v1h-1v1h-1V10z"/>
<path fill="#030303" d="M20,10h7v1h-7V10z"/>
<path fill="#403040" d="M27,10h2v1h-2V10z"/>
<path fill="#D89870" d="M29,10h1v5h-1v-2h-2v-1h2V10z"/>
<path fill="#D89870" d="M55,10h1v2h2v1h-2v2h-1V10z"/>
<path fill="#403040" d="M56,10h2v1h-2V10z"/>
<path fill="#040404" d="M58,10h7v1h-7V10z"/>
<path fill="#030303" d="M0,11h1v2H0V11z"/>
<path fill="#D89870" d="M1,11h1v1h1v2H2v-1H1V11z"/>
<path fill="#D89870" d="M15,11h1v2h-1v1h-1v-2h1V11z"/>
<path fill="#030303" d="M16,11h1v2h-1V11z"/>
<path fill="#604848" d="M18,11h2v1h-1v1h-1V11z"/>
<path fill="#403040" d="M20,11h7v1h-7V11z"/>
<path fill="#604848" d="M27,11h2v1h-2V11z"/>
<path fill="#784040" d="M30,11h1v4h-1V11z"/>
<path fill="#784040" d="M54,11h1v4h-1V11z"/>
<path fill="#604848" d="M56,11h2v1h-2V11z"/>
<path fill="#403040" d="M58,11h7v1h-7V11z"/>
<path fill="#604848" d="M65,11h2v2h-1v-1h-1V11z"/>
<path fill="#403040" d="M3,12h1v2H3V12z"/>
<path fill="#D89870" d="M4,12h9v2h1v1h-1v1h-1v-3H5v3H4v-1H3v-1h1V12z"/>
<path fill="#403040" d="M13,12h1v2h-1V12z"/>
<path fill="#403040" d="M19,12h1v1h-1V12z"/>
<path fill="#604848" d="M20,12h7v1h-1v1h-1v-1h-1v1h-1v1h-2v-1h-1v1h-1v-2h1V12z"/>
<path fill="#604848" d="M58,12h7v1h1v2h-1v-1h-1v1h-2v-1h-1v-1h-1v1h-1v-1h-1V12z"/>
<path fill="#403040" d="M65,12h1v1h-1V12z"/>
<path fill="#030303" d="M1,13h1v1H1V13z"/>
<path fill="#A8A8D8" d="M5,13h1v1H5V13z"/>
<path fill="#387058" d="M6,13h1v1H6V13z"/>
<path fill="#F8D0B8" d="M7,13h3v2h2v1h-1v1H9v-1H8v1H6v-1H5v-1h2V13z"/>
<path fill="#387058" d="M10,13h1v1h-1V13z"/>
<path fill="#A8A8D8" d="M11,13h1v1h-1V13z"/>
<path fill="#030303" d="M15,13h1v1h-1V13z"/>
<path fill="#403040" d="M18,13h1v1h-1V13z"/>
<path fill="#D89870" d="M24,13h1v1h1v-1h1v2h-2v1h1v2h-1v-1h-1v-1h-1v-2h1V13z"/>
<path fill="#A8A8D8" d="M27,13h1v1h-1V13z"/>
<path fill="#387058" d="M28,13h1v1h-1V13z"/>
<path fill="#387058" d="M56,13h1v1h-1V13z"/>
<path fill="#A8A8D8" d="M57,13h1v1h-1V13z"/>
<path fill="#D89870" d="M58,13h1v1h1v-1h1v1h1v2h-1v1h-1v1h-1v-2h1v-1h-2V13z"/>
<path fill="#403040" d="M66,13h1v1h-1V13z"/>
<path fill="#030303" d="M2,14h1v1H2V14z"/>
<path fill="#E8E8F8" d="M5,14h1v1H5V14z"/>
<path fill="#030303" d="M6,14h1v1H6V14z"/>
<path fill="#030303" d="M10,14h1v1h-1V14z"/>
<path fill="#E8E8F8" d="M11,14h1v1h-1V14z"/>
<path fill="#030303" d="M14,14h1v1h-1V14z"/>
<path fill="#030303" d="M18,14h1v1h-1V14z"/>
<path fill="#403040" d="M20,14h1v1h2v2h-1v-1h-2V14z"/>
<path fill="#E8E8F8" d="M27,14h1v1h-1V14z"/>
<path fill="#030303" d="M28,14h1v1h-1V14z"/>
<path fill="#040404" d="M56,14h1v1h-1V14z"/>
<path fill="#E8E8F8" d="M57,14h1v1h-1V14z"/>
<path fill="#403040" d="M64,14h1v2h-2v1h-1v-2h2V14z"/>
<path fill="#040404" d="M66,14h1v1h-1V14z"/>
<path fill="#784040" d="M3,15h1v1H3V15z"/>
<path fill="#784040" d="M13,15h1v1h-1V15z"/>
<path fill="#030303" d="M19,15h1v1h-1V15z"/>
<path fill="#F8D0B8" d="M25,15h5v1h-1v1h-3v-1h-1V15z"/>
<path fill="#D89870" d="M30,15h1v1h-1V15z"/>
<path fill="#D89870" d="M54,15h1v1h-1V15z"/>
<path fill="#F8D0B8" d="M55,15h5v1h-1v1h-3v-1h-1V15z"/>
<path fill="#040404" d="M65,15h1v1h-1V15z"/>
<path fill="#030303" d="M3,16h1v1H3V16z"/>
<path fill="#784040" d="M4,16h1v1H4V16z"/>
<path fill="#D89870" d="M5,16h1v1H5V16z"/>
<path fill="#D89870" d="M8,16h1v1h1v1H7v-1h1V16z"/>
<path fill="#D89870" d="M11,16h1v1h-1V16z"/>
<path fill="#784040" d="M12,16h1v1h-1V16z"/>
<path fill="#030303" d="M13,16h1v1h-1V16z"/>
<path fill="#030303" d="M20,16h2v1h-2V16z"/>
<path fill="#784040" d="M23,16h1v1h-1V16z"/>
<path fill="#784040" d="M29,16h1v1h-1V16z"/>
<path fill="#784040" d="M55,16h1v1h-1V16z"/>
<path fill="#784040" d="M61,16h1v1h-1V16z"/>
<path fill="#040404" d="M63,16h2v1h-2V16z"/>
<path fill="#030303" d="M2,17h1v1H2V17z"/>
<path fill="#B0B0C0" d="M3,17h1v1H3V17z"/>
<path fill="#E8E8F8" d="M4,17h1v2H4V17z"/>
<path fill="#030303" d="M5,17h1v1H5V17z"/>
<path fill="#784040" d="M6,17h1v1H6V17z"/>
<path fill="#784040" d="M10,17h1v1h-1V17z"/>
<path fill="#030303" d="M11,17h1v1h-1V17z"/>
<path fill="#E8E8F8" d="M12,17h1v2h-1V17z"/>
<path fill="#B0B0C0" d="M13,17h1v1h-1V17z"/>
<path fill="#030303" d="M14,17h1v1h-1V17z"/>
<path fill="#784040" d="M22,17h1v1h-1V17z"/>
<path fill="#030303" d="M23,17h2v1h-2V17z"/>
<path fill="#303040" d="M26,17h1v1h-1V17z"/>
<path fill="#784040" d="M27,17h2v1h-2V17z"/>
<path fill="#784040" d="M56,17h2v1h-2V17z"/>
<path fill="#303040" d="M58,17h1v1h-1V17z"/>
<path fill="#040404" d="M60,17h2v1h-2V17z"/>
<path fill="#784040" d="M62,17h1v1h-1V17z"/>
<path fill="#030303" d="M1,18h1v1H1V18z"/>
<path fill="#D89870" d="M2,18h1v1h1v1H2V18z"/>
<path fill="#585060" d="M3,18h1v1H3V18z"/>
<path fill="#784040" d="M5,18h1v1H5V18z"/>
<path fill="#B05048" d="M6,18h1v2H5v-1h1V18z"/>
<path fill="#784040" d="M7,18h3v2H9v-1H8v1H7V18z"/>
<path fill="#B05048" d="M10,18h1v1h1v1h-2V18z"/>
<path fill="#784040" d="M11,18h1v1h-1V18z"/>
<path fill="#585060" d="M13,18h1v1h-1V18z"/>
<path fill="#D89870" d="M14,18h1v2h-2v-1h1V18z"/>
<path fill="#030303" d="M15,18h1v1h-1V18z"/>
<path fill="#030303" d="M21,18h1v2h-1V18z"/>
<path fill="#B05048" d="M22,18h1v2h-1V18z"/>
<path fill="#585060" d="M23,18h1v1h-1V18z"/>
<path fill="#B0B0C0" d="M24,18h1v1h-1V18z"/>
<path fill="#B05048" d="M25,18h2v2h-1v-1h-1V18z"/>
<path fill="#585060" d="M27,18h1v1h-1V18z"/>
<path fill="#585060" d="M57,18h1v1h-1V18z"/>
<path fill="#B05048" d="M58,18h2v1h-1v1h-1V18z"/>
<path fill="#B0B0C0" d="M60,18h1v1h-1V18z"/>
<path fill="#585060" d="M61,18h1v1h-1V18z"/>
<path fill="#B05048" d="M62,18h1v2h-1V18z"/>
<path fill="#040404" d="M63,18h1v2h-1V18z"/>
<path fill="#784040" d="M0,19h1v1H0V19z"/>
<path fill="#F8D0B8" d="M1,19h1v1H1V19z"/>
<path fill="#030303" d="M4,19h1v1H4V19z"/>
<path fill="#B0B0C0" d="M8,19h1v1H8V19z"/>
<path fill="#030303" d="M12,19h1v1h-1V19z"/>
<path fill="#F8D0B8" d="M15,19h1v1h-1V19z"/>
<path fill="#784040" d="M16,19h1v1h-1V19z"/>
<path fill="#E8E8F8" d="M23,19h2v1h-2V19z"/>
<path fill="#585060" d="M25,19h1v1h-1V19z"/>
<path fill="#B0B0C0" d="M27,19h1v1h-1V19z"/>
<path fill="#585060" d="M28,19h1v1h-1V19z"/>
<path fill="#585060" d="M56,19h1v1h-1V19z"/>
<path fill="#B0B0C0" d="M57,19h1v1h-1V19z"/>
<path fill="#585060" d="M59,19h1v1h-1V19z"/>
<path fill="#E8E8F8" d="M60,19h2v1h-2V19z"/>
<path fill="#303030" d="M0,20h68v1H0V20z"/>
<path fill="#CDCDCD" d="M0,21h68v5H0V21z"/>
</svg>
