<?xml version="1.0" encoding="utf-8"?>
<!-- Generator: Adobe Illustrator 16.0.4, SVG Export Plug-In . SVG Version: 6.00 Build 0)  -->
<!DOCTYPE svg PUBLIC "-//W3C//DTD SVG 1.1//EN" "http://www.w3.org/Graphics/SVG/1.1/DTD/svg11.dtd">
<svg version="1.1" id="Layer_1" xmlns="http://www.w3.org/2000/svg" xmlns:xlink="http://www.w3.org/1999/xlink" x="0px" y="0px"
	 width="16px" height="26px" viewBox="0 0 16 26" enable-background="new 0 0 16 26" xml:space="preserve">
<path fill="#484028" d="M3,1h4v1H3V1z"/>
<path fill="#484028" d="M2,2h1v2H1V3h1V2z"/>
<path fill="#A89848" d="M3,2h3v1h5v1h2v1h1v2h-1v1h-2v1H8V8H6V7H4v1H3V6H2V5H1V4h3V3H3V2z"/>
<path fill="#654F36" d="M6,2h1v1H6V2z"/>
<path fill="#484028" d="M7,2h4v1H7V2z"/>
<path fill="#654F36" d="M3,3h1v1H3V3z"/>
<path fill="#484028" d="M11,3h3v1h-3V3z"/>
<path fill="#484028" d="M0,4h1v3H0V4z"/>
<path fill="#786048" d="M13,4h1v1h-1V4z"/>
<path fill="#484028" d="M14,4h1v2h-1V4z"/>
<path fill="#654F36" d="M1,5h1v1H1V5z"/>
<path fill="#786048" d="M1,6h1v1H1V6z"/>
<path fill="#654F36" d="M2,6h1v1H2V6z"/>
<path fill="#786048" d="M14,6h1v4h-1v2h-1v2h-1v-2h-1v-1H9V9h2V8h2V7h1V6z"/>
<path fill="#484028" d="M15,6h1v4h-1V6z"/>
<path fill="#484028" d="M1,7h1v2H1V7z"/>
<path fill="#786048" d="M2,7h1v1h1v1H2V7z"/>
<path fill="#654F36" d="M4,7h2v1H4V7z"/>
<path fill="#F8D0B8" d="M4,8h2v1h1v6H6v1H4v-1H3v-2h1v1h2v-2H4v-1h2v-1H4v1H3V9h1V8z"/>
<path fill="#654F36" d="M6,8h2v1H6V8z"/>
<path fill="#604040" d="M2,9h1v5H2V9z"/>
<path fill="#D8A078" d="M7,9h1v2H7V9z"/>
<path fill="#654F36" d="M8,9h1v2H8V9z"/>
<path fill="#654F36" d="M4,10h2v1H4V10z"/>
<path fill="#484028" d="M14,10h1v2h-1V10z"/>
<path fill="#D8A078" d="M3,11h1v2H3V11z"/>
<path fill="#654F36" d="M7,11h1v1H7V11z"/>
<path fill="#604040" d="M8,11h1v2H8V11z"/>
<path fill="#D8A078" d="M9,11h1v1h1v2h-1v1H9v2H7v-1H6v-1h1v-3h1v1h1V11z"/>
<path fill="#604040" d="M10,11h1v1h-1V11z"/>
<path fill="#404048" d="M4,12h1v1H4V12z"/>
<path fill="#A8A0C8" d="M5,12h1v1H5V12z"/>
<path fill="#604040" d="M11,12h1v2h-1V12z"/>
<path fill="#484028" d="M13,12h1v2h-1V12z"/>
<path fill="#030303" d="M4,13h1v1H4V13z"/>
<path fill="#E8E8F8" d="M5,13h1v1H5V13z"/>
<path fill="#D8A078" d="M2,14h1v1H2V14z"/>
<path fill="#604040" d="M10,14h1v1h-1V14z"/>
<path fill="#786048" d="M11,14h1v1h-1V14z"/>
<path fill="#484028" d="M12,14h1v1h-1V14z"/>
<path fill="#604040" d="M3,15h1v1H3V15z"/>
<path fill="#604040" d="M9,15h1v1H9V15z"/>
<path fill="#786048" d="M10,15h1v1h-1V15z"/>
<path fill="#484028" d="M11,15h1v1h-1V15z"/>
<path fill="#604040" d="M4,16h3v1H4V16z"/>
<path fill="#585878" d="M9,16h1v1H9V16z"/>
<path fill="#484028" d="M10,16h1v1h-1V16z"/>
<path fill="#383038" d="M5,17h1v1H5V17z"/>
<path fill="#4868B0" d="M6,17h2v1H7v2H6v2H5v-4h1V17z"/>
<path fill="#264F94" d="M8,17h1v1H8V17z"/>
<path fill="#1F3368" d="M9,17h2v2h-1v-1H9V17z"/>
<path fill="#1F3368" d="M7,18h2v1H7V18z"/>
<path fill="#264F94" d="M9,18h1v1H9V18z"/>
<path fill="#1F3368" d="M4,19h1v3H4V19z"/>
<path fill="#264F94" d="M7,19h2v1H7V19z"/>
<path fill="#1F3368" d="M9,19h1v1H9V19z"/>
<path fill="#264F94" d="M10,19h1v3h-1V19z"/>
<path fill="#1F3368" d="M11,19h1v1h-1V19z"/>
<path fill="#784040" d="M6,20h1v2H6V20z"/>
<path fill="#F8D0B8" d="M7,20h2v1H7V20z"/>
<path fill="#030303" d="M9,20h1v2H9V20z"/>
<path fill="#030303" d="M11,20h1v2h-1V20z"/>
<path fill="#D89870" d="M7,21h2v1H7V21z"/>
<path fill="#030303" d="M5,22h1v3H5V22z"/>
<path fill="#264F94" d="M6,22h1v1H6V22z"/>
<path fill="#030303" d="M7,22h2v1H7V22z"/>
<path fill="#264F94" d="M9,22h1v1H9V22z"/>
<path fill="#030303" d="M10,22h1v3h-1V22z"/>
<path fill="#B0B0C8" d="M6,23h4v1H6V23z"/>
<path fill="#585080" d="M6,24h4v1H6V24z"/>
<path fill="#030303" d="M6,25h4v1H6V25z"/>
</svg>
