<?xml version="1.0" encoding="utf-8"?>
<!-- Generator: Adobe Illustrator 16.0.4, SVG Export Plug-In . SVG Version: 6.00 Build 0)  -->
<!DOCTYPE svg PUBLIC "-//W3C//DTD SVG 1.1//EN" "http://www.w3.org/Graphics/SVG/1.1/DTD/svg11.dtd">
<svg version="1.1" id="Layer_1" xmlns="http://www.w3.org/2000/svg" xmlns:xlink="http://www.w3.org/1999/xlink" x="0px" y="0px"
	 width="17px" height="26px" viewBox="0 0 17 26" enable-background="new 0 0 17 26" xml:space="preserve">
<path fill="#484028" d="M3,1h4v1H3V1z"/>
<path fill="#484028" d="M2,2h1v2H1V3h1V2z"/>
<path fill="#A89848" d="M3,2h3v1h5v1h3v2h-1v2h-3v1H8V8H7v1H6V8H4v1H3V6H2V5H1V4h3V3H3V2z"/>
<path fill="#654F36" d="M6,2h1v1H6V2z"/>
<path fill="#484028" d="M7,2h4v1H7V2z"/>
<path fill="#654F36" d="M3,3h1v1H3V3z"/>
<path fill="#484028" d="M11,3h3v1h-3V3z"/>
<path fill="#484028" d="M0,4h1v3H0V4z"/>
<path fill="#484028" d="M14,4h1v1h-1V4z"/>
<path fill="#654F36" d="M1,5h1v1H1V5z"/>
<path fill="#786048" d="M14,5h1v4h-2V6h1V5z"/>
<path fill="#484028" d="M15,5h1v4h-1V5z"/>
<path fill="#786048" d="M1,6h1v1H1V6z"/>
<path fill="#654F36" d="M2,6h1v1H2V6z"/>
<path fill="#484028" d="M1,7h1v2H1V7z"/>
<path fill="#786048" d="M2,7h1v2H2V7z"/>
<path fill="#654F36" d="M4,8h2v1H4V8z"/>
<path fill="#F8D0B8" d="M7,8h1v1h5v4h-1v-1h-2v2h1v2H9v-1H8v1H6v-2h1v-2H5v1H4V9h3V8z"/>
<path fill="#654F36" d="M10,8h3v1h-3V8z"/>
<path fill="#604040" d="M1,9h1v1H1V9z"/>
<path fill="#484028" d="M2,9h1v2H2V9z"/>
<path fill="#654F36" d="M3,9h1v1H3V9z"/>
<path fill="#654F36" d="M13,9h1v1h-1V9z"/>
<path fill="#484028" d="M14,9h1v2h-1V9z"/>
<path fill="#604040" d="M15,9h1v1h-1V9z"/>
<path fill="#030303" d="M0,10h1v2H0V10z"/>
<path fill="#D8A078" d="M1,10h1v2H1V10z"/>
<path fill="#D8A078" d="M3,10h1v3h1v1h1v2H4v-2H3V10z"/>
<path fill="#654F36" d="M5,10h2v1H5V10z"/>
<path fill="#654F36" d="M10,10h2v1h-2V10z"/>
<path fill="#D8A078" d="M13,10h1v4h-1v2h-2v-2h1v-1h1V10z"/>
<path fill="#D8A078" d="M15,10h1v2h-1V10z"/>
<path fill="#030303" d="M16,10h1v2h-1V10z"/>
<path fill="#604040" d="M2,11h1v3H2V11z"/>
<path fill="#604040" d="M14,11h1v3h-1V11z"/>
<path fill="#030303" d="M1,12h1v1H1V12z"/>
<path fill="#A8A0C8" d="M5,12h1v1H5V12z"/>
<path fill="#404048" d="M6,12h1v1H6V12z"/>
<path fill="#404048" d="M10,12h1v1h-1V12z"/>
<path fill="#A8A0C8" d="M11,12h1v1h-1V12z"/>
<path fill="#030303" d="M15,12h1v1h-1V12z"/>
<path fill="#E8E8F8" d="M5,13h1v1H5V13z"/>
<path fill="#030303" d="M6,13h1v1H6V13z"/>
<path fill="#030303" d="M10,13h1v1h-1V13z"/>
<path fill="#E8E8F8" d="M11,13h1v1h-1V13z"/>
<path fill="#604040" d="M3,14h1v2H3V14z"/>
<path fill="#604040" d="M13,14h1v2h-1V14z"/>
<path fill="#D8A078" d="M8,15h1v1h2v1H6v-1h2V15z"/>
<path fill="#604040" d="M4,16h1v1H4V16z"/>
<path fill="#A07850" d="M5,16h1v1H5V16z"/>
<path fill="#A07850" d="M11,16h1v1h-1V16z"/>
<path fill="#604040" d="M12,16h1v1h-1V16z"/>
<path fill="#030303" d="M2,17h1v1H2V17z"/>
<path fill="#264F94" d="M3,17h2v1h7v-1h2v2h-2v2h-1v1h-1v-2H7v2H6v-1H5v-2H3V17z"/>
<path fill="#604040" d="M5,17h1v1H5V17z"/>
<path fill="#1F3368" d="M6,17h1v1H6V17z"/>
<path fill="#604040" d="M7,17h3v1H7V17z"/>
<path fill="#1F3368" d="M10,17h1v1h-1V17z"/>
<path fill="#604040" d="M11,17h1v1h-1V17z"/>
<path fill="#030303" d="M14,17h1v1h-1V17z"/>
<path fill="#030303" d="M1,18h1v1H1V18z"/>
<path fill="#5878C0" d="M2,18h1v1H2V18z"/>
<path fill="#5878C0" d="M14,18h1v1h-1V18z"/>
<path fill="#030303" d="M15,18h1v1h-1V18z"/>
<path fill="#604040" d="M0,19h1v2H0V19z"/>
<path fill="#D89870" d="M1,19h1v1h1v1H1V19z"/>
<path fill="#1F3368" d="M2,19h1v1H2V19z"/>
<path fill="#5878C0" d="M3,19h1v1H3V19z"/>
<path fill="#030303" d="M4,19h1v2H4V19z"/>
<path fill="#030303" d="M12,19h1v2h-1V19z"/>
<path fill="#5878C0" d="M13,19h1v1h-1V19z"/>
<path fill="#1F3368" d="M14,19h1v1h-1V19z"/>
<path fill="#D89870" d="M15,19h1v2h-2v-1h1V19z"/>
<path fill="#604040" d="M16,19h1v2h-1V19z"/>
<path fill="#1F3368" d="M3,20h1v1H3V20z"/>
<path fill="#4868B0" d="M7,20h3v2H7V20z"/>
<path fill="#1F3368" d="M13,20h1v1h-1V20z"/>
<path fill="#604040" d="M1,21h2v1H1V21z"/>
<path fill="#030303" d="M3,21h1v2h1v1H4v1H3V21z"/>
<path fill="#1F3368" d="M4,21h2v1H4V21z"/>
<path fill="#1F3368" d="M11,21h2v1h-2V21z"/>
<path fill="#030303" d="M13,21h1v4h-1v-1h-1v-1h1V21z"/>
<path fill="#604040" d="M14,21h2v1h-2V21z"/>
<path fill="#B0B0C8" d="M4,22h2v1h5v-1h2v1h-1v1H5v-1H4V22z"/>
<path fill="#1F3368" d="M6,22h5v1H6V22z"/>
<path fill="#585080" d="M4,24h2v1H4V24z"/>
<path fill="#030303" d="M6,24h1v1H6V24z"/>
<path fill="#030303" d="M10,24h1v1h-1V24z"/>
<path fill="#585080" d="M11,24h2v1h-2V24z"/>
<path fill="#030303" d="M4,25h2v1H4V25z"/>
<path fill="#030303" d="M11,25h2v1h-2V25z"/>
</svg>
