<?xml version="1.0" encoding="utf-8"?>
<!-- Generator: Adobe Illustrator 16.0.4, SVG Export Plug-In . SVG Version: 6.00 Build 0)  -->
<!DOCTYPE svg PUBLIC "-//W3C//DTD SVG 1.1//EN" "http://www.w3.org/Graphics/SVG/1.1/DTD/svg11.dtd">
<svg version="1.1" id="Layer_1" xmlns="http://www.w3.org/2000/svg" xmlns:xlink="http://www.w3.org/1999/xlink" x="0px" y="0px"
	 width="92px" height="116px" viewBox="0 0 92 116" enable-background="new 0 0 92 116" xml:space="preserve">
<path fill="#484028" d="M6,1h4v1H6V1z"/>
<path fill="#484028" d="M5,2h1v2H4V3h1V2z"/>
<path fill="#A89848" d="M6,2h3v1h5v1h3v2h-1v2h-3v1h-2V8h-1v1H9V8H7v1H6V6H5V5H4V4h3V3H6V2z"/>
<path fill="#654F36" d="M9,2h1v1H9V2z"/>
<path fill="#484028" d="M10,2h4v1h-4V2z"/>
<path fill="#654F36" d="M6,3h1v1H6V3z"/>
<path fill="#484028" d="M14,3h3v1h-3V3z"/>
<path fill="#484028" d="M3,4h1v3H3V4z"/>
<path fill="#484028" d="M17,4h1v1h-1V4z"/>
<path fill="#654F36" d="M4,5h1v1H4V5z"/>
<path fill="#786048" d="M17,5h1v4h-2V6h1V5z"/>
<path fill="#484028" d="M18,5h1v4h-1V5z"/>
<path fill="#786048" d="M4,6h1v1H4V6z"/>
<path fill="#654F36" d="M5,6h1v1H5V6z"/>
<path fill="#484028" d="M4,7h1v2H4V7z"/>
<path fill="#786048" d="M5,7h1v2H5V7z"/>
<path fill="#654F36" d="M7,8h2v1H7V8z"/>
<path fill="#F8D0B8" d="M10,8h1v1h5v4h-1v-1h-2v2h1v2h-2v-1h-1v1H9v-2h1v-2H8v1H7V9h3V8z"/>
<path fill="#654F36" d="M13,8h3v1h-3V8z"/>
<path fill="#604040" d="M4,9h1v1H4V9z"/>
<path fill="#484028" d="M5,9h1v2H5V9z"/>
<path fill="#654F36" d="M6,9h1v1H6V9z"/>
<path fill="#654F36" d="M16,9h1v1h-1V9z"/>
<path fill="#484028" d="M17,9h1v2h-1V9z"/>
<path fill="#604040" d="M18,9h1v1h-1V9z"/>
<path fill="#030303" d="M3,10h1v2H3V10z"/>
<path fill="#D8A078" d="M4,10h1v2H4V10z"/>
<path fill="#D8A078" d="M6,10h1v3h1v1h1v2H7v-2H6V10z"/>
<path fill="#654F36" d="M8,10h2v1H8V10z"/>
<path fill="#654F36" d="M13,10h2v1h-2V10z"/>
<path fill="#D8A078" d="M16,10h1v4h-1v2h-2v-2h1v-1h1V10z"/>
<path fill="#D8A078" d="M18,10h1v2h-1V10z"/>
<path fill="#030303" d="M19,10h1v2h-1V10z"/>
<path fill="#604040" d="M5,11h1v3H5V11z"/>
<path fill="#604040" d="M17,11h1v3h-1V11z"/>
<path fill="#030303" d="M4,12h1v1H4V12z"/>
<path fill="#A8A0C8" d="M8,12h1v1H8V12z"/>
<path fill="#404048" d="M9,12h1v1H9V12z"/>
<path fill="#404048" d="M13,12h1v1h-1V12z"/>
<path fill="#A8A0C8" d="M14,12h1v1h-1V12z"/>
<path fill="#030303" d="M18,12h1v1h-1V12z"/>
<path fill="#E8E8F8" d="M8,13h1v1H8V13z"/>
<path fill="#030303" d="M9,13h1v1H9V13z"/>
<path fill="#030303" d="M13,13h1v1h-1V13z"/>
<path fill="#E8E8F8" d="M14,13h1v1h-1V13z"/>
<path fill="#604040" d="M6,14h1v2H6V14z"/>
<path fill="#604040" d="M16,14h1v2h-1V14z"/>
<path fill="#D8A078" d="M11,15h1v1h2v1H9v-1h2V15z"/>
<path fill="#604040" d="M7,16h1v1H7V16z"/>
<path fill="#A07850" d="M8,16h1v1H8V16z"/>
<path fill="#A07850" d="M14,16h1v1h-1V16z"/>
<path fill="#604040" d="M15,16h1v1h-1V16z"/>
<path fill="#030303" d="M5,17h1v1H5V17z"/>
<path fill="#264F94" d="M6,17h2v1h7v-1h2v2h-2v2h-1v1h-1v-2h-3v2H9v-1H8v-2H6V17z"/>
<path fill="#604040" d="M8,17h1v1H8V17z"/>
<path fill="#1F3368" d="M9,17h1v1H9V17z"/>
<path fill="#604040" d="M10,17h3v1h-3V17z"/>
<path fill="#1F3368" d="M13,17h1v1h-1V17z"/>
<path fill="#604040" d="M14,17h1v1h-1V17z"/>
<path fill="#030303" d="M17,17h1v1h-1V17z"/>
<path fill="#030303" d="M4,18h1v1H4V18z"/>
<path fill="#5878C0" d="M5,18h1v1H5V18z"/>
<path fill="#5878C0" d="M17,18h1v1h-1V18z"/>
<path fill="#030303" d="M18,18h1v1h-1V18z"/>
<path fill="#604040" d="M3,19h1v2H3V19z"/>
<path fill="#D89870" d="M4,19h1v1h1v1H4V19z"/>
<path fill="#1F3368" d="M5,19h1v1H5V19z"/>
<path fill="#5878C0" d="M6,19h1v1H6V19z"/>
<path fill="#030303" d="M7,19h1v2H7V19z"/>
<path fill="#030303" d="M15,19h1v2h-1V19z"/>
<path fill="#5878C0" d="M16,19h1v1h-1V19z"/>
<path fill="#1F3368" d="M17,19h1v1h-1V19z"/>
<path fill="#D89870" d="M18,19h1v2h-2v-1h1V19z"/>
<path fill="#604040" d="M19,19h1v2h-1V19z"/>
<path fill="#1F3368" d="M6,20h1v1H6V20z"/>
<path fill="#4868B0" d="M10,20h3v2h-3V20z"/>
<path fill="#1F3368" d="M16,20h1v1h-1V20z"/>
<path fill="#604040" d="M4,21h2v1H4V21z"/>
<path fill="#030303" d="M6,21h1v2h1v1H7v1H6V21z"/>
<path fill="#1F3368" d="M7,21h2v1H7V21z"/>
<path fill="#1F3368" d="M14,21h2v1h-2V21z"/>
<path fill="#030303" d="M16,21h1v4h-1v-1h-1v-1h1V21z"/>
<path fill="#604040" d="M17,21h2v1h-2V21z"/>
<path fill="#B0B0C8" d="M7,22h2v1h5v-1h2v1h-1v1H8v-1H7V22z"/>
<path fill="#1F3368" d="M9,22h5v1H9V22z"/>
<path fill="#585080" d="M7,24h2v1H7V24z"/>
<path fill="#030303" d="M9,24h1v1H9V24z"/>
<path fill="#030303" d="M13,24h1v1h-1V24z"/>
<path fill="#585080" d="M14,24h2v1h-2V24z"/>
<path fill="#030303" d="M7,25h2v1H7V25z"/>
<path fill="#030303" d="M14,25h2v1h-2V25z"/>
<path fill="#484028" d="M13,31h4v1h-4V31z"/>
<path fill="#484028" d="M9,32h4v1H9V32z"/>
<path fill="#654F36" d="M13,32h1v1h-1V32z"/>
<path fill="#A89848" d="M14,32h3v1h-1v1h3v1h-1v1h-1v2h-1v-1h-2v1h-2v1H9v-1H7v-1H6v-2h1v-1h2v-1h5V32z"/>
<path fill="#484028" d="M17,32h1v1h1v1h-2V32z"/>
<path fill="#484028" d="M6,33h3v1H6V33z"/>
<path fill="#654F36" d="M16,33h1v1h-1V33z"/>
<path fill="#484028" d="M5,34h1v2H5V34z"/>
<path fill="#786048" d="M6,34h1v1H6V34z"/>
<path fill="#484028" d="M19,34h1v3h-1V34z"/>
<path fill="#654F36" d="M18,35h1v1h-1V35z"/>
<path fill="#484028" d="M4,36h1v4H4V36z"/>
<path fill="#786048" d="M5,36h1v1h1v1h2v1h2v2H9v1H8v2H7v-2H6v-2H5V36z"/>
<path fill="#654F36" d="M17,36h1v1h-1V36z"/>
<path fill="#786048" d="M18,36h1v1h-1V36z"/>
<path fill="#654F36" d="M14,37h2v1h-2V37z"/>
<path fill="#786048" d="M17,37h1v2h-2v-1h1V37z"/>
<path fill="#484028" d="M18,37h1v2h-1V37z"/>
<path fill="#654F36" d="M12,38h2v1h-2V38z"/>
<path fill="#F8D0B8" d="M14,38h2v1h1v2h-1v-1h-2v1h2v1h-2v2h2v-1h1v2h-1v1h-2v-1h-1v-6h1V38z"/>
<path fill="#654F36" d="M11,39h1v2h-1V39z"/>
<path fill="#D8A078" d="M12,39h1v2h-1V39z"/>
<path fill="#604040" d="M17,39h1v5h-1V39z"/>
<path fill="#484028" d="M5,40h1v2H5V40z"/>
<path fill="#654F36" d="M14,40h2v1h-2V40z"/>
<path fill="#604040" d="M9,41h1v1H9V41z"/>
<path fill="#D8A078" d="M10,41h1v2h1v-1h1v3h1v1h-1v1h-2v-2h-1v-1H9v-2h1V41z"/>
<path fill="#604040" d="M11,41h1v2h-1V41z"/>
<path fill="#654F36" d="M12,41h1v1h-1V41z"/>
<path fill="#D8A078" d="M16,41h1v2h-1V41z"/>
<path fill="#484028" d="M6,42h1v2H6V42z"/>
<path fill="#604040" d="M8,42h1v2H8V42z"/>
<path fill="#A8A0C8" d="M14,42h1v1h-1V42z"/>
<path fill="#404048" d="M15,42h1v1h-1V42z"/>
<path fill="#E8E8F8" d="M14,43h1v1h-1V43z"/>
<path fill="#040404" d="M15,43h1v1h-1V43z"/>
<path fill="#484028" d="M7,44h1v1H7V44z"/>
<path fill="#786048" d="M8,44h1v1H8V44z"/>
<path fill="#604040" d="M9,44h1v1H9V44z"/>
<path fill="#D8A078" d="M17,44h1v1h-1V44z"/>
<path fill="#484028" d="M8,45h1v1H8V45z"/>
<path fill="#786048" d="M9,45h1v1H9V45z"/>
<path fill="#604040" d="M10,45h1v1h-1V45z"/>
<path fill="#604040" d="M16,45h1v1h-1V45z"/>
<path fill="#484028" d="M9,46h1v1H9V46z"/>
<path fill="#585878" d="M10,46h1v1h-1V46z"/>
<path fill="#604040" d="M13,46h3v1h-3V46z"/>
<path fill="#1F3368" d="M9,47h2v1h-1v1H9V47z"/>
<path fill="#264F94" d="M11,47h1v1h-1V47z"/>
<path fill="#4868B0" d="M12,47h2v1h1v4h-1v-2h-1v-2h-1V47z"/>
<path fill="#383038" d="M14,47h1v1h-1V47z"/>
<path fill="#264F94" d="M10,48h1v1h-1V48z"/>
<path fill="#1F3368" d="M11,48h2v1h-2V48z"/>
<path fill="#1F3368" d="M8,49h1v1H8V49z"/>
<path fill="#264F94" d="M9,49h1v3H9V49z"/>
<path fill="#1F3368" d="M10,49h1v1h-1V49z"/>
<path fill="#264F94" d="M11,49h2v1h-2V49z"/>
<path fill="#1F3368" d="M15,49h1v3h-1V49z"/>
<path fill="#040404" d="M8,50h1v2H8V50z"/>
<path fill="#040404" d="M10,50h1v2h-1V50z"/>
<path fill="#F8D0B8" d="M11,50h2v1h-2V50z"/>
<path fill="#784040" d="M13,50h1v2h-1V50z"/>
<path fill="#D89870" d="M11,51h2v1h-2V51z"/>
<path fill="#040404" d="M9,52h1v3H9V52z"/>
<path fill="#264F94" d="M10,52h1v1h-1V52z"/>
<path fill="#040404" d="M11,52h2v1h-2V52z"/>
<path fill="#264F94" d="M13,52h1v1h-1V52z"/>
<path fill="#040404" d="M14,52h1v3h-1V52z"/>
<path fill="#B0B0C8" d="M10,53h4v1h-4V53z"/>
<path fill="#585080" d="M10,54h4v1h-4V54z"/>
<path fill="#040404" d="M10,55h4v1h-4V55z"/>
<path fill="#484028" d="M6,89h4v1H6V89z"/>
<path fill="#484028" d="M5,90h1v2H4v-1h1V90z"/>
<path fill="#A89848" d="M6,90h3v1h5v1h2v1h1v2h-1v1h-2v1h-3v-1H9v-1H7v1H6v-2H5v-1H4v-1h3v-1H6V90z"/>
<path fill="#654F36" d="M9,90h1v1H9V90z"/>
<path fill="#484028" d="M10,90h4v1h-4V90z"/>
<path fill="#654F36" d="M6,91h1v1H6V91z"/>
<path fill="#484028" d="M14,91h3v1h-3V91z"/>
<path fill="#484028" d="M3,92h1v3H3V92z"/>
<path fill="#786048" d="M16,92h1v1h-1V92z"/>
<path fill="#484028" d="M17,92h1v2h-1V92z"/>
<path fill="#654F36" d="M4,93h1v1H4V93z"/>
<path fill="#786048" d="M4,94h1v1H4V94z"/>
<path fill="#654F36" d="M5,94h1v1H5V94z"/>
<path fill="#786048" d="M17,94h1v4h-1v2h-1v2h-1v-2h-1v-1h-2v-2h2v-1h2v-1h1V94z"/>
<path fill="#484028" d="M18,94h1v4h-1V94z"/>
<path fill="#484028" d="M4,95h1v2H4V95z"/>
<path fill="#786048" d="M5,95h1v1h1v1H5V95z"/>
<path fill="#654F36" d="M7,95h2v1H7V95z"/>
<path fill="#F8D0B8" d="M7,96h2v1h1v6H9v1H7v-1H6v-2h1v1h2v-2H7v-1H6v-2h1V96z"/>
<path fill="#654F36" d="M9,96h2v1H9V96z"/>
<path fill="#604040" d="M5,97h1v5H5V97z"/>
<path fill="#D8A078" d="M10,97h1v2h-1V97z"/>
<path fill="#654F36" d="M11,97h1v2h-1V97z"/>
<path fill="#654F36" d="M7,98h2v1H7V98z"/>
<path fill="#484028" d="M17,98h1v2h-1V98z"/>
<path fill="#D8A078" d="M6,99h1v2H6V99z"/>
<path fill="#654F36" d="M10,99h1v1h-1V99z"/>
<path fill="#604040" d="M11,99h1v2h-1V99z"/>
<path fill="#D8A078" d="M12,99h1v1h1v2h-1v1h-1v2h-2v-1H9v-1h1v-3h1v1h1V99z"/>
<path fill="#604040" d="M13,99h1v1h-1V99z"/>
<path fill="#404048" d="M7,100h1v1H7V100z"/>
<path fill="#A8A0C8" d="M8,100h1v1H8V100z"/>
<path fill="#604040" d="M14,100h1v2h-1V100z"/>
<path fill="#484028" d="M16,100h1v2h-1V100z"/>
<path fill="#030303" d="M7,101h1v1H7V101z"/>
<path fill="#E8E8F8" d="M8,101h1v1H8V101z"/>
<path fill="#D8A078" d="M5,102h1v1H5V102z"/>
<path fill="#604040" d="M13,102h1v1h-1V102z"/>
<path fill="#786048" d="M14,102h1v1h-1V102z"/>
<path fill="#484028" d="M15,102h1v1h-1V102z"/>
<path fill="#604040" d="M6,103h1v1H6V103z"/>
<path fill="#604040" d="M12,103h1v1h-1V103z"/>
<path fill="#786048" d="M13,103h1v1h-1V103z"/>
<path fill="#484028" d="M14,103h1v1h-1V103z"/>
<path fill="#604040" d="M7,104h3v1H7V104z"/>
<path fill="#585878" d="M12,104h1v1h-1V104z"/>
<path fill="#484028" d="M13,104h1v1h-1V104z"/>
<path fill="#383038" d="M8,105h1v1H8V105z"/>
<path fill="#4868B0" d="M9,105h2v1h-1v2H9v2H8v-4h1V105z"/>
<path fill="#264F94" d="M11,105h1v1h-1V105z"/>
<path fill="#1F3368" d="M12,105h2v2h-1v-1h-1V105z"/>
<path fill="#1F3368" d="M10,106h2v1h-2V106z"/>
<path fill="#264F94" d="M12,106h1v1h-1V106z"/>
<path fill="#1F3368" d="M7,107h1v3H7V107z"/>
<path fill="#264F94" d="M10,107h2v1h-2V107z"/>
<path fill="#1F3368" d="M12,107h1v1h-1V107z"/>
<path fill="#264F94" d="M13,107h1v3h-1V107z"/>
<path fill="#1F3368" d="M14,107h1v1h-1V107z"/>
<path fill="#784040" d="M9,108h1v2H9V108z"/>
<path fill="#F8D0B8" d="M10,108h2v1h-2V108z"/>
<path fill="#030303" d="M12,108h1v2h-1V108z"/>
<path fill="#030303" d="M14,108h1v2h-1V108z"/>
<path fill="#D89870" d="M10,109h2v1h-2V109z"/>
<path fill="#030303" d="M8,110h1v3H8V110z"/>
<path fill="#264F94" d="M9,110h1v1H9V110z"/>
<path fill="#030303" d="M10,110h2v1h-2V110z"/>
<path fill="#264F94" d="M12,110h1v1h-1V110z"/>
<path fill="#030303" d="M13,110h1v3h-1V110z"/>
<path fill="#B0B0C8" d="M9,111h4v1H9V111z"/>
<path fill="#585080" d="M9,112h4v1H9V112z"/>
<path fill="#030303" d="M9,113h4v1H9V113z"/>
</svg>
