<?xml version="1.0" encoding="utf-8"?>
<!-- Generator: Adobe Illustrator 16.0.4, SVG Export Plug-In . SVG Version: 6.00 Build 0)  -->
<!DOCTYPE svg PUBLIC "-//W3C//DTD SVG 1.1//EN" "http://www.w3.org/Graphics/SVG/1.1/DTD/svg11.dtd">
<svg version="1.1" id="Layer_1" xmlns="http://www.w3.org/2000/svg" xmlns:xlink="http://www.w3.org/1999/xlink" x="0px" y="0px"
	 width="92px" height="116px" viewBox="0 0 92 116" enable-background="new 0 0 92 116" xml:space="preserve">
<path fill="#A08058" d="M9,2h5v1H9V2z"/>
<path fill="#A08058" d="M32,2h5v1h-5V2z"/>
<path fill="#A08058" d="M55,2h5v1h-5V2z"/>
<path fill="#A08058" d="M78,2h5v1h-5V2z"/>
<path fill="#A08058" d="M7,3h2v1H7V3z"/>
<path fill="#F8E8B0" d="M9,3h1v1H9V3z"/>
<path fill="#E0C070" d="M10,3h3v1h3v1h1v2h1v2h1v2h-1v-1h-1v1h1v1h-1v1h-1v-1h-2v-2h-1v2h-1v-1h-1v1h-1v-2H9v1H8v1H7v1H6v-1H5v-1H4
	V9h1V7h1V5h1v2h1v1h2V7H9V4h1V3z"/>
<path fill="#F8E8B0" d="M13,3h1v1h-1V3z"/>
<path fill="#A08058" d="M14,3h2v1h-2V3z"/>
<path fill="#A08058" d="M30,3h2v1h-2V3z"/>
<path fill="#F8E8B0" d="M32,3h1v1h-1V3z"/>
<path fill="#E0C070" d="M33,3h3v1h3v1h1v2h1v2h1v2h-1v-1h-1v1h1v1h-1v1h-1v-1h-2v-2h-1v2h-1v-1h-1v1h-1v-2h-1v1h-1v1h-1v1h-1v-1h-1
	v-1h-1V9h1V7h1V5h1v2h1v1h2V7h-1V4h1V3z"/>
<path fill="#F8E8B0" d="M36,3h1v1h-1V3z"/>
<path fill="#A08058" d="M37,3h2v1h-2V3z"/>
<path fill="#A08058" d="M53,3h2v1h-2V3z"/>
<path fill="#F8E8B0" d="M55,3h1v1h-1V3z"/>
<path fill="#E0C070" d="M56,3h3v1h3v1h1v2h1v2h1v2h-1v-1h-1v1h1v1h-1v1h-1v-1h-2v-2h-1v2h-1v-1h-1v1h-1v-2h-1v1h-1v1h-1v1h-1v-1h-1
	v-1h-1V9h1V7h1V5h1v2h1v1h2V7h-1V4h1V3z"/>
<path fill="#F8E8B0" d="M59,3h1v1h-1V3z"/>
<path fill="#A08058" d="M60,3h2v1h-2V3z"/>
<path fill="#A08058" d="M76,3h2v1h-2V3z"/>
<path fill="#F8E8B0" d="M78,3h1v1h-1V3z"/>
<path fill="#E0C070" d="M79,3h3v1h3v1h1v2h1v2h1v2h-1v-1h-1v1h1v1h-1v1h-1v-1h-2v-2h-1v2h-1v-1h-1v1h-1v-2h-1v1h-1v1h-1v1h-1v-1h-1
	v-1h-1V9h1V7h1V5h1v2h1v1h2V7h-1V4h1V3z"/>
<path fill="#F8E8B0" d="M82,3h1v1h-1V3z"/>
<path fill="#A08058" d="M83,3h2v1h-2V3z"/>
<path fill="#784050" d="M6,4h1v1H6V4z"/>
<path fill="#E0C070" d="M7,4h1v1H7V4z"/>
<path fill="#F8E8B0" d="M8,4h1v3h1v1H8V7H7V5h1V4z"/>
<path fill="#A08058" d="M11,4h1v1h1v1h-1v1h-1V6h-1V5h1V4z"/>
<path fill="#784050" d="M16,4h1v1h-1V4z"/>
<path fill="#784050" d="M29,4h1v1h-1V4z"/>
<path fill="#E0C070" d="M30,4h1v1h-1V4z"/>
<path fill="#F8E8B0" d="M31,4h1v3h1v1h-2V7h-1V5h1V4z"/>
<path fill="#A08058" d="M34,4h1v1h1v1h-1v1h-1V6h-1V5h1V4z"/>
<path fill="#784050" d="M39,4h1v1h-1V4z"/>
<path fill="#784050" d="M52,4h1v1h-1V4z"/>
<path fill="#E0C070" d="M53,4h1v1h-1V4z"/>
<path fill="#F8E8B0" d="M54,4h1v3h1v1h-2V7h-1V5h1V4z"/>
<path fill="#A08058" d="M57,4h1v1h1v1h-1v1h-1V6h-1V5h1V4z"/>
<path fill="#784050" d="M62,4h1v1h-1V4z"/>
<path fill="#784050" d="M75,4h1v1h-1V4z"/>
<path fill="#E0C070" d="M76,4h1v1h-1V4z"/>
<path fill="#F8E8B0" d="M77,4h1v3h1v1h-2V7h-1V5h1V4z"/>
<path fill="#A08058" d="M80,4h1v1h1v1h-1v1h-1V6h-1V5h1V4z"/>
<path fill="#784050" d="M85,4h1v1h-1V4z"/>
<path fill="#784050" d="M5,5h1v2H5V5z"/>
<path fill="#F8E8B0" d="M14,5h1v2h-1V5z"/>
<path fill="#784050" d="M17,5h1v2h-1V5z"/>
<path fill="#784050" d="M28,5h1v2h-1V5z"/>
<path fill="#F8E8B0" d="M37,5h1v2h-1V5z"/>
<path fill="#784050" d="M40,5h1v2h-1V5z"/>
<path fill="#784050" d="M51,5h1v2h-1V5z"/>
<path fill="#F8E8B0" d="M60,5h1v2h-1V5z"/>
<path fill="#784050" d="M63,5h1v2h-1V5z"/>
<path fill="#784050" d="M74,5h1v2h-1V5z"/>
<path fill="#F8E8B0" d="M83,5h1v2h-1V5z"/>
<path fill="#784050" d="M86,5h1v2h-1V5z"/>
<path fill="#030303" d="M4,7h1v2H4V7z"/>
<path fill="#F8E8B0" d="M13,7h1v1h-1V7z"/>
<path fill="#030303" d="M18,7h1v2h-1V7z"/>
<path fill="#030303" d="M27,7h1v2h-1V7z"/>
<path fill="#F8E8B0" d="M36,7h1v1h-1V7z"/>
<path fill="#030303" d="M41,7h1v2h-1V7z"/>
<path fill="#030303" d="M50,7h1v2h-1V7z"/>
<path fill="#F8E8B0" d="M59,7h1v1h-1V7z"/>
<path fill="#030303" d="M64,7h1v2h-1V7z"/>
<path fill="#030303" d="M73,7h1v2h-1V7z"/>
<path fill="#F8E8B0" d="M82,7h1v1h-1V7z"/>
<path fill="#030303" d="M87,7h1v2h-1V7z"/>
<path fill="#F8E8B0" d="M10,8h2v1h-2V8z"/>
<path fill="#F8E8B0" d="M33,8h2v1h-2V8z"/>
<path fill="#F8E8B0" d="M56,8h2v1h-2V8z"/>
<path fill="#F8E8B0" d="M79,8h2v1h-2V8z"/>
<path fill="#030303" d="M3,9h1v4H3V9z"/>
<path fill="#030303" d="M19,9h1v4h-1V9z"/>
<path fill="#030303" d="M26,9h1v4h-1V9z"/>
<path fill="#030303" d="M42,9h1v4h-1V9z"/>
<path fill="#030303" d="M49,9h1v4h-1V9z"/>
<path fill="#030303" d="M65,9h1v4h-1V9z"/>
<path fill="#030303" d="M72,9h1v4h-1V9z"/>
<path fill="#030303" d="M88,9h1v4h-1V9z"/>
<path fill="#A08058" d="M5,10h1v1H5V10z"/>
<path fill="#A08058" d="M9,10h1v2H9v1H7v-1h1v-1h1V10z"/>
<path fill="#A08058" d="M13,10h1v2h-1V10z"/>
<path fill="#A08058" d="M17,10h1v1h-1V10z"/>
<path fill="#A08058" d="M28,10h1v1h-1V10z"/>
<path fill="#A08058" d="M32,10h1v2h-1v1h-2v-1h1v-1h1V10z"/>
<path fill="#A08058" d="M36,10h1v2h-1V10z"/>
<path fill="#A08058" d="M40,10h1v1h-1V10z"/>
<path fill="#A08058" d="M51,10h1v1h-1V10z"/>
<path fill="#A08058" d="M55,10h1v2h-1v1h-2v-1h1v-1h1V10z"/>
<path fill="#A08058" d="M59,10h1v2h-1V10z"/>
<path fill="#A08058" d="M63,10h1v1h-1V10z"/>
<path fill="#A08058" d="M74,10h1v1h-1V10z"/>
<path fill="#A08058" d="M78,10h1v2h-1v1h-2v-1h1v-1h1V10z"/>
<path fill="#A08058" d="M82,10h1v2h-1V10z"/>
<path fill="#A08058" d="M86,10h1v1h-1V10z"/>
<path fill="#A08058" d="M4,11h1v1h1v1h1v1H5v1h1v2H5v1H4v-2H3v-3h1V11z"/>
<path fill="#A08058" d="M11,11h1v1h-1V11z"/>
<path fill="#A08058" d="M18,11h1v2h1v3h-1v2h-1v-1h-1v-2h1v-1h-2v-1h1v-1h1V11z"/>
<path fill="#A08058" d="M27,11h1v1h1v1h1v1h-2v1h1v2h-2v-1h-1v-3h1V11z"/>
<path fill="#A08058" d="M34,11h1v1h-1V11z"/>
<path fill="#A08058" d="M41,11h1v2h1v3h-1v2h-1v-1h-1v-2h1v-1h-2v-1h1v-1h1V11z"/>
<path fill="#A08058" d="M50,11h1v1h1v1h1v1h-2v1h1v2h-1v1h-1v-2h-1v-3h1V11z"/>
<path fill="#A08058" d="M57,11h1v1h-1V11z"/>
<path fill="#A08058" d="M64,11h1v2h1v3h-1v2h-1v-1h-1v-2h1v-1h-2v-1h1v-1h1V11z"/>
<path fill="#A08058" d="M73,11h1v1h1v1h1v1h-2v1h1v2h-1v1h-1v-2h-1v-3h1V11z"/>
<path fill="#A08058" d="M80,11h1v1h-1V11z"/>
<path fill="#A08058" d="M87,11h1v2h1v3h-1v1h-2v-2h1v-1h-2v-1h1v-1h1V11z"/>
<path fill="#E0C070" d="M9,12h1v1H9V12z"/>
<path fill="#A08058" d="M10,12h1v1h-1V12z"/>
<path fill="#E0C070" d="M11,12h1v1h-1V12z"/>
<path fill="#A08058" d="M12,12h1v1h-1V12z"/>
<path fill="#E0C070" d="M13,12h1v1h-1V12z"/>
<path fill="#A08058" d="M14,12h2v1h-2V12z"/>
<path fill="#E0C070" d="M32,12h1v1h-1V12z"/>
<path fill="#A08058" d="M33,12h1v1h-1V12z"/>
<path fill="#E0C070" d="M34,12h1v1h-1V12z"/>
<path fill="#A08058" d="M35,12h1v1h-1V12z"/>
<path fill="#E0C070" d="M36,12h1v1h-1V12z"/>
<path fill="#A08058" d="M37,12h2v1h-2V12z"/>
<path fill="#E0C070" d="M55,12h1v1h-1V12z"/>
<path fill="#A08058" d="M56,12h1v1h-1V12z"/>
<path fill="#E0C070" d="M57,12h1v1h-1V12z"/>
<path fill="#A08058" d="M58,12h1v1h-1V12z"/>
<path fill="#E0C070" d="M59,12h1v1h-1V12z"/>
<path fill="#A08058" d="M60,12h2v1h-2V12z"/>
<path fill="#E0C070" d="M78,12h1v1h-1V12z"/>
<path fill="#A08058" d="M79,12h1v1h-1V12z"/>
<path fill="#E0C070" d="M80,12h1v1h-1V12z"/>
<path fill="#A08058" d="M81,12h1v1h-1V12z"/>
<path fill="#E0C070" d="M82,12h1v1h-1V12z"/>
<path fill="#A08058" d="M83,12h2v1h-2V12z"/>
<path fill="#030303" d="M2,13h1v3H2V13z"/>
<path fill="#D89870" d="M7,13h1v3H7v-1H6v-1h1V13z"/>
<path fill="#B0B0B8" d="M8,13h1v1H8V13z"/>
<path fill="#483858" d="M9,13h1v1H9V13z"/>
<path fill="#F8D0B8" d="M10,13h3v2h2v1h-1v1h-2v-1h-1v1H9v-1H8v-1h2V13z"/>
<path fill="#483858" d="M13,13h1v1h-1V13z"/>
<path fill="#B0B0B8" d="M14,13h1v1h-1V13z"/>
<path fill="#D89870" d="M15,13h1v1h1v1h-1v1h-1V13z"/>
<path fill="#030303" d="M20,13h1v3h-1V13z"/>
<path fill="#030303" d="M25,13h1v3h-1V13z"/>
<path fill="#D89870" d="M30,13h1v3h-1v-1h-1v-1h1V13z"/>
<path fill="#B0B0B8" d="M31,13h1v1h-1V13z"/>
<path fill="#483858" d="M32,13h1v1h-1V13z"/>
<path fill="#F8D0B8" d="M33,13h3v2h2v1h-1v1h-2v-1h-1v1h-2v-1h-1v-1h2V13z"/>
<path fill="#483858" d="M36,13h1v1h-1V13z"/>
<path fill="#B0B0B8" d="M37,13h1v1h-1V13z"/>
<path fill="#D89870" d="M38,13h1v1h1v1h-1v1h-1V13z"/>
<path fill="#030303" d="M43,13h1v3h-1V13z"/>
<path fill="#030303" d="M48,13h1v3h-1V13z"/>
<path fill="#D89870" d="M53,13h1v3h-1v-1h-1v-1h1V13z"/>
<path fill="#B0B0B8" d="M54,13h1v1h-1V13z"/>
<path fill="#483858" d="M55,13h1v1h-1V13z"/>
<path fill="#F8D0B8" d="M56,13h3v2h2v1h-1v1h-2v-1h-1v1h-2v-1h-1v-1h2V13z"/>
<path fill="#483858" d="M59,13h1v1h-1V13z"/>
<path fill="#B0B0B8" d="M60,13h1v1h-1V13z"/>
<path fill="#D89870" d="M61,13h1v1h1v1h-1v1h-1V13z"/>
<path fill="#030303" d="M66,13h1v3h-1V13z"/>
<path fill="#030303" d="M71,13h1v3h-1V13z"/>
<path fill="#D89870" d="M76,13h1v3h-1v-1h-1v-1h1V13z"/>
<path fill="#B0B0B8" d="M77,13h1v1h-1V13z"/>
<path fill="#483858" d="M78,13h1v1h-1V13z"/>
<path fill="#F8D0B8" d="M79,13h3v2h2v1h-1v1h-2v-1h-1v1h-2v-1h-1v-1h2V13z"/>
<path fill="#483858" d="M82,13h1v1h-1V13z"/>
<path fill="#B0B0B8" d="M83,13h1v1h-1V13z"/>
<path fill="#D89870" d="M84,13h1v1h1v1h-1v1h-1V13z"/>
<path fill="#030303" d="M89,13h1v3h-1V13z"/>
<path fill="#030303" d="M5,14h1v1H5V14z"/>
<path fill="#E8E8F8" d="M8,14h1v1H8V14z"/>
<path fill="#030303" d="M9,14h1v1H9V14z"/>
<path fill="#030303" d="M13,14h1v1h-1V14z"/>
<path fill="#E8E8F8" d="M14,14h1v1h-1V14z"/>
<path fill="#030303" d="M17,14h1v1h-1V14z"/>
<path fill="#030303" d="M28,14h1v1h-1V14z"/>
<path fill="#E8E8F8" d="M31,14h1v1h-1V14z"/>
<path fill="#030303" d="M32,14h1v1h-1V14z"/>
<path fill="#030303" d="M36,14h1v1h-1V14z"/>
<path fill="#E8E8F8" d="M37,14h1v1h-1V14z"/>
<path fill="#030303" d="M40,14h1v1h-1V14z"/>
<path fill="#030303" d="M51,14h1v1h-1V14z"/>
<path fill="#E8E8F8" d="M54,14h1v1h-1V14z"/>
<path fill="#030303" d="M55,14h1v1h-1V14z"/>
<path fill="#030303" d="M59,14h1v1h-1V14z"/>
<path fill="#E8E8F8" d="M60,14h1v1h-1V14z"/>
<path fill="#030303" d="M63,14h1v1h-1V14z"/>
<path fill="#030303" d="M74,14h1v1h-1V14z"/>
<path fill="#E8E8F8" d="M77,14h1v1h-1V14z"/>
<path fill="#030303" d="M78,14h1v1h-1V14z"/>
<path fill="#030303" d="M82,14h1v1h-1V14z"/>
<path fill="#E8E8F8" d="M83,14h1v1h-1V14z"/>
<path fill="#030303" d="M86,14h1v1h-1V14z"/>
<path fill="#030303" d="M6,15h1v1h1v1H6V15z"/>
<path fill="#030303" d="M16,15h1v2h-2v-1h1V15z"/>
<path fill="#030303" d="M29,15h1v1h1v1h-2V15z"/>
<path fill="#030303" d="M39,15h1v2h-2v-1h1V15z"/>
<path fill="#030303" d="M52,15h1v1h1v1h-2V15z"/>
<path fill="#030303" d="M62,15h1v2h-2v-1h1V15z"/>
<path fill="#030303" d="M75,15h1v1h1v1h-2V15z"/>
<path fill="#030303" d="M85,15h1v2h-2v-1h1V15z"/>
<path fill="#483858" d="M3,16h1v2H3V16z"/>
<path fill="#D89870" d="M8,16h1v1H8V16z"/>
<path fill="#D89870" d="M11,16h1v1h1v1h-3v-1h1V16z"/>
<path fill="#D89870" d="M14,16h1v1h-1V16z"/>
<path fill="#483858" d="M19,16h1v2h-1V16z"/>
<path fill="#483858" d="M26,16h1v2h-1V16z"/>
<path fill="#D89870" d="M31,16h1v1h-1V16z"/>
<path fill="#D89870" d="M34,16h1v1h1v1h-3v-1h1V16z"/>
<path fill="#D89870" d="M37,16h1v1h-1V16z"/>
<path fill="#483858" d="M42,16h1v2h-1V16z"/>
<path fill="#483858" d="M49,16h1v2h-1V16z"/>
<path fill="#D89870" d="M54,16h1v1h-1V16z"/>
<path fill="#D89870" d="M57,16h1v1h1v1h-3v-1h1V16z"/>
<path fill="#D89870" d="M60,16h1v1h-1V16z"/>
<path fill="#483858" d="M65,16h1v2h-1V16z"/>
<path fill="#483858" d="M72,16h1v2h-1V16z"/>
<path fill="#D89870" d="M77,16h1v1h-1V16z"/>
<path fill="#D89870" d="M80,16h1v1h1v1h-3v-1h1V16z"/>
<path fill="#D89870" d="M83,16h1v1h-1V16z"/>
<path fill="#483858" d="M88,16h1v2h-1V16z"/>
<path fill="#030303" d="M5,17h1v1H5V17z"/>
<path fill="#D89870" d="M6,17h1v1H6V17z"/>
<path fill="#F8D0B8" d="M7,17h1v2H7v1H5v-2h2V17z"/>
<path fill="#030303" d="M8,17h1v1H8V17z"/>
<path fill="#784040" d="M9,17h1v1H9V17z"/>
<path fill="#784040" d="M13,17h1v1h-1V17z"/>
<path fill="#030303" d="M14,17h1v1h-1V17z"/>
<path fill="#F8D0B8" d="M15,17h1v1h2v2h-2v-1h-1V17z"/>
<path fill="#D89870" d="M16,17h1v1h-1V17z"/>
<path fill="#030303" d="M17,17h1v1h-1V17z"/>
<path fill="#030303" d="M27,17h2v1h-2V17z"/>
<path fill="#D89870" d="M29,17h2v2h-2v1h-2v-2h2V17z"/>
<path fill="#030303" d="M31,17h1v1h-1V17z"/>
<path fill="#784040" d="M32,17h1v1h-1V17z"/>
<path fill="#784040" d="M36,17h1v1h-1V17z"/>
<path fill="#030303" d="M37,17h1v1h-1V17z"/>
<path fill="#F8D0B8" d="M38,17h1v1h1v1h-2V17z"/>
<path fill="#D89870" d="M39,17h1v1h-1V17z"/>
<path fill="#030303" d="M40,17h1v1h-1V17z"/>
<path fill="#030303" d="M51,17h1v1h-1V17z"/>
<path fill="#D89870" d="M52,17h1v1h-1V17z"/>
<path fill="#F8D0B8" d="M53,17h1v2h-1v1h-2v-2h2V17z"/>
<path fill="#030303" d="M54,17h1v1h-1V17z"/>
<path fill="#784040" d="M55,17h1v1h-1V17z"/>
<path fill="#784040" d="M59,17h1v1h-1V17z"/>
<path fill="#030303" d="M60,17h1v1h-1V17z"/>
<path fill="#F8D0B8" d="M61,17h1v1h2v2h-2v-1h-1V17z"/>
<path fill="#D89870" d="M62,17h1v1h-1V17z"/>
<path fill="#030303" d="M63,17h1v1h-1V17z"/>
<path fill="#030303" d="M74,17h1v1h-1V17z"/>
<path fill="#D89870" d="M75,17h1v1h-1V17z"/>
<path fill="#F8D0B8" d="M76,17h1v2h-2v-1h1V17z"/>
<path fill="#030303" d="M77,17h1v1h-1V17z"/>
<path fill="#784040" d="M78,17h1v1h-1V17z"/>
<path fill="#784040" d="M82,17h1v1h-1V17z"/>
<path fill="#030303" d="M83,17h1v1h-1V17z"/>
<path fill="#D89870" d="M84,17h2v1h2v2h-2v-1h-2V17z"/>
<path fill="#030303" d="M86,17h2v1h-2V17z"/>
<path fill="#030303" d="M4,18h1v1H4V18z"/>
<path fill="#483858" d="M8,18h1v2H8V18z"/>
<path fill="#B0B0B8" d="M9,18h1v1H9V18z"/>
<path fill="#784040" d="M10,18h3v1h-3V18z"/>
<path fill="#B0B0B8" d="M13,18h1v1h-1V18z"/>
<path fill="#483858" d="M14,18h1v2h-1V18z"/>
<path fill="#030303" d="M18,18h1v1h-1V18z"/>
<path fill="#784040" d="M26,18h1v2h-1V18z"/>
<path fill="#483858" d="M31,18h1v2h-1V18z"/>
<path fill="#B0B0B8" d="M32,18h1v1h-1V18z"/>
<path fill="#784040" d="M33,18h3v1h-3V18z"/>
<path fill="#B0B0B8" d="M36,18h1v1h-1V18z"/>
<path fill="#483858" d="M37,18h1v2h-1V18z"/>
<path fill="#784040" d="M40,18h1v1h-1V18z"/>
<path fill="#030303" d="M41,18h1v1h-1V18z"/>
<path fill="#030303" d="M50,18h1v1h-1V18z"/>
<path fill="#483858" d="M54,18h1v2h-1V18z"/>
<path fill="#B0B0B8" d="M55,18h1v1h-1V18z"/>
<path fill="#784040" d="M56,18h3v1h-3V18z"/>
<path fill="#B0B0B8" d="M59,18h1v1h-1V18z"/>
<path fill="#483858" d="M60,18h1v2h-1V18z"/>
<path fill="#030303" d="M64,18h1v1h-1V18z"/>
<path fill="#030303" d="M73,18h1v1h-1V18z"/>
<path fill="#784040" d="M74,18h1v1h-1V18z"/>
<path fill="#483858" d="M77,18h1v2h-1V18z"/>
<path fill="#B0B0B8" d="M78,18h1v1h-1V18z"/>
<path fill="#784040" d="M79,18h3v1h-3V18z"/>
<path fill="#B0B0B8" d="M82,18h1v1h-1V18z"/>
<path fill="#483858" d="M83,18h1v2h-1V18z"/>
<path fill="#784040" d="M88,18h1v2h-1V18z"/>
<path fill="#784040" d="M3,19h1v2H3V19z"/>
<path fill="#D89870" d="M4,19h1v1h1v1H4V19z"/>
<path fill="#030303" d="M7,19h1v2H7V19z"/>
<path fill="#785890" d="M9,19h1v2H8v-1h1V19z"/>
<path fill="#B0B0B8" d="M10,19h3v1h-3V19z"/>
<path fill="#785890" d="M13,19h1v1h1v1h-2V19z"/>
<path fill="#030303" d="M15,19h1v2h-1V19z"/>
<path fill="#D89870" d="M18,19h1v2h-2v-1h1V19z"/>
<path fill="#784040" d="M19,19h1v2h-1V19z"/>
<path fill="#784040" d="M29,19h1v1h-1V19z"/>
<path fill="#030303" d="M30,19h1v2h-1V19z"/>
<path fill="#785890" d="M32,19h1v2h-2v-1h1V19z"/>
<path fill="#B0B0B8" d="M33,19h3v1h-3V19z"/>
<path fill="#785890" d="M36,19h1v1h1v1h-2V19z"/>
<path fill="#030303" d="M38,19h1v2h-1V19z"/>
<path fill="#D89870" d="M39,19h2v1h-2V19z"/>
<path fill="#784040" d="M41,19h1v3h-1V19z"/>
<path fill="#784040" d="M49,19h1v2h-1V19z"/>
<path fill="#D89870" d="M50,19h1v1h1v1h-2V19z"/>
<path fill="#030303" d="M53,19h1v2h-1V19z"/>
<path fill="#785890" d="M55,19h1v2h-2v-1h1V19z"/>
<path fill="#B0B0B8" d="M56,19h3v1h-3V19z"/>
<path fill="#785890" d="M59,19h1v1h1v1h-2V19z"/>
<path fill="#030303" d="M61,19h1v2h-1V19z"/>
<path fill="#D89870" d="M64,19h1v2h-2v-1h1V19z"/>
<path fill="#784040" d="M65,19h1v2h-1V19z"/>
<path fill="#784040" d="M73,19h1v3h-1V19z"/>
<path fill="#D89870" d="M74,19h2v1h-2V19z"/>
<path fill="#030303" d="M76,19h1v2h-1V19z"/>
<path fill="#785890" d="M78,19h1v2h-2v-1h1V19z"/>
<path fill="#B0B0B8" d="M79,19h3v1h-3V19z"/>
<path fill="#785890" d="M82,19h1v1h1v1h-2V19z"/>
<path fill="#030303" d="M84,19h1v2h-1V19z"/>
<path fill="#784040" d="M85,19h1v1h-1V19z"/>
<path fill="#784040" d="M6,20h1v1H6V20z"/>
<path fill="#A078C8" d="M10,20h3v1h1v1H9v-1h1V20z"/>
<path fill="#784040" d="M16,20h1v1h-1V20z"/>
<path fill="#784040" d="M27,20h2v1h-2V20z"/>
<path d="M29,20h1v1h-1V20z"/>
<path fill="#A078C8" d="M33,20h3v1h1v1h-5v-1h1V20z"/>
<path fill="#F8D0B8" d="M39,20h2v1h-2V20z"/>
<path fill="#784040" d="M52,20h1v1h-1V20z"/>
<path fill="#A078C8" d="M56,20h3v1h1v1h-5v-1h1V20z"/>
<path fill="#784040" d="M62,20h1v1h-1V20z"/>
<path fill="#F8D0B8" d="M74,20h2v1h-2V20z"/>
<path fill="#A078C8" d="M79,20h3v1h1v1h-5v-1h1V20z"/>
<path d="M85,20h1v1h-1V20z"/>
<path fill="#784040" d="M86,20h2v1h-2V20z"/>
<path fill="#784040" d="M4,21h2v1H4V21z"/>
<path fill="#030303" d="M6,21h1v3H6V21z"/>
<path fill="#B05870" d="M7,21h1v2H7V21z"/>
<path fill="#784050" d="M8,21h1v1H8V21z"/>
<path fill="#784050" d="M14,21h1v1h-1V21z"/>
<path fill="#B05870" d="M15,21h1v2h-1V21z"/>
<path fill="#030303" d="M16,21h1v3h-1V21z"/>
<path fill="#784040" d="M17,21h2v1h-2V21z"/>
<path fill="#030303" d="M29,21h1v3h-1V21z"/>
<path fill="#B05870" d="M30,21h1v2h-1V21z"/>
<path fill="#784050" d="M31,21h1v1h-1V21z"/>
<path fill="#784050" d="M37,21h1v1h-1V21z"/>
<path fill="#B05870" d="M38,21h1v1h-1V21z"/>
<path fill="#D89870" d="M39,21h2v1h-2V21z"/>
<path fill="#784040" d="M50,21h2v1h-2V21z"/>
<path fill="#030303" d="M52,21h1v3h-1V21z"/>
<path fill="#B05870" d="M53,21h1v2h-1V21z"/>
<path fill="#784050" d="M54,21h1v1h-1V21z"/>
<path fill="#784050" d="M60,21h1v1h-1V21z"/>
<path fill="#B05870" d="M61,21h1v2h-1V21z"/>
<path fill="#030303" d="M62,21h1v3h-1V21z"/>
<path fill="#784040" d="M63,21h2v1h-2V21z"/>
<path fill="#D89870" d="M74,21h2v1h-2V21z"/>
<path fill="#B05870" d="M76,21h1v1h-1V21z"/>
<path fill="#784050" d="M77,21h1v1h-1V21z"/>
<path fill="#784050" d="M83,21h1v1h-1V21z"/>
<path fill="#B05870" d="M84,21h1v2h-1V21z"/>
<path fill="#030303" d="M85,21h1v3h-1V21z"/>
<path fill="#E090A8" d="M8,22h2v1h3v-1h2v1h-1v1H9v-1H8V22z"/>
<path fill="#784050" d="M10,22h3v1h-3V22z"/>
<path fill="#E090A8" d="M31,22h2v1h3v1h-4v-1h-1V22z"/>
<path fill="#784050" d="M33,22h3v1h-3V22z"/>
<path fill="#E090A8" d="M36,22h2v1h-2V22z"/>
<path fill="#030303" d="M38,22h1v1h-1V22z"/>
<path fill="#784040" d="M39,22h2v1h-2V22z"/>
<path fill="#E090A8" d="M54,22h2v1h3v-1h2v1h-1v1h-5v-1h-1V22z"/>
<path fill="#784050" d="M56,22h3v1h-3V22z"/>
<path fill="#784040" d="M74,22h2v1h-2V22z"/>
<path fill="#030303" d="M76,22h1v1h-1V22z"/>
<path fill="#E090A8" d="M77,22h2v1h-2V22z"/>
<path fill="#784050" d="M79,22h3v1h-3V22z"/>
<path fill="#E090A8" d="M82,22h2v1h-1v1h-4v-1h3V22z"/>
<path fill="#784050" d="M7,23h1v1H7V23z"/>
<path fill="#B05870" d="M8,23h1v1H8V23z"/>
<path fill="#B05870" d="M14,23h1v1h-1V23z"/>
<path fill="#784050" d="M15,23h1v1h-1V23z"/>
<path fill="#784050" d="M30,23h1v1h-1V23z"/>
<path fill="#B05870" d="M31,23h1v1h-1V23z"/>
<path fill="#030303" d="M36,23h2v1h-2V23z"/>
<path fill="#784050" d="M53,23h1v1h-1V23z"/>
<path fill="#B05870" d="M54,23h1v1h-1V23z"/>
<path fill="#B05870" d="M60,23h1v1h-1V23z"/>
<path fill="#784050" d="M61,23h1v1h-1V23z"/>
<path fill="#030303" d="M77,23h2v1h-2V23z"/>
<path fill="#B05870" d="M83,23h1v1h-1V23z"/>
<path fill="#784050" d="M84,23h1v1h-1V23z"/>
<path fill="#030303" d="M7,24h1v1H7V24z"/>
<path fill="#E0C070" d="M8,24h2v1H8V24z"/>
<path fill="#030303" d="M10,24h3v1h-3V24z"/>
<path fill="#E0C070" d="M13,24h2v1h-2V24z"/>
<path fill="#030303" d="M15,24h1v1h-1V24z"/>
<path fill="#030303" d="M30,24h1v1h1v1h-1v1h-1V24z"/>
<path fill="#D89870" d="M31,24h2v1h-2V24z"/>
<path fill="#030303" d="M33,24h3v1h-2v2h-1V24z"/>
<path fill="#030303" d="M53,24h1v1h-1V24z"/>
<path fill="#E0C070" d="M54,24h2v1h-2V24z"/>
<path fill="#030303" d="M56,24h3v1h-3V24z"/>
<path fill="#E0C070" d="M59,24h2v1h-2V24z"/>
<path fill="#030303" d="M61,24h1v1h-1V24z"/>
<path fill="#030303" d="M79,24h3v3h-1v-2h-2V24z"/>
<path fill="#D89870" d="M82,24h2v1h-2V24z"/>
<path fill="#030303" d="M84,24h1v3h-1v-1h-1v-1h1V24z"/>
<path fill="#030303" d="M8,25h2v1H8V25z"/>
<path fill="#030303" d="M13,25h2v1h-2V25z"/>
<path fill="#E0C070" d="M32,25h1v2h-2v-1h1V25z"/>
<path fill="#030303" d="M54,25h2v1h-2V25z"/>
<path fill="#030303" d="M59,25h2v1h-2V25z"/>
<path fill="#E0C070" d="M82,25h1v1h1v1h-2V25z"/>
<path fill="#030303" d="M31,27h2v1h-2V27z"/>
<path fill="#030303" d="M82,27h2v1h-2V27z"/>
<path fill="#A08058" d="M9,31h4v1H9V31z"/>
<path fill="#A08058" d="M32,31h4v1h-4V31z"/>
<path fill="#A08058" d="M55,31h4v1h-4V31z"/>
<path fill="#A08058" d="M78,31h4v1h-4V31z"/>
<path fill="#A08058" d="M7,32h2v1H7V32z"/>
<path fill="#E0C070" d="M9,32h4v1h2v1h1v1h1v2h1v3h-1v-2h-1v2h-1v1h-2v1h-3v-1H8v-1H6v-1H5v-3h2v2h1v1h3v-1h2v-1h-2v-1H9v-1H8v-1H7
	v-1h2V32z"/>
<path fill="#A08058" d="M13,32h2v1h-2V32z"/>
<path fill="#A08058" d="M30,32h2v1h-2V32z"/>
<path fill="#E0C070" d="M32,32h4v1h2v1h1v1h1v2h1v3h-1v-2h-1v2h-1v1h-2v1h-3v-1h-2v-1h-2v-1h-1v-3h2v2h1v1h3v-1h2v-1h-2v-1h-2v-1h-1
	v-1h-1v-1h2V32z"/>
<path fill="#A08058" d="M36,32h2v1h-2V32z"/>
<path fill="#A08058" d="M53,32h2v1h-2V32z"/>
<path fill="#E0C070" d="M55,32h4v1h2v1h1v1h1v2h1v3h-1v-2h-1v2h-1v1h-2v1h-3v-1h-2v-1h-2v-1h-1v-3h2v2h1v1h3v-1h2v-1h-2v-1h-2v-1h-1
	v-1h-1v-1h2V32z"/>
<path fill="#A08058" d="M59,32h2v1h-2V32z"/>
<path fill="#A08058" d="M76,32h2v1h-2V32z"/>
<path fill="#E0C070" d="M78,32h4v1h2v1h1v1h1v2h1v3h-1v-2h-1v2h-1v1h-2v1h-3v-1h-2v-1h-2v-1h-1v-3h2v2h1v1h3v-1h2v-1h-2v-1h-2v-1h-1
	v-1h-1v-1h2V32z"/>
<path fill="#A08058" d="M82,32h2v1h-2V32z"/>
<path fill="#784050" d="M6,33h1v1H6V33z"/>
<path fill="#784050" d="M15,33h1v1h-1V33z"/>
<path fill="#784050" d="M29,33h1v1h-1V33z"/>
<path fill="#784050" d="M38,33h1v1h-1V33z"/>
<path fill="#784050" d="M52,33h1v1h-1V33z"/>
<path fill="#784050" d="M61,33h1v1h-1V33z"/>
<path fill="#784050" d="M75,33h1v1h-1V33z"/>
<path fill="#784050" d="M84,33h1v1h-1V33z"/>
<path fill="#784050" d="M5,34h1v1H5V34z"/>
<path fill="#E0C070" d="M6,34h1v1H6V34z"/>
<path fill="#F8E8B0" d="M7,34h1v1H7V34z"/>
<path fill="#784050" d="M16,34h1v1h-1V34z"/>
<path fill="#784050" d="M28,34h1v1h-1V34z"/>
<path fill="#E0C070" d="M29,34h1v1h-1V34z"/>
<path fill="#F8E8B0" d="M30,34h1v1h-1V34z"/>
<path fill="#784050" d="M39,34h1v1h-1V34z"/>
<path fill="#784050" d="M51,34h1v1h-1V34z"/>
<path fill="#E0C070" d="M52,34h1v1h-1V34z"/>
<path fill="#F8E8B0" d="M53,34h1v1h-1V34z"/>
<path fill="#784050" d="M62,34h1v1h-1V34z"/>
<path fill="#784050" d="M74,34h1v1h-1V34z"/>
<path fill="#E0C070" d="M75,34h1v1h-1V34z"/>
<path fill="#F8E8B0" d="M76,34h1v1h-1V34z"/>
<path fill="#784050" d="M85,34h1v1h-1V34z"/>
<path fill="#030303" d="M4,35h1v3H4V35z"/>
<path fill="#A08058" d="M5,35h1v1H5V35z"/>
<path fill="#F8E8B0" d="M6,35h1v1H6V35z"/>
<path fill="#E0C070" d="M7,35h1v1H7V35z"/>
<path fill="#F8E8B0" d="M8,35h1v1h2v1h2v1h-2v1H8v-1H7v-2h1V35z"/>
<path fill="#030303" d="M17,35h1v2h-1V35z"/>
<path fill="#030303" d="M27,35h1v3h-1V35z"/>
<path fill="#A08058" d="M28,35h1v1h-1V35z"/>
<path fill="#F8E8B0" d="M29,35h1v1h-1V35z"/>
<path fill="#E0C070" d="M30,35h1v1h-1V35z"/>
<path fill="#F8E8B0" d="M31,35h1v1h2v1h2v1h-2v1h-3v-1h-1v-2h1V35z"/>
<path fill="#030303" d="M40,35h1v2h-1V35z"/>
<path fill="#030303" d="M50,35h1v3h-1V35z"/>
<path fill="#A08058" d="M51,35h1v1h-1V35z"/>
<path fill="#F8E8B0" d="M52,35h1v1h-1V35z"/>
<path fill="#E0C070" d="M53,35h1v1h-1V35z"/>
<path fill="#F8E8B0" d="M54,35h1v1h2v1h2v1h-2v1h-3v-1h-1v-2h1V35z"/>
<path fill="#030303" d="M63,35h1v2h-1V35z"/>
<path fill="#030303" d="M73,35h1v3h-1V35z"/>
<path fill="#A08058" d="M74,35h1v1h-1V35z"/>
<path fill="#F8E8B0" d="M75,35h1v1h-1V35z"/>
<path fill="#E0C070" d="M76,35h1v1h-1V35z"/>
<path fill="#F8E8B0" d="M77,35h1v1h2v1h2v1h-2v1h-3v-1h-1v-2h1V35z"/>
<path fill="#030303" d="M86,35h1v2h-1V35z"/>
<path fill="#F8E8B0" d="M13,36h1v1h-1V36z"/>
<path fill="#F8E8B0" d="M36,36h1v1h-1V36z"/>
<path fill="#F8E8B0" d="M59,36h1v1h-1V36z"/>
<path fill="#F8E8B0" d="M82,36h1v1h-1V36z"/>
<path fill="#E0C070" d="M8,37h1v1H8V37z"/>
<path fill="#030303" d="M18,37h1v3h-1V37z"/>
<path fill="#E0C070" d="M31,37h1v1h-1V37z"/>
<path fill="#030303" d="M41,37h1v3h-1V37z"/>
<path fill="#E0C070" d="M54,37h1v1h-1V37z"/>
<path fill="#030303" d="M64,37h1v3h-1V37z"/>
<path fill="#E0C070" d="M77,37h1v1h-1V37z"/>
<path fill="#030303" d="M87,37h1v3h-1V37z"/>
<path fill="#030303" d="M3,38h1v4H3V38z"/>
<path fill="#A08058" d="M4,38h1v1h1v1h2v1h2v1h3v-1h2v1h-1v1h-1v1h-3v3H9v1H6v-1H5v-1H4v-1H3v-3h1V38z"/>
<path fill="#A08058" d="M16,38h1v2h-1V38z"/>
<path fill="#030303" d="M26,38h1v4h-1V38z"/>
<path fill="#A08058" d="M27,38h1v1h1v1h2v1h2v1h3v-1h2v1h-1v1h-1v1h-3v3h-1v1h-3v-1h-1v-1h-1v-1h-1v-3h1V38z"/>
<path fill="#A08058" d="M39,38h1v2h-1V38z"/>
<path fill="#030303" d="M49,38h1v4h-1V38z"/>
<path fill="#A08058" d="M50,38h1v1h1v1h2v1h2v1h3v-1h2v1h-1v1h-1v1h-3v3h-1v1h-3v-1h-1v-1h-1v-1h-1v-3h1V38z"/>
<path fill="#A08058" d="M62,38h1v2h-1V38z"/>
<path fill="#030303" d="M72,38h1v4h-1V38z"/>
<path fill="#A08058" d="M73,38h1v1h1v1h2v1h2v1h3v-1h2v1h-1v1h-1v1h-3v3h-1v1h-3v-1h-1v-1h-1v-1h-1v-3h1V38z"/>
<path fill="#A08058" d="M85,38h1v2h-1V38z"/>
<path fill="#A08058" d="M10,40h1v1h-1V40z"/>
<path fill="#A08058" d="M15,40h1v1h-1V40z"/>
<path fill="#E0C070" d="M16,40h1v1h-1V40z"/>
<path fill="#030303" d="M17,40h1v1h-1V40z"/>
<path fill="#A08058" d="M33,40h1v1h-1V40z"/>
<path fill="#A08058" d="M38,40h1v1h-1V40z"/>
<path fill="#E0C070" d="M39,40h1v1h-1V40z"/>
<path fill="#030303" d="M40,40h1v1h-1V40z"/>
<path fill="#A08058" d="M56,40h1v1h-1V40z"/>
<path fill="#A08058" d="M61,40h1v1h-1V40z"/>
<path fill="#E0C070" d="M62,40h1v1h-1V40z"/>
<path fill="#030303" d="M63,40h1v1h-1V40z"/>
<path fill="#A08058" d="M79,40h1v1h-1V40z"/>
<path fill="#A08058" d="M84,40h1v1h-1V40z"/>
<path fill="#E0C070" d="M85,40h1v1h-1V40z"/>
<path fill="#030303" d="M86,40h1v1h-1V40z"/>
<path fill="#E0C070" d="M15,41h1v1h-1V41z"/>
<path fill="#A08058" d="M16,41h1v1h-1V41z"/>
<path fill="#784040" d="M17,41h1v3h-1V41z"/>
<path fill="#E0C070" d="M38,41h1v1h-1V41z"/>
<path fill="#A08058" d="M39,41h1v1h-1V41z"/>
<path fill="#784040" d="M40,41h1v3h-1V41z"/>
<path fill="#E0C070" d="M61,41h1v1h-1V41z"/>
<path fill="#A08058" d="M62,41h1v1h-1V41z"/>
<path fill="#784040" d="M63,41h1v3h-1V41z"/>
<path fill="#E0C070" d="M84,41h1v1h-1V41z"/>
<path fill="#A08058" d="M85,41h1v1h-1V41z"/>
<path fill="#784040" d="M86,41h1v3h-1V41z"/>
<path fill="#030303" d="M2,42h1v3H2V42z"/>
<path fill="#B0B0B8" d="M14,42h1v1h-1V42z"/>
<path fill="#483858" d="M15,42h1v1h-1V42z"/>
<path fill="#F8D0B8" d="M16,42h1v3h-1v1h-2v-2h2V42z"/>
<path fill="#030303" d="M25,42h1v3h-1V42z"/>
<path fill="#B0B0B8" d="M37,42h1v1h-1V42z"/>
<path fill="#483858" d="M38,42h1v1h-1V42z"/>
<path fill="#F8D0B8" d="M39,42h1v3h-1v1h-2v-2h2V42z"/>
<path fill="#030303" d="M48,42h1v3h-1V42z"/>
<path fill="#B0B0B8" d="M60,42h1v1h-1V42z"/>
<path fill="#483858" d="M61,42h1v1h-1V42z"/>
<path fill="#F8D0B8" d="M62,42h1v3h-1v1h-2v-2h2V42z"/>
<path fill="#030303" d="M71,42h1v3h-1V42z"/>
<path fill="#B0B0B8" d="M83,42h1v1h-1V42z"/>
<path fill="#483858" d="M84,42h1v1h-1V42z"/>
<path fill="#F8D0B8" d="M85,42h1v3h-1v1h-2v-2h2V42z"/>
<path fill="#D89870" d="M13,43h1v3h-1v1h-1v-1h-1v-1h-1v-1h2v1h1V43z"/>
<path fill="#E8E8F8" d="M14,43h1v1h-1V43z"/>
<path fill="#030303" d="M15,43h1v1h-1V43z"/>
<path fill="#D89870" d="M36,43h1v3h-1v1h-1v-1h-1v-1h-1v-1h2v1h1V43z"/>
<path fill="#E8E8F8" d="M37,43h1v1h-1V43z"/>
<path fill="#030303" d="M38,43h1v1h-1V43z"/>
<path fill="#D89870" d="M59,43h1v3h-1v1h-1v-1h-1v-1h-1v-1h2v1h1V43z"/>
<path fill="#E8E8F8" d="M60,43h1v1h-1V43z"/>
<path fill="#030303" d="M61,43h1v1h-1V43z"/>
<path fill="#D89870" d="M82,43h1v3h-1v1h-1v-1h-1v-1h-1v-1h2v1h1V43z"/>
<path fill="#E8E8F8" d="M83,43h1v1h-1V43z"/>
<path fill="#030303" d="M84,43h1v1h-1V43z"/>
<path fill="#784040" d="M12,44h1v1h-1V44z"/>
<path fill="#D89870" d="M17,44h1v1h-1V44z"/>
<path fill="#784040" d="M35,44h1v1h-1V44z"/>
<path fill="#D89870" d="M40,44h1v1h-1V44z"/>
<path fill="#784040" d="M58,44h1v1h-1V44z"/>
<path fill="#D89870" d="M63,44h1v1h-1V44z"/>
<path fill="#784040" d="M81,44h1v1h-1V44z"/>
<path fill="#D89870" d="M86,44h1v1h-1V44z"/>
<path fill="#030303" d="M3,45h1v2H3V45z"/>
<path fill="#784040" d="M10,45h1v1h-1V45z"/>
<path fill="#784040" d="M16,45h1v1h-1V45z"/>
<path fill="#030303" d="M26,45h1v2h-1V45z"/>
<path fill="#784040" d="M33,45h1v1h-1V45z"/>
<path fill="#784040" d="M39,45h1v1h-1V45z"/>
<path fill="#030303" d="M49,45h1v2h-1V45z"/>
<path fill="#784040" d="M56,45h1v1h-1V45z"/>
<path fill="#784040" d="M62,45h1v1h-1V45z"/>
<path fill="#030303" d="M72,45h1v2h-1V45z"/>
<path fill="#784040" d="M79,45h1v1h-1V45z"/>
<path fill="#784040" d="M85,45h1v1h-1V45z"/>
<path fill="#784050" d="M4,46h1v1H4V46z"/>
<path fill="#030303" d="M10,46h2v1h-2V46z"/>
<path fill="#784040" d="M13,46h3v1h-3V46z"/>
<path fill="#784050" d="M27,46h1v1h-1V46z"/>
<path fill="#030303" d="M33,46h2v1h-2V46z"/>
<path fill="#784040" d="M36,46h3v1h-3V46z"/>
<path fill="#784050" d="M50,46h1v1h-1V46z"/>
<path fill="#030303" d="M56,46h2v1h-2V46z"/>
<path fill="#784040" d="M59,46h3v1h-3V46z"/>
<path fill="#784050" d="M73,46h1v1h-1V46z"/>
<path fill="#030303" d="M79,46h2v1h-2V46z"/>
<path fill="#784040" d="M82,46h3v1h-3V46z"/>
<path fill="#030303" d="M4,47h2v1H4V47z"/>
<path fill="#030303" d="M9,47h1v4H9v-1H8v-1H6v-1h3V47z"/>
<path fill="#483858" d="M10,47h2v1h-2V47z"/>
<path fill="#B0B0B8" d="M12,47h2v1h-2V47z"/>
<path fill="#483858" d="M14,47h1v1h-1V47z"/>
<path fill="#030303" d="M27,47h2v1h-2V47z"/>
<path fill="#030303" d="M32,47h1v2h-1v1h-1v-1h-2v-1h3V47z"/>
<path fill="#483858" d="M33,47h2v1h-2V47z"/>
<path fill="#B0B0B8" d="M35,47h2v1h-2V47z"/>
<path fill="#483858" d="M37,47h1v1h-1V47z"/>
<path fill="#030303" d="M50,47h2v1h-2V47z"/>
<path fill="#030303" d="M55,47h1v4h-1v-1h-1v-1h-2v-1h3V47z"/>
<path fill="#483858" d="M56,47h2v1h-2V47z"/>
<path fill="#B0B0B8" d="M58,47h2v1h-2V47z"/>
<path fill="#483858" d="M60,47h1v1h-1V47z"/>
<path fill="#030303" d="M73,47h2v1h-2V47z"/>
<path fill="#030303" d="M78,47h1v1h-1V47z"/>
<path fill="#B0B0B8" d="M79,47h1v1h-1V47z"/>
<path fill="#483858" d="M80,47h2v1h-2V47z"/>
<path fill="#B0B0B8" d="M82,47h1v1h-1V47z"/>
<path fill="#483858" d="M83,47h1v1h-1V47z"/>
<path fill="#F8D0B8" d="M10,48h2v1h-1v1h-1V48z"/>
<path fill="#483858" d="M12,48h1v2h-1V48z"/>
<path fill="#A078C8" d="M13,48h1v1h1v1h-2V48z"/>
<path fill="#785890" d="M14,48h1v1h-1V48z"/>
<path fill="#483858" d="M15,48h1v4h-1V48z"/>
<path fill="#F8D0B8" d="M33,48h2v1h-1v2h-2v-1h1V48z"/>
<path fill="#483858" d="M35,48h1v2h-1V48z"/>
<path fill="#A078C8" d="M36,48h1v1h1v2h-2V48z"/>
<path fill="#785890" d="M37,48h1v1h-1V48z"/>
<path fill="#483858" d="M38,48h1v4h-1V48z"/>
<path fill="#F8D0B8" d="M56,48h2v1h-1v1h-1V48z"/>
<path fill="#483858" d="M58,48h1v2h-1V48z"/>
<path fill="#A078C8" d="M59,48h1v1h1v1h-2V48z"/>
<path fill="#785890" d="M60,48h1v1h-1V48z"/>
<path fill="#483858" d="M61,48h1v4h-1V48z"/>
<path fill="#030303" d="M75,48h3v2h-1v-1h-2V48z"/>
<path fill="#785890" d="M78,48h1v1h-1V48z"/>
<path fill="#030303" d="M79,48h1v3h-1V48z"/>
<path fill="#F8D0B8" d="M80,48h2v1h-1v1h-1V48z"/>
<path fill="#483858" d="M82,48h1v2h-1V48z"/>
<path fill="#785890" d="M83,48h1v1h-1V48z"/>
<path fill="#483858" d="M84,48h1v4h-1V48z"/>
<path fill="#D89870" d="M11,49h1v1h-1V49z"/>
<path fill="#784040" d="M32,49h1v1h-1V49z"/>
<path fill="#D89870" d="M34,49h1v1h-1V49z"/>
<path fill="#D89870" d="M57,49h1v1h-1V49z"/>
<path fill="#A078C8" d="M78,49h1v1h-1V49z"/>
<path fill="#D89870" d="M81,49h1v1h-1V49z"/>
<path fill="#A078C8" d="M83,49h1v1h-1V49z"/>
<path fill="#030303" d="M7,50h1v2H7V50z"/>
<path fill="#B05870" d="M8,50h1v1h1v1h1v1H9v-1H8V50z"/>
<path fill="#D89870" d="M10,50h1v1h-1V50z"/>
<path fill="#F8D0B8" d="M11,50h2v1h-2V50z"/>
<path fill="#784040" d="M13,50h1v2h-1V50z"/>
<path fill="#784050" d="M14,50h1v1h-1V50z"/>
<path fill="#030303" d="M30,50h1v2h-1V50z"/>
<path fill="#B05870" d="M31,50h1v2h-1V50z"/>
<path fill="#784040" d="M34,50h1v2h-1V50z"/>
<path fill="#B05870" d="M35,50h1v1h-1V50z"/>
<path fill="#030303" d="M53,50h1v2h-1V50z"/>
<path fill="#B05870" d="M54,50h1v1h1v1h1v1h-2v-1h-1V50z"/>
<path fill="#D89870" d="M56,50h1v1h-1V50z"/>
<path fill="#F8D0B8" d="M57,50h2v1h-2V50z"/>
<path fill="#784040" d="M59,50h1v2h-1V50z"/>
<path fill="#784050" d="M60,50h1v1h-1V50z"/>
<path fill="#030303" d="M76,50h1v2h-1V50z"/>
<path fill="#B05870" d="M77,50h1v1h-1V50z"/>
<path fill="#E090A8" d="M78,50h1v1h1v1h-1v1h-1v-1h-1v-1h1V50z"/>
<path fill="#D89870" d="M80,50h1v1h-1V50z"/>
<path fill="#F8D0B8" d="M81,50h2v1h-2V50z"/>
<path fill="#784040" d="M83,50h1v2h-1V50z"/>
<path fill="#030303" d="M10,51h1v1h-1V51z"/>
<path fill="#D89870" d="M11,51h2v1h-2V51z"/>
<path fill="#E090A8" d="M14,51h1v1h-1V51z"/>
<path fill="#D89870" d="M32,51h2v1h-2V51z"/>
<path fill="#E090A8" d="M35,51h1v1h1v1h-1v1h-1v-1h-1v-1h1V51z"/>
<path fill="#B05870" d="M36,51h2v1h-2V51z"/>
<path fill="#030303" d="M56,51h1v1h-1V51z"/>
<path fill="#D89870" d="M57,51h2v1h-2V51z"/>
<path fill="#E090A8" d="M60,51h1v1h-1V51z"/>
<path fill="#030303" d="M80,51h1v1h-1V51z"/>
<path fill="#D89870" d="M81,51h2v1h-2V51z"/>
<path fill="#030303" d="M8,52h1v1H8V52z"/>
<path fill="#030303" d="M11,52h2v1h-2V52z"/>
<path fill="#E090A8" d="M13,52h1v1h-1V52z"/>
<path fill="#030303" d="M14,52h1v1h-1V52z"/>
<path fill="#030303" d="M29,52h1v3h-1V52z"/>
<path fill="#A08058" d="M30,52h1v2h1v1h-2V52z"/>
<path fill="#784050" d="M31,52h1v1h-1V52z"/>
<path fill="#030303" d="M32,52h2v1h-2V52z"/>
<path fill="#030303" d="M37,52h2v1h-2V52z"/>
<path fill="#030303" d="M54,52h1v1h-1V52z"/>
<path fill="#030303" d="M57,52h2v1h-2V52z"/>
<path fill="#E090A8" d="M59,52h1v1h-1V52z"/>
<path fill="#030303" d="M60,52h1v1h-1V52z"/>
<path fill="#784050" d="M76,52h2v1h-2V52z"/>
<path fill="#B05870" d="M79,52h2v1h-2V52z"/>
<path fill="#030303" d="M81,52h2v1h1v1h-5v-1h2V52z"/>
<path fill="#B05870" d="M83,52h1v1h-1V52z"/>
<path fill="#D89870" d="M84,52h1v1h-1V52z"/>
<path fill="#A08058" d="M85,52h1v2h-2v-1h1V52z"/>
<path fill="#030303" d="M86,52h1v2h-1V52z"/>
<path fill="#030303" d="M9,53h1v1H9V53z"/>
<path fill="#E0C070" d="M10,53h3v1h-3V53z"/>
<path fill="#030303" d="M13,53h1v1h-1V53z"/>
<path fill="#030303" d="M31,53h1v1h-1V53z"/>
<path fill="#B05870" d="M32,53h3v1h-3V53z"/>
<path fill="#030303" d="M36,53h1v1h-1V53z"/>
<path fill="#A08058" d="M37,53h1v1h-1V53z"/>
<path fill="#E0C070" d="M38,53h2v1h-1v1h-3v-1h2V53z"/>
<path fill="#030303" d="M55,53h1v1h-1V53z"/>
<path fill="#E0C070" d="M56,53h3v1h-3V53z"/>
<path fill="#030303" d="M59,53h1v1h-1V53z"/>
<path fill="#030303" d="M75,53h1v2h-1V53z"/>
<path fill="#E0C070" d="M76,53h1v1h1v1h-2V53z"/>
<path fill="#D89870" d="M77,53h2v1h-2V53z"/>
<path fill="#030303" d="M10,54h3v1h-3V54z"/>
<path fill="#030303" d="M32,54h1v1h-1V54z"/>
<path fill="#030303" d="M34,54h2v1h-2V54z"/>
<path fill="#030303" d="M39,54h1v1h-1V54z"/>
<path fill="#030303" d="M56,54h3v1h-3V54z"/>
<path fill="#030303" d="M78,54h1v1h-1V54z"/>
<path fill="#030303" d="M84,54h2v1h-2V54z"/>
<path fill="#030303" d="M30,55h2v1h-2V55z"/>
<path fill="#030303" d="M36,55h3v1h-3V55z"/>
<path fill="#030303" d="M76,55h2v1h-2V55z"/>
<path fill="#A08058" d="M9,60h5v1H9V60z"/>
<path fill="#A08058" d="M32,60h5v1h-5V60z"/>
<path fill="#A08058" d="M55,60h5v1h-5V60z"/>
<path fill="#A08058" d="M78,60h5v1h-5V60z"/>
<path fill="#A08058" d="M7,61h2v1H7V61z"/>
<path fill="#F8E8B0" d="M9,61h1v1H9V61z"/>
<path fill="#E0C070" d="M10,61h3v1h3v1h1v2h1v2h1v2h-1v1h-1v1h-3v1H9v-1H6v-1H5v-1H4v-2h1v-2h1v-2h1v2h1v1h2v-1H9v-3h1V61z"/>
<path fill="#F8E8B0" d="M13,61h1v1h-1V61z"/>
<path fill="#A08058" d="M14,61h2v1h-2V61z"/>
<path fill="#A08058" d="M30,61h2v1h-2V61z"/>
<path fill="#F8E8B0" d="M32,61h1v1h-1V61z"/>
<path fill="#E0C070" d="M33,61h3v1h3v1h1v2h1v2h1v2h-1v1h-1v1h-3v1h-5v-1h-3v-1h-1v-1h-1v-2h1v-2h1v-2h1v2h1v1h2v-1h-1v-3h1V61z"/>
<path fill="#F8E8B0" d="M36,61h1v1h-1V61z"/>
<path fill="#A08058" d="M37,61h2v1h-2V61z"/>
<path fill="#A08058" d="M53,61h2v1h-2V61z"/>
<path fill="#F8E8B0" d="M55,61h1v1h-1V61z"/>
<path fill="#E0C070" d="M56,61h3v1h3v1h1v2h1v2h1v2h-1v1h-1v1h-3v1h-5v-1h-3v-1h-1v-1h-1v-2h1v-2h1v-2h1v2h1v1h2v-1h-1v-3h1V61z"/>
<path fill="#F8E8B0" d="M59,61h1v1h-1V61z"/>
<path fill="#A08058" d="M60,61h2v1h-2V61z"/>
<path fill="#A08058" d="M76,61h2v1h-2V61z"/>
<path fill="#F8E8B0" d="M78,61h1v1h-1V61z"/>
<path fill="#E0C070" d="M79,61h3v1h3v1h1v2h1v2h1v2h-1v1h-1v1h-3v1h-5v-1h-3v-1h-1v-1h-1v-2h1v-2h1v-2h1v2h1v1h2v-1h-1v-3h1V61z"/>
<path fill="#F8E8B0" d="M82,61h1v1h-1V61z"/>
<path fill="#A08058" d="M83,61h2v1h-2V61z"/>
<path fill="#784050" d="M6,62h1v1H6V62z"/>
<path fill="#E0C070" d="M7,62h1v1H7V62z"/>
<path fill="#F8E8B0" d="M8,62h1v3h1v1H8v-1H7v-2h1V62z"/>
<path fill="#A08058" d="M11,62h1v1h1v1h-1v1h-1v-1h-1v-1h1V62z"/>
<path fill="#784050" d="M16,62h1v1h-1V62z"/>
<path fill="#784050" d="M29,62h1v1h-1V62z"/>
<path fill="#E0C070" d="M30,62h1v1h-1V62z"/>
<path fill="#F8E8B0" d="M31,62h1v3h1v1h-2v-1h-1v-2h1V62z"/>
<path fill="#A08058" d="M34,62h1v1h1v1h-1v1h-1v-1h-1v-1h1V62z"/>
<path fill="#784050" d="M39,62h1v1h-1V62z"/>
<path fill="#784050" d="M52,62h1v1h-1V62z"/>
<path fill="#E0C070" d="M53,62h1v1h-1V62z"/>
<path fill="#F8E8B0" d="M54,62h1v3h1v1h-2v-1h-1v-2h1V62z"/>
<path fill="#A08058" d="M57,62h1v1h1v1h-1v1h-1v-1h-1v-1h1V62z"/>
<path fill="#784050" d="M62,62h1v1h-1V62z"/>
<path fill="#784050" d="M75,62h1v1h-1V62z"/>
<path fill="#E0C070" d="M76,62h1v1h-1V62z"/>
<path fill="#F8E8B0" d="M77,62h1v3h1v1h-2v-1h-1v-2h1V62z"/>
<path fill="#A08058" d="M80,62h1v1h1v1h-1v1h-1v-1h-1v-1h1V62z"/>
<path fill="#784050" d="M85,62h1v1h-1V62z"/>
<path fill="#784050" d="M5,63h1v2H5V63z"/>
<path fill="#F8E8B0" d="M14,63h1v2h-1V63z"/>
<path fill="#784050" d="M17,63h1v2h-1V63z"/>
<path fill="#784050" d="M28,63h1v2h-1V63z"/>
<path fill="#F8E8B0" d="M37,63h1v2h-1V63z"/>
<path fill="#784050" d="M40,63h1v2h-1V63z"/>
<path fill="#784050" d="M51,63h1v2h-1V63z"/>
<path fill="#F8E8B0" d="M60,63h1v2h-1V63z"/>
<path fill="#784050" d="M63,63h1v2h-1V63z"/>
<path fill="#784050" d="M74,63h1v2h-1V63z"/>
<path fill="#F8E8B0" d="M83,63h1v2h-1V63z"/>
<path fill="#784050" d="M86,63h1v2h-1V63z"/>
<path fill="#030303" d="M4,65h1v2H4V65z"/>
<path fill="#F8E8B0" d="M13,65h1v1h-1V65z"/>
<path fill="#030303" d="M18,65h1v2h-1V65z"/>
<path fill="#030303" d="M27,65h1v2h-1V65z"/>
<path fill="#F8E8B0" d="M36,65h1v1h-1V65z"/>
<path fill="#030303" d="M41,65h1v2h-1V65z"/>
<path fill="#030303" d="M50,65h1v2h-1V65z"/>
<path fill="#F8E8B0" d="M59,65h1v1h-1V65z"/>
<path fill="#030303" d="M64,65h1v2h-1V65z"/>
<path fill="#030303" d="M73,65h1v2h-1V65z"/>
<path fill="#F8E8B0" d="M82,65h1v1h-1V65z"/>
<path fill="#030303" d="M87,65h1v2h-1V65z"/>
<path fill="#F8E8B0" d="M10,66h2v1h-2V66z"/>
<path fill="#F8E8B0" d="M33,66h2v1h-2V66z"/>
<path fill="#F8E8B0" d="M56,66h2v1h-2V66z"/>
<path fill="#F8E8B0" d="M79,66h2v1h-2V66z"/>
<path fill="#030303" d="M3,67h1v4H3V67z"/>
<path fill="#030303" d="M19,67h1v4h-1V67z"/>
<path fill="#030303" d="M26,67h1v4h-1V67z"/>
<path fill="#030303" d="M42,67h1v4h-1V67z"/>
<path fill="#030303" d="M49,67h1v4h-1V67z"/>
<path fill="#030303" d="M65,67h1v4h-1V67z"/>
<path fill="#030303" d="M72,67h1v4h-1V67z"/>
<path fill="#030303" d="M88,67h1v4h-1V67z"/>
<path fill="#A08058" d="M4,69h1v1h1v1h3v1h5v-1h3v-1h1v-1h1v2h1v4h-1v2h-2v1h-3v1H9v-1H6v-1H4v-2H3v-4h1V69z"/>
<path fill="#A08058" d="M27,69h1v1h1v1h3v1h5v-1h3v-1h1v-1h1v2h1v4h-1v2h-2v1h-3v1h-5v-1h-3v-1h-2v-2h-1v-4h1V69z"/>
<path fill="#A08058" d="M50,69h1v1h1v1h3v1h5v-1h3v-1h1v-1h1v2h1v4h-1v2h-2v1h-3v1h-5v-1h-3v-1h-2v-2h-1v-4h1V69z"/>
<path fill="#A08058" d="M73,69h1v1h1v1h3v1h5v-1h3v-1h1v-1h1v2h1v4h-1v2h-2v1h-3v1h-5v-1h-3v-1h-2v-2h-1v-4h1V69z"/>
<path fill="#030303" d="M2,71h1v4H2V71z"/>
<path fill="#030303" d="M20,71h1v4h-1V71z"/>
<path fill="#030303" d="M25,71h1v4h-1V71z"/>
<path fill="#030303" d="M43,71h1v4h-1V71z"/>
<path fill="#030303" d="M48,71h1v4h-1V71z"/>
<path fill="#030303" d="M66,71h1v4h-1V71z"/>
<path fill="#030303" d="M71,71h1v4h-1V71z"/>
<path fill="#030303" d="M89,71h1v4h-1V71z"/>
<path fill="#030303" d="M3,75h1v2H3V75z"/>
<path fill="#030303" d="M19,75h1v2h-1V75z"/>
<path fill="#030303" d="M26,75h1v2h-1V75z"/>
<path fill="#030303" d="M42,75h1v2h-1V75z"/>
<path fill="#030303" d="M49,75h1v2h-1V75z"/>
<path fill="#030303" d="M65,75h1v2h-1V75z"/>
<path fill="#030303" d="M72,75h1v2h-1V75z"/>
<path fill="#030303" d="M88,75h1v2h-1V75z"/>
<path fill="#784040" d="M25,76h1v2h-1V76z"/>
<path fill="#784040" d="M89,76h1v2h-1V76z"/>
<path fill="#030303" d="M4,77h1v1H4V77z"/>
<path fill="#483858" d="M5,77h1v1H5V77z"/>
<path fill="#483858" d="M17,77h1v1h-1V77z"/>
<path fill="#030303" d="M18,77h1v1h-1V77z"/>
<path fill="#D89870" d="M26,77h1v1h-1V77z"/>
<path fill="#030303" d="M27,77h1v1h-1V77z"/>
<path fill="#483858" d="M28,77h1v1h-1V77z"/>
<path fill="#483858" d="M40,77h1v1h-1V77z"/>
<path fill="#030303" d="M41,77h1v1h-1V77z"/>
<path fill="#030303" d="M50,77h1v1h-1V77z"/>
<path fill="#483858" d="M51,77h1v1h-1V77z"/>
<path fill="#483858" d="M63,77h1v1h-1V77z"/>
<path fill="#030303" d="M64,77h1v1h-1V77z"/>
<path fill="#030303" d="M73,77h1v1h-1V77z"/>
<path fill="#483858" d="M74,77h1v1h-1V77z"/>
<path fill="#483858" d="M86,77h1v1h-1V77z"/>
<path fill="#030303" d="M87,77h1v1h-1V77z"/>
<path fill="#D89870" d="M88,77h1v1h-1V77z"/>
<path fill="#784040" d="M3,78h1v2H3V78z"/>
<path fill="#D89870" d="M4,78h1v1h1v1H4V78z"/>
<path fill="#030303" d="M5,78h2v4H6v-3H5V78z"/>
<path fill="#483858" d="M7,78h2v1H7V78z"/>
<path fill="#483858" d="M14,78h2v1h-2V78z"/>
<path fill="#030303" d="M16,78h2v1h-1v3h-1V78z"/>
<path fill="#D89870" d="M18,78h1v2h-2v-1h1V78z"/>
<path fill="#784040" d="M19,78h1v2h-1V78z"/>
<path fill="#784040" d="M26,78h2v1h-2V78z"/>
<path fill="#030303" d="M28,78h2v1h-2V78z"/>
<path fill="#483858" d="M30,78h2v1h-2V78z"/>
<path fill="#483858" d="M37,78h2v1h-2V78z"/>
<path fill="#030303" d="M39,78h2v1h-1v1h2v1h-3V78z"/>
<path fill="#D89870" d="M41,78h1v2h-2v-1h1V78z"/>
<path fill="#784040" d="M42,78h1v2h-1V78z"/>
<path fill="#784040" d="M49,78h1v2h-1V78z"/>
<path fill="#D89870" d="M50,78h1v1h1v1h-2V78z"/>
<path fill="#030303" d="M51,78h2v4h-1v-3h-1V78z"/>
<path fill="#483858" d="M53,78h2v1h-2V78z"/>
<path fill="#483858" d="M60,78h2v1h-2V78z"/>
<path fill="#030303" d="M62,78h2v1h-1v3h-1V78z"/>
<path fill="#D89870" d="M64,78h1v2h-2v-1h1V78z"/>
<path fill="#784040" d="M65,78h1v2h-1V78z"/>
<path fill="#784040" d="M72,78h1v2h-1V78z"/>
<path fill="#D89870" d="M73,78h1v1h1v1h-2V78z"/>
<path fill="#030303" d="M74,78h2v3h-3v-1h2v-1h-1V78z"/>
<path fill="#483858" d="M76,78h2v1h-2V78z"/>
<path fill="#483858" d="M83,78h2v1h-2V78z"/>
<path fill="#030303" d="M85,78h2v1h-2V78z"/>
<path fill="#784040" d="M87,78h2v1h-2V78z"/>
<path fill="#B05870" d="M7,79h2v1H8v1H7V79z"/>
<path fill="#483858" d="M9,79h5v1H9V79z"/>
<path fill="#B05870" d="M14,79h2v2h-1v-1h-1V79z"/>
<path fill="#784040" d="M28,79h2v1h-2V79z"/>
<path fill="#030303" d="M30,79h1v1h-1V79z"/>
<path fill="#B05870" d="M31,79h1v1h-1V79z"/>
<path fill="#483858" d="M32,79h5v1h-5V79z"/>
<path fill="#B05870" d="M37,79h2v2h-1v-1h-1V79z"/>
<path fill="#B05870" d="M53,79h2v1h-1v1h-1V79z"/>
<path fill="#483858" d="M55,79h5v1h-5V79z"/>
<path fill="#B05870" d="M60,79h2v2h-1v-1h-1V79z"/>
<path fill="#B05870" d="M76,79h2v1h-1v1h-1V79z"/>
<path fill="#483858" d="M78,79h5v1h-5V79z"/>
<path fill="#B05870" d="M83,79h1v1h-1V79z"/>
<path fill="#030303" d="M84,79h1v1h-1V79z"/>
<path fill="#784040" d="M85,79h2v1h-2V79z"/>
<path fill="#784040" d="M4,80h2v1H4V80z"/>
<path fill="#E090A8" d="M8,80h2v1h3v-1h2v1h-1v1H9v-1H8V80z"/>
<path fill="#B05870" d="M10,80h3v1h-3V80z"/>
<path fill="#784040" d="M17,80h2v1h-2V80z"/>
<path fill="#030303" d="M29,80h1v2h-1V80z"/>
<path fill="#B05870" d="M30,80h1v1h1v1h-2V80z"/>
<path fill="#E090A8" d="M31,80h2v1h3v-1h2v1h-1v1h-5v-1h-1V80z"/>
<path fill="#B05870" d="M33,80h3v1h-3V80z"/>
<path fill="#784040" d="M50,80h2v1h-2V80z"/>
<path fill="#E090A8" d="M54,80h2v1h3v-1h2v1h-1v1h-5v-1h-1V80z"/>
<path fill="#B05870" d="M56,80h3v1h-3V80z"/>
<path fill="#784040" d="M63,80h2v1h-2V80z"/>
<path fill="#E090A8" d="M77,80h2v1h3v-1h2v1h-1v1h-5v-1h-1V80z"/>
<path fill="#B05870" d="M79,80h3v1h-3V80z"/>
<path fill="#B05870" d="M84,80h1v2h-2v-1h1V80z"/>
<path fill="#030303" d="M85,80h1v2h-1V80z"/>
<path fill="#784050" d="M7,81h1v1H7V81z"/>
<path fill="#B05870" d="M8,81h1v1H8V81z"/>
<path fill="#B05870" d="M14,81h1v1h-1V81z"/>
<path fill="#784050" d="M15,81h1v1h-1V81z"/>
<path fill="#030303" d="M37,81h2v1h-2V81z"/>
<path fill="#784050" d="M53,81h1v1h-1V81z"/>
<path fill="#B05870" d="M54,81h1v1h-1V81z"/>
<path fill="#B05870" d="M60,81h1v1h-1V81z"/>
<path fill="#784050" d="M61,81h1v1h-1V81z"/>
<path fill="#030303" d="M76,81h2v1h-2V81z"/>
<path fill="#030303" d="M7,82h1v1H7V82z"/>
<path fill="#E0C070" d="M8,82h2v1H8V82z"/>
<path fill="#030303" d="M10,82h3v1h-3V82z"/>
<path fill="#E0C070" d="M13,82h2v1h-2V82z"/>
<path fill="#030303" d="M15,82h1v1h-1V82z"/>
<path fill="#030303" d="M30,82h1v3h-1V82z"/>
<path fill="#D89870" d="M31,82h1v1h-1V82z"/>
<path fill="#B05870" d="M32,82h2v1h-2V82z"/>
<path fill="#030303" d="M34,82h3v1h-3V82z"/>
<path fill="#030303" d="M53,82h1v1h-1V82z"/>
<path fill="#E0C070" d="M54,82h2v1h-2V82z"/>
<path fill="#030303" d="M56,82h3v1h-3V82z"/>
<path fill="#E0C070" d="M59,82h2v1h-2V82z"/>
<path fill="#030303" d="M61,82h1v1h-1V82z"/>
<path fill="#030303" d="M78,82h3v1h-3V82z"/>
<path fill="#B05870" d="M81,82h2v1h-2V82z"/>
<path fill="#D89870" d="M83,82h1v1h-1V82z"/>
<path fill="#030303" d="M84,82h1v3h-1V82z"/>
<path fill="#030303" d="M8,83h2v1H8V83z"/>
<path fill="#030303" d="M13,83h2v1h-2V83z"/>
<path fill="#A08058" d="M31,83h2v1h-2V83z"/>
<path fill="#030303" d="M33,83h1v2h-1V83z"/>
<path fill="#030303" d="M54,83h2v1h-2V83z"/>
<path fill="#030303" d="M59,83h2v1h-2V83z"/>
<path fill="#030303" d="M81,83h1v2h-1V83z"/>
<path fill="#A08058" d="M82,83h2v1h-2V83z"/>
<path fill="#E0C070" d="M31,84h2v1h-2V84z"/>
<path fill="#E0C070" d="M82,84h2v1h-2V84z"/>
<path fill="#030303" d="M31,85h2v1h-2V85z"/>
<path fill="#030303" d="M82,85h2v1h-2V85z"/>
<path fill="#A08058" d="M10,89h4v1h-4V89z"/>
<path fill="#A08058" d="M33,89h4v1h-4V89z"/>
<path fill="#A08058" d="M56,89h4v1h-4V89z"/>
<path fill="#A08058" d="M79,89h4v1h-4V89z"/>
<path fill="#A08058" d="M8,90h2v1H8V90z"/>
<path fill="#E0C070" d="M10,90h4v1h2v1h-1v1h-1v1h-2v1h-2v-1H9v1h1v1h2v1h3v-1h1v-2h2v3h-1v1h-2v1h-2v-1h-1v1h1v1h-3v-1H8v-1H7v-2H6
	v2H5v-3h1v-2h1v-1h1v-1h2V90z"/>
<path fill="#A08058" d="M14,90h2v1h-2V90z"/>
<path fill="#A08058" d="M31,90h2v1h-2V90z"/>
<path fill="#E0C070" d="M33,90h4v1h2v1h-1v1h-1v1h-2v1h-2v-1h-1v1h1v1h2v1h3v-1h1v-2h2v3h-1v1h-2v1h-2v-1h-1v1h1v1h-3v-1h-2v-1h-1
	v-2h-1v2h-1v-3h1v-2h1v-1h1v-1h2V90z"/>
<path fill="#A08058" d="M37,90h2v1h-2V90z"/>
<path fill="#A08058" d="M54,90h2v1h-2V90z"/>
<path fill="#E0C070" d="M56,90h4v1h2v1h-1v1h-1v1h-2v1h-2v-1h-1v1h1v1h2v1h3v-1h1v-2h2v3h-1v1h-2v1h-2v-1h-1v1h1v1h-3v-1h-2v-1h-1
	v-2h-1v2h-1v-3h1v-2h1v-1h1v-1h2V90z"/>
<path fill="#A08058" d="M60,90h2v1h-2V90z"/>
<path fill="#A08058" d="M77,90h2v1h-2V90z"/>
<path fill="#E0C070" d="M79,90h4v1h2v1h-1v1h-1v1h-2v1h-2v-1h-1v1h1v1h2v1h3v-1h1v-2h2v3h-1v1h-2v1h-2v-1h-1v1h1v1h-3v-1h-2v-1h-1
	v-2h-1v2h-1v-3h1v-2h1v-1h1v-1h2V90z"/>
<path fill="#A08058" d="M83,90h2v1h-2V90z"/>
<path fill="#784050" d="M7,91h1v1H7V91z"/>
<path fill="#784050" d="M16,91h1v1h-1V91z"/>
<path fill="#784050" d="M30,91h1v1h-1V91z"/>
<path fill="#784050" d="M39,91h1v1h-1V91z"/>
<path fill="#784050" d="M53,91h1v1h-1V91z"/>
<path fill="#784050" d="M62,91h1v1h-1V91z"/>
<path fill="#784050" d="M76,91h1v1h-1V91z"/>
<path fill="#784050" d="M85,91h1v1h-1V91z"/>
<path fill="#784050" d="M6,92h1v1H6V92z"/>
<path fill="#F8E8B0" d="M15,92h1v1h-1V92z"/>
<path fill="#E0C070" d="M16,92h1v1h-1V92z"/>
<path fill="#784050" d="M17,92h1v1h-1V92z"/>
<path fill="#784050" d="M29,92h1v1h-1V92z"/>
<path fill="#F8E8B0" d="M38,92h1v1h-1V92z"/>
<path fill="#E0C070" d="M39,92h1v1h-1V92z"/>
<path fill="#784050" d="M40,92h1v1h-1V92z"/>
<path fill="#784050" d="M52,92h1v1h-1V92z"/>
<path fill="#F8E8B0" d="M61,92h1v1h-1V92z"/>
<path fill="#E0C070" d="M62,92h1v1h-1V92z"/>
<path fill="#784050" d="M63,92h1v1h-1V92z"/>
<path fill="#784050" d="M75,92h1v1h-1V92z"/>
<path fill="#F8E8B0" d="M84,92h1v1h-1V92z"/>
<path fill="#E0C070" d="M85,92h1v1h-1V92z"/>
<path fill="#784050" d="M86,92h1v1h-1V92z"/>
<path fill="#030303" d="M5,93h1v2H5V93z"/>
<path fill="#F8E8B0" d="M14,93h1v1h1v2h-1v-1h-1v1h1v1h-3v-1h-2v-1h2v-1h2V93z"/>
<path fill="#E0C070" d="M15,93h1v1h-1V93z"/>
<path fill="#F8E8B0" d="M16,93h1v1h-1V93z"/>
<path fill="#A08058" d="M17,93h1v1h-1V93z"/>
<path fill="#030303" d="M18,93h1v3h-1V93z"/>
<path fill="#030303" d="M28,93h1v2h-1V93z"/>
<path fill="#F8E8B0" d="M37,93h1v1h1v2h-1v-1h-1v1h1v1h-3v-1h-2v-1h2v-1h2V93z"/>
<path fill="#E0C070" d="M38,93h1v1h-1V93z"/>
<path fill="#F8E8B0" d="M39,93h1v1h-1V93z"/>
<path fill="#A08058" d="M40,93h1v1h-1V93z"/>
<path fill="#030303" d="M41,93h1v3h-1V93z"/>
<path fill="#030303" d="M51,93h1v2h-1V93z"/>
<path fill="#F8E8B0" d="M60,93h1v1h1v2h-1v-1h-1v1h1v1h-3v-1h-2v-1h2v-1h2V93z"/>
<path fill="#E0C070" d="M61,93h1v1h-1V93z"/>
<path fill="#F8E8B0" d="M62,93h1v1h-1V93z"/>
<path fill="#A08058" d="M63,93h1v1h-1V93z"/>
<path fill="#030303" d="M64,93h1v3h-1V93z"/>
<path fill="#030303" d="M74,93h1v2h-1V93z"/>
<path fill="#F8E8B0" d="M83,93h1v1h1v2h-1v-1h-1v1h1v1h-3v-1h-2v-1h2v-1h2V93z"/>
<path fill="#E0C070" d="M84,93h1v1h-1V93z"/>
<path fill="#F8E8B0" d="M85,93h1v1h-1V93z"/>
<path fill="#A08058" d="M86,93h1v1h-1V93z"/>
<path fill="#030303" d="M87,93h1v3h-1V93z"/>
<path fill="#F8E8B0" d="M9,94h1v1H9V94z"/>
<path fill="#F8E8B0" d="M32,94h1v1h-1V94z"/>
<path fill="#F8E8B0" d="M55,94h1v1h-1V94z"/>
<path fill="#F8E8B0" d="M78,94h1v1h-1V94z"/>
<path fill="#030303" d="M4,95h1v3H4V95z"/>
<path fill="#E0C070" d="M14,95h1v1h-1V95z"/>
<path fill="#030303" d="M27,95h1v3h-1V95z"/>
<path fill="#E0C070" d="M37,95h1v1h-1V95z"/>
<path fill="#030303" d="M50,95h1v3h-1V95z"/>
<path fill="#E0C070" d="M60,95h1v1h-1V95z"/>
<path fill="#030303" d="M73,95h1v3h-1V95z"/>
<path fill="#E0C070" d="M83,95h1v1h-1V95z"/>
<path fill="#A08058" d="M6,96h1v2H6V96z"/>
<path fill="#A08058" d="M18,96h1v4h1v3h-1v1h-1v1h-1v1h-3v-1h-1v-3h-3v-1H9v-1H8v-1h2v1h3v-1h2v-1h2v-1h1V96z"/>
<path fill="#030303" d="M19,96h1v4h-1V96z"/>
<path fill="#A08058" d="M29,96h1v2h-1V96z"/>
<path fill="#A08058" d="M41,96h1v4h1v3h-1v1h-1v1h-1v1h-3v-1h-1v-3h-3v-1h-1v-1h-1v-1h2v1h3v-1h2v-1h2v-1h1V96z"/>
<path fill="#030303" d="M42,96h1v4h-1V96z"/>
<path fill="#A08058" d="M52,96h1v2h-1V96z"/>
<path fill="#A08058" d="M64,96h1v4h1v3h-1v1h-1v1h-1v1h-3v-1h-1v-3h-3v-1h-1v-1h-1v-1h2v1h3v-1h2v-1h2v-1h1V96z"/>
<path fill="#030303" d="M65,96h1v4h-1V96z"/>
<path fill="#A08058" d="M75,96h1v2h-1V96z"/>
<path fill="#A08058" d="M87,96h1v4h1v3h-1v1h-1v1h-1v1h-3v-1h-1v-3h-3v-1h-1v-1h-1v-1h2v1h3v-1h2v-1h2v-1h1V96z"/>
<path fill="#030303" d="M88,96h1v4h-1V96z"/>
<path fill="#030303" d="M5,98h1v1H5V98z"/>
<path fill="#E0C070" d="M6,98h1v1H6V98z"/>
<path fill="#A08058" d="M7,98h1v1H7V98z"/>
<path fill="#A08058" d="M12,98h1v1h-1V98z"/>
<path fill="#030303" d="M28,98h1v1h-1V98z"/>
<path fill="#E0C070" d="M29,98h1v1h-1V98z"/>
<path fill="#A08058" d="M30,98h1v1h-1V98z"/>
<path fill="#A08058" d="M35,98h1v1h-1V98z"/>
<path fill="#030303" d="M51,98h1v1h-1V98z"/>
<path fill="#E0C070" d="M52,98h1v1h-1V98z"/>
<path fill="#A08058" d="M53,98h1v1h-1V98z"/>
<path fill="#A08058" d="M58,98h1v1h-1V98z"/>
<path fill="#030303" d="M74,98h1v1h-1V98z"/>
<path fill="#E0C070" d="M75,98h1v1h-1V98z"/>
<path fill="#A08058" d="M76,98h1v1h-1V98z"/>
<path fill="#A08058" d="M81,98h1v1h-1V98z"/>
<path fill="#784040" d="M5,99h1v3H5V99z"/>
<path fill="#A08058" d="M6,99h1v1H6V99z"/>
<path fill="#E0C070" d="M7,99h1v1H7V99z"/>
<path fill="#784040" d="M28,99h1v3h-1V99z"/>
<path fill="#A08058" d="M29,99h1v1h-1V99z"/>
<path fill="#E0C070" d="M30,99h1v1h-1V99z"/>
<path fill="#784040" d="M51,99h1v3h-1V99z"/>
<path fill="#A08058" d="M52,99h1v1h-1V99z"/>
<path fill="#E0C070" d="M53,99h1v1h-1V99z"/>
<path fill="#784040" d="M74,99h1v3h-1V99z"/>
<path fill="#A08058" d="M75,99h1v1h-1V99z"/>
<path fill="#E0C070" d="M76,99h1v1h-1V99z"/>
<path fill="#F8D0B8" d="M6,100h1v2h2v2H7v-1H6V100z"/>
<path fill="#483858" d="M7,100h1v1H7V100z"/>
<path fill="#B0B0B8" d="M8,100h1v1H8V100z"/>
<path fill="#030303" d="M20,100h1v3h-1V100z"/>
<path fill="#F8D0B8" d="M29,100h1v2h2v2h-2v-1h-1V100z"/>
<path fill="#483858" d="M30,100h1v1h-1V100z"/>
<path fill="#B0B0B8" d="M31,100h1v1h-1V100z"/>
<path fill="#030303" d="M43,100h1v3h-1V100z"/>
<path fill="#F8D0B8" d="M52,100h1v2h2v2h-2v-1h-1V100z"/>
<path fill="#483858" d="M53,100h1v1h-1V100z"/>
<path fill="#B0B0B8" d="M54,100h1v1h-1V100z"/>
<path fill="#030303" d="M66,100h1v3h-1V100z"/>
<path fill="#F8D0B8" d="M75,100h1v2h2v2h-2v-1h-1V100z"/>
<path fill="#483858" d="M76,100h1v1h-1V100z"/>
<path fill="#B0B0B8" d="M77,100h1v1h-1V100z"/>
<path fill="#030303" d="M89,100h1v3h-1V100z"/>
<path fill="#030303" d="M7,101h1v1H7V101z"/>
<path fill="#E8E8F8" d="M8,101h1v1H8V101z"/>
<path fill="#D89870" d="M9,101h1v2h1v-1h2v1h-1v1h-1v1h-1v-1H9V101z"/>
<path fill="#030303" d="M30,101h1v1h-1V101z"/>
<path fill="#E8E8F8" d="M31,101h1v1h-1V101z"/>
<path fill="#D89870" d="M32,101h1v2h1v-1h2v1h-1v1h-1v1h-1v-1h-1V101z"/>
<path fill="#030303" d="M53,101h1v1h-1V101z"/>
<path fill="#E8E8F8" d="M54,101h1v1h-1V101z"/>
<path fill="#D89870" d="M55,101h1v2h1v-1h2v1h-1v1h-1v1h-1v-1h-1V101z"/>
<path fill="#030303" d="M76,101h1v1h-1V101z"/>
<path fill="#E8E8F8" d="M77,101h1v1h-1V101z"/>
<path fill="#D89870" d="M78,101h1v2h1v-1h2v1h-1v1h-1v1h-1v-1h-1V101z"/>
<path fill="#D89870" d="M5,102h1v1H5V102z"/>
<path fill="#784040" d="M10,102h1v1h-1V102z"/>
<path fill="#D89870" d="M28,102h1v1h-1V102z"/>
<path fill="#784040" d="M33,102h1v1h-1V102z"/>
<path fill="#D89870" d="M51,102h1v1h-1V102z"/>
<path fill="#784040" d="M56,102h1v1h-1V102z"/>
<path fill="#D89870" d="M74,102h1v1h-1V102z"/>
<path fill="#784040" d="M79,102h1v1h-1V102z"/>
<path fill="#784040" d="M6,103h1v1H6V103z"/>
<path fill="#784040" d="M12,103h1v1h-1V103z"/>
<path fill="#030303" d="M19,103h1v2h-1V103z"/>
<path fill="#784040" d="M29,103h1v1h-1V103z"/>
<path fill="#784040" d="M35,103h1v1h-1V103z"/>
<path fill="#030303" d="M42,103h1v2h-1V103z"/>
<path fill="#784040" d="M52,103h1v1h-1V103z"/>
<path fill="#784040" d="M58,103h1v1h-1V103z"/>
<path fill="#030303" d="M65,103h1v2h-1V103z"/>
<path fill="#784040" d="M75,103h1v1h-1V103z"/>
<path fill="#784040" d="M81,103h1v1h-1V103z"/>
<path fill="#030303" d="M88,103h1v2h-1V103z"/>
<path fill="#784040" d="M7,104h3v1H7V104z"/>
<path fill="#030303" d="M11,104h2v1h-2V104z"/>
<path fill="#784050" d="M18,104h1v1h-1V104z"/>
<path fill="#784040" d="M30,104h3v1h-3V104z"/>
<path fill="#030303" d="M34,104h2v1h-2V104z"/>
<path fill="#784050" d="M41,104h1v1h-1V104z"/>
<path fill="#784040" d="M53,104h3v1h-3V104z"/>
<path fill="#030303" d="M57,104h2v1h-2V104z"/>
<path fill="#784050" d="M64,104h1v1h-1V104z"/>
<path fill="#784040" d="M76,104h3v1h-3V104z"/>
<path fill="#030303" d="M80,104h2v1h-2V104z"/>
<path fill="#784050" d="M87,104h1v1h-1V104z"/>
<path fill="#483858" d="M8,105h1v1H8V105z"/>
<path fill="#B0B0B8" d="M9,105h1v1H9V105z"/>
<path fill="#483858" d="M10,105h2v1h-2V105z"/>
<path fill="#B0B0B8" d="M12,105h1v1h-1V105z"/>
<path fill="#030303" d="M13,105h1v1h-1V105z"/>
<path fill="#030303" d="M17,105h2v1h-2V105z"/>
<path fill="#483858" d="M31,105h1v1h-1V105z"/>
<path fill="#B0B0B8" d="M32,105h2v1h-2V105z"/>
<path fill="#483858" d="M34,105h2v1h-2V105z"/>
<path fill="#030303" d="M36,105h1v1h3v1h-2v1h-1v1h-1V105z"/>
<path fill="#030303" d="M40,105h2v1h-2V105z"/>
<path fill="#483858" d="M54,105h1v1h-1V105z"/>
<path fill="#B0B0B8" d="M55,105h2v1h-2V105z"/>
<path fill="#483858" d="M57,105h2v1h-2V105z"/>
<path fill="#030303" d="M59,105h1v1h3v1h-2v1h-1v-1h-1V105z"/>
<path fill="#030303" d="M63,105h2v1h-2V105z"/>
<path fill="#483858" d="M77,105h1v1h-1V105z"/>
<path fill="#B0B0B8" d="M78,105h2v1h-2V105z"/>
<path fill="#483858" d="M80,105h2v1h-2V105z"/>
<path fill="#030303" d="M82,105h1v1h3v1h-2v1h-1v1h-1V105z"/>
<path fill="#030303" d="M86,105h2v1h-2V105z"/>
<path fill="#483858" d="M7,106h1v4H7V106z"/>
<path fill="#785890" d="M8,106h1v1H8V106z"/>
<path fill="#483858" d="M9,106h1v2H9V106z"/>
<path fill="#F8D0B8" d="M10,106h2v2h-1v-1h-1V106z"/>
<path fill="#030303" d="M12,106h1v3h-1V106z"/>
<path fill="#785890" d="M13,106h1v1h-1V106z"/>
<path fill="#030303" d="M14,106h3v1h-2v1h-1V106z"/>
<path fill="#483858" d="M30,106h1v4h-1V106z"/>
<path fill="#785890" d="M31,106h1v1h-1V106z"/>
<path fill="#A078C8" d="M32,106h1v2h-2v-1h1V106z"/>
<path fill="#483858" d="M33,106h1v2h-1V106z"/>
<path fill="#F8D0B8" d="M34,106h2v2h-1v-1h-1V106z"/>
<path fill="#483858" d="M53,106h1v4h-1V106z"/>
<path fill="#785890" d="M54,106h1v1h-1V106z"/>
<path fill="#A078C8" d="M55,106h1v3h-2v-2h1V106z"/>
<path fill="#483858" d="M56,106h1v2h-1V106z"/>
<path fill="#F8D0B8" d="M57,106h2v2h1v1h-2v-2h-1V106z"/>
<path fill="#483858" d="M76,106h1v4h-1V106z"/>
<path fill="#785890" d="M77,106h1v1h-1V106z"/>
<path fill="#A078C8" d="M78,106h1v2h-2v-1h1V106z"/>
<path fill="#483858" d="M79,106h1v2h-1V106z"/>
<path fill="#F8D0B8" d="M80,106h2v2h-1v-1h-1V106z"/>
<path fill="#A078C8" d="M8,107h1v1H8V107z"/>
<path fill="#D89870" d="M10,107h1v1h-1V107z"/>
<path fill="#A078C8" d="M13,107h1v1h-1V107z"/>
<path fill="#D89870" d="M34,107h1v1h-1V107z"/>
<path fill="#D89870" d="M57,107h1v1h-1V107z"/>
<path fill="#784040" d="M59,107h1v1h-1V107z"/>
<path fill="#D89870" d="M80,107h1v1h-1V107z"/>
<path fill="#784040" d="M8,108h1v2H8V108z"/>
<path fill="#F8D0B8" d="M9,108h2v1H9V108z"/>
<path fill="#D89870" d="M11,108h1v1h-1V108z"/>
<path fill="#E090A8" d="M13,108h1v1h1v1h-1v1h-1v-1h-1v-1h1V108z"/>
<path fill="#B05870" d="M14,108h1v1h-1V108z"/>
<path fill="#030303" d="M15,108h1v2h-1V108z"/>
<path fill="#784050" d="M31,108h1v1h-1V108z"/>
<path fill="#784040" d="M32,108h1v2h-1V108z"/>
<path fill="#F8D0B8" d="M33,108h2v1h-2V108z"/>
<path fill="#D89870" d="M35,108h1v1h-1V108z"/>
<path fill="#B05870" d="M37,108h1v2h-1v1h-2v-1h1v-1h1V108z"/>
<path fill="#030303" d="M38,108h1v2h-1V108z"/>
<path fill="#B05870" d="M56,108h1v1h-1V108z"/>
<path fill="#784040" d="M57,108h1v2h-1V108z"/>
<path fill="#B05870" d="M60,108h1v2h-1V108z"/>
<path fill="#030303" d="M61,108h1v2h-1V108z"/>
<path fill="#784050" d="M77,108h1v1h-1V108z"/>
<path fill="#784040" d="M78,108h1v2h-1V108z"/>
<path fill="#F8D0B8" d="M79,108h2v1h-2V108z"/>
<path fill="#D89870" d="M81,108h1v1h-1V108z"/>
<path fill="#B05870" d="M83,108h1v2h-1v1h-2v-1h1v-1h1V108z"/>
<path fill="#030303" d="M84,108h1v2h-1V108z"/>
<path fill="#D89870" d="M9,109h2v1H9V109z"/>
<path fill="#030303" d="M11,109h1v1h-1V109z"/>
<path fill="#E090A8" d="M31,109h1v1h-1V109z"/>
<path fill="#D89870" d="M33,109h2v1h-2V109z"/>
<path fill="#030303" d="M35,109h1v1h-1V109z"/>
<path fill="#B05870" d="M54,109h2v1h-2V109z"/>
<path fill="#E090A8" d="M56,109h1v1h1v1h-1v1h-1v-1h-1v-1h1V109z"/>
<path fill="#D89870" d="M58,109h2v1h-2V109z"/>
<path fill="#E090A8" d="M77,109h1v1h-1V109z"/>
<path fill="#D89870" d="M79,109h2v1h-2V109z"/>
<path fill="#030303" d="M81,109h1v1h-1V109z"/>
<path fill="#030303" d="M5,110h1v2H5V110z"/>
<path fill="#A08058" d="M6,110h1v1h1v1H6V110z"/>
<path fill="#D89870" d="M7,110h1v1H7V110z"/>
<path fill="#B05870" d="M8,110h1v1H8V110z"/>
<path fill="#030303" d="M9,110h2v1h2v1H8v-1h1V110z"/>
<path fill="#B05870" d="M11,110h2v1h-2V110z"/>
<path fill="#784050" d="M14,110h2v1h-2V110z"/>
<path fill="#030303" d="M31,110h1v1h-1V110z"/>
<path fill="#E090A8" d="M32,110h1v1h-1V110z"/>
<path fill="#030303" d="M33,110h2v1h-2V110z"/>
<path fill="#030303" d="M37,110h1v1h-1V110z"/>
<path fill="#030303" d="M53,110h2v1h-2V110z"/>
<path fill="#030303" d="M58,110h2v1h-2V110z"/>
<path fill="#784050" d="M60,110h1v1h-1V110z"/>
<path fill="#A08058" d="M61,110h1v3h-2v-1h1V110z"/>
<path fill="#030303" d="M62,110h1v3h-1V110z"/>
<path fill="#030303" d="M77,110h1v1h-1V110z"/>
<path fill="#E090A8" d="M78,110h1v1h-1V110z"/>
<path fill="#030303" d="M79,110h2v1h-2V110z"/>
<path fill="#030303" d="M83,110h1v1h-1V110z"/>
<path fill="#D89870" d="M13,111h2v1h-2V111z"/>
<path fill="#E0C070" d="M15,111h1v2h-2v-1h1V111z"/>
<path fill="#030303" d="M16,111h1v2h-1V111z"/>
<path fill="#030303" d="M32,111h1v1h-1V111z"/>
<path fill="#E0C070" d="M33,111h3v1h-3V111z"/>
<path fill="#030303" d="M36,111h1v1h-1V111z"/>
<path fill="#E0C070" d="M52,111h2v1h2v1h-3v-1h-1V111z"/>
<path fill="#A08058" d="M54,111h1v1h-1V111z"/>
<path fill="#030303" d="M55,111h1v1h-1V111z"/>
<path fill="#B05870" d="M57,111h3v1h-3V111z"/>
<path fill="#030303" d="M60,111h1v1h-1V111z"/>
<path fill="#030303" d="M78,111h1v1h-1V111z"/>
<path fill="#E0C070" d="M79,111h3v1h-3V111z"/>
<path fill="#030303" d="M82,111h1v1h-1V111z"/>
<path fill="#030303" d="M6,112h2v1H6V112z"/>
<path fill="#030303" d="M13,112h1v1h-1V112z"/>
<path fill="#030303" d="M33,112h3v1h-3V112z"/>
<path fill="#030303" d="M52,112h1v1h-1V112z"/>
<path fill="#030303" d="M56,112h2v1h-2V112z"/>
<path fill="#030303" d="M59,112h1v1h-1V112z"/>
<path fill="#030303" d="M79,112h3v1h-3V112z"/>
<path fill="#030303" d="M14,113h2v1h-2V113z"/>
<path fill="#030303" d="M53,113h3v1h-3V113z"/>
<path fill="#030303" d="M60,113h2v1h-2V113z"/>
</svg>
