<?xml version="1.0" encoding="utf-8"?>
<!-- Generator: Adobe Illustrator 16.0.4, SVG Export Plug-In . SVG Version: 6.00 Build 0)  -->
<!DOCTYPE svg PUBLIC "-//W3C//DTD SVG 1.1//EN" "http://www.w3.org/Graphics/SVG/1.1/DTD/svg11.dtd">
<svg version="1.1" id="Layer_1" xmlns="http://www.w3.org/2000/svg" xmlns:xlink="http://www.w3.org/1999/xlink" x="0px" y="0px"
	 width="92px" height="116px" viewBox="0 0 92 116" enable-background="new 0 0 92 116" xml:space="preserve">
<path fill="#383030" d="M9,2h5v1H9V2z"/>
<path fill="#383030" d="M32,2h5v1h-5V2z"/>
<path fill="#383030" d="M55,2h5v1h-5V2z"/>
<path fill="#383030" d="M78,2h5v1h-5V2z"/>
<path fill="#383030" d="M7,3h2v1H7V3z"/>
<path fill="#605038" d="M9,3h5v1h2v1h1v2h1v1h-1v1h-1V8h-1V7h-2V6h-3v1H8v1H7v1H6V8H5V7h1V5h1V4h2V3z"/>
<path fill="#383030" d="M14,3h2v1h-2V3z"/>
<path fill="#383030" d="M30,3h2v1h-2V3z"/>
<path fill="#605038" d="M32,3h5v1h2v1h1v2h1v1h-1v1h-1V8h-1V7h-2V6h-3v1h-2v1h-1v1h-1V8h-1V7h1V5h1V4h2V3z"/>
<path fill="#383030" d="M37,3h2v1h-2V3z"/>
<path fill="#383030" d="M53,3h2v1h-2V3z"/>
<path fill="#605038" d="M55,3h5v1h2v1h1v2h1v1h-1v1h-1V8h-1V7h-2V6h-3v1h-2v1h-1v1h-1V8h-1V7h1V5h1V4h2V3z"/>
<path fill="#383030" d="M60,3h2v1h-2V3z"/>
<path fill="#383030" d="M76,3h2v1h-2V3z"/>
<path fill="#605038" d="M78,3h5v1h2v1h1v2h1v1h-1v1h-1V8h-1V7h-2V6h-3v1h-2v1h-1v1h-1V8h-1V7h1V5h1V4h2V3z"/>
<path fill="#383030" d="M83,3h2v1h-2V3z"/>
<path fill="#383030" d="M6,4h1v1H6V4z"/>
<path fill="#383030" d="M16,4h1v1h-1V4z"/>
<path fill="#383030" d="M29,4h1v1h-1V4z"/>
<path fill="#383030" d="M39,4h1v1h-1V4z"/>
<path fill="#383030" d="M52,4h1v1h-1V4z"/>
<path fill="#383030" d="M62,4h1v1h-1V4z"/>
<path fill="#383030" d="M75,4h1v1h-1V4z"/>
<path fill="#383030" d="M85,4h1v1h-1V4z"/>
<path fill="#383030" d="M5,5h1v2H5V5z"/>
<path fill="#312820" d="M17,5h1v1h-1V5z"/>
<path fill="#383030" d="M28,5h1v2h-1V5z"/>
<path fill="#383030" d="M40,5h1v2h-1V5z"/>
<path fill="#383030" d="M51,5h1v2h-1V5z"/>
<path fill="#312820" d="M63,5h1v1h-1V5z"/>
<path fill="#383030" d="M74,5h1v2h-1V5z"/>
<path fill="#383030" d="M86,5h1v2h-1V5z"/>
<path fill="#383030" d="M10,6h3v1h-3V6z"/>
<path fill="#383030" d="M17,6h1v1h-1V6z"/>
<path fill="#383030" d="M33,6h3v1h-3V6z"/>
<path fill="#383030" d="M56,6h3v1h-3V6z"/>
<path fill="#383030" d="M63,6h1v1h-1V6z"/>
<path fill="#383030" d="M79,6h3v1h-3V6z"/>
<path fill="#020202" d="M4,7h1v1H4V7z"/>
<path fill="#383030" d="M8,7h2v1H8V7z"/>
<path fill="#605038" d="M10,7h3v1h2v2h-1V9h-1v1h-3V9H9v1H8V8h2V7z"/>
<path fill="#383030" d="M13,7h2v1h-2V7z"/>
<path fill="#010101" d="M18,7h1v2h1v1h-2V7z"/>
<path fill="#010101" d="M27,7h1v2h-1V7z"/>
<path fill="#383030" d="M31,7h2v1h-2V7z"/>
<path fill="#605038" d="M33,7h3v1h2v2h-1V9h-1v1h-3V9h-1v1h-1V8h2V7z"/>
<path fill="#383030" d="M36,7h2v1h-2V7z"/>
<path fill="#010101" d="M41,7h1v2h1v1h-2V7z"/>
<path fill="#020202" d="M50,7h1v1h-1V7z"/>
<path fill="#383030" d="M54,7h2v1h-2V7z"/>
<path fill="#605038" d="M56,7h3v1h2v2h-1V9h-1v1h-3V9h-1v1h-1V8h2V7z"/>
<path fill="#383030" d="M59,7h2v1h-2V7z"/>
<path fill="#010101" d="M64,7h1v2h1v1h-2V7z"/>
<path fill="#010101" d="M73,7h1v3h-2V9h1V7z"/>
<path fill="#383030" d="M77,7h2v1h-2V7z"/>
<path fill="#605038" d="M79,7h3v1h2v2h-1V9h-1v1h-3V9h-1v1h-1V8h2V7z"/>
<path fill="#383030" d="M82,7h2v1h-2V7z"/>
<path fill="#010101" d="M87,7h1v2h-1V7z"/>
<path fill="#010101" d="M4,8h1v2H3V9h1V8z"/>
<path fill="#383030" d="M5,8h1v1h1V8h1v2h1v1H7v1H6v-1H5V8z"/>
<path fill="#383030" d="M15,8h1v1h1V8h1v3h-1v1h-1v-1h-2v-1h1V8z"/>
<path fill="#383030" d="M28,8h1v1h1V8h1v2h1v1h-2v1h-1v-1h-1V8z"/>
<path fill="#383030" d="M38,8h1v1h1V8h1v3h-1v1h-1v-1h-2v-1h1V8z"/>
<path fill="#010101" d="M50,8h1v2h-2V9h1V8z"/>
<path fill="#383030" d="M51,8h1v1h1V8h1v2h1v1h-2v1h-1v-1h-1V8z"/>
<path fill="#383030" d="M61,8h1v1h1V8h1v3h-1v1h-1v-1h-2v-1h1V8z"/>
<path fill="#383030" d="M74,8h1v1h1V8h1v2h1v1h-2v1h-1v-1h-1V8z"/>
<path fill="#383030" d="M84,8h1v1h1V8h1v3h-1v1h-1v-1h-2v-1h1V8z"/>
<path fill="#383030" d="M9,9h1v1H9V9z"/>
<path fill="#383030" d="M13,9h1v1h-1V9z"/>
<path fill="#010101" d="M26,9h1v1h-1V9z"/>
<path fill="#020202" d="M27,9h1v1h-1V9z"/>
<path fill="#383030" d="M32,9h1v1h-1V9z"/>
<path fill="#383030" d="M36,9h1v1h-1V9z"/>
<path fill="#383030" d="M55,9h1v1h-1V9z"/>
<path fill="#383030" d="M59,9h1v1h-1V9z"/>
<path fill="#383030" d="M78,9h1v1h-1V9z"/>
<path fill="#383030" d="M82,9h1v1h-1V9z"/>
<path fill="#020202" d="M87,9h1v1h-1V9z"/>
<path fill="#010101" d="M88,9h1v1h-1V9z"/>
<path fill="#010101" d="M2,10h1v2H2V10z"/>
<path fill="#383030" d="M3,10h1v1H3V10z"/>
<path fill="#605038" d="M4,10h1v1h1v1h1v1H6v1H5v-1H4v-1H3v-1h1V10z"/>
<path fill="#605038" d="M9,10h1v1H9V10z"/>
<path fill="#383030" d="M10,10h3v1h-3V10z"/>
<path fill="#605038" d="M13,10h1v1h-1V10z"/>
<path fill="#605038" d="M18,10h1v1h1v1h-1v1h-1v1h-1v-1h-1v-1h1v-1h1V10z"/>
<path fill="#383030" d="M19,10h1v1h-1V10z"/>
<path fill="#020202" d="M20,10h1v1h-1V10z"/>
<path fill="#020202" d="M25,10h1v1h-1V10z"/>
<path fill="#383030" d="M26,10h1v1h-1V10z"/>
<path fill="#605038" d="M27,10h1v1h1v1h1v1h-1v1h-1v-1h-1v-1h-1v-1h1V10z"/>
<path fill="#605038" d="M32,10h1v1h-1V10z"/>
<path fill="#383030" d="M33,10h3v1h-3V10z"/>
<path fill="#605038" d="M36,10h1v1h-1V10z"/>
<path fill="#605038" d="M41,10h1v1h1v1h-1v1h-1v1h-1v-1h-1v-1h1v-1h1V10z"/>
<path fill="#383030" d="M42,10h1v1h-1V10z"/>
<path fill="#010101" d="M43,10h1v3h-1V10z"/>
<path fill="#010101" d="M48,10h1v2h-1V10z"/>
<path fill="#383030" d="M49,10h1v1h-1V10z"/>
<path fill="#605038" d="M50,10h1v1h1v1h1v1h-1v1h-1v-1h-1v-1h-1v-1h1V10z"/>
<path fill="#605038" d="M55,10h1v1h-1V10z"/>
<path fill="#383030" d="M56,10h3v1h-3V10z"/>
<path fill="#605038" d="M59,10h1v1h-1V10z"/>
<path fill="#605038" d="M64,10h1v1h1v1h-1v1h-1v1h-1v-1h-1v-1h1v-1h1V10z"/>
<path fill="#383030" d="M65,10h1v1h-1V10z"/>
<path fill="#020202" d="M66,10h1v1h-1V10z"/>
<path fill="#010101" d="M71,10h1v3h-1V10z"/>
<path fill="#383030" d="M72,10h1v1h-1V10z"/>
<path fill="#605038" d="M73,10h1v1h1v1h1v1h-1v1h-1v-1h-1v-1h-1v-1h1V10z"/>
<path fill="#605038" d="M78,10h1v1h-1V10z"/>
<path fill="#383030" d="M79,10h3v1h-3V10z"/>
<path fill="#605038" d="M82,10h1v1h-1V10z"/>
<path fill="#605038" d="M87,10h1v1h1v1h-1v1h-1v1h-1v-1h-1v-1h1v-1h1V10z"/>
<path fill="#383030" d="M88,10h1v1h-1V10z"/>
<path fill="#020202" d="M89,10h1v1h-1V10z"/>
<path fill="#605038" d="M7,11h1v1H7V11z"/>
<path fill="#F8D0B8" d="M8,11h7v1h-1v1h-1v2h2v1h-1v1h-2v-1h-1v1H9v-1H8v-1h2v-2H9v-1H8V11z"/>
<path fill="#605038" d="M15,11h1v1h-1V11z"/>
<path fill="#010101" d="M20,11h1v2h-1V11z"/>
<path fill="#010101" d="M25,11h1v2h-1V11z"/>
<path fill="#605038" d="M30,11h1v1h-1V11z"/>
<path fill="#F8D0B8" d="M31,11h7v1h-1v1h-1v2h2v1h-1v1h-2v-1h-1v1h-2v-1h-1v-1h2v-2h-1v-1h-1V11z"/>
<path fill="#605038" d="M38,11h1v1h-1V11z"/>
<path fill="#605038" d="M53,11h1v1h-1V11z"/>
<path fill="#F8D0B8" d="M54,11h7v1h-1v1h-1v2h2v1h-1v1h-2v-1h-1v1h-2v-1h-1v-1h2v-2h-1v-1h-1V11z"/>
<path fill="#605038" d="M61,11h1v1h-1V11z"/>
<path fill="#010101" d="M66,11h1v2h-1V11z"/>
<path fill="#605038" d="M76,11h1v1h-1V11z"/>
<path fill="#F8D0B8" d="M77,11h7v1h-1v1h-1v2h2v1h-1v1h-2v-1h-1v1h-2v-1h-1v-1h2v-2h-1v-1h-1V11z"/>
<path fill="#605038" d="M84,11h1v1h-1V11z"/>
<path fill="#010101" d="M89,11h1v2h-1V11z"/>
<path fill="#020202" d="M2,12h1v1H2V12z"/>
<path fill="#383030" d="M3,12h1v1H3V12z"/>
<path fill="#F8D0B8" d="M7,12h1v2H7V12z"/>
<path fill="#D89870" d="M8,12h1v1H8V12z"/>
<path fill="#D89870" d="M14,12h1v1h-1V12z"/>
<path fill="#F8D0B8" d="M15,12h1v2h-1V12z"/>
<path fill="#383030" d="M19,12h1v1h-1V12z"/>
<path fill="#383030" d="M26,12h1v1h-1V12z"/>
<path fill="#F8D0B8" d="M30,12h1v2h-1V12z"/>
<path fill="#D89870" d="M31,12h1v1h-1V12z"/>
<path fill="#D89870" d="M37,12h1v1h-1V12z"/>
<path fill="#F8D0B8" d="M38,12h1v2h-1V12z"/>
<path fill="#383030" d="M42,12h1v1h-1V12z"/>
<path fill="#020202" d="M48,12h1v1h-1V12z"/>
<path fill="#383030" d="M49,12h1v1h-1V12z"/>
<path fill="#F8D0B8" d="M53,12h1v2h-1V12z"/>
<path fill="#D89870" d="M54,12h1v1h-1V12z"/>
<path fill="#D89870" d="M60,12h1v1h-1V12z"/>
<path fill="#F8D0B8" d="M61,12h1v2h-1V12z"/>
<path fill="#383030" d="M65,12h1v1h-1V12z"/>
<path fill="#383030" d="M72,12h1v1h-1V12z"/>
<path fill="#F8D0B8" d="M76,12h1v2h-1V12z"/>
<path fill="#D89870" d="M77,12h1v1h-1V12z"/>
<path fill="#D89870" d="M83,12h1v1h-1V12z"/>
<path fill="#F8D0B8" d="M84,12h1v2h-1V12z"/>
<path fill="#383030" d="M88,12h1v1h-1V12z"/>
<path fill="#010101" d="M3,13h1v2H3V13z"/>
<path fill="#383030" d="M4,13h1v1h1v1H4V13z"/>
<path fill="#D89870" d="M6,13h1v1h1v2H7v-1H6V13z"/>
<path fill="#A8A0C8" d="M8,13h1v1H8V13z"/>
<path fill="#605038" d="M9,13h1v1H9V13z"/>
<path fill="#605038" d="M13,13h1v1h-1V13z"/>
<path fill="#A8A0C8" d="M14,13h1v1h-1V13z"/>
<path fill="#D89870" d="M16,13h1v2h-1v1h-1v-2h1V13z"/>
<path fill="#383030" d="M18,13h1v2h-2v-1h1V13z"/>
<path fill="#010101" d="M19,13h1v2h-1V13z"/>
<path fill="#020202" d="M26,13h1v2h-1V13z"/>
<path fill="#383030" d="M27,13h1v1h1v1h-2V13z"/>
<path fill="#D89870" d="M29,13h1v1h1v2h-1v-1h-1V13z"/>
<path fill="#A8A0C8" d="M31,13h1v1h-1V13z"/>
<path fill="#605038" d="M32,13h1v1h-1V13z"/>
<path fill="#605038" d="M36,13h1v1h-1V13z"/>
<path fill="#A8A0C8" d="M37,13h1v1h-1V13z"/>
<path fill="#D89870" d="M39,13h1v2h-1v1h-1v-2h1V13z"/>
<path fill="#383030" d="M41,13h1v2h-2v-1h1V13z"/>
<path fill="#010101" d="M42,13h1v2h-1V13z"/>
<path fill="#010101" d="M49,13h1v2h-1V13z"/>
<path fill="#383030" d="M50,13h1v1h1v1h-2V13z"/>
<path fill="#D89870" d="M52,13h1v1h1v2h-1v-1h-1V13z"/>
<path fill="#A8A0C8" d="M54,13h1v1h-1V13z"/>
<path fill="#605038" d="M55,13h1v1h-1V13z"/>
<path fill="#605038" d="M59,13h1v1h-1V13z"/>
<path fill="#A8A0C8" d="M60,13h1v1h-1V13z"/>
<path fill="#D89870" d="M62,13h1v2h-1v1h-1v-2h1V13z"/>
<path fill="#383030" d="M64,13h1v2h-2v-1h1V13z"/>
<path fill="#010101" d="M65,13h1v2h-1V13z"/>
<path fill="#010101" d="M72,13h1v2h-1V13z"/>
<path fill="#383030" d="M73,13h1v1h1v1h-2V13z"/>
<path fill="#D89870" d="M75,13h1v1h1v2h-1v-1h-1V13z"/>
<path fill="#A8A0C8" d="M77,13h1v1h-1V13z"/>
<path fill="#605038" d="M78,13h1v1h-1V13z"/>
<path fill="#605038" d="M82,13h1v1h-1V13z"/>
<path fill="#A8A0C8" d="M83,13h1v1h-1V13z"/>
<path fill="#D89870" d="M85,13h1v2h-1v1h-1v-2h1V13z"/>
<path fill="#383030" d="M87,13h1v2h-2v-1h1V13z"/>
<path fill="#020202" d="M88,13h1v2h-1V13z"/>
<path fill="#E8E8F2" d="M8,14h1v1H8V14z"/>
<path fill="#010101" d="M9,14h1v1H9V14z"/>
<path fill="#010101" d="M13,14h1v1h-1V14z"/>
<path fill="#E8E8F2" d="M14,14h1v1h-1V14z"/>
<path fill="#E8E8F2" d="M31,14h1v1h-1V14z"/>
<path fill="#010101" d="M32,14h1v1h-1V14z"/>
<path fill="#010101" d="M36,14h1v1h-1V14z"/>
<path fill="#E8E8F2" d="M37,14h1v1h-1V14z"/>
<path fill="#E8E8F2" d="M54,14h1v1h-1V14z"/>
<path fill="#010101" d="M55,14h1v1h-1V14z"/>
<path fill="#010101" d="M59,14h1v1h-1V14z"/>
<path fill="#E8E8F2" d="M60,14h1v1h-1V14z"/>
<path fill="#E8E8F2" d="M77,14h1v1h-1V14z"/>
<path fill="#010101" d="M78,14h1v1h-1V14z"/>
<path fill="#010101" d="M82,14h1v1h-1V14z"/>
<path fill="#E8E8F2" d="M83,14h1v1h-1V14z"/>
<path fill="#010101" d="M4,15h2v1H4V15z"/>
<path fill="#784040" d="M6,15h1v1H6V15z"/>
<path fill="#784040" d="M16,15h1v1h-1V15z"/>
<path fill="#010101" d="M17,15h2v1h-2V15z"/>
<path fill="#020202" d="M27,15h1v1h-1V15z"/>
<path fill="#010101" d="M28,15h1v1h-1V15z"/>
<path fill="#784040" d="M29,15h1v1h-1V15z"/>
<path fill="#784040" d="M39,15h1v1h-1V15z"/>
<path fill="#010101" d="M40,15h1v1h-1V15z"/>
<path fill="#020202" d="M41,15h1v1h-1V15z"/>
<path fill="#010101" d="M50,15h2v1h-2V15z"/>
<path fill="#784040" d="M52,15h1v1h-1V15z"/>
<path fill="#784040" d="M62,15h1v1h-1V15z"/>
<path fill="#010101" d="M63,15h2v1h-2V15z"/>
<path fill="#020202" d="M73,15h1v1h-1V15z"/>
<path fill="#010101" d="M74,15h1v1h-1V15z"/>
<path fill="#784040" d="M75,15h1v1h-1V15z"/>
<path fill="#784040" d="M85,15h1v1h-1V15z"/>
<path fill="#010101" d="M86,15h1v1h-1V15z"/>
<path fill="#020202" d="M87,15h1v1h-1V15z"/>
<path fill="#010101" d="M6,16h1v2H6V16z"/>
<path fill="#784040" d="M7,16h1v1H7V16z"/>
<path fill="#D89870" d="M8,16h1v1H8V16z"/>
<path fill="#D89870" d="M11,16h1v1h1v1h-3v-1h1V16z"/>
<path fill="#D89870" d="M14,16h1v1h-1V16z"/>
<path fill="#784040" d="M15,16h1v1h-1V16z"/>
<path fill="#020202" d="M16,16h1v1h-1V16z"/>
<path fill="#010101" d="M29,16h1v1h-1V16z"/>
<path fill="#784040" d="M30,16h1v1h-1V16z"/>
<path fill="#D89870" d="M31,16h1v1h-1V16z"/>
<path fill="#D89870" d="M34,16h1v1h1v1h-3v-1h1V16z"/>
<path fill="#D89870" d="M37,16h1v1h-1V16z"/>
<path fill="#784040" d="M38,16h1v1h-1V16z"/>
<path fill="#010101" d="M39,16h1v1h-1V16z"/>
<path fill="#010101" d="M52,16h1v2h-1V16z"/>
<path fill="#784040" d="M53,16h1v1h-1V16z"/>
<path fill="#D89870" d="M54,16h1v1h-1V16z"/>
<path fill="#D89870" d="M57,16h1v1h1v1h-3v-1h1V16z"/>
<path fill="#D89870" d="M60,16h1v1h-1V16z"/>
<path fill="#784040" d="M61,16h1v1h-1V16z"/>
<path fill="#020202" d="M62,16h1v1h-1V16z"/>
<path fill="#010101" d="M75,16h1v1h-1V16z"/>
<path fill="#784040" d="M76,16h1v1h-1V16z"/>
<path fill="#D89870" d="M77,16h1v1h-1V16z"/>
<path fill="#D89870" d="M80,16h1v1h1v1h-3v-1h1V16z"/>
<path fill="#D89870" d="M83,16h1v1h-1V16z"/>
<path fill="#784040" d="M84,16h1v1h-1V16z"/>
<path fill="#010101" d="M85,16h1v1h-1V16z"/>
<path fill="#751D1D" d="M7,17h1v2H7V17z"/>
<path fill="#010101" d="M8,17h2v1H8V17z"/>
<path fill="#010101" d="M13,17h2v1h-2V17z"/>
<path fill="#751D1D" d="M15,17h1v2h-1V17z"/>
<path fill="#010101" d="M16,17h1v1h-1V17z"/>
<path fill="#010101" d="M27,17h2v1h-2V17z"/>
<path fill="#751D1D" d="M29,17h2v2h-2v1h-1v-2h1V17z"/>
<path fill="#020202" d="M31,17h1v1h-1V17z"/>
<path fill="#572F2F" d="M32,17h1v1h-1V17z"/>
<path fill="#010101" d="M36,17h2v1h-2V17z"/>
<path fill="#C43F3F" d="M38,17h1v1h1v2h-2V17z"/>
<path fill="#784040" d="M39,17h1v1h-1V17z"/>
<path fill="#751D1D" d="M53,17h1v2h-1V17z"/>
<path fill="#010101" d="M54,17h2v1h-2V17z"/>
<path fill="#010101" d="M59,17h2v1h-2V17z"/>
<path fill="#751D1D" d="M61,17h1v2h-1V17z"/>
<path fill="#010101" d="M62,17h1v1h-1V17z"/>
<path fill="#784040" d="M75,17h1v1h-1V17z"/>
<path fill="#C43F3F" d="M76,17h1v3h-2v-2h1V17z"/>
<path fill="#010101" d="M77,17h2v1h-2V17z"/>
<path fill="#572F2F" d="M82,17h1v1h-1V17z"/>
<path fill="#020202" d="M83,17h1v1h-1V17z"/>
<path fill="#751D1D" d="M84,17h2v1h1v2h-1v-1h-2V17z"/>
<path fill="#010101" d="M86,17h2v1h-2V17z"/>
<path fill="#010101" d="M5,18h1v1H5V18z"/>
<path fill="#C43F3F" d="M6,18h1v2H6V18z"/>
<path fill="#B0B0D0" d="M8,18h1v1H8V18z"/>
<path fill="#751D1D" d="M9,18h1v2H9V18z"/>
<path fill="#010101" d="M10,18h3v1h-3V18z"/>
<path fill="#751D1D" d="M13,18h1v2h-1V18z"/>
<path fill="#B0B0D0" d="M14,18h1v1h-1V18z"/>
<path fill="#C43F3F" d="M16,18h1v2h-1V18z"/>
<path fill="#010101" d="M17,18h1v1h-1V18z"/>
<path fill="#572F2F" d="M26,18h1v2h-1V18z"/>
<path fill="#D89870" d="M27,18h1v2h-1V18z"/>
<path fill="#AFB0CF" d="M31,18h1v1h-1V18z"/>
<path fill="#751D1D" d="M32,18h1v2h-1V18z"/>
<path fill="#010101" d="M33,18h3v1h-3V18z"/>
<path fill="#751D1D" d="M36,18h1v2h-1V18z"/>
<path fill="#B0B0D0" d="M37,18h1v2h-1V18z"/>
<path fill="#784040" d="M40,18h1v2h-1V18z"/>
<path fill="#010101" d="M51,18h1v1h-1V18z"/>
<path fill="#C43F3F" d="M52,18h1v2h-1V18z"/>
<path fill="#B0B0D0" d="M54,18h1v1h-1V18z"/>
<path fill="#751D1D" d="M55,18h1v2h-1V18z"/>
<path fill="#010101" d="M56,18h3v1h-3V18z"/>
<path fill="#751D1D" d="M59,18h1v2h-1V18z"/>
<path fill="#B0B0D0" d="M60,18h1v1h-1V18z"/>
<path fill="#C43F3F" d="M62,18h1v2h-1V18z"/>
<path fill="#010101" d="M63,18h1v1h-1V18z"/>
<path fill="#784040" d="M74,18h1v2h-1V18z"/>
<path fill="#B0B0D0" d="M77,18h1v2h-1V18z"/>
<path fill="#751D1D" d="M78,18h1v2h-1V18z"/>
<path fill="#010101" d="M79,18h3v1h-3V18z"/>
<path fill="#751D1D" d="M82,18h1v2h-1V18z"/>
<path fill="#AFB0CF" d="M83,18h1v1h-1V18z"/>
<path fill="#D89870" d="M87,18h1v2h-1V18z"/>
<path fill="#572F2F" d="M88,18h1v2h-1V18z"/>
<path fill="#010101" d="M4,19h1v1H4V19z"/>
<path fill="#751D1D" d="M5,19h1v1H5V19z"/>
<path fill="#020202" d="M7,19h1v2H7V19z"/>
<path fill="#E7E8F8" d="M8,19h1v1H8V19z"/>
<path fill="#C43F3F" d="M10,19h3v1h-3V19z"/>
<path fill="#E8E8F8" d="M14,19h1v1h-1V19z"/>
<path fill="#010101" d="M15,19h1v2h-1V19z"/>
<path fill="#751D1D" d="M17,19h1v1h-1V19z"/>
<path fill="#010101" d="M18,19h1v1h-1V19z"/>
<path fill="#010101" d="M29,19h1v1h-1V19z"/>
<path fill="#020202" d="M30,19h1v2h-1V19z"/>
<path fill="#E7E8F8" d="M31,19h1v2h-1V19z"/>
<path fill="#C43F3F" d="M33,19h3v1h-3V19z"/>
<path fill="#010101" d="M50,19h1v1h-1V19z"/>
<path fill="#751D1D" d="M51,19h1v1h-1V19z"/>
<path fill="#020202" d="M53,19h1v2h-1V19z"/>
<path fill="#E7E8F8" d="M54,19h1v1h-1V19z"/>
<path fill="#C43F3F" d="M56,19h3v1h-3V19z"/>
<path fill="#E8E8F8" d="M60,19h1v1h-1V19z"/>
<path fill="#010101" d="M61,19h1v2h-1V19z"/>
<path fill="#751D1D" d="M63,19h1v1h-1V19z"/>
<path fill="#010101" d="M64,19h1v1h-1V19z"/>
<path fill="#C43F3F" d="M79,19h3v1h-3V19z"/>
<path fill="#E7E8F8" d="M83,19h1v2h-1V19z"/>
<path fill="#020202" d="M84,19h1v2h-1V19z"/>
<path fill="#010101" d="M85,19h1v1h-1V19z"/>
<path fill="#784040" d="M3,20h2v1H4v1H3V20z"/>
<path fill="#D89870" d="M5,20h1v1H5V20z"/>
<path fill="#784040" d="M6,20h1v1H6V20z"/>
<path fill="#E8E9F8" d="M8,20h1v1H8V20z"/>
<path fill="#E7E8F8" d="M9,20h1v1H9V20z"/>
<path fill="#751D1D" d="M10,20h3v1h-3V20z"/>
<path fill="#E8E8F8" d="M13,20h1v1h-1V20z"/>
<path fill="#E8E9F8" d="M14,20h1v1h-1V20z"/>
<path fill="#784040" d="M16,20h1v1h-1V20z"/>
<path fill="#D89870" d="M17,20h1v1h-1V20z"/>
<path fill="#784040" d="M18,20h2v2h-1v-1h-1V20z"/>
<path fill="#010101" d="M27,20h2v1h-2V20z"/>
<path fill="#B7B7B7" d="M29,20h1v1h-1V20z"/>
<path fill="#E8E8F8" d="M32,20h1v1h-1V20z"/>
<path fill="#751D1D" d="M33,20h3v1h-3V20z"/>
<path fill="#E8E8F8" d="M36,20h2v1h-2V20z"/>
<path fill="#010101" d="M38,20h1v1h-1V20z"/>
<path fill="#F8D0B8" d="M39,20h2v1h-2V20z"/>
<path fill="#784040" d="M41,20h1v2h-1V20z"/>
<path fill="#784040" d="M49,20h2v1h-1v1h-1V20z"/>
<path fill="#D89870" d="M51,20h1v1h-1V20z"/>
<path fill="#784040" d="M52,20h1v1h-1V20z"/>
<path fill="#E8E9F8" d="M54,20h1v1h-1V20z"/>
<path fill="#E7E8F8" d="M55,20h1v1h-1V20z"/>
<path fill="#751D1D" d="M56,20h3v1h-3V20z"/>
<path fill="#E8E8F8" d="M59,20h1v1h-1V20z"/>
<path fill="#E8E9F8" d="M60,20h1v1h-1V20z"/>
<path fill="#784040" d="M62,20h1v1h-1V20z"/>
<path fill="#D89870" d="M63,20h1v1h-1V20z"/>
<path fill="#784040" d="M64,20h2v2h-1v-1h-1V20z"/>
<path fill="#784040" d="M73,20h1v2h-1V20z"/>
<path fill="#F8D0B8" d="M74,20h2v1h-2V20z"/>
<path fill="#010101" d="M76,20h1v1h-1V20z"/>
<path fill="#E8E8F8" d="M77,20h2v1h-2V20z"/>
<path fill="#751D1D" d="M79,20h3v1h-3V20z"/>
<path fill="#E8E8F8" d="M82,20h1v1h-1V20z"/>
<path fill="#B7B7B7" d="M85,20h1v1h-1V20z"/>
<path fill="#010101" d="M86,20h2v1h-2V20z"/>
<path fill="#F8D0B8" d="M4,21h2v1H4V21z"/>
<path fill="#020202" d="M6,21h1v1H6V21z"/>
<path fill="#B0B0D0" d="M7,21h2v1H7V21z"/>
<path fill="#E8E9F8" d="M9,21h1v1H9V21z"/>
<path fill="#E8E8F8" d="M10,21h3v1h-3V21z"/>
<path fill="#E7E8F8" d="M13,21h1v1h-1V21z"/>
<path fill="#B0B0D0" d="M14,21h1v2h-2v-1h1V21z"/>
<path fill="#AFB0CF" d="M15,21h1v1h-1V21z"/>
<path fill="#020202" d="M16,21h1v2h-1V21z"/>
<path fill="#F8D0B8" d="M17,21h2v1h-2V21z"/>
<path fill="#010101" d="M29,21h1v2h-1V21z"/>
<path fill="#AFB0CF" d="M30,21h2v1h-2V21z"/>
<path fill="#E8E9F8" d="M32,21h2v1h-2V21z"/>
<path fill="#E8E8F8" d="M34,21h1v1h-1V21z"/>
<path fill="#E7E8F8" d="M35,21h1v1h-1V21z"/>
<path fill="#E8E9F8" d="M36,21h1v1h-1V21z"/>
<path fill="#B0B0D0" d="M37,21h1v2h-1V21z"/>
<path fill="#020202" d="M38,21h1v1h-1V21z"/>
<path fill="#D89870" d="M39,21h2v1h-2V21z"/>
<path fill="#F8D0B8" d="M50,21h2v1h-2V21z"/>
<path fill="#020202" d="M52,21h1v1h-1V21z"/>
<path fill="#B0B0D0" d="M53,21h2v1h-2V21z"/>
<path fill="#E8E9F8" d="M55,21h1v1h-1V21z"/>
<path fill="#E8E8F8" d="M56,21h3v1h-3V21z"/>
<path fill="#E7E8F8" d="M59,21h1v1h-1V21z"/>
<path fill="#B0B0D0" d="M60,21h1v2h-2v-1h1V21z"/>
<path fill="#AFB0CF" d="M61,21h1v1h-1V21z"/>
<path fill="#020202" d="M62,21h1v2h-1V21z"/>
<path fill="#F8D0B8" d="M63,21h2v1h-2V21z"/>
<path fill="#D89870" d="M74,21h2v1h-2V21z"/>
<path fill="#020202" d="M76,21h1v1h-1V21z"/>
<path fill="#B0B0D0" d="M77,21h1v2h-1V21z"/>
<path fill="#E8E9F8" d="M78,21h1v1h-1V21z"/>
<path fill="#E7E8F8" d="M79,21h1v1h-1V21z"/>
<path fill="#E8E8F8" d="M80,21h1v1h-1V21z"/>
<path fill="#E8E9F8" d="M81,21h2v1h-2V21z"/>
<path fill="#AFB0CF" d="M83,21h2v1h-2V21z"/>
<path fill="#010101" d="M85,21h1v2h-1V21z"/>
<path fill="#784040" d="M4,22h2v1H4V22z"/>
<path fill="#010101" d="M6,22h1v2H6V22z"/>
<path fill="#68678F" d="M7,22h1v1H7V22z"/>
<path fill="#AFB0CF" d="M8,22h1v1H8V22z"/>
<path fill="#B0B0D0" d="M9,22h3v1h1v1h-3v-1H9V22z"/>
<path fill="#AFAFCF" d="M12,22h1v1h-1V22z"/>
<path fill="#68678F" d="M15,22h1v1h-1V22z"/>
<path fill="#784040" d="M17,22h2v1h-2V22z"/>
<path fill="#686890" d="M30,22h1v1h-1V22z"/>
<path fill="#B0B0D0" d="M31,22h1v1h-1V22z"/>
<path fill="#AFB0D0" d="M32,22h1v1h-1V22z"/>
<path fill="#AFB0CF" d="M33,22h1v2h-1V22z"/>
<path fill="#B0B0D0" d="M34,22h1v1h1v1h-2V22z"/>
<path fill="#AFB0CF" d="M35,22h2v1h-2V22z"/>
<path fill="#68678F" d="M38,22h1v1h-1V22z"/>
<path fill="#010101" d="M39,22h2v1h-2V22z"/>
<path fill="#784040" d="M50,22h2v1h-2V22z"/>
<path fill="#010101" d="M52,22h1v2h-1V22z"/>
<path fill="#68678F" d="M53,22h1v1h-1V22z"/>
<path fill="#AFB0CF" d="M54,22h1v1h-1V22z"/>
<path fill="#B0B0D0" d="M55,22h3v1h1v1h-3v-1h-1V22z"/>
<path fill="#AFAFCF" d="M58,22h1v1h-1V22z"/>
<path fill="#68678F" d="M61,22h1v1h-1V22z"/>
<path fill="#784040" d="M63,22h2v1h-2V22z"/>
<path fill="#010101" d="M74,22h2v1h-2V22z"/>
<path fill="#68678F" d="M76,22h1v1h-1V22z"/>
<path fill="#AFB0CF" d="M78,22h2v1h-2V22z"/>
<path fill="#B0B0D0" d="M80,22h1v2h-2v-1h1V22z"/>
<path fill="#AFB0CF" d="M81,22h1v2h-1V22z"/>
<path fill="#AFB0D0" d="M82,22h1v1h-1V22z"/>
<path fill="#B0B0D0" d="M83,22h1v1h-1V22z"/>
<path fill="#686890" d="M84,22h1v1h-1V22z"/>
<path fill="#60330F" d="M7,23h2v1H7V23z"/>
<path fill="#696890" d="M9,23h1v1H9V23z"/>
<path fill="#686890" d="M13,23h1v1h-1V23z"/>
<path fill="#60330F" d="M14,23h2v1h-2V23z"/>
<path fill="#010101" d="M16,23h1v1h-1V23z"/>
<path fill="#020202" d="M30,23h1v1h-1V23z"/>
<path fill="#60330F" d="M31,23h1v1h-1V23z"/>
<path fill="#686890" d="M32,23h1v1h-1V23z"/>
<path fill="#686890" d="M36,23h1v1h-1V23z"/>
<path fill="#020202" d="M37,23h2v1h-2V23z"/>
<path fill="#60330F" d="M53,23h2v1h-2V23z"/>
<path fill="#696890" d="M55,23h1v1h-1V23z"/>
<path fill="#686890" d="M59,23h1v1h-1V23z"/>
<path fill="#60330F" d="M60,23h2v1h-2V23z"/>
<path fill="#010101" d="M62,23h1v1h-1V23z"/>
<path fill="#020202" d="M76,23h2v1h-2V23z"/>
<path fill="#686890" d="M78,23h1v1h-1V23z"/>
<path fill="#686890" d="M82,23h1v1h-1V23z"/>
<path fill="#60330F" d="M83,23h1v1h-1V23z"/>
<path fill="#020202" d="M84,23h1v1h-1V23z"/>
<path fill="#010101" d="M7,24h1v1H7V24z"/>
<path fill="#751D1D" d="M8,24h2v1H8V24z"/>
<path fill="#010101" d="M10,24h3v1h-3V24z"/>
<path fill="#751D1D" d="M13,24h2v1h-2V24z"/>
<path fill="#010101" d="M15,24h1v1h-1V24z"/>
<path fill="#010101" d="M30,24h1v1h-1V24z"/>
<path fill="#D89870" d="M31,24h1v1h-1V24z"/>
<path fill="#751D1D" d="M32,24h1v1h-1V24z"/>
<path fill="#010101" d="M33,24h4v1h-2v2h-1v-2h-1V24z"/>
<path fill="#010101" d="M53,24h1v1h-1V24z"/>
<path fill="#751D1D" d="M54,24h2v1h-2V24z"/>
<path fill="#010101" d="M56,24h3v1h-3V24z"/>
<path fill="#751D1D" d="M59,24h2v1h-2V24z"/>
<path fill="#010101" d="M61,24h1v1h-1V24z"/>
<path fill="#010101" d="M78,24h4v1h-1v2h-1v-2h-2V24z"/>
<path fill="#751D1D" d="M82,24h1v1h-1V24z"/>
<path fill="#D89870" d="M83,24h1v1h-1V24z"/>
<path fill="#010101" d="M84,24h1v1h-1V24z"/>
<path fill="#010101" d="M8,25h2v1H8V25z"/>
<path fill="#010101" d="M13,25h2v1h-2V25z"/>
<path fill="#010101" d="M31,25h1v1h-1V25z"/>
<path fill="#D89870" d="M32,25h2v1h-2V25z"/>
<path fill="#010101" d="M54,25h2v1h-2V25z"/>
<path fill="#010101" d="M59,25h2v1h-2V25z"/>
<path fill="#D89870" d="M81,25h2v1h-2V25z"/>
<path fill="#010101" d="M83,25h1v1h-1V25z"/>
<path fill="#020202" d="M31,26h1v1h-1V26z"/>
<path fill="#751D1D" d="M32,26h2v1h-2V26z"/>
<path fill="#751D1D" d="M81,26h2v1h-2V26z"/>
<path fill="#020202" d="M83,26h1v1h-1V26z"/>
<path fill="#010101" d="M32,27h1v1h-1V27z"/>
<path fill="#020202" d="M33,27h1v1h-1V27z"/>
<path fill="#020202" d="M81,27h1v1h-1V27z"/>
<path fill="#010101" d="M82,27h1v1h-1V27z"/>
<path fill="#383030" d="M8,31h4v1H8V31z"/>
<path fill="#383030" d="M32,31h4v1h-4V31z"/>
<path fill="#383030" d="M54,31h4v1h-4V31z"/>
<path fill="#383030" d="M78,31h4v1h-4V31z"/>
<path fill="#383030" d="M6,32h2v1H6V32z"/>
<path fill="#605038" d="M8,32h4v1h2v1h1v2h-1v1h-1v1h-1v1h-2v-1H8v-1H6v-1H5v-2h1v-1h2V32z"/>
<path fill="#383030" d="M12,32h2v1h-2V32z"/>
<path fill="#383030" d="M30,32h2v1h-2V32z"/>
<path fill="#605038" d="M32,32h4v1h2v1h1v2h-1v1h-1v1h-1v1h-2v-1h-2v-1h-2v-1h-1v-2h1v-1h2V32z"/>
<path fill="#383030" d="M36,32h2v1h-2V32z"/>
<path fill="#383030" d="M52,32h2v1h-2V32z"/>
<path fill="#605038" d="M54,32h4v1h2v1h1v2h-1v1h-1v1h-1v1h-2v-1h-2v-1h-2v-1h-1v-2h1v-1h2V32z"/>
<path fill="#383030" d="M58,32h2v1h-2V32z"/>
<path fill="#383030" d="M76,32h2v1h-2V32z"/>
<path fill="#605038" d="M78,32h4v1h2v1h1v2h-1v1h-1v1h-1v1h-2v-1h-2v-1h-2v-1h-1v-2h1v-1h2V32z"/>
<path fill="#383030" d="M82,32h2v1h-2V32z"/>
<path fill="#312820" d="M5,33h1v1H5V33z"/>
<path fill="#383030" d="M14,33h1v1h-1V33z"/>
<path fill="#383030" d="M29,33h1v1h-1V33z"/>
<path fill="#383030" d="M38,33h1v1h-1V33z"/>
<path fill="#312820" d="M51,33h1v1h-1V33z"/>
<path fill="#383030" d="M60,33h1v1h-1V33z"/>
<path fill="#383030" d="M75,33h1v1h-1V33z"/>
<path fill="#312820" d="M84,33h1v1h-1V33z"/>
<path fill="#383030" d="M4,34h1v2h1v1h2v1h2v1h2v-1h1v-1h1v2h-1v1h-1v2h-1v2h-1v-1H9v-2H8v-1H5v-1H4V34z"/>
<path fill="#383030" d="M15,34h1v1h2v1h1v3h-1v-2h-1v-1h-1v1h-2v-1h1V34z"/>
<path fill="#312820" d="M28,34h1v1h-1V34z"/>
<path fill="#383030" d="M39,34h1v3h-2v-1h1V34z"/>
<path fill="#383030" d="M50,34h1v2h1v1h2v1h2v1h2v-1h1v-1h1v2h-1v1h-1v2h-1v2h-1v-1h-1v-2h-1v-1h-3v-1h-1V34z"/>
<path fill="#383030" d="M61,34h1v1h2v1h1v3h-1v-2h-1v-1h-1v1h-2v-1h1V34z"/>
<path fill="#383030" d="M74,34h1v2h1v1h2v1h2v1h2v-1h1v-1h1v2h-1v1h-1v2h-1v2h-1v-1h-1v-2h-2v-1h-2v-1h-1V34z"/>
<path fill="#383030" d="M85,34h1v1h2v1h1v3h-1v-2h-1v-1h-1v1h-2v-1h1V34z"/>
<path fill="#383030" d="M28,35h1v1h1v1h2v1h2v1h2v-1h1v-1h1v2h-1v1h-1v2h-1v2h-1v-1h-1v-2h-2v-1h-2v-1h-1V35z"/>
<path fill="#30271F" d="M40,35h1v1h-1V35z"/>
<path fill="#383030" d="M41,35h1v1h1v2h-1v-1h-1V35z"/>
<path fill="#010101" d="M3,36h1v3H3V36z"/>
<path fill="#605038" d="M16,36h1v1h-1V36z"/>
<path fill="#010101" d="M27,36h1v3h-1V36z"/>
<path fill="#605038" d="M40,36h1v1h-1V36z"/>
<path fill="#010101" d="M49,36h1v3h-1V36z"/>
<path fill="#605038" d="M62,36h1v1h-1V36z"/>
<path fill="#020202" d="M73,36h1v1h-1V36z"/>
<path fill="#605038" d="M86,36h1v1h-1V36z"/>
<path fill="#605038" d="M14,37h2v2h-1v1h-2v-1h1V37z"/>
<path fill="#383030" d="M16,37h1v2h-1V37z"/>
<path fill="#605038" d="M17,37h1v2h-1V37z"/>
<path fill="#605038" d="M38,37h2v2h-1v1h-2v-1h1V37z"/>
<path fill="#383030" d="M40,37h1v2h-1V37z"/>
<path fill="#605038" d="M41,37h1v2h-1V37z"/>
<path fill="#605038" d="M60,37h2v2h-1v1h-2v-1h1V37z"/>
<path fill="#383030" d="M62,37h1v2h-1V37z"/>
<path fill="#605038" d="M63,37h1v2h-1V37z"/>
<path fill="#010101" d="M73,37h1v2h-1V37z"/>
<path fill="#605038" d="M84,37h2v2h-1v1h-2v-1h1V37z"/>
<path fill="#383030" d="M86,37h1v2h-1V37z"/>
<path fill="#605038" d="M87,37h1v2h-1V37z"/>
<path fill="#312820" d="M5,38h1v1H5V38z"/>
<path fill="#30271F" d="M42,38h1v1h-1V38z"/>
<path fill="#312820" d="M51,38h1v1h-1V38z"/>
<path fill="#010101" d="M2,39h1v1H2V39z"/>
<path fill="#605038" d="M3,39h2v1h2v1h2v2H6v-1H4v-1H3V39z"/>
<path fill="#383030" d="M15,39h1v1h-1V39z"/>
<path fill="#605038" d="M16,39h1v1h-1V39z"/>
<path fill="#010101" d="M17,39h1v1h-1V39z"/>
<path fill="#010101" d="M26,39h1v1h-1V39z"/>
<path fill="#605038" d="M27,39h2v1h2v1h2v2h-3v-1h-2v-1h-1V39z"/>
<path fill="#383030" d="M39,39h1v1h-1V39z"/>
<path fill="#605038" d="M40,39h1v1h-1V39z"/>
<path fill="#010101" d="M41,39h1v1h-1V39z"/>
<path fill="#010101" d="M48,39h1v1h-1V39z"/>
<path fill="#605038" d="M49,39h2v1h2v1h2v2h-3v-1h-2v-1h-1V39z"/>
<path fill="#383030" d="M61,39h1v1h-1V39z"/>
<path fill="#605038" d="M62,39h1v1h-1V39z"/>
<path fill="#010101" d="M63,39h1v1h-1V39z"/>
<path fill="#010101" d="M72,39h1v1h-1V39z"/>
<path fill="#605038" d="M73,39h2v1h2v1h2v2h-3v-1h-2v-1h-1V39z"/>
<path fill="#383030" d="M85,39h1v1h-1V39z"/>
<path fill="#605038" d="M86,39h1v1h-1V39z"/>
<path fill="#020202" d="M87,39h1v1h-1V39z"/>
<path fill="#010101" d="M1,40h1v2H1V40z"/>
<path fill="#383030" d="M2,40h1v1h1v1h2v1h3v1H8v1H5v-1H3v-1H2V40z"/>
<path fill="#312820" d="M7,40h1v1H7V40z"/>
<path fill="#605038" d="M12,40h1v1h-1V40z"/>
<path fill="#F8D0B8" d="M13,40h3v5h-1v1h-2v-2h2v-2h-1v-1h-1V40z"/>
<path fill="#010101" d="M16,40h1v1h-1V40z"/>
<path fill="#010101" d="M25,40h1v1h-1V40z"/>
<path fill="#383030" d="M26,40h1v1h1v1h2v1h3v1h-1v1h-3v-1h-2v-1h-1V40z"/>
<path fill="#605038" d="M36,40h1v1h-1V40z"/>
<path fill="#F8D0B8" d="M37,40h3v5h-1v1h-2v-2h2v-2h-1v-1h-1V40z"/>
<path fill="#010101" d="M40,40h1v1h-1V40z"/>
<path fill="#010101" d="M47,40h1v2h-1V40z"/>
<path fill="#383030" d="M48,40h1v1h1v1h2v1h3v1h-1v1h-3v-1h-2v-1h-1V40z"/>
<path fill="#312820" d="M53,40h1v1h-1V40z"/>
<path fill="#605038" d="M58,40h1v1h-1V40z"/>
<path fill="#F8D0B8" d="M59,40h3v5h-1v1h-2v-2h2v-2h-1v-1h-1V40z"/>
<path fill="#010101" d="M62,40h1v1h-1V40z"/>
<path fill="#010101" d="M71,40h1v3h-1V40z"/>
<path fill="#383030" d="M72,40h1v1h1v1h2v1h3v1h-1v1h-3v-1h-2v-1h-1V40z"/>
<path fill="#605038" d="M82,40h1v1h-1V40z"/>
<path fill="#F8D0B8" d="M83,40h3v5h-1v1h-2v-2h2v-2h-1v-1h-1V40z"/>
<path fill="#010101" d="M86,40h1v1h-1V40z"/>
<path fill="#F8D0B8" d="M12,41h1v3h-1v-1h-1v-1h1V41z"/>
<path fill="#D89870" d="M13,41h1v1h-1V41z"/>
<path fill="#784040" d="M16,41h1v3h-1V41z"/>
<path fill="#020202" d="M25,41h1v1h-1V41z"/>
<path fill="#F8D0B8" d="M36,41h1v3h-1v-1h-1v-1h1V41z"/>
<path fill="#D89870" d="M37,41h1v1h-1V41z"/>
<path fill="#784040" d="M40,41h1v3h-1V41z"/>
<path fill="#F8D0B8" d="M58,41h1v3h-1v-1h-1v-1h1V41z"/>
<path fill="#D89870" d="M59,41h1v1h-1V41z"/>
<path fill="#784040" d="M62,41h1v3h-1V41z"/>
<path fill="#F8D0B8" d="M82,41h1v3h-1v-1h-1v-1h1V41z"/>
<path fill="#D89870" d="M83,41h1v1h-1V41z"/>
<path fill="#784040" d="M86,41h1v3h-1V41z"/>
<path fill="#020202" d="M1,42h1v1H1V42z"/>
<path fill="#A8A0C8" d="M13,42h1v1h-1V42z"/>
<path fill="#605038" d="M14,42h1v1h-1V42z"/>
<path fill="#010101" d="M25,42h1v1h-1V42z"/>
<path fill="#A8A0C8" d="M37,42h1v1h-1V42z"/>
<path fill="#605038" d="M38,42h1v1h-1V42z"/>
<path fill="#020202" d="M47,42h1v1h-1V42z"/>
<path fill="#A8A0C8" d="M59,42h1v1h-1V42z"/>
<path fill="#605038" d="M60,42h1v1h-1V42z"/>
<path fill="#A8A0C8" d="M83,42h1v1h-1V42z"/>
<path fill="#605038" d="M84,42h1v1h-1V42z"/>
<path fill="#010101" d="M2,43h1v1H2V43z"/>
<path fill="#D89870" d="M9,43h1v1h1v-1h1v1h1v3h-1v-1H9v-1H8v-1h1V43z"/>
<path fill="#E8E8F2" d="M13,43h1v1h-1V43z"/>
<path fill="#010101" d="M14,43h1v1h-1V43z"/>
<path fill="#010101" d="M26,43h1v1h-1V43z"/>
<path fill="#D89870" d="M33,43h1v1h1v-1h1v1h1v3h-1v-1h-3v-1h-1v-1h1V43z"/>
<path fill="#E8E8F2" d="M37,43h1v1h-1V43z"/>
<path fill="#010101" d="M38,43h1v1h-1V43z"/>
<path fill="#010101" d="M48,43h1v1h-1V43z"/>
<path fill="#D89870" d="M55,43h1v1h1v-1h1v1h1v3h-1v-1h-3v-1h-1v-1h1V43z"/>
<path fill="#E8E8F2" d="M59,43h1v1h-1V43z"/>
<path fill="#010101" d="M60,43h1v1h-1V43z"/>
<path fill="#010101" d="M72,43h1v1h-1V43z"/>
<path fill="#D89870" d="M79,43h1v1h1v-1h1v1h1v3h-1v-1h-3v-1h-1v-1h1V43z"/>
<path fill="#E8E8F2" d="M83,43h1v1h-1V43z"/>
<path fill="#010101" d="M84,43h1v1h-1V43z"/>
<path fill="#020202" d="M3,44h2v1H3V44z"/>
<path fill="#D89870" d="M16,44h1v1h-1V44z"/>
<path fill="#010101" d="M27,44h2v1h-2V44z"/>
<path fill="#D89870" d="M40,44h1v1h-1V44z"/>
<path fill="#020202" d="M49,44h2v1h-2V44z"/>
<path fill="#D89870" d="M62,44h1v1h-1V44z"/>
<path fill="#010101" d="M73,44h1v1h-1V44z"/>
<path fill="#020202" d="M74,44h1v1h-1V44z"/>
<path fill="#D89870" d="M86,44h1v1h-1V44z"/>
<path fill="#010101" d="M5,45h2v1H5V45z"/>
<path fill="#020202" d="M7,45h2v1H7V45z"/>
<path fill="#784040" d="M15,45h1v1h-1V45z"/>
<path fill="#020202" d="M29,45h1v1h-1V45z"/>
<path fill="#010101" d="M30,45h2v1h-2V45z"/>
<path fill="#020202" d="M32,45h1v1h-1V45z"/>
<path fill="#784040" d="M39,45h1v1h-1V45z"/>
<path fill="#010101" d="M51,45h2v1h-2V45z"/>
<path fill="#020202" d="M53,45h2v1h-2V45z"/>
<path fill="#784040" d="M61,45h1v1h-1V45z"/>
<path fill="#010101" d="M75,45h3v1h-3V45z"/>
<path fill="#020202" d="M78,45h1v1h-1V45z"/>
<path fill="#784040" d="M85,45h1v1h-1V45z"/>
<path fill="#010101" d="M8,46h1v1H8V46z"/>
<path fill="#020202" d="M9,46h1v1H9V46z"/>
<path fill="#010101" d="M10,46h1v1h-1V46z"/>
<path fill="#784040" d="M11,46h1v1h-1V46z"/>
<path fill="#010101" d="M13,46h1v1h-1V46z"/>
<path fill="#020202" d="M14,46h1v1h-1V46z"/>
<path fill="#010101" d="M32,46h3v1h-2v1h-1V46z"/>
<path fill="#784040" d="M35,46h1v1h-1V46z"/>
<path fill="#010101" d="M37,46h2v1h-2V46z"/>
<path fill="#010101" d="M54,46h1v1h-1V46z"/>
<path fill="#020202" d="M55,46h1v1h-1V46z"/>
<path fill="#010101" d="M56,46h1v1h-1V46z"/>
<path fill="#784040" d="M57,46h1v1h-1V46z"/>
<path fill="#010101" d="M59,46h1v1h-1V46z"/>
<path fill="#020202" d="M60,46h1v1h-1V46z"/>
<path fill="#010101" d="M78,46h3v1h-2v1h-1V46z"/>
<path fill="#784040" d="M81,46h1v1h-1V46z"/>
<path fill="#010101" d="M83,46h2v1h-2V46z"/>
<path fill="#020202" d="M8,47h1v1H8V47z"/>
<path fill="#AFB0CF" d="M9,47h2v1H9V47z"/>
<path fill="#E8E9F8" d="M11,47h1v1h-1V47z"/>
<path fill="#010101" d="M12,47h1v1h-1V47z"/>
<path fill="#C43F3F" d="M13,47h1v1h-1V47z"/>
<path fill="#784040" d="M14,47h1v2h-1V47z"/>
<path fill="#B0B0D0" d="M33,47h2v1h-2V47z"/>
<path fill="#E8E9F8" d="M35,47h1v1h-1V47z"/>
<path fill="#010101" d="M36,47h1v1h-1V47z"/>
<path fill="#D75750" d="M37,47h1v1h-1V47z"/>
<path fill="#784040" d="M38,47h1v2h-1V47z"/>
<path fill="#020202" d="M54,47h1v1h-1V47z"/>
<path fill="#AFB0CF" d="M55,47h2v1h-2V47z"/>
<path fill="#E8E9F8" d="M57,47h1v1h-1V47z"/>
<path fill="#010101" d="M58,47h1v1h-1V47z"/>
<path fill="#C43F3F" d="M59,47h1v1h-1V47z"/>
<path fill="#784040" d="M60,47h1v2h-1V47z"/>
<path fill="#B0B0D0" d="M79,47h1v1h-1V47z"/>
<path fill="#AFB0CF" d="M80,47h1v1h-1V47z"/>
<path fill="#AFAFCF" d="M81,47h1v1h-1V47z"/>
<path fill="#010101" d="M82,47h1v1h-1V47z"/>
<path fill="#C43F3F" d="M83,47h1v1h-1V47z"/>
<path fill="#784040" d="M84,47h1v2h-1V47z"/>
<path fill="#010101" d="M7,48h1v3H7V48z"/>
<path fill="#AFB0CF" d="M8,48h1v1H8V48z"/>
<path fill="#C43F3F" d="M9,48h2v2H9V48z"/>
<path fill="#784040" d="M11,48h1v2h-1V48z"/>
<path fill="#E8E8F8" d="M12,48h1v1h1v1h-2V48z"/>
<path fill="#010101" d="M13,48h1v1h-1V48z"/>
<path fill="#686890" d="M15,48h1v1h-1V48z"/>
<path fill="#010101" d="M31,48h1v4h-1V48z"/>
<path fill="#784040" d="M32,48h1v2h-1V48z"/>
<path fill="#C43F3F" d="M33,48h2v2h-2V48z"/>
<path fill="#784040" d="M35,48h1v2h-1V48z"/>
<path fill="#E8E8F8" d="M36,48h1v1h-1V48z"/>
<path fill="#010101" d="M37,48h1v1h-1V48z"/>
<path fill="#686890" d="M39,48h1v1h-1V48z"/>
<path fill="#010101" d="M53,48h1v3h-1V48z"/>
<path fill="#AFB0CF" d="M54,48h1v1h-1V48z"/>
<path fill="#C43F3F" d="M55,48h2v2h-2V48z"/>
<path fill="#784040" d="M57,48h1v2h-1V48z"/>
<path fill="#E8E8F8" d="M58,48h1v1h1v1h-2V48z"/>
<path fill="#010101" d="M59,48h1v1h-1V48z"/>
<path fill="#686890" d="M61,48h1v1h-1V48z"/>
<path fill="#010101" d="M77,48h1v3h-1V48z"/>
<path fill="#AFB0CF" d="M78,48h1v1h-1V48z"/>
<path fill="#784040" d="M79,48h1v3h-1V48z"/>
<path fill="#C43F3F" d="M80,48h2v2h-2V48z"/>
<path fill="#B0B0D0" d="M82,48h1v1h-1V48z"/>
<path fill="#010101" d="M83,48h1v1h-1V48z"/>
<path fill="#686890" d="M85,48h1v2h-1V48z"/>
<path fill="#784040" d="M8,49h1v2H8V49z"/>
<path fill="#E7E8F8" d="M14,49h1v1h-1V49z"/>
<path fill="#68678F" d="M15,49h1v1h-1V49z"/>
<path fill="#E7E8F7" d="M36,49h1v1h-1V49z"/>
<path fill="#E8E8F8" d="M37,49h1v1h-1V49z"/>
<path fill="#E7E8F8" d="M38,49h1v1h-1V49z"/>
<path fill="#68678F" d="M39,49h1v2h-1V49z"/>
<path fill="#784040" d="M54,49h1v2h-1V49z"/>
<path fill="#E7E8F8" d="M60,49h1v1h-1V49z"/>
<path fill="#68678F" d="M61,49h1v1h-1V49z"/>
<path fill="#AFB0D0" d="M78,49h1v1h-1V49z"/>
<path fill="#784040" d="M82,49h1v1h-1V49z"/>
<path fill="#E7E8F7" d="M83,49h1v1h-1V49z"/>
<path fill="#E8E8F8" d="M84,49h1v1h-1V49z"/>
<path fill="#D89870" d="M9,50h1v1H9V50z"/>
<path fill="#F8D0B8" d="M10,50h2v1h-2V50z"/>
<path fill="#784040" d="M12,50h1v2h-1V50z"/>
<path fill="#E7E8F8" d="M13,50h1v1h-1V50z"/>
<path fill="#E8E8F8" d="M14,50h1v1h-1V50z"/>
<path fill="#686890" d="M15,50h1v1h-1V50z"/>
<path fill="#F8D0B8" d="M32,50h2v1h-2V50z"/>
<path fill="#010101" d="M34,50h1v1h-1V50z"/>
<path fill="#B0B0D0" d="M35,50h2v1h1v2h-1v-1h-2V50z"/>
<path fill="#E7E8F8" d="M37,50h1v1h-1V50z"/>
<path fill="#E8E8F8" d="M38,50h1v1h-1V50z"/>
<path fill="#D89870" d="M55,50h1v1h-1V50z"/>
<path fill="#F8D0B8" d="M56,50h2v1h-2V50z"/>
<path fill="#784040" d="M58,50h1v2h-1V50z"/>
<path fill="#E7E8F8" d="M59,50h1v1h-1V50z"/>
<path fill="#E8E8F8" d="M60,50h1v1h-1V50z"/>
<path fill="#686890" d="M61,50h1v1h-1V50z"/>
<path fill="#8E5C33" d="M78,50h1v1h1v1h1v1h-1v1h-1v-1h-1v-1h-1v-1h1V50z"/>
<path fill="#D75750" d="M80,50h1v1h-1V50z"/>
<path fill="#F8D0B8" d="M81,50h2v1h-2V50z"/>
<path fill="#784040" d="M83,50h1v2h-1V50z"/>
<path fill="#E7E8F8" d="M84,50h1v1h-1V50z"/>
<path fill="#696890" d="M85,50h1v1h-1V50z"/>
<path fill="#60330F" d="M8,51h1v1H8V51z"/>
<path fill="#020202" d="M9,51h1v1H9V51z"/>
<path fill="#D89870" d="M10,51h2v1h-2V51z"/>
<path fill="#B0B0D0" d="M13,51h1v2h-2v-1h1V51z"/>
<path fill="#68678F" d="M14,51h1v1h-1V51z"/>
<path fill="#020202" d="M30,51h1v1h-1V51z"/>
<path fill="#D89870" d="M32,51h2v1h-2V51z"/>
<path fill="#020202" d="M34,51h1v1h-1V51z"/>
<path fill="#68678F" d="M38,51h1v1h-1V51z"/>
<path fill="#60330F" d="M54,51h1v1h-1V51z"/>
<path fill="#020202" d="M55,51h1v1h-1V51z"/>
<path fill="#D89870" d="M56,51h2v1h-2V51z"/>
<path fill="#B0B0D0" d="M59,51h1v2h-2v-1h1V51z"/>
<path fill="#68678F" d="M60,51h1v1h-1V51z"/>
<path fill="#010101" d="M76,51h1v2h-1V51z"/>
<path fill="#010101" d="M80,51h1v1h-1V51z"/>
<path fill="#D89870" d="M81,51h2v1h-2V51z"/>
<path fill="#E8E8F8" d="M84,51h1v1h-1V51z"/>
<path fill="#686890" d="M85,51h1v1h-1V51z"/>
<path fill="#010101" d="M8,52h1v1H8V52z"/>
<path fill="#60330F" d="M9,52h1v1H9V52z"/>
<path fill="#010101" d="M10,52h2v1h-2V52z"/>
<path fill="#686890" d="M14,52h1v1h-1V52z"/>
<path fill="#020202" d="M29,52h1v1h-1V52z"/>
<path fill="#751D1D" d="M30,52h1v2h1v1h-2V52z"/>
<path fill="#D89870" d="M31,52h1v1h1v1h-2V52z"/>
<path fill="#010101" d="M32,52h2v2h-1v-1h-1V52z"/>
<path fill="#8E5C33" d="M34,52h2v1h1v1h-2v-1h-1V52z"/>
<path fill="#AFB0CF" d="M36,52h1v1h-1V52z"/>
<path fill="#010101" d="M38,52h1v1h-1V52z"/>
<path fill="#010101" d="M54,52h1v1h-1V52z"/>
<path fill="#60330F" d="M55,52h1v1h-1V52z"/>
<path fill="#010101" d="M56,52h2v1h-2V52z"/>
<path fill="#686890" d="M60,52h1v1h-1V52z"/>
<path fill="#D89870" d="M77,52h1v1h1v1h-2V52z"/>
<path fill="#010101" d="M81,52h3v1h-1v1h-3v-1h1V52z"/>
<path fill="#784040" d="M84,52h2v2h-3v-1h1V52z"/>
<path fill="#010101" d="M86,52h1v2h-1V52z"/>
<path fill="#010101" d="M9,53h1v1H9V53z"/>
<path fill="#751D1D" d="M10,53h3v1h-3V53z"/>
<path fill="#010101" d="M13,53h1v1h-1V53z"/>
<path fill="#010101" d="M29,53h1v2h-1V53z"/>
<path fill="#60330F" d="M34,53h1v1h-1V53z"/>
<path fill="#010101" d="M37,53h1v1h-1V53z"/>
<path fill="#D75750" d="M38,53h1v1h-1V53z"/>
<path fill="#C43F3F" d="M39,53h1v1h-1V53z"/>
<path fill="#010101" d="M55,53h1v1h-1V53z"/>
<path fill="#751D1D" d="M56,53h3v1h-3V53z"/>
<path fill="#010101" d="M59,53h1v1h-1V53z"/>
<path fill="#010101" d="M75,53h1v2h-1V53z"/>
<path fill="#D75750" d="M76,53h1v1h-1V53z"/>
<path fill="#010101" d="M10,54h3v1h-3V54z"/>
<path fill="#010101" d="M32,54h1v1h-1V54z"/>
<path fill="#010101" d="M34,54h2v1h-2V54z"/>
<path fill="#D75750" d="M36,54h1v1h-1V54z"/>
<path fill="#C43F3F" d="M37,54h2v1h-2V54z"/>
<path fill="#020202" d="M39,54h1v1h-1V54z"/>
<path fill="#010101" d="M56,54h3v1h-3V54z"/>
<path fill="#C43F3F" d="M76,54h2v1h-2V54z"/>
<path fill="#010101" d="M78,54h2v1h-2V54z"/>
<path fill="#010101" d="M84,54h2v1h-2V54z"/>
<path fill="#010101" d="M30,55h2v1h-2V55z"/>
<path fill="#010101" d="M36,55h2v1h-2V55z"/>
<path fill="#020202" d="M38,55h1v1h-1V55z"/>
<path fill="#020202" d="M76,55h2v1h-2V55z"/>
<path fill="#383030" d="M9,60h5v1H9V60z"/>
<path fill="#383030" d="M32,60h5v1h-5V60z"/>
<path fill="#383030" d="M55,60h5v1h-5V60z"/>
<path fill="#383030" d="M78,60h5v1h-5V60z"/>
<path fill="#383030" d="M7,61h2v1H7V61z"/>
<path fill="#605038" d="M9,61h5v1h2v1h1v2h1v2h-1v1h-3v1H9v-1H6v-1H5v-2h1v-2h1v-1h2V61z"/>
<path fill="#383030" d="M14,61h2v1h-2V61z"/>
<path fill="#383030" d="M30,61h2v1h-2V61z"/>
<path fill="#605038" d="M32,61h5v1h2v1h1v2h1v2h-1v1h-3v1h-5v-1h-3v-1h-1v-2h1v-2h1v-1h2V61z"/>
<path fill="#383030" d="M37,61h2v1h-2V61z"/>
<path fill="#383030" d="M53,61h2v1h-2V61z"/>
<path fill="#605038" d="M55,61h5v1h2v1h1v2h1v2h-1v1h-3v1h-5v-1h-3v-1h-1v-2h1v-2h1v-1h2V61z"/>
<path fill="#383030" d="M60,61h2v1h-2V61z"/>
<path fill="#383030" d="M76,61h2v1h-2V61z"/>
<path fill="#605038" d="M78,61h5v1h2v1h1v2h1v2h-1v1h-3v1h-5v-1h-3v-1h-1v-2h1v-2h1v-1h2V61z"/>
<path fill="#383030" d="M83,61h2v1h-2V61z"/>
<path fill="#383030" d="M6,62h1v1H6V62z"/>
<path fill="#383030" d="M16,62h1v1h-1V62z"/>
<path fill="#383030" d="M29,62h1v1h-1V62z"/>
<path fill="#383030" d="M39,62h1v1h-1V62z"/>
<path fill="#383030" d="M52,62h1v1h-1V62z"/>
<path fill="#383030" d="M62,62h1v1h-1V62z"/>
<path fill="#383030" d="M75,62h1v1h-1V62z"/>
<path fill="#383030" d="M85,62h1v1h-1V62z"/>
<path fill="#383030" d="M5,63h1v1H5V63z"/>
<path fill="#383030" d="M17,63h1v2h-1V63z"/>
<path fill="#383030" d="M28,63h1v2h-1V63z"/>
<path fill="#383030" d="M40,63h1v2h-1V63z"/>
<path fill="#383030" d="M51,63h1v1h-1V63z"/>
<path fill="#383030" d="M63,63h1v2h-1V63z"/>
<path fill="#383030" d="M74,63h1v2h-1V63z"/>
<path fill="#383030" d="M86,63h1v2h-1V63z"/>
<path fill="#30271F" d="M5,64h1v1H5V64z"/>
<path fill="#30271F" d="M51,64h1v1h-1V64z"/>
<path fill="#010101" d="M4,65h1v2H4V65z"/>
<path fill="#010101" d="M18,65h1v2h-1V65z"/>
<path fill="#010101" d="M27,65h1v2h-1V65z"/>
<path fill="#020202" d="M41,65h1v1h-1V65z"/>
<path fill="#010101" d="M50,65h1v2h-1V65z"/>
<path fill="#010101" d="M64,65h1v2h-1V65z"/>
<path fill="#020202" d="M73,65h1v1h-1V65z"/>
<path fill="#010101" d="M87,65h1v2h-1V65z"/>
<path fill="#010101" d="M41,66h1v1h-1V66z"/>
<path fill="#010101" d="M73,66h1v1h-1V66z"/>
<path fill="#010101" d="M3,67h1v1H3V67z"/>
<path fill="#383030" d="M4,67h2v1h3v1h5v-1h3v-1h2v1h1v3h-1v2h-2v1h-3v1H9v-1H6v-1H4v-2H3v-3h1V67z"/>
<path fill="#010101" d="M19,67h1v1h-1V67z"/>
<path fill="#010101" d="M26,67h1v1h-1V67z"/>
<path fill="#30271F" d="M27,67h1v1h-1V67z"/>
<path fill="#383030" d="M28,67h1v1h3v1h5v-1h3v-1h2v1h1v3h-1v2h-2v1h-3v1h-5v-1h-3v-1h-2v-2h-1v-3h2V67z"/>
<path fill="#020202" d="M42,67h1v1h-1V67z"/>
<path fill="#010101" d="M49,67h1v1h-1V67z"/>
<path fill="#383030" d="M50,67h2v1h3v1h5v-1h3v-1h2v1h1v3h-1v2h-2v1h-3v1h-5v-1h-3v-1h-2v-2h-1v-3h1V67z"/>
<path fill="#010101" d="M65,67h1v1h-1V67z"/>
<path fill="#020202" d="M72,67h1v1h-1V67z"/>
<path fill="#383030" d="M73,67h2v1h3v1h5v-1h3v-1h1v1h2v3h-1v2h-2v1h-3v1h-5v-1h-3v-1h-2v-2h-1v-3h1V67z"/>
<path fill="#30271F" d="M87,67h1v1h-1V67z"/>
<path fill="#010101" d="M88,67h1v1h-1V67z"/>
<path fill="#010101" d="M2,68h1v3H2V68z"/>
<path fill="#020202" d="M20,68h1v1h-1V68z"/>
<path fill="#010101" d="M25,68h1v1h-1V68z"/>
<path fill="#010101" d="M43,68h1v3h-1V68z"/>
<path fill="#010101" d="M48,68h1v3h-1V68z"/>
<path fill="#020202" d="M66,68h1v1h-1V68z"/>
<path fill="#010101" d="M71,68h1v3h-1V68z"/>
<path fill="#010101" d="M89,68h1v1h-1V68z"/>
<path fill="#010101" d="M20,69h1v2h-1V69z"/>
<path fill="#020202" d="M25,69h1v1h-1V69z"/>
<path fill="#010101" d="M66,69h1v2h-1V69z"/>
<path fill="#020202" d="M89,69h1v1h-1V69z"/>
<path fill="#010101" d="M25,70h1v1h-1V70z"/>
<path fill="#010101" d="M89,70h1v1h-1V70z"/>
<path fill="#010101" d="M3,71h1v1H3V71z"/>
<path fill="#312820" d="M16,71h1v1h-1V71z"/>
<path fill="#010101" d="M19,71h1v1h-1V71z"/>
<path fill="#010101" d="M26,71h1v2h-1V71z"/>
<path fill="#010101" d="M42,71h1v2h-1V71z"/>
<path fill="#010101" d="M49,71h1v1h-1V71z"/>
<path fill="#312820" d="M62,71h1v1h-1V71z"/>
<path fill="#010101" d="M65,71h1v1h-1V71z"/>
<path fill="#010101" d="M72,71h1v2h-1V71z"/>
<path fill="#010101" d="M88,71h1v2h-1V71z"/>
<path fill="#020202" d="M3,72h1v1H3V72z"/>
<path fill="#020202" d="M19,72h1v1h-1V72z"/>
<path fill="#020202" d="M49,72h1v1h-1V72z"/>
<path fill="#020202" d="M65,72h1v1h-1V72z"/>
<path fill="#010101" d="M4,73h2v1H4V73z"/>
<path fill="#010101" d="M17,73h2v1h-2V73z"/>
<path fill="#020202" d="M27,73h1v1h-1V73z"/>
<path fill="#010101" d="M28,73h1v1h-1V73z"/>
<path fill="#010101" d="M40,73h1v1h-1V73z"/>
<path fill="#020202" d="M41,73h1v1h-1V73z"/>
<path fill="#010101" d="M50,73h2v1h-2V73z"/>
<path fill="#010101" d="M63,73h2v1h-2V73z"/>
<path fill="#020202" d="M73,73h1v1h-1V73z"/>
<path fill="#010101" d="M74,73h1v1h-1V73z"/>
<path fill="#010101" d="M86,73h1v1h-1V73z"/>
<path fill="#020202" d="M87,73h1v1h-1V73z"/>
<path fill="#010101" d="M6,74h1v2H6V74z"/>
<path fill="#020202" d="M7,74h2v1H7V74z"/>
<path fill="#010101" d="M14,74h3v2h-1v-1h-1v1h-2v-1h1V74z"/>
<path fill="#010101" d="M29,74h3v1h5v-1h3v1h-2v1h-2v1h-3v-1h-2v-1h-2V74z"/>
<path fill="#010101" d="M52,74h1v2h-1V74z"/>
<path fill="#020202" d="M53,74h2v1h-2V74z"/>
<path fill="#010101" d="M60,74h3v2h-1v-1h-1v1h-2v-1h1V74z"/>
<path fill="#010101" d="M75,74h3v1h5v-1h3v1h-2v1h-2v1h-3v-1h-2v-1h-2V74z"/>
<path fill="#751D1D" d="M7,75h1v2H7V75z"/>
<path fill="#010101" d="M8,75h4v1h1v1h-3v-1H8V75z"/>
<path fill="#020202" d="M12,75h1v1h-1V75z"/>
<path fill="#751D1D" d="M15,75h1v2h-1V75z"/>
<path fill="#010101" d="M27,75h2v1h-2V75z"/>
<path fill="#751D1D" d="M29,75h2v2h-2v1h-1v-2h1V75z"/>
<path fill="#C43F3F" d="M38,75h1v1h1v1h-1v1h-1V75z"/>
<path fill="#020202" d="M39,75h1v1h-1V75z"/>
<path fill="#751D1D" d="M53,75h1v2h-1V75z"/>
<path fill="#010101" d="M54,75h4v1h1v1h-3v-1h-2V75z"/>
<path fill="#020202" d="M58,75h1v1h-1V75z"/>
<path fill="#751D1D" d="M61,75h1v2h-1V75z"/>
<path fill="#020202" d="M75,75h1v1h-1V75z"/>
<path fill="#C43F3F" d="M76,75h1v3h-1v-1h-1v-1h1V75z"/>
<path fill="#751D1D" d="M84,75h2v1h1v2h-1v-1h-2V75z"/>
<path fill="#010101" d="M86,75h2v1h-2V75z"/>
<path fill="#572F2F" d="M5,76h1v1H5V76z"/>
<path fill="#C43F3F" d="M6,76h1v2H6V76z"/>
<path fill="#B0B0D0" d="M8,76h1v1H8V76z"/>
<path fill="#751D1D" d="M9,76h1v2H9V76z"/>
<path fill="#751D1D" d="M13,76h1v2h-1V76z"/>
<path fill="#B0B0D0" d="M14,76h1v1h-1V76z"/>
<path fill="#C43F3F" d="M16,76h1v2h-1V76z"/>
<path fill="#010101" d="M17,76h1v1h-1V76z"/>
<path fill="#010101" d="M26,76h1v2h-1V76z"/>
<path fill="#D89870" d="M27,76h1v2h-1V76z"/>
<path fill="#B0B0D0" d="M31,76h1v1h-1V76z"/>
<path fill="#751D1D" d="M32,76h1v2h-1V76z"/>
<path fill="#751D1D" d="M36,76h1v2h-1V76z"/>
<path fill="#B0B0D0" d="M37,76h1v1h-1V76z"/>
<path fill="#010101" d="M40,76h1v1h-1V76z"/>
<path fill="#572F2F" d="M51,76h1v1h-1V76z"/>
<path fill="#C43F3F" d="M52,76h1v2h-1V76z"/>
<path fill="#B0B0D0" d="M54,76h1v1h-1V76z"/>
<path fill="#751D1D" d="M55,76h1v2h-1V76z"/>
<path fill="#751D1D" d="M59,76h1v2h-1V76z"/>
<path fill="#B0B0D0" d="M60,76h1v1h-1V76z"/>
<path fill="#C43F3F" d="M62,76h1v2h-1V76z"/>
<path fill="#010101" d="M63,76h1v1h-1V76z"/>
<path fill="#010101" d="M74,76h1v1h-1V76z"/>
<path fill="#B0B0D0" d="M77,76h1v1h-1V76z"/>
<path fill="#751D1D" d="M78,76h1v2h-1V76z"/>
<path fill="#751D1D" d="M82,76h1v2h-1V76z"/>
<path fill="#B0B0D0" d="M83,76h1v1h-1V76z"/>
<path fill="#D89870" d="M87,76h1v2h-1V76z"/>
<path fill="#010101" d="M88,76h1v2h-1V76z"/>
<path fill="#784040" d="M4,77h1v2H4v1H3v-2h1V77z"/>
<path fill="#751D1D" d="M5,77h1v1H5V77z"/>
<path fill="#010101" d="M7,77h1v2H7V77z"/>
<path fill="#E8E8F8" d="M8,77h1v1H8V77z"/>
<path fill="#C43F3F" d="M10,77h3v1h-3V77z"/>
<path fill="#E8E8F8" d="M14,77h1v1h-1V77z"/>
<path fill="#010101" d="M15,77h1v1h-1V77z"/>
<path fill="#751D1D" d="M17,77h1v1h-1V77z"/>
<path fill="#010101" d="M18,77h1v1h-1V77z"/>
<path fill="#010101" d="M29,77h2v2h-1v-1h-1V77z"/>
<path fill="#E8E8F8" d="M31,77h1v1h-1V77z"/>
<path fill="#C43F3F" d="M33,77h3v1h-3V77z"/>
<path fill="#E7E8F8" d="M37,77h1v1h-1V77z"/>
<path fill="#894040" d="M39,77h1v1h-1V77z"/>
<path fill="#020202" d="M40,77h1v1h-1V77z"/>
<path fill="#784040" d="M50,77h1v2h-1v1h-1v-2h1V77z"/>
<path fill="#751D1D" d="M51,77h1v1h-1V77z"/>
<path fill="#010101" d="M53,77h1v2h-1V77z"/>
<path fill="#E8E8F8" d="M54,77h1v1h-1V77z"/>
<path fill="#C43F3F" d="M56,77h3v1h-3V77z"/>
<path fill="#E8E8F8" d="M60,77h1v1h-1V77z"/>
<path fill="#010101" d="M61,77h1v1h-1V77z"/>
<path fill="#751D1D" d="M63,77h1v1h-1V77z"/>
<path fill="#010101" d="M64,77h1v1h-1V77z"/>
<path fill="#020202" d="M74,77h1v1h-1V77z"/>
<path fill="#894040" d="M75,77h1v1h-1V77z"/>
<path fill="#E7E8F8" d="M77,77h1v1h-1V77z"/>
<path fill="#C43F3F" d="M79,77h3v1h-3V77z"/>
<path fill="#E8E8F8" d="M83,77h1v1h-1V77z"/>
<path fill="#010101" d="M84,77h2v1h-1v1h-1V77z"/>
<path fill="#D89870" d="M5,78h1v1H5V78z"/>
<path fill="#784040" d="M6,78h1v1H6V78z"/>
<path fill="#E8E9F8" d="M8,78h1v1H8V78z"/>
<path fill="#E7E8F8" d="M9,78h1v1H9V78z"/>
<path fill="#751D1D" d="M10,78h1v1h-1V78z"/>
<path fill="#894040" d="M11,78h1v1h-1V78z"/>
<path fill="#751D1D" d="M12,78h1v1h-1V78z"/>
<path fill="#E8E8F8" d="M13,78h1v1h-1V78z"/>
<path fill="#E7E8F7" d="M14,78h1v1h-1V78z"/>
<path fill="#020202" d="M15,78h1v1h-1V78z"/>
<path fill="#784040" d="M16,78h1v1h-1V78z"/>
<path fill="#D89870" d="M17,78h1v1h-1V78z"/>
<path fill="#784040" d="M18,78h2v2h-1v-1h-1V78z"/>
<path fill="#010101" d="M27,78h2v1h-2V78z"/>
<path d="M29,78h1v1h-1V78z"/>
<path fill="#E8E9F8" d="M31,78h1v2h-1V78z"/>
<path fill="#E7E8F7" d="M32,78h1v1h-1V78z"/>
<path fill="#751D1D" d="M33,78h3v1h-3V78z"/>
<path fill="#E7E8F8" d="M36,78h1v2h-1V78z"/>
<path fill="#E8E8F8" d="M37,78h1v2h-1V78z"/>
<path fill="#751D1D" d="M38,78h1v1h-1V78z"/>
<path fill="#F8D0B8" d="M39,78h2v1h-2V78z"/>
<path fill="#010101" d="M41,78h1v2h-1V78z"/>
<path fill="#D89870" d="M51,78h1v1h-1V78z"/>
<path fill="#784040" d="M52,78h1v1h-1V78z"/>
<path fill="#E8E9F8" d="M54,78h1v1h-1V78z"/>
<path fill="#E7E8F8" d="M55,78h1v1h-1V78z"/>
<path fill="#751D1D" d="M56,78h1v1h-1V78z"/>
<path fill="#894040" d="M57,78h1v1h-1V78z"/>
<path fill="#751D1D" d="M58,78h1v1h-1V78z"/>
<path fill="#E8E8F8" d="M59,78h1v1h-1V78z"/>
<path fill="#E7E8F7" d="M60,78h1v1h-1V78z"/>
<path fill="#020202" d="M61,78h1v1h-1V78z"/>
<path fill="#784040" d="M62,78h1v1h-1V78z"/>
<path fill="#D89870" d="M63,78h1v1h-1V78z"/>
<path fill="#784040" d="M64,78h2v2h-1v-1h-1V78z"/>
<path fill="#010101" d="M73,78h1v2h-1V78z"/>
<path fill="#F8D0B8" d="M74,78h2v1h-2V78z"/>
<path fill="#751D1D" d="M76,78h1v1h-1V78z"/>
<path fill="#E8E8F8" d="M77,78h1v2h-1V78z"/>
<path fill="#E7E8F8" d="M78,78h1v2h-1V78z"/>
<path fill="#751D1D" d="M79,78h3v1h-3V78z"/>
<path fill="#E7E8F7" d="M82,78h1v1h-1V78z"/>
<path fill="#E8E9F8" d="M83,78h1v2h-1V78z"/>
<path d="M85,78h1v1h-1V78z"/>
<path fill="#010101" d="M86,78h2v1h-2V78z"/>
<path fill="#F8D0B8" d="M4,79h2v1H4V79z"/>
<path fill="#020202" d="M6,79h1v1H6V79z"/>
<path fill="#E8E9F8" d="M7,79h1v1H7V79z"/>
<path fill="#E7E8F8" d="M8,79h1v1H8V79z"/>
<path fill="#E8E8F8" d="M9,79h1v1H9V79z"/>
<path fill="#AFB0D0" d="M10,79h1v1h-1V79z"/>
<path fill="#B0B0D0" d="M11,79h1v1h-1V79z"/>
<path fill="#AFB0D0" d="M12,79h1v1h-1V79z"/>
<path fill="#E8E9F8" d="M13,79h1v1h-1V79z"/>
<path fill="#E8E8F8" d="M14,79h1v1h-1V79z"/>
<path fill="#E7E8F7" d="M15,79h1v1h-1V79z"/>
<path fill="#010101" d="M16,79h1v3h-1V79z"/>
<path fill="#F8D0B8" d="M17,79h2v1h-2V79z"/>
<path fill="#010101" d="M29,79h1v4h-1V79z"/>
<path fill="#E7E8F7" d="M30,79h1v1h-1V79z"/>
<path fill="#E8E8F8" d="M32,79h1v1h-1V79z"/>
<path fill="#B0B0D0" d="M33,79h3v1h-3V79z"/>
<path fill="#010101" d="M38,79h1v1h-1V79z"/>
<path fill="#D89870" d="M39,79h2v1h-2V79z"/>
<path fill="#F8D0B8" d="M50,79h2v1h-2V79z"/>
<path fill="#020202" d="M52,79h1v1h-1V79z"/>
<path fill="#E8E9F8" d="M53,79h1v1h-1V79z"/>
<path fill="#E7E8F8" d="M54,79h1v1h-1V79z"/>
<path fill="#E8E8F8" d="M55,79h1v1h-1V79z"/>
<path fill="#AFB0D0" d="M56,79h1v1h-1V79z"/>
<path fill="#B0B0D0" d="M57,79h1v1h-1V79z"/>
<path fill="#AFB0D0" d="M58,79h1v1h-1V79z"/>
<path fill="#E8E9F8" d="M59,79h1v1h-1V79z"/>
<path fill="#E8E8F8" d="M60,79h1v1h-1V79z"/>
<path fill="#E7E8F7" d="M61,79h1v1h-1V79z"/>
<path fill="#010101" d="M62,79h1v3h-1V79z"/>
<path fill="#F8D0B8" d="M63,79h2v1h-2V79z"/>
<path fill="#D89870" d="M74,79h2v1h-2V79z"/>
<path fill="#010101" d="M76,79h1v1h-1V79z"/>
<path fill="#B0B0D0" d="M79,79h3v1h-3V79z"/>
<path fill="#E8E8F8" d="M82,79h1v1h-1V79z"/>
<path fill="#E7E8F7" d="M84,79h1v1h-1V79z"/>
<path fill="#010101" d="M85,79h1v4h-1V79z"/>
<path fill="#784040" d="M4,80h2v1H4V80z"/>
<path fill="#010101" d="M6,80h1v2H6V80z"/>
<path fill="#E7E8F8" d="M7,80h1v1H7V80z"/>
<path fill="#B0B0D0" d="M8,80h1v1H8V80z"/>
<path fill="#60330F" d="M9,80h5v1h2v1H7v-1h2V80z"/>
<path fill="#B0B0D0" d="M14,80h1v1h-1V80z"/>
<path fill="#E8E8F8" d="M15,80h1v1h-1V80z"/>
<path fill="#784040" d="M17,80h2v1h-2V80z"/>
<path fill="#AFB0D0" d="M30,80h1v1h-1V80z"/>
<path fill="#AFB0CF" d="M31,80h1v1h-1V80z"/>
<path fill="#60330F" d="M32,80h5v2h-3v1h-3v-1h-1v-1h2V80z"/>
<path fill="#B0B0D0" d="M37,80h1v1h-1V80z"/>
<path fill="#020202" d="M38,80h1v2h-1V80z"/>
<path fill="#010101" d="M39,80h2v1h-2V80z"/>
<path fill="#784040" d="M50,80h2v1h-2V80z"/>
<path fill="#010101" d="M52,80h1v2h-1V80z"/>
<path fill="#E7E8F8" d="M53,80h1v1h-1V80z"/>
<path fill="#B0B0D0" d="M54,80h1v1h-1V80z"/>
<path fill="#60330F" d="M55,80h5v1h2v1h-9v-1h2V80z"/>
<path fill="#B0B0D0" d="M60,80h1v1h-1V80z"/>
<path fill="#E8E8F8" d="M61,80h1v1h-1V80z"/>
<path fill="#784040" d="M63,80h2v1h-2V80z"/>
<path fill="#010101" d="M74,80h2v1h-2V80z"/>
<path fill="#020202" d="M76,80h1v2h-1V80z"/>
<path fill="#B0B0D0" d="M77,80h1v1h-1V80z"/>
<path fill="#60330F" d="M78,80h5v1h2v1h-1v1h-3v-1h-3V80z"/>
<path fill="#AFB0CF" d="M83,80h1v1h-1V80z"/>
<path fill="#AFB0D0" d="M84,80h1v1h-1V80z"/>
<path fill="#010101" d="M37,81h1v1h-1V81z"/>
<path fill="#010101" d="M77,81h1v1h-1V81z"/>
<path fill="#010101" d="M7,82h1v1H7V82z"/>
<path fill="#751D1D" d="M8,82h2v1H8V82z"/>
<path fill="#010101" d="M10,82h3v1h-3V82z"/>
<path fill="#751D1D" d="M13,82h2v1h-2V82z"/>
<path fill="#020202" d="M15,82h1v1h-1V82z"/>
<path fill="#D89870" d="M30,82h1v1h-1V82z"/>
<path fill="#020202" d="M34,82h1v1h-1V82z"/>
<path fill="#010101" d="M35,82h2v1h-2V82z"/>
<path fill="#010101" d="M53,82h1v1h-1V82z"/>
<path fill="#751D1D" d="M54,82h2v1h-2V82z"/>
<path fill="#010101" d="M56,82h3v1h-3V82z"/>
<path fill="#751D1D" d="M59,82h2v1h-2V82z"/>
<path fill="#020202" d="M61,82h1v1h-1V82z"/>
<path fill="#010101" d="M78,82h2v1h-2V82z"/>
<path fill="#020202" d="M80,82h1v1h-1V82z"/>
<path fill="#D89870" d="M84,82h1v1h-1V82z"/>
<path fill="#010101" d="M8,83h2v1H8V83z"/>
<path fill="#010101" d="M13,83h2v1h-2V83z"/>
<path fill="#010101" d="M30,83h1v2h-1V83z"/>
<path fill="#D89870" d="M31,83h2v1h-2V83z"/>
<path fill="#010101" d="M33,83h1v1h-1V83z"/>
<path fill="#010101" d="M54,83h2v1h-2V83z"/>
<path fill="#010101" d="M59,83h2v1h-2V83z"/>
<path fill="#010101" d="M81,83h1v1h-1V83z"/>
<path fill="#D89870" d="M82,83h2v1h-2V83z"/>
<path fill="#010101" d="M84,83h1v2h-1V83z"/>
<path fill="#751D1D" d="M31,84h2v1h-2V84z"/>
<path fill="#020202" d="M33,84h1v1h-1V84z"/>
<path fill="#020202" d="M81,84h1v1h-1V84z"/>
<path fill="#751D1D" d="M82,84h2v1h-2V84z"/>
<path fill="#010101" d="M31,85h2v1h-2V85z"/>
<path fill="#010101" d="M82,85h2v1h-2V85z"/>
<path fill="#383030" d="M11,89h4v1h-4V89z"/>
<path fill="#383030" d="M33,89h4v1h-4V89z"/>
<path fill="#383030" d="M57,89h4v1h-4V89z"/>
<path fill="#383030" d="M79,89h4v1h-4V89z"/>
<path fill="#383030" d="M9,90h2v1H9V90z"/>
<path fill="#605038" d="M11,90h4v1h2v1h1v2h-1v1h-2v1h-2v1h-2v-1h-1v-1H9v-1H8v-2h1v-1h2V90z"/>
<path fill="#383030" d="M15,90h2v1h-2V90z"/>
<path fill="#383030" d="M31,90h2v1h-2V90z"/>
<path fill="#605038" d="M33,90h4v1h2v1h1v2h-1v1h-2v1h-2v1h-2v-1h-1v-1h-1v-1h-1v-2h1v-1h2V90z"/>
<path fill="#383030" d="M37,90h2v1h-2V90z"/>
<path fill="#383030" d="M55,90h2v1h-2V90z"/>
<path fill="#605038" d="M57,90h4v1h2v1h1v2h-1v1h-2v1h-2v1h-2v-1h-1v-1h-1v-1h-1v-2h1v-1h2V90z"/>
<path fill="#383030" d="M61,90h2v1h-2V90z"/>
<path fill="#383030" d="M77,90h2v1h-2V90z"/>
<path fill="#605038" d="M79,90h4v1h2v1h1v2h-1v1h-2v1h-2v1h-2v-1h-1v-1h-1v-1h-1v-2h1v-1h2V90z"/>
<path fill="#383030" d="M83,90h2v1h-2V90z"/>
<path fill="#383030" d="M8,91h1v1H8V91z"/>
<path fill="#312820" d="M17,91h1v1h-1V91z"/>
<path fill="#312820" d="M30,91h1v1h-1V91z"/>
<path fill="#383030" d="M39,91h1v1h-1V91z"/>
<path fill="#383030" d="M54,91h1v1h-1V91z"/>
<path fill="#312820" d="M63,91h1v1h-1V91z"/>
<path fill="#383030" d="M76,91h1v1h-1V91z"/>
<path fill="#383030" d="M85,91h1v1h-1V91z"/>
<path fill="#383030" d="M7,92h1v2h1v1H7v-1H6v1H5v2H4v-3h1v-1h2V92z"/>
<path fill="#383030" d="M18,92h1v5h-1v-1h-1v1h1v1h-3v1h-1v2h-1v1h-1v-2h-1v-2h-1v-1H9v-2h1v1h1v1h2v-1h2v-1h2v-1h1V92z"/>
<path fill="#383030" d="M29,92h1v2h1v1h-2v-1h-1v1h-1v2h-1v-3h1v-1h2V92z"/>
<path fill="#383030" d="M40,92h1v5h-1v1h-2v1h-2v2h-1v1h-1v-2h-1v-2h-1v-1h-1v-2h1v1h1v1h2v-1h2v-1h2v-1h1V92z"/>
<path fill="#383030" d="M53,92h1v2h1v1h-2v-1h-1v1h-1v2h-1v-3h1v-1h2V92z"/>
<path fill="#383030" d="M64,92h1v5h-1v-1h-1v1h1v1h-3v1h-1v2h-1v1h-1v-2h-1v-2h-1v-1h-1v-2h1v1h1v1h2v-1h2v-1h2v-1h1V92z"/>
<path fill="#383030" d="M75,92h1v2h1v1h-2V92z"/>
<path fill="#312820" d="M86,92h1v1h-1V92z"/>
<path fill="#383030" d="M73,93h1v2h-1v1h-1v-2h1V93z"/>
<path fill="#30271F" d="M74,93h1v1h-1V93z"/>
<path fill="#383030" d="M86,93h1v4h-1v1h-2v1h-2v2h-1v1h-1v-2h-1v-2h-1v-1h-1v-2h1v1h1v1h2v-1h2v-1h2v-1h1V93z"/>
<path fill="#605038" d="M6,94h1v1H6V94z"/>
<path fill="#010101" d="M19,94h1v3h-1V94z"/>
<path fill="#605038" d="M28,94h1v1h-1V94z"/>
<path fill="#020202" d="M41,94h1v1h-1V94z"/>
<path fill="#605038" d="M52,94h1v1h-1V94z"/>
<path fill="#010101" d="M65,94h1v3h-1V94z"/>
<path fill="#605038" d="M74,94h1v1h-1V94z"/>
<path fill="#010101" d="M87,94h1v3h-1V94z"/>
<path fill="#605038" d="M5,95h1v2H5V95z"/>
<path fill="#383030" d="M6,95h1v2H6V95z"/>
<path fill="#605038" d="M7,95h2v2h1v1H8v-1H7V95z"/>
<path fill="#605038" d="M27,95h1v2h-1V95z"/>
<path fill="#383030" d="M28,95h1v2h-1V95z"/>
<path fill="#605038" d="M29,95h2v2h1v1h-2v-1h-1V95z"/>
<path fill="#010101" d="M41,95h1v2h-1V95z"/>
<path fill="#605038" d="M51,95h1v2h-1V95z"/>
<path fill="#383030" d="M52,95h1v2h-1V95z"/>
<path fill="#605038" d="M53,95h2v2h1v1h-2v-1h-1V95z"/>
<path fill="#605038" d="M73,95h1v2h-1V95z"/>
<path fill="#383030" d="M74,95h1v2h-1V95z"/>
<path fill="#605038" d="M75,95h2v2h1v1h-2v-1h-1V95z"/>
<path fill="#312820" d="M17,96h1v1h-1V96z"/>
<path fill="#312820" d="M63,96h1v1h-1V96z"/>
<path fill="#30271F" d="M72,96h1v1h-1V96z"/>
<path fill="#010101" d="M5,97h1v1H5V97z"/>
<path fill="#605038" d="M6,97h1v1H6V97z"/>
<path fill="#383030" d="M7,97h1v1H7V97z"/>
<path fill="#605038" d="M18,97h2v2h-1v1h-2v1h-3v-2h2v-1h2V97z"/>
<path fill="#010101" d="M20,97h1v1h-1V97z"/>
<path fill="#020202" d="M27,97h1v1h-1V97z"/>
<path fill="#605038" d="M28,97h1v1h-1V97z"/>
<path fill="#383030" d="M29,97h1v1h-1V97z"/>
<path fill="#605038" d="M40,97h2v2h-1v1h-2v1h-3v-2h2v-1h2V97z"/>
<path fill="#010101" d="M42,97h1v1h-1V97z"/>
<path fill="#010101" d="M51,97h1v1h-1V97z"/>
<path fill="#605038" d="M52,97h1v1h-1V97z"/>
<path fill="#383030" d="M53,97h1v1h-1V97z"/>
<path fill="#605038" d="M64,97h2v2h-1v1h-2v1h-3v-2h2v-1h2V97z"/>
<path fill="#010101" d="M66,97h1v1h-1V97z"/>
<path fill="#010101" d="M73,97h1v1h-1V97z"/>
<path fill="#605038" d="M74,97h1v1h-1V97z"/>
<path fill="#383030" d="M75,97h1v1h-1V97z"/>
<path fill="#605038" d="M86,97h2v2h-1v1h-2v1h-3v-2h2v-1h2V97z"/>
<path fill="#010101" d="M88,97h1v1h-1V97z"/>
<path fill="#010101" d="M6,98h1v1H6V98z"/>
<path fill="#F8D0B8" d="M7,98h3v1H9v1H8v2h2v2H8v-1H7V98z"/>
<path fill="#605038" d="M10,98h1v1h-1V98z"/>
<path fill="#312820" d="M15,98h1v1h-1V98z"/>
<path fill="#383030" d="M20,98h1v3h-1v1h-2v1h-3v-1h-1v-1h3v-1h2v-1h1V98z"/>
<path fill="#010101" d="M21,98h1v2h-1V98z"/>
<path fill="#010101" d="M28,98h1v1h-1V98z"/>
<path fill="#F8D0B8" d="M29,98h3v1h-1v1h-1v2h2v2h-2v-1h-1V98z"/>
<path fill="#605038" d="M32,98h1v1h-1V98z"/>
<path fill="#383030" d="M42,98h1v3h-1v1h-2v1h-3v-1h-1v-1h3v-1h2v-1h1V98z"/>
<path fill="#010101" d="M43,98h1v3h-1V98z"/>
<path fill="#010101" d="M52,98h1v1h-1V98z"/>
<path fill="#F8D0B8" d="M53,98h3v1h-1v1h-1v2h2v2h-2v-1h-1V98z"/>
<path fill="#605038" d="M56,98h1v1h-1V98z"/>
<path fill="#312820" d="M61,98h1v1h-1V98z"/>
<path fill="#383030" d="M66,98h1v3h-1v1h-2v1h-3v-1h-1v-1h3v-1h2v-1h1V98z"/>
<path fill="#010101" d="M67,98h1v2h-1V98z"/>
<path fill="#010101" d="M74,98h1v1h-1V98z"/>
<path fill="#F8D0B8" d="M75,98h3v1h-1v1h-1v2h2v2h-2v-1h-1V98z"/>
<path fill="#605038" d="M78,98h1v1h-1V98z"/>
<path fill="#383030" d="M88,98h1v3h-1v1h-2v1h-3v-1h-1v-1h3v-1h2v-1h1V98z"/>
<path fill="#010101" d="M89,98h1v1h-1V98z"/>
<path fill="#784040" d="M6,99h1v3H6V99z"/>
<path fill="#D89870" d="M9,99h1v1H9V99z"/>
<path fill="#F8D0B8" d="M10,99h1v1h1v1h-1v1h-1V99z"/>
<path fill="#784040" d="M28,99h1v3h-1V99z"/>
<path fill="#D89870" d="M31,99h1v1h-1V99z"/>
<path fill="#F8D0B8" d="M32,99h1v1h1v1h-1v1h-1V99z"/>
<path fill="#784040" d="M52,99h1v3h-1V99z"/>
<path fill="#D89870" d="M55,99h1v1h-1V99z"/>
<path fill="#F8D0B8" d="M56,99h1v1h1v1h-1v1h-1V99z"/>
<path fill="#784040" d="M74,99h1v3h-1V99z"/>
<path fill="#D89870" d="M77,99h1v1h-1V99z"/>
<path fill="#F8D0B8" d="M78,99h1v1h1v1h-1v1h-1V99z"/>
<path fill="#020202" d="M89,99h1v1h-1V99z"/>
<path fill="#605038" d="M8,100h1v1H8V100z"/>
<path fill="#A8A0C8" d="M9,100h1v1H9V100z"/>
<path fill="#020202" d="M21,100h1v1h-1V100z"/>
<path fill="#605038" d="M30,100h1v1h-1V100z"/>
<path fill="#A8A0C8" d="M31,100h1v1h-1V100z"/>
<path fill="#605038" d="M54,100h1v1h-1V100z"/>
<path fill="#A8A0C8" d="M55,100h1v1h-1V100z"/>
<path fill="#020202" d="M67,100h1v1h-1V100z"/>
<path fill="#605038" d="M76,100h1v1h-1V100z"/>
<path fill="#A8A0C8" d="M77,100h1v1h-1V100z"/>
<path fill="#010101" d="M89,100h1v1h-1V100z"/>
<path fill="#010101" d="M8,101h1v1H8V101z"/>
<path fill="#E8E8F2" d="M9,101h1v1H9V101z"/>
<path fill="#D89870" d="M11,101h1v1h1v-1h1v1h1v1h-1v1h-3v1h-1v-3h1V101z"/>
<path fill="#010101" d="M20,101h1v1h-1V101z"/>
<path fill="#010101" d="M30,101h1v1h-1V101z"/>
<path fill="#E8E8F2" d="M31,101h1v1h-1V101z"/>
<path fill="#D89870" d="M33,101h1v1h1v-1h1v1h1v1h-1v1h-3v1h-1v-3h1V101z"/>
<path fill="#010101" d="M42,101h1v1h-1V101z"/>
<path fill="#010101" d="M54,101h1v1h-1V101z"/>
<path fill="#E8E8F2" d="M55,101h1v1h-1V101z"/>
<path fill="#D89870" d="M57,101h1v1h1v-1h1v1h1v1h-1v1h-3v1h-1v-3h1V101z"/>
<path fill="#010101" d="M66,101h1v1h-1V101z"/>
<path fill="#010101" d="M76,101h1v1h-1V101z"/>
<path fill="#E8E8F2" d="M77,101h1v1h-1V101z"/>
<path fill="#D89870" d="M79,101h1v1h1v-1h1v1h1v1h-1v1h-3v1h-1v-3h1V101z"/>
<path fill="#010101" d="M88,101h1v1h-1V101z"/>
<path fill="#D89870" d="M6,102h1v1H6V102z"/>
<path fill="#020202" d="M18,102h2v1h-2V102z"/>
<path fill="#D89870" d="M28,102h1v1h-1V102z"/>
<path fill="#020202" d="M40,102h1v1h-1V102z"/>
<path fill="#010101" d="M41,102h1v1h-1V102z"/>
<path fill="#D89870" d="M52,102h1v1h-1V102z"/>
<path fill="#020202" d="M64,102h2v1h-2V102z"/>
<path fill="#D89870" d="M74,102h1v1h-1V102z"/>
<path fill="#010101" d="M86,102h2v1h-2V102z"/>
<path fill="#784040" d="M7,103h1v1H7V103z"/>
<path fill="#020202" d="M14,103h2v1h-2V103z"/>
<path fill="#010101" d="M16,103h2v1h-2V103z"/>
<path fill="#784040" d="M29,103h1v1h-1V103z"/>
<path fill="#020202" d="M36,103h1v1h-1V103z"/>
<path fill="#010101" d="M37,103h3v1h-3V103z"/>
<path fill="#784040" d="M53,103h1v1h-1V103z"/>
<path fill="#020202" d="M60,103h2v1h-2V103z"/>
<path fill="#010101" d="M62,103h2v1h-2V103z"/>
<path fill="#784040" d="M75,103h1v1h-1V103z"/>
<path fill="#020202" d="M82,103h1v1h-1V103z"/>
<path fill="#010101" d="M83,103h2v1h-2V103z"/>
<path fill="#020202" d="M85,103h1v1h-1V103z"/>
<path fill="#020202" d="M8,104h1v1H8V104z"/>
<path fill="#010101" d="M9,104h1v1H9V104z"/>
<path fill="#784040" d="M11,104h1v1h-1V104z"/>
<path fill="#010101" d="M12,104h1v1h-1V104z"/>
<path fill="#020202" d="M13,104h1v1h-1V104z"/>
<path fill="#010101" d="M14,104h1v1h-1V104z"/>
<path fill="#010101" d="M30,104h2v1h-2V104z"/>
<path fill="#784040" d="M33,104h1v1h-1V104z"/>
<path fill="#010101" d="M34,104h3v2h-1v-1h-2V104z"/>
<path fill="#020202" d="M54,104h1v1h-1V104z"/>
<path fill="#010101" d="M55,104h1v1h-1V104z"/>
<path fill="#784040" d="M57,104h1v1h-1V104z"/>
<path fill="#010101" d="M58,104h1v1h-1V104z"/>
<path fill="#020202" d="M59,104h1v1h-1V104z"/>
<path fill="#010101" d="M60,104h1v1h-1V104z"/>
<path fill="#010101" d="M76,104h2v1h-2V104z"/>
<path fill="#784040" d="M79,104h1v1h-1V104z"/>
<path fill="#010101" d="M80,104h3v2h-1v-1h-2V104z"/>
<path fill="#784040" d="M8,105h1v2H8V105z"/>
<path fill="#C43F3F" d="M9,105h1v1H9V105z"/>
<path fill="#010101" d="M10,105h1v1h-1V105z"/>
<path fill="#E8E9F8" d="M11,105h1v1h-1V105z"/>
<path fill="#AFB0CF" d="M12,105h2v1h-2V105z"/>
<path fill="#020202" d="M14,105h1v1h-1V105z"/>
<path fill="#784040" d="M30,105h1v2h-1V105z"/>
<path fill="#C43F3F" d="M31,105h1v1h-1V105z"/>
<path fill="#010101" d="M32,105h1v1h-1V105z"/>
<path fill="#AFAFCF" d="M33,105h1v1h-1V105z"/>
<path fill="#AFB0CF" d="M34,105h1v1h-1V105z"/>
<path fill="#B0B0D0" d="M35,105h1v1h-1V105z"/>
<path fill="#784040" d="M54,105h1v2h-1V105z"/>
<path fill="#C43F3F" d="M55,105h1v1h-1V105z"/>
<path fill="#010101" d="M56,105h1v1h-1V105z"/>
<path fill="#E8E9F8" d="M57,105h1v1h-1V105z"/>
<path fill="#AFB0CF" d="M58,105h2v1h-2V105z"/>
<path fill="#020202" d="M60,105h1v1h-1V105z"/>
<path fill="#784040" d="M76,105h1v2h-1V105z"/>
<path fill="#D75750" d="M77,105h1v1h-1V105z"/>
<path fill="#010101" d="M78,105h1v1h-1V105z"/>
<path fill="#E8E9F8" d="M79,105h1v1h-1V105z"/>
<path fill="#B0B0D0" d="M80,105h2v1h-2V105z"/>
<path fill="#686890" d="M7,106h1v1H7V106z"/>
<path fill="#010101" d="M9,106h1v1H9V106z"/>
<path fill="#E8E8F8" d="M10,106h1v2H9v-1h1V106z"/>
<path fill="#784040" d="M11,106h1v2h-1V106z"/>
<path fill="#C43F3F" d="M12,106h2v2h-2V106z"/>
<path fill="#AFB0CF" d="M14,106h1v1h-1V106z"/>
<path fill="#010101" d="M15,106h1v3h-1V106z"/>
<path fill="#686890" d="M29,106h1v2h-1V106z"/>
<path fill="#010101" d="M31,106h1v1h-1V106z"/>
<path fill="#B0B0D0" d="M32,106h1v1h-1V106z"/>
<path fill="#C43F3F" d="M33,106h2v2h-2V106z"/>
<path fill="#784040" d="M35,106h1v3h-1V106z"/>
<path fill="#AFB0CF" d="M36,106h1v1h-1V106z"/>
<path fill="#010101" d="M37,106h1v3h-1V106z"/>
<path fill="#686890" d="M53,106h1v1h-1V106z"/>
<path fill="#010101" d="M55,106h1v1h-1V106z"/>
<path fill="#E8E8F8" d="M56,106h1v2h-2v-1h1V106z"/>
<path fill="#784040" d="M57,106h1v2h-1V106z"/>
<path fill="#C43F3F" d="M58,106h2v2h-2V106z"/>
<path fill="#AFB0CF" d="M60,106h1v1h-1V106z"/>
<path fill="#010101" d="M61,106h1v3h-1V106z"/>
<path fill="#686890" d="M75,106h1v1h-1V106z"/>
<path fill="#010101" d="M77,106h1v1h-1V106z"/>
<path fill="#E8E8F8" d="M78,106h1v1h-1V106z"/>
<path fill="#784040" d="M79,106h1v2h-1V106z"/>
<path fill="#C43F3F" d="M80,106h2v2h-2V106z"/>
<path fill="#784040" d="M82,106h1v2h-1V106z"/>
<path fill="#010101" d="M83,106h1v4h-1V106z"/>
<path fill="#68678F" d="M7,107h1v1H7V107z"/>
<path fill="#E7E8F8" d="M8,107h1v1H8V107z"/>
<path fill="#784040" d="M14,107h1v2h-1V107z"/>
<path fill="#E8E8F8" d="M30,107h1v1h-1V107z"/>
<path fill="#E7E8F7" d="M31,107h1v1h-1V107z"/>
<path fill="#784040" d="M32,107h1v1h-1V107z"/>
<path fill="#AFB0D0" d="M36,107h1v1h-1V107z"/>
<path fill="#68678F" d="M53,107h1v1h-1V107z"/>
<path fill="#E7E8F8" d="M54,107h1v1h-1V107z"/>
<path fill="#784040" d="M60,107h1v2h-1V107z"/>
<path fill="#68678F" d="M75,107h1v2h-1V107z"/>
<path fill="#E7E8F8" d="M76,107h1v1h-1V107z"/>
<path fill="#E8E8F8" d="M77,107h1v1h-1V107z"/>
<path fill="#E7E8F7" d="M78,107h1v1h-1V107z"/>
<path fill="#686890" d="M7,108h1v1H7V108z"/>
<path fill="#E8E8F8" d="M8,108h1v1H8V108z"/>
<path fill="#E7E8F8" d="M9,108h1v1H9V108z"/>
<path fill="#784040" d="M10,108h1v2h-1V108z"/>
<path fill="#F8D0B8" d="M11,108h2v1h-2V108z"/>
<path fill="#D89870" d="M13,108h1v1h-1V108z"/>
<path fill="#696890" d="M29,108h1v1h-1V108z"/>
<path fill="#E7E8F8" d="M30,108h1v1h-1V108z"/>
<path fill="#784040" d="M31,108h1v2h-1V108z"/>
<path fill="#F8D0B8" d="M32,108h2v1h-2V108z"/>
<path fill="#D75750" d="M34,108h1v1h-1V108z"/>
<path fill="#8E5C33" d="M36,108h1v1h1v1h-1v1h-1v1h-1v-1h-1v-1h1v-1h1V108z"/>
<path fill="#686890" d="M53,108h1v1h-1V108z"/>
<path fill="#E8E8F8" d="M54,108h1v1h-1V108z"/>
<path fill="#E7E8F8" d="M55,108h1v1h-1V108z"/>
<path fill="#784040" d="M56,108h1v2h-1V108z"/>
<path fill="#F8D0B8" d="M57,108h2v1h-2V108z"/>
<path fill="#D89870" d="M59,108h1v1h-1V108z"/>
<path fill="#E8E8F8" d="M76,108h1v1h-1V108z"/>
<path fill="#E7E8F8" d="M77,108h1v1h-1V108z"/>
<path fill="#B0B0D0" d="M78,108h2v2h-2v1h-1v-2h1V108z"/>
<path fill="#010101" d="M80,108h1v1h-1V108z"/>
<path fill="#F8D0B8" d="M81,108h2v1h-2V108z"/>
<path fill="#68678F" d="M8,109h1v1H8V109z"/>
<path fill="#B0B0D0" d="M9,109h1v1h1v1H9V109z"/>
<path fill="#D89870" d="M11,109h2v1h-2V109z"/>
<path fill="#020202" d="M13,109h1v1h-1V109z"/>
<path fill="#60330F" d="M14,109h1v1h-1V109z"/>
<path fill="#686890" d="M29,109h1v1h-1V109z"/>
<path fill="#E8E8F8" d="M30,109h1v1h-1V109z"/>
<path fill="#D89870" d="M32,109h2v1h-2V109z"/>
<path fill="#010101" d="M34,109h1v1h-1V109z"/>
<path fill="#010101" d="M38,109h1v2h-1V109z"/>
<path fill="#68678F" d="M54,109h1v1h-1V109z"/>
<path fill="#B0B0D0" d="M55,109h1v1h1v1h-2V109z"/>
<path fill="#D89870" d="M57,109h2v1h-2V109z"/>
<path fill="#020202" d="M59,109h1v1h-1V109z"/>
<path fill="#60330F" d="M60,109h1v1h-1V109z"/>
<path fill="#68678F" d="M76,109h1v1h-1V109z"/>
<path fill="#020202" d="M80,109h1v1h-1V109z"/>
<path fill="#D89870" d="M81,109h2v1h-2V109z"/>
<path fill="#020202" d="M84,109h1v1h-1V109z"/>
<path fill="#686890" d="M8,110h1v1H8V110z"/>
<path fill="#010101" d="M11,110h2v1h-2V110z"/>
<path fill="#60330F" d="M13,110h1v1h-1V110z"/>
<path fill="#010101" d="M14,110h1v1h-1V110z"/>
<path fill="#010101" d="M28,110h1v2h-1V110z"/>
<path fill="#784040" d="M29,110h2v1h1v1h-3V110z"/>
<path fill="#010101" d="M31,110h3v1h1v1h-3v-1h-1V110z"/>
<path fill="#D89870" d="M37,110h1v2h-2v-1h1V110z"/>
<path fill="#686890" d="M54,110h1v1h-1V110z"/>
<path fill="#010101" d="M57,110h2v1h-2V110z"/>
<path fill="#60330F" d="M59,110h1v1h-1V110z"/>
<path fill="#010101" d="M60,110h1v1h-1V110z"/>
<path fill="#010101" d="M76,110h1v1h-1V110z"/>
<path fill="#AFB0CF" d="M78,110h1v1h-1V110z"/>
<path fill="#8E5C33" d="M79,110h2v1h-1v1h-2v-1h1V110z"/>
<path fill="#010101" d="M81,110h2v1h-1v1h-1V110z"/>
<path fill="#D89870" d="M83,110h1v2h-2v-1h1V110z"/>
<path fill="#751D1D" d="M84,110h1v3h-2v-1h1V110z"/>
<path fill="#020202" d="M85,110h1v1h-1V110z"/>
<path fill="#010101" d="M9,111h1v1H9V111z"/>
<path fill="#751D1D" d="M10,111h3v1h-3V111z"/>
<path fill="#010101" d="M13,111h1v1h-1V111z"/>
<path fill="#D75750" d="M38,111h1v1h-1V111z"/>
<path fill="#010101" d="M39,111h1v2h-1V111z"/>
<path fill="#010101" d="M55,111h1v1h-1V111z"/>
<path fill="#751D1D" d="M56,111h3v1h-3V111z"/>
<path fill="#010101" d="M59,111h1v1h-1V111z"/>
<path fill="#C43F3F" d="M75,111h1v1h-1V111z"/>
<path fill="#D75750" d="M76,111h1v1h-1V111z"/>
<path fill="#010101" d="M77,111h1v1h-1V111z"/>
<path fill="#60330F" d="M80,111h1v1h-1V111z"/>
<path fill="#010101" d="M85,111h1v2h-1V111z"/>
<path fill="#010101" d="M10,112h3v1h-3V112z"/>
<path fill="#010101" d="M29,112h2v1h-2V112z"/>
<path fill="#010101" d="M35,112h2v1h-2V112z"/>
<path fill="#C43F3F" d="M37,112h2v1h-2V112z"/>
<path fill="#010101" d="M56,112h3v1h-3V112z"/>
<path fill="#020202" d="M75,112h1v1h-1V112z"/>
<path fill="#C43F3F" d="M76,112h2v1h-2V112z"/>
<path fill="#D75750" d="M78,112h1v1h-1V112z"/>
<path fill="#010101" d="M79,112h2v1h-2V112z"/>
<path fill="#010101" d="M82,112h1v1h-1V112z"/>
<path fill="#020202" d="M37,113h2v1h-2V113z"/>
<path fill="#020202" d="M76,113h1v1h-1V113z"/>
<path fill="#010101" d="M77,113h2v1h-2V113z"/>
<path fill="#010101" d="M83,113h2v1h-2V113z"/>
</svg>
