<?xml version="1.0" encoding="utf-8"?>
<!-- Generator: Adobe Illustrator 16.0.4, SVG Export Plug-In . SVG Version: 6.00 Build 0)  -->
<!DOCTYPE svg PUBLIC "-//W3C//DTD SVG 1.1//EN" "http://www.w3.org/Graphics/SVG/1.1/DTD/svg11.dtd">
<svg version="1.1" id="Layer_1" xmlns="http://www.w3.org/2000/svg" xmlns:xlink="http://www.w3.org/1999/xlink" x="0px" y="0px"
	 width="92px" height="116px" viewBox="0 0 92 116" enable-background="new 0 0 92 116" xml:space="preserve">
<path fill="#373840" d="M9,2h5v1H9V2z"/>
<path fill="#373840" d="M7,3h2v1H7V3z"/>
<path fill="#707688" d="M9,3h1v1H9V3z"/>
<path fill="#515060" d="M10,3h2v1h-1v1h-1v1h1v1h1V6h1V5h-1V4h1V3h1v1h2v1h1v2h1v3h-1v1h-3v-1h-1v1h1v1h-4v-1H8v-1H7v1H6v-1H5V7h1V5
	h1v2h1v1h2V7H9V4h1V3z"/>
<path fill="#707688" d="M12,3h1v1h-1V3z"/>
<path fill="#373840" d="M14,3h2v1h-2V3z"/>
<path fill="#373840" d="M6,4h1v1H6V4z"/>
<path fill="#515060" d="M7,4h1v1H7V4z"/>
<path fill="#707688" d="M8,4h1v3h1v1H8V7H7V5h1V4z"/>
<path fill="#373840" d="M11,4h1v1h1v1h-1v1h-1V6h-1V5h1V4z"/>
<path fill="#373840" d="M16,4h1v1h-1V4z"/>
<path fill="#373840" d="M5,5h1v2H5V5z"/>
<path fill="#707688" d="M14,5h1v2h-1V5z"/>
<path fill="#373840" d="M17,5h1v2h-1V5z"/>
<path fill="#373840" d="M4,7h1v1H4V7z"/>
<path fill="#707688" d="M13,7h1v1h-1V7z"/>
<path fill="#373840" d="M18,7h1v1h-1V7z"/>
<path fill="#030303" d="M4,8h1v1H4V8z"/>
<path fill="#707688" d="M10,8h2v1h-2V8z"/>
<path fill="#030303" d="M18,8h1v1h-1V8z"/>
<path fill="#030303" d="M3,9h1v2H3V9z"/>
<path fill="#373840" d="M4,9h1v1h1v1h1v-1h1v1h2v1h4v-1h3v-1h1V9h1v2h-1v2h-1v1h-1v-1h-3v1h-3v-1H7v1H6v-1H5v-2H4V9z"/>
<path fill="#030303" d="M19,9h1v2h-1V9z"/>
<path fill="#373840" d="M13,10h1v1h-1V10z"/>
<path fill="#030303" d="M2,11h1v3H2V11z"/>
<path fill="#373840" d="M3,11h1v2h1v1h1v2h1v1H6v1H5v-2H4v-2H3V11z"/>
<path fill="#533C32" d="M4,11h1v2H4V11z"/>
<path fill="#533C32" d="M18,11h1v2h-1V11z"/>
<path fill="#373840" d="M19,11h1v3h-1v2h-1v2h-1v-1h-1v-1h1v-2h1v-1h1V11z"/>
<path fill="#030303" d="M20,11h1v3h-1V11z"/>
<path fill="#211814" d="M5,13h1v1H5V13z"/>
<path fill="#515060" d="M7,13h1v1H7V13z"/>
<path fill="#A8A0C8" d="M8,13h1v1H8V13z"/>
<path fill="#285038" d="M9,13h1v1H9V13z"/>
<path fill="#285038" d="M13,13h1v1h-1V13z"/>
<path fill="#A8A0C8" d="M14,13h1v1h-1V13z"/>
<path fill="#515060" d="M15,13h1v1h-1V13z"/>
<path fill="#211814" d="M17,13h1v1h-1V13z"/>
<path fill="#030303" d="M3,14h1v2H3V14z"/>
<path fill="#533C32" d="M6,14h2v2H7v-1H6V14z"/>
<path fill="#E8E8F8" d="M8,14h1v1H8V14z"/>
<path fill="#030303" d="M9,14h1v1H9V14z"/>
<path fill="#533C32" d="M10,14h3v1h-3V14z"/>
<path fill="#030303" d="M13,14h1v1h-1V14z"/>
<path fill="#E8E8F8" d="M14,14h1v1h-1V14z"/>
<path fill="#533C32" d="M15,14h2v1h-1v1h-1V14z"/>
<path fill="#030303" d="M19,14h1v2h-1V14z"/>
<path fill="#211814" d="M6,15h1v1H6V15z"/>
<path fill="#815C4D" d="M8,15h7v1h-1v1h-2v-1h-1v1H9v-1H8V15z"/>
<path fill="#211814" d="M16,15h1v1h-1V15z"/>
<path fill="#030303" d="M4,16h1v1H4V16z"/>
<path fill="#211814" d="M7,16h1v1H7V16z"/>
<path fill="#533C32" d="M8,16h1v1H8V16z"/>
<path fill="#533C32" d="M11,16h1v1h1v1h-3v-1h1V16z"/>
<path fill="#533C32" d="M14,16h1v1h-1V16z"/>
<path fill="#211814" d="M15,16h1v1h-1V16z"/>
<path fill="#030303" d="M18,16h1v1h-1V16z"/>
<path fill="#7FD096" d="M6,17h2v2H7v-1H6V17z"/>
<path fill="#010101" d="M8,17h1v1H8V17z"/>
<path fill="#211814" d="M9,17h1v1H9V17z"/>
<path fill="#211814" d="M13,17h1v1h-1V17z"/>
<path fill="#010101" d="M14,17h1v1h-1V17z"/>
<path fill="#7FD096" d="M15,17h2v1h-1v1h-1V17z"/>
<path fill="#010101" d="M4,18h1v1H4V18z"/>
<path fill="#59996B" d="M5,18h1v1H5V18z"/>
<path fill="#E9F8ED" d="M6,18h1v1H6V18z"/>
<path fill="#59996B" d="M8,18h1v1h1v1h1v-1h1v1h1v-1h1v-1h1v2h-1v1H9v-1H8V18z"/>
<path fill="#7FD096" d="M9,18h1v1H9V18z"/>
<path fill="#59996B" d="M10,18h1v1h-1V18z"/>
<path fill="#815C4D" d="M11,18h1v1h-1V18z"/>
<path fill="#59996B" d="M12,18h1v1h-1V18z"/>
<path fill="#7FD096" d="M13,18h1v1h-1V18z"/>
<path fill="#E9F8ED" d="M16,18h1v1h-1V18z"/>
<path fill="#59996B" d="M17,18h1v1h-1V18z"/>
<path fill="#010101" d="M18,18h1v1h-1V18z"/>
<path fill="#211814" d="M3,19h1v2H3V19z"/>
<path fill="#815C4D" d="M4,19h2v1H4V19z"/>
<path fill="#59996B" d="M6,19h1v1H6V19z"/>
<path fill="#010101" d="M7,19h1v2H7V19z"/>
<path fill="#7FD096" d="M10,19h1v1h-1V19z"/>
<path fill="#7FD096" d="M12,19h1v1h-1V19z"/>
<path fill="#010101" d="M15,19h1v2h-1V19z"/>
<path fill="#59996B" d="M16,19h1v1h-1V19z"/>
<path fill="#815C4D" d="M17,19h2v1h-2V19z"/>
<path fill="#211814" d="M19,19h1v2h-1V19z"/>
<path fill="#533C32" d="M4,20h2v1H4V20z"/>
<path fill="#211814" d="M6,20h1v1H6V20z"/>
<path fill="#493130" d="M8,20h1v1H8V20z"/>
<path fill="#493130" d="M14,20h1v1h-1V20z"/>
<path fill="#211814" d="M16,20h1v1h-1V20z"/>
<path fill="#533C32" d="M17,20h2v1h-2V20z"/>
<path fill="#211814" d="M4,21h2v1H4V21z"/>
<path fill="#010101" d="M6,21h1v3H6V21z"/>
<path fill="#B8B0D8" d="M7,21h2v2H8v-1H7V21z"/>
<path fill="#493130" d="M9,21h5v1H9V21z"/>
<path fill="#B8B0D8" d="M14,21h2v1h-1v1h-1V21z"/>
<path fill="#010101" d="M16,21h1v3h-1V21z"/>
<path fill="#211814" d="M17,21h2v1h-2V21z"/>
<path fill="#686878" d="M7,22h1v1H7V22z"/>
<path fill="#E8E8F8" d="M9,22h5v1h-1v1h-3v-1H9V22z"/>
<path fill="#686878" d="M15,22h1v1h-1V22z"/>
<path fill="#533C32" d="M7,23h1v1H7V23z"/>
<path fill="#686878" d="M8,23h1v1H8V23z"/>
<path fill="#B8B0D8" d="M9,23h1v1H9V23z"/>
<path fill="#B8B0D8" d="M13,23h1v1h-1V23z"/>
<path fill="#686878" d="M14,23h1v1h-1V23z"/>
<path fill="#533C32" d="M15,23h1v1h-1V23z"/>
<path fill="#010101" d="M7,24h1v1H7V24z"/>
<path fill="#585898" d="M8,24h2v1H8V24z"/>
<path fill="#010101" d="M10,24h3v1h-3V24z"/>
<path fill="#585898" d="M13,24h2v1h-2V24z"/>
<path fill="#010101" d="M15,24h1v1h-1V24z"/>
<path fill="#010101" d="M8,25h2v1H8V25z"/>
<path fill="#010101" d="M13,25h2v1h-2V25z"/>
<path fill="#373840" d="M9,31h5v1H9V31z"/>
<path fill="#373840" d="M7,32h2v1H7V32z"/>
<path fill="#515060" d="M9,32h5v1h-1v1h1v3h-1v1h-2v1h2v-1h2v-1h1v-2h-1v-1h-1v-1h2v1h1v1h1v2h1v2h-1v1h-1v1h-2v1h-2v-1h-2v1H9v1H7
	v-1H5v-1H4v-4h1v-2h1v-1h1v-1h2V32z"/>
<path fill="#373840" d="M14,32h2v1h-2V32z"/>
<path fill="#373840" d="M6,33h1v1H6V33z"/>
<path fill="#707688" d="M10,33h1v1h-1V33z"/>
<path fill="#707688" d="M13,33h1v1h-1V33z"/>
<path fill="#373840" d="M16,33h1v1h-1V33z"/>
<path fill="#030303" d="M5,34h1v1H5V34z"/>
<path fill="#373840" d="M10,34h2v1h1v1h-2v-1h-1V34z"/>
<path fill="#707688" d="M14,34h1v1h1v2h-1v1h-2v-1h1V34z"/>
<path fill="#030303" d="M17,34h1v1h-1V34z"/>
<path fill="#030303" d="M4,35h1v1H4V35z"/>
<path fill="#707688" d="M8,35h1v2H8V35z"/>
<path fill="#030303" d="M18,35h1v2h-1V35z"/>
<path fill="#373840" d="M4,36h1v1H4V36z"/>
<path fill="#030303" d="M3,37h1v2H3V37z"/>
<path fill="#707688" d="M9,37h1v1H9V37z"/>
<path fill="#030303" d="M19,37h1v3h-1V37z"/>
<path fill="#707688" d="M11,38h2v1h-2V38z"/>
<path fill="#373840" d="M3,39h1v2h1v1h2v1h2v-1h2v-1h2v1h2v-1h2v-1h1v2h-2v1h-4v1H8v2h4v1H9v2H8v-1H6v-1H5v-1H4v-2H3V39z"/>
<path fill="#373840" d="M18,39h1v1h-1V39z"/>
<path fill="#030303" d="M2,40h1v4H2V40z"/>
<path fill="#373840" d="M13,40h1v1h-1V40z"/>
<path fill="#030303" d="M18,40h1v2h-1V40z"/>
<path fill="#373840" d="M7,41h1v1H7V41z"/>
<path fill="#533C32" d="M16,42h1v1h-1V42z"/>
<path fill="#030303" d="M17,42h1v1h-1V42z"/>
<path fill="#515060" d="M12,43h1v1h-1V43z"/>
<path fill="#A8A0C8" d="M13,43h1v1h-1V43z"/>
<path fill="#285038" d="M14,43h1v1h-1V43z"/>
<path fill="#815C4D" d="M15,43h2v2h-1v1h-2v-1h1V43z"/>
<path fill="#211814" d="M17,43h1v1h-1V43z"/>
<path fill="#030303" d="M3,44h1v2H3V44z"/>
<path fill="#533C32" d="M8,44h1v2H8V44z"/>
<path fill="#815C4D" d="M9,44h1v2H9V44z"/>
<path fill="#515060" d="M10,44h1v1h-1V44z"/>
<path fill="#533C32" d="M11,44h2v1h1v2h-1v-1h-2V44z"/>
<path fill="#E8E8F8" d="M13,44h1v1h-1V44z"/>
<path fill="#030303" d="M14,44h1v1h-1V44z"/>
<path fill="#533C32" d="M17,44h1v1h-1V44z"/>
<path fill="#211814" d="M10,45h1v1h-1V45z"/>
<path fill="#211814" d="M16,45h1v1h-1V45z"/>
<path fill="#030303" d="M4,46h1v1H4V46z"/>
<path fill="#515060" d="M12,46h1v1h-1V46z"/>
<path fill="#211814" d="M14,46h2v1h-2V46z"/>
<path fill="#030303" d="M5,47h1v1H5V47z"/>
<path fill="#010101" d="M9,47h1v2H9V47z"/>
<path fill="#493130" d="M10,47h1v1h-1V47z"/>
<path fill="#7FD096" d="M11,47h1v1h-1V47z"/>
<path fill="#533C32" d="M12,47h1v1h-1V47z"/>
<path fill="#010101" d="M13,47h2v1h-2V47z"/>
<path fill="#030303" d="M7,48h1v1H7V48z"/>
<path fill="#7FD096" d="M10,48h1v1h-1V48z"/>
<path fill="#493130" d="M11,48h1v2h-1V48z"/>
<path fill="#7FD096" d="M12,48h2v1h-1v1h-1V48z"/>
<path fill="#493130" d="M14,48h1v1h-1V48z"/>
<path fill="#493130" d="M8,49h1v2H8V49z"/>
<path fill="#E9F8ED" d="M9,49h1v1H9V49z"/>
<path fill="#59996B" d="M10,49h1v1h-1V49z"/>
<path fill="#59996B" d="M13,49h2v1h-2V49z"/>
<path fill="#493130" d="M15,49h1v1h-1V49z"/>
<path fill="#010101" d="M7,50h1v2H7V50z"/>
<path fill="#59996B" d="M9,50h1v1H9V50z"/>
<path fill="#815C4D" d="M10,50h2v1h-2V50z"/>
<path fill="#211814" d="M12,50h1v2h-1V50z"/>
<path fill="#B8B0D8" d="M13,50h2v2h-1v1h-2v-1h1V50z"/>
<path fill="#010101" d="M15,50h1v2h-1V50z"/>
<path fill="#59996B" d="M8,51h1v1H8V51z"/>
<path fill="#010101" d="M9,51h1v1H9V51z"/>
<path fill="#533C32" d="M10,51h2v1h-2V51z"/>
<path fill="#010101" d="M8,52h1v1H8V52z"/>
<path fill="#59996B" d="M9,52h1v1H9V52z"/>
<path fill="#010101" d="M10,52h2v1h-2V52z"/>
<path fill="#010101" d="M14,52h1v1h-1V52z"/>
<path fill="#010101" d="M9,53h1v1H9V53z"/>
<path fill="#585898" d="M10,53h3v1h-3V53z"/>
<path fill="#010101" d="M13,53h1v1h-1V53z"/>
<path fill="#010101" d="M10,54h3v1h-3V54z"/>
<path fill="#373840" d="M9,60h5v1H9V60z"/>
<path fill="#373840" d="M7,61h2v1H7V61z"/>
<path fill="#707688" d="M9,61h1v1H9V61z"/>
<path fill="#515060" d="M10,61h2v1h-1v1h-1v1h1v1h1v-1h1v-1h-1v-1h1v-1h1v1h2v1h1v2h1v2h1v3h-1v1h-1v1h-2v-1h-1v1h-1v1h-3v-1H9v-1H8
	v1H6v-1H5v-1H4v-3h1v-2h1v-2h1v2h1v1h2v-1H9v-3h1V61z"/>
<path fill="#707688" d="M12,61h1v1h-1V61z"/>
<path fill="#373840" d="M14,61h2v1h-2V61z"/>
<path fill="#373840" d="M6,62h1v1H6V62z"/>
<path fill="#515060" d="M7,62h1v1H7V62z"/>
<path fill="#707688" d="M8,62h1v3h1v1H8v-1H7v-2h1V62z"/>
<path fill="#373840" d="M11,62h1v1h1v1h-1v1h-1v-1h-1v-1h1V62z"/>
<path fill="#373840" d="M16,62h1v1h-1V62z"/>
<path fill="#373840" d="M5,63h1v2H5V63z"/>
<path fill="#707688" d="M14,63h1v2h-1V63z"/>
<path fill="#373840" d="M17,63h1v2h-1V63z"/>
<path fill="#373840" d="M4,65h1v1H4V65z"/>
<path fill="#707688" d="M13,65h1v1h-1V65z"/>
<path fill="#373840" d="M18,65h1v1h-1V65z"/>
<path fill="#030303" d="M4,66h1v1H4V66z"/>
<path fill="#707688" d="M10,66h2v1h-2V66z"/>
<path fill="#030303" d="M18,66h1v1h-1V66z"/>
<path fill="#030303" d="M3,67h1v2H3V67z"/>
<path fill="#030303" d="M19,67h1v2h-1V67z"/>
<path fill="#030303" d="M2,69h1v3H2V69z"/>
<path fill="#373840" d="M3,69h1v1h1v1h1v1h2v-1h1v1h1v1h3v-1h1v-1h1v1h2v-1h1v-1h1v-1h1v3h-1v2h-1v2h-1v-1h-1v1H7v-1H6v1H5v-2H4v-2
	H3V69z"/>
<path fill="#030303" d="M20,69h1v3h-1V69z"/>
<path fill="#030303" d="M3,72h1v2H3V72z"/>
<path fill="#030303" d="M19,72h1v2h-1V72z"/>
<path fill="#030303" d="M4,74h1v1H4V74z"/>
<path fill="#030303" d="M18,74h1v1h-1V74z"/>
<path fill="#030303" d="M6,75h1v1H6V75z"/>
<path fill="#030303" d="M16,75h1v1h-1V75z"/>
<path fill="#211814" d="M4,76h1v1H4V76z"/>
<path fill="#030303" d="M5,76h1v1H5V76z"/>
<path fill="#59996B" d="M6,76h1v1H6V76z"/>
<path fill="#303038" d="M7,76h1v1H7V76z"/>
<path fill="#030303" d="M8,76h7v1H8V76z"/>
<path fill="#303038" d="M15,76h1v1h-1V76z"/>
<path fill="#59996B" d="M16,76h1v1h-1V76z"/>
<path fill="#030303" d="M17,76h1v1h-1V76z"/>
<path fill="#211814" d="M18,76h1v1h-1V76z"/>
<path fill="#211814" d="M3,77h1v2H3V77z"/>
<path fill="#815C4D" d="M4,77h1v1H4V77z"/>
<path fill="#59996B" d="M5,77h1v1H5V77z"/>
<path fill="#7FD096" d="M6,77h1v1H6V77z"/>
<path fill="#59996B" d="M7,77h1v1H7V77z"/>
<path fill="#303038" d="M8,77h1v1H8V77z"/>
<path fill="#59996B" d="M9,77h5v1H9V77z"/>
<path fill="#303038" d="M14,77h1v1h-1V77z"/>
<path fill="#59996B" d="M15,77h1v1h-1V77z"/>
<path fill="#7FD096" d="M16,77h1v1h-1V77z"/>
<path fill="#59996B" d="M17,77h1v1h-1V77z"/>
<path fill="#815C4D" d="M18,77h1v1h-1V77z"/>
<path fill="#211814" d="M19,77h1v2h-1V77z"/>
<path fill="#533C32" d="M4,78h2v1H4V78z"/>
<path fill="#303038" d="M6,78h1v1H6V78z"/>
<path fill="#786868" d="M7,78h1v1H7V78z"/>
<path fill="#59996B" d="M8,78h1v1H8V78z"/>
<path fill="#E8E8F8" d="M9,78h2v1h-1v1H9V78z"/>
<path fill="#686878" d="M11,78h1v2h-1V78z"/>
<path fill="#E8E8F8" d="M12,78h2v2h-1v-1h-1V78z"/>
<path fill="#59996B" d="M14,78h1v1h-1V78z"/>
<path fill="#786868" d="M15,78h1v1h-1V78z"/>
<path fill="#303038" d="M16,78h1v1h-1V78z"/>
<path fill="#533C32" d="M17,78h2v1h-2V78z"/>
<path fill="#211814" d="M4,79h2v1H4V79z"/>
<path fill="#030303" d="M6,79h1v3H6V79z"/>
<path fill="#7FD096" d="M7,79h1v1h1v1h1v1H8v-1H7V79z"/>
<path fill="#786868" d="M8,79h1v1H8V79z"/>
<path fill="#B8B0D8" d="M10,79h1v1h-1V79z"/>
<path fill="#B8B0D8" d="M12,79h1v1h-1V79z"/>
<path fill="#786868" d="M14,79h1v1h-1V79z"/>
<path fill="#7FD096" d="M15,79h1v2h-1v1h-2v-1h1v-1h1V79z"/>
<path fill="#030303" d="M16,79h1v3h-1V79z"/>
<path fill="#211814" d="M17,79h2v1h-2V79z"/>
<path fill="#786868" d="M9,80h1v1H9V80z"/>
<path fill="#E8E8F8" d="M10,80h1v1h-1V80z"/>
<path fill="#B8B0D8" d="M11,80h1v1h-1V80z"/>
<path fill="#E8E8F8" d="M12,80h1v1h-1V80z"/>
<path fill="#786868" d="M13,80h1v1h-1V80z"/>
<path fill="#686878" d="M7,81h1v1H7V81z"/>
<path fill="#786868" d="M10,81h3v1h-3V81z"/>
<path fill="#686878" d="M15,81h1v1h-1V81z"/>
<path fill="#030303" d="M7,82h1v1H7V82z"/>
<path fill="#585898" d="M8,82h2v1H8V82z"/>
<path fill="#303038" d="M10,82h3v1h-3V82z"/>
<path fill="#585898" d="M13,82h2v1h-2V82z"/>
<path fill="#030303" d="M15,82h1v1h-1V82z"/>
<path fill="#030303" d="M8,83h2v1H8V83z"/>
<path fill="#030303" d="M13,83h2v1h-2V83z"/>
<path fill="#373840" d="M9,89h5v1H9V89z"/>
<path fill="#373840" d="M7,90h2v1H7V90z"/>
<path fill="#515060" d="M9,90h5v1h2v1h1v1h1v2h1v4h-1v1h-2v-1h-1v1h1v1h-2v-1h-2v-1h-2v-1H9v1h1v1H8v-1H6v-1H5v-1H4v-2h1v-2h1v-1h1
	v-1h2V90z"/>
<path fill="#373840" d="M14,90h2v1h-2V90z"/>
<path fill="#373840" d="M6,91h1v1H6V91z"/>
<path fill="#707688" d="M9,91h1v1H9V91z"/>
<path fill="#707688" d="M12,91h1v1h-1V91z"/>
<path fill="#373840" d="M16,91h1v1h-1V91z"/>
<path fill="#030303" d="M5,92h1v1H5V92z"/>
<path fill="#707688" d="M8,92h1v3h1v1H8v-1H7v-2h1V92z"/>
<path fill="#373840" d="M11,92h2v1h-1v1h-2v-1h1V92z"/>
<path fill="#030303" d="M17,92h1v1h-1V92z"/>
<path fill="#030303" d="M4,93h1v2H4V93z"/>
<path fill="#707688" d="M14,93h1v2h-1V93z"/>
<path fill="#030303" d="M18,93h1v1h-1V93z"/>
<path fill="#373840" d="M18,94h1v1h-1V94z"/>
<path fill="#030303" d="M3,95h1v3H3V95z"/>
<path fill="#707688" d="M13,95h1v1h-1V95z"/>
<path fill="#030303" d="M19,95h1v2h-1V95z"/>
<path fill="#707688" d="M10,96h2v1h-2V96z"/>
<path fill="#373840" d="M4,97h1v1H4V97z"/>
<path fill="#373840" d="M19,97h1v5h-1v2h-1v1h-1v1h-2v1h-1v-2h-3v-1h4v-2h-4v-1H7v-1H5v-2h1v1h2v1h2v-1h2v1h2v1h2v-1h2v-1h1V97z"/>
<path fill="#030303" d="M4,98h1v2H4V98z"/>
<path fill="#373840" d="M9,98h1v1H9V98z"/>
<path fill="#030303" d="M20,98h1v4h-1V98z"/>
<path fill="#373840" d="M15,99h1v1h-1V99z"/>
<path fill="#030303" d="M5,100h1v1H5V100z"/>
<path fill="#533C32" d="M6,100h1v1H6V100z"/>
<path fill="#211814" d="M5,101h1v1H5V101z"/>
<path fill="#815C4D" d="M6,101h2v2h1v1H7v-1H6V101z"/>
<path fill="#285038" d="M8,101h1v1H8V101z"/>
<path fill="#A8A0C8" d="M9,101h1v1H9V101z"/>
<path fill="#515060" d="M10,101h1v1h-1V101z"/>
<path fill="#533C32" d="M5,102h1v1H5V102z"/>
<path fill="#030303" d="M8,102h1v1H8V102z"/>
<path fill="#E8E8F8" d="M9,102h1v1H9V102z"/>
<path fill="#533C32" d="M10,102h2v2h-2v1H9v-2h1V102z"/>
<path fill="#515060" d="M12,102h1v1h-1V102z"/>
<path fill="#815C4D" d="M13,102h1v2h-1V102z"/>
<path fill="#533C32" d="M14,102h1v2h-1V102z"/>
<path fill="#030303" d="M19,102h1v2h-1V102z"/>
<path fill="#211814" d="M6,103h1v1H6V103z"/>
<path fill="#211814" d="M12,103h1v1h-1V103z"/>
<path fill="#211814" d="M7,104h2v1H7V104z"/>
<path fill="#515060" d="M10,104h1v1h-1V104z"/>
<path fill="#030303" d="M18,104h1v1h-1V104z"/>
<path fill="#010101" d="M8,105h2v1H8V105z"/>
<path fill="#533C32" d="M10,105h1v1h-1V105z"/>
<path fill="#7FD096" d="M11,105h1v1h-1V105z"/>
<path fill="#493130" d="M12,105h1v1h-1V105z"/>
<path fill="#010101" d="M13,105h1v2h-1V105z"/>
<path fill="#030303" d="M17,105h1v1h-1V105z"/>
<path fill="#493130" d="M8,106h1v1H8V106z"/>
<path fill="#7FD096" d="M9,106h2v2h-1v-1H9V106z"/>
<path fill="#493130" d="M11,106h1v2h-1V106z"/>
<path fill="#7FD096" d="M12,106h1v1h-1V106z"/>
<path fill="#030303" d="M15,106h1v1h-1V106z"/>
<path fill="#493130" d="M7,107h1v1H7V107z"/>
<path fill="#59996B" d="M8,107h2v1H8V107z"/>
<path fill="#59996B" d="M12,107h1v1h-1V107z"/>
<path fill="#E9F8ED" d="M13,107h1v1h-1V107z"/>
<path fill="#493130" d="M14,107h1v2h-1V107z"/>
<path fill="#010101" d="M7,108h1v2H7V108z"/>
<path fill="#B8B0D8" d="M8,108h2v2h1v1H9v-1H8V108z"/>
<path fill="#211814" d="M10,108h1v2h-1V108z"/>
<path fill="#815C4D" d="M11,108h2v1h-2V108z"/>
<path fill="#59996B" d="M13,108h1v1h-1V108z"/>
<path fill="#010101" d="M15,108h1v2h-1V108z"/>
<path fill="#533C32" d="M11,109h2v1h-2V109z"/>
<path fill="#010101" d="M13,109h1v1h-1V109z"/>
<path fill="#59996B" d="M14,109h1v1h-1V109z"/>
<path fill="#010101" d="M8,110h1v1H8V110z"/>
<path fill="#010101" d="M11,110h2v1h-2V110z"/>
<path fill="#59996B" d="M13,110h1v1h-1V110z"/>
<path fill="#010101" d="M14,110h1v1h-1V110z"/>
<path fill="#010101" d="M9,111h1v1H9V111z"/>
<path fill="#585898" d="M10,111h3v1h-3V111z"/>
<path fill="#010101" d="M13,111h1v1h-1V111z"/>
<path fill="#010101" d="M10,112h3v1h-3V112z"/>
</svg>
