<?xml version="1.0" encoding="utf-8"?>
<!-- Generator: Adobe Illustrator 16.0.4, SVG Export Plug-In . SVG Version: 6.00 Build 0)  -->
<!DOCTYPE svg PUBLIC "-//W3C//DTD SVG 1.1//EN" "http://www.w3.org/Graphics/SVG/1.1/DTD/svg11.dtd">
<svg version="1.1" id="Layer_1" xmlns="http://www.w3.org/2000/svg" xmlns:xlink="http://www.w3.org/1999/xlink" x="0px" y="0px"
	 width="276px" height="57px" viewBox="0 0 276 57" enable-background="new 0 0 276 57" xml:space="preserve">
<path fill="#010101" d="M55,1h5v1h-5V1z"/>
<path fill="#010101" d="M78,1h5v1h-5V1z"/>
<path fill="#010101" d="M101,1h5v1h-5V1z"/>
<path fill="#010101" d="M124,1h5v1h-5V1z"/>
<path fill="#010101" d="M147,1h5v1h-5V1z"/>
<path fill="#010101" d="M170,1h5v1h-5V1z"/>
<path fill="#010101" d="M193,1h5v1h-5V1z"/>
<path fill="#010101" d="M53,2h2v1h-2V2z"/>
<path fill="#FDFDFD" d="M55,2h1v1h-1V2z"/>
<path fill="#FCFCFC" d="M56,2h1v1h-1V2z"/>
<path fill="#FDFDFD" d="M57,2h1v1h-1V2z"/>
<path fill="#FCFCFC" d="M58,2h2v1h-1v1h-2V3h1V2z"/>
<path fill="#010101" d="M60,2h2v1h-2V2z"/>
<path fill="#010101" d="M76,2h2v1h-2V2z"/>
<path fill="#FDFDFD" d="M78,2h1v1h-1V2z"/>
<path fill="#FCFCFC" d="M79,2h1v1h-1V2z"/>
<path fill="#FDFDFD" d="M80,2h1v1h-1V2z"/>
<path fill="#FCFCFC" d="M81,2h2v1h-1v1h-2V3h1V2z"/>
<path fill="#010101" d="M83,2h2v1h-2V2z"/>
<path fill="#010101" d="M99,2h2v1h-2V2z"/>
<path fill="#FDFDFD" d="M101,2h1v1h-1V2z"/>
<path fill="#FCFCFC" d="M102,2h1v1h-1V2z"/>
<path fill="#FDFDFD" d="M103,2h1v1h-1V2z"/>
<path fill="#FCFCFC" d="M104,2h2v1h-1v1h-2V3h1V2z"/>
<path fill="#010101" d="M106,2h2v1h-2V2z"/>
<path fill="#010101" d="M122,2h2v1h-2V2z"/>
<path fill="#FDFDFD" d="M124,2h1v1h-1V2z"/>
<path fill="#FCFCFC" d="M125,2h1v1h-1V2z"/>
<path fill="#FDFDFD" d="M126,2h1v1h-1V2z"/>
<path fill="#FCFCFC" d="M127,2h2v1h-1v1h-2V3h1V2z"/>
<path fill="#010101" d="M129,2h2v1h-2V2z"/>
<path fill="#010101" d="M145,2h2v1h-2V2z"/>
<path fill="#FDFDFD" d="M147,2h1v1h-1V2z"/>
<path fill="#FCFCFC" d="M148,2h1v1h-1V2z"/>
<path fill="#FDFDFD" d="M149,2h1v1h-1V2z"/>
<path fill="#FCFCFC" d="M150,2h2v1h-1v1h-2V3h1V2z"/>
<path fill="#010101" d="M152,2h2v1h-2V2z"/>
<path fill="#010101" d="M168,2h2v1h-2V2z"/>
<path fill="#FDFDFD" d="M170,2h1v1h-1V2z"/>
<path fill="#FCFCFC" d="M171,2h1v1h-1V2z"/>
<path fill="#FDFDFD" d="M172,2h1v1h-1V2z"/>
<path fill="#FCFCFC" d="M173,2h2v1h-1v1h-2V3h1V2z"/>
<path fill="#010101" d="M175,2h2v1h-2V2z"/>
<path fill="#010101" d="M191,2h2v1h-2V2z"/>
<path fill="#FDFDFD" d="M193,2h1v1h-1V2z"/>
<path fill="#FCFCFC" d="M194,2h1v1h-1V2z"/>
<path fill="#FDFDFD" d="M195,2h1v1h-1V2z"/>
<path fill="#FCFCFC" d="M196,2h2v1h-1v1h-2V3h1V2z"/>
<path fill="#010101" d="M198,2h2v1h-2V2z"/>
<path fill="#010101" d="M52,3h1v1h-1V3z"/>
<path fill="#F8F8F8" d="M53,3h1v1h7V3h1v1h1v2h-1v1h-9V6h-1V4h1V3z"/>
<path fill="#FDFDFD" d="M54,3h1v1h-1V3z"/>
<path fill="#FCFCFC" d="M55,3h1v1h-1V3z"/>
<path fill="#FDFDFD" d="M56,3h1v1h-1V3z"/>
<path fill="#FDFDFD" d="M59,3h2v1h-2V3z"/>
<path fill="#010101" d="M62,3h1v1h-1V3z"/>
<path fill="#010101" d="M75,3h1v1h-1V3z"/>
<path fill="#F8F8F8" d="M76,3h1v1h7V3h1v1h1v2h-1v1h-3V5h-3v2h-3V6h-1V4h1V3z"/>
<path fill="#FDFDFD" d="M77,3h1v1h-1V3z"/>
<path fill="#FCFCFC" d="M78,3h1v1h-1V3z"/>
<path fill="#FDFDFD" d="M79,3h1v1h-1V3z"/>
<path fill="#FDFDFD" d="M82,3h2v1h-2V3z"/>
<path fill="#010101" d="M85,3h1v1h-1V3z"/>
<path fill="#010101" d="M98,3h1v1h-1V3z"/>
<path fill="#F8F8F8" d="M99,3h1v1h2v3h-3V6h-1V4h1V3z"/>
<path fill="#FDFDFD" d="M100,3h1v1h-1V3z"/>
<path fill="#FCFCFC" d="M101,3h1v1h-1V3z"/>
<path fill="#FDFDFD" d="M102,3h1v1h-1V3z"/>
<path fill="#FDFDFD" d="M105,3h2v1h-2V3z"/>
<path fill="#F8F8F8" d="M107,3h1v1h1v2h-1v1h-3V4h2V3z"/>
<path fill="#010101" d="M108,3h1v1h-1V3z"/>
<path fill="#010101" d="M121,3h1v1h-1V3z"/>
<path fill="#F8F8F8" d="M122,3h1v1h2v3h-3V6h-1V4h1V3z"/>
<path fill="#FDFDFD" d="M123,3h1v1h-1V3z"/>
<path fill="#FCFCFC" d="M124,3h1v1h-1V3z"/>
<path fill="#FDFDFD" d="M125,3h1v1h-1V3z"/>
<path fill="#FDFDFD" d="M128,3h2v1h-2V3z"/>
<path fill="#F8F8F8" d="M130,3h1v1h1v2h-1v1h-3V4h2V3z"/>
<path fill="#010101" d="M131,3h1v1h-1V3z"/>
<path fill="#010101" d="M144,3h1v1h-1V3z"/>
<path fill="#F8F8F8" d="M145,3h1v1h2v3h-3V6h-1V4h1V3z"/>
<path fill="#FDFDFD" d="M146,3h1v1h-1V3z"/>
<path fill="#FCFCFC" d="M147,3h1v1h-1V3z"/>
<path fill="#FDFDFD" d="M148,3h1v1h-1V3z"/>
<path fill="#FDFDFD" d="M151,3h2v1h-2V3z"/>
<path fill="#F8F8F8" d="M153,3h1v1h1v2h-1v1h-3V4h2V3z"/>
<path fill="#010101" d="M154,3h1v1h-1V3z"/>
<path fill="#010101" d="M167,3h1v1h-1V3z"/>
<path fill="#F8F8F8" d="M168,3h1v1h2v3h-3V6h-1V4h1V3z"/>
<path fill="#FDFDFD" d="M169,3h1v1h-1V3z"/>
<path fill="#FCFCFC" d="M170,3h1v1h-1V3z"/>
<path fill="#FDFDFD" d="M171,3h1v1h-1V3z"/>
<path fill="#FDFDFD" d="M174,3h2v1h-2V3z"/>
<path fill="#F8F8F8" d="M176,3h1v1h1v2h-1v1h-3V4h2V3z"/>
<path fill="#010101" d="M177,3h1v1h-1V3z"/>
<path fill="#010101" d="M190,3h1v1h-1V3z"/>
<path fill="#F8F8F8" d="M191,3h1v1h2v3h-3V6h-1V4h1V3z"/>
<path fill="#FDFDFD" d="M192,3h1v1h-1V3z"/>
<path fill="#FCFCFC" d="M193,3h1v1h-1V3z"/>
<path fill="#FDFDFD" d="M194,3h1v1h-1V3z"/>
<path fill="#FDFDFD" d="M197,3h2v1h-2V3z"/>
<path fill="#F8F8F8" d="M199,3h1v1h1v2h-1v1h-3V4h2V3z"/>
<path fill="#010101" d="M200,3h1v1h-1V3z"/>
<path fill="#010101" d="M51,4h1v2h-1V4z"/>
<path fill="#010101" d="M63,4h1v2h-1V4z"/>
<path fill="#010101" d="M74,4h1v2h-1V4z"/>
<path fill="#010101" d="M86,4h1v2h-1V4z"/>
<path fill="#010101" d="M97,4h1v2h-1V4z"/>
<path fill="#010101" d="M102,4h3v5h-3V4z"/>
<path fill="#010101" d="M109,4h1v2h-1V4z"/>
<path fill="#010101" d="M120,4h1v2h-1V4z"/>
<path fill="#010101" d="M125,4h3v5h-3V4z"/>
<path fill="#010101" d="M132,4h1v2h-1V4z"/>
<path fill="#010101" d="M143,4h1v2h-1V4z"/>
<path fill="#010101" d="M148,4h3v5h-3V4z"/>
<path fill="#010101" d="M155,4h1v2h-1V4z"/>
<path fill="#010101" d="M166,4h1v2h-1V4z"/>
<path fill="#010101" d="M171,4h3v5h-3V4z"/>
<path fill="#010101" d="M178,4h1v2h-1V4z"/>
<path fill="#010101" d="M189,4h1v2h-1V4z"/>
<path fill="#010101" d="M194,4h3v5h-3V4z"/>
<path fill="#010101" d="M201,4h1v2h-1V4z"/>
<path fill="#010101" d="M32,5h5v1h-5V5z"/>
<path fill="#010101" d="M79,5h3v5h-3V5z"/>
<path fill="#010101" d="M31,6h1v1h-1V6z"/>
<path fill="#FDFDFD" d="M32,6h5v1h-1v1h-3V7h-1V6z"/>
<path fill="#010101" d="M37,6h1v1h-1V6z"/>
<path fill="#010101" d="M50,6h1v5h-1V6z"/>
<path fill="#EFEFEF" d="M51,6h2v1h9V6h2v3h-2v1h-9V9h-2V6z"/>
<path fill="#010101" d="M64,6h1v5h-1V6z"/>
<path fill="#010101" d="M73,6h1v5h-1V6z"/>
<path fill="#EFEFEF" d="M74,6h2v1h3v3h-3V9h-2V6z"/>
<path fill="#EFEFEF" d="M85,6h2v3h-2v1h-3V7h3V6z"/>
<path fill="#010101" d="M87,6h1v5h-1V6z"/>
<path fill="#010101" d="M96,6h1v5h-1V6z"/>
<path fill="#EFEFEF" d="M97,6h2v1h3v2h3V7h3V6h2v3h-2v1h-9V9h-2V6z"/>
<path fill="#010101" d="M110,6h1v5h-1V6z"/>
<path fill="#010101" d="M119,6h1v5h-1V6z"/>
<path fill="#EFEFEF" d="M120,6h2v1h3v2h3V7h3V6h2v3h-2v1h-9V9h-2V6z"/>
<path fill="#010101" d="M133,6h1v5h-1V6z"/>
<path fill="#010101" d="M142,6h1v5h-1V6z"/>
<path fill="#EFEFEF" d="M143,6h2v1h3v2h3V7h3V6h2v3h-2v1h-9V9h-2V6z"/>
<path fill="#010101" d="M156,6h1v5h-1V6z"/>
<path fill="#010101" d="M165,6h1v5h-1V6z"/>
<path fill="#EFEFEF" d="M166,6h2v1h3v2h3V7h3V6h2v3h-2v1h-9V9h-2V6z"/>
<path fill="#010101" d="M179,6h1v5h-1V6z"/>
<path fill="#010101" d="M188,6h1v5h-1V6z"/>
<path fill="#EFEFEF" d="M189,6h2v1h3v2h3V7h3V6h2v3h-2v1h-9V9h-2V6z"/>
<path fill="#010101" d="M202,6h1v5h-1V6z"/>
<path fill="#010101" d="M30,7h1v1h-1V7z"/>
<path fill="#F8F8F8" d="M31,7h2v1h3V7h2v1h1v1h-2v1h-5V9h-2V8h1V7z"/>
<path fill="#010101" d="M38,7h1v1h-1V7z"/>
<path fill="#010101" d="M29,8h1v5h-1V8z"/>
<path fill="#010101" d="M39,8h1v5h-1V8z"/>
<path fill="#EFEFEF" d="M30,9h2v1h5V9h2v2h-2v1h-5v-1h-2V9z"/>
<path fill="#E7E7E7" d="M51,9h2v1h1v2h-1v-1h-2V9z"/>
<path fill="#E7E7E7" d="M62,9h2v2h-1v1h-2v1h-1v-1h-1v1h-4v-3h7V9z"/>
<path fill="#E7E7E7" d="M74,9h2v1h1v2h-1v-1h-2V9z"/>
<path fill="#E7E7E7" d="M85,9h2v2h-1v1h-2v1h-1v-1h-1v-1h-3v2h-1v-3h7V9z"/>
<path fill="#E7E7E7" d="M97,9h2v1h1v2h-1v-1h-2V9z"/>
<path fill="#E7E7E7" d="M108,9h2v2h-1v1h-2v1h-1v-1h-1v-2h3V9z"/>
<path fill="#E7E7E7" d="M120,9h2v1h1v2h-1v-1h-2V9z"/>
<path fill="#E7E7E7" d="M131,9h2v2h-1v1h-2v1h-1v-1h-1v-2h3V9z"/>
<path fill="#E7E7E7" d="M143,9h2v1h1v2h-1v-1h-2V9z"/>
<path fill="#E7E7E7" d="M154,9h2v2h-1v1h-2v1h-1v-1h-1v-2h3V9z"/>
<path fill="#E7E7E7" d="M166,9h2v1h1v2h-1v-1h-2V9z"/>
<path fill="#E7E7E7" d="M177,9h2v2h-1v1h-2v1h-1v-1h-1v-2h3V9z"/>
<path fill="#E7E7E7" d="M189,9h2v1h1v2h-1v-1h-2V9z"/>
<path fill="#E7E7E7" d="M200,9h2v2h-1v1h-2v1h-1v-1h-1v-2h3V9z"/>
<path fill="#E6E6E6" d="M54,10h1v2h-1V10z"/>
<path fill="#E6E6E6" d="M77,10h1v2h-1V10z"/>
<path fill="#E6E6E6" d="M100,10h1v2h-1V10z"/>
<path fill="#E7E7E7" d="M101,10h1v2h3v1h-4V10z"/>
<path fill="#010101" d="M102,10h3v2h-3V10z"/>
<path fill="#E6E6E6" d="M123,10h1v2h-1V10z"/>
<path fill="#E7E7E7" d="M124,10h1v2h3v1h-4V10z"/>
<path fill="#010101" d="M125,10h3v2h-3V10z"/>
<path fill="#E6E6E6" d="M146,10h1v2h-1V10z"/>
<path fill="#E7E7E7" d="M147,10h1v2h3v1h-4V10z"/>
<path fill="#010101" d="M148,10h3v2h-3V10z"/>
<path fill="#E6E6E6" d="M169,10h1v2h-1V10z"/>
<path fill="#E7E7E7" d="M170,10h1v2h3v1h-4V10z"/>
<path fill="#010101" d="M171,10h3v2h-3V10z"/>
<path fill="#E6E6E6" d="M192,10h1v2h-1V10z"/>
<path fill="#E7E7E7" d="M193,10h1v2h3v1h-4V10z"/>
<path fill="#010101" d="M194,10h3v2h-3V10z"/>
<path fill="#E7E7E7" d="M30,11h2v1h5v-1h2v2h-3v1h-3v-1h-3V11z"/>
<path fill="#010101" d="M51,11h1v2h-1V11z"/>
<path fill="#E3E3E3" d="M52,11h1v1h-1V11z"/>
<path fill="#010101" d="M63,11h1v2h-1V11z"/>
<path fill="#010101" d="M74,11h1v2h-1V11z"/>
<path fill="#E3E3E3" d="M75,11h1v1h-1V11z"/>
<path fill="#010101" d="M79,11h3v2h-3V11z"/>
<path fill="#010101" d="M86,11h1v2h-1V11z"/>
<path fill="#010101" d="M97,11h1v2h-1V11z"/>
<path fill="#E3E3E3" d="M98,11h1v1h-1V11z"/>
<path fill="#010101" d="M109,11h1v2h-1V11z"/>
<path fill="#010101" d="M120,11h1v2h-1V11z"/>
<path fill="#E3E3E3" d="M121,11h1v1h-1V11z"/>
<path fill="#010101" d="M132,11h1v2h-1V11z"/>
<path fill="#010101" d="M143,11h1v2h-1V11z"/>
<path fill="#E3E3E3" d="M144,11h1v1h-1V11z"/>
<path fill="#010101" d="M155,11h1v2h-1V11z"/>
<path fill="#010101" d="M166,11h1v2h-1V11z"/>
<path fill="#E3E3E3" d="M167,11h1v1h-1V11z"/>
<path fill="#010101" d="M178,11h1v2h-1V11z"/>
<path fill="#010101" d="M189,11h1v2h-1V11z"/>
<path fill="#E3E3E3" d="M190,11h1v1h-1V11z"/>
<path fill="#010101" d="M201,11h1v2h-1V11z"/>
<path fill="#DEDEDE" d="M52,12h2v1h7v-1h2v1h-1v1h-3v1h-3v-1h-3v-1h-1V12z"/>
<path fill="#E2E2E2" d="M54,12h1v1h-1V12z"/>
<path fill="#E6E6E6" d="M59,12h1v1h-1V12z"/>
<path fill="#DEDEDE" d="M75,12h2v1h7v-1h2v1h-1v1h-3v1h-3v-1h-3v-1h-1V12z"/>
<path fill="#E2E2E2" d="M77,12h1v1h-1V12z"/>
<path fill="#E6E6E6" d="M82,12h1v1h-1V12z"/>
<path fill="#DEDEDE" d="M98,12h2v1h7v-1h2v1h-1v1h-3v1h-3v-1h-3v-1h-1V12z"/>
<path fill="#E2E2E2" d="M100,12h1v1h-1V12z"/>
<path fill="#E6E6E6" d="M105,12h1v1h-1V12z"/>
<path fill="#DEDEDE" d="M121,12h2v1h7v-1h2v1h-1v1h-3v1h-3v-1h-3v-1h-1V12z"/>
<path fill="#E2E2E2" d="M123,12h1v1h-1V12z"/>
<path fill="#E6E6E6" d="M128,12h1v1h-1V12z"/>
<path fill="#DEDEDE" d="M144,12h2v1h7v-1h2v1h-1v1h-3v1h-3v-1h-3v-1h-1V12z"/>
<path fill="#E2E2E2" d="M146,12h1v1h-1V12z"/>
<path fill="#E6E6E6" d="M151,12h1v1h-1V12z"/>
<path fill="#DEDEDE" d="M167,12h2v1h7v-1h2v1h-1v1h-3v1h-3v-1h-3v-1h-1V12z"/>
<path fill="#E2E2E2" d="M169,12h1v1h-1V12z"/>
<path fill="#E6E6E6" d="M174,12h1v1h-1V12z"/>
<path fill="#DEDEDE" d="M190,12h2v1h7v-1h2v1h-1v1h-3v1h-3v-1h-3v-1h-1V12z"/>
<path fill="#E2E2E2" d="M192,12h1v1h-1V12z"/>
<path fill="#E6E6E6" d="M197,12h1v1h-1V12z"/>
<path fill="#010101" d="M30,13h1v1h-1V13z"/>
<path fill="#DEDEDE" d="M31,13h2v1h3v-1h2v1h-1v1h-5v-1h-1V13z"/>
<path fill="#010101" d="M38,13h1v1h-1V13z"/>
<path fill="#010101" d="M52,13h1v1h-1V13z"/>
<path fill="#010101" d="M62,13h1v1h-1V13z"/>
<path fill="#010101" d="M75,13h1v1h-1V13z"/>
<path fill="#010101" d="M85,13h1v1h-1V13z"/>
<path fill="#010101" d="M98,13h1v1h-1V13z"/>
<path fill="#010101" d="M108,13h1v1h-1V13z"/>
<path fill="#010101" d="M121,13h1v1h-1V13z"/>
<path fill="#010101" d="M131,13h1v1h-1V13z"/>
<path fill="#010101" d="M144,13h1v1h-1V13z"/>
<path fill="#010101" d="M154,13h1v1h-1V13z"/>
<path fill="#010101" d="M167,13h1v1h-1V13z"/>
<path fill="#010101" d="M177,13h1v1h-1V13z"/>
<path fill="#010101" d="M190,13h1v1h-1V13z"/>
<path fill="#010101" d="M200,13h1v1h-1V13z"/>
<path fill="#010101" d="M31,14h1v1h-1V14z"/>
<path fill="#010101" d="M37,14h1v1h-1V14z"/>
<path fill="#010101" d="M53,14h2v1h-2V14z"/>
<path fill="#CCCCCC" d="M55,14h1v1h-1V14z"/>
<path fill="#CCCCCC" d="M59,14h1v1h-1V14z"/>
<path fill="#010101" d="M60,14h2v1h-2V14z"/>
<path fill="#010101" d="M76,14h2v1h-2V14z"/>
<path fill="#CCCCCC" d="M78,14h1v1h-1V14z"/>
<path fill="#CCCCCC" d="M82,14h1v1h-1V14z"/>
<path fill="#010101" d="M83,14h2v1h-2V14z"/>
<path fill="#010101" d="M99,14h2v1h-2V14z"/>
<path fill="#CCCCCC" d="M101,14h1v1h-1V14z"/>
<path fill="#CCCCCC" d="M105,14h1v1h-1V14z"/>
<path fill="#010101" d="M106,14h2v1h-2V14z"/>
<path fill="#010101" d="M122,14h2v1h-2V14z"/>
<path fill="#CCCCCC" d="M124,14h1v1h-1V14z"/>
<path fill="#CCCCCC" d="M128,14h1v1h-1V14z"/>
<path fill="#010101" d="M129,14h2v1h-2V14z"/>
<path fill="#010101" d="M145,14h2v1h-2V14z"/>
<path fill="#CCCCCC" d="M147,14h1v1h-1V14z"/>
<path fill="#CCCCCC" d="M151,14h1v1h-1V14z"/>
<path fill="#010101" d="M152,14h2v1h-2V14z"/>
<path fill="#010101" d="M168,14h2v1h-2V14z"/>
<path fill="#CCCCCC" d="M170,14h1v1h-1V14z"/>
<path fill="#CCCCCC" d="M174,14h1v1h-1V14z"/>
<path fill="#010101" d="M175,14h2v1h-2V14z"/>
<path fill="#010101" d="M191,14h2v1h-2V14z"/>
<path fill="#CCCCCC" d="M193,14h1v1h-1V14z"/>
<path fill="#CCCCCC" d="M197,14h1v1h-1V14z"/>
<path fill="#010101" d="M198,14h2v1h-2V14z"/>
<path fill="#010101" d="M32,15h1v1h-1V15z"/>
<path fill="#CCCCCC" d="M33,15h3v1h-1v1h-1v-1h-1V15z"/>
<path fill="#010101" d="M36,15h1v1h-1V15z"/>
<path fill="#010101" d="M55,15h1v1h-1V15z"/>
<path fill="#CCCCCC" d="M56,15h3v1h-1v1h-1v-1h-1V15z"/>
<path fill="#010101" d="M59,15h1v1h-1V15z"/>
<path fill="#010101" d="M78,15h1v1h-1V15z"/>
<path fill="#CCCCCC" d="M79,15h3v1h-1v1h-1v-1h-1V15z"/>
<path fill="#010101" d="M82,15h1v1h-1V15z"/>
<path fill="#010101" d="M101,15h1v1h-1V15z"/>
<path fill="#CCCCCC" d="M102,15h3v1h-1v1h-1v-1h-1V15z"/>
<path fill="#010101" d="M105,15h1v1h-1V15z"/>
<path fill="#010101" d="M124,15h1v1h-1V15z"/>
<path fill="#CCCCCC" d="M125,15h3v1h-1v1h-1v-1h-1V15z"/>
<path fill="#010101" d="M128,15h1v1h-1V15z"/>
<path fill="#010101" d="M147,15h1v1h-1V15z"/>
<path fill="#CCCCCC" d="M148,15h3v1h-1v1h-1v-1h-1V15z"/>
<path fill="#010101" d="M151,15h1v1h-1V15z"/>
<path fill="#010101" d="M170,15h1v1h-1V15z"/>
<path fill="#CCCCCC" d="M171,15h3v1h-1v1h-1v-1h-1V15z"/>
<path fill="#010101" d="M174,15h1v1h-1V15z"/>
<path fill="#010101" d="M193,15h1v1h-1V15z"/>
<path fill="#CCCCCC" d="M194,15h3v1h-1v1h-1v-1h-1V15z"/>
<path fill="#010101" d="M197,15h1v1h-1V15z"/>
<path fill="#010101" d="M33,16h1v1h-1V16z"/>
<path fill="#010101" d="M35,16h1v1h-1V16z"/>
<path fill="#010101" d="M56,16h1v1h-1V16z"/>
<path fill="#010101" d="M58,16h1v1h-1V16z"/>
<path fill="#010101" d="M79,16h1v1h-1V16z"/>
<path fill="#010101" d="M81,16h1v1h-1V16z"/>
<path fill="#010101" d="M102,16h1v1h-1V16z"/>
<path fill="#010101" d="M104,16h1v1h-1V16z"/>
<path fill="#010101" d="M125,16h1v1h-1V16z"/>
<path fill="#010101" d="M127,16h1v1h-1V16z"/>
<path fill="#010101" d="M148,16h1v1h-1V16z"/>
<path fill="#010101" d="M150,16h1v1h-1V16z"/>
<path fill="#010101" d="M171,16h1v1h-1V16z"/>
<path fill="#010101" d="M173,16h1v1h-1V16z"/>
<path fill="#010101" d="M194,16h1v1h-1V16z"/>
<path fill="#010101" d="M196,16h1v1h-1V16z"/>
<path fill="#010101" d="M34,17h1v1h-1V17z"/>
<path fill="#010101" d="M57,17h1v1h-1V17z"/>
<path fill="#010101" d="M80,17h1v1h-1V17z"/>
<path fill="#010101" d="M103,17h1v1h-1V17z"/>
<path fill="#010101" d="M126,17h1v1h-1V17z"/>
<path fill="#010101" d="M149,17h1v1h-1V17z"/>
<path fill="#010101" d="M172,17h1v1h-1V17z"/>
<path fill="#010101" d="M195,17h1v1h-1V17z"/>
<path fill="#010101" d="M55,20h5v1h-5V20z"/>
<path fill="#010101" d="M78,20h5v1h-5V20z"/>
<path fill="#010101" d="M101,20h5v1h-5V20z"/>
<path fill="#010101" d="M124,20h5v1h-5V20z"/>
<path fill="#010101" d="M147,20h5v1h-5V20z"/>
<path fill="#010101" d="M170,20h5v1h-5V20z"/>
<path fill="#010101" d="M193,20h5v1h-5V20z"/>
<path fill="#010101" d="M53,21h2v1h-2V21z"/>
<path fill="#FDFDFD" d="M55,21h1v1h-1V21z"/>
<path fill="#FCFCFC" d="M56,21h1v1h-1V21z"/>
<path fill="#FDFDFD" d="M57,21h1v1h-1V21z"/>
<path fill="#FCFCFC" d="M58,21h2v1h-1v1h-2v-1h1V21z"/>
<path fill="#010101" d="M60,21h2v1h-2V21z"/>
<path fill="#010101" d="M76,21h2v1h-2V21z"/>
<path fill="#FDFDFD" d="M78,21h1v1h-1V21z"/>
<path fill="#FCFCFC" d="M79,21h1v1h-1V21z"/>
<path fill="#FDFDFD" d="M80,21h1v1h-1V21z"/>
<path fill="#FCFCFC" d="M81,21h2v1h-1v1h-2v-1h1V21z"/>
<path fill="#010101" d="M83,21h2v1h-2V21z"/>
<path fill="#010101" d="M99,21h2v1h-2V21z"/>
<path fill="#FDFDFD" d="M101,21h1v1h-1V21z"/>
<path fill="#FCFCFC" d="M102,21h1v1h-1V21z"/>
<path fill="#FDFDFD" d="M103,21h1v1h-1V21z"/>
<path fill="#FCFCFC" d="M104,21h2v1h-1v1h-2v-1h1V21z"/>
<path fill="#010101" d="M106,21h2v1h-2V21z"/>
<path fill="#010101" d="M122,21h2v1h-2V21z"/>
<path fill="#FDFDFD" d="M124,21h1v1h-1V21z"/>
<path fill="#FCFCFC" d="M125,21h1v1h-1V21z"/>
<path fill="#FDFDFD" d="M126,21h1v1h-1V21z"/>
<path fill="#FCFCFC" d="M127,21h2v1h-1v1h-2v-1h1V21z"/>
<path fill="#010101" d="M129,21h2v1h-2V21z"/>
<path fill="#010101" d="M145,21h2v1h-2V21z"/>
<path fill="#FDFDFD" d="M147,21h1v1h-1V21z"/>
<path fill="#FCFCFC" d="M148,21h1v1h-1V21z"/>
<path fill="#FDFDFD" d="M149,21h1v1h-1V21z"/>
<path fill="#FCFCFC" d="M150,21h2v1h-1v1h-2v-1h1V21z"/>
<path fill="#010101" d="M152,21h2v1h-2V21z"/>
<path fill="#010101" d="M168,21h2v1h-2V21z"/>
<path fill="#FDFDFD" d="M170,21h1v1h-1V21z"/>
<path fill="#FCFCFC" d="M171,21h1v1h-1V21z"/>
<path fill="#FDFDFD" d="M172,21h1v1h-1V21z"/>
<path fill="#FCFCFC" d="M173,21h2v1h-1v1h-2v-1h1V21z"/>
<path fill="#010101" d="M175,21h2v1h-2V21z"/>
<path fill="#010101" d="M191,21h2v1h-2V21z"/>
<path fill="#FDFDFD" d="M193,21h1v1h-1V21z"/>
<path fill="#FCFCFC" d="M194,21h1v1h-1V21z"/>
<path fill="#FDFDFD" d="M195,21h1v1h-1V21z"/>
<path fill="#FCFCFC" d="M196,21h2v1h-1v1h-2v-1h1V21z"/>
<path fill="#010101" d="M198,21h2v1h-2V21z"/>
<path fill="#010101" d="M52,22h1v1h-1V22z"/>
<path fill="#F8F8F8" d="M53,22h1v1h7v-1h1v1h1v2h-1v1h-9v-1h-1v-2h1V22z"/>
<path fill="#FDFDFD" d="M54,22h1v1h-1V22z"/>
<path fill="#FCFCFC" d="M55,22h1v1h-1V22z"/>
<path fill="#FDFDFD" d="M56,22h1v1h-1V22z"/>
<path fill="#FDFDFD" d="M59,22h2v1h-2V22z"/>
<path fill="#010101" d="M62,22h1v1h-1V22z"/>
<path fill="#010101" d="M75,22h1v1h-1V22z"/>
<path fill="#F8F8F8" d="M76,22h1v1h7v-1h1v1h1v2h-1v1h-9v-1h-1v-2h1V22z"/>
<path fill="#FDFDFD" d="M77,22h1v1h-1V22z"/>
<path fill="#FCFCFC" d="M78,22h1v1h-1V22z"/>
<path fill="#FDFDFD" d="M79,22h1v1h-1V22z"/>
<path fill="#FDFDFD" d="M82,22h2v1h-2V22z"/>
<path fill="#010101" d="M85,22h1v1h-1V22z"/>
<path fill="#010101" d="M98,22h1v1h-1V22z"/>
<path fill="#F8F8F8" d="M99,22h1v1h7v-1h1v1h1v2h-1v1h-1v-1h-3v1h-1v-1h-5v-2h1V22z"/>
<path fill="#FDFDFD" d="M100,22h1v1h-1V22z"/>
<path fill="#FCFCFC" d="M101,22h1v1h-1V22z"/>
<path fill="#FDFDFD" d="M102,22h1v1h-1V22z"/>
<path fill="#FDFDFD" d="M105,22h2v1h-2V22z"/>
<path fill="#010101" d="M108,22h1v1h-1V22z"/>
<path fill="#010101" d="M121,22h1v1h-1V22z"/>
<path fill="#F8F8F8" d="M122,22h1v1h7v-1h1v1h1v2h-2v-1h-2v1h-1v1h-1v-1h-1v-1h-2v1h-2v-2h1V22z"/>
<path fill="#FDFDFD" d="M123,22h1v1h-1V22z"/>
<path fill="#FCFCFC" d="M124,22h1v1h-1V22z"/>
<path fill="#FDFDFD" d="M125,22h1v1h-1V22z"/>
<path fill="#FDFDFD" d="M128,22h2v1h-2V22z"/>
<path fill="#010101" d="M131,22h1v1h-1V22z"/>
<path fill="#010101" d="M144,22h1v1h-1V22z"/>
<path fill="#F8F8F8" d="M145,22h1v1h7v-1h1v1h1v2h-2v-1h-2v1h-1v1h-1v-1h-1v-1h-2v1h-2v-2h1V22z"/>
<path fill="#FDFDFD" d="M146,22h1v1h-1V22z"/>
<path fill="#FCFCFC" d="M147,22h1v1h-1V22z"/>
<path fill="#FDFDFD" d="M148,22h1v1h-1V22z"/>
<path fill="#FDFDFD" d="M151,22h2v1h-2V22z"/>
<path fill="#010101" d="M154,22h1v1h-1V22z"/>
<path fill="#010101" d="M167,22h1v1h-1V22z"/>
<path fill="#F8F8F8" d="M168,22h1v1h7v-1h1v1h1v2h-2v-1h-2v1h-1v1h-1v-1h-1v-1h-2v1h-2v-2h1V22z"/>
<path fill="#FDFDFD" d="M169,22h1v1h-1V22z"/>
<path fill="#FCFCFC" d="M170,22h1v1h-1V22z"/>
<path fill="#FDFDFD" d="M171,22h1v1h-1V22z"/>
<path fill="#FDFDFD" d="M174,22h2v1h-2V22z"/>
<path fill="#010101" d="M177,22h1v1h-1V22z"/>
<path fill="#010101" d="M190,22h1v1h-1V22z"/>
<path fill="#F8F8F8" d="M191,22h1v1h7v-1h1v1h1v2h-2v-1h-2v1h-1v1h-1v-1h-1v-1h-2v1h-2v-2h1V22z"/>
<path fill="#FDFDFD" d="M192,22h1v1h-1V22z"/>
<path fill="#FCFCFC" d="M193,22h1v1h-1V22z"/>
<path fill="#FDFDFD" d="M194,22h1v1h-1V22z"/>
<path fill="#FDFDFD" d="M197,22h2v1h-2V22z"/>
<path fill="#010101" d="M200,22h1v1h-1V22z"/>
<path fill="#010101" d="M51,23h1v2h-1V23z"/>
<path fill="#010101" d="M63,23h1v2h-1V23z"/>
<path fill="#010101" d="M74,23h1v2h-1V23z"/>
<path fill="#010101" d="M86,23h1v2h-1V23z"/>
<path fill="#010101" d="M97,23h1v2h-1V23z"/>
<path fill="#010101" d="M109,23h1v2h-1V23z"/>
<path fill="#010101" d="M120,23h1v2h-1V23z"/>
<path fill="#010101" d="M132,23h1v2h-1V23z"/>
<path fill="#010101" d="M143,23h1v2h-1V23z"/>
<path fill="#010101" d="M155,23h1v2h-1V23z"/>
<path fill="#010101" d="M166,23h1v2h-1V23z"/>
<path fill="#010101" d="M178,23h1v2h-1V23z"/>
<path fill="#010101" d="M189,23h1v2h-1V23z"/>
<path fill="#010101" d="M201,23h1v2h-1V23z"/>
<path fill="#010101" d="M32,24h5v1h-5V24z"/>
<path fill="#802038" d="M123,24h2v1h-2V24z"/>
<path fill="#802038" d="M128,24h2v1h-2V24z"/>
<path fill="#802038" d="M146,24h2v1h-2V24z"/>
<path fill="#802038" d="M151,24h2v1h-2V24z"/>
<path fill="#802038" d="M169,24h2v1h-2V24z"/>
<path fill="#802038" d="M174,24h2v1h-2V24z"/>
<path fill="#802038" d="M192,24h2v1h-2V24z"/>
<path fill="#802038" d="M197,24h2v1h-2V24z"/>
<path fill="#010101" d="M31,25h1v1h-1V25z"/>
<path fill="#FDFDFD" d="M32,25h5v1h-1v1h-3v-1h-1V25z"/>
<path fill="#010101" d="M37,25h1v1h-1V25z"/>
<path fill="#010101" d="M50,25h1v5h-1V25z"/>
<path fill="#EFEFEF" d="M51,25h2v1h9v-1h2v3h-2v1h-9v-1h-2V25z"/>
<path fill="#010101" d="M64,25h1v5h-1V25z"/>
<path fill="#010101" d="M73,25h1v5h-1V25z"/>
<path fill="#EFEFEF" d="M74,25h2v1h2v1h-1v2h-1v-1h-2V25z"/>
<path fill="#EFEFEF" d="M85,25h2v3h-2v1h-1v-2h-1v-1h2V25z"/>
<path fill="#010101" d="M87,25h1v5h-1V25z"/>
<path fill="#010101" d="M96,25h1v5h-1V25z"/>
<path fill="#EFEFEF" d="M97,25h4v1h-1v2h1v1h-2v-1h-2V25z"/>
<path fill="#802038" d="M101,25h2v1h-2V25z"/>
<path fill="#802038" d="M104,25h2v1h-2V25z"/>
<path fill="#EFEFEF" d="M106,25h1v1h-1V25z"/>
<path fill="#EFEFEF" d="M108,25h2v3h-2v1h-2v-1h1v-2h1V25z"/>
<path fill="#010101" d="M110,25h1v5h-1V25z"/>
<path fill="#010101" d="M119,25h1v5h-1V25z"/>
<path fill="#EFEFEF" d="M120,25h2v3h-2V25z"/>
<path fill="#802038" d="M122,25h1v3h-1V25z"/>
<path fill="#F06868" d="M123,25h2v1h-1v1h-1V25z"/>
<path fill="#802038" d="M125,25h1v1h-1V25z"/>
<path fill="#802038" d="M127,25h1v1h-1V25z"/>
<path fill="#B83048" d="M128,25h2v3h-1v1h-1v1h-1v1h-1v-1h-1v-1h-1v-1h-1v-1h1v-1h2v1h1v-1h1V25z"/>
<path fill="#802038" d="M130,25h1v3h-1V25z"/>
<path fill="#EFEFEF" d="M131,25h2v3h-2V25z"/>
<path fill="#010101" d="M133,25h1v5h-1V25z"/>
<path fill="#010101" d="M142,25h1v5h-1V25z"/>
<path fill="#EFEFEF" d="M143,25h2v3h-2V25z"/>
<path fill="#802038" d="M145,25h1v3h-1V25z"/>
<path fill="#F06868" d="M146,25h2v1h-1v1h-1V25z"/>
<path fill="#802038" d="M148,25h1v1h-1V25z"/>
<path fill="#802038" d="M150,25h1v1h-1V25z"/>
<path fill="#B83048" d="M151,25h2v3h-1v1h-1v1h-1v1h-1v-1h-1v-1h-1v-1h-1v-1h1v-1h2v1h1v-1h1V25z"/>
<path fill="#802038" d="M153,25h1v3h-1V25z"/>
<path fill="#EFEFEF" d="M154,25h2v3h-2V25z"/>
<path fill="#010101" d="M156,25h1v5h-1V25z"/>
<path fill="#010101" d="M165,25h1v5h-1V25z"/>
<path fill="#EFEFEF" d="M166,25h2v3h-2V25z"/>
<path fill="#802038" d="M168,25h1v3h-1V25z"/>
<path fill="#F06868" d="M169,25h2v1h-1v1h-1V25z"/>
<path fill="#802038" d="M171,25h1v1h-1V25z"/>
<path fill="#802038" d="M173,25h1v1h-1V25z"/>
<path fill="#B83048" d="M174,25h2v3h-1v1h-1v1h-1v1h-1v-1h-1v-1h-1v-1h-1v-1h1v-1h2v1h1v-1h1V25z"/>
<path fill="#802038" d="M176,25h1v3h-1V25z"/>
<path fill="#EFEFEF" d="M177,25h2v3h-2V25z"/>
<path fill="#010101" d="M179,25h1v5h-1V25z"/>
<path fill="#010101" d="M188,25h1v5h-1V25z"/>
<path fill="#EFEFEF" d="M189,25h2v3h-2V25z"/>
<path fill="#802038" d="M191,25h1v3h-1V25z"/>
<path fill="#F06868" d="M192,25h2v1h-1v1h-1V25z"/>
<path fill="#802038" d="M194,25h1v1h-1V25z"/>
<path fill="#802038" d="M196,25h1v1h-1V25z"/>
<path fill="#B83048" d="M197,25h2v3h-1v1h-1v1h-1v1h-1v-1h-1v-1h-1v-1h-1v-1h1v-1h2v1h1v-1h1V25z"/>
<path fill="#802038" d="M199,25h1v3h-1V25z"/>
<path fill="#EFEFEF" d="M200,25h2v3h-2V25z"/>
<path fill="#010101" d="M202,25h1v5h-1V25z"/>
<path fill="#010101" d="M30,26h1v1h-1V26z"/>
<path fill="#F8F8F8" d="M31,26h2v1h3v-1h2v1h1v1h-2v1h-5v-1h-2v-1h1V26z"/>
<path fill="#010101" d="M38,26h1v1h-1V26z"/>
<path fill="#802038" d="M78,26h2v1h-2V26z"/>
<path fill="#EFEFEF" d="M80,26h1v1h-1V26z"/>
<path fill="#802038" d="M81,26h2v1h-2V26z"/>
<path fill="#802038" d="M100,26h1v2h-1V26z"/>
<path fill="#F06868" d="M101,26h2v1h-1v1h-1V26z"/>
<path fill="#802038" d="M103,26h1v1h-1V26z"/>
<path fill="#B83048" d="M104,26h2v2h-1v1h-1v1h-1v-1h-1v-2h2V26z"/>
<path fill="#802038" d="M106,26h1v2h-1V26z"/>
<path fill="#802038" d="M126,26h1v1h-1V26z"/>
<path fill="#802038" d="M149,26h1v1h-1V26z"/>
<path fill="#802038" d="M172,26h1v1h-1V26z"/>
<path fill="#802038" d="M195,26h1v1h-1V26z"/>
<path fill="#010101" d="M29,27h1v5h-1V27z"/>
<path fill="#010101" d="M39,27h1v5h-1V27z"/>
<path fill="#802038" d="M77,27h1v2h-1V27z"/>
<path fill="#F06868" d="M78,27h2v1h-1v1h-1V27z"/>
<path fill="#802038" d="M80,27h1v1h-1V27z"/>
<path fill="#B83048" d="M81,27h2v2h-1v1h-1v1h-1v-1h-1v-2h2V27z"/>
<path fill="#802038" d="M83,27h1v2h-1V27z"/>
<path fill="#EFEFEF" d="M30,28h2v1h5v-1h2v2h-2v1h-5v-1h-2V28z"/>
<path fill="#E7E7E7" d="M51,28h2v1h1v2h-1v-1h-2V28z"/>
<path fill="#E7E7E7" d="M62,28h2v2h-1v1h-2v1h-1v-1h-1v1h-4v-3h7V28z"/>
<path fill="#E7E7E7" d="M74,28h2v1h1v2h-1v-1h-2V28z"/>
<path fill="#E7E7E7" d="M85,28h2v2h-1v1h-2v1h-1v-1h-1v-1h1v-1h2V28z"/>
<path fill="#E7E7E7" d="M97,28h2v1h1v2h-1v-1h-2V28z"/>
<path fill="#802038" d="M101,28h1v1h-1V28z"/>
<path fill="#802038" d="M105,28h1v1h-1V28z"/>
<path fill="#E7E7E7" d="M108,28h2v2h-1v1h-2v1h-1v-1h-1v1h-4v-3h1v1h1v1h1v-1h1v-1h3V28z"/>
<path fill="#E7E7E7" d="M120,28h2v1h1v2h-1v-1h-2V28z"/>
<path fill="#EFEFEF" d="M122,28h1v1h-1V28z"/>
<path fill="#802038" d="M123,28h1v1h-1V28z"/>
<path fill="#802038" d="M129,28h1v1h-1V28z"/>
<path fill="#EFEFEF" d="M130,28h1v1h-1V28z"/>
<path fill="#E7E7E7" d="M131,28h2v2h-1v1h-2v1h-1v-1h-1v-1h1v-1h2V28z"/>
<path fill="#E7E7E7" d="M143,28h2v1h1v2h-1v-1h-2V28z"/>
<path fill="#EFEFEF" d="M145,28h1v1h-1V28z"/>
<path fill="#802038" d="M146,28h1v1h-1V28z"/>
<path fill="#802038" d="M152,28h1v1h-1V28z"/>
<path fill="#EFEFEF" d="M153,28h1v1h-1V28z"/>
<path fill="#E7E7E7" d="M154,28h2v2h-1v1h-2v1h-1v-1h-1v-1h1v-1h2V28z"/>
<path fill="#E7E7E7" d="M166,28h2v1h1v2h-1v-1h-2V28z"/>
<path fill="#EFEFEF" d="M168,28h1v1h-1V28z"/>
<path fill="#802038" d="M169,28h1v1h-1V28z"/>
<path fill="#802038" d="M175,28h1v1h-1V28z"/>
<path fill="#EFEFEF" d="M176,28h1v1h-1V28z"/>
<path fill="#E7E7E7" d="M177,28h2v2h-1v1h-2v1h-1v-1h-1v-1h1v-1h2V28z"/>
<path fill="#E7E7E7" d="M189,28h2v1h1v2h-1v-1h-2V28z"/>
<path fill="#EFEFEF" d="M191,28h1v1h-1V28z"/>
<path fill="#802038" d="M192,28h1v1h-1V28z"/>
<path fill="#802038" d="M198,28h1v1h-1V28z"/>
<path fill="#EFEFEF" d="M199,28h1v1h-1V28z"/>
<path fill="#E7E7E7" d="M200,28h2v2h-1v1h-2v1h-1v-1h-1v-1h1v-1h2V28z"/>
<path fill="#E6E6E6" d="M54,29h1v2h-1V29z"/>
<path fill="#E6E6E6" d="M77,29h1v2h-1V29z"/>
<path fill="#802038" d="M78,29h1v1h-1V29z"/>
<path fill="#802038" d="M82,29h1v1h-1V29z"/>
<path fill="#E6E6E6" d="M100,29h1v2h-1V29z"/>
<path fill="#802038" d="M102,29h1v1h-1V29z"/>
<path fill="#802038" d="M104,29h1v1h-1V29z"/>
<path fill="#E6E6E6" d="M123,29h1v2h-1V29z"/>
<path fill="#802038" d="M124,29h1v1h-1V29z"/>
<path fill="#802038" d="M128,29h1v1h-1V29z"/>
<path fill="#E6E6E6" d="M146,29h1v2h-1V29z"/>
<path fill="#802038" d="M147,29h1v1h-1V29z"/>
<path fill="#802038" d="M151,29h1v1h-1V29z"/>
<path fill="#E6E6E6" d="M169,29h1v2h-1V29z"/>
<path fill="#802038" d="M170,29h1v1h-1V29z"/>
<path fill="#802038" d="M174,29h1v1h-1V29z"/>
<path fill="#E6E6E6" d="M192,29h1v2h-1V29z"/>
<path fill="#802038" d="M193,29h1v1h-1V29z"/>
<path fill="#802038" d="M197,29h1v1h-1V29z"/>
<path fill="#E7E7E7" d="M30,30h2v1h5v-1h2v2h-3v1h-3v-1h-3V30z"/>
<path fill="#010101" d="M51,30h1v2h-1V30z"/>
<path fill="#E3E3E3" d="M52,30h1v1h-1V30z"/>
<path fill="#010101" d="M63,30h1v2h-1V30z"/>
<path fill="#010101" d="M74,30h1v2h-1V30z"/>
<path fill="#E3E3E3" d="M75,30h1v1h-1V30z"/>
<path fill="#E7E7E7" d="M78,30h1v1h1v1h-2V30z"/>
<path fill="#802038" d="M79,30h1v1h-1V30z"/>
<path fill="#802038" d="M81,30h1v1h-1V30z"/>
<path fill="#010101" d="M86,30h1v2h-1V30z"/>
<path fill="#010101" d="M97,30h1v2h-1V30z"/>
<path fill="#E3E3E3" d="M98,30h1v1h-1V30z"/>
<path fill="#802038" d="M103,30h1v1h-1V30z"/>
<path fill="#010101" d="M109,30h1v2h-1V30z"/>
<path fill="#010101" d="M120,30h1v2h-1V30z"/>
<path fill="#E3E3E3" d="M121,30h1v1h-1V30z"/>
<path fill="#E7E7E7" d="M124,30h1v1h1v1h-2V30z"/>
<path fill="#802038" d="M125,30h1v1h-1V30z"/>
<path fill="#802038" d="M127,30h1v1h-1V30z"/>
<path fill="#010101" d="M132,30h1v2h-1V30z"/>
<path fill="#010101" d="M143,30h1v2h-1V30z"/>
<path fill="#E3E3E3" d="M144,30h1v1h-1V30z"/>
<path fill="#E7E7E7" d="M147,30h1v1h1v1h-2V30z"/>
<path fill="#802038" d="M148,30h1v1h-1V30z"/>
<path fill="#802038" d="M150,30h1v1h-1V30z"/>
<path fill="#010101" d="M155,30h1v2h-1V30z"/>
<path fill="#010101" d="M166,30h1v2h-1V30z"/>
<path fill="#E3E3E3" d="M167,30h1v1h-1V30z"/>
<path fill="#E7E7E7" d="M170,30h1v1h1v1h-2V30z"/>
<path fill="#802038" d="M171,30h1v1h-1V30z"/>
<path fill="#802038" d="M173,30h1v1h-1V30z"/>
<path fill="#010101" d="M178,30h1v2h-1V30z"/>
<path fill="#010101" d="M189,30h1v2h-1V30z"/>
<path fill="#E3E3E3" d="M190,30h1v1h-1V30z"/>
<path fill="#E7E7E7" d="M193,30h1v1h1v1h-2V30z"/>
<path fill="#802038" d="M194,30h1v1h-1V30z"/>
<path fill="#802038" d="M196,30h1v1h-1V30z"/>
<path fill="#010101" d="M201,30h1v2h-1V30z"/>
<path fill="#DEDEDE" d="M52,31h2v1h7v-1h2v1h-1v1h-3v1h-3v-1h-3v-1h-1V31z"/>
<path fill="#E2E2E2" d="M54,31h1v1h-1V31z"/>
<path fill="#E6E6E6" d="M59,31h1v1h-1V31z"/>
<path fill="#DEDEDE" d="M75,31h2v1h7v-1h2v1h-1v1h-3v1h-3v-1h-3v-1h-1V31z"/>
<path fill="#E2E2E2" d="M77,31h1v1h-1V31z"/>
<path fill="#802038" d="M80,31h1v1h-1V31z"/>
<path fill="#E7E7E7" d="M81,31h1v1h-1V31z"/>
<path fill="#E6E6E6" d="M82,31h1v1h-1V31z"/>
<path fill="#DEDEDE" d="M98,31h2v1h7v-1h2v1h-1v1h-3v1h-3v-1h-3v-1h-1V31z"/>
<path fill="#E2E2E2" d="M100,31h1v1h-1V31z"/>
<path fill="#E6E6E6" d="M105,31h1v1h-1V31z"/>
<path fill="#DEDEDE" d="M121,31h2v1h7v-1h2v1h-1v1h-3v1h-3v-1h-3v-1h-1V31z"/>
<path fill="#E2E2E2" d="M123,31h1v1h-1V31z"/>
<path fill="#802038" d="M126,31h1v1h-1V31z"/>
<path fill="#E7E7E7" d="M127,31h1v1h-1V31z"/>
<path fill="#E6E6E6" d="M128,31h1v1h-1V31z"/>
<path fill="#DEDEDE" d="M144,31h2v1h7v-1h2v1h-1v1h-3v1h-3v-1h-3v-1h-1V31z"/>
<path fill="#E2E2E2" d="M146,31h1v1h-1V31z"/>
<path fill="#802038" d="M149,31h1v1h-1V31z"/>
<path fill="#E7E7E7" d="M150,31h1v1h-1V31z"/>
<path fill="#E6E6E6" d="M151,31h1v1h-1V31z"/>
<path fill="#DEDEDE" d="M167,31h2v1h7v-1h2v1h-1v1h-3v1h-3v-1h-3v-1h-1V31z"/>
<path fill="#E2E2E2" d="M169,31h1v1h-1V31z"/>
<path fill="#802038" d="M172,31h1v1h-1V31z"/>
<path fill="#E7E7E7" d="M173,31h1v1h-1V31z"/>
<path fill="#E6E6E6" d="M174,31h1v1h-1V31z"/>
<path fill="#DEDEDE" d="M190,31h2v1h7v-1h2v1h-1v1h-3v1h-3v-1h-3v-1h-1V31z"/>
<path fill="#E2E2E2" d="M192,31h1v1h-1V31z"/>
<path fill="#802038" d="M195,31h1v1h-1V31z"/>
<path fill="#E7E7E7" d="M196,31h1v1h-1V31z"/>
<path fill="#E6E6E6" d="M197,31h1v1h-1V31z"/>
<path fill="#010101" d="M30,32h1v1h-1V32z"/>
<path fill="#DEDEDE" d="M31,32h2v1h3v-1h2v1h-1v1h-5v-1h-1V32z"/>
<path fill="#010101" d="M38,32h1v1h-1V32z"/>
<path fill="#010101" d="M52,32h1v1h-1V32z"/>
<path fill="#010101" d="M62,32h1v1h-1V32z"/>
<path fill="#010101" d="M75,32h1v1h-1V32z"/>
<path fill="#010101" d="M85,32h1v1h-1V32z"/>
<path fill="#010101" d="M98,32h1v1h-1V32z"/>
<path fill="#010101" d="M108,32h1v1h-1V32z"/>
<path fill="#010101" d="M121,32h1v1h-1V32z"/>
<path fill="#010101" d="M131,32h1v1h-1V32z"/>
<path fill="#010101" d="M144,32h1v1h-1V32z"/>
<path fill="#010101" d="M154,32h1v1h-1V32z"/>
<path fill="#010101" d="M167,32h1v1h-1V32z"/>
<path fill="#010101" d="M177,32h1v1h-1V32z"/>
<path fill="#010101" d="M190,32h1v1h-1V32z"/>
<path fill="#010101" d="M200,32h1v1h-1V32z"/>
<path fill="#010101" d="M31,33h1v1h-1V33z"/>
<path fill="#010101" d="M37,33h1v1h-1V33z"/>
<path fill="#010101" d="M53,33h2v1h-2V33z"/>
<path fill="#CCCCCC" d="M55,33h1v1h-1V33z"/>
<path fill="#CCCCCC" d="M59,33h1v1h-1V33z"/>
<path fill="#010101" d="M60,33h2v1h-2V33z"/>
<path fill="#010101" d="M76,33h2v1h-2V33z"/>
<path fill="#CCCCCC" d="M78,33h1v1h-1V33z"/>
<path fill="#CCCCCC" d="M82,33h1v1h-1V33z"/>
<path fill="#010101" d="M83,33h2v1h-2V33z"/>
<path fill="#010101" d="M99,33h2v1h-2V33z"/>
<path fill="#CCCCCC" d="M101,33h1v1h-1V33z"/>
<path fill="#CCCCCC" d="M105,33h1v1h-1V33z"/>
<path fill="#010101" d="M106,33h2v1h-2V33z"/>
<path fill="#010101" d="M122,33h2v1h-2V33z"/>
<path fill="#CCCCCC" d="M124,33h1v1h-1V33z"/>
<path fill="#CCCCCC" d="M128,33h1v1h-1V33z"/>
<path fill="#010101" d="M129,33h2v1h-2V33z"/>
<path fill="#010101" d="M145,33h2v1h-2V33z"/>
<path fill="#CCCCCC" d="M147,33h1v1h-1V33z"/>
<path fill="#CCCCCC" d="M151,33h1v1h-1V33z"/>
<path fill="#010101" d="M152,33h2v1h-2V33z"/>
<path fill="#010101" d="M168,33h2v1h-2V33z"/>
<path fill="#CCCCCC" d="M170,33h1v1h-1V33z"/>
<path fill="#CCCCCC" d="M174,33h1v1h-1V33z"/>
<path fill="#010101" d="M175,33h2v1h-2V33z"/>
<path fill="#010101" d="M191,33h2v1h-2V33z"/>
<path fill="#CCCCCC" d="M193,33h1v1h-1V33z"/>
<path fill="#CCCCCC" d="M197,33h1v1h-1V33z"/>
<path fill="#010101" d="M198,33h2v1h-2V33z"/>
<path fill="#010101" d="M32,34h1v1h-1V34z"/>
<path fill="#CCCCCC" d="M33,34h3v1h-1v1h-1v-1h-1V34z"/>
<path fill="#010101" d="M36,34h1v1h-1V34z"/>
<path fill="#010101" d="M55,34h1v1h-1V34z"/>
<path fill="#CCCCCC" d="M56,34h3v1h-1v1h-1v-1h-1V34z"/>
<path fill="#010101" d="M59,34h1v1h-1V34z"/>
<path fill="#010101" d="M78,34h1v1h-1V34z"/>
<path fill="#CCCCCC" d="M79,34h3v1h-1v1h-1v-1h-1V34z"/>
<path fill="#010101" d="M82,34h1v1h-1V34z"/>
<path fill="#010101" d="M101,34h1v1h-1V34z"/>
<path fill="#CCCCCC" d="M102,34h3v1h-1v1h-1v-1h-1V34z"/>
<path fill="#010101" d="M105,34h1v1h-1V34z"/>
<path fill="#010101" d="M124,34h1v1h-1V34z"/>
<path fill="#CCCCCC" d="M125,34h3v1h-1v1h-1v-1h-1V34z"/>
<path fill="#010101" d="M128,34h1v1h-1V34z"/>
<path fill="#010101" d="M147,34h1v1h-1V34z"/>
<path fill="#CCCCCC" d="M148,34h3v1h-1v1h-1v-1h-1V34z"/>
<path fill="#010101" d="M151,34h1v1h-1V34z"/>
<path fill="#010101" d="M170,34h1v1h-1V34z"/>
<path fill="#CCCCCC" d="M171,34h3v1h-1v1h-1v-1h-1V34z"/>
<path fill="#010101" d="M174,34h1v1h-1V34z"/>
<path fill="#010101" d="M193,34h1v1h-1V34z"/>
<path fill="#CCCCCC" d="M194,34h3v1h-1v1h-1v-1h-1V34z"/>
<path fill="#010101" d="M197,34h1v1h-1V34z"/>
<path fill="#010101" d="M33,35h1v1h-1V35z"/>
<path fill="#010101" d="M35,35h1v1h-1V35z"/>
<path fill="#010101" d="M56,35h1v1h-1V35z"/>
<path fill="#010101" d="M58,35h1v1h-1V35z"/>
<path fill="#010101" d="M79,35h1v1h-1V35z"/>
<path fill="#010101" d="M81,35h1v1h-1V35z"/>
<path fill="#010101" d="M102,35h1v1h-1V35z"/>
<path fill="#010101" d="M104,35h1v1h-1V35z"/>
<path fill="#010101" d="M125,35h1v1h-1V35z"/>
<path fill="#010101" d="M127,35h1v1h-1V35z"/>
<path fill="#010101" d="M148,35h1v1h-1V35z"/>
<path fill="#010101" d="M150,35h1v1h-1V35z"/>
<path fill="#010101" d="M171,35h1v1h-1V35z"/>
<path fill="#010101" d="M173,35h1v1h-1V35z"/>
<path fill="#010101" d="M194,35h1v1h-1V35z"/>
<path fill="#010101" d="M196,35h1v1h-1V35z"/>
<path fill="#010101" d="M34,36h1v1h-1V36z"/>
<path fill="#010101" d="M57,36h1v1h-1V36z"/>
<path fill="#010101" d="M80,36h1v1h-1V36z"/>
<path fill="#010101" d="M103,36h1v1h-1V36z"/>
<path fill="#010101" d="M126,36h1v1h-1V36z"/>
<path fill="#010101" d="M149,36h1v1h-1V36z"/>
<path fill="#010101" d="M172,36h1v1h-1V36z"/>
<path fill="#010101" d="M195,36h1v1h-1V36z"/>
<path fill="#010101" d="M55,39h5v1h-5V39z"/>
<path fill="#010101" d="M78,39h5v1h-5V39z"/>
<path fill="#010101" d="M101,39h5v1h-5V39z"/>
<path fill="#010101" d="M124,39h5v1h-5V39z"/>
<path fill="#010101" d="M147,39h5v1h-5V39z"/>
<path fill="#010101" d="M170,39h5v1h-5V39z"/>
<path fill="#010101" d="M193,39h5v1h-5V39z"/>
<path fill="#010101" d="M216,39h5v1h-5V39z"/>
<path fill="#010101" d="M239,39h5v1h-5V39z"/>
<path fill="#010101" d="M262,39h5v1h-5V39z"/>
<path fill="#010101" d="M53,40h2v1h-2V40z"/>
<path fill="#FDFDFD" d="M55,40h1v1h-1V40z"/>
<path fill="#FCFCFC" d="M56,40h1v1h-1V40z"/>
<path fill="#FDFDFD" d="M57,40h1v1h-1V40z"/>
<path fill="#FCFCFC" d="M58,40h2v1h-1v1h-2v-1h1V40z"/>
<path fill="#010101" d="M60,40h2v1h-2V40z"/>
<path fill="#010101" d="M76,40h2v1h-2V40z"/>
<path fill="#FDFDFD" d="M78,40h1v1h-1V40z"/>
<path fill="#FCFCFC" d="M79,40h1v1h-1V40z"/>
<path fill="#FDFDFD" d="M80,40h1v1h-1V40z"/>
<path fill="#FCFCFC" d="M81,40h2v1h-1v1h-2v-1h1V40z"/>
<path fill="#010101" d="M83,40h2v1h-2V40z"/>
<path fill="#010101" d="M99,40h2v1h-2V40z"/>
<path fill="#FDFDFD" d="M101,40h1v1h-1V40z"/>
<path fill="#FCFCFC" d="M102,40h1v1h-1V40z"/>
<path fill="#FDFDFD" d="M103,40h1v1h-1V40z"/>
<path fill="#FCFCFC" d="M104,40h2v1h-1v1h-2v-1h1V40z"/>
<path fill="#010101" d="M106,40h2v1h-2V40z"/>
<path fill="#010101" d="M122,40h2v1h-2V40z"/>
<path fill="#FDFDFD" d="M124,40h1v1h-1V40z"/>
<path fill="#FCFCFC" d="M125,40h1v1h-1V40z"/>
<path fill="#FDFDFD" d="M126,40h1v1h-1V40z"/>
<path fill="#FCFCFC" d="M127,40h2v1h-1v1h-2v-1h1V40z"/>
<path fill="#010101" d="M129,40h2v1h-2V40z"/>
<path fill="#010101" d="M145,40h2v1h-2V40z"/>
<path fill="#FDFDFD" d="M147,40h1v1h-1V40z"/>
<path fill="#FCFCFC" d="M148,40h1v1h-1V40z"/>
<path fill="#FDFDFD" d="M149,40h1v1h-1V40z"/>
<path fill="#FCFCFC" d="M150,40h2v1h-1v1h-2v-1h1V40z"/>
<path fill="#010101" d="M152,40h2v1h-2V40z"/>
<path fill="#010101" d="M168,40h2v1h-2V40z"/>
<path fill="#FDFDFD" d="M170,40h1v1h-1V40z"/>
<path fill="#FCFCFC" d="M171,40h1v1h-1V40z"/>
<path fill="#FDFDFD" d="M172,40h1v1h-1V40z"/>
<path fill="#FCFCFC" d="M173,40h2v1h-1v1h-2v-1h1V40z"/>
<path fill="#010101" d="M175,40h2v1h-2V40z"/>
<path fill="#010101" d="M191,40h2v1h-2V40z"/>
<path fill="#FDFDFD" d="M193,40h1v1h-1V40z"/>
<path fill="#FCFCFC" d="M194,40h1v1h-1V40z"/>
<path fill="#FDFDFD" d="M195,40h1v1h-1V40z"/>
<path fill="#FCFCFC" d="M196,40h2v1h-1v1h-2v-1h1V40z"/>
<path fill="#010101" d="M198,40h2v1h-2V40z"/>
<path fill="#010101" d="M214,40h2v1h-2V40z"/>
<path fill="#FDFDFD" d="M216,40h1v1h-1V40z"/>
<path fill="#FCFCFC" d="M217,40h1v1h-1V40z"/>
<path fill="#FDFDFD" d="M218,40h1v1h-1V40z"/>
<path fill="#FCFCFC" d="M219,40h2v1h-1v1h-2v-1h1V40z"/>
<path fill="#010101" d="M221,40h2v1h-2V40z"/>
<path fill="#010101" d="M237,40h2v1h-2V40z"/>
<path fill="#FDFDFD" d="M239,40h1v1h-1V40z"/>
<path fill="#FCFCFC" d="M240,40h1v1h-1V40z"/>
<path fill="#FDFDFD" d="M241,40h1v1h-1V40z"/>
<path fill="#FCFCFC" d="M242,40h2v1h-1v1h-2v-1h1V40z"/>
<path fill="#010101" d="M244,40h2v1h-2V40z"/>
<path fill="#010101" d="M260,40h2v1h-2V40z"/>
<path fill="#FDFDFD" d="M262,40h1v1h-1V40z"/>
<path fill="#FCFCFC" d="M263,40h1v1h-1V40z"/>
<path fill="#FDFDFD" d="M264,40h1v1h-1V40z"/>
<path fill="#FCFCFC" d="M265,40h2v1h-1v1h-2v-1h1V40z"/>
<path fill="#010101" d="M267,40h2v1h-2V40z"/>
<path fill="#010101" d="M52,41h1v1h-1V41z"/>
<path fill="#F8F8F8" d="M53,41h1v1h7v-1h1v1h1v2h-1v1h-9v-1h-1v-2h1V41z"/>
<path fill="#FDFDFD" d="M54,41h1v1h-1V41z"/>
<path fill="#FCFCFC" d="M55,41h1v1h-1V41z"/>
<path fill="#FDFDFD" d="M56,41h1v1h-1V41z"/>
<path fill="#FDFDFD" d="M59,41h2v1h-2V41z"/>
<path fill="#010101" d="M62,41h1v1h-1V41z"/>
<path fill="#010101" d="M75,41h1v1h-1V41z"/>
<path fill="#F8F8F8" d="M76,41h1v1h7v-1h1v1h1v2h-1v1h-9v-1h-1v-2h1V41z"/>
<path fill="#FDFDFD" d="M77,41h1v1h-1V41z"/>
<path fill="#FCFCFC" d="M78,41h1v1h-1V41z"/>
<path fill="#FDFDFD" d="M79,41h1v1h-1V41z"/>
<path fill="#FDFDFD" d="M82,41h2v1h-2V41z"/>
<path fill="#010101" d="M85,41h1v1h-1V41z"/>
<path fill="#010101" d="M98,41h1v1h-1V41z"/>
<path fill="#F8F8F8" d="M99,41h1v1h7v-1h1v1h1v2h-1v1h-9v-1h-1v-2h1V41z"/>
<path fill="#FDFDFD" d="M100,41h1v1h-1V41z"/>
<path fill="#FCFCFC" d="M101,41h1v1h-1V41z"/>
<path fill="#FDFDFD" d="M102,41h1v1h-1V41z"/>
<path fill="#FDFDFD" d="M105,41h2v1h-2V41z"/>
<path fill="#010101" d="M108,41h1v1h-1V41z"/>
<path fill="#010101" d="M121,41h1v1h-1V41z"/>
<path fill="#F8F8F8" d="M122,41h1v1h7v-1h1v1h1v2h-1v1h-9v-1h-1v-2h1V41z"/>
<path fill="#FDFDFD" d="M123,41h1v1h-1V41z"/>
<path fill="#FCFCFC" d="M124,41h1v1h-1V41z"/>
<path fill="#FDFDFD" d="M125,41h1v1h-1V41z"/>
<path fill="#FDFDFD" d="M128,41h2v1h-2V41z"/>
<path fill="#010101" d="M131,41h1v1h-1V41z"/>
<path fill="#010101" d="M144,41h1v1h-1V41z"/>
<path fill="#F8F8F8" d="M145,41h1v1h7v-1h1v1h1v2h-1v1h-9v-1h-1v-2h1V41z"/>
<path fill="#FDFDFD" d="M146,41h1v1h-1V41z"/>
<path fill="#FCFCFC" d="M147,41h1v1h-1V41z"/>
<path fill="#FDFDFD" d="M148,41h1v1h-1V41z"/>
<path fill="#FDFDFD" d="M151,41h2v1h-2V41z"/>
<path fill="#010101" d="M154,41h1v1h-1V41z"/>
<path fill="#010101" d="M167,41h1v1h-1V41z"/>
<path fill="#F8F8F8" d="M168,41h1v1h7v-1h1v1h1v2h-1v1h-9v-1h-1v-2h1V41z"/>
<path fill="#FDFDFD" d="M169,41h1v1h-1V41z"/>
<path fill="#FCFCFC" d="M170,41h1v1h-1V41z"/>
<path fill="#FDFDFD" d="M171,41h1v1h-1V41z"/>
<path fill="#FDFDFD" d="M174,41h2v1h-2V41z"/>
<path fill="#010101" d="M177,41h1v1h-1V41z"/>
<path fill="#010101" d="M190,41h1v1h-1V41z"/>
<path fill="#F8F8F8" d="M191,41h1v1h7v-1h1v1h1v2h-1v1h-9v-1h-1v-2h1V41z"/>
<path fill="#FDFDFD" d="M192,41h1v1h-1V41z"/>
<path fill="#FCFCFC" d="M193,41h1v1h-1V41z"/>
<path fill="#FDFDFD" d="M194,41h1v1h-1V41z"/>
<path fill="#FDFDFD" d="M197,41h2v1h-2V41z"/>
<path fill="#010101" d="M200,41h1v1h-1V41z"/>
<path fill="#010101" d="M213,41h1v1h-1V41z"/>
<path fill="#F8F8F8" d="M214,41h1v1h7v-1h1v1h1v2h-1v1h-9v-1h-1v-2h1V41z"/>
<path fill="#FDFDFD" d="M215,41h1v1h-1V41z"/>
<path fill="#FCFCFC" d="M216,41h1v1h-1V41z"/>
<path fill="#FDFDFD" d="M217,41h1v1h-1V41z"/>
<path fill="#FDFDFD" d="M220,41h2v1h-2V41z"/>
<path fill="#010101" d="M223,41h1v1h-1V41z"/>
<path fill="#010101" d="M236,41h1v1h-1V41z"/>
<path fill="#F8F8F8" d="M237,41h1v1h7v-1h1v1h1v2h-1v1h-9v-1h-1v-2h1V41z"/>
<path fill="#FDFDFD" d="M238,41h1v1h-1V41z"/>
<path fill="#FCFCFC" d="M239,41h1v1h-1V41z"/>
<path fill="#FDFDFD" d="M240,41h1v1h-1V41z"/>
<path fill="#FDFDFD" d="M243,41h2v1h-2V41z"/>
<path fill="#010101" d="M246,41h1v1h-1V41z"/>
<path fill="#010101" d="M259,41h1v1h-1V41z"/>
<path fill="#F8F8F8" d="M260,41h1v1h7v-1h1v1h1v2h-1v1h-9v-1h-1v-2h1V41z"/>
<path fill="#FDFDFD" d="M261,41h1v1h-1V41z"/>
<path fill="#FCFCFC" d="M262,41h1v1h-1V41z"/>
<path fill="#FDFDFD" d="M263,41h1v1h-1V41z"/>
<path fill="#FDFDFD" d="M266,41h2v1h-2V41z"/>
<path fill="#010101" d="M269,41h1v1h-1V41z"/>
<path fill="#010101" d="M51,42h1v2h-1V42z"/>
<path fill="#010101" d="M63,42h1v2h-1V42z"/>
<path fill="#010101" d="M74,42h1v2h-1V42z"/>
<path fill="#010101" d="M86,42h1v2h-1V42z"/>
<path fill="#010101" d="M97,42h1v2h-1V42z"/>
<path fill="#010101" d="M109,42h1v2h-1V42z"/>
<path fill="#010101" d="M120,42h1v2h-1V42z"/>
<path fill="#010101" d="M132,42h1v2h-1V42z"/>
<path fill="#010101" d="M143,42h1v2h-1V42z"/>
<path fill="#010101" d="M155,42h1v2h-1V42z"/>
<path fill="#010101" d="M166,42h1v2h-1V42z"/>
<path fill="#010101" d="M178,42h1v2h-1V42z"/>
<path fill="#010101" d="M189,42h1v2h-1V42z"/>
<path fill="#010101" d="M201,42h1v2h-1V42z"/>
<path fill="#010101" d="M212,42h1v2h-1V42z"/>
<path fill="#010101" d="M224,42h1v2h-1V42z"/>
<path fill="#010101" d="M235,42h1v2h-1V42z"/>
<path fill="#010101" d="M247,42h1v2h-1V42z"/>
<path fill="#010101" d="M258,42h1v2h-1V42z"/>
<path fill="#010101" d="M270,42h1v2h-1V42z"/>
<path fill="#010101" d="M32,43h5v1h-5V43z"/>
<path fill="#010101" d="M31,44h1v1h-1V44z"/>
<path fill="#FDFDFD" d="M32,44h5v1h-1v1h-3v-1h-1V44z"/>
<path fill="#010101" d="M37,44h1v1h-1V44z"/>
<path fill="#010101" d="M50,44h1v5h-1V44z"/>
<path fill="#EFEFEF" d="M51,44h2v1h9v-1h2v3h-2v1h-9v-1h-2V44z"/>
<path fill="#010101" d="M64,44h1v5h-1V44z"/>
<path fill="#010101" d="M73,44h1v5h-1V44z"/>
<path fill="#EFEFEF" d="M74,44h2v1h9v-1h2v3h-2v1h-6v-1h-1v1h-2v-1h-2V44z"/>
<path fill="#010101" d="M87,44h1v5h-1V44z"/>
<path fill="#010101" d="M96,44h1v5h-1V44z"/>
<path fill="#EFEFEF" d="M97,44h2v1h9v-1h2v3h-2v1h-6v-1h-1v1h-2v-1h-2V44z"/>
<path fill="#010101" d="M110,44h1v5h-1V44z"/>
<path fill="#010101" d="M119,44h1v5h-1V44z"/>
<path fill="#EFEFEF" d="M120,44h2v1h9v-1h2v3h-2v1h-4v-1h-1v1h-1v-1h-1v1h-2v-1h-2V44z"/>
<path fill="#010101" d="M133,44h1v5h-1V44z"/>
<path fill="#010101" d="M142,44h1v5h-1V44z"/>
<path fill="#EFEFEF" d="M143,44h2v1h9v-1h2v3h-2v1h-4v-1h-1v1h-1v-1h-1v1h-2v-1h-2V44z"/>
<path fill="#010101" d="M156,44h1v5h-1V44z"/>
<path fill="#010101" d="M165,44h1v5h-1V44z"/>
<path fill="#EFEFEF" d="M166,44h2v1h9v-1h2v3h-2v1h-2v-1h-1v1h-1v-1h-1v1h-1v-1h-1v1h-2v-1h-2V44z"/>
<path fill="#010101" d="M179,44h1v5h-1V44z"/>
<path fill="#010101" d="M188,44h1v5h-1V44z"/>
<path fill="#EFEFEF" d="M189,44h2v1h9v-1h2v3h-2v1h-2v-1h-1v1h-1v-1h-1v1h-1v-1h-1v1h-2v-1h-2V44z"/>
<path fill="#010101" d="M202,44h1v5h-1V44z"/>
<path fill="#010101" d="M211,44h1v5h-1V44z"/>
<path fill="#EFEFEF" d="M212,44h2v1h9v-1h2v3h-2v1h-2v-1h-1v1h-1v-1h-1v1h-1v-1h-1v1h-2v-1h-2V44z"/>
<path fill="#010101" d="M225,44h1v5h-1V44z"/>
<path fill="#010101" d="M234,44h1v5h-1V44z"/>
<path fill="#EFEFEF" d="M235,44h2v1h9v-1h2v3h-2v1h-2v-1h-1v1h-1v-1h-1v1h-1v-1h-1v1h-2v-1h-2V44z"/>
<path fill="#010101" d="M248,44h1v5h-1V44z"/>
<path fill="#010101" d="M257,44h1v5h-1V44z"/>
<path fill="#EFEFEF" d="M258,44h2v1h9v-1h2v3h-2v1h-2v-1h-1v1h-1v-1h-1v1h-1v-1h-1v1h-2v-1h-2V44z"/>
<path fill="#010101" d="M271,44h1v5h-1V44z"/>
<path fill="#010101" d="M30,45h1v1h-1V45z"/>
<path fill="#F8F8F8" d="M31,45h2v1h3v-1h2v1h1v1h-2v1h-5v-1h-2v-1h1V45z"/>
<path fill="#010101" d="M38,45h1v1h-1V45z"/>
<path fill="#010101" d="M29,46h1v5h-1V46z"/>
<path fill="#010101" d="M39,46h1v5h-1V46z"/>
<path fill="#EFEFEF" d="M30,47h2v1h5v-1h2v2h-2v1h-5v-1h-2V47z"/>
<path fill="#E7E7E7" d="M51,47h2v1h1v2h-1v-1h-2V47z"/>
<path fill="#E7E7E7" d="M62,47h2v2h-1v1h-2v1h-1v-1h-1v1h-4v-3h7V47z"/>
<path fill="#E7E7E7" d="M74,47h2v1h1v2h-1v-1h-2V47z"/>
<path fill="#010101" d="M78,47h1v1h-1V47z"/>
<path fill="#E7E7E7" d="M85,47h2v2h-1v1h-2v1h-1v-1h-1v1h-4v-3h7V47z"/>
<path fill="#E7E7E7" d="M97,47h2v1h1v2h-1v-1h-2V47z"/>
<path fill="#010101" d="M101,47h1v1h-1V47z"/>
<path fill="#E7E7E7" d="M108,47h2v2h-1v1h-2v1h-1v-1h-1v1h-4v-3h7V47z"/>
<path fill="#E7E7E7" d="M120,47h2v1h1v2h-1v-1h-2V47z"/>
<path fill="#010101" d="M124,47h1v1h-1V47z"/>
<path fill="#010101" d="M126,47h1v1h-1V47z"/>
<path fill="#E7E7E7" d="M131,47h2v2h-1v1h-2v1h-1v-1h-1v1h-4v-3h7V47z"/>
<path fill="#E7E7E7" d="M143,47h2v1h1v2h-1v-1h-2V47z"/>
<path fill="#010101" d="M147,47h1v1h-1V47z"/>
<path fill="#010101" d="M149,47h1v1h-1V47z"/>
<path fill="#E7E7E7" d="M154,47h2v2h-1v1h-2v1h-1v-1h-1v1h-4v-3h7V47z"/>
<path fill="#E7E7E7" d="M166,47h2v1h1v2h-1v-1h-2V47z"/>
<path fill="#010101" d="M170,47h1v1h-1V47z"/>
<path fill="#010101" d="M172,47h1v1h-1V47z"/>
<path fill="#010101" d="M174,47h1v1h-1V47z"/>
<path fill="#E7E7E7" d="M177,47h2v2h-1v1h-2v1h-1v-1h-1v1h-4v-3h7V47z"/>
<path fill="#E7E7E7" d="M189,47h2v1h1v2h-1v-1h-2V47z"/>
<path fill="#010101" d="M193,47h1v1h-1V47z"/>
<path fill="#010101" d="M195,47h1v1h-1V47z"/>
<path fill="#010101" d="M197,47h1v1h-1V47z"/>
<path fill="#E7E7E7" d="M200,47h2v2h-1v1h-2v1h-1v-1h-1v1h-4v-3h7V47z"/>
<path fill="#E7E7E7" d="M212,47h2v1h1v2h-1v-1h-2V47z"/>
<path fill="#010101" d="M216,47h1v1h-1V47z"/>
<path fill="#010101" d="M218,47h1v1h-1V47z"/>
<path fill="#010101" d="M220,47h1v1h-1V47z"/>
<path fill="#E7E7E7" d="M223,47h2v2h-1v1h-2v1h-1v-1h-1v1h-4v-3h7V47z"/>
<path fill="#E7E7E7" d="M235,47h2v1h1v2h-1v-1h-2V47z"/>
<path fill="#010101" d="M239,47h1v1h-1V47z"/>
<path fill="#010101" d="M241,47h1v1h-1V47z"/>
<path fill="#010101" d="M243,47h1v1h-1V47z"/>
<path fill="#E7E7E7" d="M246,47h2v2h-1v1h-2v1h-1v-1h-1v1h-4v-3h7V47z"/>
<path fill="#E7E7E7" d="M258,47h2v1h1v2h-1v-1h-2V47z"/>
<path fill="#010101" d="M262,47h1v1h-1V47z"/>
<path fill="#010101" d="M264,47h1v1h-1V47z"/>
<path fill="#010101" d="M266,47h1v1h-1V47z"/>
<path fill="#E7E7E7" d="M269,47h2v2h-1v1h-2v1h-1v-1h-1v1h-4v-3h7V47z"/>
<path fill="#E6E6E6" d="M54,48h1v2h-1V48z"/>
<path fill="#E6E6E6" d="M77,48h1v2h-1V48z"/>
<path fill="#E6E6E6" d="M100,48h1v2h-1V48z"/>
<path fill="#E6E6E6" d="M123,48h1v2h-1V48z"/>
<path fill="#E6E6E6" d="M146,48h1v2h-1V48z"/>
<path fill="#E6E6E6" d="M169,48h1v2h-1V48z"/>
<path fill="#E6E6E6" d="M192,48h1v2h-1V48z"/>
<path fill="#E6E6E6" d="M215,48h1v2h-1V48z"/>
<path fill="#E6E6E6" d="M238,48h1v2h-1V48z"/>
<path fill="#E6E6E6" d="M261,48h1v2h-1V48z"/>
<path fill="#E7E7E7" d="M30,49h2v1h5v-1h2v2h-3v1h-3v-1h-3V49z"/>
<path fill="#010101" d="M51,49h1v2h-1V49z"/>
<path fill="#E3E3E3" d="M52,49h1v1h-1V49z"/>
<path fill="#010101" d="M63,49h1v2h-1V49z"/>
<path fill="#010101" d="M74,49h1v2h-1V49z"/>
<path fill="#E3E3E3" d="M75,49h1v1h-1V49z"/>
<path fill="#010101" d="M86,49h1v2h-1V49z"/>
<path fill="#010101" d="M97,49h1v2h-1V49z"/>
<path fill="#E3E3E3" d="M98,49h1v1h-1V49z"/>
<path fill="#010101" d="M109,49h1v2h-1V49z"/>
<path fill="#010101" d="M120,49h1v2h-1V49z"/>
<path fill="#E3E3E3" d="M121,49h1v1h-1V49z"/>
<path fill="#010101" d="M132,49h1v2h-1V49z"/>
<path fill="#010101" d="M143,49h1v2h-1V49z"/>
<path fill="#E3E3E3" d="M144,49h1v1h-1V49z"/>
<path fill="#010101" d="M155,49h1v2h-1V49z"/>
<path fill="#010101" d="M166,49h1v2h-1V49z"/>
<path fill="#E3E3E3" d="M167,49h1v1h-1V49z"/>
<path fill="#010101" d="M178,49h1v2h-1V49z"/>
<path fill="#010101" d="M189,49h1v2h-1V49z"/>
<path fill="#E3E3E3" d="M190,49h1v1h-1V49z"/>
<path fill="#010101" d="M201,49h1v2h-1V49z"/>
<path fill="#010101" d="M212,49h1v2h-1V49z"/>
<path fill="#E3E3E3" d="M213,49h1v1h-1V49z"/>
<path fill="#010101" d="M224,49h1v2h-1V49z"/>
<path fill="#010101" d="M235,49h1v2h-1V49z"/>
<path fill="#E3E3E3" d="M236,49h1v1h-1V49z"/>
<path fill="#010101" d="M247,49h1v2h-1V49z"/>
<path fill="#010101" d="M258,49h1v2h-1V49z"/>
<path fill="#E3E3E3" d="M259,49h1v1h-1V49z"/>
<path fill="#010101" d="M270,49h1v2h-1V49z"/>
<path fill="#DEDEDE" d="M52,50h2v1h7v-1h2v1h-1v1h-3v1h-3v-1h-3v-1h-1V50z"/>
<path fill="#E2E2E2" d="M54,50h1v1h-1V50z"/>
<path fill="#E6E6E6" d="M59,50h1v1h-1V50z"/>
<path fill="#DEDEDE" d="M75,50h2v1h7v-1h2v1h-1v1h-3v1h-3v-1h-3v-1h-1V50z"/>
<path fill="#E2E2E2" d="M77,50h1v1h-1V50z"/>
<path fill="#E6E6E6" d="M82,50h1v1h-1V50z"/>
<path fill="#DEDEDE" d="M98,50h2v1h7v-1h2v1h-1v1h-3v1h-3v-1h-3v-1h-1V50z"/>
<path fill="#E2E2E2" d="M100,50h1v1h-1V50z"/>
<path fill="#E6E6E6" d="M105,50h1v1h-1V50z"/>
<path fill="#DEDEDE" d="M121,50h2v1h7v-1h2v1h-1v1h-3v1h-3v-1h-3v-1h-1V50z"/>
<path fill="#E2E2E2" d="M123,50h1v1h-1V50z"/>
<path fill="#E6E6E6" d="M128,50h1v1h-1V50z"/>
<path fill="#DEDEDE" d="M144,50h2v1h7v-1h2v1h-1v1h-3v1h-3v-1h-3v-1h-1V50z"/>
<path fill="#E2E2E2" d="M146,50h1v1h-1V50z"/>
<path fill="#E6E6E6" d="M151,50h1v1h-1V50z"/>
<path fill="#DEDEDE" d="M167,50h2v1h7v-1h2v1h-1v1h-3v1h-3v-1h-3v-1h-1V50z"/>
<path fill="#E2E2E2" d="M169,50h1v1h-1V50z"/>
<path fill="#E6E6E6" d="M174,50h1v1h-1V50z"/>
<path fill="#DEDEDE" d="M190,50h2v1h7v-1h2v1h-1v1h-3v1h-3v-1h-3v-1h-1V50z"/>
<path fill="#E2E2E2" d="M192,50h1v1h-1V50z"/>
<path fill="#E6E6E6" d="M197,50h1v1h-1V50z"/>
<path fill="#DEDEDE" d="M213,50h2v1h7v-1h2v1h-1v1h-3v1h-3v-1h-3v-1h-1V50z"/>
<path fill="#E2E2E2" d="M215,50h1v1h-1V50z"/>
<path fill="#E6E6E6" d="M220,50h1v1h-1V50z"/>
<path fill="#DEDEDE" d="M236,50h2v1h7v-1h2v1h-1v1h-3v1h-3v-1h-3v-1h-1V50z"/>
<path fill="#E2E2E2" d="M238,50h1v1h-1V50z"/>
<path fill="#E6E6E6" d="M243,50h1v1h-1V50z"/>
<path fill="#DEDEDE" d="M259,50h2v1h7v-1h2v1h-1v1h-3v1h-3v-1h-3v-1h-1V50z"/>
<path fill="#E2E2E2" d="M261,50h1v1h-1V50z"/>
<path fill="#E6E6E6" d="M266,50h1v1h-1V50z"/>
<path fill="#010101" d="M30,51h1v1h-1V51z"/>
<path fill="#DEDEDE" d="M31,51h2v1h3v-1h2v1h-1v1h-5v-1h-1V51z"/>
<path fill="#010101" d="M38,51h1v1h-1V51z"/>
<path fill="#010101" d="M52,51h1v1h-1V51z"/>
<path fill="#010101" d="M62,51h1v1h-1V51z"/>
<path fill="#010101" d="M75,51h1v1h-1V51z"/>
<path fill="#010101" d="M85,51h1v1h-1V51z"/>
<path fill="#010101" d="M98,51h1v1h-1V51z"/>
<path fill="#010101" d="M108,51h1v1h-1V51z"/>
<path fill="#010101" d="M121,51h1v1h-1V51z"/>
<path fill="#010101" d="M131,51h1v1h-1V51z"/>
<path fill="#010101" d="M144,51h1v1h-1V51z"/>
<path fill="#010101" d="M154,51h1v1h-1V51z"/>
<path fill="#010101" d="M167,51h1v1h-1V51z"/>
<path fill="#010101" d="M177,51h1v1h-1V51z"/>
<path fill="#010101" d="M190,51h1v1h-1V51z"/>
<path fill="#010101" d="M200,51h1v1h-1V51z"/>
<path fill="#010101" d="M213,51h1v1h-1V51z"/>
<path fill="#010101" d="M223,51h1v1h-1V51z"/>
<path fill="#010101" d="M236,51h1v1h-1V51z"/>
<path fill="#010101" d="M246,51h1v1h-1V51z"/>
<path fill="#010101" d="M259,51h1v1h-1V51z"/>
<path fill="#010101" d="M269,51h1v1h-1V51z"/>
<path fill="#010101" d="M31,52h1v1h-1V52z"/>
<path fill="#010101" d="M37,52h1v1h-1V52z"/>
<path fill="#010101" d="M53,52h2v1h-2V52z"/>
<path fill="#CCCCCC" d="M55,52h1v1h-1V52z"/>
<path fill="#CCCCCC" d="M59,52h1v1h-1V52z"/>
<path fill="#010101" d="M60,52h2v1h-2V52z"/>
<path fill="#010101" d="M76,52h2v1h-2V52z"/>
<path fill="#CCCCCC" d="M78,52h1v1h-1V52z"/>
<path fill="#CCCCCC" d="M82,52h1v1h-1V52z"/>
<path fill="#010101" d="M83,52h2v1h-2V52z"/>
<path fill="#010101" d="M99,52h2v1h-2V52z"/>
<path fill="#CCCCCC" d="M101,52h1v1h-1V52z"/>
<path fill="#CCCCCC" d="M105,52h1v1h-1V52z"/>
<path fill="#010101" d="M106,52h2v1h-2V52z"/>
<path fill="#010101" d="M122,52h2v1h-2V52z"/>
<path fill="#CCCCCC" d="M124,52h1v1h-1V52z"/>
<path fill="#CCCCCC" d="M128,52h1v1h-1V52z"/>
<path fill="#010101" d="M129,52h2v1h-2V52z"/>
<path fill="#010101" d="M145,52h2v1h-2V52z"/>
<path fill="#CCCCCC" d="M147,52h1v1h-1V52z"/>
<path fill="#CCCCCC" d="M151,52h1v1h-1V52z"/>
<path fill="#010101" d="M152,52h2v1h-2V52z"/>
<path fill="#010101" d="M168,52h2v1h-2V52z"/>
<path fill="#CCCCCC" d="M170,52h1v1h-1V52z"/>
<path fill="#CCCCCC" d="M174,52h1v1h-1V52z"/>
<path fill="#010101" d="M175,52h2v1h-2V52z"/>
<path fill="#010101" d="M191,52h2v1h-2V52z"/>
<path fill="#CCCCCC" d="M193,52h1v1h-1V52z"/>
<path fill="#CCCCCC" d="M197,52h1v1h-1V52z"/>
<path fill="#010101" d="M198,52h2v1h-2V52z"/>
<path fill="#010101" d="M214,52h2v1h-2V52z"/>
<path fill="#CCCCCC" d="M216,52h1v1h-1V52z"/>
<path fill="#CCCCCC" d="M220,52h1v1h-1V52z"/>
<path fill="#010101" d="M221,52h2v1h-2V52z"/>
<path fill="#010101" d="M237,52h2v1h-2V52z"/>
<path fill="#CCCCCC" d="M239,52h1v1h-1V52z"/>
<path fill="#CCCCCC" d="M243,52h1v1h-1V52z"/>
<path fill="#010101" d="M244,52h2v1h-2V52z"/>
<path fill="#010101" d="M260,52h2v1h-2V52z"/>
<path fill="#CCCCCC" d="M262,52h1v1h-1V52z"/>
<path fill="#CCCCCC" d="M266,52h1v1h-1V52z"/>
<path fill="#010101" d="M267,52h2v1h-2V52z"/>
<path fill="#010101" d="M32,53h1v1h-1V53z"/>
<path fill="#CCCCCC" d="M33,53h3v1h-1v1h-1v-1h-1V53z"/>
<path fill="#010101" d="M36,53h1v1h-1V53z"/>
<path fill="#010101" d="M55,53h1v1h-1V53z"/>
<path fill="#CCCCCC" d="M56,53h3v1h-1v1h-1v-1h-1V53z"/>
<path fill="#010101" d="M59,53h1v1h-1V53z"/>
<path fill="#010101" d="M78,53h1v1h-1V53z"/>
<path fill="#CCCCCC" d="M79,53h3v1h-1v1h-1v-1h-1V53z"/>
<path fill="#010101" d="M82,53h1v1h-1V53z"/>
<path fill="#010101" d="M101,53h1v1h-1V53z"/>
<path fill="#CCCCCC" d="M102,53h3v1h-1v1h-1v-1h-1V53z"/>
<path fill="#010101" d="M105,53h1v1h-1V53z"/>
<path fill="#010101" d="M124,53h1v1h-1V53z"/>
<path fill="#CCCCCC" d="M125,53h3v1h-1v1h-1v-1h-1V53z"/>
<path fill="#010101" d="M128,53h1v1h-1V53z"/>
<path fill="#010101" d="M147,53h1v1h-1V53z"/>
<path fill="#CCCCCC" d="M148,53h3v1h-1v1h-1v-1h-1V53z"/>
<path fill="#010101" d="M151,53h1v1h-1V53z"/>
<path fill="#010101" d="M170,53h1v1h-1V53z"/>
<path fill="#CCCCCC" d="M171,53h3v1h-1v1h-1v-1h-1V53z"/>
<path fill="#010101" d="M174,53h1v1h-1V53z"/>
<path fill="#010101" d="M193,53h1v1h-1V53z"/>
<path fill="#CCCCCC" d="M194,53h3v1h-1v1h-1v-1h-1V53z"/>
<path fill="#010101" d="M197,53h1v1h-1V53z"/>
<path fill="#010101" d="M216,53h1v1h-1V53z"/>
<path fill="#CCCCCC" d="M217,53h3v1h-1v1h-1v-1h-1V53z"/>
<path fill="#010101" d="M220,53h1v1h-1V53z"/>
<path fill="#010101" d="M239,53h1v1h-1V53z"/>
<path fill="#CCCCCC" d="M240,53h3v1h-1v1h-1v-1h-1V53z"/>
<path fill="#010101" d="M243,53h1v1h-1V53z"/>
<path fill="#010101" d="M262,53h1v1h-1V53z"/>
<path fill="#CCCCCC" d="M263,53h3v1h-1v1h-1v-1h-1V53z"/>
<path fill="#010101" d="M266,53h1v1h-1V53z"/>
<path fill="#010101" d="M33,54h1v1h-1V54z"/>
<path fill="#010101" d="M35,54h1v1h-1V54z"/>
<path fill="#010101" d="M56,54h1v1h-1V54z"/>
<path fill="#010101" d="M58,54h1v1h-1V54z"/>
<path fill="#010101" d="M79,54h1v1h-1V54z"/>
<path fill="#010101" d="M81,54h1v1h-1V54z"/>
<path fill="#010101" d="M102,54h1v1h-1V54z"/>
<path fill="#010101" d="M104,54h1v1h-1V54z"/>
<path fill="#010101" d="M125,54h1v1h-1V54z"/>
<path fill="#010101" d="M127,54h1v1h-1V54z"/>
<path fill="#010101" d="M148,54h1v1h-1V54z"/>
<path fill="#010101" d="M150,54h1v1h-1V54z"/>
<path fill="#010101" d="M171,54h1v1h-1V54z"/>
<path fill="#010101" d="M173,54h1v1h-1V54z"/>
<path fill="#010101" d="M194,54h1v1h-1V54z"/>
<path fill="#010101" d="M196,54h1v1h-1V54z"/>
<path fill="#010101" d="M217,54h1v1h-1V54z"/>
<path fill="#010101" d="M219,54h1v1h-1V54z"/>
<path fill="#010101" d="M240,54h1v1h-1V54z"/>
<path fill="#010101" d="M242,54h1v1h-1V54z"/>
<path fill="#010101" d="M263,54h1v1h-1V54z"/>
<path fill="#010101" d="M265,54h1v1h-1V54z"/>
<path fill="#010101" d="M34,55h1v1h-1V55z"/>
<path fill="#010101" d="M57,55h1v1h-1V55z"/>
<path fill="#010101" d="M80,55h1v1h-1V55z"/>
<path fill="#010101" d="M103,55h1v1h-1V55z"/>
<path fill="#010101" d="M126,55h1v1h-1V55z"/>
<path fill="#010101" d="M149,55h1v1h-1V55z"/>
<path fill="#010101" d="M172,55h1v1h-1V55z"/>
<path fill="#010101" d="M195,55h1v1h-1V55z"/>
<path fill="#010101" d="M218,55h1v1h-1V55z"/>
<path fill="#010101" d="M241,55h1v1h-1V55z"/>
<path fill="#010101" d="M264,55h1v1h-1V55z"/>
</svg>
