<?xml version="1.0" encoding="utf-8"?>
<!-- Generator: Adobe Illustrator 16.0.4, SVG Export Plug-In . SVG Version: 6.00 Build 0)  -->
<!DOCTYPE svg PUBLIC "-//W3C//DTD SVG 1.1//EN" "http://www.w3.org/Graphics/SVG/1.1/DTD/svg11.dtd">
<svg version="1.1" id="Layer_1" xmlns="http://www.w3.org/2000/svg" xmlns:xlink="http://www.w3.org/1999/xlink" x="0px" y="0px"
	 width="276px" height="95px" viewBox="0 0 276 95" enable-background="new 0 0 276 95" xml:space="preserve">
<path fill="#010101" d="M55,1h5v1h-5V1z"/>
<path fill="#010101" d="M78,1h5v1h-5V1z"/>
<path fill="#010101" d="M101,1h5v1h-5V1z"/>
<path fill="#010101" d="M124,1h5v1h-5V1z"/>
<path fill="#010101" d="M147,1h5v1h-5V1z"/>
<path fill="#010101" d="M170,1h5v1h-5V1z"/>
<path fill="#010101" d="M193,1h5v1h-5V1z"/>
<path fill="#010101" d="M53,2h2v1h-2V2z"/>
<path fill="#FDFDFD" d="M55,2h1v1h-1V2z"/>
<path fill="#FCFCFC" d="M56,2h1v1h-1V2z"/>
<path fill="#FDFDFD" d="M57,2h1v1h-1V2z"/>
<path fill="#FCFCFC" d="M58,2h2v1h-1v1h-2V3h1V2z"/>
<path fill="#010101" d="M60,2h2v1h-2V2z"/>
<path fill="#010101" d="M76,2h2v1h-2V2z"/>
<path fill="#FDFDFD" d="M78,2h1v1h-1V2z"/>
<path fill="#FCFCFC" d="M79,2h1v1h-1V2z"/>
<path fill="#FDFDFD" d="M80,2h1v1h-1V2z"/>
<path fill="#FCFCFC" d="M81,2h2v1h-1v1h-2V3h1V2z"/>
<path fill="#010101" d="M83,2h2v1h-2V2z"/>
<path fill="#010101" d="M99,2h2v1h-2V2z"/>
<path fill="#FDFDFD" d="M101,2h1v1h-1V2z"/>
<path fill="#FCFCFC" d="M102,2h1v1h-1V2z"/>
<path fill="#FDFDFD" d="M103,2h1v1h-1V2z"/>
<path fill="#FCFCFC" d="M104,2h2v1h-1v1h-2V3h1V2z"/>
<path fill="#010101" d="M106,2h2v1h-2V2z"/>
<path fill="#010101" d="M122,2h2v1h-2V2z"/>
<path fill="#FDFDFD" d="M124,2h1v1h-1V2z"/>
<path fill="#FCFCFC" d="M125,2h1v1h-1V2z"/>
<path fill="#FDFDFD" d="M126,2h1v1h-1V2z"/>
<path fill="#FCFCFC" d="M127,2h2v1h-1v1h-2V3h1V2z"/>
<path fill="#010101" d="M129,2h2v1h-2V2z"/>
<path fill="#010101" d="M145,2h2v1h-2V2z"/>
<path fill="#FDFDFD" d="M147,2h1v1h-1V2z"/>
<path fill="#FCFCFC" d="M148,2h1v1h-1V2z"/>
<path fill="#FDFDFD" d="M149,2h1v1h-1V2z"/>
<path fill="#FCFCFC" d="M150,2h2v1h-1v1h-2V3h1V2z"/>
<path fill="#010101" d="M152,2h2v1h-2V2z"/>
<path fill="#010101" d="M168,2h2v1h-2V2z"/>
<path fill="#FDFDFD" d="M170,2h1v1h-1V2z"/>
<path fill="#FCFCFC" d="M171,2h1v1h-1V2z"/>
<path fill="#FDFDFD" d="M172,2h1v1h-1V2z"/>
<path fill="#FCFCFC" d="M173,2h2v1h-1v1h-2V3h1V2z"/>
<path fill="#010101" d="M175,2h2v1h-2V2z"/>
<path fill="#010101" d="M191,2h2v1h-2V2z"/>
<path fill="#FDFDFD" d="M193,2h1v1h-1V2z"/>
<path fill="#FCFCFC" d="M194,2h1v1h-1V2z"/>
<path fill="#FDFDFD" d="M195,2h1v1h-1V2z"/>
<path fill="#FCFCFC" d="M196,2h2v1h-1v1h-2V3h1V2z"/>
<path fill="#010101" d="M198,2h2v1h-2V2z"/>
<path fill="#010101" d="M52,3h1v1h-1V3z"/>
<path fill="#F8F8F8" d="M53,3h1v1h7V3h1v1h1v2h-1v1h-9V6h-1V4h1V3z"/>
<path fill="#FDFDFD" d="M54,3h1v1h-1V3z"/>
<path fill="#FCFCFC" d="M55,3h1v1h-1V3z"/>
<path fill="#FDFDFD" d="M56,3h1v1h-1V3z"/>
<path fill="#FDFDFD" d="M59,3h2v1h-2V3z"/>
<path fill="#010101" d="M62,3h1v1h-1V3z"/>
<path fill="#010101" d="M75,3h1v1h-1V3z"/>
<path fill="#F8F8F8" d="M76,3h1v1h7V3h1v1h1v2h-1v1h-3V5h-3v2h-3V6h-1V4h1V3z"/>
<path fill="#FDFDFD" d="M77,3h1v1h-1V3z"/>
<path fill="#FCFCFC" d="M78,3h1v1h-1V3z"/>
<path fill="#FDFDFD" d="M79,3h1v1h-1V3z"/>
<path fill="#FDFDFD" d="M82,3h2v1h-2V3z"/>
<path fill="#010101" d="M85,3h1v1h-1V3z"/>
<path fill="#010101" d="M98,3h1v1h-1V3z"/>
<path fill="#F8F8F8" d="M99,3h1v1h2v3h-3V6h-1V4h1V3z"/>
<path fill="#FDFDFD" d="M100,3h1v1h-1V3z"/>
<path fill="#FCFCFC" d="M101,3h1v1h-1V3z"/>
<path fill="#FDFDFD" d="M102,3h1v1h-1V3z"/>
<path fill="#FDFDFD" d="M105,3h2v1h-2V3z"/>
<path fill="#F8F8F8" d="M107,3h1v1h1v2h-1v1h-3V4h2V3z"/>
<path fill="#010101" d="M108,3h1v1h-1V3z"/>
<path fill="#010101" d="M121,3h1v1h-1V3z"/>
<path fill="#F8F8F8" d="M122,3h1v1h2v3h-3V6h-1V4h1V3z"/>
<path fill="#FDFDFD" d="M123,3h1v1h-1V3z"/>
<path fill="#FCFCFC" d="M124,3h1v1h-1V3z"/>
<path fill="#FDFDFD" d="M125,3h1v1h-1V3z"/>
<path fill="#FDFDFD" d="M128,3h2v1h-2V3z"/>
<path fill="#F8F8F8" d="M130,3h1v1h1v2h-1v1h-3V4h2V3z"/>
<path fill="#010101" d="M131,3h1v1h-1V3z"/>
<path fill="#010101" d="M144,3h1v1h-1V3z"/>
<path fill="#F8F8F8" d="M145,3h1v1h2v3h-3V6h-1V4h1V3z"/>
<path fill="#FDFDFD" d="M146,3h1v1h-1V3z"/>
<path fill="#FCFCFC" d="M147,3h1v1h-1V3z"/>
<path fill="#FDFDFD" d="M148,3h1v1h-1V3z"/>
<path fill="#FDFDFD" d="M151,3h2v1h-2V3z"/>
<path fill="#F8F8F8" d="M153,3h1v1h1v2h-1v1h-3V4h2V3z"/>
<path fill="#010101" d="M154,3h1v1h-1V3z"/>
<path fill="#010101" d="M167,3h1v1h-1V3z"/>
<path fill="#F8F8F8" d="M168,3h1v1h2v3h-3V6h-1V4h1V3z"/>
<path fill="#FDFDFD" d="M169,3h1v1h-1V3z"/>
<path fill="#FCFCFC" d="M170,3h1v1h-1V3z"/>
<path fill="#FDFDFD" d="M171,3h1v1h-1V3z"/>
<path fill="#FDFDFD" d="M174,3h2v1h-2V3z"/>
<path fill="#F8F8F8" d="M176,3h1v1h1v2h-1v1h-3V4h2V3z"/>
<path fill="#010101" d="M177,3h1v1h-1V3z"/>
<path fill="#010101" d="M190,3h1v1h-1V3z"/>
<path fill="#F8F8F8" d="M191,3h1v1h2v3h-3V6h-1V4h1V3z"/>
<path fill="#FDFDFD" d="M192,3h1v1h-1V3z"/>
<path fill="#FCFCFC" d="M193,3h1v1h-1V3z"/>
<path fill="#FDFDFD" d="M194,3h1v1h-1V3z"/>
<path fill="#FDFDFD" d="M197,3h2v1h-2V3z"/>
<path fill="#F8F8F8" d="M199,3h1v1h1v2h-1v1h-3V4h2V3z"/>
<path fill="#010101" d="M200,3h1v1h-1V3z"/>
<path fill="#010101" d="M51,4h1v2h-1V4z"/>
<path fill="#010101" d="M63,4h1v2h-1V4z"/>
<path fill="#010101" d="M74,4h1v2h-1V4z"/>
<path fill="#010101" d="M86,4h1v2h-1V4z"/>
<path fill="#010101" d="M97,4h1v2h-1V4z"/>
<path fill="#010101" d="M102,4h3v5h-3V4z"/>
<path fill="#010101" d="M109,4h1v2h-1V4z"/>
<path fill="#010101" d="M120,4h1v2h-1V4z"/>
<path fill="#010101" d="M125,4h3v5h-3V4z"/>
<path fill="#010101" d="M132,4h1v2h-1V4z"/>
<path fill="#010101" d="M143,4h1v2h-1V4z"/>
<path fill="#010101" d="M148,4h3v5h-3V4z"/>
<path fill="#010101" d="M155,4h1v2h-1V4z"/>
<path fill="#010101" d="M166,4h1v2h-1V4z"/>
<path fill="#010101" d="M171,4h3v5h-3V4z"/>
<path fill="#010101" d="M178,4h1v2h-1V4z"/>
<path fill="#010101" d="M189,4h1v2h-1V4z"/>
<path fill="#010101" d="M194,4h3v5h-3V4z"/>
<path fill="#010101" d="M201,4h1v2h-1V4z"/>
<path fill="#010101" d="M32,5h5v1h-5V5z"/>
<path fill="#010101" d="M79,5h3v5h-3V5z"/>
<path fill="#010101" d="M31,6h1v1h-1V6z"/>
<path fill="#FDFDFD" d="M32,6h5v1h-1v1h-3V7h-1V6z"/>
<path fill="#010101" d="M37,6h1v1h-1V6z"/>
<path fill="#010101" d="M50,6h1v5h-1V6z"/>
<path fill="#EFEFEF" d="M51,6h2v1h9V6h2v3h-2v1h-9V9h-2V6z"/>
<path fill="#010101" d="M64,6h1v5h-1V6z"/>
<path fill="#010101" d="M73,6h1v5h-1V6z"/>
<path fill="#EFEFEF" d="M74,6h2v1h3v3h-3V9h-2V6z"/>
<path fill="#EFEFEF" d="M85,6h2v3h-2v1h-3V7h3V6z"/>
<path fill="#010101" d="M87,6h1v5h-1V6z"/>
<path fill="#010101" d="M96,6h1v5h-1V6z"/>
<path fill="#EFEFEF" d="M97,6h2v1h3v2h3V7h3V6h2v3h-2v1h-9V9h-2V6z"/>
<path fill="#010101" d="M110,6h1v5h-1V6z"/>
<path fill="#010101" d="M119,6h1v5h-1V6z"/>
<path fill="#EFEFEF" d="M120,6h2v1h3v2h3V7h3V6h2v3h-2v1h-9V9h-2V6z"/>
<path fill="#010101" d="M133,6h1v5h-1V6z"/>
<path fill="#010101" d="M142,6h1v5h-1V6z"/>
<path fill="#EFEFEF" d="M143,6h2v1h3v2h3V7h3V6h2v3h-2v1h-9V9h-2V6z"/>
<path fill="#010101" d="M156,6h1v5h-1V6z"/>
<path fill="#010101" d="M165,6h1v5h-1V6z"/>
<path fill="#EFEFEF" d="M166,6h2v1h3v2h3V7h3V6h2v3h-2v1h-9V9h-2V6z"/>
<path fill="#010101" d="M179,6h1v5h-1V6z"/>
<path fill="#010101" d="M188,6h1v5h-1V6z"/>
<path fill="#EFEFEF" d="M189,6h2v1h3v2h3V7h3V6h2v3h-2v1h-9V9h-2V6z"/>
<path fill="#010101" d="M202,6h1v5h-1V6z"/>
<path fill="#010101" d="M30,7h1v1h-1V7z"/>
<path fill="#F8F8F8" d="M31,7h2v1h3V7h2v1h1v1h-2v1h-5V9h-2V8h1V7z"/>
<path fill="#010101" d="M38,7h1v1h-1V7z"/>
<path fill="#010101" d="M29,8h1v5h-1V8z"/>
<path fill="#010101" d="M39,8h1v5h-1V8z"/>
<path fill="#EFEFEF" d="M30,9h2v1h5V9h2v2h-2v1h-5v-1h-2V9z"/>
<path fill="#E7E7E7" d="M51,9h2v1h1v2h-1v-1h-2V9z"/>
<path fill="#E7E7E7" d="M62,9h2v2h-1v1h-2v1h-1v-1h-1v1h-4v-3h7V9z"/>
<path fill="#E7E7E7" d="M74,9h2v1h1v2h-1v-1h-2V9z"/>
<path fill="#E7E7E7" d="M85,9h2v2h-1v1h-2v1h-1v-1h-1v-1h-3v2h-1v-3h7V9z"/>
<path fill="#E7E7E7" d="M97,9h2v1h1v2h-1v-1h-2V9z"/>
<path fill="#E7E7E7" d="M108,9h2v2h-1v1h-2v1h-1v-1h-1v-2h3V9z"/>
<path fill="#E7E7E7" d="M120,9h2v1h1v2h-1v-1h-2V9z"/>
<path fill="#E7E7E7" d="M131,9h2v2h-1v1h-2v1h-1v-1h-1v-2h3V9z"/>
<path fill="#E7E7E7" d="M143,9h2v1h1v2h-1v-1h-2V9z"/>
<path fill="#E7E7E7" d="M154,9h2v2h-1v1h-2v1h-1v-1h-1v-2h3V9z"/>
<path fill="#E7E7E7" d="M166,9h2v1h1v2h-1v-1h-2V9z"/>
<path fill="#E7E7E7" d="M177,9h2v2h-1v1h-2v1h-1v-1h-1v-2h3V9z"/>
<path fill="#E7E7E7" d="M189,9h2v1h1v2h-1v-1h-2V9z"/>
<path fill="#E7E7E7" d="M200,9h2v2h-1v1h-2v1h-1v-1h-1v-2h3V9z"/>
<path fill="#E6E6E6" d="M54,10h1v2h-1V10z"/>
<path fill="#E6E6E6" d="M77,10h1v2h-1V10z"/>
<path fill="#E6E6E6" d="M100,10h1v2h-1V10z"/>
<path fill="#E7E7E7" d="M101,10h1v2h3v1h-4V10z"/>
<path fill="#010101" d="M102,10h3v2h-3V10z"/>
<path fill="#E6E6E6" d="M123,10h1v2h-1V10z"/>
<path fill="#E7E7E7" d="M124,10h1v2h3v1h-4V10z"/>
<path fill="#010101" d="M125,10h3v2h-3V10z"/>
<path fill="#E6E6E6" d="M146,10h1v2h-1V10z"/>
<path fill="#E7E7E7" d="M147,10h1v2h3v1h-4V10z"/>
<path fill="#010101" d="M148,10h3v2h-3V10z"/>
<path fill="#E6E6E6" d="M169,10h1v2h-1V10z"/>
<path fill="#E7E7E7" d="M170,10h1v2h3v1h-4V10z"/>
<path fill="#010101" d="M171,10h3v2h-3V10z"/>
<path fill="#E6E6E6" d="M192,10h1v2h-1V10z"/>
<path fill="#E7E7E7" d="M193,10h1v2h3v1h-4V10z"/>
<path fill="#010101" d="M194,10h3v2h-3V10z"/>
<path fill="#E7E7E7" d="M30,11h2v1h5v-1h2v2h-3v1h-3v-1h-3V11z"/>
<path fill="#010101" d="M51,11h1v2h-1V11z"/>
<path fill="#E3E3E3" d="M52,11h1v1h-1V11z"/>
<path fill="#010101" d="M63,11h1v2h-1V11z"/>
<path fill="#010101" d="M74,11h1v2h-1V11z"/>
<path fill="#E3E3E3" d="M75,11h1v1h-1V11z"/>
<path fill="#010101" d="M79,11h3v2h-3V11z"/>
<path fill="#010101" d="M86,11h1v2h-1V11z"/>
<path fill="#010101" d="M97,11h1v2h-1V11z"/>
<path fill="#E3E3E3" d="M98,11h1v1h-1V11z"/>
<path fill="#010101" d="M109,11h1v2h-1V11z"/>
<path fill="#010101" d="M120,11h1v2h-1V11z"/>
<path fill="#E3E3E3" d="M121,11h1v1h-1V11z"/>
<path fill="#010101" d="M132,11h1v2h-1V11z"/>
<path fill="#010101" d="M143,11h1v2h-1V11z"/>
<path fill="#E3E3E3" d="M144,11h1v1h-1V11z"/>
<path fill="#010101" d="M155,11h1v2h-1V11z"/>
<path fill="#010101" d="M166,11h1v2h-1V11z"/>
<path fill="#E3E3E3" d="M167,11h1v1h-1V11z"/>
<path fill="#010101" d="M178,11h1v2h-1V11z"/>
<path fill="#010101" d="M189,11h1v2h-1V11z"/>
<path fill="#E3E3E3" d="M190,11h1v1h-1V11z"/>
<path fill="#010101" d="M201,11h1v2h-1V11z"/>
<path fill="#DEDEDE" d="M52,12h2v1h7v-1h2v1h-1v1h-3v1h-3v-1h-3v-1h-1V12z"/>
<path fill="#E2E2E2" d="M54,12h1v1h-1V12z"/>
<path fill="#E6E6E6" d="M59,12h1v1h-1V12z"/>
<path fill="#DEDEDE" d="M75,12h2v1h7v-1h2v1h-1v1h-3v1h-3v-1h-3v-1h-1V12z"/>
<path fill="#E2E2E2" d="M77,12h1v1h-1V12z"/>
<path fill="#E6E6E6" d="M82,12h1v1h-1V12z"/>
<path fill="#DEDEDE" d="M98,12h2v1h7v-1h2v1h-1v1h-3v1h-3v-1h-3v-1h-1V12z"/>
<path fill="#E2E2E2" d="M100,12h1v1h-1V12z"/>
<path fill="#E6E6E6" d="M105,12h1v1h-1V12z"/>
<path fill="#DEDEDE" d="M121,12h2v1h7v-1h2v1h-1v1h-3v1h-3v-1h-3v-1h-1V12z"/>
<path fill="#E2E2E2" d="M123,12h1v1h-1V12z"/>
<path fill="#E6E6E6" d="M128,12h1v1h-1V12z"/>
<path fill="#DEDEDE" d="M144,12h2v1h7v-1h2v1h-1v1h-3v1h-3v-1h-3v-1h-1V12z"/>
<path fill="#E2E2E2" d="M146,12h1v1h-1V12z"/>
<path fill="#E6E6E6" d="M151,12h1v1h-1V12z"/>
<path fill="#DEDEDE" d="M167,12h2v1h7v-1h2v1h-1v1h-3v1h-3v-1h-3v-1h-1V12z"/>
<path fill="#E2E2E2" d="M169,12h1v1h-1V12z"/>
<path fill="#E6E6E6" d="M174,12h1v1h-1V12z"/>
<path fill="#DEDEDE" d="M190,12h2v1h7v-1h2v1h-1v1h-3v1h-3v-1h-3v-1h-1V12z"/>
<path fill="#E2E2E2" d="M192,12h1v1h-1V12z"/>
<path fill="#E6E6E6" d="M197,12h1v1h-1V12z"/>
<path fill="#010101" d="M30,13h1v1h-1V13z"/>
<path fill="#DEDEDE" d="M31,13h2v1h3v-1h2v1h-1v1h-5v-1h-1V13z"/>
<path fill="#010101" d="M38,13h1v1h-1V13z"/>
<path fill="#010101" d="M52,13h1v1h-1V13z"/>
<path fill="#010101" d="M62,13h1v1h-1V13z"/>
<path fill="#010101" d="M75,13h1v1h-1V13z"/>
<path fill="#010101" d="M85,13h1v1h-1V13z"/>
<path fill="#010101" d="M98,13h1v1h-1V13z"/>
<path fill="#010101" d="M108,13h1v1h-1V13z"/>
<path fill="#010101" d="M121,13h1v1h-1V13z"/>
<path fill="#010101" d="M131,13h1v1h-1V13z"/>
<path fill="#010101" d="M144,13h1v1h-1V13z"/>
<path fill="#010101" d="M154,13h1v1h-1V13z"/>
<path fill="#010101" d="M167,13h1v1h-1V13z"/>
<path fill="#010101" d="M177,13h1v1h-1V13z"/>
<path fill="#010101" d="M190,13h1v1h-1V13z"/>
<path fill="#010101" d="M200,13h1v1h-1V13z"/>
<path fill="#010101" d="M31,14h1v1h-1V14z"/>
<path fill="#010101" d="M37,14h1v1h-1V14z"/>
<path fill="#010101" d="M53,14h2v1h-2V14z"/>
<path fill="#CCCCCC" d="M55,14h1v1h-1V14z"/>
<path fill="#CCCCCC" d="M59,14h1v1h-1V14z"/>
<path fill="#010101" d="M60,14h2v1h-2V14z"/>
<path fill="#010101" d="M76,14h2v1h-2V14z"/>
<path fill="#CCCCCC" d="M78,14h1v1h-1V14z"/>
<path fill="#CCCCCC" d="M82,14h1v1h-1V14z"/>
<path fill="#010101" d="M83,14h2v1h-2V14z"/>
<path fill="#010101" d="M99,14h2v1h-2V14z"/>
<path fill="#CCCCCC" d="M101,14h1v1h-1V14z"/>
<path fill="#CCCCCC" d="M105,14h1v1h-1V14z"/>
<path fill="#010101" d="M106,14h2v1h-2V14z"/>
<path fill="#010101" d="M122,14h2v1h-2V14z"/>
<path fill="#CCCCCC" d="M124,14h1v1h-1V14z"/>
<path fill="#CCCCCC" d="M128,14h1v1h-1V14z"/>
<path fill="#010101" d="M129,14h2v1h-2V14z"/>
<path fill="#010101" d="M145,14h2v1h-2V14z"/>
<path fill="#CCCCCC" d="M147,14h1v1h-1V14z"/>
<path fill="#CCCCCC" d="M151,14h1v1h-1V14z"/>
<path fill="#010101" d="M152,14h2v1h-2V14z"/>
<path fill="#010101" d="M168,14h2v1h-2V14z"/>
<path fill="#CCCCCC" d="M170,14h1v1h-1V14z"/>
<path fill="#CCCCCC" d="M174,14h1v1h-1V14z"/>
<path fill="#010101" d="M175,14h2v1h-2V14z"/>
<path fill="#010101" d="M191,14h2v1h-2V14z"/>
<path fill="#CCCCCC" d="M193,14h1v1h-1V14z"/>
<path fill="#CCCCCC" d="M197,14h1v1h-1V14z"/>
<path fill="#010101" d="M198,14h2v1h-2V14z"/>
<path fill="#010101" d="M32,15h1v1h-1V15z"/>
<path fill="#CCCCCC" d="M33,15h3v1h-1v1h-1v-1h-1V15z"/>
<path fill="#010101" d="M36,15h1v1h-1V15z"/>
<path fill="#010101" d="M55,15h1v1h-1V15z"/>
<path fill="#CCCCCC" d="M56,15h3v1h-1v1h-1v-1h-1V15z"/>
<path fill="#010101" d="M59,15h1v1h-1V15z"/>
<path fill="#010101" d="M78,15h1v1h-1V15z"/>
<path fill="#CCCCCC" d="M79,15h3v1h-1v1h-1v-1h-1V15z"/>
<path fill="#010101" d="M82,15h1v1h-1V15z"/>
<path fill="#010101" d="M101,15h1v1h-1V15z"/>
<path fill="#CCCCCC" d="M102,15h3v1h-1v1h-1v-1h-1V15z"/>
<path fill="#010101" d="M105,15h1v1h-1V15z"/>
<path fill="#010101" d="M124,15h1v1h-1V15z"/>
<path fill="#CCCCCC" d="M125,15h3v1h-1v1h-1v-1h-1V15z"/>
<path fill="#010101" d="M128,15h1v1h-1V15z"/>
<path fill="#010101" d="M147,15h1v1h-1V15z"/>
<path fill="#CCCCCC" d="M148,15h3v1h-1v1h-1v-1h-1V15z"/>
<path fill="#010101" d="M151,15h1v1h-1V15z"/>
<path fill="#010101" d="M170,15h1v1h-1V15z"/>
<path fill="#CCCCCC" d="M171,15h3v1h-1v1h-1v-1h-1V15z"/>
<path fill="#010101" d="M174,15h1v1h-1V15z"/>
<path fill="#010101" d="M193,15h1v1h-1V15z"/>
<path fill="#CCCCCC" d="M194,15h3v1h-1v1h-1v-1h-1V15z"/>
<path fill="#010101" d="M197,15h1v1h-1V15z"/>
<path fill="#010101" d="M33,16h1v1h-1V16z"/>
<path fill="#010101" d="M35,16h1v1h-1V16z"/>
<path fill="#010101" d="M56,16h1v1h-1V16z"/>
<path fill="#010101" d="M58,16h1v1h-1V16z"/>
<path fill="#010101" d="M79,16h1v1h-1V16z"/>
<path fill="#010101" d="M81,16h1v1h-1V16z"/>
<path fill="#010101" d="M102,16h1v1h-1V16z"/>
<path fill="#010101" d="M104,16h1v1h-1V16z"/>
<path fill="#010101" d="M125,16h1v1h-1V16z"/>
<path fill="#010101" d="M127,16h1v1h-1V16z"/>
<path fill="#010101" d="M148,16h1v1h-1V16z"/>
<path fill="#010101" d="M150,16h1v1h-1V16z"/>
<path fill="#010101" d="M171,16h1v1h-1V16z"/>
<path fill="#010101" d="M173,16h1v1h-1V16z"/>
<path fill="#010101" d="M194,16h1v1h-1V16z"/>
<path fill="#010101" d="M196,16h1v1h-1V16z"/>
<path fill="#010101" d="M34,17h1v1h-1V17z"/>
<path fill="#010101" d="M57,17h1v1h-1V17z"/>
<path fill="#010101" d="M80,17h1v1h-1V17z"/>
<path fill="#010101" d="M103,17h1v1h-1V17z"/>
<path fill="#010101" d="M126,17h1v1h-1V17z"/>
<path fill="#010101" d="M149,17h1v1h-1V17z"/>
<path fill="#010101" d="M172,17h1v1h-1V17z"/>
<path fill="#010101" d="M195,17h1v1h-1V17z"/>
<path fill="#010101" d="M55,20h5v1h-5V20z"/>
<path fill="#010101" d="M78,20h5v1h-5V20z"/>
<path fill="#010101" d="M101,20h5v1h-5V20z"/>
<path fill="#010101" d="M124,20h5v1h-5V20z"/>
<path fill="#010101" d="M147,20h5v1h-5V20z"/>
<path fill="#010101" d="M170,20h5v1h-5V20z"/>
<path fill="#010101" d="M193,20h5v1h-5V20z"/>
<path fill="#010101" d="M53,21h2v1h-2V21z"/>
<path fill="#FDFDFD" d="M55,21h1v1h-1V21z"/>
<path fill="#FCFCFC" d="M56,21h1v1h-1V21z"/>
<path fill="#FDFDFD" d="M57,21h1v1h-1V21z"/>
<path fill="#FCFCFC" d="M58,21h2v1h-1v1h-2v-1h1V21z"/>
<path fill="#010101" d="M60,21h2v1h-2V21z"/>
<path fill="#010101" d="M76,21h2v1h-2V21z"/>
<path fill="#FDFDFD" d="M78,21h1v1h-1V21z"/>
<path fill="#FCFCFC" d="M79,21h1v1h-1V21z"/>
<path fill="#FDFDFD" d="M80,21h1v1h-1V21z"/>
<path fill="#FCFCFC" d="M81,21h2v1h-1v1h-2v-1h1V21z"/>
<path fill="#010101" d="M83,21h2v1h-2V21z"/>
<path fill="#010101" d="M99,21h2v1h-2V21z"/>
<path fill="#FDFDFD" d="M101,21h1v1h-1V21z"/>
<path fill="#FCFCFC" d="M102,21h1v1h-1V21z"/>
<path fill="#FDFDFD" d="M103,21h1v1h-1V21z"/>
<path fill="#FCFCFC" d="M104,21h2v1h-1v1h-2v-1h1V21z"/>
<path fill="#010101" d="M106,21h2v1h-2V21z"/>
<path fill="#010101" d="M122,21h2v1h-2V21z"/>
<path fill="#FDFDFD" d="M124,21h1v1h-1V21z"/>
<path fill="#FCFCFC" d="M125,21h1v1h-1V21z"/>
<path fill="#FDFDFD" d="M126,21h1v1h-1V21z"/>
<path fill="#FCFCFC" d="M127,21h2v1h-1v1h-2v-1h1V21z"/>
<path fill="#010101" d="M129,21h2v1h-2V21z"/>
<path fill="#010101" d="M145,21h2v1h-2V21z"/>
<path fill="#FDFDFD" d="M147,21h1v1h-1V21z"/>
<path fill="#FCFCFC" d="M148,21h1v1h-1V21z"/>
<path fill="#FDFDFD" d="M149,21h1v1h-1V21z"/>
<path fill="#FCFCFC" d="M150,21h2v1h-1v1h-2v-1h1V21z"/>
<path fill="#010101" d="M152,21h2v1h-2V21z"/>
<path fill="#010101" d="M168,21h2v1h-2V21z"/>
<path fill="#FDFDFD" d="M170,21h1v1h-1V21z"/>
<path fill="#FCFCFC" d="M171,21h1v1h-1V21z"/>
<path fill="#FDFDFD" d="M172,21h1v1h-1V21z"/>
<path fill="#FCFCFC" d="M173,21h2v1h-1v1h-2v-1h1V21z"/>
<path fill="#010101" d="M175,21h2v1h-2V21z"/>
<path fill="#010101" d="M191,21h2v1h-2V21z"/>
<path fill="#FDFDFD" d="M193,21h1v1h-1V21z"/>
<path fill="#FCFCFC" d="M194,21h1v1h-1V21z"/>
<path fill="#FDFDFD" d="M195,21h1v1h-1V21z"/>
<path fill="#FCFCFC" d="M196,21h2v1h-1v1h-2v-1h1V21z"/>
<path fill="#010101" d="M198,21h2v1h-2V21z"/>
<path fill="#010101" d="M52,22h1v1h-1V22z"/>
<path fill="#F8F8F8" d="M53,22h1v1h7v-1h1v1h1v2h-1v1h-9v-1h-1v-2h1V22z"/>
<path fill="#FDFDFD" d="M54,22h1v1h-1V22z"/>
<path fill="#FCFCFC" d="M55,22h1v1h-1V22z"/>
<path fill="#FDFDFD" d="M56,22h1v1h-1V22z"/>
<path fill="#FDFDFD" d="M59,22h2v1h-2V22z"/>
<path fill="#010101" d="M62,22h1v1h-1V22z"/>
<path fill="#010101" d="M75,22h1v1h-1V22z"/>
<path fill="#F8F8F8" d="M76,22h1v1h7v-1h1v1h1v2h-1v1h-9v-1h-1v-2h1V22z"/>
<path fill="#FDFDFD" d="M77,22h1v1h-1V22z"/>
<path fill="#FCFCFC" d="M78,22h1v1h-1V22z"/>
<path fill="#FDFDFD" d="M79,22h1v1h-1V22z"/>
<path fill="#FDFDFD" d="M82,22h2v1h-2V22z"/>
<path fill="#010101" d="M85,22h1v1h-1V22z"/>
<path fill="#010101" d="M98,22h1v1h-1V22z"/>
<path fill="#F8F8F8" d="M99,22h1v1h7v-1h1v1h1v2h-1v1h-1v-1h-3v1h-1v-1h-5v-2h1V22z"/>
<path fill="#FDFDFD" d="M100,22h1v1h-1V22z"/>
<path fill="#FCFCFC" d="M101,22h1v1h-1V22z"/>
<path fill="#FDFDFD" d="M102,22h1v1h-1V22z"/>
<path fill="#FDFDFD" d="M105,22h2v1h-2V22z"/>
<path fill="#010101" d="M108,22h1v1h-1V22z"/>
<path fill="#010101" d="M121,22h1v1h-1V22z"/>
<path fill="#F8F8F8" d="M122,22h1v1h7v-1h1v1h1v2h-2v-1h-2v1h-1v1h-1v-1h-1v-1h-2v1h-2v-2h1V22z"/>
<path fill="#FDFDFD" d="M123,22h1v1h-1V22z"/>
<path fill="#FCFCFC" d="M124,22h1v1h-1V22z"/>
<path fill="#FDFDFD" d="M125,22h1v1h-1V22z"/>
<path fill="#FDFDFD" d="M128,22h2v1h-2V22z"/>
<path fill="#010101" d="M131,22h1v1h-1V22z"/>
<path fill="#010101" d="M144,22h1v1h-1V22z"/>
<path fill="#F8F8F8" d="M145,22h1v1h7v-1h1v1h1v2h-2v-1h-2v1h-1v1h-1v-1h-1v-1h-2v1h-2v-2h1V22z"/>
<path fill="#FDFDFD" d="M146,22h1v1h-1V22z"/>
<path fill="#FCFCFC" d="M147,22h1v1h-1V22z"/>
<path fill="#FDFDFD" d="M148,22h1v1h-1V22z"/>
<path fill="#FDFDFD" d="M151,22h2v1h-2V22z"/>
<path fill="#010101" d="M154,22h1v1h-1V22z"/>
<path fill="#010101" d="M167,22h1v1h-1V22z"/>
<path fill="#F8F8F8" d="M168,22h1v1h7v-1h1v1h1v2h-2v-1h-2v1h-1v1h-1v-1h-1v-1h-2v1h-2v-2h1V22z"/>
<path fill="#FDFDFD" d="M169,22h1v1h-1V22z"/>
<path fill="#FCFCFC" d="M170,22h1v1h-1V22z"/>
<path fill="#FDFDFD" d="M171,22h1v1h-1V22z"/>
<path fill="#FDFDFD" d="M174,22h2v1h-2V22z"/>
<path fill="#010101" d="M177,22h1v1h-1V22z"/>
<path fill="#010101" d="M190,22h1v1h-1V22z"/>
<path fill="#F8F8F8" d="M191,22h1v1h7v-1h1v1h1v2h-2v-1h-2v1h-1v1h-1v-1h-1v-1h-2v1h-2v-2h1V22z"/>
<path fill="#FDFDFD" d="M192,22h1v1h-1V22z"/>
<path fill="#FCFCFC" d="M193,22h1v1h-1V22z"/>
<path fill="#FDFDFD" d="M194,22h1v1h-1V22z"/>
<path fill="#FDFDFD" d="M197,22h2v1h-2V22z"/>
<path fill="#010101" d="M200,22h1v1h-1V22z"/>
<path fill="#010101" d="M51,23h1v2h-1V23z"/>
<path fill="#010101" d="M63,23h1v2h-1V23z"/>
<path fill="#010101" d="M74,23h1v2h-1V23z"/>
<path fill="#010101" d="M86,23h1v2h-1V23z"/>
<path fill="#010101" d="M97,23h1v2h-1V23z"/>
<path fill="#010101" d="M109,23h1v2h-1V23z"/>
<path fill="#010101" d="M120,23h1v2h-1V23z"/>
<path fill="#010101" d="M132,23h1v2h-1V23z"/>
<path fill="#010101" d="M143,23h1v2h-1V23z"/>
<path fill="#010101" d="M155,23h1v2h-1V23z"/>
<path fill="#010101" d="M166,23h1v2h-1V23z"/>
<path fill="#010101" d="M178,23h1v2h-1V23z"/>
<path fill="#010101" d="M189,23h1v2h-1V23z"/>
<path fill="#010101" d="M201,23h1v2h-1V23z"/>
<path fill="#010101" d="M32,24h5v1h-5V24z"/>
<path fill="#802038" d="M123,24h2v1h-2V24z"/>
<path fill="#802038" d="M128,24h2v1h-2V24z"/>
<path fill="#802038" d="M146,24h2v1h-2V24z"/>
<path fill="#802038" d="M151,24h2v1h-2V24z"/>
<path fill="#802038" d="M169,24h2v1h-2V24z"/>
<path fill="#802038" d="M174,24h2v1h-2V24z"/>
<path fill="#802038" d="M192,24h2v1h-2V24z"/>
<path fill="#802038" d="M197,24h2v1h-2V24z"/>
<path fill="#010101" d="M31,25h1v1h-1V25z"/>
<path fill="#FDFDFD" d="M32,25h5v1h-1v1h-3v-1h-1V25z"/>
<path fill="#010101" d="M37,25h1v1h-1V25z"/>
<path fill="#010101" d="M50,25h1v5h-1V25z"/>
<path fill="#EFEFEF" d="M51,25h2v1h9v-1h2v3h-2v1h-9v-1h-2V25z"/>
<path fill="#010101" d="M64,25h1v5h-1V25z"/>
<path fill="#010101" d="M73,25h1v5h-1V25z"/>
<path fill="#EFEFEF" d="M74,25h2v1h2v1h-1v2h-1v-1h-2V25z"/>
<path fill="#EFEFEF" d="M85,25h2v3h-2v1h-1v-2h-1v-1h2V25z"/>
<path fill="#010101" d="M87,25h1v5h-1V25z"/>
<path fill="#010101" d="M96,25h1v5h-1V25z"/>
<path fill="#EFEFEF" d="M97,25h4v1h-1v2h1v1h-2v-1h-2V25z"/>
<path fill="#802038" d="M101,25h2v1h-2V25z"/>
<path fill="#802038" d="M104,25h2v1h-2V25z"/>
<path fill="#EFEFEF" d="M106,25h1v1h-1V25z"/>
<path fill="#EFEFEF" d="M108,25h2v3h-2v1h-2v-1h1v-2h1V25z"/>
<path fill="#010101" d="M110,25h1v5h-1V25z"/>
<path fill="#010101" d="M119,25h1v5h-1V25z"/>
<path fill="#EFEFEF" d="M120,25h2v3h-2V25z"/>
<path fill="#802038" d="M122,25h1v3h-1V25z"/>
<path fill="#F06868" d="M123,25h2v1h-1v1h-1V25z"/>
<path fill="#802038" d="M125,25h1v1h-1V25z"/>
<path fill="#802038" d="M127,25h1v1h-1V25z"/>
<path fill="#B83048" d="M128,25h2v3h-1v1h-1v1h-1v1h-1v-1h-1v-1h-1v-1h-1v-1h1v-1h2v1h1v-1h1V25z"/>
<path fill="#802038" d="M130,25h1v3h-1V25z"/>
<path fill="#EFEFEF" d="M131,25h2v3h-2V25z"/>
<path fill="#010101" d="M133,25h1v5h-1V25z"/>
<path fill="#010101" d="M142,25h1v5h-1V25z"/>
<path fill="#EFEFEF" d="M143,25h2v3h-2V25z"/>
<path fill="#802038" d="M145,25h1v3h-1V25z"/>
<path fill="#F06868" d="M146,25h2v1h-1v1h-1V25z"/>
<path fill="#802038" d="M148,25h1v1h-1V25z"/>
<path fill="#802038" d="M150,25h1v1h-1V25z"/>
<path fill="#B83048" d="M151,25h2v3h-1v1h-1v1h-1v1h-1v-1h-1v-1h-1v-1h-1v-1h1v-1h2v1h1v-1h1V25z"/>
<path fill="#802038" d="M153,25h1v3h-1V25z"/>
<path fill="#EFEFEF" d="M154,25h2v3h-2V25z"/>
<path fill="#010101" d="M156,25h1v5h-1V25z"/>
<path fill="#010101" d="M165,25h1v5h-1V25z"/>
<path fill="#EFEFEF" d="M166,25h2v3h-2V25z"/>
<path fill="#802038" d="M168,25h1v3h-1V25z"/>
<path fill="#F06868" d="M169,25h2v1h-1v1h-1V25z"/>
<path fill="#802038" d="M171,25h1v1h-1V25z"/>
<path fill="#802038" d="M173,25h1v1h-1V25z"/>
<path fill="#B83048" d="M174,25h2v3h-1v1h-1v1h-1v1h-1v-1h-1v-1h-1v-1h-1v-1h1v-1h2v1h1v-1h1V25z"/>
<path fill="#802038" d="M176,25h1v3h-1V25z"/>
<path fill="#EFEFEF" d="M177,25h2v3h-2V25z"/>
<path fill="#010101" d="M179,25h1v5h-1V25z"/>
<path fill="#010101" d="M188,25h1v5h-1V25z"/>
<path fill="#EFEFEF" d="M189,25h2v3h-2V25z"/>
<path fill="#802038" d="M191,25h1v3h-1V25z"/>
<path fill="#F06868" d="M192,25h2v1h-1v1h-1V25z"/>
<path fill="#802038" d="M194,25h1v1h-1V25z"/>
<path fill="#802038" d="M196,25h1v1h-1V25z"/>
<path fill="#B83048" d="M197,25h2v3h-1v1h-1v1h-1v1h-1v-1h-1v-1h-1v-1h-1v-1h1v-1h2v1h1v-1h1V25z"/>
<path fill="#802038" d="M199,25h1v3h-1V25z"/>
<path fill="#EFEFEF" d="M200,25h2v3h-2V25z"/>
<path fill="#010101" d="M202,25h1v5h-1V25z"/>
<path fill="#010101" d="M30,26h1v1h-1V26z"/>
<path fill="#F8F8F8" d="M31,26h2v1h3v-1h2v1h1v1h-2v1h-5v-1h-2v-1h1V26z"/>
<path fill="#010101" d="M38,26h1v1h-1V26z"/>
<path fill="#802038" d="M78,26h2v1h-2V26z"/>
<path fill="#EFEFEF" d="M80,26h1v1h-1V26z"/>
<path fill="#802038" d="M81,26h2v1h-2V26z"/>
<path fill="#802038" d="M100,26h1v2h-1V26z"/>
<path fill="#F06868" d="M101,26h2v1h-1v1h-1V26z"/>
<path fill="#802038" d="M103,26h1v1h-1V26z"/>
<path fill="#B83048" d="M104,26h2v2h-1v1h-1v1h-1v-1h-1v-2h2V26z"/>
<path fill="#802038" d="M106,26h1v2h-1V26z"/>
<path fill="#802038" d="M126,26h1v1h-1V26z"/>
<path fill="#802038" d="M149,26h1v1h-1V26z"/>
<path fill="#802038" d="M172,26h1v1h-1V26z"/>
<path fill="#802038" d="M195,26h1v1h-1V26z"/>
<path fill="#010101" d="M29,27h1v5h-1V27z"/>
<path fill="#010101" d="M39,27h1v5h-1V27z"/>
<path fill="#802038" d="M77,27h1v2h-1V27z"/>
<path fill="#F06868" d="M78,27h2v1h-1v1h-1V27z"/>
<path fill="#802038" d="M80,27h1v1h-1V27z"/>
<path fill="#B83048" d="M81,27h2v2h-1v1h-1v1h-1v-1h-1v-2h2V27z"/>
<path fill="#802038" d="M83,27h1v2h-1V27z"/>
<path fill="#EFEFEF" d="M30,28h2v1h5v-1h2v2h-2v1h-5v-1h-2V28z"/>
<path fill="#E7E7E7" d="M51,28h2v1h1v2h-1v-1h-2V28z"/>
<path fill="#E7E7E7" d="M62,28h2v2h-1v1h-2v1h-1v-1h-1v1h-4v-3h7V28z"/>
<path fill="#E7E7E7" d="M74,28h2v1h1v2h-1v-1h-2V28z"/>
<path fill="#E7E7E7" d="M85,28h2v2h-1v1h-2v1h-1v-1h-1v-1h1v-1h2V28z"/>
<path fill="#E7E7E7" d="M97,28h2v1h1v2h-1v-1h-2V28z"/>
<path fill="#802038" d="M101,28h1v1h-1V28z"/>
<path fill="#802038" d="M105,28h1v1h-1V28z"/>
<path fill="#E7E7E7" d="M108,28h2v2h-1v1h-2v1h-1v-1h-1v1h-4v-3h1v1h1v1h1v-1h1v-1h3V28z"/>
<path fill="#E7E7E7" d="M120,28h2v1h1v2h-1v-1h-2V28z"/>
<path fill="#EFEFEF" d="M122,28h1v1h-1V28z"/>
<path fill="#802038" d="M123,28h1v1h-1V28z"/>
<path fill="#802038" d="M129,28h1v1h-1V28z"/>
<path fill="#EFEFEF" d="M130,28h1v1h-1V28z"/>
<path fill="#E7E7E7" d="M131,28h2v2h-1v1h-2v1h-1v-1h-1v-1h1v-1h2V28z"/>
<path fill="#E7E7E7" d="M143,28h2v1h1v2h-1v-1h-2V28z"/>
<path fill="#EFEFEF" d="M145,28h1v1h-1V28z"/>
<path fill="#802038" d="M146,28h1v1h-1V28z"/>
<path fill="#802038" d="M152,28h1v1h-1V28z"/>
<path fill="#EFEFEF" d="M153,28h1v1h-1V28z"/>
<path fill="#E7E7E7" d="M154,28h2v2h-1v1h-2v1h-1v-1h-1v-1h1v-1h2V28z"/>
<path fill="#E7E7E7" d="M166,28h2v1h1v2h-1v-1h-2V28z"/>
<path fill="#EFEFEF" d="M168,28h1v1h-1V28z"/>
<path fill="#802038" d="M169,28h1v1h-1V28z"/>
<path fill="#802038" d="M175,28h1v1h-1V28z"/>
<path fill="#EFEFEF" d="M176,28h1v1h-1V28z"/>
<path fill="#E7E7E7" d="M177,28h2v2h-1v1h-2v1h-1v-1h-1v-1h1v-1h2V28z"/>
<path fill="#E7E7E7" d="M189,28h2v1h1v2h-1v-1h-2V28z"/>
<path fill="#EFEFEF" d="M191,28h1v1h-1V28z"/>
<path fill="#802038" d="M192,28h1v1h-1V28z"/>
<path fill="#802038" d="M198,28h1v1h-1V28z"/>
<path fill="#EFEFEF" d="M199,28h1v1h-1V28z"/>
<path fill="#E7E7E7" d="M200,28h2v2h-1v1h-2v1h-1v-1h-1v-1h1v-1h2V28z"/>
<path fill="#E6E6E6" d="M54,29h1v2h-1V29z"/>
<path fill="#E6E6E6" d="M77,29h1v2h-1V29z"/>
<path fill="#802038" d="M78,29h1v1h-1V29z"/>
<path fill="#802038" d="M82,29h1v1h-1V29z"/>
<path fill="#E6E6E6" d="M100,29h1v2h-1V29z"/>
<path fill="#802038" d="M102,29h1v1h-1V29z"/>
<path fill="#802038" d="M104,29h1v1h-1V29z"/>
<path fill="#E6E6E6" d="M123,29h1v2h-1V29z"/>
<path fill="#802038" d="M124,29h1v1h-1V29z"/>
<path fill="#802038" d="M128,29h1v1h-1V29z"/>
<path fill="#E6E6E6" d="M146,29h1v2h-1V29z"/>
<path fill="#802038" d="M147,29h1v1h-1V29z"/>
<path fill="#802038" d="M151,29h1v1h-1V29z"/>
<path fill="#E6E6E6" d="M169,29h1v2h-1V29z"/>
<path fill="#802038" d="M170,29h1v1h-1V29z"/>
<path fill="#802038" d="M174,29h1v1h-1V29z"/>
<path fill="#E6E6E6" d="M192,29h1v2h-1V29z"/>
<path fill="#802038" d="M193,29h1v1h-1V29z"/>
<path fill="#802038" d="M197,29h1v1h-1V29z"/>
<path fill="#E7E7E7" d="M30,30h2v1h5v-1h2v2h-3v1h-3v-1h-3V30z"/>
<path fill="#010101" d="M51,30h1v2h-1V30z"/>
<path fill="#E3E3E3" d="M52,30h1v1h-1V30z"/>
<path fill="#010101" d="M63,30h1v2h-1V30z"/>
<path fill="#010101" d="M74,30h1v2h-1V30z"/>
<path fill="#E3E3E3" d="M75,30h1v1h-1V30z"/>
<path fill="#E7E7E7" d="M78,30h1v1h1v1h-2V30z"/>
<path fill="#802038" d="M79,30h1v1h-1V30z"/>
<path fill="#802038" d="M81,30h1v1h-1V30z"/>
<path fill="#010101" d="M86,30h1v2h-1V30z"/>
<path fill="#010101" d="M97,30h1v2h-1V30z"/>
<path fill="#E3E3E3" d="M98,30h1v1h-1V30z"/>
<path fill="#802038" d="M103,30h1v1h-1V30z"/>
<path fill="#010101" d="M109,30h1v2h-1V30z"/>
<path fill="#010101" d="M120,30h1v2h-1V30z"/>
<path fill="#E3E3E3" d="M121,30h1v1h-1V30z"/>
<path fill="#E7E7E7" d="M124,30h1v1h1v1h-2V30z"/>
<path fill="#802038" d="M125,30h1v1h-1V30z"/>
<path fill="#802038" d="M127,30h1v1h-1V30z"/>
<path fill="#010101" d="M132,30h1v2h-1V30z"/>
<path fill="#010101" d="M143,30h1v2h-1V30z"/>
<path fill="#E3E3E3" d="M144,30h1v1h-1V30z"/>
<path fill="#E7E7E7" d="M147,30h1v1h1v1h-2V30z"/>
<path fill="#802038" d="M148,30h1v1h-1V30z"/>
<path fill="#802038" d="M150,30h1v1h-1V30z"/>
<path fill="#010101" d="M155,30h1v2h-1V30z"/>
<path fill="#010101" d="M166,30h1v2h-1V30z"/>
<path fill="#E3E3E3" d="M167,30h1v1h-1V30z"/>
<path fill="#E7E7E7" d="M170,30h1v1h1v1h-2V30z"/>
<path fill="#802038" d="M171,30h1v1h-1V30z"/>
<path fill="#802038" d="M173,30h1v1h-1V30z"/>
<path fill="#010101" d="M178,30h1v2h-1V30z"/>
<path fill="#010101" d="M189,30h1v2h-1V30z"/>
<path fill="#E3E3E3" d="M190,30h1v1h-1V30z"/>
<path fill="#E7E7E7" d="M193,30h1v1h1v1h-2V30z"/>
<path fill="#802038" d="M194,30h1v1h-1V30z"/>
<path fill="#802038" d="M196,30h1v1h-1V30z"/>
<path fill="#010101" d="M201,30h1v2h-1V30z"/>
<path fill="#DEDEDE" d="M52,31h2v1h7v-1h2v1h-1v1h-3v1h-3v-1h-3v-1h-1V31z"/>
<path fill="#E2E2E2" d="M54,31h1v1h-1V31z"/>
<path fill="#E6E6E6" d="M59,31h1v1h-1V31z"/>
<path fill="#DEDEDE" d="M75,31h2v1h7v-1h2v1h-1v1h-3v1h-3v-1h-3v-1h-1V31z"/>
<path fill="#E2E2E2" d="M77,31h1v1h-1V31z"/>
<path fill="#802038" d="M80,31h1v1h-1V31z"/>
<path fill="#E7E7E7" d="M81,31h1v1h-1V31z"/>
<path fill="#E6E6E6" d="M82,31h1v1h-1V31z"/>
<path fill="#DEDEDE" d="M98,31h2v1h7v-1h2v1h-1v1h-3v1h-3v-1h-3v-1h-1V31z"/>
<path fill="#E2E2E2" d="M100,31h1v1h-1V31z"/>
<path fill="#E6E6E6" d="M105,31h1v1h-1V31z"/>
<path fill="#DEDEDE" d="M121,31h2v1h7v-1h2v1h-1v1h-3v1h-3v-1h-3v-1h-1V31z"/>
<path fill="#E2E2E2" d="M123,31h1v1h-1V31z"/>
<path fill="#802038" d="M126,31h1v1h-1V31z"/>
<path fill="#E7E7E7" d="M127,31h1v1h-1V31z"/>
<path fill="#E6E6E6" d="M128,31h1v1h-1V31z"/>
<path fill="#DEDEDE" d="M144,31h2v1h7v-1h2v1h-1v1h-3v1h-3v-1h-3v-1h-1V31z"/>
<path fill="#E2E2E2" d="M146,31h1v1h-1V31z"/>
<path fill="#802038" d="M149,31h1v1h-1V31z"/>
<path fill="#E7E7E7" d="M150,31h1v1h-1V31z"/>
<path fill="#E6E6E6" d="M151,31h1v1h-1V31z"/>
<path fill="#DEDEDE" d="M167,31h2v1h7v-1h2v1h-1v1h-3v1h-3v-1h-3v-1h-1V31z"/>
<path fill="#E2E2E2" d="M169,31h1v1h-1V31z"/>
<path fill="#802038" d="M172,31h1v1h-1V31z"/>
<path fill="#E7E7E7" d="M173,31h1v1h-1V31z"/>
<path fill="#E6E6E6" d="M174,31h1v1h-1V31z"/>
<path fill="#DEDEDE" d="M190,31h2v1h7v-1h2v1h-1v1h-3v1h-3v-1h-3v-1h-1V31z"/>
<path fill="#E2E2E2" d="M192,31h1v1h-1V31z"/>
<path fill="#802038" d="M195,31h1v1h-1V31z"/>
<path fill="#E7E7E7" d="M196,31h1v1h-1V31z"/>
<path fill="#E6E6E6" d="M197,31h1v1h-1V31z"/>
<path fill="#010101" d="M30,32h1v1h-1V32z"/>
<path fill="#DEDEDE" d="M31,32h2v1h3v-1h2v1h-1v1h-5v-1h-1V32z"/>
<path fill="#010101" d="M38,32h1v1h-1V32z"/>
<path fill="#010101" d="M52,32h1v1h-1V32z"/>
<path fill="#010101" d="M62,32h1v1h-1V32z"/>
<path fill="#010101" d="M75,32h1v1h-1V32z"/>
<path fill="#010101" d="M85,32h1v1h-1V32z"/>
<path fill="#010101" d="M98,32h1v1h-1V32z"/>
<path fill="#010101" d="M108,32h1v1h-1V32z"/>
<path fill="#010101" d="M121,32h1v1h-1V32z"/>
<path fill="#010101" d="M131,32h1v1h-1V32z"/>
<path fill="#010101" d="M144,32h1v1h-1V32z"/>
<path fill="#010101" d="M154,32h1v1h-1V32z"/>
<path fill="#010101" d="M167,32h1v1h-1V32z"/>
<path fill="#010101" d="M177,32h1v1h-1V32z"/>
<path fill="#010101" d="M190,32h1v1h-1V32z"/>
<path fill="#010101" d="M200,32h1v1h-1V32z"/>
<path fill="#010101" d="M31,33h1v1h-1V33z"/>
<path fill="#010101" d="M37,33h1v1h-1V33z"/>
<path fill="#010101" d="M53,33h2v1h-2V33z"/>
<path fill="#CCCCCC" d="M55,33h1v1h-1V33z"/>
<path fill="#CCCCCC" d="M59,33h1v1h-1V33z"/>
<path fill="#010101" d="M60,33h2v1h-2V33z"/>
<path fill="#010101" d="M76,33h2v1h-2V33z"/>
<path fill="#CCCCCC" d="M78,33h1v1h-1V33z"/>
<path fill="#CCCCCC" d="M82,33h1v1h-1V33z"/>
<path fill="#010101" d="M83,33h2v1h-2V33z"/>
<path fill="#010101" d="M99,33h2v1h-2V33z"/>
<path fill="#CCCCCC" d="M101,33h1v1h-1V33z"/>
<path fill="#CCCCCC" d="M105,33h1v1h-1V33z"/>
<path fill="#010101" d="M106,33h2v1h-2V33z"/>
<path fill="#010101" d="M122,33h2v1h-2V33z"/>
<path fill="#CCCCCC" d="M124,33h1v1h-1V33z"/>
<path fill="#CCCCCC" d="M128,33h1v1h-1V33z"/>
<path fill="#010101" d="M129,33h2v1h-2V33z"/>
<path fill="#010101" d="M145,33h2v1h-2V33z"/>
<path fill="#CCCCCC" d="M147,33h1v1h-1V33z"/>
<path fill="#CCCCCC" d="M151,33h1v1h-1V33z"/>
<path fill="#010101" d="M152,33h2v1h-2V33z"/>
<path fill="#010101" d="M168,33h2v1h-2V33z"/>
<path fill="#CCCCCC" d="M170,33h1v1h-1V33z"/>
<path fill="#CCCCCC" d="M174,33h1v1h-1V33z"/>
<path fill="#010101" d="M175,33h2v1h-2V33z"/>
<path fill="#010101" d="M191,33h2v1h-2V33z"/>
<path fill="#CCCCCC" d="M193,33h1v1h-1V33z"/>
<path fill="#CCCCCC" d="M197,33h1v1h-1V33z"/>
<path fill="#010101" d="M198,33h2v1h-2V33z"/>
<path fill="#010101" d="M32,34h1v1h-1V34z"/>
<path fill="#CCCCCC" d="M33,34h3v1h-1v1h-1v-1h-1V34z"/>
<path fill="#010101" d="M36,34h1v1h-1V34z"/>
<path fill="#010101" d="M55,34h1v1h-1V34z"/>
<path fill="#CCCCCC" d="M56,34h3v1h-1v1h-1v-1h-1V34z"/>
<path fill="#010101" d="M59,34h1v1h-1V34z"/>
<path fill="#010101" d="M78,34h1v1h-1V34z"/>
<path fill="#CCCCCC" d="M79,34h3v1h-1v1h-1v-1h-1V34z"/>
<path fill="#010101" d="M82,34h1v1h-1V34z"/>
<path fill="#010101" d="M101,34h1v1h-1V34z"/>
<path fill="#CCCCCC" d="M102,34h3v1h-1v1h-1v-1h-1V34z"/>
<path fill="#010101" d="M105,34h1v1h-1V34z"/>
<path fill="#010101" d="M124,34h1v1h-1V34z"/>
<path fill="#CCCCCC" d="M125,34h3v1h-1v1h-1v-1h-1V34z"/>
<path fill="#010101" d="M128,34h1v1h-1V34z"/>
<path fill="#010101" d="M147,34h1v1h-1V34z"/>
<path fill="#CCCCCC" d="M148,34h3v1h-1v1h-1v-1h-1V34z"/>
<path fill="#010101" d="M151,34h1v1h-1V34z"/>
<path fill="#010101" d="M170,34h1v1h-1V34z"/>
<path fill="#CCCCCC" d="M171,34h3v1h-1v1h-1v-1h-1V34z"/>
<path fill="#010101" d="M174,34h1v1h-1V34z"/>
<path fill="#010101" d="M193,34h1v1h-1V34z"/>
<path fill="#CCCCCC" d="M194,34h3v1h-1v1h-1v-1h-1V34z"/>
<path fill="#010101" d="M197,34h1v1h-1V34z"/>
<path fill="#010101" d="M33,35h1v1h-1V35z"/>
<path fill="#010101" d="M35,35h1v1h-1V35z"/>
<path fill="#010101" d="M56,35h1v1h-1V35z"/>
<path fill="#010101" d="M58,35h1v1h-1V35z"/>
<path fill="#010101" d="M79,35h1v1h-1V35z"/>
<path fill="#010101" d="M81,35h1v1h-1V35z"/>
<path fill="#010101" d="M102,35h1v1h-1V35z"/>
<path fill="#010101" d="M104,35h1v1h-1V35z"/>
<path fill="#010101" d="M125,35h1v1h-1V35z"/>
<path fill="#010101" d="M127,35h1v1h-1V35z"/>
<path fill="#010101" d="M148,35h1v1h-1V35z"/>
<path fill="#010101" d="M150,35h1v1h-1V35z"/>
<path fill="#010101" d="M171,35h1v1h-1V35z"/>
<path fill="#010101" d="M173,35h1v1h-1V35z"/>
<path fill="#010101" d="M194,35h1v1h-1V35z"/>
<path fill="#010101" d="M196,35h1v1h-1V35z"/>
<path fill="#010101" d="M34,36h1v1h-1V36z"/>
<path fill="#010101" d="M57,36h1v1h-1V36z"/>
<path fill="#010101" d="M80,36h1v1h-1V36z"/>
<path fill="#010101" d="M103,36h1v1h-1V36z"/>
<path fill="#010101" d="M126,36h1v1h-1V36z"/>
<path fill="#010101" d="M149,36h1v1h-1V36z"/>
<path fill="#010101" d="M172,36h1v1h-1V36z"/>
<path fill="#010101" d="M195,36h1v1h-1V36z"/>
<path fill="#010101" d="M55,39h5v1h-5V39z"/>
<path fill="#010101" d="M78,39h5v1h-5V39z"/>
<path fill="#010101" d="M101,39h5v1h-5V39z"/>
<path fill="#010101" d="M124,39h5v1h-5V39z"/>
<path fill="#010101" d="M147,39h5v1h-5V39z"/>
<path fill="#010101" d="M170,39h5v1h-5V39z"/>
<path fill="#010101" d="M193,39h5v1h-5V39z"/>
<path fill="#010101" d="M216,39h5v1h-5V39z"/>
<path fill="#010101" d="M239,39h5v1h-5V39z"/>
<path fill="#010101" d="M262,39h5v1h-5V39z"/>
<path fill="#010101" d="M53,40h2v1h-2V40z"/>
<path fill="#FDFDFD" d="M55,40h1v1h-1V40z"/>
<path fill="#FCFCFC" d="M56,40h1v1h-1V40z"/>
<path fill="#FDFDFD" d="M57,40h1v1h-1V40z"/>
<path fill="#FCFCFC" d="M58,40h2v1h-1v1h-2v-1h1V40z"/>
<path fill="#010101" d="M60,40h2v1h-2V40z"/>
<path fill="#010101" d="M76,40h2v1h-2V40z"/>
<path fill="#FDFDFD" d="M78,40h1v1h-1V40z"/>
<path fill="#FCFCFC" d="M79,40h1v1h-1V40z"/>
<path fill="#FDFDFD" d="M80,40h1v1h-1V40z"/>
<path fill="#FCFCFC" d="M81,40h2v1h-1v1h-2v-1h1V40z"/>
<path fill="#010101" d="M83,40h2v1h-2V40z"/>
<path fill="#010101" d="M99,40h2v1h-2V40z"/>
<path fill="#FDFDFD" d="M101,40h1v1h-1V40z"/>
<path fill="#FCFCFC" d="M102,40h1v1h-1V40z"/>
<path fill="#FDFDFD" d="M103,40h1v1h-1V40z"/>
<path fill="#FCFCFC" d="M104,40h2v1h-1v1h-2v-1h1V40z"/>
<path fill="#010101" d="M106,40h2v1h-2V40z"/>
<path fill="#010101" d="M122,40h2v1h-2V40z"/>
<path fill="#FDFDFD" d="M124,40h1v1h-1V40z"/>
<path fill="#FCFCFC" d="M125,40h1v1h-1V40z"/>
<path fill="#FDFDFD" d="M126,40h1v1h-1V40z"/>
<path fill="#FCFCFC" d="M127,40h2v1h-1v1h-2v-1h1V40z"/>
<path fill="#010101" d="M129,40h2v1h-2V40z"/>
<path fill="#010101" d="M145,40h2v1h-2V40z"/>
<path fill="#FDFDFD" d="M147,40h1v1h-1V40z"/>
<path fill="#FCFCFC" d="M148,40h1v1h-1V40z"/>
<path fill="#FDFDFD" d="M149,40h1v1h-1V40z"/>
<path fill="#FCFCFC" d="M150,40h2v1h-1v1h-2v-1h1V40z"/>
<path fill="#010101" d="M152,40h2v1h-2V40z"/>
<path fill="#010101" d="M168,40h2v1h-2V40z"/>
<path fill="#FDFDFD" d="M170,40h1v1h-1V40z"/>
<path fill="#FCFCFC" d="M171,40h1v1h-1V40z"/>
<path fill="#FDFDFD" d="M172,40h1v1h-1V40z"/>
<path fill="#FCFCFC" d="M173,40h2v1h-1v1h-2v-1h1V40z"/>
<path fill="#010101" d="M175,40h2v1h-2V40z"/>
<path fill="#010101" d="M191,40h2v1h-2V40z"/>
<path fill="#FDFDFD" d="M193,40h1v1h-1V40z"/>
<path fill="#FCFCFC" d="M194,40h1v1h-1V40z"/>
<path fill="#FDFDFD" d="M195,40h1v1h-1V40z"/>
<path fill="#FCFCFC" d="M196,40h2v1h-1v1h-2v-1h1V40z"/>
<path fill="#010101" d="M198,40h2v1h-2V40z"/>
<path fill="#010101" d="M214,40h2v1h-2V40z"/>
<path fill="#FDFDFD" d="M216,40h1v1h-1V40z"/>
<path fill="#FCFCFC" d="M217,40h1v1h-1V40z"/>
<path fill="#FDFDFD" d="M218,40h1v1h-1V40z"/>
<path fill="#FCFCFC" d="M219,40h2v1h-1v1h-2v-1h1V40z"/>
<path fill="#010101" d="M221,40h2v1h-2V40z"/>
<path fill="#010101" d="M237,40h2v1h-2V40z"/>
<path fill="#FDFDFD" d="M239,40h1v1h-1V40z"/>
<path fill="#FCFCFC" d="M240,40h1v1h-1V40z"/>
<path fill="#FDFDFD" d="M241,40h1v1h-1V40z"/>
<path fill="#FCFCFC" d="M242,40h2v1h-1v1h-2v-1h1V40z"/>
<path fill="#010101" d="M244,40h2v1h-2V40z"/>
<path fill="#010101" d="M260,40h2v1h-2V40z"/>
<path fill="#FDFDFD" d="M262,40h1v1h-1V40z"/>
<path fill="#FCFCFC" d="M263,40h1v1h-1V40z"/>
<path fill="#FDFDFD" d="M264,40h1v1h-1V40z"/>
<path fill="#FCFCFC" d="M265,40h2v1h-1v1h-2v-1h1V40z"/>
<path fill="#010101" d="M267,40h2v1h-2V40z"/>
<path fill="#010101" d="M52,41h1v1h-1V41z"/>
<path fill="#F8F8F8" d="M53,41h1v1h7v-1h1v1h1v2h-1v1h-9v-1h-1v-2h1V41z"/>
<path fill="#FDFDFD" d="M54,41h1v1h-1V41z"/>
<path fill="#FCFCFC" d="M55,41h1v1h-1V41z"/>
<path fill="#FDFDFD" d="M56,41h1v1h-1V41z"/>
<path fill="#FDFDFD" d="M59,41h2v1h-2V41z"/>
<path fill="#010101" d="M62,41h1v1h-1V41z"/>
<path fill="#010101" d="M75,41h1v1h-1V41z"/>
<path fill="#F8F8F8" d="M76,41h1v1h7v-1h1v1h1v2h-1v1h-9v-1h-1v-2h1V41z"/>
<path fill="#FDFDFD" d="M77,41h1v1h-1V41z"/>
<path fill="#FCFCFC" d="M78,41h1v1h-1V41z"/>
<path fill="#FDFDFD" d="M79,41h1v1h-1V41z"/>
<path fill="#FDFDFD" d="M82,41h2v1h-2V41z"/>
<path fill="#010101" d="M85,41h1v1h-1V41z"/>
<path fill="#010101" d="M98,41h1v1h-1V41z"/>
<path fill="#F8F8F8" d="M99,41h1v1h7v-1h1v1h1v2h-1v1h-9v-1h-1v-2h1V41z"/>
<path fill="#FDFDFD" d="M100,41h1v1h-1V41z"/>
<path fill="#FCFCFC" d="M101,41h1v1h-1V41z"/>
<path fill="#FDFDFD" d="M102,41h1v1h-1V41z"/>
<path fill="#FDFDFD" d="M105,41h2v1h-2V41z"/>
<path fill="#010101" d="M108,41h1v1h-1V41z"/>
<path fill="#010101" d="M121,41h1v1h-1V41z"/>
<path fill="#F8F8F8" d="M122,41h1v1h7v-1h1v1h1v2h-1v1h-9v-1h-1v-2h1V41z"/>
<path fill="#FDFDFD" d="M123,41h1v1h-1V41z"/>
<path fill="#FCFCFC" d="M124,41h1v1h-1V41z"/>
<path fill="#FDFDFD" d="M125,41h1v1h-1V41z"/>
<path fill="#FDFDFD" d="M128,41h2v1h-2V41z"/>
<path fill="#010101" d="M131,41h1v1h-1V41z"/>
<path fill="#010101" d="M144,41h1v1h-1V41z"/>
<path fill="#F8F8F8" d="M145,41h1v1h7v-1h1v1h1v2h-1v1h-9v-1h-1v-2h1V41z"/>
<path fill="#FDFDFD" d="M146,41h1v1h-1V41z"/>
<path fill="#FCFCFC" d="M147,41h1v1h-1V41z"/>
<path fill="#FDFDFD" d="M148,41h1v1h-1V41z"/>
<path fill="#FDFDFD" d="M151,41h2v1h-2V41z"/>
<path fill="#010101" d="M154,41h1v1h-1V41z"/>
<path fill="#010101" d="M167,41h1v1h-1V41z"/>
<path fill="#F8F8F8" d="M168,41h1v1h7v-1h1v1h1v2h-1v1h-9v-1h-1v-2h1V41z"/>
<path fill="#FDFDFD" d="M169,41h1v1h-1V41z"/>
<path fill="#FCFCFC" d="M170,41h1v1h-1V41z"/>
<path fill="#FDFDFD" d="M171,41h1v1h-1V41z"/>
<path fill="#FDFDFD" d="M174,41h2v1h-2V41z"/>
<path fill="#010101" d="M177,41h1v1h-1V41z"/>
<path fill="#010101" d="M190,41h1v1h-1V41z"/>
<path fill="#F8F8F8" d="M191,41h1v1h7v-1h1v1h1v2h-1v1h-9v-1h-1v-2h1V41z"/>
<path fill="#FDFDFD" d="M192,41h1v1h-1V41z"/>
<path fill="#FCFCFC" d="M193,41h1v1h-1V41z"/>
<path fill="#FDFDFD" d="M194,41h1v1h-1V41z"/>
<path fill="#FDFDFD" d="M197,41h2v1h-2V41z"/>
<path fill="#010101" d="M200,41h1v1h-1V41z"/>
<path fill="#010101" d="M213,41h1v1h-1V41z"/>
<path fill="#F8F8F8" d="M214,41h1v1h7v-1h1v1h1v2h-1v1h-9v-1h-1v-2h1V41z"/>
<path fill="#FDFDFD" d="M215,41h1v1h-1V41z"/>
<path fill="#FCFCFC" d="M216,41h1v1h-1V41z"/>
<path fill="#FDFDFD" d="M217,41h1v1h-1V41z"/>
<path fill="#FDFDFD" d="M220,41h2v1h-2V41z"/>
<path fill="#010101" d="M223,41h1v1h-1V41z"/>
<path fill="#010101" d="M236,41h1v1h-1V41z"/>
<path fill="#F8F8F8" d="M237,41h1v1h7v-1h1v1h1v2h-1v1h-9v-1h-1v-2h1V41z"/>
<path fill="#FDFDFD" d="M238,41h1v1h-1V41z"/>
<path fill="#FCFCFC" d="M239,41h1v1h-1V41z"/>
<path fill="#FDFDFD" d="M240,41h1v1h-1V41z"/>
<path fill="#FDFDFD" d="M243,41h2v1h-2V41z"/>
<path fill="#010101" d="M246,41h1v1h-1V41z"/>
<path fill="#010101" d="M259,41h1v1h-1V41z"/>
<path fill="#F8F8F8" d="M260,41h1v1h7v-1h1v1h1v2h-1v1h-9v-1h-1v-2h1V41z"/>
<path fill="#FDFDFD" d="M261,41h1v1h-1V41z"/>
<path fill="#FCFCFC" d="M262,41h1v1h-1V41z"/>
<path fill="#FDFDFD" d="M263,41h1v1h-1V41z"/>
<path fill="#FDFDFD" d="M266,41h2v1h-2V41z"/>
<path fill="#010101" d="M269,41h1v1h-1V41z"/>
<path fill="#010101" d="M51,42h1v2h-1V42z"/>
<path fill="#010101" d="M63,42h1v2h-1V42z"/>
<path fill="#010101" d="M74,42h1v2h-1V42z"/>
<path fill="#010101" d="M86,42h1v2h-1V42z"/>
<path fill="#010101" d="M97,42h1v2h-1V42z"/>
<path fill="#010101" d="M109,42h1v2h-1V42z"/>
<path fill="#010101" d="M120,42h1v2h-1V42z"/>
<path fill="#010101" d="M132,42h1v2h-1V42z"/>
<path fill="#010101" d="M143,42h1v2h-1V42z"/>
<path fill="#010101" d="M155,42h1v2h-1V42z"/>
<path fill="#010101" d="M166,42h1v2h-1V42z"/>
<path fill="#010101" d="M178,42h1v2h-1V42z"/>
<path fill="#010101" d="M189,42h1v2h-1V42z"/>
<path fill="#010101" d="M201,42h1v2h-1V42z"/>
<path fill="#010101" d="M212,42h1v2h-1V42z"/>
<path fill="#010101" d="M224,42h1v2h-1V42z"/>
<path fill="#010101" d="M235,42h1v2h-1V42z"/>
<path fill="#010101" d="M247,42h1v2h-1V42z"/>
<path fill="#010101" d="M258,42h1v2h-1V42z"/>
<path fill="#010101" d="M270,42h1v2h-1V42z"/>
<path fill="#010101" d="M32,43h5v1h-5V43z"/>
<path fill="#010101" d="M31,44h1v1h-1V44z"/>
<path fill="#FDFDFD" d="M32,44h5v1h-1v1h-3v-1h-1V44z"/>
<path fill="#010101" d="M37,44h1v1h-1V44z"/>
<path fill="#010101" d="M50,44h1v5h-1V44z"/>
<path fill="#EFEFEF" d="M51,44h2v1h9v-1h2v3h-2v1h-9v-1h-2V44z"/>
<path fill="#010101" d="M64,44h1v5h-1V44z"/>
<path fill="#010101" d="M73,44h1v5h-1V44z"/>
<path fill="#EFEFEF" d="M74,44h2v1h9v-1h2v3h-2v1h-6v-1h-1v1h-2v-1h-2V44z"/>
<path fill="#010101" d="M87,44h1v5h-1V44z"/>
<path fill="#010101" d="M96,44h1v5h-1V44z"/>
<path fill="#EFEFEF" d="M97,44h2v1h9v-1h2v3h-2v1h-6v-1h-1v1h-2v-1h-2V44z"/>
<path fill="#010101" d="M110,44h1v5h-1V44z"/>
<path fill="#010101" d="M119,44h1v5h-1V44z"/>
<path fill="#EFEFEF" d="M120,44h2v1h9v-1h2v3h-2v1h-4v-1h-1v1h-1v-1h-1v1h-2v-1h-2V44z"/>
<path fill="#010101" d="M133,44h1v5h-1V44z"/>
<path fill="#010101" d="M142,44h1v5h-1V44z"/>
<path fill="#EFEFEF" d="M143,44h2v1h9v-1h2v3h-2v1h-4v-1h-1v1h-1v-1h-1v1h-2v-1h-2V44z"/>
<path fill="#010101" d="M156,44h1v5h-1V44z"/>
<path fill="#010101" d="M165,44h1v5h-1V44z"/>
<path fill="#EFEFEF" d="M166,44h2v1h9v-1h2v3h-2v1h-2v-1h-1v1h-1v-1h-1v1h-1v-1h-1v1h-2v-1h-2V44z"/>
<path fill="#010101" d="M179,44h1v5h-1V44z"/>
<path fill="#010101" d="M188,44h1v5h-1V44z"/>
<path fill="#EFEFEF" d="M189,44h2v1h9v-1h2v3h-2v1h-2v-1h-1v1h-1v-1h-1v1h-1v-1h-1v1h-2v-1h-2V44z"/>
<path fill="#010101" d="M202,44h1v5h-1V44z"/>
<path fill="#010101" d="M211,44h1v5h-1V44z"/>
<path fill="#EFEFEF" d="M212,44h2v1h9v-1h2v3h-2v1h-2v-1h-1v1h-1v-1h-1v1h-1v-1h-1v1h-2v-1h-2V44z"/>
<path fill="#010101" d="M225,44h1v5h-1V44z"/>
<path fill="#010101" d="M234,44h1v5h-1V44z"/>
<path fill="#EFEFEF" d="M235,44h2v1h9v-1h2v3h-2v1h-2v-1h-1v1h-1v-1h-1v1h-1v-1h-1v1h-2v-1h-2V44z"/>
<path fill="#010101" d="M248,44h1v5h-1V44z"/>
<path fill="#010101" d="M257,44h1v5h-1V44z"/>
<path fill="#EFEFEF" d="M258,44h2v1h9v-1h2v3h-2v1h-2v-1h-1v1h-1v-1h-1v1h-1v-1h-1v1h-2v-1h-2V44z"/>
<path fill="#010101" d="M271,44h1v5h-1V44z"/>
<path fill="#010101" d="M30,45h1v1h-1V45z"/>
<path fill="#F8F8F8" d="M31,45h2v1h3v-1h2v1h1v1h-2v1h-5v-1h-2v-1h1V45z"/>
<path fill="#010101" d="M38,45h1v1h-1V45z"/>
<path fill="#010101" d="M29,46h1v5h-1V46z"/>
<path fill="#010101" d="M39,46h1v5h-1V46z"/>
<path fill="#EFEFEF" d="M30,47h2v1h5v-1h2v2h-2v1h-5v-1h-2V47z"/>
<path fill="#E7E7E7" d="M51,47h2v1h1v2h-1v-1h-2V47z"/>
<path fill="#E7E7E7" d="M62,47h2v2h-1v1h-2v1h-1v-1h-1v1h-4v-3h7V47z"/>
<path fill="#E7E7E7" d="M74,47h2v1h1v2h-1v-1h-2V47z"/>
<path fill="#010101" d="M78,47h1v1h-1V47z"/>
<path fill="#E7E7E7" d="M85,47h2v2h-1v1h-2v1h-1v-1h-1v1h-4v-3h7V47z"/>
<path fill="#E7E7E7" d="M97,47h2v1h1v2h-1v-1h-2V47z"/>
<path fill="#010101" d="M101,47h1v1h-1V47z"/>
<path fill="#E7E7E7" d="M108,47h2v2h-1v1h-2v1h-1v-1h-1v1h-4v-3h7V47z"/>
<path fill="#E7E7E7" d="M120,47h2v1h1v2h-1v-1h-2V47z"/>
<path fill="#010101" d="M124,47h1v1h-1V47z"/>
<path fill="#010101" d="M126,47h1v1h-1V47z"/>
<path fill="#E7E7E7" d="M131,47h2v2h-1v1h-2v1h-1v-1h-1v1h-4v-3h7V47z"/>
<path fill="#E7E7E7" d="M143,47h2v1h1v2h-1v-1h-2V47z"/>
<path fill="#010101" d="M147,47h1v1h-1V47z"/>
<path fill="#010101" d="M149,47h1v1h-1V47z"/>
<path fill="#E7E7E7" d="M154,47h2v2h-1v1h-2v1h-1v-1h-1v1h-4v-3h7V47z"/>
<path fill="#E7E7E7" d="M166,47h2v1h1v2h-1v-1h-2V47z"/>
<path fill="#010101" d="M170,47h1v1h-1V47z"/>
<path fill="#010101" d="M172,47h1v1h-1V47z"/>
<path fill="#010101" d="M174,47h1v1h-1V47z"/>
<path fill="#E7E7E7" d="M177,47h2v2h-1v1h-2v1h-1v-1h-1v1h-4v-3h7V47z"/>
<path fill="#E7E7E7" d="M189,47h2v1h1v2h-1v-1h-2V47z"/>
<path fill="#010101" d="M193,47h1v1h-1V47z"/>
<path fill="#010101" d="M195,47h1v1h-1V47z"/>
<path fill="#010101" d="M197,47h1v1h-1V47z"/>
<path fill="#E7E7E7" d="M200,47h2v2h-1v1h-2v1h-1v-1h-1v1h-4v-3h7V47z"/>
<path fill="#E7E7E7" d="M212,47h2v1h1v2h-1v-1h-2V47z"/>
<path fill="#010101" d="M216,47h1v1h-1V47z"/>
<path fill="#010101" d="M218,47h1v1h-1V47z"/>
<path fill="#010101" d="M220,47h1v1h-1V47z"/>
<path fill="#E7E7E7" d="M223,47h2v2h-1v1h-2v1h-1v-1h-1v1h-4v-3h7V47z"/>
<path fill="#E7E7E7" d="M235,47h2v1h1v2h-1v-1h-2V47z"/>
<path fill="#010101" d="M239,47h1v1h-1V47z"/>
<path fill="#010101" d="M241,47h1v1h-1V47z"/>
<path fill="#010101" d="M243,47h1v1h-1V47z"/>
<path fill="#E7E7E7" d="M246,47h2v2h-1v1h-2v1h-1v-1h-1v1h-4v-3h7V47z"/>
<path fill="#E7E7E7" d="M258,47h2v1h1v2h-1v-1h-2V47z"/>
<path fill="#010101" d="M262,47h1v1h-1V47z"/>
<path fill="#010101" d="M264,47h1v1h-1V47z"/>
<path fill="#010101" d="M266,47h1v1h-1V47z"/>
<path fill="#E7E7E7" d="M269,47h2v2h-1v1h-2v1h-1v-1h-1v1h-4v-3h7V47z"/>
<path fill="#E6E6E6" d="M54,48h1v2h-1V48z"/>
<path fill="#E6E6E6" d="M77,48h1v2h-1V48z"/>
<path fill="#E6E6E6" d="M100,48h1v2h-1V48z"/>
<path fill="#E6E6E6" d="M123,48h1v2h-1V48z"/>
<path fill="#E6E6E6" d="M146,48h1v2h-1V48z"/>
<path fill="#E6E6E6" d="M169,48h1v2h-1V48z"/>
<path fill="#E6E6E6" d="M192,48h1v2h-1V48z"/>
<path fill="#E6E6E6" d="M215,48h1v2h-1V48z"/>
<path fill="#E6E6E6" d="M238,48h1v2h-1V48z"/>
<path fill="#E6E6E6" d="M261,48h1v2h-1V48z"/>
<path fill="#E7E7E7" d="M30,49h2v1h5v-1h2v2h-3v1h-3v-1h-3V49z"/>
<path fill="#010101" d="M51,49h1v2h-1V49z"/>
<path fill="#E3E3E3" d="M52,49h1v1h-1V49z"/>
<path fill="#010101" d="M63,49h1v2h-1V49z"/>
<path fill="#010101" d="M74,49h1v2h-1V49z"/>
<path fill="#E3E3E3" d="M75,49h1v1h-1V49z"/>
<path fill="#010101" d="M86,49h1v2h-1V49z"/>
<path fill="#010101" d="M97,49h1v2h-1V49z"/>
<path fill="#E3E3E3" d="M98,49h1v1h-1V49z"/>
<path fill="#010101" d="M109,49h1v2h-1V49z"/>
<path fill="#010101" d="M120,49h1v2h-1V49z"/>
<path fill="#E3E3E3" d="M121,49h1v1h-1V49z"/>
<path fill="#010101" d="M132,49h1v2h-1V49z"/>
<path fill="#010101" d="M143,49h1v2h-1V49z"/>
<path fill="#E3E3E3" d="M144,49h1v1h-1V49z"/>
<path fill="#010101" d="M155,49h1v2h-1V49z"/>
<path fill="#010101" d="M166,49h1v2h-1V49z"/>
<path fill="#E3E3E3" d="M167,49h1v1h-1V49z"/>
<path fill="#010101" d="M178,49h1v2h-1V49z"/>
<path fill="#010101" d="M189,49h1v2h-1V49z"/>
<path fill="#E3E3E3" d="M190,49h1v1h-1V49z"/>
<path fill="#010101" d="M201,49h1v2h-1V49z"/>
<path fill="#010101" d="M212,49h1v2h-1V49z"/>
<path fill="#E3E3E3" d="M213,49h1v1h-1V49z"/>
<path fill="#010101" d="M224,49h1v2h-1V49z"/>
<path fill="#010101" d="M235,49h1v2h-1V49z"/>
<path fill="#E3E3E3" d="M236,49h1v1h-1V49z"/>
<path fill="#010101" d="M247,49h1v2h-1V49z"/>
<path fill="#010101" d="M258,49h1v2h-1V49z"/>
<path fill="#E3E3E3" d="M259,49h1v1h-1V49z"/>
<path fill="#010101" d="M270,49h1v2h-1V49z"/>
<path fill="#DEDEDE" d="M52,50h2v1h7v-1h2v1h-1v1h-3v1h-3v-1h-3v-1h-1V50z"/>
<path fill="#E2E2E2" d="M54,50h1v1h-1V50z"/>
<path fill="#E6E6E6" d="M59,50h1v1h-1V50z"/>
<path fill="#DEDEDE" d="M75,50h2v1h7v-1h2v1h-1v1h-3v1h-3v-1h-3v-1h-1V50z"/>
<path fill="#E2E2E2" d="M77,50h1v1h-1V50z"/>
<path fill="#E6E6E6" d="M82,50h1v1h-1V50z"/>
<path fill="#DEDEDE" d="M98,50h2v1h7v-1h2v1h-1v1h-3v1h-3v-1h-3v-1h-1V50z"/>
<path fill="#E2E2E2" d="M100,50h1v1h-1V50z"/>
<path fill="#E6E6E6" d="M105,50h1v1h-1V50z"/>
<path fill="#DEDEDE" d="M121,50h2v1h7v-1h2v1h-1v1h-3v1h-3v-1h-3v-1h-1V50z"/>
<path fill="#E2E2E2" d="M123,50h1v1h-1V50z"/>
<path fill="#E6E6E6" d="M128,50h1v1h-1V50z"/>
<path fill="#DEDEDE" d="M144,50h2v1h7v-1h2v1h-1v1h-3v1h-3v-1h-3v-1h-1V50z"/>
<path fill="#E2E2E2" d="M146,50h1v1h-1V50z"/>
<path fill="#E6E6E6" d="M151,50h1v1h-1V50z"/>
<path fill="#DEDEDE" d="M167,50h2v1h7v-1h2v1h-1v1h-3v1h-3v-1h-3v-1h-1V50z"/>
<path fill="#E2E2E2" d="M169,50h1v1h-1V50z"/>
<path fill="#E6E6E6" d="M174,50h1v1h-1V50z"/>
<path fill="#DEDEDE" d="M190,50h2v1h7v-1h2v1h-1v1h-3v1h-3v-1h-3v-1h-1V50z"/>
<path fill="#E2E2E2" d="M192,50h1v1h-1V50z"/>
<path fill="#E6E6E6" d="M197,50h1v1h-1V50z"/>
<path fill="#DEDEDE" d="M213,50h2v1h7v-1h2v1h-1v1h-3v1h-3v-1h-3v-1h-1V50z"/>
<path fill="#E2E2E2" d="M215,50h1v1h-1V50z"/>
<path fill="#E6E6E6" d="M220,50h1v1h-1V50z"/>
<path fill="#DEDEDE" d="M236,50h2v1h7v-1h2v1h-1v1h-3v1h-3v-1h-3v-1h-1V50z"/>
<path fill="#E2E2E2" d="M238,50h1v1h-1V50z"/>
<path fill="#E6E6E6" d="M243,50h1v1h-1V50z"/>
<path fill="#DEDEDE" d="M259,50h2v1h7v-1h2v1h-1v1h-3v1h-3v-1h-3v-1h-1V50z"/>
<path fill="#E2E2E2" d="M261,50h1v1h-1V50z"/>
<path fill="#E6E6E6" d="M266,50h1v1h-1V50z"/>
<path fill="#010101" d="M30,51h1v1h-1V51z"/>
<path fill="#DEDEDE" d="M31,51h2v1h3v-1h2v1h-1v1h-5v-1h-1V51z"/>
<path fill="#010101" d="M38,51h1v1h-1V51z"/>
<path fill="#010101" d="M52,51h1v1h-1V51z"/>
<path fill="#010101" d="M62,51h1v1h-1V51z"/>
<path fill="#010101" d="M75,51h1v1h-1V51z"/>
<path fill="#010101" d="M85,51h1v1h-1V51z"/>
<path fill="#010101" d="M98,51h1v1h-1V51z"/>
<path fill="#010101" d="M108,51h1v1h-1V51z"/>
<path fill="#010101" d="M121,51h1v1h-1V51z"/>
<path fill="#010101" d="M131,51h1v1h-1V51z"/>
<path fill="#010101" d="M144,51h1v1h-1V51z"/>
<path fill="#010101" d="M154,51h1v1h-1V51z"/>
<path fill="#010101" d="M167,51h1v1h-1V51z"/>
<path fill="#010101" d="M177,51h1v1h-1V51z"/>
<path fill="#010101" d="M190,51h1v1h-1V51z"/>
<path fill="#010101" d="M200,51h1v1h-1V51z"/>
<path fill="#010101" d="M213,51h1v1h-1V51z"/>
<path fill="#010101" d="M223,51h1v1h-1V51z"/>
<path fill="#010101" d="M236,51h1v1h-1V51z"/>
<path fill="#010101" d="M246,51h1v1h-1V51z"/>
<path fill="#010101" d="M259,51h1v1h-1V51z"/>
<path fill="#010101" d="M269,51h1v1h-1V51z"/>
<path fill="#010101" d="M31,52h1v1h-1V52z"/>
<path fill="#010101" d="M37,52h1v1h-1V52z"/>
<path fill="#010101" d="M53,52h2v1h-2V52z"/>
<path fill="#CCCCCC" d="M55,52h1v1h-1V52z"/>
<path fill="#CCCCCC" d="M59,52h1v1h-1V52z"/>
<path fill="#010101" d="M60,52h2v1h-2V52z"/>
<path fill="#010101" d="M76,52h2v1h-2V52z"/>
<path fill="#CCCCCC" d="M78,52h1v1h-1V52z"/>
<path fill="#CCCCCC" d="M82,52h1v1h-1V52z"/>
<path fill="#010101" d="M83,52h2v1h-2V52z"/>
<path fill="#010101" d="M99,52h2v1h-2V52z"/>
<path fill="#CCCCCC" d="M101,52h1v1h-1V52z"/>
<path fill="#CCCCCC" d="M105,52h1v1h-1V52z"/>
<path fill="#010101" d="M106,52h2v1h-2V52z"/>
<path fill="#010101" d="M122,52h2v1h-2V52z"/>
<path fill="#CCCCCC" d="M124,52h1v1h-1V52z"/>
<path fill="#CCCCCC" d="M128,52h1v1h-1V52z"/>
<path fill="#010101" d="M129,52h2v1h-2V52z"/>
<path fill="#010101" d="M145,52h2v1h-2V52z"/>
<path fill="#CCCCCC" d="M147,52h1v1h-1V52z"/>
<path fill="#CCCCCC" d="M151,52h1v1h-1V52z"/>
<path fill="#010101" d="M152,52h2v1h-2V52z"/>
<path fill="#010101" d="M168,52h2v1h-2V52z"/>
<path fill="#CCCCCC" d="M170,52h1v1h-1V52z"/>
<path fill="#CCCCCC" d="M174,52h1v1h-1V52z"/>
<path fill="#010101" d="M175,52h2v1h-2V52z"/>
<path fill="#010101" d="M191,52h2v1h-2V52z"/>
<path fill="#CCCCCC" d="M193,52h1v1h-1V52z"/>
<path fill="#CCCCCC" d="M197,52h1v1h-1V52z"/>
<path fill="#010101" d="M198,52h2v1h-2V52z"/>
<path fill="#010101" d="M214,52h2v1h-2V52z"/>
<path fill="#CCCCCC" d="M216,52h1v1h-1V52z"/>
<path fill="#CCCCCC" d="M220,52h1v1h-1V52z"/>
<path fill="#010101" d="M221,52h2v1h-2V52z"/>
<path fill="#010101" d="M237,52h2v1h-2V52z"/>
<path fill="#CCCCCC" d="M239,52h1v1h-1V52z"/>
<path fill="#CCCCCC" d="M243,52h1v1h-1V52z"/>
<path fill="#010101" d="M244,52h2v1h-2V52z"/>
<path fill="#010101" d="M260,52h2v1h-2V52z"/>
<path fill="#CCCCCC" d="M262,52h1v1h-1V52z"/>
<path fill="#CCCCCC" d="M266,52h1v1h-1V52z"/>
<path fill="#010101" d="M267,52h2v1h-2V52z"/>
<path fill="#010101" d="M32,53h1v1h-1V53z"/>
<path fill="#CCCCCC" d="M33,53h3v1h-1v1h-1v-1h-1V53z"/>
<path fill="#010101" d="M36,53h1v1h-1V53z"/>
<path fill="#010101" d="M55,53h1v1h-1V53z"/>
<path fill="#CCCCCC" d="M56,53h3v1h-1v1h-1v-1h-1V53z"/>
<path fill="#010101" d="M59,53h1v1h-1V53z"/>
<path fill="#010101" d="M78,53h1v1h-1V53z"/>
<path fill="#CCCCCC" d="M79,53h3v1h-1v1h-1v-1h-1V53z"/>
<path fill="#010101" d="M82,53h1v1h-1V53z"/>
<path fill="#010101" d="M101,53h1v1h-1V53z"/>
<path fill="#CCCCCC" d="M102,53h3v1h-1v1h-1v-1h-1V53z"/>
<path fill="#010101" d="M105,53h1v1h-1V53z"/>
<path fill="#010101" d="M124,53h1v1h-1V53z"/>
<path fill="#CCCCCC" d="M125,53h3v1h-1v1h-1v-1h-1V53z"/>
<path fill="#010101" d="M128,53h1v1h-1V53z"/>
<path fill="#010101" d="M147,53h1v1h-1V53z"/>
<path fill="#CCCCCC" d="M148,53h3v1h-1v1h-1v-1h-1V53z"/>
<path fill="#010101" d="M151,53h1v1h-1V53z"/>
<path fill="#010101" d="M170,53h1v1h-1V53z"/>
<path fill="#CCCCCC" d="M171,53h3v1h-1v1h-1v-1h-1V53z"/>
<path fill="#010101" d="M174,53h1v1h-1V53z"/>
<path fill="#010101" d="M193,53h1v1h-1V53z"/>
<path fill="#CCCCCC" d="M194,53h3v1h-1v1h-1v-1h-1V53z"/>
<path fill="#010101" d="M197,53h1v1h-1V53z"/>
<path fill="#010101" d="M216,53h1v1h-1V53z"/>
<path fill="#CCCCCC" d="M217,53h3v1h-1v1h-1v-1h-1V53z"/>
<path fill="#010101" d="M220,53h1v1h-1V53z"/>
<path fill="#010101" d="M239,53h1v1h-1V53z"/>
<path fill="#CCCCCC" d="M240,53h3v1h-1v1h-1v-1h-1V53z"/>
<path fill="#010101" d="M243,53h1v1h-1V53z"/>
<path fill="#010101" d="M262,53h1v1h-1V53z"/>
<path fill="#CCCCCC" d="M263,53h3v1h-1v1h-1v-1h-1V53z"/>
<path fill="#010101" d="M266,53h1v1h-1V53z"/>
<path fill="#010101" d="M33,54h1v1h-1V54z"/>
<path fill="#010101" d="M35,54h1v1h-1V54z"/>
<path fill="#010101" d="M56,54h1v1h-1V54z"/>
<path fill="#010101" d="M58,54h1v1h-1V54z"/>
<path fill="#010101" d="M79,54h1v1h-1V54z"/>
<path fill="#010101" d="M81,54h1v1h-1V54z"/>
<path fill="#010101" d="M102,54h1v1h-1V54z"/>
<path fill="#010101" d="M104,54h1v1h-1V54z"/>
<path fill="#010101" d="M125,54h1v1h-1V54z"/>
<path fill="#010101" d="M127,54h1v1h-1V54z"/>
<path fill="#010101" d="M148,54h1v1h-1V54z"/>
<path fill="#010101" d="M150,54h1v1h-1V54z"/>
<path fill="#010101" d="M171,54h1v1h-1V54z"/>
<path fill="#010101" d="M173,54h1v1h-1V54z"/>
<path fill="#010101" d="M194,54h1v1h-1V54z"/>
<path fill="#010101" d="M196,54h1v1h-1V54z"/>
<path fill="#010101" d="M217,54h1v1h-1V54z"/>
<path fill="#010101" d="M219,54h1v1h-1V54z"/>
<path fill="#010101" d="M240,54h1v1h-1V54z"/>
<path fill="#010101" d="M242,54h1v1h-1V54z"/>
<path fill="#010101" d="M263,54h1v1h-1V54z"/>
<path fill="#010101" d="M265,54h1v1h-1V54z"/>
<path fill="#010101" d="M34,55h1v1h-1V55z"/>
<path fill="#010101" d="M57,55h1v1h-1V55z"/>
<path fill="#010101" d="M80,55h1v1h-1V55z"/>
<path fill="#010101" d="M103,55h1v1h-1V55z"/>
<path fill="#010101" d="M126,55h1v1h-1V55z"/>
<path fill="#010101" d="M149,55h1v1h-1V55z"/>
<path fill="#010101" d="M172,55h1v1h-1V55z"/>
<path fill="#010101" d="M195,55h1v1h-1V55z"/>
<path fill="#010101" d="M218,55h1v1h-1V55z"/>
<path fill="#010101" d="M241,55h1v1h-1V55z"/>
<path fill="#010101" d="M264,55h1v1h-1V55z"/>
<path fill="#010101" d="M55,58h5v1h-5V58z"/>
<path fill="#010101" d="M78,58h5v1h-5V58z"/>
<path fill="#010101" d="M101,58h5v1h-5V58z"/>
<path fill="#010101" d="M124,58h5v1h-5V58z"/>
<path fill="#010101" d="M147,58h5v1h-5V58z"/>
<path fill="#010101" d="M170,58h5v1h-5V58z"/>
<path fill="#010101" d="M193,58h5v1h-5V58z"/>
<path fill="#010101" d="M216,58h5v1h-5V58z"/>
<path fill="#010101" d="M239,58h5v1h-5V58z"/>
<path fill="#010101" d="M262,58h5v1h-5V58z"/>
<path fill="#010101" d="M53,59h2v1h-2V59z"/>
<path fill="#FDFDFD" d="M55,59h1v1h-1V59z"/>
<path fill="#FCFCFC" d="M56,59h1v1h-1V59z"/>
<path fill="#FDFDFD" d="M57,59h1v1h-1V59z"/>
<path fill="#FCFCFC" d="M58,59h2v1h-1v1h-2v-1h1V59z"/>
<path fill="#010101" d="M60,59h2v1h-2V59z"/>
<path fill="#010101" d="M76,59h2v1h-2V59z"/>
<path fill="#FDFDFD" d="M78,59h1v1h-1V59z"/>
<path fill="#FCFCFC" d="M79,59h1v1h-1V59z"/>
<path fill="#FDFDFD" d="M80,59h1v1h-1V59z"/>
<path fill="#FCFCFC" d="M81,59h2v1h-1v1h-2v-1h1V59z"/>
<path fill="#010101" d="M83,59h2v1h-2V59z"/>
<path fill="#010101" d="M99,59h2v1h-2V59z"/>
<path fill="#FDFDFD" d="M101,59h1v1h-1V59z"/>
<path fill="#FCFCFC" d="M102,59h1v1h-1V59z"/>
<path fill="#FDFDFD" d="M103,59h1v1h-1V59z"/>
<path fill="#FCFCFC" d="M104,59h2v1h-1v1h-2v-1h1V59z"/>
<path fill="#010101" d="M106,59h2v1h-2V59z"/>
<path fill="#010101" d="M122,59h2v1h-2V59z"/>
<path fill="#FDFDFD" d="M124,59h1v1h-1V59z"/>
<path fill="#FCFCFC" d="M125,59h1v1h-1V59z"/>
<path fill="#FDFDFD" d="M126,59h1v1h-1V59z"/>
<path fill="#FCFCFC" d="M127,59h2v1h-1v1h-2v-1h1V59z"/>
<path fill="#010101" d="M129,59h2v1h-2V59z"/>
<path fill="#010101" d="M145,59h2v1h-2V59z"/>
<path fill="#FDFDFD" d="M147,59h1v1h-1V59z"/>
<path fill="#FCFCFC" d="M148,59h1v1h-1V59z"/>
<path fill="#FDFDFD" d="M149,59h1v1h-1V59z"/>
<path fill="#FCFCFC" d="M150,59h2v1h-1v1h-2v-1h1V59z"/>
<path fill="#010101" d="M152,59h2v1h-2V59z"/>
<path fill="#010101" d="M168,59h2v1h-2V59z"/>
<path fill="#FDFDFD" d="M170,59h1v1h-1V59z"/>
<path fill="#FCFCFC" d="M171,59h1v1h-1V59z"/>
<path fill="#FDFDFD" d="M172,59h1v1h-1V59z"/>
<path fill="#FCFCFC" d="M173,59h2v1h-1v1h-2v-1h1V59z"/>
<path fill="#010101" d="M175,59h2v1h-2V59z"/>
<path fill="#010101" d="M191,59h2v1h-2V59z"/>
<path fill="#FDFDFD" d="M193,59h1v1h-1V59z"/>
<path fill="#FCFCFC" d="M194,59h1v1h-1V59z"/>
<path fill="#FDFDFD" d="M195,59h1v1h-1V59z"/>
<path fill="#FCFCFC" d="M196,59h2v1h-1v1h-2v-1h1V59z"/>
<path fill="#010101" d="M198,59h2v1h-2V59z"/>
<path fill="#010101" d="M214,59h2v1h-2V59z"/>
<path fill="#FDFDFD" d="M216,59h1v1h-1V59z"/>
<path fill="#FCFCFC" d="M217,59h1v1h-1V59z"/>
<path fill="#FDFDFD" d="M218,59h1v1h-1V59z"/>
<path fill="#FCFCFC" d="M219,59h2v1h-1v1h-2v-1h1V59z"/>
<path fill="#010101" d="M221,59h2v1h-2V59z"/>
<path fill="#010101" d="M237,59h2v1h-2V59z"/>
<path fill="#FDFDFD" d="M239,59h1v1h-1V59z"/>
<path fill="#FCFCFC" d="M240,59h1v1h-1V59z"/>
<path fill="#FDFDFD" d="M241,59h1v1h-1V59z"/>
<path fill="#FCFCFC" d="M242,59h2v1h-1v1h-2v-1h1V59z"/>
<path fill="#010101" d="M244,59h2v1h-2V59z"/>
<path fill="#010101" d="M260,59h2v1h-2V59z"/>
<path fill="#FDFDFD" d="M262,59h1v1h-1V59z"/>
<path fill="#FCFCFC" d="M263,59h1v1h-1V59z"/>
<path fill="#FDFDFD" d="M264,59h1v1h-1V59z"/>
<path fill="#FCFCFC" d="M265,59h2v1h-1v1h-2v-1h1V59z"/>
<path fill="#010101" d="M267,59h2v1h-2V59z"/>
<path fill="#010101" d="M52,60h1v1h-1V60z"/>
<path fill="#F8F8F8" d="M53,60h1v1h7v-1h1v1h1v2h-1v1h-9v-1h-1v-2h1V60z"/>
<path fill="#FDFDFD" d="M54,60h1v1h-1V60z"/>
<path fill="#FCFCFC" d="M55,60h1v1h-1V60z"/>
<path fill="#FDFDFD" d="M56,60h1v1h-1V60z"/>
<path fill="#FDFDFD" d="M59,60h2v1h-2V60z"/>
<path fill="#010101" d="M62,60h1v1h-1V60z"/>
<path fill="#010101" d="M75,60h1v1h-1V60z"/>
<path fill="#F8F8F8" d="M76,60h1v1h7v-1h1v1h1v2h-1v1h-9v-1h-1v-2h1V60z"/>
<path fill="#FDFDFD" d="M77,60h1v1h-1V60z"/>
<path fill="#FCFCFC" d="M78,60h1v1h-1V60z"/>
<path fill="#FDFDFD" d="M79,60h1v1h-1V60z"/>
<path fill="#FDFDFD" d="M82,60h2v1h-2V60z"/>
<path fill="#010101" d="M85,60h1v1h-1V60z"/>
<path fill="#010101" d="M98,60h1v1h-1V60z"/>
<path fill="#F8F8F8" d="M99,60h1v1h7v-1h1v1h1v2h-1v1h-9v-1h-1v-2h1V60z"/>
<path fill="#FDFDFD" d="M100,60h1v1h-1V60z"/>
<path fill="#FCFCFC" d="M101,60h1v1h-1V60z"/>
<path fill="#FDFDFD" d="M102,60h1v1h-1V60z"/>
<path fill="#FDFDFD" d="M105,60h2v1h-2V60z"/>
<path fill="#010101" d="M108,60h1v1h-1V60z"/>
<path fill="#010101" d="M121,60h1v1h-1V60z"/>
<path fill="#F8F8F8" d="M122,60h1v1h7v-1h1v1h1v2h-1v1h-9v-1h-1v-2h1V60z"/>
<path fill="#FDFDFD" d="M123,60h1v1h-1V60z"/>
<path fill="#FCFCFC" d="M124,60h1v1h-1V60z"/>
<path fill="#FDFDFD" d="M125,60h1v1h-1V60z"/>
<path fill="#FDFDFD" d="M128,60h2v1h-2V60z"/>
<path fill="#010101" d="M131,60h1v1h-1V60z"/>
<path fill="#010101" d="M144,60h1v1h-1V60z"/>
<path fill="#F8F8F8" d="M145,60h1v1h7v-1h1v1h1v2h-1v1h-9v-1h-1v-2h1V60z"/>
<path fill="#FDFDFD" d="M146,60h1v1h-1V60z"/>
<path fill="#FCFCFC" d="M147,60h1v1h-1V60z"/>
<path fill="#FDFDFD" d="M148,60h1v1h-1V60z"/>
<path fill="#FDFDFD" d="M151,60h2v1h-2V60z"/>
<path fill="#010101" d="M154,60h1v1h-1V60z"/>
<path fill="#010101" d="M167,60h1v1h-1V60z"/>
<path fill="#F8F8F8" d="M168,60h1v1h7v-1h1v1h1v2h-1v1h-1v-2h-2v1h1v1h-7v-1h-1v-2h1V60z"/>
<path fill="#FDFDFD" d="M169,60h1v1h-1V60z"/>
<path fill="#FCFCFC" d="M170,60h1v1h-1V60z"/>
<path fill="#FDFDFD" d="M171,60h1v1h-1V60z"/>
<path fill="#FDFDFD" d="M174,60h2v1h-2V60z"/>
<path fill="#010101" d="M177,60h1v1h-1V60z"/>
<path fill="#010101" d="M190,60h1v1h-1V60z"/>
<path fill="#F8F8F8" d="M191,60h1v1h7v-1h1v1h1v2h-1v1h-1v-2h-2v1h1v1h-7v-1h-1v-2h1V60z"/>
<path fill="#FDFDFD" d="M192,60h1v1h-1V60z"/>
<path fill="#FCFCFC" d="M193,60h1v1h-1V60z"/>
<path fill="#FDFDFD" d="M194,60h1v1h-1V60z"/>
<path fill="#FDFDFD" d="M197,60h2v1h-2V60z"/>
<path fill="#010101" d="M200,60h1v1h-1V60z"/>
<path fill="#010101" d="M213,60h1v1h-1V60z"/>
<path fill="#F8F8F8" d="M214,60h1v1h7v-1h1v1h1v2h-1v1h-1v-2h-2v1h1v1h-7v-1h-1v-2h1V60z"/>
<path fill="#FDFDFD" d="M215,60h1v1h-1V60z"/>
<path fill="#FCFCFC" d="M216,60h1v1h-1V60z"/>
<path fill="#FDFDFD" d="M217,60h1v1h-1V60z"/>
<path fill="#FDFDFD" d="M220,60h2v1h-2V60z"/>
<path fill="#010101" d="M223,60h1v1h-1V60z"/>
<path fill="#010101" d="M236,60h1v1h-1V60z"/>
<path fill="#F8F8F8" d="M237,60h1v1h7v-1h1v1h1v2h-1v1h-1v-2h-2v1h1v1h-7v-1h-1v-2h1V60z"/>
<path fill="#FDFDFD" d="M238,60h1v1h-1V60z"/>
<path fill="#FCFCFC" d="M239,60h1v1h-1V60z"/>
<path fill="#FDFDFD" d="M240,60h1v1h-1V60z"/>
<path fill="#FDFDFD" d="M243,60h2v1h-2V60z"/>
<path fill="#010101" d="M246,60h1v1h-1V60z"/>
<path fill="#010101" d="M259,60h1v1h-1V60z"/>
<path fill="#F8F8F8" d="M260,60h1v1h7v-1h1v1h1v2h-1v1h-1v-2h-2v1h1v1h-7v-1h-1v-2h1V60z"/>
<path fill="#FDFDFD" d="M261,60h1v1h-1V60z"/>
<path fill="#FCFCFC" d="M262,60h1v1h-1V60z"/>
<path fill="#FDFDFD" d="M263,60h1v1h-1V60z"/>
<path fill="#FDFDFD" d="M266,60h2v1h-2V60z"/>
<path fill="#010101" d="M269,60h1v1h-1V60z"/>
<path fill="#010101" d="M51,61h1v2h-1V61z"/>
<path fill="#010101" d="M63,61h1v2h-1V61z"/>
<path fill="#010101" d="M74,61h1v2h-1V61z"/>
<path fill="#010101" d="M86,61h1v2h-1V61z"/>
<path fill="#010101" d="M97,61h1v2h-1V61z"/>
<path fill="#010101" d="M109,61h1v2h-1V61z"/>
<path fill="#010101" d="M120,61h1v2h-1V61z"/>
<path fill="#010101" d="M132,61h1v2h-1V61z"/>
<path fill="#010101" d="M143,61h1v2h-1V61z"/>
<path fill="#010101" d="M155,61h1v2h-1V61z"/>
<path fill="#010101" d="M166,61h1v2h-1V61z"/>
<path fill="#010101" d="M178,61h1v2h-1V61z"/>
<path fill="#010101" d="M189,61h1v2h-1V61z"/>
<path fill="#010101" d="M201,61h1v2h-1V61z"/>
<path fill="#010101" d="M212,61h1v2h-1V61z"/>
<path fill="#010101" d="M224,61h1v2h-1V61z"/>
<path fill="#010101" d="M235,61h1v2h-1V61z"/>
<path fill="#010101" d="M247,61h1v2h-1V61z"/>
<path fill="#010101" d="M258,61h1v2h-1V61z"/>
<path fill="#010101" d="M270,61h1v2h-1V61z"/>
<path fill="#010101" d="M32,62h5v1h-5V62z"/>
<path d="M174,62h2v2h1v1h-2v-2h-1V62z"/>
<path d="M197,62h2v2h1v1h-2v-2h-1V62z"/>
<path d="M220,62h2v2h1v1h-2v-2h-1V62z"/>
<path d="M243,62h2v2h1v1h-2v-2h-1V62z"/>
<path d="M266,62h2v2h1v1h-2v-2h-1V62z"/>
<path fill="#010101" d="M31,63h1v1h-1V63z"/>
<path fill="#FDFDFD" d="M32,63h5v1h-1v1h-3v-1h-1V63z"/>
<path fill="#010101" d="M37,63h1v1h-1V63z"/>
<path fill="#010101" d="M50,63h1v5h-1V63z"/>
<path fill="#EFEFEF" d="M51,63h2v1h9v-1h2v3h-2v1h-9v-1h-2V63z"/>
<path fill="#010101" d="M64,63h1v5h-1V63z"/>
<path fill="#010101" d="M73,63h1v5h-1V63z"/>
<path fill="#EFEFEF" d="M74,63h2v1h9v-1h2v3h-2v1h-7v-1h-4V63z"/>
<path fill="#010101" d="M87,63h1v5h-1V63z"/>
<path fill="#010101" d="M96,63h1v5h-1V63z"/>
<path fill="#EFEFEF" d="M97,63h2v1h9v-1h2v3h-2v1h-7v-1h-4V63z"/>
<path fill="#010101" d="M110,63h1v5h-1V63z"/>
<path fill="#010101" d="M119,63h1v5h-1V63z"/>
<path fill="#EFEFEF" d="M120,63h2v1h3v1h1v2h-2v-1h-4V63z"/>
<path fill="#EFEFEF" d="M131,63h2v3h-2v1h-3v-1h-1v-2h4V63z"/>
<path fill="#010101" d="M133,63h1v5h-1V63z"/>
<path fill="#010101" d="M142,63h1v5h-1V63z"/>
<path fill="#EFEFEF" d="M143,63h2v1h3v1h1v2h-2v-1h-4V63z"/>
<path fill="#EFEFEF" d="M154,63h2v3h-2v1h-3v-1h-1v-2h4V63z"/>
<path fill="#010101" d="M156,63h1v5h-1V63z"/>
<path fill="#010101" d="M165,63h1v5h-1V63z"/>
<path fill="#EFEFEF" d="M166,63h2v1h3v1h1v2h-2v-1h-4V63z"/>
<path fill="#EFEFEF" d="M177,63h2v3h-2v1h-3v-1h-1v-2h2v1h2V63z"/>
<path fill="#010101" d="M179,63h1v5h-1V63z"/>
<path fill="#010101" d="M188,63h1v5h-1V63z"/>
<path fill="#EFEFEF" d="M189,63h2v1h3v1h1v2h-2v-1h-4V63z"/>
<path fill="#EFEFEF" d="M200,63h2v3h-2v1h-3v-1h-1v-2h2v1h2V63z"/>
<path fill="#010101" d="M202,63h1v5h-1V63z"/>
<path fill="#010101" d="M211,63h1v5h-1V63z"/>
<path fill="#EFEFEF" d="M212,63h2v1h3v1h1v2h-2v-1h-4V63z"/>
<path fill="#EFEFEF" d="M223,63h2v3h-2v1h-3v-1h-1v-2h2v1h2V63z"/>
<path fill="#010101" d="M225,63h1v5h-1V63z"/>
<path fill="#010101" d="M234,63h1v5h-1V63z"/>
<path fill="#EFEFEF" d="M235,63h2v1h3v1h1v2h-2v-1h-4V63z"/>
<path fill="#EFEFEF" d="M246,63h2v3h-2v1h-3v-1h-1v-2h2v1h2V63z"/>
<path fill="#010101" d="M248,63h1v5h-1V63z"/>
<path fill="#010101" d="M257,63h1v5h-1V63z"/>
<path fill="#EFEFEF" d="M258,63h2v1h3v1h1v2h-2v-1h-4V63z"/>
<path fill="#EFEFEF" d="M269,63h2v3h-2v1h-3v-1h-1v-2h2v1h2V63z"/>
<path fill="#010101" d="M271,63h1v5h-1V63z"/>
<path fill="#010101" d="M30,64h1v1h-1V64z"/>
<path fill="#F8F8F8" d="M31,64h2v1h3v-1h2v1h1v1h-2v1h-5v-1h-2v-1h1V64z"/>
<path fill="#010101" d="M38,64h1v1h-1V64z"/>
<path d="M125,64h2v2h1v1h-2v-2h-1V64z"/>
<path d="M148,64h2v2h1v1h-2v-2h-1V64z"/>
<path d="M171,64h2v2h1v1h-2v-2h-1V64z"/>
<path d="M194,64h2v2h1v1h-2v-2h-1V64z"/>
<path d="M217,64h2v2h1v1h-2v-2h-1V64z"/>
<path d="M240,64h2v2h1v1h-2v-2h-1V64z"/>
<path d="M263,64h2v2h1v1h-2v-2h-1V64z"/>
<path fill="#010101" d="M29,65h1v5h-1V65z"/>
<path fill="#010101" d="M39,65h1v5h-1V65z"/>
<path fill="#EFEFEF" d="M30,66h2v1h5v-1h2v2h-2v1h-5v-1h-2V66z"/>
<path fill="#E7E7E7" d="M51,66h2v1h1v2h-1v-1h-2V66z"/>
<path fill="#E7E7E7" d="M62,66h2v2h-1v1h-2v1h-1v-1h-1v1h-4v-3h7V66z"/>
<path fill="#E7E7E7" d="M74,66h2v1h1v2h-1v-1h-2V66z"/>
<path d="M76,66h2v2h1v1h-2v-2h-1V66z"/>
<path fill="#E7E7E7" d="M85,66h2v2h-1v1h-2v1h-1v-1h-1v1h-4v-1h1v-1h-1v-1h7V66z"/>
<path fill="#E7E7E7" d="M97,66h2v1h1v2h-1v-1h-2V66z"/>
<path d="M99,66h2v2h1v1h-2v-2h-1V66z"/>
<path fill="#E7E7E7" d="M108,66h2v2h-1v1h-2v1h-1v-1h-1v1h-4v-1h1v-1h-1v-1h7V66z"/>
<path fill="#E7E7E7" d="M120,66h2v1h1v2h-1v-1h-2V66z"/>
<path d="M122,66h2v2h1v1h-2v-2h-1V66z"/>
<path fill="#E7E7E7" d="M131,66h2v2h-1v1h-2v1h-1v-1h-1v1h-4v-1h1v-1h-1v-1h7V66z"/>
<path fill="#E7E7E7" d="M143,66h2v1h1v2h-1v-1h-2V66z"/>
<path d="M145,66h2v2h1v1h-2v-2h-1V66z"/>
<path fill="#E7E7E7" d="M154,66h2v2h-1v1h-2v1h-1v-1h-1v1h-4v-1h1v-1h-1v-1h7V66z"/>
<path fill="#E7E7E7" d="M166,66h2v1h1v2h-1v-1h-2V66z"/>
<path d="M168,66h2v2h1v1h-2v-2h-1V66z"/>
<path fill="#E7E7E7" d="M177,66h2v2h-1v1h-2v1h-1v-1h-1v1h-4v-1h1v-1h-1v-1h7V66z"/>
<path fill="#E7E7E7" d="M189,66h2v1h1v2h-1v-1h-2V66z"/>
<path d="M191,66h2v2h1v1h-2v-2h-1V66z"/>
<path fill="#E7E7E7" d="M200,66h2v2h-1v1h-2v1h-1v-1h-1v1h-4v-1h1v-1h-1v-1h7V66z"/>
<path fill="#E7E7E7" d="M212,66h2v1h1v2h-1v-1h-2V66z"/>
<path d="M214,66h2v2h1v1h-2v-2h-1V66z"/>
<path fill="#E7E7E7" d="M223,66h2v2h-1v1h-2v1h-1v-1h-1v1h-4v-1h1v-1h-1v-1h7V66z"/>
<path fill="#E7E7E7" d="M235,66h2v1h1v2h-1v-1h-2V66z"/>
<path d="M237,66h2v2h1v1h-2v-2h-1V66z"/>
<path fill="#E7E7E7" d="M246,66h2v2h-1v1h-2v1h-1v-1h-1v1h-4v-1h1v-1h-1v-1h7V66z"/>
<path fill="#E7E7E7" d="M258,66h2v1h1v2h-1v-1h-2V66z"/>
<path d="M260,66h2v2h1v1h-2v-2h-1V66z"/>
<path fill="#E7E7E7" d="M269,66h2v2h-1v1h-2v1h-1v-1h-1v1h-4v-1h1v-1h-1v-1h7V66z"/>
<path fill="#E6E6E6" d="M54,67h1v2h-1V67z"/>
<path fill="#E7E7E7" d="M30,68h2v1h5v-1h2v2h-3v1h-3v-1h-3V68z"/>
<path fill="#010101" d="M51,68h1v2h-1V68z"/>
<path fill="#E3E3E3" d="M52,68h1v1h-1V68z"/>
<path fill="#010101" d="M63,68h1v2h-1V68z"/>
<path fill="#010101" d="M74,68h1v2h-1V68z"/>
<path fill="#E3E3E3" d="M75,68h1v1h-1V68z"/>
<path fill="#010101" d="M86,68h1v2h-1V68z"/>
<path fill="#010101" d="M97,68h1v2h-1V68z"/>
<path fill="#E3E3E3" d="M98,68h1v1h-1V68z"/>
<path fill="#010101" d="M109,68h1v2h-1V68z"/>
<path fill="#010101" d="M120,68h1v2h-1V68z"/>
<path fill="#E3E3E3" d="M121,68h1v1h-1V68z"/>
<path fill="#010101" d="M132,68h1v2h-1V68z"/>
<path fill="#010101" d="M143,68h1v2h-1V68z"/>
<path fill="#E3E3E3" d="M144,68h1v1h-1V68z"/>
<path fill="#010101" d="M155,68h1v2h-1V68z"/>
<path fill="#010101" d="M166,68h1v2h-1V68z"/>
<path fill="#E3E3E3" d="M167,68h1v1h-1V68z"/>
<path fill="#010101" d="M178,68h1v2h-1V68z"/>
<path fill="#010101" d="M189,68h1v2h-1V68z"/>
<path fill="#E3E3E3" d="M190,68h1v1h-1V68z"/>
<path fill="#010101" d="M201,68h1v2h-1V68z"/>
<path fill="#010101" d="M212,68h1v2h-1V68z"/>
<path fill="#E3E3E3" d="M213,68h1v1h-1V68z"/>
<path fill="#010101" d="M224,68h1v2h-1V68z"/>
<path fill="#010101" d="M235,68h1v2h-1V68z"/>
<path fill="#E3E3E3" d="M236,68h1v1h-1V68z"/>
<path fill="#010101" d="M247,68h1v2h-1V68z"/>
<path fill="#010101" d="M258,68h1v2h-1V68z"/>
<path fill="#E3E3E3" d="M259,68h1v1h-1V68z"/>
<path fill="#010101" d="M270,68h1v2h-1V68z"/>
<path fill="#DEDEDE" d="M52,69h2v1h7v-1h2v1h-1v1h-3v1h-3v-1h-3v-1h-1V69z"/>
<path fill="#E2E2E2" d="M54,69h1v1h-1V69z"/>
<path fill="#E6E6E6" d="M59,69h1v1h-1V69z"/>
<path fill="#DEDEDE" d="M75,69h2v1h7v-1h2v1h-1v1h-3v1h-3v-1h-3v-1h-1V69z"/>
<path fill="#E2E2E2" d="M77,69h1v1h-1V69z"/>
<path fill="#E6E6E6" d="M82,69h1v1h-1V69z"/>
<path fill="#DEDEDE" d="M98,69h2v1h7v-1h2v1h-1v1h-3v1h-3v-1h-3v-1h-1V69z"/>
<path fill="#E2E2E2" d="M100,69h1v1h-1V69z"/>
<path fill="#E6E6E6" d="M105,69h1v1h-1V69z"/>
<path fill="#DEDEDE" d="M121,69h2v1h7v-1h2v1h-1v1h-3v1h-3v-1h-3v-1h-1V69z"/>
<path fill="#E2E2E2" d="M123,69h1v1h-1V69z"/>
<path fill="#E6E6E6" d="M128,69h1v1h-1V69z"/>
<path fill="#DEDEDE" d="M144,69h2v1h7v-1h2v1h-1v1h-3v1h-3v-1h-3v-1h-1V69z"/>
<path fill="#E2E2E2" d="M146,69h1v1h-1V69z"/>
<path fill="#E6E6E6" d="M151,69h1v1h-1V69z"/>
<path fill="#DEDEDE" d="M167,69h2v1h7v-1h2v1h-1v1h-3v1h-3v-1h-3v-1h-1V69z"/>
<path fill="#E2E2E2" d="M169,69h1v1h-1V69z"/>
<path fill="#E6E6E6" d="M174,69h1v1h-1V69z"/>
<path fill="#DEDEDE" d="M190,69h2v1h7v-1h2v1h-1v1h-3v1h-3v-1h-3v-1h-1V69z"/>
<path fill="#E2E2E2" d="M192,69h1v1h-1V69z"/>
<path fill="#E6E6E6" d="M197,69h1v1h-1V69z"/>
<path fill="#DEDEDE" d="M213,69h2v1h7v-1h2v1h-1v1h-3v1h-3v-1h-3v-1h-1V69z"/>
<path fill="#E2E2E2" d="M215,69h1v1h-1V69z"/>
<path fill="#E6E6E6" d="M220,69h1v1h-1V69z"/>
<path fill="#DEDEDE" d="M236,69h2v1h7v-1h2v1h-1v1h-3v1h-3v-1h-3v-1h-1V69z"/>
<path fill="#E2E2E2" d="M238,69h1v1h-1V69z"/>
<path fill="#E6E6E6" d="M243,69h1v1h-1V69z"/>
<path fill="#DEDEDE" d="M259,69h2v1h7v-1h2v1h-1v1h-3v1h-3v-1h-3v-1h-1V69z"/>
<path fill="#E2E2E2" d="M261,69h1v1h-1V69z"/>
<path fill="#E6E6E6" d="M266,69h1v1h-1V69z"/>
<path fill="#010101" d="M30,70h1v1h-1V70z"/>
<path fill="#DEDEDE" d="M31,70h2v1h3v-1h2v1h-1v1h-5v-1h-1V70z"/>
<path fill="#010101" d="M38,70h1v1h-1V70z"/>
<path fill="#010101" d="M52,70h1v1h-1V70z"/>
<path fill="#010101" d="M62,70h1v1h-1V70z"/>
<path fill="#010101" d="M75,70h1v1h-1V70z"/>
<path fill="#010101" d="M85,70h1v1h-1V70z"/>
<path fill="#010101" d="M98,70h1v1h-1V70z"/>
<path fill="#010101" d="M108,70h1v1h-1V70z"/>
<path fill="#010101" d="M121,70h1v1h-1V70z"/>
<path fill="#010101" d="M131,70h1v1h-1V70z"/>
<path fill="#010101" d="M144,70h1v1h-1V70z"/>
<path fill="#010101" d="M154,70h1v1h-1V70z"/>
<path fill="#010101" d="M167,70h1v1h-1V70z"/>
<path fill="#010101" d="M177,70h1v1h-1V70z"/>
<path fill="#010101" d="M190,70h1v1h-1V70z"/>
<path fill="#010101" d="M200,70h1v1h-1V70z"/>
<path fill="#010101" d="M213,70h1v1h-1V70z"/>
<path fill="#010101" d="M223,70h1v1h-1V70z"/>
<path fill="#010101" d="M236,70h1v1h-1V70z"/>
<path fill="#010101" d="M246,70h1v1h-1V70z"/>
<path fill="#010101" d="M259,70h1v1h-1V70z"/>
<path fill="#010101" d="M269,70h1v1h-1V70z"/>
<path fill="#010101" d="M31,71h1v1h-1V71z"/>
<path fill="#010101" d="M37,71h1v1h-1V71z"/>
<path fill="#010101" d="M53,71h2v1h-2V71z"/>
<path fill="#CCCCCC" d="M55,71h1v1h-1V71z"/>
<path fill="#CCCCCC" d="M59,71h1v1h-1V71z"/>
<path fill="#010101" d="M60,71h2v1h-2V71z"/>
<path fill="#010101" d="M76,71h2v1h-2V71z"/>
<path fill="#CCCCCC" d="M78,71h1v1h-1V71z"/>
<path fill="#CCCCCC" d="M82,71h1v1h-1V71z"/>
<path fill="#010101" d="M83,71h2v1h-2V71z"/>
<path fill="#010101" d="M99,71h2v1h-2V71z"/>
<path fill="#CCCCCC" d="M101,71h1v1h-1V71z"/>
<path fill="#CCCCCC" d="M105,71h1v1h-1V71z"/>
<path fill="#010101" d="M106,71h2v1h-2V71z"/>
<path fill="#010101" d="M122,71h2v1h-2V71z"/>
<path fill="#CCCCCC" d="M124,71h1v1h-1V71z"/>
<path fill="#CCCCCC" d="M128,71h1v1h-1V71z"/>
<path fill="#010101" d="M129,71h2v1h-2V71z"/>
<path fill="#010101" d="M145,71h2v1h-2V71z"/>
<path fill="#CCCCCC" d="M147,71h1v1h-1V71z"/>
<path fill="#CCCCCC" d="M151,71h1v1h-1V71z"/>
<path fill="#010101" d="M152,71h2v1h-2V71z"/>
<path fill="#010101" d="M168,71h2v1h-2V71z"/>
<path fill="#CCCCCC" d="M170,71h1v1h-1V71z"/>
<path fill="#CCCCCC" d="M174,71h1v1h-1V71z"/>
<path fill="#010101" d="M175,71h2v1h-2V71z"/>
<path fill="#010101" d="M191,71h2v1h-2V71z"/>
<path fill="#CCCCCC" d="M193,71h1v1h-1V71z"/>
<path fill="#CCCCCC" d="M197,71h1v1h-1V71z"/>
<path fill="#010101" d="M198,71h2v1h-2V71z"/>
<path fill="#010101" d="M214,71h2v1h-2V71z"/>
<path fill="#CCCCCC" d="M216,71h1v1h-1V71z"/>
<path fill="#CCCCCC" d="M220,71h1v1h-1V71z"/>
<path fill="#010101" d="M221,71h2v1h-2V71z"/>
<path fill="#010101" d="M237,71h2v1h-2V71z"/>
<path fill="#CCCCCC" d="M239,71h1v1h-1V71z"/>
<path fill="#CCCCCC" d="M243,71h1v1h-1V71z"/>
<path fill="#010101" d="M244,71h2v1h-2V71z"/>
<path fill="#010101" d="M260,71h2v1h-2V71z"/>
<path fill="#CCCCCC" d="M262,71h1v1h-1V71z"/>
<path fill="#CCCCCC" d="M266,71h1v1h-1V71z"/>
<path fill="#010101" d="M267,71h2v1h-2V71z"/>
<path fill="#010101" d="M32,72h1v1h-1V72z"/>
<path fill="#CCCCCC" d="M33,72h3v1h-1v1h-1v-1h-1V72z"/>
<path fill="#010101" d="M36,72h1v1h-1V72z"/>
<path fill="#010101" d="M55,72h1v1h-1V72z"/>
<path fill="#CCCCCC" d="M56,72h3v1h-1v1h-1v-1h-1V72z"/>
<path fill="#010101" d="M59,72h1v1h-1V72z"/>
<path fill="#010101" d="M78,72h1v1h-1V72z"/>
<path fill="#CCCCCC" d="M79,72h3v1h-1v1h-1v-1h-1V72z"/>
<path fill="#010101" d="M82,72h1v1h-1V72z"/>
<path fill="#010101" d="M101,72h1v1h-1V72z"/>
<path fill="#CCCCCC" d="M102,72h3v1h-1v1h-1v-1h-1V72z"/>
<path fill="#010101" d="M105,72h1v1h-1V72z"/>
<path fill="#010101" d="M124,72h1v1h-1V72z"/>
<path fill="#CCCCCC" d="M125,72h3v1h-1v1h-1v-1h-1V72z"/>
<path fill="#010101" d="M128,72h1v1h-1V72z"/>
<path fill="#010101" d="M147,72h1v1h-1V72z"/>
<path fill="#CCCCCC" d="M148,72h3v1h-1v1h-1v-1h-1V72z"/>
<path fill="#010101" d="M151,72h1v1h-1V72z"/>
<path fill="#010101" d="M170,72h1v1h-1V72z"/>
<path fill="#CCCCCC" d="M171,72h3v1h-1v1h-1v-1h-1V72z"/>
<path fill="#010101" d="M174,72h1v1h-1V72z"/>
<path fill="#010101" d="M193,72h1v1h-1V72z"/>
<path fill="#CCCCCC" d="M194,72h3v1h-1v1h-1v-1h-1V72z"/>
<path fill="#010101" d="M197,72h1v1h-1V72z"/>
<path fill="#010101" d="M216,72h1v1h-1V72z"/>
<path fill="#CCCCCC" d="M217,72h3v1h-1v1h-1v-1h-1V72z"/>
<path fill="#010101" d="M220,72h1v1h-1V72z"/>
<path fill="#010101" d="M239,72h1v1h-1V72z"/>
<path fill="#CCCCCC" d="M240,72h3v1h-1v1h-1v-1h-1V72z"/>
<path fill="#010101" d="M243,72h1v1h-1V72z"/>
<path fill="#010101" d="M262,72h1v1h-1V72z"/>
<path fill="#CCCCCC" d="M263,72h3v1h-1v1h-1v-1h-1V72z"/>
<path fill="#010101" d="M266,72h1v1h-1V72z"/>
<path fill="#010101" d="M33,73h1v1h-1V73z"/>
<path fill="#010101" d="M35,73h1v1h-1V73z"/>
<path fill="#010101" d="M56,73h1v1h-1V73z"/>
<path fill="#010101" d="M58,73h1v1h-1V73z"/>
<path fill="#010101" d="M79,73h1v1h-1V73z"/>
<path fill="#010101" d="M81,73h1v1h-1V73z"/>
<path fill="#010101" d="M102,73h1v1h-1V73z"/>
<path fill="#010101" d="M104,73h1v1h-1V73z"/>
<path fill="#010101" d="M125,73h1v1h-1V73z"/>
<path fill="#010101" d="M127,73h1v1h-1V73z"/>
<path fill="#010101" d="M148,73h1v1h-1V73z"/>
<path fill="#010101" d="M150,73h1v1h-1V73z"/>
<path fill="#010101" d="M171,73h1v1h-1V73z"/>
<path fill="#010101" d="M173,73h1v1h-1V73z"/>
<path fill="#010101" d="M194,73h1v1h-1V73z"/>
<path fill="#010101" d="M196,73h1v1h-1V73z"/>
<path fill="#010101" d="M217,73h1v1h-1V73z"/>
<path fill="#010101" d="M219,73h1v1h-1V73z"/>
<path fill="#010101" d="M240,73h1v1h-1V73z"/>
<path fill="#010101" d="M242,73h1v1h-1V73z"/>
<path fill="#010101" d="M263,73h1v1h-1V73z"/>
<path fill="#010101" d="M265,73h1v1h-1V73z"/>
<path fill="#010101" d="M34,74h1v1h-1V74z"/>
<path fill="#010101" d="M57,74h1v1h-1V74z"/>
<path fill="#010101" d="M80,74h1v1h-1V74z"/>
<path fill="#010101" d="M103,74h1v1h-1V74z"/>
<path fill="#010101" d="M126,74h1v1h-1V74z"/>
<path fill="#010101" d="M149,74h1v1h-1V74z"/>
<path fill="#010101" d="M172,74h1v1h-1V74z"/>
<path fill="#010101" d="M195,74h1v1h-1V74z"/>
<path fill="#010101" d="M218,74h1v1h-1V74z"/>
<path fill="#010101" d="M241,74h1v1h-1V74z"/>
<path fill="#010101" d="M264,74h1v1h-1V74z"/>
<path fill="#010101" d="M55,77h5v1h-5V77z"/>
<path fill="#010101" d="M78,77h5v1h-5V77z"/>
<path fill="#010101" d="M101,77h5v1h-5V77z"/>
<path fill="#010101" d="M124,77h5v1h-5V77z"/>
<path fill="#010101" d="M147,77h5v1h-5V77z"/>
<path fill="#010101" d="M170,77h5v1h-5V77z"/>
<path fill="#010101" d="M193,77h5v1h-5V77z"/>
<path fill="#010101" d="M53,78h2v1h-2V78z"/>
<path fill="#FDFDFD" d="M55,78h1v1h-1V78z"/>
<path fill="#FCFCFC" d="M56,78h1v1h-1V78z"/>
<path fill="#FDFDFD" d="M57,78h1v1h-1V78z"/>
<path fill="#FCFCFC" d="M58,78h2v1h-1v1h-2v-1h1V78z"/>
<path fill="#010101" d="M60,78h2v1h-2V78z"/>
<path fill="#010101" d="M76,78h2v1h-2V78z"/>
<path fill="#FDFDFD" d="M78,78h1v1h-1V78z"/>
<path fill="#FCFCFC" d="M79,78h1v1h-1V78z"/>
<path fill="#FDFDFD" d="M80,78h1v1h-1V78z"/>
<path fill="#FCFCFC" d="M81,78h2v1h-1v1h-2v-1h1V78z"/>
<path fill="#010101" d="M83,78h2v1h-2V78z"/>
<path fill="#010101" d="M99,78h2v1h-2V78z"/>
<path fill="#FDFDFD" d="M101,78h1v1h-1V78z"/>
<path fill="#FCFCFC" d="M102,78h1v1h-1V78z"/>
<path fill="#FDFDFD" d="M103,78h1v1h-1V78z"/>
<path fill="#FCFCFC" d="M104,78h2v1h-1v1h-2v-1h1V78z"/>
<path fill="#010101" d="M106,78h2v1h-2V78z"/>
<path fill="#010101" d="M122,78h2v1h-2V78z"/>
<path fill="#FDFDFD" d="M124,78h1v1h-1V78z"/>
<path fill="#FCFCFC" d="M125,78h1v1h-1V78z"/>
<path fill="#FDFDFD" d="M126,78h1v1h-1V78z"/>
<path fill="#FCFCFC" d="M127,78h2v1h-1v1h-2v-1h1V78z"/>
<path fill="#010101" d="M129,78h2v1h-2V78z"/>
<path fill="#010101" d="M145,78h2v1h-2V78z"/>
<path fill="#FDFDFD" d="M147,78h1v1h-1V78z"/>
<path fill="#FCFCFC" d="M148,78h1v1h-1V78z"/>
<path fill="#FDFDFD" d="M149,78h1v1h-1V78z"/>
<path fill="#FCFCFC" d="M150,78h2v1h-1v1h-2v-1h1V78z"/>
<path fill="#010101" d="M152,78h2v1h-2V78z"/>
<path fill="#010101" d="M168,78h2v1h-2V78z"/>
<path fill="#FDFDFD" d="M170,78h1v1h-1V78z"/>
<path fill="#FCFCFC" d="M171,78h1v1h-1V78z"/>
<path fill="#FDFDFD" d="M172,78h1v1h-1V78z"/>
<path fill="#FCFCFC" d="M173,78h2v1h-1v1h-2v-1h1V78z"/>
<path fill="#010101" d="M175,78h2v1h-2V78z"/>
<path fill="#010101" d="M191,78h2v1h-2V78z"/>
<path fill="#FDFDFD" d="M193,78h1v1h-1V78z"/>
<path fill="#FCFCFC" d="M194,78h1v1h-1V78z"/>
<path fill="#FDFDFD" d="M195,78h1v1h-1V78z"/>
<path fill="#FCFCFC" d="M196,78h2v1h-1v1h-2v-1h1V78z"/>
<path fill="#010101" d="M198,78h2v1h-2V78z"/>
<path fill="#010101" d="M52,79h1v1h-1V79z"/>
<path fill="#F8F8F8" d="M53,79h1v1h7v-1h1v1h1v2h-1v1h-9v-1h-1v-2h1V79z"/>
<path fill="#FDFDFD" d="M54,79h1v1h-1V79z"/>
<path fill="#FCFCFC" d="M55,79h1v1h-1V79z"/>
<path fill="#FDFDFD" d="M56,79h1v1h-1V79z"/>
<path fill="#FDFDFD" d="M59,79h2v1h-2V79z"/>
<path fill="#010101" d="M62,79h1v1h-1V79z"/>
<path fill="#010101" d="M75,79h1v1h-1V79z"/>
<path fill="#F8F8F8" d="M76,79h1v1h7v-1h1v1h1v2h-1v1h-9v-1h-1v-2h1V79z"/>
<path fill="#FDFDFD" d="M77,79h1v1h-1V79z"/>
<path fill="#FCFCFC" d="M78,79h1v1h-1V79z"/>
<path fill="#FDFDFD" d="M79,79h1v1h-1V79z"/>
<path fill="#FDFDFD" d="M82,79h2v1h-2V79z"/>
<path fill="#010101" d="M85,79h1v1h-1V79z"/>
<path fill="#010101" d="M98,79h1v1h-1V79z"/>
<path fill="#F8F8F8" d="M99,79h1v1h7v-1h1v1h1v2h-1v1h-3v-1h-1v1h-5v-1h-1v-2h1V79z"/>
<path fill="#FDFDFD" d="M100,79h1v1h-1V79z"/>
<path fill="#FCFCFC" d="M101,79h1v1h-1V79z"/>
<path fill="#FDFDFD" d="M102,79h1v1h-1V79z"/>
<path fill="#FDFDFD" d="M105,79h2v1h-2V79z"/>
<path fill="#010101" d="M108,79h1v1h-1V79z"/>
<path fill="#010101" d="M121,79h1v1h-1V79z"/>
<path fill="#F8F8F8" d="M122,79h1v1h7v-1h1v1h1v2h-1v1h-2v-1h-1v-1h-1v2h-5v-1h-1v-2h1V79z"/>
<path fill="#FDFDFD" d="M123,79h1v1h-1V79z"/>
<path fill="#FCFCFC" d="M124,79h1v1h-1V79z"/>
<path fill="#FDFDFD" d="M125,79h1v1h-1V79z"/>
<path fill="#FDFDFD" d="M128,79h2v1h-2V79z"/>
<path fill="#010101" d="M131,79h1v1h-1V79z"/>
<path fill="#010101" d="M144,79h1v1h-1V79z"/>
<path fill="#F8F8F8" d="M145,79h1v1h7v-1h1v1h1v2h-1v1h-3v-1h-1v-1h-1v2h-4v-1h-1v-2h1V79z"/>
<path fill="#FDFDFD" d="M146,79h1v1h-1V79z"/>
<path fill="#FCFCFC" d="M147,79h1v1h-1V79z"/>
<path fill="#FDFDFD" d="M148,79h1v1h-1V79z"/>
<path fill="#FDFDFD" d="M151,79h2v1h-2V79z"/>
<path fill="#010101" d="M154,79h1v1h-1V79z"/>
<path fill="#010101" d="M167,79h1v1h-1V79z"/>
<path fill="#F8F8F8" d="M168,79h1v1h7v-1h1v1h1v2h-1v1h-2v-1h-1v-1h-1v2h-5v-1h-1v-2h1V79z"/>
<path fill="#FDFDFD" d="M169,79h1v1h-1V79z"/>
<path fill="#FCFCFC" d="M170,79h1v1h-1V79z"/>
<path fill="#FDFDFD" d="M171,79h1v1h-1V79z"/>
<path fill="#FDFDFD" d="M174,79h2v1h-2V79z"/>
<path fill="#010101" d="M177,79h1v1h-1V79z"/>
<path fill="#010101" d="M190,79h1v1h-1V79z"/>
<path fill="#F8F8F8" d="M191,79h1v1h7v-1h1v1h1v2h-1v1h-2v-1h-1v-1h-1v2h-5v-1h-1v-2h1V79z"/>
<path fill="#FDFDFD" d="M192,79h1v1h-1V79z"/>
<path fill="#FCFCFC" d="M193,79h1v1h-1V79z"/>
<path fill="#FDFDFD" d="M194,79h1v1h-1V79z"/>
<path fill="#FDFDFD" d="M197,79h2v1h-2V79z"/>
<path fill="#010101" d="M200,79h1v1h-1V79z"/>
<path fill="#010101" d="M51,80h1v2h-1V80z"/>
<path fill="#010101" d="M63,80h1v2h-1V80z"/>
<path fill="#010101" d="M74,80h1v2h-1V80z"/>
<path fill="#010101" d="M86,80h1v2h-1V80z"/>
<path fill="#010101" d="M97,80h1v2h-1V80z"/>
<path fill="#010101" d="M109,80h1v2h-1V80z"/>
<path fill="#010101" d="M120,80h1v2h-1V80z"/>
<path fill="#010101" d="M132,80h1v2h-1V80z"/>
<path fill="#010101" d="M143,80h1v2h-1V80z"/>
<path fill="#010101" d="M155,80h1v2h-1V80z"/>
<path fill="#010101" d="M166,80h1v2h-1V80z"/>
<path fill="#010101" d="M178,80h1v2h-1V80z"/>
<path fill="#010101" d="M189,80h1v2h-1V80z"/>
<path fill="#010101" d="M201,80h1v2h-1V80z"/>
<path fill="#010101" d="M32,81h5v1h-5V81z"/>
<path d="M127,81h1v1h1v1h-1v2h-1V81z"/>
<path d="M149,81h1v1h1v1h-1v2h-1V81z"/>
<path d="M173,81h1v1h1v1h-1v2h-1V81z"/>
<path d="M196,81h1v1h1v1h-1v2h-1V81z"/>
<path fill="#010101" d="M31,82h1v1h-1V82z"/>
<path fill="#FDFDFD" d="M32,82h5v1h-1v1h-3v-1h-1V82z"/>
<path fill="#010101" d="M37,82h1v1h-1V82z"/>
<path fill="#010101" d="M50,82h1v5h-1V82z"/>
<path fill="#EFEFEF" d="M51,82h2v1h9v-1h2v3h-2v1h-9v-1h-2V82z"/>
<path fill="#010101" d="M64,82h1v5h-1V82z"/>
<path fill="#010101" d="M73,82h1v5h-1V82z"/>
<path fill="#EFEFEF" d="M74,82h2v1h5v3h-5v-1h-2V82z"/>
<path fill="#EFEFEF" d="M85,82h2v3h-2v1h-1v-1h-1v-1h-1v-1h3V82z"/>
<path fill="#010101" d="M87,82h1v5h-1V82z"/>
<path fill="#010101" d="M96,82h1v5h-1V82z"/>
<path fill="#EFEFEF" d="M97,82h2v1h5v3h-5v-1h-2V82z"/>
<path d="M104,82h1v1h1v1h-1v2h-1V82z"/>
<path fill="#EFEFEF" d="M108,82h2v3h-2v1h-3v-2h1v-1h2V82z"/>
<path fill="#010101" d="M110,82h1v5h-1V82z"/>
<path fill="#010101" d="M119,82h1v5h-1V82z"/>
<path fill="#EFEFEF" d="M120,82h2v1h5v2h-2v1h-3v-1h-2V82z"/>
<path fill="#EFEFEF" d="M131,82h2v3h-2v1h-4v-1h1v-2h1v1h1v-1h1V82z"/>
<path fill="#010101" d="M133,82h1v5h-1V82z"/>
<path fill="#010101" d="M142,82h1v5h-1V82z"/>
<path fill="#EFEFEF" d="M143,82h2v1h4v2h-2v1h-2v-1h-2V82z"/>
<path fill="#EFEFEF" d="M154,82h2v3h-2v1h-5v-1h1v-2h1v1h1v-1h2V82z"/>
<path fill="#010101" d="M156,82h1v5h-1V82z"/>
<path fill="#010101" d="M165,82h1v5h-1V82z"/>
<path fill="#EFEFEF" d="M166,82h2v1h5v2h-2v1h-3v-1h-2V82z"/>
<path fill="#EFEFEF" d="M177,82h2v3h-2v1h-4v-1h1v-2h1v1h1v-1h1V82z"/>
<path fill="#010101" d="M179,82h1v5h-1V82z"/>
<path fill="#010101" d="M188,82h1v5h-1V82z"/>
<path fill="#EFEFEF" d="M189,82h2v1h5v2h-2v1h-3v-1h-2V82z"/>
<path fill="#EFEFEF" d="M200,82h2v3h-2v1h-4v-1h1v-2h1v1h1v-1h1V82z"/>
<path fill="#010101" d="M202,82h1v5h-1V82z"/>
<path fill="#010101" d="M30,83h1v1h-1V83z"/>
<path fill="#F8F8F8" d="M31,83h2v1h3v-1h2v1h1v1h-2v1h-5v-1h-2v-1h1V83z"/>
<path fill="#010101" d="M38,83h1v1h-1V83z"/>
<path d="M81,83h1v1h1v1h-1v2h-1V83z"/>
<path d="M129,83h1v1h-1V83z"/>
<path d="M151,83h1v1h-1V83z"/>
<path d="M175,83h1v1h-1V83z"/>
<path d="M198,83h1v1h-1V83z"/>
<path fill="#010101" d="M29,84h1v5h-1V84z"/>
<path fill="#010101" d="M39,84h1v5h-1V84z"/>
<path d="M106,84h1v1h-1V84z"/>
<path fill="#EFEFEF" d="M30,85h2v1h5v-1h2v2h-2v1h-5v-1h-2V85z"/>
<path fill="#E7E7E7" d="M51,85h2v1h1v2h-1v-1h-2V85z"/>
<path fill="#E7E7E7" d="M62,85h2v2h-1v1h-2v1h-1v-1h-1v1h-4v-3h7V85z"/>
<path fill="#E7E7E7" d="M74,85h2v1h1v2h-1v-1h-2V85z"/>
<path fill="#EFEFEF" d="M82,85h1v1h-1V85z"/>
<path d="M83,85h1v1h-1V85z"/>
<path fill="#E7E7E7" d="M85,85h2v2h-1v1h-2v1h-1v-1h-1v1h-1v-2h1v-1h3V85z"/>
<path fill="#E7E7E7" d="M97,85h2v1h1v2h-1v-1h-2V85z"/>
<path fill="#E7E7E7" d="M108,85h2v2h-1v1h-2v1h-1v-1h-1v1h-4v-3h1v2h2v-2h4V85z"/>
<path fill="#E7E7E7" d="M120,85h2v1h1v2h-1v-1h-2V85z"/>
<path d="M125,85h2v2h-2V85z"/>
<path fill="#E7E7E7" d="M131,85h2v2h-1v1h-2v1h-1v-1h-1v1h-4v-3h1v1h2v-1h4V85z"/>
<path fill="#E7E7E7" d="M143,85h2v1h1v2h-1v-1h-2V85z"/>
<path d="M147,85h2v2h-2V85z"/>
<path fill="#E7E7E7" d="M154,85h2v2h-1v1h-2v1h-1v-1h-1v1h-4v-2h2v-1h5V85z"/>
<path fill="#E7E7E7" d="M166,85h2v1h1v2h-1v-1h-2V85z"/>
<path d="M171,85h2v2h-2V85z"/>
<path fill="#E7E7E7" d="M177,85h2v2h-1v1h-2v1h-1v-1h-1v1h-4v-3h1v1h2v-1h4V85z"/>
<path fill="#E7E7E7" d="M189,85h2v1h1v2h-1v-1h-2V85z"/>
<path d="M194,85h2v2h-2V85z"/>
<path fill="#E7E7E7" d="M200,85h2v2h-1v1h-2v1h-1v-1h-1v1h-4v-3h1v1h2v-1h4V85z"/>
<path fill="#E6E6E6" d="M54,86h1v2h-1V86z"/>
<path fill="#E6E6E6" d="M77,86h1v2h-1V86z"/>
<path fill="#E7E7E7" d="M78,86h3v1h-2v2h-1V86z"/>
<path fill="#E6E6E6" d="M100,86h1v2h-1V86z"/>
<path d="M102,86h2v2h-2V86z"/>
<path fill="#E6E6E6" d="M123,86h1v2h-1V86z"/>
<path fill="#E6E6E6" d="M146,86h1v2h-1V86z"/>
<path fill="#E6E6E6" d="M169,86h1v2h-1V86z"/>
<path fill="#E6E6E6" d="M192,86h1v2h-1V86z"/>
<path fill="#E7E7E7" d="M30,87h2v1h5v-1h2v2h-3v1h-3v-1h-3V87z"/>
<path fill="#010101" d="M51,87h1v2h-1V87z"/>
<path fill="#E3E3E3" d="M52,87h1v1h-1V87z"/>
<path fill="#010101" d="M63,87h1v2h-1V87z"/>
<path fill="#010101" d="M74,87h1v2h-1V87z"/>
<path fill="#E3E3E3" d="M75,87h1v1h-1V87z"/>
<path d="M79,87h2v2h-2V87z"/>
<path fill="#010101" d="M86,87h1v2h-1V87z"/>
<path fill="#010101" d="M97,87h1v2h-1V87z"/>
<path fill="#E3E3E3" d="M98,87h1v1h-1V87z"/>
<path fill="#010101" d="M109,87h1v2h-1V87z"/>
<path fill="#010101" d="M120,87h1v2h-1V87z"/>
<path fill="#E3E3E3" d="M121,87h1v1h-1V87z"/>
<path fill="#010101" d="M132,87h1v2h-1V87z"/>
<path fill="#010101" d="M143,87h1v2h-1V87z"/>
<path fill="#E3E3E3" d="M144,87h1v1h-1V87z"/>
<path fill="#010101" d="M155,87h1v2h-1V87z"/>
<path fill="#010101" d="M166,87h1v2h-1V87z"/>
<path fill="#E3E3E3" d="M167,87h1v1h-1V87z"/>
<path fill="#010101" d="M178,87h1v2h-1V87z"/>
<path fill="#010101" d="M189,87h1v2h-1V87z"/>
<path fill="#E3E3E3" d="M190,87h1v1h-1V87z"/>
<path fill="#010101" d="M201,87h1v2h-1V87z"/>
<path fill="#DEDEDE" d="M52,88h2v1h7v-1h2v1h-1v1h-3v1h-3v-1h-3v-1h-1V88z"/>
<path fill="#E2E2E2" d="M54,88h1v1h-1V88z"/>
<path fill="#E6E6E6" d="M59,88h1v1h-1V88z"/>
<path fill="#DEDEDE" d="M75,88h2v1h7v-1h2v1h-1v1h-3v1h-3v-1h-3v-1h-1V88z"/>
<path fill="#E2E2E2" d="M77,88h1v1h-1V88z"/>
<path fill="#E6E6E6" d="M82,88h1v1h-1V88z"/>
<path fill="#DEDEDE" d="M98,88h2v1h7v-1h2v1h-1v1h-3v1h-3v-1h-3v-1h-1V88z"/>
<path fill="#E2E2E2" d="M100,88h1v1h-1V88z"/>
<path fill="#E6E6E6" d="M105,88h1v1h-1V88z"/>
<path fill="#DEDEDE" d="M121,88h2v1h7v-1h2v1h-1v1h-3v1h-3v-1h-3v-1h-1V88z"/>
<path fill="#E2E2E2" d="M123,88h1v1h-1V88z"/>
<path fill="#E6E6E6" d="M128,88h1v1h-1V88z"/>
<path fill="#DEDEDE" d="M144,88h2v1h7v-1h2v1h-1v1h-3v1h-3v-1h-3v-1h-1V88z"/>
<path fill="#E2E2E2" d="M146,88h1v1h-1V88z"/>
<path fill="#E6E6E6" d="M151,88h1v1h-1V88z"/>
<path fill="#DEDEDE" d="M167,88h2v1h7v-1h2v1h-1v1h-3v1h-3v-1h-3v-1h-1V88z"/>
<path fill="#E2E2E2" d="M169,88h1v1h-1V88z"/>
<path fill="#E6E6E6" d="M174,88h1v1h-1V88z"/>
<path fill="#DEDEDE" d="M190,88h2v1h7v-1h2v1h-1v1h-3v1h-3v-1h-3v-1h-1V88z"/>
<path fill="#E2E2E2" d="M192,88h1v1h-1V88z"/>
<path fill="#E6E6E6" d="M197,88h1v1h-1V88z"/>
<path fill="#010101" d="M30,89h1v1h-1V89z"/>
<path fill="#DEDEDE" d="M31,89h2v1h3v-1h2v1h-1v1h-5v-1h-1V89z"/>
<path fill="#010101" d="M38,89h1v1h-1V89z"/>
<path fill="#010101" d="M52,89h1v1h-1V89z"/>
<path fill="#010101" d="M62,89h1v1h-1V89z"/>
<path fill="#010101" d="M75,89h1v1h-1V89z"/>
<path fill="#010101" d="M85,89h1v1h-1V89z"/>
<path fill="#010101" d="M98,89h1v1h-1V89z"/>
<path fill="#010101" d="M108,89h1v1h-1V89z"/>
<path fill="#010101" d="M121,89h1v1h-1V89z"/>
<path fill="#010101" d="M131,89h1v1h-1V89z"/>
<path fill="#010101" d="M144,89h1v1h-1V89z"/>
<path fill="#010101" d="M154,89h1v1h-1V89z"/>
<path fill="#010101" d="M167,89h1v1h-1V89z"/>
<path fill="#010101" d="M177,89h1v1h-1V89z"/>
<path fill="#010101" d="M190,89h1v1h-1V89z"/>
<path fill="#010101" d="M200,89h1v1h-1V89z"/>
<path fill="#010101" d="M31,90h1v1h-1V90z"/>
<path fill="#010101" d="M37,90h1v1h-1V90z"/>
<path fill="#010101" d="M53,90h2v1h-2V90z"/>
<path fill="#CCCCCC" d="M55,90h1v1h-1V90z"/>
<path fill="#CCCCCC" d="M59,90h1v1h-1V90z"/>
<path fill="#010101" d="M60,90h2v1h-2V90z"/>
<path fill="#010101" d="M76,90h2v1h-2V90z"/>
<path fill="#CCCCCC" d="M78,90h1v1h-1V90z"/>
<path fill="#CCCCCC" d="M82,90h1v1h-1V90z"/>
<path fill="#010101" d="M83,90h2v1h-2V90z"/>
<path fill="#010101" d="M99,90h2v1h-2V90z"/>
<path fill="#CCCCCC" d="M101,90h1v1h-1V90z"/>
<path fill="#CCCCCC" d="M105,90h1v1h-1V90z"/>
<path fill="#010101" d="M106,90h2v1h-2V90z"/>
<path fill="#010101" d="M122,90h2v1h-2V90z"/>
<path fill="#CCCCCC" d="M124,90h1v1h-1V90z"/>
<path fill="#CCCCCC" d="M128,90h1v1h-1V90z"/>
<path fill="#010101" d="M129,90h2v1h-2V90z"/>
<path fill="#010101" d="M145,90h2v1h-2V90z"/>
<path fill="#CCCCCC" d="M147,90h1v1h-1V90z"/>
<path fill="#CCCCCC" d="M151,90h1v1h-1V90z"/>
<path fill="#010101" d="M152,90h2v1h-2V90z"/>
<path fill="#010101" d="M168,90h2v1h-2V90z"/>
<path fill="#CCCCCC" d="M170,90h1v1h-1V90z"/>
<path fill="#CCCCCC" d="M174,90h1v1h-1V90z"/>
<path fill="#010101" d="M175,90h2v1h-2V90z"/>
<path fill="#010101" d="M191,90h2v1h-2V90z"/>
<path fill="#CCCCCC" d="M193,90h1v1h-1V90z"/>
<path fill="#CCCCCC" d="M197,90h1v1h-1V90z"/>
<path fill="#010101" d="M198,90h2v1h-2V90z"/>
<path fill="#010101" d="M32,91h1v1h-1V91z"/>
<path fill="#CCCCCC" d="M33,91h3v1h-1v1h-1v-1h-1V91z"/>
<path fill="#010101" d="M36,91h1v1h-1V91z"/>
<path fill="#010101" d="M55,91h1v1h-1V91z"/>
<path fill="#CCCCCC" d="M56,91h3v1h-1v1h-1v-1h-1V91z"/>
<path fill="#010101" d="M59,91h1v1h-1V91z"/>
<path fill="#010101" d="M78,91h1v1h-1V91z"/>
<path fill="#CCCCCC" d="M79,91h3v1h-1v1h-1v-1h-1V91z"/>
<path fill="#010101" d="M82,91h1v1h-1V91z"/>
<path fill="#010101" d="M101,91h1v1h-1V91z"/>
<path fill="#CCCCCC" d="M102,91h3v1h-1v1h-1v-1h-1V91z"/>
<path fill="#010101" d="M105,91h1v1h-1V91z"/>
<path fill="#010101" d="M124,91h1v1h-1V91z"/>
<path fill="#CCCCCC" d="M125,91h3v1h-1v1h-1v-1h-1V91z"/>
<path fill="#010101" d="M128,91h1v1h-1V91z"/>
<path fill="#010101" d="M147,91h1v1h-1V91z"/>
<path fill="#CCCCCC" d="M148,91h3v1h-1v1h-1v-1h-1V91z"/>
<path fill="#010101" d="M151,91h1v1h-1V91z"/>
<path fill="#010101" d="M170,91h1v1h-1V91z"/>
<path fill="#CCCCCC" d="M171,91h3v1h-1v1h-1v-1h-1V91z"/>
<path fill="#010101" d="M174,91h1v1h-1V91z"/>
<path fill="#010101" d="M193,91h1v1h-1V91z"/>
<path fill="#CCCCCC" d="M194,91h3v1h-1v1h-1v-1h-1V91z"/>
<path fill="#010101" d="M197,91h1v1h-1V91z"/>
<path fill="#010101" d="M33,92h1v1h-1V92z"/>
<path fill="#010101" d="M35,92h1v1h-1V92z"/>
<path fill="#010101" d="M56,92h1v1h-1V92z"/>
<path fill="#010101" d="M58,92h1v1h-1V92z"/>
<path fill="#010101" d="M79,92h1v1h-1V92z"/>
<path fill="#010101" d="M81,92h1v1h-1V92z"/>
<path fill="#010101" d="M102,92h1v1h-1V92z"/>
<path fill="#010101" d="M104,92h1v1h-1V92z"/>
<path fill="#010101" d="M125,92h1v1h-1V92z"/>
<path fill="#010101" d="M127,92h1v1h-1V92z"/>
<path fill="#010101" d="M148,92h1v1h-1V92z"/>
<path fill="#010101" d="M150,92h1v1h-1V92z"/>
<path fill="#010101" d="M171,92h1v1h-1V92z"/>
<path fill="#010101" d="M173,92h1v1h-1V92z"/>
<path fill="#010101" d="M194,92h1v1h-1V92z"/>
<path fill="#010101" d="M196,92h1v1h-1V92z"/>
<path fill="#010101" d="M34,93h1v1h-1V93z"/>
<path fill="#010101" d="M57,93h1v1h-1V93z"/>
<path fill="#010101" d="M80,93h1v1h-1V93z"/>
<path fill="#010101" d="M103,93h1v1h-1V93z"/>
<path fill="#010101" d="M126,93h1v1h-1V93z"/>
<path fill="#010101" d="M149,93h1v1h-1V93z"/>
<path fill="#010101" d="M172,93h1v1h-1V93z"/>
<path fill="#010101" d="M195,93h1v1h-1V93z"/>
</svg>
