<?xml version="1.0" encoding="utf-8"?>
<!-- Generator: Adobe Illustrator 16.0.4, SVG Export Plug-In . SVG Version: 6.00 Build 0)  -->
<!DOCTYPE svg PUBLIC "-//W3C//DTD SVG 1.1//EN" "http://www.w3.org/Graphics/SVG/1.1/DTD/svg11.dtd">
<svg version="1.1" id="Layer_1" xmlns="http://www.w3.org/2000/svg" xmlns:xlink="http://www.w3.org/1999/xlink" x="0px" y="0px"
	 width="15px" height="6px" viewBox="0 0 15 6" enable-background="new 0 0 15 6" xml:space="preserve">
<rect x="2" y="2" opacity="0.25" enable-background="new    " width="1" height="1"/>
<rect x="3" y="2" opacity="0.25" enable-background="new    " width="1" height="1"/>
<rect x="11" y="2" opacity="0.25" enable-background="new    " width="1" height="1"/>
<rect x="12" y="2" opacity="0.25" enable-background="new    " width="1" height="1"/>
<rect x="2" y="3" opacity="0.25" enable-background="new    " width="1" height="1"/>
<rect x="3" y="3" opacity="0.25" enable-background="new    " width="1" height="1"/>
<rect x="11" y="3" opacity="0.25" enable-background="new    " width="1" height="1"/>
<rect x="12" y="3" opacity="0.25" enable-background="new    " width="1" height="1"/>
<rect x="4" y="1" opacity="0.25" enable-background="new    " width="1" height="1"/>
<rect x="4" y="2" opacity="0.25" enable-background="new    " width="1" height="1"/>
<rect x="4" y="3" opacity="0.25" enable-background="new    " width="1" height="1"/>
<rect x="10" y="1" opacity="0.25" enable-background="new    " width="1" height="1"/>
<rect x="10" y="2" opacity="0.25" enable-background="new    " width="1" height="1"/>
<rect x="10" y="3" opacity="0.25" enable-background="new    " width="1" height="1"/>
<rect x="5" y="1" opacity="0.25" enable-background="new    " width="1" height="1"/>
<rect x="5" y="2" opacity="0.25" enable-background="new    " width="1" height="1"/>
<rect x="5" y="3" opacity="0.25" enable-background="new    " width="1" height="1"/>
<rect x="6" y="1" opacity="0.25" enable-background="new    " width="1" height="1"/>
<rect x="6" y="2" opacity="0.25" enable-background="new    " width="1" height="1"/>
<rect x="6" y="3" opacity="0.25" enable-background="new    " width="1" height="1"/>
<rect x="8" y="1" opacity="0.25" enable-background="new    " width="1" height="1"/>
<rect x="8" y="2" opacity="0.25" enable-background="new    " width="1" height="1"/>
<rect x="8" y="3" opacity="0.25" enable-background="new    " width="1" height="1"/>
<rect x="9" y="1" opacity="0.25" enable-background="new    " width="1" height="1"/>
<rect x="9" y="2" opacity="0.25" enable-background="new    " width="1" height="1"/>
<rect x="9" y="3" opacity="0.25" enable-background="new    " width="1" height="1"/>
<rect x="7" y="1" opacity="0.25" enable-background="new    " width="1" height="1"/>
<rect x="7" y="2" opacity="0.25" enable-background="new    " width="1" height="1"/>
<rect x="7" y="3" opacity="0.25" enable-background="new    " width="1" height="1"/>
<rect x="4" y="4" opacity="0.25" enable-background="new    " width="1" height="1"/>
<rect x="10" y="4" opacity="0.25" enable-background="new    " width="1" height="1"/>
<rect x="5" y="4" opacity="0.25" enable-background="new    " width="1" height="1"/>
<rect x="6" y="4" opacity="0.25" enable-background="new    " width="1" height="1"/>
<rect x="8" y="4" opacity="0.25" enable-background="new    " width="1" height="1"/>
<rect x="9" y="4" opacity="0.25" enable-background="new    " width="1" height="1"/>
<rect x="7" y="4" opacity="0.25" enable-background="new    " width="1" height="1"/>
</svg>
