<?xml version="1.0" encoding="utf-8"?>
<!-- Generator: Adobe Illustrator 16.0.4, SVG Export Plug-In . SVG Version: 6.00 Build 0)  -->
<!DOCTYPE svg PUBLIC "-//W3C//DTD SVG 1.1//EN" "http://www.w3.org/Graphics/SVG/1.1/DTD/svg11.dtd">
<svg version="1.1" id="Layer_1" xmlns="http://www.w3.org/2000/svg" xmlns:xlink="http://www.w3.org/1999/xlink" x="0px" y="0px"
	 width="92px" height="116px" viewBox="0 0 92 116" enable-background="new 0 0 92 116" xml:space="preserve">
<path fill="#6F6048" d="M9,2h5v1H9V2z"/>
<path fill="#6F6048" d="M32,2h5v1h-5V2z"/>
<path fill="#6F6048" d="M55,2h5v1h-5V2z"/>
<path fill="#6F6048" d="M78,2h5v1h-5V2z"/>
<path fill="#6F6048" d="M7,3h2v1H7V3z"/>
<path fill="#E0C058" d="M9,3h1v1H9V3z"/>
<path fill="#B19848" d="M10,3h3v1h3v1h1v2h1v3h-1v1h-1v-1h-1v1h1v1h-2v-1h-1v-1h-3v1H9v1H7v-1H6v-1H5V7h1V5h1v2h1v1h2V7H9V4h1V3z"/>
<path fill="#E0C058" d="M13,3h1v1h-1V3z"/>
<path fill="#6F6048" d="M14,3h2v1h-2V3z"/>
<path fill="#6F6048" d="M30,3h2v1h-2V3z"/>
<path fill="#E0C058" d="M32,3h1v1h-1V3z"/>
<path fill="#B19848" d="M33,3h3v1h3v1h1v2h1v3h-1v1h-1v-1h-1v1h1v1h-2v-1h-1v-1h-3v1h-1v1h-2v-1h-1v-1h-1V7h1V5h1v2h1v1h2V7h-1V4h1
	V3z"/>
<path fill="#E0C058" d="M36,3h1v1h-1V3z"/>
<path fill="#6F6048" d="M37,3h2v1h-2V3z"/>
<path fill="#6F6048" d="M53,3h2v1h-2V3z"/>
<path fill="#E0C058" d="M55,3h1v1h-1V3z"/>
<path fill="#B19848" d="M56,3h3v1h3v1h1v2h1v3h-1v1h-1v-1h-1v1h1v1h-2v-1h-1v-1h-3v1h-1v1h-2v-1h-1v-1h-1V7h1V5h1v2h1v1h2V7h-1V4h1
	V3z"/>
<path fill="#E0C058" d="M59,3h1v1h-1V3z"/>
<path fill="#6F6048" d="M60,3h2v1h-2V3z"/>
<path fill="#6F6048" d="M76,3h2v1h-2V3z"/>
<path fill="#E0C058" d="M78,3h1v1h-1V3z"/>
<path fill="#B19848" d="M79,3h3v1h3v1h1v2h1v3h-1v1h-1v-1h-1v1h1v1h-2v-1h-1v-1h-3v1h-1v1h-2v-1h-1v-1h-1V7h1V5h1v2h1v1h2V7h-1V4h1
	V3z"/>
<path fill="#E0C058" d="M82,3h1v1h-1V3z"/>
<path fill="#6F6048" d="M83,3h2v1h-2V3z"/>
<path fill="#030303" d="M6,4h1v1H6V4z"/>
<path fill="#B19848" d="M7,4h1v1H7V4z"/>
<path fill="#E0C058" d="M8,4h1v3h1v1H8V7H7V5h1V4z"/>
<path fill="#6F6048" d="M11,4h1v1h1v1h-1v1h-1V6h-1V5h1V4z"/>
<path fill="#030303" d="M16,4h1v1h-1V4z"/>
<path fill="#030303" d="M29,4h1v1h-1V4z"/>
<path fill="#B19848" d="M30,4h1v1h-1V4z"/>
<path fill="#E0C058" d="M31,4h1v3h1v1h-2V7h-1V5h1V4z"/>
<path fill="#6F6048" d="M34,4h1v1h1v1h-1v1h-1V6h-1V5h1V4z"/>
<path fill="#030303" d="M39,4h1v1h-1V4z"/>
<path fill="#030303" d="M52,4h1v1h-1V4z"/>
<path fill="#B19848" d="M53,4h1v1h-1V4z"/>
<path fill="#E0C058" d="M54,4h1v3h1v1h-2V7h-1V5h1V4z"/>
<path fill="#6F6048" d="M57,4h1v1h1v1h-1v1h-1V6h-1V5h1V4z"/>
<path fill="#030303" d="M62,4h1v1h-1V4z"/>
<path fill="#030303" d="M75,4h1v1h-1V4z"/>
<path fill="#B19848" d="M76,4h1v1h-1V4z"/>
<path fill="#E0C058" d="M77,4h1v3h1v1h-2V7h-1V5h1V4z"/>
<path fill="#6F6048" d="M80,4h1v1h1v1h-1v1h-1V6h-1V5h1V4z"/>
<path fill="#030303" d="M85,4h1v1h-1V4z"/>
<path fill="#030303" d="M5,5h1v1H5V5z"/>
<path fill="#E0C058" d="M14,5h1v2h-1V5z"/>
<path fill="#030303" d="M17,5h1v1h-1V5z"/>
<path fill="#030303" d="M28,5h1v1h-1V5z"/>
<path fill="#E0C058" d="M37,5h1v2h-1V5z"/>
<path fill="#030303" d="M40,5h1v1h-1V5z"/>
<path fill="#030303" d="M51,5h1v1h-1V5z"/>
<path fill="#E0C058" d="M60,5h1v2h-1V5z"/>
<path fill="#030303" d="M63,5h1v1h-1V5z"/>
<path fill="#030303" d="M74,5h1v1h-1V5z"/>
<path fill="#E0C058" d="M83,5h1v2h-1V5z"/>
<path fill="#030303" d="M86,5h1v1h-1V5z"/>
<path fill="#6F6048" d="M5,6h1v1H5V6z"/>
<path fill="#6F6048" d="M17,6h1v1h-1V6z"/>
<path fill="#6F6048" d="M28,6h1v1h-1V6z"/>
<path fill="#6F6048" d="M40,6h1v1h-1V6z"/>
<path fill="#6F6048" d="M51,6h1v1h-1V6z"/>
<path fill="#6F6048" d="M63,6h1v1h-1V6z"/>
<path fill="#6F6048" d="M74,6h1v1h-1V6z"/>
<path fill="#6F6048" d="M86,6h1v1h-1V6z"/>
<path fill="#030303" d="M4,7h1v3H4V7z"/>
<path fill="#E0C058" d="M13,7h1v1h-1V7z"/>
<path fill="#030303" d="M18,7h1v3h-1V7z"/>
<path fill="#030303" d="M27,7h1v3h-1V7z"/>
<path fill="#E0C058" d="M36,7h1v1h-1V7z"/>
<path fill="#030303" d="M41,7h1v3h-1V7z"/>
<path fill="#030303" d="M50,7h1v3h-1V7z"/>
<path fill="#E0C058" d="M59,7h1v1h-1V7z"/>
<path fill="#030303" d="M64,7h1v3h-1V7z"/>
<path fill="#030303" d="M73,7h1v3h-1V7z"/>
<path fill="#E0C058" d="M82,7h1v1h-1V7z"/>
<path fill="#030303" d="M87,7h1v3h-1V7z"/>
<path fill="#E0C058" d="M10,8h2v1h-2V8z"/>
<path fill="#E0C058" d="M33,8h2v1h-2V8z"/>
<path fill="#E0C058" d="M56,8h2v1h-2V8z"/>
<path fill="#E0C058" d="M79,8h2v1h-2V8z"/>
<path fill="#030303" d="M3,10h1v2H3V10z"/>
<path fill="#D89870" d="M4,10h1v2H4V10z"/>
<path fill="#6F6048" d="M5,10h1v1h1v1h1v1H7v1H6v-1H5V10z"/>
<path fill="#6F6048" d="M7,10h1v1H7V10z"/>
<path fill="#6F6048" d="M10,10h3v1h1v1h-2v-1h-1v1H9v-1h1V10z"/>
<path fill="#6F6048" d="M15,10h1v1h-1V10z"/>
<path fill="#6F6048" d="M17,10h1v3h-1v1h-2v-2h1v-1h1V10z"/>
<path fill="#D89870" d="M18,10h1v2h-1V10z"/>
<path fill="#030303" d="M19,10h1v2h-1V10z"/>
<path fill="#030303" d="M26,10h1v2h-1V10z"/>
<path fill="#D89870" d="M27,10h1v2h-1V10z"/>
<path fill="#6F6048" d="M28,10h1v1h1v1h1v1h-1v1h-1v-1h-1V10z"/>
<path fill="#6F6048" d="M30,10h1v1h-1V10z"/>
<path fill="#6F6048" d="M33,10h3v1h1v1h-2v-1h-1v1h-2v-1h1V10z"/>
<path fill="#6F6048" d="M38,10h1v1h-1V10z"/>
<path fill="#6F6048" d="M40,10h1v3h-1v1h-2v-2h1v-1h1V10z"/>
<path fill="#D89870" d="M41,10h1v2h-1V10z"/>
<path fill="#030303" d="M42,10h1v2h-1V10z"/>
<path fill="#030303" d="M49,10h1v2h-1V10z"/>
<path fill="#D89870" d="M50,10h1v2h-1V10z"/>
<path fill="#6F6048" d="M51,10h1v1h1v1h1v1h-1v1h-1v-1h-1V10z"/>
<path fill="#6F6048" d="M53,10h1v1h-1V10z"/>
<path fill="#6F6048" d="M56,10h3v1h1v1h-2v-1h-1v1h-2v-1h1V10z"/>
<path fill="#6F6048" d="M61,10h1v1h-1V10z"/>
<path fill="#6F6048" d="M63,10h1v3h-1v1h-2v-2h1v-1h1V10z"/>
<path fill="#D89870" d="M64,10h1v2h-1V10z"/>
<path fill="#030303" d="M65,10h1v2h-1V10z"/>
<path fill="#030303" d="M72,10h1v2h-1V10z"/>
<path fill="#D89870" d="M73,10h1v2h-1V10z"/>
<path fill="#6F6048" d="M74,10h1v1h1v1h1v2h-2v-1h-1V10z"/>
<path fill="#6F6048" d="M76,10h1v1h-1V10z"/>
<path fill="#6F6048" d="M79,10h3v1h1v1h-2v-1h-1v1h-2v-1h1V10z"/>
<path fill="#6F6048" d="M84,10h1v1h-1V10z"/>
<path fill="#6F6048" d="M86,10h1v3h-1v1h-1v-1h-1v-1h1v-1h1V10z"/>
<path fill="#D89870" d="M87,10h1v2h-1V10z"/>
<path fill="#030303" d="M88,10h1v2h-1V10z"/>
<path fill="#F8D0B8" d="M11,11h1v1h2v1h-1v2h2v1h-1v1h-2v-1h-1v1H9v-1H8v-1h2v-2H9v-1h2V11z"/>
<path fill="#F8D0B8" d="M34,11h1v1h2v1h-1v2h2v1h-1v1h-2v-1h-1v1h-2v-1h-1v-1h2v-2h-1v-1h2V11z"/>
<path fill="#F8D0B8" d="M57,11h1v1h2v1h-1v2h2v1h-1v1h-2v-1h-1v1h-2v-1h-1v-1h2v-2h-1v-1h2V11z"/>
<path fill="#F8D0B8" d="M80,11h1v1h2v1h-1v2h2v1h-1v1h-2v-1h-1v1h-2v-1h-1v-1h2v-2h-1v-1h2V11z"/>
<path fill="#030303" d="M4,12h1v1H4V12z"/>
<path fill="#030303" d="M8,12h1v1H8V12z"/>
<path fill="#030303" d="M14,12h1v1h-1V12z"/>
<path fill="#030303" d="M18,12h1v1h-1V12z"/>
<path fill="#030303" d="M27,12h1v1h-1V12z"/>
<path fill="#030303" d="M31,12h1v1h-1V12z"/>
<path fill="#030303" d="M37,12h1v1h-1V12z"/>
<path fill="#030303" d="M41,12h1v1h-1V12z"/>
<path fill="#030303" d="M50,12h1v1h-1V12z"/>
<path fill="#030303" d="M54,12h1v1h-1V12z"/>
<path fill="#030303" d="M60,12h1v1h-1V12z"/>
<path fill="#030303" d="M64,12h1v1h-1V12z"/>
<path fill="#030303" d="M73,12h1v1h-1V12z"/>
<path fill="#030303" d="M77,12h1v1h-1V12z"/>
<path fill="#030303" d="M83,12h1v1h-1V12z"/>
<path fill="#030303" d="M87,12h1v1h-1V12z"/>
<path fill="#030303" d="M5,13h1v2H5V13z"/>
<path fill="#D89870" d="M7,13h1v3H7v-1H6v-1h1V13z"/>
<path fill="#A8A0C8" d="M8,13h1v1H8V13z"/>
<path fill="#6F6048" d="M9,13h1v1H9V13z"/>
<path fill="#6F6048" d="M13,13h1v1h-1V13z"/>
<path fill="#A8A0C8" d="M14,13h1v1h-1V13z"/>
<path fill="#030303" d="M17,13h1v2h-1V13z"/>
<path fill="#030303" d="M28,13h1v2h-1V13z"/>
<path fill="#D89870" d="M30,13h1v3h-1v-1h-1v-1h1V13z"/>
<path fill="#A8A0C8" d="M31,13h1v1h-1V13z"/>
<path fill="#6F6048" d="M32,13h1v1h-1V13z"/>
<path fill="#6F6048" d="M36,13h1v1h-1V13z"/>
<path fill="#A8A0C8" d="M37,13h1v1h-1V13z"/>
<path fill="#030303" d="M40,13h1v2h-1V13z"/>
<path fill="#030303" d="M51,13h1v2h-1V13z"/>
<path fill="#D89870" d="M53,13h1v3h-1v-1h-1v-1h1V13z"/>
<path fill="#A8A0C8" d="M54,13h1v1h-1V13z"/>
<path fill="#6F6048" d="M55,13h1v1h-1V13z"/>
<path fill="#6F6048" d="M59,13h1v1h-1V13z"/>
<path fill="#A8A0C8" d="M60,13h1v1h-1V13z"/>
<path fill="#030303" d="M63,13h1v2h-1V13z"/>
<path fill="#030303" d="M74,13h1v2h-1V13z"/>
<path fill="#A8A0C8" d="M77,13h1v1h-1V13z"/>
<path fill="#6F6048" d="M78,13h1v1h-1V13z"/>
<path fill="#6F6048" d="M82,13h1v1h-1V13z"/>
<path fill="#A8A0C8" d="M83,13h1v1h-1V13z"/>
<path fill="#D89870" d="M84,13h1v1h1v1h-1v1h-1V13z"/>
<path fill="#030303" d="M86,13h1v2h-1V13z"/>
<path fill="#E8E8F8" d="M8,14h1v1H8V14z"/>
<path fill="#030303" d="M9,14h1v1H9V14z"/>
<path fill="#030303" d="M13,14h1v1h-1V14z"/>
<path fill="#E8E8F8" d="M14,14h1v1h-1V14z"/>
<path fill="#D89870" d="M15,14h2v1h-1v1h-1V14z"/>
<path fill="#E8E8F8" d="M31,14h1v1h-1V14z"/>
<path fill="#030303" d="M32,14h1v1h-1V14z"/>
<path fill="#030303" d="M36,14h1v1h-1V14z"/>
<path fill="#E8E8F8" d="M37,14h1v1h-1V14z"/>
<path fill="#D89870" d="M38,14h2v1h-1v1h-1V14z"/>
<path fill="#E8E8F8" d="M54,14h1v1h-1V14z"/>
<path fill="#030303" d="M55,14h1v1h-1V14z"/>
<path fill="#030303" d="M59,14h1v1h-1V14z"/>
<path fill="#E8E8F8" d="M60,14h1v1h-1V14z"/>
<path fill="#D89870" d="M61,14h2v1h-1v1h-1V14z"/>
<path fill="#D89870" d="M75,14h2v2h-1v-1h-1V14z"/>
<path fill="#E8E8F8" d="M77,14h1v1h-1V14z"/>
<path fill="#030303" d="M78,14h1v1h-1V14z"/>
<path fill="#030303" d="M82,14h1v1h-1V14z"/>
<path fill="#E8E8F8" d="M83,14h1v1h-1V14z"/>
<path fill="#784040" d="M6,15h1v1H6V15z"/>
<path fill="#784040" d="M16,15h1v1h-1V15z"/>
<path fill="#784040" d="M29,15h1v1h-1V15z"/>
<path fill="#784040" d="M39,15h1v1h-1V15z"/>
<path fill="#784040" d="M52,15h1v1h-1V15z"/>
<path fill="#784040" d="M62,15h1v1h-1V15z"/>
<path fill="#784040" d="M75,15h1v1h-1V15z"/>
<path fill="#784040" d="M85,15h1v1h-1V15z"/>
<path fill="#030303" d="M6,16h1v1H6V16z"/>
<path fill="#784040" d="M7,16h1v1H7V16z"/>
<path fill="#D89870" d="M8,16h1v1H8V16z"/>
<path fill="#D89870" d="M11,16h1v1h1v1h-3v-1h1V16z"/>
<path fill="#D89870" d="M14,16h1v1h-1V16z"/>
<path fill="#784040" d="M15,16h1v1h-1V16z"/>
<path fill="#030303" d="M16,16h1v1h-1V16z"/>
<path fill="#784040" d="M27,16h2v1h-2V16z"/>
<path fill="#030303" d="M29,16h1v1h-1V16z"/>
<path fill="#784040" d="M30,16h1v1h-1V16z"/>
<path fill="#D89870" d="M31,16h1v1h-1V16z"/>
<path fill="#D89870" d="M34,16h1v1h1v1h-3v-1h1V16z"/>
<path fill="#D89870" d="M37,16h1v1h-1V16z"/>
<path fill="#784040" d="M38,16h1v1h-1V16z"/>
<path fill="#604840" d="M39,16h1v2h-1V16z"/>
<path fill="#030303" d="M52,16h1v1h-1V16z"/>
<path fill="#784040" d="M53,16h1v1h-1V16z"/>
<path fill="#D89870" d="M54,16h1v1h-1V16z"/>
<path fill="#D89870" d="M57,16h1v1h1v1h-3v-1h1V16z"/>
<path fill="#D89870" d="M60,16h1v1h-1V16z"/>
<path fill="#784040" d="M61,16h1v1h-1V16z"/>
<path fill="#030303" d="M62,16h1v1h-1V16z"/>
<path fill="#604840" d="M75,16h1v2h-1V16z"/>
<path fill="#784040" d="M76,16h1v1h-1V16z"/>
<path fill="#D89870" d="M77,16h1v1h-1V16z"/>
<path fill="#D89870" d="M80,16h1v1h1v1h-3v-1h1V16z"/>
<path fill="#D89870" d="M83,16h1v1h-1V16z"/>
<path fill="#784040" d="M84,16h1v1h-1V16z"/>
<path fill="#030303" d="M85,16h1v1h-1V16z"/>
<path fill="#784040" d="M86,16h2v1h-2V16z"/>
<path fill="#030303" d="M5,17h1v1H5V17z"/>
<path fill="#A8A080" d="M6,17h2v2H7v-1H6V17z"/>
<path fill="#030303" d="M8,17h1v1H8V17z"/>
<path fill="#784040" d="M9,17h1v1H9V17z"/>
<path fill="#784040" d="M13,17h1v1h-1V17z"/>
<path fill="#030303" d="M14,17h1v1h-1V17z"/>
<path fill="#A8A080" d="M15,17h2v1h-1v1h-1V17z"/>
<path fill="#030303" d="M17,17h1v1h-1V17z"/>
<path fill="#784040" d="M26,17h1v2h-1V17z"/>
<path fill="#D89870" d="M27,17h1v2h-1V17z"/>
<path fill="#A8A080" d="M28,17h3v2h-1v1h-1v-1h-1V17z"/>
<path fill="#030303" d="M31,17h1v1h-1V17z"/>
<path fill="#784040" d="M32,17h1v1h-1V17z"/>
<path fill="#784040" d="M36,17h1v1h-1V17z"/>
<path fill="#030303" d="M37,17h1v1h-1V17z"/>
<path fill="#A8A080" d="M38,17h1v1h-1V17z"/>
<path fill="#030303" d="M51,17h1v1h-1V17z"/>
<path fill="#A8A080" d="M52,17h2v2h-1v-1h-1V17z"/>
<path fill="#030303" d="M54,17h1v1h-1V17z"/>
<path fill="#784040" d="M55,17h1v1h-1V17z"/>
<path fill="#784040" d="M59,17h1v1h-1V17z"/>
<path fill="#030303" d="M60,17h1v1h-1V17z"/>
<path fill="#A8A080" d="M61,17h2v1h-1v1h-1V17z"/>
<path fill="#030303" d="M63,17h1v1h-1V17z"/>
<path fill="#A8A080" d="M76,17h1v1h-1V17z"/>
<path fill="#030303" d="M77,17h1v1h-1V17z"/>
<path fill="#784040" d="M78,17h1v1h-1V17z"/>
<path fill="#784040" d="M82,17h1v1h-1V17z"/>
<path fill="#030303" d="M83,17h1v1h-1V17z"/>
<path fill="#A8A080" d="M84,17h3v2h-1v1h-1v-1h-1V17z"/>
<path fill="#D89870" d="M87,17h1v2h-1V17z"/>
<path fill="#784040" d="M88,17h1v2h-1V17z"/>
<path fill="#030303" d="M4,18h1v1H4V18z"/>
<path fill="#E0D8B8" d="M5,18h2v2H5V18z"/>
<path fill="#604840" d="M8,18h1v1H8V18z"/>
<path fill="#A8A080" d="M9,18h5v1h-1v1h-3v-1H9V18z"/>
<path fill="#604840" d="M14,18h1v1h-1V18z"/>
<path fill="#E0D8B8" d="M16,18h2v2h-2V18z"/>
<path fill="#030303" d="M18,18h1v1h-1V18z"/>
<path fill="#604840" d="M31,18h1v1h-1V18z"/>
<path fill="#A8A080" d="M32,18h5v1h-1v1h-3v-1h-1V18z"/>
<path fill="#604840" d="M37,18h1v1h-1V18z"/>
<path fill="#E0D8B8" d="M38,18h2v1h-1v1h-1V18z"/>
<path fill="#604840" d="M40,18h1v2h-1V18z"/>
<path fill="#030303" d="M50,18h1v1h-1V18z"/>
<path fill="#E0D8B8" d="M51,18h2v2h-2V18z"/>
<path fill="#604840" d="M54,18h1v1h-1V18z"/>
<path fill="#A8A080" d="M55,18h5v1h-1v1h-3v-1h-1V18z"/>
<path fill="#604840" d="M60,18h1v1h-1V18z"/>
<path fill="#E0D8B8" d="M62,18h2v2h-2V18z"/>
<path fill="#030303" d="M64,18h1v1h-1V18z"/>
<path fill="#604840" d="M74,18h1v2h-1V18z"/>
<path fill="#E0D8B8" d="M75,18h2v2h-1v-1h-1V18z"/>
<path fill="#604840" d="M77,18h1v1h-1V18z"/>
<path fill="#A8A080" d="M78,18h5v1h-1v1h-3v-1h-1V18z"/>
<path fill="#604840" d="M83,18h1v1h-1V18z"/>
<path fill="#784040" d="M3,19h1v2H3V19z"/>
<path fill="#D89870" d="M4,19h1v1h1v1H4V19z"/>
<path fill="#604840" d="M7,19h1v1H7V19z"/>
<path fill="#A8A080" d="M8,19h1v1H8V19z"/>
<path fill="#E0D8B8" d="M9,19h1v1h3v-1h1v1h1v1h-1v1H9v-1H8v-1h1V19z"/>
<path fill="#A8A080" d="M14,19h1v1h-1V19z"/>
<path fill="#604840" d="M15,19h1v1h-1V19z"/>
<path fill="#D89870" d="M18,19h1v2h-2v-1h1V19z"/>
<path fill="#784040" d="M19,19h1v2h-1V19z"/>
<path fill="#784040" d="M27,19h2v1h-2V19z"/>
<path fill="#030303" d="M30,19h1v2h-1V19z"/>
<path fill="#A8A080" d="M31,19h1v1h-1V19z"/>
<path fill="#E0D8B8" d="M32,19h1v1h3v-1h1v2h-1v1h-3v-1h-2v-1h1V19z"/>
<path fill="#030303" d="M37,19h1v2h-1V19z"/>
<path fill="#A8A080" d="M39,19h1v1h-1V19z"/>
<path fill="#784040" d="M49,19h1v2h-1V19z"/>
<path fill="#D89870" d="M50,19h1v1h1v1h-2V19z"/>
<path fill="#604840" d="M53,19h1v1h-1V19z"/>
<path fill="#A8A080" d="M54,19h1v1h-1V19z"/>
<path fill="#E0D8B8" d="M55,19h1v1h3v-1h1v1h1v1h-1v1h-5v-1h-1v-1h1V19z"/>
<path fill="#A8A080" d="M60,19h1v1h-1V19z"/>
<path fill="#604840" d="M61,19h1v1h-1V19z"/>
<path fill="#D89870" d="M64,19h1v2h-2v-1h1V19z"/>
<path fill="#784040" d="M65,19h1v2h-1V19z"/>
<path fill="#A8A080" d="M75,19h1v1h-1V19z"/>
<path fill="#030303" d="M77,19h1v2h-1V19z"/>
<path fill="#E0D8B8" d="M78,19h1v1h3v-1h1v1h1v1h-2v1h-3v-1h-1V19z"/>
<path fill="#A8A080" d="M83,19h1v1h-1V19z"/>
<path fill="#030303" d="M84,19h1v2h-1V19z"/>
<path fill="#784040" d="M86,19h2v1h-2V19z"/>
<path fill="#784040" d="M6,20h1v1H6V20z"/>
<path fill="#030303" d="M7,20h1v1H7V20z"/>
<path fill="#030303" d="M15,20h1v1h-1V20z"/>
<path fill="#784040" d="M16,20h1v1h-1V20z"/>
<path fill="#784040" d="M29,20h1v1h-1V20z"/>
<path fill="#A8A080" d="M38,20h1v1h-1V20z"/>
<path fill="#F8D0B8" d="M39,20h2v1h-2V20z"/>
<path fill="#784040" d="M41,20h1v2h-1V20z"/>
<path fill="#784040" d="M52,20h1v1h-1V20z"/>
<path fill="#030303" d="M53,20h1v1h-1V20z"/>
<path fill="#030303" d="M61,20h1v1h-1V20z"/>
<path fill="#784040" d="M62,20h1v1h-1V20z"/>
<path fill="#784040" d="M73,20h1v2h-1V20z"/>
<path fill="#F8D0B8" d="M74,20h2v1h-2V20z"/>
<path fill="#A8A080" d="M76,20h1v1h-1V20z"/>
<path fill="#784040" d="M85,20h1v1h-1V20z"/>
<path fill="#784040" d="M4,21h2v1H4V21z"/>
<path fill="#030303" d="M6,21h1v2h1v1H7v1H6V21z"/>
<path fill="#485880" d="M7,21h2v1H7V21z"/>
<path fill="#485880" d="M14,21h2v1h-2V21z"/>
<path fill="#030303" d="M16,21h1v4h-1v-1h-1v-1h1V21z"/>
<path fill="#784040" d="M17,21h2v1h-2V21z"/>
<path fill="#030303" d="M29,21h1v4h-1V21z"/>
<path fill="#485880" d="M30,21h2v1h-2V21z"/>
<path fill="#A8A080" d="M32,21h1v1h-1V21z"/>
<path fill="#A8A080" d="M36,21h1v1h-1V21z"/>
<path fill="#485880" d="M37,21h1v2h-1v1h-3v-1h-2v-1h5V21z"/>
<path fill="#030303" d="M38,21h1v1h-1V21z"/>
<path fill="#D89870" d="M39,21h2v1h-2V21z"/>
<path fill="#784040" d="M50,21h2v1h-2V21z"/>
<path fill="#030303" d="M52,21h1v2h1v1h-1v1h-1V21z"/>
<path fill="#485880" d="M53,21h2v1h-2V21z"/>
<path fill="#485880" d="M60,21h2v1h-2V21z"/>
<path fill="#030303" d="M62,21h1v4h-1v-1h-1v-1h1V21z"/>
<path fill="#784040" d="M63,21h2v1h-2V21z"/>
<path fill="#D89870" d="M74,21h2v1h-2V21z"/>
<path fill="#030303" d="M76,21h1v1h-1V21z"/>
<path fill="#485880" d="M77,21h1v1h5v1h-2v1h-3v-1h-1V21z"/>
<path fill="#A8A080" d="M78,21h1v1h-1V21z"/>
<path fill="#A8A080" d="M82,21h1v1h-1V21z"/>
<path fill="#485880" d="M83,21h2v1h-2V21z"/>
<path fill="#030303" d="M85,21h1v4h-1V21z"/>
<path fill="#4088B8" d="M7,22h2v1H7V22z"/>
<path fill="#485880" d="M9,22h5v1h-2v1h-1v-1H9V22z"/>
<path fill="#4088B8" d="M14,22h2v1h-2V22z"/>
<path fill="#4088B8" d="M30,22h2v1h2v1h-1v1h-2v-1h-1V22z"/>
<path fill="#383850" d="M38,22h1v1h-1V22z"/>
<path fill="#030303" d="M39,22h2v1h-2V22z"/>
<path fill="#4088B8" d="M53,22h2v1h-2V22z"/>
<path fill="#485880" d="M55,22h5v1h-2v1h-1v-1h-2V22z"/>
<path fill="#4088B8" d="M60,22h2v1h-2V22z"/>
<path fill="#030303" d="M74,22h2v1h-2V22z"/>
<path fill="#383850" d="M76,22h1v1h-1V22z"/>
<path fill="#4088B8" d="M83,22h2v2h-1v1h-2v-1h-1v-1h2V22z"/>
<path fill="#485880" d="M8,23h1v1H8V23z"/>
<path fill="#4088B8" d="M9,23h2v1H9V23z"/>
<path fill="#4088B8" d="M12,23h2v1h-2V23z"/>
<path fill="#485880" d="M14,23h1v1h-1V23z"/>
<path fill="#030303" d="M37,23h2v1h-2V23z"/>
<path fill="#485880" d="M54,23h1v1h-1V23z"/>
<path fill="#4088B8" d="M55,23h2v1h-2V23z"/>
<path fill="#4088B8" d="M58,23h2v1h-2V23z"/>
<path fill="#485880" d="M60,23h1v1h-1V23z"/>
<path fill="#030303" d="M76,23h2v1h-2V23z"/>
<path fill="#A07850" d="M7,24h2v1H7V24z"/>
<path fill="#030303" d="M9,24h1v1H9V24z"/>
<path fill="#383850" d="M10,24h3v1h-3V24z"/>
<path fill="#030303" d="M13,24h1v1h-1V24z"/>
<path fill="#A07850" d="M14,24h2v1h-2V24z"/>
<path fill="#485880" d="M30,24h1v1h-1V24z"/>
<path fill="#485880" d="M33,24h1v1h-1V24z"/>
<path fill="#030303" d="M34,24h3v1h-3V24z"/>
<path fill="#A07850" d="M53,24h2v1h-2V24z"/>
<path fill="#030303" d="M55,24h1v1h-1V24z"/>
<path fill="#383850" d="M56,24h3v1h-3V24z"/>
<path fill="#030303" d="M59,24h1v1h-1V24z"/>
<path fill="#A07850" d="M60,24h2v1h-2V24z"/>
<path fill="#030303" d="M78,24h3v1h-3V24z"/>
<path fill="#485880" d="M81,24h1v1h-1V24z"/>
<path fill="#485880" d="M84,24h1v1h-1V24z"/>
<path fill="#030303" d="M7,25h2v1H7V25z"/>
<path fill="#030303" d="M14,25h2v1h-2V25z"/>
<path fill="#030303" d="M30,25h1v2h-1V25z"/>
<path fill="#485880" d="M31,25h2v1h-2V25z"/>
<path fill="#030303" d="M33,25h1v2h-1V25z"/>
<path fill="#030303" d="M53,25h2v1h-2V25z"/>
<path fill="#030303" d="M60,25h2v1h-2V25z"/>
<path fill="#030303" d="M81,25h1v2h-1V25z"/>
<path fill="#485880" d="M82,25h2v1h-2V25z"/>
<path fill="#030303" d="M84,25h1v2h-1V25z"/>
<path fill="#A07850" d="M31,26h2v1h-2V26z"/>
<path fill="#A07850" d="M82,26h2v1h-2V26z"/>
<path fill="#030303" d="M31,27h2v1h-2V27z"/>
<path fill="#030303" d="M82,27h2v1h-2V27z"/>
<path fill="#6F6048" d="M9,31h4v1H9V31z"/>
<path fill="#6F6048" d="M32,31h4v1h-4V31z"/>
<path fill="#6F6048" d="M55,31h4v1h-4V31z"/>
<path fill="#6F6048" d="M78,31h4v1h-4V31z"/>
<path fill="#6F6048" d="M7,32h2v1H7V32z"/>
<path fill="#B19848" d="M9,32h4v1h2v1h1v1h1v2h1v2h-2v1h-2v1h-3v1H9v-1H8v1H6v-1h1v-1h1v-1H7v1H5v-1H4v-2h1v-2h1v1h1v1h1v1h2v1h2v-1
	h1v-1h-2v-1H9v-1H8v-1H7v-1h2V32z"/>
<path fill="#6F6048" d="M13,32h2v1h-2V32z"/>
<path fill="#6F6048" d="M30,32h2v1h-2V32z"/>
<path fill="#B19848" d="M32,32h4v1h2v1h1v1h1v2h1v2h-2v1h-2v1h-3v1h-2v-1h-1v1h-2v-1h1v-1h1v-1h-1v1h-2v-1h-1v-2h1v-2h1v1h1v1h1v1h2
	v1h2v-1h1v-1h-2v-1h-2v-1h-1v-1h-1v-1h2V32z"/>
<path fill="#6F6048" d="M36,32h2v1h-2V32z"/>
<path fill="#6F6048" d="M53,32h2v1h-2V32z"/>
<path fill="#B19848" d="M55,32h4v1h2v1h1v1h1v2h1v2h-2v1h-2v1h-3v1h-2v-1h-1v1h-2v-1h1v-1h1v-1h-1v1h-2v-1h-1v-2h1v-2h1v1h1v1h1v1h2
	v1h2v-1h1v-1h-2v-1h-2v-1h-1v-1h-1v-1h2V32z"/>
<path fill="#6F6048" d="M59,32h2v1h-2V32z"/>
<path fill="#6F6048" d="M76,32h2v1h-2V32z"/>
<path fill="#B19848" d="M78,32h4v1h2v1h1v1h1v2h1v2h-2v1h-2v1h-3v1h-2v-1h-1v1h-2v-1h1v-1h1v-1h-1v1h-2v-1h-1v-2h1v-2h1v1h1v1h1v1h2
	v1h2v-1h1v-1h-2v-1h-2v-1h-1v-1h-1v-1h2V32z"/>
<path fill="#6F6048" d="M82,32h2v1h-2V32z"/>
<path fill="#6F6048" d="M6,33h1v1H6V33z"/>
<path fill="#6F6048" d="M15,33h1v1h-1V33z"/>
<path fill="#6F6048" d="M29,33h1v1h-1V33z"/>
<path fill="#6F6048" d="M38,33h1v1h-1V33z"/>
<path fill="#6F6048" d="M52,33h1v1h-1V33z"/>
<path fill="#6F6048" d="M61,33h1v1h-1V33z"/>
<path fill="#6F6048" d="M75,33h1v1h-1V33z"/>
<path fill="#6F6048" d="M84,33h1v1h-1V33z"/>
<path fill="#030303" d="M5,34h1v1H5V34z"/>
<path fill="#B19848" d="M6,34h1v1H6V34z"/>
<path fill="#E0C058" d="M7,34h1v1H7V34z"/>
<path fill="#030303" d="M16,34h1v1h-1V34z"/>
<path fill="#030303" d="M28,34h1v1h-1V34z"/>
<path fill="#B19848" d="M29,34h1v1h-1V34z"/>
<path fill="#E0C058" d="M30,34h1v1h-1V34z"/>
<path fill="#030303" d="M39,34h1v1h-1V34z"/>
<path fill="#030303" d="M51,34h1v1h-1V34z"/>
<path fill="#B19848" d="M52,34h1v1h-1V34z"/>
<path fill="#E0C058" d="M53,34h1v1h-1V34z"/>
<path fill="#030303" d="M62,34h1v1h-1V34z"/>
<path fill="#030303" d="M74,34h1v1h-1V34z"/>
<path fill="#B19848" d="M75,34h1v1h-1V34z"/>
<path fill="#E0C058" d="M76,34h1v1h-1V34z"/>
<path fill="#030303" d="M85,34h1v1h-1V34z"/>
<path fill="#030303" d="M4,35h1v1H4V35z"/>
<path fill="#E0C058" d="M6,35h1v1H6V35z"/>
<path fill="#B19848" d="M7,35h1v1H7V35z"/>
<path fill="#E0C058" d="M8,35h1v1h2v1h2v1h-1v1h-2v-1H8v-1H7v-1h1V35z"/>
<path fill="#030303" d="M17,35h1v1h-1V35z"/>
<path fill="#030303" d="M27,35h1v1h-1V35z"/>
<path fill="#E0C058" d="M29,35h1v1h-1V35z"/>
<path fill="#B19848" d="M30,35h1v1h-1V35z"/>
<path fill="#E0C058" d="M31,35h1v1h2v1h2v1h-1v1h-2v-1h-2v-1h-1v-1h1V35z"/>
<path fill="#030303" d="M40,35h1v1h-1V35z"/>
<path fill="#030303" d="M50,35h1v1h-1V35z"/>
<path fill="#E0C058" d="M52,35h1v1h-1V35z"/>
<path fill="#B19848" d="M53,35h1v1h-1V35z"/>
<path fill="#E0C058" d="M54,35h1v1h2v1h2v1h-1v1h-2v-1h-2v-1h-1v-1h1V35z"/>
<path fill="#030303" d="M63,35h1v1h-1V35z"/>
<path fill="#030303" d="M73,35h1v1h-1V35z"/>
<path fill="#E0C058" d="M75,35h1v1h-1V35z"/>
<path fill="#B19848" d="M76,35h1v1h-1V35z"/>
<path fill="#E0C058" d="M77,35h1v1h2v1h2v1h-1v1h-2v-1h-2v-1h-1v-1h1V35z"/>
<path fill="#030303" d="M86,35h1v1h-1V35z"/>
<path fill="#6F6048" d="M4,36h1v1H4V36z"/>
<path fill="#E0C058" d="M13,36h1v1h-1V36z"/>
<path fill="#6F6048" d="M17,36h1v1h-1V36z"/>
<path fill="#6F6048" d="M27,36h1v1h-1V36z"/>
<path fill="#E0C058" d="M36,36h1v1h-1V36z"/>
<path fill="#6F6048" d="M40,36h1v1h-1V36z"/>
<path fill="#6F6048" d="M50,36h1v1h-1V36z"/>
<path fill="#E0C058" d="M59,36h1v1h-1V36z"/>
<path fill="#6F6048" d="M63,36h1v1h-1V36z"/>
<path fill="#6F6048" d="M73,36h1v1h-1V36z"/>
<path fill="#E0C058" d="M82,36h1v1h-1V36z"/>
<path fill="#6F6048" d="M86,36h1v1h-1V36z"/>
<path fill="#030303" d="M3,37h1v5H3V37z"/>
<path fill="#030303" d="M18,37h1v4h-1V37z"/>
<path fill="#030303" d="M26,37h1v5h-1V37z"/>
<path fill="#030303" d="M41,37h1v4h-1V37z"/>
<path fill="#030303" d="M49,37h1v5h-1V37z"/>
<path fill="#030303" d="M64,37h1v4h-1V37z"/>
<path fill="#030303" d="M72,37h1v5h-1V37z"/>
<path fill="#030303" d="M87,37h1v4h-1V37z"/>
<path fill="#6F6048" d="M4,39h1v1h2v1H6v1h2v1h1v-1h2v-1h3v1h-1v2h-1v-1h-2v3H8v-1H6v-1H5v-2H4V39z"/>
<path fill="#6F6048" d="M7,39h1v1H7V39z"/>
<path fill="#6F6048" d="M16,39h2v1h-1v1h-3v-1h2V39z"/>
<path fill="#6F6048" d="M27,39h1v1h2v1h-1v1h2v1h1v-1h2v-1h3v1h-1v2h-1v-1h-2v3h-2v-1h-2v-1h-1v-2h-1V39z"/>
<path fill="#6F6048" d="M30,39h1v1h-1V39z"/>
<path fill="#6F6048" d="M39,39h2v1h-1v1h-3v-1h2V39z"/>
<path fill="#6F6048" d="M50,39h1v1h2v1h-1v1h2v1h1v-1h2v-1h3v1h-1v2h-1v-1h-2v3h-2v-1h-2v-1h-1v-2h-1V39z"/>
<path fill="#6F6048" d="M53,39h1v1h-1V39z"/>
<path fill="#6F6048" d="M62,39h2v1h-1v1h-3v-1h2V39z"/>
<path fill="#6F6048" d="M73,39h1v1h2v1h-1v1h2v1h1v-1h2v-1h3v1h-1v2h-1v-1h-2v3h-2v-1h-2v-1h-1v-2h-1V39z"/>
<path fill="#6F6048" d="M76,39h1v1h-1V39z"/>
<path fill="#6F6048" d="M85,39h2v1h-1v1h-3v-1h2V39z"/>
<path fill="#B19848" d="M17,40h1v1h-1V40z"/>
<path fill="#B19848" d="M40,40h1v1h-1V40z"/>
<path fill="#B19848" d="M63,40h1v1h-1V40z"/>
<path fill="#B19848" d="M86,40h1v1h-1V40z"/>
<path fill="#6F6048" d="M8,41h1v1H8V41z"/>
<path fill="#030303" d="M14,41h1v1h-1V41z"/>
<path fill="#F8D0B8" d="M15,41h2v4h-1v1h-2v-1h-1v-3h1v2h2v-2h-1V41z"/>
<path fill="#604840" d="M17,41h1v1h-1V41z"/>
<path fill="#6F6048" d="M31,41h1v1h-1V41z"/>
<path fill="#030303" d="M37,41h1v1h-1V41z"/>
<path fill="#F8D0B8" d="M38,41h2v4h-1v1h-2v-1h-1v-3h1v2h2v-2h-1V41z"/>
<path fill="#604840" d="M40,41h1v1h-1V41z"/>
<path fill="#6F6048" d="M54,41h1v1h-1V41z"/>
<path fill="#030303" d="M60,41h1v1h-1V41z"/>
<path fill="#F8D0B8" d="M61,41h2v4h-1v1h-2v-1h-1v-3h1v2h2v-2h-1V41z"/>
<path fill="#604840" d="M63,41h1v1h-1V41z"/>
<path fill="#6F6048" d="M77,41h1v1h-1V41z"/>
<path fill="#030303" d="M83,41h1v1h-1V41z"/>
<path fill="#F8D0B8" d="M84,41h2v4h-1v1h-2v-1h-1v-3h1v2h2v-2h-1V41z"/>
<path fill="#604840" d="M86,41h1v1h-1V41z"/>
<path fill="#030303" d="M4,42h1v2H4V42z"/>
<path fill="#B19848" d="M8,42h1v1H8V42z"/>
<path fill="#A8A0C8" d="M14,42h1v1h-1V42z"/>
<path fill="#6F6048" d="M15,42h1v1h-1V42z"/>
<path fill="#784040" d="M17,42h1v2h-1V42z"/>
<path fill="#030303" d="M27,42h1v2h-1V42z"/>
<path fill="#B19848" d="M31,42h1v1h-1V42z"/>
<path fill="#A8A0C8" d="M37,42h1v1h-1V42z"/>
<path fill="#6F6048" d="M38,42h1v1h-1V42z"/>
<path fill="#784040" d="M40,42h1v2h-1V42z"/>
<path fill="#030303" d="M50,42h1v2h-1V42z"/>
<path fill="#B19848" d="M54,42h1v1h-1V42z"/>
<path fill="#A8A0C8" d="M60,42h1v1h-1V42z"/>
<path fill="#6F6048" d="M61,42h1v1h-1V42z"/>
<path fill="#784040" d="M63,42h1v2h-1V42z"/>
<path fill="#030303" d="M73,42h1v2h-1V42z"/>
<path fill="#B19848" d="M77,42h1v1h-1V42z"/>
<path fill="#A8A0C8" d="M83,42h1v1h-1V42z"/>
<path fill="#6F6048" d="M84,42h1v1h-1V42z"/>
<path fill="#784040" d="M86,42h1v2h-1V42z"/>
<path fill="#D89870" d="M10,43h2v1h1v1h1v1h-1v1h-1v-1h-1v-1h-1V43z"/>
<path fill="#E8E8F8" d="M14,43h1v1h-1V43z"/>
<path fill="#030303" d="M15,43h1v1h-1V43z"/>
<path fill="#D89870" d="M33,43h2v1h1v1h1v1h-1v1h-1v-1h-1v-1h-1V43z"/>
<path fill="#E8E8F8" d="M37,43h1v1h-1V43z"/>
<path fill="#030303" d="M38,43h1v1h-1V43z"/>
<path fill="#D89870" d="M56,43h2v1h1v1h1v1h-1v1h-1v-1h-1v-1h-1V43z"/>
<path fill="#E8E8F8" d="M60,43h1v1h-1V43z"/>
<path fill="#030303" d="M61,43h1v1h-1V43z"/>
<path fill="#D89870" d="M79,43h2v1h1v1h1v1h-1v1h-1v-1h-1v-1h-1V43z"/>
<path fill="#E8E8F8" d="M83,43h1v1h-1V43z"/>
<path fill="#030303" d="M84,43h1v1h-1V43z"/>
<path fill="#030303" d="M5,44h1v1H5V44z"/>
<path fill="#D89870" d="M17,44h1v1h-1V44z"/>
<path fill="#030303" d="M28,44h1v1h-1V44z"/>
<path fill="#D89870" d="M40,44h1v1h-1V44z"/>
<path fill="#030303" d="M51,44h1v1h-1V44z"/>
<path fill="#D89870" d="M63,44h1v1h-1V44z"/>
<path fill="#030303" d="M74,44h1v1h-1V44z"/>
<path fill="#D89870" d="M86,44h1v1h-1V44z"/>
<path fill="#030303" d="M6,45h2v1H6V45z"/>
<path fill="#784040" d="M10,45h1v1h-1V45z"/>
<path fill="#784040" d="M16,45h1v1h-1V45z"/>
<path fill="#030303" d="M29,45h2v1h-2V45z"/>
<path fill="#784040" d="M33,45h1v1h-1V45z"/>
<path fill="#784040" d="M39,45h1v1h-1V45z"/>
<path fill="#030303" d="M52,45h2v1h-2V45z"/>
<path fill="#784040" d="M56,45h1v1h-1V45z"/>
<path fill="#784040" d="M62,45h1v1h-1V45z"/>
<path fill="#030303" d="M75,45h2v1h-2V45z"/>
<path fill="#784040" d="M79,45h1v1h-1V45z"/>
<path fill="#784040" d="M85,45h1v1h-1V45z"/>
<path fill="#030303" d="M8,46h4v1h-2v1H9v-1H8V46z"/>
<path fill="#784040" d="M13,46h3v1h-3V46z"/>
<path fill="#030303" d="M31,46h4v1h-2v1h-1v-1h-1V46z"/>
<path fill="#784040" d="M36,46h3v1h-3V46z"/>
<path fill="#030303" d="M54,46h4v1h-2v1h-1v-1h-1V46z"/>
<path fill="#784040" d="M59,46h3v1h-3V46z"/>
<path fill="#030303" d="M77,46h4v1h-2v2h-1v-2h-1V46z"/>
<path fill="#784040" d="M82,46h3v1h-3V46z"/>
<path fill="#604840" d="M10,47h2v1h-2V47z"/>
<path fill="#A8A080" d="M12,47h2v2h-1v-1h-1V47z"/>
<path fill="#030303" d="M14,47h1v1h-1V47z"/>
<path fill="#604840" d="M33,47h2v1h-2V47z"/>
<path fill="#A8A080" d="M35,47h2v2h-1v-1h-1V47z"/>
<path fill="#030303" d="M37,47h1v1h-1V47z"/>
<path fill="#604840" d="M56,47h2v1h-2V47z"/>
<path fill="#A8A080" d="M58,47h2v2h-1v-1h-1V47z"/>
<path fill="#030303" d="M60,47h1v1h-1V47z"/>
<path fill="#A8A080" d="M79,47h1v1h-1V47z"/>
<path fill="#604840" d="M80,47h2v1h-2V47z"/>
<path fill="#A8A080" d="M82,47h1v1h-1V47z"/>
<path fill="#030303" d="M83,47h1v1h-1V47z"/>
<path fill="#604840" d="M9,48h1v2H9V48z"/>
<path fill="#E0D8B8" d="M10,48h2v1h-1v1h-1V48z"/>
<path fill="#604840" d="M12,48h1v2h-1V48z"/>
<path fill="#604840" d="M14,48h2v1h-2V48z"/>
<path fill="#604840" d="M32,48h1v2h-1V48z"/>
<path fill="#E0D8B8" d="M33,48h2v1h-1v1h-1V48z"/>
<path fill="#604840" d="M35,48h1v2h-1V48z"/>
<path fill="#604840" d="M37,48h2v1h-2V48z"/>
<path fill="#604840" d="M55,48h1v2h-1V48z"/>
<path fill="#E0D8B8" d="M56,48h2v1h-1v1h-1V48z"/>
<path fill="#604840" d="M58,48h1v2h-1V48z"/>
<path fill="#604840" d="M60,48h2v1h-2V48z"/>
<path fill="#604840" d="M79,48h1v3h-1V48z"/>
<path fill="#E0D8B8" d="M80,48h2v1h-1v1h-1V48z"/>
<path fill="#604840" d="M82,48h1v2h-1V48z"/>
<path fill="#A8A080" d="M83,48h1v1h-1V48z"/>
<path fill="#604840" d="M84,48h1v1h-1V48z"/>
<path fill="#030303" d="M8,49h1v3H8V49z"/>
<path fill="#A8A080" d="M11,49h1v1h-1V49z"/>
<path fill="#E0D8B8" d="M13,49h2v2h-1v-1h-1V49z"/>
<path fill="#030303" d="M15,49h1v3h-1V49z"/>
<path fill="#030303" d="M31,49h1v3h-1V49z"/>
<path fill="#A8A080" d="M34,49h1v1h-1V49z"/>
<path fill="#E0D8B8" d="M36,49h2v2h-3v-1h1V49z"/>
<path fill="#030303" d="M38,49h1v4h-1V49z"/>
<path fill="#030303" d="M54,49h1v3h-1V49z"/>
<path fill="#A8A080" d="M57,49h1v1h-1V49z"/>
<path fill="#E0D8B8" d="M59,49h2v2h-1v-1h-1V49z"/>
<path fill="#030303" d="M61,49h1v3h-1V49z"/>
<path fill="#030303" d="M77,49h1v2h-1V49z"/>
<path fill="#A8A080" d="M78,49h1v1h-1V49z"/>
<path fill="#A8A080" d="M81,49h1v1h-1V49z"/>
<path fill="#E0D8B8" d="M83,49h1v1h-1V49z"/>
<path fill="#030303" d="M84,49h1v3h-1V49z"/>
<path fill="#485880" d="M9,50h1v2H9V50z"/>
<path fill="#A8A080" d="M10,50h1v1h-1V50z"/>
<path fill="#F8D0B8" d="M11,50h2v1h-2V50z"/>
<path fill="#784040" d="M13,50h1v2h-1V50z"/>
<path fill="#F8D0B8" d="M32,50h2v1h-2V50z"/>
<path fill="#784040" d="M34,50h1v2h-1V50z"/>
<path fill="#485880" d="M55,50h1v2h-1V50z"/>
<path fill="#A8A080" d="M56,50h1v1h-1V50z"/>
<path fill="#F8D0B8" d="M57,50h2v1h-2V50z"/>
<path fill="#784040" d="M59,50h1v2h-1V50z"/>
<path fill="#485880" d="M78,50h1v1h-1V50z"/>
<path fill="#A8A080" d="M80,50h1v1h-1V50z"/>
<path fill="#F8D0B8" d="M81,50h2v1h-2V50z"/>
<path fill="#784040" d="M83,50h1v2h-1V50z"/>
<path fill="#030303" d="M10,51h1v1h-1V51z"/>
<path fill="#D89870" d="M11,51h2v1h-2V51z"/>
<path fill="#485880" d="M14,51h1v1h-1V51z"/>
<path fill="#383850" d="M30,51h1v1h-1V51z"/>
<path fill="#D89870" d="M32,51h2v1h-2V51z"/>
<path fill="#485880" d="M35,51h3v1h-3V51z"/>
<path fill="#030303" d="M56,51h1v1h-1V51z"/>
<path fill="#D89870" d="M57,51h2v1h-2V51z"/>
<path fill="#485880" d="M60,51h1v1h-1V51z"/>
<path fill="#030303" d="M76,51h1v2h-1V51z"/>
<path fill="#485880" d="M77,51h1v1h-1V51z"/>
<path fill="#4088B8" d="M78,51h2v2h-1v1h-1v-1h-1v-1h1V51z"/>
<path fill="#030303" d="M80,51h1v1h-1V51z"/>
<path fill="#D89870" d="M81,51h2v1h-2V51z"/>
<path fill="#030303" d="M9,52h1v2H9V52z"/>
<path fill="#485880" d="M10,52h1v1h-1V52z"/>
<path fill="#030303" d="M11,52h2v1h-2V52z"/>
<path fill="#485880" d="M13,52h1v1h-1V52z"/>
<path fill="#030303" d="M14,52h1v2h-1V52z"/>
<path fill="#030303" d="M29,52h1v3h-1V52z"/>
<path fill="#604840" d="M30,52h1v2h1v1h-2V52z"/>
<path fill="#485880" d="M31,52h1v1h-1V52z"/>
<path fill="#030303" d="M32,52h2v1h-2V52z"/>
<path fill="#4088B8" d="M34,52h4v1h-2v1h-1v-1h-1V52z"/>
<path fill="#030303" d="M55,52h1v2h-1V52z"/>
<path fill="#485880" d="M56,52h1v1h-1V52z"/>
<path fill="#030303" d="M57,52h2v1h-2V52z"/>
<path fill="#485880" d="M59,52h1v1h-1V52z"/>
<path fill="#030303" d="M60,52h1v2h-1V52z"/>
<path fill="#485880" d="M80,52h1v2h-2v-1h1V52z"/>
<path fill="#030303" d="M81,52h2v1h-2V52z"/>
<path fill="#383850" d="M83,52h1v1h-1V52z"/>
<path fill="#604840" d="M84,52h1v2h-3v-1h2V52z"/>
<path fill="#030303" d="M85,52h1v2h-1V52z"/>
<path fill="#A07850" d="M10,53h4v1h-4V53z"/>
<path fill="#030303" d="M31,53h1v1h-1V53z"/>
<path fill="#485880" d="M32,53h3v1h-3V53z"/>
<path fill="#485880" d="M36,53h1v1h-1V53z"/>
<path fill="#030303" d="M37,53h1v1h-1V53z"/>
<path fill="#A07850" d="M38,53h2v1h-1v1h-3v-1h2V53z"/>
<path fill="#A07850" d="M56,53h4v1h-4V53z"/>
<path fill="#030303" d="M75,53h1v2h-1V53z"/>
<path fill="#A07850" d="M76,53h1v1h2v1h-3V53z"/>
<path fill="#604840" d="M77,53h1v1h-1V53z"/>
<path fill="#383850" d="M81,53h1v1h-1V53z"/>
<path fill="#030303" d="M10,54h4v1h-4V54z"/>
<path fill="#030303" d="M32,54h1v1h-1V54z"/>
<path fill="#030303" d="M34,54h2v1h-2V54z"/>
<path fill="#030303" d="M39,54h1v1h-1V54z"/>
<path fill="#030303" d="M56,54h4v1h-4V54z"/>
<path fill="#030303" d="M79,54h1v1h-1V54z"/>
<path fill="#030303" d="M82,54h3v1h-3V54z"/>
<path fill="#030303" d="M30,55h2v1h-2V55z"/>
<path fill="#030303" d="M36,55h3v1h-3V55z"/>
<path fill="#030303" d="M76,55h3v1h-3V55z"/>
<path fill="#6F6048" d="M9,60h5v1H9V60z"/>
<path fill="#6F6048" d="M32,60h5v1h-5V60z"/>
<path fill="#6F6048" d="M55,60h5v1h-5V60z"/>
<path fill="#6F6048" d="M78,60h5v1h-5V60z"/>
<path fill="#6F6048" d="M7,61h2v1H7V61z"/>
<path fill="#E0C058" d="M9,61h1v1H9V61z"/>
<path fill="#B19848" d="M10,61h3v1h3v1h1v2h1v3h-1v1h-1v1h-2v1H9v-1H7v-1H6v-1H5v-3h1v-2h1v2h1v1h2v-1H9v-3h1V61z"/>
<path fill="#E0C058" d="M13,61h1v1h-1V61z"/>
<path fill="#6F6048" d="M14,61h2v1h-2V61z"/>
<path fill="#6F6048" d="M30,61h2v1h-2V61z"/>
<path fill="#E0C058" d="M32,61h1v1h-1V61z"/>
<path fill="#B19848" d="M33,61h3v1h3v1h1v2h1v3h-1v1h-1v1h-2v1h-5v-1h-2v-1h-1v-1h-1v-3h1v-2h1v2h1v1h2v-1h-1v-3h1V61z"/>
<path fill="#E0C058" d="M36,61h1v1h-1V61z"/>
<path fill="#6F6048" d="M37,61h2v1h-2V61z"/>
<path fill="#6F6048" d="M53,61h2v1h-2V61z"/>
<path fill="#E0C058" d="M55,61h1v1h-1V61z"/>
<path fill="#B19848" d="M56,61h3v1h3v1h1v2h1v3h-1v1h-1v1h-2v1h-5v-1h-2v-1h-1v-1h-1v-3h1v-2h1v2h1v1h2v-1h-1v-3h1V61z"/>
<path fill="#E0C058" d="M59,61h1v1h-1V61z"/>
<path fill="#6F6048" d="M60,61h2v1h-2V61z"/>
<path fill="#6F6048" d="M76,61h2v1h-2V61z"/>
<path fill="#E0C058" d="M78,61h1v1h-1V61z"/>
<path fill="#B19848" d="M79,61h3v1h3v1h1v2h1v3h-1v1h-1v1h-2v1h-5v-1h-2v-1h-1v-1h-1v-3h1v-2h1v2h1v1h2v-1h-1v-3h1V61z"/>
<path fill="#E0C058" d="M82,61h1v1h-1V61z"/>
<path fill="#6F6048" d="M83,61h2v1h-2V61z"/>
<path fill="#030303" d="M6,62h1v1H6V62z"/>
<path fill="#B19848" d="M7,62h1v1H7V62z"/>
<path fill="#E0C058" d="M8,62h1v3h1v1H8v-1H7v-2h1V62z"/>
<path fill="#6F6048" d="M11,62h1v1h1v1h-1v1h-1v-1h-1v-1h1V62z"/>
<path fill="#030303" d="M16,62h1v1h-1V62z"/>
<path fill="#030303" d="M29,62h1v1h-1V62z"/>
<path fill="#B19848" d="M30,62h1v1h-1V62z"/>
<path fill="#E0C058" d="M31,62h1v3h1v1h-2v-1h-1v-2h1V62z"/>
<path fill="#6F6048" d="M34,62h1v1h1v1h-1v1h-1v-1h-1v-1h1V62z"/>
<path fill="#030303" d="M39,62h1v1h-1V62z"/>
<path fill="#030303" d="M52,62h1v1h-1V62z"/>
<path fill="#B19848" d="M53,62h1v1h-1V62z"/>
<path fill="#E0C058" d="M54,62h1v3h1v1h-2v-1h-1v-2h1V62z"/>
<path fill="#6F6048" d="M57,62h1v1h1v1h-1v1h-1v-1h-1v-1h1V62z"/>
<path fill="#030303" d="M62,62h1v1h-1V62z"/>
<path fill="#030303" d="M75,62h1v1h-1V62z"/>
<path fill="#B19848" d="M76,62h1v1h-1V62z"/>
<path fill="#E0C058" d="M77,62h1v3h1v1h-2v-1h-1v-2h1V62z"/>
<path fill="#6F6048" d="M80,62h1v1h1v1h-1v1h-1v-1h-1v-1h1V62z"/>
<path fill="#030303" d="M85,62h1v1h-1V62z"/>
<path fill="#030303" d="M5,63h1v1H5V63z"/>
<path fill="#E0C058" d="M14,63h1v2h-1V63z"/>
<path fill="#030303" d="M17,63h1v1h-1V63z"/>
<path fill="#030303" d="M28,63h1v1h-1V63z"/>
<path fill="#E0C058" d="M37,63h1v2h-1V63z"/>
<path fill="#030303" d="M40,63h1v1h-1V63z"/>
<path fill="#030303" d="M51,63h1v1h-1V63z"/>
<path fill="#E0C058" d="M60,63h1v2h-1V63z"/>
<path fill="#030303" d="M63,63h1v1h-1V63z"/>
<path fill="#030303" d="M74,63h1v1h-1V63z"/>
<path fill="#E0C058" d="M83,63h1v2h-1V63z"/>
<path fill="#030303" d="M86,63h1v1h-1V63z"/>
<path fill="#6F6048" d="M5,64h1v1H5V64z"/>
<path fill="#6F6048" d="M17,64h1v1h-1V64z"/>
<path fill="#6F6048" d="M28,64h1v1h-1V64z"/>
<path fill="#6F6048" d="M40,64h1v1h-1V64z"/>
<path fill="#6F6048" d="M51,64h1v1h-1V64z"/>
<path fill="#6F6048" d="M63,64h1v1h-1V64z"/>
<path fill="#6F6048" d="M74,64h1v1h-1V64z"/>
<path fill="#6F6048" d="M86,64h1v1h-1V64z"/>
<path fill="#030303" d="M4,65h1v3H4V65z"/>
<path fill="#E0C058" d="M13,65h1v1h-1V65z"/>
<path fill="#030303" d="M18,65h1v3h-1V65z"/>
<path fill="#030303" d="M27,65h1v3h-1V65z"/>
<path fill="#E0C058" d="M36,65h1v1h-1V65z"/>
<path fill="#030303" d="M41,65h1v3h-1V65z"/>
<path fill="#030303" d="M50,65h1v3h-1V65z"/>
<path fill="#E0C058" d="M59,65h1v1h-1V65z"/>
<path fill="#030303" d="M64,65h1v3h-1V65z"/>
<path fill="#030303" d="M73,65h1v3h-1V65z"/>
<path fill="#E0C058" d="M82,65h1v1h-1V65z"/>
<path fill="#030303" d="M87,65h1v3h-1V65z"/>
<path fill="#E0C058" d="M10,66h2v1h-2V66z"/>
<path fill="#E0C058" d="M33,66h2v1h-2V66z"/>
<path fill="#E0C058" d="M56,66h2v1h-2V66z"/>
<path fill="#E0C058" d="M79,66h2v1h-2V66z"/>
<path fill="#030303" d="M3,68h1v2H3V68z"/>
<path fill="#D89870" d="M4,68h1v2H4V68z"/>
<path fill="#6F6048" d="M5,68h1v1h1v1h2v1h5v-1h2v-1h1v-1h1v3h-1v2h-1v1h-2v1H9v-1H7v-1H6v-2H5V68z"/>
<path fill="#D89870" d="M18,68h1v2h-1V68z"/>
<path fill="#030303" d="M19,68h1v2h-1V68z"/>
<path fill="#030303" d="M26,68h1v2h-1V68z"/>
<path fill="#D89870" d="M27,68h1v2h-1V68z"/>
<path fill="#6F6048" d="M28,68h1v1h1v1h2v1h5v-1h2v-1h1v-1h1v3h-1v2h-1v1h-2v1h-5v-1h-2v-1h-1v-2h-1V68z"/>
<path fill="#D89870" d="M41,68h1v2h-1V68z"/>
<path fill="#030303" d="M42,68h1v2h-1V68z"/>
<path fill="#030303" d="M49,68h1v2h-1V68z"/>
<path fill="#D89870" d="M50,68h1v2h-1V68z"/>
<path fill="#6F6048" d="M51,68h1v1h1v1h2v1h5v-1h2v-1h1v-1h1v3h-1v2h-1v1h-2v1h-5v-1h-2v-1h-1v-2h-1V68z"/>
<path fill="#D89870" d="M64,68h1v2h-1V68z"/>
<path fill="#030303" d="M65,68h1v2h-1V68z"/>
<path fill="#030303" d="M72,68h1v2h-1V68z"/>
<path fill="#D89870" d="M73,68h1v2h-1V68z"/>
<path fill="#6F6048" d="M74,68h1v1h1v1h2v1h5v-1h2v-1h1v-1h1v3h-1v2h-1v1h-2v1h-5v-1h-2v-1h-1v-2h-1V68z"/>
<path fill="#D89870" d="M87,68h1v2h-1V68z"/>
<path fill="#030303" d="M88,68h1v2h-1V68z"/>
<path fill="#030303" d="M4,70h1v1H4V70z"/>
<path fill="#030303" d="M18,70h1v1h-1V70z"/>
<path fill="#030303" d="M27,70h1v1h-1V70z"/>
<path fill="#030303" d="M41,70h1v1h-1V70z"/>
<path fill="#030303" d="M50,70h1v1h-1V70z"/>
<path fill="#030303" d="M64,70h1v1h-1V70z"/>
<path fill="#030303" d="M73,70h1v1h-1V70z"/>
<path fill="#030303" d="M87,70h1v1h-1V70z"/>
<path fill="#030303" d="M5,71h1v2H5V71z"/>
<path fill="#030303" d="M17,71h1v2h-1V71z"/>
<path fill="#030303" d="M28,71h1v2h-1V71z"/>
<path fill="#030303" d="M40,71h1v2h-1V71z"/>
<path fill="#030303" d="M51,71h1v2h-1V71z"/>
<path fill="#030303" d="M63,71h1v2h-1V71z"/>
<path fill="#030303" d="M74,71h1v2h-1V71z"/>
<path fill="#030303" d="M86,71h1v2h-1V71z"/>
<path fill="#030303" d="M6,73h1v1H6V73z"/>
<path fill="#030303" d="M16,73h1v1h-1V73z"/>
<path fill="#030303" d="M29,73h1v1h-1V73z"/>
<path fill="#030303" d="M39,73h1v1h-1V73z"/>
<path fill="#030303" d="M52,73h1v1h-1V73z"/>
<path fill="#030303" d="M62,73h1v1h-1V73z"/>
<path fill="#030303" d="M75,73h1v1h-1V73z"/>
<path fill="#030303" d="M85,73h1v1h-1V73z"/>
<path fill="#604840" d="M6,74h1v1H6V74z"/>
<path fill="#030303" d="M7,74h2v1h5v-1h2v1h-1v1H8v-1H7V74z"/>
<path fill="#604840" d="M16,74h1v1h-1V74z"/>
<path fill="#604840" d="M27,74h3v1h-3V74z"/>
<path fill="#030303" d="M30,74h2v1h5v-1h2v1h-1v1h-7v-1h-1V74z"/>
<path fill="#604840" d="M39,74h1v2h-1V74z"/>
<path fill="#604840" d="M52,74h1v1h-1V74z"/>
<path fill="#030303" d="M53,74h2v1h5v-1h2v1h-1v1h-7v-1h-1V74z"/>
<path fill="#604840" d="M62,74h1v1h-1V74z"/>
<path fill="#604840" d="M75,74h1v2h-1V74z"/>
<path fill="#030303" d="M76,74h2v1h5v-1h2v1h-1v1h-7v-1h-1V74z"/>
<path fill="#604840" d="M85,74h3v1h-3V74z"/>
<path fill="#604840" d="M5,75h1v1H5V75z"/>
<path fill="#A8A080" d="M6,75h2v2H7v-1H6V75z"/>
<path fill="#A8A080" d="M15,75h2v1h-1v1h-1V75z"/>
<path fill="#604840" d="M17,75h1v1h-1V75z"/>
<path fill="#784040" d="M26,75h1v2h-1V75z"/>
<path fill="#D89870" d="M27,75h1v2h-1V75z"/>
<path fill="#A8A080" d="M28,75h3v2h-1v1h-1v-1h-1V75z"/>
<path fill="#A8A080" d="M38,75h1v1h-1V75z"/>
<path fill="#604840" d="M51,75h1v1h-1V75z"/>
<path fill="#A8A080" d="M52,75h2v2h-1v-1h-1V75z"/>
<path fill="#A8A080" d="M61,75h2v1h-1v1h-1V75z"/>
<path fill="#604840" d="M63,75h1v1h-1V75z"/>
<path fill="#A8A080" d="M76,75h1v1h-1V75z"/>
<path fill="#A8A080" d="M84,75h3v2h-1v1h-1v-1h-1V75z"/>
<path fill="#D89870" d="M87,75h1v2h-1V75z"/>
<path fill="#784040" d="M88,75h1v2h-1V75z"/>
<path fill="#604840" d="M4,76h1v1H4V76z"/>
<path fill="#E0D8B8" d="M5,76h2v2H5V76z"/>
<path fill="#604840" d="M8,76h1v1H8V76z"/>
<path fill="#A8A080" d="M9,76h5v1h-1v1h-3v-1H9V76z"/>
<path fill="#604840" d="M14,76h1v1h-1V76z"/>
<path fill="#E0D8B8" d="M16,76h2v2h-2V76z"/>
<path fill="#604840" d="M18,76h1v1h-1V76z"/>
<path fill="#604840" d="M31,76h1v1h-1V76z"/>
<path fill="#A8A080" d="M32,76h5v1h-1v1h-3v-1h-1V76z"/>
<path fill="#604840" d="M37,76h1v1h-1V76z"/>
<path fill="#E0D8B8" d="M38,76h2v1h-1v1h-1V76z"/>
<path fill="#604840" d="M40,76h1v2h-1V76z"/>
<path fill="#604840" d="M50,76h1v1h-1V76z"/>
<path fill="#E0D8B8" d="M51,76h2v2h-2V76z"/>
<path fill="#604840" d="M54,76h1v1h-1V76z"/>
<path fill="#A8A080" d="M55,76h5v1h-1v1h-3v-1h-1V76z"/>
<path fill="#604840" d="M60,76h1v1h-1V76z"/>
<path fill="#E0D8B8" d="M62,76h2v2h-2V76z"/>
<path fill="#604840" d="M64,76h1v1h-1V76z"/>
<path fill="#604840" d="M74,76h1v2h-1V76z"/>
<path fill="#E0D8B8" d="M75,76h2v2h-1v-1h-1V76z"/>
<path fill="#604840" d="M77,76h1v1h-1V76z"/>
<path fill="#A8A080" d="M78,76h5v1h-1v1h-3v-1h-1V76z"/>
<path fill="#604840" d="M83,76h1v1h-1V76z"/>
<path fill="#784040" d="M3,77h1v2H3V77z"/>
<path fill="#D89870" d="M4,77h1v1h1v1H4V77z"/>
<path fill="#030303" d="M7,77h1v2H7V77z"/>
<path fill="#A8A080" d="M8,77h1v1H8V77z"/>
<path fill="#E0D8B8" d="M9,77h1v1h3v-1h1v1h1v1h-1v1H9v-1H8v-1h1V77z"/>
<path fill="#A8A080" d="M14,77h1v1h-1V77z"/>
<path fill="#030303" d="M15,77h1v2h-1V77z"/>
<path fill="#D89870" d="M18,77h1v2h-2v-1h1V77z"/>
<path fill="#784040" d="M19,77h1v2h-1V77z"/>
<path fill="#784040" d="M27,77h2v1h-2V77z"/>
<path fill="#030303" d="M30,77h1v2h-1V77z"/>
<path fill="#A8A080" d="M31,77h1v1h-1V77z"/>
<path fill="#E0D8B8" d="M32,77h1v1h3v-1h1v2h-1v1h-3v-1h-2v-1h1V77z"/>
<path fill="#030303" d="M37,77h1v2h-1V77z"/>
<path fill="#A8A080" d="M39,77h1v1h-1V77z"/>
<path fill="#784040" d="M49,77h1v2h-1V77z"/>
<path fill="#D89870" d="M50,77h1v1h1v1h-2V77z"/>
<path fill="#030303" d="M53,77h1v2h-1V77z"/>
<path fill="#A8A080" d="M54,77h1v1h-1V77z"/>
<path fill="#E0D8B8" d="M55,77h1v1h3v-1h1v1h1v1h-1v1h-5v-1h-1v-1h1V77z"/>
<path fill="#A8A080" d="M60,77h1v1h-1V77z"/>
<path fill="#030303" d="M61,77h1v2h-1V77z"/>
<path fill="#D89870" d="M64,77h1v2h-2v-1h1V77z"/>
<path fill="#784040" d="M65,77h1v2h-1V77z"/>
<path fill="#A8A080" d="M75,77h1v1h-1V77z"/>
<path fill="#030303" d="M77,77h1v2h-1V77z"/>
<path fill="#E0D8B8" d="M78,77h1v1h3v-1h1v1h1v1h-2v1h-3v-1h-1V77z"/>
<path fill="#A8A080" d="M83,77h1v1h-1V77z"/>
<path fill="#030303" d="M84,77h1v2h-1V77z"/>
<path fill="#784040" d="M86,77h2v1h-2V77z"/>
<path fill="#784040" d="M6,78h1v1H6V78z"/>
<path fill="#784040" d="M16,78h1v1h-1V78z"/>
<path fill="#784040" d="M29,78h1v1h-1V78z"/>
<path fill="#A8A080" d="M38,78h1v1h-1V78z"/>
<path fill="#F8D0B8" d="M39,78h2v1h-2V78z"/>
<path fill="#784040" d="M41,78h1v2h-1V78z"/>
<path fill="#784040" d="M52,78h1v1h-1V78z"/>
<path fill="#784040" d="M62,78h1v1h-1V78z"/>
<path fill="#784040" d="M73,78h1v2h-1V78z"/>
<path fill="#F8D0B8" d="M74,78h2v1h-2V78z"/>
<path fill="#A8A080" d="M76,78h1v1h-1V78z"/>
<path fill="#784040" d="M85,78h1v1h-1V78z"/>
<path fill="#784040" d="M4,79h2v1H4V79z"/>
<path fill="#030303" d="M6,79h1v2h1v1H7v1H6V79z"/>
<path fill="#485880" d="M7,79h2v1H7V79z"/>
<path fill="#485880" d="M14,79h2v1h-2V79z"/>
<path fill="#030303" d="M16,79h1v4h-1v-1h-1v-1h1V79z"/>
<path fill="#784040" d="M17,79h2v1h-2V79z"/>
<path fill="#030303" d="M29,79h1v4h-1V79z"/>
<path fill="#485880" d="M30,79h2v1h-2V79z"/>
<path fill="#A8A080" d="M32,79h1v1h-1V79z"/>
<path fill="#A8A080" d="M36,79h1v1h-1V79z"/>
<path fill="#485880" d="M37,79h1v2h-1v1h-3v-1h-2v-1h5V79z"/>
<path fill="#030303" d="M38,79h1v1h-1V79z"/>
<path fill="#D89870" d="M39,79h2v1h-2V79z"/>
<path fill="#784040" d="M50,79h2v1h-2V79z"/>
<path fill="#030303" d="M52,79h1v2h1v1h-1v1h-1V79z"/>
<path fill="#485880" d="M53,79h2v1h-2V79z"/>
<path fill="#485880" d="M60,79h2v1h-2V79z"/>
<path fill="#030303" d="M62,79h1v4h-1v-1h-1v-1h1V79z"/>
<path fill="#784040" d="M63,79h2v1h-2V79z"/>
<path fill="#D89870" d="M74,79h2v1h-2V79z"/>
<path fill="#030303" d="M76,79h1v1h-1V79z"/>
<path fill="#485880" d="M77,79h1v1h5v1h-2v1h-3v-1h-1V79z"/>
<path fill="#A8A080" d="M78,79h1v1h-1V79z"/>
<path fill="#A8A080" d="M82,79h1v1h-1V79z"/>
<path fill="#485880" d="M83,79h2v1h-2V79z"/>
<path fill="#030303" d="M85,79h1v4h-1V79z"/>
<path fill="#4088B8" d="M7,80h2v1H7V80z"/>
<path fill="#485880" d="M9,80h5v1h-2v1h-1v-1H9V80z"/>
<path fill="#4088B8" d="M14,80h2v1h-2V80z"/>
<path fill="#4088B8" d="M30,80h2v1h2v1h-1v1h-2v-1h-1V80z"/>
<path fill="#383850" d="M38,80h1v1h-1V80z"/>
<path fill="#030303" d="M39,80h2v1h-2V80z"/>
<path fill="#4088B8" d="M53,80h2v1h-2V80z"/>
<path fill="#485880" d="M55,80h5v1h-2v1h-1v-1h-2V80z"/>
<path fill="#4088B8" d="M60,80h2v1h-2V80z"/>
<path fill="#030303" d="M74,80h2v1h-2V80z"/>
<path fill="#383850" d="M76,80h1v1h-1V80z"/>
<path fill="#4088B8" d="M83,80h2v2h-1v1h-2v-1h-1v-1h2V80z"/>
<path fill="#485880" d="M8,81h1v1H8V81z"/>
<path fill="#4088B8" d="M9,81h2v1H9V81z"/>
<path fill="#4088B8" d="M12,81h2v1h-2V81z"/>
<path fill="#485880" d="M14,81h1v1h-1V81z"/>
<path fill="#030303" d="M37,81h2v1h-2V81z"/>
<path fill="#485880" d="M54,81h1v1h-1V81z"/>
<path fill="#4088B8" d="M55,81h2v1h-2V81z"/>
<path fill="#4088B8" d="M58,81h2v1h-2V81z"/>
<path fill="#485880" d="M60,81h1v1h-1V81z"/>
<path fill="#030303" d="M76,81h2v1h-2V81z"/>
<path fill="#A07850" d="M7,82h2v1H7V82z"/>
<path fill="#030303" d="M9,82h1v1H9V82z"/>
<path fill="#383850" d="M10,82h3v1h-3V82z"/>
<path fill="#030303" d="M13,82h1v1h-1V82z"/>
<path fill="#A07850" d="M14,82h2v1h-2V82z"/>
<path fill="#485880" d="M30,82h1v1h-1V82z"/>
<path fill="#485880" d="M33,82h1v1h-1V82z"/>
<path fill="#030303" d="M34,82h3v1h-3V82z"/>
<path fill="#A07850" d="M53,82h2v1h-2V82z"/>
<path fill="#030303" d="M55,82h1v1h-1V82z"/>
<path fill="#383850" d="M56,82h3v1h-3V82z"/>
<path fill="#030303" d="M59,82h1v1h-1V82z"/>
<path fill="#A07850" d="M60,82h2v1h-2V82z"/>
<path fill="#030303" d="M78,82h3v1h-3V82z"/>
<path fill="#485880" d="M81,82h1v1h-1V82z"/>
<path fill="#485880" d="M84,82h1v1h-1V82z"/>
<path fill="#030303" d="M7,83h2v1H7V83z"/>
<path fill="#030303" d="M14,83h2v1h-2V83z"/>
<path fill="#030303" d="M30,83h1v2h-1V83z"/>
<path fill="#485880" d="M31,83h2v1h-2V83z"/>
<path fill="#030303" d="M33,83h1v2h-1V83z"/>
<path fill="#030303" d="M53,83h2v1h-2V83z"/>
<path fill="#030303" d="M60,83h2v1h-2V83z"/>
<path fill="#030303" d="M81,83h1v2h-1V83z"/>
<path fill="#485880" d="M82,83h2v1h-2V83z"/>
<path fill="#030303" d="M84,83h1v2h-1V83z"/>
<path fill="#A07850" d="M31,84h2v1h-2V84z"/>
<path fill="#A07850" d="M82,84h2v1h-2V84z"/>
<path fill="#030303" d="M31,85h2v1h-2V85z"/>
<path fill="#030303" d="M82,85h2v1h-2V85z"/>
<path fill="#6F6048" d="M10,89h4v1h-4V89z"/>
<path fill="#6F6048" d="M33,89h4v1h-4V89z"/>
<path fill="#6F6048" d="M56,89h4v1h-4V89z"/>
<path fill="#6F6048" d="M79,89h4v1h-4V89z"/>
<path fill="#6F6048" d="M8,90h2v1H8V90z"/>
<path fill="#B19848" d="M10,90h4v1h2v1h-1v1h-1v1h-2v1h-2v-1H9v1h1v1h1v1h2v-1h2v-1h1v-1h1v-1h1v2h1v2h-1v1h-2v1h1v1h-2v-1h-1v1h-2
	v-1H9v-1H7v-1H5v-2h1v-2h1v-1h1v-1h2V90z"/>
<path fill="#6F6048" d="M14,90h2v1h-2V90z"/>
<path fill="#6F6048" d="M31,90h2v1h-2V90z"/>
<path fill="#B19848" d="M33,90h4v1h2v1h-1v1h-1v1h-2v1h-2v-1h-1v1h1v1h1v1h2v-1h2v-1h1v-1h1v-1h1v2h1v2h-1v1h-2v1h1v1h-2v-1h-1v1h-2
	v-1h-3v-1h-2v-1h-2v-2h1v-2h1v-1h1v-1h2V90z"/>
<path fill="#6F6048" d="M37,90h2v1h-2V90z"/>
<path fill="#6F6048" d="M54,90h2v1h-2V90z"/>
<path fill="#B19848" d="M56,90h4v1h2v1h-1v1h-1v1h-2v1h-2v-1h-1v1h1v1h1v1h2v-1h2v-1h1v-1h1v-1h1v2h1v2h-1v1h-2v1h1v1h-2v-1h-1v1h-2
	v-1h-3v-1h-2v-1h-2v-2h1v-2h1v-1h1v-1h2V90z"/>
<path fill="#6F6048" d="M60,90h2v1h-2V90z"/>
<path fill="#6F6048" d="M77,90h2v1h-2V90z"/>
<path fill="#B19848" d="M79,90h4v1h2v1h-1v1h-1v1h-2v1h-2v-1h-1v1h1v1h1v1h2v-1h2v-1h1v-1h1v-1h1v2h1v2h-1v1h-2v1h1v1h-2v-1h-1v1h-2
	v-1h-3v-1h-2v-1h-2v-2h1v-2h1v-1h1v-1h2V90z"/>
<path fill="#6F6048" d="M83,90h2v1h-2V90z"/>
<path fill="#6F6048" d="M7,91h1v1H7V91z"/>
<path fill="#6F6048" d="M16,91h1v1h-1V91z"/>
<path fill="#6F6048" d="M30,91h1v1h-1V91z"/>
<path fill="#6F6048" d="M39,91h1v1h-1V91z"/>
<path fill="#6F6048" d="M53,91h1v1h-1V91z"/>
<path fill="#6F6048" d="M62,91h1v1h-1V91z"/>
<path fill="#6F6048" d="M76,91h1v1h-1V91z"/>
<path fill="#6F6048" d="M85,91h1v1h-1V91z"/>
<path fill="#030303" d="M6,92h1v1H6V92z"/>
<path fill="#E0C058" d="M15,92h1v1h-1V92z"/>
<path fill="#B19848" d="M16,92h1v1h-1V92z"/>
<path fill="#030303" d="M17,92h1v1h-1V92z"/>
<path fill="#030303" d="M29,92h1v1h-1V92z"/>
<path fill="#E0C058" d="M38,92h1v1h-1V92z"/>
<path fill="#B19848" d="M39,92h1v1h-1V92z"/>
<path fill="#030303" d="M40,92h1v1h-1V92z"/>
<path fill="#030303" d="M52,92h1v1h-1V92z"/>
<path fill="#E0C058" d="M61,92h1v1h-1V92z"/>
<path fill="#B19848" d="M62,92h1v1h-1V92z"/>
<path fill="#030303" d="M63,92h1v1h-1V92z"/>
<path fill="#030303" d="M75,92h1v1h-1V92z"/>
<path fill="#E0C058" d="M84,92h1v1h-1V92z"/>
<path fill="#B19848" d="M85,92h1v1h-1V92z"/>
<path fill="#030303" d="M86,92h1v1h-1V92z"/>
<path fill="#030303" d="M5,93h1v1H5V93z"/>
<path fill="#E0C058" d="M14,93h1v1h1v1h-1v1h-2v1h-2v-1h-1v-1h2v-1h2V93z"/>
<path fill="#B19848" d="M15,93h1v1h-1V93z"/>
<path fill="#E0C058" d="M16,93h1v1h-1V93z"/>
<path fill="#030303" d="M18,93h1v1h-1V93z"/>
<path fill="#030303" d="M28,93h1v1h-1V93z"/>
<path fill="#E0C058" d="M37,93h1v1h1v1h-1v1h-2v1h-2v-1h-1v-1h2v-1h2V93z"/>
<path fill="#B19848" d="M38,93h1v1h-1V93z"/>
<path fill="#E0C058" d="M39,93h1v1h-1V93z"/>
<path fill="#030303" d="M41,93h1v1h-1V93z"/>
<path fill="#030303" d="M51,93h1v1h-1V93z"/>
<path fill="#E0C058" d="M60,93h1v1h1v1h-1v1h-2v1h-2v-1h-1v-1h2v-1h2V93z"/>
<path fill="#B19848" d="M61,93h1v1h-1V93z"/>
<path fill="#E0C058" d="M62,93h1v1h-1V93z"/>
<path fill="#030303" d="M64,93h1v1h-1V93z"/>
<path fill="#030303" d="M74,93h1v1h-1V93z"/>
<path fill="#E0C058" d="M83,93h1v1h1v1h-1v1h-2v1h-2v-1h-1v-1h2v-1h2V93z"/>
<path fill="#B19848" d="M84,93h1v1h-1V93z"/>
<path fill="#E0C058" d="M85,93h1v1h-1V93z"/>
<path fill="#030303" d="M87,93h1v1h-1V93z"/>
<path fill="#6F6048" d="M5,94h1v1H5V94z"/>
<path fill="#E0C058" d="M9,94h1v1H9V94z"/>
<path fill="#6F6048" d="M18,94h1v1h-1V94z"/>
<path fill="#6F6048" d="M28,94h1v1h-1V94z"/>
<path fill="#E0C058" d="M32,94h1v1h-1V94z"/>
<path fill="#6F6048" d="M41,94h1v1h-1V94z"/>
<path fill="#6F6048" d="M51,94h1v1h-1V94z"/>
<path fill="#E0C058" d="M55,94h1v1h-1V94z"/>
<path fill="#6F6048" d="M64,94h1v1h-1V94z"/>
<path fill="#6F6048" d="M74,94h1v1h-1V94z"/>
<path fill="#E0C058" d="M78,94h1v1h-1V94z"/>
<path fill="#6F6048" d="M87,94h1v1h-1V94z"/>
<path fill="#030303" d="M4,95h1v4H4V95z"/>
<path fill="#030303" d="M19,95h1v5h-1V95z"/>
<path fill="#030303" d="M27,95h1v4h-1V95z"/>
<path fill="#030303" d="M42,95h1v5h-1V95z"/>
<path fill="#030303" d="M50,95h1v4h-1V95z"/>
<path fill="#030303" d="M65,95h1v5h-1V95z"/>
<path fill="#030303" d="M73,95h1v4h-1V95z"/>
<path fill="#030303" d="M88,95h1v5h-1V95z"/>
<path fill="#6F6048" d="M5,97h2v1h2v1H6v-1H5V97z"/>
<path fill="#6F6048" d="M15,97h1v1h-1V97z"/>
<path fill="#6F6048" d="M18,97h1v3h-1v2h-1v1h-2v1h-2v-3h-2v1h-1v-2H9v-1h3v1h2v1h1v-1h2v-1h-1v-1h2V97z"/>
<path fill="#6F6048" d="M28,97h2v1h2v1h-3v-1h-1V97z"/>
<path fill="#6F6048" d="M38,97h1v1h-1V97z"/>
<path fill="#6F6048" d="M41,97h1v3h-1v2h-1v1h-2v1h-2v-3h-2v1h-1v-2h-1v-1h3v1h2v1h1v-1h2v-1h-1v-1h2V97z"/>
<path fill="#6F6048" d="M51,97h2v1h2v1h-3v-1h-1V97z"/>
<path fill="#6F6048" d="M61,97h1v1h-1V97z"/>
<path fill="#6F6048" d="M64,97h1v3h-1v2h-1v1h-2v1h-2v-3h-2v1h-1v-2h-1v-1h3v1h2v1h1v-1h2v-1h-1v-1h2V97z"/>
<path fill="#6F6048" d="M74,97h2v1h2v1h-3v-1h-1V97z"/>
<path fill="#6F6048" d="M84,97h1v1h-1V97z"/>
<path fill="#6F6048" d="M87,97h1v3h-1v2h-1v1h-2v1h-2v-3h-2v1h-1v-2h-1v-1h3v1h2v1h1v-1h2v-1h-1v-1h2V97z"/>
<path fill="#B19848" d="M5,98h1v1H5V98z"/>
<path fill="#B19848" d="M28,98h1v1h-1V98z"/>
<path fill="#B19848" d="M51,98h1v1h-1V98z"/>
<path fill="#B19848" d="M74,98h1v1h-1V98z"/>
<path fill="#604840" d="M5,99h1v1H5V99z"/>
<path fill="#F8D0B8" d="M6,99h2v1H7v2h2v-2h1v3H9v1H7v-1H6V99z"/>
<path fill="#030303" d="M8,99h1v1H8V99z"/>
<path fill="#6F6048" d="M14,99h1v1h-1V99z"/>
<path fill="#604840" d="M28,99h1v1h-1V99z"/>
<path fill="#F8D0B8" d="M29,99h2v1h-1v2h2v-2h1v3h-1v1h-2v-1h-1V99z"/>
<path fill="#030303" d="M31,99h1v1h-1V99z"/>
<path fill="#6F6048" d="M37,99h1v1h-1V99z"/>
<path fill="#604840" d="M51,99h1v1h-1V99z"/>
<path fill="#F8D0B8" d="M52,99h2v1h-1v2h2v-2h1v3h-1v1h-2v-1h-1V99z"/>
<path fill="#030303" d="M54,99h1v1h-1V99z"/>
<path fill="#6F6048" d="M60,99h1v1h-1V99z"/>
<path fill="#604840" d="M74,99h1v1h-1V99z"/>
<path fill="#F8D0B8" d="M75,99h2v1h-1v2h2v-2h1v3h-1v1h-2v-1h-1V99z"/>
<path fill="#030303" d="M77,99h1v1h-1V99z"/>
<path fill="#6F6048" d="M83,99h1v1h-1V99z"/>
<path fill="#784040" d="M5,100h1v2H5V100z"/>
<path fill="#6F6048" d="M7,100h1v1H7V100z"/>
<path fill="#A8A0C8" d="M8,100h1v1H8V100z"/>
<path fill="#B19848" d="M14,100h1v1h-1V100z"/>
<path fill="#030303" d="M18,100h1v2h-1V100z"/>
<path fill="#784040" d="M28,100h1v2h-1V100z"/>
<path fill="#6F6048" d="M30,100h1v1h-1V100z"/>
<path fill="#A8A0C8" d="M31,100h1v1h-1V100z"/>
<path fill="#B19848" d="M37,100h1v1h-1V100z"/>
<path fill="#030303" d="M41,100h1v2h-1V100z"/>
<path fill="#784040" d="M51,100h1v2h-1V100z"/>
<path fill="#6F6048" d="M53,100h1v1h-1V100z"/>
<path fill="#A8A0C8" d="M54,100h1v1h-1V100z"/>
<path fill="#B19848" d="M60,100h1v1h-1V100z"/>
<path fill="#030303" d="M64,100h1v2h-1V100z"/>
<path fill="#784040" d="M74,100h1v2h-1V100z"/>
<path fill="#6F6048" d="M76,100h1v1h-1V100z"/>
<path fill="#A8A0C8" d="M77,100h1v1h-1V100z"/>
<path fill="#B19848" d="M83,100h1v1h-1V100z"/>
<path fill="#030303" d="M87,100h1v2h-1V100z"/>
<path fill="#030303" d="M7,101h1v1H7V101z"/>
<path fill="#E8E8F8" d="M8,101h1v1H8V101z"/>
<path fill="#D89870" d="M11,101h2v2h-1v1h-1v1h-1v-1H9v-1h1v-1h1V101z"/>
<path fill="#030303" d="M30,101h1v1h-1V101z"/>
<path fill="#E8E8F8" d="M31,101h1v1h-1V101z"/>
<path fill="#D89870" d="M34,101h2v2h-1v1h-1v1h-1v-1h-1v-1h1v-1h1V101z"/>
<path fill="#030303" d="M53,101h1v1h-1V101z"/>
<path fill="#E8E8F8" d="M54,101h1v1h-1V101z"/>
<path fill="#D89870" d="M57,101h2v2h-1v1h-1v1h-1v-1h-1v-1h1v-1h1V101z"/>
<path fill="#030303" d="M76,101h1v1h-1V101z"/>
<path fill="#E8E8F8" d="M77,101h1v1h-1V101z"/>
<path fill="#D89870" d="M80,101h2v2h-1v1h-1v1h-1v-1h-1v-1h1v-1h1V101z"/>
<path fill="#D89870" d="M5,102h1v1H5V102z"/>
<path fill="#030303" d="M17,102h1v1h-1V102z"/>
<path fill="#D89870" d="M28,102h1v1h-1V102z"/>
<path fill="#030303" d="M40,102h1v1h-1V102z"/>
<path fill="#D89870" d="M51,102h1v1h-1V102z"/>
<path fill="#030303" d="M63,102h1v1h-1V102z"/>
<path fill="#D89870" d="M74,102h1v1h-1V102z"/>
<path fill="#030303" d="M86,102h1v1h-1V102z"/>
<path fill="#784040" d="M6,103h1v1H6V103z"/>
<path fill="#784040" d="M12,103h1v1h-1V103z"/>
<path fill="#030303" d="M15,103h2v1h-2V103z"/>
<path fill="#784040" d="M29,103h1v1h-1V103z"/>
<path fill="#784040" d="M35,103h1v1h-1V103z"/>
<path fill="#030303" d="M38,103h2v1h-2V103z"/>
<path fill="#784040" d="M52,103h1v1h-1V103z"/>
<path fill="#784040" d="M58,103h1v1h-1V103z"/>
<path fill="#030303" d="M61,103h2v1h-2V103z"/>
<path fill="#784040" d="M75,103h1v1h-1V103z"/>
<path fill="#784040" d="M81,103h1v1h-1V103z"/>
<path fill="#030303" d="M84,103h2v1h-2V103z"/>
<path fill="#784040" d="M7,104h3v1H7V104z"/>
<path fill="#030303" d="M11,104h4v1h-1v2h-1v-2h-2V104z"/>
<path fill="#784040" d="M30,104h3v1h-3V104z"/>
<path fill="#030303" d="M34,104h4v1h-1v1h-1v-1h-2V104z"/>
<path fill="#784040" d="M53,104h3v1h-3V104z"/>
<path fill="#030303" d="M57,104h4v1h-1v1h-1v-1h-2V104z"/>
<path fill="#784040" d="M76,104h3v1h-3V104z"/>
<path fill="#030303" d="M80,104h4v1h-1v1h-1v-1h-2V104z"/>
<path fill="#030303" d="M8,105h1v1H8V105z"/>
<path fill="#A8A080" d="M9,105h1v1H9V105z"/>
<path fill="#604840" d="M10,105h2v1h-2V105z"/>
<path fill="#A8A080" d="M12,105h1v1h-1V105z"/>
<path fill="#030303" d="M31,105h1v1h-1V105z"/>
<path fill="#A8A080" d="M32,105h2v1h-1v1h-1V105z"/>
<path fill="#604840" d="M34,105h2v1h-2V105z"/>
<path fill="#030303" d="M54,105h1v1h-1V105z"/>
<path fill="#A8A080" d="M55,105h2v1h-1v1h-1V105z"/>
<path fill="#604840" d="M57,105h2v1h-2V105z"/>
<path fill="#030303" d="M77,105h1v1h-1V105z"/>
<path fill="#A8A080" d="M78,105h2v1h-1v1h-1V105z"/>
<path fill="#604840" d="M80,105h2v1h-2V105z"/>
<path fill="#604840" d="M7,106h1v1H7V106z"/>
<path fill="#A8A080" d="M8,106h1v1H8V106z"/>
<path fill="#604840" d="M9,106h1v2H9V106z"/>
<path fill="#E0D8B8" d="M10,106h2v2h-1v-1h-1V106z"/>
<path fill="#604840" d="M12,106h1v3h-1V106z"/>
<path fill="#604840" d="M30,106h2v1h-2V106z"/>
<path fill="#604840" d="M33,106h1v2h-1V106z"/>
<path fill="#E0D8B8" d="M34,106h2v2h-1v-1h-1V106z"/>
<path fill="#604840" d="M36,106h1v2h-1V106z"/>
<path fill="#604840" d="M53,106h2v1h-2V106z"/>
<path fill="#604840" d="M56,106h1v2h-1V106z"/>
<path fill="#E0D8B8" d="M57,106h2v2h-1v-1h-1V106z"/>
<path fill="#604840" d="M59,106h1v2h-1V106z"/>
<path fill="#604840" d="M76,106h2v1h-2V106z"/>
<path fill="#604840" d="M79,106h1v2h-1V106z"/>
<path fill="#E0D8B8" d="M80,106h2v2h-1v-1h-1V106z"/>
<path fill="#604840" d="M82,106h1v2h-1V106z"/>
<path fill="#030303" d="M7,107h1v3H7V107z"/>
<path fill="#E0D8B8" d="M8,107h1v1H8V107z"/>
<path fill="#A8A080" d="M10,107h1v1h-1V107z"/>
<path fill="#A8A080" d="M13,107h1v1h-1V107z"/>
<path fill="#030303" d="M14,107h1v2h-1V107z"/>
<path fill="#030303" d="M30,107h1v3h-1V107z"/>
<path fill="#E0D8B8" d="M31,107h2v1h-1v1h-1V107z"/>
<path fill="#A8A080" d="M34,107h1v1h-1V107z"/>
<path fill="#030303" d="M37,107h1v3h-1V107z"/>
<path fill="#030303" d="M53,107h1v4h-1V107z"/>
<path fill="#E0D8B8" d="M54,107h2v1h1v1h-3V107z"/>
<path fill="#A8A080" d="M57,107h1v1h-1V107z"/>
<path fill="#030303" d="M60,107h1v3h-1V107z"/>
<path fill="#030303" d="M76,107h1v3h-1V107z"/>
<path fill="#E0D8B8" d="M77,107h2v1h-1v1h-1V107z"/>
<path fill="#A8A080" d="M80,107h1v1h-1V107z"/>
<path fill="#030303" d="M83,107h1v3h-1V107z"/>
<path fill="#784040" d="M8,108h1v2H8V108z"/>
<path fill="#F8D0B8" d="M9,108h2v1H9V108z"/>
<path fill="#A8A080" d="M11,108h1v1h-1V108z"/>
<path fill="#485880" d="M13,108h1v1h-1V108z"/>
<path fill="#784040" d="M32,108h1v2h-1V108z"/>
<path fill="#F8D0B8" d="M33,108h2v1h-2V108z"/>
<path fill="#A8A080" d="M35,108h1v1h-1V108z"/>
<path fill="#485880" d="M36,108h1v2h-1V108z"/>
<path fill="#784040" d="M57,108h1v2h-1V108z"/>
<path fill="#F8D0B8" d="M58,108h2v1h-2V108z"/>
<path fill="#784040" d="M78,108h1v2h-1V108z"/>
<path fill="#F8D0B8" d="M79,108h2v1h-2V108z"/>
<path fill="#A8A080" d="M81,108h1v1h-1V108z"/>
<path fill="#485880" d="M82,108h1v2h-1V108z"/>
<path fill="#D89870" d="M9,109h2v1H9V109z"/>
<path fill="#030303" d="M11,109h1v1h-1V109z"/>
<path fill="#4088B8" d="M12,109h2v1h1v1h-1v1h-1v-1h-1V109z"/>
<path fill="#485880" d="M14,109h1v1h-1V109z"/>
<path fill="#030303" d="M15,109h1v2h-1V109z"/>
<path fill="#485880" d="M31,109h1v1h-1V109z"/>
<path fill="#D89870" d="M33,109h2v1h-2V109z"/>
<path fill="#030303" d="M35,109h1v1h-1V109z"/>
<path fill="#485880" d="M54,109h3v1h-3V109z"/>
<path fill="#D89870" d="M58,109h2v1h-2V109z"/>
<path fill="#383850" d="M61,109h1v1h-1V109z"/>
<path fill="#485880" d="M77,109h1v1h-1V109z"/>
<path fill="#D89870" d="M79,109h2v1h-2V109z"/>
<path fill="#030303" d="M81,109h1v1h-1V109z"/>
<path fill="#030303" d="M6,110h1v2H6V110z"/>
<path fill="#604840" d="M7,110h1v1h2v1H7V110z"/>
<path fill="#383850" d="M8,110h1v1H8V110z"/>
<path fill="#030303" d="M9,110h2v1H9V110z"/>
<path fill="#485880" d="M11,110h1v1h1v1h-2V110z"/>
<path fill="#030303" d="M31,110h1v2h-1V110z"/>
<path fill="#485880" d="M32,110h1v1h-1V110z"/>
<path fill="#030303" d="M33,110h2v1h-2V110z"/>
<path fill="#485880" d="M35,110h1v1h-1V110z"/>
<path fill="#030303" d="M36,110h1v2h-1V110z"/>
<path fill="#4088B8" d="M54,110h4v1h-1v1h-1v-1h-2V110z"/>
<path fill="#030303" d="M58,110h2v1h-2V110z"/>
<path fill="#485880" d="M60,110h1v1h-1V110z"/>
<path fill="#604840" d="M61,110h1v3h-2v-1h1V110z"/>
<path fill="#030303" d="M62,110h1v3h-1V110z"/>
<path fill="#030303" d="M77,110h1v2h-1V110z"/>
<path fill="#485880" d="M78,110h1v1h-1V110z"/>
<path fill="#030303" d="M79,110h2v1h-2V110z"/>
<path fill="#485880" d="M81,110h1v1h-1V110z"/>
<path fill="#030303" d="M82,110h1v2h-1V110z"/>
<path fill="#383850" d="M10,111h1v1h-1V111z"/>
<path fill="#604840" d="M14,111h1v1h-1V111z"/>
<path fill="#A07850" d="M15,111h1v2h-3v-1h2V111z"/>
<path fill="#030303" d="M16,111h1v2h-1V111z"/>
<path fill="#A07850" d="M32,111h4v1h-4V111z"/>
<path fill="#A07850" d="M52,111h2v1h2v1h-3v-1h-1V111z"/>
<path fill="#030303" d="M54,111h1v1h-1V111z"/>
<path fill="#485880" d="M55,111h1v1h-1V111z"/>
<path fill="#485880" d="M57,111h3v1h-3V111z"/>
<path fill="#030303" d="M60,111h1v1h-1V111z"/>
<path fill="#A07850" d="M78,111h4v1h-4V111z"/>
<path fill="#030303" d="M7,112h3v1H7V112z"/>
<path fill="#030303" d="M12,112h1v1h-1V112z"/>
<path fill="#030303" d="M32,112h4v1h-4V112z"/>
<path fill="#030303" d="M52,112h1v1h-1V112z"/>
<path fill="#030303" d="M56,112h2v1h-2V112z"/>
<path fill="#030303" d="M59,112h1v1h-1V112z"/>
<path fill="#030303" d="M78,112h4v1h-4V112z"/>
<path fill="#030303" d="M13,113h3v1h-3V113z"/>
<path fill="#030303" d="M53,113h3v1h-3V113z"/>
<path fill="#030303" d="M60,113h2v1h-2V113z"/>
</svg>
