<?xml version="1.0" encoding="utf-8"?>
<!-- Generator: Adobe Illustrator 16.0.4, SVG Export Plug-In . SVG Version: 6.00 Build 0)  -->
<!DOCTYPE svg PUBLIC "-//W3C//DTD SVG 1.1//EN" "http://www.w3.org/Graphics/SVG/1.1/DTD/svg11.dtd">
<svg version="1.1" id="Layer_1" xmlns="http://www.w3.org/2000/svg" xmlns:xlink="http://www.w3.org/1999/xlink" x="0px" y="0px"
	 width="92px" height="116px" viewBox="0 0 92 116" enable-background="new 0 0 92 116" xml:space="preserve">
<path fill="#373840" d="M9,2h5v1H9V2z"/>
<path fill="#373840" d="M32,2h5v1h-5V2z"/>
<path fill="#373840" d="M55,2h5v1h-5V2z"/>
<path fill="#373840" d="M78,2h5v1h-5V2z"/>
<path fill="#373840" d="M7,3h2v1H7V3z"/>
<path fill="#707688" d="M9,3h1v1H9V3z"/>
<path fill="#515060" d="M10,3h2v1h-1v1h-1v1h1v1h1V6h1V5h-1V4h1V3h1v1h2v1h1v2h1v3h-1v1h-3v-1h-1v1h1v1h-4v-1H8v-1H7v1H6v-1H5V7h1V5
	h1v2h1v1h2V7H9V4h1V3z"/>
<path fill="#707688" d="M12,3h1v1h-1V3z"/>
<path fill="#373840" d="M14,3h2v1h-2V3z"/>
<path fill="#373840" d="M30,3h2v1h-2V3z"/>
<path fill="#707688" d="M32,3h1v1h-1V3z"/>
<path fill="#515060" d="M33,3h2v1h-1v1h-1v1h1v1h1V6h1V5h-1V4h1V3h1v1h2v1h1v2h1v3h-1v1h-3v-1h-1v1h1v1h-4v-1h-2v-1h-1v1h-1v-1h-1V7
	h1V5h1v2h1v1h2V7h-1V4h1V3z"/>
<path fill="#707688" d="M35,3h1v1h-1V3z"/>
<path fill="#373840" d="M37,3h2v1h-2V3z"/>
<path fill="#373840" d="M53,3h2v1h-2V3z"/>
<path fill="#707688" d="M55,3h1v1h-1V3z"/>
<path fill="#515060" d="M56,3h2v1h-1v1h-1v1h1v1h1V6h1V5h-1V4h1V3h1v1h2v1h1v2h1v3h-1v1h-3v-1h-1v1h1v1h-4v-1h-2v-1h-1v1h-1v-1h-1V7
	h1V5h1v2h1v1h2V7h-1V4h1V3z"/>
<path fill="#707688" d="M58,3h1v1h-1V3z"/>
<path fill="#373840" d="M60,3h2v1h-2V3z"/>
<path fill="#373840" d="M76,3h2v1h-2V3z"/>
<path fill="#707688" d="M78,3h1v1h-1V3z"/>
<path fill="#515060" d="M79,3h2v1h-1v1h-1v1h1v1h1V6h1V5h-1V4h1V3h1v1h2v1h1v2h1v3h-1v1h-3v-1h-1v1h1v1h-4v-1h-2v-1h-1v1h-1v-1h-1V7
	h1V5h1v2h1v1h2V7h-1V4h1V3z"/>
<path fill="#707688" d="M81,3h1v1h-1V3z"/>
<path fill="#373840" d="M83,3h2v1h-2V3z"/>
<path fill="#373840" d="M6,4h1v1H6V4z"/>
<path fill="#515060" d="M7,4h1v1H7V4z"/>
<path fill="#707688" d="M8,4h1v3h1v1H8V7H7V5h1V4z"/>
<path fill="#373840" d="M11,4h1v1h1v1h-1v1h-1V6h-1V5h1V4z"/>
<path fill="#373840" d="M16,4h1v1h-1V4z"/>
<path fill="#373840" d="M29,4h1v1h-1V4z"/>
<path fill="#515060" d="M30,4h1v1h-1V4z"/>
<path fill="#707688" d="M31,4h1v3h1v1h-2V7h-1V5h1V4z"/>
<path fill="#373840" d="M34,4h1v1h1v1h-1v1h-1V6h-1V5h1V4z"/>
<path fill="#373840" d="M39,4h1v1h-1V4z"/>
<path fill="#373840" d="M52,4h1v1h-1V4z"/>
<path fill="#515060" d="M53,4h1v1h-1V4z"/>
<path fill="#707688" d="M54,4h1v3h1v1h-2V7h-1V5h1V4z"/>
<path fill="#373840" d="M57,4h1v1h1v1h-1v1h-1V6h-1V5h1V4z"/>
<path fill="#373840" d="M62,4h1v1h-1V4z"/>
<path fill="#373840" d="M75,4h1v1h-1V4z"/>
<path fill="#515060" d="M76,4h1v1h-1V4z"/>
<path fill="#707688" d="M77,4h1v3h1v1h-2V7h-1V5h1V4z"/>
<path fill="#373840" d="M80,4h1v1h1v1h-1v1h-1V6h-1V5h1V4z"/>
<path fill="#373840" d="M85,4h1v1h-1V4z"/>
<path fill="#373840" d="M5,5h1v2H5V5z"/>
<path fill="#707688" d="M14,5h1v2h-1V5z"/>
<path fill="#373840" d="M17,5h1v2h-1V5z"/>
<path fill="#373840" d="M28,5h1v2h-1V5z"/>
<path fill="#707688" d="M37,5h1v2h-1V5z"/>
<path fill="#373840" d="M40,5h1v2h-1V5z"/>
<path fill="#373840" d="M51,5h1v2h-1V5z"/>
<path fill="#707688" d="M60,5h1v2h-1V5z"/>
<path fill="#373840" d="M63,5h1v2h-1V5z"/>
<path fill="#373840" d="M74,5h1v2h-1V5z"/>
<path fill="#707688" d="M83,5h1v2h-1V5z"/>
<path fill="#373840" d="M86,5h1v2h-1V5z"/>
<path fill="#373840" d="M4,7h1v1H4V7z"/>
<path fill="#707688" d="M13,7h1v1h-1V7z"/>
<path fill="#373840" d="M18,7h1v1h-1V7z"/>
<path fill="#373840" d="M27,7h1v1h-1V7z"/>
<path fill="#707688" d="M36,7h1v1h-1V7z"/>
<path fill="#373840" d="M41,7h1v1h-1V7z"/>
<path fill="#373840" d="M50,7h1v1h-1V7z"/>
<path fill="#707688" d="M59,7h1v1h-1V7z"/>
<path fill="#373840" d="M64,7h1v1h-1V7z"/>
<path fill="#373840" d="M73,7h1v1h-1V7z"/>
<path fill="#707688" d="M82,7h1v1h-1V7z"/>
<path fill="#373840" d="M87,7h1v1h-1V7z"/>
<path fill="#030303" d="M4,8h1v1H4V8z"/>
<path fill="#707688" d="M10,8h2v1h-2V8z"/>
<path fill="#030303" d="M18,8h1v1h-1V8z"/>
<path fill="#030303" d="M27,8h1v1h-1V8z"/>
<path fill="#707688" d="M33,8h2v1h-2V8z"/>
<path fill="#030303" d="M41,8h1v1h-1V8z"/>
<path fill="#030303" d="M50,8h1v1h-1V8z"/>
<path fill="#707688" d="M56,8h2v1h-2V8z"/>
<path fill="#030303" d="M64,8h1v1h-1V8z"/>
<path fill="#030303" d="M73,8h1v1h-1V8z"/>
<path fill="#707688" d="M79,8h2v1h-2V8z"/>
<path fill="#030303" d="M87,8h1v1h-1V8z"/>
<path fill="#030303" d="M3,9h1v2H3V9z"/>
<path fill="#373840" d="M4,9h1v1h1v1h1v-1h1v1h2v1h4v-1h3v-1h1V9h1v2h-1v2h-1v1h-1v-1h-3v1h-3v-1H7v1H6v-1H5v-2H4V9z"/>
<path fill="#030303" d="M19,9h1v2h-1V9z"/>
<path fill="#030303" d="M26,9h1v2h-1V9z"/>
<path fill="#373840" d="M27,9h1v1h1v1h1v-1h1v1h2v1h4v-1h3v-1h1V9h1v2h-1v2h-1v1h-1v-1h-3v1h-3v-1h-3v1h-1v-1h-1v-2h-1V9z"/>
<path fill="#010101" d="M42,9h1v1h-1V9z"/>
<path fill="#030303" d="M49,9h1v2h-1V9z"/>
<path fill="#373840" d="M50,9h1v1h1v1h1v-1h1v1h2v1h4v-1h3v-1h1V9h1v2h-1v2h-1v1h-1v-1h-3v1h-3v-1h-3v1h-1v-1h-1v-2h-1V9z"/>
<path fill="#030303" d="M65,9h1v2h-1V9z"/>
<path fill="#010101" d="M72,9h1v1h-1V9z"/>
<path fill="#373840" d="M73,9h1v1h1v1h1v-1h1v1h2v1h4v-1h3v-1h1V9h1v2h-1v2h-1v1h-1v-1h-3v1h-3v-1h-3v1h-1v-1h-1v-2h-1V9z"/>
<path fill="#030303" d="M88,9h1v2h-1V9z"/>
<path fill="#373840" d="M13,10h1v1h-1V10z"/>
<path fill="#373840" d="M36,10h1v1h-1V10z"/>
<path fill="#030303" d="M42,10h1v5h-1V10z"/>
<path fill="#373840" d="M59,10h1v1h-1V10z"/>
<path fill="#030303" d="M72,10h1v5h-1V10z"/>
<path fill="#373840" d="M82,10h1v1h-1V10z"/>
<path fill="#030303" d="M2,11h1v3H2V11z"/>
<path fill="#373840" d="M3,11h1v2h1v1h1v2h1v1H6v1H5v-2H4v-2H3V11z"/>
<path fill="#533C32" d="M4,11h1v2H4V11z"/>
<path fill="#533C32" d="M18,11h1v2h-1V11z"/>
<path fill="#373840" d="M19,11h1v3h-1v2h-1v2h-1v-1h-1v-1h1v-2h1v-1h1V11z"/>
<path fill="#030303" d="M20,11h1v3h-1V11z"/>
<path fill="#030303" d="M25,11h1v4h-1V11z"/>
<path fill="#373840" d="M26,11h1v2h1v1h1v2h1v1h-3v-2h-1V11z"/>
<path fill="#533C32" d="M27,11h1v2h-1V11z"/>
<path fill="#533C32" d="M41,11h1v2h-1V11z"/>
<path fill="#030303" d="M48,11h1v3h-1V11z"/>
<path fill="#373840" d="M49,11h1v2h1v1h1v2h1v1h-1v1h-1v-2h-1v-2h-1V11z"/>
<path fill="#533C32" d="M50,11h1v2h-1V11z"/>
<path fill="#533C32" d="M64,11h1v2h-1V11z"/>
<path fill="#373840" d="M65,11h1v3h-1v2h-1v2h-1v-1h-1v-1h1v-2h1v-1h1V11z"/>
<path fill="#030303" d="M66,11h1v3h-1V11z"/>
<path fill="#533C32" d="M73,11h1v2h-1V11z"/>
<path fill="#533C32" d="M87,11h1v2h-1V11z"/>
<path fill="#373840" d="M88,11h1v4h-1v2h-3v-1h1v-2h1v-1h1V11z"/>
<path fill="#030303" d="M89,11h1v4h-1V11z"/>
<path fill="#211814" d="M5,13h1v1H5V13z"/>
<path fill="#515060" d="M7,13h1v1H7V13z"/>
<path fill="#A8A0C8" d="M8,13h1v1H8V13z"/>
<path fill="#285038" d="M9,13h1v1H9V13z"/>
<path fill="#285038" d="M13,13h1v1h-1V13z"/>
<path fill="#A8A0C8" d="M14,13h1v1h-1V13z"/>
<path fill="#515060" d="M15,13h1v1h-1V13z"/>
<path fill="#211814" d="M17,13h1v1h-1V13z"/>
<path fill="#211814" d="M28,13h1v1h-1V13z"/>
<path fill="#515060" d="M30,13h1v1h-1V13z"/>
<path fill="#A8A0C8" d="M31,13h1v1h-1V13z"/>
<path fill="#285038" d="M32,13h1v1h-1V13z"/>
<path fill="#285038" d="M36,13h1v1h-1V13z"/>
<path fill="#A8A0C8" d="M37,13h1v1h-1V13z"/>
<path fill="#515060" d="M38,13h1v1h-1V13z"/>
<path fill="#211814" d="M40,13h1v1h-1V13z"/>
<path fill="#373840" d="M41,13h1v2h-1v3h-1v-1h-1v-1h1v-2h1V13z"/>
<path fill="#211814" d="M51,13h1v1h-1V13z"/>
<path fill="#515060" d="M53,13h1v1h-1V13z"/>
<path fill="#A8A0C8" d="M54,13h1v1h-1V13z"/>
<path fill="#285038" d="M55,13h1v1h-1V13z"/>
<path fill="#285038" d="M59,13h1v1h-1V13z"/>
<path fill="#A8A0C8" d="M60,13h1v1h-1V13z"/>
<path fill="#515060" d="M61,13h1v1h-1V13z"/>
<path fill="#211814" d="M63,13h1v1h-1V13z"/>
<path fill="#373840" d="M73,13h1v1h1v2h1v1h-1v1h-1v-3h-1V13z"/>
<path fill="#211814" d="M74,13h1v1h-1V13z"/>
<path fill="#515060" d="M76,13h1v1h-1V13z"/>
<path fill="#A8A0C8" d="M77,13h1v1h-1V13z"/>
<path fill="#285038" d="M78,13h1v1h-1V13z"/>
<path fill="#285038" d="M82,13h1v1h-1V13z"/>
<path fill="#A8A0C8" d="M83,13h1v1h-1V13z"/>
<path fill="#515060" d="M84,13h1v1h-1V13z"/>
<path fill="#211814" d="M86,13h1v1h-1V13z"/>
<path fill="#030303" d="M3,14h1v2H3V14z"/>
<path fill="#533C32" d="M6,14h2v2H7v-1H6V14z"/>
<path fill="#E8E8F8" d="M8,14h1v1H8V14z"/>
<path fill="#030303" d="M9,14h1v1H9V14z"/>
<path fill="#533C32" d="M10,14h3v1h-3V14z"/>
<path fill="#030303" d="M13,14h1v1h-1V14z"/>
<path fill="#E8E8F8" d="M14,14h1v1h-1V14z"/>
<path fill="#533C32" d="M15,14h2v1h-1v1h-1V14z"/>
<path fill="#030303" d="M19,14h1v2h-1V14z"/>
<path fill="#303038" d="M29,14h1v1h-1V14z"/>
<path fill="#533C32" d="M30,14h1v2h-1V14z"/>
<path fill="#E8E8F8" d="M31,14h1v1h-1V14z"/>
<path fill="#010101" d="M32,14h1v1h-1V14z"/>
<path fill="#533C32" d="M33,14h3v1h-3V14z"/>
<path fill="#010101" d="M36,14h1v1h-1V14z"/>
<path fill="#E8E8F8" d="M37,14h1v1h-1V14z"/>
<path fill="#533C32" d="M38,14h1v2h-1V14z"/>
<path fill="#303038" d="M39,14h1v1h-1V14z"/>
<path fill="#030303" d="M49,14h1v2h-1V14z"/>
<path fill="#533C32" d="M52,14h2v2h-1v-1h-1V14z"/>
<path fill="#E8E8F8" d="M54,14h1v1h-1V14z"/>
<path fill="#030303" d="M55,14h1v1h-1V14z"/>
<path fill="#533C32" d="M56,14h3v1h-3V14z"/>
<path fill="#030303" d="M59,14h1v1h-1V14z"/>
<path fill="#E8E8F8" d="M60,14h1v1h-1V14z"/>
<path fill="#533C32" d="M61,14h2v1h-1v1h-1V14z"/>
<path fill="#030303" d="M65,14h1v2h-1V14z"/>
<path fill="#303038" d="M75,14h1v1h-1V14z"/>
<path fill="#533C32" d="M76,14h1v2h-1V14z"/>
<path fill="#E8E8F8" d="M77,14h1v1h-1V14z"/>
<path fill="#010101" d="M78,14h1v1h-1V14z"/>
<path fill="#533C32" d="M79,14h3v1h-3V14z"/>
<path fill="#010101" d="M82,14h1v1h-1V14z"/>
<path fill="#E8E8F8" d="M83,14h1v1h-1V14z"/>
<path fill="#533C32" d="M84,14h1v2h-1V14z"/>
<path fill="#303038" d="M85,14h1v1h-1V14z"/>
<path fill="#211814" d="M6,15h1v1H6V15z"/>
<path fill="#815C4D" d="M8,15h7v1h-1v1h-2v-1h-1v1H9v-1H8V15z"/>
<path fill="#211814" d="M16,15h1v1h-1V15z"/>
<path fill="#030303" d="M26,15h1v2h-1V15z"/>
<path fill="#211814" d="M29,15h1v1h-1V15z"/>
<path fill="#815C4D" d="M31,15h7v1h-1v1h-2v-1h-1v1h-2v-1h-1V15z"/>
<path fill="#211814" d="M39,15h1v1h-1V15z"/>
<path fill="#030303" d="M41,15h1v2h-1V15z"/>
<path fill="#211814" d="M52,15h1v1h-1V15z"/>
<path fill="#815C4D" d="M54,15h7v1h-1v1h-2v-1h-1v1h-2v-1h-1V15z"/>
<path fill="#211814" d="M62,15h1v1h-1V15z"/>
<path fill="#030303" d="M73,15h1v2h-1V15z"/>
<path fill="#211814" d="M75,15h1v1h-1V15z"/>
<path fill="#815C4D" d="M77,15h7v1h-1v1h-2v-1h-1v1h-2v-1h-1V15z"/>
<path fill="#211814" d="M85,15h1v1h-1V15z"/>
<path fill="#030303" d="M88,15h1v2h-1V15z"/>
<path fill="#030303" d="M4,16h1v1H4V16z"/>
<path fill="#211814" d="M7,16h1v1H7V16z"/>
<path fill="#533C32" d="M8,16h1v1H8V16z"/>
<path fill="#533C32" d="M11,16h1v1h1v1h-3v-1h1V16z"/>
<path fill="#533C32" d="M14,16h1v1h-1V16z"/>
<path fill="#211814" d="M15,16h1v1h-1V16z"/>
<path fill="#030303" d="M18,16h1v1h-1V16z"/>
<path fill="#211814" d="M30,16h1v1h-1V16z"/>
<path fill="#533C32" d="M31,16h1v1h-1V16z"/>
<path fill="#533C32" d="M34,16h1v1h1v1h-3v-1h1V16z"/>
<path fill="#533C32" d="M37,16h1v1h-1V16z"/>
<path fill="#211814" d="M38,16h1v1h-1V16z"/>
<path fill="#030303" d="M50,16h1v1h-1V16z"/>
<path fill="#211814" d="M53,16h1v1h-1V16z"/>
<path fill="#533C32" d="M54,16h1v1h-1V16z"/>
<path fill="#533C32" d="M57,16h1v1h1v1h-3v-1h1V16z"/>
<path fill="#533C32" d="M60,16h1v1h-1V16z"/>
<path fill="#211814" d="M61,16h1v1h-1V16z"/>
<path fill="#030303" d="M64,16h1v1h-1V16z"/>
<path fill="#211814" d="M76,16h1v1h-1V16z"/>
<path fill="#533C32" d="M77,16h1v1h-1V16z"/>
<path fill="#533C32" d="M80,16h1v1h1v1h-3v-1h1V16z"/>
<path fill="#533C32" d="M83,16h1v1h-1V16z"/>
<path fill="#211814" d="M84,16h1v1h-1V16z"/>
<path fill="#7FD096" d="M6,17h2v2H7v-1H6V17z"/>
<path fill="#010101" d="M8,17h1v1H8V17z"/>
<path fill="#211814" d="M9,17h1v1H9V17z"/>
<path fill="#211814" d="M13,17h1v1h-1V17z"/>
<path fill="#010101" d="M14,17h1v1h-1V17z"/>
<path fill="#7FD096" d="M15,17h2v1h-1v1h-1V17z"/>
<path fill="#030303" d="M27,17h1v1h-1V17z"/>
<path fill="#010101" d="M28,17h1v1h-1V17z"/>
<path fill="#59996B" d="M29,17h2v2h-2V17z"/>
<path fill="#010101" d="M31,17h1v1h-1V17z"/>
<path fill="#211814" d="M32,17h1v1h-1V17z"/>
<path fill="#211814" d="M36,17h1v1h-1V17z"/>
<path fill="#010101" d="M37,17h1v1h-1V17z"/>
<path fill="#7FD096" d="M38,17h1v2h-1V17z"/>
<path fill="#010101" d="M39,17h1v1h-1V17z"/>
<path fill="#7FD096" d="M52,17h2v2h-1v-1h-1V17z"/>
<path fill="#010101" d="M54,17h1v1h-1V17z"/>
<path fill="#211814" d="M55,17h1v1h-1V17z"/>
<path fill="#211814" d="M59,17h1v1h-1V17z"/>
<path fill="#010101" d="M60,17h1v1h-1V17z"/>
<path fill="#7FD096" d="M61,17h2v1h-1v1h-1V17z"/>
<path fill="#010101" d="M75,17h1v1h-1V17z"/>
<path fill="#7FD096" d="M76,17h1v2h-1V17z"/>
<path fill="#010101" d="M77,17h1v1h-1V17z"/>
<path fill="#211814" d="M78,17h1v1h-1V17z"/>
<path fill="#211814" d="M82,17h1v1h-1V17z"/>
<path fill="#010101" d="M83,17h1v1h-1V17z"/>
<path fill="#59996B" d="M84,17h2v2h-2V17z"/>
<path fill="#010101" d="M86,17h1v1h-1V17z"/>
<path fill="#030303" d="M87,17h1v1h-1V17z"/>
<path fill="#010101" d="M4,18h1v1H4V18z"/>
<path fill="#59996B" d="M5,18h1v1H5V18z"/>
<path fill="#E9F8ED" d="M6,18h1v1H6V18z"/>
<path fill="#59996B" d="M8,18h1v1h1v1h1v-1h1v1h1v-1h1v-1h1v2h-1v1H9v-1H8V18z"/>
<path fill="#7FD096" d="M9,18h1v1H9V18z"/>
<path fill="#59996B" d="M10,18h1v1h-1V18z"/>
<path fill="#815C4D" d="M11,18h1v1h-1V18z"/>
<path fill="#59996B" d="M12,18h1v1h-1V18z"/>
<path fill="#7FD096" d="M13,18h1v1h-1V18z"/>
<path fill="#E9F8ED" d="M16,18h1v1h-1V18z"/>
<path fill="#59996B" d="M17,18h1v1h-1V18z"/>
<path fill="#010101" d="M18,18h1v1h-1V18z"/>
<path fill="#211814" d="M26,18h1v2h-1V18z"/>
<path fill="#533C32" d="M27,18h1v2h-1V18z"/>
<path fill="#B8B0D8" d="M28,18h1v2h-1V18z"/>
<path fill="#493130" d="M31,18h1v1h-1V18z"/>
<path fill="#7FD096" d="M32,18h1v1h-1V18z"/>
<path fill="#59996B" d="M33,18h1v1h-1V18z"/>
<path fill="#815C4D" d="M34,18h1v1h-1V18z"/>
<path fill="#59996B" d="M35,18h1v1h-1V18z"/>
<path fill="#7FD096" d="M36,18h1v1h-1V18z"/>
<path fill="#59996B" d="M37,18h1v2h-1v1h-5v-1h-1v-1h2v1h1v-1h1v1h1v-1h1V18z"/>
<path fill="#E8E8F8" d="M39,18h1v1h-1V18z"/>
<path fill="#030303" d="M40,18h1v1h-1V18z"/>
<path fill="#010101" d="M50,18h1v1h-1V18z"/>
<path fill="#59996B" d="M51,18h1v1h-1V18z"/>
<path fill="#E9F8ED" d="M52,18h1v1h-1V18z"/>
<path fill="#59996B" d="M54,18h1v1h1v1h1v-1h1v1h1v-1h1v-1h1v2h-1v1h-5v-1h-1V18z"/>
<path fill="#7FD096" d="M55,18h1v1h-1V18z"/>
<path fill="#59996B" d="M56,18h1v1h-1V18z"/>
<path fill="#815C4D" d="M57,18h1v1h-1V18z"/>
<path fill="#59996B" d="M58,18h1v1h-1V18z"/>
<path fill="#7FD096" d="M59,18h1v1h-1V18z"/>
<path fill="#E9F8ED" d="M62,18h1v1h-1V18z"/>
<path fill="#59996B" d="M63,18h1v1h-1V18z"/>
<path fill="#010101" d="M64,18h1v1h-1V18z"/>
<path fill="#030303" d="M74,18h1v1h-1V18z"/>
<path fill="#E8E8F8" d="M75,18h1v1h-1V18z"/>
<path fill="#59996B" d="M77,18h1v1h1v1h1v-1h1v1h1v-1h2v1h-1v1h-5v-1h-1V18z"/>
<path fill="#7FD096" d="M78,18h1v1h-1V18z"/>
<path fill="#59996B" d="M79,18h1v1h-1V18z"/>
<path fill="#815C4D" d="M80,18h1v1h-1V18z"/>
<path fill="#59996B" d="M81,18h1v1h-1V18z"/>
<path fill="#7FD096" d="M82,18h1v1h-1V18z"/>
<path fill="#493130" d="M83,18h1v1h-1V18z"/>
<path fill="#B8B0D8" d="M86,18h1v2h-1V18z"/>
<path fill="#533C32" d="M87,18h1v2h-1V18z"/>
<path fill="#211814" d="M88,18h1v2h-1V18z"/>
<path fill="#211814" d="M3,19h1v2H3V19z"/>
<path fill="#815C4D" d="M4,19h2v1H4V19z"/>
<path fill="#59996B" d="M6,19h1v1H6V19z"/>
<path fill="#010101" d="M7,19h1v2H7V19z"/>
<path fill="#7FD096" d="M10,19h1v1h-1V19z"/>
<path fill="#7FD096" d="M12,19h1v1h-1V19z"/>
<path fill="#010101" d="M15,19h1v2h-1V19z"/>
<path fill="#59996B" d="M16,19h1v1h-1V19z"/>
<path fill="#815C4D" d="M17,19h2v1h-2V19z"/>
<path fill="#211814" d="M19,19h1v2h-1V19z"/>
<path fill="#010101" d="M29,19h2v2h-1v-1h-1V19z"/>
<path fill="#7FD096" d="M33,19h1v1h-1V19z"/>
<path fill="#7FD096" d="M35,19h1v1h-1V19z"/>
<path fill="#E8E8F8" d="M38,19h1v1h-1V19z"/>
<path fill="#59996B" d="M39,19h1v1h-1V19z"/>
<path fill="#010101" d="M40,19h1v1h-1V19z"/>
<path fill="#211814" d="M49,19h1v2h-1V19z"/>
<path fill="#815C4D" d="M50,19h2v1h-2V19z"/>
<path fill="#59996B" d="M52,19h1v1h-1V19z"/>
<path fill="#010101" d="M53,19h1v2h-1V19z"/>
<path fill="#7FD096" d="M56,19h1v1h-1V19z"/>
<path fill="#7FD096" d="M58,19h1v1h-1V19z"/>
<path fill="#010101" d="M61,19h1v2h-1V19z"/>
<path fill="#59996B" d="M62,19h1v1h-1V19z"/>
<path fill="#815C4D" d="M63,19h2v1h-2V19z"/>
<path fill="#211814" d="M65,19h1v2h-1V19z"/>
<path fill="#010101" d="M74,19h1v1h-1V19z"/>
<path fill="#59996B" d="M75,19h1v1h-1V19z"/>
<path fill="#E8E8F8" d="M76,19h1v1h-1V19z"/>
<path fill="#7FD096" d="M79,19h1v1h-1V19z"/>
<path fill="#7FD096" d="M81,19h1v1h-1V19z"/>
<path fill="#010101" d="M84,19h2v1h-1v1h-1V19z"/>
<path fill="#533C32" d="M4,20h2v1H4V20z"/>
<path fill="#211814" d="M6,20h1v1H6V20z"/>
<path fill="#493130" d="M8,20h1v1H8V20z"/>
<path fill="#493130" d="M14,20h1v1h-1V20z"/>
<path fill="#211814" d="M16,20h1v1h-1V20z"/>
<path fill="#533C32" d="M17,20h2v1h-2V20z"/>
<path fill="#010101" d="M27,20h2v1h-2V20z"/>
<path fill="#B8B0D8" d="M29,20h1v1h-1V20z"/>
<path fill="#493130" d="M31,20h1v1h-1V20z"/>
<path fill="#493130" d="M37,20h1v1h-1V20z"/>
<path fill="#010101" d="M38,20h1v1h-1V20z"/>
<path fill="#815C4D" d="M39,20h2v1h-2V20z"/>
<path fill="#211814" d="M41,20h1v2h-1V20z"/>
<path fill="#533C32" d="M50,20h2v1h-2V20z"/>
<path fill="#211814" d="M52,20h1v1h-1V20z"/>
<path fill="#493130" d="M54,20h1v1h-1V20z"/>
<path fill="#493130" d="M60,20h1v1h-1V20z"/>
<path fill="#211814" d="M62,20h1v1h-1V20z"/>
<path fill="#533C32" d="M63,20h2v1h-2V20z"/>
<path fill="#211814" d="M73,20h1v2h-1V20z"/>
<path fill="#815C4D" d="M74,20h2v1h-2V20z"/>
<path fill="#010101" d="M76,20h1v1h-1V20z"/>
<path fill="#493130" d="M77,20h1v1h-1V20z"/>
<path fill="#493130" d="M83,20h1v1h-1V20z"/>
<path fill="#B8B0D8" d="M85,20h1v1h-1V20z"/>
<path fill="#010101" d="M86,20h2v1h-2V20z"/>
<path fill="#211814" d="M4,21h2v1H4V21z"/>
<path fill="#010101" d="M6,21h1v3H6V21z"/>
<path fill="#B8B0D8" d="M7,21h2v2H8v-1H7V21z"/>
<path fill="#493130" d="M9,21h5v1H9V21z"/>
<path fill="#B8B0D8" d="M14,21h2v1h-1v1h-1V21z"/>
<path fill="#010101" d="M16,21h1v3h-1V21z"/>
<path fill="#211814" d="M17,21h2v1h-2V21z"/>
<path fill="#010101" d="M29,21h1v2h1v1h-1v1h-1V21z"/>
<path fill="#B8B0D8" d="M30,21h2v2h1v1h-2v-1h-1V21z"/>
<path fill="#493130" d="M32,21h5v1h-5V21z"/>
<path fill="#B8B0D8" d="M37,21h1v2h-1V21z"/>
<path fill="#686878" d="M38,21h1v1h-1V21z"/>
<path fill="#533C32" d="M39,21h2v1h-2V21z"/>
<path fill="#211814" d="M50,21h2v1h-2V21z"/>
<path fill="#010101" d="M52,21h1v3h-1V21z"/>
<path fill="#B8B0D8" d="M53,21h2v2h-1v-1h-1V21z"/>
<path fill="#493130" d="M55,21h5v1h-5V21z"/>
<path fill="#B8B0D8" d="M60,21h2v1h-1v1h-1V21z"/>
<path fill="#010101" d="M62,21h1v3h-1V21z"/>
<path fill="#211814" d="M63,21h2v1h-2V21z"/>
<path fill="#533C32" d="M74,21h2v1h-2V21z"/>
<path fill="#686878" d="M76,21h1v1h-1V21z"/>
<path fill="#B8B0D8" d="M77,21h1v2h-1V21z"/>
<path fill="#493130" d="M78,21h5v1h-5V21z"/>
<path fill="#B8B0D8" d="M83,21h2v2h-1v1h-2v-1h1V21z"/>
<path fill="#010101" d="M85,21h1v4h-1v-1h-1v-1h1V21z"/>
<path fill="#686878" d="M7,22h1v1H7V22z"/>
<path fill="#E8E8F8" d="M9,22h5v1h-1v1h-3v-1H9V22z"/>
<path fill="#686878" d="M15,22h1v1h-1V22z"/>
<path fill="#E8E8F8" d="M32,22h5v1h-1v1h-3v-1h-1V22z"/>
<path fill="#010101" d="M38,22h1v1h-1V22z"/>
<path fill="#211814" d="M39,22h2v1h-2V22z"/>
<path fill="#686878" d="M53,22h1v1h-1V22z"/>
<path fill="#E8E8F8" d="M55,22h5v1h-1v1h-3v-1h-1V22z"/>
<path fill="#686878" d="M61,22h1v1h-1V22z"/>
<path fill="#211814" d="M74,22h2v1h-2V22z"/>
<path fill="#010101" d="M76,22h1v1h-1V22z"/>
<path fill="#E8E8F8" d="M78,22h5v1h-1v1h-3v-1h-1V22z"/>
<path fill="#533C32" d="M7,23h1v1H7V23z"/>
<path fill="#686878" d="M8,23h1v1H8V23z"/>
<path fill="#B8B0D8" d="M9,23h1v1H9V23z"/>
<path fill="#B8B0D8" d="M13,23h1v1h-1V23z"/>
<path fill="#686878" d="M14,23h1v1h-1V23z"/>
<path fill="#533C32" d="M15,23h1v1h-1V23z"/>
<path fill="#010101" d="M36,23h2v1h-2V23z"/>
<path fill="#533C32" d="M53,23h1v1h-1V23z"/>
<path fill="#686878" d="M54,23h1v1h-1V23z"/>
<path fill="#B8B0D8" d="M55,23h1v1h-1V23z"/>
<path fill="#B8B0D8" d="M59,23h1v1h-1V23z"/>
<path fill="#686878" d="M60,23h1v1h-1V23z"/>
<path fill="#533C32" d="M61,23h1v1h-1V23z"/>
<path fill="#010101" d="M77,23h2v1h-2V23z"/>
<path fill="#010101" d="M7,24h1v1H7V24z"/>
<path fill="#585898" d="M8,24h2v1H8V24z"/>
<path fill="#010101" d="M10,24h3v1h-3V24z"/>
<path fill="#585898" d="M13,24h2v1h-2V24z"/>
<path fill="#010101" d="M15,24h1v1h-1V24z"/>
<path fill="#533C32" d="M30,24h1v1h-1V24z"/>
<path fill="#59996B" d="M31,24h1v1h-1V24z"/>
<path fill="#010101" d="M32,24h3v1h-1v2h-1v-2h-1V24z"/>
<path fill="#493130" d="M35,24h1v1h-1V24z"/>
<path fill="#010101" d="M53,24h1v1h-1V24z"/>
<path fill="#585898" d="M54,24h2v1h-2V24z"/>
<path fill="#010101" d="M56,24h3v1h-3V24z"/>
<path fill="#585898" d="M59,24h2v1h-2V24z"/>
<path fill="#010101" d="M61,24h1v1h-1V24z"/>
<path fill="#493130" d="M79,24h1v1h-1V24z"/>
<path fill="#010101" d="M80,24h3v1h-1v2h-1v-2h-1V24z"/>
<path fill="#59996B" d="M83,24h1v1h-1V24z"/>
<path fill="#533C32" d="M84,24h1v1h-1V24z"/>
<path fill="#010101" d="M8,25h2v1H8V25z"/>
<path fill="#010101" d="M13,25h2v1h-2V25z"/>
<path fill="#010101" d="M30,25h1v2h-1V25z"/>
<path fill="#815C4D" d="M31,25h2v1h-2V25z"/>
<path fill="#010101" d="M54,25h2v1h-2V25z"/>
<path fill="#010101" d="M59,25h2v1h-2V25z"/>
<path fill="#815C4D" d="M82,25h2v1h-2V25z"/>
<path fill="#010101" d="M84,25h1v2h-1V25z"/>
<path fill="#6890E0" d="M31,26h2v1h-2V26z"/>
<path fill="#6890E0" d="M82,26h2v1h-2V26z"/>
<path fill="#010101" d="M31,27h2v1h-2V27z"/>
<path fill="#010101" d="M82,27h2v1h-2V27z"/>
<path fill="#373840" d="M9,31h5v1H9V31z"/>
<path fill="#373840" d="M32,31h5v1h-5V31z"/>
<path fill="#373840" d="M55,31h5v1h-5V31z"/>
<path fill="#373840" d="M78,31h5v1h-5V31z"/>
<path fill="#373840" d="M7,32h2v1H7V32z"/>
<path fill="#515060" d="M9,32h5v1h-1v1h1v3h-1v1h-2v1h2v-1h2v-1h1v-2h-1v-1h-1v-1h2v1h1v1h1v2h1v2h-1v1h-1v1h-2v1h-2v-1h-2v1H9v1H7
	v-1H5v-1H4v-4h1v-2h1v-1h1v-1h2V32z"/>
<path fill="#373840" d="M14,32h2v1h-2V32z"/>
<path fill="#373840" d="M30,32h2v1h-2V32z"/>
<path fill="#515060" d="M32,32h5v1h-1v1h1v3h-1v1h-2v1h2v-1h2v-1h1v-2h-1v-1h-1v-1h2v1h1v1h1v2h1v2h-1v1h-1v1h-2v1h-2v-1h-2v1h-2v1
	h-3v-1h-2v-1h-1v-3h1v-1h1v-2h1v-1h1v-1h2V32z"/>
<path fill="#373840" d="M37,32h2v1h-2V32z"/>
<path fill="#373840" d="M53,32h2v1h-2V32z"/>
<path fill="#515060" d="M55,32h5v1h-1v1h1v3h-1v1h-2v1h2v-1h2v-1h1v-2h-1v-1h-1v-1h2v1h1v1h1v2h1v2h-1v1h-1v1h-2v1h-2v-1h-2v1h-2v1
	h-2v-1h-2v-1h-1v-4h1v-2h1v-1h1v-1h2V32z"/>
<path fill="#373840" d="M60,32h2v1h-2V32z"/>
<path fill="#373840" d="M76,32h2v1h-2V32z"/>
<path fill="#515060" d="M78,32h5v1h-1v1h1v3h-1v1h-2v1h2v-1h2v-1h1v-2h-1v-1h-1v-1h2v1h1v1h1v2h1v2h-1v1h-1v1h-2v1h-2v-1h-2v1h-2v1
	h-3v-1h-2v-1h-1v-3h1v-1h1v-2h1v-1h1v-1h2V32z"/>
<path fill="#373840" d="M83,32h2v1h-2V32z"/>
<path fill="#373840" d="M6,33h1v1H6V33z"/>
<path fill="#707688" d="M10,33h1v1h-1V33z"/>
<path fill="#707688" d="M13,33h1v1h-1V33z"/>
<path fill="#373840" d="M16,33h1v1h-1V33z"/>
<path fill="#373840" d="M29,33h1v1h-1V33z"/>
<path fill="#707688" d="M33,33h1v1h-1V33z"/>
<path fill="#707688" d="M36,33h1v1h-1V33z"/>
<path fill="#373840" d="M39,33h1v1h-1V33z"/>
<path fill="#373840" d="M52,33h1v1h-1V33z"/>
<path fill="#707688" d="M56,33h1v1h-1V33z"/>
<path fill="#707688" d="M59,33h1v1h-1V33z"/>
<path fill="#373840" d="M62,33h1v1h-1V33z"/>
<path fill="#373840" d="M75,33h1v1h-1V33z"/>
<path fill="#707688" d="M79,33h1v1h-1V33z"/>
<path fill="#707688" d="M82,33h1v1h-1V33z"/>
<path fill="#373840" d="M85,33h1v1h-1V33z"/>
<path fill="#030303" d="M5,34h1v1H5V34z"/>
<path fill="#373840" d="M10,34h2v1h1v1h-2v-1h-1V34z"/>
<path fill="#707688" d="M14,34h1v1h1v2h-1v1h-2v-1h1V34z"/>
<path fill="#030303" d="M17,34h1v1h-1V34z"/>
<path fill="#030303" d="M28,34h1v1h-1V34z"/>
<path fill="#373840" d="M33,34h2v1h1v1h-2v-1h-1V34z"/>
<path fill="#707688" d="M37,34h1v1h1v2h-1v1h-2v-1h1V34z"/>
<path fill="#030303" d="M40,34h1v1h-1V34z"/>
<path fill="#030303" d="M51,34h1v1h-1V34z"/>
<path fill="#373840" d="M56,34h2v1h1v1h-2v-1h-1V34z"/>
<path fill="#707688" d="M60,34h1v1h1v2h-1v1h-2v-1h1V34z"/>
<path fill="#030303" d="M63,34h1v1h-1V34z"/>
<path fill="#030303" d="M74,34h1v1h-1V34z"/>
<path fill="#373840" d="M79,34h2v1h1v1h-2v-1h-1V34z"/>
<path fill="#707688" d="M83,34h1v1h1v2h-1v1h-2v-1h1V34z"/>
<path fill="#030303" d="M86,34h1v1h-1V34z"/>
<path fill="#030303" d="M4,35h1v1H4V35z"/>
<path fill="#707688" d="M8,35h1v2H8V35z"/>
<path fill="#030303" d="M18,35h1v2h-1V35z"/>
<path fill="#030303" d="M27,35h1v1h-1V35z"/>
<path fill="#707688" d="M31,35h1v2h-1V35z"/>
<path fill="#030303" d="M41,35h1v2h-1V35z"/>
<path fill="#030303" d="M50,35h1v1h-1V35z"/>
<path fill="#707688" d="M54,35h1v2h-1V35z"/>
<path fill="#030303" d="M64,35h1v2h-1V35z"/>
<path fill="#030303" d="M73,35h1v1h-1V35z"/>
<path fill="#707688" d="M77,35h1v2h-1V35z"/>
<path fill="#030303" d="M87,35h1v2h-1V35z"/>
<path fill="#373840" d="M4,36h1v1H4V36z"/>
<path fill="#373840" d="M27,36h1v1h-1V36z"/>
<path fill="#373840" d="M50,36h1v1h-1V36z"/>
<path fill="#373840" d="M73,36h1v1h-1V36z"/>
<path fill="#030303" d="M3,37h1v2H3V37z"/>
<path fill="#707688" d="M9,37h1v1H9V37z"/>
<path fill="#030303" d="M19,37h1v3h-1V37z"/>
<path fill="#373840" d="M26,37h1v1h-1V37z"/>
<path fill="#707688" d="M32,37h1v1h-1V37z"/>
<path fill="#030303" d="M42,37h1v3h-1V37z"/>
<path fill="#030303" d="M49,37h1v2h-1V37z"/>
<path fill="#707688" d="M55,37h1v1h-1V37z"/>
<path fill="#030303" d="M65,37h1v3h-1V37z"/>
<path fill="#373840" d="M72,37h1v1h-1V37z"/>
<path fill="#707688" d="M78,37h1v1h-1V37z"/>
<path fill="#030303" d="M88,37h1v3h-1V37z"/>
<path fill="#707688" d="M11,38h2v1h-2V38z"/>
<path fill="#030303" d="M25,38h1v1h-1V38z"/>
<path fill="#707688" d="M34,38h2v1h-2V38z"/>
<path fill="#707688" d="M57,38h2v1h-2V38z"/>
<path fill="#030303" d="M71,38h1v1h-1V38z"/>
<path fill="#707688" d="M80,38h2v1h-2V38z"/>
<path fill="#373840" d="M3,39h1v2h1v1h2v1h2v-1h2v-1h2v1h2v-1h2v-1h1v2h-2v1h-4v1H8v2h4v1H9v2H8v-1H6v-1H5v-1H4v-2H3V39z"/>
<path fill="#373840" d="M18,39h1v1h-1V39z"/>
<path fill="#373840" d="M25,39h1v2h1v1h2v1h3v-1h2v-1h2v1h2v-1h2v-1h1v2h-2v1h-4v1h-4v2h4v1h-1v1h-2v1h-2v-1h-2v-1h-1v-1h-1v-2h-1
	V39z"/>
<path fill="#373840" d="M41,39h1v1h-1V39z"/>
<path fill="#373840" d="M49,39h1v2h1v1h2v1h2v-1h2v-1h2v1h2v-1h2v-1h1v2h-2v1h-4v1h-4v2h4v1h-3v2h-1v-1h-2v-1h-1v-1h-1v-2h-1V39z"/>
<path fill="#373840" d="M64,39h1v1h-1V39z"/>
<path fill="#373840" d="M71,39h1v2h1v1h2v1h3v-1h2v-1h2v1h2v-1h2v-1h1v2h-2v1h-4v1h-4v2h4v1h-1v1h-2v1h-2v-1h-2v-1h-1v-1h-1v-2h-1
	V39z"/>
<path fill="#373840" d="M87,39h1v1h-1V39z"/>
<path fill="#030303" d="M2,40h1v4H2V40z"/>
<path fill="#373840" d="M13,40h1v1h-1V40z"/>
<path fill="#030303" d="M18,40h1v2h-1V40z"/>
<path fill="#030303" d="M24,40h1v4h-1V40z"/>
<path fill="#373840" d="M36,40h1v1h-1V40z"/>
<path fill="#030303" d="M41,40h1v2h-1V40z"/>
<path fill="#030303" d="M48,40h1v4h-1V40z"/>
<path fill="#373840" d="M59,40h1v1h-1V40z"/>
<path fill="#030303" d="M64,40h1v2h-1V40z"/>
<path fill="#030303" d="M70,40h1v4h-1V40z"/>
<path fill="#373840" d="M82,40h1v1h-1V40z"/>
<path fill="#030303" d="M87,40h1v2h-1V40z"/>
<path fill="#373840" d="M7,41h1v1H7V41z"/>
<path fill="#373840" d="M29,41h1v1h-1V41z"/>
<path fill="#373840" d="M53,41h1v1h-1V41z"/>
<path fill="#373840" d="M75,41h1v1h-1V41z"/>
<path fill="#533C32" d="M16,42h1v1h-1V42z"/>
<path fill="#030303" d="M17,42h1v1h-1V42z"/>
<path fill="#533C32" d="M39,42h1v1h-1V42z"/>
<path fill="#211814" d="M40,42h1v2h-1V42z"/>
<path fill="#533C32" d="M62,42h1v1h-1V42z"/>
<path fill="#030303" d="M63,42h1v1h-1V42z"/>
<path fill="#533C32" d="M85,42h1v1h-1V42z"/>
<path fill="#211814" d="M86,42h1v2h-1V42z"/>
<path fill="#515060" d="M12,43h1v1h-1V43z"/>
<path fill="#A8A0C8" d="M13,43h1v1h-1V43z"/>
<path fill="#285038" d="M14,43h1v1h-1V43z"/>
<path fill="#815C4D" d="M15,43h2v2h-1v1h-2v-1h1V43z"/>
<path fill="#211814" d="M17,43h1v1h-1V43z"/>
<path fill="#515060" d="M35,43h1v1h-1V43z"/>
<path fill="#A8A0C8" d="M36,43h1v1h-1V43z"/>
<path fill="#285038" d="M37,43h1v1h-1V43z"/>
<path fill="#815C4D" d="M38,43h2v2h-1v1h-2v-1h1V43z"/>
<path fill="#515060" d="M58,43h1v1h-1V43z"/>
<path fill="#A8A0C8" d="M59,43h1v1h-1V43z"/>
<path fill="#285038" d="M60,43h1v1h-1V43z"/>
<path fill="#815C4D" d="M61,43h2v2h-1v1h-2v-1h1V43z"/>
<path fill="#211814" d="M63,43h1v1h-1V43z"/>
<path fill="#515060" d="M81,43h1v1h-1V43z"/>
<path fill="#A8A0C8" d="M82,43h1v1h-1V43z"/>
<path fill="#285038" d="M83,43h1v1h-1V43z"/>
<path fill="#815C4D" d="M84,43h2v2h-1v1h-2v-1h1V43z"/>
<path fill="#030303" d="M3,44h1v2H3V44z"/>
<path fill="#533C32" d="M8,44h1v2H8V44z"/>
<path fill="#815C4D" d="M9,44h1v2H9V44z"/>
<path fill="#515060" d="M10,44h1v1h-1V44z"/>
<path fill="#533C32" d="M11,44h2v1h1v2h-1v-1h-2V44z"/>
<path fill="#E8E8F8" d="M13,44h1v1h-1V44z"/>
<path fill="#030303" d="M14,44h1v1h-1V44z"/>
<path fill="#533C32" d="M17,44h1v1h-1V44z"/>
<path fill="#030303" d="M25,44h1v2h-1V44z"/>
<path fill="#533C32" d="M31,44h1v2h-1V44z"/>
<path fill="#815C4D" d="M32,44h1v2h-1V44z"/>
<path fill="#515060" d="M33,44h1v1h-1V44z"/>
<path fill="#533C32" d="M34,44h2v1h1v2h-2v-1h-1V44z"/>
<path fill="#E8E8F8" d="M36,44h1v1h-1V44z"/>
<path fill="#030303" d="M37,44h1v1h-1V44z"/>
<path fill="#533C32" d="M40,44h1v1h-1V44z"/>
<path fill="#030303" d="M49,44h1v2h-1V44z"/>
<path fill="#533C32" d="M54,44h1v2h-1V44z"/>
<path fill="#815C4D" d="M55,44h1v2h-1V44z"/>
<path fill="#515060" d="M56,44h1v1h-1V44z"/>
<path fill="#533C32" d="M57,44h2v1h1v2h-1v-1h-2V44z"/>
<path fill="#E8E8F8" d="M59,44h1v1h-1V44z"/>
<path fill="#030303" d="M60,44h1v1h-1V44z"/>
<path fill="#533C32" d="M63,44h1v1h-1V44z"/>
<path fill="#030303" d="M71,44h1v2h-1V44z"/>
<path fill="#533C32" d="M77,44h1v2h-1V44z"/>
<path fill="#815C4D" d="M78,44h1v2h-1V44z"/>
<path fill="#515060" d="M79,44h1v1h-1V44z"/>
<path fill="#533C32" d="M80,44h2v1h1v2h-2v-1h-1V44z"/>
<path fill="#E8E8F8" d="M82,44h1v1h-1V44z"/>
<path fill="#030303" d="M83,44h1v1h-1V44z"/>
<path fill="#533C32" d="M86,44h1v1h-1V44z"/>
<path fill="#211814" d="M10,45h1v1h-1V45z"/>
<path fill="#211814" d="M16,45h1v1h-1V45z"/>
<path fill="#211814" d="M33,45h1v1h-1V45z"/>
<path fill="#211814" d="M39,45h1v1h-1V45z"/>
<path fill="#211814" d="M56,45h1v1h-1V45z"/>
<path fill="#211814" d="M62,45h1v1h-1V45z"/>
<path fill="#211814" d="M79,45h1v1h-1V45z"/>
<path fill="#211814" d="M85,45h1v1h-1V45z"/>
<path fill="#030303" d="M4,46h1v1H4V46z"/>
<path fill="#515060" d="M12,46h1v1h-1V46z"/>
<path fill="#211814" d="M14,46h2v1h-2V46z"/>
<path fill="#030303" d="M26,46h1v1h-1V46z"/>
<path fill="#211814" d="M37,46h2v1h-2V46z"/>
<path fill="#030303" d="M50,46h1v1h-1V46z"/>
<path fill="#515060" d="M58,46h1v1h-1V46z"/>
<path fill="#211814" d="M60,46h2v1h-2V46z"/>
<path fill="#030303" d="M72,46h1v1h-1V46z"/>
<path fill="#211814" d="M83,46h2v1h-2V46z"/>
<path fill="#030303" d="M5,47h1v1H5V47z"/>
<path fill="#010101" d="M9,47h1v2H9V47z"/>
<path fill="#493130" d="M10,47h1v1h-1V47z"/>
<path fill="#7FD096" d="M11,47h1v1h-1V47z"/>
<path fill="#533C32" d="M12,47h1v1h-1V47z"/>
<path fill="#010101" d="M13,47h2v1h-2V47z"/>
<path fill="#030303" d="M27,47h1v1h-1V47z"/>
<path fill="#493130" d="M34,47h1v1h-1V47z"/>
<path fill="#7FD096" d="M35,47h1v1h-1V47z"/>
<path fill="#010101" d="M36,47h2v1h-2V47z"/>
<path fill="#030303" d="M51,47h1v1h-1V47z"/>
<path fill="#010101" d="M55,47h1v2h-1V47z"/>
<path fill="#493130" d="M56,47h1v1h-1V47z"/>
<path fill="#7FD096" d="M57,47h1v1h-1V47z"/>
<path fill="#533C32" d="M58,47h1v1h-1V47z"/>
<path fill="#010101" d="M59,47h2v1h-2V47z"/>
<path fill="#030303" d="M73,47h1v1h-1V47z"/>
<path fill="#493130" d="M80,47h2v1h-2V47z"/>
<path fill="#010101" d="M82,47h2v1h-2V47z"/>
<path fill="#030303" d="M7,48h1v1H7V48z"/>
<path fill="#7FD096" d="M10,48h1v1h-1V48z"/>
<path fill="#493130" d="M11,48h1v2h-1V48z"/>
<path fill="#7FD096" d="M12,48h2v1h-1v1h-1V48z"/>
<path fill="#493130" d="M14,48h1v1h-1V48z"/>
<path fill="#030303" d="M29,48h1v1h-1V48z"/>
<path fill="#030303" d="M32,48h1v1h-1V48z"/>
<path fill="#010101" d="M33,48h1v1h-1V48z"/>
<path fill="#7FD096" d="M34,48h1v1h-1V48z"/>
<path fill="#493130" d="M35,48h1v2h-1V48z"/>
<path fill="#7FD096" d="M36,48h2v1h-1v1h-1V48z"/>
<path fill="#493130" d="M38,48h1v2h-1V48z"/>
<path fill="#030303" d="M53,48h1v1h-1V48z"/>
<path fill="#7FD096" d="M56,48h1v1h-1V48z"/>
<path fill="#493130" d="M57,48h1v2h-1V48z"/>
<path fill="#7FD096" d="M58,48h2v1h-1v1h-1V48z"/>
<path fill="#493130" d="M60,48h1v1h-1V48z"/>
<path fill="#030303" d="M75,48h1v1h-1V48z"/>
<path fill="#030303" d="M78,48h1v1h-1V48z"/>
<path fill="#010101" d="M79,48h1v1h-1V48z"/>
<path fill="#7FD096" d="M80,48h2v1h-2V48z"/>
<path fill="#493130" d="M82,48h1v2h-1V48z"/>
<path fill="#7FD096" d="M83,48h1v2h-1V48z"/>
<path fill="#493130" d="M84,48h1v2h-1V48z"/>
<path fill="#493130" d="M8,49h1v2H8V49z"/>
<path fill="#E9F8ED" d="M9,49h1v1H9V49z"/>
<path fill="#59996B" d="M10,49h1v1h-1V49z"/>
<path fill="#59996B" d="M13,49h2v1h-2V49z"/>
<path fill="#493130" d="M15,49h1v1h-1V49z"/>
<path fill="#010101" d="M31,49h1v3h-2v-2h1V49z"/>
<path fill="#59996B" d="M32,49h1v1h-1V49z"/>
<path fill="#F8E8E8" d="M33,49h2v1h-2V49z"/>
<path fill="#59996B" d="M37,49h1v1h-1V49z"/>
<path fill="#493130" d="M54,49h1v2h-1V49z"/>
<path fill="#E9F8ED" d="M55,49h1v1h-1V49z"/>
<path fill="#59996B" d="M56,49h1v1h-1V49z"/>
<path fill="#59996B" d="M59,49h2v1h-2V49z"/>
<path fill="#493130" d="M61,49h1v1h-1V49z"/>
<path fill="#010101" d="M77,49h1v1h-1V49z"/>
<path fill="#B8B0D8" d="M78,49h1v1h-1V49z"/>
<path fill="#493130" d="M79,49h1v2h-1V49z"/>
<path fill="#F8E8E8" d="M80,49h1v1h-1V49z"/>
<path fill="#59996B" d="M81,49h1v1h-1V49z"/>
<path fill="#010101" d="M7,50h1v2H7V50z"/>
<path fill="#59996B" d="M9,50h1v1H9V50z"/>
<path fill="#815C4D" d="M10,50h2v1h-2V50z"/>
<path fill="#211814" d="M12,50h1v2h-1V50z"/>
<path fill="#B8B0D8" d="M13,50h2v2h-1v1h-2v-1h1V50z"/>
<path fill="#010101" d="M15,50h1v2h-1V50z"/>
<path fill="#815C4D" d="M32,50h2v1h-2V50z"/>
<path fill="#010101" d="M34,50h1v2h-1V50z"/>
<path fill="#59996B" d="M35,50h2v1h-2V50z"/>
<path fill="#E8E8F8" d="M37,50h2v2h-1v1h-2v-1h-1v-1h2V50z"/>
<path fill="#010101" d="M39,50h1v2h-1V50z"/>
<path fill="#010101" d="M53,50h1v2h-1V50z"/>
<path fill="#59996B" d="M55,50h1v1h-1V50z"/>
<path fill="#815C4D" d="M56,50h2v1h-2V50z"/>
<path fill="#211814" d="M58,50h1v2h-1V50z"/>
<path fill="#B8B0D8" d="M59,50h2v2h-1v1h-2v-1h1V50z"/>
<path fill="#010101" d="M61,50h1v2h-1V50z"/>
<path fill="#010101" d="M76,50h1v3h-1V50z"/>
<path fill="#7FD096" d="M77,50h1v1h2v1h-1v1h-1v-1h-1V50z"/>
<path fill="#59996B" d="M78,50h1v1h-1V50z"/>
<path fill="#59996B" d="M80,50h1v1h-1V50z"/>
<path fill="#815C4D" d="M81,50h2v1h-2V50z"/>
<path fill="#211814" d="M83,50h1v2h-1V50z"/>
<path fill="#B8B0D8" d="M84,50h1v2h-1V50z"/>
<path fill="#010101" d="M85,50h1v2h-1V50z"/>
<path fill="#59996B" d="M8,51h1v1H8V51z"/>
<path fill="#010101" d="M9,51h1v1H9V51z"/>
<path fill="#533C32" d="M10,51h2v1h-2V51z"/>
<path fill="#533C32" d="M32,51h2v1h-2V51z"/>
<path fill="#59996B" d="M54,51h1v1h-1V51z"/>
<path fill="#010101" d="M55,51h1v1h-1V51z"/>
<path fill="#533C32" d="M56,51h2v1h-2V51z"/>
<path fill="#010101" d="M80,51h1v1h-1V51z"/>
<path fill="#533C32" d="M81,51h2v1h-2V51z"/>
<path fill="#010101" d="M8,52h1v1H8V52z"/>
<path fill="#59996B" d="M9,52h1v1H9V52z"/>
<path fill="#010101" d="M10,52h2v1h-2V52z"/>
<path fill="#010101" d="M14,52h1v1h-1V52z"/>
<path fill="#010101" d="M29,52h1v3h-1V52z"/>
<path fill="#533C32" d="M30,52h1v1h-1V52z"/>
<path fill="#493130" d="M31,52h1v1h-1V52z"/>
<path fill="#010101" d="M32,52h2v1h-2V52z"/>
<path fill="#B8B0D8" d="M34,52h2v2h-1v-1h-1V52z"/>
<path fill="#010101" d="M38,52h1v1h-1V52z"/>
<path fill="#010101" d="M54,52h1v1h-1V52z"/>
<path fill="#59996B" d="M55,52h1v1h-1V52z"/>
<path fill="#010101" d="M56,52h2v1h-2V52z"/>
<path fill="#010101" d="M60,52h1v1h-1V52z"/>
<path fill="#493130" d="M77,52h1v1h-1V52z"/>
<path fill="#59996B" d="M79,52h1v1h-1V52z"/>
<path fill="#B8B0D8" d="M80,52h1v1h-1V52z"/>
<path fill="#211814" d="M81,52h2v1h-2V52z"/>
<path fill="#493130" d="M83,52h2v1h-2V52z"/>
<path fill="#585898" d="M85,52h1v1h-1V52z"/>
<path fill="#010101" d="M9,53h1v1H9V53z"/>
<path fill="#585898" d="M10,53h3v1h-3V53z"/>
<path fill="#010101" d="M13,53h1v1h-1V53z"/>
<path fill="#585898" d="M30,53h1v1h1v1h-2V53z"/>
<path fill="#533C32" d="M31,53h2v1h-2V53z"/>
<path fill="#493130" d="M33,53h2v1h-2V53z"/>
<path fill="#010101" d="M36,53h1v1h-1V53z"/>
<path fill="#585898" d="M37,53h1v1h-1V53z"/>
<path fill="#6890E0" d="M38,53h2v1h-1v1h-3v-1h2V53z"/>
<path fill="#010101" d="M55,53h1v1h-1V53z"/>
<path fill="#585898" d="M56,53h3v1h-3V53z"/>
<path fill="#010101" d="M59,53h1v1h-1V53z"/>
<path fill="#010101" d="M75,53h1v2h-1V53z"/>
<path fill="#6890E0" d="M76,53h1v1h1v1h-2V53z"/>
<path fill="#815C4D" d="M77,53h2v1h-2V53z"/>
<path fill="#010101" d="M79,53h4v1h-4V53z"/>
<path fill="#585898" d="M83,53h2v1h-2V53z"/>
<path fill="#010101" d="M85,53h1v1h-1V53z"/>
<path fill="#010101" d="M10,54h3v1h-3V54z"/>
<path fill="#010101" d="M32,54h1v1h-1V54z"/>
<path fill="#010101" d="M34,54h2v1h-2V54z"/>
<path fill="#010101" d="M39,54h1v1h-1V54z"/>
<path fill="#010101" d="M56,54h3v1h-3V54z"/>
<path fill="#010101" d="M78,54h1v1h-1V54z"/>
<path fill="#010101" d="M83,54h2v1h-2V54z"/>
<path fill="#010101" d="M30,55h2v1h-2V55z"/>
<path fill="#010101" d="M36,55h3v1h-3V55z"/>
<path fill="#010101" d="M76,55h2v1h-2V55z"/>
<path fill="#373840" d="M9,60h5v1H9V60z"/>
<path fill="#373840" d="M32,60h5v1h-5V60z"/>
<path fill="#373840" d="M55,60h5v1h-5V60z"/>
<path fill="#373840" d="M78,60h5v1h-5V60z"/>
<path fill="#373840" d="M7,61h2v1H7V61z"/>
<path fill="#707688" d="M9,61h1v1H9V61z"/>
<path fill="#515060" d="M10,61h2v1h-1v1h-1v1h1v1h1v-1h1v-1h-1v-1h1v-1h1v1h2v1h1v2h1v2h1v3h-1v1h-1v1h-2v-1h-1v1h-1v1h-3v-1H9v-1H8
	v1H6v-1H5v-1H4v-3h1v-2h1v-2h1v2h1v1h2v-1H9v-3h1V61z"/>
<path fill="#707688" d="M12,61h1v1h-1V61z"/>
<path fill="#373840" d="M14,61h2v1h-2V61z"/>
<path fill="#373840" d="M30,61h2v1h-2V61z"/>
<path fill="#707688" d="M32,61h1v1h-1V61z"/>
<path fill="#515060" d="M33,61h2v1h-1v1h-1v1h1v1h1v-1h1v-1h-1v-1h1v-1h1v1h2v1h1v2h1v5h-1v1h-1v1h-2v-1h-1v1h-1v1h-3v-1h-1v-2h-1v1
	h-2v-1h-1v-3h1v-2h1v-2h1v2h1v1h2v-1h-1v-3h1V61z"/>
<path fill="#707688" d="M35,61h1v1h-1V61z"/>
<path fill="#373840" d="M37,61h2v1h-2V61z"/>
<path fill="#373840" d="M53,61h2v1h-2V61z"/>
<path fill="#707688" d="M55,61h1v1h-1V61z"/>
<path fill="#515060" d="M56,61h2v1h-1v1h-1v1h1v1h1v-1h1v-1h-1v-1h1v-1h1v1h2v1h1v2h1v2h1v3h-1v1h-1v1h-2v-1h-1v1h-1v1h-3v-1h-1v-1
	h-1v1h-2v-1h-1v-1h-1v-3h1v-2h1v-2h1v2h1v1h2v-1h-1v-3h1V61z"/>
<path fill="#707688" d="M58,61h1v1h-1V61z"/>
<path fill="#373840" d="M60,61h2v1h-2V61z"/>
<path fill="#373840" d="M76,61h2v1h-2V61z"/>
<path fill="#707688" d="M78,61h1v1h-1V61z"/>
<path fill="#515060" d="M79,61h2v1h-1v1h-1v1h1v1h1v-1h1v-1h-1v-1h1v-1h1v1h2v1h1v2h1v2h1v3h-1v1h-2v-1h-1v2h-1v1h-3v-1h-1v-1h-1v1
	h-2v-1h-1v-1h-1v-5h1v-2h1v2h1v1h2v-1h-1v-3h1V61z"/>
<path fill="#707688" d="M81,61h1v1h-1V61z"/>
<path fill="#373840" d="M83,61h2v1h-2V61z"/>
<path fill="#373840" d="M6,62h1v1H6V62z"/>
<path fill="#515060" d="M7,62h1v1H7V62z"/>
<path fill="#707688" d="M8,62h1v3h1v1H8v-1H7v-2h1V62z"/>
<path fill="#373840" d="M11,62h1v1h1v1h-1v1h-1v-1h-1v-1h1V62z"/>
<path fill="#373840" d="M16,62h1v1h-1V62z"/>
<path fill="#373840" d="M29,62h1v1h-1V62z"/>
<path fill="#515060" d="M30,62h1v1h-1V62z"/>
<path fill="#707688" d="M31,62h1v3h1v1h-2v-1h-1v-2h1V62z"/>
<path fill="#373840" d="M34,62h1v1h1v1h-1v1h-1v-1h-1v-1h1V62z"/>
<path fill="#373840" d="M39,62h1v1h-1V62z"/>
<path fill="#373840" d="M52,62h1v1h-1V62z"/>
<path fill="#515060" d="M53,62h1v1h-1V62z"/>
<path fill="#707688" d="M54,62h1v3h1v1h-2v-1h-1v-2h1V62z"/>
<path fill="#373840" d="M57,62h1v1h1v1h-1v1h-1v-1h-1v-1h1V62z"/>
<path fill="#373840" d="M62,62h1v1h-1V62z"/>
<path fill="#373840" d="M75,62h1v1h-1V62z"/>
<path fill="#515060" d="M76,62h1v1h-1V62z"/>
<path fill="#707688" d="M77,62h1v3h1v1h-2v-1h-1v-2h1V62z"/>
<path fill="#373840" d="M80,62h1v1h1v1h-1v1h-1v-1h-1v-1h1V62z"/>
<path fill="#373840" d="M85,62h1v1h-1V62z"/>
<path fill="#373840" d="M5,63h1v2H5V63z"/>
<path fill="#707688" d="M14,63h1v2h-1V63z"/>
<path fill="#373840" d="M17,63h1v2h-1V63z"/>
<path fill="#373840" d="M28,63h1v2h-1V63z"/>
<path fill="#707688" d="M37,63h1v2h-1V63z"/>
<path fill="#373840" d="M40,63h1v2h-1V63z"/>
<path fill="#373840" d="M51,63h1v2h-1V63z"/>
<path fill="#707688" d="M60,63h1v2h-1V63z"/>
<path fill="#373840" d="M63,63h1v2h-1V63z"/>
<path fill="#373840" d="M74,63h1v2h-1V63z"/>
<path fill="#707688" d="M83,63h1v2h-1V63z"/>
<path fill="#373840" d="M86,63h1v2h-1V63z"/>
<path fill="#373840" d="M4,65h1v1H4V65z"/>
<path fill="#707688" d="M13,65h1v1h-1V65z"/>
<path fill="#373840" d="M18,65h1v1h-1V65z"/>
<path fill="#373840" d="M27,65h1v1h-1V65z"/>
<path fill="#707688" d="M36,65h1v1h-1V65z"/>
<path fill="#373840" d="M41,65h1v1h-1V65z"/>
<path fill="#373840" d="M50,65h1v1h-1V65z"/>
<path fill="#707688" d="M59,65h1v1h-1V65z"/>
<path fill="#373840" d="M64,65h1v1h-1V65z"/>
<path fill="#373840" d="M73,65h1v1h-1V65z"/>
<path fill="#707688" d="M82,65h1v1h-1V65z"/>
<path fill="#373840" d="M87,65h1v1h-1V65z"/>
<path fill="#030303" d="M4,66h1v1H4V66z"/>
<path fill="#707688" d="M10,66h2v1h-2V66z"/>
<path fill="#030303" d="M18,66h1v1h-1V66z"/>
<path fill="#030303" d="M27,66h1v1h-1V66z"/>
<path fill="#707688" d="M33,66h2v1h-2V66z"/>
<path fill="#030303" d="M41,66h1v1h-1V66z"/>
<path fill="#030303" d="M50,66h1v1h-1V66z"/>
<path fill="#707688" d="M56,66h2v1h-2V66z"/>
<path fill="#030303" d="M64,66h1v1h-1V66z"/>
<path fill="#030303" d="M73,66h1v1h-1V66z"/>
<path fill="#707688" d="M79,66h2v1h-2V66z"/>
<path fill="#030303" d="M87,66h1v1h-1V66z"/>
<path fill="#030303" d="M3,67h1v2H3V67z"/>
<path fill="#030303" d="M19,67h1v2h-1V67z"/>
<path fill="#030303" d="M26,67h1v2h-1V67z"/>
<path fill="#373840" d="M41,67h1v6h-1v2h-1v1h-1v1h-2v1h-1v-1h-6v-1h-2v-1h-1v-2h-1v-4h1v1h1v1h2v-1h1v2h1v1h3v-1h1v-1h1v1h2v-1h1
	v-1h1V67z"/>
<path fill="#030303" d="M42,67h1v6h-1V67z"/>
<path fill="#030303" d="M49,67h1v2h-1V67z"/>
<path fill="#030303" d="M65,67h1v2h-1V67z"/>
<path fill="#030303" d="M72,67h1v6h-1V67z"/>
<path fill="#373840" d="M73,67h1v3h1v1h1v1h2v-1h1v1h1v1h3v-1h1v-2h1v1h2v-1h1v-1h1v4h-1v2h-1v1h-2v1h-6v1h-1v-1h-2v-1h-1v-1h-1v-2
	h-1V67z"/>
<path fill="#030303" d="M88,67h1v2h-1V67z"/>
<path fill="#030303" d="M2,69h1v3H2V69z"/>
<path fill="#373840" d="M3,69h1v1h1v1h1v1h2v-1h1v1h1v1h3v-1h1v-1h1v1h2v-1h1v-1h1v-1h1v3h-1v2h-1v2h-1v-1h-1v1H7v-1H6v1H5v-2H4v-2
	H3V69z"/>
<path fill="#030303" d="M20,69h1v3h-1V69z"/>
<path fill="#030303" d="M25,69h1v4h-1V69z"/>
<path fill="#030303" d="M48,69h1v3h-1V69z"/>
<path fill="#373840" d="M49,69h1v1h1v1h1v1h2v-1h1v1h1v1h3v-1h1v-1h1v1h2v-1h1v-1h1v-1h1v3h-1v2h-1v2h-1v-1h-1v1h-9v-1h-1v1h-1v-2
	h-1v-2h-1V69z"/>
<path fill="#030303" d="M66,69h1v3h-1V69z"/>
<path fill="#030303" d="M89,69h1v4h-1V69z"/>
<path fill="#030303" d="M3,72h1v2H3V72z"/>
<path fill="#030303" d="M19,72h1v2h-1V72z"/>
<path fill="#030303" d="M49,72h1v2h-1V72z"/>
<path fill="#030303" d="M65,72h1v2h-1V72z"/>
<path fill="#030303" d="M26,73h1v2h-1V73z"/>
<path fill="#030303" d="M41,73h1v2h-1V73z"/>
<path fill="#030303" d="M73,73h1v2h-1V73z"/>
<path fill="#030303" d="M88,73h1v2h-1V73z"/>
<path fill="#030303" d="M4,74h1v1H4V74z"/>
<path fill="#030303" d="M18,74h1v1h-1V74z"/>
<path fill="#030303" d="M50,74h1v1h-1V74z"/>
<path fill="#030303" d="M64,74h1v1h-1V74z"/>
<path fill="#030303" d="M6,75h1v1H6V75z"/>
<path fill="#030303" d="M16,75h1v1h-1V75z"/>
<path fill="#303038" d="M26,75h1v2h-1V75z"/>
<path fill="#030303" d="M27,75h1v1h-1V75z"/>
<path fill="#030303" d="M40,75h1v3h-1V75z"/>
<path fill="#030303" d="M52,75h1v1h-1V75z"/>
<path fill="#030303" d="M62,75h1v1h-1V75z"/>
<path fill="#030303" d="M74,75h1v3h-1V75z"/>
<path fill="#030303" d="M87,75h1v1h-1V75z"/>
<path fill="#303038" d="M88,75h1v2h-1V75z"/>
<path fill="#211814" d="M4,76h1v1H4V76z"/>
<path fill="#030303" d="M5,76h1v1H5V76z"/>
<path fill="#59996B" d="M6,76h1v1H6V76z"/>
<path fill="#303038" d="M7,76h1v1H7V76z"/>
<path fill="#030303" d="M8,76h7v1H8V76z"/>
<path fill="#303038" d="M15,76h1v1h-1V76z"/>
<path fill="#59996B" d="M16,76h1v1h-1V76z"/>
<path fill="#030303" d="M17,76h1v1h-1V76z"/>
<path fill="#211814" d="M18,76h1v1h-1V76z"/>
<path fill="#533C32" d="M27,76h1v1h-1V76z"/>
<path fill="#F8E8E8" d="M28,76h1v1h-1V76z"/>
<path fill="#030303" d="M29,76h1v1h-1V76z"/>
<path fill="#7FD096" d="M39,76h1v1h-1V76z"/>
<path fill="#211814" d="M50,76h1v1h-1V76z"/>
<path fill="#030303" d="M51,76h1v1h-1V76z"/>
<path fill="#59996B" d="M52,76h1v1h-1V76z"/>
<path fill="#303038" d="M53,76h1v1h-1V76z"/>
<path fill="#030303" d="M54,76h7v1h-7V76z"/>
<path fill="#303038" d="M61,76h1v1h-1V76z"/>
<path fill="#59996B" d="M62,76h1v1h-1V76z"/>
<path fill="#030303" d="M63,76h1v1h-1V76z"/>
<path fill="#211814" d="M64,76h1v1h-1V76z"/>
<path fill="#7FD096" d="M75,76h1v1h-1V76z"/>
<path fill="#030303" d="M85,76h1v1h-1V76z"/>
<path fill="#F8E8E8" d="M86,76h1v1h-1V76z"/>
<path fill="#533C32" d="M87,76h1v1h-1V76z"/>
<path fill="#211814" d="M3,77h1v2H3V77z"/>
<path fill="#815C4D" d="M4,77h1v1H4V77z"/>
<path fill="#59996B" d="M5,77h1v1H5V77z"/>
<path fill="#7FD096" d="M6,77h1v1H6V77z"/>
<path fill="#59996B" d="M7,77h1v1H7V77z"/>
<path fill="#303038" d="M8,77h1v1H8V77z"/>
<path fill="#59996B" d="M9,77h5v1H9V77z"/>
<path fill="#303038" d="M14,77h1v1h-1V77z"/>
<path fill="#59996B" d="M15,77h1v1h-1V77z"/>
<path fill="#7FD096" d="M16,77h1v1h-1V77z"/>
<path fill="#59996B" d="M17,77h1v1h-1V77z"/>
<path fill="#815C4D" d="M18,77h1v1h-1V77z"/>
<path fill="#211814" d="M19,77h1v2h-1V77z"/>
<path fill="#303038" d="M27,77h2v1h-2V77z"/>
<path fill="#59996B" d="M29,77h2v1h-2V77z"/>
<path fill="#030303" d="M31,77h5v1h-5V77z"/>
<path fill="#030303" d="M37,77h1v1h-1V77z"/>
<path fill="#7FD096" d="M38,77h1v1h-1V77z"/>
<path fill="#59996B" d="M39,77h1v1h-1V77z"/>
<path fill="#211814" d="M49,77h1v2h-1V77z"/>
<path fill="#815C4D" d="M50,77h1v1h-1V77z"/>
<path fill="#59996B" d="M51,77h1v1h-1V77z"/>
<path fill="#7FD096" d="M52,77h1v1h-1V77z"/>
<path fill="#59996B" d="M53,77h1v1h-1V77z"/>
<path fill="#303038" d="M54,77h1v1h-1V77z"/>
<path fill="#59996B" d="M55,77h5v1h-5V77z"/>
<path fill="#303038" d="M60,77h1v1h-1V77z"/>
<path fill="#59996B" d="M61,77h1v1h-1V77z"/>
<path fill="#7FD096" d="M62,77h1v1h-1V77z"/>
<path fill="#59996B" d="M63,77h1v1h-1V77z"/>
<path fill="#815C4D" d="M64,77h1v1h-1V77z"/>
<path fill="#211814" d="M65,77h1v2h-1V77z"/>
<path fill="#59996B" d="M75,77h1v1h-1V77z"/>
<path fill="#7FD096" d="M76,77h1v1h-1V77z"/>
<path fill="#030303" d="M77,77h1v1h-1V77z"/>
<path fill="#030303" d="M79,77h5v1h-5V77z"/>
<path fill="#59996B" d="M84,77h2v1h-2V77z"/>
<path fill="#303038" d="M86,77h2v1h-2V77z"/>
<path fill="#533C32" d="M4,78h2v1H4V78z"/>
<path fill="#303038" d="M6,78h1v1H6V78z"/>
<path fill="#786868" d="M7,78h1v1H7V78z"/>
<path fill="#59996B" d="M8,78h1v1H8V78z"/>
<path fill="#E8E8F8" d="M9,78h2v1h-1v1H9V78z"/>
<path fill="#686878" d="M11,78h1v2h-1V78z"/>
<path fill="#E8E8F8" d="M12,78h2v2h-1v-1h-1V78z"/>
<path fill="#59996B" d="M14,78h1v1h-1V78z"/>
<path fill="#786868" d="M15,78h1v1h-1V78z"/>
<path fill="#303038" d="M16,78h1v1h-1V78z"/>
<path fill="#533C32" d="M17,78h2v1h-2V78z"/>
<path fill="#303038" d="M29,78h1v1h-1V78z"/>
<path fill="#786868" d="M30,78h1v1h-1V78z"/>
<path fill="#59996B" d="M31,78h1v2h-1V78z"/>
<path fill="#E8E8F8" d="M32,78h2v1h-1v1h-1V78z"/>
<path fill="#686878" d="M34,78h1v2h-1V78z"/>
<path fill="#E8E8F8" d="M35,78h2v2h-1v-1h-1V78z"/>
<path fill="#59996B" d="M37,78h1v2h-1V78z"/>
<path fill="#303038" d="M38,78h1v1h-1V78z"/>
<path fill="#815C4D" d="M39,78h2v1h-2V78z"/>
<path fill="#030303" d="M41,78h1v2h-1V78z"/>
<path fill="#533C32" d="M50,78h2v1h-2V78z"/>
<path fill="#303038" d="M52,78h1v1h-1V78z"/>
<path fill="#786868" d="M53,78h1v1h-1V78z"/>
<path fill="#59996B" d="M54,78h1v1h-1V78z"/>
<path fill="#E8E8F8" d="M55,78h2v1h-1v1h-1V78z"/>
<path fill="#686878" d="M57,78h1v2h-1V78z"/>
<path fill="#E8E8F8" d="M58,78h2v2h-1v-1h-1V78z"/>
<path fill="#59996B" d="M60,78h1v1h-1V78z"/>
<path fill="#786868" d="M61,78h1v1h-1V78z"/>
<path fill="#303038" d="M62,78h1v1h-1V78z"/>
<path fill="#533C32" d="M63,78h2v1h-2V78z"/>
<path fill="#030303" d="M73,78h1v2h-1V78z"/>
<path fill="#815C4D" d="M74,78h2v1h-2V78z"/>
<path fill="#303038" d="M76,78h1v1h-1V78z"/>
<path fill="#59996B" d="M77,78h1v2h-1V78z"/>
<path fill="#E8E8F8" d="M78,78h2v1h-1v1h-1V78z"/>
<path fill="#686878" d="M80,78h1v2h-1V78z"/>
<path fill="#E8E8F8" d="M81,78h2v2h-1v-1h-1V78z"/>
<path fill="#59996B" d="M83,78h1v2h-1V78z"/>
<path fill="#786868" d="M84,78h1v1h-1V78z"/>
<path fill="#303038" d="M85,78h1v1h-1V78z"/>
<path fill="#211814" d="M4,79h2v1H4V79z"/>
<path fill="#030303" d="M6,79h1v3H6V79z"/>
<path fill="#7FD096" d="M7,79h1v1h1v1h1v1H8v-1H7V79z"/>
<path fill="#786868" d="M8,79h1v1H8V79z"/>
<path fill="#B8B0D8" d="M10,79h1v1h-1V79z"/>
<path fill="#B8B0D8" d="M12,79h1v1h-1V79z"/>
<path fill="#786868" d="M14,79h1v1h-1V79z"/>
<path fill="#7FD096" d="M15,79h1v2h-1v1h-2v-1h1v-1h1V79z"/>
<path fill="#030303" d="M16,79h1v3h-1V79z"/>
<path fill="#211814" d="M17,79h2v1h-2V79z"/>
<path fill="#030303" d="M29,79h1v2h-1V79z"/>
<path fill="#7FD096" d="M30,79h1v1h-1V79z"/>
<path fill="#B8B0D8" d="M33,79h1v1h-1V79z"/>
<path fill="#B8B0D8" d="M35,79h1v1h-1V79z"/>
<path fill="#030303" d="M38,79h1v1h2v1h-2v1h-2v-1h1V79z"/>
<path fill="#533C32" d="M39,79h2v1h-2V79z"/>
<path fill="#211814" d="M50,79h2v1h-2V79z"/>
<path fill="#030303" d="M52,79h1v3h-1V79z"/>
<path fill="#7FD096" d="M53,79h1v1h1v1h1v1h-2v-1h-1V79z"/>
<path fill="#786868" d="M54,79h1v1h-1V79z"/>
<path fill="#B8B0D8" d="M56,79h1v1h-1V79z"/>
<path fill="#B8B0D8" d="M58,79h1v1h-1V79z"/>
<path fill="#786868" d="M60,79h1v1h-1V79z"/>
<path fill="#7FD096" d="M61,79h1v2h-1v1h-2v-1h1v-1h1V79z"/>
<path fill="#030303" d="M62,79h1v3h-1V79z"/>
<path fill="#211814" d="M63,79h2v1h-2V79z"/>
<path fill="#533C32" d="M74,79h2v1h-2V79z"/>
<path fill="#030303" d="M76,79h1v2h1v1h-2v-1h-2v-1h2V79z"/>
<path fill="#B8B0D8" d="M79,79h1v1h-1V79z"/>
<path fill="#B8B0D8" d="M81,79h1v1h-1V79z"/>
<path fill="#7FD096" d="M84,79h1v1h-1V79z"/>
<path fill="#030303" d="M85,79h1v2h-1V79z"/>
<path fill="#786868" d="M9,80h1v1H9V80z"/>
<path fill="#E8E8F8" d="M10,80h1v1h-1V80z"/>
<path fill="#B8B0D8" d="M11,80h1v1h-1V80z"/>
<path fill="#E8E8F8" d="M12,80h1v1h-1V80z"/>
<path fill="#786868" d="M13,80h1v1h-1V80z"/>
<path fill="#786868" d="M30,80h1v1h-1V80z"/>
<path fill="#7FD096" d="M31,80h1v1h-1V80z"/>
<path fill="#59996B" d="M32,80h1v1h-1V80z"/>
<path fill="#E8E8F8" d="M33,80h1v1h-1V80z"/>
<path fill="#B8B0D8" d="M34,80h1v1h-1V80z"/>
<path fill="#E8E8F8" d="M35,80h1v1h-1V80z"/>
<path fill="#59996B" d="M36,80h1v2h-2v1h-3v-1h2v-1h2V80z"/>
<path fill="#7FD096" d="M37,80h1v1h-1V80z"/>
<path fill="#786868" d="M55,80h1v1h-1V80z"/>
<path fill="#E8E8F8" d="M56,80h1v1h-1V80z"/>
<path fill="#B8B0D8" d="M57,80h1v1h-1V80z"/>
<path fill="#E8E8F8" d="M58,80h1v1h-1V80z"/>
<path fill="#786868" d="M59,80h1v1h-1V80z"/>
<path fill="#7FD096" d="M77,80h1v1h-1V80z"/>
<path fill="#59996B" d="M78,80h1v1h2v1h2v1h-3v-1h-2V80z"/>
<path fill="#E8E8F8" d="M79,80h1v1h-1V80z"/>
<path fill="#B8B0D8" d="M80,80h1v1h-1V80z"/>
<path fill="#E8E8F8" d="M81,80h1v1h-1V80z"/>
<path fill="#59996B" d="M82,80h1v1h-1V80z"/>
<path fill="#7FD096" d="M83,80h1v1h-1V80z"/>
<path fill="#786868" d="M84,80h1v1h-1V80z"/>
<path fill="#686878" d="M7,81h1v1H7V81z"/>
<path fill="#786868" d="M10,81h3v1h-3V81z"/>
<path fill="#686878" d="M15,81h1v1h-1V81z"/>
<path fill="#030303" d="M30,81h1v2h-1V81z"/>
<path fill="#59996B" d="M31,81h1v1h-1V81z"/>
<path fill="#7FD096" d="M32,81h2v1h-2V81z"/>
<path fill="#686878" d="M53,81h1v1h-1V81z"/>
<path fill="#786868" d="M56,81h3v1h-3V81z"/>
<path fill="#686878" d="M61,81h1v1h-1V81z"/>
<path fill="#7FD096" d="M81,81h2v1h-2V81z"/>
<path fill="#59996B" d="M83,81h1v1h-1V81z"/>
<path fill="#030303" d="M84,81h1v2h-1V81z"/>
<path fill="#030303" d="M7,82h1v1H7V82z"/>
<path fill="#585898" d="M8,82h2v1H8V82z"/>
<path fill="#303038" d="M10,82h3v1h-3V82z"/>
<path fill="#585898" d="M13,82h2v1h-2V82z"/>
<path fill="#030303" d="M15,82h1v1h-1V82z"/>
<path fill="#533C32" d="M31,82h1v1h-1V82z"/>
<path fill="#030303" d="M35,82h2v1h-2V82z"/>
<path fill="#030303" d="M53,82h1v1h-1V82z"/>
<path fill="#585898" d="M54,82h2v1h-2V82z"/>
<path fill="#303038" d="M56,82h3v1h-3V82z"/>
<path fill="#585898" d="M59,82h2v1h-2V82z"/>
<path fill="#030303" d="M61,82h1v1h-1V82z"/>
<path fill="#030303" d="M78,82h2v1h-2V82z"/>
<path fill="#533C32" d="M83,82h1v1h-1V82z"/>
<path fill="#030303" d="M8,83h2v1H8V83z"/>
<path fill="#030303" d="M13,83h2v1h-2V83z"/>
<path fill="#030303" d="M31,83h1v2h-1V83z"/>
<path fill="#815C4D" d="M32,83h2v1h-2V83z"/>
<path fill="#030303" d="M34,83h1v2h-1V83z"/>
<path fill="#030303" d="M54,83h2v1h-2V83z"/>
<path fill="#030303" d="M59,83h2v1h-2V83z"/>
<path fill="#030303" d="M80,83h1v2h-1V83z"/>
<path fill="#815C4D" d="M81,83h2v1h-2V83z"/>
<path fill="#030303" d="M83,83h1v2h-1V83z"/>
<path fill="#6890E0" d="M32,84h2v1h-2V84z"/>
<path fill="#6890E0" d="M81,84h2v1h-2V84z"/>
<path fill="#030303" d="M32,85h2v1h-2V85z"/>
<path fill="#030303" d="M81,85h2v1h-2V85z"/>
<path fill="#373840" d="M9,89h5v1H9V89z"/>
<path fill="#373840" d="M32,89h5v1h-5V89z"/>
<path fill="#373840" d="M55,89h5v1h-5V89z"/>
<path fill="#373840" d="M78,89h5v1h-5V89z"/>
<path fill="#373840" d="M7,90h2v1H7V90z"/>
<path fill="#515060" d="M9,90h5v1h2v1h1v1h1v2h1v4h-1v1h-2v-1h-1v1h1v1h-2v-1h-2v-1h-2v-1H9v1h1v1H8v-1H6v-1H5v-1H4v-2h1v-2h1v-1h1
	v-1h2V90z"/>
<path fill="#373840" d="M14,90h2v1h-2V90z"/>
<path fill="#373840" d="M30,90h2v1h-2V90z"/>
<path fill="#515060" d="M32,90h5v1h2v1h1v1h1v2h1v1h1v3h-1v1h-2v-1h-1v1h1v1h-3v-1h-2v-1h-2v-1h-1v1h1v1h-2v-1h-2v-1h-1v-1h-1v-2h1
	v-2h1v-1h1v-1h2V90z"/>
<path fill="#373840" d="M37,90h2v1h-2V90z"/>
<path fill="#373840" d="M53,90h2v1h-2V90z"/>
<path fill="#515060" d="M55,90h5v1h2v1h1v1h1v2h1v4h-1v1h-2v-1h-1v1h1v1h-2v-1h-2v-1h-2v-1h-1v1h1v1h-2v-1h-2v-1h-1v-1h-1v-2h1v-2h1
	v-1h1v-1h2V90z"/>
<path fill="#373840" d="M60,90h2v1h-2V90z"/>
<path fill="#373840" d="M76,90h2v1h-2V90z"/>
<path fill="#515060" d="M78,90h5v1h2v1h1v1h1v2h1v1h1v3h-1v1h-2v-1h-1v1h1v1h-3v-1h-2v-1h-2v-1h-1v1h1v1h-2v-1h-2v-1h-1v-1h-1v-2h1
	v-2h1v-1h1v-1h2V90z"/>
<path fill="#373840" d="M83,90h2v1h-2V90z"/>
<path fill="#373840" d="M6,91h1v1H6V91z"/>
<path fill="#707688" d="M9,91h1v1H9V91z"/>
<path fill="#707688" d="M12,91h1v1h-1V91z"/>
<path fill="#373840" d="M16,91h1v1h-1V91z"/>
<path fill="#373840" d="M29,91h1v1h-1V91z"/>
<path fill="#707688" d="M32,91h1v1h-1V91z"/>
<path fill="#707688" d="M35,91h1v1h-1V91z"/>
<path fill="#373840" d="M39,91h1v1h-1V91z"/>
<path fill="#373840" d="M52,91h1v1h-1V91z"/>
<path fill="#707688" d="M55,91h1v1h-1V91z"/>
<path fill="#707688" d="M58,91h1v1h-1V91z"/>
<path fill="#373840" d="M62,91h1v1h-1V91z"/>
<path fill="#373840" d="M75,91h1v1h-1V91z"/>
<path fill="#707688" d="M78,91h1v1h-1V91z"/>
<path fill="#707688" d="M81,91h1v1h-1V91z"/>
<path fill="#373840" d="M85,91h1v1h-1V91z"/>
<path fill="#030303" d="M5,92h1v1H5V92z"/>
<path fill="#707688" d="M8,92h1v3h1v1H8v-1H7v-2h1V92z"/>
<path fill="#373840" d="M11,92h2v1h-1v1h-2v-1h1V92z"/>
<path fill="#030303" d="M17,92h1v1h-1V92z"/>
<path fill="#030303" d="M28,92h1v1h-1V92z"/>
<path fill="#707688" d="M31,92h1v3h1v1h-2v-1h-1v-2h1V92z"/>
<path fill="#373840" d="M34,92h2v1h-1v1h-2v-1h1V92z"/>
<path fill="#030303" d="M40,92h1v1h-1V92z"/>
<path fill="#030303" d="M51,92h1v1h-1V92z"/>
<path fill="#707688" d="M54,92h1v3h1v1h-2v-1h-1v-2h1V92z"/>
<path fill="#373840" d="M57,92h2v1h-1v1h-2v-1h1V92z"/>
<path fill="#030303" d="M63,92h1v1h-1V92z"/>
<path fill="#030303" d="M74,92h1v1h-1V92z"/>
<path fill="#707688" d="M77,92h1v3h1v1h-2v-1h-1v-2h1V92z"/>
<path fill="#373840" d="M80,92h2v1h-1v1h-2v-1h1V92z"/>
<path fill="#030303" d="M86,92h1v1h-1V92z"/>
<path fill="#030303" d="M4,93h1v2H4V93z"/>
<path fill="#707688" d="M14,93h1v2h-1V93z"/>
<path fill="#030303" d="M18,93h1v1h-1V93z"/>
<path fill="#030303" d="M27,93h1v2h-1V93z"/>
<path fill="#707688" d="M37,93h1v2h-1V93z"/>
<path fill="#030303" d="M41,93h1v1h-1V93z"/>
<path fill="#030303" d="M50,93h1v2h-1V93z"/>
<path fill="#707688" d="M60,93h1v2h-1V93z"/>
<path fill="#030303" d="M64,93h1v1h-1V93z"/>
<path fill="#030303" d="M73,93h1v2h-1V93z"/>
<path fill="#707688" d="M83,93h1v2h-1V93z"/>
<path fill="#030303" d="M87,93h1v1h-1V93z"/>
<path fill="#373840" d="M18,94h1v1h-1V94z"/>
<path fill="#373840" d="M41,94h1v1h-1V94z"/>
<path fill="#373840" d="M64,94h1v1h-1V94z"/>
<path fill="#373840" d="M87,94h1v1h-1V94z"/>
<path fill="#030303" d="M3,95h1v3H3V95z"/>
<path fill="#707688" d="M13,95h1v1h-1V95z"/>
<path fill="#030303" d="M19,95h1v2h-1V95z"/>
<path fill="#030303" d="M26,95h1v3h-1V95z"/>
<path fill="#707688" d="M36,95h1v1h-1V95z"/>
<path fill="#373840" d="M42,95h1v1h-1V95z"/>
<path fill="#030303" d="M49,95h1v3h-1V95z"/>
<path fill="#707688" d="M59,95h1v1h-1V95z"/>
<path fill="#030303" d="M65,95h1v2h-1V95z"/>
<path fill="#030303" d="M72,95h1v3h-1V95z"/>
<path fill="#707688" d="M82,95h1v1h-1V95z"/>
<path fill="#373840" d="M88,95h1v1h-1V95z"/>
<path fill="#707688" d="M10,96h2v1h-2V96z"/>
<path fill="#707688" d="M33,96h2v1h-2V96z"/>
<path fill="#030303" d="M43,96h1v1h-1V96z"/>
<path fill="#707688" d="M56,96h2v1h-2V96z"/>
<path fill="#707688" d="M79,96h2v1h-2V96z"/>
<path fill="#030303" d="M89,96h1v1h-1V96z"/>
<path fill="#373840" d="M4,97h1v1H4V97z"/>
<path fill="#373840" d="M19,97h1v5h-1v2h-1v1h-1v1h-2v1h-1v-2h-3v-1h4v-2h-4v-1H7v-1H5v-2h1v1h2v1h2v-1h2v1h2v1h2v-1h2v-1h1V97z"/>
<path fill="#373840" d="M27,97h1v1h-1V97z"/>
<path fill="#373840" d="M43,97h1v5h-1v2h-1v1h-1v1h-2v1h-2v-1h-2v-1h-1v-1h4v-2h-4v-1h-4v-1h-2v-2h1v1h2v1h2v-1h2v1h2v1h3v-1h2v-1h1
	V97z"/>
<path fill="#373840" d="M50,97h1v1h-1V97z"/>
<path fill="#373840" d="M65,97h1v5h-1v2h-1v1h-1v1h-2v1h-1v-2h-3v-1h4v-2h-4v-1h-4v-1h-2v-2h1v1h2v1h2v-1h2v1h2v1h2v-1h2v-1h1V97z"
	/>
<path fill="#373840" d="M73,97h1v1h-1V97z"/>
<path fill="#373840" d="M89,97h1v5h-1v2h-1v1h-1v1h-2v1h-2v-1h-2v-1h-1v-1h4v-2h-4v-1h-4v-1h-2v-2h1v1h2v1h2v-1h2v1h2v1h3v-1h2v-1h1
	V97z"/>
<path fill="#030303" d="M4,98h1v2H4V98z"/>
<path fill="#373840" d="M9,98h1v1H9V98z"/>
<path fill="#030303" d="M20,98h1v4h-1V98z"/>
<path fill="#030303" d="M27,98h1v2h-1V98z"/>
<path fill="#373840" d="M32,98h1v1h-1V98z"/>
<path fill="#030303" d="M44,98h1v4h-1V98z"/>
<path fill="#030303" d="M50,98h1v2h-1V98z"/>
<path fill="#373840" d="M55,98h1v1h-1V98z"/>
<path fill="#030303" d="M66,98h1v4h-1V98z"/>
<path fill="#030303" d="M73,98h1v2h-1V98z"/>
<path fill="#373840" d="M78,98h1v1h-1V98z"/>
<path fill="#030303" d="M90,98h1v4h-1V98z"/>
<path fill="#373840" d="M15,99h1v1h-1V99z"/>
<path fill="#373840" d="M39,99h1v1h-1V99z"/>
<path fill="#373840" d="M61,99h1v1h-1V99z"/>
<path fill="#373840" d="M85,99h1v1h-1V99z"/>
<path fill="#030303" d="M5,100h1v1H5V100z"/>
<path fill="#533C32" d="M6,100h1v1H6V100z"/>
<path fill="#211814" d="M28,100h1v2h-1V100z"/>
<path fill="#533C32" d="M29,100h1v1h-1V100z"/>
<path fill="#030303" d="M51,100h1v1h-1V100z"/>
<path fill="#533C32" d="M52,100h1v1h-1V100z"/>
<path fill="#211814" d="M74,100h1v2h-1V100z"/>
<path fill="#533C32" d="M75,100h1v1h-1V100z"/>
<path fill="#211814" d="M5,101h1v1H5V101z"/>
<path fill="#815C4D" d="M6,101h2v2h1v1H7v-1H6V101z"/>
<path fill="#285038" d="M8,101h1v1H8V101z"/>
<path fill="#A8A0C8" d="M9,101h1v1H9V101z"/>
<path fill="#515060" d="M10,101h1v1h-1V101z"/>
<path fill="#815C4D" d="M29,101h2v2h1v1h-2v-1h-1V101z"/>
<path fill="#285038" d="M31,101h1v1h-1V101z"/>
<path fill="#A8A0C8" d="M32,101h1v1h-1V101z"/>
<path fill="#515060" d="M33,101h1v1h-1V101z"/>
<path fill="#211814" d="M51,101h1v1h-1V101z"/>
<path fill="#815C4D" d="M52,101h2v2h1v1h-2v-1h-1V101z"/>
<path fill="#285038" d="M54,101h1v1h-1V101z"/>
<path fill="#A8A0C8" d="M55,101h1v1h-1V101z"/>
<path fill="#515060" d="M56,101h1v1h-1V101z"/>
<path fill="#815C4D" d="M75,101h2v2h1v1h-2v-1h-1V101z"/>
<path fill="#285038" d="M77,101h1v1h-1V101z"/>
<path fill="#A8A0C8" d="M78,101h1v1h-1V101z"/>
<path fill="#515060" d="M79,101h1v1h-1V101z"/>
<path fill="#533C32" d="M5,102h1v1H5V102z"/>
<path fill="#030303" d="M8,102h1v1H8V102z"/>
<path fill="#E8E8F8" d="M9,102h1v1H9V102z"/>
<path fill="#533C32" d="M10,102h2v2h-2v1H9v-2h1V102z"/>
<path fill="#515060" d="M12,102h1v1h-1V102z"/>
<path fill="#815C4D" d="M13,102h1v2h-1V102z"/>
<path fill="#533C32" d="M14,102h1v2h-1V102z"/>
<path fill="#030303" d="M19,102h1v2h-1V102z"/>
<path fill="#533C32" d="M28,102h1v1h-1V102z"/>
<path fill="#030303" d="M31,102h1v1h-1V102z"/>
<path fill="#E8E8F8" d="M32,102h1v1h-1V102z"/>
<path fill="#533C32" d="M33,102h2v2h-1v1h-2v-2h1V102z"/>
<path fill="#515060" d="M35,102h1v1h-1V102z"/>
<path fill="#815C4D" d="M36,102h1v2h-1V102z"/>
<path fill="#533C32" d="M37,102h1v2h-1V102z"/>
<path fill="#030303" d="M43,102h1v2h-1V102z"/>
<path fill="#533C32" d="M51,102h1v1h-1V102z"/>
<path fill="#030303" d="M54,102h1v1h-1V102z"/>
<path fill="#E8E8F8" d="M55,102h1v1h-1V102z"/>
<path fill="#533C32" d="M56,102h2v2h-2v1h-1v-2h1V102z"/>
<path fill="#515060" d="M58,102h1v1h-1V102z"/>
<path fill="#815C4D" d="M59,102h1v2h-1V102z"/>
<path fill="#533C32" d="M60,102h1v2h-1V102z"/>
<path fill="#030303" d="M65,102h1v2h-1V102z"/>
<path fill="#533C32" d="M74,102h1v1h-1V102z"/>
<path fill="#030303" d="M77,102h1v1h-1V102z"/>
<path fill="#E8E8F8" d="M78,102h1v1h-1V102z"/>
<path fill="#533C32" d="M79,102h2v2h-1v1h-2v-2h1V102z"/>
<path fill="#515060" d="M81,102h1v1h-1V102z"/>
<path fill="#815C4D" d="M82,102h1v2h-1V102z"/>
<path fill="#533C32" d="M83,102h1v2h-1V102z"/>
<path fill="#030303" d="M89,102h1v2h-1V102z"/>
<path fill="#211814" d="M6,103h1v1H6V103z"/>
<path fill="#211814" d="M12,103h1v1h-1V103z"/>
<path fill="#211814" d="M29,103h1v1h-1V103z"/>
<path fill="#211814" d="M35,103h1v1h-1V103z"/>
<path fill="#211814" d="M52,103h1v1h-1V103z"/>
<path fill="#211814" d="M58,103h1v1h-1V103z"/>
<path fill="#211814" d="M75,103h1v1h-1V103z"/>
<path fill="#211814" d="M81,103h1v1h-1V103z"/>
<path fill="#211814" d="M7,104h2v1H7V104z"/>
<path fill="#515060" d="M10,104h1v1h-1V104z"/>
<path fill="#030303" d="M18,104h1v1h-1V104z"/>
<path fill="#211814" d="M30,104h2v1h-2V104z"/>
<path fill="#030303" d="M42,104h1v1h-1V104z"/>
<path fill="#211814" d="M53,104h2v1h-2V104z"/>
<path fill="#515060" d="M56,104h1v1h-1V104z"/>
<path fill="#030303" d="M64,104h1v1h-1V104z"/>
<path fill="#211814" d="M76,104h2v1h-2V104z"/>
<path fill="#030303" d="M88,104h1v1h-1V104z"/>
<path fill="#010101" d="M8,105h2v1H8V105z"/>
<path fill="#533C32" d="M10,105h1v1h-1V105z"/>
<path fill="#7FD096" d="M11,105h1v1h-1V105z"/>
<path fill="#493130" d="M12,105h1v1h-1V105z"/>
<path fill="#010101" d="M13,105h1v2h-1V105z"/>
<path fill="#030303" d="M17,105h1v1h-1V105z"/>
<path fill="#010101" d="M31,105h2v1h-2V105z"/>
<path fill="#493130" d="M33,105h2v1h-2V105z"/>
<path fill="#030303" d="M41,105h1v1h-1V105z"/>
<path fill="#010101" d="M54,105h2v1h-2V105z"/>
<path fill="#533C32" d="M56,105h1v1h-1V105z"/>
<path fill="#7FD096" d="M57,105h1v1h-1V105z"/>
<path fill="#493130" d="M58,105h1v1h-1V105z"/>
<path fill="#010101" d="M59,105h1v2h-1V105z"/>
<path fill="#030303" d="M63,105h1v1h-1V105z"/>
<path fill="#010101" d="M77,105h2v1h-2V105z"/>
<path fill="#7FD096" d="M79,105h1v1h-1V105z"/>
<path fill="#493130" d="M80,105h1v1h-1V105z"/>
<path fill="#030303" d="M87,105h1v1h-1V105z"/>
<path fill="#493130" d="M8,106h1v1H8V106z"/>
<path fill="#7FD096" d="M9,106h2v2h-1v-1H9V106z"/>
<path fill="#493130" d="M11,106h1v2h-1V106z"/>
<path fill="#7FD096" d="M12,106h1v1h-1V106z"/>
<path fill="#030303" d="M15,106h1v1h-1V106z"/>
<path fill="#493130" d="M30,106h1v2h-1V106z"/>
<path fill="#7FD096" d="M31,106h1v2h-1V106z"/>
<path fill="#493130" d="M32,106h1v2h-1V106z"/>
<path fill="#7FD096" d="M33,106h2v1h-2V106z"/>
<path fill="#010101" d="M35,106h1v1h-1V106z"/>
<path fill="#030303" d="M36,106h1v1h-1V106z"/>
<path fill="#030303" d="M39,106h1v1h-1V106z"/>
<path fill="#493130" d="M54,106h1v1h-1V106z"/>
<path fill="#7FD096" d="M55,106h2v2h-1v-1h-1V106z"/>
<path fill="#493130" d="M57,106h1v2h-1V106z"/>
<path fill="#7FD096" d="M58,106h1v1h-1V106z"/>
<path fill="#030303" d="M61,106h1v1h-1V106z"/>
<path fill="#493130" d="M76,106h1v2h-1V106z"/>
<path fill="#7FD096" d="M77,106h2v2h-1v-1h-1V106z"/>
<path fill="#493130" d="M79,106h1v2h-1V106z"/>
<path fill="#7FD096" d="M80,106h1v1h-1V106z"/>
<path fill="#010101" d="M81,106h1v1h-1V106z"/>
<path fill="#030303" d="M82,106h1v1h-1V106z"/>
<path fill="#030303" d="M85,106h1v1h-1V106z"/>
<path fill="#493130" d="M7,107h1v1H7V107z"/>
<path fill="#59996B" d="M8,107h2v1H8V107z"/>
<path fill="#59996B" d="M12,107h1v1h-1V107z"/>
<path fill="#E9F8ED" d="M13,107h1v1h-1V107z"/>
<path fill="#493130" d="M14,107h1v2h-1V107z"/>
<path fill="#59996B" d="M33,107h1v1h-1V107z"/>
<path fill="#F8E8E8" d="M34,107h1v1h-1V107z"/>
<path fill="#493130" d="M35,107h1v2h-1V107z"/>
<path fill="#B8B0D8" d="M36,107h1v1h-1V107z"/>
<path fill="#010101" d="M37,107h1v1h-1V107z"/>
<path fill="#493130" d="M53,107h1v1h-1V107z"/>
<path fill="#59996B" d="M54,107h2v1h-2V107z"/>
<path fill="#59996B" d="M58,107h1v1h-1V107z"/>
<path fill="#E9F8ED" d="M59,107h1v1h-1V107z"/>
<path fill="#493130" d="M60,107h1v2h-1V107z"/>
<path fill="#59996B" d="M77,107h1v1h-1V107z"/>
<path fill="#F8E8E8" d="M80,107h2v1h-2V107z"/>
<path fill="#59996B" d="M82,107h1v1h-1V107z"/>
<path fill="#010101" d="M83,107h1v1h1v2h-2V107z"/>
<path fill="#010101" d="M7,108h1v2H7V108z"/>
<path fill="#B8B0D8" d="M8,108h2v2h1v1H9v-1H8V108z"/>
<path fill="#211814" d="M10,108h1v2h-1V108z"/>
<path fill="#815C4D" d="M11,108h2v1h-2V108z"/>
<path fill="#59996B" d="M13,108h1v1h-1V108z"/>
<path fill="#010101" d="M15,108h1v2h-1V108z"/>
<path fill="#010101" d="M29,108h1v2h-1V108z"/>
<path fill="#B8B0D8" d="M30,108h1v2h-1V108z"/>
<path fill="#211814" d="M31,108h1v2h-1V108z"/>
<path fill="#815C4D" d="M32,108h2v1h-2V108z"/>
<path fill="#59996B" d="M34,108h1v1h-1V108z"/>
<path fill="#59996B" d="M36,108h1v1h-1V108z"/>
<path fill="#7FD096" d="M37,108h1v2h-1v1h-1v-1h-1v-1h2V108z"/>
<path fill="#010101" d="M38,108h1v3h-1V108z"/>
<path fill="#010101" d="M53,108h1v2h-1V108z"/>
<path fill="#B8B0D8" d="M54,108h2v2h1v1h-2v-1h-1V108z"/>
<path fill="#211814" d="M56,108h1v2h-1V108z"/>
<path fill="#815C4D" d="M57,108h2v1h-2V108z"/>
<path fill="#59996B" d="M59,108h1v1h-1V108z"/>
<path fill="#010101" d="M61,108h1v2h-1V108z"/>
<path fill="#010101" d="M75,108h1v2h-1V108z"/>
<path fill="#E8E8F8" d="M76,108h2v1h2v1h-1v1h-2v-1h-1V108z"/>
<path fill="#59996B" d="M78,108h2v1h-2V108z"/>
<path fill="#010101" d="M80,108h1v2h-1V108z"/>
<path fill="#815C4D" d="M81,108h2v1h-2V108z"/>
<path fill="#533C32" d="M11,109h2v1h-2V109z"/>
<path fill="#010101" d="M13,109h1v1h-1V109z"/>
<path fill="#59996B" d="M14,109h1v1h-1V109z"/>
<path fill="#533C32" d="M32,109h2v1h-2V109z"/>
<path fill="#010101" d="M34,109h1v1h-1V109z"/>
<path fill="#533C32" d="M57,109h2v1h-2V109z"/>
<path fill="#010101" d="M59,109h1v1h-1V109z"/>
<path fill="#59996B" d="M60,109h1v1h-1V109z"/>
<path fill="#533C32" d="M81,109h2v1h-2V109z"/>
<path fill="#010101" d="M8,110h1v1H8V110z"/>
<path fill="#010101" d="M11,110h2v1h-2V110z"/>
<path fill="#59996B" d="M13,110h1v1h-1V110z"/>
<path fill="#010101" d="M14,110h1v1h-1V110z"/>
<path fill="#585898" d="M29,110h1v1h-1V110z"/>
<path fill="#493130" d="M30,110h2v1h-2V110z"/>
<path fill="#211814" d="M32,110h2v1h-2V110z"/>
<path fill="#B8B0D8" d="M34,110h1v1h-1V110z"/>
<path fill="#59996B" d="M35,110h1v1h-1V110z"/>
<path fill="#493130" d="M37,110h1v1h-1V110z"/>
<path fill="#010101" d="M54,110h1v1h-1V110z"/>
<path fill="#010101" d="M57,110h2v1h-2V110z"/>
<path fill="#59996B" d="M59,110h1v1h-1V110z"/>
<path fill="#010101" d="M60,110h1v1h-1V110z"/>
<path fill="#010101" d="M76,110h1v1h-1V110z"/>
<path fill="#B8B0D8" d="M79,110h2v1h-1v1h-1V110z"/>
<path fill="#010101" d="M81,110h2v1h-2V110z"/>
<path fill="#493130" d="M83,110h1v1h-1V110z"/>
<path fill="#533C32" d="M84,110h1v1h-1V110z"/>
<path fill="#010101" d="M85,110h1v3h-1V110z"/>
<path fill="#010101" d="M9,111h1v1H9V111z"/>
<path fill="#585898" d="M10,111h3v1h-3V111z"/>
<path fill="#010101" d="M13,111h1v1h-1V111z"/>
<path fill="#010101" d="M29,111h1v1h-1V111z"/>
<path fill="#585898" d="M30,111h2v1h-2V111z"/>
<path fill="#010101" d="M32,111h4v1h-4V111z"/>
<path fill="#815C4D" d="M36,111h2v1h-2V111z"/>
<path fill="#6890E0" d="M38,111h1v2h-2v-1h1V111z"/>
<path fill="#010101" d="M39,111h1v2h-1V111z"/>
<path fill="#010101" d="M55,111h1v1h-1V111z"/>
<path fill="#585898" d="M56,111h3v1h-3V111z"/>
<path fill="#010101" d="M59,111h1v1h-1V111z"/>
<path fill="#6890E0" d="M75,111h2v1h2v1h-3v-1h-1V111z"/>
<path fill="#585898" d="M77,111h1v1h-1V111z"/>
<path fill="#010101" d="M78,111h1v1h-1V111z"/>
<path fill="#493130" d="M80,111h2v1h-2V111z"/>
<path fill="#533C32" d="M82,111h2v1h-2V111z"/>
<path fill="#585898" d="M84,111h1v2h-2v-1h1V111z"/>
<path fill="#010101" d="M10,112h3v1h-3V112z"/>
<path fill="#010101" d="M30,112h2v1h-2V112z"/>
<path fill="#010101" d="M36,112h1v1h-1V112z"/>
<path fill="#010101" d="M56,112h3v1h-3V112z"/>
<path fill="#010101" d="M75,112h1v1h-1V112z"/>
<path fill="#010101" d="M79,112h2v1h-2V112z"/>
<path fill="#010101" d="M82,112h1v1h-1V112z"/>
<path fill="#010101" d="M37,113h2v1h-2V113z"/>
<path fill="#010101" d="M76,113h3v1h-3V113z"/>
<path fill="#010101" d="M83,113h2v1h-2V113z"/>
</svg>
