<?xml version="1.0" encoding="utf-8"?>
<!-- Generator: Adobe Illustrator 16.0.4, SVG Export Plug-In . SVG Version: 6.00 Build 0)  -->
<!DOCTYPE svg PUBLIC "-//W3C//DTD SVG 1.1//EN" "http://www.w3.org/Graphics/SVG/1.1/DTD/svg11.dtd">
<svg version="1.1" id="Layer_1" xmlns="http://www.w3.org/2000/svg" xmlns:xlink="http://www.w3.org/1999/xlink" x="0px" y="0px"
	 width="30px" height="30px" viewBox="0 0 30 30" enable-background="new 0 0 30 30" xml:space="preserve">
<rect x="1" y="4" width="28" height="22"/>
<rect x="4" y="1" width="22" height="28"/>
<path fill="#FFFFFF" d="M4,0h22v1H4V0z"/>
<path fill="#FFFFFF" d="M2,1h2v1H2V1z"/>
<path fill="#FFFFFF" d="M26,1h2v1h-2V1z"/>
<path fill="#FFFFFF" d="M1,2h1v2H1V2z"/>
<path fill="#FFFFFF" d="M28,2h1v2h-1V2z"/>
<path fill="#FFFFFF" d="M26,4V3H4v1H3v22h1v1h22v-1h1V4H26z M5,25H4V5h1V4h20v1h1v20h-1v1H5V25z"/>
<path fill="#FFFFFF" d="M0,4h1v22H0V4z"/>
<path fill="#FFFFFF" d="M29,4h1v22h-1V4z"/>
<path fill="#FFFFFF" d="M1,26h1v2H1V26z"/>
<path fill="#FFFFFF" d="M28,26h1v2h-1V26z"/>
<path fill="#FFFFFF" d="M2,28h2v1H2V28z"/>
<path fill="#FFFFFF" d="M26,28h2v1h-2V28z"/>
<path fill="#FFFFFF" d="M4,29h22v1H4V29z"/>
<rect x="2" y="2" width="2" height="2"/>
<rect x="26" y="2" width="2" height="2"/>
<rect x="26" y="26" width="2" height="2"/>
<rect x="2" y="26" width="2" height="2"/>
</svg>
